<?xml version="1.0" encoding="utf-8"?>
<!-- Generator: Adobe Illustrator 23.1.1, SVG Export Plug-In . SVG Version: 6.00 Build 0)  -->
<svg version="1.1" id="Layer_1" xmlns="http://www.w3.org/2000/svg" xmlns:xlink="http://www.w3.org/1999/xlink" x="0px" y="0px"
	 viewBox="0 0 1000 1000" style="enable-background:new 0 0 1000 1000;" xml:space="preserve">
<style type="text/css">
	.st0{fill:#383333;}
	.st1{fill:#EEF2F4;}
	.st2{fill:#2B2727;}
	.st3{fill:#72361F;}
	.st4{fill:#5B3318;}
	.st5{fill:#783F21;}
	.st6{opacity:0.44;fill:#72361F;}
	.st7{filter:url(#Adobe_OpacityMaskFilter);}
	.st8{mask:url(#XMLID_54_);}
	.st9{fill:none;stroke:#300F0F;stroke-width:6;stroke-linecap:round;stroke-linejoin:round;stroke-miterlimit:10;}
	.st10{fill:#C9C9C9;}
	.st11{fill:#B5B5B5;}
	.st12{fill:#F45145;}
	.st13{fill:#DB493E;}
	.st14{fill:#AA3930;}
	.st15{fill:#ABABAB;}
	.st16{fill:#3B69A9;}
	.st17{fill:#355E98;}
	.st18{opacity:0.23;fill:#72361F;}
	.st19{fill:#E1E1E1;}
	.st20{fill:#FDC457;}
	.st21{fill:#F2B24C;}
	.st22{fill:#323B40;}
	.st23{fill:#2D363A;}
	.st24{fill:#7D4025;}
	.st25{filter:url(#Adobe_OpacityMaskFilter_1_);}
	.st26{fill:#FFFFFF;}
	.st27{opacity:8.000000e-02;mask:url(#XMLID_59_);}
	.st28{fill:none;stroke:#300F0F;stroke-width:5.8435;stroke-linecap:round;stroke-linejoin:round;stroke-miterlimit:10;}
	.st29{fill:none;stroke:#300F0F;stroke-width:7.8052;stroke-linecap:round;stroke-linejoin:round;stroke-miterlimit:10;}
	.st30{fill:none;stroke:#300F0F;stroke-width:5.3519;stroke-linecap:round;stroke-linejoin:round;stroke-miterlimit:10;}
	.st31{fill:#D98C40;}
	.st32{fill:#C87634;}
	.st33{filter:url(#Adobe_OpacityMaskFilter_2_);}
	.st34{mask:url(#XMLID_120_);}
	.st35{fill:none;stroke:#CF8139;stroke-width:6;stroke-linecap:round;stroke-linejoin:round;stroke-miterlimit:10;}
	.st36{fill:none;stroke:#CF8139;stroke-width:4.9126;stroke-linecap:round;stroke-linejoin:round;stroke-miterlimit:10;}
</style>
<rect id="XMLID_22_" x="0" y="0" class="st0" width="1000" height="1000"/>
<g>
	<g>
		<g>
			<path class="st1" d="M63.2,959.2c0,2.5-1.2,3.7-2.6,3.7c-1.1,0-1.9-0.5-2.1-1.4c-0.4,0.5-1,0.8-1.8,0.8c-1.5,0-2.6-1.2-2.6-2.8
				c0-1.6,1.1-2.8,2.6-2.8c0.7,0,1.2,0.3,1.6,0.7v-0.5h1.6v3.9c0,0.8,0.3,1.4,1,1.4c0.9,0,1.7-0.9,1.7-3c0-3-2.3-5.3-5.4-5.3
				c-3.1,0-5.6,2.4-5.6,5.7c0,3.3,2.5,5.7,5.9,5.7c1.1,0,2.1-0.2,2.9-0.4v0.6c-0.8,0.3-1.7,0.4-2.9,0.4c-3.7,0-6.5-2.6-6.5-6.2
				c0-3.4,2.7-6.2,6.2-6.2C61.1,953.3,63.2,956.4,63.2,959.2z M58.3,959.5c0-0.8-0.6-1.4-1.3-1.4c-0.8,0-1.3,0.5-1.3,1.4
				c0,0.8,0.6,1.3,1.3,1.3C57.8,960.9,58.3,960.3,58.3,959.5z"/>
		</g>
		<g>
			<path class="st1" d="M69.4,955.1v2c-1.2-0.1-2.6,0.5-2.6,2.4v4.3h-1.9v-8.6h1.9v1.4C67.3,955.5,68.3,955.1,69.4,955.1z"/>
		</g>
		<g>
			<path class="st1" d="M74.6,962.3c1,0,1.8-0.5,2.2-1.1l1.5,0.9c-0.8,1.2-2.1,1.9-3.8,1.9c-2.8,0-4.7-1.9-4.7-4.5
				c0-2.5,1.8-4.5,4.5-4.5c2.6,0,4.3,2.1,4.3,4.5c0,0.3,0,0.5-0.1,0.8h-6.8C72.1,961.6,73.2,962.3,74.6,962.3z M76.9,958.8
				c-0.3-1.5-1.3-2.1-2.5-2.1c-1.4,0-2.3,0.8-2.6,2.1H76.9z"/>
		</g>
		<g>
			<path class="st1" d="M88.9,955.2v8.6h-1.9v-1.2c-0.7,0.9-1.7,1.5-3,1.5c-2.3,0-4.3-2-4.3-4.5c0-2.6,1.9-4.5,4.3-4.5
				c1.3,0,2.3,0.5,3,1.4v-1.2H88.9z M87.1,959.5c0-1.6-1.2-2.7-2.7-2.7c-1.5,0-2.7,1.1-2.7,2.7c0,1.6,1.2,2.7,2.7,2.7
				C85.9,962.3,87.1,961.1,87.1,959.5z"/>
		</g>
		<g>
			<path class="st1" d="M91.1,951.3H93v12.5h-1.9V951.3z"/>
		</g>
		<g>
			<path class="st1" d="M102.9,955.2l-3.3,8.6h-2.1l-3.3-8.6h2l2.4,6.5l2.4-6.5H102.9z"/>
		</g>
		<g>
			<path class="st1" d="M104.2,955.2h1.9v8.9c0,2.4-1.2,3.5-3.5,3.3v-1.8c1.1,0.1,1.7-0.3,1.7-1.5V955.2z M104,952.8
				c0-0.7,0.5-1.2,1.2-1.2c0.7,0,1.2,0.5,1.2,1.2c0,0.6-0.5,1.2-1.2,1.2C104.5,954,104,953.4,104,952.8z"/>
		</g>
		<g>
			<path class="st1" d="M116,955.2l-3.3,8.8c-0.8,2.2-2.2,3.3-4.2,3.2v-1.7c1.2,0.1,1.9-0.5,2.3-1.7l0.1-0.2l-3.6-8.4h2l2.6,6.2
				l2.2-6.2H116z"/>
		</g>
	</g>
	<g>
		<path class="st1" d="M211.9,938.7c0,2.1-1.5,3.8-3.6,3.8h-3v-7.6h3C210.4,934.9,211.9,936.6,211.9,938.7z M210.9,938.7
			c0-1.6-1.1-2.9-2.6-2.9h-2v5.7h2C209.8,941.6,210.9,940.3,210.9,938.7z"/>
		<path class="st1" d="M219.5,940.8h-3.4l-0.6,1.7h-1.1l2.8-7.6h1.1l2.8,7.6h-1.1L219.5,940.8z M219.2,939.9l-1.4-3.8l-1.4,3.8
			H219.2z"/>
		<path class="st1" d="M226.4,939.4v3.1h-1v-3.1l-2.7-4.5h1.1l2.1,3.6l2.1-3.6h1.1L226.4,939.4z"/>
		<path class="st1" d="M237,938.7c0-2.4,1.1-4,2.9-4c1.9,0,2.9,1.6,2.9,4c0,2.4-1,4-2.9,4C238.1,942.7,237,941,237,938.7z
			 M241.9,938.7c0-1.9-0.7-3-1.9-3c-1.2,0-1.9,1.1-1.9,3s0.7,3,1.9,3C241.2,941.7,241.9,940.6,241.9,938.7z"/>
		<path class="st1" d="M250.7,938.8L250.7,938.8l-2.5,3.7h-1.1l1.8-2.7c-0.1,0-0.2,0-0.4,0c-1.5,0-2.6-1-2.6-2.6
			c0-1.5,1.1-2.6,2.6-2.6s2.6,1,2.6,2.6C251.2,937.9,251.1,938.4,250.7,938.8z M248.6,938.9c1,0,1.6-0.6,1.6-1.6s-0.7-1.6-1.6-1.6
			s-1.6,0.6-1.6,1.6C247,938.3,247.6,938.9,248.6,938.9z"/>
	</g>
	<g>
		<path class="st1" d="M58.9,938.7c0,2.1-1.5,3.8-3.6,3.8h-3v-7.6h3C57.4,934.9,58.9,936.6,58.9,938.7z M57.9,938.7
			c0-1.6-1.1-2.9-2.6-2.9h-2v5.7h2C56.8,941.6,57.9,940.3,57.9,938.7z"/>
		<path class="st1" d="M67,941.6v1h-4.6v-7.6h4.5v1h-3.5v2.3h3.2v0.9h-3.2v2.4H67z"/>
		<path class="st1" d="M70,940.8l0.9-0.5c0.3,0.8,0.9,1.4,2,1.4c1.1,0,1.6-0.5,1.6-1.2c0-0.8-0.7-1-1.8-1.4
			c-1.2-0.4-2.4-0.8-2.4-2.2c0-1.4,1.1-2.2,2.4-2.2c1.3,0,2.2,0.7,2.6,1.7l-0.8,0.5c-0.3-0.7-0.8-1.2-1.7-1.2
			c-0.8,0-1.4,0.4-1.4,1.1c0,0.7,0.5,1,1.6,1.3c1.3,0.4,2.6,0.8,2.6,2.3c0,1.3-1.1,2.2-2.6,2.2C71.5,942.7,70.4,941.9,70,940.8z"/>
		<path class="st1" d="M80,934.9v7.6h-1v-7.6H80z"/>
		<path class="st1" d="M91.3,939.2c0,1.9-1.4,3.5-3.7,3.5c-2.4,0-4-1.8-4-4c0-2.2,1.7-4,4-4c1.4,0,2.7,0.8,3.3,1.8l-0.9,0.5
			c-0.4-0.8-1.4-1.4-2.4-1.4c-1.8,0-3,1.3-3,3c0,1.7,1.2,3,3,3c1.6,0,2.5-0.9,2.7-2h-2.8v-0.9h3.8V939.2z"/>
		<path class="st1" d="M100.6,934.9v7.6h-0.8l-3.9-5.7v5.7h-1v-7.6h0.8l3.9,5.7v-5.7H100.6z"/>
		<path class="st1" d="M109.1,941.6v1h-4.6v-7.6h4.5v1h-3.5v2.3h3.2v0.9h-3.2v2.4H109.1z"/>
		<path class="st1" d="M119.2,938.7c0,2.1-1.5,3.8-3.6,3.8h-3v-7.6h3C117.6,934.9,119.2,936.6,119.2,938.7z M118.2,938.7
			c0-1.6-1.1-2.9-2.6-2.9h-2v5.7h2C117.1,941.6,118.2,940.3,118.2,938.7z"/>
		<path class="st1" d="M133.2,940.4c0,1.2-1,2.2-2.2,2.2h-3.3v-7.6h3c1.2,0,2.1,0.9,2.1,2.1c0,0.7-0.3,1.2-0.8,1.6
			C132.7,938.9,133.2,939.5,133.2,940.4z M128.7,935.8v2.3h2c0.6,0,1.1-0.5,1.1-1.2c0-0.6-0.5-1.2-1.1-1.2H128.7z M132.2,940.3
			c0-0.7-0.5-1.2-1.2-1.2h-2.3v2.5h2.3C131.7,941.6,132.2,941,132.2,940.3z"/>
		<path class="st1" d="M139.4,939.4v3.1h-1v-3.1l-2.7-4.5h1.1l2.1,3.6l2.1-3.6h1.1L139.4,939.4z"/>
	</g>
	<g>
		<path class="st1" d="M213.5,953.9H210v10.4h-2v-10.4h-3.5v-1.9h9V953.9z"/>
		<path class="st1" d="M212.8,959.9c0-2.6,2.1-4.7,4.7-4.7c2.6,0,4.7,2,4.7,4.7c0,2.6-2.1,4.7-4.7,4.7
			C214.9,964.5,212.8,962.5,212.8,959.9z M220.2,959.9c0-1.6-1.2-2.8-2.8-2.8s-2.8,1.2-2.8,2.8c0,1.6,1.2,2.8,2.8,2.8
			S220.2,961.5,220.2,959.9z"/>
		<path class="st1" d="M223.4,959.9c0-2.6,2.1-4.7,4.7-4.7c2.6,0,4.7,2,4.7,4.7c0,2.6-2.1,4.7-4.7,4.7
			C225.5,964.5,223.4,962.5,223.4,959.9z M230.8,959.9c0-1.6-1.2-2.8-2.8-2.8s-2.8,1.2-2.8,2.8c0,1.6,1.2,2.8,2.8,2.8
			S230.8,961.5,230.8,959.9z"/>
		<path class="st1" d="M234.5,951.4h1.9v12.9h-1.9V951.4z"/>
		<path class="st1" d="M252.2,960.8c0,2.1-1.7,3.5-3.7,3.5h-5.3v-12.4h4.9c2,0,3.6,1.5,3.6,3.4c0,1.1-0.5,2-1.3,2.5
			C251.5,958.4,252.2,959.4,252.2,960.8z M245.2,953.8v3.3h2.9c0.9,0,1.6-0.7,1.6-1.6c0-0.9-0.7-1.6-1.6-1.6H245.2z M250.1,960.6
			c0-1-0.7-1.7-1.7-1.7h-3.3v3.5h3.3C249.4,962.4,250.1,961.6,250.1,960.6z"/>
		<path class="st1" d="M253.4,959.9c0-2.6,2.1-4.7,4.7-4.7c2.6,0,4.7,2,4.7,4.7c0,2.6-2.1,4.7-4.7,4.7
			C255.5,964.5,253.4,962.5,253.4,959.9z M260.9,959.9c0-1.6-1.2-2.8-2.8-2.8s-2.8,1.2-2.8,2.8c0,1.6,1.2,2.8,2.8,2.8
			S260.9,961.5,260.9,959.9z"/>
		<path class="st1" d="M269.6,964.3l-2.2-3l-2.2,3h-2.2l3.3-4.5l-3.2-4.3h2.2l2,2.8l2-2.8h2.2l-3.2,4.3l3.3,4.5H269.6z"/>
	</g>
	<g>
		<path class="st1" d="M841.3,942.5h-1v-7.6h1.1l2.4,4l2.4-4h1.1v7.6h-1v-6l-2.5,4.2h-0.1l-2.5-4.1V942.5z M858.8,938.7
			c0,2.2-1.7,4-4,4c-2.2,0-3.9-1.8-3.9-4c0-2.2,1.7-4,3.9-4C857.1,934.7,858.8,936.5,858.8,938.7z M857.8,938.7c0-1.7-1.3-3-2.9-3
			c-1.7,0-2.9,1.3-2.9,3c0,1.7,1.3,3,2.9,3C856.6,941.7,857.8,940.4,857.8,938.7z M866.2,939.5l1.8,3.1h-1.1l-1.7-2.9h-1.8v2.9h-1
			v-7.6h3c1.3,0,2.4,1.1,2.4,2.4C867.8,938.2,867.1,939.1,866.2,939.5z M865.4,938.7c0.8,0,1.4-0.6,1.4-1.4c0-0.8-0.6-1.4-1.4-1.4
			h-2v2.8H865.4z M875.9,941.6h-3.5v-2.4h3.2v-0.9h-3.2v-2.3h3.5v-1h-4.5v7.6h4.6V941.6z M844.2,962.2l-2.5-6.7h-2.1l3.5,8.9h2.2
			l3.5-8.9h-2.1L844.2,962.2z M850,964.3h1.9v-8.9H850V964.3z M851,951.7c-0.7,0-1.2,0.5-1.2,1.2c0,0.7,0.5,1.2,1.2,1.2
			c0.7,0,1.2-0.6,1.2-1.2C852.2,952.2,851.6,951.7,851,951.7z M855.2,951.7c-0.7,0-1.2,0.5-1.2,1.2c0,0.7,0.5,1.2,1.2,1.2
			c0.7,0,1.2-0.6,1.2-1.2C856.5,952.2,855.9,951.7,855.2,951.7z M854.3,964.7c0,1.2-0.5,1.7-1.7,1.6v1.8c2.4,0.2,3.6-1,3.6-3.4v-9.2
			h-1.9V964.7z M865.4,955.4h1.9v8.9h-1.9V963c-0.7,0.9-1.7,1.5-3.1,1.5c-2.4,0-4.4-2-4.4-4.7c0-2.6,2-4.7,4.4-4.7
			c1.4,0,2.4,0.6,3.1,1.5V955.4z M865.4,959.9c0-1.6-1.2-2.8-2.8-2.8c-1.6,0-2.8,1.2-2.8,2.8c0,1.6,1.2,2.8,2.8,2.8
			C864.2,962.7,865.4,961.5,865.4,959.9z M873.3,961.9l-2.6-6.4h-2.1l3.8,8.7l-0.1,0.2c-0.4,1.2-1.1,1.8-2.4,1.7v1.8
			c2,0.1,3.5-1,4.3-3.3l3.4-9.1h-2L873.3,961.9z M882.3,962.2l-2.5-6.7h-2.1l3.5,8.9h2.2l3.5-8.9h-2.1L882.3,962.2z M896.4,959.9
			c0,0.3,0,0.5-0.1,0.8h-7c0.3,1.4,1.4,2.1,2.8,2.1c1.1,0,1.9-0.5,2.3-1.1l1.6,0.9c-0.8,1.2-2.1,1.9-3.9,1.9c-2.9,0-4.8-2-4.8-4.7
			c0-2.6,1.9-4.7,4.7-4.7C894.5,955.2,896.4,957.3,896.4,959.9z M894.4,959.1c-0.3-1.5-1.4-2.2-2.5-2.2c-1.4,0-2.4,0.8-2.7,2.2
			H894.4z M899.9,956.9v-1.5H898v8.9h1.9v-4.5c0-2,1.5-2.6,2.7-2.5v-2.1C901.6,955.3,900.5,955.7,899.9,956.9z M913.8,955.2
			c-1.2,0-2.1,0.5-2.7,1.4c-0.5-0.9-1.4-1.4-2.5-1.4c-1.1,0-2,0.4-2.5,1.3v-1.1h-1.9v8.9h1.9v-5c0-1.6,0.9-2.3,2-2.3
			c1,0,1.7,0.7,1.7,1.9v5.4h1.9v-5c0-1.6,0.8-2.3,1.9-2.3c1,0,1.7,0.7,1.7,1.9v5.4h1.9v-5.5C917.1,956.6,915.8,955.2,913.8,955.2z
			 M926.2,955.4h1.9v8.9h-1.9V963c-0.7,0.9-1.7,1.5-3.1,1.5c-2.4,0-4.4-2-4.4-4.7c0-2.6,2-4.7,4.4-4.7c1.4,0,2.4,0.6,3.1,1.5V955.4z
			 M926.2,959.9c0-1.6-1.2-2.8-2.8-2.8c-1.6,0-2.8,1.2-2.8,2.8c0,1.6,1.2,2.8,2.8,2.8C925,962.7,926.2,961.5,926.2,959.9z
			 M931.5,961.9c-0.7,0-1.3,0.6-1.3,1.3c0,0.7,0.6,1.3,1.3,1.3c0.7,0,1.3-0.6,1.3-1.3C932.8,962.4,932.2,961.9,931.5,961.9z
			 M938.3,962.6c-1.6,0-2.7-1.2-2.7-2.8c0-1.6,1.2-2.8,2.7-2.8c1.1,0,1.9,0.5,2.3,1.4l1.6-1c-0.7-1.4-2.2-2.3-3.9-2.3
			c-2.7,0-4.7,2-4.7,4.7c0,2.6,2,4.7,4.7,4.7c1.7,0,3.2-0.9,4-2.3l-1.6-0.9C940.2,962.1,939.3,962.6,938.3,962.6z M952.4,959.9
			c0,2.6-2.1,4.7-4.7,4.7c-2.6,0-4.7-2-4.7-4.7c0-2.6,2.1-4.7,4.7-4.7C950.3,955.2,952.4,957.2,952.4,959.9z M950.5,959.9
			c0-1.6-1.2-2.8-2.8-2.8s-2.8,1.2-2.8,2.8c0,1.6,1.2,2.8,2.8,2.8S950.5,961.5,950.5,959.9z"/>
	</g>
</g>
<path id="XMLID_30_" class="st2" d="M785.7,676H191.6c-13.4,0-24.2-10.8-24.2-24.2v0c0-13.4,10.8-24.2,24.2-24.2h594.1
	c13.4,0,24.2,10.8,24.2,24.2v0C809.9,665.1,799.1,676,785.7,676z"/>
<path id="XMLID_46_" class="st3" d="M706.3,412.9V361c0-19.9-16.1-36-36-36h0c-19.9,0-36,16.1-36,36v51.8c0,33.1-26.9,60-60,60h0
	v152c0,13.3,10.7,24,24,24h144c13.3,0,24-10.7,24-24v-152h0C733.1,472.9,706.3,446,706.3,412.9z"/>
<rect id="XMLID_2_" x="656.3" y="325" class="st3" width="16.4" height="8.3"/>
<path id="XMLID_43_" class="st4" d="M692.3,412.9V361c0-19.9-16.1-36-36-36h0c-19.9,0-36,16.1-36,36v51.8c0,33.1-26.9,60-60,60h0
	v152c0,13.3,10.7,24,24,24h144c13.3,0,24-10.7,24-24v-152h0C719.1,472.9,692.3,446,692.3,412.9z"/>
<path id="XMLID_20_" class="st4" d="M752.3,472.9L752.3,472.9c-22.6,0-42.2-12.5-52.5-30.9l-55.5,22.4L616.2,480l66.6,10.4
	l69.5-13.8V472.9z"/>
<circle id="XMLID_31_" class="st5" cx="656.3" cy="361.7" r="12"/>
<rect id="XMLID_1_" x="311.3" y="325" class="st3" width="14" height="3.7"/>
<rect id="XMLID_28_" x="311.3" y="349.7" class="st5" width="345.1" height="24"/>
<rect id="XMLID_101_" x="443.2" y="349.7" class="st6" width="15.9" height="23.8"/>
<rect id="XMLID_134_" x="356.4" y="349.7" class="st6" width="25.1" height="23.8"/>
<rect id="XMLID_103_" x="552.3" y="349.7" class="st6" width="22" height="23.8"/>
<defs>
	<filter id="Adobe_OpacityMaskFilter" filterUnits="userSpaceOnUse" x="328.5" y="313.7" width="330" height="83">
		<feColorMatrix  type="matrix" values="1 0 0 0 0  0 1 0 0 0  0 0 1 0 0  0 0 0 1 0"/>
	</filter>
</defs>
<mask maskUnits="userSpaceOnUse" x="328.5" y="313.7" width="330" height="83" id="XMLID_54_">
	<g id="XMLID_100_" class="st7">
		<rect id="XMLID_94_" x="311.3" y="349.7" class="st5" width="345.1" height="24"/>
	</g>
</mask>
<g id="XMLID_82_" class="st8">
	<path id="XMLID_11_" class="st9" d="M331.5,316.7c1.2,8.3,8.1,53.2,41.3,68.7c4,1.9,20.1,9.4,28.7,2.7c11.3-8.9-3.1-33.2,9.3-48
		c8-9.6,23.7-11,34-9.3c35.6,5.9,36.3,54.3,70.7,62c21.8,4.9,44.8-9.3,56.7-16.7c24.8-15.3,29.2-31.7,44-32
		c9.1-0.2,22.5,5.6,39.3,35.3"/>
	<path id="XMLID_10_" class="st9" d="M358.8,336c-3.8,5.8-4.4,13-1.3,18.7c3,5.5,8.3,7.5,10,8c1.8,0.6,8.3,2.3,14-1.3
		c5.6-3.6,8.4-11.1,6.7-18.7"/>
	<path id="XMLID_95_" class="st9" d="M422.1,376c-0.5-1.4-4.9-14.1,2.7-25.3c0.4-0.7,6.9-10.1,15.3-10.7
		c11.9-0.9,26.6,15.9,31.3,43.3"/>
	<path id="XMLID_96_" class="st9" d="M438.1,358c-3.4,1.7-4,8.6-2,13.3c0.4,0.9,2.9,6.6,7.3,6.7c4.3,0.1,8.2-5.3,8-10
		C451.2,361.2,442.3,356,438.1,358z"/>
	<path id="XMLID_97_" class="st9" d="M495.5,335.4c0.3,3.3,1.2,9.6,5.3,16c5.9,9.2,14.3,12.8,17.3,14c2.9,1.2,12.1,4.8,22.7,2
		c7-1.8,9.8-5.3,27.3-21.3c6.1-5.6,11.1-10,14-12.7"/>
	<path id="XMLID_98_" class="st9" d="M599.5,380c0.9-8.2,6.3-14.8,13.3-16.7c0.7-0.2,9.9-2.5,16,4c4.4,4.7,4.1,10.8,4,12"/>
	<path id="XMLID_99_" class="st9" d="M527.5,338c0,9.1,4.4,15.8,9.3,16.7c4.2,0.7,8.2-3,10-4.7c5-4.6,6.3-10.4,6.7-12.7"/>
</g>
<g id="XMLID_107_">
	<polygon id="XMLID_26_" class="st10" points="433.5,341.2 433.4,341.2 424.7,317.8 424.7,317.8 424.7,317.8 424.7,317.8 
		424.7,317.8 431.8,285.2 450.7,285.2 457.9,317.8 457.9,317.8 457.9,317.8 457.9,317.8 457.9,317.8 449.1,341.2 449.1,341.2 
		449.1,411.5 433.5,411.5 	"/>
	<polygon id="XMLID_24_" class="st11" points="444.1,341.2 452.9,317.8 452.9,317.8 452.9,317.8 452.9,317.8 445.7,285.2 
		450.7,285.2 457.9,317.8 457.9,317.8 457.9,317.8 457.9,317.8 449.1,341.2 449.1,341.2 449.1,411.5 444.1,411.5 444.1,341.2 	"/>
	<path id="XMLID_15_" class="st12" d="M417.2,556.4V442.3c0-5.5,3.3-10.3,8.1-12.3c2-0.8,2.3-3.5,0.6-4.9l-6.7-5.6
		c-1.8-1.5-2.8-3.7-2.8-6v-5.3c0-2,1.6-3.6,3.6-3.6h42.4c2,0,3.6,1.6,3.6,3.6v5.3c0,2.3-1,4.5-2.8,6l-6.7,5.6
		c-1.6,1.4-1.3,4,0.6,4.9c4.8,2.1,8.1,6.8,8.1,12.3v114.1c0,7.4-6,13.4-13.4,13.4h-21.4C423.2,569.9,417.2,563.8,417.2,556.4z"/>
	<path id="XMLID_16_" class="st13" d="M457.4,556.4V442.3c0-5.5-3.3-10.3-8.1-12.3c-2-0.8-2.3-3.5-0.6-4.9l6.7-5.6
		c1.8-1.5,2.8-3.7,2.8-6v-5.3c0-2-1.6-3.6-3.6-3.6h8c2,0,3.6,1.6,3.6,3.6v5.3c0,2.3-1,4.5-2.8,6l-6.7,5.6c-1.6,1.4-1.3,4,0.6,4.9
		c4.8,2.1,8.1,6.8,8.1,12.3v114.1c0,7.4-6,13.4-13.4,13.4h-8C451.4,569.9,457.4,563.8,457.4,556.4z"/>
	<path id="XMLID_23_" class="st14" d="M437,550.3v-95.3c0-2.8-2.2-5-5-5h0c-2.8,0-5,2.2-5,5v95.3c0,2.8,2.2,5,5,5h0
		C434.8,555.3,437,553,437,550.3z"/>
	<path id="XMLID_25_" class="st14" d="M455.5,550.3v-95.3c0-2.8-2.2-5-5-5l0,0c-2.8,0-5,2.2-5,5v95.3c0,2.8,2.2,5,5,5l0,0
		C453.3,555.3,455.5,553,455.5,550.3z"/>
</g>
<g id="XMLID_108_">
	<path id="XMLID_9_" class="st10" d="M583.4,284.7c-1.6,1.8-4,4.4-6,6.6c-2.1,2.3-5.6,2.7-8.2,0.8c-5.7-4.1-15.1-11.2-27-12.1
		c-17.2-1.4-28.8,4.7-39.3,12.9c-15.5,12.2-25.3,26.8-30.5,35.8c3.9,3.4,5.6,4.4,8.6,6.9c4.9-5.1,14.5-15.8,28.1-19.2
		c2.1-0.5,5.8-1.4,10.2,0c1.5,0.5,4.3,1.6,6.8,4.4c4.3,4.8,4,10.7,4,12v38.8h25.5v-37.1c-0.5-6.5,2.3-12.5,7.2-15
		c0.4-0.2,5.2-2.6,9.9-0.8c3.4,1.3,7.6,5.2,10.8,8.3c0.3,0.3,1.1,1,2.4,1.5c0.7,0.2,1.5,0.4,2.2,0.3c4.6-0.1,14-0.3,20.5-0.6
		c3.1-0.1,5.5-2.6,5.5-5.7v-33.8c0-3.1-2.5-5.6-5.6-5.7c-6.2-0.1-15-0.3-20.3-0.4C586.4,282.6,584.6,283.4,583.4,284.7z"/>
	<g id="XMLID_12_">
		<path id="XMLID_27_" class="st15" d="M517.2,314.6c-2.8-3.2-6.2-4.5-7.8-5.1c-5-1.6-9.4-0.6-11.8,0c-7.5,1.8-13.9,5.6-19.2,9.7
			c-2.4,3.5-4.4,6.7-6,9.4c3.9,3.4,5.6,4.4,8.6,6.9c4.9-5.1,14.5-15.8,28.1-19.2c1.9-0.5,5.3-1.3,9.3-0.3
			C518.1,315.7,517.7,315.2,517.2,314.6z"/>
		<path id="XMLID_44_" class="st15" d="M612.7,323.2c-7.5,0.2-18.4,0.5-23.7,0.6c-0.9,0-1.8-0.1-2.6-0.4c-1.5-0.5-2.5-1.4-2.8-1.7
			c-3.7-3.5-8.6-8-12.5-9.5c-5.4-2.1-11,0.8-11.4,1c-5.6,3-8.8,9.8-8.3,17.4v41.2h4.3v-37.1c-0.5-6.5,2.3-12.5,7.2-15
			c0.4-0.2,5.2-2.6,9.9-0.8c3.4,1.3,7.6,5.2,10.8,8.3c0.3,0.3,1.1,1,2.4,1.5c0.7,0.2,1.5,0.4,2.2,0.3c4.6-0.1,14-0.3,20.5-0.6
			c2.9-0.1,5.3-2.4,5.5-5.2C613.7,323.1,613.2,323.2,612.7,323.2z"/>
	</g>
	<path id="XMLID_4_" class="st16" d="M546,548.7h-4.8c-12.6,0-22.6-12.4-22.2-27.3l4.7-149.7h39.8l4.7,149.7
		C568.6,536.3,558.6,548.7,546,548.7z"/>
	<path id="XMLID_93_" class="st17" d="M568.2,521.4l-4.7-149.7h-9.7l4.7,149.7c0.4,13.9-8.3,25.6-19.7,27.1c0.8,0.1,1.6,0.2,2.4,0.2
		h4.8C558.6,548.7,568.6,536.3,568.2,521.4z"/>
	<path id="XMLID_7_" class="st17" d="M568.7,383.8h-50.2c-3.3,0-6-2.7-6-6l0,0c0-3.3,2.7-6,6-6h50.2c3.3,0,6,2.7,6,6l0,0
		C574.7,381.1,572,383.8,568.7,383.8z"/>
</g>
<polygon id="XMLID_102_" class="st18" points="521.8,437.5 564.5,408.1 565.4,435.2 521.1,460 "/>
<g id="XMLID_109_">
	<polygon id="XMLID_70_" class="st10" points="682.2,322.6 416.5,528.4 468.4,595.3 762.7,425.5 	"/>
	<polygon id="XMLID_65_" class="st19" points="751.1,408.7 455.6,578.7 468.8,595.6 759,427.6 	"/>
	<path id="XMLID_13_" class="st20" d="M823.4,357.7l-54.7-70.6c-8.4-10.9-24.1-12.9-35-4.4l-5.8,4.5l20.4,26.3l0,0
		c1.4-0.5,2.8-0.7,4.3-0.7c0,0,0.1,0,0.1,0c0.3,0,0.7,0,1,0c0.1,0,0.1,0,0.2,0c0.9,0.1,1.9,0.2,2.8,0.5c0.1,0,0.3,0.1,0.4,0.1
		c0.2,0.1,0.4,0.1,0.7,0.2c0.2,0.1,0.4,0.1,0.6,0.2c0.2,0.1,0.4,0.2,0.6,0.2c0.2,0.1,0.5,0.2,0.7,0.3c0.1,0.1,0.3,0.1,0.4,0.2
		c0.4,0.2,0.7,0.4,1,0.7c0.1,0.1,0.2,0.2,0.4,0.3c0.2,0.2,0.5,0.4,0.7,0.5c0.1,0.1,0.2,0.2,0.4,0.3c0.2,0.2,0.4,0.4,0.7,0.6
		c0.1,0.1,0.2,0.2,0.3,0.3c0.3,0.3,0.6,0.7,0.9,1l26,33.6c0.3,0.4,0.5,0.7,0.8,1.1c0.1,0.1,0.1,0.2,0.2,0.4c0.2,0.3,0.3,0.5,0.4,0.8
		c0.1,0.1,0.1,0.3,0.2,0.4c0.1,0.3,0.2,0.5,0.4,0.8c0.1,0.1,0.1,0.3,0.2,0.4c0.1,0.4,0.3,0.8,0.4,1.2c0,0.2,0.1,0.3,0.1,0.5
		c0.1,0.3,0.1,0.5,0.2,0.8c0,0.2,0.1,0.4,0.1,0.6c0,0.2,0,0.4,0.1,0.6c0,0.2,0,0.5,0.1,0.7c0,0.2,0,0.3,0,0.5c0,1-0.1,1.9-0.2,2.8
		c0,0.1,0,0.1,0,0.2c-0.1,0.3-0.1,0.6-0.2,1c0,0,0,0.1,0,0.1c-0.4,1.4-1,2.7-1.8,4c0,0,0,0,0,0l21.6,27.9l3.4-2
		C829.3,387.1,832.7,369.7,823.4,357.7z"/>
	<g id="XMLID_135_">
		<path id="XMLID_146_" class="st21" d="M784.7,344.5l-26-33.6c-0.3-0.4-0.6-0.7-0.9-1c-0.1-0.1-0.2-0.2-0.3-0.3
			c-0.2-0.2-0.4-0.4-0.7-0.6c-0.1-0.1-0.2-0.2-0.4-0.3c-0.2-0.2-0.5-0.4-0.7-0.5c-0.1-0.1-0.2-0.2-0.4-0.3c-0.3-0.2-0.7-0.5-1-0.7
			c-0.1-0.1-0.3-0.1-0.4-0.2c-0.2-0.1-0.5-0.2-0.7-0.3c-0.2-0.1-0.4-0.2-0.6-0.2c-0.2-0.1-0.4-0.1-0.6-0.2c-0.2-0.1-0.4-0.2-0.7-0.2
			c-0.1,0-0.3-0.1-0.4-0.1c-0.9-0.3-1.9-0.4-2.8-0.5c-0.1,0-0.1,0-0.2,0c-0.3,0-0.7,0-1,0c0,0-0.1,0-0.1,0c-1.4,0-2.9,0.3-4.3,0.7
			c0,0,0,0,0,0L728,287.1l0,0l20.4,26.3l0,0c1.4-0.5,2.8-0.7,4.3-0.7c0,0,0.1,0,0.1,0c0.3,0,0.7,0,1,0c0.1,0,0.1,0,0.2,0
			c0.9,0.1,1.9,0.2,2.8,0.5c0.1,0,0.3,0.1,0.4,0.1c0.2,0.1,0.4,0.1,0.7,0.2c0.2,0.1,0.4,0.1,0.6,0.2c0.2,0.1,0.4,0.2,0.6,0.2
			c0.2,0.1,0.5,0.2,0.7,0.3c0.1,0.1,0.3,0.1,0.4,0.2c0.4,0.2,0.7,0.4,1,0.7c0.1,0.1,0.2,0.2,0.4,0.3c0.2,0.2,0.5,0.4,0.7,0.5
			c0.1,0.1,0.2,0.2,0.4,0.3c0.2,0.2,0.4,0.4,0.7,0.6c0.1,0.1,0.2,0.2,0.3,0.3c0.3,0.3,0.6,0.7,0.9,1l20.7,26.7
			C785,344.9,784.8,344.7,784.7,344.5z"/>
		<path id="XMLID_149_" class="st21" d="M823.4,357.7l-4.9-6.3c8.2,11.9,4.6,28.4-8.1,35.8l-3.4,2l-15.8-20.5c0,0,0,0,0,0
			c0,0,0,0,0,0l21.6,27.9l3.4-2C829.3,387.1,832.7,369.7,823.4,357.7z"/>
	</g>
	<g id="XMLID_45_">
		<path id="XMLID_66_" class="st22" d="M762.2,316.1C762.2,316.1,762.2,316.1,762.2,316.1C762.2,316.1,762.2,316.1,762.2,316.1
			L762.2,316.1z"/>
		<path id="XMLID_67_" class="st22" d="M761.1,315.3c-0.3-0.2-0.7-0.5-1-0.7l0,0C760.4,314.8,760.8,315.1,761.1,315.3L761.1,315.3z"
			/>
		<path id="XMLID_68_" class="st22" d="M762.5,316.4L762.5,316.4c0.2,0.2,0.4,0.4,0.6,0.6C763,316.8,762.8,316.6,762.5,316.4z"/>
		<path id="XMLID_72_" class="st22" d="M759.7,314.4c-0.2-0.1-0.5-0.2-0.7-0.3c0,0,0,0,0,0C759.2,314.2,759.4,314.3,759.7,314.4
			L759.7,314.4z"/>
		<path id="XMLID_76_" class="st22" d="M755.3,312.9C755.3,312.9,755.3,313,755.3,312.9C755.3,313,755.3,313,755.3,312.9z"/>
		<path id="XMLID_77_" class="st22" d="M752.8,312.7C752.7,312.7,752.7,312.7,752.8,312.7C752.7,312.7,752.7,312.7,752.8,312.7
			L752.8,312.7z"/>
		<path id="XMLID_79_" class="st22" d="M793.3,358.9c0,0.2,0,0.4,0.1,0.6l0,0C793.4,359.3,793.3,359.1,793.3,358.9L793.3,358.9z"/>
		<path id="XMLID_81_" class="st22" d="M758.4,313.8c-0.1,0-0.2-0.1-0.3-0.1C758.2,313.8,758.3,313.8,758.4,313.8L758.4,313.8z"/>
		<path id="XMLID_83_" class="st22" d="M753.9,312.8c-0.1,0-0.1,0-0.2,0l0,0C753.8,312.8,753.9,312.8,753.9,312.8L753.9,312.8z"/>
		<path id="XMLID_84_" class="st22" d="M793.2,358c0,0.1,0,0.2,0.1,0.3l0,0C793.2,358.2,793.2,358.1,793.2,358z"/>
		<path id="XMLID_85_" class="st22" d="M792.6,355.9c0.1,0.2,0.2,0.5,0.2,0.8C792.7,356.4,792.7,356.1,792.6,355.9L792.6,355.9z"/>
		<path id="XMLID_86_" class="st22" d="M793.4,360.2L793.4,360.2c0,0.2,0,0.3,0,0.5v0C793.4,360.5,793.4,360.4,793.4,360.2z"/>
		<path id="XMLID_87_" class="st22" d="M792.1,354.7c0.1,0.1,0.1,0.3,0.2,0.4C792.2,354.9,792.1,354.8,792.1,354.7
			C792.1,354.7,792.1,354.7,792.1,354.7z"/>
		<path id="XMLID_88_" class="st22" d="M791.1,368.7C791.1,368.7,791.1,368.7,791.1,368.7c-0.9,1.4-2,2.6-3.3,3.6l-8.5,6.6
			c-12.8,9.9-31.1,7.6-41-5.2l-8-10.4c-9.9-12.8-7.6-31.1,5.2-41l8.5-6.6c1.3-1,2.8-1.8,4.4-2.3c0,0,0,0,0,0l0,0l-20.4-26.3
			l-53.3,41.3l79.2,102.2l62.3-36l-3.4,2L791.1,368.7z"/>
		<path id="XMLID_89_" class="st22" d="M791.4,353.4c0.1,0.1,0.2,0.3,0.2,0.4C791.6,353.7,791.5,353.6,791.4,353.4L791.4,353.4z"/>
		<path id="XMLID_90_" class="st22" d="M790.4,351.9c0.3,0.4,0.5,0.7,0.8,1.1l0,0C790.9,352.7,790.7,352.3,790.4,351.9z"/>
		<polygon id="XMLID_91_" class="st22" points="793.2,363.5 793.2,363.5 793.2,363.5 		"/>
		<path id="XMLID_92_" class="st22" d="M793.4,362.1L793.4,362.1L793.4,362.1z"/>
	</g>
	<path id="XMLID_19_" class="st20" d="M725.2,284.1"/>
</g>
<polygon id="XMLID_195_" class="st23" points="812.7,396.6 753.8,430.6 748.4,423.7 807.1,389.4 "/>
<path id="XMLID_14_" class="st24" d="M738.3,648.9H388.1v-176h364.1v162C752.3,642.6,746,648.9,738.3,648.9z"/>
<circle id="XMLID_49_" class="st5" cx="389.5" cy="513.3" r="9"/>
<path id="XMLID_3_" class="st3" d="M361.3,412.9V361c0-19.9-16.1-36-36-36h0c-19.9,0-36,16.1-36,36v51.8c0,33.1-26.9,60-60,60h0v152
	c0,13.3,10.7,24,24,24h144c13.3,0,24-10.7,24-24v-152h0C388.1,472.9,361.3,446,361.3,412.9z"/>
<polygon id="XMLID_17_" class="st3" points="742.4,648.9 398.9,648.9 413.9,634.9 755.4,634.9 "/>
<path id="XMLID_42_" class="st3" d="M752.3,472.9v135.4c0,0,0,0,0,0v16.5c0,5.5-4.5,10-10,10h-16.5c0,0,0,0,0,0h-27.9v14h44.5
	c13.3,0,24-10.7,24-24v-152H752.3z"/>
<defs>
	<filter id="Adobe_OpacityMaskFilter_1_" filterUnits="userSpaceOnUse" x="373.1" y="396.1" width="443.5" height="374.9">
		<feColorMatrix  type="matrix" values="1 0 0 0 0  0 1 0 0 0  0 0 1 0 0  0 0 0 1 0"/>
	</filter>
</defs>
<mask maskUnits="userSpaceOnUse" x="373.1" y="396.1" width="443.5" height="374.9" id="XMLID_59_">
	<g id="XMLID_168_" class="st25">
		<path id="XMLID_167_" class="st26" d="M766.3,624.9c0,13.3-10.7,24-24,24H380.5h2.4c13.2,0,24-10.7,24-23.9l0.4-152.1h359V624.9z"
			/>
	</g>
</mask>
<g id="XMLID_166_" class="st27">
	<path id="XMLID_147_" class="st9" d="M414.1,598.1c9-15.2,40.8,1.6,26.3,18.3C429.1,629.5,405.5,612.7,414.1,598.1
		C418.7,590.3,410.6,604,414.1,598.1z"/>
	<path id="XMLID_148_" class="st28" d="M451,460.3c0.1,24.3,8.2,60.9,23.3,73.3c30,24.5,124.7-16,126-55.3
		C601.9,430.2,463.8,382,445,405c-5.8,7.1-5.3,27.6-1.7,28.7c1.2,0.4,2.3-2.2,3.7-1.9C451.2,432.4,451,455.2,451,460.3z"/>
	<path id="XMLID_150_" class="st9" d="M388.4,481.2c-23.9,66.5,71.3,53.5,89.1,97.4c18.8,46.3-42.4,82.5-78.3,93.1"/>
	<path id="XMLID_154_" class="st9" d="M391.8,578.7c40.4-27.6,81.9-3.4,57.3,42.1c-14.4,26.6-43.5,40.2-72.9,41.9"/>
	<path id="XMLID_176_" class="st9" d="M689.8,566.6"/>
	<path id="XMLID_172_" class="st9" d="M677.1,771"/>
	<path id="XMLID_155_" class="st9" d="M728.3,533.6c3.9,2.4,10.6,5.6,19,5.6c3.8,0,8.6-0.1,12.7-3.4c1.1-0.9,4.4-3.6,4.5-7.1
		c0.2-6.3-9.5-12.4-18.3-13c-7.1-0.4-17.1,2.6-19,9.8C726.4,528.7,727.4,531.7,728.3,533.6z"/>
	<path id="XMLID_161_" class="st9" d="M715.2,556.9c9.1,5,18.1,3.6,36,0.7c12.1-1.9,18.7-3.1,25.4-8.5c1.9-1.5,11.9-9.6,12.7-21.9
		c1.1-15.9-13.9-28.9-26.1-33.9c-21.2-8.6-40.9,4.1-44.4,6.3c-6.1,4-21.1,13.6-21.2,29.6C697.5,541.9,706.6,552.2,715.2,556.9z"/>
	<path id="XMLID_162_" class="st9" d="M786.1,576.7c-5.3,4.1-22.7,16.9-46.7,14c-19.2-2.3-31.3-13.4-34.7-16.7
		c-15-14.7-17.4-32.4-18-38c-0.6-5.6-2-19,5.2-33.5c6.1-12.2,15-18.7,20.5-22.6c22.6-16.2,47-13.9,51.5-13.4
		c8.4,0.9,21.1,2.3,32.5,12c20,17,17.4,45.4,16.9,50.1C810.7,557.3,790.1,573.7,786.1,576.7z"/>
	<path id="XMLID_164_" class="st9" d="M795.7,590c-3.3,3.2-8.5,7.5-15.7,11c-27.6,13.2-58.5,0.4-75.7-6.7
		c-17.7-7.3-29.9-15.8-46.7-27.3c-29.1-20.1-32.6-28.5-51.3-33.3c-6-1.6-25.2-6.2-44.5,2.5c-5.8,2.6-10.2,6-14.8,9.8
		c-22.3,18.2-28.5,38.8-48,82c-4.5,10-11.2,24.5-20,42"/>
	<path id="XMLID_165_" class="st9" d="M523,724c15.8,5.1,47.9-66.9,69.5-59.2c12.1,4.3,10.9,30.3,20.5,31.2c10.6,0.9,21-30,22-33
		c2.5-7.7,19.4-58.9-9-92c-3.9-4.5-12.7-14.5-27.2-17.7c0,0-15.5-3.4-33.8,5.7C516.7,582.7,502.5,717.3,523,724z"/>
	<path id="XMLID_173_" class="st9" d="M565,637c5.7,4.2,20.2-5.7,28-15c3.9-4.6,12.1-14.3,8.4-21.8c-2.9-5.8-11.8-7.9-18.4-6.2
		c-7.5,1.9-11,8.5-14,14C564.2,616.9,559.4,632.9,565,637z"/>
	<path id="XMLID_174_" class="st9" d="M604,438.3c9.8,10.1,20.7,24.5,17.6,38.8c-2.3,10.6-11,15.1-9.3,17.9c3.3,5.5,39.9-2.4,64-28
		c12.8-13.6,18.7-28.7,21.5-38.6"/>
	<path id="XMLID_177_" class="st9" d="M507,497c7.6,8.2,22.6,15.4,34,10c11-5.2,13.4-19.6,14-23.3c5-29.8-21.4-65.8-37-62.9
		C501,423.9,486.6,474.8,507,497z"/>
	<path id="XMLID_178_" class="st9" d="M522.2,435.7c5.6,0.1,10.4,17.3,10.8,31.3c0.2,7-0.5,23.8-5.3,24.7c-6,1-19.7-22.8-14-43.1
		C513.8,448.1,517.4,435.6,522.2,435.7z"/>
	<path id="XMLID_179_" class="st9" d="M798.2,632.9c-39,24.1-57.4,23.2-67,16.9c-6.9-4.5-9.9-12.3-28.2-26.8
		c-7.7-6.1-13.8-10-21.2-9.2c-7.2,0.8-12.1,5.6-13.4,7.1c-4.7,5-5.7,10.8-7.1,19.8c-1.6,10.4-0.1,13.3-2.1,23.3
		c-1.1,5.2-2.5,9.3-3.5,12"/>
	<path id="XMLID_52_" class="st28" d="M474.3,420.2"/>
	<path id="XMLID_53_" class="st9" d="M680.8,657.4c-7.3-10.6-8.2-20.9-4-24.7c5-4.4,16.1,1.4,17.3,2c12.4,6.6,15.9,20.4,16.7,24"/>
	<path id="XMLID_56_" class="st9" d="M501.5,554.2c-7.2,1.2-14.8,8.2-13.3,16c1,5.2,5.9,10.1,10.7,10c9.1-0.1,16.7-18.2,12-24
		C508.3,553,502.7,554,501.5,554.2z"/>
	<path id="XMLID_137_" class="st9" d="M548,613c3.9-12.7,9.7-31.5,27-39c2.4-1,14.7-6.4,27.8-0.6c13.6,6,17.8,19.6,18.7,22.7
		c5.7,20.3-9.8,36.4-10.7,37.3c-3.1,3.2-5.8,4.6-19.3,10.7c-26.3,11.7-39.5,17.5-43.5,15C536.2,651.6,546.7,617.4,548,613z"/>
	<path id="XMLID_144_" class="st9" d="M740.8,706.2"/>
	<path id="XMLID_145_" class="st29" d="M403,487.7c0.5,4.3,2.9,22.9,17.4,30.7c4.3,2.3,13.5,5.8,17.4,2c5.1-4.9-3.8-16.8-9.3-40.1
		c-6.6-27.4-1.7-41.7-6-42.7C416.4,436.1,399.7,461.7,403,487.7z"/>
	<path id="XMLID_6_" class="st9" d="M761,662c-20.6-11.1-30.3-27.1-27-34c3.3-6.8,21.7-9.1,43,0"/>
	<path id="XMLID_8_" class="st9" d="M673,599c-0.1-4-9-9.5-14-6c-4.1,2.9-4.1,10.5-1,13C662.2,609.4,673.1,603.5,673,599z"/>
	<path id="XMLID_18_" class="st30" d="M628,508c-5,2.6-7.4,3.9-8,6c-2.1,7.3,12.8,18.5,26,23.5c8,3.1,17.4,6.5,24.3,1.6
		c8.5-6,8.2-21.5,2.7-30.1c-0.9-1.4-3.2-4.9-7.6-6.9c-2.1-1-4.8-2.2-11.4-1.1C641.3,503.2,635.4,504.1,628,508z"/>
	<path id="XMLID_21_" class="st9" d="M650.4,514.8c-6,0.6-11.1,5.4-9,9c1.7,2.9,7.6,4.5,12.3,3.4c5.3-1.2,8.8-5.7,6.6-9
		C658.6,515.6,654.1,514.4,650.4,514.8z"/>
	<path id="XMLID_29_" class="st9" d="M489.7,443.7c-2,3.5-17.3,31.8-4,59.3c2.2,4.5,9,18.7,24,24c22,7.8,46.3-9,58-24.7
		c12.9-17.3,13-36.5,12.7-44"/>
</g>
<path id="XMLID_5_" class="st31" d="M347.3,412.9V361c0-19.9-16.1-36-36-36h0c-19.9,0-36,16.1-36,36v51.8c0,33.1-26.9,60-60,60h0
	v152c0,13.3,10.7,24,24,24h144c13.3,0,24-10.7,24-24v-152h0C374.1,472.9,347.3,446,347.3,412.9z"/>
<path id="XMLID_69_" class="st32" d="M217.4,634.9c3.8,8.3,12.1,14,21.8,14h144c9.7,0,18-5.7,21.8-14H217.4z"/>
<defs>
	<filter id="Adobe_OpacityMaskFilter_2_" filterUnits="userSpaceOnUse" x="195" y="329.7" width="305.4" height="372.7">
		<feColorMatrix  type="matrix" values="1 0 0 0 0  0 1 0 0 0  0 0 1 0 0  0 0 0 1 0"/>
	</filter>
</defs>
<mask maskUnits="userSpaceOnUse" x="195" y="329.7" width="305.4" height="372.7" id="XMLID_120_">
	<g id="XMLID_138_" class="st33">
		<path id="XMLID_118_" class="st31" d="M347.3,412.9V361c0-19.9-16.1-36-36-36h0c-19.9,0-36,16.1-36,36v51.8c0,33.1-26.9,60-60,60
			h0v152c0,13.3,10.7,24,24,24h144c13.3,0,24-10.7,24-24v-152h0C374.1,472.9,347.3,446,347.3,412.9z"/>
	</g>
</mask>
<g id="XMLID_117_" class="st34">
	<path id="XMLID_104_" class="st35" d="M252.1,678.7c-18.3-25.6-6.3-74,23.3-89.3c13.8-7.1,27.2-4.9,31.1-4.3
		c37.2,6.6,69.2,55.1,56.7,84C349,702,276.1,712.1,252.1,678.7z"/>
	<path id="XMLID_106_" class="st35" d="M216.1,650.7c-8-22.4,10.7-56.1,35.7-72c46.7-29.8,98.2,13.2,134-16
		c29.9-24.5,18.6-74.8,25-75c9.7-0.3,58.1,115.1,0,176C354.1,723.1,231.4,693.6,216.1,650.7z"/>
	<path id="XMLID_110_" class="st35" d="M277.8,656.7c-9.2-10-14-27.4-5.7-40c6.2-9.4,17.2-11.4,20.7-12c15.9-3,41.4,3.1,46,22.7
		c3.9,16.5-9,34.7-26,39.3C300.4,670.1,286.5,666.2,277.8,656.7z"/>
	<path id="XMLID_111_" class="st36" d="M379.5,625.7c5.3-2.4,5.9-19.5-2.5-25.8c-2.9-2.2-8.3-4.1-11.9-1.6c-3.9,2.6-3.4,8.8-3.3,9.8
		C362.7,618.4,374.5,628,379.5,625.7z"/>
	<path id="XMLID_112_" class="st35" d="M212.1,527.4c7.3-2.6,17.6,2.2,21.3,9.3c8.9,17.1-20.1,48.8-29.3,45.3
		C194.7,578.5,195.4,533.4,212.1,527.4z"/>
	<path id="XMLID_113_" class="st35" d="M207.8,499.7c7,6.1,18,14.2,33,20.3c19.2,7.8,36.3,8.9,46.7,8.7c15.6-3.9,24.2-10.7,29.3-17
		c26.1-31.9,5.6-103.7-54-177"/>
	<path id="XMLID_115_" class="st35" d="M219.4,470c8,19.7,33.8,35.9,52.4,28.7c13-5,18-19.6,19.6-24.2c11-32-8.1-76.9-29.6-78.8
		C239.4,393.8,206.3,437.9,219.4,470z"/>
	<path id="XMLID_116_" class="st35" d="M403.8,377.7c-5.9-20-23.1-47.3-38.9-44.9c-18.2,2.8-23.5,43.8-25.1,48.9
		c-11.6,37.3,7.3,84.7,26,87c13.9,1.7,27-22.6,31-30C400,432.8,412.7,407.6,403.8,377.7z"/>
	<path id="XMLID_132_" class="st35" d="M352.9,490.3c-3,1.6-7.1,4.5-25.1,40.4c-8.7,17.3-9.6,20.3-8,23c4.8,8.2,29.6,6.4,46.6-4.9
		c20.3-13.6,33.8-43.1,24-55.5C383.3,484.2,364.8,483.9,352.9,490.3z"/>
	<path id="XMLID_136_" class="st35" d="M363.4,505.3c-11.1,7.8-21.3,22.8-17.6,27.4c4.2,5.2,27.7-1.1,32.5-15.2
		c1.9-5.7,1.2-14.1-3-16.2C371.7,499.6,366.8,502.9,363.4,505.3z"/>
	<path id="XMLID_139_" class="st35" d="M296.8,628.7c-10.9,5.8-7.5,36.6,1.3,39.3c7.7,2.4,26.9-14.8,21.3-28.7
		C316,630.6,303.4,625.2,296.8,628.7z"/>
	<path id="XMLID_140_" class="st35" d="M244.8,548.7c-0.5,3.3,8.9,7.9,16.7,8.7c2.7,0.3,7.4,0.7,9.3-2c1.6-2.2,0.9-5.8-0.7-8
		C264.9,540.2,245.5,544.2,244.8,548.7z"/>
	<path id="XMLID_141_" class="st35" d="M232.1,454.7c1,16,18.6,31.5,27.7,28c8.2-3.2,12.3-22.9,3.7-34.7c-6-8.2-18.9-13.6-26-8.7
		C231.4,443.5,232,453.3,232.1,454.7z"/>
	<path id="XMLID_114_" class="st35" d="M305.8,349.7c-3.7,2.5-3.3,13.9,4,20c8.2,6.8,20.6,3.3,22-1C334,362,311.8,345.6,305.8,349.7
		z"/>
	<path id="XMLID_50_" class="st36" d="M452.8,570.7c-14.2-5.1-40.3-8.1-53,8c-14.3,18.1-0.2,45.8,2,50c1.6,3,14.8,26.9,43,31
		c16.7,2.4,41.4-1.8,50-18C506.8,619,482.7,581.5,452.8,570.7z"/>
</g>
<circle id="XMLID_57_" class="st3" cx="389.5" cy="560.9" r="9"/>
<circle id="XMLID_105_" class="st3" cx="389.5" cy="513.3" r="9"/>
<circle id="XMLID_60_" class="st3" cx="389.5" cy="608.4" r="9"/>
<circle id="XMLID_64_" class="st3" cx="232.1" cy="513.3" r="9"/>
<circle id="XMLID_63_" class="st3" cx="232.1" cy="560.9" r="9"/>
<circle id="XMLID_61_" class="st3" cx="232.1" cy="608.4" r="9"/>
<circle id="XMLID_38_" class="st3" cx="311.3" cy="361.7" r="12"/>
</svg>
