<?xml version="1.0" encoding="utf-8"?>
<!-- Generator: Adobe Illustrator 23.1.1, SVG Export Plug-In . SVG Version: 6.00 Build 0)  -->
<svg version="1.1" id="Layer_1" xmlns="http://www.w3.org/2000/svg" xmlns:xlink="http://www.w3.org/1999/xlink" x="0px" y="0px"
	 viewBox="0 0 1000 1000" style="enable-background:new 0 0 1000 1000;" xml:space="preserve">
<style type="text/css">
	.st0{fill:#2B9CF2;}
	.st1{fill:#65BDFF;}
	.st2{fill:#FFFFFF;}
	.st3{fill:none;stroke:#4E5A7D;stroke-width:3;stroke-linecap:round;stroke-linejoin:round;stroke-miterlimit:10;}
	.st4{fill:#E08484;}
	.st5{fill:none;stroke:#4E5A7D;stroke-width:6;stroke-linecap:round;stroke-linejoin:round;stroke-miterlimit:10;}
	.st6{fill:#FBE3D5;}
	.st7{fill:#D5B6A5;}
	.st8{fill:#D87171;}
	.st9{fill:#BCAFAA;}
	.st10{fill:#4E5A7D;}
	.st11{fill:#84BDE1;}
	.st12{opacity:0.3;fill:#84BDE1;}
	.st13{fill:none;stroke:#4E5A7D;stroke-width:4;stroke-linecap:round;stroke-linejoin:round;stroke-miterlimit:10;}
	.st14{fill:#F5CFC4;}
	.st15{fill:#FEF0E3;}
	.st16{fill:#EDD4C6;}
	.st17{fill:none;stroke:#4E5A7D;stroke-width:8;stroke-linecap:round;stroke-linejoin:round;stroke-miterlimit:10;}
	.st18{opacity:0.58;fill:none;stroke:#D5B6A5;stroke-width:6;stroke-linecap:round;stroke-linejoin:round;stroke-miterlimit:10;}
	.st19{fill:none;stroke:#FFFFFF;stroke-width:2;stroke-linecap:round;stroke-linejoin:round;stroke-miterlimit:10;}
</style>
<rect id="XMLID_133_" class="st0" width="1000" height="1000"/>
<path id="XMLID_124_" class="st1" d="M689.3,380.4c-17,10.5,22.8,124.8,41.2,122.2c11.5-1.6,24.4-50.3,2.2-87.7
	C721.1,395.2,697.7,375.2,689.3,380.4z"/>
<path id="XMLID_179_" class="st1" d="M401.8,286.7c-29,12.3-61.5,26.4-74.9,58c-21.6,50.8,28.1,90.7,4.5,140.9
	c-13.7,29-32.8,20.9-59.9,54.8c-32.2,40.4-51,109.4-22.9,163.6c21.4,41.4,61.6,57.7,95.8,71.6c11.8,4.8,89.9,35.4,164.2,9.8
	c17.8-6.1,25-14.9,40.2-13.4c36.8,3.8,42.3,52.9,75.9,60.9c28.2,6.7,61-19.2,81.7-45.2c4.1-5.2,7.8-10.4,10.9-15.4
	c18-34.7,32.5-74.8,36.3-115c0.9-10.1,1.2-20.1,0.7-30.1c-1.9-25.6-7.1-50.5-22.8-73.2c-28.2-43.5-71.1-77.6-71.3-131.8
	c-1.2-8.2-2-16.7-2.8-25.3c-4.1-43.2-7.6-89.5-50.3-117.1c-56.5-36.2-122.4-21.7-179.3-2.5C418.4,280.2,409.8,283.3,401.8,286.7z"/>
<g id="XMLID_229_">
	<g id="XMLID_119_">
		<path id="XMLID_228_" class="st2" d="M172.9,457.8l-4.7,0.6c-4.3,0.6-8.2-2.4-8.8-6.7l-6.3-46.6c-0.6-4.3,2.4-8.2,6.7-8.8l4.7-0.6
			c4.3-0.6,8.2,2.4,8.8,6.7l6.3,46.6C180.2,453.3,177.2,457.2,172.9,457.8z"/>
		<path id="XMLID_123_" class="st2" d="M151.4,450.7L151.4,450.7c-4.3,0.6-8.2-2.4-8.8-6.7L139,417c-0.6-4.3,2.4-8.2,6.7-8.8h0
			c4.3-0.6,8.2,2.4,8.8,6.7l3.6,26.9C158.7,446.1,155.7,450.1,151.4,450.7z"/>
		<path id="XMLID_121_" class="st2" d="M246.4,447.9l4.7-0.6c4.3-0.6,7.3-4.5,6.7-8.8l-6.3-46.6c-0.6-4.3-4.5-7.3-8.8-6.7l-4.7,0.6
			c-4.3,0.6-7.3,4.5-6.7,8.8l6.3,46.6C238.2,445.5,242.1,448.5,246.4,447.9z"/>
		<path id="XMLID_120_" class="st2" d="M265.3,435.3L265.3,435.3c4.3-0.6,7.3-4.5,6.7-8.8l-3.6-26.9c-0.6-4.3-4.5-7.3-8.8-6.7l0,0
			c-4.3,0.6-7.3,4.5-6.7,8.8l3.6,26.9C257,432.9,261,435.9,265.3,435.3z"/>
		
			<rect id="XMLID_223_" x="176.2" y="413.7" transform="matrix(-0.9911 0.1333 -0.1333 -0.9911 465.3663 812.3996)" class="st2" width="58.5" height="16.2"/>
	</g>
	<g id="XMLID_115_">
		<path id="XMLID_118_" class="st3" d="M172.9,457.8l-4.7,0.6c-4.3,0.6-8.2-2.4-8.8-6.7l-6.3-46.6c-0.6-4.3,2.4-8.2,6.7-8.8l4.7-0.6
			c4.3-0.6,8.2,2.4,8.8,6.7l6.3,46.6C180.2,453.3,177.2,457.2,172.9,457.8z"/>
		<path id="XMLID_200_" class="st3" d="M151.4,450.7L151.4,450.7c-4.3,0.6-8.2-2.4-8.8-6.7L139,417c-0.6-4.3,2.4-8.2,6.7-8.8h0
			c4.3-0.6,8.2,2.4,8.8,6.7l3.6,26.9C158.7,446.1,155.7,450.1,151.4,450.7z"/>
		<path id="XMLID_117_" class="st3" d="M246.4,447.9l4.7-0.6c4.3-0.6,7.3-4.5,6.7-8.8l-6.3-46.6c-0.6-4.3-4.5-7.3-8.8-6.7l-4.7,0.6
			c-4.3,0.6-7.3,4.5-6.7,8.8l6.3,46.6C238.2,445.5,242.1,448.5,246.4,447.9z"/>
		<path id="XMLID_201_" class="st3" d="M265.3,435.3L265.3,435.3c4.3-0.6,7.3-4.5,6.7-8.8l-3.6-26.9c-0.6-4.3-4.5-7.3-8.8-6.7l0,0
			c-4.3,0.6-7.3,4.5-6.7,8.8l3.6,26.9C257,432.9,261,435.9,265.3,435.3z"/>
		
			<rect id="XMLID_199_" x="176.2" y="413.7" transform="matrix(-0.9911 0.1333 -0.1333 -0.9911 465.3663 812.3996)" class="st3" width="58.5" height="16.2"/>
	</g>
</g>
<g id="XMLID_152_">
	<path id="XMLID_158_" class="st4" d="M624.3,743.2H407.7l8.1-34.7c4.2-18,26.4-31.1,52.4-31.1h95.6c26,0,48.2,13.2,52.4,31.1
		L624.3,743.2z"/>
	<path id="XMLID_131_" class="st5" d="M624.3,743.2H407.7l8.1-34.7c4.2-18,26.4-31.1,52.4-31.1h95.6c26,0,48.2,13.2,52.4,31.1
		L624.3,743.2z"/>
	<path id="XMLID_109_" class="st6" d="M594,716.8h-27.2c-10.4,0-18.8-8.4-18.8-18.8v-43.1h-64v43.1c0,10.4-8.4,18.8-18.8,18.8H438
		c-39.8,0-72,32.2-72,72v58.7h300v-58.7C666,749,633.7,716.8,594,716.8z"/>
	<ellipse id="XMLID_172_" class="st7" cx="514.8" cy="655.2" rx="33.2" ry="19.5"/>
	<path id="XMLID_175_" class="st4" d="M666,788.8v58.7H366v-58.7c0-39.8,32.2-72,72-72h27.2c0.7,0,1.4,0,2.1-0.1
		c7.4,20.1,26.8,34.5,49.5,34.5c22.7,0,42-14.3,49.4-34.4c0.2,0,0.4,0,0.7,0H594C633.7,716.8,666,749,666,788.8z"/>
	<path id="XMLID_182_" class="st8" d="M488,792.4c-28.1,0-51-22.9-51-51v-24.8h159.9v24.8c0,28.1-22.9,51-51,51H488z"/>
	<path id="XMLID_136_" class="st5" d="M594,716.8h-27.2c-10.4,0-18.8-8.4-18.8-18.8v-43.1h-64v43.1c0,10.4-8.4,18.8-18.8,18.8H438
		c-39.8,0-72,32.2-72,72v58.7h300v-58.7C666,749,633.7,716.8,594,716.8z"/>
	<path id="XMLID_108_" class="st9" d="M585.5,414.2c-1.1-15.2,2.9-26.7,10-29.2c7-2.5,15.2,4.4,18,6.8
		c26.5,22.2,10.2,96.5,5.7,115.6L585.5,414.2z"/>
	<path id="XMLID_150_" class="st5" d="M583.5,414.2c-1.1-15.2,2.9-26.7,10-29.2c1.4-0.5,2.8-0.6,4.2-0.5"/>
	<path id="XMLID_106_" class="st5" d="M599.7,384.5c5.8,0.5,11.5,5.3,13.8,7.3c26.5,22.2,10.2,96.5,5.7,115.6l-33.7-93.1"/>
	<path id="XMLID_105_" class="st9" d="M411.5,514.2v-33.7c0-38.3,33.9-28.4,72.1-28.4l70.7,2.7c22.2,0,35.6-33.1,48.2-16.9
		c-0.4-11.8-2.6-26.8-9.5-42.5c-3.8-8.8-19.7-42.1-56.3-57.4c-12.4-5.2-22.7-6.4-29-7.1c-24.1-2.7-34-7-75.4,4.5
		c-26.2,7.2-45,20.3-45.3,26c-0.3,5.2,12.4,3.9,22.8,11.7c16.9,12.6-6.7,41-10,77C398.4,465.5,399.7,487.1,411.5,514.2z"/>
	<path id="XMLID_103_" class="st5" d="M597.7,408.2c-1.3-5.2-3.9-10.9-4.7-12.8c-3.8-8.8-19.7-42.1-56.3-57.4
		c-12.4-5.2-22.7-6.4-29-7.1c-24.1-2.7-40.4-5.3-81.8,6.2c-26.2,7.2-41,13.3-38.9,24.3c1.3,6.9,16.8,5,25.8,18
		c12,17.4-9.7,34.7-13,70.8c-1.4,15.4-0.1,37,11.7,64.1v-33.7c0-38.3,33.9-28.4,72.1-28.4l70.7,2.7c22.2,0,35.6-33.1,48.2-16.9"/>
	<path id="XMLID_102_" class="st6" d="M599,433.6c-5-5.4-12.5-7.7-19.7-6.2c-17.9,3.8-39.7,6-63.3,6c-24.6,0-47.3-2.4-65.7-6.5
		c-7.2-1.6-14.8,0.6-19.8,6c-11.7,12.4-18.9,29.1-18.9,47.5v85.4c0,54.8,44.5,99.3,99.3,99.3h7.2c54.8,0,99.3-44.5,99.3-99.3v-85.4
		C617.3,462.4,610.3,446,599,433.6z"/>
	<path id="XMLID_185_" class="st7" d="M518,652.9h-7.2c-54.8,0-99.3-44.5-99.3-99.3v10.3c0,54.8,44.5,99.3,99.3,99.3h7.2
		c54.8,0,99.3-44.5,99.3-99.3v-10.3C617.3,608.4,572.8,652.9,518,652.9z"/>
	<path id="XMLID_101_" class="st5" d="M521.4,571c0,0,10.1-3.1,14.8-1.6c3.4-14.7-7-28.1-7-28.1"/>
	<path id="XMLID_100_" class="st5" d="M541.6,613.4c-5.8,3.8-13.2,6.1-21.4,6.1c-18.2,0-33-11.4-33-25.4"/>
	<ellipse id="XMLID_99_" class="st10" cx="483.6" cy="507.5" rx="10.2" ry="12.8"/>
	<ellipse id="XMLID_132_" class="st10" cx="559.2" cy="507" rx="10.2" ry="12.8"/>
	<path id="XMLID_183_" class="st7" d="M579.3,427.5c-17.9,3.8-39.7,6-63.3,6c-24.6,0-47.3-2.4-65.7-6.5c-7.2-1.6-14.8,0.6-19.8,6
		c-11.7,12.4-18.9,29.1-18.9,47.5v5.6c33.7,2.4,67.9,3.7,101.7,3.7c34.6,0,69.5-1.3,104.1-3.9v-5.4c0-18.1-6.9-34.5-18.3-46.9
		C594,428.2,586.5,425.9,579.3,427.5z"/>
	<path id="XMLID_94_" class="st5" d="M599,433.6c-5-5.4-12.5-7.7-19.7-6.2c-17.9,3.8-39.7,6-63.3,6c-24.6,0-47.3-2.4-65.7-6.5
		c-7.2-1.6-14.8,0.6-19.8,6c-11.7,12.4-18.9,29.1-18.9,47.5v85.4c0,54.8,44.5,99.3,99.3,99.3h7.2c54.8,0,99.3-44.5,99.3-99.3v-85.4
		C617.3,462.4,610.3,446,599,433.6z"/>
	<path id="XMLID_91_" class="st11" d="M620.7,478.6c-71.6,4.2-143.5,4.2-215.1,0c-5-0.3-8.9-4.1-8.9-8.8V447c0-5.1,4.7-9.1,10.2-8.8
		c70.8,4.2,141.8,4.2,212.6,0c5.5-0.3,10.2,3.7,10.2,8.8v22.8C629.7,474.5,625.8,478.3,620.7,478.6z"/>
	<path id="XMLID_184_" class="st12" d="M619.5,438.3c-70.8,4.2-141.8,4.2-212.6,0c-5.5-0.3-10.2,3.7-10.2,8.8v7.6
		c0-5.1,4.7-9.1,10.2-8.8c70.8,4.2,141.8,4.2,212.6,0c5.5-0.3,10.2,3.7,10.2,8.8V447C629.7,442,625,438,619.5,438.3z"/>
	<path id="XMLID_141_" class="st5" d="M620.7,478.6c-71.6,4.2-143.5,4.2-215.1,0c-5-0.3-8.9-4.1-8.9-8.8V447c0-5.1,4.7-9.1,10.2-8.8
		c70.8,4.2,141.8,4.2,212.6,0c5.5-0.3,10.2,3.7,10.2,8.8v22.8C629.7,474.5,625.8,478.3,620.7,478.6z"/>
	<path id="XMLID_151_" class="st13" d="M593,393.7c0,0,20.6,0,24.2,39.1"/>
	<path id="XMLID_177_" class="st13" d="M477.7,345.3c42.5,2.2,82.2,23.4,87,60.3"/>
	<path id="XMLID_180_" class="st13" d="M448.7,348.5c5.5-1.7,12.5-3.3,19.7-3.2"/>
	<path id="XMLID_181_" class="st13" d="M481.2,368.1c23,3.7,52.8,7.3,63.9,45.2"/>
	<path id="XMLID_154_" class="st5" d="M513.2,631.3c0,0,5.7,3.4,16,0"/>
	<circle id="XMLID_90_" class="st14" cx="467.1" cy="560" r="18.8"/>
	<circle id="XMLID_89_" class="st14" cx="566.3" cy="560" r="18.8"/>
	<path id="XMLID_160_" class="st15" d="M408.7,539.3h2v-52.6h-2c-6.6,0-12,5.4-12,12v28.6C396.7,533.9,402.1,539.3,408.7,539.3z"/>
	<path id="XMLID_159_" class="st5" d="M408.7,539.3h2v-52.6h-2c-6.6,0-12,5.4-12,12v28.6C396.7,533.9,402.1,539.3,408.7,539.3z"/>
	<path id="XMLID_190_" class="st15" d="M619.3,539.3h-2v-52.6h2c6.6,0,12,5.4,12,12v28.6C631.3,533.9,625.9,539.3,619.3,539.3z"/>
	<path id="XMLID_157_" class="st5" d="M619.3,539.3h-2v-52.6h2c6.6,0,12,5.4,12,12v28.6C631.3,533.9,625.9,539.3,619.3,539.3z"/>
	<path id="XMLID_163_" class="st4" d="M545.9,784.4H488c-23.7,0-43-19.3-43-43v-40h143.9v40C588.9,765.2,569.7,784.4,545.9,784.4z"
		/>
	<path id="XMLID_88_" class="st5" d="M588.9,701.4v40c0,23.7-19.3,43-43,43H488c-23.7,0-43-19.3-43-43v-40"/>
	<path id="XMLID_83_" class="st6" d="M566.1,716.8c-7.4,20.1-26.8,34.4-49.4,34.4c-22.7,0-42.1-14.4-49.5-34.5
		c9.4-1,16.8-9,16.8-18.7v-3.5h64v3.5C548,708.1,556,716.4,566.1,716.8z"/>
	<path id="XMLID_188_" class="st16" d="M559.3,715.2c-6.7,17.4-23.4,29-42.6,29c-19.4,0-36.2-11.9-42.8-29.6c-2,1.1-4.3,1.8-6.7,2.1
		c7.4,20.1,26.8,34.5,49.5,34.5c22.7,0,42-14.3,49.4-34.4C563.7,716.7,561.4,716.1,559.3,715.2z"/>
	<path id="XMLID_166_" class="st5" d="M548,694.4v3.5c0,8.7,5.9,16.1,14,18.2c2.1,0.6,3.3,2.9,2.4,4.9
		c-8.5,17.8-26.6,30.1-47.6,30.1c-21.2,0-39.4-12.5-47.8-30.5c-0.9-1.9,0.1-4.2,2.2-4.8c7.5-2.5,12.9-9.5,12.9-17.9v-3.5"/>
	<path id="XMLID_170_" class="st5" d="M465.3,710.3c5.4,23.4,26.3,40.9,51.4,40.9h0c25.1,0,46-17.5,51.4-40.9"/>
	<ellipse id="XMLID_161_" class="st10" cx="479.7" cy="762.3" rx="8" ry="4.6"/>
	<line id="XMLID_78_" class="st17" x1="479.7" y1="762.3" x2="479.7" y2="814.4"/>
	<ellipse id="XMLID_77_" class="st10" cx="552.2" cy="762.3" rx="8" ry="4.6"/>
	<line id="XMLID_168_" class="st17" x1="552.2" y1="762.3" x2="552.2" y2="800.4"/>
	<path id="XMLID_171_" class="st15" d="M482.6,828.2h-6c-3.8,0-6.6-3.5-5.7-7.2l2.6-11.6h12.2l2.6,11.6
		C489.2,824.7,486.4,828.2,482.6,828.2z"/>
	<path id="XMLID_164_" class="st5" d="M482.6,828.2h-6c-3.8,0-6.6-3.5-5.7-7.2l2.6-11.6h12.2l2.6,11.6
		C489.2,824.7,486.4,828.2,482.6,828.2z"/>
	<path id="XMLID_174_" class="st15" d="M555.2,818.8h-6c-3.8,0-6.6-3.5-5.7-7.2l2.6-11.6h12.2l2.6,11.6
		C561.8,815.3,559,818.8,555.2,818.8z"/>
	<path id="XMLID_173_" class="st5" d="M555.2,818.8h-6c-3.8,0-6.6-3.5-5.7-7.2l2.6-11.6h12.2l2.6,11.6
		C561.8,815.3,559,818.8,555.2,818.8z"/>
	<path id="XMLID_76_" class="st5" d="M740,847.5"/>
	<path id="XMLID_74_" class="st5" d="M715,847.5"/>
	<path id="XMLID_186_" class="st18" d="M508,712.7c0,0,3.2,0.3,6.8,4c0,0,4.2-4,7.8-4"/>
	<path id="XMLID_187_" class="st13" d="M520.2,409.1c0,0-2.2-12.6-24.4-19.5"/>
	<line id="XMLID_73_" class="st5" x1="427.1" y1="809.4" x2="427.1" y2="847.5"/>
	<line id="XMLID_189_" class="st5" x1="602.6" y1="809.4" x2="602.6" y2="847.5"/>
</g>
<g id="XMLID_204_">
	<path id="XMLID_194_" class="st2" d="M546.4,214.3h-52.4c-5.5,0-10-4.5-10-10V139c0-5.5,4.5-10,10-10h52.4c5.5,0,10,4.5,10,10v65.3
		C556.4,209.8,551.9,214.3,546.4,214.3z"/>
	<path id="XMLID_52_" class="st3" d="M546.4,214.3h-52.4c-5.5,0-10-4.5-10-10V139c0-5.5,4.5-10,10-10h52.4c5.5,0,10,4.5,10,10v65.3
		C556.4,209.8,551.9,214.3,546.4,214.3z"/>
	<circle id="XMLID_191_" class="st2" cx="551.5" cy="212.3" r="20.1"/>
	<circle id="XMLID_155_" class="st3" cx="551.5" cy="212.3" r="20.1"/>
	<polyline id="XMLID_192_" class="st13" points="542.3,212.1 548.6,218.4 560.7,206.2 	"/>
	<path id="XMLID_193_" class="st2" d="M526.6,123.7v-8.3c0-3.6-2.9-6.5-6.5-6.5l0,0c-3.6,0-6.5,2.9-6.5,6.5v8.3h-7.1v2.6v8.7h27.2
		v-8.7v-2.6H526.6z"/>
	<path id="XMLID_197_" class="st3" d="M526.6,124.5v-7.7c0-3.3-2.9-6-6.5-6l0,0c-3.6,0-6.5,2.7-6.5,6v7.7h-7.1v2.4v8.1h27.2v-8.1
		v-2.4H526.6z"/>
	<line id="XMLID_195_" class="st3" x1="503.3" y1="159.2" x2="540.5" y2="159.2"/>
	<line id="XMLID_196_" class="st3" x1="503.3" y1="171.6" x2="540.5" y2="171.6"/>
	<line id="XMLID_198_" class="st3" x1="510.1" y1="183.6" x2="533.7" y2="183.6"/>
</g>
<g id="XMLID_48_">
	<path id="XMLID_51_" class="st2" d="M737.3,205l-9.8-10.2c-9.5-9.9-25.3-10.1-34.6,0c-9,9.8-11.9,27.7,0.3,47.6
		c12.3,19.9,44,33.4,44,33.4s31.8-13.5,44-33.4c12.3-19.9,9.4-37.8,0.3-47.6c-9.3-10.1-25.1-9.9-34.6,0L737.3,205z"/>
	<path id="XMLID_50_" class="st3" d="M737.3,205l-9.8-10.2c-9.5-9.9-25.3-10.1-34.6,0c-9,9.8-11.9,27.7,0.3,47.6
		c12.3,19.9,44,33.4,44,33.4s31.8-13.5,44-33.4c12.3-19.9,9.4-37.8,0.3-47.6c-9.3-10.1-25.1-9.9-34.6,0L737.3,205z"/>
	<path id="XMLID_207_" class="st5" d="M773,238.4"/>
	<path id="XMLID_49_" class="st5" d="M703.4,239.7"/>
	<polyline id="XMLID_206_" class="st3" points="703.4,237.3 719.2,237.3 726.9,217.1 737.3,252.6 744.7,236.4 750.4,245.3 
		758,217.1 765,234.9 773.7,234.9 	"/>
</g>
<g id="XMLID_214_">
	<path id="XMLID_46_" class="st2" d="M799.3,349.4c0,0-22.6,53.5-22.6,74.5s1.8,26.7,1.8,26.7s49.1,7.2,76.3-5.6
		c27.3-12.8,35.1-30.6,35.1-30.6s-0.3-30.9-18.1-32.9c-7.3-0.8-17.6,0.5-21.3,10.1c-5.1,13.2-1.5,18.1-1.5,18.1
		c-4.2-4.2-11-10.1-24.6-10.1c-13.6,0-20.8,14.8-20.8,14.8l1-43l24.2-2.1l4.5-19.9l-14.4-16.8L799.3,349.4z"/>
	<path id="XMLID_44_" class="st3" d="M799.3,349.4c0,0-22.6,53.5-22.6,74.5s1.8,26.7,1.8,26.7s49.1,7.2,76.3-5.6
		c27.3-12.8,35.1-30.6,35.1-30.6s-0.3-30.9-18.1-32.9c-7.3-0.8-17.6,0.5-21.3,10.1c-5.1,13.2-1.5,18.1-1.5,18.1
		c-4.2-4.2-11-10.1-24.6-10.1c-13.6,0-20.8,14.8-20.8,14.8l1-43l24.2-2.1l4.5-19.9l-14.4-16.8L799.3,349.4z"/>
	<path id="XMLID_213_" class="st3" d="M819.1,427.3c0,0,12.7,4.9,24.6,0"/>
	<polyline id="XMLID_43_" class="st3" points="789.8,429.4 789.8,441.1 799.3,441.1 	"/>
</g>
<g id="XMLID_39_">
	<path id="XMLID_216_" class="st3" d="M245.3,234.8c0,0,26.5-51.7,64.5-61.9c6.2-1.7,19.2-3.6,29.2,4c10.8,8.3,14.8,25.7,8,38.3
		c-10,18.4-39.5,19.1-48,9.5c-3.1-3.5-3-7.9-2.9-9c0.2-10.2,12.1-20.2,22.5-18.7c6,0.9,9.8,5.4,10.2,5.8c7.6,9.3,4.5,27.4-7.3,45.5"
		/>
	<path id="XMLID_42_" class="st2" d="M251.6,237.1l-12.9-6c-2.4-1.1-5.6,0.8-7.2,4.2v0c-1.6,3.4-0.9,7.1,1.4,8.2l0.8,0.4l-11.1,20
		c-3.3,5.9-2.4,12.7,1.9,14.7h0c4.3,2,10.1-1.8,12.4-8.1l8.1-21.4l0.8,0.4c2.4,1.1,5.6-0.8,7.2-4.2v0
		C254.7,241.9,254,238.3,251.6,237.1z"/>
	<path id="XMLID_41_" class="st3" d="M251.6,237.1l-12.9-6c-2.4-1.1-5.6,0.8-7.2,4.2v0c-1.6,3.4-0.9,7.1,1.4,8.2l0.8,0.4l-11.1,20
		c-3.3,5.9-2.4,12.7,1.9,14.7h0c4.3,2,10.1-1.8,12.4-8.1l8.1-21.4l0.8,0.4c2.4,1.1,5.6-0.8,7.2-4.2v0
		C254.7,241.9,254,238.3,251.6,237.1z"/>
	<path id="XMLID_215_" class="st2" d="M328.9,246.5l-13.6-4.2c-2.5-0.8-5.4,1.5-6.5,5.1v0c-1.1,3.6,0,7.2,2.6,7.9l0.8,0.3l-8.2,21.3
		c-2.4,6.3-0.6,12.9,3.9,14.3h0c4.5,1.4,9.7-3.1,11.2-9.7l5.1-22.3l0.8,0.3c2.5,0.8,5.4-1.5,6.5-5.1v0
		C332.6,250.8,331.4,247.3,328.9,246.5z"/>
	<path id="XMLID_40_" class="st3" d="M328.9,246.5l-13.6-4.2c-2.5-0.8-5.4,1.5-6.5,5.1v0c-1.1,3.6,0,7.2,2.6,7.9l0.8,0.3l-8.2,21.3
		c-2.4,6.3-0.6,12.9,3.9,14.3h0c4.5,1.4,9.7-3.1,11.2-9.7l5.1-22.3l0.8,0.3c2.5,0.8,5.4-1.5,6.5-5.1v0
		C332.6,250.8,331.4,247.3,328.9,246.5z"/>
</g>
<g id="XMLID_37_">
	<line id="XMLID_231_" class="st19" x1="561.5" y1="129.9" x2="568.8" y2="129.9"/>
	<line id="XMLID_230_" class="st19" x1="556.5" y1="122.4" x2="561.5" y2="115.6"/>
	<line id="XMLID_38_" class="st19" x1="560" y1="125.5" x2="567.5" y2="120.8"/>
</g>
<g id="XMLID_32_">
	<line id="XMLID_36_" class="st19" x1="338.4" y1="252.5" x2="344.5" y2="252.5"/>
	<line id="XMLID_35_" class="st19" x1="334.3" y1="246.3" x2="338.4" y2="240.7"/>
	<line id="XMLID_34_" class="st19" x1="337.2" y1="248.9" x2="343.4" y2="245"/>
</g>
<g id="XMLID_22_">
	<line id="XMLID_31_" class="st19" x1="272.5" y1="389.7" x2="279.3" y2="387.8"/>
	<line id="XMLID_27_" class="st19" x1="265.9" y1="384.1" x2="268.8" y2="376.5"/>
	<line id="XMLID_26_" class="st19" x1="269.9" y1="386.1" x2="275.7" y2="379.8"/>
</g>
<g id="XMLID_23_">
	<line id="XMLID_28_" class="st19" x1="142.3" y1="459.5" x2="140.6" y2="466.3"/>
	<line id="XMLID_25_" class="st19" x1="136.5" y1="453.1" x2="129" y2="456.2"/>
	<line id="XMLID_24_" class="st19" x1="138.6" y1="457" x2="132.5" y2="463"/>
</g>
<g id="XMLID_18_">
	<line id="XMLID_21_" class="st19" x1="260.3" y1="240.7" x2="267.4" y2="240.7"/>
	<line id="XMLID_20_" class="st19" x1="255.5" y1="233.5" x2="260.3" y2="226.9"/>
	<line id="XMLID_19_" class="st19" x1="258.8" y1="236.5" x2="266.1" y2="231.9"/>
</g>
<g id="XMLID_14_">
	<line id="XMLID_17_" class="st19" x1="741.5" y1="188.8" x2="744.9" y2="182.1"/>
	<line id="XMLID_16_" class="st19" x1="733.9" y1="189.8" x2="730.3" y2="182.1"/>
	<line id="XMLID_15_" class="st19" x1="737.3" y1="188.8" x2="737.3" y2="178.1"/>
</g>
<g id="XMLID_10_">
	<line id="XMLID_13_" class="st19" x1="844.6" y1="389.9" x2="843.7" y2="382.5"/>
	<line id="XMLID_12_" class="st19" x1="838.9" y1="395" x2="831.7" y2="390.6"/>
	<line id="XMLID_11_" class="st19" x1="841.1" y1="392.3" x2="835.2" y2="383.4"/>
</g>
<path id="XMLID_29_" class="st19" d="M317.3,178.3c0,0,8.8-4.3,16.9,3.9"/>
<line id="XMLID_3_" class="st5" x1="227.6" y1="847.5" x2="707.6" y2="847.5"/>
<line id="XMLID_2_" class="st5" x1="735.1" y1="847.5" x2="769.6" y2="847.5"/>
<line id="XMLID_251_" class="st5" x1="797.6" y1="847.5" x2="816" y2="847.5"/>
</svg>
