<?xml version="1.0" encoding="utf-8"?>
<!-- Generator: Adobe Illustrator 23.1.1, SVG Export Plug-In . SVG Version: 6.00 Build 0)  -->
<svg version="1.1" id="Layer_1" xmlns="http://www.w3.org/2000/svg" xmlns:xlink="http://www.w3.org/1999/xlink" x="0px" y="0px"
	 viewBox="0 0 1000 1000" style="enable-background:new 0 0 1000 1000;" xml:space="preserve">
<style type="text/css">
	.st0{fill:#381E77;}
	.st1{fill:#EEF2F4;}
	.st2{opacity:0.23;fill:#1C1C1C;}
	.st3{fill:#B4AAC1;}
	.st4{fill:#D3D3D1;}
	.st5{fill:none;stroke:#0C1740;stroke-width:6;stroke-linecap:round;stroke-linejoin:round;stroke-miterlimit:10;}
	.st6{fill:#0C1740;}
	.st7{opacity:0.63;}
	.st8{fill:#4988E2;}
	.st9{fill:#958BA5;}
	.st10{fill:#364477;}
	.st11{fill:#3E5080;}
	.st12{fill:none;stroke:#0C1740;stroke-width:3;stroke-linecap:round;stroke-linejoin:round;stroke-miterlimit:10;}
	.st13{fill:#485D8C;}
	.st14{fill:#263866;}
	.st15{fill:#1B2F5B;}
	.st16{fill:none;stroke:#0C1740;stroke-width:2;stroke-linecap:round;stroke-linejoin:round;stroke-miterlimit:10;}
	.st17{fill:#5873A3;}
	.st18{fill:#1F2F63;}
	.st19{opacity:0.51;fill:#0C1740;}
	.st20{fill:#FFFFFF;}
	.st21{opacity:0.49;}
	.st22{fill:#091438;}
	.st23{opacity:0.58;fill:none;stroke:#1AC17D;stroke-width:2;stroke-miterlimit:10;}
	.st24{opacity:0.58;fill:none;stroke:#F9232E;stroke-width:2;stroke-miterlimit:10;}
	.st25{fill:#2AD142;}
	.st26{fill:#B7B7B7;}
	.st27{opacity:0.72;fill:#192859;}
	.st28{fill:#67C18B;}
	.st29{fill:#E5E56A;}
	.st30{fill:#E87060;}
	.st31{opacity:0.28;fill:none;stroke:#0C1740;stroke-width:2;stroke-linecap:round;stroke-linejoin:round;stroke-miterlimit:10;}
</style>
<rect id="XMLID_19_" class="st0" width="1000" height="1000"/>
<g>
	<g>
		<g>
			<path class="st1" d="M63.2,959.2c0,2.5-1.2,3.7-2.6,3.7c-1.1,0-1.9-0.5-2.1-1.4c-0.4,0.5-1,0.8-1.8,0.8c-1.5,0-2.6-1.2-2.6-2.8
				c0-1.6,1.1-2.8,2.6-2.8c0.7,0,1.2,0.3,1.6,0.7v-0.5h1.6v3.9c0,0.8,0.3,1.4,1,1.4c0.9,0,1.7-0.9,1.7-3c0-3-2.3-5.3-5.4-5.3
				c-3.1,0-5.6,2.4-5.6,5.7c0,3.3,2.5,5.7,5.9,5.7c1.1,0,2.1-0.2,2.9-0.4v0.6c-0.8,0.3-1.7,0.4-2.9,0.4c-3.7,0-6.5-2.6-6.5-6.2
				c0-3.4,2.7-6.2,6.2-6.2C61.1,953.3,63.2,956.4,63.2,959.2z M58.3,959.5c0-0.8-0.6-1.4-1.3-1.4c-0.8,0-1.3,0.5-1.3,1.4
				c0,0.8,0.6,1.3,1.3,1.3C57.8,960.9,58.3,960.3,58.3,959.5z"/>
		</g>
		<g>
			<path class="st1" d="M69.4,955.1v2c-1.2-0.1-2.6,0.5-2.6,2.4v4.3h-1.9v-8.6h1.9v1.4C67.3,955.5,68.3,955.1,69.4,955.1z"/>
		</g>
		<g>
			<path class="st1" d="M74.6,962.3c1,0,1.8-0.5,2.2-1.1l1.5,0.9c-0.8,1.2-2.1,1.9-3.8,1.9c-2.8,0-4.7-1.9-4.7-4.5
				c0-2.5,1.8-4.5,4.5-4.5c2.6,0,4.3,2.1,4.3,4.5c0,0.3,0,0.5-0.1,0.8h-6.8C72.1,961.6,73.2,962.3,74.6,962.3z M76.9,958.8
				c-0.3-1.5-1.3-2.1-2.5-2.1c-1.4,0-2.3,0.8-2.6,2.1H76.9z"/>
		</g>
		<g>
			<path class="st1" d="M88.9,955.2v8.6h-1.9v-1.2c-0.7,0.9-1.7,1.5-3,1.5c-2.3,0-4.3-2-4.3-4.5c0-2.6,1.9-4.5,4.3-4.5
				c1.3,0,2.3,0.5,3,1.4v-1.2H88.9z M87.1,959.5c0-1.6-1.2-2.7-2.7-2.7c-1.5,0-2.7,1.1-2.7,2.7c0,1.6,1.2,2.7,2.7,2.7
				C85.9,962.3,87.1,961.1,87.1,959.5z"/>
		</g>
		<g>
			<path class="st1" d="M91.1,951.3H93v12.5h-1.9V951.3z"/>
		</g>
		<g>
			<path class="st1" d="M102.9,955.2l-3.3,8.6h-2.1l-3.3-8.6h2l2.4,6.5l2.4-6.5H102.9z"/>
		</g>
		<g>
			<path class="st1" d="M104.2,955.2h1.9v8.9c0,2.4-1.2,3.5-3.5,3.3v-1.8c1.1,0.1,1.7-0.3,1.7-1.5V955.2z M104,952.8
				c0-0.7,0.5-1.2,1.2-1.2c0.7,0,1.2,0.5,1.2,1.2c0,0.6-0.5,1.2-1.2,1.2C104.5,954,104,953.4,104,952.8z"/>
		</g>
		<g>
			<path class="st1" d="M116,955.2l-3.3,8.8c-0.8,2.2-2.2,3.3-4.2,3.2v-1.7c1.2,0.1,1.9-0.5,2.3-1.7l0.1-0.2l-3.6-8.4h2l2.6,6.2
				l2.2-6.2H116z"/>
		</g>
	</g>
	<g>
		<path class="st1" d="M211.9,938.7c0,2.1-1.5,3.8-3.6,3.8h-3v-7.6h3C210.4,934.9,211.9,936.6,211.9,938.7z M210.9,938.7
			c0-1.6-1.1-2.9-2.6-2.9h-2v5.7h2C209.8,941.6,210.9,940.3,210.9,938.7z"/>
		<path class="st1" d="M219.5,940.8h-3.4l-0.6,1.7h-1.1l2.8-7.6h1.1l2.8,7.6h-1.1L219.5,940.8z M219.2,939.9l-1.4-3.8l-1.4,3.8
			H219.2z"/>
		<path class="st1" d="M226.4,939.4v3.1h-1v-3.1l-2.7-4.5h1.1l2.1,3.6l2.1-3.6h1.1L226.4,939.4z"/>
		<path class="st1" d="M242.6,941.1h-0.9v1.4h-1v-1.4h-3.9v-0.9l2.7-5.2h1.1l-2.7,5.2h2.8V938h1v2.2h0.9V941.1z"/>
		<path class="st1" d="M247.9,934.9v7.6h-1V936l-1.6,0.5l-0.3-0.9l2-0.7H247.9z"/>
	</g>
	<g>
		<path class="st1" d="M58.9,938.7c0,2.1-1.5,3.8-3.6,3.8h-3v-7.6h3C57.4,934.9,58.9,936.6,58.9,938.7z M57.9,938.7
			c0-1.6-1.1-2.9-2.6-2.9h-2v5.7h2C56.8,941.6,57.9,940.3,57.9,938.7z"/>
		<path class="st1" d="M67,941.6v1h-4.6v-7.6h4.5v1h-3.5v2.3h3.2v0.9h-3.2v2.4H67z"/>
		<path class="st1" d="M70,940.8l0.9-0.5c0.3,0.8,0.9,1.4,2,1.4c1.1,0,1.6-0.5,1.6-1.2c0-0.8-0.7-1-1.8-1.4
			c-1.2-0.4-2.4-0.8-2.4-2.2c0-1.4,1.1-2.2,2.4-2.2c1.3,0,2.2,0.7,2.6,1.7l-0.8,0.5c-0.3-0.7-0.8-1.2-1.7-1.2
			c-0.8,0-1.4,0.4-1.4,1.1c0,0.7,0.5,1,1.6,1.3c1.3,0.4,2.6,0.8,2.6,2.3c0,1.3-1.1,2.2-2.6,2.2C71.5,942.7,70.4,941.9,70,940.8z"/>
		<path class="st1" d="M80,934.9v7.6h-1v-7.6H80z"/>
		<path class="st1" d="M91.3,939.2c0,1.9-1.4,3.5-3.7,3.5c-2.4,0-4-1.8-4-4c0-2.2,1.7-4,4-4c1.4,0,2.7,0.8,3.3,1.8l-0.9,0.5
			c-0.4-0.8-1.4-1.4-2.4-1.4c-1.8,0-3,1.3-3,3c0,1.7,1.2,3,3,3c1.6,0,2.5-0.9,2.7-2h-2.8v-0.9h3.8V939.2z"/>
		<path class="st1" d="M100.6,934.9v7.6h-0.8l-3.9-5.7v5.7h-1v-7.6h0.8l3.9,5.7v-5.7H100.6z"/>
		<path class="st1" d="M109.1,941.6v1h-4.6v-7.6h4.5v1h-3.5v2.3h3.2v0.9h-3.2v2.4H109.1z"/>
		<path class="st1" d="M119.2,938.7c0,2.1-1.5,3.8-3.6,3.8h-3v-7.6h3C117.6,934.9,119.2,936.6,119.2,938.7z M118.2,938.7
			c0-1.6-1.1-2.9-2.6-2.9h-2v5.7h2C117.1,941.6,118.2,940.3,118.2,938.7z"/>
		<path class="st1" d="M133.2,940.4c0,1.2-1,2.2-2.2,2.2h-3.3v-7.6h3c1.2,0,2.1,0.9,2.1,2.1c0,0.7-0.3,1.2-0.8,1.6
			C132.7,938.9,133.2,939.5,133.2,940.4z M128.7,935.8v2.3h2c0.6,0,1.1-0.5,1.1-1.2c0-0.6-0.5-1.2-1.1-1.2H128.7z M132.2,940.3
			c0-0.7-0.5-1.2-1.2-1.2h-2.3v2.5h2.3C131.7,941.6,132.2,941,132.2,940.3z"/>
		<path class="st1" d="M139.4,939.4v3.1h-1v-3.1l-2.7-4.5h1.1l2.1,3.6l2.1-3.6h1.1L139.4,939.4z"/>
	</g>
	<g>
		<path class="st1" d="M216.2,958.1c0,3.5-2.5,6.2-5.9,6.2h-4.9v-12.4h4.9C213.7,951.9,216.2,954.6,216.2,958.1z M214.3,958.1
			c0-2.5-1.6-4.2-4-4.2h-2.8v8.5h2.8C212.7,962.3,214.3,960.5,214.3,958.1z"/>
		<path class="st1" d="M222.3,962.8c1.1,0,1.9-0.5,2.3-1.1l1.6,0.9c-0.8,1.2-2.1,1.9-3.9,1.9c-2.9,0-4.8-2-4.8-4.7
			c0-2.6,1.9-4.7,4.7-4.7c2.6,0,4.4,2.1,4.4,4.7c0,0.3,0,0.5-0.1,0.8h-7C219.8,962.1,220.9,962.8,222.3,962.8z M224.7,959.1
			c-0.3-1.5-1.4-2.2-2.5-2.2c-1.4,0-2.4,0.8-2.7,2.2H224.7z"/>
		<path class="st1" d="M234.4,961.8c0,1.8-1.5,2.7-3.5,2.7c-1.8,0-3-0.8-3.6-2.1l1.6-1c0.3,0.8,1,1.3,2,1.3c0.8,0,1.5-0.3,1.5-1
			c0-1.6-4.8-0.7-4.8-3.9c0-1.7,1.4-2.7,3.2-2.7c1.5,0,2.7,0.7,3.3,1.8l-1.6,0.9c-0.3-0.7-0.9-1-1.7-1c-0.7,0-1.3,0.3-1.3,0.9
			C229.7,959.5,234.4,958.5,234.4,961.8z"/>
		<path class="st1" d="M241.5,964.3l-3.6-4.1v4.1H236v-12.4h1.9v7.5l3.4-3.9h2.3l-3.9,4.3l4,4.5H241.5z"/>
		<path class="st1" d="M247.7,957.3v4.2c0,1.1,0.7,1.1,2.2,1v1.7c-2.9,0.4-4.1-0.5-4.1-2.8v-4.2h-1.6v-1.8h1.6v-1.9l1.9-0.6v2.5h2.2
			v1.8H247.7z"/>
		<path class="st1" d="M250.8,959.9c0-2.6,2.1-4.7,4.7-4.7c2.6,0,4.7,2,4.7,4.7c0,2.6-2.1,4.7-4.7,4.7
			C252.9,964.5,250.8,962.5,250.8,959.9z M258.2,959.9c0-1.6-1.2-2.8-2.8-2.8s-2.8,1.2-2.8,2.8c0,1.6,1.2,2.8,2.8,2.8
			S258.2,961.5,258.2,959.9z"/>
		<path class="st1" d="M271.3,959.9c0,2.6-2,4.7-4.4,4.7c-1.4,0-2.4-0.6-3.1-1.5v4.8h-1.9v-12.4h1.9v1.3c0.7-0.9,1.7-1.5,3.1-1.5
			C269.3,955.2,271.3,957.3,271.3,959.9z M269.4,959.9c0-1.6-1.2-2.8-2.8-2.8c-1.6,0-2.8,1.2-2.8,2.8c0,1.6,1.2,2.8,2.8,2.8
			C268.2,962.7,269.4,961.5,269.4,959.9z"/>
	</g>
	<g>
		<g>
			<g>
				<path class="st1" d="M846.1,938.7c0,2.1-1.5,3.8-3.6,3.8h-3v-7.6h3C844.6,934.9,846.1,936.6,846.1,938.7z M845.2,938.7
					c0-1.6-1.1-2.9-2.6-2.9h-2v5.7h2C844.1,941.6,845.2,940.3,845.2,938.7z"/>
			</g>
			<g>
				<path class="st1" d="M849.3,938.7c0-2.2,1.7-4,3.9-4c2.2,0,4,1.8,4,4c0,2.2-1.7,4-4,4C851,942.7,849.3,940.9,849.3,938.7z
					 M856.1,938.7c0-1.7-1.3-3-2.9-3c-1.7,0-2.9,1.3-2.9,3c0,1.7,1.3,3,2.9,3C854.9,941.7,856.1,940.4,856.1,938.7z"/>
			</g>
			<g>
				<path class="st1" d="M859.8,934.9h1.1l1.7,6.3l1.9-6.3h1l1.9,6.3l1.7-6.3h1.1l-2.2,7.6h-1.2l-1.8-6.1l-1.8,6.1H862L859.8,934.9z
					"/>
			</g>
			<g>
				<path class="st1" d="M879.3,934.9v7.6h-0.8l-3.9-5.7v5.7h-1v-7.6h0.8l3.9,5.7v-5.7H879.3z"/>
			</g>
			<g>
				<path class="st1" d="M887.5,941.6v1h-4.3v-7.6h1v6.7H887.5z"/>
			</g>
			<g>
				<path class="st1" d="M889.9,938.7c0-2.2,1.7-4,3.9-4c2.2,0,4,1.8,4,4c0,2.2-1.7,4-4,4C891.6,942.7,889.9,940.9,889.9,938.7z
					 M896.8,938.7c0-1.7-1.3-3-2.9-3c-1.7,0-2.9,1.3-2.9,3c0,1.7,1.3,3,2.9,3C895.5,941.7,896.8,940.4,896.8,938.7z"/>
			</g>
			<g>
				<path class="st1" d="M905.4,940.8H902l-0.6,1.7h-1.1l2.8-7.6h1.1l2.8,7.6H906L905.4,940.8z M905.1,939.9l-1.4-3.8l-1.4,3.8
					H905.1z"/>
			</g>
			<g>
				<path class="st1" d="M916.9,938.7c0,2.1-1.5,3.8-3.6,3.8h-3v-7.6h3C915.4,934.9,916.9,936.6,916.9,938.7z M915.9,938.7
					c0-1.6-1.1-2.9-2.6-2.9h-2v5.7h2C914.9,941.6,915.9,940.3,915.9,938.7z"/>
			</g>
			<g>
				<path class="st1" d="M926.5,935.8v2.5h3.2v1h-3.2v3.2h-1v-7.6h4.4v1H926.5z"/>
			</g>
			<g>
				<path class="st1" d="M936.2,939.6h-1.8v2.9h-1v-7.6h3c1.3,0,2.4,1.1,2.4,2.4c0,1-0.7,1.9-1.6,2.2l1.8,3.1h-1.1L936.2,939.6z
					 M934.4,938.7h2c0.8,0,1.4-0.6,1.4-1.4c0-0.8-0.6-1.4-1.4-1.4h-2V938.7z"/>
			</g>
			<g>
				<path class="st1" d="M941.9,938.7c0-2.2,1.7-4,3.9-4c2.2,0,4,1.8,4,4c0,2.2-1.7,4-4,4C943.6,942.7,941.9,940.9,941.9,938.7z
					 M948.8,938.7c0-1.7-1.3-3-2.9-3c-1.7,0-2.9,1.3-2.9,3c0,1.7,1.3,3,2.9,3C947.5,941.7,948.8,940.4,948.8,938.7z"/>
			</g>
			<g>
				<path class="st1" d="M960.4,942.5h-1v-6l-2.5,4.2h-0.1l-2.5-4.1v5.9h-1v-7.6h1.1l2.4,4l2.4-4h1.1V942.5z"/>
			</g>
		</g>
		<g>
			<g>
				<path class="st1" d="M839.3,952.9c0-0.7,0.5-1.2,1.2-1.2c0.7,0,1.2,0.5,1.2,1.2c0,0.7-0.5,1.2-1.2,1.2
					C839.9,954.1,839.3,953.6,839.3,952.9z M839.6,955.4h1.9v8.9h-1.9V955.4z"/>
			</g>
			<g>
				<path class="st1" d="M843.7,951.4h1.9v12.9h-1.9V951.4z"/>
			</g>
			<g>
				<path class="st1" d="M847.8,951.4h1.9v12.9h-1.9V951.4z"/>
			</g>
			<g>
				<path class="st1" d="M852,951.4h1.9v12.9H852V951.4z"/>
			</g>
			<g>
				<path class="st1" d="M864,955.4v8.9h-1.9v-1.1c-0.6,0.9-1.5,1.4-2.7,1.4c-2,0-3.4-1.3-3.4-3.6v-5.4h1.9v5.2c0,1.3,0.8,2.1,2,2.1
					c1.3,0,2.2-0.7,2.2-2.5v-4.7H864z"/>
			</g>
			<g>
				<path class="st1" d="M872.6,961.8c0,1.8-1.5,2.7-3.5,2.7c-1.8,0-3-0.8-3.6-2.1l1.6-1c0.3,0.8,1,1.3,2,1.3c0.8,0,1.5-0.3,1.5-1
					c0-1.6-4.8-0.7-4.8-3.9c0-1.7,1.4-2.7,3.2-2.7c1.5,0,2.7,0.7,3.3,1.8l-1.6,0.9c-0.3-0.7-0.9-1-1.7-1c-0.7,0-1.3,0.3-1.3,0.9
					C867.9,959.5,872.6,958.5,872.6,961.8z"/>
			</g>
			<g>
				<path class="st1" d="M876.7,957.3v4.2c0,1.1,0.7,1.1,2.2,1v1.7c-2.9,0.4-4.1-0.5-4.1-2.8v-4.2h-1.6v-1.8h1.6v-1.9l1.9-0.6v2.5
					h2.2v1.8H876.7z"/>
			</g>
			<g>
				<path class="st1" d="M885.4,955.3v2.1c-1.3-0.1-2.7,0.5-2.7,2.5v4.5h-1.9v-8.9h1.9v1.5C883.2,955.7,884.2,955.3,885.4,955.3z"/>
			</g>
			<g>
				<path class="st1" d="M895.3,955.4v8.9h-1.9V963c-0.7,0.9-1.7,1.5-3.1,1.5c-2.4,0-4.4-2-4.4-4.7c0-2.6,2-4.7,4.4-4.7
					c1.4,0,2.4,0.6,3.1,1.5v-1.3H895.3z M893.4,959.9c0-1.6-1.2-2.8-2.8-2.8c-1.6,0-2.8,1.2-2.8,2.8c0,1.6,1.2,2.8,2.8,2.8
					C892.2,962.7,893.4,961.5,893.4,959.9z"/>
			</g>
			<g>
				<path class="st1" d="M900.3,957.3v4.2c0,1.1,0.7,1.1,2.2,1v1.7c-2.9,0.4-4.1-0.5-4.1-2.8v-4.2h-1.6v-1.8h1.6v-1.9l1.9-0.6v2.5
					h2.2v1.8H900.3z"/>
			</g>
			<g>
				<path class="st1" d="M903.9,952.9c0-0.7,0.5-1.2,1.2-1.2c0.7,0,1.2,0.5,1.2,1.2c0,0.7-0.5,1.2-1.2,1.2
					C904.5,954.1,903.9,953.6,903.9,952.9z M904.2,955.4h1.9v8.9h-1.9V955.4z"/>
			</g>
			<g>
				<path class="st1" d="M907.8,959.9c0-2.6,2.1-4.7,4.7-4.7c2.6,0,4.7,2,4.7,4.7c0,2.6-2.1,4.7-4.7,4.7
					C909.9,964.5,907.8,962.5,907.8,959.9z M915.3,959.9c0-1.6-1.2-2.8-2.8-2.8c-1.6,0-2.8,1.2-2.8,2.8c0,1.6,1.2,2.8,2.8,2.8
					C914.1,962.7,915.3,961.5,915.3,959.9z"/>
			</g>
			<g>
				<path class="st1" d="M927,958.9v5.4h-1.9v-5.2c0-1.3-0.8-2.1-2-2.1c-1.3,0-2.2,0.7-2.2,2.5v4.7h-1.9v-8.9h1.9v1.1
					c0.6-0.9,1.5-1.4,2.7-1.4C925.5,955.2,927,956.6,927,958.9z"/>
			</g>
			<g>
				<path class="st1" d="M935.5,961.8c0,1.8-1.5,2.7-3.5,2.7c-1.8,0-3-0.8-3.6-2.1l1.6-1c0.3,0.8,1,1.3,2,1.3c0.8,0,1.5-0.3,1.5-1
					c0-1.6-4.8-0.7-4.8-3.9c0-1.7,1.4-2.7,3.2-2.7c1.5,0,2.7,0.7,3.3,1.8l-1.6,0.9c-0.3-0.7-0.9-1-1.7-1c-0.7,0-1.3,0.3-1.3,0.9
					C930.7,959.5,935.5,958.5,935.5,961.8z"/>
			</g>
			<g>
				<path class="st1" d="M936.8,963.2c0-0.7,0.6-1.3,1.3-1.3c0.7,0,1.3,0.6,1.3,1.3c0,0.7-0.6,1.3-1.3,1.3
					C937.4,964.5,936.8,963.9,936.8,963.2z"/>
			</g>
			<g>
				<path class="st1" d="M940.3,959.9c0-2.6,2-4.7,4.7-4.7c1.7,0,3.2,0.9,3.9,2.3l-1.6,1c-0.4-0.8-1.3-1.4-2.3-1.4
					c-1.6,0-2.7,1.2-2.7,2.8c0,1.6,1.2,2.8,2.7,2.8c1.1,0,1.9-0.5,2.4-1.4l1.6,0.9c-0.7,1.4-2.2,2.3-4,2.3
					C942.3,964.5,940.3,962.5,940.3,959.9z"/>
			</g>
			<g>
				<path class="st1" d="M949.7,959.9c0-2.6,2.1-4.7,4.7-4.7c2.6,0,4.7,2,4.7,4.7c0,2.6-2.1,4.7-4.7,4.7
					C951.8,964.5,949.7,962.5,949.7,959.9z M957.2,959.9c0-1.6-1.2-2.8-2.8-2.8s-2.8,1.2-2.8,2.8c0,1.6,1.2,2.8,2.8,2.8
					S957.2,961.5,957.2,959.9z"/>
			</g>
		</g>
	</g>
</g>
<path id="XMLID_3_" class="st2" d="M791,663.7H241c-11,0-20-9-20-20v0c0-11,9-20,20-20h550c11,0,20,9,20,20v0
	C811,654.7,802,663.7,791,663.7z"/>
<path id="XMLID_21_" class="st3" d="M556.5,599h-270c-5.5,0-10-4.5-10-10V391c0-5.5,4.5-10,10-10h270c5.5,0,10,4.5,10,10v198
	C566.5,594.5,562,599,556.5,599z"/>
<path id="XMLID_38_" class="st4" d="M282.5,582.9V391c0-2.2,1.8-4,4-4h270c2.2,0,4,1.8,4,4v191.9c0,2.2-1.8,4-4,4h-270
	C284.3,586.9,282.5,585.2,282.5,582.9z"/>
<path id="XMLID_1_" class="st5" d="M556.5,599h-270c-5.5,0-10-4.5-10-10V391c0-5.5,4.5-10,10-10h270c5.5,0,10,4.5,10,10v198
	C566.5,594.5,562,599,556.5,599z"/>
<path id="XMLID_5_" class="st3" d="M294.5,551.6v-146c0-4.4,3.6-8,8-8h238c4.4,0,8,3.6,8,8v146c0,4.4-3.6,8-8,8h-238
	C298.1,559.6,294.5,556,294.5,551.6z"/>
<path id="XMLID_37_" class="st6" d="M302.5,555.6c-2.2,0-4-1.8-4-4v-146c0-2.2,1.8-4,4-4h238c2.2,0,4,1.8,4,4v146c0,2.2-1.8,4-4,4
	H302.5z"/>
<g id="XMLID_64_" class="st7">
	<g id="XMLID_122_">
		<path id="XMLID_126_" class="st8" d="M442.3,476.6c-6.8-3.3-13.7-2-20.5-0.4c0-6.8,0-13.7,0-20.5c6.8-1.6,13.7-2.9,20.5,0.4
			C442.3,462.9,442.3,469.8,442.3,476.6z"/>
		<path id="XMLID_125_" class="st8" d="M442.3,500.5c-6.8-3.3-13.7-2-20.5-0.4c0-6.8,0-13.7,0-20.5c6.8-1.6,13.7-2.9,20.5,0.4
			C442.3,486.8,442.3,493.6,442.3,500.5z"/>
		<path id="XMLID_124_" class="st8" d="M418.4,500.9c-6.8,1.6-13.7,2.9-20.5-0.4c0-6.8,0-13.7,0-20.5c6.8,3.3,13.7,2,20.5,0.4
			C418.4,487.2,418.4,494,418.4,500.9z"/>
		<path id="XMLID_123_" class="st8" d="M418.4,477c-6.8,1.6-13.7,2.9-20.5-0.4c0-6.8,0-13.7,0-20.5c6.8,3.3,13.7,2,20.5,0.4
			C418.4,463.3,418.4,470.2,418.4,477z"/>
	</g>
</g>
<path id="XMLID_22_" class="st3" d="M440.7,599L440.7,599h-38.5l0,0c0,13.2-13,24.1-29.9,25.1l-14.3,0.8
	c-7.6,0.4-13.6,6.6-13.6,14.1l0,0h154l0,0c0-7.5-5.9-13.7-13.6-14.1l-14.3-0.8C453.8,623.1,440.7,612.2,440.7,599z"/>
<path id="XMLID_42_" class="st4" d="M372.4,624.1l-14.3,0.8c-7.6,0.4-13.6,6.6-13.6,14.1h154c0-7.5-5.9-13.7-13.6-14.1l-14.3-0.8
	c-1.9-0.1-3.8-0.4-5.7-0.7h-86.9C376.2,623.7,374.3,624,372.4,624.1z"/>
<path id="XMLID_41_" class="st9" d="M446.7,613.5c-3.7-4.1-5.9-9.1-5.9-14.5h-38.5c0,5.4-2.2,10.4-5.9,14.5H446.7z"/>
<path id="XMLID_7_" class="st5" d="M440.7,599L440.7,599h-38.5l0,0c0,13.2-13,24.1-29.9,25.1l-14.3,0.8c-7.6,0.4-13.6,6.6-13.6,14.1
	l0,0h154l0,0c0-7.5-5.9-13.7-13.6-14.1l-14.3-0.8C453.8,623.1,440.7,612.2,440.7,599z"/>
<path id="XMLID_23_" class="st10" d="M730.9,625h-132c-4.4,0-8-3.6-8-8V331c0-4.4,3.6-8,8-8h132c4.4,0,8,3.6,8,8v286
	C738.9,621.4,735.3,625,730.9,625z"/>
<path id="XMLID_4_" class="st5" d="M730.9,625h-132c-4.4,0-8-3.6-8-8V331c0-4.4,3.6-8,8-8h132c4.4,0,8,3.6,8,8v286
	C738.9,621.4,735.3,625,730.9,625z"/>
<path id="XMLID_46_" class="st11" d="M664.9,615c-35.3,0-64-28.7-64-64V334c0-0.6,0.4-1,1-1h126c0.6,0,1,0.4,1,1v217
	C728.9,586.3,700.2,615,664.9,615z"/>
<path id="XMLID_50_" class="st10" d="M600.9,355.5v182c0,35.9,28.7,65.1,64,65.1s64-29.2,64-65.1v-182H600.9z"/>
<path id="XMLID_13_" class="st12" d="M664.9,615c-35.3,0-64-28.7-64-64V334c0-0.6,0.4-1,1-1h126c0.6,0,1,0.4,1,1v217
	C728.9,586.3,700.2,615,664.9,615z"/>
<path id="XMLID_44_" class="st13" d="M664.9,591c-35.3,0-64-28.7-64-64V334c0-0.6,0.4-1,1-1h126c0.6,0,1,0.4,1,1v193
	C728.9,562.3,700.2,591,664.9,591z"/>
<path id="XMLID_14_" class="st12" d="M664.9,591c-35.3,0-64-28.7-64-64V334c0-0.6,0.4-1,1-1h126c0.6,0,1,0.4,1,1v193
	C728.9,562.3,700.2,591,664.9,591z"/>
<rect id="XMLID_24_" x="608.9" y="625" class="st14" width="112" height="14"/>
<rect id="XMLID_2_" x="608.9" y="625" class="st15" width="112" height="7"/>
<rect id="XMLID_6_" x="608.9" y="625" class="st5" width="112" height="14"/>
<path id="XMLID_53_" class="st10" d="M716.4,367.3h-103c-2.5,0-4.5-2-4.5-4.5v-16.5c0-2.5,2-4.5,4.5-4.5h103c2.5,0,4.5,2,4.5,4.5
	v16.5C720.9,365.3,718.9,367.3,716.4,367.3z"/>
<path id="XMLID_8_" class="st16" d="M716.4,367.3h-103c-2.5,0-4.5-2-4.5-4.5v-16.5c0-2.5,2-4.5,4.5-4.5h103c2.5,0,4.5,2,4.5,4.5
	v16.5C720.9,365.3,718.9,367.3,716.4,367.3z"/>
<path id="XMLID_57_" class="st10" d="M716.4,404h-69.6c-2.5,0-4.5-2-4.5-4.5v-11.4c0-2.5,2-4.5,4.5-4.5h69.6c2.5,0,4.5,2,4.5,4.5
	v11.4C720.9,402,718.9,404,716.4,404z"/>
<path id="XMLID_11_" class="st16" d="M716.4,404h-69.6c-2.5,0-4.5-2-4.5-4.5v-11.4c0-2.5,2-4.5,4.5-4.5h69.6c2.5,0,4.5,2,4.5,4.5
	v11.4C720.9,402,718.9,404,716.4,404z"/>
<circle id="XMLID_9_" class="st17" cx="666.7" cy="537.6" r="17.8"/>
<path id="XMLID_18_" class="st10" d="M719.1,460.5H610.7c-1,0-1.8-0.8-1.8-1.8v-24.4c0-1,0.8-1.8,1.8-1.8h108.4c1,0,1.8,0.8,1.8,1.8
	v24.4C720.9,459.7,720.1,460.5,719.1,460.5z"/>
<circle id="XMLID_12_" class="st6" cx="664.9" cy="488.6" r="10.3"/>
<circle id="XMLID_52_" class="st18" cx="664.9" cy="488.6" r="9.5"/>
<path id="XMLID_20_" class="st6" d="M707.1,450h-18.8c-0.6,0-1.1-0.5-1.1-1.1v-4.8c0-0.6,0.5-1.1,1.1-1.1h18.8
	c0.6,0,1.1,0.5,1.1,1.1v4.8C708.2,449.5,707.7,450,707.1,450z"/>
<path id="XMLID_15_" class="st13" d="M688.2,446.4v-2.3c0-0.1,0-0.1,0.1-0.1h18.8c0.1,0,0.1,0,0.1,0.1v2.3c0,0.1,0,0.1-0.1,0.1
	L688.2,446.4C688.3,446.5,688.2,446.5,688.2,446.4z"/>
<path id="XMLID_40_" class="st6" d="M681.4,450h-18.8c-0.6,0-1.1-0.5-1.1-1.1v-4.8c0-0.6,0.5-1.1,1.1-1.1h18.8
	c0.6,0,1.1,0.5,1.1,1.1v4.8C682.5,449.5,682,450,681.4,450z"/>
<path id="XMLID_16_" class="st13" d="M662.5,446.4v-2.3c0-0.1,0-0.1,0.1-0.1h18.8c0.1,0,0.1,0,0.1,0.1v2.3c0,0.1,0,0.1-0.1,0.1
	L662.5,446.4C662.5,446.5,662.5,446.5,662.5,446.4z"/>
<circle id="XMLID_25_" class="st19" cx="530.1" cy="572.8" r="6"/>
<circle id="XMLID_17_" class="st20" cx="530.1" cy="572.8" r="5.6"/>
<circle id="XMLID_27_" class="st19" cx="516.2" cy="572.8" r="3"/>
<circle id="XMLID_39_" class="st20" cx="516.2" cy="572.8" r="2.8"/>
<g id="XMLID_29_" class="st21">
	
		<rect id="XMLID_28_" x="418" y="570.5" transform="matrix(0.7071 -0.7071 0.7071 0.7071 -284.6084 465.385)" class="st6" width="2.9" height="11.5"/>
	
		<rect id="XMLID_30_" x="416.6" y="568.7" transform="matrix(0.7071 -0.7071 0.7071 0.7071 -280.2998 463.6003)" class="st6" width="5.7" height="2.9"/>
	
		<rect id="XMLID_31_" x="422.7" y="574.8" transform="matrix(0.7071 -0.7071 0.7071 0.7071 -282.8237 469.6936)" class="st6" width="5.7" height="2.9"/>
	
		<rect id="XMLID_32_" x="419.6" y="571.8" transform="matrix(0.7071 -0.7071 0.7071 0.7071 -281.5617 466.647)" class="st6" width="5.7" height="2.9"/>
</g>
<g id="XMLID_26_">
	
		<rect id="XMLID_36_" x="661.9" y="532.5" transform="matrix(0.7071 -0.7071 0.7071 0.7071 -187.7159 627.7138)" class="st13" width="4" height="16"/>
	
		<rect id="XMLID_35_" x="659.9" y="530" transform="matrix(0.7071 -0.7071 0.7071 0.7071 -181.7159 625.2285)" class="st13" width="8" height="4"/>
	
		<rect id="XMLID_34_" x="668.3" y="538.5" transform="matrix(0.7071 -0.7071 0.7071 0.7071 -185.2306 633.7138)" class="st13" width="8" height="4"/>
	
		<rect id="XMLID_33_" x="664.1" y="534.2" transform="matrix(0.7071 -0.7071 0.7071 0.7071 -183.4733 629.4712)" class="st13" width="8" height="4"/>
</g>
<path id="XMLID_10_" class="st6" d="M712.8,396.8H649c-0.7,0-1.2-0.6-1.2-1.2v-4.3c0-0.7,0.6-1.2,1.2-1.2h63.8
	c0.7,0,1.2,0.6,1.2,1.2v4.3C714.1,396.3,713.5,396.8,712.8,396.8z"/>
<path id="XMLID_43_" class="st6" d="M701.2,398.9h-14.8c-3,0-5.5-2.5-5.5-5.5v0c0-3,2.5-5.5,5.5-5.5h14.8c3,0,5.5,2.5,5.5,5.5v0
	C706.7,396.4,704.3,398.9,701.2,398.9z"/>
<path id="XMLID_45_" class="st22" d="M649.7,393.4L649.7,393.4c0-0.8,0.6-1.4,1.4-1.4h59.5c0.8,0,1.4,0.6,1.4,1.4l0,0
	c0,0.8-0.6,1.4-1.4,1.4h-59.5C650.4,394.8,649.7,394.2,649.7,393.4z"/>
<circle id="XMLID_51_" class="st6" cx="650.6" cy="446.5" r="3.5"/>
<circle id="XMLID_48_" class="st6" cx="636.4" cy="446.5" r="3.5"/>
<circle id="XMLID_47_" class="st23" cx="650.6" cy="446.5" r="3.5"/>
<circle id="XMLID_49_" class="st24" cx="636.4" cy="446.5" r="3.5"/>
<path id="XMLID_56_" class="st16" d="M660.7,483.6c-1.4,1.2-2.3,3-2.3,4.9c0,3.6,2.9,6.5,6.5,6.5s6.5-2.9,6.5-6.5
	c0-2-0.9-3.7-2.3-4.9"/>
<line id="XMLID_54_" class="st16" x1="664.9" y1="481" x2="664.9" y2="488.6"/>
<path id="XMLID_55_" class="st6" d="M715.6,358.3H614.4c-0.8,0-1.4-0.6-1.4-1.4v-9.5c0-0.8,0.6-1.4,1.4-1.4h101.2
	c0.8,0,1.4,0.6,1.4,1.4v9.5C717,357.7,716.4,358.3,715.6,358.3z"/>
<path id="XMLID_58_" class="st6" d="M715.4,364.2h-6.6c-0.4,0-0.8-0.4-0.8-0.8v-1.1c0-0.4,0.4-0.8,0.8-0.8h6.6
	c0.4,0,0.8,0.4,0.8,0.8v1.1C716.2,363.8,715.8,364.2,715.4,364.2z"/>
<path id="XMLID_60_" class="st25" d="M703.5,364.2L703.5,364.2c-0.8,0-1.4-0.6-1.4-1.4l0,0c0-0.8,0.6-1.4,1.4-1.4l0,0
	c0.8,0,1.4,0.6,1.4,1.4l0,0C704.9,363.6,704.3,364.2,703.5,364.2z"/>
<circle id="XMLID_59_" class="st6" cx="682.1" cy="479.7" r="2.3"/>
<circle id="XMLID_61_" class="st18" cx="682.1" cy="479.7" r="1.7"/>
<g id="XMLID_81_">
	<path id="XMLID_80_" class="st26" d="M583,635.4H479V627c0-2.9,2.4-5.3,5.3-5.3h93.4c2.9,0,5.3,2.4,5.3,5.3V635.4z"/>
	<path id="XMLID_79_" class="st26" d="M413.1,635.4h-20V627c0-2.9,2.4-5.3,5.3-5.3h9.4c2.9,0,5.3,2.4,5.3,5.3V635.4z"/>
	<path id="XMLID_78_" class="st26" d="M441.1,635.4h-20V627c0-2.9,2.4-5.3,5.3-5.3h9.4c2.9,0,5.3,2.4,5.3,5.3V635.4z"/>
	<path id="XMLID_77_" class="st26" d="M610.9,635.4h-20V627c0-2.9,2.4-5.3,5.3-5.3h9.4c2.9,0,5.3,2.4,5.3,5.3V635.4z"/>
	<path id="XMLID_76_" class="st26" d="M639.8,635.4h-20V627c0-2.9,2.4-5.3,5.3-5.3h9.4c2.9,0,5.3,2.4,5.3,5.3V635.4z"/>
	<path id="XMLID_75_" class="st26" d="M667.7,635.4h-20V627c0-2.9,2.4-5.3,5.3-5.3h9.4c2.9,0,5.3,2.4,5.3,5.3V635.4z"/>
	<path id="XMLID_74_" class="st4" d="M674.5,651.9H387c-4.6,0-8.3-3.7-8.3-8.3v0c0-4.6,3.7-8.3,8.3-8.3h287.5c4.6,0,8.3,3.7,8.3,8.3
		v0C682.7,648.2,679,651.9,674.5,651.9z"/>
	<path id="XMLID_72_" class="st5" d="M583,635.4H479V627c0-2.9,2.4-5.3,5.3-5.3h93.4c2.9,0,5.3,2.4,5.3,5.3V635.4z"/>
	<path id="XMLID_71_" class="st5" d="M413.1,635.4h-20V627c0-2.9,2.4-5.3,5.3-5.3h9.4c2.9,0,5.3,2.4,5.3,5.3V635.4z"/>
	<path id="XMLID_69_" class="st5" d="M441.1,635.4h-20V627c0-2.9,2.4-5.3,5.3-5.3h9.4c2.9,0,5.3,2.4,5.3,5.3V635.4z"/>
	<path id="XMLID_85_" class="st26" d="M470.1,635.4h-20V627c0-2.9,2.4-5.3,5.3-5.3h9.4c2.9,0,5.3,2.4,5.3,5.3V635.4z"/>
	<path id="XMLID_84_" class="st5" d="M470.1,635.4h-20V627c0-2.9,2.4-5.3,5.3-5.3h9.4c2.9,0,5.3,2.4,5.3,5.3V635.4z"/>
	<path id="XMLID_68_" class="st5" d="M610.9,635.4h-20V627c0-2.9,2.4-5.3,5.3-5.3h9.4c2.9,0,5.3,2.4,5.3,5.3V635.4z"/>
	<path id="XMLID_67_" class="st5" d="M639.8,635.4h-20V627c0-2.9,2.4-5.3,5.3-5.3h9.4c2.9,0,5.3,2.4,5.3,5.3V635.4z"/>
	<path id="XMLID_66_" class="st5" d="M667.7,635.4h-20V627c0-2.9,2.4-5.3,5.3-5.3h9.4c2.9,0,5.3,2.4,5.3,5.3V635.4z"/>
	<path id="XMLID_62_" class="st5" d="M674.5,651.9H387c-4.6,0-8.3-3.7-8.3-8.3v0c0-4.6,3.7-8.3,8.3-8.3h287.5c4.6,0,8.3,3.7,8.3,8.3
		v0C682.7,648.2,679,651.9,674.5,651.9z"/>
	<path id="XMLID_73_" class="st4" d="M696.5,651.9c0-12.1,9.8-21.9,21.9-21.9s21.9,9.8,21.9,21.9H696.5z"/>
	<path id="XMLID_70_" class="st5" d="M696.5,651.9c0-12.1,9.8-21.9,21.9-21.9s21.9,9.8,21.9,21.9H696.5z"/>
	<line id="XMLID_83_" class="st5" x1="718.5" y1="632.1" x2="718.5" y2="638.7"/>
</g>
<polygon id="XMLID_89_" class="st27" points="377.7,555.6 456.1,401.6 418.3,401.6 339.9,555.6 "/>
<polygon id="XMLID_88_" class="st27" points="424.6,555.6 503.1,401.6 484.2,401.6 405.8,555.6 "/>
<g id="XMLID_87_">
	<path id="XMLID_94_" class="st28" d="M620.7,476c-1.4-0.7-2.9-0.4-4.3-0.1c0-1.4,0-2.9,0-4.3c1.4-0.3,2.9-0.6,4.3,0.1
		C620.7,473.1,620.7,474.5,620.7,476z"/>
	<path id="XMLID_93_" class="st29" d="M620.7,481c-1.4-0.7-2.9-0.4-4.3-0.1c0-1.4,0-2.9,0-4.3c1.4-0.3,2.9-0.6,4.3,0.1
		C620.7,478.1,620.7,479.6,620.7,481z"/>
	<path id="XMLID_92_" class="st8" d="M615.6,481.1c-1.4,0.3-2.9,0.6-4.3-0.1c0-1.4,0-2.9,0-4.3c1.4,0.7,2.9,0.4,4.3,0.1
		C615.6,478.2,615.6,479.7,615.6,481.1z"/>
	<path id="XMLID_91_" class="st30" d="M615.6,476.1c-1.4,0.3-2.9,0.6-4.3-0.1c0-1.4,0-2.9,0-4.3c1.4,0.7,2.9,0.4,4.3,0.1
		C615.6,473.2,615.6,474.6,615.6,476.1z"/>
</g>
<line id="XMLID_95_" class="st31" x1="623.7" y1="474.5" x2="635.6" y2="474.5"/>
<line id="XMLID_96_" class="st31" x1="623.7" y1="478.1" x2="632.9" y2="478.1"/>
</svg>
