<?xml version="1.0" encoding="utf-8"?>
<!-- Generator: Adobe Illustrator 23.1.1, SVG Export Plug-In . SVG Version: 6.00 Build 0)  -->
<svg version="1.1" id="Layer_1" xmlns="http://www.w3.org/2000/svg" xmlns:xlink="http://www.w3.org/1999/xlink" x="0px" y="0px"
	 viewBox="0 0 1000 1000" style="enable-background:new 0 0 1000 1000;" xml:space="preserve">
<style type="text/css">
	.st0{fill:#F2F2F2;}
	.st1{fill:#34323A;}
	.st2{fill:#FF2727;}
	.st3{fill:none;stroke:#34323A;stroke-width:10;stroke-linecap:round;stroke-linejoin:round;stroke-miterlimit:10;}
	.st4{fill:#C92020;}
	.st5{fill:none;stroke:#34323A;stroke-width:12;stroke-linecap:round;stroke-linejoin:round;stroke-miterlimit:10;}
	.st6{fill:#FFFFFF;}
	.st7{fill:#D6D6D6;}
	.st8{fill:none;stroke:#FFFFFF;stroke-width:10;stroke-linecap:round;stroke-linejoin:round;stroke-miterlimit:10;}
	.st9{fill:none;stroke:#34323A;stroke-width:6;stroke-linecap:round;stroke-linejoin:round;stroke-miterlimit:10;}
	.st10{fill:none;stroke:#FFFFFF;stroke-width:7;stroke-linecap:round;stroke-linejoin:round;stroke-miterlimit:10;}
	.st11{fill:none;stroke:#FFFFFF;stroke-width:6;stroke-linecap:round;stroke-linejoin:round;stroke-miterlimit:10;}
	.st12{fill:#9D503A;}
	.st13{fill:#D17F6B;}
	.st14{fill:none;stroke:#FFFFFF;stroke-width:4;stroke-linecap:round;stroke-linejoin:round;stroke-miterlimit:10;}
	.st15{fill:none;stroke:#34323A;stroke-width:8;stroke-linecap:round;stroke-linejoin:round;stroke-miterlimit:10;}
</style>
<rect id="XMLID_1_" class="st0" width="1000" height="1000"/>
<g id="XMLID_123_">
	<path id="XMLID_193_" class="st1" d="M96.2,293.9c0,0,2.9,1,8.4,2.5c5.5,1.5,13.7,3.6,24.1,5.8c5.2,1.1,11,2.3,17.4,3.4
		c3.2,0.6,6.5,1.2,9.9,1.7c3.4,0.6,7,1.2,10.6,1.8c14.7,2.3,31.3,4.3,49.5,6.3c18.2,1.9,37.9,3.3,58.8,4.6c20.9,1.1,43,2,65.8,2.3
		c2.9,0,5.7,0.1,8.6,0.2c1.4,0,2.9,0.1,4.3,0.1c1.4,0,2.9,0,4.3,0c5.8,0,11.6,0,17.5,0c2.9,0,5.9,0,8.8,0c3,0,5.9-0.1,8.9-0.1
		c5.9-0.1,11.9-0.2,17.9-0.3c12-0.3,24.1-0.7,36.2-1c12.1-0.5,24.3-1.1,36.5-1.6c12.2-0.7,24.3-1.4,36.5-2.1
		c12.1-0.9,24.2-1.7,36.2-2.6c12-1,23.8-2,35.6-2.9c11.7-1.1,23.3-2.2,34.7-3.3c2.8-0.3,5.7-0.5,8.5-0.8c2.8-0.3,5.6-0.6,8.4-0.9
		c5.6-0.6,11.1-1.2,16.6-1.8c5.5-0.6,10.9-1.1,16.3-1.7c5.4-0.6,10.6-1.2,15.8-1.8c10.4-1.2,20.6-2.3,30.4-3.5
		c9.8-1.2,19.3-2.4,28.4-3.5c9.1-1.2,17.8-2.1,26.1-3.2c8.3-1.1,16.2-2.1,23.5-3.1c7.4-1,14.3-1.9,20.7-2.7
		c6.4-0.9,12.3-1.7,17.6-2.4c10.6-1.5,19-2.5,24.7-3.3c5.7-0.7,8.7-1.1,8.7-1.1s-3,0.7-8.6,2.1c-5.6,1.3-13.8,3.3-24.2,5.6
		c-5.2,1.2-11,2.5-17.3,3.9c-6.3,1.3-13.2,2.7-20.5,4.2c-7.3,1.5-15.1,3.1-23.3,4.7c-2.1,0.4-4.1,0.8-6.2,1.2
		c-2.1,0.4-4.3,0.8-6.4,1.2c-4.3,0.8-8.8,1.6-13.3,2.4c-9.1,1.6-18.5,3.4-28.3,5c-9.8,1.5-19.9,3.1-30.3,4.8
		c-5.2,0.8-10.5,1.7-15.8,2.4c-5.4,0.7-10.8,1.5-16.3,2.2c-5.5,0.7-11,1.5-16.6,2.2c-2.8,0.4-5.6,0.8-8.4,1.1
		c-2.8,0.3-5.7,0.7-8.5,1c-11.4,1.3-23,2.7-34.8,4c-11.8,1.1-23.7,2.2-35.8,3.4c-12.1,0.9-24.2,1.8-36.4,2.7c-3,0.3-6.1,0.4-9.2,0.6
		c-3.1,0.2-6.1,0.3-9.2,0.5c-6.1,0.3-12.3,0.7-18.4,1c-12.3,0.6-24.5,0.9-36.8,1.4c-6.1,0.1-12.2,0.2-18.3,0.3
		c-6.1,0.1-12.2,0.2-18.2,0.2c-6,0-12.1,0-18.1-0.1c-3,0-6,0-9,0c-3,0-6-0.1-8.9-0.2c-5.9-0.1-11.8-0.3-17.7-0.4
		c-1.5,0-2.9-0.1-4.4-0.1c-1.5-0.1-2.9-0.1-4.4-0.2c-2.9-0.1-5.8-0.2-8.7-0.4c-23-0.9-45.3-2.6-66.3-4.5
		c-10.5-1.1-20.7-2.1-30.6-3.4c-4.9-0.7-9.8-1.2-14.5-1.9c-4.7-0.7-9.4-1.4-14-2c-4.6-0.7-9-1.5-13.4-2.2c-2.2-0.4-4.3-0.7-6.4-1.1
		c-2.1-0.4-4.2-0.8-6.3-1.2c-4.1-0.8-8.2-1.5-12-2.3c-3.9-0.8-7.7-1.6-11.3-2.4c-7.3-1.6-14.1-3.2-20.4-4.9
		c-6.3-1.6-12-3.2-17.2-4.7c-10.3-3-18.3-5.9-23.7-7.8C98.9,295.2,96.2,293.9,96.2,293.9z"/>
</g>
<path id="XMLID_140_" class="st2" d="M276.1,415.8c0,0,0.6-94.4,14.7-108.5c14.1-14.1,29.6-9.8,33.6-5.8s14.9,14.5,14.9,14.5
	s-14.1-5.1-20.8,1.6s-17.3,102.9-17.3,102.9L276.1,415.8z"/>
<path id="XMLID_139_" class="st3" d="M276.1,415.8c0,0,0.6-94.4,14.7-108.5c14.1-14.1,29.6-9.8,33.6-5.8s14.9,14.5,14.9,14.5
	s-14.1-5.1-20.8,1.6s-17.3,102.9-17.3,102.9L276.1,415.8z"/>
<g id="XMLID_11_">
	<path id="XMLID_97_" class="st2" d="M196.4,505.6l19.5,63.5c8.8,28.6,0.9,59.7-20.4,80.8l-24.8,24.5c-16.1,15.9-21.6,39.7-14,61
		l0.5,1.3c12.6,35.6,54.1,51.3,87,33l96.7-53.8c33.1-18.4,47.2-58.6,32.9-93.7c0,0-32.5-74.9-42.7-100.2
		c-6.8-16.6-30.4-65.1-30.4-65.1L196.4,505.6z"/>
	<path id="XMLID_120_" class="st4" d="M373.8,622.2c0,0-32.5-74.9-42.7-100.2c-6.8-16.6-30.4-65.1-30.4-65.1l-26.5,12.4
		c6.4,13.5,13.3,28.3,16.4,36.1c10.3,25.2,42.7,100.2,42.7,100.2c14.3,35.1,0.2,75.3-32.9,93.7l-96.7,53.8
		c-9.9,5.5-20.5,7.9-30.9,7.7c18.6,17.5,47.3,22.4,71.3,9l96.7-53.8C374,697.5,388.1,657.3,373.8,622.2z"/>
	<path id="XMLID_133_" class="st4" d="M261.9,510.5c3-9.4,10.8-8.4,17.9-8.4c7.8,1.5,12.5-2.9,16.5-7.7c6.5,0.6,10.4-3,13.6-6.3
		c1.6-1.1,3.6-0.8,5.4-0.7c-7.5-15.9-14.6-30.5-14.6-30.5l-104.3,48.7l8.8,28.8c1.8-1.6,7.1,3.1,8.7-1.5c5.3,1.1,4.7-12.1,13.6-6.3
		c8,3.8,8.4-9.9,16.5-7.7C246.9,510,257.3,516.5,261.9,510.5z"/>
	<path id="XMLID_5_" class="st5" d="M196.4,505.6l19.5,63.5c8.8,28.6,0.9,59.7-20.4,80.8l-24.8,24.5c-16.1,15.9-21.6,39.7-14,61
		l0.5,1.3c12.6,35.6,54.1,51.3,87,33l96.7-53.8c33.1-18.4,47.2-58.6,32.9-93.7c0,0-32.5-74.9-42.7-100.2
		c-6.8-16.6-30.4-65.1-30.4-65.1L196.4,505.6z"/>
	<path id="XMLID_106_" class="st6" d="M318.9,467c0.1,0.2-3.4-4.1-3.4,1.6c0.4,6.6-5.7,1.7-9.2,4.3c-3.2,3.3-7.1,6.9-13.6,6.3
		c-4,4.8-8.7,9.2-16.5,7.7c-7.1-0.1-14.9-1-17.9,8.4c-4.6,6-15-0.5-17.9,8.4c-8.1-2.2-8.5,11.5-16.5,7.7c-8.9-5.8-8.3,7.5-13.6,6.3
		c-2,5.8-10-3.1-9.2,4.3c-0.4,4.9-5.3-2.6-3.4,1.6c-3.1,0.4-3,7.5-8.4,1.7c-2.4,0.7-4.4,1.1-7.6-2.3c-0.7,0.3-1.3,0.3-2-0.4
		c-0.8-0.8-1.7-2.4-3.2-5.4c-1.8-3.9-2.5-5.5-2.8-6c-3.5-7.4-2.4-5.2-3.1-6.7c0.3,0.6-0.2-0.4-3-6.5c1.7,3.6-1.3-2.7-1-2.1
		c-1.3-2.8-3.3-7-5.2-11.1c-0.1-0.2-1.3-2.8-2.8-6c-0.1-0.3-2.9-6.7-2.1-5.8c1.4,2.2-0.8-3.9,0.9-1.9c1.9,2.3,1.8,0,1.6-2.7
		c0.1-2,0.6-3.8,1.5-4.6c-0.5-6.8,4.5-2.9,6.7-5.3c0,0,0.7-1.7,3.4-1.6c1.1-3.3,5.5-2.2,9.2-4.3c4.2-1,7.7-5.5,13.6-6.3
		c3.6-5.6,10.6-5.2,16.5-7.7c5.2-4.1,11.4-6.6,17.9-8.4c5.8-3.5,12.3-5.2,17.9-8.4c6.5-1.2,12.4-3.1,16.5-7.7
		c3.4-6.1,8.1-7.9,13.6-6.3c5.6,1.8,6.3-4.8,9.2-4.3c3.3,1.3,2.8-2.9,3.4-1.6c3.9,1.1,8.8,5,8.4-1.7c2.6-0.1,6.6,3.6,7.6,2.3
		c2.8,2.6,3.1,1.3,5.2,5.8c-0.2-0.5-1.9-4,2.8,6c2.3,4.9,1.5,3.2,6.2,13.2c-1.2-2.5,5.6,12.1,6.2,13.2c4.4,9.4,2.9,6.1,2.8,6
		c0.2,0.5,2.2,6.7,1.1,7.7c1.2,6-1.4,5.2-3.1,7.3C323.9,464,321.7,465.9,318.9,467z"/>
	<g id="XMLID_114_">
		<path id="XMLID_115_" class="st7" d="M327.7,447c0,0.1,0,0.1,0.1,0.1C327.7,447.1,327.7,447,327.7,447z"/>
		<path id="XMLID_116_" class="st7" d="M270.9,427.2c0,0.1,0.1,0.1,0.1,0.2C271,427.3,271,427.2,270.9,427.2
			C270.9,427.2,270.9,427.2,270.9,427.2C270.9,427.2,270.9,427.2,270.9,427.2z"/>
		<path id="XMLID_117_" class="st7" d="M327.7,447.1C327.8,447.1,327.8,447.2,327.7,447.1C327.8,447.2,327.8,447.1,327.7,447.1z"/>
		<path id="XMLID_118_" class="st7" d="M318.5,427.4c0-0.1-0.1-0.2-0.1-0.2c0,0,0,0,0,0C318.5,427.3,318.5,427.3,318.5,427.4z"/>
		<path id="XMLID_122_" class="st7" d="M309.3,407.5c0,0,0-0.1,0-0.1C309.2,407.4,309.3,407.5,309.3,407.5z"/>
		<path id="XMLID_125_" class="st7" d="M327.8,447.2C327.8,447.2,327.8,447.2,327.8,447.2C327.8,447.2,327.8,447.2,327.8,447.2z"/>
		<path id="XMLID_126_" class="st7" d="M309.5,408c-0.1-0.2-0.2-0.4-0.3-0.5C309.4,407.7,309.5,407.9,309.5,408z"/>
		<path id="XMLID_127_" class="st7" d="M309.5,408C309.5,408,309.5,408,309.5,408C309.5,408,309.5,408,309.5,408z"/>
		<path id="XMLID_128_" class="st7" d="M309.2,407.4C309.1,407,309.1,407.1,309.2,407.4L309.2,407.4z"/>
		<path id="XMLID_129_" class="st7" d="M327.5,446.6c0,0,0.1,0.2,0.2,0.4c-0.3-0.6-1.1-2.3-3-6.4c-0.5-1-5.7-12.1-6.2-13.4
			c0,0,0,0,0,0c0,0,0,0,0,0c0,0,0,0,0,0c-4.6-9.8-3.8-8.1-6-13c-1.6-3.3-2.4-5.2-2.9-6.1c0,0,0,0.1,0.1,0.1
			c-2.1-4.6-2.4-3.2-5.2-5.8c-1,1.2-5-2.4-7.6-2.3c0.4,6.7-4.5,2.8-8.4,1.7c-0.6-1.3-0.1,2.9-3.4,1.6c-2.9-0.5-3.7,6.1-9.2,4.3
			c-4.7-1.4-8.9-0.2-12.1,4.1c0.3,0.7,0.7,1.6,1.2,2.5c2.3,4.9,1.5,3.2,6,13c0,0,0,0,0,0c0,0,0,0,0,0c0.6,1.2,5.8,12.4,6.2,13.4
			c1.9,4.1,2.7,5.8,3,6.4c0,0.1,0,0.1,0.1,0.1c0,0,0,0,0,0.1c0,0,0,0,0,0.1c0,0,0,0,0,0c0,0,0,0,0,0c0,0,0,0,0,0c0,0,0,0,0-0.1
			c0,0,0,0,0-0.1c0,0,0-0.1-0.1-0.1c-0.1-0.2-0.2-0.4-0.2-0.4c0.2,0.5,2.2,6.7,1.1,7.7c1.2,6-1.4,5.2-3.1,7.3
			c-1.6,2.3-3.8,4.3-6.7,5.3c0.1,0.2-3.4-4.1-3.4,1.6c0.4,6.6-5.7,1.7-9.2,4.3c-3.2,3.3-7.1,6.9-13.6,6.3c-4,4.8-8.7,9.2-16.5,7.7
			c-7.1-0.1-14.9-1-17.9,8.4c-4.6,6-15-0.5-17.9,8.4c-8.1-2.2-8.5,11.5-16.5,7.7c-1.2-0.8-2.2-1.2-3.1-1.4c0.2,0.3,0.3,0.7,0.5,1.1
			c0.3,0.5,1,2.1,2.8,6c1.4,3,2.4,4.6,3.2,5.4c0.8,0.8,1.4,0.7,2,0.4c3.2,3.4,5.2,3,7.6,2.3c5.4,5.8,5.2-1.3,8.4-1.7
			c-1.9-4.2,3,3.3,3.4-1.6c-0.8-7.4,7.2,1.5,9.2-4.3c5.3,1.1,4.7-12.1,13.6-6.3c8,3.8,8.4-9.9,16.5-7.7c2.9-8.9,13.3-2.4,17.9-8.4
			c3-9.4,10.8-8.4,17.9-8.4c7.8,1.5,12.5-2.9,16.5-7.7c6.5,0.6,10.4-3,13.6-6.3c3.5-2.6,9.6,2.3,9.2-4.3c0-5.7,3.5-1.4,3.4-1.6
			c2.8-1.1,5.1-3,6.7-5.3c1.7-2.1,4.3-1.3,3.1-7.3C329.8,453.3,327.7,447.1,327.5,446.6z"/>
		<path id="XMLID_130_" class="st7" d="M327.8,447.2C327.8,447.2,327.8,447.2,327.8,447.2C327.8,447.2,327.8,447.2,327.8,447.2z"/>
		<path id="XMLID_131_" class="st7" d="M327.8,447.2C327.8,447.2,327.8,447.2,327.8,447.2L327.8,447.2z"/>
	</g>
	<path id="XMLID_2_" class="st3" d="M318.9,467c0.1,0.2-3.4-4.1-3.4,1.6c0.4,6.6-5.7,1.7-9.2,4.3c-3.2,3.3-7.1,6.9-13.6,6.3
		c-4,4.8-8.7,9.2-16.5,7.7c-7.1-0.1-14.9-1-17.9,8.4c-4.6,6-15-0.5-17.9,8.4c-8.1-2.2-8.5,11.5-16.5,7.7c-8.9-5.8-8.3,7.5-13.6,6.3
		c-2,5.8-10-3.1-9.2,4.3c-0.4,4.9-5.3-2.6-3.4,1.6c-3.1,0.4-3,7.5-8.4,1.7c-2.4,0.7-4.4,1.1-7.6-2.3c-0.7,0.3-1.3,0.3-2-0.4
		c-0.8-0.8-1.7-2.4-3.2-5.4c-1.8-3.9-2.5-5.5-2.8-6c-3.5-7.4-2.4-5.2-3.1-6.7c0.3,0.6-0.2-0.4-3-6.5c1.7,3.6-1.3-2.7-1-2.1
		c-1.3-2.8-3.3-7-5.2-11.1c-0.1-0.2-1.3-2.8-2.8-6c-0.1-0.3-2.9-6.7-2.1-5.8c1.4,2.2-0.8-3.9,0.9-1.9c1.9,2.3,1.8,0,1.6-2.7
		c0.1-2,0.6-3.8,1.5-4.6c-0.5-6.8,4.5-2.9,6.7-5.3c0,0,0.7-1.7,3.4-1.6c1.1-3.3,5.5-2.2,9.2-4.3c4.2-1,7.7-5.5,13.6-6.3
		c3.6-5.6,10.6-5.2,16.5-7.7c5.2-4.1,11.4-6.6,17.9-8.4c5.8-3.5,12.3-5.2,17.9-8.4c6.5-1.2,12.4-3.1,16.5-7.7
		c3.4-6.1,8.1-7.9,13.6-6.3c5.6,1.8,6.3-4.8,9.2-4.3c3.3,1.3,2.8-2.9,3.4-1.6c3.9,1.1,8.8,5,8.4-1.7c2.6-0.1,6.6,3.6,7.6,2.3
		c2.8,2.6,3.1,1.3,5.2,5.8c-0.2-0.5-1.9-4,2.8,6c2.3,4.9,1.5,3.2,6.2,13.2c-1.2-2.5,5.6,12.1,6.2,13.2c4.4,9.4,2.9,6.1,2.8,6
		c0.2,0.5,2.2,6.7,1.1,7.7c1.2,6-1.4,5.2-3.1,7.3C323.9,464,321.7,465.9,318.9,467z"/>
	<g id="XMLID_6_">
		<polygon id="XMLID_103_" class="st6" points="275.1,591.6 297.5,609.6 325.1,601.3 314.9,628.2 331.3,651.8 302.5,650.4 
			285.1,673.3 277.6,645.6 250.4,636.1 274.4,620.3 		"/>
		<polygon id="XMLID_3_" class="st8" points="275.1,591.6 297.5,609.6 325.1,601.3 314.9,628.2 331.3,651.8 302.5,650.4 
			285.1,673.3 277.6,645.6 250.4,636.1 274.4,620.3 		"/>
		<circle id="XMLID_4_" class="st6" cx="251.7" cy="607.3" r="6.7"/>
		<circle id="XMLID_7_" class="st6" cx="260.5" cy="664.7" r="6.7"/>
		<circle id="XMLID_8_" class="st6" cx="314.4" cy="671.1" r="6.7"/>
		<circle id="XMLID_9_" class="st6" cx="339.3" cy="617" r="6.7"/>
		<circle id="XMLID_10_" class="st6" cx="301.2" cy="585.5" r="6.7"/>
	</g>
	<circle id="XMLID_100_" class="st6" cx="169.5" cy="710" r="5.4"/>
	<circle id="XMLID_110_" class="st6" cx="231.4" cy="754.3" r="5.4"/>
	<circle id="XMLID_112_" class="st6" cx="246.2" cy="746.4" r="4.1"/>
	<circle id="XMLID_104_" class="st6" cx="172.9" cy="730.4" r="7.3"/>
	<circle id="XMLID_107_" class="st6" cx="211" cy="756.2" r="7.3"/>
	<circle id="XMLID_105_" class="st6" cx="189.5" cy="746.9" r="9.2"/>
	<path id="XMLID_160_" class="st9" d="M201.8,478.6l3.7,1.4c4.1,1.6,6.8,0.3,6.3-7.1"/>
	<path id="XMLID_111_" class="st9" d="M251.4,466.1c4.1,1.6,7.7,5.7,8.6-2l0.4-1.4c0,0-0.3-5.7,8,0"/>
</g>
<g>
	<g>
		<g>
			<path class="st4" d="M63.2,959.2c0,2.5-1.2,3.7-2.6,3.7c-1.1,0-1.9-0.5-2.1-1.4c-0.4,0.5-1,0.8-1.8,0.8c-1.5,0-2.6-1.2-2.6-2.8
				c0-1.6,1.1-2.8,2.6-2.8c0.7,0,1.2,0.3,1.6,0.7v-0.5h1.6v3.9c0,0.8,0.3,1.4,1,1.4c0.9,0,1.7-0.9,1.7-3c0-3-2.3-5.3-5.4-5.3
				c-3.1,0-5.6,2.4-5.6,5.7c0,3.3,2.5,5.7,5.9,5.7c1.1,0,2.1-0.2,2.9-0.4v0.6c-0.8,0.3-1.7,0.4-2.9,0.4c-3.7,0-6.5-2.6-6.5-6.2
				c0-3.4,2.7-6.2,6.2-6.2C61.1,953.3,63.2,956.4,63.2,959.2z M58.3,959.5c0-0.8-0.6-1.4-1.3-1.4c-0.8,0-1.3,0.5-1.3,1.4
				c0,0.8,0.6,1.3,1.3,1.3C57.8,960.9,58.3,960.3,58.3,959.5z"/>
		</g>
		<g>
			<path class="st4" d="M69.4,955.1v2c-1.2-0.1-2.6,0.5-2.6,2.4v4.3h-1.9v-8.6h1.9v1.4C67.3,955.5,68.3,955.1,69.4,955.1z"/>
		</g>
		<g>
			<path class="st4" d="M74.6,962.3c1,0,1.8-0.5,2.2-1.1l1.5,0.9c-0.8,1.2-2.1,1.9-3.8,1.9c-2.8,0-4.7-1.9-4.7-4.5
				c0-2.5,1.8-4.5,4.5-4.5c2.6,0,4.3,2.1,4.3,4.5c0,0.3,0,0.5-0.1,0.8h-6.8C72.1,961.6,73.2,962.3,74.6,962.3z M76.9,958.8
				c-0.3-1.5-1.3-2.1-2.5-2.1c-1.4,0-2.3,0.8-2.6,2.1H76.9z"/>
		</g>
		<g>
			<path class="st4" d="M88.9,955.2v8.6h-1.9v-1.2c-0.7,0.9-1.7,1.5-3,1.5c-2.3,0-4.3-2-4.3-4.5c0-2.6,1.9-4.5,4.3-4.5
				c1.3,0,2.3,0.5,3,1.4v-1.2H88.9z M87.1,959.5c0-1.6-1.2-2.7-2.7-2.7c-1.5,0-2.7,1.1-2.7,2.7c0,1.6,1.2,2.7,2.7,2.7
				C85.9,962.3,87.1,961.1,87.1,959.5z"/>
		</g>
		<g>
			<path class="st4" d="M91.1,951.3H93v12.5h-1.9V951.3z"/>
		</g>
		<g>
			<path class="st4" d="M102.9,955.2l-3.3,8.6h-2.1l-3.3-8.6h2l2.4,6.5l2.4-6.5H102.9z"/>
		</g>
		<g>
			<path class="st4" d="M104.2,955.2h1.9v8.9c0,2.4-1.2,3.5-3.5,3.3v-1.8c1.1,0.1,1.7-0.3,1.7-1.5V955.2z M104,952.8
				c0-0.7,0.5-1.2,1.2-1.2c0.7,0,1.2,0.5,1.2,1.2c0,0.6-0.5,1.2-1.2,1.2C104.5,954,104,953.4,104,952.8z"/>
		</g>
		<g>
			<path class="st4" d="M116,955.2l-3.3,8.8c-0.8,2.2-2.2,3.3-4.2,3.2v-1.7c1.2,0.1,1.9-0.5,2.3-1.7l0.1-0.2l-3.6-8.4h2l2.6,6.2
				l2.2-6.2H116z"/>
		</g>
	</g>
	<g>
		<path class="st4" d="M211.9,938.7c0,2.1-1.5,3.8-3.6,3.8h-3v-7.6h3C210.4,934.9,211.9,936.6,211.9,938.7z M210.9,938.7
			c0-1.6-1.1-2.9-2.6-2.9h-2v5.7h2C209.8,941.6,210.9,940.3,210.9,938.7z"/>
		<path class="st4" d="M219.5,940.8h-3.4l-0.6,1.7h-1.1l2.8-7.6h1.1l2.8,7.6h-1.1L219.5,940.8z M219.2,939.9l-1.4-3.8l-1.4,3.8
			H219.2z"/>
		<path class="st4" d="M226.4,939.4v3.1h-1v-3.1l-2.7-4.5h1.1l2.1,3.6l2.1-3.6h1.1L226.4,939.4z"/>
		<path class="st4" d="M242.1,940.4c0,1.4-1.1,2.2-2.6,2.2c-1.5,0-2.6-0.8-2.6-2.2c0-0.8,0.5-1.5,1.2-1.9c-0.6-0.3-0.9-0.9-0.9-1.7
			c0-1.5,1.2-2.2,2.4-2.2c1.2,0,2.4,0.7,2.4,2.2c0,0.8-0.4,1.3-0.9,1.7C241.7,938.9,242.1,939.6,242.1,940.4z M241.1,940.4
			c0-0.9-0.7-1.3-1.6-1.3c-0.9,0-1.6,0.4-1.6,1.3c0,0.9,0.7,1.3,1.6,1.3C240.5,941.7,241.1,941.2,241.1,940.4z M238.2,936.9
			c0,0.8,0.6,1.2,1.4,1.2c0.7,0,1.4-0.4,1.4-1.2c0-0.8-0.6-1.2-1.4-1.2C238.8,935.7,238.2,936.1,238.2,936.9z"/>
		<path class="st4" d="M250.3,940.3c0,1.5-1.2,2.4-2.6,2.4c-1.1,0-2.1-0.5-2.5-1.6l0.9-0.5c0.2,0.8,0.8,1.1,1.7,1.1
			c0.9,0,1.6-0.5,1.6-1.4c0-0.9-0.7-1.4-1.6-1.4h-2.2l0.3-4h4.2v0.9h-3.3l-0.1,2h1.1C249.1,937.9,250.3,938.7,250.3,940.3z"/>
	</g>
	<g>
		<path class="st4" d="M58.9,938.7c0,2.1-1.5,3.8-3.6,3.8h-3v-7.6h3C57.4,934.9,58.9,936.6,58.9,938.7z M57.9,938.7
			c0-1.6-1.1-2.9-2.6-2.9h-2v5.7h2C56.8,941.6,57.9,940.3,57.9,938.7z"/>
		<path class="st4" d="M67,941.6v1h-4.6v-7.6h4.5v1h-3.5v2.3h3.2v0.9h-3.2v2.4H67z"/>
		<path class="st4" d="M70,940.8l0.9-0.5c0.3,0.8,0.9,1.4,2,1.4c1.1,0,1.6-0.5,1.6-1.2c0-0.8-0.7-1-1.8-1.4
			c-1.2-0.4-2.4-0.8-2.4-2.2c0-1.4,1.1-2.2,2.4-2.2c1.3,0,2.2,0.7,2.6,1.7l-0.8,0.5c-0.3-0.7-0.8-1.2-1.7-1.2
			c-0.8,0-1.4,0.4-1.4,1.1c0,0.7,0.5,1,1.6,1.3c1.3,0.4,2.6,0.8,2.6,2.3c0,1.3-1.1,2.2-2.6,2.2C71.5,942.7,70.4,941.9,70,940.8z"/>
		<path class="st4" d="M80,934.9v7.6h-1v-7.6H80z"/>
		<path class="st4" d="M91.3,939.2c0,1.9-1.4,3.5-3.7,3.5c-2.4,0-4-1.8-4-4c0-2.2,1.7-4,4-4c1.4,0,2.7,0.8,3.3,1.8l-0.9,0.5
			c-0.4-0.8-1.4-1.4-2.4-1.4c-1.8,0-3,1.3-3,3c0,1.7,1.2,3,3,3c1.6,0,2.5-0.9,2.7-2h-2.8v-0.9h3.8V939.2z"/>
		<path class="st4" d="M100.6,934.9v7.6h-0.8l-3.9-5.7v5.7h-1v-7.6h0.8l3.9,5.7v-5.7H100.6z"/>
		<path class="st4" d="M109.1,941.6v1h-4.6v-7.6h4.5v1h-3.5v2.3h3.2v0.9h-3.2v2.4H109.1z"/>
		<path class="st4" d="M119.2,938.7c0,2.1-1.5,3.8-3.6,3.8h-3v-7.6h3C117.6,934.9,119.2,936.6,119.2,938.7z M118.2,938.7
			c0-1.6-1.1-2.9-2.6-2.9h-2v5.7h2C117.1,941.6,118.2,940.3,118.2,938.7z"/>
		<path class="st4" d="M133.2,940.4c0,1.2-1,2.2-2.2,2.2h-3.3v-7.6h3c1.2,0,2.1,0.9,2.1,2.1c0,0.7-0.3,1.2-0.8,1.6
			C132.7,938.9,133.2,939.5,133.2,940.4z M128.7,935.8v2.3h2c0.6,0,1.1-0.5,1.1-1.2c0-0.6-0.5-1.2-1.1-1.2H128.7z M132.2,940.3
			c0-0.7-0.5-1.2-1.2-1.2h-2.3v2.5h2.3C131.7,941.6,132.2,941,132.2,940.3z"/>
		<path class="st4" d="M139.4,939.4v3.1h-1v-3.1l-2.7-4.5h1.1l2.1,3.6l2.1-3.6h1.1L139.4,939.4z"/>
	</g>
	<g>
		<path class="st4" d="M204.8,961.5l1.8-1c0.4,1.3,1.4,2.1,3.1,2.1c1.6,0,2.3-0.7,2.3-1.6c0-1.1-1-1.5-2.8-2
			c-1.9-0.6-3.8-1.3-3.8-3.6c0-2.3,1.9-3.6,4-3.6c2,0,3.5,1.1,4.3,2.7l-1.7,1c-0.4-1-1.2-1.7-2.6-1.7c-1.2,0-1.9,0.6-1.9,1.5
			c0,1,0.7,1.4,2.5,1.9c2.1,0.7,4.1,1.3,4.1,3.8c0,2.3-1.8,3.6-4.4,3.6C207.1,964.5,205.5,963.3,204.8,961.5z"/>
		<path class="st4" d="M215.4,959.9c0-2.6,2.1-4.7,4.7-4.7c2.6,0,4.7,2,4.7,4.7c0,2.6-2.1,4.7-4.7,4.7
			C217.4,964.5,215.4,962.5,215.4,959.9z M222.8,959.9c0-1.6-1.2-2.8-2.8-2.8s-2.8,1.2-2.8,2.8c0,1.6,1.2,2.8,2.8,2.8
			S222.8,961.5,222.8,959.9z"/>
		<path class="st4" d="M225.9,959.9c0-2.6,2-4.7,4.7-4.7c1.7,0,3.2,0.9,3.9,2.3l-1.6,1c-0.4-0.8-1.3-1.4-2.3-1.4
			c-1.6,0-2.7,1.2-2.7,2.8c0,1.6,1.2,2.8,2.7,2.8c1.1,0,1.9-0.5,2.4-1.4l1.6,0.9c-0.7,1.4-2.2,2.3-4,2.3
			C227.9,964.5,225.9,962.5,225.9,959.9z"/>
		<path class="st4" d="M241.5,964.3l-3.6-4.1v4.1H236v-12.4h1.9v7.5l3.4-3.9h2.3l-3.9,4.3l4,4.5H241.5z"/>
		<path class="st4" d="M251,961.8c0,1.8-1.5,2.7-3.5,2.7c-1.8,0-3-0.8-3.6-2.1l1.6-1c0.3,0.8,1,1.3,2,1.3c0.8,0,1.5-0.3,1.5-1
			c0-1.6-4.8-0.7-4.8-3.9c0-1.7,1.4-2.7,3.2-2.7c1.5,0,2.7,0.7,3.3,1.8l-1.6,0.9c-0.3-0.7-0.9-1-1.7-1c-0.7,0-1.3,0.3-1.3,0.9
			C246.2,959.5,251,958.5,251,961.8z"/>
	</g>
	<g>
		<g>
			<g>
				<path class="st4" d="M846.1,938.7c0,2.1-1.5,3.8-3.6,3.8h-3v-7.6h3C844.6,934.9,846.1,936.6,846.1,938.7z M845.2,938.7
					c0-1.6-1.1-2.9-2.6-2.9h-2v5.7h2C844.1,941.6,845.2,940.3,845.2,938.7z"/>
			</g>
			<g>
				<path class="st4" d="M849.3,938.7c0-2.2,1.7-4,3.9-4c2.2,0,4,1.8,4,4c0,2.2-1.7,4-4,4C851,942.7,849.3,940.9,849.3,938.7z
					 M856.1,938.7c0-1.7-1.3-3-2.9-3c-1.7,0-2.9,1.3-2.9,3c0,1.7,1.3,3,2.9,3C854.9,941.7,856.1,940.4,856.1,938.7z"/>
			</g>
			<g>
				<path class="st4" d="M859.8,934.9h1.1l1.7,6.3l1.9-6.3h1l1.9,6.3l1.7-6.3h1.1l-2.2,7.6h-1.2l-1.8-6.1l-1.8,6.1H862L859.8,934.9z
					"/>
			</g>
			<g>
				<path class="st4" d="M879.3,934.9v7.6h-0.8l-3.9-5.7v5.7h-1v-7.6h0.8l3.9,5.7v-5.7H879.3z"/>
			</g>
			<g>
				<path class="st4" d="M887.5,941.6v1h-4.3v-7.6h1v6.7H887.5z"/>
			</g>
			<g>
				<path class="st4" d="M889.9,938.7c0-2.2,1.7-4,3.9-4c2.2,0,4,1.8,4,4c0,2.2-1.7,4-4,4C891.6,942.7,889.9,940.9,889.9,938.7z
					 M896.8,938.7c0-1.7-1.3-3-2.9-3c-1.7,0-2.9,1.3-2.9,3c0,1.7,1.3,3,2.9,3C895.5,941.7,896.8,940.4,896.8,938.7z"/>
			</g>
			<g>
				<path class="st4" d="M905.4,940.8H902l-0.6,1.7h-1.1l2.8-7.6h1.1l2.8,7.6H906L905.4,940.8z M905.1,939.9l-1.4-3.8l-1.4,3.8
					H905.1z"/>
			</g>
			<g>
				<path class="st4" d="M916.9,938.7c0,2.1-1.5,3.8-3.6,3.8h-3v-7.6h3C915.4,934.9,916.9,936.6,916.9,938.7z M915.9,938.7
					c0-1.6-1.1-2.9-2.6-2.9h-2v5.7h2C914.9,941.6,915.9,940.3,915.9,938.7z"/>
			</g>
			<g>
				<path class="st4" d="M926.5,935.8v2.5h3.2v1h-3.2v3.2h-1v-7.6h4.4v1H926.5z"/>
			</g>
			<g>
				<path class="st4" d="M936.2,939.6h-1.8v2.9h-1v-7.6h3c1.3,0,2.4,1.1,2.4,2.4c0,1-0.7,1.9-1.6,2.2l1.8,3.1h-1.1L936.2,939.6z
					 M934.4,938.7h2c0.8,0,1.4-0.6,1.4-1.4c0-0.8-0.6-1.4-1.4-1.4h-2V938.7z"/>
			</g>
			<g>
				<path class="st4" d="M941.9,938.7c0-2.2,1.7-4,3.9-4c2.2,0,4,1.8,4,4c0,2.2-1.7,4-4,4C943.6,942.7,941.9,940.9,941.9,938.7z
					 M948.8,938.7c0-1.7-1.3-3-2.9-3c-1.7,0-2.9,1.3-2.9,3c0,1.7,1.3,3,2.9,3C947.5,941.7,948.8,940.4,948.8,938.7z"/>
			</g>
			<g>
				<path class="st4" d="M960.4,942.5h-1v-6l-2.5,4.2h-0.1l-2.5-4.1v5.9h-1v-7.6h1.1l2.4,4l2.4-4h1.1V942.5z"/>
			</g>
		</g>
		<g>
			<g>
				<path class="st4" d="M839.3,952.9c0-0.7,0.5-1.2,1.2-1.2c0.7,0,1.2,0.5,1.2,1.2c0,0.7-0.5,1.2-1.2,1.2
					C839.9,954.1,839.3,953.6,839.3,952.9z M839.6,955.4h1.9v8.9h-1.9V955.4z"/>
			</g>
			<g>
				<path class="st4" d="M843.7,951.4h1.9v12.9h-1.9V951.4z"/>
			</g>
			<g>
				<path class="st4" d="M847.8,951.4h1.9v12.9h-1.9V951.4z"/>
			</g>
			<g>
				<path class="st4" d="M852,951.4h1.9v12.9H852V951.4z"/>
			</g>
			<g>
				<path class="st4" d="M864,955.4v8.9h-1.9v-1.1c-0.6,0.9-1.5,1.4-2.7,1.4c-2,0-3.4-1.3-3.4-3.6v-5.4h1.9v5.2c0,1.3,0.8,2.1,2,2.1
					c1.3,0,2.2-0.7,2.2-2.5v-4.7H864z"/>
			</g>
			<g>
				<path class="st4" d="M872.6,961.8c0,1.8-1.5,2.7-3.5,2.7c-1.8,0-3-0.8-3.6-2.1l1.6-1c0.3,0.8,1,1.3,2,1.3c0.8,0,1.5-0.3,1.5-1
					c0-1.6-4.8-0.7-4.8-3.9c0-1.7,1.4-2.7,3.2-2.7c1.5,0,2.7,0.7,3.3,1.8l-1.6,0.9c-0.3-0.7-0.9-1-1.7-1c-0.7,0-1.3,0.3-1.3,0.9
					C867.9,959.5,872.6,958.5,872.6,961.8z"/>
			</g>
			<g>
				<path class="st4" d="M876.7,957.3v4.2c0,1.1,0.7,1.1,2.2,1v1.7c-2.9,0.4-4.1-0.5-4.1-2.8v-4.2h-1.6v-1.8h1.6v-1.9l1.9-0.6v2.5
					h2.2v1.8H876.7z"/>
			</g>
			<g>
				<path class="st4" d="M885.4,955.3v2.1c-1.3-0.1-2.7,0.5-2.7,2.5v4.5h-1.9v-8.9h1.9v1.5C883.2,955.7,884.2,955.3,885.4,955.3z"/>
			</g>
			<g>
				<path class="st4" d="M895.3,955.4v8.9h-1.9V963c-0.7,0.9-1.7,1.5-3.1,1.5c-2.4,0-4.4-2-4.4-4.7c0-2.6,2-4.7,4.4-4.7
					c1.4,0,2.4,0.6,3.1,1.5v-1.3H895.3z M893.4,959.9c0-1.6-1.2-2.8-2.8-2.8c-1.6,0-2.8,1.2-2.8,2.8c0,1.6,1.2,2.8,2.8,2.8
					C892.2,962.7,893.4,961.5,893.4,959.9z"/>
			</g>
			<g>
				<path class="st4" d="M900.3,957.3v4.2c0,1.1,0.7,1.1,2.2,1v1.7c-2.9,0.4-4.1-0.5-4.1-2.8v-4.2h-1.6v-1.8h1.6v-1.9l1.9-0.6v2.5
					h2.2v1.8H900.3z"/>
			</g>
			<g>
				<path class="st4" d="M903.9,952.9c0-0.7,0.5-1.2,1.2-1.2c0.7,0,1.2,0.5,1.2,1.2c0,0.7-0.5,1.2-1.2,1.2
					C904.5,954.1,903.9,953.6,903.9,952.9z M904.2,955.4h1.9v8.9h-1.9V955.4z"/>
			</g>
			<g>
				<path class="st4" d="M907.8,959.9c0-2.6,2.1-4.7,4.7-4.7c2.6,0,4.7,2,4.7,4.7c0,2.6-2.1,4.7-4.7,4.7
					C909.9,964.5,907.8,962.5,907.8,959.9z M915.3,959.9c0-1.6-1.2-2.8-2.8-2.8c-1.6,0-2.8,1.2-2.8,2.8c0,1.6,1.2,2.8,2.8,2.8
					C914.1,962.7,915.3,961.5,915.3,959.9z"/>
			</g>
			<g>
				<path class="st4" d="M927,958.9v5.4h-1.9v-5.2c0-1.3-0.8-2.1-2-2.1c-1.3,0-2.2,0.7-2.2,2.5v4.7h-1.9v-8.9h1.9v1.1
					c0.6-0.9,1.5-1.4,2.7-1.4C925.5,955.2,927,956.6,927,958.9z"/>
			</g>
			<g>
				<path class="st4" d="M935.5,961.8c0,1.8-1.5,2.7-3.5,2.7c-1.8,0-3-0.8-3.6-2.1l1.6-1c0.3,0.8,1,1.3,2,1.3c0.8,0,1.5-0.3,1.5-1
					c0-1.6-4.8-0.7-4.8-3.9c0-1.7,1.4-2.7,3.2-2.7c1.5,0,2.7,0.7,3.3,1.8l-1.6,0.9c-0.3-0.7-0.9-1-1.7-1c-0.7,0-1.3,0.3-1.3,0.9
					C930.7,959.5,935.5,958.5,935.5,961.8z"/>
			</g>
			<g>
				<path class="st4" d="M936.8,963.2c0-0.7,0.6-1.3,1.3-1.3c0.7,0,1.3,0.6,1.3,1.3c0,0.7-0.6,1.3-1.3,1.3
					C937.4,964.5,936.8,963.9,936.8,963.2z"/>
			</g>
			<g>
				<path class="st4" d="M940.3,959.9c0-2.6,2-4.7,4.7-4.7c1.7,0,3.2,0.9,3.9,2.3l-1.6,1c-0.4-0.8-1.3-1.4-2.3-1.4
					c-1.6,0-2.7,1.2-2.7,2.8c0,1.6,1.2,2.8,2.7,2.8c1.1,0,1.9-0.5,2.4-1.4l1.6,0.9c-0.7,1.4-2.2,2.3-4,2.3
					C942.3,964.5,940.3,962.5,940.3,959.9z"/>
			</g>
			<g>
				<path class="st4" d="M949.7,959.9c0-2.6,2.1-4.7,4.7-4.7c2.6,0,4.7,2,4.7,4.7c0,2.6-2.1,4.7-4.7,4.7
					C951.8,964.5,949.7,962.5,949.7,959.9z M957.2,959.9c0-1.6-1.2-2.8-2.8-2.8s-2.8,1.2-2.8,2.8c0,1.6,1.2,2.8,2.8,2.8
					S957.2,961.5,957.2,959.9z"/>
			</g>
		</g>
	</g>
</g>
<g id="XMLID_96_">
	<path id="XMLID_98_" class="st2" d="M501.5,419.6c-3.1,4.2-9.1,5-13.3,1.8c-4.3-3.3-8.5-6.6-12.8-9.8c-23-17.9-55.1-10.3-72.2,14
		l0,0c-17.1,24.3-13.1,53.5,9.6,70.4c25.5,18.9,51.3,39.9,77.1,60.5c14.5,11.7,35.2,8.9,46-6.3c19.3-26.8,38.6-53.9,58.1-79
		c17.3-22.4,13.3-51.6-9.6-70.4l0,0c-23-18.9-56-17.5-73.3,5.9C507.9,411,504.7,415.3,501.5,419.6z"/>
	<path id="XMLID_124_" class="st4" d="M584.4,400.8L584.4,400.8c-20-16.4-47.6-17.6-65.9-2.1c4.6,9.6,7.9,20.3,9.4,31.6
		c6.9,50.5-22.3,96.4-65.6,104.1c9.2,7.3,18.4,14.7,27.6,22c14.5,11.7,35.2,8.9,46-6.3c19.3-26.8,38.6-53.9,58.1-79
		C611.4,448.9,607.4,419.6,584.4,400.8z"/>
	<circle id="XMLID_101_" class="st10" cx="586.1" cy="415.8" r="4.7"/>
	<circle id="XMLID_102_" class="st6" cx="582.3" cy="457.8" r="4.7"/>
	<g id="XMLID_74_">
		<g id="XMLID_62_">
			<line id="XMLID_61_" class="st11" x1="473.1" y1="436" x2="488.3" y2="488.8"/>
			<polyline id="XMLID_60_" class="st11" points="488.2,437.6 478.3,455.5 460.4,445.6 			"/>
		</g>
		<g id="XMLID_65_">
			<line id="XMLID_67_" class="st11" x1="503.2" y1="540.9" x2="488.3" y2="488.8"/>
			<polyline id="XMLID_66_" class="st11" points="515.1,531.5 497.2,521.5 487.3,539.4 			"/>
		</g>
		<g id="XMLID_73_">
			<g id="XMLID_70_">
				<line id="XMLID_72_" class="st11" x1="473.1" y1="436" x2="488.3" y2="488.8"/>
				<polyline id="XMLID_71_" class="st11" points="488.2,437.6 478.3,455.5 460.4,445.6 				"/>
			</g>
			<g id="XMLID_64_">
				<line id="XMLID_69_" class="st11" x1="503.2" y1="540.9" x2="488.3" y2="488.8"/>
				<polyline id="XMLID_68_" class="st11" points="515.1,531.5 497.2,521.5 487.3,539.4 				"/>
			</g>
		</g>
		<g id="XMLID_75_">
			<g id="XMLID_79_">
				<line id="XMLID_81_" class="st11" x1="461.3" y1="536.2" x2="487.7" y2="488.5"/>
				<polyline id="XMLID_80_" class="st11" points="451.4,524.2 471.1,518.6 476.7,538.2 				"/>
			</g>
			<g id="XMLID_76_">
				<line id="XMLID_78_" class="st11" x1="514.2" y1="440.8" x2="487.7" y2="488.5"/>
				<polyline id="XMLID_77_" class="st11" points="498.8,438.8 504.4,458.5 524,452.9 				"/>
			</g>
		</g>
		<g id="XMLID_82_">
			<g id="XMLID_86_">
				<line id="XMLID_88_" class="st11" x1="540" y1="474.5" x2="487.1" y2="489.7"/>
				<polyline id="XMLID_87_" class="st11" points="538.6,489 520.8,479.1 530.7,461.2 				"/>
			</g>
			<g id="XMLID_83_">
				<line id="XMLID_85_" class="st11" x1="435.1" y1="504.6" x2="487.1" y2="489.7"/>
				<polyline id="XMLID_84_" class="st11" points="444.8,515.9 454.7,498 436.8,488.1 				"/>
			</g>
		</g>
		<g id="XMLID_89_">
			<g id="XMLID_93_">
				<line id="XMLID_95_" class="st11" x1="440.7" y1="461.9" x2="488.4" y2="488.3"/>
				<polyline id="XMLID_94_" class="st11" points="452.1,452.2 457.7,471.9 438,477.5 				"/>
			</g>
			<g id="XMLID_90_">
				<line id="XMLID_92_" class="st11" x1="536.1" y1="514.8" x2="488.4" y2="488.3"/>
				<polyline id="XMLID_91_" class="st11" points="537.4,499.6 517.8,505.2 523.4,524.8 				"/>
			</g>
		</g>
	</g>
	<path id="XMLID_63_" class="st5" d="M501.5,419.6c-3.1,4.2-9.1,5-13.3,1.8c-4.3-3.3-8.5-6.6-12.8-9.8c-23-17.9-55.1-10.3-72.2,14
		l0,0c-17.1,24.3-13.1,53.5,9.6,70.4c25.5,18.9,51.3,39.9,77.1,60.5c14.5,11.7,35.2,8.9,46-6.3c19.3-26.8,38.6-53.9,58.1-79
		c17.3-22.4,13.3-51.6-9.6-70.4l0,0c-23-18.9-56-17.5-73.3,5.9C507.9,411,504.7,415.3,501.5,419.6z"/>
	<circle id="XMLID_99_" class="st6" cx="549.8" cy="400.9" r="5.7"/>
</g>
<polygon id="XMLID_136_" class="st4" points="501.5,419.6 488.2,421.4 476.7,378.2 498.8,369.3 "/>
<polygon id="XMLID_119_" class="st3" points="501.5,419.6 488.2,421.4 476.7,378.2 498.8,369.3 "/>
<polygon id="XMLID_138_" class="st12" points="503.2,373.1 467.6,385.4 446.3,281.9 503.2,286.7 "/>
<polygon id="XMLID_176_" class="st13" points="464.6,283.4 446.3,281.9 467.6,385.4 484.4,379.6 "/>
<polygon id="XMLID_137_" class="st3" points="503.2,373.1 467.6,385.4 446.3,281.9 503.2,286.7 "/>
<polygon id="XMLID_178_" class="st12" points="317.7,346.3 290.5,365.2 252.7,252.1 300.9,249.4 "/>
<polygon id="XMLID_174_" class="st13" points="268.2,251.3 252.7,252.1 290.5,365.2 303.3,356.3 "/>
<polygon id="XMLID_144_" class="st3" points="317.7,346.3 290.5,365.2 252.7,252.1 300.9,249.4 "/>
<path id="XMLID_191_" class="st2" d="M791.7,367.7c0,0-14.8-93.2-30.9-105c-16-11.8-30.7-5.2-34.1-0.7c-3.4,4.6-12.5,16.5-12.5,16.5
	s13.2-7.1,20.8-1.5c7.6,5.6,32.6,99.1,32.6,99.1L791.7,367.7z"/>
<path id="XMLID_189_" class="st3" d="M791.7,367.7c0,0-14.8-93.2-30.9-105c-16-11.8-30.7-5.2-34.1-0.7c-3.4,4.6-12.5,16.5-12.5,16.5
	s13.2-7.1,20.8-1.5c7.6,5.6,32.6,99.1,32.6,99.1L791.7,367.7z"/>
<polygon id="XMLID_188_" class="st12" points="768.9,322 736.2,327.3 750.9,209 795.6,227.4 "/>
<polygon id="XMLID_187_" class="st13" points="765.3,214.9 750.9,209 736.2,327.3 751.6,324.8 "/>
<polygon id="XMLID_186_" class="st3" points="768.9,322 736.2,327.3 750.9,209 795.6,227.4 "/>
<g id="XMLID_13_">
	<path id="XMLID_108_" class="st2" d="M701.1,451l19.5,63.5c8.8,28.6,0.9,59.7-20.4,80.8l-24.8,24.5c-16.1,15.9-21.6,39.7-14,61
		l0.5,1.3c12.6,35.6,54.1,51.3,87,33l96.7-53.8c33.1-18.4,47.2-58.6,32.9-93.7c0,0-32.5-74.9-42.7-100.2
		c-6.8-16.6-30.4-65.1-30.4-65.1L701.1,451z"/>
	<path id="XMLID_142_" class="st4" d="M878.5,567.6c0,0-32.5-74.9-42.7-100.2c-6.8-16.6-30.4-65.1-30.4-65.1l-41,19.1
		c5.5,11.8,11,23.6,13.7,30.3c10.3,25.2,42.7,100.2,42.7,100.2c14.3,35.1,0.2,75.3-32.9,93.7l-96.7,53.8c-4.7,2.6-9.7,4.6-14.7,5.8
		c18.6,18.3,47.8,23.5,72.2,9.8l96.7-53.8C878.7,642.9,892.8,602.7,878.5,567.6z"/>
	<path id="XMLID_159_" class="st4" d="M751.8,467.3c0.7,6,1.9-0.4,3.4-3c1.5,0.4,3.2-3.4,5-2.3c1.8,1.9,3.6,6.8,5.3-0.3
		c1.7,2.3,3.2,7,4.3-2.8c0.8-2.6,1.8-3.6,3.1-4.5c1.3-0.8,2.7-1.5,4.4-3.2c3.2,2.2,6.9-5.7,10.5-0.6c3.9,4.3,7-0.4,9.7-1.5
		c2.7-1.5,4.8-3.8,6.8-6.2c6.5,0.6,10.4-3,13.6-6.3c1.1-0.8,2.4-0.9,3.7-0.8c-8-17-16-33.4-16-33.4L701.1,451l11.1,36
		c0.2-0.3,0.3-0.7,0.4-1.4c-0.4-3.7,1.4-3.3,3.5-2.8c2.2,1.1,4.7-3.9,5.7-1.5c1.3,2,2.3-1.3,3.1-1.7c0.8-2,1.5-4.7,2.3-3.2
		c0.8-1.2,1.7,4.3,3-0.7c1.3,0.6,2.9-7.1,5.1-0.7c2,2.8,3.5,4.4,4.8-0.9c1.3-4.6,2.3-5.7,3.4-2.3c1.1-7.9,2.1-3.1,3.4-6.1
		C748.2,459.5,749.7,455.2,751.8,467.3z"/>
	<path id="XMLID_22_" class="st5" d="M701.1,451l19.5,63.5c8.8,28.6,0.9,59.7-20.4,80.8l-24.8,24.5c-16.1,15.9-21.6,39.7-14,61
		l0.5,1.3c12.6,35.6,54.1,51.3,87,33l96.7-53.8c33.1-18.4,47.2-58.6,32.9-93.7c0,0-32.5-74.9-42.7-100.2
		c-6.8-16.6-30.4-65.1-30.4-65.1L701.1,451z"/>
	<path id="XMLID_109_" class="st6" d="M823.5,412.3c0.1,0.2-3.4-4.1-3.4,1.6c0.4,6.6-5.7,1.7-9.2,4.3c-3.2,3.3-7.1,6.9-13.6,6.3
		c-4,4.8-8.7,9.2-16.5,7.7c-7.1-0.1-14.9-1-17.9,8.4c-4.6,6-15-0.5-17.9,8.4c-8.1-2.2-8.5,11.5-16.5,7.7c-8.9-5.8-8.3,7.5-13.6,6.3
		c-2,5.8-10-3.1-9.2,4.3c-0.4,4.9-5.3-2.6-3.4,1.6c-3.1,0.4-3,7.5-8.4,1.7c-2.4,0.7-4.4,1.1-7.6-2.3c-0.7,0.3-1.3,0.3-2-0.4
		c-0.8-0.8-1.7-2.4-3.2-5.4c-1.8-3.9-2.5-5.5-2.8-6c-3.5-7.4-2.4-5.2-3.1-6.7c0.3,0.6-0.2-0.4-3-6.5c1.7,3.6-1.3-2.7-1-2.1
		c-1.3-2.8-3.3-7-5.2-11.1c-0.1-0.2-1.3-2.8-2.8-6c-0.1-0.3-2.9-6.7-2.1-5.8c1.4,2.2-0.8-3.9,0.9-1.9c1.9,2.3,1.8,0,1.6-2.7
		c0.1-2,0.6-3.8,1.5-4.6c-0.5-6.8,4.5-2.9,6.7-5.3c0,0,0.7-1.7,3.4-1.6c1.1-3.3,5.5-2.2,9.2-4.3c4.2-1,7.7-5.5,13.6-6.3
		c3.6-5.6,10.6-5.2,16.5-7.7c5.2-4.1,11.4-6.6,17.9-8.4c5.8-3.5,12.3-5.2,17.9-8.4c6.5-1.2,12.4-3.1,16.5-7.7
		c3.4-6.1,8.1-7.9,13.6-6.3c5.6,1.8,6.3-4.8,9.2-4.3c3.3,1.3,2.8-2.9,3.4-1.6c3.9,1.1,8.8,5,8.4-1.7c2.6-0.1,6.6,3.6,7.6,2.3
		c2.8,2.6,3.1,1.3,5.2,5.8c-0.2-0.5-1.9-4,2.8,6c2.3,4.9,1.5,3.2,6.2,13.2c-1.2-2.5,5.6,12.1,6.2,13.2c4.4,9.4,2.9,6.1,2.8,6
		c0.2,0.5,2.2,6.7,1.1,7.7c1.2,6-1.4,5.2-3.1,7.3C828.6,409.3,826.4,411.2,823.5,412.3z"/>
	<g id="XMLID_121_">
		<path id="XMLID_132_" class="st7" d="M832.4,392.5C832.4,392.5,832.4,392.5,832.4,392.5C832.5,392.5,832.4,392.5,832.4,392.5z"/>
		<path id="XMLID_134_" class="st7" d="M832.5,392.5C832.5,392.5,832.5,392.6,832.5,392.5C832.5,392.6,832.5,392.5,832.5,392.5z"/>
		<path id="XMLID_135_" class="st7" d="M832.5,392.6C832.5,392.6,832.5,392.6,832.5,392.6L832.5,392.6z"/>
		<path id="XMLID_146_" class="st7" d="M832.4,392.3c0,0.1,0,0.1,0.1,0.1C832.4,392.4,832.4,392.4,832.4,392.3z"/>
		<path id="XMLID_149_" class="st7" d="M813.9,352.7C813.7,352.4,813.8,352.5,813.9,352.7L813.9,352.7z"/>
		<path id="XMLID_151_" class="st7" d="M823.2,372.7c0-0.1-0.1-0.2-0.1-0.2c0,0,0,0,0,0C823.2,372.6,823.2,372.7,823.2,372.7z"/>
		<path id="XMLID_152_" class="st7" d="M832.5,392.6C832.5,392.6,832.5,392.6,832.5,392.6L832.5,392.6z"/>
		<path id="XMLID_153_" class="st7" d="M774.6,365.8c0,0.1,0.1,0.1,0.1,0.2C774.7,365.9,774.6,365.8,774.6,365.8
			C774.6,365.8,774.6,365.8,774.6,365.8C774.6,365.8,774.6,365.8,774.6,365.8z"/>
		<path id="XMLID_154_" class="st7" d="M832.2,391.9c0,0,0.1,0.2,0.2,0.4c-0.3-0.6-1.1-2.3-3-6.4c-0.5-1-5.7-12.1-6.2-13.4
			c0,0,0,0,0,0c0,0,0,0,0,0c0,0,0,0,0,0c-4.6-9.8-3.8-8.1-6-13c-1.6-3.3-2.4-5.2-2.9-6.1c0,0,0,0.1,0.1,0.1
			c-2.1-4.6-2.4-3.2-5.2-5.8c-1,1.2-5-2.4-7.6-2.3c0.4,6.7-4.5,2.8-8.4,1.7c-0.6-1.3-0.1,2.9-3.4,1.6c-2.9-0.5-3.7,6.1-9.2,4.3
			c-4.1-1.2-7.7-0.5-10.7,2.5c1,2.1,1.4,2.9,4.8,10.3c0,0,0,0,0,0c0,0,0,0,0,0c0.6,1.2,5.8,12.4,6.2,13.4c1.9,4.1,2.7,5.8,3,6.4
			c0,0.1,0,0.1,0.1,0.1c0,0,0,0,0,0.1c0,0,0,0,0,0.1c0,0,0,0,0,0c0,0,0,0,0,0c0,0,0,0,0,0c0,0,0,0,0-0.1c0,0,0,0,0-0.1
			c0,0,0-0.1-0.1-0.1c-0.1-0.2-0.2-0.4-0.2-0.4c0.2,0.5,2.2,6.7,1.1,7.7c1.2,6-1.4,5.2-3.1,7.3c-1.6,2.3-3.8,4.3-6.7,5.3
			c0.1,0.2-3.4-4.1-3.4,1.6c0.4,6.6-5.7,1.7-9.2,4.3c-3.2,3.3-7.1,6.9-13.6,6.3c-4,4.8-8.7,9.2-16.5,7.7c-7.1-0.1-14.9-1-17.9,8.4
			c-4.6,6-15-0.5-17.9,8.4c-8.1-2.2-8.5,11.5-16.5,7.7c-2.3-1.5-3.9-1.7-5.2-1.3c0.3,0.6,0.5,1,0.5,1.1c0,0,0,0,0-0.1
			c0,0,0,0.1,0,0.1c0,0,0,0,0,0c0.6,1.3-0.3-0.6,3.1,6.6c0.3,0.5,1,2.1,2.8,6c1.4,3,2.4,4.6,3.2,5.4c0.8,0.8,1.4,0.7,2,0.4
			c3.2,3.4,5.2,3,7.6,2.3c5.4,5.8,5.2-1.3,8.4-1.7c-1.9-4.2,3,3.3,3.4-1.6c-0.8-7.4,7.2,1.5,9.2-4.3c5.3,1.1,4.7-12.1,13.6-6.3
			c8,3.8,8.4-9.9,16.5-7.7c2.9-8.9,13.3-2.4,17.9-8.4c3-9.4,10.8-8.4,17.9-8.4c7.8,1.5,12.5-2.9,16.5-7.7c6.5,0.6,10.4-3,13.6-6.3
			c3.5-2.6,9.6,2.3,9.2-4.3c0-5.7,3.5-1.4,3.4-1.6c2.8-1.1,5.1-3,6.7-5.3c1.7-2.1,4.3-1.3,3.1-7.3
			C834.4,398.7,832.4,392.4,832.2,391.9z"/>
		<path id="XMLID_155_" class="st7" d="M814.2,353.4C814.2,353.4,814.2,353.4,814.2,353.4C814.2,353.4,814.2,353.4,814.2,353.4z"/>
		<path id="XMLID_156_" class="st7" d="M814.2,353.4c-0.1-0.2-0.2-0.4-0.3-0.5C814,353,814.1,353.2,814.2,353.4z"/>
		<path id="XMLID_157_" class="st7" d="M814,352.8c0,0,0-0.1,0-0.1C813.9,352.8,813.9,352.8,814,352.8z"/>
	</g>
	<path id="XMLID_21_" class="st3" d="M823.5,412.3c0.1,0.2-3.4-4.1-3.4,1.6c0.4,6.6-5.7,1.7-9.2,4.3c-3.2,3.3-7.1,6.9-13.6,6.3
		c-2,2.4-4.2,4.7-6.8,6.2c-2.7,1.1-5.8,5.7-9.7,1.5c-3.6-5-7.3,2.9-10.5,0.6c-1.6,1.8-3.1,2.4-4.4,3.2c-1.3,0.8-2.3,1.9-3.1,4.5
		c-1.1,9.8-2.7,5-4.3,2.8c-1.7,7.1-3.5,2.2-5.3,0.3c-1.8-1.1-3.5,2.7-5,2.3c-1.5,2.6-2.7,9-3.4,3c-2-12.1-3.6-7.8-4.9-1.7
		c-1.3,3-2.4-1.8-3.4,6.1c-1.1-3.4-2.1-2.3-3.4,2.3c-1.3,5.4-2.8,3.7-4.8,0.9c-2.2-6.3-3.9,1.3-5.1,0.7c-1.3,4.9-2.2-0.5-3,0.7
		c-0.8-1.5-1.5,1.3-2.3,3.2c-0.8,0.4-1.8,3.7-3.1,1.7c-1-2.3-3.5,2.6-5.7,1.5c-2.2-0.6-3.9-1-3.5,2.8c-0.4,4.9-5.3-2.6-3.4,1.6
		c-3.1,0.4-3,7.5-8.4,1.7c-2.4,0.7-4.4,1.1-7.6-2.3c-0.7,0.3-1.3,0.3-2-0.4c-0.8-0.8-1.7-2.4-3.2-5.4c-1.8-3.9-2.5-5.5-2.8-6
		c-3.5-7.4-2.4-5.2-3.1-6.7c0.3,0.6-0.2-0.4-3-6.5c1.7,3.6-1.3-2.7-1-2.1c-1.3-2.8-3.3-7-5.2-11.1c-0.1-0.2-1.3-2.8-2.8-6
		c-0.1-0.3-2.9-6.7-2.1-5.8c1.4,2.2-0.8-3.9,0.9-1.9c1.9,2.3,1.8,0,1.6-2.7c0.1-2,0.6-3.8,1.5-4.6c-0.5-6.8,4.5-2.9,6.7-5.3
		c0,0,0.7-1.7,3.4-1.6c1.1-3.3,5.5-2.2,9.2-4.3c4.2-1,7.7-5.5,13.6-6.3c3.6-5.6,10.6-5.2,16.5-7.7c5.2-4.1,11.4-6.6,17.9-8.4
		c5.8-3.5,12.3-5.2,17.9-8.4c6.5-1.2,12.4-3.1,16.5-7.7c3.4-6.1,8.1-7.9,13.6-6.3c5.6,1.8,6.3-4.8,9.2-4.3c3.3,1.3,2.8-2.9,3.4-1.6
		c3.9,1.1,8.8,5,8.4-1.7c2.6-0.1,6.6,3.6,7.6,2.3c2.8,2.6,3.1,1.3,5.2,5.8c-0.2-0.5-1.9-4,2.8,6c2.3,4.9,1.5,3.2,6.2,13.2
		c-1.2-2.5,5.6,12.1,6.2,13.2c4.4,9.4,2.9,6.1,2.8,6c0.2,0.5,2.2,6.7,1.1,7.7c1.2,6-1.4,5.2-3.1,7.3
		C828.6,409.3,826.4,411.2,823.5,412.3z"/>
	<g id="XMLID_37_">
		<g id="XMLID_26_">
			<line id="XMLID_14_" class="st11" x1="798.1" y1="602.8" x2="739.1" y2="643.2"/>
			<line id="XMLID_12_" class="st11" x1="788.7" y1="653.1" x2="748.2" y2="594.1"/>
		</g>
		<g id="XMLID_36_">
			<g id="XMLID_19_">
				<g id="XMLID_16_">
					<circle id="XMLID_15_" class="st6" cx="774.9" cy="592.3" r="3.9"/>
					<circle id="XMLID_18_" class="st6" cx="777" cy="581" r="3.2"/>
					<circle id="XMLID_17_" class="st6" cx="772" cy="607.4" r="5.7"/>
				</g>
				<g id="XMLID_20_">
					<circle id="XMLID_25_" class="st6" cx="763.2" cy="654.4" r="3.9"/>
					<circle id="XMLID_24_" class="st6" cx="761.1" cy="665.7" r="3.2"/>
					<circle id="XMLID_23_" class="st6" cx="766" cy="639.4" r="5.7"/>
				</g>
			</g>
			<g id="XMLID_27_">
				<g id="XMLID_32_">
					<circle id="XMLID_35_" class="st6" cx="737.9" cy="617.4" r="3.9"/>
					<circle id="XMLID_34_" class="st6" cx="726.6" cy="615.3" r="3.2"/>
					<circle id="XMLID_33_" class="st6" cx="753" cy="620.3" r="5.7"/>
				</g>
				<g id="XMLID_28_">
					<circle id="XMLID_31_" class="st6" cx="800.1" cy="629.1" r="3.9"/>
					<circle id="XMLID_30_" class="st6" cx="811.3" cy="631.2" r="3.2"/>
					<circle id="XMLID_29_" class="st6" cx="785" cy="626.2" r="5.7"/>
				</g>
			</g>
		</g>
	</g>
	<g id="XMLID_57_">
		<line id="XMLID_59_" class="st14" x1="785.1" y1="504.4" x2="814.4" y2="550.9"/>
		<line id="XMLID_58_" class="st14" x1="823" y1="513" x2="776.5" y2="542.3"/>
	</g>
	<g id="XMLID_38_">
		<g id="XMLID_48_">
			<g id="XMLID_53_">
				<circle id="XMLID_56_" class="st6" cx="776.1" cy="522.1" r="3"/>
				<circle id="XMLID_55_" class="st6" cx="767.5" cy="520.1" r="2.4"/>
				<circle id="XMLID_54_" class="st6" cx="787.6" cy="524.7" r="4.4"/>
			</g>
			<g id="XMLID_49_">
				<circle id="XMLID_52_" class="st6" cx="823.5" cy="532.9" r="3"/>
				<circle id="XMLID_51_" class="st6" cx="832.1" cy="534.9" r="2.4"/>
				<circle id="XMLID_50_" class="st6" cx="812" cy="530.3" r="4.4"/>
			</g>
		</g>
		<g id="XMLID_39_">
			<g id="XMLID_44_">
				<circle id="XMLID_47_" class="st6" cx="794.3" cy="551.3" r="3"/>
				<circle id="XMLID_46_" class="st6" cx="792.3" cy="559.8" r="2.4"/>
				<circle id="XMLID_45_" class="st6" cx="796.9" cy="539.7" r="4.4"/>
			</g>
			<g id="XMLID_40_">
				<circle id="XMLID_43_" class="st6" cx="805.1" cy="503.9" r="3"/>
				<circle id="XMLID_42_" class="st6" cx="807.1" cy="495.3" r="2.4"/>
				<circle id="XMLID_41_" class="st6" cx="802.5" cy="515.4" r="4.4"/>
			</g>
		</g>
	</g>
	<path id="XMLID_113_" class="st9" d="M698,416.9c0,0,11.4,13.6,11.4-2.6c0,0-0.7-9.6,7.4-2.6c7.5,6.4,6.8,0.4,7.9-6.9"/>
	<path id="XMLID_161_" class="st9" d="M778.5,401.1c0,0,9.4,9.5,12.2-2.2c0,0-1.1-6.7,4.3-3.9c3.1,1.6,8.3,4.9,7.2-5.3"/>
	<path id="XMLID_162_" class="st6" d="M845.3,444.6c0,3.6-0.2,6.9-0.5,6.8c-0.2,0.7-0.4,4.9-0.7,5.1c-0.3-0.6-0.6,1.7-0.9-1.5
		c-0.7,1.5-1.5,2.8-2.5,3.5c-1,3.5-2,1.5-3.3,5c-1.2,7.1-2.5,0.8-3.9,3.3c-1.4,2.1-2.9,3.9-4.5,2.5c-0.8-1.3-1.6,0.7-2.4,2.2
		s-1.7,2.6-2.6-0.7c-0.9,3-1.8,5.4-2.6,3c-0.9,4-1.8-0.6-2.7-2.5c-1.8,3.1-3.6,1.5-5.4,1.4c-1.7-2.1-3.4-4.3-5-3.5
		c-0.8,2-1.6-3.9-2.3-3.6c-0.8-1-1.5-3.7-2.2,1.1c-1.4,0.5-2.7-8.2-3.9-3.3c-0.6,1.7-1.2,0.3-1.7-0.4c-0.5-3.2-1.1-5.2-1.5-3.6
		c-1,0.2-1.8-6.6-2.5-4.5c-0.7,1.1-1.2,0.5-1.6-5c-0.4-2.9-0.5-5.8-0.5-5.4c0-3.7,0-5.7,0.1-6.3c0.1,1.5,0.2-0.7,0.4-1.2
		c0.4-3.8,0.9,2.9,1.6-2.9c0.3-3.8,0.7-3.8,1.1-5.2c0.4-0.6,0.9,0.4,1.3-2.6c1-2.4,2,2.8,3.3-0.7c1.2,1.4,2.5-2.2,3.9-1.2
		c1.4-1.6,2.9-3.8,4.5-4.5c3.2,3.8,6.7,5.8,10.4-2.1c3.7,11.2,7.2,8.1,10.4,2.1c1.6-0.6,3.1,2.6,4.5,5.1c1.4,2.5,2.7,3.6,3.9,0.6
		c1.2,0,2.3,1.2,3.3,2.8c1,2.9,1.8,0,2.5,5.7c0.7-1.7,1.2,0.2,1.6,5c0.2-2.9,0.3-1.5,0.4,0.5C845.2,441.9,845.3,442.2,845.3,444.6z"
		/>
	<g id="XMLID_166_">
		<path id="XMLID_168_" class="st7" d="M799.8,462.5c-0.4,0.6-0.8,1.1-1.1,1.4c0.4,0.5,0.8,0.7,1.2-0.4c0.1-0.2,0.1-0.4,0.2-0.6
			C799.9,462.8,799.8,462.7,799.8,462.5z"/>
		<path id="XMLID_169_" class="st7" d="M824.3,425.4C824.3,425.4,824.3,425.4,824.3,425.4C824.3,425.4,824.3,425.4,824.3,425.4
			C824.3,425.4,824.3,425.4,824.3,425.4z"/>
		<path id="XMLID_170_" class="st7" d="M802.5,465c0,0.1,0,0.2-0.1,0.2c0.4,0.9,0.9,1.7,1.3,1.5c0.1-0.8,0.2-1.3,0.3-1.8
			C803.5,466.1,803,466.4,802.5,465z"/>
		<path id="XMLID_171_" class="st7" d="M845.1,439.8c-0.1-2.1-0.2-3.5-0.4-0.5c-0.4-4.8-0.9-6.8-1.6-5c-0.7-5.7-1.5-2.8-2.5-5.7
			c-1-1.6-2-2.8-3.3-2.8c-1.2,3-2.5,1.9-3.9-0.6c-1.4-2.5-2.9-5.8-4.5-5.1c-1.3,2.4-2.6,4.3-3.9,5.1c0.3,0.7,0.6,2.5,0.8,5.3
			c0.2-2.9,0.3-1.5,0.4,0.5c0.1,2.1,0.1,2.4,0.1,4.8c0,3.6-0.2,6.9-0.5,6.8c-0.2,0.7-0.4,4.9-0.7,5.1c-0.3-0.6-0.6,1.7-0.9-1.5
			c-0.7,1.5-1.5,2.8-2.5,3.5c-1,3.5-2,1.5-3.3,5c-1.2,7.1-2.5,0.8-3.9,3.3c-1.4,2.1-2.9,3.9-4.5,2.5c-0.8-1.3-1.6,0.7-2.4,2.2
			c-0.8,1.5-1.7,2.6-2.6-0.7c-0.2,0.8-0.5,1.5-0.7,2.1c0.5-0.5,1,0.9,1.5,1.5c0.8-0.3,1.5,5.6,2.3,3.6c1.6-0.8,3.3,1.4,5,3.5
			c1.7,0.1,3.5,1.7,5.4-1.4c0.9,1.9,1.8,6.5,2.7,2.5c0.9,2.3,1.8-0.1,2.6-3c0.9,3.3,1.7,2.2,2.6,0.7s1.7-3.6,2.4-2.2
			c1.6,1.4,3.1-0.4,4.5-2.5c1.4-2.5,2.7,3.8,3.9-3.3c1.2-3.5,2.3-1.6,3.3-5c1-0.6,1.8-1.9,2.5-3.5c0.3,3.2,0.6,0.9,0.9,1.5
			c0.3-0.2,0.5-4.5,0.7-5.1c0.4,0.1,0.5-3.2,0.5-6.8C845.3,442.2,845.2,441.9,845.1,439.8z"/>
	</g>
	<path id="XMLID_158_" class="st15" d="M845.3,444.6c0,3.6-0.2,6.9-0.5,6.8c-0.2,0.7-0.4,4.9-0.7,5.1c-0.3-0.6-0.6,1.7-0.9-1.5
		c-0.7,1.5-1.5,2.8-2.5,3.5c-1,3.5-2,1.5-3.3,5c-1.2,7.1-2.5,0.8-3.9,3.3c-1.4,2.1-2.9,3.9-4.5,2.5c-0.8-1.3-1.6,0.7-2.4,2.2
		s-1.7,2.6-2.6-0.7c-0.9,3-1.8,5.4-2.6,3c-0.9,4-1.8-0.6-2.7-2.5c-1.8,3.1-3.6,1.5-5.4,1.4c-1.7-2.1-3.4-4.3-5-3.5
		c-0.8,2-1.6-3.9-2.3-3.6c-0.8-1-1.5-3.7-2.2,1.1c-1.4,0.5-2.7-8.2-3.9-3.3c-0.6,1.7-1.2,0.3-1.7-0.4c-0.5-3.2-1.1-5.2-1.5-3.6
		c-1,0.2-1.8-6.6-2.5-4.5c-0.7,1.1-1.2,0.5-1.6-5c-0.4-2.9-0.5-5.8-0.5-5.4c0-3.7,0-5.7,0.1-6.3c0.1,1.5,0.2-0.7,0.4-1.2
		c0.4-3.8,0.9,2.9,1.6-2.9c0.3-3.8,0.7-3.8,1.1-5.2c0.4-0.6,0.9,0.4,1.3-2.6c1-2.4,2,2.8,3.3-0.7c1.2,1.4,2.5-2.2,3.9-1.2
		c1.4-1.6,2.9-3.8,4.5-4.5c3.2,3.8,6.7,5.8,10.4-2.1c3.7,11.2,7.2,8.1,10.4,2.1c1.6-0.6,3.1,2.6,4.5,5.1c1.4,2.5,2.7,3.6,3.9,0.6
		c1.2,0,2.3,1.2,3.3,2.8c1,2.9,1.8,0,2.5,5.7c0.7-1.7,1.2,0.2,1.6,5c0.2-2.9,0.3-1.5,0.4,0.5C845.2,441.9,845.3,442.2,845.3,444.6z"
		/>
</g>
</svg>
