<?xml version="1.0" encoding="utf-8"?>
<!-- Generator: Adobe Illustrator 23.1.1, SVG Export Plug-In . SVG Version: 6.00 Build 0)  -->
<svg version="1.1" id="Layer_1" xmlns="http://www.w3.org/2000/svg" xmlns:xlink="http://www.w3.org/1999/xlink" x="0px" y="0px"
	 viewBox="0 0 1000 1000" style="enable-background:new 0 0 1000 1000;" xml:space="preserve">
<style type="text/css">
	.st0{fill:#F4F5F8;}
	.st1{fill:none;stroke:#E5E5E5;stroke-width:6;stroke-linecap:round;stroke-linejoin:round;stroke-miterlimit:10;}
	.st2{fill:#E5E5E5;}
	.st3{fill:none;stroke:#E5E5E5;stroke-width:4;stroke-linecap:round;stroke-linejoin:round;stroke-miterlimit:10;}
	.st4{fill:none;stroke:#E5E5E5;stroke-width:8;stroke-linecap:round;stroke-linejoin:round;stroke-miterlimit:10;}
	.st5{fill:none;stroke:#A83727;stroke-width:6;stroke-linecap:round;stroke-linejoin:round;stroke-miterlimit:10;}
	.st6{fill:#6DCCA3;}
	.st7{fill:none;stroke:#465172;stroke-width:6;stroke-linecap:round;stroke-linejoin:round;stroke-miterlimit:10;}
	.st8{fill:#2359B2;}
	.st9{opacity:0.67;fill:none;stroke:#1E2A54;stroke-width:6;stroke-linecap:round;stroke-linejoin:round;stroke-miterlimit:10;}
	.st10{fill:#D6D6D6;}
	.st11{fill:#F78A21;}
	.st12{opacity:0.26;fill:#9B463D;}
	.st13{fill:#A83727;}
	.st14{opacity:0.24;}
	.st15{fill:none;stroke:#A83727;stroke-width:2;stroke-linecap:round;stroke-linejoin:round;stroke-miterlimit:10;}
</style>
<rect id="XMLID_24_" class="st0" width="1000" height="1000"/>
<g id="XMLID_278_">
	<polyline id="XMLID_285_" class="st1" points="243.9,634.7 243.9,665.6 182,665.6 	"/>
	<polyline id="XMLID_284_" class="st1" points="305.7,665.6 243.9,665.6 243.9,634.7 	"/>
	<rect id="XMLID_283_" x="212.9" y="665.6" class="st1" width="61.9" height="30.9"/>
	<polyline id="XMLID_282_" class="st1" points="261.4,727.5 243.9,727.5 243.9,696.5 305.7,696.5 	"/>
	<polyline id="XMLID_281_" class="st1" points="182,696.5 243.9,696.5 243.9,727.5 193.7,727.5 	"/>
	<polyline id="XMLID_280_" class="st1" points="160.9,665.6 212.9,665.6 212.9,696.5 182,696.5 	"/>
	<polyline id="XMLID_279_" class="st1" points="319.4,696.5 274.8,696.5 274.8,665.6 296.2,665.6 	"/>
</g>
<g id="XMLID_2_">
	<polyline id="XMLID_49_" class="st1" points="817.6,441.4 817.6,472.3 879.5,472.3 	"/>
	<polyline id="XMLID_38_" class="st1" points="755.8,472.3 817.6,472.3 817.6,441.4 	"/>
	
		<rect id="XMLID_37_" x="786.7" y="472.3" transform="matrix(-1 -4.487045e-11 4.487045e-11 -1 1635.2858 975.629)" class="st1" width="61.9" height="30.9"/>
	<polyline id="XMLID_26_" class="st1" points="800.1,534.2 817.6,534.2 817.6,503.3 755.8,503.3 	"/>
	<polyline id="XMLID_8_" class="st1" points="879.5,503.3 817.6,503.3 817.6,534.2 867.8,534.2 	"/>
	<polyline id="XMLID_4_" class="st1" points="900.6,472.3 848.6,472.3 848.6,503.3 879.5,503.3 	"/>
	<polyline id="XMLID_3_" class="st1" points="742.1,503.3 786.7,503.3 786.7,472.3 765.3,472.3 	"/>
</g>
<g id="XMLID_288_">
	<circle id="XMLID_175_" class="st1" cx="587" cy="251.9" r="56"/>
	<line id="XMLID_178_" class="st1" x1="587" y1="201.6" x2="587" y2="207"/>
	<line id="XMLID_179_" class="st1" x1="587" y1="296.7" x2="587" y2="302.1"/>
	<line id="XMLID_180_" class="st1" x1="637.3" y1="251.9" x2="631.9" y2="251.9"/>
	<line id="XMLID_177_" class="st1" x1="542.2" y1="251.9" x2="536.7" y2="251.9"/>
	<circle id="XMLID_181_" class="st2" cx="587" cy="251.9" r="4.5"/>
	<line id="XMLID_183_" class="st3" x1="587" y1="251.9" x2="611.2" y2="222"/>
	<line id="XMLID_184_" class="st1" x1="571.8" y1="236.9" x2="587" y2="251.9"/>
</g>
<g id="XMLID_23_">
	<rect id="XMLID_22_" x="135.8" y="252.9" class="st4" width="123.3" height="125.3"/>
	
		<rect id="XMLID_114_" x="154.3" y="271.2" transform="matrix(-1.836970e-16 1 -1 -1.836970e-16 513.0942 118.1157)" class="st3" width="86.5" height="88.9"/>
	<rect id="XMLID_18_" x="289.2" y="213" class="st4" width="108.6" height="77.8"/>
	
		<rect id="XMLID_122_" x="320.6" y="213.5" transform="matrix(-1.836970e-16 1 -1 -1.836970e-16 595.3908 -91.6892)" class="st3" width="45.9" height="76.7"/>
	
		<rect id="XMLID_115_" x="292.7" y="352.6" transform="matrix(-1.836970e-16 1 -1 -1.836970e-16 705.4474 47.4194)" class="st3" width="72.6" height="47.7"/>
	<rect id="XMLID_17_" x="289.2" y="324.2" class="st4" width="79.6" height="104.5"/>
</g>
<line id="XMLID_59_" class="st5" x1="833.8" y1="784.2" x2="841.7" y2="784.2"/>
<line id="XMLID_56_" class="st5" x1="802.3" y1="784.2" x2="820.8" y2="784.2"/>
<line id="XMLID_54_" class="st5" x1="473" y1="784.2" x2="788.3" y2="784.2"/>
<line id="XMLID_53_" class="st5" x1="200" y1="784.2" x2="452" y2="784.2"/>
<line id="XMLID_52_" class="st5" x1="156.5" y1="784.2" x2="178.5" y2="784.2"/>
<line id="XMLID_57_" class="st5" x1="126.5" y1="784.2" x2="138.5" y2="784.2"/>
<g>
	<path id="XMLID_28_" class="st6" d="M330.9,674.4c-18.2-11.6-50.3-32-64.2-74.4c-9.7-29.6-9.9-66.8,0.5-70.3
		c12.1-4,33.2,38.8,40.9,35.1c6.1-2.9-6.6-29.4-8.3-74.3c-1.2-30.6,3.2-56.9,17-80.3c6.3-10.7,10.9-18.6,16-18
		c20.9,2.4,15,144,37.3,146.7c10.5,1.3,18.9-29.2,30.7-26.7c10,2.1,16.7,26.8,18.5,42.8c0.1,0.8,0.2,1.4,0.2,1.9
		c5.2,51.9-25.1,89.3-35.3,102c-15.3,18.8-25.6,22.6-33.6,22.7C342.2,681.5,335.8,677.6,330.9,674.4z"/>
	<path id="XMLID_41_" class="st7" d="M325.5,477c3.5,37,24.5,93.3,27.6,141c2,31.1,0.1,58.5-3,81"/>
	<path id="XMLID_25_" class="st8" d="M422,784.2H267l0,0c-15.6-27.6-15-61.5,1.5-88.5l22.8-37.3h106.3l22.1,34.5
		c16.4,25.5,18.3,57.8,5.2,85.1L422,784.2z"/>
	<path id="XMLID_44_" class="st7" d="M375,561.9c0,0-0.4,17-23.8,39.1"/>
	<path id="XMLID_47_" class="st7" d="M301.1,601c0,0,15.7,32,52.8,32"/>
	<path id="XMLID_48_" class="st9" d="M382.3,684.8c0,0,23.6,15.4,23.6,52.3"/>
</g>
<g>
	<g>
		<g>
			<path class="st8" d="M63.2,959.2c0,2.5-1.2,3.7-2.6,3.7c-1.1,0-1.9-0.5-2.1-1.4c-0.4,0.5-1,0.8-1.8,0.8c-1.5,0-2.6-1.2-2.6-2.8
				c0-1.6,1.1-2.8,2.6-2.8c0.7,0,1.2,0.3,1.6,0.7v-0.5h1.6v3.9c0,0.8,0.3,1.4,1,1.4c0.9,0,1.7-0.9,1.7-3c0-3-2.3-5.3-5.4-5.3
				c-3.1,0-5.6,2.4-5.6,5.7c0,3.3,2.5,5.7,5.9,5.7c1.1,0,2.1-0.2,2.9-0.4v0.6c-0.8,0.3-1.7,0.4-2.9,0.4c-3.7,0-6.5-2.6-6.5-6.2
				c0-3.4,2.7-6.2,6.2-6.2C61.1,953.3,63.2,956.4,63.2,959.2z M58.3,959.5c0-0.8-0.6-1.4-1.3-1.4c-0.8,0-1.3,0.5-1.3,1.4
				c0,0.8,0.6,1.3,1.3,1.3C57.8,960.9,58.3,960.3,58.3,959.5z"/>
		</g>
		<g>
			<path class="st8" d="M69.4,955.1v2c-1.2-0.1-2.6,0.5-2.6,2.4v4.3h-1.9v-8.6h1.9v1.4C67.3,955.5,68.3,955.1,69.4,955.1z"/>
		</g>
		<g>
			<path class="st8" d="M74.6,962.3c1,0,1.8-0.5,2.2-1.1l1.5,0.9c-0.8,1.2-2.1,1.9-3.8,1.9c-2.8,0-4.7-1.9-4.7-4.5
				c0-2.5,1.8-4.5,4.5-4.5c2.6,0,4.3,2.1,4.3,4.5c0,0.3,0,0.5-0.1,0.8h-6.8C72.1,961.6,73.2,962.3,74.6,962.3z M76.9,958.8
				c-0.3-1.5-1.3-2.1-2.5-2.1c-1.4,0-2.3,0.8-2.6,2.1H76.9z"/>
		</g>
		<g>
			<path class="st8" d="M88.9,955.2v8.6h-1.9v-1.2c-0.7,0.9-1.7,1.5-3,1.5c-2.3,0-4.3-2-4.3-4.5c0-2.6,1.9-4.5,4.3-4.5
				c1.3,0,2.3,0.5,3,1.4v-1.2H88.9z M87.1,959.5c0-1.6-1.2-2.7-2.7-2.7c-1.5,0-2.7,1.1-2.7,2.7c0,1.6,1.2,2.7,2.7,2.7
				C85.9,962.3,87.1,961.1,87.1,959.5z"/>
		</g>
		<g>
			<path class="st8" d="M91.1,951.3H93v12.5h-1.9V951.3z"/>
		</g>
		<g>
			<path class="st8" d="M102.9,955.2l-3.3,8.6h-2.1l-3.3-8.6h2l2.4,6.5l2.4-6.5H102.9z"/>
		</g>
		<g>
			<path class="st8" d="M104.2,955.2h1.9v8.9c0,2.4-1.2,3.5-3.5,3.3v-1.8c1.1,0.1,1.7-0.3,1.7-1.5V955.2z M104,952.8
				c0-0.7,0.5-1.2,1.2-1.2c0.7,0,1.2,0.5,1.2,1.2c0,0.6-0.5,1.2-1.2,1.2C104.5,954,104,953.4,104,952.8z"/>
		</g>
		<g>
			<path class="st8" d="M116,955.2l-3.3,8.8c-0.8,2.2-2.2,3.3-4.2,3.2v-1.7c1.2,0.1,1.9-0.5,2.3-1.7l0.1-0.2l-3.6-8.4h2l2.6,6.2
				l2.2-6.2H116z"/>
		</g>
	</g>
	<g>
		<path class="st8" d="M211.9,938.7c0,2.1-1.5,3.8-3.6,3.8h-3v-7.6h3C210.4,934.9,211.9,936.6,211.9,938.7z M210.9,938.7
			c0-1.6-1.1-2.9-2.6-2.9h-2v5.7h2C209.8,941.6,210.9,940.3,210.9,938.7z"/>
		<path class="st8" d="M219.5,940.8h-3.4l-0.6,1.7h-1.1l2.8-7.6h1.1l2.8,7.6h-1.1L219.5,940.8z M219.2,939.9l-1.4-3.8l-1.4,3.8
			H219.2z"/>
		<path class="st8" d="M226.4,939.4v3.1h-1v-3.1l-2.7-4.5h1.1l2.1,3.6l2.1-3.6h1.1L226.4,939.4z"/>
		<path class="st8" d="M242.1,940.1c0,1.5-1.1,2.6-2.6,2.6c-1.5,0-2.6-1.1-2.6-2.6c0-0.6,0.2-1.1,0.5-1.5l2.5-3.7h1.2l-1.8,2.7
			c0.1,0,0.2,0,0.4,0C241,937.5,242.1,938.6,242.1,940.1z M241.1,940.1c0-1-0.7-1.6-1.6-1.6c-1,0-1.6,0.6-1.6,1.6s0.7,1.6,1.6,1.6
			C240.4,941.7,241.1,941,241.1,940.1z"/>
		<path class="st8" d="M250.3,940.4c0,1.4-1.1,2.2-2.6,2.2c-1.5,0-2.6-0.8-2.6-2.2c0-0.8,0.5-1.5,1.2-1.9c-0.6-0.3-0.9-0.9-0.9-1.7
			c0-1.5,1.2-2.2,2.4-2.2c1.2,0,2.4,0.7,2.4,2.2c0,0.8-0.4,1.3-0.9,1.7C249.8,938.9,250.3,939.6,250.3,940.4z M249.3,940.4
			c0-0.9-0.7-1.3-1.6-1.3c-0.9,0-1.6,0.4-1.6,1.3c0,0.9,0.7,1.3,1.6,1.3C248.6,941.7,249.3,941.2,249.3,940.4z M246.3,936.9
			c0,0.8,0.6,1.2,1.4,1.2c0.7,0,1.4-0.4,1.4-1.2c0-0.8-0.6-1.2-1.4-1.2C247,935.7,246.3,936.1,246.3,936.9z"/>
	</g>
	<g>
		<path class="st8" d="M58.9,938.7c0,2.1-1.5,3.8-3.6,3.8h-3v-7.6h3C57.4,934.9,58.9,936.6,58.9,938.7z M57.9,938.7
			c0-1.6-1.1-2.9-2.6-2.9h-2v5.7h2C56.8,941.6,57.9,940.3,57.9,938.7z"/>
		<path class="st8" d="M67,941.6v1h-4.6v-7.6h4.5v1h-3.5v2.3h3.2v0.9h-3.2v2.4H67z"/>
		<path class="st8" d="M70,940.8l0.9-0.5c0.3,0.8,0.9,1.4,2,1.4c1.1,0,1.6-0.5,1.6-1.2c0-0.8-0.7-1-1.8-1.4
			c-1.2-0.4-2.4-0.8-2.4-2.2c0-1.4,1.1-2.2,2.4-2.2c1.3,0,2.2,0.7,2.6,1.7l-0.8,0.5c-0.3-0.7-0.8-1.2-1.7-1.2
			c-0.8,0-1.4,0.4-1.4,1.1c0,0.7,0.5,1,1.6,1.3c1.3,0.4,2.6,0.8,2.6,2.3c0,1.3-1.1,2.2-2.6,2.2C71.5,942.7,70.4,941.9,70,940.8z"/>
		<path class="st8" d="M80,934.9v7.6h-1v-7.6H80z"/>
		<path class="st8" d="M91.3,939.2c0,1.9-1.4,3.5-3.7,3.5c-2.4,0-4-1.8-4-4c0-2.2,1.7-4,4-4c1.4,0,2.7,0.8,3.3,1.8l-0.9,0.5
			c-0.4-0.8-1.4-1.4-2.4-1.4c-1.8,0-3,1.3-3,3c0,1.7,1.2,3,3,3c1.6,0,2.5-0.9,2.7-2h-2.8v-0.9h3.8V939.2z"/>
		<path class="st8" d="M100.6,934.9v7.6h-0.8l-3.9-5.7v5.7h-1v-7.6h0.8l3.9,5.7v-5.7H100.6z"/>
		<path class="st8" d="M109.1,941.6v1h-4.6v-7.6h4.5v1h-3.5v2.3h3.2v0.9h-3.2v2.4H109.1z"/>
		<path class="st8" d="M119.2,938.7c0,2.1-1.5,3.8-3.6,3.8h-3v-7.6h3C117.6,934.9,119.2,936.6,119.2,938.7z M118.2,938.7
			c0-1.6-1.1-2.9-2.6-2.9h-2v5.7h2C117.1,941.6,118.2,940.3,118.2,938.7z"/>
		<path class="st8" d="M133.2,940.4c0,1.2-1,2.2-2.2,2.2h-3.3v-7.6h3c1.2,0,2.1,0.9,2.1,2.1c0,0.7-0.3,1.2-0.8,1.6
			C132.7,938.9,133.2,939.5,133.2,940.4z M128.7,935.8v2.3h2c0.6,0,1.1-0.5,1.1-1.2c0-0.6-0.5-1.2-1.1-1.2H128.7z M132.2,940.3
			c0-0.7-0.5-1.2-1.2-1.2h-2.3v2.5h2.3C131.7,941.6,132.2,941,132.2,940.3z"/>
		<path class="st8" d="M139.4,939.4v3.1h-1v-3.1l-2.7-4.5h1.1l2.1,3.6l2.1-3.6h1.1L139.4,939.4z"/>
	</g>
	<g>
		<path class="st8" d="M214.8,951.9v12.4h-2v-5.4h-5.3v5.4h-2v-12.4h2v5.1h5.3v-5.1H214.8z"/>
		<path class="st8" d="M226.1,955.4v8.9h-1.9V963c-0.7,0.9-1.7,1.5-3.1,1.5c-2.4,0-4.4-2-4.4-4.7c0-2.6,2-4.7,4.4-4.7
			c1.4,0,2.4,0.6,3.1,1.5v-1.3H226.1z M224.2,959.9c0-1.6-1.2-2.8-2.8-2.8c-1.6,0-2.8,1.2-2.8,2.8c0,1.6,1.2,2.8,2.8,2.8
			C223,962.7,224.2,961.5,224.2,959.9z"/>
		<path class="st8" d="M237.8,959.9c0,2.6-2,4.7-4.4,4.7c-1.4,0-2.4-0.6-3.1-1.5v4.8h-1.9v-12.4h1.9v1.3c0.7-0.9,1.7-1.5,3.1-1.5
			C235.8,955.2,237.8,957.3,237.8,959.9z M235.9,959.9c0-1.6-1.2-2.8-2.8-2.8c-1.6,0-2.8,1.2-2.8,2.8c0,1.6,1.2,2.8,2.8,2.8
			C234.6,962.7,235.9,961.5,235.9,959.9z"/>
		<path class="st8" d="M248.9,959.9c0,2.6-2,4.7-4.4,4.7c-1.4,0-2.4-0.6-3.1-1.5v4.8h-1.9v-12.4h1.9v1.3c0.7-0.9,1.7-1.5,3.1-1.5
			C246.9,955.2,248.9,957.3,248.9,959.9z M247,959.9c0-1.6-1.2-2.8-2.8-2.8c-1.6,0-2.8,1.2-2.8,2.8c0,1.6,1.2,2.8,2.8,2.8
			C245.8,962.7,247,961.5,247,959.9z"/>
		<path class="st8" d="M258.3,955.4l-3.4,9.1c-0.8,2.2-2.3,3.4-4.3,3.3V966c1.2,0.1,1.9-0.6,2.4-1.7l0.1-0.2l-3.8-8.7h2.1l2.6,6.4
			l2.3-6.4H258.3z"/>
		<path class="st8" d="M263.4,958.1c0-3.6,2.7-6.4,6.5-6.4c2.3,0,4.3,1.2,5.3,3l-1.8,1c-0.7-1.2-2-2-3.6-2c-2.7,0-4.4,1.9-4.4,4.4
			s1.8,4.4,4.4,4.4c1.6,0,2.9-0.8,3.6-2l1.8,1c-1,1.8-3,3-5.3,3C266.2,964.5,263.4,961.7,263.4,958.1z"/>
		<path class="st8" d="M285.7,955.4v8.9h-1.9V963c-0.7,0.9-1.7,1.5-3.1,1.5c-2.4,0-4.4-2-4.4-4.7c0-2.6,2-4.7,4.4-4.7
			c1.4,0,2.4,0.6,3.1,1.5v-1.3H285.7z M283.8,959.9c0-1.6-1.2-2.8-2.8-2.8c-1.6,0-2.8,1.2-2.8,2.8c0,1.6,1.2,2.8,2.8,2.8
			C282.6,962.7,283.8,961.5,283.8,959.9z"/>
		<path class="st8" d="M290.7,957.3v4.2c0,1.1,0.7,1.1,2.2,1v1.7c-2.9,0.4-4.1-0.5-4.1-2.8v-4.2h-1.6v-1.8h1.6v-1.9l1.9-0.6v2.5h2.2
			v1.8H290.7z"/>
	</g>
	<g>
		<g>
			<g>
				<path class="st8" d="M846.1,938.7c0,2.1-1.5,3.8-3.6,3.8h-3v-7.6h3C844.6,934.9,846.1,936.6,846.1,938.7z M845.2,938.7
					c0-1.6-1.1-2.9-2.6-2.9h-2v5.7h2C844.1,941.6,845.2,940.3,845.2,938.7z"/>
			</g>
			<g>
				<path class="st8" d="M849.3,938.7c0-2.2,1.7-4,3.9-4c2.2,0,4,1.8,4,4c0,2.2-1.7,4-4,4C851,942.7,849.3,940.9,849.3,938.7z
					 M856.1,938.7c0-1.7-1.3-3-2.9-3c-1.7,0-2.9,1.3-2.9,3c0,1.7,1.3,3,2.9,3C854.9,941.7,856.1,940.4,856.1,938.7z"/>
			</g>
			<g>
				<path class="st8" d="M859.8,934.9h1.1l1.7,6.3l1.9-6.3h1l1.9,6.3l1.7-6.3h1.1l-2.2,7.6h-1.2l-1.8-6.1l-1.8,6.1H862L859.8,934.9z
					"/>
			</g>
			<g>
				<path class="st8" d="M879.3,934.9v7.6h-0.8l-3.9-5.7v5.7h-1v-7.6h0.8l3.9,5.7v-5.7H879.3z"/>
			</g>
			<g>
				<path class="st8" d="M887.5,941.6v1h-4.3v-7.6h1v6.7H887.5z"/>
			</g>
			<g>
				<path class="st8" d="M889.9,938.7c0-2.2,1.7-4,3.9-4c2.2,0,4,1.8,4,4c0,2.2-1.7,4-4,4C891.6,942.7,889.9,940.9,889.9,938.7z
					 M896.8,938.7c0-1.7-1.3-3-2.9-3c-1.7,0-2.9,1.3-2.9,3c0,1.7,1.3,3,2.9,3C895.5,941.7,896.8,940.4,896.8,938.7z"/>
			</g>
			<g>
				<path class="st8" d="M905.4,940.8H902l-0.6,1.7h-1.1l2.8-7.6h1.1l2.8,7.6H906L905.4,940.8z M905.1,939.9l-1.4-3.8l-1.4,3.8
					H905.1z"/>
			</g>
			<g>
				<path class="st8" d="M916.9,938.7c0,2.1-1.5,3.8-3.6,3.8h-3v-7.6h3C915.4,934.9,916.9,936.6,916.9,938.7z M915.9,938.7
					c0-1.6-1.1-2.9-2.6-2.9h-2v5.7h2C914.9,941.6,915.9,940.3,915.9,938.7z"/>
			</g>
			<g>
				<path class="st8" d="M926.5,935.8v2.5h3.2v1h-3.2v3.2h-1v-7.6h4.4v1H926.5z"/>
			</g>
			<g>
				<path class="st8" d="M936.2,939.6h-1.8v2.9h-1v-7.6h3c1.3,0,2.4,1.1,2.4,2.4c0,1-0.7,1.9-1.6,2.2l1.8,3.1h-1.1L936.2,939.6z
					 M934.4,938.7h2c0.8,0,1.4-0.6,1.4-1.4c0-0.8-0.6-1.4-1.4-1.4h-2V938.7z"/>
			</g>
			<g>
				<path class="st8" d="M941.9,938.7c0-2.2,1.7-4,3.9-4c2.2,0,4,1.8,4,4c0,2.2-1.7,4-4,4C943.6,942.7,941.9,940.9,941.9,938.7z
					 M948.8,938.7c0-1.7-1.3-3-2.9-3c-1.7,0-2.9,1.3-2.9,3c0,1.7,1.3,3,2.9,3C947.5,941.7,948.8,940.4,948.8,938.7z"/>
			</g>
			<g>
				<path class="st8" d="M960.4,942.5h-1v-6l-2.5,4.2h-0.1l-2.5-4.1v5.9h-1v-7.6h1.1l2.4,4l2.4-4h1.1V942.5z"/>
			</g>
		</g>
		<g>
			<g>
				<path class="st8" d="M839.3,952.9c0-0.7,0.5-1.2,1.2-1.2c0.7,0,1.2,0.5,1.2,1.2c0,0.7-0.5,1.2-1.2,1.2
					C839.9,954.1,839.3,953.6,839.3,952.9z M839.6,955.4h1.9v8.9h-1.9V955.4z"/>
			</g>
			<g>
				<path class="st8" d="M843.7,951.4h1.9v12.9h-1.9V951.4z"/>
			</g>
			<g>
				<path class="st8" d="M847.8,951.4h1.9v12.9h-1.9V951.4z"/>
			</g>
			<g>
				<path class="st8" d="M852,951.4h1.9v12.9H852V951.4z"/>
			</g>
			<g>
				<path class="st8" d="M864,955.4v8.9h-1.9v-1.1c-0.6,0.9-1.5,1.4-2.7,1.4c-2,0-3.4-1.3-3.4-3.6v-5.4h1.9v5.2c0,1.3,0.8,2.1,2,2.1
					c1.3,0,2.2-0.7,2.2-2.5v-4.7H864z"/>
			</g>
			<g>
				<path class="st8" d="M872.6,961.8c0,1.8-1.5,2.7-3.5,2.7c-1.8,0-3-0.8-3.6-2.1l1.6-1c0.3,0.8,1,1.3,2,1.3c0.8,0,1.5-0.3,1.5-1
					c0-1.6-4.8-0.7-4.8-3.9c0-1.7,1.4-2.7,3.2-2.7c1.5,0,2.7,0.7,3.3,1.8l-1.6,0.9c-0.3-0.7-0.9-1-1.7-1c-0.7,0-1.3,0.3-1.3,0.9
					C867.9,959.5,872.6,958.5,872.6,961.8z"/>
			</g>
			<g>
				<path class="st8" d="M876.7,957.3v4.2c0,1.1,0.7,1.1,2.2,1v1.7c-2.9,0.4-4.1-0.5-4.1-2.8v-4.2h-1.6v-1.8h1.6v-1.9l1.9-0.6v2.5
					h2.2v1.8H876.7z"/>
			</g>
			<g>
				<path class="st8" d="M885.4,955.3v2.1c-1.3-0.1-2.7,0.5-2.7,2.5v4.5h-1.9v-8.9h1.9v1.5C883.2,955.7,884.2,955.3,885.4,955.3z"/>
			</g>
			<g>
				<path class="st8" d="M895.3,955.4v8.9h-1.9V963c-0.7,0.9-1.7,1.5-3.1,1.5c-2.4,0-4.4-2-4.4-4.7c0-2.6,2-4.7,4.4-4.7
					c1.4,0,2.4,0.6,3.1,1.5v-1.3H895.3z M893.4,959.9c0-1.6-1.2-2.8-2.8-2.8c-1.6,0-2.8,1.2-2.8,2.8c0,1.6,1.2,2.8,2.8,2.8
					C892.2,962.7,893.4,961.5,893.4,959.9z"/>
			</g>
			<g>
				<path class="st8" d="M900.3,957.3v4.2c0,1.1,0.7,1.1,2.2,1v1.7c-2.9,0.4-4.1-0.5-4.1-2.8v-4.2h-1.6v-1.8h1.6v-1.9l1.9-0.6v2.5
					h2.2v1.8H900.3z"/>
			</g>
			<g>
				<path class="st8" d="M903.9,952.9c0-0.7,0.5-1.2,1.2-1.2c0.7,0,1.2,0.5,1.2,1.2c0,0.7-0.5,1.2-1.2,1.2
					C904.5,954.1,903.9,953.6,903.9,952.9z M904.2,955.4h1.9v8.9h-1.9V955.4z"/>
			</g>
			<g>
				<path class="st8" d="M907.8,959.9c0-2.6,2.1-4.7,4.7-4.7c2.6,0,4.7,2,4.7,4.7c0,2.6-2.1,4.7-4.7,4.7
					C909.9,964.5,907.8,962.5,907.8,959.9z M915.3,959.9c0-1.6-1.2-2.8-2.8-2.8c-1.6,0-2.8,1.2-2.8,2.8c0,1.6,1.2,2.8,2.8,2.8
					C914.1,962.7,915.3,961.5,915.3,959.9z"/>
			</g>
			<g>
				<path class="st8" d="M927,958.9v5.4h-1.9v-5.2c0-1.3-0.8-2.1-2-2.1c-1.3,0-2.2,0.7-2.2,2.5v4.7h-1.9v-8.9h1.9v1.1
					c0.6-0.9,1.5-1.4,2.7-1.4C925.5,955.2,927,956.6,927,958.9z"/>
			</g>
			<g>
				<path class="st8" d="M935.5,961.8c0,1.8-1.5,2.7-3.5,2.7c-1.8,0-3-0.8-3.6-2.1l1.6-1c0.3,0.8,1,1.3,2,1.3c0.8,0,1.5-0.3,1.5-1
					c0-1.6-4.8-0.7-4.8-3.9c0-1.7,1.4-2.7,3.2-2.7c1.5,0,2.7,0.7,3.3,1.8l-1.6,0.9c-0.3-0.7-0.9-1-1.7-1c-0.7,0-1.3,0.3-1.3,0.9
					C930.7,959.5,935.5,958.5,935.5,961.8z"/>
			</g>
			<g>
				<path class="st8" d="M936.8,963.2c0-0.7,0.6-1.3,1.3-1.3c0.7,0,1.3,0.6,1.3,1.3c0,0.7-0.6,1.3-1.3,1.3
					C937.4,964.5,936.8,963.9,936.8,963.2z"/>
			</g>
			<g>
				<path class="st8" d="M940.3,959.9c0-2.6,2-4.7,4.7-4.7c1.7,0,3.2,0.9,3.9,2.3l-1.6,1c-0.4-0.8-1.3-1.4-2.3-1.4
					c-1.6,0-2.7,1.2-2.7,2.8c0,1.6,1.2,2.8,2.7,2.8c1.1,0,1.9-0.5,2.4-1.4l1.6,0.9c-0.7,1.4-2.2,2.3-4,2.3
					C942.3,964.5,940.3,962.5,940.3,959.9z"/>
			</g>
			<g>
				<path class="st8" d="M949.7,959.9c0-2.6,2.1-4.7,4.7-4.7c2.6,0,4.7,2,4.7,4.7c0,2.6-2.1,4.7-4.7,4.7
					C951.8,964.5,949.7,962.5,949.7,959.9z M957.2,959.9c0-1.6-1.2-2.8-2.8-2.8s-2.8,1.2-2.8,2.8c0,1.6,1.2,2.8,2.8,2.8
					S957.2,961.5,957.2,959.9z"/>
			</g>
		</g>
	</g>
</g>
<g>
	<path id="XMLID_14_" class="st10" d="M523.6,794c0,29.2,49.9,53,111.4,53c48.2,0,89.2-14.5,104.7-34.9l-116.5,8.4L523.6,794z"/>
	<path id="XMLID_15_" class="st11" d="M723.7,791.1c-2.9-0.6-6-0.3-8.7,0.8c-17.6,6.9-48.4,11.5-83.4,11.5c-54.7,0-99-11.2-99-25
		c0-12.2,34.7-22.4,80.6-24.6l3.2-16.7c-62.9,3.9-110.7,23.4-110.7,46.8c0,26.2,60,47.5,134,47.5c32.4,0,62.1-4.1,85.3-10.9
		C740,816,739.1,794.3,723.7,791.1L723.7,791.1z"/>
	<path id="XMLID_51_" class="st12" d="M671.1,801.3l48-10.5c0,0,12.6,1.3,14.9,8c4,11.4-4.2,18.4-4.2,18.4S726.7,790.8,671.1,801.3z
		"/>
	<path id="XMLID_21_" class="st5" d="M723.7,791.1c-2.9-0.6-6-0.3-8.7,0.8c-17.6,6.9-48.4,11.5-83.4,11.5c-54.7,0-99-11.2-99-25
		c0-12.2,34.7-22.4,80.6-24.6l3.2-16.7c-62.9,3.9-110.7,23.4-110.7,46.8c0,26.2,60,47.5,134,47.5c32.4,0,62.1-4.1,85.3-10.9
		C740,816,739.1,794.3,723.7,791.1L723.7,791.1z"/>
	<path id="XMLID_27_" class="st11" d="M714.3,439.9c-16-5.1-33.7-8-52.2-8c-18.4,0-35.9,2.8-51.9,7.8c-9.7-22.7-22.9-41.2-36.8-52.7
		c-2.2-1.8-5.5-1.2-6.9,1.3c-27.7,50.1-40.1,107.4-34.9,169.9c4.8,69.8,31.7,146.5,57.2,225.8h146.8c25.6-79.2,52.2-155.1,57.2-224
		c5.5-62.9-7.1-120.4-35.6-171c-1.4-2.5-4.7-3.1-6.9-1.3C736.7,399.3,723.8,417.5,714.3,439.9z"/>
	<path id="XMLID_55_" class="st12" d="M674.4,533.9c0,3.7-5.5,6.7-12.4,6.7c-6.8,0-12.4-3-12.4-6.7l12.5-2.8L674.4,533.9z"/>
	<path id="XMLID_40_" class="st12" d="M713.3,782.6c0,0,0-7.9,1.5-14.5c13.2-58.7,4.5-76.8,4.5-76.8l-27.8,91.5L713.3,782.6z"/>
	<path id="XMLID_42_" class="st12" d="M608.8,782.6c0,0,0-7.9-1.5-14.5c-13.2-58.7-4.5-76.8-4.5-76.8l27.8,91.5L608.8,782.6z"/>
	<path id="XMLID_16_" class="st5" d="M714.3,439.9c-16-5.1-33.7-8-52.2-8c-18.4,0-35.9,2.8-51.9,7.8c-9.7-22.7-22.9-41.2-36.8-52.7
		c-2.2-1.8-5.5-1.2-6.9,1.3c-27.7,50.1-40.1,107.4-34.9,169.9c4.8,69.8,31.7,146.5,57.2,225.8h146.8c25.6-79.2,52.2-155.1,57.2-224
		c5.5-62.9-7.1-120.4-35.6-171c-1.4-2.5-4.7-3.1-6.9-1.3C736.7,399.3,723.8,417.5,714.3,439.9z"/>
	<circle id="XMLID_6_" class="st13" cx="620.6" cy="479.8" r="8"/>
	<circle id="XMLID_12_" class="st13" cx="703.6" cy="479.8" r="8"/>
	<path id="XMLID_13_" class="st13" d="M668.8,506.7c-4.4-0.4-8.8-0.4-13.2,0c-2.1,0.2-2.8,2.3-1.2,3.4c1.4,0.9,2.8,1.8,4.2,2.8
		c2,1.4,5.3,1.4,7.3,0c1.4-1,2.8-1.9,4.2-2.8C671.6,509,670.8,506.9,668.8,506.7z"/>
	<g id="XMLID_32_">
		<path id="XMLID_39_" class="st11" d="M719.1,694.2c-1.7,29.5-15.4,60.5-24.8,90c-9.7,0-32.2,0-32.2,0l0.2-83.1"/>
		<path id="XMLID_34_" class="st11" d="M605,694.2c1.7,29.5,18.4,60.5,27.8,90c9.7,0,29.2,0,29.2,0l-0.2-83.1"/>
	</g>
	<g id="XMLID_5_">
		<path id="XMLID_10_" class="st5" d="M680.5,533c-1.8,1-4,1.6-6.2,1.6c-6.7,0-12.1-4.9-12.1-10.9"/>
		<path id="XMLID_7_" class="st5" d="M643.7,533c1.8,1,4,1.6,6.2,1.6c6.7,0,12.1-4.9,12.1-10.9"/>
	</g>
	<g id="XMLID_29_">
		<path id="XMLID_11_" class="st5" d="M719.1,694.2c-1.7,29.5-18.4,60.5-27.8,90c-9.7,0-29.2,0-29.2,0l0.2-83.1"/>
		<path id="XMLID_30_" class="st5" d="M605,694.2c1.7,29.5,15.4,60.5,24.8,90c9.7,0,32.2,0,32.2,0l-0.2-83.1"/>
	</g>
	<path id="XMLID_31_" class="st12" d="M729.1,451.4c7.4-22.7,18.2-28.5,18.2-28.5s7.8,2.9,7.8,33.8"/>
	<path id="XMLID_33_" class="st12" d="M595.1,451.4c-7.4-22.7-18.2-28.5-18.2-28.5s-7.8,2.9-7.8,33.8"/>
	<line id="XMLID_45_" class="st5" x1="644.3" y1="772.2" x2="646.8" y2="783.5"/>
	<line id="XMLID_46_" class="st5" x1="679.9" y1="772.2" x2="677.4" y2="783.5"/>
	<g id="XMLID_1_" class="st14">
		<path id="XMLID_19_" class="st15" d="M707,528.7c12.1,3.2,24.6,3.8,36.6,2"/>
		<path id="XMLID_20_" class="st15" d="M703.6,536.3c11,7,22.4,11.8,33.4,14.3"/>
		<path id="XMLID_35_" class="st15" d="M707,517.9c9.9-0.7,20.1-3.4,30-8.1"/>
		<path id="XMLID_50_" class="st15" d="M617.2,528.7c-12.1,3.2-24.6,3.8-36.6,2"/>
		<path id="XMLID_43_" class="st15" d="M620.6,536.3c-11,7-22.4,11.8-33.4,14.3"/>
		<path id="XMLID_36_" class="st15" d="M617.2,517.9c-9.9-0.7-20.1-3.4-30-8.1"/>
	</g>
</g>
</svg>
