<?xml version="1.0" encoding="utf-8"?>
<!-- Generator: Adobe Illustrator 23.1.1, SVG Export Plug-In . SVG Version: 6.00 Build 0)  -->
<svg version="1.1" id="Layer_1" xmlns="http://www.w3.org/2000/svg" xmlns:xlink="http://www.w3.org/1999/xlink" x="0px" y="0px"
	 viewBox="0 0 1000 1000" style="enable-background:new 0 0 1000 1000;" xml:space="preserve">
<style type="text/css">
	.st0{fill:#D82435;}
	.st1{fill:#EEF2F4;}
	.st2{opacity:0.15;}
	.st3{fill:none;stroke:#262626;stroke-width:14;stroke-linecap:round;stroke-linejoin:round;stroke-miterlimit:10;}
	.st4{fill:none;stroke:#262626;stroke-width:8;stroke-linecap:round;stroke-linejoin:round;stroke-miterlimit:10;}
	.st5{fill:#FFFFFF;}
	.st6{opacity:0.6;}
	.st7{fill:none;stroke:#DF5E4C;stroke-width:3;stroke-linecap:round;stroke-linejoin:round;stroke-miterlimit:10;}
	.st8{opacity:0.67;}
	.st9{fill:none;stroke:#F7931E;stroke-width:4;stroke-linecap:round;stroke-linejoin:round;stroke-miterlimit:10;}
	.st10{opacity:0.7;}
	.st11{opacity:0.4;}
	.st12{fill:none;stroke:#622F2F;stroke-width:5;stroke-linecap:round;stroke-linejoin:round;stroke-miterlimit:10;}
	.st13{fill:none;stroke:#8DC838;stroke-width:3;stroke-linecap:round;stroke-miterlimit:10;}
	.st14{fill:none;stroke:#8DC838;stroke-width:4;stroke-miterlimit:10;}
	.st15{opacity:0.8;fill:none;stroke:#8DC838;stroke-width:4;stroke-miterlimit:10;}
	.st16{opacity:0.74;fill:none;stroke:#622F2F;stroke-width:3;stroke-linecap:round;stroke-linejoin:round;stroke-miterlimit:10;}
	.st17{fill:#EAA772;}
	.st18{opacity:0.25;}
	.st19{fill:none;stroke:#442F2F;stroke-width:8;stroke-linecap:round;stroke-linejoin:round;stroke-miterlimit:10;}
	.st20{opacity:0.3;}
	.st21{fill:#5B3E40;}
	.st22{fill:#442F2F;}
	.st23{fill:#D83634;}
	.st24{opacity:0.3;fill:#D83634;}
	.st25{opacity:0.2;fill:#FFFFFF;}
	.st26{fill:#8DC838;}
	.st27{fill:#73B727;}
	.st28{fill:#FBB03B;}
	.st29{fill:#F99A29;}
</style>
<rect id="XMLID_3_" class="st0" width="1000" height="1000"/>
<g>
	<g>
		<g>
			<path class="st1" d="M63.2,959.2c0,2.5-1.2,3.7-2.6,3.7c-1.1,0-1.9-0.5-2.1-1.4c-0.4,0.5-1,0.8-1.8,0.8c-1.5,0-2.6-1.2-2.6-2.8
				c0-1.6,1.1-2.8,2.6-2.8c0.7,0,1.2,0.3,1.6,0.7v-0.5h1.6v3.9c0,0.8,0.3,1.4,1,1.4c0.9,0,1.7-0.9,1.7-3c0-3-2.3-5.3-5.4-5.3
				c-3.1,0-5.6,2.4-5.6,5.7c0,3.3,2.5,5.7,5.9,5.7c1.1,0,2.1-0.2,2.9-0.4v0.6c-0.8,0.3-1.7,0.4-2.9,0.4c-3.7,0-6.5-2.6-6.5-6.2
				c0-3.4,2.7-6.2,6.2-6.2C61.1,953.3,63.2,956.4,63.2,959.2z M58.3,959.5c0-0.8-0.6-1.4-1.3-1.4c-0.8,0-1.3,0.5-1.3,1.4
				c0,0.8,0.6,1.3,1.3,1.3C57.8,960.9,58.3,960.3,58.3,959.5z"/>
		</g>
		<g>
			<path class="st1" d="M69.4,955.1v2c-1.2-0.1-2.6,0.5-2.6,2.4v4.3h-1.9v-8.6h1.9v1.4C67.3,955.5,68.3,955.1,69.4,955.1z"/>
		</g>
		<g>
			<path class="st1" d="M74.6,962.3c1,0,1.8-0.5,2.2-1.1l1.5,0.9c-0.8,1.2-2.1,1.9-3.8,1.9c-2.8,0-4.7-1.9-4.7-4.5
				c0-2.5,1.8-4.5,4.5-4.5c2.6,0,4.3,2.1,4.3,4.5c0,0.3,0,0.5-0.1,0.8h-6.8C72.1,961.6,73.2,962.3,74.6,962.3z M76.9,958.8
				c-0.3-1.5-1.3-2.1-2.5-2.1c-1.4,0-2.3,0.8-2.6,2.1H76.9z"/>
		</g>
		<g>
			<path class="st1" d="M88.9,955.2v8.6h-1.9v-1.2c-0.7,0.9-1.7,1.5-3,1.5c-2.3,0-4.3-2-4.3-4.5c0-2.6,1.9-4.5,4.3-4.5
				c1.3,0,2.3,0.5,3,1.4v-1.2H88.9z M87.1,959.5c0-1.6-1.2-2.7-2.7-2.7c-1.5,0-2.7,1.1-2.7,2.7c0,1.6,1.2,2.7,2.7,2.7
				C85.9,962.3,87.1,961.1,87.1,959.5z"/>
		</g>
		<g>
			<path class="st1" d="M91.1,951.3H93v12.5h-1.9V951.3z"/>
		</g>
		<g>
			<path class="st1" d="M102.9,955.2l-3.3,8.6h-2.1l-3.3-8.6h2l2.4,6.5l2.4-6.5H102.9z"/>
		</g>
		<g>
			<path class="st1" d="M104.2,955.2h1.9v8.9c0,2.4-1.2,3.5-3.5,3.3v-1.8c1.1,0.1,1.7-0.3,1.7-1.5V955.2z M104,952.8
				c0-0.7,0.5-1.2,1.2-1.2c0.7,0,1.2,0.5,1.2,1.2c0,0.6-0.5,1.2-1.2,1.2C104.5,954,104,953.4,104,952.8z"/>
		</g>
		<g>
			<path class="st1" d="M116,955.2l-3.3,8.8c-0.8,2.2-2.2,3.3-4.2,3.2v-1.7c1.2,0.1,1.9-0.5,2.3-1.7l0.1-0.2l-3.6-8.4h2l2.6,6.2
				l2.2-6.2H116z"/>
		</g>
	</g>
	<g>
		<path class="st1" d="M211.9,938.7c0,2.1-1.5,3.8-3.6,3.8h-3v-7.6h3C210.4,934.9,211.9,936.6,211.9,938.7z M210.9,938.7
			c0-1.6-1.1-2.9-2.6-2.9h-2v5.7h2C209.8,941.6,210.9,940.3,210.9,938.7z"/>
		<path class="st1" d="M219.5,940.8h-3.4l-0.6,1.7h-1.1l2.8-7.6h1.1l2.8,7.6h-1.1L219.5,940.8z M219.2,939.9l-1.4-3.8l-1.4,3.8
			H219.2z"/>
		<path class="st1" d="M226.4,939.4v3.1h-1v-3.1l-2.7-4.5h1.1l2.1,3.6l2.1-3.6h1.1L226.4,939.4z"/>
		<path class="st1" d="M242.1,940.4c0,1.4-1.1,2.2-2.6,2.2c-1.5,0-2.6-0.8-2.6-2.2c0-0.8,0.5-1.5,1.2-1.9c-0.6-0.3-0.9-0.9-0.9-1.7
			c0-1.5,1.2-2.2,2.4-2.2c1.2,0,2.4,0.7,2.4,2.2c0,0.8-0.4,1.3-0.9,1.7C241.7,938.9,242.1,939.6,242.1,940.4z M241.1,940.4
			c0-0.9-0.7-1.3-1.6-1.3c-0.9,0-1.6,0.4-1.6,1.3c0,0.9,0.7,1.3,1.6,1.3C240.5,941.7,241.1,941.2,241.1,940.4z M238.2,936.9
			c0,0.8,0.6,1.2,1.4,1.2c0.7,0,1.4-0.4,1.4-1.2c0-0.8-0.6-1.2-1.4-1.2C238.8,935.7,238.2,936.1,238.2,936.9z"/>
		<path class="st1" d="M245.1,941.7l2.7-2.7c0.6-0.6,1.1-1.2,1.1-1.9c0-0.9-0.6-1.4-1.4-1.4c-0.7,0-1.2,0.3-1.6,1l-0.8-0.5
			c0.5-1,1.4-1.5,2.4-1.5c1.2,0,2.4,0.8,2.4,2.3c0,0.9-0.6,1.8-1.4,2.5l-2,1.9h3.5v1h-4.9V941.7z"/>
	</g>
	<g>
		<path class="st1" d="M58.9,938.7c0,2.1-1.5,3.8-3.6,3.8h-3v-7.6h3C57.4,934.9,58.9,936.6,58.9,938.7z M57.9,938.7
			c0-1.6-1.1-2.9-2.6-2.9h-2v5.7h2C56.8,941.6,57.9,940.3,57.9,938.7z"/>
		<path class="st1" d="M67,941.6v1h-4.6v-7.6h4.5v1h-3.5v2.3h3.2v0.9h-3.2v2.4H67z"/>
		<path class="st1" d="M70,940.8l0.9-0.5c0.3,0.8,0.9,1.4,2,1.4c1.1,0,1.6-0.5,1.6-1.2c0-0.8-0.7-1-1.8-1.4
			c-1.2-0.4-2.4-0.8-2.4-2.2c0-1.4,1.1-2.2,2.4-2.2c1.3,0,2.2,0.7,2.6,1.7l-0.8,0.5c-0.3-0.7-0.8-1.2-1.7-1.2
			c-0.8,0-1.4,0.4-1.4,1.1c0,0.7,0.5,1,1.6,1.3c1.3,0.4,2.6,0.8,2.6,2.3c0,1.3-1.1,2.2-2.6,2.2C71.5,942.7,70.4,941.9,70,940.8z"/>
		<path class="st1" d="M80,934.9v7.6h-1v-7.6H80z"/>
		<path class="st1" d="M91.3,939.2c0,1.9-1.4,3.5-3.7,3.5c-2.4,0-4-1.8-4-4c0-2.2,1.7-4,4-4c1.4,0,2.7,0.8,3.3,1.8l-0.9,0.5
			c-0.4-0.8-1.4-1.4-2.4-1.4c-1.8,0-3,1.3-3,3c0,1.7,1.2,3,3,3c1.6,0,2.5-0.9,2.7-2h-2.8v-0.9h3.8V939.2z"/>
		<path class="st1" d="M100.6,934.9v7.6h-0.8l-3.9-5.7v5.7h-1v-7.6h0.8l3.9,5.7v-5.7H100.6z"/>
		<path class="st1" d="M109.1,941.6v1h-4.6v-7.6h4.5v1h-3.5v2.3h3.2v0.9h-3.2v2.4H109.1z"/>
		<path class="st1" d="M119.2,938.7c0,2.1-1.5,3.8-3.6,3.8h-3v-7.6h3C117.6,934.9,119.2,936.6,119.2,938.7z M118.2,938.7
			c0-1.6-1.1-2.9-2.6-2.9h-2v5.7h2C117.1,941.6,118.2,940.3,118.2,938.7z"/>
		<path class="st1" d="M133.2,940.4c0,1.2-1,2.2-2.2,2.2h-3.3v-7.6h3c1.2,0,2.1,0.9,2.1,2.1c0,0.7-0.3,1.2-0.8,1.6
			C132.7,938.9,133.2,939.5,133.2,940.4z M128.7,935.8v2.3h2c0.6,0,1.1-0.5,1.1-1.2c0-0.6-0.5-1.2-1.1-1.2H128.7z M132.2,940.3
			c0-0.7-0.5-1.2-1.2-1.2h-2.3v2.5h2.3C131.7,941.6,132.2,941,132.2,940.3z"/>
		<path class="st1" d="M139.4,939.4v3.1h-1v-3.1l-2.7-4.5h1.1l2.1,3.6l2.1-3.6h1.1L139.4,939.4z"/>
	</g>
	<g>
		<path class="st1" d="M214.5,960.8c0,2.1-1.7,3.5-3.7,3.5h-5.3v-12.4h4.9c2,0,3.6,1.5,3.6,3.4c0,1.1-0.5,2-1.3,2.5
			C213.8,958.4,214.5,959.4,214.5,960.8z M207.5,953.8v3.3h2.9c0.9,0,1.6-0.7,1.6-1.6c0-0.9-0.7-1.6-1.6-1.6H207.5z M212.4,960.6
			c0-1-0.7-1.7-1.7-1.7h-3.3v3.5h3.3C211.7,962.4,212.4,961.6,212.4,960.6z"/>
		<path class="st1" d="M224.2,955.4v8.9h-1.9v-1.1c-0.6,0.9-1.5,1.4-2.7,1.4c-2,0-3.4-1.3-3.4-3.6v-5.4h1.9v5.2c0,1.3,0.8,2.1,2,2.1
			c1.3,0,2.2-0.7,2.2-2.5v-4.7H224.2z"/>
		<path class="st1" d="M231.1,955.3v2.1c-1.3-0.1-2.7,0.5-2.7,2.5v4.5h-1.9v-8.9h1.9v1.5C228.9,955.7,229.9,955.3,231.1,955.3z"/>
		<path class="st1" d="M241,955.4v8.4c0,2.8-2.2,4.2-4.5,4.2c-1.9,0-3.5-0.7-4.2-2.1l1.6-1c0.4,0.8,1,1.4,2.6,1.4
			c1.6,0,2.6-0.9,2.6-2.4v-1.1c-0.7,1-1.7,1.5-3.1,1.5c-2.5,0-4.5-2-4.5-4.6s2-4.6,4.5-4.6c1.4,0,2.4,0.6,3.1,1.5v-1.3H241z
			 M239.1,959.8c0-1.6-1.2-2.8-2.8-2.8c-1.6,0-2.8,1.2-2.8,2.8s1.2,2.8,2.8,2.8C237.9,962.6,239.1,961.4,239.1,959.8z"/>
		<path class="st1" d="M247.6,962.8c1.1,0,1.9-0.5,2.3-1.1l1.6,0.9c-0.8,1.2-2.1,1.9-3.9,1.9c-2.9,0-4.8-2-4.8-4.7
			c0-2.6,1.9-4.7,4.7-4.7c2.6,0,4.4,2.1,4.4,4.7c0,0.3,0,0.5-0.1,0.8h-7C245,962.1,246.1,962.8,247.6,962.8z M249.9,959.1
			c-0.3-1.5-1.4-2.2-2.5-2.2c-1.4,0-2.4,0.8-2.7,2.2H249.9z"/>
		<path class="st1" d="M258.2,955.3v2.1c-1.3-0.1-2.7,0.5-2.7,2.5v4.5h-1.9v-8.9h1.9v1.5C256,955.7,257,955.3,258.2,955.3z"/>
	</g>
	<g>
		<g>
			<g>
				<path class="st1" d="M846.1,938.7c0,2.1-1.5,3.8-3.6,3.8h-3v-7.6h3C844.6,934.9,846.1,936.6,846.1,938.7z M845.2,938.7
					c0-1.6-1.1-2.9-2.6-2.9h-2v5.7h2C844.1,941.6,845.2,940.3,845.2,938.7z"/>
			</g>
			<g>
				<path class="st1" d="M849.3,938.7c0-2.2,1.7-4,3.9-4c2.2,0,4,1.8,4,4c0,2.2-1.7,4-4,4C851,942.7,849.3,940.9,849.3,938.7z
					 M856.1,938.7c0-1.7-1.3-3-2.9-3c-1.7,0-2.9,1.3-2.9,3c0,1.7,1.3,3,2.9,3C854.9,941.7,856.1,940.4,856.1,938.7z"/>
			</g>
			<g>
				<path class="st1" d="M859.8,934.9h1.1l1.7,6.3l1.9-6.3h1l1.9,6.3l1.7-6.3h1.1l-2.2,7.6h-1.2l-1.8-6.1l-1.8,6.1H862L859.8,934.9z
					"/>
			</g>
			<g>
				<path class="st1" d="M879.3,934.9v7.6h-0.8l-3.9-5.7v5.7h-1v-7.6h0.8l3.9,5.7v-5.7H879.3z"/>
			</g>
			<g>
				<path class="st1" d="M887.5,941.6v1h-4.3v-7.6h1v6.7H887.5z"/>
			</g>
			<g>
				<path class="st1" d="M889.9,938.7c0-2.2,1.7-4,3.9-4c2.2,0,4,1.8,4,4c0,2.2-1.7,4-4,4C891.6,942.7,889.9,940.9,889.9,938.7z
					 M896.8,938.7c0-1.7-1.3-3-2.9-3c-1.7,0-2.9,1.3-2.9,3c0,1.7,1.3,3,2.9,3C895.5,941.7,896.8,940.4,896.8,938.7z"/>
			</g>
			<g>
				<path class="st1" d="M905.4,940.8H902l-0.6,1.7h-1.1l2.8-7.6h1.1l2.8,7.6H906L905.4,940.8z M905.1,939.9l-1.4-3.8l-1.4,3.8
					H905.1z"/>
			</g>
			<g>
				<path class="st1" d="M916.9,938.7c0,2.1-1.5,3.8-3.6,3.8h-3v-7.6h3C915.4,934.9,916.9,936.6,916.9,938.7z M915.9,938.7
					c0-1.6-1.1-2.9-2.6-2.9h-2v5.7h2C914.9,941.6,915.9,940.3,915.9,938.7z"/>
			</g>
			<g>
				<path class="st1" d="M926.5,935.8v2.5h3.2v1h-3.2v3.2h-1v-7.6h4.4v1H926.5z"/>
			</g>
			<g>
				<path class="st1" d="M936.2,939.6h-1.8v2.9h-1v-7.6h3c1.3,0,2.4,1.1,2.4,2.4c0,1-0.7,1.9-1.6,2.2l1.8,3.1h-1.1L936.2,939.6z
					 M934.4,938.7h2c0.8,0,1.4-0.6,1.4-1.4c0-0.8-0.6-1.4-1.4-1.4h-2V938.7z"/>
			</g>
			<g>
				<path class="st1" d="M941.9,938.7c0-2.2,1.7-4,3.9-4c2.2,0,4,1.8,4,4c0,2.2-1.7,4-4,4C943.6,942.7,941.9,940.9,941.9,938.7z
					 M948.8,938.7c0-1.7-1.3-3-2.9-3c-1.7,0-2.9,1.3-2.9,3c0,1.7,1.3,3,2.9,3C947.5,941.7,948.8,940.4,948.8,938.7z"/>
			</g>
			<g>
				<path class="st1" d="M960.4,942.5h-1v-6l-2.5,4.2h-0.1l-2.5-4.1v5.9h-1v-7.6h1.1l2.4,4l2.4-4h1.1V942.5z"/>
			</g>
		</g>
		<g>
			<g>
				<path class="st1" d="M839.3,952.9c0-0.7,0.5-1.2,1.2-1.2c0.7,0,1.2,0.5,1.2,1.2c0,0.7-0.5,1.2-1.2,1.2
					C839.9,954.1,839.3,953.6,839.3,952.9z M839.6,955.4h1.9v8.9h-1.9V955.4z"/>
			</g>
			<g>
				<path class="st1" d="M843.7,951.4h1.9v12.9h-1.9V951.4z"/>
			</g>
			<g>
				<path class="st1" d="M847.8,951.4h1.9v12.9h-1.9V951.4z"/>
			</g>
			<g>
				<path class="st1" d="M852,951.4h1.9v12.9H852V951.4z"/>
			</g>
			<g>
				<path class="st1" d="M864,955.4v8.9h-1.9v-1.1c-0.6,0.9-1.5,1.4-2.7,1.4c-2,0-3.4-1.3-3.4-3.6v-5.4h1.9v5.2c0,1.3,0.8,2.1,2,2.1
					c1.3,0,2.2-0.7,2.2-2.5v-4.7H864z"/>
			</g>
			<g>
				<path class="st1" d="M872.6,961.8c0,1.8-1.5,2.7-3.5,2.7c-1.8,0-3-0.8-3.6-2.1l1.6-1c0.3,0.8,1,1.3,2,1.3c0.8,0,1.5-0.3,1.5-1
					c0-1.6-4.8-0.7-4.8-3.9c0-1.7,1.4-2.7,3.2-2.7c1.5,0,2.7,0.7,3.3,1.8l-1.6,0.9c-0.3-0.7-0.9-1-1.7-1c-0.7,0-1.3,0.3-1.3,0.9
					C867.9,959.5,872.6,958.5,872.6,961.8z"/>
			</g>
			<g>
				<path class="st1" d="M876.7,957.3v4.2c0,1.1,0.7,1.1,2.2,1v1.7c-2.9,0.4-4.1-0.5-4.1-2.8v-4.2h-1.6v-1.8h1.6v-1.9l1.9-0.6v2.5
					h2.2v1.8H876.7z"/>
			</g>
			<g>
				<path class="st1" d="M885.4,955.3v2.1c-1.3-0.1-2.7,0.5-2.7,2.5v4.5h-1.9v-8.9h1.9v1.5C883.2,955.7,884.2,955.3,885.4,955.3z"/>
			</g>
			<g>
				<path class="st1" d="M895.3,955.4v8.9h-1.9V963c-0.7,0.9-1.7,1.5-3.1,1.5c-2.4,0-4.4-2-4.4-4.7c0-2.6,2-4.7,4.4-4.7
					c1.4,0,2.4,0.6,3.1,1.5v-1.3H895.3z M893.4,959.9c0-1.6-1.2-2.8-2.8-2.8c-1.6,0-2.8,1.2-2.8,2.8c0,1.6,1.2,2.8,2.8,2.8
					C892.2,962.7,893.4,961.5,893.4,959.9z"/>
			</g>
			<g>
				<path class="st1" d="M900.3,957.3v4.2c0,1.1,0.7,1.1,2.2,1v1.7c-2.9,0.4-4.1-0.5-4.1-2.8v-4.2h-1.6v-1.8h1.6v-1.9l1.9-0.6v2.5
					h2.2v1.8H900.3z"/>
			</g>
			<g>
				<path class="st1" d="M903.9,952.9c0-0.7,0.5-1.2,1.2-1.2c0.7,0,1.2,0.5,1.2,1.2c0,0.7-0.5,1.2-1.2,1.2
					C904.5,954.1,903.9,953.6,903.9,952.9z M904.2,955.4h1.9v8.9h-1.9V955.4z"/>
			</g>
			<g>
				<path class="st1" d="M907.8,959.9c0-2.6,2.1-4.7,4.7-4.7c2.6,0,4.7,2,4.7,4.7c0,2.6-2.1,4.7-4.7,4.7
					C909.9,964.5,907.8,962.5,907.8,959.9z M915.3,959.9c0-1.6-1.2-2.8-2.8-2.8c-1.6,0-2.8,1.2-2.8,2.8c0,1.6,1.2,2.8,2.8,2.8
					C914.1,962.7,915.3,961.5,915.3,959.9z"/>
			</g>
			<g>
				<path class="st1" d="M927,958.9v5.4h-1.9v-5.2c0-1.3-0.8-2.1-2-2.1c-1.3,0-2.2,0.7-2.2,2.5v4.7h-1.9v-8.9h1.9v1.1
					c0.6-0.9,1.5-1.4,2.7-1.4C925.5,955.2,927,956.6,927,958.9z"/>
			</g>
			<g>
				<path class="st1" d="M935.5,961.8c0,1.8-1.5,2.7-3.5,2.7c-1.8,0-3-0.8-3.6-2.1l1.6-1c0.3,0.8,1,1.3,2,1.3c0.8,0,1.5-0.3,1.5-1
					c0-1.6-4.8-0.7-4.8-3.9c0-1.7,1.4-2.7,3.2-2.7c1.5,0,2.7,0.7,3.3,1.8l-1.6,0.9c-0.3-0.7-0.9-1-1.7-1c-0.7,0-1.3,0.3-1.3,0.9
					C930.7,959.5,935.5,958.5,935.5,961.8z"/>
			</g>
			<g>
				<path class="st1" d="M936.8,963.2c0-0.7,0.6-1.3,1.3-1.3c0.7,0,1.3,0.6,1.3,1.3c0,0.7-0.6,1.3-1.3,1.3
					C937.4,964.5,936.8,963.9,936.8,963.2z"/>
			</g>
			<g>
				<path class="st1" d="M940.3,959.9c0-2.6,2-4.7,4.7-4.7c1.7,0,3.2,0.9,3.9,2.3l-1.6,1c-0.4-0.8-1.3-1.4-2.3-1.4
					c-1.6,0-2.7,1.2-2.7,2.8c0,1.6,1.2,2.8,2.7,2.8c1.1,0,1.9-0.5,2.4-1.4l1.6,0.9c-0.7,1.4-2.2,2.3-4,2.3
					C942.3,964.5,940.3,962.5,940.3,959.9z"/>
			</g>
			<g>
				<path class="st1" d="M949.7,959.9c0-2.6,2.1-4.7,4.7-4.7c2.6,0,4.7,2,4.7,4.7c0,2.6-2.1,4.7-4.7,4.7
					C951.8,964.5,949.7,962.5,949.7,959.9z M957.2,959.9c0-1.6-1.2-2.8-2.8-2.8s-2.8,1.2-2.8,2.8c0,1.6,1.2,2.8,2.8,2.8
					S957.2,961.5,957.2,959.9z"/>
			</g>
		</g>
	</g>
</g>
<g id="XMLID_85_" class="st2">
	<polyline id="XMLID_86_" class="st3" points="625.9,290 655,213.4 742.8,197 	"/>
	<line id="XMLID_95_" class="st4" x1="261.4" y1="684.2" x2="771.8" y2="684.2"/>
	<g id="XMLID_84_">
		<polygon id="XMLID_1_" class="st4" points="700.6,684.2 561.1,684.2 518.9,380.1 742.8,380.1 		"/>
		<path id="XMLID_82_" class="st4" d="M771.8,380.1H488.4v-11.8c0-23,18.7-41.7,41.7-41.7h199.9c23,0,41.7,18.7,41.7,41.7V380.1z"/>
		<path id="XMLID_83_" class="st5" d="M731.1,326.6h-202v-0.9c0-19.8,16-35.8,35.8-35.8h130.5c19.8,0,35.8,16,35.8,35.8V326.6z"/>
		<path id="XMLID_87_" class="st4" d="M731.1,326.6h-202v-0.9c0-19.8,16-35.8,35.8-35.8h130.5c19.8,0,35.8,16,35.8,35.8V326.6z"/>
		<polygon id="XMLID_100_" class="st5" points="717.2,564.6 730.6,467.6 531.1,467.6 544.5,564.6 		"/>
		<polygon id="XMLID_93_" class="st4" points="717.2,564.6 730.6,467.6 531.1,467.6 544.5,564.6 		"/>
	</g>
</g>
<g id="XMLID_126_">
	<g id="XMLID_122_" class="st6">
		<line id="XMLID_124_" class="st7" x1="301" y1="516.1" x2="305.6" y2="516.1"/>
		<line id="XMLID_123_" class="st7" x1="303.3" y1="513.8" x2="303.3" y2="518.4"/>
	</g>
	<g id="XMLID_4_" class="st8">
		<line id="XMLID_89_" class="st7" x1="771.8" y1="535.5" x2="776.4" y2="535.5"/>
		<line id="XMLID_88_" class="st7" x1="774.1" y1="533.2" x2="774.1" y2="537.8"/>
	</g>
	<g id="XMLID_119_">
		<line id="XMLID_121_" class="st9" x1="252.7" y1="516.1" x2="242.7" y2="516.1"/>
		<line id="XMLID_120_" class="st9" x1="247.7" y1="511.1" x2="247.7" y2="521.1"/>
	</g>
	<g id="XMLID_116_" class="st10">
		<line id="XMLID_118_" class="st9" x1="747.9" y1="500" x2="737.6" y2="500"/>
		<line id="XMLID_117_" class="st9" x1="742.8" y1="494.8" x2="742.8" y2="505.2"/>
	</g>
	<g id="XMLID_113_" class="st11">
		<line id="XMLID_115_" class="st12" x1="288.5" y1="604.5" x2="298.5" y2="604.5"/>
		<line id="XMLID_114_" class="st12" x1="293.5" y1="599.5" x2="293.5" y2="609.5"/>
	</g>
	<g id="XMLID_97_" class="st6">
		<line id="XMLID_109_" class="st13" x1="670.4" y1="604.5" x2="677.8" y2="604.5"/>
		<line id="XMLID_108_" class="st13" x1="674.1" y1="600.8" x2="674.1" y2="608.2"/>
	</g>
	<circle id="XMLID_92_" class="st14" cx="742.8" cy="570.6" r="4.8"/>
	<circle id="XMLID_91_" class="st15" cx="278.4" cy="555.1" r="3.8"/>
	<circle id="XMLID_90_" class="st16" cx="730.6" cy="631.4" r="3.3"/>
</g>
<g>
	<g id="XMLID_96_">
		<path id="XMLID_13_" class="st17" d="M586.4,684H413.6c-35.7,0-64.6-28.8-64.6-64.5v-0.1c0-6.3,5.1-11.5,11.5-11.5h279.1
			c6.3,0,11.5,5.2,11.5,11.6v-0.1C651,655.1,622.1,684,586.4,684z"/>
		<g id="XMLID_98_" class="st18">
			<path id="XMLID_72_" class="st17" d="M414,619.5L414,619.5c0-6.4,5.1-11.6,11.5-11.6h-65c-6.3,0-11.5,5.2-11.5,11.5v0.1
				c0,35.7,28.9,64.5,64.6,64.5h65C442.9,684,414,655.2,414,619.5z"/>
			<path id="XMLID_102_" class="st17" d="M349.2,620.1h301.5c-1.1-6-5.7-10.6-11.2-10.6H360.5C355,609.4,350.4,614,349.2,620.1z"/>
		</g>
	</g>
	<path id="XMLID_2_" class="st19" d="M586.4,684H413.6c-35.7,0-64.6-28.8-64.6-64.5v-0.1c0-6.3,5.1-11.5,11.5-11.5h279.1
		c6.3,0,11.5,5.2,11.5,11.6v-0.1C651,655.1,622.1,684,586.4,684z"/>
	<g id="XMLID_70_">
		<path id="XMLID_11_" class="st17" d="M512.1,380.2h-24.9c-76.5,0-138.1,42.7-138.1,94.2v-0.1c0,11.1,12.9,19.9,29.3,19.9h242.6
			c16.4,0,30.1-8.8,30.1-19.9v0C651,422.9,588.6,380.2,512.1,380.2z"/>
		<path id="XMLID_71_" class="st17" d="M512.1,380.2h-24.9c-76.5,0-138.1,42.7-138.1,94.2v-0.1c0,11.1,12.9,19.9,29.3,19.9h242.6
			c16.4,0,30.1-8.8,30.1-19.9v0C651,422.9,588.6,380.2,512.1,380.2z"/>
		<g id="XMLID_77_" class="st20">
			<path id="XMLID_78_" class="st17" d="M349,474.5C349,474.5,349,474.4,349,474.5c0-0.1,0-0.1,0-0.1V474.5z"/>
			<path id="XMLID_79_" class="st17" d="M532.4,381.3c-6.6-0.7-13.4-1-20.4-1h-24.9c-76.5,0-138.1,42.7-138.1,94.2
				c0,11,12.9,19.8,29.3,19.8h39.3v-16.9C426.9,426.2,467.7,387.9,532.4,381.3z"/>
		</g>
		<path id="XMLID_12_" class="st19" d="M512.1,380.2h-24.9c-76.5,0-138.1,42.7-138.1,94.2v-0.1c0,11.1,12.9,19.9,29.3,19.9h242.6
			c16.4,0,30.1-8.8,30.1-19.9v0C651,422.9,588.6,380.2,512.1,380.2z"/>
	</g>
	<g id="XMLID_46_">
		<path id="XMLID_15_" class="st21" d="M657.1,575.3c0,18-14.6,32.6-32.6,32.6H375.6c-18,0-32.6-14.6-32.6-32.6v0
			c0-18,14.6-32.6,32.6-32.6h248.9C642.5,542.7,657.1,557.3,657.1,575.3L657.1,575.3z"/>
		<g id="XMLID_49_" class="st6">
			<circle id="XMLID_48_" class="st22" cx="359.9" cy="583.1" r="2.3"/>
			<circle id="XMLID_50_" class="st22" cx="375.4" cy="593.4" r="2.3"/>
			<circle id="XMLID_51_" class="st22" cx="365.6" cy="593.4" r="2.3"/>
			<circle id="XMLID_54_" class="st22" cx="359.9" cy="575.2" r="2.3"/>
			<circle id="XMLID_53_" class="st22" cx="373.1" cy="580.8" r="2.3"/>
			<circle id="XMLID_68_" class="st22" cx="409.1" cy="587.7" r="2.3"/>
			<circle id="XMLID_69_" class="st22" cx="451.4" cy="583.1" r="2.3"/>
			<circle id="XMLID_52_" class="st22" cx="611.6" cy="593.4" r="2.3"/>
			<circle id="XMLID_56_" class="st22" cx="597.4" cy="593.4" r="2.3"/>
			<circle id="XMLID_57_" class="st22" cx="588.6" cy="593.4" r="2.3"/>
			<circle id="XMLID_58_" class="st22" cx="593.2" cy="587.7" r="2.3"/>
			<circle id="XMLID_59_" class="st22" cx="635.5" cy="575.2" r="2.3"/>
			<circle id="XMLID_60_" class="st22" cx="633.2" cy="587.7" r="2.3"/>
			<circle id="XMLID_61_" class="st22" cx="613.9" cy="572.9" r="2.3"/>
			<circle id="XMLID_62_" class="st22" cx="531.6" cy="593.4" r="2.3"/>
			<circle id="XMLID_63_" class="st22" cx="511.1" cy="593.4" r="2.3"/>
			<circle id="XMLID_64_" class="st22" cx="519.2" cy="593.4" r="2.3"/>
			<circle id="XMLID_65_" class="st22" cx="488.4" cy="593.4" r="2.3"/>
			<circle id="XMLID_66_" class="st22" cx="478.6" cy="589.9" r="2.3"/>
			<circle id="XMLID_67_" class="st22" cx="448.2" cy="592.2" r="2.3"/>
		</g>
		<g id="XMLID_94_" class="st2">
			<path id="XMLID_73_" class="st21" d="M406.3,590.3v-30c0-9.7,7.9-17.6,17.6-17.6h-48.4c-18,0-32.6,14.6-32.6,32.6v0
				c0,18,14.6,32.6,32.6,32.6H424C414.2,607.9,406.3,600,406.3,590.3z"/>
			<path id="XMLID_99_" class="st21" d="M624.4,547.7H375.6c-18,0-32.6,14.6-32.6,32.6v0c0,0.5,0,0.9,0,1.4c7.3-1.8,17-3.5,26.6-3.5
				c9.8,0,14.3,1.7,19.6,3.7c5.6,2.1,11.9,4.4,23.8,4.4c11.9,0,18.2-2.4,23.8-4.4c5.3-2,9.8-3.7,19.6-3.7s14.3,1.7,19.6,3.7
				c5.6,2.1,11.9,4.4,23.8,4.4c11.9,0,18.2-2.4,23.8-4.5c5.3-2,9.8-3.7,19.6-3.7c9.8,0,14.3,1.7,19.6,3.7c5.6,2.1,11.9,4.5,23.8,4.5
				c11.9,0,18.2-2.4,23.8-4.5c5.3-2,9.8-3.7,19.6-3.7c9.7,0,14.2,1.7,19.4,3.7c2.2,0.8,4.7,1.8,7.6,2.5c0.2-1.3,0.3-2.7,0.3-4.1v0
				C657.1,562.3,642.5,547.7,624.4,547.7z"/>
		</g>
		<path id="XMLID_5_" class="st19" d="M657.1,575.3c0,18-14.6,32.6-32.6,32.6H375.6c-18,0-32.6-14.6-32.6-32.6v0
			c0-18,14.6-32.6,32.6-32.6h248.9C642.5,542.7,657.1,557.3,657.1,575.3L657.1,575.3z"/>
	</g>
	<g id="XMLID_44_">
		<path id="XMLID_16_" class="st23" d="M651,535.4c0,4-3.2,7.2-7.2,7.2H356.2c-4,0-7.2-3.2-7.2-7.2v-16.9c0-4,3.2-7.2,7.2-7.2h287.5
			c4,0,7.2,3.2,7.2,7.2V535.4z"/>
		<path id="XMLID_55_" class="st23" d="M651,535.4c0,4-3.2,7.2-7.2,7.2H356.2c-4,0-7.2-3.2-7.2-7.2v-16.9c0-4,3.2-7.2,7.2-7.2h287.5
			c4,0,7.2,3.2,7.2,7.2V535.4z"/>
		<path id="XMLID_75_" class="st24" d="M403.9,535.4v-16.9c0-4,3.2-7.2,7.2-7.2h-54.9c-4,0-7.2,3.2-7.2,7.2v16.9
			c0,4,3.2,7.2,7.2,7.2h54.9C407.1,542.7,403.9,539.4,403.9,535.4z"/>
		<rect id="XMLID_45_" x="520.7" y="511.2" class="st25" width="22.7" height="31.4"/>
		<rect id="XMLID_47_" x="550.4" y="511.2" class="st25" width="6.6" height="31.4"/>
		<path id="XMLID_7_" class="st19" d="M651,535.4c0,4-3.2,7.2-7.2,7.2H356.2c-4,0-7.2-3.2-7.2-7.2v-16.9c0-4,3.2-7.2,7.2-7.2h287.5
			c4,0,7.2,3.2,7.2,7.2V535.4z"/>
	</g>
	<g id="XMLID_74_">
		<path id="XMLID_14_" class="st26" d="M326.5,533.2L326.5,533.2c11.3-23.5,39.5-38.9,70.9-38.9h205.3c31.4,0,59.5,15.5,70.9,38.9v0
			c-21.7,0-21.7-19.3-43.4-19.3c-21.7,0-21.7,19.3-43.4,19.3c-21.7,0-21.7-19.3-43.4-19.3c-21.7,0-21.7,19.3-43.4,19.3
			c-21.7,0-21.7-19.3-43.4-19.3c-21.7,0-21.7,19.3-43.4,19.3c-21.7,0-21.7-19.3-43.4-19.3S348.2,533.2,326.5,533.2z"/>
		<path id="XMLID_80_" class="st27" d="M634.1,500c-12-6.1-16.6-5.8-31.5-5.8H419h-5h-16.7c-31.4,0-59.5,15.5-70.9,38.9v0
			c21.7,0,21.7-19.3,43.4-19.3c13.9,0,25,11.6,32.5,17.3l2.4-2.7c4.5-5.1,8-11,10.4-17.3c2.6-6.6,8.9-11,16-11L634.1,500z"/>
		<path id="XMLID_8_" class="st19" d="M326.5,533.2L326.5,533.2c11.3-23.5,39.5-38.9,70.9-38.9h205.3c31.4,0,59.5,15.5,70.9,38.9v0
			c-21.7,0-21.7-19.3-43.4-19.3c-21.7,0-21.7,19.3-43.4,19.3c-21.7,0-21.7-19.3-43.4-19.3c-21.7,0-21.7,19.3-43.4,19.3
			c-21.7,0-21.7-19.3-43.4-19.3c-21.7,0-21.7,19.3-43.4,19.3c-21.7,0-21.7-19.3-43.4-19.3S348.2,533.2,326.5,533.2z"/>
	</g>
	<g id="XMLID_76_">
		<path id="XMLID_9_" class="st28" d="M328.6,564.6c-1,4.6,4.2,8.5,9.5,7.1c8.3-2.2,19.9-4.6,31.5-4.6c21.7,0,21.7,8.1,43.4,8.1
			c21.7,0,21.7-8.1,43.4-8.1c21.7,0,21.7,8.1,43.4,8.1c21.7,0,21.7-8.1,43.4-8.1c21.7,0,21.7,8.1,43.4,8.1c21.7,0,21.7-8.1,43.3-8.1
			c17.5,0,20.6,5.3,32.8,7.3c5.1,0.9,9.7-3,8.7-7.3l-0.9-1.9c-6.5-13.7-22.3-22.7-39.8-22.7H368.1
			C350.9,542.7,335.4,551.3,328.6,564.6L328.6,564.6z"/>
		<path id="XMLID_81_" class="st29" d="M656,549.7c-7.2-4.4-16-7-25.4-7H418.5h-7.4h-6.4h-36.6c-17.2,0-32.8,8.6-39.5,22h0
			c-1,4.6,4.2,8.5,9.5,7.1c8.3-2.2,19.9-4.6,31.5-4.6c10.6,0,16,1.9,21.3,3.9l2-1.6c2.8-2.2,6-6,8.7-9.7
			c4.7-6.4,12.2-10.1,20.1-10.1H656z"/>
		<path id="XMLID_6_" class="st19" d="M328.6,564.6c-1,4.6,4.2,8.5,9.5,7.1c8.3-2.2,19.9-4.6,31.5-4.6c21.7,0,21.7,8.1,43.4,8.1
			c21.7,0,21.7-8.1,43.4-8.1c21.7,0,21.7,8.1,43.4,8.1c21.7,0,21.7-8.1,43.4-8.1c21.7,0,21.7,8.1,43.4,8.1c21.7,0,21.7-8.1,43.3-8.1
			c17.5,0,20.6,5.3,32.8,7.3c5.1,0.9,9.7-3,8.7-7.3l-0.9-1.9c-6.5-13.7-22.3-22.7-39.8-22.7H368.1
			C350.9,542.7,335.4,551.3,328.6,564.6L328.6,564.6z"/>
	</g>
	<path id="XMLID_17_" class="st19" d="M417.6,655L417.6,655c-6.2,0-11.3-5-11.3-11.3v-35.8h22.5v35.8
		C428.9,649.9,423.8,655,417.6,655z"/>
	<path id="XMLID_10_" class="st23" d="M417.6,655L417.6,655c-6.2,0-11.3-5-11.3-11.3v-35.8h22.5v35.8
		C428.9,649.9,423.8,655,417.6,655z"/>
	<path id="XMLID_20_" class="st23" d="M456,632.2L456,632.2c-5,0-9.1-4.1-9.1-9.1v-15.3h18.1v15.3C465.1,628.2,461,632.2,456,632.2z
		"/>
	<path id="XMLID_19_" class="st19" d="M456,632.2L456,632.2c-5,0-9.1-4.1-9.1-9.1v-15.3h18.1v15.3C465.1,628.2,461,632.2,456,632.2z
		"/>
	<path id="XMLID_18_" class="st19" d="M417.6,655L417.6,655c-6.2,0-11.3-5-11.3-11.3v-35.8h22.5v35.8
		C428.9,649.9,423.8,655,417.6,655z"/>
	<path id="XMLID_22_" class="st23" d="M565.7,661.8L565.7,661.8c-9.3,0-16.9-7.6-16.9-16.9v-37h33.8v37
		C582.6,654.3,575.1,661.8,565.7,661.8z"/>
	<path id="XMLID_21_" class="st19" d="M565.7,661.8L565.7,661.8c-9.3,0-16.9-7.6-16.9-16.9v-37h33.8v37
		C582.6,654.3,575.1,661.8,565.7,661.8z"/>
	<g>
		<circle id="XMLID_42_" class="st22" cx="392.5" cy="639.8" r="3.6"/>
		<circle id="XMLID_41_" class="st22" cx="596.1" cy="661.8" r="2"/>
		<circle id="XMLID_40_" class="st22" cx="496.1" cy="660.8" r="1.5"/>
		<circle id="XMLID_39_" class="st22" cx="483.8" cy="636.5" r="3.9"/>
		<circle id="XMLID_37_" class="st22" cx="457.6" cy="655.7" r="1.5"/>
		<circle id="XMLID_38_" class="st22" cx="526.4" cy="645.9" r="6.1"/>
		<circle id="XMLID_103_" class="st22" cx="600.8" cy="638.2" r="2.8"/>
		<circle id="XMLID_101_" class="st22" cx="509.4" cy="632.1" r="2.1"/>
	</g>
	<g id="XMLID_24_">
		<circle id="XMLID_23_" class="st22" cx="427.9" cy="423.8" r="3.9"/>
		<circle id="XMLID_25_" class="st22" cx="487.7" cy="438.8" r="3.9"/>
		<circle id="XMLID_34_" class="st22" cx="510.2" cy="452.1" r="2"/>
		<circle id="XMLID_33_" class="st22" cx="581.7" cy="428.5" r="3"/>
		<circle id="XMLID_43_" class="st22" cx="508.2" cy="404.5" r="6.1"/>
		<circle id="XMLID_30_" class="st22" cx="554.9" cy="416.9" r="4.7"/>
		<circle id="XMLID_31_" class="st22" cx="453.7" cy="439.9" r="2.4"/>
		<circle id="XMLID_27_" class="st22" cx="526.4" cy="428.5" r="4"/>
		<circle id="XMLID_26_" class="st22" cx="480.3" cy="412.2" r="1.5"/>
		<circle id="XMLID_32_" class="st22" cx="437.1" cy="454.7" r="1.5"/>
		<circle id="XMLID_36_" class="st22" cx="599.8" cy="432.4" r="0.8"/>
		<circle id="XMLID_35_" class="st22" cx="456.1" cy="410.6" r="1.5"/>
		<circle id="XMLID_28_" class="st22" cx="568.5" cy="452.6" r="1.5"/>
		<circle id="XMLID_29_" class="st22" cx="544.8" cy="438.8" r="1.2"/>
	</g>
	<line id="XMLID_110_" class="st9" x1="357.8" y1="398.4" x2="365.8" y2="404.5"/>
	<line id="XMLID_111_" class="st9" x1="366.8" y1="385.9" x2="374.3" y2="397.4"/>
	<line id="XMLID_112_" class="st9" x1="383.5" y1="378.8" x2="383.5" y2="392.6"/>
</g>
</svg>
