<svg id="Layer_1" data-name="Layer 1" xmlns="http://www.w3.org/2000/svg" viewBox="0 0 1000 1000"><defs><style>.cls-1{fill:#fff;}.cls-2{fill:#e4e8ec;}.cls-3{fill:#606060;}.cls-4{fill:#91bbfd;}.cls-5{fill:#ffc195;}.cls-6{fill:#ffa688;}.cls-7{fill:none;stroke:#171819;stroke-linecap:round;stroke-linejoin:round;stroke-width:6px;}.cls-8{fill:#ffdc00;}.cls-9{fill:#ff9770;}</style></defs><rect class="cls-1" width="1000" height="1000"/><ellipse class="cls-2" cx="495.92" cy="869.82" rx="258.35" ry="45.2"/><path class="cls-3" d="M63.2,959.2c0,2.5-1.2,3.7-2.6,3.7a1.93,1.93,0,0,1-2.1-1.4,2.2,2.2,0,0,1-1.8.8,2.81,2.81,0,0,1,0-5.6,2.18,2.18,0,0,1,1.6.7v-.5h1.6v3.9c0,.8.3,1.4,1,1.4.9,0,1.7-.9,1.7-3a5.23,5.23,0,0,0-5.4-5.3,5.55,5.55,0,0,0-5.6,5.7,5.62,5.62,0,0,0,5.9,5.7,11.93,11.93,0,0,0,2.9-.4v.6a8.12,8.12,0,0,1-2.9.4,6.2,6.2,0,1,1-.3-12.4A5.59,5.59,0,0,1,63.2,959.2Zm-4.9.3a1.35,1.35,0,0,0-1.3-1.4,1.24,1.24,0,0,0-1.3,1.4,1.26,1.26,0,0,0,1.3,1.3C57.8,960.9,58.3,960.3,58.3,959.5Z"/><path class="cls-3" d="M69.4,955.1v2a2.24,2.24,0,0,0-2.6,2.4v4.3H64.9v-8.6h1.9v1.4A2.63,2.63,0,0,1,69.4,955.1Z"/><path class="cls-3" d="M74.6,962.3a2.64,2.64,0,0,0,2.2-1.1l1.5.9a4.35,4.35,0,0,1-3.8,1.9,4.41,4.41,0,0,1-4.7-4.5,4.36,4.36,0,0,1,4.5-4.5,4.31,4.31,0,0,1,4.3,4.5,2.2,2.2,0,0,1-.1.8H71.7A2.83,2.83,0,0,0,74.6,962.3Zm2.3-3.5a2.37,2.37,0,0,0-2.5-2.1,2.51,2.51,0,0,0-2.6,2.1Z"/><path class="cls-3" d="M88.9,955.2v8.6H87v-1.2a3.69,3.69,0,0,1-3,1.5,4.44,4.44,0,0,1-4.3-4.5,4.32,4.32,0,0,1,4.3-4.5,3.61,3.61,0,0,1,3,1.4v-1.2h1.9Zm-1.8,4.3a2.7,2.7,0,1,0-2.7,2.7A2.57,2.57,0,0,0,87.1,959.5Z"/><path class="cls-3" d="M91.1,951.3H93v12.5H91.1Z"/><path class="cls-3" d="M102.9,955.2l-3.3,8.6H97.5l-3.3-8.6h2l2.4,6.5,2.4-6.5Z"/><path class="cls-3" d="M104.2,955.2h1.9v8.9c0,2.4-1.2,3.5-3.5,3.3v-1.8c1.1.1,1.7-.3,1.7-1.5v-8.9Zm-.2-2.4a1.2,1.2,0,0,1,2.4,0,1.2,1.2,0,1,1-2.4,0Z"/><path class="cls-3" d="M116,955.2l-3.3,8.8c-.8,2.2-2.2,3.3-4.2,3.2v-1.7a2.08,2.08,0,0,0,2.3-1.7l.1-.2-3.6-8.4h2l2.6,6.2,2.2-6.2Z"/><path class="cls-3" d="M58.9,938.7a3.63,3.63,0,0,1-3.6,3.8h-3v-7.6h3A3.63,3.63,0,0,1,58.9,938.7Zm-1,0a2.72,2.72,0,0,0-2.6-2.9h-2v5.7h2A2.58,2.58,0,0,0,57.9,938.7Z"/><path class="cls-3" d="M67,941.6v1H62.4V935h4.5v1H63.4v2.3h3.2v.9H63.4v2.4Z"/><path class="cls-3" d="M70,940.8l.9-.5a2,2,0,0,0,2,1.4c1.1,0,1.6-.5,1.6-1.2s-.7-1-1.8-1.4-2.4-.8-2.4-2.2a2.21,2.21,0,0,1,2.4-2.2,2.66,2.66,0,0,1,2.6,1.7l-.8.5a1.74,1.74,0,0,0-1.7-1.2c-.8,0-1.4.4-1.4,1.1s.5,1,1.6,1.3c1.3.4,2.6.8,2.6,2.3a2.33,2.33,0,0,1-2.6,2.2A2.85,2.85,0,0,1,70,940.8Z"/><path class="cls-3" d="M80,934.9v7.6H79v-7.6Z"/><path class="cls-3" d="M91.3,939.2a3.47,3.47,0,0,1-3.7,3.5,3.89,3.89,0,0,1-4-4,4,4,0,0,1,7.3-2.2l-.9.5a2.77,2.77,0,0,0-2.4-1.4,3,3,0,0,0,0,6,2.5,2.5,0,0,0,2.7-2H87.5v-.9h3.8Z"/><path class="cls-3" d="M100.6,934.9v7.6h-.8l-3.9-5.7v5.7h-1v-7.6h.8l3.9,5.7v-5.7Z"/><path class="cls-3" d="M109.1,941.6v1h-4.6V935H109v1h-3.5v2.3h3.2v.9h-3.2v2.4Z"/><path class="cls-3" d="M119.2,938.7a3.63,3.63,0,0,1-3.6,3.8h-3v-7.6h3A3.7,3.7,0,0,1,119.2,938.7Zm-1,0a2.72,2.72,0,0,0-2.6-2.9h-2v5.7h2A2.58,2.58,0,0,0,118.2,938.7Z"/><path class="cls-3" d="M133.2,940.4a2.22,2.22,0,0,1-2.2,2.2h-3.3V935h3a2.05,2.05,0,0,1,2.1,2.1,1.94,1.94,0,0,1-.8,1.6A1.66,1.66,0,0,1,133.2,940.4Zm-4.5-4.6v2.3h2a1.13,1.13,0,0,0,1.1-1.2,1.2,1.2,0,0,0-1.1-1.2h-2Zm3.5,4.5a1.16,1.16,0,0,0-1.2-1.2h-2.3v2.5H131A1.24,1.24,0,0,0,132.2,940.3Z"/><path class="cls-3" d="M139.4,939.4v3.1h-1v-3.1l-2.7-4.5h1.1l2.1,3.6,2.1-3.6h1.1Z"/><path class="cls-3" d="M846.1,938.7a3.63,3.63,0,0,1-3.6,3.8h-3v-7.6h3A3.63,3.63,0,0,1,846.1,938.7Zm-.9,0a2.72,2.72,0,0,0-2.6-2.9h-2v5.7h2A2.58,2.58,0,0,0,845.2,938.7Z"/><path class="cls-3" d="M849.3,938.7a3.93,3.93,0,0,1,3.9-4,4,4,0,0,1,4,4,4,4,0,1,1-7.9,0Zm6.8,0a2.93,2.93,0,0,0-2.9-3,2.86,2.86,0,0,0-2.9,3,2.93,2.93,0,0,0,2.9,3A2.86,2.86,0,0,0,856.1,938.7Z"/><path class="cls-3" d="M859.8,934.9h1.1l1.7,6.3,1.9-6.3h1l1.9,6.3,1.7-6.3h1.1l-2.2,7.6h-1.2l-1.8-6.1-1.8,6.1H862Z"/><path class="cls-3" d="M879.3,934.9v7.6h-.8l-3.9-5.7v5.7h-1v-7.6h.8l3.9,5.7v-5.7Z"/><path class="cls-3" d="M887.5,941.6v1h-4.3V935h1v6.7h3.3Z"/><path class="cls-3" d="M889.9,938.7a3.93,3.93,0,0,1,3.9-4,4,4,0,0,1,4,4,4,4,0,1,1-7.9,0Zm6.9,0a2.93,2.93,0,0,0-2.9-3,2.86,2.86,0,0,0-2.9,3,2.9,2.9,0,1,0,5.8,0Z"/><path class="cls-3" d="M905.4,940.8H902l-.6,1.7h-1.1l2.8-7.6h1.1l2.8,7.6h-1Zm-.3-.9-1.4-3.8-1.4,3.8Z"/><path class="cls-3" d="M916.9,938.7a3.63,3.63,0,0,1-3.6,3.8h-3v-7.6h3A3.63,3.63,0,0,1,916.9,938.7Zm-1,0a2.72,2.72,0,0,0-2.6-2.9h-2v5.7h2A2.52,2.52,0,0,0,915.9,938.7Z"/><path class="cls-3" d="M926.5,935.8v2.5h3.2v1h-3.2v3.2h-1v-7.6h4.4v1h-3.4Z"/><path class="cls-3" d="M936.2,939.6h-1.8v2.9h-1v-7.6h3a2.43,2.43,0,0,1,2.4,2.4,2.38,2.38,0,0,1-1.6,2.2l1.8,3.1h-1.1Zm-1.8-.9h2a1.4,1.4,0,0,0,0-2.8h-2Z"/><path class="cls-3" d="M941.9,938.7a3.93,3.93,0,0,1,3.9-4,4,4,0,0,1,4,4,4,4,0,1,1-7.9,0Zm6.9,0a2.93,2.93,0,0,0-2.9-3,2.86,2.86,0,0,0-2.9,3,2.9,2.9,0,1,0,5.8,0Z"/><path class="cls-3" d="M960.4,942.5h-1v-6l-2.5,4.2h-.1l-2.5-4.1v5.9h-1v-7.6h1.1l2.4,4,2.4-4h1.1v7.6Z"/><path class="cls-3" d="M839.3,952.9a1.2,1.2,0,1,1,1.2,1.2A1.22,1.22,0,0,1,839.3,952.9Zm.3,2.5h1.9v8.9h-1.9Z"/><path class="cls-3" d="M843.7,951.4h1.9v12.9h-1.9Z"/><path class="cls-3" d="M847.8,951.4h1.9v12.9h-1.9Z"/><path class="cls-3" d="M852,951.4h1.9v12.9H852Z"/><path class="cls-3" d="M864,955.4v8.9h-1.9v-1.1a3.07,3.07,0,0,1-2.7,1.4A3.26,3.26,0,0,1,856,961v-5.4h1.9v5.2a1.92,1.92,0,0,0,2,2.1c1.3,0,2.2-.7,2.2-2.5v-4.7H864Z"/><path class="cls-3" d="M872.6,961.8c0,1.8-1.5,2.7-3.5,2.7a3.66,3.66,0,0,1-3.6-2.1l1.6-1a2,2,0,0,0,2,1.3c.8,0,1.5-.3,1.5-1,0-1.6-4.8-.7-4.8-3.9,0-1.7,1.4-2.7,3.2-2.7a3.63,3.63,0,0,1,3.3,1.8l-1.6.9a1.67,1.67,0,0,0-1.7-1c-.7,0-1.3.3-1.3.9C867.9,959.5,872.6,958.5,872.6,961.8Z"/><path class="cls-3" d="M876.7,957.3v4.2c0,1.1.7,1.1,2.2,1v1.7c-2.9.4-4.1-.5-4.1-2.8v-4.2h-1.6v-1.8h1.6v-1.9l1.9-.6v2.5h2.2v1.8h-2.2Z"/><path class="cls-3" d="M885.4,955.3v2.1a2.31,2.31,0,0,0-2.7,2.5v4.5h-1.9v-8.9h1.9V957A2.58,2.58,0,0,1,885.4,955.3Z"/><path class="cls-3" d="M895.3,955.4v8.9h-1.9V963a3.75,3.75,0,0,1-3.1,1.5,4.51,4.51,0,0,1-4.4-4.7,4.57,4.57,0,0,1,4.4-4.7,3.75,3.75,0,0,1,3.1,1.5v-1.3h1.9Zm-1.9,4.5a2.8,2.8,0,1,0-2.8,2.8A2.73,2.73,0,0,0,893.4,959.9Z"/><path class="cls-3" d="M900.3,957.3v4.2c0,1.1.7,1.1,2.2,1v1.7c-2.9.4-4.1-.5-4.1-2.8v-4.2h-1.6v-1.8h1.6v-1.9l1.9-.6v2.5h2.2v1.8h-2.2Z"/><path class="cls-3" d="M903.9,952.9a1.2,1.2,0,1,1,1.2,1.2A1.22,1.22,0,0,1,903.9,952.9Zm.3,2.5h1.9v8.9h-1.9Z"/><path class="cls-3" d="M907.8,959.9a4.69,4.69,0,0,1,4.7-4.7,4.63,4.63,0,0,1,4.7,4.7,4.69,4.69,0,0,1-4.7,4.7A4.76,4.76,0,0,1,907.8,959.9Zm7.5,0a2.8,2.8,0,1,0-2.8,2.8A2.73,2.73,0,0,0,915.3,959.9Z"/><path class="cls-3" d="M927,958.9v5.4h-1.9v-5.2a1.92,1.92,0,0,0-2-2.1c-1.3,0-2.2.7-2.2,2.5v4.7H919v-8.9h1.9v1.1a3.07,3.07,0,0,1,2.7-1.4A3.7,3.7,0,0,1,927,958.9Z"/><path class="cls-3" d="M935.5,961.8c0,1.8-1.5,2.7-3.5,2.7a3.66,3.66,0,0,1-3.6-2.1l1.6-1a2,2,0,0,0,2,1.3c.8,0,1.5-.3,1.5-1,0-1.6-4.8-.7-4.8-3.9,0-1.7,1.4-2.7,3.2-2.7a3.63,3.63,0,0,1,3.3,1.8l-1.6.9a1.67,1.67,0,0,0-1.7-1c-.7,0-1.3.3-1.3.9C930.7,959.5,935.5,958.5,935.5,961.8Z"/><path class="cls-3" d="M936.8,963.2a1.3,1.3,0,1,1,1.3,1.3A1.32,1.32,0,0,1,936.8,963.2Z"/><path class="cls-3" d="M940.3,959.9a4.63,4.63,0,0,1,4.7-4.7,4.31,4.31,0,0,1,3.9,2.3l-1.6,1a2.61,2.61,0,0,0-2.3-1.4,2.65,2.65,0,0,0-2.7,2.8,2.71,2.71,0,0,0,2.7,2.8,2.59,2.59,0,0,0,2.4-1.4l1.6.9a4.35,4.35,0,0,1-4,2.3A4.55,4.55,0,0,1,940.3,959.9Z"/><path class="cls-3" d="M949.7,959.9a4.69,4.69,0,0,1,4.7-4.7,4.63,4.63,0,0,1,4.7,4.7,4.69,4.69,0,0,1-4.7,4.7A4.76,4.76,0,0,1,949.7,959.9Zm7.5,0a2.8,2.8,0,1,0-2.8,2.8A2.73,2.73,0,0,0,957.2,959.9Z"/><path class="cls-3" d="M209.89,943.1a4.12,4.12,0,1,1,2-7.72,3.7,3.7,0,0,1,1.42,1.41l-.92.53a2.49,2.49,0,0,0-1-1.05,2.93,2.93,0,0,0-1.49-.39,3.09,3.09,0,1,0,0,6.18,2.93,2.93,0,0,0,1.49-.39,2.52,2.52,0,0,0,1-1l.92.53a3.63,3.63,0,0,1-1.42,1.41A4,4,0,0,1,209.89,943.1Z"/><path class="cls-3" d="M222.1,941.89a4.11,4.11,0,0,1-7-2.91,4,4,0,0,1,1.19-2.93,4.13,4.13,0,0,1,5.84,5.84Zm-5.1-.72a2.9,2.9,0,0,0,2.18.89,2.94,2.94,0,0,0,2.19-.89,3.19,3.19,0,0,0,0-4.4,2.94,2.94,0,0,0-2.19-.89,2.9,2.9,0,0,0-2.18.89,3.19,3.19,0,0,0,0,4.4Z"/><path class="cls-3" d="M227.31,943l-2.84-8h1.14l2.3,6.63L230.2,935h1.15l-2.85,8Z"/><path class="cls-3" d="M233.29,935h1.06v8h-1.06Z"/><path class="cls-3" d="M240.16,935a3.51,3.51,0,0,1,2.69,1.16,4.25,4.25,0,0,1,0,5.64,3.54,3.54,0,0,1-2.69,1.15h-3.1v-8Zm0,7a2.53,2.53,0,0,0,2-.85,3.28,3.28,0,0,0,0-4.25,2.56,2.56,0,0,0-2-.85h-2v6Z"/><path class="cls-3" d="M246.22,939.94v-1h4.14v1Z"/><path class="cls-3" d="M255.28,937.75a2.74,2.74,0,0,1,2,.74,2.8,2.8,0,0,1,0,3.86,2.95,2.95,0,0,1-3.93,0,2.6,2.6,0,0,1-.77-1.93,2.63,2.63,0,0,1,.48-1.59l2.55-3.83h1.2l-1.87,2.77Zm-1.22,3.88a1.85,1.85,0,0,0,2.44,0,1.79,1.79,0,0,0,0-2.42,1.89,1.89,0,0,0-2.45,0,1.64,1.64,0,0,0-.47,1.21A1.6,1.6,0,0,0,254.06,941.63Z"/><path class="cls-3" d="M213.17,951.81h2.14v13h-1.67L207.5,956v8.84h-2.14v-13H207l6.14,8.83Z"/><path class="cls-3" d="M225.15,955.53h2v9.3h-2v-1.34a3.77,3.77,0,0,1-3.25,1.58,4.37,4.37,0,0,1-3.28-1.42,5.12,5.12,0,0,1,0-6.95,4.4,4.4,0,0,1,3.28-1.41,3.78,3.78,0,0,1,3.25,1.56Zm-5,6.78a3,3,0,0,0,4.2,0,2.92,2.92,0,0,0,.84-2.13,2.89,2.89,0,0,0-.84-2.13,3,3,0,0,0-4.2,0,2.89,2.89,0,0,0-.84,2.13A2.92,2.92,0,0,0,220.11,962.31Z"/><path class="cls-3" d="M239.66,955.29a3.37,3.37,0,0,1,2.55,1,3.86,3.86,0,0,1,1,2.75v5.77h-2v-5.64a2.18,2.18,0,0,0-.49-1.5,1.7,1.7,0,0,0-1.32-.53,1.89,1.89,0,0,0-1.48.62,2.71,2.71,0,0,0-.55,1.84v5.21h-2v-5.64a2.28,2.28,0,0,0-.46-1.5,1.62,1.62,0,0,0-1.29-.53,1.92,1.92,0,0,0-1.49.63,2.56,2.56,0,0,0-.58,1.83v5.21h-2v-9.3h2v1.11a3,3,0,0,1,2.66-1.35,2.86,2.86,0,0,1,2.64,1.46A3.15,3.15,0,0,1,239.66,955.29Z"/><path class="cls-3" d="M252.7,955.53h2v9.3h-2v-1.34a3.78,3.78,0,0,1-3.26,1.58,4.36,4.36,0,0,1-3.27-1.42,5.12,5.12,0,0,1,0-6.95,4.39,4.39,0,0,1,3.27-1.41,3.79,3.79,0,0,1,3.26,1.56Zm-5,6.78a3,3,0,0,0,4.2,0,2.92,2.92,0,0,0,.84-2.13,2.89,2.89,0,0,0-.84-2.13,3,3,0,0,0-4.2,0,2.89,2.89,0,0,0-.84,2.13A2.92,2.92,0,0,0,247.66,962.31Z"/><path class="cls-3" d="M258.8,958.09a.82.82,0,0,0,.51.74,6,6,0,0,0,1.25.46c.49.13,1,.29,1.48.46a2.81,2.81,0,0,1,1.25.88,2.42,2.42,0,0,1,.51,1.58,2.46,2.46,0,0,1-1,2.1,4.23,4.23,0,0,1-2.59.76,4.58,4.58,0,0,1-2.37-.58,3.37,3.37,0,0,1-1.43-1.6l1.73-1a2,2,0,0,0,2.07,1.34c1.05,0,1.58-.35,1.58-1a.83.83,0,0,0-.51-.73A6,6,0,0,0,260,961c-.49-.13-1-.28-1.48-.46a2.85,2.85,0,0,1-1.25-.86,2.28,2.28,0,0,1-.52-1.54,2.52,2.52,0,0,1,1-2.06,3.77,3.77,0,0,1,2.43-.78,4.08,4.08,0,0,1,2,.51,3.4,3.4,0,0,1,1.39,1.42l-1.69.95a1.76,1.76,0,0,0-1.75-1.06,1.73,1.73,0,0,0-1,.25A.82.82,0,0,0,258.8,958.09Z"/><path class="cls-3" d="M270.39,957.46h-2.31v4.47a1.1,1.1,0,0,0,.26.82,1.18,1.18,0,0,0,.78.28,11,11,0,0,0,1.27,0v1.81a5.06,5.06,0,0,1-3.31-.4,2.81,2.81,0,0,1-1-2.5v-4.47h-1.71v-1.93h1.71v-2l2-.6v2.61h2.31Z"/><path class="cls-3" d="M273.42,961a2.57,2.57,0,0,0,1,1.63,3.31,3.31,0,0,0,2,.57,2.76,2.76,0,0,0,2.4-1.15l1.65,1a4.59,4.59,0,0,1-4.07,2,5,5,0,0,1-3.67-1.39,4.72,4.72,0,0,1-1.39-3.5,4.79,4.79,0,0,1,1.38-3.49,4.69,4.69,0,0,1,3.53-1.4,4.35,4.35,0,0,1,3.36,1.43,5,5,0,0,1,1.31,3.48,6.13,6.13,0,0,1-.08.83Zm0-1.63h5.47a2.57,2.57,0,0,0-2.66-2.29,2.69,2.69,0,0,0-2.81,2.29Z"/><path class="cls-3" d="M287.45,960.14v-1.93h6.88v1.93Z"/><path class="cls-3" d="M309.4,951.81h2.14v13h-1.68L303.72,956v8.84h-2.14v-13h1.68l6.14,8.83Z"/><path class="cls-3" d="M318.4,965.07a4.79,4.79,0,0,1-3.48-1.41,4.95,4.95,0,0,1,0-7,5,5,0,0,1,7,0,5,5,0,0,1,0,7A4.77,4.77,0,0,1,318.4,965.07Zm-2.07-2.79a2.81,2.81,0,0,0,2.07.84,2.77,2.77,0,0,0,2.06-.84,2.85,2.85,0,0,0,.84-2.1,2.82,2.82,0,0,0-.84-2.1,2.77,2.77,0,0,0-2.06-.84,2.81,2.81,0,0,0-2.07.84,2.85,2.85,0,0,0-.83,2.1A2.88,2.88,0,0,0,316.33,962.28Z"/><path class="cls-3" d="M337.63,951.81h2.14v13h-2.14v-5.64h-5.58v5.64h-2.14v-13h2.14v5.34h5.58Z"/><path class="cls-3" d="M349.61,955.53h2v9.3h-2v-1.34a3.76,3.76,0,0,1-3.25,1.58,4.37,4.37,0,0,1-3.28-1.42,5.15,5.15,0,0,1,0-6.95,4.4,4.4,0,0,1,3.28-1.41,3.77,3.77,0,0,1,3.25,1.56Zm-5,6.78a3.06,3.06,0,0,0,4.21,0,3,3,0,0,0,.83-2.13,2.92,2.92,0,0,0-.83-2.13,3,3,0,0,0-4.21,0,2.88,2.88,0,0,0-.83,2.13A2.91,2.91,0,0,0,344.57,962.31Z"/><path class="cls-3" d="M358.86,955.29a3.42,3.42,0,0,1,2.58,1,3.87,3.87,0,0,1,1,2.81v5.71h-2v-5.51a2.18,2.18,0,0,0-.56-1.6,2.06,2.06,0,0,0-1.52-.56,2.28,2.28,0,0,0-1.71.66,2.76,2.76,0,0,0-.66,2v5h-2v-9.3h2v1.19A3.16,3.16,0,0,1,358.86,955.29Z"/><path class="cls-3" d="M372,951.81h2v13h-2v-1.34a3.76,3.76,0,0,1-3.25,1.58,4.37,4.37,0,0,1-3.28-1.42,5.15,5.15,0,0,1,0-6.95,4.4,4.4,0,0,1,3.28-1.41,3.77,3.77,0,0,1,3.25,1.56Zm-5,10.5a3.06,3.06,0,0,0,4.21,0,3,3,0,0,0,.83-2.13,2.92,2.92,0,0,0-.83-2.13,3,3,0,0,0-4.21,0,2.92,2.92,0,0,0-.83,2.13A3,3,0,0,0,366.91,962.31Z"/><path class="cls-3" d="M385.42,965.07a5.66,5.66,0,0,1-3.19-.86,4.53,4.53,0,0,1-1.83-2.34l1.84-1.08a3.13,3.13,0,0,0,3.24,2.2,2.88,2.88,0,0,0,1.81-.48,1.5,1.5,0,0,0,.61-1.23,1.35,1.35,0,0,0-.66-1.22,9.77,9.77,0,0,0-2.3-.92c-.62-.19-1.12-.36-1.51-.52a8.07,8.07,0,0,1-1.22-.68,3,3,0,0,1-1-1.09,3.48,3.48,0,0,1-.31-1.53,3.36,3.36,0,0,1,1.23-2.74,4.44,4.44,0,0,1,2.95-1,4.88,4.88,0,0,1,2.74.76,5,5,0,0,1,1.8,2.1l-1.8,1a2.82,2.82,0,0,0-2.74-1.82,2.27,2.27,0,0,0-1.48.44,1.39,1.39,0,0,0-.56,1.18,1.34,1.34,0,0,0,.57,1.14,7.4,7.4,0,0,0,2.05.88l1.09.37c.23.08.55.21,1,.38a4.14,4.14,0,0,1,.94.52,6.62,6.62,0,0,1,.67.65,2.18,2.18,0,0,1,.52.89,4,4,0,0,1,.15,1.14,3.42,3.42,0,0,1-1.28,2.8A5.13,5.13,0,0,1,385.42,965.07Z"/><path class="cls-3" d="M396.66,955.29a3.43,3.43,0,0,1,2.58,1,3.87,3.87,0,0,1,1,2.81v5.71h-2v-5.51a2.18,2.18,0,0,0-.56-1.6,2.06,2.06,0,0,0-1.52-.56,2.32,2.32,0,0,0-1.72.66,2.8,2.8,0,0,0-.65,2v5h-2v-13h2v4.91A3.16,3.16,0,0,1,396.66,955.29Z"/><path class="cls-3" d="M409.75,955.53h2v9.3h-2v-1.34a3.76,3.76,0,0,1-3.25,1.58,4.37,4.37,0,0,1-3.28-1.42,5.15,5.15,0,0,1,0-6.95,4.4,4.4,0,0,1,3.28-1.41,3.77,3.77,0,0,1,3.25,1.56Zm-5,6.78a3.06,3.06,0,0,0,4.21,0,3,3,0,0,0,.83-2.13,2.92,2.92,0,0,0-.83-2.13,3,3,0,0,0-4.21,0,2.88,2.88,0,0,0-.83,2.13A2.91,2.91,0,0,0,404.71,962.31Z"/><path class="cls-3" d="M422.33,964.83h-2.4l-3.82-4.3v4.3h-2v-13h2v7.83l3.61-4.11h2.46l-4.09,4.55Z"/><path class="cls-3" d="M424.52,961a2.54,2.54,0,0,0,1,1.63,3.26,3.26,0,0,0,1.95.57,2.74,2.74,0,0,0,2.4-1.15l1.65,1a4.59,4.59,0,0,1-4.07,2,5,5,0,0,1-3.66-1.39,4.72,4.72,0,0,1-1.4-3.5,4.79,4.79,0,0,1,1.38-3.49,4.69,4.69,0,0,1,3.53-1.4,4.33,4.33,0,0,1,3.36,1.43A5,5,0,0,1,432,960.2a5.87,5.87,0,0,1-.07.83Zm0-1.63H430a2.68,2.68,0,0,0-.94-1.72,2.72,2.72,0,0,0-1.72-.57,2.69,2.69,0,0,0-2.81,2.29Z"/><path class="cls-4" d="M212.06,978.06a1.5,1.5,0,0,0,0-3,1.5,1.5,0,0,0,0,3Z"/><path class="cls-5" d="M437.45,272.51,362,511l-91.82,62.79L284.56,731l158.67-85a100.24,100.24,0,0,0,52.92-88.12l.69-276.5A30.35,30.35,0,0,0,466.49,251h0A30.35,30.35,0,0,0,437.45,272.51Z"/><path class="cls-6" d="M466.49,251a30.33,30.33,0,0,0-19.38,7,30.35,30.35,0,0,1,29.81,30.42l-.69,276.5a100.24,100.24,0,0,1-52.92,88.12L284.24,727.51l.32,3.49,158.67-85a100.24,100.24,0,0,0,52.92-88.12l.69-276.5A30.35,30.35,0,0,0,466.49,251Z"/><path class="cls-7" d="M437.45,272.51,362,511l-91.82,62.79L284.56,731l158.67-85a100.24,100.24,0,0,0,52.92-88.12l.69-276.5A30.35,30.35,0,0,0,466.49,251h0A30.35,30.35,0,0,0,437.45,272.51Z"/><path class="cls-8" d="M341.34,545.79l23.06,69.56a138.1,138.1,0,0,1,7,46.16l-.92,48.35A24.69,24.69,0,0,1,355.63,732l-153,66.42-53.45-215.3,150.38-57.19A32,32,0,0,1,341.34,545.79Z"/><path class="cls-9" d="M364.4,615.35l-23.06-69.56a32,32,0,0,0-24.92-21.46l19.29,58.18a138.25,138.25,0,0,1,7,46.15L341.77,677a24.65,24.65,0,0,1-14.83,22.15L192.5,757.54l10.16,40.89,153-66.42a24.69,24.69,0,0,0,14.84-22.15l.92-48.35A138.1,138.1,0,0,0,364.4,615.35Z"/><path class="cls-7" d="M341.34,545.79l23.06,69.56a138.1,138.1,0,0,1,7,46.16l-.92,48.35A24.69,24.69,0,0,1,355.63,732l-153,66.42-53.45-215.3,150.38-57.19A32,32,0,0,1,341.34,545.79Z"/><path class="cls-6" d="M472.23,391.85h0a24,24,0,0,0-18.57,8.82,24,24,0,0,1,23.08,24V533h19.47V415.83A24,24,0,0,0,472.23,391.85Z"/><path class="cls-7" d="M420.81,514.94l28.25-105.29a24,24,0,0,1,23.17-17.8h0a24,24,0,0,1,24,24V533"/><path class="cls-5" d="M556.24,272.51,631.69,511l91.82,62.79L709.13,731l-158.67-85a100.24,100.24,0,0,1-52.92-88.12l-.7-276.5A30.37,30.37,0,0,1,527.2,251h0A30.35,30.35,0,0,1,556.24,272.51Z"/><path class="cls-6" d="M527.2,251a30.33,30.33,0,0,1,19.38,7,30.36,30.36,0,0,0-29.82,30.42l.7,276.5a100.24,100.24,0,0,0,52.92,88.12l139.07,74.46-.32,3.49-158.67-85a100.24,100.24,0,0,1-52.92-88.12l-.7-276.5A30.37,30.37,0,0,1,527.2,251Z"/><path class="cls-7" d="M556.24,272.51,631.69,511l91.82,62.79L709.13,731l-158.67-85a100.24,100.24,0,0,1-52.92-88.12l-.7-276.5A30.37,30.37,0,0,1,527.2,251h0A30.35,30.35,0,0,1,556.24,272.51Z"/><path class="cls-8" d="M652.35,545.79l-23.06,69.56a138.36,138.36,0,0,0-7,46.16l.93,48.35A24.69,24.69,0,0,0,638.06,732l153,66.42,53.45-215.3L694.1,525.94A32,32,0,0,0,652.35,545.79Z"/><path class="cls-9" d="M629.29,615.35l23.06-69.56a32,32,0,0,1,24.92-21.46L658,582.51a138.25,138.25,0,0,0-7,46.15l.93,48.35a24.65,24.65,0,0,0,14.83,22.15l134.43,58.38L791,798.43,638.06,732a24.69,24.69,0,0,1-14.84-22.15l-.93-48.35A138.36,138.36,0,0,1,629.29,615.35Z"/><path class="cls-7" d="M652.35,545.79l-23.06,69.56a138.36,138.36,0,0,0-7,46.16l.93,48.35A24.69,24.69,0,0,0,638.06,732l153,66.42,53.45-215.3L694.1,525.94A32,32,0,0,0,652.35,545.79Z"/><path class="cls-6" d="M521.46,391.85h0A24,24,0,0,1,540,400.67a24,24,0,0,0-23.08,24V533H497.48V415.83A24,24,0,0,1,521.46,391.85Z"/><path class="cls-7" d="M572.88,514.94,544.63,409.65a24,24,0,0,0-23.17-17.8h0a24,24,0,0,0-24,24V533"/></svg>