<?xml version="1.0" encoding="utf-8"?>
<!-- Generator: Adobe Illustrator 23.1.1, SVG Export Plug-In . SVG Version: 6.00 Build 0)  -->
<svg version="1.1" id="Layer_1" xmlns="http://www.w3.org/2000/svg" xmlns:xlink="http://www.w3.org/1999/xlink" x="0px" y="0px"
	 viewBox="0 0 1000 1000" style="enable-background:new 0 0 1000 1000;" xml:space="preserve">
<style type="text/css">
	.st0{fill:#B4D0D8;}
	.st1{opacity:0.15;fill:#FFFFFF;}
	.st2{opacity:0.2;fill:#FFFFFF;}
	.st3{opacity:0.58;fill:#FFFFFF;}
	.st4{fill:#25B3B7;}
	.st5{fill:#EEF2F4;}
	.st6{opacity:0.19;}
	.st7{fill:#FFFFFF;}
	.st8{opacity:0.37;}
	.st9{fill:#CE3E4C;}
	.st10{fill:#E5556A;}
	.st11{fill:#BC282F;}
	.st12{opacity:0.38;fill:#EA8B98;}
	.st13{fill:none;stroke:#282828;stroke-width:4;stroke-linecap:round;stroke-linejoin:round;stroke-miterlimit:10;}
	.st14{opacity:0.22;fill:none;stroke:#282828;stroke-width:6;stroke-linecap:round;stroke-linejoin:round;stroke-miterlimit:10;}
	.st15{fill:#8C1E2E;}
	.st16{opacity:0.25;}
	.st17{fill:#3A121A;}
	.st18{fill:#282828;}
	.st19{opacity:0.38;fill:#3D3D3D;}
	.st20{fill:none;stroke:#282828;stroke-width:6;stroke-linecap:round;stroke-linejoin:round;stroke-miterlimit:10;}
	.st21{fill:#D8D8D9;}
	.st22{opacity:0.28;}
	.st23{fill:#FFFFF3;}
	.st24{fill:#F9AA68;}
	.st25{fill:#F28D41;}
	.st26{fill:#894532;}
	.st27{fill:none;stroke:#383838;stroke-width:6;stroke-linecap:round;stroke-linejoin:round;stroke-miterlimit:10;}
	.st28{fill:none;stroke:#383838;stroke-miterlimit:10;}
</style>
<rect id="XMLID_35_" class="st0" width="1000" height="1000"/>
<g id="XMLID_59_">
	<circle id="XMLID_43_" class="st1" cx="500" cy="500" r="408.6"/>
	<circle id="XMLID_42_" class="st2" cx="500" cy="500" r="335.4"/>
	<circle id="XMLID_24_" class="st3" cx="500" cy="500" r="262.4"/>
</g>
<rect id="XMLID_1_" y="640" class="st4" width="1000" height="360"/>
<g>
	<g>
		<g>
			<path class="st5" d="M63.2,959.2c0,2.5-1.2,3.7-2.6,3.7c-1.1,0-1.9-0.5-2.1-1.4c-0.4,0.5-1,0.8-1.8,0.8c-1.5,0-2.6-1.2-2.6-2.8
				c0-1.6,1.1-2.8,2.6-2.8c0.7,0,1.2,0.3,1.6,0.7v-0.5h1.6v3.9c0,0.8,0.3,1.4,1,1.4c0.9,0,1.7-0.9,1.7-3c0-3-2.3-5.3-5.4-5.3
				c-3.1,0-5.6,2.4-5.6,5.7c0,3.3,2.5,5.7,5.9,5.7c1.1,0,2.1-0.2,2.9-0.4v0.6c-0.8,0.3-1.7,0.4-2.9,0.4c-3.7,0-6.5-2.6-6.5-6.2
				c0-3.4,2.7-6.2,6.2-6.2C61.1,953.3,63.2,956.4,63.2,959.2z M58.3,959.5c0-0.8-0.6-1.4-1.3-1.4c-0.8,0-1.3,0.5-1.3,1.4
				c0,0.8,0.6,1.3,1.3,1.3C57.8,960.9,58.3,960.3,58.3,959.5z"/>
		</g>
		<g>
			<path class="st5" d="M69.4,955.1v2c-1.2-0.1-2.6,0.5-2.6,2.4v4.3h-1.9v-8.6h1.9v1.4C67.3,955.5,68.3,955.1,69.4,955.1z"/>
		</g>
		<g>
			<path class="st5" d="M74.6,962.3c1,0,1.8-0.5,2.2-1.1l1.5,0.9c-0.8,1.2-2.1,1.9-3.8,1.9c-2.8,0-4.7-1.9-4.7-4.5
				c0-2.5,1.8-4.5,4.5-4.5c2.6,0,4.3,2.1,4.3,4.5c0,0.3,0,0.5-0.1,0.8h-6.8C72.1,961.6,73.2,962.3,74.6,962.3z M76.9,958.8
				c-0.3-1.5-1.3-2.1-2.5-2.1c-1.4,0-2.3,0.8-2.6,2.1H76.9z"/>
		</g>
		<g>
			<path class="st5" d="M88.9,955.2v8.6h-1.9v-1.2c-0.7,0.9-1.7,1.5-3,1.5c-2.3,0-4.3-2-4.3-4.5c0-2.6,1.9-4.5,4.3-4.5
				c1.3,0,2.3,0.5,3,1.4v-1.2H88.9z M87.1,959.5c0-1.6-1.2-2.7-2.7-2.7c-1.5,0-2.7,1.1-2.7,2.7c0,1.6,1.2,2.7,2.7,2.7
				C85.9,962.3,87.1,961.1,87.1,959.5z"/>
		</g>
		<g>
			<path class="st5" d="M91.1,951.3H93v12.5h-1.9V951.3z"/>
		</g>
		<g>
			<path class="st5" d="M102.9,955.2l-3.3,8.6h-2.1l-3.3-8.6h2l2.4,6.5l2.4-6.5H102.9z"/>
		</g>
		<g>
			<path class="st5" d="M104.2,955.2h1.9v8.9c0,2.4-1.2,3.5-3.5,3.3v-1.8c1.1,0.1,1.7-0.3,1.7-1.5V955.2z M104,952.8
				c0-0.7,0.5-1.2,1.2-1.2c0.7,0,1.2,0.5,1.2,1.2c0,0.6-0.5,1.2-1.2,1.2C104.5,954,104,953.4,104,952.8z"/>
		</g>
		<g>
			<path class="st5" d="M116,955.2l-3.3,8.8c-0.8,2.2-2.2,3.3-4.2,3.2v-1.7c1.2,0.1,1.9-0.5,2.3-1.7l0.1-0.2l-3.6-8.4h2l2.6,6.2
				l2.2-6.2H116z"/>
		</g>
	</g>
	<g>
		<path class="st5" d="M211.9,938.7c0,2.1-1.5,3.8-3.6,3.8h-3v-7.6h3C210.4,934.9,211.9,936.6,211.9,938.7z M210.9,938.7
			c0-1.6-1.1-2.9-2.6-2.9h-2v5.7h2C209.8,941.6,210.9,940.3,210.9,938.7z"/>
		<path class="st5" d="M219.5,940.8h-3.4l-0.6,1.7h-1.1l2.8-7.6h1.1l2.8,7.6h-1.1L219.5,940.8z M219.2,939.9l-1.4-3.8l-1.4,3.8
			H219.2z"/>
		<path class="st5" d="M226.4,939.4v3.1h-1v-3.1l-2.7-4.5h1.1l2.1,3.6l2.1-3.6h1.1L226.4,939.4z"/>
		<path class="st5" d="M241.6,938.8L241.6,938.8l-2.5,3.7H238l1.8-2.7c-0.1,0-0.2,0-0.4,0c-1.5,0-2.6-1-2.6-2.6
			c0-1.5,1.1-2.6,2.6-2.6s2.6,1,2.6,2.6C242.1,937.9,241.9,938.4,241.6,938.8z M239.4,938.9c1,0,1.6-0.6,1.6-1.6s-0.7-1.6-1.6-1.6
			s-1.6,0.6-1.6,1.6C237.8,938.3,238.5,938.9,239.4,938.9z"/>
		<path class="st5" d="M249.7,938.8L249.7,938.8l-2.5,3.7h-1.1l1.8-2.7c-0.1,0-0.2,0-0.4,0c-1.5,0-2.6-1-2.6-2.6
			c0-1.5,1.1-2.6,2.6-2.6s2.6,1,2.6,2.6C250.2,937.9,250.1,938.4,249.7,938.8z M247.6,938.9c1,0,1.6-0.6,1.6-1.6s-0.7-1.6-1.6-1.6
			s-1.6,0.6-1.6,1.6C246,938.3,246.6,938.9,247.6,938.9z"/>
	</g>
	<g>
		<path class="st5" d="M58.9,938.7c0,2.1-1.5,3.8-3.6,3.8h-3v-7.6h3C57.4,934.9,58.9,936.6,58.9,938.7z M57.9,938.7
			c0-1.6-1.1-2.9-2.6-2.9h-2v5.7h2C56.8,941.6,57.9,940.3,57.9,938.7z"/>
		<path class="st5" d="M67,941.6v1h-4.6v-7.6h4.5v1h-3.5v2.3h3.2v0.9h-3.2v2.4H67z"/>
		<path class="st5" d="M70,940.8l0.9-0.5c0.3,0.8,0.9,1.4,2,1.4c1.1,0,1.6-0.5,1.6-1.2c0-0.8-0.7-1-1.8-1.4
			c-1.2-0.4-2.4-0.8-2.4-2.2c0-1.4,1.1-2.2,2.4-2.2c1.3,0,2.2,0.7,2.6,1.7l-0.8,0.5c-0.3-0.7-0.8-1.2-1.7-1.2
			c-0.8,0-1.4,0.4-1.4,1.1c0,0.7,0.5,1,1.6,1.3c1.3,0.4,2.6,0.8,2.6,2.3c0,1.3-1.1,2.2-2.6,2.2C71.5,942.7,70.4,941.9,70,940.8z"/>
		<path class="st5" d="M80,934.9v7.6h-1v-7.6H80z"/>
		<path class="st5" d="M91.3,939.2c0,1.9-1.4,3.5-3.7,3.5c-2.4,0-4-1.8-4-4c0-2.2,1.7-4,4-4c1.4,0,2.7,0.8,3.3,1.8l-0.9,0.5
			c-0.4-0.8-1.4-1.4-2.4-1.4c-1.8,0-3,1.3-3,3c0,1.7,1.2,3,3,3c1.6,0,2.5-0.9,2.7-2h-2.8v-0.9h3.8V939.2z"/>
		<path class="st5" d="M100.6,934.9v7.6h-0.8l-3.9-5.7v5.7h-1v-7.6h0.8l3.9,5.7v-5.7H100.6z"/>
		<path class="st5" d="M109.1,941.6v1h-4.6v-7.6h4.5v1h-3.5v2.3h3.2v0.9h-3.2v2.4H109.1z"/>
		<path class="st5" d="M119.2,938.7c0,2.1-1.5,3.8-3.6,3.8h-3v-7.6h3C117.6,934.9,119.2,936.6,119.2,938.7z M118.2,938.7
			c0-1.6-1.1-2.9-2.6-2.9h-2v5.7h2C117.1,941.6,118.2,940.3,118.2,938.7z"/>
		<path class="st5" d="M133.2,940.4c0,1.2-1,2.2-2.2,2.2h-3.3v-7.6h3c1.2,0,2.1,0.9,2.1,2.1c0,0.7-0.3,1.2-0.8,1.6
			C132.7,938.9,133.2,939.5,133.2,940.4z M128.7,935.8v2.3h2c0.6,0,1.1-0.5,1.1-1.2c0-0.6-0.5-1.2-1.1-1.2H128.7z M132.2,940.3
			c0-0.7-0.5-1.2-1.2-1.2h-2.3v2.5h2.3C131.7,941.6,132.2,941,132.2,940.3z"/>
		<path class="st5" d="M139.4,939.4v3.1h-1v-3.1l-2.7-4.5h1.1l2.1,3.6l2.1-3.6h1.1L139.4,939.4z"/>
	</g>
	<g>
		<path class="st5" d="M214.1,956c0,2.3-1.8,4.1-4.1,4.1h-2.5v4.2h-2v-12.4h4.6C212.4,951.9,214.1,953.7,214.1,956z M212.1,956
			c0-1.3-0.9-2.2-2.1-2.2h-2.5v4.3h2.5C211.2,958.1,212.1,957.2,212.1,956z"/>
		<path class="st5" d="M215.5,952.9c0-0.7,0.5-1.2,1.2-1.2c0.7,0,1.2,0.5,1.2,1.2c0,0.7-0.5,1.2-1.2,1.2
			C216.1,954.1,215.5,953.6,215.5,952.9z M215.8,955.4h1.9v8.9h-1.9V955.4z"/>
		<path class="st5" d="M224.5,955.3v2.1c-1.3-0.1-2.7,0.5-2.7,2.5v4.5h-1.9v-8.9h1.9v1.5C222.3,955.7,223.4,955.3,224.5,955.3z"/>
		<path class="st5" d="M234.5,955.4v8.9h-1.9V963c-0.7,0.9-1.7,1.5-3.1,1.5c-2.4,0-4.4-2-4.4-4.7c0-2.6,2-4.7,4.4-4.7
			c1.4,0,2.4,0.6,3.1,1.5v-1.3H234.5z M232.6,959.9c0-1.6-1.2-2.8-2.8-2.8c-1.6,0-2.8,1.2-2.8,2.8c0,1.6,1.2,2.8,2.8,2.8
			C231.4,962.7,232.6,961.5,232.6,959.9z"/>
		<path class="st5" d="M239.4,957.3v4.2c0,1.1,0.7,1.1,2.2,1v1.7c-2.9,0.4-4.1-0.5-4.1-2.8v-4.2h-1.6v-1.8h1.6v-1.9l1.9-0.6v2.5h2.2
			v1.8H239.4z"/>
		<path class="st5" d="M247.4,962.8c1.1,0,1.9-0.5,2.3-1.1l1.6,0.9c-0.8,1.2-2.1,1.9-3.9,1.9c-2.9,0-4.8-2-4.8-4.7
			c0-2.6,1.9-4.7,4.7-4.7c2.6,0,4.4,2.1,4.4,4.7c0,0.3,0,0.5-0.1,0.8h-7C244.8,962.1,245.9,962.8,247.4,962.8z M249.7,959.1
			c-0.3-1.5-1.4-2.2-2.5-2.2c-1.4,0-2.4,0.8-2.7,2.2H249.7z"/>
		<path class="st5" d="M266.9,960.8c0,2.1-1.7,3.5-3.7,3.5h-5.3v-12.4h4.9c2,0,3.6,1.5,3.6,3.4c0,1.1-0.5,2-1.3,2.5
			C266.2,958.4,266.9,959.4,266.9,960.8z M259.9,953.8v3.3h2.9c0.9,0,1.6-0.7,1.6-1.6c0-0.9-0.7-1.6-1.6-1.6H259.9z M264.9,960.6
			c0-1-0.7-1.7-1.7-1.7h-3.3v3.5h3.3C264.1,962.4,264.9,961.6,264.9,960.6z"/>
		<path class="st5" d="M268.2,959.9c0-2.6,2.1-4.7,4.7-4.7c2.6,0,4.7,2,4.7,4.7c0,2.6-2.1,4.7-4.7,4.7
			C270.2,964.5,268.2,962.5,268.2,959.9z M275.6,959.9c0-1.6-1.2-2.8-2.8-2.8s-2.8,1.2-2.8,2.8c0,1.6,1.2,2.8,2.8,2.8
			S275.6,961.5,275.6,959.9z"/>
		<path class="st5" d="M288.2,955.4v8.9h-1.9V963c-0.7,0.9-1.7,1.5-3.1,1.5c-2.4,0-4.4-2-4.4-4.7c0-2.6,2-4.7,4.4-4.7
			c1.4,0,2.4,0.6,3.1,1.5v-1.3H288.2z M286.2,959.9c0-1.6-1.2-2.8-2.8-2.8c-1.6,0-2.8,1.2-2.8,2.8c0,1.6,1.2,2.8,2.8,2.8
			C285,962.7,286.2,961.5,286.2,959.9z"/>
		<path class="st5" d="M293.1,957.3v4.2c0,1.1,0.7,1.1,2.2,1v1.7c-2.9,0.4-4.1-0.5-4.1-2.8v-4.2h-1.6v-1.8h1.6v-1.9l1.9-0.6v2.5h2.2
			v1.8H293.1z"/>
	</g>
	<g>
		<g>
			<g>
				<path class="st5" d="M846.1,938.7c0,2.1-1.5,3.8-3.6,3.8h-3v-7.6h3C844.6,934.9,846.1,936.6,846.1,938.7z M845.2,938.7
					c0-1.6-1.1-2.9-2.6-2.9h-2v5.7h2C844.1,941.6,845.2,940.3,845.2,938.7z"/>
			</g>
			<g>
				<path class="st5" d="M849.3,938.7c0-2.2,1.7-4,3.9-4c2.2,0,4,1.8,4,4c0,2.2-1.7,4-4,4C851,942.7,849.3,940.9,849.3,938.7z
					 M856.1,938.7c0-1.7-1.3-3-2.9-3c-1.7,0-2.9,1.3-2.9,3c0,1.7,1.3,3,2.9,3C854.9,941.7,856.1,940.4,856.1,938.7z"/>
			</g>
			<g>
				<path class="st5" d="M859.8,934.9h1.1l1.7,6.3l1.9-6.3h1l1.9,6.3l1.7-6.3h1.1l-2.2,7.6h-1.2l-1.8-6.1l-1.8,6.1H862L859.8,934.9z
					"/>
			</g>
			<g>
				<path class="st5" d="M879.3,934.9v7.6h-0.8l-3.9-5.7v5.7h-1v-7.6h0.8l3.9,5.7v-5.7H879.3z"/>
			</g>
			<g>
				<path class="st5" d="M887.5,941.6v1h-4.3v-7.6h1v6.7H887.5z"/>
			</g>
			<g>
				<path class="st5" d="M889.9,938.7c0-2.2,1.7-4,3.9-4c2.2,0,4,1.8,4,4c0,2.2-1.7,4-4,4C891.6,942.7,889.9,940.9,889.9,938.7z
					 M896.8,938.7c0-1.7-1.3-3-2.9-3c-1.7,0-2.9,1.3-2.9,3c0,1.7,1.3,3,2.9,3C895.5,941.7,896.8,940.4,896.8,938.7z"/>
			</g>
			<g>
				<path class="st5" d="M905.4,940.8H902l-0.6,1.7h-1.1l2.8-7.6h1.1l2.8,7.6H906L905.4,940.8z M905.1,939.9l-1.4-3.8l-1.4,3.8
					H905.1z"/>
			</g>
			<g>
				<path class="st5" d="M916.9,938.7c0,2.1-1.5,3.8-3.6,3.8h-3v-7.6h3C915.4,934.9,916.9,936.6,916.9,938.7z M915.9,938.7
					c0-1.6-1.1-2.9-2.6-2.9h-2v5.7h2C914.9,941.6,915.9,940.3,915.9,938.7z"/>
			</g>
			<g>
				<path class="st5" d="M926.5,935.8v2.5h3.2v1h-3.2v3.2h-1v-7.6h4.4v1H926.5z"/>
			</g>
			<g>
				<path class="st5" d="M936.2,939.6h-1.8v2.9h-1v-7.6h3c1.3,0,2.4,1.1,2.4,2.4c0,1-0.7,1.9-1.6,2.2l1.8,3.1h-1.1L936.2,939.6z
					 M934.4,938.7h2c0.8,0,1.4-0.6,1.4-1.4c0-0.8-0.6-1.4-1.4-1.4h-2V938.7z"/>
			</g>
			<g>
				<path class="st5" d="M941.9,938.7c0-2.2,1.7-4,3.9-4c2.2,0,4,1.8,4,4c0,2.2-1.7,4-4,4C943.6,942.7,941.9,940.9,941.9,938.7z
					 M948.8,938.7c0-1.7-1.3-3-2.9-3c-1.7,0-2.9,1.3-2.9,3c0,1.7,1.3,3,2.9,3C947.5,941.7,948.8,940.4,948.8,938.7z"/>
			</g>
			<g>
				<path class="st5" d="M960.4,942.5h-1v-6l-2.5,4.2h-0.1l-2.5-4.1v5.9h-1v-7.6h1.1l2.4,4l2.4-4h1.1V942.5z"/>
			</g>
		</g>
		<g>
			<g>
				<path class="st5" d="M839.3,952.9c0-0.7,0.5-1.2,1.2-1.2c0.7,0,1.2,0.5,1.2,1.2c0,0.7-0.5,1.2-1.2,1.2
					C839.9,954.1,839.3,953.6,839.3,952.9z M839.6,955.4h1.9v8.9h-1.9V955.4z"/>
			</g>
			<g>
				<path class="st5" d="M843.7,951.4h1.9v12.9h-1.9V951.4z"/>
			</g>
			<g>
				<path class="st5" d="M847.8,951.4h1.9v12.9h-1.9V951.4z"/>
			</g>
			<g>
				<path class="st5" d="M852,951.4h1.9v12.9H852V951.4z"/>
			</g>
			<g>
				<path class="st5" d="M864,955.4v8.9h-1.9v-1.1c-0.6,0.9-1.5,1.4-2.7,1.4c-2,0-3.4-1.3-3.4-3.6v-5.4h1.9v5.2c0,1.3,0.8,2.1,2,2.1
					c1.3,0,2.2-0.7,2.2-2.5v-4.7H864z"/>
			</g>
			<g>
				<path class="st5" d="M872.6,961.8c0,1.8-1.5,2.7-3.5,2.7c-1.8,0-3-0.8-3.6-2.1l1.6-1c0.3,0.8,1,1.3,2,1.3c0.8,0,1.5-0.3,1.5-1
					c0-1.6-4.8-0.7-4.8-3.9c0-1.7,1.4-2.7,3.2-2.7c1.5,0,2.7,0.7,3.3,1.8l-1.6,0.9c-0.3-0.7-0.9-1-1.7-1c-0.7,0-1.3,0.3-1.3,0.9
					C867.9,959.5,872.6,958.5,872.6,961.8z"/>
			</g>
			<g>
				<path class="st5" d="M876.7,957.3v4.2c0,1.1,0.7,1.1,2.2,1v1.7c-2.9,0.4-4.1-0.5-4.1-2.8v-4.2h-1.6v-1.8h1.6v-1.9l1.9-0.6v2.5
					h2.2v1.8H876.7z"/>
			</g>
			<g>
				<path class="st5" d="M885.4,955.3v2.1c-1.3-0.1-2.7,0.5-2.7,2.5v4.5h-1.9v-8.9h1.9v1.5C883.2,955.7,884.2,955.3,885.4,955.3z"/>
			</g>
			<g>
				<path class="st5" d="M895.3,955.4v8.9h-1.9V963c-0.7,0.9-1.7,1.5-3.1,1.5c-2.4,0-4.4-2-4.4-4.7c0-2.6,2-4.7,4.4-4.7
					c1.4,0,2.4,0.6,3.1,1.5v-1.3H895.3z M893.4,959.9c0-1.6-1.2-2.8-2.8-2.8c-1.6,0-2.8,1.2-2.8,2.8c0,1.6,1.2,2.8,2.8,2.8
					C892.2,962.7,893.4,961.5,893.4,959.9z"/>
			</g>
			<g>
				<path class="st5" d="M900.3,957.3v4.2c0,1.1,0.7,1.1,2.2,1v1.7c-2.9,0.4-4.1-0.5-4.1-2.8v-4.2h-1.6v-1.8h1.6v-1.9l1.9-0.6v2.5
					h2.2v1.8H900.3z"/>
			</g>
			<g>
				<path class="st5" d="M903.9,952.9c0-0.7,0.5-1.2,1.2-1.2c0.7,0,1.2,0.5,1.2,1.2c0,0.7-0.5,1.2-1.2,1.2
					C904.5,954.1,903.9,953.6,903.9,952.9z M904.2,955.4h1.9v8.9h-1.9V955.4z"/>
			</g>
			<g>
				<path class="st5" d="M907.8,959.9c0-2.6,2.1-4.7,4.7-4.7c2.6,0,4.7,2,4.7,4.7c0,2.6-2.1,4.7-4.7,4.7
					C909.9,964.5,907.8,962.5,907.8,959.9z M915.3,959.9c0-1.6-1.2-2.8-2.8-2.8c-1.6,0-2.8,1.2-2.8,2.8c0,1.6,1.2,2.8,2.8,2.8
					C914.1,962.7,915.3,961.5,915.3,959.9z"/>
			</g>
			<g>
				<path class="st5" d="M927,958.9v5.4h-1.9v-5.2c0-1.3-0.8-2.1-2-2.1c-1.3,0-2.2,0.7-2.2,2.5v4.7h-1.9v-8.9h1.9v1.1
					c0.6-0.9,1.5-1.4,2.7-1.4C925.5,955.2,927,956.6,927,958.9z"/>
			</g>
			<g>
				<path class="st5" d="M935.5,961.8c0,1.8-1.5,2.7-3.5,2.7c-1.8,0-3-0.8-3.6-2.1l1.6-1c0.3,0.8,1,1.3,2,1.3c0.8,0,1.5-0.3,1.5-1
					c0-1.6-4.8-0.7-4.8-3.9c0-1.7,1.4-2.7,3.2-2.7c1.5,0,2.7,0.7,3.3,1.8l-1.6,0.9c-0.3-0.7-0.9-1-1.7-1c-0.7,0-1.3,0.3-1.3,0.9
					C930.7,959.5,935.5,958.5,935.5,961.8z"/>
			</g>
			<g>
				<path class="st5" d="M936.8,963.2c0-0.7,0.6-1.3,1.3-1.3c0.7,0,1.3,0.6,1.3,1.3c0,0.7-0.6,1.3-1.3,1.3
					C937.4,964.5,936.8,963.9,936.8,963.2z"/>
			</g>
			<g>
				<path class="st5" d="M940.3,959.9c0-2.6,2-4.7,4.7-4.7c1.7,0,3.2,0.9,3.9,2.3l-1.6,1c-0.4-0.8-1.3-1.4-2.3-1.4
					c-1.6,0-2.7,1.2-2.7,2.8c0,1.6,1.2,2.8,2.7,2.8c1.1,0,1.9-0.5,2.4-1.4l1.6,0.9c-0.7,1.4-2.2,2.3-4,2.3
					C942.3,964.5,940.3,962.5,940.3,959.9z"/>
			</g>
			<g>
				<path class="st5" d="M949.7,959.9c0-2.6,2.1-4.7,4.7-4.7c2.6,0,4.7,2,4.7,4.7c0,2.6-2.1,4.7-4.7,4.7
					C951.8,964.5,949.7,962.5,949.7,959.9z M957.2,959.9c0-1.6-1.2-2.8-2.8-2.8s-2.8,1.2-2.8,2.8c0,1.6,1.2,2.8,2.8,2.8
					S957.2,961.5,957.2,959.9z"/>
			</g>
		</g>
	</g>
</g>
<g id="XMLID_192_">
	<g id="XMLID_3_" class="st6">
		<path id="XMLID_162_" class="st7" d="M683,853.3L683,853.3c9,0,16.3-7.3,16.3-16.3l0,0c0-9-7.3-16.3-16.3-16.3h0
			c-9,0-16.3,7.3-16.3,16.3l0,0C666.7,846,674,853.3,683,853.3z"/>
		<path id="XMLID_70_" class="st7" d="M734.2,788.1h32.4c9,0,16.3-7.3,16.3-16.3v0c0-9-7.3-16.3-16.3-16.3h-32.4
			c-9,0-16.3,7.3-16.3,16.3v0C717.9,780.8,725.2,788.1,734.2,788.1z"/>
		<path id="XMLID_75_" class="st7" d="M819.2,788.1L819.2,788.1c9,0,16.3-7.3,16.3-16.3v0c0-9-7.3-16.3-16.3-16.3h0
			c-9,0-16.3,7.3-16.3,16.3v0C802.9,780.8,810.2,788.1,819.2,788.1z"/>
		<path id="XMLID_170_" class="st7" d="M754.5,706.6L754.5,706.6c0-9-7.3-16.3-16.3-16.3H242.1c-9,0-16.3,7.3-16.3,16.3v0
			c0,9,7.3,16.3,16.3,16.3h182c9,0,16.3,7.3,16.3,16.3v0c0,9-7.3,16.3-16.3,16.3h-127c-9,0-16.3,7.3-16.3,16.3v0
			c0,9,7.3,16.3,16.3,16.3h81.5c9,0,16.3,7.3,16.3,16.3v0c0,9-7.3,16.3-16.3,16.3H244.9c-9,0-16.3,7.3-16.3,16.3v0
			c0,9,7.3,16.3,16.3,16.3h167.4c9,0,16.3,7.3,16.3,16.3v0c0,9-7.3,16.3-16.3,16.3h-22.1c-9,0-16.3,7.3-16.3,16.3v0
			c0,9,7.3,16.3,16.3,16.3H538c9,0,16.3-7.3,16.3-16.3v0c0-9-7.3-16.3-16.3-16.3h-8.3c-9,0-16.3-7.3-16.3-16.3v0
			c0-9,7.3-16.3,16.3-16.3h103.1c9,0,16.3-7.3,16.3-16.3v0c0-9-7.3-16.3-16.3-16.3h-62.2c-9,0-16.3-7.3-16.3-16.3v0
			c0-9,7.3-16.3,16.3-16.3H682c9,0,16.3-7.3,16.3-16.3v0c0-9-7.3-16.3-16.3-16.3h-67.5c-9,0-16.3-7.3-16.3-16.3v0
			c0-9,7.3-16.3,16.3-16.3h123.6C747.2,722.9,754.5,715.6,754.5,706.6z M497.1,820.7h-33c-9,0-16.3-7.3-16.3-16.3v0
			c0-9,7.3-16.3,16.3-16.3h33c9,0,16.3,7.3,16.3,16.3v0C513.4,813.4,506.1,820.7,497.1,820.7z M531.3,755.5h-14
			c-9,0-16.3-7.3-16.3-16.3v0c0-9,7.3-16.3,16.3-16.3h14c9,0,16.3,7.3,16.3,16.3v0C547.6,748.2,540.3,755.5,531.3,755.5z"/>
		<path id="XMLID_161_" class="st7" d="M341.6,918.5L341.6,918.5c-9,0-16.3-7.3-16.3-16.3l0,0c0-9,7.3-16.3,16.3-16.3h0
			c9,0,16.3,7.3,16.3,16.3l0,0C357.9,911.2,350.6,918.5,341.6,918.5z"/>
		<path id="XMLID_66_" class="st7" d="M615.4,918.5L615.4,918.5c-9,0-16.3-7.3-16.3-16.3l0,0c0-9,7.3-16.3,16.3-16.3l0,0
			c9,0,16.3,7.3,16.3,16.3l0,0C631.7,911.2,624.4,918.5,615.4,918.5z"/>
	</g>
	<g id="XMLID_103_" class="st8">
		<path id="XMLID_109_" class="st7" d="M337.3,722.9h58.6c9,0,16.3,7.3,16.3,16.3v0c0,9-7.3,16.3-16.3,16.3h-52.6
			c-9,0-16.3,7.3-16.3,16.3v0c0,9,7.3,16.3,16.3,16.3h51.8c9,0,16.3,7.3,16.3,16.3v0c0,9-7.3,16.3-16.3,16.3H388
			c-9,0-16.3,7.3-16.3,16.3v0c0,9,7.3,16.3,16.3,16.3h41.2c9,0,16.3,7.3,16.3,16.3v0c0,9-7.3,16.3-16.3,16.3h-1.5
			c-9,0-16.3,7.3-16.3,16.3v0c0,9,7.3,16.3,16.3,16.3h93.7c9,0,16.3-7.3,16.3-16.3v0c0-9-7.3-16.3-16.3-16.3h-22.2
			c-9,0-16.3-7.3-16.3-16.3v0c0-9,7.3-16.3,16.3-16.3h72.9c9,0,16.3-7.3,16.3-16.3v0c0-9-7.3-16.3-16.3-16.3h-11.5
			c-9,0-16.3-7.3-16.3-16.3v0c0-9,7.3-16.3,16.3-16.3h10c9,0,16.3-7.3,16.3-16.3v0c0-9-7.3-16.3-16.3-16.3h-77.4
			c-9,0-16.3-7.3-16.3-16.3v0c0-9,7.3-16.3,16.3-16.3h40.2c9,0,16.3-7.3,16.3-16.3v0c0-9-7.3-16.3-16.3-16.3h-196
			c-9,0-16.3,7.3-16.3,16.3v0C321,715.6,328.3,722.9,337.3,722.9z M445.5,804.4L445.5,804.4c0-9,7.3-16.3,16.3-16.3h30
			c9,0,16.3,7.3,16.3,16.3v0c0,9-7.3,16.3-16.3,16.3h-30C452.8,820.7,445.5,813.4,445.5,804.4z"/>
	</g>
</g>
<g id="XMLID_17_">
	<path id="XMLID_29_" class="st9" d="M413.7,690.4h203.6c55.7-20.9,80.8-61.9,80.8-115c0-3.3-0.2-6.7-0.4-10
		c-27.9,4.5-57.2,7.1-87.5,7.6c-8.2,27.6-33.8,47.6-64.1,47.6h-71c-17.8,0-32.2-14.3-32.2-32v-5.2h-1.9c-17.8,0-32.2-14.5-32.2-32.2
		v-15.6c-26.4-3.8-50.5-9.9-72-17.9c-3,11.2-4.7,22.9-4.7,34.9C332,618.5,357.9,667.1,413.7,690.4z"/>
	<path id="XMLID_110_" class="st10" d="M408.7,551.1v-15.6c-26.4-3.8-50.5-9.9-72-17.9c-3,11.2-4.7,22.9-4.7,34.9
		c0,4.4,0.1,8.6,0.3,12.9l94.5,14.8C416.1,574.9,408.7,563.8,408.7,551.1z"/>
	<path id="XMLID_107_" class="st11" d="M573.5,614.7c-8.4,3.8-17.6,5.8-27.4,5.8h-71c-6.9,0-13.3-2.2-18.6-5.8H341.6
		c12,34.5,35.7,60.5,72.1,75.7h203.6c41-15.4,65.4-41.7,75.4-75.7H573.5z"/>
	<path id="XMLID_79_" class="st12" d="M398.3,535.5v17.1c0,19.5,15.8,36.4,35.3,36.4h2.1v4.7c0,19.5,15.8,35.2,35.3,35.2h78
		c33.2,0,61.4-22,70.3-52.2c26.9-0.5,53.2-2.5,78.5-5.8c-0.1-1.8-0.2-3.7-0.3-5.5c-27.9,4.5-57.2,7.1-87.5,7.6
		c-8.2,27.6-33.8,47.6-64.1,47.6h-71c-17.8,0-32.2-14.3-32.2-32v-5.2h-1.9c-17.8,0-32.2-14.5-32.2-32.2v-15.6
		c-26.4-3.8-50.5-9.9-72-17.9c-0.4,1.3-0.7,2.6-1,3.9C355,527.5,375.9,532.3,398.3,535.5z"/>
	<path id="XMLID_102_" class="st13" d="M408.7,551.1v-15.6c-26.4-3.8-50.5-9.9-72-17.9c-3,11.2-4.7,22.9-4.7,34.9
		c0,4.4,0.1,8.6,0.3,12.9l94.5,14.8C416.1,574.9,408.7,563.8,408.7,551.1z"/>
	<rect id="XMLID_148_" x="364.5" y="558.1" class="st14" width="27.8" height="27.8"/>
	<path id="XMLID_36_" class="st13" d="M647,614.7h-73.6c-8.4,3.8-17.6,5.8-27.4,5.8h-71c-6.9,0-13.3-2.2-18.6-5.8h-43.2"/>
	<path id="XMLID_100_" class="st13" d="M403.8,614.7h-62.2c12,34.5,35.7,60.5,72.1,75.7h203.6c41-15.4,65.4-41.7,75.4-75.7h-36.5"/>
	<path id="XMLID_99_" class="st15" d="M361.7,651.8c12.9,16.4,30.2,29.4,52,38.6h203.6c24.5-9.2,43-22.3,56.2-38.6H361.7z"/>
	<g id="XMLID_80_" class="st16">
		<path id="XMLID_82_" class="st17" d="M697.6,565.4c-5.3,0.9-10.8,1.6-16.2,2.3c0.1,2.2,0.2,4.5,0.2,6.7H619v0
			c0,6.5,5.3,11.7,11.7,11.7h50.6c-2.2,31.7-14,58.6-36.9,78.9c-13,11.4-29.8,15.6-47.1,15.6H438.1c-13.4,0-26.6-1.7-38-8.9
			c-41.2-25.9-60.5-70-60.5-127.1c0-1.3,1-7.9,1.6-11.6c0.2-1.4,1.6-2.3,2.9-1.9l46,11.2c3.9,0.9,7.9-0.7,10-4.1
			c0.2-0.4,0.4-0.6,0.4-0.8c0.4-3.1-59-15-58.4-18c-1.8-0.6-3.6-1.3-5.3-1.9c-3,11.2-4.7,22.9-4.7,34.9c0,66.1,25.8,114.7,81.6,138
			h187.2h16.4c1.6-0.6,3.2-1.2,4.7-1.9c0.5-0.2,1-0.4,1.5-0.6c1.1-0.4,2.1-0.9,3.1-1.4c0.5-0.2,1.1-0.5,1.6-0.7c1-0.5,2-0.9,2.9-1.4
			c0.5-0.2,1-0.5,1.5-0.7c1.1-0.6,2.2-1.1,3.3-1.7c0.3-0.2,0.6-0.3,0.9-0.5c1.4-0.7,2.7-1.5,4-2.3c0.4-0.2,0.8-0.5,1.2-0.7
			c0.9-0.6,1.9-1.1,2.8-1.7c0.5-0.3,1-0.6,1.4-0.9c0.8-0.5,1.6-1,2.4-1.6c0.5-0.3,0.9-0.6,1.4-1c0.8-0.6,1.6-1.1,2.4-1.7
			c0.4-0.3,0.8-0.6,1.2-0.9c1.1-0.9,2.3-1.7,3.3-2.6c0.3-0.2,0.5-0.5,0.8-0.7c0.8-0.7,1.7-1.4,2.5-2.1c0.4-0.4,0.8-0.7,1.2-1.1
			c0.7-0.6,1.3-1.2,1.9-1.8c0.4-0.4,0.8-0.8,1.2-1.2c0.6-0.6,1.2-1.2,1.8-1.8c0.4-0.4,0.8-0.8,1.1-1.2c0.7-0.8,1.5-1.6,2.2-2.3
			c19.2-21.4,28.2-48.9,28.2-80.7C698,572.1,697.9,568.7,697.6,565.4z"/>
	</g>
	<line id="XMLID_65_" class="st13" x1="645" y1="651.8" x2="632.8" y2="651.8"/>
	<path id="XMLID_10_" class="st13" d="M623.1,651.8H361.7c12.9,16.4,30.2,29.4,52,38.6h203.6c24.5-9.2,43-22.3,56.2-38.6h-22.2"/>
	<path id="XMLID_58_" class="st18" d="M596.6,283.7c-26.2-15.4-52.3,11.3-78.5-4.2c0,11.1,0,22.3,0,33.4
		c26.2,12.7,52.3-16.8,78.5-4.2c-5.7-7.2-11.4-12.5-17.1-16.6C585.2,288,590.9,284.9,596.6,283.7z"/>
	<path id="XMLID_61_" class="st19" d="M532.8,284.3c-4.9-0.5-9.8-1.9-14.6-4.8c0,11.1,0,22.3,0,33.4c4.9,2.4,9.8,3.3,14.6,3.2V284.3
		z"/>
	<line id="XMLID_13_" class="st20" x1="518.1" y1="273.1" x2="518.1" y2="620.5"/>
	<path id="XMLID_34_" class="st21" d="M573.6,599.4c-37,0-73.9,0-110.9,0c-14-35.3-14-74.6,0-109.8c37,0,73.9,0,110.9,0
		C559.6,524.9,559.6,564.1,573.6,599.4z"/>
	<path id="XMLID_41_" class="st7" d="M531.5,521.2c0-11.2-1.7-21.8-4.7-31.6c-21.4,0-42.8,0-64.1,0c-14,35.3-14,74.6,0,109.8
		c9.8,0,19.7,0,29.5,0C515.3,586.1,531.5,556.1,531.5,521.2z"/>
	<path id="XMLID_2_" class="st20" d="M573.6,599.4c-37,0-73.9,0-110.9,0c-14-35.3-14-74.6,0-109.8c37,0,73.9,0,110.9,0
		C559.6,524.9,559.6,564.1,573.6,599.4z"/>
	<path id="XMLID_44_" class="st21" d="M561.5,474.3c-28.9,0-57.8,0-86.7,0c-7.5-18.8-7.5-39.8,0-58.6c28.9,0,57.8,0,86.7,0
		C554,434.5,554,455.5,561.5,474.3z"/>
	<path id="XMLID_40_" class="st7" d="M531.5,428c0-4.2-0.5-8.4-1.5-12.3c-18.4,0-36.8,0-55.1,0c-7.5,18.8-7.5,39.8,0,58.6
		c8.4,0,16.7,0,25.1,0C518.4,466.9,531.5,449,531.5,428z"/>
	<path id="XMLID_7_" class="st20" d="M561.5,474.3c-28.9,0-57.8,0-86.7,0c-7.5-18.8-7.5-39.8,0-58.6c28.9,0,57.8,0,86.7,0
		C554,434.5,554,455.5,561.5,474.3z"/>
	<path id="XMLID_45_" class="st21" d="M548.7,400.4c-19.5,0-38.9,0-58.4,0c-4.7-11.9-4.7-25.1,0-37c19.5,0,38.9,0,58.4,0
		C544,375.3,544,388.5,548.7,400.4z"/>
	<path id="XMLID_39_" class="st7" d="M531.5,363.4c-13.7,0-27.5,0-41.2,0c-4.7,11.9-4.7,25.1,0,37c5.6,0,11.2,0,16.7,0
		C527,397.9,536.4,378.1,531.5,363.4z"/>
	<path id="XMLID_21_" class="st20" d="M548.7,400.4c-19.5,0-38.9,0-58.4,0c-4.7-11.9-4.7-25.1,0-37c19.5,0,38.9,0,58.4,0
		C544,375.3,544,388.5,548.7,400.4z"/>
	<g id="XMLID_26_" class="st22">
		<g id="XMLID_137_">
			<circle id="XMLID_139_" class="st23" cx="464.5" cy="656.8" r="9.8"/>
			<circle id="XMLID_138_" class="st20" cx="464.5" cy="656.8" r="9.8"/>
		</g>
		<g id="XMLID_130_">
			<circle id="XMLID_132_" class="st23" cx="510.4" cy="656.8" r="9.8"/>
			<circle id="XMLID_131_" class="st20" cx="510.4" cy="656.8" r="9.8"/>
		</g>
		<g id="XMLID_122_">
			<circle id="XMLID_124_" class="st23" cx="556.4" cy="656.8" r="9.8"/>
			<circle id="XMLID_123_" class="st20" cx="556.4" cy="656.8" r="9.8"/>
		</g>
		<g id="XMLID_115_">
			<circle id="XMLID_119_" class="st23" cx="602.4" cy="656.8" r="9.8"/>
			<circle id="XMLID_118_" class="st20" cx="602.4" cy="656.8" r="9.8"/>
		</g>
		<g id="XMLID_67_">
			<circle id="XMLID_73_" class="st23" cx="418.5" cy="656.8" r="9.8"/>
			<circle id="XMLID_71_" class="st20" cx="418.5" cy="656.8" r="9.8"/>
		</g>
	</g>
	<g id="XMLID_19_">
		<g id="XMLID_20_">
			<circle id="XMLID_62_" class="st23" cx="462.5" cy="651.8" r="9.8"/>
			<circle id="XMLID_12_" class="st20" cx="462.5" cy="651.8" r="9.8"/>
		</g>
		<g id="XMLID_63_">
			<circle id="XMLID_89_" class="st23" cx="508.4" cy="651.8" r="9.8"/>
			<circle id="XMLID_64_" class="st20" cx="508.4" cy="651.8" r="9.8"/>
		</g>
		<g id="XMLID_95_">
			<circle id="XMLID_101_" class="st23" cx="554.4" cy="651.8" r="9.8"/>
			<circle id="XMLID_98_" class="st20" cx="554.4" cy="651.8" r="9.8"/>
		</g>
		<g id="XMLID_60_">
			<circle id="XMLID_93_" class="st23" cx="600.4" cy="651.8" r="9.8"/>
			<circle id="XMLID_92_" class="st20" cx="600.4" cy="651.8" r="9.8"/>
		</g>
		<g id="XMLID_106_">
			<circle id="XMLID_113_" class="st23" cx="416.5" cy="651.8" r="9.8"/>
			<circle id="XMLID_146_" class="st23" cx="416.5" cy="651.8" r="9.8"/>
			<circle id="XMLID_108_" class="st20" cx="416.5" cy="651.8" r="9.8"/>
		</g>
	</g>
	<g id="XMLID_147_">
		<circle id="XMLID_68_" class="st23" cx="651.2" cy="592.1" r="9.8"/>
		<circle id="XMLID_25_" class="st20" cx="651.2" cy="592.1" r="9.8"/>
	</g>
	<path id="XMLID_15_" class="st20" d="M413.7,690.4h203.6c55.7-20.9,80.8-61.9,80.8-115c0-3.3-0.2-6.7-0.4-10
		c-27.9,4.5-57.2,7.1-87.5,7.6c-8.2,27.6-33.8,47.6-64.1,47.6h-71c-17.8,0-32.2-14.3-32.2-32v-5.2h-1.9c-17.8,0-32.2-14.5-32.2-32.2
		v-15.6c-26.4-3.8-50.5-9.9-72-17.9c-3,11.2-4.7,22.9-4.7,34.9C332,618.5,357.9,667.1,413.7,690.4z"/>
	<rect id="XMLID_28_" x="610.1" y="525.7" class="st24" width="100.1" height="47.3"/>
	<path id="XMLID_69_" class="st25" d="M610.1,525.7L610.1,525.7c0,5.2,4.2,9.4,9.4,9.4H698v25.7c0,6.7,5.5,12.2,12.2,12.2l0,0v-47.3
		H610.1z"/>
	<rect id="XMLID_4_" x="610.1" y="525.7" class="st20" width="100.1" height="47.3"/>
	<g id="XMLID_31_">
		<g id="XMLID_76_">
			<path id="XMLID_78_" class="st26" d="M651.2,573H634v-19.9c0-4.7,3.8-8.6,8.6-8.6l0,0c4.7,0,8.6,3.8,8.6,8.6V573z"/>
			<path id="XMLID_77_" class="st26" d="M686.3,573h-17.2v-19.9c0-4.7,3.8-8.6,8.6-8.6l0,0c4.7,0,8.6,3.8,8.6,8.6V573z"/>
		</g>
	</g>
	<g id="XMLID_23_">
		<path id="XMLID_22_" class="st20" d="M651.2,573H634v-19.9c0-4.7,3.8-8.6,8.6-8.6l0,0c4.7,0,8.6,3.8,8.6,8.6V573z"/>
		<path id="XMLID_27_" class="st20" d="M686.3,573h-17.2v-19.9c0-4.7,3.8-8.6,8.6-8.6l0,0c4.7,0,8.6,3.8,8.6,8.6V573z"/>
	</g>
	<polygon id="XMLID_30_" class="st24" points="408.7,524.8 306.2,500 303,513.6 408.7,539.1 	"/>
	<polygon id="XMLID_18_" class="st20" points="408.7,524.8 306.2,500 303,513.6 408.7,539.1 	"/>
	<line id="XMLID_96_" class="st20" x1="716.4" y1="690.4" x2="719.5" y2="690.4"/>
	<line id="XMLID_91_" class="st20" x1="686.3" y1="690.4" x2="703.4" y2="690.4"/>
	<line id="XMLID_97_" class="st20" x1="332" y1="690.4" x2="673.4" y2="690.4"/>
	<line id="XMLID_129_" class="st20" x1="270.2" y1="690.4" x2="315.1" y2="690.4"/>
	<line id="XMLID_52_" class="st27" x1="657.4" y1="378.1" x2="657.4" y2="525.7"/>
	<path id="XMLID_48_" class="st21" d="M692.7,507.4c-23.5,0-47,0-70.6,0c-9-22.7-9-47.9,0-70.6c23.5,0,47,0,70.6,0
		C683.7,459.5,683.7,484.7,692.7,507.4z"/>
	<path id="XMLID_46_" class="st7" d="M668.1,446.8c0-3.4-0.2-6.8-0.6-10c-15.1,0-30.2,0-45.4,0c-9,22.7-9,47.9,0,70.6c5,0,10,0,15,0
		C655.5,495.7,668.1,473,668.1,446.8z"/>
	<path id="XMLID_49_" class="st21" d="M685.2,424.4c-18.5,0-37,0-55.6,0c-4.6-11.6-4.6-24.5,0-36c18.5,0,37,0,55.6,0
		C680.6,400,680.6,412.8,685.2,424.4z"/>
	<path id="XMLID_47_" class="st7" d="M667.4,388.4c-12.6,0-25.2,0-37.8,0c-4.6,11.6-4.6,24.5,0,36c6.4,0,12.7,0,19.1,0
		C659.4,415.6,666.5,402.8,667.4,388.4z"/>
	<path id="XMLID_11_" class="st20" d="M692.7,507.4c-23.5,0-47,0-70.6,0c-9-22.7-9-47.9,0-70.6c23.5,0,47,0,70.6,0
		C683.7,459.5,683.7,484.7,692.7,507.4z"/>
	<path id="XMLID_8_" class="st20" d="M685.2,424.4c-18.5,0-37,0-55.6,0c-4.6-11.6-4.6-24.5,0-36c18.5,0,37,0,55.6,0
		C680.6,400,680.6,412.8,685.2,424.4z"/>
	<line id="XMLID_54_" class="st27" x1="371.9" y1="384.7" x2="371.9" y2="515.9"/>
	<path id="XMLID_50_" class="st21" d="M416.5,489.6c-29.7,0-59.5,0-89.2,0c-11.3-28.7-11.3-60.6,0-89.2c29.7,0,59.5,0,89.2,0
		C405.1,429,405.1,460.9,416.5,489.6z"/>
	<path id="XMLID_38_" class="st7" d="M385.8,424.6c0-8.5-1.8-16.7-4.9-24.2c-17.9,0-35.7,0-53.6,0c-11.3,28.7-11.3,60.6,0,89.2
		c2.2,0,4.4,0,6.6,0C364.1,480.3,385.8,454.7,385.8,424.6z"/>
	<path id="XMLID_16_" class="st20" d="M416.5,489.6c-29.7,0-59.5,0-89.2,0c-11.3-28.7-11.3-60.6,0-89.2c29.7,0,59.5,0,89.2,0
		C405.1,429,405.1,460.9,416.5,489.6z"/>
	<line id="XMLID_104_" class="st20" x1="303" y1="505.8" x2="252.4" y2="490.4"/>
	<rect id="XMLID_14_" x="360.8" y="553.1" class="st26" width="27.8" height="27.8"/>
	<rect id="XMLID_5_" x="360.8" y="553.1" class="st20" width="27.8" height="27.8"/>
	<path id="XMLID_37_" class="st28" d="M270.2,495.8c0,0,91.4-63.7,101.7-107.4c41.2,0,143.4-33.2,144.8-54.3
		c8.7,21.9,51.6,60.6,140.7,43.9"/>
	<rect id="XMLID_53_" x="506.4" y="325.2" class="st24" width="20.7" height="17.8"/>
	<rect id="XMLID_9_" x="506.4" y="325.2" class="st20" width="20.7" height="17.8"/>
</g>
</svg>
