<?xml version="1.0" encoding="utf-8"?>
<!-- Generator: Adobe Illustrator 23.1.1, SVG Export Plug-In . SVG Version: 6.00 Build 0)  -->
<svg version="1.1" id="Layer_1" xmlns="http://www.w3.org/2000/svg" xmlns:xlink="http://www.w3.org/1999/xlink" x="0px" y="0px"
	 viewBox="0 0 1000 1000" style="enable-background:new 0 0 1000 1000;" xml:space="preserve">
<style type="text/css">
	.st0{fill:#FFFFFF;}
	.st1{fill:#E4E8EC;}
	.st2{fill:none;stroke:#441A36;stroke-width:5.9999;stroke-linecap:round;stroke-linejoin:round;stroke-miterlimit:9.9999;}
	.st3{fill:#FFDEC5;}
	.st4{fill:#F9C2AF;}
	.st5{fill:none;stroke:#441A36;stroke-width:6;stroke-linecap:round;stroke-linejoin:round;stroke-miterlimit:10;}
	.st6{fill:#FF4F7C;}
	.st7{fill:#F44275;}
	.st8{fill:#DCF8FF;}
	.st9{fill:#A3ECFD;}
	.st10{fill:none;stroke:#FFFFFF;stroke-width:6;stroke-linecap:round;stroke-linejoin:round;stroke-miterlimit:10;}
	.st11{fill:#606060;}
	.st12{fill:none;stroke:#441A36;stroke-width:6;stroke-linecap:round;stroke-linejoin:round;stroke-miterlimit:9.9999;}
	.st13{fill:#FFFFFF;stroke:#441A36;stroke-width:6;stroke-linecap:round;stroke-linejoin:round;stroke-miterlimit:10;}
</style>
<rect class="st0" width="1000" height="1000"/>
<ellipse class="st1" cx="495.9" cy="869.8" rx="258.3" ry="45.2"/>
<g>
	
		<ellipse transform="matrix(0.7071 -0.7071 0.7071 0.7071 -317.9486 361.9161)" class="st0" cx="277.9" cy="564.8" rx="24.6" ry="100.3"/>
	
		<ellipse transform="matrix(0.7071 -0.7071 0.7071 0.7071 -317.9486 361.9161)" class="st2" cx="277.9" cy="564.8" rx="24.6" ry="100.3"/>
	<path class="st3" d="M563.9,419.6c28.3-18.3,60.6-47.6,80.5-71.5c45.4-54.5,22.9-76,16.7-80.3c-11.3-7.9-37.2-1.9-58.5,20
		c7.3-8,24-28.1,28.2-35.2c16.3-27.1,10.2-52.1-2.1-59.5c-13.4-8.1-38.2-9.2-72.5,37.9c-36.7,50.4-96,94.9-104.4,101
		c0,0-0.1,0-0.1-0.1c35.2-30,93.8-101.7,78.1-146.6c-8.3-23.7-47.1-28.4-73,21.8c-21.1,40.8-45.1,76.4-99.1,127.8
		c-6.4-16.1,4.6-48.3,3.1-76.1c-3.1-59.6-44.2-63.9-66-56.2c-29.1,10.2,14.6,78.4-16.9,139.1c-17.2,33.2-51,81.3-12.7,138
		l-120.8,88.6c21.8,56.3,62.9,96.4,116.3,126.3l105.4-101.7c37.4,23.4,107.8-30.6,172.3-91.7c49.1-26.4,64.4-34,93.8-48.7
		c21.3-10.6,50.1-24.1,48.8-40.2C678.3,378.2,604.5,394.4,563.9,419.6z"/>
	<path class="st4" d="M337.9,273.1c-15.5,71.6,19.8,61.8,19.8,61.8s-3.1-0.2,0-38.2s7.4-80.7-32.2-95.2
		C320.6,219.9,347.6,228.2,337.9,273.1z"/>
	<g>
		<path class="st4" d="M631.4,195.1c2.8,5.8,3.7,17.5-11.3,44.6c-17.5,31.8-109.8,125.4-131.7,127.6c16.2,18.8,10,11.6,10,11.6
			s120.3-80.2,141.9-152.5C642,212.3,638,200.9,631.4,195.1z"/>
		<path class="st4" d="M661.8,268.4c1.9,9-0.4,24.1-13.3,41.8C594.5,384.5,525.9,423,525.9,423c2.3,4.5,5.6,8.4,9.1,15.3
			c48.5-29,107.5-87.9,109.3-90.1C688.1,295.7,668.8,273.8,661.8,268.4z"/>
		<path class="st4" d="M523.7,175.6c-35.4,112.1-96.5,147.8-96.5,147.8c4.4-3.2,12,2.7,24.6,8.6c46.5-40.2,67-83.3,79.4-117.5
			c1.9-10.4,1.7-20.4-1.4-29.2C528.6,181.5,526.5,178.2,523.7,175.6z"/>
		<path class="st4" d="M681.1,412.3c-0.9-10.6-8.7-16.4-20.2-18.5c5.5,8.5,6.7,19.8-5.2,25.8c-25.4,12.7-85.3,49-107,48.4
			c-6.4-0.2-12.7,1.9-17.5,6.2C468,530.5,390,581.5,354.6,559.3l-106.8,90.5c-42.5-23.8-40.3,14.8,13,44.7l105.4-101.7
			c37.4,23.4,107.8-30.6,172.3-91.7c49.1-26.4,64.4-34,93.8-48.7C653.6,441.8,682.4,428.4,681.1,412.3z"/>
	</g>
	<path class="st5" d="M602.6,287.8c0,0-52.2,57.3-104.2,91.1"/>
	<path class="st5" d="M357.7,334.9c20.1,19.1,39.6,53.8,29.7,88.1"/>
	<path class="st5" d="M427.2,323.4c0,0,62,11.5,114.2,130.6"/>
	<path class="st5" d="M563.9,419.6c28.3-18.3,60.6-47.6,80.5-71.5c45.4-54.5,22.9-76,16.7-80.3c-11.3-7.9-37.2-1.9-58.5,20
		c7.3-8,24-28.1,28.2-35.2c16.3-27.1,10.2-52.1-2.1-59.5c-13.4-8.1-38.2-9.2-72.5,37.9c-36.7,50.4-96,94.9-104.4,101
		c0,0-0.1,0-0.1-0.1c35.2-30,93.8-101.7,78.1-146.6c-8.3-23.7-47.1-28.4-73,21.8c-21.1,40.8-45.1,76.4-99.1,127.8
		c-6.4-16.1,4.6-48.3,3.1-76.1c-3.1-59.6-44.2-63.9-66-56.2c-29.1,10.2,14.6,78.4-16.9,139.1c-17.2,33.2-51,81.3-12.7,138
		l-120.8,88.6c21.8,56.3,62.9,96.4,116.3,126.3l105.4-101.7c53.5,14,107.8-30.6,172.3-91.7c49.1-26.4,64.4-34,93.8-48.7
		c21.3-10.6,50.1-24.1,48.8-40.2C678.3,378.2,604.5,394.4,563.9,419.6z"/>
	<line class="st5" x1="535.1" y1="438.2" x2="563.9" y2="419.6"/>
	<path class="st6" d="M206.9,493.8c-17,32.6,118.4,162.1,141.9,141.9c0,0-63.1,59.1-79.4,74.9c-42.2,4.6-148.5-81.9-145.6-154.2
		L206.9,493.8z"/>
	<path class="st7" d="M296.7,614.4c-21.3,20-66.6,62.5-81.1,76.6c20.7,13.4,40.4,21.1,53.8,19.6c16.2-15.8,79.4-74.9,79.4-74.9
		C340.8,642.5,320.1,632.2,296.7,614.4z"/>
	<path class="st5" d="M206.9,493.8c-17,32.6,118.4,162.1,141.9,141.9c0,0-63.1,59.1-79.4,74.9c-42.2,4.6-148.5-81.9-145.6-154.2
		L206.9,493.8z"/>
</g>
<g>
	<g>
		<circle class="st8" cx="383" cy="300.2" r="55.5"/>
		<path class="st9" d="M405.8,249.6c6.3,8.4,10,18.9,10,30.2c0,28-22.7,50.7-50.7,50.7c-13.7,0-26-5.4-35.2-14.2
			c6.9,22.8,28.1,39.4,53.1,39.4c30.7,0,55.5-24.9,55.5-55.5C438.5,277.7,425.1,258.3,405.8,249.6z"/>
		<circle class="st5" cx="383" cy="300.2" r="55.5"/>
		<path class="st10" d="M354.8,328.4c-7.2-7.2-11.7-17.2-11.7-28.2"/>
	</g>
	<g>
		<circle class="st8" cx="433.2" cy="402.3" r="70.8"/>
		<path class="st9" d="M462.3,337.8c8,10.8,12.7,24.1,12.7,38.5c0,35.7-29,64.7-64.7,64.7c-17.4,0-33.2-6.9-44.8-18.1
			c8.8,29,35.8,50.2,67.7,50.2c39.1,0,70.8-31.7,70.8-70.8C504,373.6,486.9,348.9,462.3,337.8z"/>
		<circle class="st5" cx="433.2" cy="402.3" r="70.8"/>
		<path class="st10" d="M397.3,438.2c-9.2-9.2-14.9-21.9-14.9-35.9"/>
	</g>
	<g>
		
			<ellipse transform="matrix(0.1891 -0.982 0.982 0.1891 134.6371 729.6398)" class="st8" cx="509.1" cy="283.3" rx="46.2" ry="46.2"/>
		<path class="st9" d="M528,241.2c5.2,7,8.3,15.7,8.3,25.2c0,23.3-18.9,42.2-42.2,42.2c-11.4,0-21.7-4.5-29.3-11.8
			c5.8,19,23.4,32.8,44.2,32.8c25.5,0,46.2-20.7,46.2-46.2C555.3,264.6,544.1,248.4,528,241.2z"/>
		
			<ellipse transform="matrix(0.1891 -0.982 0.982 0.1891 134.6371 729.6398)" class="st5" cx="509.1" cy="283.3" rx="46.2" ry="46.2"/>
		<path class="st10" d="M485.6,306.8c-6-6-9.7-14.3-9.7-23.4"/>
	</g>
	<g>
		<circle class="st8" cx="312.2" cy="459.4" r="41.2"/>
		<path class="st9" d="M329.2,421.8c4.7,6.3,7.4,14,7.4,22.4c0,20.8-16.9,37.6-37.6,37.6c-10.1,0-19.3-4-26.1-10.5
			c5.1,16.9,20.8,29.2,39.4,29.2c22.8,0,41.2-18.4,41.2-41.2C353.4,442.7,343.5,428.3,329.2,421.8z"/>
		<circle class="st5" cx="312.2" cy="459.4" r="41.2"/>
		<path class="st10" d="M291.4,480.3c-5.4-5.4-8.7-12.7-8.7-20.9"/>
	</g>
	<g>
		<circle class="st8" cx="213.7" cy="346.2" r="28.2"/>
		<path class="st9" d="M225.2,320.5c3.2,4.3,5.1,9.6,5.1,15.3c0,14.2-11.5,25.7-25.7,25.7c-6.9,0-13.2-2.7-17.8-7.2
			c3.5,11.6,14.2,20,26.9,20c15.6,0,28.2-12.6,28.2-28.2C241.8,334.8,235,324.9,225.2,320.5z"/>
		<circle class="st5" cx="213.7" cy="346.2" r="28.2"/>
		<path class="st10" d="M199.4,360.5c-3.7-3.7-5.9-8.7-5.9-14.3"/>
	</g>
	<g>
		<circle class="st8" cx="224.6" cy="204.9" r="14.1"/>
		<path class="st9" d="M230.4,192c1.6,2.1,2.5,4.8,2.5,7.7c0,7.1-5.8,12.9-12.9,12.9c-3.5,0-6.6-1.4-8.9-3.6c1.8,5.8,7.1,10,13.5,10
			c7.8,0,14.1-6.3,14.1-14.1C238.7,199.2,235.2,194.2,230.4,192z"/>
		<circle class="st5" cx="224.6" cy="204.9" r="14.1"/>
	</g>
	<g>
		<circle class="st8" cx="641.5" cy="213.7" r="30.3"/>
		<path class="st9" d="M654,186.1c3.4,4.6,5.5,10.3,5.5,16.5c0,15.3-12.4,27.7-27.7,27.7c-7.5,0-14.2-3-19.2-7.7
			c3.8,12.4,15.3,21.5,29,21.5c16.8,0,30.3-13.6,30.3-30.3C671.8,201.4,664.5,190.8,654,186.1z"/>
		<circle class="st5" cx="641.5" cy="213.7" r="30.3"/>
		<path class="st10" d="M626.1,229.1c-3.9-3.9-6.4-9.4-6.4-15.4"/>
	</g>
	<g>
		<circle class="st8" cx="552.3" cy="628.3" r="20.7"/>
		<path class="st9" d="M560.8,609.4c2.3,3.2,3.7,7.1,3.7,11.3c0,10.5-8.5,18.9-18.9,18.9c-5.1,0-9.7-2-13.1-5.3
			c2.6,8.5,10.5,14.7,19.8,14.7c11.5,0,20.7-9.3,20.7-20.7C573,619.9,568,612.6,560.8,609.4z"/>
		<circle class="st5" cx="552.3" cy="628.3" r="20.7"/>
		<path class="st10" d="M541.8,638.8c-2.7-2.7-4.4-6.4-4.4-10.5"/>
	</g>
	<g>
		<circle class="st8" cx="451.7" cy="207" r="30.3"/>
		<path class="st9" d="M464.2,179.3c3.4,4.6,5.5,10.3,5.5,16.5c0,15.3-12.4,27.7-27.7,27.7c-7.5,0-14.2-3-19.2-7.7
			c3.8,12.4,15.3,21.5,29,21.5c16.8,0,30.3-13.6,30.3-30.3C482,194.7,474.7,184.1,464.2,179.3z"/>
		<circle class="st5" cx="451.7" cy="207" r="30.3"/>
		<path class="st10" d="M436.3,219c-3.1-3.1-5-7.3-5-12"/>
	</g>
	<g>
		<circle class="st8" cx="484.4" cy="478.5" r="95.3"/>
		<path class="st9" d="M523.6,391.6c10.8,14.5,17.2,32.5,17.2,51.9c0,48.1-39,87.1-87.1,87.1c-23.5,0-44.7-9.3-60.4-24.4
			c11.9,39.1,48.2,67.6,91.2,67.6c52.7,0,95.3-42.7,95.3-95.3C579.8,439.8,556.7,406.5,523.6,391.6z"/>
		<circle class="st5" cx="484.4" cy="478.5" r="95.3"/>
		<path class="st10" d="M436.1,526.9c-12.4-12.4-20.1-29.5-20.1-48.3"/>
	</g>
	<g>
		<circle class="st8" cx="603.3" cy="463" r="49.9"/>
		<path class="st9" d="M623.8,417.5c5.6,7.6,9,17,9,27.1c0,25.2-20.4,45.6-45.6,45.6c-12.3,0-23.4-4.9-31.6-12.7
			c6.2,20.5,25.2,35.3,47.7,35.3c27.5,0,49.9-22.3,49.9-49.9C653.2,442.8,641.1,425.3,623.8,417.5z"/>
		<circle class="st5" cx="603.3" cy="463" r="49.9"/>
		<path class="st10" d="M578,488.3c-6.5-6.5-10.5-15.4-10.5-25.3"/>
	</g>
	<g>
		<circle class="st8" cx="547.1" cy="388.8" r="70.8"/>
		<path class="st9" d="M576.1,324.2c8,10.8,12.7,24.1,12.7,38.5c0,35.7-29,64.7-64.7,64.7c-17.4,0-33.2-6.9-44.8-18.1
			c8.8,29,35.8,50.2,67.7,50.2c39.1,0,70.8-31.7,70.8-70.8C617.9,360.1,600.7,335.3,576.1,324.2z"/>
		<circle class="st5" cx="547.1" cy="388.8" r="70.8"/>
		<path class="st10" d="M511.2,424.7c-9.2-9.2-14.9-21.9-14.9-35.9"/>
	</g>
</g>
<g>
	<g>
		<g>
			<g>
				<path class="st11" d="M63.2,959.2c0,2.5-1.2,3.7-2.6,3.7c-1.1,0-1.9-0.5-2.1-1.4c-0.4,0.5-1,0.8-1.8,0.8c-1.5,0-2.6-1.2-2.6-2.8
					s1.1-2.8,2.6-2.8c0.7,0,1.2,0.3,1.6,0.7v-0.5h1.6v3.9c0,0.8,0.3,1.4,1,1.4c0.9,0,1.7-0.9,1.7-3c0-3-2.3-5.3-5.4-5.3
					c-3.1,0-5.6,2.4-5.6,5.7s2.5,5.7,5.9,5.7c1.1,0,2.1-0.2,2.9-0.4v0.6c-0.8,0.3-1.7,0.4-2.9,0.4c-3.7,0-6.5-2.6-6.5-6.2
					c0-3.4,2.7-6.2,6.2-6.2C61.1,953.3,63.2,956.4,63.2,959.2z M58.3,959.5c0-0.8-0.6-1.4-1.3-1.4c-0.8,0-1.3,0.5-1.3,1.4
					c0,0.8,0.6,1.3,1.3,1.3C57.8,960.9,58.3,960.3,58.3,959.5z"/>
			</g>
		</g>
		<g>
			<g>
				<path class="st11" d="M69.4,955.1v2c-1.2-0.1-2.6,0.5-2.6,2.4v4.3h-1.9v-8.6h1.9v1.4C67.3,955.5,68.3,955.1,69.4,955.1z"/>
			</g>
		</g>
		<g>
			<g>
				<path class="st11" d="M74.6,962.3c1,0,1.8-0.5,2.2-1.1l1.5,0.9c-0.8,1.2-2.1,1.9-3.8,1.9c-2.8,0-4.7-1.9-4.7-4.5
					c0-2.5,1.8-4.5,4.5-4.5c2.6,0,4.3,2.1,4.3,4.5c0,0.3,0,0.5-0.1,0.8h-6.8C72.1,961.6,73.2,962.3,74.6,962.3z M76.9,958.8
					c-0.3-1.5-1.3-2.1-2.5-2.1c-1.4,0-2.3,0.8-2.6,2.1H76.9z"/>
			</g>
		</g>
		<g>
			<g>
				<path class="st11" d="M88.9,955.2v8.6H87v-1.2c-0.7,0.9-1.7,1.5-3,1.5c-2.3,0-4.3-2-4.3-4.5c0-2.6,1.9-4.5,4.3-4.5
					c1.3,0,2.3,0.5,3,1.4v-1.2L88.9,955.2L88.9,955.2z M87.1,959.5c0-1.6-1.2-2.7-2.7-2.7s-2.7,1.1-2.7,2.7c0,1.6,1.2,2.7,2.7,2.7
					C85.9,962.3,87.1,961.1,87.1,959.5z"/>
			</g>
		</g>
		<g>
			<g>
				<path class="st11" d="M91.1,951.3H93v12.5h-1.9V951.3z"/>
			</g>
		</g>
		<g>
			<g>
				<path class="st11" d="M102.9,955.2l-3.3,8.6h-2.1l-3.3-8.6h2l2.4,6.5l2.4-6.5H102.9z"/>
			</g>
		</g>
		<g>
			<g>
				<path class="st11" d="M104.2,955.2h1.9v8.9c0,2.4-1.2,3.5-3.5,3.3v-1.8c1.1,0.1,1.7-0.3,1.7-1.5L104.2,955.2L104.2,955.2z
					 M104,952.8c0-0.7,0.5-1.2,1.2-1.2s1.2,0.5,1.2,1.2c0,0.6-0.5,1.2-1.2,1.2S104,953.4,104,952.8z"/>
			</g>
		</g>
		<g>
			<g>
				<path class="st11" d="M116,955.2l-3.3,8.8c-0.8,2.2-2.2,3.3-4.2,3.2v-1.7c1.2,0.1,1.9-0.5,2.3-1.7l0.1-0.2l-3.6-8.4h2l2.6,6.2
					l2.2-6.2L116,955.2L116,955.2z"/>
			</g>
		</g>
	</g>
	<g>
		<g>
			<path class="st11" d="M58.9,938.7c0,2.1-1.5,3.8-3.6,3.8h-3v-7.6h3C57.4,934.9,58.9,936.6,58.9,938.7z M57.9,938.7
				c0-1.6-1.1-2.9-2.6-2.9h-2v5.7h2C56.8,941.6,57.9,940.3,57.9,938.7z"/>
		</g>
		<g>
			<path class="st11" d="M67,941.6v1h-4.6V935h4.5v1h-3.5v2.3h3.2v0.9h-3.2v2.4L67,941.6L67,941.6z"/>
		</g>
		<g>
			<path class="st11" d="M70,940.8l0.9-0.5c0.3,0.8,0.9,1.4,2,1.4s1.6-0.5,1.6-1.2c0-0.8-0.7-1-1.8-1.4c-1.2-0.4-2.4-0.8-2.4-2.2
				s1.1-2.2,2.4-2.2s2.2,0.7,2.6,1.7l-0.8,0.5c-0.3-0.7-0.8-1.2-1.7-1.2c-0.8,0-1.4,0.4-1.4,1.1c0,0.7,0.5,1,1.6,1.3
				c1.3,0.4,2.6,0.8,2.6,2.3c0,1.3-1.1,2.2-2.6,2.2C71.5,942.7,70.4,941.9,70,940.8z"/>
		</g>
		<g>
			<path class="st11" d="M80,934.9v7.6h-1v-7.6H80z"/>
		</g>
		<g>
			<path class="st11" d="M91.3,939.2c0,1.9-1.4,3.5-3.7,3.5c-2.4,0-4-1.8-4-4s1.7-4,4-4c1.4,0,2.7,0.8,3.3,1.8L90,937
				c-0.4-0.8-1.4-1.4-2.4-1.4c-1.8,0-3,1.3-3,3s1.2,3,3,3c1.6,0,2.5-0.9,2.7-2h-2.8v-0.9h3.8C91.3,938.7,91.3,939.2,91.3,939.2z"/>
		</g>
		<g>
			<path class="st11" d="M100.6,934.9v7.6h-0.8l-3.9-5.7v5.7h-1v-7.6h0.8l3.9,5.7v-5.7H100.6z"/>
		</g>
		<g>
			<path class="st11" d="M109.1,941.6v1h-4.6V935h4.5v1h-3.5v2.3h3.2v0.9h-3.2v2.4L109.1,941.6L109.1,941.6z"/>
		</g>
		<g>
			<path class="st11" d="M119.2,938.7c0,2.1-1.5,3.8-3.6,3.8h-3v-7.6h3C117.6,934.9,119.2,936.6,119.2,938.7z M118.2,938.7
				c0-1.6-1.1-2.9-2.6-2.9h-2v5.7h2C117.1,941.6,118.2,940.3,118.2,938.7z"/>
		</g>
		<g>
			<path class="st11" d="M133.2,940.4c0,1.2-1,2.2-2.2,2.2h-3.3V935h3c1.2,0,2.1,0.9,2.1,2.1c0,0.7-0.3,1.2-0.8,1.6
				C132.7,938.9,133.2,939.5,133.2,940.4z M128.7,935.8v2.3h2c0.6,0,1.1-0.5,1.1-1.2c0-0.6-0.5-1.2-1.1-1.2h-2V935.8z M132.2,940.3
				c0-0.7-0.5-1.2-1.2-1.2h-2.3v2.5h2.3C131.7,941.6,132.2,941,132.2,940.3z"/>
		</g>
		<g>
			<path class="st11" d="M139.4,939.4v3.1h-1v-3.1l-2.7-4.5h1.1l2.1,3.6l2.1-3.6h1.1L139.4,939.4z"/>
		</g>
	</g>
	<g>
		<g>
			<g>
				<g>
					<path class="st11" d="M846.1,938.7c0,2.1-1.5,3.8-3.6,3.8h-3v-7.6h3C844.6,934.9,846.1,936.6,846.1,938.7z M845.2,938.7
						c0-1.6-1.1-2.9-2.6-2.9h-2v5.7h2C844.1,941.6,845.2,940.3,845.2,938.7z"/>
				</g>
			</g>
			<g>
				<g>
					<path class="st11" d="M849.3,938.7c0-2.2,1.7-4,3.9-4s4,1.8,4,4s-1.7,4-4,4C851,942.7,849.3,940.9,849.3,938.7z M856.1,938.7
						c0-1.7-1.3-3-2.9-3c-1.7,0-2.9,1.3-2.9,3s1.3,3,2.9,3C854.9,941.7,856.1,940.4,856.1,938.7z"/>
				</g>
			</g>
			<g>
				<g>
					<path class="st11" d="M859.8,934.9h1.1l1.7,6.3l1.9-6.3h1l1.9,6.3l1.7-6.3h1.1l-2.2,7.6h-1.2l-1.8-6.1l-1.8,6.1H862
						L859.8,934.9z"/>
				</g>
			</g>
			<g>
				<g>
					<path class="st11" d="M879.3,934.9v7.6h-0.8l-3.9-5.7v5.7h-1v-7.6h0.8l3.9,5.7v-5.7H879.3z"/>
				</g>
			</g>
			<g>
				<g>
					<path class="st11" d="M887.5,941.6v1h-4.3V935h1v6.7h3.3V941.6z"/>
				</g>
			</g>
			<g>
				<g>
					<path class="st11" d="M889.9,938.7c0-2.2,1.7-4,3.9-4s4,1.8,4,4s-1.7,4-4,4C891.6,942.7,889.9,940.9,889.9,938.7z M896.8,938.7
						c0-1.7-1.3-3-2.9-3c-1.7,0-2.9,1.3-2.9,3s1.3,3,2.9,3S896.8,940.4,896.8,938.7z"/>
				</g>
			</g>
			<g>
				<g>
					<path class="st11" d="M905.4,940.8H902l-0.6,1.7h-1.1l2.8-7.6h1.1l2.8,7.6h-1L905.4,940.8z M905.1,939.9l-1.4-3.8l-1.4,3.8
						H905.1z"/>
				</g>
			</g>
			<g>
				<g>
					<path class="st11" d="M916.9,938.7c0,2.1-1.5,3.8-3.6,3.8h-3v-7.6h3C915.4,934.9,916.9,936.6,916.9,938.7z M915.9,938.7
						c0-1.6-1.1-2.9-2.6-2.9h-2v5.7h2C914.9,941.6,915.9,940.3,915.9,938.7z"/>
				</g>
			</g>
			<g>
				<g>
					<path class="st11" d="M926.5,935.8v2.5h3.2v1h-3.2v3.2h-1v-7.6h4.4v1h-3.4V935.8z"/>
				</g>
			</g>
			<g>
				<g>
					<path class="st11" d="M936.2,939.6h-1.8v2.9h-1v-7.6h3c1.3,0,2.4,1.1,2.4,2.4c0,1-0.7,1.9-1.6,2.2l1.8,3.1h-1.1L936.2,939.6z
						 M934.4,938.7h2c0.8,0,1.4-0.6,1.4-1.4c0-0.8-0.6-1.4-1.4-1.4h-2V938.7z"/>
				</g>
			</g>
			<g>
				<g>
					<path class="st11" d="M941.9,938.7c0-2.2,1.7-4,3.9-4s4,1.8,4,4s-1.7,4-4,4C943.6,942.7,941.9,940.9,941.9,938.7z M948.8,938.7
						c0-1.7-1.3-3-2.9-3c-1.7,0-2.9,1.3-2.9,3s1.3,3,2.9,3S948.8,940.4,948.8,938.7z"/>
				</g>
			</g>
			<g>
				<g>
					<path class="st11" d="M960.4,942.5h-1v-6l-2.5,4.2h-0.1l-2.5-4.1v5.9h-1v-7.6h1.1l2.4,4l2.4-4h1.1L960.4,942.5L960.4,942.5z"/>
				</g>
			</g>
		</g>
		<g>
			<g>
				<g>
					<path class="st11" d="M839.3,952.9c0-0.7,0.5-1.2,1.2-1.2s1.2,0.5,1.2,1.2s-0.5,1.2-1.2,1.2
						C839.9,954.1,839.3,953.6,839.3,952.9z M839.6,955.4h1.9v8.9h-1.9V955.4z"/>
				</g>
			</g>
			<g>
				<g>
					<path class="st11" d="M843.7,951.4h1.9v12.9h-1.9V951.4z"/>
				</g>
			</g>
			<g>
				<g>
					<path class="st11" d="M847.8,951.4h1.9v12.9h-1.9V951.4z"/>
				</g>
			</g>
			<g>
				<g>
					<path class="st11" d="M852,951.4h1.9v12.9H852V951.4z"/>
				</g>
			</g>
			<g>
				<g>
					<path class="st11" d="M864,955.4v8.9h-1.9v-1.1c-0.6,0.9-1.5,1.4-2.7,1.4c-2,0-3.4-1.3-3.4-3.6v-5.4h1.9v5.2
						c0,1.3,0.8,2.1,2,2.1c1.3,0,2.2-0.7,2.2-2.5v-4.7h1.9V955.4z"/>
				</g>
			</g>
			<g>
				<g>
					<path class="st11" d="M872.6,961.8c0,1.8-1.5,2.7-3.5,2.7c-1.8,0-3-0.8-3.6-2.1l1.6-1c0.3,0.8,1,1.3,2,1.3c0.8,0,1.5-0.3,1.5-1
						c0-1.6-4.8-0.7-4.8-3.9c0-1.7,1.4-2.7,3.2-2.7c1.5,0,2.7,0.7,3.3,1.8l-1.6,0.9c-0.3-0.7-0.9-1-1.7-1c-0.7,0-1.3,0.3-1.3,0.9
						C867.9,959.5,872.6,958.5,872.6,961.8z"/>
				</g>
			</g>
			<g>
				<g>
					<path class="st11" d="M876.7,957.3v4.2c0,1.1,0.7,1.1,2.2,1v1.7c-2.9,0.4-4.1-0.5-4.1-2.8v-4.2h-1.6v-1.8h1.6v-1.9l1.9-0.6v2.5
						h2.2v1.8L876.7,957.3L876.7,957.3z"/>
				</g>
			</g>
			<g>
				<g>
					<path class="st11" d="M885.4,955.3v2.1c-1.3-0.1-2.7,0.5-2.7,2.5v4.5h-1.9v-8.9h1.9v1.5C883.2,955.7,884.2,955.3,885.4,955.3z"
						/>
				</g>
			</g>
			<g>
				<g>
					<path class="st11" d="M895.3,955.4v8.9h-1.9V963c-0.7,0.9-1.7,1.5-3.1,1.5c-2.4,0-4.4-2-4.4-4.7c0-2.6,2-4.7,4.4-4.7
						c1.4,0,2.4,0.6,3.1,1.5v-1.3h1.9V955.4z M893.4,959.9c0-1.6-1.2-2.8-2.8-2.8s-2.8,1.2-2.8,2.8s1.2,2.8,2.8,2.8
						S893.4,961.5,893.4,959.9z"/>
				</g>
			</g>
			<g>
				<g>
					<path class="st11" d="M900.3,957.3v4.2c0,1.1,0.7,1.1,2.2,1v1.7c-2.9,0.4-4.1-0.5-4.1-2.8v-4.2h-1.6v-1.8h1.6v-1.9l1.9-0.6v2.5
						h2.2v1.8L900.3,957.3L900.3,957.3z"/>
				</g>
			</g>
			<g>
				<g>
					<path class="st11" d="M903.9,952.9c0-0.7,0.5-1.2,1.2-1.2s1.2,0.5,1.2,1.2s-0.5,1.2-1.2,1.2
						C904.5,954.1,903.9,953.6,903.9,952.9z M904.2,955.4h1.9v8.9h-1.9V955.4z"/>
				</g>
			</g>
			<g>
				<g>
					<path class="st11" d="M907.8,959.9c0-2.6,2.1-4.7,4.7-4.7c2.6,0,4.7,2,4.7,4.7c0,2.6-2.1,4.7-4.7,4.7
						C909.9,964.5,907.8,962.5,907.8,959.9z M915.3,959.9c0-1.6-1.2-2.8-2.8-2.8s-2.8,1.2-2.8,2.8s1.2,2.8,2.8,2.8
						S915.3,961.5,915.3,959.9z"/>
				</g>
			</g>
			<g>
				<g>
					<path class="st11" d="M927,958.9v5.4h-1.9v-5.2c0-1.3-0.8-2.1-2-2.1c-1.3,0-2.2,0.7-2.2,2.5v4.7H919v-8.9h1.9v1.1
						c0.6-0.9,1.5-1.4,2.7-1.4C925.5,955.2,927,956.6,927,958.9z"/>
				</g>
			</g>
			<g>
				<g>
					<path class="st11" d="M935.5,961.8c0,1.8-1.5,2.7-3.5,2.7c-1.8,0-3-0.8-3.6-2.1l1.6-1c0.3,0.8,1,1.3,2,1.3c0.8,0,1.5-0.3,1.5-1
						c0-1.6-4.8-0.7-4.8-3.9c0-1.7,1.4-2.7,3.2-2.7c1.5,0,2.7,0.7,3.3,1.8l-1.6,0.9c-0.3-0.7-0.9-1-1.7-1c-0.7,0-1.3,0.3-1.3,0.9
						C930.7,959.5,935.5,958.5,935.5,961.8z"/>
				</g>
			</g>
			<g>
				<g>
					<path class="st11" d="M936.8,963.2c0-0.7,0.6-1.3,1.3-1.3s1.3,0.6,1.3,1.3s-0.6,1.3-1.3,1.3
						C937.4,964.5,936.8,963.9,936.8,963.2z"/>
				</g>
			</g>
			<g>
				<g>
					<path class="st11" d="M940.3,959.9c0-2.6,2-4.7,4.7-4.7c1.7,0,3.2,0.9,3.9,2.3l-1.6,1c-0.4-0.8-1.3-1.4-2.3-1.4
						c-1.6,0-2.7,1.2-2.7,2.8s1.2,2.8,2.7,2.8c1.1,0,1.9-0.5,2.4-1.4l1.6,0.9c-0.7,1.4-2.2,2.3-4,2.3
						C942.3,964.5,940.3,962.5,940.3,959.9z"/>
				</g>
			</g>
			<g>
				<g>
					<path class="st11" d="M949.7,959.9c0-2.6,2.1-4.7,4.7-4.7c2.6,0,4.7,2,4.7,4.7c0,2.6-2.1,4.7-4.7,4.7
						C951.8,964.5,949.7,962.5,949.7,959.9z M957.2,959.9c0-1.6-1.2-2.8-2.8-2.8s-2.8,1.2-2.8,2.8s1.2,2.8,2.8,2.8
						S957.2,961.5,957.2,959.9z"/>
				</g>
			</g>
		</g>
	</g>
	<g>
		<path class="st11" d="M209.9,943.1c-1.2,0-2.2-0.4-3-1.2s-1.2-1.8-1.2-2.9c0-1.2,0.4-2.1,1.2-2.9c0.8-0.8,1.8-1.2,3-1.2
			c0.7,0,1.4,0.2,2,0.5s1.1,0.8,1.4,1.4l-0.9,0.5c-0.2-0.4-0.6-0.8-1-1s-0.9-0.4-1.5-0.4c-0.9,0-1.7,0.3-2.2,0.9
			c-0.6,0.6-0.9,1.3-0.9,2.2s0.3,1.6,0.9,2.2c0.6,0.6,1.3,0.9,2.2,0.9c0.5,0,1-0.1,1.5-0.4c0.5-0.3,0.8-0.6,1-1l0.9,0.5
			c-0.3,0.6-0.8,1.1-1.4,1.4S210.6,943.1,209.9,943.1z"/>
		<path class="st11" d="M222.1,941.9c-0.8,0.8-1.8,1.2-2.9,1.2s-2.1-0.4-2.9-1.2s-1.2-1.8-1.2-2.9c0-1.2,0.4-2.1,1.2-2.9
			c0.8-0.8,1.8-1.2,2.9-1.2s2.1,0.4,2.9,1.2c0.8,0.8,1.2,1.8,1.2,2.9C223.3,940.1,222.9,941.1,222.1,941.9z M217,941.2
			c0.6,0.6,1.3,0.9,2.2,0.9s1.6-0.3,2.2-0.9c0.6-0.6,0.9-1.3,0.9-2.2s-0.3-1.6-0.9-2.2c-0.6-0.6-1.3-0.9-2.2-0.9s-1.6,0.3-2.2,0.9
			c-0.6,0.6-0.9,1.3-0.9,2.2C216.1,939.8,216.4,940.6,217,941.2z"/>
		<path class="st11" d="M227.3,942.9l-2.8-7.9h1.1l2.3,6.6l2.3-6.6h1.1l-2.8,7.9H227.3z"/>
		<path class="st11" d="M233.3,935h1.1v7.9h-1.1V935z"/>
		<path class="st11" d="M240.2,935c1.1,0,2,0.4,2.7,1.2s1.1,1.7,1.1,2.8s-0.4,2.1-1.1,2.8c-0.7,0.8-1.6,1.2-2.7,1.2h-3.1v-8H240.2z
			 M240.2,941.9c0.8,0,1.5-0.3,2-0.9c0.5-0.6,0.8-1.3,0.8-2.1s-0.3-1.6-0.8-2.1c-0.5-0.6-1.2-0.9-2-0.9h-2v5.9L240.2,941.9
			L240.2,941.9z"/>
		<path class="st11" d="M246.2,939.9v-1h4.1v1H246.2z"/>
		<path class="st11" d="M255.3,938.1c0.7,0,1.4,0.2,1.9,0.7s0.8,1.1,0.8,1.8c0,0.8-0.3,1.4-0.8,1.8c-0.5,0.4-1.2,0.7-1.9,0.7
			c-0.6,0-1.1-0.1-1.6-0.4c-0.5-0.3-0.8-0.7-1-1.3l0.9-0.5c0.1,0.4,0.3,0.7,0.6,0.9s0.7,0.3,1.1,0.3c0.5,0,0.9-0.1,1.2-0.4
			c0.3-0.3,0.5-0.6,0.5-1.1s-0.2-0.8-0.5-1.1s-0.7-0.4-1.2-0.4H253l0.3-4.1h4.3v1h-3.4l-0.1,2.1H255.3z"/>
	</g>
	<g>
		<path class="st11" d="M208.1,964.8l-3.7-13h2.3l2.7,10.2l3-10.2h2l2.9,10.2l2.7-10.2h2.3l-3.7,13h-2.5l-2.8-9.5l-2.8,9.5H208.1z"
			/>
		<path class="st11" d="M230.1,955.5h2v9.3h-2v-1.3c-0.8,1.1-1.8,1.6-3.3,1.6c-1.3,0-2.4-0.5-3.3-1.4c-0.9-0.9-1.4-2.1-1.4-3.5
			s0.5-2.5,1.4-3.5s2-1.4,3.3-1.4c1.4,0,2.5,0.5,3.3,1.6V955.5z M225,962.3c0.6,0.6,1.3,0.8,2.1,0.8s1.5-0.3,2.1-0.8
			s0.8-1.3,0.8-2.1s-0.3-1.6-0.8-2.1s-1.3-0.8-2.1-0.8s-1.5,0.3-2.1,0.8c-0.6,0.6-0.8,1.3-0.8,2.1S224.5,961.7,225,962.3z"/>
		<path class="st11" d="M236.2,958.1c0,0.3,0.2,0.6,0.5,0.7c0.3,0.2,0.8,0.3,1.2,0.5c0.5,0.1,1,0.3,1.5,0.5s0.9,0.5,1.3,0.9
			c0.3,0.4,0.5,0.9,0.5,1.6c0,0.9-0.3,1.6-1,2.1s-1.6,0.8-2.6,0.8c-0.9,0-1.7-0.2-2.4-0.6c-0.7-0.4-1.1-0.9-1.4-1.6l1.7-1
			c0.3,0.9,1,1.3,2.1,1.3s1.6-0.3,1.6-1c0-0.3-0.2-0.5-0.5-0.7s-0.8-0.3-1.2-0.5c-0.5-0.1-1-0.3-1.5-0.5s-0.9-0.5-1.3-0.9
			c-0.3-0.4-0.5-0.9-0.5-1.5c0-0.9,0.3-1.5,1-2.1c0.7-0.5,1.5-0.8,2.4-0.8c0.8,0,1.5,0.2,2.1,0.5s1.1,0.8,1.4,1.4l-1.7,0.9
			c-0.3-0.7-0.9-1.1-1.7-1.1c-0.4,0-0.7,0.1-1,0.3C236.3,957.5,236.2,957.8,236.2,958.1z"/>
		<path class="st11" d="M247.7,955.3c1.1,0,1.9,0.3,2.6,1s1,1.6,1,2.8v5.7h-2v-5.5c0-0.7-0.2-1.2-0.6-1.6c-0.4-0.4-0.9-0.6-1.5-0.6
			c-0.7,0-1.3,0.2-1.7,0.7c-0.4,0.4-0.7,1.1-0.7,2v5h-2v-13h2v4.9C245.4,955.8,246.4,955.3,247.7,955.3z"/>
		<path class="st11" d="M265.9,951.8h2.1v13h-2.1v-5.6h-5.6v5.6h-2.1v-13h2.1v5.3h5.6V951.8z"/>
		<path class="st11" d="M277.9,955.5h2v9.3h-2v-1.3c-0.8,1.1-1.8,1.6-3.3,1.6c-1.3,0-2.4-0.5-3.3-1.4s-1.4-2.1-1.4-3.5
			s0.5-2.5,1.4-3.5s2-1.4,3.3-1.4c1.4,0,2.5,0.5,3.3,1.6V955.5z M272.9,962.3c0.6,0.6,1.3,0.8,2.1,0.8c0.8,0,1.5-0.3,2.1-0.8
			s0.8-1.3,0.8-2.1s-0.3-1.6-0.8-2.1s-1.3-0.8-2.1-0.8c-0.8,0-1.5,0.3-2.1,0.8c-0.6,0.6-0.8,1.3-0.8,2.1S272.3,961.7,272.9,962.3z"
			/>
		<path class="st11" d="M287.2,955.3c1.1,0,1.9,0.3,2.6,1s1,1.6,1,2.8v5.7h-2v-5.5c0-0.7-0.2-1.2-0.6-1.6c-0.4-0.4-0.9-0.6-1.5-0.6
			c-0.7,0-1.3,0.2-1.7,0.7c-0.4,0.4-0.7,1.1-0.7,2v5h-2v-9.3h2v1.2C284.9,955.8,285.9,955.3,287.2,955.3z"/>
		<path class="st11" d="M300.3,951.8h2v13h-2v-1.3c-0.8,1.1-1.8,1.6-3.3,1.6c-1.3,0-2.4-0.5-3.3-1.4s-1.4-2.1-1.4-3.5
			s0.5-2.5,1.4-3.5s2-1.4,3.3-1.4c1.4,0,2.5,0.5,3.3,1.6V951.8z M295.2,962.3c0.6,0.6,1.3,0.8,2.1,0.8c0.8,0,1.5-0.3,2.1-0.8
			s0.8-1.3,0.8-2.1s-0.3-1.6-0.8-2.1s-1.3-0.8-2.1-0.8c-0.8,0-1.5,0.3-2.1,0.8c-0.6,0.6-0.8,1.3-0.8,2.1S294.7,961.7,295.2,962.3z"
			/>
	</g>
</g>
<g>
	
		<ellipse transform="matrix(0.7761 -0.6306 0.6306 0.7761 -260.0215 601.383)" class="st0" cx="716.9" cy="666.9" rx="100.3" ry="24.6"/>
	
		<ellipse transform="matrix(0.7761 -0.6306 0.6306 0.7761 -260.0215 601.383)" class="st12" cx="716.9" cy="666.9" rx="100.3" ry="24.6"/>
	<path class="st3" d="M602,369.4c-15.3-30.1-41.1-65.2-62.8-87.4c-49.5-50.8-73.2-30.6-78.1-24.9c-9.1,10.5-5.7,36.9,13.8,60.3
		c-7.2-8-25.5-26.7-32.1-31.7c-25.3-19-50.8-15.5-59.4-4.1c-9.4,12.5-13.1,37.1,30.2,76c46.4,41.7,84.5,105.2,89.7,114.2
		c0,0,0,0-0.1,0.1c-26.2-38.1-91.5-103.8-137.8-92.8c-24.4,5.8-33.1,43.9,14.2,74.9c38.4,25.2,71.3,52.8,116.9,111.8
		c-16.7,4.7-47.6-9.5-75.4-10.9c-59.6-3-68.1,37.4-62.7,59.8c7.2,30,79.5-6.4,136.6,31.1c31.2,20.5,75.6,59.1,136,26.9l75.7,129.2
		c58.2-15.9,102.4-52.6,137.6-102.6L754,583.9c27.2-34.8-19.4-110.4-73.5-180.8c-21.2-51.6-27.2-67.6-38.8-98.4
		c-8.4-22.3-15.7-53.7-34.9-52.7C565.5,254.1,581.1,326.3,602,369.4z"/>
	<g>
		<path class="st13" d="M403.5,625.6c0,0,0-7.9,0-16.3c0-2.7-2-5-4.6-5.5c-12-2.1-24.7-2.9-28.6,2.3c-2.9,3.8-1.8,17.3-1.8,17.3
			C376.7,626.5,389.9,626.2,403.5,625.6z"/>
	</g>
	<g>
		<path class="st4" d="M385.5,277.2c6-2.2,17.8-1.8,43.2,15.8c29.8,20.7,92.5,110.5,100.3,124.6c12,21.7,25.7,10.8,25.7,10.8
			s-67.4-127.9-137.1-156.9C403.8,268.4,392,271.3,385.5,277.2z"/>
		<path class="st4" d="M461.6,254.5c9.1-0.9,24,2.8,40.3,17.5c68.3,61.4,78.8,110.8,97.1,128.3c3.7,3.5,11.3,0.5,18.5-2.3
			c-23.8-51.2-76.4-115.9-78.4-118C491.4,231.2,467.7,248.1,461.6,254.5z"/>
		<path class="st4" d="M355.1,382.3C462.9,429,476.6,469.8,482.5,473s13.6,8.8,20.7-3.2c-35.2-50.4-76-75.2-108.7-91
			c-10.2-3-20.1-3.8-29.2-1.7C361.5,378.1,358,379.8,355.1,382.3z"/>
		<path class="st4" d="M606.8,252c-10.7-0.2-0.1,11.6,4.6,24.1c10,26.6,39.9,89.9,37.1,111.5c-0.8,6.4,5.2,23.2,9,28.5
			c49.5,68.7,77.5,140.6,61.6,170.5c-16.5,30.9,66.5,122.8,66.5,122.8c-28.1,39.8,23.4,37.9,58.7-12.1L754,582
			c27.2-34.8-19.4-110.4-73.5-180.8c-21.2-51.6-27.2-67.6-38.8-98.4C633.3,280.5,622.9,252.3,606.8,252z"/>
	</g>
	<path class="st5" d="M474.8,315.4c0,0,51.6,57.8,79.9,113"/>
	<path class="st5" d="M601.9,367.5c-15.3-30.1-41.1-65.2-62.8-87.4c-49.5-50.8-73.2-30.6-78.1-24.9c-9.1,10.5-5.7,36.9,13.8,60.3
		c-7.2-8-25.5-26.7-32.1-31.7c-25.3-19-50.8-15.5-59.4-4.1c-9.4,12.5-13.1,37.1,30.2,76c46.4,41.7,84.5,105.2,89.7,114.2
		c0,0,0,0-0.1,0.1c-26.2-38.1-91.5-103.8-137.8-92.8c-24.4,5.8-33.1,43.9,14.2,74.9c38.4,25.2,71.3,52.8,116.9,111.8
		c-16.7,4.7-47.6-9.5-75.4-10.9c-59.6-3-68.1,37.4-62.7,59.8c7.2,30,79.5-6.4,136.6,31.1c31.2,20.5,75.6,59.1,136,26.9L706.6,800
		c58.2-16,102.4-52.7,137.6-102.7L753.9,582c19.4-51.7-19.4-110.4-73.5-180.8c-21.2-51.6-27.2-67.6-38.8-98.4
		c-8.4-22.3-17.1-51.4-35-50.5C564.8,254.3,581.1,324.4,601.9,367.5z"/>
	<line class="st5" x1="617.5" y1="398" x2="601.9" y2="367.5"/>
	<path class="st6" d="M639,730.2c30.7,20.3,173.4-101,155.7-126.5c0,0,52.2,68.9,66.3,86.7c0.2,42.5-96.7,139.3-168.3,129L639,730.2
		z"/>
	<path class="st7" d="M768.2,653.2c17.7,23.3,55.3,72.7,67.8,88.6c15.5-19.2,25.1-38,25.1-51.5c-14.1-17.8-66.3-86.7-66.3-86.7
		C800.7,612.3,788.3,631.9,768.2,653.2z"/>
	<path class="st5" d="M639,730.2c30.7,20.3,173.4-101,155.7-126.5c0,0,52.2,68.9,66.3,86.7c0.2,42.5-96.7,139.3-168.3,129L639,730.2
		z"/>
	<path class="st13" d="M381.5,388.9c-8.1-1.4-23.1,1.9-22,19.2c0.7,10.3,12.3,18.8,19,22.8c2.5,1.5,5.7,0.7,7.2-1.8l15.5-25.2
		c1.4-2.3,0.9-5.4-1.3-7C396.1,394.1,389.6,390.2,381.5,388.9z"/>
	<path class="st13" d="M496,263.2c-6.9-2.8-20.9-2.9-23.4,12.7c-1.5,9.3,7.2,19.1,12.3,24c1.9,1.8,4.9,1.8,6.7-0.1l18.8-19.3
		c1.7-1.8,1.8-4.6,0.2-6.5C507.9,270.8,503,266.1,496,263.2z"/>
	<path class="st13" d="M619.4,274.7c-3-5-11.4-13-20.2-4.4c-5.2,5.1-4.6,16.7-3.7,22.1c0.3,2,2.2,3.4,4.2,3l20.6-3.3
		c1.9-0.3,3.3-2,3.1-3.9C623.3,284.9,622.4,279.7,619.4,274.7z"/>
	<path class="st13" d="M416.6,283.9c-7.7-2.9-23.1-0.9-25.3,14.7c-1.2,8.2,5.3,17.3,11,23.6c4.1,4.5,11.3,4.6,15.5,0.1l13.8-14.7
		c4.2-4.5,3.7-11.6-1-15.4C426.8,289.1,422,285.9,416.6,283.9z"/>
</g>
</svg>
