<svg width="213" height="40" viewBox="0 0 213 40" fill="none" xmlns="http://www.w3.org/2000/svg">
<path d="M51 0V39.4366H59.5202L60.2586 36.169C62.3034 38.5915 65.1435 40 68.722 40C76.5037 40 83.0927 33.1831 83.0927 24.6197C83.0927 16.0563 76.6741 9.57746 69.0628 9.57746C65.8819 9.57746 63.2691 10.7606 61.2242 12.7324V0H51ZM60.9402 24.7887C60.9402 21.5211 63.4395 18.8732 66.9043 18.8732C70.3692 18.8732 72.8685 21.5211 72.8685 24.7887C72.8685 28.0563 70.3692 30.7042 66.9043 30.7042C63.4395 30.7042 60.9402 28.0563 60.9402 24.7887Z" fill="#0095ED"/>
<path d="M86.8224 0V39.4366H97.1603V0H86.8224Z" fill="#0095ED"/>
<path d="M100.916 24.9577C100.916 33.5211 107.619 40 116.934 40C126.25 40 133.293 33.1831 133.293 24.6197C133.293 16.0563 126.59 9.57746 117.275 9.57746C107.96 9.57746 100.916 16.3944 100.916 24.9577ZM111.14 24.7887C111.14 21.5211 113.64 18.8732 117.105 18.8732C120.569 18.8732 123.069 21.5211 123.069 24.7887C123.069 28.0563 120.569 30.7042 117.105 30.7042C113.64 30.7042 111.14 28.0563 111.14 24.7887Z" fill="#0095ED"/>
<path d="M135.623 24.9577C135.623 33.5211 142.325 40 151.641 40C160.956 40 167.999 33.1831 167.999 24.6197C167.999 16.0563 161.297 9.57746 151.981 9.57746C142.666 9.57746 135.623 16.3944 135.623 24.9577ZM145.847 24.7887C145.847 21.5211 148.346 18.8732 151.811 18.8732C155.276 18.8732 157.775 21.5211 157.775 24.7887C157.775 28.0563 155.276 30.7042 151.811 30.7042C148.346 30.7042 145.847 28.0563 145.847 24.7887Z" fill="#0095ED"/>
<path d="M176.604 40C180.069 40 182.852 37.2394 182.852 33.8028C182.852 30.3662 180.069 27.6056 176.604 27.6056C173.139 27.6056 170.356 30.3662 170.356 33.8028C170.356 37.2394 173.139 40 176.604 40Z" fill="#0095ED"/>
</svg>
