<svg width="24" height="24" viewBox="0 0 24 24" fill="none" xmlns="http://www.w3.org/2000/svg">
<path d="M17.5347 6.65445L17.5213 6.64654L17.4902 6.63705C17.5027 6.64761 17.5184 6.65373 17.5347 6.65445Z" fill="black"/>
<path d="M17.7387 8.08397L17.7236 8.0882L17.7387 8.08397Z" fill="black"/>
<path d="M17.5407 6.64496C17.5392 6.64476 17.5377 6.6444 17.5362 6.64388C17.5361 6.64489 17.5361 6.6459 17.5362 6.64692C17.5379 6.6467 17.5394 6.64602 17.5407 6.64496Z" fill="black"/>
<path d="M17.7256 8.0756L17.7483 8.06269L17.7567 8.05795L17.7643 8.04977C17.7499 8.056 17.7368 8.06475 17.7256 8.0756Z" fill="black"/>
<path d="M17.5743 6.68224L17.5521 6.66116L17.5371 6.65298C17.5452 6.66723 17.5585 6.67774 17.5743 6.68224Z" fill="black"/>
<path d="M11.8107 20.5482C11.793 20.5558 11.7775 20.5678 11.7656 20.583L11.7796 20.574C11.7891 20.5653 11.8025 20.555 11.8107 20.5482Z" fill="black"/>
<path d="M15.1612 19.8981C15.1612 19.8776 15.1513 19.8814 15.1537 19.954C15.1537 19.9482 15.1561 19.9422 15.1572 19.9366C15.1585 19.9237 15.1596 19.911 15.1612 19.8981Z" fill="black"/>
<path d="M14.8127 20.5482C14.795 20.5558 14.7795 20.5678 14.7676 20.583L14.7816 20.574C14.7911 20.5653 14.8045 20.555 14.8127 20.5482Z" fill="black"/>
<path d="M9.45467 20.7047C9.44124 20.6931 9.4248 20.6854 9.40723 20.6826C9.42146 20.6895 9.43569 20.6963 9.44518 20.7016L9.45467 20.7047Z" fill="black"/>
<path d="M8.92926 20.2028C8.92711 20.1817 8.92061 20.1611 8.91016 20.1426C8.91756 20.1619 8.92376 20.1817 8.92872 20.2018L8.92926 20.2028Z" fill="black"/>
<path d="M12.489 11.2359C11.761 11.5434 10.9349 11.8921 9.86415 11.8921C9.41624 11.8912 8.97051 11.8306 8.53906 11.7118L9.27959 19.2146C9.3058 19.5282 9.45056 19.8206 9.68514 20.0337C9.9197 20.2469 10.2269 20.3652 10.5458 20.3651C10.5458 20.3651 11.5957 20.4189 11.9461 20.4189C12.3232 20.4189 13.4539 20.3651 13.4539 20.3651C13.7727 20.3651 14.0799 20.2468 14.3144 20.0337C14.5489 19.8205 14.6936 19.5281 14.7198 19.2146L15.513 10.9237C15.1585 10.8043 14.8008 10.7249 14.3975 10.7249C13.7001 10.7247 13.1381 10.9617 12.489 11.2359Z" fill="#FFDD00"/>
<path d="M6.24609 8.04068L6.25822 8.05199L6.26613 8.05674C6.26004 8.05074 6.25332 8.04531 6.24609 8.04068Z" fill="black"/>
<path d="M18.9375 7.34556L18.8261 6.79049C18.726 6.29246 18.4989 5.82187 17.9808 5.64187C17.8148 5.58429 17.6264 5.55954 17.4991 5.44035C17.3717 5.32115 17.3341 5.13604 17.3046 4.96438C17.2501 4.6493 17.1989 4.33397 17.143 4.01944C17.0947 3.74903 17.0565 3.44526 16.9308 3.19718C16.7672 2.86409 16.4278 2.66929 16.0902 2.54041C15.9173 2.47669 15.7408 2.42279 15.5616 2.37897C14.7183 2.15942 13.8316 2.0787 12.964 2.03269C11.9227 1.97598 10.8786 1.99307 9.8397 2.08381C9.06646 2.15323 8.25205 2.23718 7.51725 2.50113C7.24869 2.59772 6.97195 2.71368 6.76773 2.91844C6.51716 3.17001 6.43537 3.55907 6.61832 3.87279C6.74837 4.09558 6.96868 4.25298 7.20234 4.35711C7.5067 4.49127 7.82455 4.59336 8.15063 4.66168C9.05856 4.85971 9.99893 4.93747 10.9265 4.97056C11.9546 5.01151 12.9843 4.97833 14.0075 4.87128C14.2605 4.84384 14.5131 4.81092 14.7652 4.77254C15.0621 4.7276 15.2527 4.34446 15.1651 4.07755C15.0604 3.75845 14.7791 3.63468 14.4609 3.68284C14.414 3.69011 14.3674 3.69683 14.3205 3.70356L14.2867 3.7084C14.1789 3.72186 14.0711 3.73441 13.9633 3.74607C13.7407 3.76975 13.5174 3.78912 13.2937 3.80419C12.7925 3.83863 12.2901 3.8545 11.7878 3.85531C11.2943 3.85531 10.8005 3.84159 10.3081 3.80957C10.0835 3.79504 9.85933 3.77656 9.63576 3.75414C9.53406 3.74365 9.43263 3.73262 9.33121 3.72024L9.23469 3.70813L9.2137 3.70517L9.11363 3.69091C8.90914 3.66051 8.70465 3.62553 8.50234 3.58329C8.48193 3.57882 8.46367 3.56761 8.45058 3.55152C8.4375 3.53542 8.43036 3.5154 8.43036 3.49476C8.43036 3.47413 8.4375 3.45411 8.45058 3.43802C8.46367 3.42192 8.48193 3.41071 8.50234 3.40624H8.50616C8.68148 3.36938 8.85815 3.33791 9.03538 3.31046C9.09445 3.30131 9.15371 3.29234 9.21315 3.28355H9.21478C9.32575 3.27629 9.43727 3.25665 9.5477 3.24373C10.5084 3.14511 11.4749 3.1115 12.4403 3.1431C12.909 3.15656 13.3774 3.18373 13.8439 3.23055C13.9442 3.24078 14.044 3.25154 14.1438 3.26364C14.182 3.26822 14.2204 3.2736 14.2588 3.27817L14.3363 3.2892C14.562 3.32239 14.7866 3.36266 15.01 3.41001C15.341 3.48104 15.7661 3.50419 15.9133 3.86204C15.9602 3.97558 15.9815 4.10177 16.0074 4.22096L16.0403 4.37298C16.0412 4.37571 16.0418 4.3785 16.0422 4.38132C16.1203 4.74007 16.1983 5.09881 16.2765 5.45756C16.2822 5.48407 16.2824 5.51145 16.2769 5.53801C16.2714 5.56456 16.2604 5.58972 16.2447 5.61191C16.2289 5.6341 16.2087 5.65285 16.1853 5.66699C16.1618 5.68112 16.1357 5.69034 16.1085 5.69407H16.1063L16.0586 5.70053L16.0114 5.70672C15.8621 5.72591 15.7125 5.74385 15.5627 5.76053C15.2676 5.79371 14.9722 5.82241 14.6763 5.84663C14.0882 5.89488 13.4991 5.92654 12.9087 5.94161C12.6078 5.9495 12.3071 5.95318 12.0065 5.95264C10.8098 5.95171 9.61417 5.88307 8.42546 5.74707C8.29676 5.73201 8.16808 5.71586 8.03938 5.69945C8.13917 5.7121 7.96686 5.68977 7.93196 5.68492C7.85016 5.67362 7.76837 5.66187 7.68657 5.64967C7.41201 5.60905 7.13909 5.559 6.86507 5.51515C6.5338 5.46133 6.21698 5.48824 5.91733 5.64967C5.67137 5.7825 5.4723 5.98618 5.34667 6.23354C5.21743 6.49722 5.17899 6.7843 5.12119 7.06763C5.06339 7.35095 4.97341 7.65579 5.00749 7.94665C5.08083 8.57438 5.52553 9.08451 6.16517 9.19861C6.76692 9.30623 7.37193 9.39338 7.97858 9.46764C10.3616 9.75569 12.7692 9.79011 15.1597 9.57042C15.3544 9.55251 15.5488 9.53291 15.7429 9.5118C15.8035 9.50521 15.8649 9.51209 15.9225 9.53198C15.9801 9.55181 16.0324 9.58413 16.0757 9.62654C16.119 9.66895 16.1521 9.7204 16.1726 9.77704C16.1932 9.83374 16.2006 9.89423 16.1944 9.95414L16.1339 10.5347C16.0119 11.708 15.89 12.8812 15.768 14.0543C15.6408 15.2863 15.5127 16.5181 15.3838 17.7499C15.3474 18.0968 15.3111 18.4436 15.2747 18.7904C15.2399 19.1318 15.2349 19.484 15.1692 19.8214C15.0657 20.352 14.7016 20.6778 14.1705 20.797C13.6839 20.9063 13.1868 20.9636 12.6878 20.9681C12.1346 20.9711 11.5817 20.9469 11.0285 20.9498C10.4379 20.9531 9.71456 20.8992 9.25868 20.4655C8.85816 20.0845 8.80281 19.488 8.74828 18.9722C8.67557 18.2893 8.6035 17.6065 8.53206 16.9239L8.13127 13.1277L7.87197 10.6714C7.86761 10.6308 7.86325 10.5907 7.85916 10.5498C7.82808 10.2568 7.61786 9.97001 7.28659 9.98476C7.00303 9.99719 6.68076 10.235 6.71402 10.5498L6.90624 12.3708L7.30377 16.1376C7.41701 17.2077 7.52998 18.2778 7.64267 19.3481C7.66448 19.5531 7.68493 19.7587 7.70784 19.9637C7.83244 21.0841 8.69947 21.6878 9.77318 21.8579C10.4003 21.9575 11.0427 21.9779 11.679 21.9881C12.4948 22.001 13.3187 22.032 14.1212 21.8862C15.3102 21.6709 16.2023 20.8874 16.3296 19.6721C16.366 19.3212 16.4023 18.9703 16.4387 18.6192C16.5596 17.4583 16.6803 16.2973 16.8008 15.1362L17.195 11.3425L17.3758 9.60379C17.3848 9.51757 17.4217 9.43655 17.481 9.37261C17.5403 9.30868 17.6189 9.26534 17.7052 9.24889C18.0452 9.1835 18.3702 9.07185 18.612 8.81652C18.997 8.41 19.0736 7.87992 18.9375 7.34556ZM6.14772 7.72064C6.1529 7.71822 6.14336 7.76209 6.13927 7.7825C6.13845 7.75159 6.14009 7.72414 6.14772 7.72064ZM6.18072 7.9725C6.18344 7.97057 6.19162 7.98136 6.20007 7.99425C6.18725 7.98241 6.17908 7.97355 6.18044 7.9725H6.18072ZM6.21316 8.01473C6.22488 8.03439 6.23116 8.04675 6.21316 8.01473V8.01473ZM6.27832 8.06694H6.27996C6.27996 8.0688 6.28296 8.07067 6.28405 8.0726C6.28224 8.0705 6.28023 8.06863 6.27805 8.06694H6.27832ZM17.6893 7.98889C17.5672 8.10351 17.3832 8.15677 17.2013 8.18343C15.1619 8.4821 13.0927 8.6333 11.0309 8.56656C9.55533 8.51681 8.09527 8.3551 6.63441 8.1514C6.49126 8.13151 6.33613 8.10567 6.2377 8.00155C6.0523 7.80514 6.14336 7.4096 6.19162 7.17229C6.23579 6.95489 6.32031 6.66511 6.58233 6.63417C6.99131 6.58682 7.46627 6.75713 7.87089 6.81767C8.35802 6.89103 8.84698 6.94978 9.33775 6.9939C11.4323 7.18225 13.562 7.15292 15.6472 6.8774C16.0273 6.827 16.406 6.76843 16.7833 6.7017C17.1195 6.64224 17.4923 6.53058 17.6954 6.87417C17.8347 7.10825 17.8533 7.42144 17.8317 7.68593C17.8251 7.80117 17.774 7.90955 17.6891 7.98889H17.6893Z" fill="black"/>
</svg>
