<svg width="252" height="50" viewBox="0 0 252 50" fill="none" xmlns="http://www.w3.org/2000/svg">
<path d="M77.7271 12.0329V26.6981C77.7271 30.5121 75.6858 32.2311 72.7313 32.2311C70.1528 32.2311 68.0578 30.6733 68.0578 27.3427V12.0329H60V28.5245C60 35.7765 64.6198 39.6443 70.0454 39.6443C73.5908 39.6443 76.2767 38.355 77.7271 36.3674V38.8922H85.7849V12.0329H77.7271Z" fill="black"/>
<path d="M95.7232 9.66933C98.3554 9.66933 100.558 7.46687 100.558 4.83467C100.558 2.20246 98.3554 0 95.7232 0C93.091 0 90.8886 2.20246 90.8886 4.83467C90.8886 7.46687 93.091 9.66933 95.7232 9.66933ZM91.6943 38.8922H99.7521V12.0329H91.6943V38.8922Z" fill="black"/>
<path d="M114.212 36.2597V2.04102H111.422V38.8919H131.585V36.2597H114.212Z" fill="black"/>
<path d="M147.576 39.471C155.21 39.471 161.369 33.5222 161.369 25.7309C161.369 17.9395 155.21 11.9908 147.576 11.9908C139.89 11.9908 133.731 17.9395 133.731 25.7309C133.731 33.5222 139.89 39.471 147.576 39.471ZM147.576 36.9441C141.312 36.9441 136.416 31.9955 136.416 25.7309C136.416 19.4662 141.312 14.5177 147.576 14.5177C153.841 14.5177 158.684 19.4662 158.684 25.7309C158.684 31.9955 153.841 36.9441 147.576 36.9441Z" fill="black"/>
<path d="M191.078 12.5698V18.6766C188.919 14.623 184.866 11.9908 179.759 11.9908C172.231 11.9908 166.124 17.9395 166.124 25.7309C166.124 33.5222 172.231 39.471 179.759 39.471C184.866 39.471 188.919 36.8388 191.078 32.7852V37.6285C191.078 43.6299 187.182 47.4729 180.602 47.4729C174.811 47.4729 171.863 45.1566 170.494 42.3664L168.178 43.6825C170.073 47.5255 174.442 49.9998 180.602 49.9998C187.866 49.9998 193.71 45.5251 193.71 37.6285V12.5698H191.078ZM179.917 36.9441C173.653 36.9441 168.757 31.9955 168.757 25.7309C168.757 19.4662 173.653 14.5177 179.917 14.5177C186.182 14.5177 191.078 19.4662 191.078 25.7309C191.078 31.9955 186.182 36.9441 179.917 36.9441Z" fill="black"/>
<path d="M213.896 39.471C221.529 39.471 227.688 33.5222 227.688 25.7309C227.688 17.9395 221.529 11.9908 213.896 11.9908C206.21 11.9908 200.05 17.9395 200.05 25.7309C200.05 33.5222 206.21 39.471 213.896 39.471ZM213.896 36.9441C207.631 36.9441 202.735 31.9955 202.735 25.7309C202.735 19.4662 207.631 14.5177 213.896 14.5177C220.16 14.5177 225.004 19.4662 225.004 25.7309C225.004 31.9955 220.16 36.9441 213.896 36.9441Z" fill="black"/>
<path d="M235.299 19.4662C235.299 16.3076 238.194 14.5177 241.616 14.5177C244.512 14.5177 247.249 15.7811 248.355 18.5186L250.566 17.2552C249.144 14.0439 245.88 11.9908 241.616 11.9908C236.246 11.9908 232.667 15.3073 232.667 19.4662C232.667 28.9422 248.618 24.8359 248.618 31.9955C248.618 35.3121 245.512 36.9441 241.827 36.9441C237.878 36.9441 235.036 35.1542 234.088 32.3114L231.824 33.6275C233.088 36.9967 236.562 39.471 241.827 39.471C247.46 39.471 251.25 36.3124 251.25 31.9955C251.25 22.3617 235.299 26.5205 235.299 19.4662Z" fill="black"/>
<g clip-path="url(#clip0)">
<path fill-rule="evenodd" clip-rule="evenodd" d="M24.6 47.64C19.7722 47.64 15.2872 46.1467 11.5807 43.5982C15.0495 45.6322 19.0882 46.8007 23.4 46.8007C36.324 46.8007 46.8007 36.324 46.8007 23.4007C46.8007 19.089 45.6322 15.0495 43.5982 11.5807C46.1467 15.2872 47.64 19.7722 47.64 24.6C47.64 37.305 37.3042 47.64 24.6 47.64ZM7.728 40.2727C3.903 36.1575 1.56 30.648 1.56 24.6C1.56 21.4102 2.21175 18.3697 3.39 15.6045C2.59425 17.8552 2.16 20.277 2.16 22.8007C2.16 34.7295 11.8312 44.4007 23.76 44.4007C35.6895 44.4007 45.3607 34.7295 45.3607 22.8007C45.3607 13.5277 39.5167 5.62125 31.3117 2.559C34.6927 3.59025 37.7452 5.37975 40.272 7.728C44.097 11.8432 46.44 17.3527 46.44 23.4007C46.44 36.1042 36.1042 46.44 23.4 46.44C17.3527 46.44 11.8425 44.097 7.728 40.2727ZM31.4377 42.3502C38.6857 39.4095 43.8007 32.304 43.8007 24C43.8007 19.1655 42.0652 14.7382 39.1875 11.3002C35.457 6.4725 29.6137 3.36075 23.04 3.36075C11.7735 3.36075 2.64 12.4942 2.64 23.76C2.64 24.5602 2.691 25.347 2.78025 26.1225C2.61 25.0395 2.52075 23.9302 2.52075 22.8007C2.52075 17.766 4.28175 13.1355 7.2195 9.492C11.3617 4.73325 17.4202 1.68675 24.18 1.56525C35.6992 1.79025 45 11.229 45 22.8007C45 33.5985 36.9 42.5407 26.457 43.8705C28.203 43.575 29.8725 43.059 31.4377 42.3502ZM21.0532 43.581C10.998 42.5805 3.12 34.0732 3.12 23.76C3.12 12.777 12.0562 3.84075 23.04 3.84075C25.6942 3.84075 28.2262 4.3665 30.5445 5.31225C28.4947 4.5945 26.2942 4.2 24 4.2C13.065 4.2 4.2 13.065 4.2 24C4.2 33.9345 11.5162 42.1567 21.0532 43.581ZM0.36075 23.4007C0.36075 10.6957 10.6957 0.36075 23.4 0.36075C28.2285 0.36075 32.7127 1.854 36.42 4.4025C32.9512 2.3685 28.9117 1.2 24.6 1.2C24.4597 1.2 24.3202 1.203 24.18 1.206C24.0405 1.203 23.9002 1.2 23.76 1.2C16.9687 1.2 10.911 4.33575 6.95175 9.2355C3.36975 13.3462 1.2 18.7192 1.2 24.6C1.2 28.9117 2.36775 32.9512 4.40175 36.42C1.854 32.7135 0.36075 28.2285 0.36075 23.4007ZM40.5345 7.46625C36.2625 2.874 30.1672 0 23.4 0C10.4767 0 0 10.4767 0 23.4007C0 30.1672 2.87325 36.2625 7.4655 40.5345C11.7382 45.1267 17.8335 48 24.6 48C37.5232 48 48 37.524 48 24.6C48 17.8335 45.1267 11.7382 40.5345 7.46625Z" fill="#07157C"/>
<path fill-rule="evenodd" clip-rule="evenodd" d="M24.0005 19.018C29.552 9.85678 44.0585 23.4595 24.0005 34.3998C3.94477 23.4595 18.4498 9.85678 24.0005 19.018Z" fill="white"/>
</g>
<defs>
<clipPath id="clip0">
<rect width="48" height="48" fill="white"/>
</clipPath>
</defs>
</svg>
