<svg width="192" height="50" viewBox="0 0 192 50" fill="none" xmlns="http://www.w3.org/2000/svg">
<path d="M17.7271 12.0329V26.6981C17.7271 30.5121 15.6858 32.2311 12.7313 32.2311C10.1528 32.2311 8.05777 30.6733 8.05777 27.3427V12.0329H0V28.5245C0 35.7765 4.61979 39.6443 10.0454 39.6443C13.5908 39.6443 16.2767 38.355 17.7271 36.3674V38.8922H25.7849V12.0329H17.7271Z" fill="black"/>
<path d="M35.7232 9.66933C38.3554 9.66933 40.5579 7.46687 40.5579 4.83467C40.5579 2.20246 38.3554 0 35.7232 0C33.091 0 30.8886 2.20246 30.8886 4.83467C30.8886 7.46687 33.091 9.66933 35.7232 9.66933ZM31.6943 38.8922H39.7521V12.0329H31.6943V38.8922Z" fill="black"/>
<path d="M54.212 36.2597V2.04102H51.4219V38.8919H71.5846V36.2597H54.212Z" fill="black"/>
<path d="M87.5765 39.471C95.2099 39.471 101.369 33.5222 101.369 25.7309C101.369 17.9395 95.2099 11.9908 87.5765 11.9908C79.8904 11.9908 73.7311 17.9395 73.7311 25.7309C73.7311 33.5222 79.8904 39.471 87.5765 39.471ZM87.5765 36.9441C81.3118 36.9441 76.4159 31.9955 76.4159 25.7309C76.4159 19.4662 81.3118 14.5177 87.5765 14.5177C93.8411 14.5177 98.6844 19.4662 98.6844 25.7309C98.6844 31.9955 93.8411 36.9441 87.5765 36.9441Z" fill="black"/>
<path d="M131.078 12.5698V18.6766C128.919 14.623 124.866 11.9908 119.759 11.9908C112.231 11.9908 106.124 17.9395 106.124 25.7309C106.124 33.5222 112.231 39.471 119.759 39.471C124.866 39.471 128.919 36.8388 131.078 32.7852V37.6285C131.078 43.6299 127.182 47.4729 120.602 47.4729C114.811 47.4729 111.863 45.1566 110.494 42.3664L108.178 43.6825C110.073 47.5255 114.442 49.9998 120.602 49.9998C127.866 49.9998 133.71 45.5251 133.71 37.6285V12.5698H131.078ZM119.917 36.9441C113.653 36.9441 108.757 31.9955 108.757 25.7309C108.757 19.4662 113.653 14.5177 119.917 14.5177C126.182 14.5177 131.078 19.4662 131.078 25.7309C131.078 31.9955 126.182 36.9441 119.917 36.9441Z" fill="black"/>
<path d="M153.896 39.471C161.529 39.471 167.688 33.5222 167.688 25.7309C167.688 17.9395 161.529 11.9908 153.896 11.9908C146.21 11.9908 140.05 17.9395 140.05 25.7309C140.05 33.5222 146.21 39.471 153.896 39.471ZM153.896 36.9441C147.631 36.9441 142.735 31.9955 142.735 25.7309C142.735 19.4662 147.631 14.5177 153.896 14.5177C160.16 14.5177 165.004 19.4662 165.004 25.7309C165.004 31.9955 160.16 36.9441 153.896 36.9441Z" fill="black"/>
<path d="M175.299 19.4662C175.299 16.3076 178.194 14.5177 181.616 14.5177C184.512 14.5177 187.249 15.7811 188.355 18.5186L190.566 17.2552C189.144 14.0439 185.88 11.9908 181.616 11.9908C176.246 11.9908 172.667 15.3073 172.667 19.4662C172.667 28.9422 188.618 24.8359 188.618 31.9955C188.618 35.3121 185.512 36.9441 181.827 36.9441C177.878 36.9441 175.036 35.1542 174.088 32.3114L171.824 33.6275C173.088 36.9967 176.562 39.471 181.827 39.471C187.46 39.471 191.25 36.3124 191.25 31.9955C191.25 22.3617 175.299 26.5205 175.299 19.4662Z" fill="black"/>
</svg>
