<svg xmlns="http://www.w3.org/2000/svg" xmlns:xlink="http://www.w3.org/1999/xlink" viewBox="0 0 1000 1000"><defs><clipPath id="a"><path d="M160.416,537.983c.078-8.739-4.422-20.079-9.015-31.059-.978-2.355-18.574-18.312-19.93-6.945-8.409-10.566-14.592-7.013-17.485-7.013a6.2,6.2,0,0,0-6.022,4.211c-5.521,13.664-13.18,29.439-13.079,40.821.1,11.063,6.745,37.162,5.816,60.038-.928,22.844-5.167,18.86-5.111,29.7.013,2.51,3.14,7.739,3.14,9.749,0,2.155,9.722,4.065,28.188,4.065.233,0,28.946,0,30.658-4.66.693-1.886,2.773-6.675,2.786-9.185.056-10.842-4.834-6.848-5.762-29.692C153.672,575.14,160.317,549.046,160.416,537.983Z" style="fill:#d64351"/></clipPath></defs><title>113-workstation</title><path d="M640.389,937.592a2.267,2.267,0,0,0,2.421-2.334,2.071,2.071,0,0,0-2.29-2.2,2.2,2.2,0,0,0-2.422,2.139v.064A2.279,2.279,0,0,0,640.389,937.592Z" style="fill:#fff"/><path d="M695.876,941.87c-.131-.778,1.178-.908,1.047-1.556-.131-.907-.916-.907-1.44-.843-2.944.325-3.533,1.3-3.795,3.176A4.024,4.024,0,0,0,693,945.564a21.639,21.639,0,0,1-.524,4.407.924.924,0,0,0-.523.583,56.459,56.459,0,0,1-1.767,6.287,3.25,3.25,0,0,0-.654,1.232v.324c-.654,1.231-1.374,2.138-2.225,2.138-.392,0-.523-1.037-.523-2.4,0-2.4,1.243-9.073,1.243-10.5,0-1.88.327-3.5.327-5.056,0-.648-.458-.842-1.047-.842-.458,0-.72.324-1.178.324-1.9,0-2.159,1.037-2.159,2.592,0,.649,0,9.852-.131,11.018-.131,1.945-1.243,4.343-3.337,4.343-1.9,0-2.813-2.593-2.813-5.38a31.409,31.409,0,0,1,.785-6.8c.2-.648,1.047-3.629,1.047-4.018,0-.713-.066-.907-.851-.907-3.01.064-3.6.324-4.057,1.944a36.386,36.386,0,0,0-.981,8.037v.842c-.72,2.2-1.5,4.667-3.534,4.8-1.374.065-1.832-3.37-1.832-6.935,0-7.064,2.029-13.934,2.29-21,.066-.648-.392-1.1-1.177-1.1a9.7,9.7,0,0,1-1.833.065c-.785,0-1.112.324-1.177,1.1-.655,7.065-2.094,15.685-2.094,22.555v.129c-.72,2.269-1.5,5.185-3.665,5.315-1.374.065-1.832-3.37-1.832-6.935,0-7.065,2.029-13.935,2.291-21,.065-.648-.393-1.1-1.178-1.1-1.047,0-1.374-.065-1.9-.065-.785,0-1.112.324-1.178,1.1-.654,7.065-2.094,15.685-2.094,22.555v.129c-.719,2.269-1.5,5.185-3.664,5.315-1.374.065-1.832-3.37-1.832-6.935,0-7.065,2.028-13.935,2.29-21,.066-.648-.392-1.1-1.178-1.1-1.112,0-1.439-.065-1.963-.065-.785,0-1.112.324-1.177,1.1-.655,7.065-2.094,15.685-2.094,22.555v1.037c-.655,2.268-1.636,4.731-2.879,4.731-.589-.065-1.047-.907-1.047-2.852,0-3.564.327-8.49.654-12.249.066-.454-.131-.908-.654-.908-.458-.064-1.9-.194-2.421-.194-.785,0-1.113.454-1.113,1.3v1.3c.066,4.343-.392,7.778-.392,11.861,0,2.917,1.57,4.926,3.533,4.926,2.094,0,3.73-1.75,4.842-3.824.589,2.2,1.7,4.148,3.926,4.148,2.094,0,4.123-2.269,5.5-4.8.523,2.463,1.635,4.8,4.056,4.8,2.094,0,4.123-2.269,5.5-4.8.523,2.463,1.636,4.8,4.057,4.8,2.028,0,4.057-2.2,5.431-4.6.719,2.917,2.355,5.12,5.431,5.12,2.552,0,3.271-1.037,4.907-3.37.524,1.3.72,3.759,2.225,3.759,2.094,0,3.86-2.4,5.038-5.12a8.292,8.292,0,0,0,6.544,3.629c3.533,0,6.543-2.527,6.281-6.351C704.186,950.36,696.465,944.786,695.876,941.87Zm.916,17.434c-1.047,0-2.683-.648-2.748-2.009-.066-.778,1.767-1.167,2.421-1.556.523-.324.654-.583.654-.777-.065-.454-.72-.778-1.439-.778a4.5,4.5,0,0,0-2.421.842c.2-.907,1.57-5.573,1.9-7.842a14.914,14.914,0,0,1,5.17,9.333C700.522,959.045,697.643,959.3,696.792,959.3Z" style="fill:#fff"/><path d="M755.421,937.592a2.266,2.266,0,0,0,2.42-2.334,2.07,2.07,0,0,0-2.289-2.2,2.2,2.2,0,0,0-2.421,2.139v.064A2.276,2.276,0,0,0,755.421,937.592Z" style="fill:#fff"/><path d="M793.241,963.128c-1.178-.778-2.029-2.009-1.832-7.065.13-3.24.785-7.712.785-10.888,0-1.426-.655-3.046-2.487-3.046-2.289,0-5.627,4.666-6.674,6.74.131-1.231.524-4.861.589-6.092s.066-1.3-2.094-1.3c-1.439,0-1.57.259-1.57.777,0,2.982-.262,6.417-.523,9.852-.786,1.685-1.833,3.37-3.338,3.37a3,3,0,0,1-1.308-.324,9.951,9.951,0,0,0,1.112-4.342,3.117,3.117,0,0,0-3.141-3.241,3.708,3.708,0,0,0-3.86,4.018c0,1.815,1.9,3.889,3.337,4.861a4.971,4.971,0,0,1-4.515,2.722c-2.814,0-3.795-5.12-3.795-7,0-3.63,1.308-7.713,5.627-7.713,2.945,0,2.945,1.944,4.188,1.944.131,0,.523-.194.523-.388,0-2.139-3.4-3.889-5.169-3.889-6.02,0-10.208,4.731-10.208,10.629a11.268,11.268,0,0,0,.59,3.565c-.59,1.49-1.31,2.657-2.226,2.657-.589,0-1.047-.843-1.047-2.787,0-3.565.328-8.49.655-12.249.066-.454-.131-.908-.655-.908-.458-.065-1.9-.194-2.421-.194-.784,0-1.112.453-1.112,1.3v1.3c0,2.269-.13,4.213-.2,6.157a1.432,1.432,0,0,0-.2.324c-.72,1.945-1.637,7.324-3.795,7.324-.655,0-2.029-.907-2.029-3.435,0-4.083,1.374-12.249,1.571-13.675,2.093-.454,3.926-.324,6.412-1.037,1.113-.324.458-1.62-.786-1.491a34.889,34.889,0,0,1-5.43,0c.065-2.139.589-3.5.589-5.7v-.2c0-.583-.262-1.037-.851-1.037-1.178,0-3.01.389-3.01,2.009,0,1.686-.327,3.176-.262,4.861-1.177.065-2.224-.259-3.4-.259-.851,0-1.047,1.556-1.047,2.139,0,.648.065,1.1.458,1.1a30.272,30.272,0,0,0,3.73-.324c-.327,4.277-.851,6.675-1.178,9.657,0,.194-.066.453-.066.713-.719,2.268-2.093,5.768-3.206,5.768a1.463,1.463,0,0,1-1.112-1.232,42.575,42.575,0,0,1,1.178-10.305,11.062,11.062,0,0,0,.654-2.527c0-.843-1.374-1.3-2.094-1.3-1.178,0-1.112.648-1.57,1.685-.851-.648-1.047-1.814-3.338-1.814-4.187,0-6.739,6.74-6.739,10.953,0,.713-.066,1.1-.066,1.491,0,2.4-1.374,5.379-2.813,5.379-1.244,0-1.636-3.37-1.636-4.8a31.6,31.6,0,0,1,1.7-8.426,6.165,6.165,0,0,0,.916-2.268c0-.907-1.047-2.4-2.095-2.4-1.178,0-1.9.648-3.141.648-1.962,0-3.271-1.231-4.383-1.231a1.026,1.026,0,0,0-1.113,1.1c0,1.75,1.9,1.426,1.439,3.63-.457,2.074-1.831,7.713-2.616,9.851a.48.48,0,0,0-.066.324,1.916,1.916,0,0,0,.131.649c-.458.777-.981,1.3-1.636,1.3s-2.028-.908-2.028-3.435c0-4.083,1.374-12.25,1.57-13.676,2.094-.453,3.926-.324,6.413-1.037,1.112-.324.458-1.62-.786-1.49a35.035,35.035,0,0,1-5.431,0c.066-2.139.589-3.5.589-5.7,0-.583-.261-1.037-.85-1.037-1.178,0-3.01.389-3.01,2.009,0,1.686-.327,3.176-.262,4.861-1.178.065-2.225-.259-3.4-.259-.85,0-1.047,1.556-1.047,2.139,0,.648.066,1.1.459,1.1a30.251,30.251,0,0,0,3.729-.324c-.327,4.277-.85,6.675-1.178,9.657a53.393,53.393,0,0,0-.458,5.573c0,2.787,2.421,5.056,4.45,5.056,3.6,0,6.543-7.259,6.543-10.24v-.389c.392-1.75.655-3.5.982-4.991.065-.194.262-.778.785-.778,1.177,0,1.309.843,1.309,1.75,0,2.4-.851,6.676-.851,9.2,0,2.462.654,5.509,3.534,5.509a6.358,6.358,0,0,0,5.5-3.63c.785,1.88,2.093,3.37,3.926,3.37,1.766,0,3.271-1.3,4.318-2.527.262.648.655,2.4,2.552,2.4,1.767,0,3.141-1.491,4.188-3.371a4.921,4.921,0,0,0,4.253,3.76c2.029,0,3.926-2.4,5.1-4.991.13,2.722,1.635,4.537,3.534,4.537,1.963,0,3.6-1.556,4.71-3.5a6.646,6.646,0,0,0,5.759,3.37c3.6,0,5.758-2.333,7.655-5.12a9.921,9.921,0,0,0,1.833.324,4.889,4.889,0,0,0,3.468-2.009c-.131,2.074-.262,4.083-.262,5.9,0,.648.131.907.589,1.037a5.742,5.742,0,0,0,1.832.065c.654,0,.785.065.916-.778.065-.583.458-7.518.458-8.037,0-1.426,3.468-7.453,5.169-7.453.328,0,.589.583.589.972,0,3.111-.981,8.166-.981,11.407,0,3.435,1.7,4.6,2.42,4.991a6.453,6.453,0,0,0,2.814.713C793.241,963.776,793.7,963.387,793.241,963.128Zm-57.451-6.611c-.065.907-1.7,3.241-2.944,3.241-1.374,0-1.963-3.889-1.9-6.481.066-3.047,1.571-8.491,3.01-8.491,1.9,0,2.16,4.537,2.16,5.963C736.118,952.369,735.921,954.9,735.79,956.517Zm37.559-2.139a4.19,4.19,0,0,1-1.374-3.111c0-.583.2-1.879,1.047-1.879.785,0,1.047,1.426,1.047,2.009A11.043,11.043,0,0,1,773.349,954.378Z" style="fill:#fff"/><path d="M808.29,955.48c-.327-5.12-8.114-10.694-8.637-13.611-.131-.777,1.178-.907,1.047-1.555-.131-.907-.916-.907-1.44-.843-2.944.324-3.533,1.3-3.795,3.176a4.024,4.024,0,0,0,1.309,2.917c.065,2.268-1.178,8.555-2.618,11.018a5.028,5.028,0,0,0-.85,1.491c-.131.777.458,1.166.981.648.458-.389.393-.648.851-.973,1.047,2.4,4.319,4.084,6.8,4.084C805.542,961.832,808.487,959.3,808.29,955.48Zm-7.721,3.824c-1.047,0-2.683-.648-2.748-2.009-.066-.778,1.767-1.167,2.421-1.556.523-.324.654-.583.654-.777-.065-.454-.72-.778-1.439-.778a4.5,4.5,0,0,0-2.421.842c.2-.907,1.57-5.574,1.9-7.842a14.908,14.908,0,0,1,5.169,9.333C804.3,959.045,801.42,959.3,800.569,959.3Z" style="fill:#fff"/><path d="M63.2,959.2c0,2.5-1.2,3.7-2.6,3.7a1.928,1.928,0,0,1-2.1-1.4,2.2,2.2,0,0,1-1.8.8,2.808,2.808,0,0,1,0-5.6,2.175,2.175,0,0,1,1.6.7v-.5h1.6v3.9c0,.8.3,1.4,1,1.4.9,0,1.7-.9,1.7-3a5.233,5.233,0,0,0-5.4-5.3,5.552,5.552,0,0,0-5.6,5.7,5.624,5.624,0,0,0,5.9,5.7,11.935,11.935,0,0,0,2.9-.4v.6a8.119,8.119,0,0,1-2.9.4,6.2,6.2,0,1,1-.3-12.4A5.593,5.593,0,0,1,63.2,959.2Zm-4.9.3a1.347,1.347,0,0,0-1.3-1.4,1.238,1.238,0,0,0-1.3,1.4,1.261,1.261,0,0,0,1.3,1.3C57.8,960.9,58.3,960.3,58.3,959.5Z" style="fill:#fff"/><path d="M69.4,955.1v2a2.244,2.244,0,0,0-2.6,2.4v4.3H64.9v-8.6h1.9v1.4A2.632,2.632,0,0,1,69.4,955.1Z" style="fill:#fff"/><path d="M74.6,962.3a2.641,2.641,0,0,0,2.2-1.1l1.5.9a4.346,4.346,0,0,1-3.8,1.9,4.414,4.414,0,0,1-4.7-4.5,4.36,4.36,0,0,1,4.5-4.5,4.313,4.313,0,0,1,4.3,4.5,2.2,2.2,0,0,1-.1.8H71.7A2.832,2.832,0,0,0,74.6,962.3Zm2.3-3.5a2.375,2.375,0,0,0-2.5-2.1,2.506,2.506,0,0,0-2.6,2.1Z" style="fill:#fff"/><path d="M88.9,955.2v8.6H87v-1.2a3.692,3.692,0,0,1-3,1.5,4.443,4.443,0,0,1-4.3-4.5,4.317,4.317,0,0,1,4.3-4.5,3.613,3.613,0,0,1,3,1.4v-1.2h1.9Zm-1.8,4.3a2.7,2.7,0,1,0-2.7,2.7A2.571,2.571,0,0,0,87.1,959.5Z" style="fill:#fff"/><path d="M91.1,951.3H93v12.5H91.1Z" style="fill:#fff"/><path d="M102.9,955.2l-3.3,8.6H97.5l-3.3-8.6h2l2.4,6.5,2.4-6.5Z" style="fill:#fff"/><path d="M104.2,955.2h1.9v8.9c0,2.4-1.2,3.5-3.5,3.3v-1.8c1.1.1,1.7-.3,1.7-1.5v-8.9Zm-.2-2.4a1.2,1.2,0,0,1,2.4,0,1.2,1.2,0,1,1-2.4,0Z" style="fill:#fff"/><path d="M116,955.2l-3.3,8.8c-.8,2.2-2.2,3.3-4.2,3.2v-1.7a2.076,2.076,0,0,0,2.3-1.7l.1-.2-3.6-8.4h2l2.6,6.2,2.2-6.2Z" style="fill:#fff"/><path d="M58.9,938.7a3.633,3.633,0,0,1-3.6,3.8h-3v-7.6h3A3.633,3.633,0,0,1,58.9,938.7Zm-1,0a2.722,2.722,0,0,0-2.6-2.9h-2v5.7h2A2.577,2.577,0,0,0,57.9,938.7Z" style="fill:#fff"/><path d="M67,941.6v1H62.4V935h4.5v1H63.4v2.3h3.2v.9H63.4v2.4Z" style="fill:#fff"/><path d="M70,940.8l.9-.5a1.987,1.987,0,0,0,2,1.4c1.1,0,1.6-.5,1.6-1.2,0-.8-.7-1-1.8-1.4-1.2-.4-2.4-.8-2.4-2.2a2.208,2.208,0,0,1,2.4-2.2,2.664,2.664,0,0,1,2.6,1.7l-.8.5a1.743,1.743,0,0,0-1.7-1.2c-.8,0-1.4.4-1.4,1.1s.5,1,1.6,1.3c1.3.4,2.6.8,2.6,2.3a2.333,2.333,0,0,1-2.6,2.2A2.847,2.847,0,0,1,70,940.8Z" style="fill:#fff"/><path d="M80,934.9v7.6H79v-7.6Z" style="fill:#fff"/><path d="M91.3,939.2a3.47,3.47,0,0,1-3.7,3.5,3.888,3.888,0,0,1-4-4,3.974,3.974,0,0,1,7.3-2.2l-.9.5a2.775,2.775,0,0,0-2.4-1.4,3,3,0,0,0,0,6,2.5,2.5,0,0,0,2.7-2H87.5v-.9h3.8Z" style="fill:#fff"/><path d="M100.6,934.9v7.6h-.8l-3.9-5.7v5.7h-1v-7.6h.8l3.9,5.7v-5.7Z" style="fill:#fff"/><path d="M109.1,941.6v1h-4.6V935H109v1h-3.5v2.3h3.2v.9h-3.2v2.4Z" style="fill:#fff"/><path d="M119.2,938.7a3.633,3.633,0,0,1-3.6,3.8h-3v-7.6h3A3.7,3.7,0,0,1,119.2,938.7Zm-1,0a2.722,2.722,0,0,0-2.6-2.9h-2v5.7h2A2.577,2.577,0,0,0,118.2,938.7Z" style="fill:#fff"/><path d="M133.2,940.4a2.22,2.22,0,0,1-2.2,2.2h-3.3V935h3a2.051,2.051,0,0,1,2.1,2.1,1.943,1.943,0,0,1-.8,1.6A1.658,1.658,0,0,1,133.2,940.4Zm-4.5-4.6v2.3h2a1.135,1.135,0,0,0,1.1-1.2,1.2,1.2,0,0,0-1.1-1.2h-2Zm3.5,4.5a1.155,1.155,0,0,0-1.2-1.2h-2.3v2.5H131A1.24,1.24,0,0,0,132.2,940.3Z" style="fill:#fff"/><path d="M139.4,939.4v3.1h-1v-3.1l-2.7-4.5h1.1l2.1,3.6,2.1-3.6h1.1Z" style="fill:#fff"/><path d="M210.957,934.972v7.7h-.825l-3.96-5.754v5.754h-1.024v-7.7h.826l3.96,5.743v-5.743Z" style="fill:#fff"/><path d="M219.405,941.705v.968h-4.6v-7.7h4.544v.967H215.83v2.367h3.245v.957H215.83v2.442Z" style="fill:#fff"/><path d="M222.286,934.972h1.078l1.76,6.337,1.87-6.337h1.034l1.87,6.337,1.761-6.337h1.078l-2.211,7.7h-1.188l-1.826-6.15-1.826,6.15H224.5Z" style="fill:#fff"/><path d="M243.22,934.972v7.7h-1.013v-6.6l-1.639.484-.253-.88,2.025-.7Z" style="fill:#fff"/><path d="M249.336,934.972v7.7h-1.013v-6.6l-1.638.484-.253-.88,2.024-.7Z" style="fill:#fff"/><path d="M252.789,941.837l2.717-2.773a2.944,2.944,0,0,0,1.089-1.87,1.306,1.306,0,0,0-1.364-1.375,1.668,1.668,0,0,0-1.585,1.034l-.857-.506a2.622,2.622,0,0,1,2.431-1.518,2.315,2.315,0,0,1,2.4,2.354,3.79,3.79,0,0,1-1.375,2.542l-1.97,1.958h3.489v.99h-4.973Z" style="fill:#fff"/><path d="M208.094,951.191v12.433h-2.451V951.191Z" style="fill:#fff"/><path d="M218.589,958.171v5.453H216.3v-5.169a1.653,1.653,0,0,0-1.758-1.829c-1.119,0-1.954.657-1.954,2.2v4.8h-2.291v-8.881h2.291v1a3.018,3.018,0,0,1,2.646-1.243C217.114,954.5,218.589,955.809,218.589,958.171Z" style="fill:#fff"/><path d="M227.234,961.031c0,1.918-1.67,2.842-3.57,2.842a3.817,3.817,0,0,1-3.729-2.114l1.989-1.118a1.692,1.692,0,0,0,1.74,1.154c.729,0,1.226-.249,1.226-.764,0-1.3-4.582-.587-4.582-3.713,0-1.811,1.545-2.823,3.374-2.823a3.742,3.742,0,0,1,3.375,1.882l-1.954,1.066a1.5,1.5,0,0,0-1.421-.906c-.569,0-1.031.249-1.031.729C222.651,958.58,227.234,957.763,227.234,961.031Z" style="fill:#fff"/><path d="M231.513,956.945v3.7c0,.959.692.976,2.007.905v2.078c-3.215.355-4.3-.586-4.3-2.983v-3.7h-1.545v-2.2h1.545v-1.794l2.292-.692v2.486h2.007v2.2Z" style="fill:#fff"/><path d="M243.907,954.743v8.881h-2.292v-1.048a3.533,3.533,0,0,1-2.894,1.3,4.705,4.705,0,0,1,0-9.378,3.532,3.532,0,0,1,2.894,1.3v-1.048Zm-2.292,4.441a2.46,2.46,0,1,0-2.469,2.5A2.387,2.387,0,0,0,241.615,959.184Z" style="fill:#fff"/><path d="M245.98,950.658h2.291v12.966H245.98Z" style="fill:#fff"/><path d="M250.365,950.658h2.291v12.966h-2.291Z" style="fill:#fff"/><path d="M254.484,952.274a1.413,1.413,0,1,1,1.4,1.4A1.419,1.419,0,0,1,254.484,952.274Zm.267,2.469h2.291v8.881h-2.291Z" style="fill:#fff"/><path d="M267.431,958.171v5.453h-2.292v-5.169a1.653,1.653,0,0,0-1.758-1.829c-1.119,0-1.954.657-1.954,2.2v4.8h-2.291v-8.881h2.291v1a3.018,3.018,0,0,1,2.646-1.243C265.956,954.5,267.431,955.809,267.431,958.171Z" style="fill:#fff"/><path d="M278.421,954.743V963.2c0,2.913-2.292,4.228-4.636,4.228a4.5,4.5,0,0,1-4.21-2.167l1.954-1.119a2.307,2.307,0,0,0,2.326,1.244,2.069,2.069,0,0,0,2.328-2.186v-.959a3.394,3.394,0,0,1-2.842,1.351,4.549,4.549,0,0,1,0-9.094,3.394,3.394,0,0,1,2.842,1.35v-1.1Zm-2.238,4.3a2.488,2.488,0,1,0-2.487,2.433A2.371,2.371,0,0,0,276.183,959.042Z" style="fill:#fff"/><path d="M848.133,938.45a3.648,3.648,0,0,1-3.617,3.813h-2.973v-7.626h2.973A3.648,3.648,0,0,1,848.133,938.45Zm-.969,0a2.669,2.669,0,0,0-2.648-2.855h-1.961V941.3h1.961A2.669,2.669,0,0,0,847.164,938.45Z" style="fill:#fff"/><path d="M851.254,938.45a3.949,3.949,0,1,1,3.943,3.955A3.917,3.917,0,0,1,851.254,938.45Zm6.887,0a2.943,2.943,0,1,0-2.944,2.964A2.911,2.911,0,0,0,858.141,938.45Z" style="fill:#fff"/><path d="M861.783,934.637h1.069l1.742,6.276,1.853-6.276h1.024l1.851,6.276,1.744-6.276h1.067l-2.19,7.626h-1.175l-1.809-6.09-1.809,6.09h-1.177Z" style="fill:#fff"/><path d="M881.27,934.637v7.626h-.819l-3.922-5.7v5.7h-1.011v-7.626h.816l3.922,5.687v-5.687Z" style="fill:#fff"/><path d="M889.5,941.3v.959h-4.3v-7.626h1.014V941.3Z" style="fill:#fff"/><path d="M891.877,938.45a3.949,3.949,0,1,1,3.943,3.955A3.917,3.917,0,0,1,891.877,938.45Zm6.887,0a2.943,2.943,0,1,0-2.944,2.964A2.911,2.911,0,0,0,898.764,938.45Z" style="fill:#fff"/><path d="M907.418,940.552h-3.432l-.621,1.711h-1.078l2.844-7.626h1.142l2.844,7.626h-1.078Zm-.348-.947-1.373-3.759-1.361,3.759Z" style="fill:#fff"/><path d="M918.906,938.45a3.647,3.647,0,0,1-3.617,3.813h-2.975v-7.626h2.975A3.647,3.647,0,0,1,918.906,938.45Zm-.97,0a2.67,2.67,0,0,0-2.647-2.855h-1.961V941.3h1.961A2.669,2.669,0,0,0,917.936,938.45Z" style="fill:#fff"/><path d="M928.457,935.6v2.474h3.236v.959h-3.236v3.235h-1.014v-7.626h4.391v.958Z" style="fill:#fff"/><path d="M938.168,939.343h-1.8v2.92h-1.012v-7.626h3.049a2.353,2.353,0,0,1,.8,4.575l1.8,3.051h-1.121Zm-1.8-.915h2.037a1.423,1.423,0,0,0,0-2.843h-2.037Z" style="fill:#fff"/><path d="M943.869,938.45a3.95,3.95,0,1,1,3.943,3.955A3.918,3.918,0,0,1,943.869,938.45Zm6.887,0a2.943,2.943,0,1,0-2.944,2.964A2.911,2.911,0,0,0,950.756,938.45Z" style="fill:#fff"/><path d="M962.418,942.263h-1V936.3l-2.5,4.151h-.131l-2.494-4.14v5.948h-1.014v-7.626h1.145l2.429,4.031,2.418-4.031h1.145Z" style="fill:#fff"/><path d="M841.318,952.65a1.221,1.221,0,1,1,1.221,1.222A1.224,1.224,0,0,1,841.318,952.65Zm.266,2.549H843.5v8.85h-1.911Z" style="fill:#fff"/><path d="M845.709,951.128h1.912v12.921h-1.912Z" style="fill:#fff"/><path d="M849.834,951.128h1.912v12.921h-1.912Z" style="fill:#fff"/><path d="M853.96,951.128h1.911v12.921H853.96Z" style="fill:#fff"/><path d="M865.963,955.2v8.85h-1.912v-1.132a3.048,3.048,0,0,1-2.744,1.363,3.305,3.305,0,0,1-3.4-3.647V955.2h1.912v5.24a1.845,1.845,0,0,0,1.983,2.053c1.257,0,2.248-.743,2.248-2.549V955.2Z" style="fill:#fff"/><path d="M874.621,961.553c0,1.771-1.539,2.727-3.451,2.727a3.694,3.694,0,0,1-3.611-2.071l1.646-.956a1.945,1.945,0,0,0,1.965,1.274c.85,0,1.5-.283,1.5-.991,0-1.575-4.761-.691-4.761-3.859,0-1.664,1.434-2.708,3.238-2.708a3.566,3.566,0,0,1,3.276,1.841l-1.612.9a1.723,1.723,0,0,0-1.664-1.008c-.689,0-1.292.3-1.292.938C869.86,959.253,874.621,958.279,874.621,961.553Z" style="fill:#fff"/><path d="M878.7,957.041v4.248c0,1.132.744,1.114,2.2,1.044v1.716c-2.938.355-4.106-.46-4.106-2.76v-4.248h-1.629V955.2h1.629v-1.911l1.91-.567V955.2h2.2v1.842Z" style="fill:#fff"/><path d="M887.354,955.04v2.071a2.337,2.337,0,0,0-2.725,2.478v4.46h-1.912V955.2h1.912v1.487A2.782,2.782,0,0,1,887.354,955.04Z" style="fill:#fff"/><path d="M897.286,955.2v8.85h-1.911v-1.274a3.639,3.639,0,0,1-3.1,1.5,4.662,4.662,0,0,1,0-9.311,3.672,3.672,0,0,1,3.1,1.487V955.2Zm-1.911,4.426a2.8,2.8,0,1,0-2.8,2.832A2.735,2.735,0,0,0,895.375,959.625Z" style="fill:#fff"/><path d="M902.264,957.041v4.248c0,1.132.744,1.114,2.195,1.044v1.716c-2.938.355-4.1-.46-4.1-2.76v-4.248h-1.629V955.2h1.629v-1.911l1.91-.567V955.2h2.195v1.842Z" style="fill:#fff"/><path d="M905.931,952.65a1.221,1.221,0,0,1,2.442,0,1.221,1.221,0,1,1-2.442,0Zm.265,2.549h1.911v8.85H906.2Z" style="fill:#fff"/><path d="M909.826,959.625a4.673,4.673,0,1,1,4.674,4.655A4.621,4.621,0,0,1,909.826,959.625Zm7.435,0a2.762,2.762,0,1,0-2.761,2.8A2.718,2.718,0,0,0,917.261,959.625Z" style="fill:#fff"/><path d="M928.965,958.616v5.433h-1.912V958.81a1.845,1.845,0,0,0-1.983-2.053c-1.257,0-2.248.744-2.248,2.549v4.743H920.91V955.2h1.912v1.133a3.047,3.047,0,0,1,2.744-1.363A3.3,3.3,0,0,1,928.965,958.616Z" style="fill:#fff"/><path d="M937.5,961.553c0,1.771-1.541,2.727-3.451,2.727a3.692,3.692,0,0,1-3.611-2.071l1.646-.956a1.943,1.943,0,0,0,1.965,1.274c.849,0,1.5-.283,1.5-.991,0-1.575-4.762-.691-4.762-3.859,0-1.664,1.434-2.708,3.239-2.708a3.563,3.563,0,0,1,3.275,1.841l-1.611.9a1.725,1.725,0,0,0-1.664-1.008c-.69,0-1.292.3-1.292.938C932.738,959.253,937.5,958.279,937.5,961.553Z" style="fill:#fff"/><path d="M938.83,962.934a1.328,1.328,0,0,1,2.656,0,1.328,1.328,0,0,1-2.656,0Z" style="fill:#fff"/><path d="M942.319,959.625a4.567,4.567,0,0,1,4.673-4.656,4.373,4.373,0,0,1,3.947,2.284l-1.646.956a2.473,2.473,0,0,0-2.318-1.364,2.779,2.779,0,0,0,0,5.558,2.6,2.6,0,0,0,2.353-1.362l1.647.937a4.451,4.451,0,0,1-3.983,2.3A4.577,4.577,0,0,1,942.319,959.625Z" style="fill:#fff"/><path d="M951.722,959.625a4.673,4.673,0,1,1,4.673,4.655A4.62,4.62,0,0,1,951.722,959.625Zm7.434,0a2.762,2.762,0,1,0-2.761,2.8A2.718,2.718,0,0,0,959.156,959.625Z" style="fill:#fff"/><rect width="1000" height="1000" style="fill:#435175"/><path d="M420.925,937.592a2.267,2.267,0,0,0,2.421-2.334,2.071,2.071,0,0,0-2.29-2.2,2.2,2.2,0,0,0-2.421,2.139v.064A2.277,2.277,0,0,0,420.925,937.592Z" style="fill:#f0e4e4"/><path d="M476.412,941.87c-.13-.778,1.178-.908,1.047-1.556-.131-.907-.916-.907-1.439-.843-2.945.325-3.534,1.3-3.795,3.176a4.023,4.023,0,0,0,1.308,2.917,21.625,21.625,0,0,1-.523,4.407.925.925,0,0,0-.524.583,56.18,56.18,0,0,1-1.766,6.287,3.239,3.239,0,0,0-.655,1.232v.324c-.654,1.231-1.374,2.138-2.224,2.138-.393,0-.524-1.037-.524-2.4,0-2.4,1.243-9.073,1.243-10.5,0-1.88.328-3.5.328-5.056,0-.648-.459-.842-1.047-.842-.458,0-.72.324-1.178.324-1.9,0-2.16,1.037-2.16,2.592,0,.649,0,9.852-.13,11.018-.131,1.945-1.244,4.343-3.337,4.343-1.9,0-2.814-2.593-2.814-5.38a31.409,31.409,0,0,1,.785-6.8c.2-.648,1.047-3.629,1.047-4.018,0-.713-.065-.907-.851-.907-3.01.064-3.6.324-4.056,1.944a36.319,36.319,0,0,0-.982,8.037v.842c-.72,2.2-1.5,4.667-3.533,4.8-1.375.065-1.833-3.37-1.833-6.935,0-7.064,2.029-13.934,2.291-21,.065-.648-.393-1.1-1.178-1.1a9.691,9.691,0,0,1-1.832.065c-.785,0-1.113.324-1.178,1.1-.654,7.065-2.094,15.685-2.094,22.555v.129c-.72,2.269-1.5,5.185-3.664,5.315-1.374.065-1.832-3.37-1.832-6.935,0-7.065,2.028-13.935,2.29-21,.065-.648-.393-1.1-1.178-1.1-1.047,0-1.374-.065-1.9-.065-.785,0-1.112.324-1.177,1.1-.655,7.065-2.094,15.685-2.094,22.555v.129c-.72,2.269-1.5,5.185-3.664,5.315-1.375.065-1.833-3.37-1.833-6.935,0-7.065,2.029-13.935,2.291-21,.065-.648-.393-1.1-1.178-1.1-1.113,0-1.44-.065-1.963-.065-.785,0-1.113.324-1.178,1.1-.654,7.065-2.094,15.685-2.094,22.555v1.037c-.654,2.268-1.636,4.731-2.879,4.731-.589-.065-1.047-.907-1.047-2.852,0-3.564.327-8.49.654-12.249.066-.454-.13-.908-.654-.908-.458-.064-1.9-.194-2.421-.194-.785,0-1.112.454-1.112,1.3v1.3c.065,4.343-.393,7.778-.393,11.861,0,2.917,1.57,4.926,3.533,4.926,2.094,0,3.73-1.75,4.843-3.824.588,2.2,1.7,4.148,3.926,4.148,2.093,0,4.122-2.269,5.5-4.8.523,2.463,1.636,4.8,4.057,4.8,2.094,0,4.122-2.269,5.5-4.8.524,2.463,1.636,4.8,4.057,4.8,2.029,0,4.057-2.2,5.431-4.6.72,2.917,2.356,5.12,5.431,5.12,2.552,0,3.272-1.037,4.908-3.37.523,1.3.719,3.759,2.224,3.759,2.094,0,3.861-2.4,5.039-5.12a8.291,8.291,0,0,0,6.543,3.629c3.533,0,6.543-2.527,6.282-6.351C484.722,950.36,477,944.786,476.412,941.87Zm.916,17.434c-1.046,0-2.682-.648-2.748-2.009-.065-.778,1.767-1.167,2.421-1.556.524-.324.655-.583.655-.777-.066-.454-.72-.778-1.44-.778a4.5,4.5,0,0,0-2.421.842c.2-.907,1.57-5.573,1.9-7.842a14.918,14.918,0,0,1,5.169,9.333C481.058,959.045,478.179,959.3,477.328,959.3Z" style="fill:#f0e4e4"/><path d="M535.957,937.592a2.267,2.267,0,0,0,2.421-2.334,2.071,2.071,0,0,0-2.29-2.2,2.2,2.2,0,0,0-2.421,2.139v.064A2.277,2.277,0,0,0,535.957,937.592Z" style="fill:#f0e4e4"/><path d="M573.777,963.128c-1.178-.778-2.028-2.009-1.832-7.065.131-3.24.785-7.712.785-10.888,0-1.426-.654-3.046-2.486-3.046-2.29,0-5.628,4.666-6.675,6.74.131-1.231.524-4.861.589-6.092s.066-1.3-2.094-1.3c-1.439,0-1.569.259-1.569.777,0,2.982-.263,6.417-.524,9.852-.786,1.685-1.833,3.37-3.338,3.37a3.006,3.006,0,0,1-1.308-.324,9.938,9.938,0,0,0,1.113-4.342,3.117,3.117,0,0,0-3.141-3.241,3.709,3.709,0,0,0-3.861,4.018c0,1.815,1.9,3.889,3.337,4.861a4.97,4.97,0,0,1-4.515,2.722c-2.813,0-3.8-5.12-3.8-7,0-3.63,1.309-7.713,5.627-7.713,2.945,0,2.945,1.944,4.188,1.944.131,0,.524-.194.524-.388,0-2.139-3.4-3.889-5.17-3.889-6.02,0-10.207,4.731-10.207,10.629a11.3,11.3,0,0,0,.589,3.565c-.589,1.49-1.309,2.657-2.225,2.657-.589,0-1.047-.843-1.047-2.787,0-3.565.327-8.49.654-12.249.066-.454-.131-.908-.654-.908-.458-.065-1.9-.194-2.421-.194-.785,0-1.113.453-1.113,1.3v1.3c0,2.269-.13,4.213-.2,6.157a1.432,1.432,0,0,0-.2.324c-.72,1.945-1.636,7.324-3.8,7.324-.655,0-2.029-.907-2.029-3.435,0-4.083,1.374-12.249,1.571-13.675,2.093-.454,3.926-.324,6.412-1.037,1.113-.324.458-1.62-.785-1.491a34.906,34.906,0,0,1-5.431,0c.065-2.139.589-3.5.589-5.7v-.2c0-.583-.262-1.037-.851-1.037-1.178,0-3.01.389-3.01,2.009,0,1.686-.326,3.176-.262,4.861-1.177.065-2.224-.259-3.4-.259-.85,0-1.047,1.556-1.047,2.139,0,.648.066,1.1.458,1.1a30.272,30.272,0,0,0,3.73-.324c-.327,4.277-.85,6.675-1.178,9.657,0,.194-.066.453-.066.713-.719,2.268-2.093,5.768-3.205,5.768A1.464,1.464,0,0,1,519.4,957.1,42.575,42.575,0,0,1,520.58,946.8a11.062,11.062,0,0,0,.654-2.527c0-.843-1.374-1.3-2.093-1.3-1.178,0-1.113.648-1.571,1.685-.851-.648-1.047-1.814-3.337-1.814-4.188,0-6.74,6.74-6.74,10.953,0,.713-.065,1.1-.065,1.491,0,2.4-1.374,5.379-2.814,5.379-1.243,0-1.636-3.37-1.636-4.8a31.6,31.6,0,0,1,1.7-8.426,6.148,6.148,0,0,0,.916-2.268c0-.907-1.047-2.4-2.094-2.4-1.178,0-1.9.648-3.141.648-1.963,0-3.272-1.231-4.384-1.231a1.026,1.026,0,0,0-1.113,1.1c0,1.75,1.9,1.426,1.44,3.63-.458,2.074-1.832,7.713-2.617,9.851a.48.48,0,0,0-.066.324,1.892,1.892,0,0,0,.132.649c-.459.777-.982,1.3-1.637,1.3s-2.028-.908-2.028-3.435c0-4.083,1.374-12.25,1.571-13.676,2.094-.453,3.925-.324,6.412-1.037,1.112-.324.458-1.62-.786-1.49a35.035,35.035,0,0,1-5.431,0c.066-2.139.589-3.5.589-5.7,0-.583-.261-1.037-.85-1.037-1.178,0-3.01.389-3.01,2.009,0,1.686-.327,3.176-.262,4.861-1.177.065-2.224-.259-3.4-.259-.851,0-1.047,1.556-1.047,2.139,0,.648.065,1.1.458,1.1a30.272,30.272,0,0,0,3.73-.324c-.327,4.277-.851,6.675-1.178,9.657a53.122,53.122,0,0,0-.458,5.573c0,2.787,2.42,5.056,4.449,5.056,3.6,0,6.543-7.259,6.543-10.24v-.389c.393-1.75.655-3.5.982-4.991.065-.194.262-.778.785-.778,1.178,0,1.309.843,1.309,1.75,0,2.4-.851,6.676-.851,9.2,0,2.462.654,5.509,3.534,5.509a6.357,6.357,0,0,0,5.5-3.63c.785,1.88,2.094,3.37,3.926,3.37,1.767,0,3.272-1.3,4.319-2.527.262.648.654,2.4,2.552,2.4,1.766,0,3.141-1.491,4.188-3.371a4.919,4.919,0,0,0,4.252,3.76c2.029,0,3.926-2.4,5.1-4.991.131,2.722,1.636,4.537,3.534,4.537,1.963,0,3.6-1.556,4.711-3.5a6.643,6.643,0,0,0,5.758,3.37c3.6,0,5.758-2.333,7.655-5.12a9.921,9.921,0,0,0,1.833.324,4.887,4.887,0,0,0,3.468-2.009c-.131,2.074-.262,4.083-.262,5.9,0,.648.131.907.589,1.037a5.742,5.742,0,0,0,1.832.065c.654,0,.785.065.916-.778.065-.583.458-7.518.458-8.037,0-1.426,3.468-7.453,5.169-7.453.328,0,.589.583.589.972,0,3.111-.981,8.166-.981,11.407,0,3.435,1.7,4.6,2.421,4.991a6.445,6.445,0,0,0,2.813.713C573.777,963.776,574.235,963.387,573.777,963.128Zm-57.45-6.611c-.066.907-1.7,3.241-2.945,3.241-1.374,0-1.963-3.889-1.9-6.481.065-3.047,1.57-8.491,3.01-8.491,1.9,0,2.159,4.537,2.159,5.963C516.654,952.369,516.458,954.9,516.327,956.517Zm37.559-2.139a4.186,4.186,0,0,1-1.374-3.111c0-.583.2-1.879,1.047-1.879.785,0,1.046,1.426,1.046,2.009A11.079,11.079,0,0,1,553.886,954.378Z" style="fill:#f0e4e4"/><path d="M588.826,955.48c-.327-5.12-8.114-10.694-8.637-13.611-.13-.777,1.178-.907,1.047-1.555-.13-.907-.916-.907-1.44-.843-2.944.324-3.533,1.3-3.794,3.176a4.027,4.027,0,0,0,1.308,2.917c.066,2.268-1.177,8.555-2.617,11.018a5.056,5.056,0,0,0-.851,1.491c-.131.777.458,1.166.982.648.458-.389.392-.648.85-.973,1.047,2.4,4.319,4.084,6.806,4.084C586.079,961.832,589.023,959.3,588.826,955.48Zm-7.72,3.824c-1.047,0-2.683-.648-2.749-2.009-.065-.778,1.767-1.167,2.421-1.556.523-.324.655-.583.655-.777-.066-.454-.721-.778-1.44-.778a4.5,4.5,0,0,0-2.421.842c.2-.907,1.571-5.574,1.9-7.842a14.907,14.907,0,0,1,5.168,9.333C584.835,959.045,581.956,959.3,581.106,959.3Z" style="fill:#f0e4e4"/><path d="M63.2,959.2c0,2.5-1.2,3.7-2.6,3.7a1.928,1.928,0,0,1-2.1-1.4,2.2,2.2,0,0,1-1.8.8,2.808,2.808,0,0,1,0-5.6,2.175,2.175,0,0,1,1.6.7v-.5h1.6v3.9c0,.8.3,1.4,1,1.4.9,0,1.7-.9,1.7-3a5.233,5.233,0,0,0-5.4-5.3,5.552,5.552,0,0,0-5.6,5.7,5.624,5.624,0,0,0,5.9,5.7,11.935,11.935,0,0,0,2.9-.4v.6a8.119,8.119,0,0,1-2.9.4,6.2,6.2,0,1,1-.3-12.4A5.593,5.593,0,0,1,63.2,959.2Zm-4.9.3a1.347,1.347,0,0,0-1.3-1.4,1.238,1.238,0,0,0-1.3,1.4,1.261,1.261,0,0,0,1.3,1.3C57.8,960.9,58.3,960.3,58.3,959.5Z" style="fill:#f0e4e4"/><path d="M69.4,955.1v2a2.244,2.244,0,0,0-2.6,2.4v4.3H64.9v-8.6h1.9v1.4A2.632,2.632,0,0,1,69.4,955.1Z" style="fill:#f0e4e4"/><path d="M74.6,962.3a2.641,2.641,0,0,0,2.2-1.1l1.5.9a4.346,4.346,0,0,1-3.8,1.9,4.414,4.414,0,0,1-4.7-4.5,4.36,4.36,0,0,1,4.5-4.5,4.313,4.313,0,0,1,4.3,4.5,2.2,2.2,0,0,1-.1.8H71.7A2.832,2.832,0,0,0,74.6,962.3Zm2.3-3.5a2.375,2.375,0,0,0-2.5-2.1,2.506,2.506,0,0,0-2.6,2.1Z" style="fill:#f0e4e4"/><path d="M88.9,955.2v8.6H87v-1.2a3.692,3.692,0,0,1-3,1.5,4.443,4.443,0,0,1-4.3-4.5,4.317,4.317,0,0,1,4.3-4.5,3.613,3.613,0,0,1,3,1.4v-1.2h1.9Zm-1.8,4.3a2.7,2.7,0,1,0-2.7,2.7A2.571,2.571,0,0,0,87.1,959.5Z" style="fill:#f0e4e4"/><path d="M91.1,951.3H93v12.5H91.1Z" style="fill:#f0e4e4"/><path d="M102.9,955.2l-3.3,8.6H97.5l-3.3-8.6h2l2.4,6.5,2.4-6.5Z" style="fill:#f0e4e4"/><path d="M104.2,955.2h1.9v8.9c0,2.4-1.2,3.5-3.5,3.3v-1.8c1.1.1,1.7-.3,1.7-1.5v-8.9Zm-.2-2.4a1.2,1.2,0,0,1,2.4,0,1.2,1.2,0,1,1-2.4,0Z" style="fill:#f0e4e4"/><path d="M116,955.2l-3.3,8.8c-.8,2.2-2.2,3.3-4.2,3.2v-1.7a2.076,2.076,0,0,0,2.3-1.7l.1-.2-3.6-8.4h2l2.6,6.2,2.2-6.2Z" style="fill:#f0e4e4"/><path d="M58.9,938.7a3.633,3.633,0,0,1-3.6,3.8h-3v-7.6h3A3.633,3.633,0,0,1,58.9,938.7Zm-1,0a2.722,2.722,0,0,0-2.6-2.9h-2v5.7h2A2.577,2.577,0,0,0,57.9,938.7Z" style="fill:#f0e4e4"/><path d="M67,941.6v1H62.4V935h4.5v1H63.4v2.3h3.2v.9H63.4v2.4Z" style="fill:#f0e4e4"/><path d="M70,940.8l.9-.5a1.987,1.987,0,0,0,2,1.4c1.1,0,1.6-.5,1.6-1.2,0-.8-.7-1-1.8-1.4-1.2-.4-2.4-.8-2.4-2.2a2.208,2.208,0,0,1,2.4-2.2,2.664,2.664,0,0,1,2.6,1.7l-.8.5a1.743,1.743,0,0,0-1.7-1.2c-.8,0-1.4.4-1.4,1.1s.5,1,1.6,1.3c1.3.4,2.6.8,2.6,2.3a2.333,2.333,0,0,1-2.6,2.2A2.847,2.847,0,0,1,70,940.8Z" style="fill:#f0e4e4"/><path d="M80,934.9v7.6H79v-7.6Z" style="fill:#f0e4e4"/><path d="M91.3,939.2a3.47,3.47,0,0,1-3.7,3.5,3.888,3.888,0,0,1-4-4,3.974,3.974,0,0,1,7.3-2.2l-.9.5a2.775,2.775,0,0,0-2.4-1.4,3,3,0,0,0,0,6,2.5,2.5,0,0,0,2.7-2H87.5v-.9h3.8Z" style="fill:#f0e4e4"/><path d="M100.6,934.9v7.6h-.8l-3.9-5.7v5.7h-1v-7.6h.8l3.9,5.7v-5.7Z" style="fill:#f0e4e4"/><path d="M109.1,941.6v1h-4.6V935H109v1h-3.5v2.3h3.2v.9h-3.2v2.4Z" style="fill:#f0e4e4"/><path d="M119.2,938.7a3.633,3.633,0,0,1-3.6,3.8h-3v-7.6h3A3.7,3.7,0,0,1,119.2,938.7Zm-1,0a2.722,2.722,0,0,0-2.6-2.9h-2v5.7h2A2.577,2.577,0,0,0,118.2,938.7Z" style="fill:#f0e4e4"/><path d="M133.2,940.4a2.22,2.22,0,0,1-2.2,2.2h-3.3V935h3a2.051,2.051,0,0,1,2.1,2.1,1.943,1.943,0,0,1-.8,1.6A1.658,1.658,0,0,1,133.2,940.4Zm-4.5-4.6v2.3h2a1.135,1.135,0,0,0,1.1-1.2,1.2,1.2,0,0,0-1.1-1.2h-2Zm3.5,4.5a1.155,1.155,0,0,0-1.2-1.2h-2.3v2.5H131A1.24,1.24,0,0,0,132.2,940.3Z" style="fill:#f0e4e4"/><path d="M139.4,939.4v3.1h-1v-3.1l-2.7-4.5h1.1l2.1,3.6,2.1-3.6h1.1Z" style="fill:#f0e4e4"/><path d="M210.957,934.972v7.7h-.825l-3.96-5.754v5.754h-1.024v-7.7h.826l3.96,5.743v-5.743Z" style="fill:#f0e4e4"/><path d="M219.405,941.705v.968h-4.6v-7.7h4.544v.967H215.83v2.367h3.245v.957H215.83v2.442Z" style="fill:#f0e4e4"/><path d="M222.286,934.972h1.078l1.76,6.337,1.87-6.337h1.034l1.87,6.337,1.761-6.337h1.078l-2.211,7.7h-1.188l-1.826-6.15-1.826,6.15H224.5Z" style="fill:#f0e4e4"/><path d="M243.22,934.972v7.7h-1.013v-6.6l-1.639.484-.253-.88,2.025-.7Z" style="fill:#f0e4e4"/><path d="M249.336,934.972v7.7h-1.013v-6.6l-1.638.484-.253-.88,2.024-.7Z" style="fill:#f0e4e4"/><path d="M257.871,940.4a2.438,2.438,0,0,1-2.64,2.419,2.564,2.564,0,0,1-2.531-1.561l.859-.506a1.584,1.584,0,0,0,1.672,1.066,1.436,1.436,0,1,0,0-2.849h-.264l-.407-.627,1.782-2.409h-3.421v-.957h4.62v.9l-1.672,2.255A2.269,2.269,0,0,1,257.871,940.4Z" style="fill:#f0e4e4"/><path d="M204.755,951.191h2.575l2.38,9.218,2.594-9.218H214.4l2.611,9.218,2.38-9.218h2.576l-3.482,12.433H215.7l-2.343-8.206-2.328,8.206h-2.788Z" style="fill:#f0e4e4"/><path d="M221.745,959.184a4.7,4.7,0,1,1,4.69,4.689A4.64,4.64,0,0,1,221.745,959.184Zm7.1,0a2.407,2.407,0,1,0-2.415,2.451A2.362,2.362,0,0,0,228.85,959.184Z" style="fill:#f0e4e4"/><path d="M237.744,954.565v2.558a2.217,2.217,0,0,0-2.7,2.256v4.245h-2.291v-8.881h2.291v1.528A2.734,2.734,0,0,1,237.744,954.565Z" style="fill:#f0e4e4"/><path d="M244.6,963.624l-3.233-4.032v4.032h-2.291V951.191h2.291v7.459l3.055-3.907h2.735l-3.569,4.388,3.676,4.493Z" style="fill:#f0e4e4"/><path d="M254.505,961.031c0,1.918-1.67,2.842-3.57,2.842a3.818,3.818,0,0,1-3.73-2.114l1.989-1.118a1.693,1.693,0,0,0,1.741,1.154c.728,0,1.225-.249,1.225-.764,0-1.3-4.582-.587-4.582-3.713,0-1.811,1.545-2.823,3.374-2.823a3.74,3.74,0,0,1,3.375,1.882l-1.954,1.066a1.5,1.5,0,0,0-1.421-.906c-.568,0-1.03.249-1.03.729C249.922,958.58,254.505,957.763,254.505,961.031Z" style="fill:#f0e4e4"/><path d="M258.782,956.945v3.7c0,.959.694.976,2.008.905v2.078c-3.215.355-4.3-.586-4.3-2.983v-3.7h-1.545v-2.2h1.545v-1.794l2.291-.692v2.486h2.008v2.2Z" style="fill:#f0e4e4"/><path d="M271.177,954.743v8.881h-2.291v-1.048a3.536,3.536,0,0,1-2.9,1.3,4.705,4.705,0,0,1,0-9.378,3.536,3.536,0,0,1,2.9,1.3v-1.048Zm-2.291,4.441a2.46,2.46,0,1,0-2.469,2.5A2.387,2.387,0,0,0,268.886,959.184Z" style="fill:#f0e4e4"/><path d="M276.323,956.945v3.7c0,.959.694.976,2.008.905v2.078c-3.215.355-4.3-.586-4.3-2.983v-3.7h-1.545v-2.2h1.545v-1.794l2.291-.692v2.486h2.008v2.2Z" style="fill:#f0e4e4"/><path d="M279.678,952.274a1.412,1.412,0,1,1,1.4,1.4A1.418,1.418,0,0,1,279.678,952.274Zm.266,2.469h2.291v8.881h-2.291Z" style="fill:#f0e4e4"/><path d="M283.867,959.184a4.7,4.7,0,1,1,4.69,4.689A4.64,4.64,0,0,1,283.867,959.184Zm7.1,0a2.407,2.407,0,1,0-2.415,2.451A2.362,2.362,0,0,0,290.972,959.184Z" style="fill:#f0e4e4"/><path d="M303.17,958.171v5.453h-2.292v-5.169a1.653,1.653,0,0,0-1.758-1.829c-1.119,0-1.954.657-1.954,2.2v4.8h-2.291v-8.881h2.291v1a3.018,3.018,0,0,1,2.646-1.243C301.7,954.5,303.17,955.809,303.17,958.171Z" style="fill:#f0e4e4"/><path d="M848.133,938.45a3.648,3.648,0,0,1-3.617,3.813h-2.973v-7.626h2.973A3.648,3.648,0,0,1,848.133,938.45Zm-.969,0a2.669,2.669,0,0,0-2.648-2.855h-1.961V941.3h1.961A2.669,2.669,0,0,0,847.164,938.45Z" style="fill:#f0e4e4"/><path d="M851.254,938.45a3.949,3.949,0,1,1,3.943,3.955A3.917,3.917,0,0,1,851.254,938.45Zm6.887,0a2.943,2.943,0,1,0-2.944,2.964A2.911,2.911,0,0,0,858.141,938.45Z" style="fill:#f0e4e4"/><path d="M861.783,934.637h1.069l1.742,6.276,1.853-6.276h1.024l1.851,6.276,1.744-6.276h1.067l-2.19,7.626h-1.175l-1.809-6.09-1.809,6.09h-1.177Z" style="fill:#f0e4e4"/><path d="M881.27,934.637v7.626h-.819l-3.922-5.7v5.7h-1.011v-7.626h.816l3.922,5.687v-5.687Z" style="fill:#f0e4e4"/><path d="M889.5,941.3v.959h-4.3v-7.626h1.014V941.3Z" style="fill:#f0e4e4"/><path d="M891.877,938.45a3.949,3.949,0,1,1,3.943,3.955A3.917,3.917,0,0,1,891.877,938.45Zm6.887,0a2.943,2.943,0,1,0-2.944,2.964A2.911,2.911,0,0,0,898.764,938.45Z" style="fill:#f0e4e4"/><path d="M907.418,940.552h-3.432l-.621,1.711h-1.078l2.844-7.626h1.142l2.844,7.626h-1.078Zm-.348-.947-1.373-3.759-1.361,3.759Z" style="fill:#f0e4e4"/><path d="M918.906,938.45a3.647,3.647,0,0,1-3.617,3.813h-2.975v-7.626h2.975A3.647,3.647,0,0,1,918.906,938.45Zm-.97,0a2.67,2.67,0,0,0-2.647-2.855h-1.961V941.3h1.961A2.669,2.669,0,0,0,917.936,938.45Z" style="fill:#f0e4e4"/><path d="M928.457,935.6v2.474h3.236v.959h-3.236v3.235h-1.014v-7.626h4.391v.958Z" style="fill:#f0e4e4"/><path d="M938.168,939.343h-1.8v2.92h-1.012v-7.626h3.049a2.353,2.353,0,0,1,.8,4.575l1.8,3.051h-1.121Zm-1.8-.915h2.037a1.423,1.423,0,0,0,0-2.843h-2.037Z" style="fill:#f0e4e4"/><path d="M943.869,938.45a3.95,3.95,0,1,1,3.943,3.955A3.918,3.918,0,0,1,943.869,938.45Zm6.887,0a2.943,2.943,0,1,0-2.944,2.964A2.911,2.911,0,0,0,950.756,938.45Z" style="fill:#f0e4e4"/><path d="M962.418,942.263h-1V936.3l-2.5,4.151h-.131l-2.494-4.14v5.948h-1.014v-7.626h1.145l2.429,4.031,2.418-4.031h1.145Z" style="fill:#f0e4e4"/><path d="M841.318,952.65a1.221,1.221,0,1,1,1.221,1.222A1.224,1.224,0,0,1,841.318,952.65Zm.266,2.549H843.5v8.85h-1.911Z" style="fill:#f0e4e4"/><path d="M845.709,951.128h1.912v12.921h-1.912Z" style="fill:#f0e4e4"/><path d="M849.834,951.128h1.912v12.921h-1.912Z" style="fill:#f0e4e4"/><path d="M853.96,951.128h1.911v12.921H853.96Z" style="fill:#f0e4e4"/><path d="M865.963,955.2v8.85h-1.912v-1.132a3.048,3.048,0,0,1-2.744,1.363,3.305,3.305,0,0,1-3.4-3.647V955.2h1.912v5.24a1.845,1.845,0,0,0,1.983,2.053c1.257,0,2.248-.743,2.248-2.549V955.2Z" style="fill:#f0e4e4"/><path d="M874.621,961.553c0,1.771-1.539,2.727-3.451,2.727a3.694,3.694,0,0,1-3.611-2.071l1.646-.956a1.945,1.945,0,0,0,1.965,1.274c.85,0,1.5-.283,1.5-.991,0-1.575-4.761-.691-4.761-3.859,0-1.664,1.434-2.708,3.238-2.708a3.566,3.566,0,0,1,3.276,1.841l-1.612.9a1.723,1.723,0,0,0-1.664-1.008c-.689,0-1.292.3-1.292.938C869.86,959.253,874.621,958.279,874.621,961.553Z" style="fill:#f0e4e4"/><path d="M878.7,957.041v4.248c0,1.132.744,1.114,2.2,1.044v1.716c-2.938.355-4.106-.46-4.106-2.76v-4.248h-1.629V955.2h1.629v-1.911l1.91-.567V955.2h2.2v1.842Z" style="fill:#f0e4e4"/><path d="M887.354,955.04v2.071a2.337,2.337,0,0,0-2.725,2.478v4.46h-1.912V955.2h1.912v1.487A2.782,2.782,0,0,1,887.354,955.04Z" style="fill:#f0e4e4"/><path d="M897.286,955.2v8.85h-1.911v-1.274a3.639,3.639,0,0,1-3.1,1.5,4.662,4.662,0,0,1,0-9.311,3.672,3.672,0,0,1,3.1,1.487V955.2Zm-1.911,4.426a2.8,2.8,0,1,0-2.8,2.832A2.735,2.735,0,0,0,895.375,959.625Z" style="fill:#f0e4e4"/><path d="M902.264,957.041v4.248c0,1.132.744,1.114,2.195,1.044v1.716c-2.938.355-4.1-.46-4.1-2.76v-4.248h-1.629V955.2h1.629v-1.911l1.91-.567V955.2h2.195v1.842Z" style="fill:#f0e4e4"/><path d="M905.931,952.65a1.221,1.221,0,0,1,2.442,0,1.221,1.221,0,1,1-2.442,0Zm.265,2.549h1.911v8.85H906.2Z" style="fill:#f0e4e4"/><path d="M909.826,959.625a4.673,4.673,0,1,1,4.674,4.655A4.621,4.621,0,0,1,909.826,959.625Zm7.435,0a2.762,2.762,0,1,0-2.761,2.8A2.718,2.718,0,0,0,917.261,959.625Z" style="fill:#f0e4e4"/><path d="M928.965,958.616v5.433h-1.912V958.81a1.845,1.845,0,0,0-1.983-2.053c-1.257,0-2.248.744-2.248,2.549v4.743H920.91V955.2h1.912v1.133a3.047,3.047,0,0,1,2.744-1.363A3.3,3.3,0,0,1,928.965,958.616Z" style="fill:#f0e4e4"/><path d="M937.5,961.553c0,1.771-1.541,2.727-3.451,2.727a3.692,3.692,0,0,1-3.611-2.071l1.646-.956a1.943,1.943,0,0,0,1.965,1.274c.849,0,1.5-.283,1.5-.991,0-1.575-4.762-.691-4.762-3.859,0-1.664,1.434-2.708,3.239-2.708a3.563,3.563,0,0,1,3.275,1.841l-1.611.9a1.725,1.725,0,0,0-1.664-1.008c-.69,0-1.292.3-1.292.938C932.738,959.253,937.5,958.279,937.5,961.553Z" style="fill:#f0e4e4"/><path d="M938.83,962.934a1.328,1.328,0,0,1,2.656,0,1.328,1.328,0,0,1-2.656,0Z" style="fill:#f0e4e4"/><path d="M942.319,959.625a4.567,4.567,0,0,1,4.673-4.656,4.373,4.373,0,0,1,3.947,2.284l-1.646.956a2.473,2.473,0,0,0-2.318-1.364,2.779,2.779,0,0,0,0,5.558,2.6,2.6,0,0,0,2.353-1.362l1.647.937a4.451,4.451,0,0,1-3.983,2.3A4.577,4.577,0,0,1,942.319,959.625Z" style="fill:#f0e4e4"/><path d="M951.722,959.625a4.673,4.673,0,1,1,4.673,4.655A4.62,4.62,0,0,1,951.722,959.625Zm7.434,0a2.762,2.762,0,1,0-2.761,2.8A2.718,2.718,0,0,0,959.156,959.625Z" style="fill:#f0e4e4"/><path d="M364.2,288.589H700.05a18.075,18.075,0,0,1,18.075,18.075V506.589a0,0,0,0,1,0,0h-372a0,0,0,0,1,0,0V306.664A18.075,18.075,0,0,1,364.2,288.589Z" style="fill:#ffaa47"/><rect x="428.25" y="331.799" width="232" height="164" rx="8" style="opacity:0.13"/><rect x="419.458" y="324.255" width="232" height="164" rx="8" style="fill:#519673"/><rect x="419.458" y="324.255" width="232" height="164" rx="8" style="fill:none;stroke:#2b2f38;stroke-linecap:round;stroke-linejoin:round;stroke-width:4px"/><path d="M427.458,324.255h216a8,8,0,0,1,8,8v15.378a0,0,0,0,1,0,0h-232a0,0,0,0,1,0,0V332.255A8,8,0,0,1,427.458,324.255Z" style="fill:#dee2e2"/><path d="M427.458,324.255h216a8,8,0,0,1,8,8v15.378a0,0,0,0,1,0,0h-232a0,0,0,0,1,0,0V332.255A8,8,0,0,1,427.458,324.255Z" style="fill:none;stroke:#2b2f38;stroke-linecap:round;stroke-linejoin:round;stroke-width:4px"/><path d="M381.2,288.589h-17a18.075,18.075,0,0,0-18.075,18.075V506.589h17V306.664A18.075,18.075,0,0,1,381.2,288.589Z" style="fill:#fefffb;opacity:0.75"/><path d="M700.05,288.589H663.221A18.074,18.074,0,0,1,681.3,306.664V506.589h36.829V306.664A18.075,18.075,0,0,0,700.05,288.589Z" style="opacity:0.13"/><path d="M364.2,288.589H700.05a18.075,18.075,0,0,1,18.075,18.075V506.589a0,0,0,0,1,0,0h-372a0,0,0,0,1,0,0V306.664A18.075,18.075,0,0,1,364.2,288.589Z" style="fill:none;stroke:#2b2f38;stroke-linecap:round;stroke-linejoin:round;stroke-width:6px"/><path d="M346.125,506.68h372a0,0,0,0,1,0,0v42.227a21.773,21.773,0,0,1-21.773,21.773H367.9a21.773,21.773,0,0,1-21.773-21.773V506.68A0,0,0,0,1,346.125,506.68Z" style="fill:#f0e4e4"/><path d="M684.125,506.68v42.227a21.773,21.773,0,0,1-21.773,21.773h34a21.773,21.773,0,0,0,21.773-21.773V506.68Z" style="opacity:0.13"/><path d="M696.352,563.68H367.9a21.773,21.773,0,0,1-21.773-21.773v7A21.773,21.773,0,0,0,367.9,570.68H696.352a21.773,21.773,0,0,0,21.773-21.773v-7A21.773,21.773,0,0,1,696.352,563.68Z" style="fill:#cec8c8"/><path d="M346.125,506.68h372a0,0,0,0,1,0,0v42.227a21.773,21.773,0,0,1-21.773,21.773H367.9a21.773,21.773,0,0,1-21.773-21.773V506.68A0,0,0,0,1,346.125,506.68Z" style="fill:none;stroke:#2b2f38;stroke-linecap:round;stroke-linejoin:round;stroke-width:6px"/><rect x="451.125" y="624.68" width="162" height="20" rx="10" style="fill:#fff"/><rect x="451.125" y="637.103" width="162" height="7.577" rx="3.789" style="fill:#cecec8"/><rect x="451.125" y="624.68" width="162" height="20" rx="10" style="fill:none;stroke:#2b2f38;stroke-linecap:round;stroke-linejoin:round;stroke-width:6px"/><path d="M559.125,597.68a27,27,0,0,1,27-27h-108a27,27,0,0,1,0,54h108A27,27,0,0,1,559.125,597.68Z" style="fill:#cecec8"/><path d="M499.432,581.107h65.386a26.947,26.947,0,0,1,21.307-10.427h-108A26.947,26.947,0,0,1,499.432,581.107Z" style="fill:#bcbcb8"/><path d="M559.633,602.894a26.977,26.977,0,0,0,5.185,21.786h21.307A27,27,0,0,1,559.633,602.894Z" style="fill:#cecec8"/><path d="M514.678,597.68a27,27,0,0,0-27-27h-9.553a27,27,0,0,1,0,54h9.553A27,27,0,0,0,514.678,597.68Z" style="fill:#dddddb"/><path d="M559.125,597.68a27,27,0,0,1,27-27H571.25a27,27,0,0,0,0,54h14.875A27,27,0,0,1,559.125,597.68Z" style="fill:#bcbcb8"/><path d="M559.125,597.68a27,27,0,0,1,27-27h-108a27,27,0,0,1,0,54h108A27,27,0,0,1,559.125,597.68Z" style="fill:none;stroke:#2b2f38;stroke-linecap:round;stroke-linejoin:round;stroke-width:6px"/><line x1="546.221" y1="374.649" x2="623.554" y2="374.649" style="fill:none;stroke:#fff;stroke-linecap:round;stroke-linejoin:round;stroke-width:6px"/><line x1="546.221" y1="393.589" x2="598.887" y2="393.589" style="fill:none;stroke:#fff;stroke-linecap:round;stroke-linejoin:round;stroke-width:6px;opacity:0.6900000000000001"/><line x1="546.221" y1="412.529" x2="623.554" y2="412.529" style="fill:none;stroke:#fff;stroke-linecap:round;stroke-linejoin:round;stroke-width:6px;opacity:0.35000000000000003"/><circle cx="537.458" cy="456.186" r="27" style="opacity:0.30000000000000004"/><circle cx="535.458" cy="454.186" r="27" style="fill:#2b2f38"/><path d="M530.083,441.525l20.022,11.56a1.271,1.271,0,0,1,0,2.2l-20.022,11.56a1.271,1.271,0,0,1-1.907-1.1v-23.12A1.272,1.272,0,0,1,530.083,441.525Z" style="fill:#fff"/><path d="M606.131,453.6l-10.662-6.155a.676.676,0,0,0-1.015.586v4.351l-8.551-4.937a.677.677,0,0,0-1.016.586v12.311a.678.678,0,0,0,1.016.586l8.551-4.937v4.351a.677.677,0,0,0,1.015.586l10.662-6.155A.678.678,0,0,0,606.131,453.6Z" style="opacity:0.30000000000000004"/><path d="M463.956,453.6l10.661-6.155a.676.676,0,0,1,1.015.586v4.351l8.552-4.937a.676.676,0,0,1,1.015.586v12.311a.677.677,0,0,1-1.015.586l-8.552-4.937v4.351a.677.677,0,0,1-1.015.586l-10.661-6.155A.677.677,0,0,1,463.956,453.6Z" style="opacity:0.30000000000000004"/><rect x="199.021" y="447.381" width="110" height="188" rx="18" style="fill:#d3b894"/><rect x="199.021" y="447.381" width="110" height="188" rx="18" style="fill:#b78b6e"/><path d="M210.021,617.381v-152a18,18,0,0,1,18-18h-11a18,18,0,0,0-18,18v152a18,18,0,0,0,18,18h11A18,18,0,0,1,210.021,617.381Z" style="fill:#a3775f"/><path d="M291.021,447.381h-12a18,18,0,0,1,18,18v152a18,18,0,0,1-18,18h12a18,18,0,0,0,18-18v-152A18,18,0,0,0,291.021,447.381Z" style="fill:#a3775f"/><path d="M291.021,629.381h-74a18,18,0,0,1-18-18v6a18,18,0,0,0,18,18h74a18,18,0,0,0,18-18v-6A18,18,0,0,1,291.021,629.381Z" style="fill:#936c5c"/><path d="M291.021,447.381h-74a18,18,0,0,0-18,18v5.805a18,18,0,0,1,18-18h74a18,18,0,0,1,18,18v-5.805A18,18,0,0,0,291.021,447.381Z" style="fill:#cea895"/><rect x="199.021" y="447.381" width="110" height="188" rx="18" style="fill:none;stroke:#2b2f38;stroke-linecap:round;stroke-linejoin:round;stroke-width:6px"/><circle cx="218.071" cy="466.635" r="6.141" style="fill:#2b2f38"/><circle cx="289.97" cy="466.635" r="6.141" style="fill:#2b2f38"/><circle cx="218.839" cy="618.11" r="6.141" style="fill:#2b2f38"/><circle cx="290.738" cy="618.11" r="6.141" style="fill:#2b2f38"/><circle cx="254.788" cy="504.696" r="27" style="fill:#2b2f38"/><circle cx="254.788" cy="504.696" r="29" style="fill:none;stroke:#000;stroke-miterlimit:10;opacity:0.28"/><circle cx="254.788" cy="504.696" r="20" style="fill:#fafbdb"/><circle cx="254.021" cy="575.368" r="33" style="fill:none;stroke:#000;stroke-miterlimit:10;opacity:0.28"/><circle cx="254.021" cy="575.368" r="31" style="fill:#2b2f38"/><circle cx="254.021" cy="575.368" r="26" style="fill:#fafbdb"/><circle cx="254.021" cy="575.368" r="12" style="fill:#2b2f38"/><circle cx="254.788" cy="504.696" r="8" style="fill:#2b2f38"/><circle cx="531.25" cy="535.928" r="14" style="fill:#c4c4bf"/><circle cx="531.25" cy="535.928" r="14" style="fill:none;stroke:#2b2f38;stroke-linecap:round;stroke-linejoin:round;stroke-width:4px"/><rect x="217.815" y="636.633" width="21.621" height="8" style="fill:#2b2f38"/><rect x="270.141" y="636.633" width="21.621" height="8" style="fill:#2b2f38"/><rect x="761.076" y="447.381" width="110" height="188" rx="18" style="fill:#d3b894"/><rect x="761.076" y="447.381" width="110" height="188" rx="18" style="fill:#b78b6e"/><path d="M772.076,617.381v-152a18,18,0,0,1,18-18h-11a18,18,0,0,0-18,18v152a18,18,0,0,0,18,18h11A18,18,0,0,1,772.076,617.381Z" style="fill:#a3775f"/><path d="M853.076,447.381h-12a18,18,0,0,1,18,18v152a18,18,0,0,1-18,18h12a18,18,0,0,0,18-18v-152A18,18,0,0,0,853.076,447.381Z" style="fill:#a3775f"/><path d="M853.076,629.381h-74a18,18,0,0,1-18-18v6a18,18,0,0,0,18,18h74a18,18,0,0,0,18-18v-6A18,18,0,0,1,853.076,629.381Z" style="fill:#936c5c"/><path d="M853.076,447.381h-74a18,18,0,0,0-18,18v5.805a18,18,0,0,1,18-18h74a18,18,0,0,1,18,18v-5.805A18,18,0,0,0,853.076,447.381Z" style="fill:#cea895"/><rect x="761.076" y="447.381" width="110" height="188" rx="18" style="fill:none;stroke:#2b2f38;stroke-linecap:round;stroke-linejoin:round;stroke-width:6px"/><circle cx="780.126" cy="466.635" r="6.141" style="fill:#2b2f38"/><circle cx="852.025" cy="466.635" r="6.141" style="fill:#2b2f38"/><circle cx="780.894" cy="618.11" r="6.141" style="fill:#2b2f38"/><circle cx="852.793" cy="618.11" r="6.141" style="fill:#2b2f38"/><circle cx="816.843" cy="504.696" r="27" style="fill:#2b2f38"/><circle cx="816.843" cy="504.696" r="29" style="fill:none;stroke:#000;stroke-miterlimit:10;opacity:0.28"/><circle cx="816.843" cy="504.696" r="20" style="fill:#fafbdb"/><circle cx="816.076" cy="575.368" r="33" style="fill:none;stroke:#000;stroke-miterlimit:10;opacity:0.28"/><circle cx="816.076" cy="575.368" r="31" style="fill:#2b2f38"/><circle cx="816.076" cy="575.368" r="26" style="fill:#fafbdb"/><circle cx="816.076" cy="575.368" r="12" style="fill:#2b2f38"/><circle cx="816.843" cy="504.696" r="8" style="fill:#2b2f38"/><rect x="779.87" y="636.633" width="21.621" height="8" style="fill:#2b2f38"/><rect x="832.195" y="636.633" width="21.621" height="8" style="fill:#2b2f38"/><path d="M478.741,371.587a3.425,3.425,0,0,0-2.86,3.378v24.814a4.729,4.729,0,0,1-4.254,4.686,14.149,14.149,0,0,0-2.5.509c-5.484,1.641-8.958,6.22-7.759,10.228s6.617,5.927,12.1,4.286c4.731-1.415,7.963-5.017,7.993-8.553h0V384.891a1.111,1.111,0,0,1,.839-1.077l20.006-5.023a1.11,1.11,0,0,1,1.38,1.076V394.2a4.729,4.729,0,0,1-4.253,4.686,13.954,13.954,0,0,0-2.5.509c-5.485,1.641-8.959,6.22-7.76,10.228s6.617,5.926,12.1,4.286c4.731-1.416,7.963-5.017,7.993-8.553h0V370.528a3.424,3.424,0,0,0-3.989-3.377Z" style="fill:#fff"/><circle cx="432.875" cy="335.944" r="4" style="opacity:0.21"/><circle cx="446.375" cy="335.944" r="4" style="opacity:0.21"/><circle cx="459.875" cy="335.944" r="4" style="opacity:0.21"/><line x1="901.571" y1="644.886" x2="931.5" y2="644.886" style="fill:none;stroke:#283035;stroke-linecap:round;stroke-linejoin:round;stroke-width:6px"/><line x1="718.58" y1="644.886" x2="886.572" y2="644.886" style="fill:none;stroke:#283035;stroke-linecap:round;stroke-linejoin:round;stroke-width:6px"/><path d="M702.081,644.886" style="fill:none;stroke:#283035;stroke-linecap:round;stroke-linejoin:round;stroke-width:6px"/><line x1="396" y1="644.886" x2="702.081" y2="644.886" style="fill:none;stroke:#283035;stroke-linecap:round;stroke-linejoin:round;stroke-width:6px"/><line x1="375.5" y1="644.886" x2="386.5" y2="644.886" style="fill:none;stroke:#283035;stroke-linecap:round;stroke-linejoin:round;stroke-width:6px"/><line x1="189" y1="644.886" x2="363.663" y2="644.886" style="fill:none;stroke:#283035;stroke-linecap:round;stroke-linejoin:round;stroke-width:6px"/><line x1="92" y1="644.886" x2="175" y2="644.886" style="fill:none;stroke:#283035;stroke-linecap:round;stroke-linejoin:round;stroke-width:6px"/><line x1="69.667" y1="644.886" x2="81" y2="644.886" style="fill:none;stroke:#283035;stroke-linecap:round;stroke-linejoin:round;stroke-width:6px"/><g style="opacity:0.77"><path d="M143.154,488.242c-4.135-13.559-3.929-22.075-3.929-22.075a20.126,20.126,0,0,1,1.139-4.31H115.371a20.126,20.126,0,0,1,1.139,4.31s.206,8.516-3.929,22.075c-4.625,15.166-15.427,35.775-15.311,49.741.092,11.063,6.3,37.17,5.431,60.045-.866,22.845-5.433,18.865-5.38,29.706.012,2.511,2.6,7.2,2.6,9.213,0,2.155,10.076,3.9,27.32,3.9.218,0,.433,0,.65,0,0,0,.407,0,.625,0,17.244,0,27.294-1.746,27.294-3.9,0-2.01,2.59-6.7,2.6-9.213.053-10.841-4.514-6.861-5.38-29.706-.867-22.875,5.338-48.982,5.431-60.045C158.581,524.017,147.779,503.408,143.154,488.242Z" style="fill:#fafbdb"/></g><path d="M160.416,537.983c.078-8.739-4.422-20.079-9.015-31.059-.978-2.355-18.574-18.312-19.93-6.945-8.409-10.566-14.592-7.013-17.485-7.013a6.2,6.2,0,0,0-6.022,4.211c-5.521,13.664-13.18,29.439-13.079,40.821.1,11.063,6.745,37.162,5.816,60.038-.928,22.844-5.167,18.86-5.111,29.7.013,2.51,3.14,7.739,3.14,9.749,0,2.155,9.722,4.065,28.188,4.065.233,0,28.946,0,30.658-4.66.693-1.886,2.773-6.675,2.786-9.185.056-10.842-4.834-6.848-5.762-29.692C153.672,575.14,160.317,549.046,160.416,537.983Z" style="fill:#d64351"/><g style="clip-path:url(#a)"><path d="M143.154,488.242c-4.135-13.559-3.929-22.075-3.929-22.075a20.126,20.126,0,0,1,1.139-4.31H115.371a20.126,20.126,0,0,1,1.139,4.31s.206,8.516-3.929,22.075c-4.625,15.166-15.427,35.775-15.311,49.741.092,11.063,6.3,37.17,5.431,60.045-.866,22.845-5.433,18.865-5.38,29.706.012,2.511,2.6,7.2,2.6,9.213,0,2.155,10.076,3.9,27.32,3.9.218,0,.433,0,.65,0,0,0,.407,0,.625,0,17.244,0,27.294-1.746,27.294-3.9,0-2.01,2.59-6.7,2.6-9.213.053-10.841-4.514-6.861-5.38-29.706-.867-22.875,5.338-48.982,5.431-60.045C158.581,524.017,147.779,503.408,143.154,488.242Z" style="fill:#d64351"/></g><path d="M160.416,537.983c.078-8.739-4.422-20.079-9.015-31.059-.978-2.355-18.574-18.312-19.93-6.945-8.409-10.566-14.592-7.013-17.485-7.013a6.2,6.2,0,0,0-6.022,4.211c-5.521,13.664-13.18,29.439-13.079,40.821.1,11.063,6.745,37.162,5.816,60.038-.928,22.844-5.167,18.86-5.111,29.7.013,2.51,3.14,7.739,3.14,9.749,0,2.155,9.722,4.065,28.188,4.065.233,0,28.946,0,30.658-4.66.693-1.886,2.773-6.675,2.786-9.185.056-10.842-4.834-6.848-5.762-29.692C153.672,575.14,160.317,549.046,160.416,537.983Z" style="fill:#d64351"/><g style="clip-path:url(#a)"><path d="M143.154,488.242c-4.135-13.559-3.929-22.075-3.929-22.075a20.126,20.126,0,0,1,1.139-4.31H115.371a20.126,20.126,0,0,1,1.139,4.31s.206,8.516-3.929,22.075c-4.625,15.166-15.427,35.775-15.311,49.741.092,11.063,6.3,37.17,5.431,60.045-.866,22.845-5.433,18.865-5.38,29.706.012,2.511,2.6,7.2,2.6,9.213,0,2.155,10.076,3.9,27.32,3.9.218,0,.433,0,.65,0,0,0,.407,0,.625,0,17.244,0,27.294-1.746,27.294-3.9,0-2.01,2.59-6.7,2.6-9.213.053-10.841-4.514-6.861-5.38-29.706-.867-22.875,5.338-48.982,5.431-60.045C158.581,524.017,147.779,503.408,143.154,488.242Z" style="fill:#d64351"/><path d="M162.5,537.914c.078-8.739-4.422-20.079-9.015-31.059-.909-2.188-6.737-21.606-9.987-14.464,4.88,2.825.057,6.362.566,7.588,4.593,10.98,9.514,29.2,9.436,37.935-.1,11.063-6.745,37.156-5.816,60.031.928,22.845,5.818,18.851,5.761,29.692-.013,2.511-2.093,7.3-2.786,9.186-1.327,3.612-18.871,4.424-26.805,4.606q2.45.053,5.147.054c.234,0,28.946,0,30.658-4.66.693-1.887,2.773-6.675,2.786-9.186.057-10.841-4.833-6.847-5.761-29.692C155.757,575.07,162.4,548.977,162.5,537.914Z" style="fill:#c93d51"/></g><path d="M140.364,461.857h0m0,0a20.126,20.126,0,0,0-1.139,4.31s-.206,8.516,3.929,22.075c4.625,15.166,15.427,35.775,15.311,49.742-.093,11.062-6.3,37.169-5.431,60.044.866,22.845,5.433,18.865,5.38,29.706-.012,2.511-2.6,7.2-2.6,9.213,0,2.155-10.05,3.9-27.294,3.9-.218,0-.625,0-.625,0-.217,0-.432,0-.65,0-17.244,0-27.32-1.746-27.32-3.9,0-2.01-2.59-6.7-2.6-9.213-.053-10.841,4.514-6.861,5.38-29.706.867-22.875-5.338-48.982-5.431-60.044-.116-13.967,10.686-34.576,15.311-49.742,4.135-13.559,3.929-22.075,3.929-22.075a20.126,20.126,0,0,0-1.139-4.31h24.993m0-6h-25A6,6,0,0,0,109.765,464a14.516,14.516,0,0,1,.744,2.639c-.029,1.591-.348,8.977-3.667,19.858-1.445,4.738-3.546,10.1-5.771,15.769-4.862,12.4-9.889,25.215-9.8,35.773.037,4.548.968,11.07,2.047,18.622,1.741,12.2,3.909,27.387,3.387,41.145-.461,12.158-1.96,15.8-3.164,18.73a25.063,25.063,0,0,0-2.22,11.232,21.421,21.421,0,0,0,1.787,7.14c.283.756.7,1.873.822,2.367.089,1.892,1.01,5,5.683,6.8a32.215,32.215,0,0,0,6.607,1.572,149.227,149.227,0,0,0,21.023,1.21l.4,0h.239l.633,0a148.99,148.99,0,0,0,21.011-1.21,32.079,32.079,0,0,0,6.6-1.574c4.667-1.8,5.586-4.9,5.675-6.794.121-.494.539-1.611.821-2.367a21.4,21.4,0,0,0,1.788-7.14,25.063,25.063,0,0,0-2.22-11.232c-1.2-2.928-2.7-6.572-3.164-18.73-.522-13.758,1.646-28.943,3.387-41.145,1.079-7.552,2.01-14.074,2.048-18.622.087-10.558-4.939-23.376-9.8-35.773-2.225-5.672-4.326-11.03-5.771-15.769-3.309-10.851-3.636-18.225-3.667-19.861a14.428,14.428,0,0,1,.682-2.47,6,6,0,0,0-5.539-8.3Zm0,12h0Z" style="fill:#2b2f38"/><path d="M107.078,636.947" style="fill:none;stroke:#fff;stroke-linecap:round;stroke-linejoin:round;stroke-width:4px"/><path d="M104.476,627.734" style="fill:none;stroke:#fff;stroke-linecap:round;stroke-linejoin:round;stroke-width:4px"/><path d="M106.407,618.421a19.733,19.733,0,0,0-1.931,9.313" style="fill:none;stroke:#fff;stroke-linecap:round;stroke-linejoin:round;stroke-width:4px"/><path d="M106.407,618.421" style="fill:none;stroke:#fff;stroke-linecap:round;stroke-linejoin:round;stroke-width:4px"/><path d="M109.856,598.028" style="fill:none;stroke:#fff;stroke-linecap:round;stroke-linejoin:round;stroke-width:4px"/><path d="M109.029,612.226a8.954,8.954,0,0,1-.65,1.409" style="fill:none;stroke:#fff;stroke-linecap:round;stroke-linejoin:round;stroke-width:4px"/><path d="M108.22,569.153" style="fill:none;stroke:#fff;stroke-linecap:round;stroke-linejoin:round;stroke-width:4px"/><path d="M105.912,552.285" style="fill:none;stroke:#fff;stroke-linecap:round;stroke-linejoin:round;stroke-width:4px"/><path d="M106.4,525.381a69.72,69.72,0,0,0-1.764,7.508" style="fill:none;stroke:#fff;stroke-linecap:round;stroke-linejoin:round;stroke-width:4px"/><path d="M106.4,525.381" style="fill:none;stroke:#fff;stroke-linecap:round;stroke-linejoin:round;stroke-width:4px"/><path d="M108.338,519.088" style="fill:none;stroke:#fff;stroke-linecap:round;stroke-linejoin:round;stroke-width:4px"/><path d="M115.558,499.979c-2.409,6.228-5.091,12.793-7.22,19.109" style="fill:none;stroke:#fff;stroke-linecap:round;stroke-linejoin:round;stroke-width:4px"/><g style="opacity:0.4"><path d="M156.264,634.9a1.274,1.274,0,0,1-.434.454,9.236,9.236,0,0,1-2.541.965c-4.321,1.177-13.1,1.93-25.394,1.93-.227,0-.651,0-.651,0-.226,0-.451,0-.678,0-13.83,0-23.231-1.034-26.835-2.492a5.051,5.051,0,0,1,.192,1.193c0,2.155,10.076,3.9,27.32,3.9.218,0,.433,0,.65,0,0,0,.407,0,.625,0,17.244,0,27.294-1.746,27.294-3.9a4.6,4.6,0,0,1,.173-1.213A4.411,4.411,0,0,1,156.264,634.9Z" style="fill:#fff"/></g><circle cx="134.723" cy="568.861" r="0.976" style="fill:#fff;opacity:0.6000000000000001"/><circle cx="144.48" cy="622.85" r="1.301" style="fill:#fff;opacity:0.6000000000000001"/><circle cx="137.976" cy="585.123" r="0.976" style="fill:#b71c1c;opacity:0.6000000000000001"/><circle cx="124.316" cy="585.773" r="0.976" style="fill:#b71c1c;opacity:0.6000000000000001"/><circle cx="131.471" cy="597.482" r="1.301" style="fill:#b71c1c;opacity:0.6000000000000001"/><circle cx="120.413" cy="622.85" r="1.301" style="fill:#b71c1c;opacity:0.6000000000000001"/><rect x="110.213" y="451.539" width="35.568" height="9.731" rx="4.406" style="fill:#fafbdb"/><rect x="110.213" y="451.539" width="35.568" height="9.731" rx="4.406" style="fill:none;stroke:#2b2f38;stroke-linecap:round;stroke-linejoin:round;stroke-width:6px"/><path d="M133.648,555.454a3.055,3.055,0,0,1,2.535,4.766,8.443,8.443,0,0,1-13.936,0,3.055,3.055,0,0,1,2.535-4.766Z" style="fill:#283035"/><path d="M131.726,559.675a1.528,1.528,0,0,1,1.436,2.382,5.157,5.157,0,0,1-7.894,0,1.528,1.528,0,0,1,1.436-2.382Z" style="fill:#ffaa47"/><path d="M123.34,471.186a47,47,0,0,0-1.626,10.481" style="fill:none;stroke:#fff;stroke-linecap:round;stroke-linejoin:round;stroke-width:4px"/><circle cx="140.209" cy="551.86" r="3.492" style="fill:#283035"/><circle cx="115.558" cy="551.86" r="3.492" style="fill:#283035"/></svg>