<?xml version="1.0" encoding="utf-8"?>
<!-- Generator: Adobe Illustrator 23.1.1, SVG Export Plug-In . SVG Version: 6.00 Build 0)  -->
<svg version="1.1" id="Layer_1" xmlns="http://www.w3.org/2000/svg" xmlns:xlink="http://www.w3.org/1999/xlink" x="0px" y="0px"
	 viewBox="0 0 1000 1000" style="enable-background:new 0 0 1000 1000;" xml:space="preserve">
<style type="text/css">
	.st0{fill:#2B9CF2;}
	.st1{fill:#FFFFFF;}
	.st2{opacity:0.2;}
	.st3{fill:none;stroke:#4E5A7D;stroke-width:6;stroke-linecap:round;stroke-linejoin:round;stroke-miterlimit:10;}
	.st4{fill:none;stroke:#4E5A7D;stroke-width:12;stroke-linejoin:round;stroke-miterlimit:10;}
	.st5{fill:#4E5A7D;}
	.st6{fill:none;stroke:#328FDB;stroke-width:6;stroke-linecap:round;stroke-linejoin:round;stroke-miterlimit:10;}
	.st7{fill:#328FDB;}
	.st8{fill:#E08484;}
	.st9{fill:#E99697;}
	.st10{fill:#D87171;}
	.st11{fill:none;stroke:#4E5A7D;stroke-width:4;stroke-linecap:round;stroke-linejoin:round;stroke-miterlimit:10;}
	.st12{fill:#596F9E;}
	.st13{fill:#6982B0;}
	.st14{fill:#84BDE1;}
	.st15{fill:#97CCE9;}
	.st16{fill:#BCAFAA;}
	.st17{fill:#D3C8C5;}
	.st18{fill:#E4F2F9;}
	.st19{fill:#C4E8F7;}
	.st20{fill:#D7DADB;}
	.st21{fill:none;stroke:#FFFFFF;stroke-width:2;stroke-linecap:round;stroke-linejoin:round;stroke-miterlimit:10;}
</style>
<rect id="XMLID_133_" class="st0" width="1000" height="1000"/>
<g>
	<g>
		<g>
			<path class="st1" d="M420.9,937.6c1.2,0,2.4-0.7,2.4-2.3c0-1.3-0.8-2.2-2.3-2.2c-1.6,0-2.5,1.1-2.4,2.1v0.1
				C418.7,936.7,419.7,937.6,420.9,937.6z"/>
		</g>
		<g>
			<path class="st1" d="M476.4,941.9c-0.1-0.8,1.2-0.9,1-1.6c-0.1-0.9-0.9-0.9-1.4-0.8c-2.9,0.3-3.5,1.3-3.8,3.2
				c-0.1,1.1,0.6,2.1,1.3,2.9c0.1,1-0.2,2.7-0.5,4.4c-0.3,0.1-0.5,0.3-0.5,0.6c-0.3,1-0.9,3.9-1.8,6.3c-0.3,0.4-0.7,0.9-0.7,1.2
				c0,0.1,0,0.3,0,0.3c-0.7,1.2-1.4,2.1-2.2,2.1c-0.4,0-0.5-1-0.5-2.4c0-2.4,1.2-9.1,1.2-10.5c0-1.9,0.3-3.5,0.3-5.1
				c0-0.6-0.5-0.8-1-0.8c-0.5,0-0.7,0.3-1.2,0.3c-1.9,0-2.2,1-2.2,2.6c0,0.6,0,9.9-0.1,11c-0.1,1.9-1.2,4.3-3.3,4.3
				c-1.9,0-2.8-2.6-2.8-5.4c0-2.5,0.5-5.7,0.8-6.8c0.2-0.6,1-3.6,1-4c0-0.7-0.1-0.9-0.9-0.9c-3,0.1-3.6,0.3-4.1,1.9
				c-0.5,1.9-1,5-1,8c0,0.3,0,0.6,0,0.8c-0.7,2.2-1.5,4.7-3.5,4.8c-1.4,0.1-1.8-3.4-1.8-6.9c0-7.1,2-13.9,2.3-21
				c0.1-0.6-0.4-1.1-1.2-1.1c-1,0.1-1.4,0.1-1.8,0.1c-0.8,0-1.1,0.3-1.2,1.1c-0.7,7.1-2.1,15.7-2.1,22.6c0,0.1,0,0.1,0,0.1
				c-0.7,2.3-1.5,5.2-3.7,5.3c-1.4,0.1-1.8-3.4-1.8-6.9c0-7.1,2-13.9,2.3-21c0.1-0.6-0.4-1.1-1.2-1.1c-1,0-1.4-0.1-1.9-0.1
				c-0.8,0-1.1,0.3-1.2,1.1c-0.7,7.1-2.1,15.7-2.1,22.6c0,0.1,0,0.1,0,0.1c-0.7,2.3-1.5,5.2-3.7,5.3c-1.4,0.1-1.8-3.4-1.8-6.9
				c0-7.1,2-13.9,2.3-21c0.1-0.6-0.4-1.1-1.2-1.1c-1.1,0-1.4-0.1-2-0.1c-0.8,0-1.1,0.3-1.2,1.1c-0.7,7.1-2.1,15.7-2.1,22.6
				c0,0.3,0,0.6,0,1c-0.7,2.3-1.6,4.7-2.9,4.7c-0.6-0.1-1-0.9-1-2.9c0-3.6,0.3-8.5,0.7-12.2c0.1-0.5-0.1-0.9-0.7-0.9
				c-0.5-0.1-1.9-0.2-2.4-0.2c-0.8,0-1.1,0.5-1.1,1.3v1.3c0.1,4.3-0.4,7.8-0.4,11.9c0,2.9,1.6,4.9,3.5,4.9c2.1,0,3.7-1.7,4.8-3.8
				c0.6,2.2,1.7,4.1,3.9,4.1c2.1,0,4.1-2.3,5.5-4.8c0.5,2.5,1.6,4.8,4.1,4.8c2.1,0,4.1-2.3,5.5-4.8c0.5,2.5,1.6,4.8,4.1,4.8
				c2,0,4.1-2.2,5.4-4.6c0.7,2.9,2.4,5.1,5.4,5.1c2.6,0,3.3-1,4.9-3.4c0.5,1.3,0.7,3.8,2.2,3.8c2.1,0,3.9-2.4,5-5.1
				c1.2,2.1,4.3,3.6,6.5,3.6c3.5,0,6.5-2.5,6.3-6.4C484.7,950.4,477,944.8,476.4,941.9z M477.3,959.3c-1,0-2.7-0.6-2.7-2
				c-0.1-0.8,1.8-1.2,2.4-1.6c0.5-0.3,0.7-0.6,0.7-0.8c-0.1-0.5-0.7-0.8-1.4-0.8c-0.6,0-1.4,0.2-2.4,0.8c0.2-0.9,1.6-5.6,1.9-7.8
				c2.6,1.9,4.9,6.2,5.2,9.3C481.1,959,478.2,959.3,477.3,959.3z"/>
		</g>
		<g>
			<path class="st1" d="M536,937.6c1.2,0,2.4-0.7,2.4-2.3c0-1.3-0.8-2.2-2.3-2.2c-1.6,0-2.5,1.1-2.4,2.1v0.1
				C533.7,936.7,534.8,937.6,536,937.6z"/>
		</g>
		<g>
			<path class="st1" d="M573.8,963.1c-1.2-0.8-2-2-1.8-7.1c0.1-3.2,0.8-7.7,0.8-10.9c0-1.4-0.7-3-2.5-3c-2.3,0-5.6,4.7-6.7,6.7
				c0.1-1.2,0.5-4.9,0.6-6.1c0.1-1.2,0.1-1.3-2.1-1.3c-1.4,0-1.6,0.3-1.6,0.8c0,3-0.3,6.4-0.5,9.9c-0.8,1.7-1.8,3.4-3.3,3.4
				c-0.5,0-0.9-0.1-1.3-0.3c0.7-1,1.1-3.2,1.1-4.3c0-1.8-1.3-3.2-3.1-3.2c-2.4,0-3.9,1.7-3.9,4c0,1.8,1.9,3.9,3.3,4.9
				c-0.9,1.7-2.6,2.7-4.5,2.7c-2.8,0-3.8-5.1-3.8-7c0-3.6,1.3-7.7,5.6-7.7c2.9,0,2.9,1.9,4.2,1.9c0.1,0,0.5-0.2,0.5-0.4
				c0-2.1-3.4-3.9-5.2-3.9c-6,0-10.2,4.7-10.2,10.6c0,1.2,0.2,2.4,0.6,3.6c-0.6,1.5-1.3,2.7-2.2,2.7c-0.6,0-1-0.8-1-2.8
				c0-3.6,0.3-8.5,0.7-12.2c0.1-0.5-0.1-0.9-0.7-0.9c-0.5-0.1-1.9-0.2-2.4-0.2c-0.8,0-1.1,0.5-1.1,1.3v1.3c0,2.3-0.1,4.2-0.2,6.2
				c-0.1,0.1-0.1,0.2-0.2,0.3c-0.7,1.9-1.6,7.3-3.8,7.3c-0.7,0-2-0.9-2-3.4c0-4.1,1.4-12.2,1.6-13.7c2.1-0.5,3.9-0.3,6.4-1
				c1.1-0.3,0.5-1.6-0.8-1.5c-0.7,0.1-2.7,0.2-5.4,0c0.1-2.1,0.6-3.5,0.6-5.7v-0.2c0-0.6-0.3-1-0.9-1c-1.2,0-3,0.4-3,2
				c0,1.7-0.3,3.2-0.3,4.9c-1.2,0.1-2.2-0.3-3.4-0.3c-0.9,0-1,1.6-1,2.1c0,0.6,0.1,1.1,0.5,1.1c1.6,0,3.1-0.3,3.7-0.3
				c-0.3,4.3-0.9,6.7-1.2,9.7c0,0.2-0.1,0.5-0.1,0.7c-0.7,2.3-2.1,5.8-3.2,5.8c-0.5,0-1.1-0.7-1.1-1.2c0-3.2,0.3-7.1,1.2-10.3
				c0.2-0.6,0.7-1.8,0.7-2.5c0-0.8-1.4-1.3-2.1-1.3c-1.2,0-1.1,0.6-1.6,1.7c-0.9-0.6-1-1.8-3.3-1.8c-4.2,0-6.7,6.7-6.7,11
				c0,0.7-0.1,1.1-0.1,1.5c0,2.4-1.4,5.4-2.8,5.4c-1.2,0-1.6-3.4-1.6-4.8c0-2,0.9-6.5,1.7-8.4c0.3-0.7,0.9-1.5,0.9-2.3
				c0-0.9-1-2.4-2.1-2.4c-1.2,0-1.9,0.6-3.1,0.6c-2,0-3.3-1.2-4.4-1.2c-0.7,0-1.1,0.5-1.1,1.1c0,1.7,1.9,1.4,1.4,3.6
				c-0.5,2.1-1.8,7.7-2.6,9.9c-0.1,0.1-0.1,0.2-0.1,0.3c0,0.3,0.1,0.5,0.1,0.6c-0.5,0.8-1,1.3-1.6,1.3c-0.7,0-2-0.9-2-3.4
				c0-4.1,1.4-12.2,1.6-13.7c2.1-0.5,3.9-0.3,6.4-1c1.1-0.3,0.5-1.6-0.8-1.5c-0.7,0.1-2.7,0.2-5.4,0c0.1-2.1,0.6-3.5,0.6-5.7
				c0-0.6-0.3-1-0.9-1c-1.2,0-3,0.4-3,2c0,1.7-0.3,3.2-0.3,4.9c-1.2,0.1-2.2-0.3-3.4-0.3c-0.9,0-1,1.6-1,2.1c0,0.6,0.1,1.1,0.5,1.1
				c1.6,0,3.1-0.3,3.7-0.3c-0.3,4.3-0.9,6.7-1.2,9.7c-0.2,1.6-0.5,4-0.5,5.6c0,2.8,2.4,5.1,4.4,5.1c3.6,0,6.5-7.3,6.5-10.2
				c0-0.1,0-0.3,0-0.4c0.4-1.7,0.7-3.5,1-5c0.1-0.2,0.3-0.8,0.8-0.8c1.2,0,1.3,0.8,1.3,1.8c0,2.4-0.9,6.7-0.9,9.2
				c0,2.5,0.7,5.5,3.5,5.5c2.4,0,4.4-1.6,5.5-3.6c0.8,1.9,2.1,3.4,3.9,3.4c1.8,0,3.3-1.3,4.3-2.5c0.3,0.6,0.7,2.4,2.6,2.4
				c1.8,0,3.1-1.5,4.2-3.4c0.6,2.2,2.6,3.8,4.3,3.8c2,0,3.9-2.4,5.1-5c0.1,2.7,1.6,4.5,3.5,4.5c2,0,3.6-1.6,4.7-3.5
				c1.2,2,3.2,3.4,5.8,3.4c3.6,0,5.8-2.3,7.7-5.1c0.7,0.1,1.2,0.3,1.8,0.3c1.2,0,2.5-0.8,3.5-2c-0.1,2.1-0.3,4.1-0.3,5.9
				c0,0.6,0.1,0.9,0.6,1c0.5,0.2,1.3,0.1,1.8,0.1c0.7,0,0.8,0.1,0.9-0.8c0.1-0.6,0.5-7.5,0.5-8c0-1.4,3.5-7.5,5.2-7.5
				c0.3,0,0.6,0.6,0.6,1c0,3.1-1,8.2-1,11.4c0,3.4,1.7,4.6,2.4,5c0.5,0.3,2,0.8,2.8,0.7C573.8,963.8,574.2,963.4,573.8,963.1z
				 M516.3,956.5c-0.1,0.9-1.7,3.2-2.9,3.2c-1.4,0-2-3.9-1.9-6.5c0.1-3,1.6-8.5,3-8.5c1.9,0,2.2,4.5,2.2,6
				C516.7,952.4,516.5,954.9,516.3,956.5z M553.9,954.4c-0.9-0.5-1.4-2.1-1.4-3.1c0-0.6,0.2-1.9,1-1.9c0.8,0,1,1.4,1,2
				C554.6,952.2,554.1,953.7,553.9,954.4z"/>
		</g>
		<g>
			<path class="st1" d="M588.8,955.5c-0.3-5.1-8.1-10.7-8.6-13.6c-0.1-0.8,1.2-0.9,1-1.6c-0.1-0.9-0.9-0.9-1.4-0.8
				c-2.9,0.3-3.5,1.3-3.8,3.2c-0.1,1.1,0.6,2.1,1.3,2.9c0.1,2.3-1.2,8.6-2.6,11c-0.3,0.5-0.8,1.1-0.9,1.5c-0.1,0.8,0.5,1.2,1,0.6
				c0.5-0.4,0.4-0.6,0.9-1c1,2.4,4.3,4.1,6.8,4.1C586.1,961.8,589,959.3,588.8,955.5z M581.1,959.3c-1,0-2.7-0.6-2.7-2
				c-0.1-0.8,1.8-1.2,2.4-1.6c0.5-0.3,0.7-0.6,0.7-0.8c-0.1-0.5-0.7-0.8-1.4-0.8c-0.6,0-1.4,0.2-2.4,0.8c0.2-0.9,1.6-5.6,1.9-7.8
				c2.6,1.9,4.9,6.2,5.2,9.3C584.8,959,582,959.3,581.1,959.3z"/>
		</g>
	</g>
	<g>
		<g>
			<g>
				<g>
					<g>
						<path class="st1" d="M63.2,959.2c0,2.5-1.2,3.7-2.6,3.7c-1.1,0-1.9-0.5-2.1-1.4c-0.4,0.5-1,0.8-1.8,0.8
							c-1.5,0-2.6-1.2-2.6-2.8c0-1.6,1.1-2.8,2.6-2.8c0.7,0,1.2,0.3,1.6,0.7v-0.5h1.6v3.9c0,0.8,0.3,1.4,1,1.4c0.9,0,1.7-0.9,1.7-3
							c0-3-2.3-5.3-5.4-5.3c-3.1,0-5.6,2.4-5.6,5.7c0,3.3,2.5,5.7,5.9,5.7c1.1,0,2.1-0.2,2.9-0.4v0.6c-0.8,0.3-1.7,0.4-2.9,0.4
							c-3.7,0-6.5-2.6-6.5-6.2c0-3.4,2.7-6.2,6.2-6.2C61.1,953.3,63.2,956.4,63.2,959.2z M58.3,959.5c0-0.8-0.6-1.4-1.3-1.4
							c-0.8,0-1.3,0.5-1.3,1.4c0,0.8,0.6,1.3,1.3,1.3C57.8,960.9,58.3,960.3,58.3,959.5z"/>
					</g>
				</g>
				<g>
					<g>
						<path class="st1" d="M69.4,955.1v2c-1.2-0.1-2.6,0.5-2.6,2.4v4.3h-1.9v-8.6h1.9v1.4C67.3,955.5,68.3,955.1,69.4,955.1z"/>
					</g>
				</g>
				<g>
					<g>
						<path class="st1" d="M74.6,962.3c1,0,1.8-0.5,2.2-1.1l1.5,0.9c-0.8,1.2-2.1,1.9-3.8,1.9c-2.8,0-4.7-1.9-4.7-4.5
							c0-2.5,1.8-4.5,4.5-4.5c2.6,0,4.3,2.1,4.3,4.5c0,0.3,0,0.5-0.1,0.8h-6.8C72.1,961.6,73.2,962.3,74.6,962.3z M76.9,958.8
							c-0.3-1.5-1.3-2.1-2.5-2.1c-1.4,0-2.3,0.8-2.6,2.1H76.9z"/>
					</g>
				</g>
				<g>
					<g>
						<path class="st1" d="M88.9,955.2v8.6h-1.9v-1.2c-0.7,0.9-1.7,1.5-3,1.5c-2.3,0-4.3-2-4.3-4.5c0-2.6,1.9-4.5,4.3-4.5
							c1.3,0,2.3,0.5,3,1.4v-1.2H88.9z M87.1,959.5c0-1.6-1.2-2.7-2.7-2.7c-1.5,0-2.7,1.1-2.7,2.7c0,1.6,1.2,2.7,2.7,2.7
							C85.9,962.3,87.1,961.1,87.1,959.5z"/>
					</g>
				</g>
				<g>
					<g>
						<path class="st1" d="M91.1,951.3H93v12.5h-1.9V951.3z"/>
					</g>
				</g>
				<g>
					<g>
						<path class="st1" d="M102.9,955.2l-3.3,8.6h-2.1l-3.3-8.6h2l2.4,6.5l2.4-6.5H102.9z"/>
					</g>
				</g>
				<g>
					<g>
						<path class="st1" d="M104.2,955.2h1.9v8.9c0,2.4-1.2,3.5-3.5,3.3v-1.8c1.1,0.1,1.7-0.3,1.7-1.5V955.2z M104,952.8
							c0-0.7,0.5-1.2,1.2-1.2c0.7,0,1.2,0.5,1.2,1.2c0,0.6-0.5,1.2-1.2,1.2C104.5,954,104,953.4,104,952.8z"/>
					</g>
				</g>
				<g>
					<g>
						<path class="st1" d="M116,955.2l-3.3,8.8c-0.8,2.2-2.2,3.3-4.2,3.2v-1.7c1.2,0.1,1.9-0.5,2.3-1.7l0.1-0.2l-3.6-8.4h2l2.6,6.2
							l2.2-6.2H116z"/>
					</g>
				</g>
			</g>
			<g>
				<g>
					<path class="st1" d="M58.9,938.7c0,2.1-1.5,3.8-3.6,3.8h-3v-7.6h3C57.4,934.9,58.9,936.6,58.9,938.7z M57.9,938.7
						c0-1.6-1.1-2.9-2.6-2.9h-2v5.7h2C56.8,941.6,57.9,940.3,57.9,938.7z"/>
				</g>
				<g>
					<path class="st1" d="M67,941.6v1h-4.6v-7.6h4.5v1h-3.5v2.3h3.2v0.9h-3.2v2.4H67z"/>
				</g>
				<g>
					<path class="st1" d="M70,940.8l0.9-0.5c0.3,0.8,0.9,1.4,2,1.4c1.1,0,1.6-0.5,1.6-1.2c0-0.8-0.7-1-1.8-1.4
						c-1.2-0.4-2.4-0.8-2.4-2.2c0-1.4,1.1-2.2,2.4-2.2c1.3,0,2.2,0.7,2.6,1.7l-0.8,0.5c-0.3-0.7-0.8-1.2-1.7-1.2
						c-0.8,0-1.4,0.4-1.4,1.1c0,0.7,0.5,1,1.6,1.3c1.3,0.4,2.6,0.8,2.6,2.3c0,1.3-1.1,2.2-2.6,2.2C71.5,942.7,70.4,941.9,70,940.8z"
						/>
				</g>
				<g>
					<path class="st1" d="M80,934.9v7.6h-1v-7.6H80z"/>
				</g>
				<g>
					<path class="st1" d="M91.3,939.2c0,1.9-1.4,3.5-3.7,3.5c-2.4,0-4-1.8-4-4c0-2.2,1.7-4,4-4c1.4,0,2.7,0.8,3.3,1.8l-0.9,0.5
						c-0.4-0.8-1.4-1.4-2.4-1.4c-1.8,0-3,1.3-3,3c0,1.7,1.2,3,3,3c1.6,0,2.5-0.9,2.7-2h-2.8v-0.9h3.8V939.2z"/>
				</g>
				<g>
					<path class="st1" d="M100.6,934.9v7.6h-0.8l-3.9-5.7v5.7h-1v-7.6h0.8l3.9,5.7v-5.7H100.6z"/>
				</g>
				<g>
					<path class="st1" d="M109.1,941.6v1h-4.6v-7.6h4.5v1h-3.5v2.3h3.2v0.9h-3.2v2.4H109.1z"/>
				</g>
				<g>
					<path class="st1" d="M119.2,938.7c0,2.1-1.5,3.8-3.6,3.8h-3v-7.6h3C117.6,934.9,119.2,936.6,119.2,938.7z M118.2,938.7
						c0-1.6-1.1-2.9-2.6-2.9h-2v5.7h2C117.1,941.6,118.2,940.3,118.2,938.7z"/>
				</g>
				<g>
					<path class="st1" d="M133.2,940.4c0,1.2-1,2.2-2.2,2.2h-3.3v-7.6h3c1.2,0,2.1,0.9,2.1,2.1c0,0.7-0.3,1.2-0.8,1.6
						C132.7,938.9,133.2,939.5,133.2,940.4z M128.7,935.8v2.3h2c0.6,0,1.1-0.5,1.1-1.2c0-0.6-0.5-1.2-1.1-1.2H128.7z M132.2,940.3
						c0-0.7-0.5-1.2-1.2-1.2h-2.3v2.5h2.3C131.7,941.6,132.2,941,132.2,940.3z"/>
				</g>
				<g>
					<path class="st1" d="M139.4,939.4v3.1h-1v-3.1l-2.7-4.5h1.1l2.1,3.6l2.1-3.6h1.1L139.4,939.4z"/>
				</g>
			</g>
			<g>
				<g>
					<g>
						<g>
							<path class="st1" d="M846.1,938.7c0,2.1-1.5,3.8-3.6,3.8h-3v-7.6h3C844.6,934.9,846.1,936.6,846.1,938.7z M845.2,938.7
								c0-1.6-1.1-2.9-2.6-2.9h-2v5.7h2C844.1,941.6,845.2,940.3,845.2,938.7z"/>
						</g>
					</g>
					<g>
						<g>
							<path class="st1" d="M849.3,938.7c0-2.2,1.7-4,3.9-4c2.2,0,4,1.8,4,4c0,2.2-1.7,4-4,4C851,942.7,849.3,940.9,849.3,938.7z
								 M856.1,938.7c0-1.7-1.3-3-2.9-3c-1.7,0-2.9,1.3-2.9,3c0,1.7,1.3,3,2.9,3C854.9,941.7,856.1,940.4,856.1,938.7z"/>
						</g>
					</g>
					<g>
						<g>
							<path class="st1" d="M859.8,934.9h1.1l1.7,6.3l1.9-6.3h1l1.9,6.3l1.7-6.3h1.1l-2.2,7.6h-1.2l-1.8-6.1l-1.8,6.1H862
								L859.8,934.9z"/>
						</g>
					</g>
					<g>
						<g>
							<path class="st1" d="M879.3,934.9v7.6h-0.8l-3.9-5.7v5.7h-1v-7.6h0.8l3.9,5.7v-5.7H879.3z"/>
						</g>
					</g>
					<g>
						<g>
							<path class="st1" d="M887.5,941.6v1h-4.3v-7.6h1v6.7H887.5z"/>
						</g>
					</g>
					<g>
						<g>
							<path class="st1" d="M889.9,938.7c0-2.2,1.7-4,3.9-4c2.2,0,4,1.8,4,4c0,2.2-1.7,4-4,4C891.6,942.7,889.9,940.9,889.9,938.7z
								 M896.8,938.7c0-1.7-1.3-3-2.9-3c-1.7,0-2.9,1.3-2.9,3c0,1.7,1.3,3,2.9,3C895.5,941.7,896.8,940.4,896.8,938.7z"/>
						</g>
					</g>
					<g>
						<g>
							<path class="st1" d="M905.4,940.8H902l-0.6,1.7h-1.1l2.8-7.6h1.1l2.8,7.6H906L905.4,940.8z M905.1,939.9l-1.4-3.8l-1.4,3.8
								H905.1z"/>
						</g>
					</g>
					<g>
						<g>
							<path class="st1" d="M916.9,938.7c0,2.1-1.5,3.8-3.6,3.8h-3v-7.6h3C915.4,934.9,916.9,936.6,916.9,938.7z M915.9,938.7
								c0-1.6-1.1-2.9-2.6-2.9h-2v5.7h2C914.9,941.6,915.9,940.3,915.9,938.7z"/>
						</g>
					</g>
					<g>
						<g>
							<path class="st1" d="M926.5,935.8v2.5h3.2v1h-3.2v3.2h-1v-7.6h4.4v1H926.5z"/>
						</g>
					</g>
					<g>
						<g>
							<path class="st1" d="M936.2,939.6h-1.8v2.9h-1v-7.6h3c1.3,0,2.4,1.1,2.4,2.4c0,1-0.7,1.9-1.6,2.2l1.8,3.1h-1.1L936.2,939.6z
								 M934.4,938.7h2c0.8,0,1.4-0.6,1.4-1.4c0-0.8-0.6-1.4-1.4-1.4h-2V938.7z"/>
						</g>
					</g>
					<g>
						<g>
							<path class="st1" d="M941.9,938.7c0-2.2,1.7-4,3.9-4c2.2,0,4,1.8,4,4c0,2.2-1.7,4-4,4C943.6,942.7,941.9,940.9,941.9,938.7z
								 M948.8,938.7c0-1.7-1.3-3-2.9-3c-1.7,0-2.9,1.3-2.9,3c0,1.7,1.3,3,2.9,3C947.5,941.7,948.8,940.4,948.8,938.7z"/>
						</g>
					</g>
					<g>
						<g>
							<path class="st1" d="M960.4,942.5h-1v-6l-2.5,4.2h-0.1l-2.5-4.1v5.9h-1v-7.6h1.1l2.4,4l2.4-4h1.1V942.5z"/>
						</g>
					</g>
				</g>
				<g>
					<g>
						<g>
							<path class="st1" d="M839.3,952.9c0-0.7,0.5-1.2,1.2-1.2c0.7,0,1.2,0.5,1.2,1.2c0,0.7-0.5,1.2-1.2,1.2
								C839.9,954.1,839.3,953.6,839.3,952.9z M839.6,955.4h1.9v8.9h-1.9V955.4z"/>
						</g>
					</g>
					<g>
						<g>
							<path class="st1" d="M843.7,951.4h1.9v12.9h-1.9V951.4z"/>
						</g>
					</g>
					<g>
						<g>
							<path class="st1" d="M847.8,951.4h1.9v12.9h-1.9V951.4z"/>
						</g>
					</g>
					<g>
						<g>
							<path class="st1" d="M852,951.4h1.9v12.9H852V951.4z"/>
						</g>
					</g>
					<g>
						<g>
							<path class="st1" d="M864,955.4v8.9h-1.9v-1.1c-0.6,0.9-1.5,1.4-2.7,1.4c-2,0-3.4-1.3-3.4-3.6v-5.4h1.9v5.2
								c0,1.3,0.8,2.1,2,2.1c1.3,0,2.2-0.7,2.2-2.5v-4.7H864z"/>
						</g>
					</g>
					<g>
						<g>
							<path class="st1" d="M872.6,961.8c0,1.8-1.5,2.7-3.5,2.7c-1.8,0-3-0.8-3.6-2.1l1.6-1c0.3,0.8,1,1.3,2,1.3
								c0.8,0,1.5-0.3,1.5-1c0-1.6-4.8-0.7-4.8-3.9c0-1.7,1.4-2.7,3.2-2.7c1.5,0,2.7,0.7,3.3,1.8l-1.6,0.9c-0.3-0.7-0.9-1-1.7-1
								c-0.7,0-1.3,0.3-1.3,0.9C867.9,959.5,872.6,958.5,872.6,961.8z"/>
						</g>
					</g>
					<g>
						<g>
							<path class="st1" d="M876.7,957.3v4.2c0,1.1,0.7,1.1,2.2,1v1.7c-2.9,0.4-4.1-0.5-4.1-2.8v-4.2h-1.6v-1.8h1.6v-1.9l1.9-0.6
								v2.5h2.2v1.8H876.7z"/>
						</g>
					</g>
					<g>
						<g>
							<path class="st1" d="M885.4,955.3v2.1c-1.3-0.1-2.7,0.5-2.7,2.5v4.5h-1.9v-8.9h1.9v1.5C883.2,955.7,884.2,955.3,885.4,955.3z
								"/>
						</g>
					</g>
					<g>
						<g>
							<path class="st1" d="M895.3,955.4v8.9h-1.9V963c-0.7,0.9-1.7,1.5-3.1,1.5c-2.4,0-4.4-2-4.4-4.7c0-2.6,2-4.7,4.4-4.7
								c1.4,0,2.4,0.6,3.1,1.5v-1.3H895.3z M893.4,959.9c0-1.6-1.2-2.8-2.8-2.8c-1.6,0-2.8,1.2-2.8,2.8c0,1.6,1.2,2.8,2.8,2.8
								C892.2,962.7,893.4,961.5,893.4,959.9z"/>
						</g>
					</g>
					<g>
						<g>
							<path class="st1" d="M900.3,957.3v4.2c0,1.1,0.7,1.1,2.2,1v1.7c-2.9,0.4-4.1-0.5-4.1-2.8v-4.2h-1.6v-1.8h1.6v-1.9l1.9-0.6
								v2.5h2.2v1.8H900.3z"/>
						</g>
					</g>
					<g>
						<g>
							<path class="st1" d="M903.9,952.9c0-0.7,0.5-1.2,1.2-1.2c0.7,0,1.2,0.5,1.2,1.2c0,0.7-0.5,1.2-1.2,1.2
								C904.5,954.1,903.9,953.6,903.9,952.9z M904.2,955.4h1.9v8.9h-1.9V955.4z"/>
						</g>
					</g>
					<g>
						<g>
							<path class="st1" d="M907.8,959.9c0-2.6,2.1-4.7,4.7-4.7c2.6,0,4.7,2,4.7,4.7c0,2.6-2.1,4.7-4.7,4.7
								C909.9,964.5,907.8,962.5,907.8,959.9z M915.3,959.9c0-1.6-1.2-2.8-2.8-2.8c-1.6,0-2.8,1.2-2.8,2.8c0,1.6,1.2,2.8,2.8,2.8
								C914.1,962.7,915.3,961.5,915.3,959.9z"/>
						</g>
					</g>
					<g>
						<g>
							<path class="st1" d="M927,958.9v5.4h-1.9v-5.2c0-1.3-0.8-2.1-2-2.1c-1.3,0-2.2,0.7-2.2,2.5v4.7h-1.9v-8.9h1.9v1.1
								c0.6-0.9,1.5-1.4,2.7-1.4C925.5,955.2,927,956.6,927,958.9z"/>
						</g>
					</g>
					<g>
						<g>
							<path class="st1" d="M935.5,961.8c0,1.8-1.5,2.7-3.5,2.7c-1.8,0-3-0.8-3.6-2.1l1.6-1c0.3,0.8,1,1.3,2,1.3
								c0.8,0,1.5-0.3,1.5-1c0-1.6-4.8-0.7-4.8-3.9c0-1.7,1.4-2.7,3.2-2.7c1.5,0,2.7,0.7,3.3,1.8l-1.6,0.9c-0.3-0.7-0.9-1-1.7-1
								c-0.7,0-1.3,0.3-1.3,0.9C930.7,959.5,935.5,958.5,935.5,961.8z"/>
						</g>
					</g>
					<g>
						<g>
							<path class="st1" d="M936.8,963.2c0-0.7,0.6-1.3,1.3-1.3c0.7,0,1.3,0.6,1.3,1.3c0,0.7-0.6,1.3-1.3,1.3
								C937.4,964.5,936.8,963.9,936.8,963.2z"/>
						</g>
					</g>
					<g>
						<g>
							<path class="st1" d="M940.3,959.9c0-2.6,2-4.7,4.7-4.7c1.7,0,3.2,0.9,3.9,2.3l-1.6,1c-0.4-0.8-1.3-1.4-2.3-1.4
								c-1.6,0-2.7,1.2-2.7,2.8c0,1.6,1.2,2.8,2.7,2.8c1.1,0,1.9-0.5,2.4-1.4l1.6,0.9c-0.7,1.4-2.2,2.3-4,2.3
								C942.3,964.5,940.3,962.5,940.3,959.9z"/>
						</g>
					</g>
					<g>
						<g>
							<path class="st1" d="M949.7,959.9c0-2.6,2.1-4.7,4.7-4.7c2.6,0,4.7,2,4.7,4.7c0,2.6-2.1,4.7-4.7,4.7
								C951.8,964.5,949.7,962.5,949.7,959.9z M957.2,959.9c0-1.6-1.2-2.8-2.8-2.8s-2.8,1.2-2.8,2.8c0,1.6,1.2,2.8,2.8,2.8
								S957.2,961.5,957.2,959.9z"/>
						</g>
					</g>
				</g>
			</g>
		</g>
		<g>
			<g>
				<path class="st1" d="M211.1,934.8v7.7h-0.8l-4-5.8v5.8h-1v-7.7h0.8l4,5.7v-5.7H211.1z"/>
				<path class="st1" d="M219.6,941.5v1H215v-7.7h4.5v1H216v2.4h3.2v1H216v2.4H219.6z"/>
				<path class="st1" d="M222.4,934.8h1.1l1.8,6.3l1.9-6.3h1l1.9,6.3l1.8-6.3h1.1l-2.2,7.7h-1.2l-1.8-6.1l-1.8,6.1h-1.2L222.4,934.8
					z"/>
				<path class="st1" d="M243.4,934.8v7.7h-1v-6.6l-1.6,0.5l-0.3-0.9l2-0.7H243.4z"/>
				<path class="st1" d="M246.9,938.7c0-2.4,1.1-4,3-4c1.9,0,3,1.6,3,4s-1.1,4-3,4C248,942.7,246.9,941,246.9,938.7z M251.9,938.7
					c0-1.9-0.7-3-2-3s-1.9,1.1-1.9,3s0.7,3,1.9,3S251.9,940.6,251.9,938.7z"/>
				<path class="st1" d="M255.8,941.7l2.7-2.8c0.6-0.6,1.1-1.2,1.1-1.9c0-0.9-0.6-1.4-1.4-1.4c-0.7,0-1.3,0.3-1.6,1l-0.9-0.5
					c0.5-1,1.4-1.5,2.4-1.5c1.2,0,2.4,0.8,2.4,2.4c0,1-0.6,1.8-1.4,2.5l-2,2h3.5v1h-5V941.7z"/>
			</g>
			<g>
				<path class="st1" d="M217.3,958.5c0,3.6-2.5,6-6.1,6c-3.9,0-6.7-2.9-6.7-6.5c0-3.6,2.8-6.5,6.5-6.5c2.4,0,4.4,1.2,5.4,2.9
					l-2.1,1.2c-0.6-1-1.8-1.7-3.3-1.7c-2.4,0-4.1,1.7-4.1,4.1c0,2.3,1.7,4.1,4.2,4.1c2,0,3.2-0.9,3.6-2.4h-3.8v-2.2h6.2V958.5z"/>
				<path class="st1" d="M227,955.3l-3.2,8.9c-0.9,2.6-2.4,3.7-4.7,3.6v-2.1c1.3,0,1.9-0.5,2.3-1.7l-3.6-8.6h2.5l2.3,6l2-6H227z"/>
				<path class="st1" d="M241.3,958.7v5.5H239v-5.3c0-1-0.5-1.7-1.5-1.7c-1,0-1.7,0.7-1.7,2v5h-2.3v-5.3c0-1-0.5-1.7-1.5-1.7
					c-1,0-1.7,0.7-1.7,2v5h-2.3v-8.9h2.3v0.9c0.5-0.7,1.3-1.2,2.5-1.2c1.1,0,1.9,0.5,2.4,1.3c0.6-0.8,1.4-1.3,2.6-1.3
					C239.9,955.1,241.3,956.5,241.3,958.7z"/>
				<path class="st1" d="M247.2,958c0-3.6,2.7-6.5,6.5-6.5c2.3,0,4.3,1.2,5.4,2.9l-2.1,1.2c-0.6-1.1-1.8-1.8-3.2-1.8
					c-2.4,0-4,1.7-4,4.1c0,2.4,1.6,4.1,4,4.1c1.4,0,2.6-0.7,3.2-1.8l2.1,1.2c-1,1.8-3.1,2.9-5.4,2.9
					C249.9,964.5,247.2,961.6,247.2,958z"/>
				<path class="st1" d="M268.8,955.3l-3.2,8.9c-0.9,2.6-2.4,3.7-4.7,3.6v-2.1c1.3,0,1.9-0.5,2.3-1.7l-3.6-8.6h2.5l2.3,6l2-6H268.8z
					"/>
				<path class="st1" d="M269.1,959.8c0-2.6,2-4.7,4.7-4.7c1.7,0,3.3,0.9,4,2.3l-2,1.2c-0.4-0.7-1.1-1.2-2-1.2c-1.4,0-2.4,1-2.4,2.4
					c0,1.4,1,2.4,2.4,2.4c0.9,0,1.7-0.4,2-1.2l2,1.1c-0.8,1.4-2.3,2.3-4,2.3C271.1,964.5,269.1,962.4,269.1,959.8z"/>
				<path class="st1" d="M279,951.2h2.3v13H279V951.2z"/>
				<path class="st1" d="M287.9,962.4c0.9,0,1.6-0.4,2-0.9l1.8,1.1c-0.8,1.2-2.2,1.9-3.9,1.9c-3,0-4.9-2-4.9-4.7s1.9-4.7,4.7-4.7
					c2.6,0,4.5,2.1,4.5,4.7c0,0.3,0,0.6-0.1,0.9h-6.7C285.7,961.9,286.6,962.4,287.9,962.4z M289.8,958.9c-0.3-1.3-1.2-1.8-2.2-1.8
					c-1.2,0-2.1,0.7-2.3,1.8H289.8z"/>
			</g>
		</g>
	</g>
</g>
<g id="XMLID_138_" class="st2">
	<g id="XMLID_135_">
		<g id="XMLID_122_">
			<path id="XMLID_112_" class="st3" d="M125.1,809.6L125.1,809.6c7.2-2.9,10.7-11.1,7.8-18.3l-25-62.4c-2.9-7.2-11.1-10.7-18.3-7.8
				h0c-7.2,2.9-10.7,11.1-7.8,18.3l25,62.4C109.7,809,117.9,812.5,125.1,809.6z"/>
			<path id="XMLID_111_" class="st3" d="M96.6,799L96.6,799c4.3-1.7,6.4-6.7,4.7-11l-14-34.9c-1.7-4.3-6.7-6.4-11-4.7l0,0
				c-4.3,1.7-6.4,6.7-4.7,11l14,34.9C87.3,798.6,92.2,800.7,96.6,799z"/>
		</g>
		<g id="XMLID_110_">
			<path id="XMLID_128_" class="st3" d="M205.4,777.4L205.4,777.4c-7.2,2.9-15.4-0.6-18.3-7.8l-25-62.4c-2.9-7.2,0.6-15.4,7.8-18.3
				h0c7.2-2.9,15.4,0.6,18.3,7.8l25,62.4C216.1,766.3,212.6,774.5,205.4,777.4z"/>
			<path id="XMLID_125_" class="st3" d="M218.7,750.1L218.7,750.1c-4.3,1.7-9.3-0.4-11-4.7l-14-34.9c-1.7-4.3,0.4-9.3,4.7-11h0
				c4.3-1.7,9.3,0.4,11,4.7l14,34.9C225.2,743.4,223.1,748.3,218.7,750.1z"/>
		</g>
		
			<rect id="XMLID_86_" x="118.2" y="738.5" transform="matrix(0.9283 -0.3719 0.3719 0.9283 -267.8543 108.4743)" class="st3" width="58.2" height="20.2"/>
	</g>
	<g id="XMLID_145_">
		<g id="XMLID_82_">
			<path id="XMLID_85_" class="st0" d="M180.8,847.3L180.8,847.3c7.8,0,14.1-6.3,14.1-14.1V766c0-7.8-6.3-14.1-14.1-14.1h0
				c-7.8,0-14.1,6.3-14.1,14.1v67.3C166.7,841,173,847.3,180.8,847.3z"/>
			<path id="XMLID_84_" class="st0" d="M158.3,826.9L158.3,826.9c4.7,0,8.5-3.8,8.5-8.5v-37.6c0-4.7-3.8-8.5-8.5-8.5h0
				c-4.7,0-8.5,3.8-8.5,8.5v37.6C149.8,823.1,153.6,826.9,158.3,826.9z"/>
		</g>
		<g id="XMLID_239_">
			<path id="XMLID_241_" class="st3" d="M180.8,847.3L180.8,847.3c7.8,0,14.1-6.3,14.1-14.1V766c0-7.8-6.3-14.1-14.1-14.1h0
				c-7.8,0-14.1,6.3-14.1,14.1v67.3C166.7,841,173,847.3,180.8,847.3z"/>
			<path id="XMLID_240_" class="st3" d="M158.3,826.9L158.3,826.9c4.7,0,8.5-3.8,8.5-8.5v-37.6c0-4.7-3.8-8.5-8.5-8.5h0
				c-4.7,0-8.5,3.8-8.5,8.5v37.6C149.8,823.1,153.6,826.9,158.3,826.9z"/>
		</g>
		<g id="XMLID_176_">
			<path id="XMLID_234_" class="st3" d="M267.3,847.3L267.3,847.3c-7.8,0-14.1-6.3-14.1-14.1V766c0-7.8,6.3-14.1,14.1-14.1h0
				c7.8,0,14.1,6.3,14.1,14.1v67.3C281.4,841,275.1,847.3,267.3,847.3z"/>
			<path id="XMLID_178_" class="st3" d="M289.9,826.9L289.9,826.9c-4.7,0-8.5-3.8-8.5-8.5v-37.6c0-4.7,3.8-8.5,8.5-8.5h0
				c4.7,0,8.5,3.8,8.5,8.5v37.6C298.3,823.1,294.5,826.9,289.9,826.9z"/>
		</g>
		<rect id="XMLID_146_" x="194.9" y="788.9" class="st3" width="58.2" height="20.2"/>
	</g>
</g>
<g id="XMLID_70_" class="st2">
	<line id="XMLID_272_" class="st4" x1="766.8" y1="301.6" x2="766.8" y2="585.1"/>
	<rect id="XMLID_273_" x="750.1" y="607.8" class="st5" width="37.9" height="143"/>
	<rect id="XMLID_93_" x="668.2" y="301.6" class="st3" width="14.4" height="544.9"/>
	<rect id="XMLID_96_" x="854.7" y="301.6" class="st3" width="14.4" height="544.9"/>
	<path id="XMLID_81_" class="st3" d="M894.6,301.6H642.7c-9.2,0-17.1-4.8-19-11.5l-5.1-18h300.1l-5.1,18
		C911.7,296.8,903.8,301.6,894.6,301.6z"/>
	<path id="XMLID_271_" class="st0" d="M895.1,336.3L895.1,336.3L895.1,336.3L895.1,336.3L895.1,336.3l-126.5,0H642.1v0l0,0h0v0
		l-68.7,25c-6.2,2.2-9.3,9.1-7.1,15.2v0c2.2,6.2,9.1,9.3,15.2,7.1l62.8-22.8c1.3-0.5,2.7-0.7,4.1-0.7h120.2h120.2
		c1.4,0,2.8,0.2,4.1,0.7l62.8,22.8c6.2,2.2,13-0.9,15.2-7.1v0c2.2-6.2-0.9-13-7.1-15.2L895.1,336.3z"/>
	<path id="XMLID_80_" class="st5" d="M895.1,336.3L895.1,336.3L895.1,336.3L895.1,336.3L895.1,336.3l-126.5,0H642.1v0l0,0h0v0
		l-68.7,25c-6.2,2.2-9.3,9.1-7.1,15.2v0c2.2,6.2,9.1,9.3,15.2,7.1l62.8-22.8c1.3-0.5,2.7-0.7,4.1-0.7h120.2h120.2
		c1.4,0,2.8,0.2,4.1,0.7l62.8,22.8c6.2,2.2,13-0.9,15.2-7.1v0c2.2-6.2-0.9-13-7.1-15.2L895.1,336.3z"/>
	<rect id="XMLID_282_" x="695.1" y="585.1" class="st0" width="143.5" height="22.6"/>
	<rect id="XMLID_281_" x="695.1" y="620.9" class="st0" width="143.5" height="22.6"/>
	<rect id="XMLID_280_" x="695.1" y="656.6" class="st0" width="143.5" height="22.6"/>
	<rect id="XMLID_279_" x="695.1" y="692.3" class="st0" width="143.5" height="22.6"/>
	<rect id="XMLID_278_" x="695.1" y="728" class="st0" width="143.5" height="22.6"/>
	<rect id="XMLID_79_" x="695.1" y="585.1" class="st3" width="143.5" height="22.6"/>
	<rect id="XMLID_274_" x="695.1" y="620.9" class="st3" width="143.5" height="22.6"/>
	<rect id="XMLID_275_" x="695.1" y="656.6" class="st3" width="143.5" height="22.6"/>
	<rect id="XMLID_276_" x="695.1" y="692.3" class="st3" width="143.5" height="22.6"/>
	<rect id="XMLID_277_" x="695.1" y="728" class="st3" width="143.5" height="22.6"/>
	<rect id="XMLID_304_" x="656.4" y="725.5" class="st0" width="225.5" height="27.6"/>
	<rect id="XMLID_76_" x="742.7" y="753.1" class="st5" width="53" height="93.4"/>
	<rect id="XMLID_286_" x="656.4" y="725.5" class="st3" width="225.5" height="27.6"/>
	<polygon id="XMLID_75_" class="st0" points="900.6,845 637.7,845 645.9,817.4 892.4,817.4 	"/>
	<rect id="XMLID_74_" x="742.7" y="753.1" class="st3" width="53" height="93.4"/>
	<polygon id="XMLID_72_" class="st0" points="900.6,847 637.7,847 645.9,819.4 892.4,819.4 	"/>
	<polygon id="XMLID_71_" class="st3" points="900.6,847 637.7,847 645.9,819.4 892.4,819.4 	"/>
</g>
<g id="XMLID_65_">
	<path id="XMLID_284_" class="st0" d="M719.2,779.1H424.5c-8.1,0-14.6-6.5-14.6-14.6v-7.3c0-8.1,6.5-14.6,14.6-14.6h294.7
		c8.1,0,14.6,6.5,14.6,14.6v7.3C733.8,772.6,727.3,779.1,719.2,779.1z"/>
	<path id="XMLID_113_" class="st6" d="M719.2,779.1H424.5c-8.1,0-14.6-6.5-14.6-14.6v-7.3c0-8.1,6.5-14.6,14.6-14.6h294.7
		c8.1,0,14.6,6.5,14.6,14.6v7.3C733.8,772.6,727.3,779.1,719.2,779.1z"/>
	<rect id="XMLID_285_" x="449.9" y="656" class="st0" width="30.4" height="191.2"/>
	<rect id="XMLID_114_" x="449.9" y="656" class="st6" width="30.4" height="191.2"/>
	<rect id="XMLID_69_" x="669.8" y="779.1" class="st6" width="30.4" height="68"/>
	<circle id="XMLID_283_" class="st0" cx="465.1" cy="638.4" r="67.6"/>
	<circle id="XMLID_116_" class="st6" cx="465.1" cy="638.4" r="67.6"/>
	<circle id="XMLID_68_" class="st6" cx="465.1" cy="638.4" r="44.8"/>
	<circle id="XMLID_67_" class="st6" cx="465.1" cy="638.4" r="16.8"/>
	<path id="XMLID_66_" class="st7" d="M509.9,742.7h-75.2c-5.7,0-10.4-4.6-10.4-10.4v-5.2c0-5.7,4.6-10.4,10.4-10.4h75.2
		c5.7,0,10.4,4.6,10.4,10.4v5.2C520.2,738,515.6,742.7,509.9,742.7z"/>
</g>
<line id="XMLID_87_" class="st3" x1="228.6" y1="846.5" x2="708.6" y2="846.5"/>
<line id="XMLID_64_" class="st3" x1="735.6" y1="846.5" x2="785" y2="846.5"/>
<line id="XMLID_63_" class="st3" x1="174.1" y1="846.5" x2="208.8" y2="846.5"/>
<line id="XMLID_62_" class="st3" x1="802.4" y1="846.5" x2="811" y2="846.5"/>
<path id="XMLID_318_" class="st8" d="M598.7,523.7c0,0,61.9,118,86.2,270.9c3.3,20.6-6.2,33.6-16.3,41.4c-8.9,6.9-20,10.4-31.3,10.4
	H302.6c-12.7,0-23.1-10.3-23.1-23.1v0c0-12.9,10.6-23.3,23.5-23.1l37.2,0.7l46.1-127c0,0,124.7,118.2,211.1,76.5
	c60.7-29.3-4.9-194.1-23.1-212.3C556.2,520.1,598.7,523.7,598.7,523.7z"/>
<path id="XMLID_61_" class="st9" d="M396.7,688.3c0,0,124.7,118.2,211.1,76.5c60.7-29.3-4.9-194.1-23.1-212.3
	c-14.9-14.9,2.5-27.4,12.3-27c-4.3-9.1,1.6-1.8,1.6-1.8s-42.5-3.6-24.3,14.6c18.2,18.2,83.7,183,23.1,212.3
	c-86.4,41.7-211.1-76.5-211.1-76.5"/>
<g id="XMLID_416_">
	<path id="XMLID_417_" class="st10" d="M622.5,685.8c3.3-56.5-30.6-140.6-45.6-161c-6.7,1.7-10.5,5.5-2.5,13.5
		C586.5,550.4,619.4,627,622.5,685.8z"/>
	<path id="XMLID_418_" class="st10" d="M684.8,794.2c-2.2,11.6-9,19.8-16.2,25.4c-8.9,6.9-20,10.4-31.3,10.4H302.6
		c-9.8,0-18.2-6.2-21.5-14.8c-1,2.6-1.5,5.3-1.5,8.2v0c0,12.7,10.3,23.1,23.1,23.1h334.7c11.3,0,22.4-3.5,31.3-10.4
		c10.1-7.8,19.5-20.8,16.3-41.4C684.9,794.5,684.8,794.4,684.8,794.2z"/>
</g>
<g id="XMLID_410_">
	<path id="XMLID_413_" class="st10" d="M291.2,806l37.2,0.7l2.1-5.8l-25-0.5c-5.9-0.1-11.4,2-15.5,5.6
		C290.3,806,290.8,806,291.2,806z"/>
	<path id="XMLID_414_" class="st10" d="M687.2,794.7c-24.3-152.9-86.2-270.9-86.2-270.9s-26-2.2-28.6,5.5c7.2-0.5,14.3,0.1,14.3,0.1
		s61.9,118,86.2,270.9c3.3,20.6-6.2,33.6-16.3,41.4c-1.7,1.3-3.4,2.5-5.2,3.5c7-1.6,13.7-4.7,19.5-9.1
		C681.1,828.3,690.5,815.3,687.2,794.7z"/>
</g>
<path id="XMLID_411_" class="st10" d="M461.3,729c-42.9-24.5-74.9-54.9-74.9-54.9l-46.1,127l-30.1-0.6
	c15.5,10.6,34.3,16.9,54.5,16.9C415.3,817.4,456.9,778.5,461.3,729z"/>
<path id="XMLID_305_" class="st10" d="M457.6,802.1h-59.2c-4.5,0-8.2-3.7-8.2-8.2v-9.2c0-4.5,3.7-8.2,8.2-8.2h59.2
	c4.5,0,8.2,3.7,8.2,8.2v9.2C465.8,798.4,462.1,802.1,457.6,802.1z"/>
<path id="XMLID_60_" class="st3" d="M598.7,523.7c0,0,61.9,118,86.2,270.9c3.3,20.6-6.2,33.6-16.3,41.4c-8.9,6.9-20,10.4-31.3,10.4
	H302.6c-12.7,0-23.1-10.3-23.1-23.1v0c0-12.9,10.6-23.3,23.5-23.1l37.2,0.7l46.1-127c0,0,124.7,118.2,211.1,76.5
	c60.7-29.3-4.9-194.1-23.1-212.3C556.2,520.1,598.7,523.7,598.7,523.7z"/>
<path id="XMLID_409_" class="st11" d="M652.7,762.1c2.4,11.9,4.7,24.2,6.7,36.6c1.2,7.6-0.6,12.3-6.5,16.9c-4.2,3.2-9.7,5-15.5,5
	h-20.7"/>
<path id="XMLID_412_" class="st11" d="M644.8,727.2c1.5,6.1,3,12.3,4.4,18.5"/>
<polygon id="XMLID_402_" class="st5" points="296.6,560.9 324.1,658.8 346.7,651.5 321.6,556.8 "/>
<polygon id="XMLID_59_" class="st3" points="296.6,560.9 324.1,658.8 346.7,651.5 321.6,556.8 "/>
<path id="XMLID_58_" class="st3" d="M254.5,563.2l2.5,9.8c2.7,10.6,12.8,17.6,23.7,16.2c16.5-2,38.6-5.8,44.8-12.1
	c10.4-10.4,41.3-13.2,51.8-13.2s30.5-24.5,18.6-22.9c-85.6,11.2-124.1-16.2-138.6,5C253.9,551,253,557.3,254.5,563.2z"/>
<path id="XMLID_401_" class="st12" d="M254.5,563.2l2.5,9.8c2.7,10.6,12.8,17.6,23.7,16.2c16.5-2,38.6-5.8,44.8-12.1
	c10.4-10.4,41.3-13.2,51.8-13.2s30.5-24.5,18.6-22.9c-85.6,11.2-124.1-16.2-138.6,5C253.9,551,253,557.3,254.5,563.2z"/>
<path id="XMLID_518_" class="st13" d="M350.3,543.7c-54.4-0.5-81.4-14.8-93,2.2c-2.4,3.5-3.6,7.7-3.5,11.9
	c9.1,1.6,19.1,2.5,29.6,2.5C312.7,560.3,338,553.6,350.3,543.7z"/>
<path id="XMLID_400_" class="st3" d="M253.8,563.9l3.2,9.1c2.7,10.6,12.8,17.6,23.7,16.2c16.5-2,38.6-5.8,44.8-12.1
	c10.4-10.4,41.3-13.2,51.8-13.2s30.5-24.5,18.6-22.9c-85.6,11.2-124.1-16.2-138.6,5C253.9,551,252.3,558,253.8,563.9z"/>
<g id="XMLID_345_">
	<path id="XMLID_346_" class="st14" d="M610.5,600.4c-2.8,0-5.6-1.3-7.4-3.7c-3.1-4.1-2.3-9.9,1.7-13l0,0
		c0.4-0.3,40.2-31.1,46.7-62.1c5.6-26.9-9.4-100.6-15.7-126.7c-1.2-5,1.9-10,6.9-11.2c5-1.2,10,1.9,11.2,6.9
		c1,4,23.5,98.3,15.8,134.8c-7.9,37.9-51.8,71.7-53.6,73.1C614.4,599.7,612.4,600.4,610.5,600.4z"/>
</g>
<path id="XMLID_521_" class="st15" d="M635.8,394.8c2.3,9.5,5.7,25.2,8.9,42.7c3-6.7,5-17.1,5-28.7c0-9.9-1.4-18.9-3.7-25.5
	c-1.1-0.1-2.2-0.1-3.3,0.2C637.7,384.8,634.6,389.9,635.8,394.8z"/>
<path id="XMLID_373_" class="st16" d="M559.3,585.1c-7.4-3.5-14.7-6.9-22.1-10.4c21.3-30.5,37.2-64.4,47.1-100.3
	c7.4,3.5,14.7,6.9,22.1,10.4C596.5,520.7,580.5,554.6,559.3,585.1z"/>
<path id="XMLID_519_" class="st17" d="M591.6,480.5c4.7,2.2,9.4,4.4,14.1,6.6c0.2-0.8,0.4-1.5,0.6-2.3c-7.4-3.5-14.7-6.9-22.1-10.4
	c-9.9,35.9-25.8,69.8-47.1,100.3c2.9,1.4,5.8,2.7,8.7,4.1C566.4,548.8,581.9,515.6,591.6,480.5z"/>
<path id="XMLID_57_" class="st3" d="M559.3,585.1c-7.4-3.5-14.7-6.9-22.1-10.4c21.3-30.5,37.2-64.4,47.1-100.3
	c7.4,3.5,14.7,6.9,22.1,10.4C596.5,520.7,580.5,554.6,559.3,585.1z"/>
<g id="XMLID_55_">
	<path id="XMLID_56_" class="st3" d="M610.5,600.4c-2.8,0-5.6-1.3-7.4-3.7c-3.1-4.1-2.3-9.9,1.7-13l0,0c0.4-0.3,40.2-31.1,46.7-62.1
		c5.6-26.9-9.4-100.6-15.7-126.7c-1.2-5,1.9-10,6.9-11.2c5-1.2,10,1.9,11.2,6.9c1,4,23.5,98.3,15.8,134.8
		c-7.9,37.9-51.8,71.7-53.6,73.1C614.4,599.7,612.4,600.4,610.5,600.4z"/>
</g>
<circle id="XMLID_403_" class="st18" cx="364.7" cy="720.5" r="85.2"/>
<path id="XMLID_517_" class="st19" d="M364.7,651.2c44.3,0,80.8,33.9,84.8,77.2c0.2-2.6,0.4-5.3,0.4-8c0-47-38.1-85.2-85.2-85.2
	s-85.2,38.1-85.2,85.2c0,2.7,0.1,5.3,0.4,8C284,685.1,320.4,651.2,364.7,651.2z"/>
<circle id="XMLID_54_" class="st3" cx="364.7" cy="720.5" r="85.2"/>
<circle id="XMLID_53_" class="st20" cx="369.7" cy="726.9" r="21"/>
<circle id="XMLID_404_" class="st5" cx="364.7" cy="720.5" r="18.8"/>
<circle id="XMLID_49_" class="st3" cx="364.7" cy="720.5" r="18.8"/>
<rect id="XMLID_407_" x="382.9" y="709.3" transform="matrix(0.7798 -0.6261 0.6261 0.7798 -384.3548 408.5624)" class="st5" width="11.3" height="82.5"/>
<rect id="XMLID_47_" x="382.9" y="709.3" transform="matrix(0.7798 -0.6261 0.6261 0.7798 -384.3548 408.5624)" class="st3" width="11.3" height="82.5"/>
<path id="XMLID_406_" class="st12" d="M452.6,793.1h-59.2c-4.5,0-8.2-3.7-8.2-8.2v-9.2c0-4.5,3.7-8.2,8.2-8.2h59.2
	c4.5,0,8.2,3.7,8.2,8.2v9.2C460.8,789.4,457.1,793.1,452.6,793.1z"/>
<path id="XMLID_45_" class="st3" d="M452.6,793.1h-59.2c-4.5,0-8.2-3.7-8.2-8.2v-9.2c0-4.5,3.7-8.2,8.2-8.2h59.2
	c4.5,0,8.2,3.7,8.2,8.2v9.2C460.8,789.4,457.1,793.1,452.6,793.1z"/>
<g id="XMLID_30_" class="st2">
	<rect id="XMLID_33_" x="156.3" y="329" class="st3" width="118.1" height="138.5"/>
	<rect id="XMLID_92_" x="173.5" y="345.1" class="st3" width="83.7" height="106.2"/>
	<path id="XMLID_95_" class="st3" d="M232.4,388.8c0,10.3-7.1,18.7-15.8,18.7s-15.8-8.4-15.8-18.7s7.1-13.6,15.8-13.6
		S232.4,378.5,232.4,388.8z"/>
	<path id="XMLID_97_" class="st3" d="M247.4,451.3H185v-12.7c0-17.2,14-31.2,31.2-31.2h0c17.2,0,31.2,14,31.2,31.2V451.3z"/>
</g>
<g id="XMLID_1_" class="st2">
	<g id="XMLID_7_">
		<path id="XMLID_9_" class="st3" d="M381.9,426.1c0,0-15.1,32.1-7.8,45.6c7.3,13.5,42.6,19.6,47-2.6s-14.6-21.9-14.6-21.9"/>
		<path id="XMLID_98_" class="st3" d="M415.8,423.9c0,0,6,11.3,6,19.7s-4.8,7.3-4.8,7.3"/>
		<ellipse id="XMLID_8_" class="st3" cx="398.5" cy="416.1" rx="21.5" ry="13.1"/>
	</g>
	<g id="XMLID_104_">
		<path id="XMLID_107_" class="st3" d="M467.5,413.9c0,0,23.1,28.5,18.7,43.3c-4.3,14.8-37.5,28.1-46.5,7.4
			c-9-20.7,9.7-24.5,9.7-24.5"/>
		<path id="XMLID_6_" class="st3" d="M435.5,418.7c0,0-3.6,12.9-1.8,21.1c1.8,8.2,6.3,6.2,6.3,6.2"/>
		
			<ellipse id="XMLID_5_" transform="matrix(0.9775 -0.2109 0.2109 0.9775 -75.9075 104.2408)" class="st3" cx="450.7" cy="408" rx="21.5" ry="13.1"/>
	</g>
	<polyline id="XMLID_4_" class="st3" points="398.5,403.1 420,334.1 448,395.2 	"/>
</g>
<g id="XMLID_441_">
	<line id="XMLID_444_" class="st21" x1="658.6" y1="374.5" x2="664.3" y2="369.7"/>
	<line id="XMLID_443_" class="st21" x1="651.2" y1="372.5" x2="650.9" y2="364.1"/>
	<line id="XMLID_442_" class="st21" x1="654.8" y1="372.9" x2="658.9" y2="363"/>
</g>
<g id="XMLID_538_">
	<line id="XMLID_541_" class="st21" x1="405.2" y1="534.6" x2="410.9" y2="529.7"/>
	<line id="XMLID_540_" class="st21" x1="397.8" y1="532.5" x2="397.5" y2="524.1"/>
	<line id="XMLID_539_" class="st21" x1="401.3" y1="532.9" x2="405.5" y2="523.1"/>
</g>
</svg>
