<?xml version="1.0" encoding="utf-8"?>
<!-- Generator: Adobe Illustrator 23.1.1, SVG Export Plug-In . SVG Version: 6.00 Build 0)  -->
<svg version="1.1" id="Layer_1" xmlns="http://www.w3.org/2000/svg" xmlns:xlink="http://www.w3.org/1999/xlink" x="0px" y="0px"
	 viewBox="0 0 1000 1000" style="enable-background:new 0 0 1000 1000;" xml:space="preserve">
<style type="text/css">
	.st0{fill:#684463;}
	.st1{fill:#EEF2F4;}
	.st2{opacity:0.5;fill:#825D7E;}
	.st3{opacity:0.69;fill:#3D233C;}
	.st4{fill:#96628A;}
	.st5{fill:#84517A;}
	.st6{fill:#CC83B4;}
	.st7{fill:#BC71A7;}
	.st8{fill:#AB8FB8;}
	.st9{fill:#DFCCE2;}
	.st10{opacity:0.82;fill:#A380AF;}
	.st11{fill:#AC91BA;}
	.st12{fill:#B39FC1;}
	.st13{fill:#F7CD84;}
	.st14{fill:#F8B461;}
	.st15{fill:#6F5A66;}
	.st16{fill:#6B4C5F;}
	.st17{fill:#ED4A5E;}
	.st18{fill:#DE6173;}
	.st19{fill:#F37F82;}
	.st20{fill:#DD6B80;}
	.st21{opacity:0.34;fill:#F37F82;}
	.st22{fill:#D1B9D6;}
	.st23{opacity:0.87;fill:#A380AF;}
	.st24{fill:#C5E1DF;}
	.st25{fill:#A5CECA;}
	.st26{fill:#FFFDFF;}
	.st27{fill:#E26971;}
	.st28{fill:#CE5F78;}
	.st29{fill:#633047;}
	.st30{fill:#F4CEE1;}
	.st31{opacity:0.4;fill:#E26971;}
	.st32{opacity:0.2;fill:#E26971;}
	.st33{opacity:0.39;fill:#E26971;}
	.st34{fill:#EA3268;}
	.st35{opacity:0.69;fill:#AA235B;}
	.st36{fill:#E29C50;}
	.st37{fill:#736177;}
	.st38{fill:#D33167;}
	.st39{fill:#F4E1E4;}
	.st40{opacity:0.2;fill:#442228;}
	.st41{fill:#E0445E;}
</style>
<rect id="XMLID_9_" class="st0" width="1000" height="1000"/>
<g>
	<g>
		<g>
			<path class="st1" d="M63.2,959.2c0,2.5-1.2,3.7-2.6,3.7c-1.1,0-1.9-0.5-2.1-1.4c-0.4,0.5-1,0.8-1.8,0.8c-1.5,0-2.6-1.2-2.6-2.8
				c0-1.6,1.1-2.8,2.6-2.8c0.7,0,1.2,0.3,1.6,0.7v-0.5h1.6v3.9c0,0.8,0.3,1.4,1,1.4c0.9,0,1.7-0.9,1.7-3c0-3-2.3-5.3-5.4-5.3
				c-3.1,0-5.6,2.4-5.6,5.7c0,3.3,2.5,5.7,5.9,5.7c1.1,0,2.1-0.2,2.9-0.4v0.6c-0.8,0.3-1.7,0.4-2.9,0.4c-3.7,0-6.5-2.6-6.5-6.2
				c0-3.4,2.7-6.2,6.2-6.2C61.1,953.3,63.2,956.4,63.2,959.2z M58.3,959.5c0-0.8-0.6-1.4-1.3-1.4c-0.8,0-1.3,0.5-1.3,1.4
				c0,0.8,0.6,1.3,1.3,1.3C57.8,960.9,58.3,960.3,58.3,959.5z"/>
		</g>
		<g>
			<path class="st1" d="M69.4,955.1v2c-1.2-0.1-2.6,0.5-2.6,2.4v4.3h-1.9v-8.6h1.9v1.4C67.3,955.5,68.3,955.1,69.4,955.1z"/>
		</g>
		<g>
			<path class="st1" d="M74.6,962.3c1,0,1.8-0.5,2.2-1.1l1.5,0.9c-0.8,1.2-2.1,1.9-3.8,1.9c-2.8,0-4.7-1.9-4.7-4.5
				c0-2.5,1.8-4.5,4.5-4.5c2.6,0,4.3,2.1,4.3,4.5c0,0.3,0,0.5-0.1,0.8h-6.8C72.1,961.6,73.2,962.3,74.6,962.3z M76.9,958.8
				c-0.3-1.5-1.3-2.1-2.5-2.1c-1.4,0-2.3,0.8-2.6,2.1H76.9z"/>
		</g>
		<g>
			<path class="st1" d="M88.9,955.2v8.6h-1.9v-1.2c-0.7,0.9-1.7,1.5-3,1.5c-2.3,0-4.3-2-4.3-4.5c0-2.6,1.9-4.5,4.3-4.5
				c1.3,0,2.3,0.5,3,1.4v-1.2H88.9z M87.1,959.5c0-1.6-1.2-2.7-2.7-2.7c-1.5,0-2.7,1.1-2.7,2.7c0,1.6,1.2,2.7,2.7,2.7
				C85.9,962.3,87.1,961.1,87.1,959.5z"/>
		</g>
		<g>
			<path class="st1" d="M91.1,951.3H93v12.5h-1.9V951.3z"/>
		</g>
		<g>
			<path class="st1" d="M102.9,955.2l-3.3,8.6h-2.1l-3.3-8.6h2l2.4,6.5l2.4-6.5H102.9z"/>
		</g>
		<g>
			<path class="st1" d="M104.2,955.2h1.9v8.9c0,2.4-1.2,3.5-3.5,3.3v-1.8c1.1,0.1,1.7-0.3,1.7-1.5V955.2z M104,952.8
				c0-0.7,0.5-1.2,1.2-1.2c0.7,0,1.2,0.5,1.2,1.2c0,0.6-0.5,1.2-1.2,1.2C104.5,954,104,953.4,104,952.8z"/>
		</g>
		<g>
			<path class="st1" d="M116,955.2l-3.3,8.8c-0.8,2.2-2.2,3.3-4.2,3.2v-1.7c1.2,0.1,1.9-0.5,2.3-1.7l0.1-0.2l-3.6-8.4h2l2.6,6.2
				l2.2-6.2H116z"/>
		</g>
	</g>
	<g>
		<path class="st1" d="M211.9,938.7c0,2.1-1.5,3.8-3.6,3.8h-3v-7.6h3C210.4,934.9,211.9,936.6,211.9,938.7z M210.9,938.7
			c0-1.6-1.1-2.9-2.6-2.9h-2v5.7h2C209.8,941.6,210.9,940.3,210.9,938.7z"/>
		<path class="st1" d="M219.5,940.8h-3.4l-0.6,1.7h-1.1l2.8-7.6h1.1l2.8,7.6h-1.1L219.5,940.8z M219.2,939.9l-1.4-3.8l-1.4,3.8
			H219.2z"/>
		<path class="st1" d="M226.4,939.4v3.1h-1v-3.1l-2.7-4.5h1.1l2.1,3.6l2.1-3.6h1.1L226.4,939.4z"/>
		<path class="st1" d="M239.5,934.9v7.6h-1V936l-1.6,0.5l-0.3-0.9l2-0.7H239.5z"/>
		<path class="st1" d="M243.2,938.7c0-2.4,1.1-4,2.9-4c1.9,0,2.9,1.6,2.9,4c0,2.4-1,4-2.9,4C244.2,942.7,243.2,941,243.2,938.7z
			 M248,938.7c0-1.9-0.7-3-1.9-3c-1.2,0-1.9,1.1-1.9,3s0.7,3,1.9,3C247.3,941.7,248,940.6,248,938.7z"/>
	</g>
	<g>
		<path class="st1" d="M58.9,938.7c0,2.1-1.5,3.8-3.6,3.8h-3v-7.6h3C57.4,934.9,58.9,936.6,58.9,938.7z M57.9,938.7
			c0-1.6-1.1-2.9-2.6-2.9h-2v5.7h2C56.8,941.6,57.9,940.3,57.9,938.7z"/>
		<path class="st1" d="M67,941.6v1h-4.6v-7.6h4.5v1h-3.5v2.3h3.2v0.9h-3.2v2.4H67z"/>
		<path class="st1" d="M70,940.8l0.9-0.5c0.3,0.8,0.9,1.4,2,1.4c1.1,0,1.6-0.5,1.6-1.2c0-0.8-0.7-1-1.8-1.4
			c-1.2-0.4-2.4-0.8-2.4-2.2c0-1.4,1.1-2.2,2.4-2.2c1.3,0,2.2,0.7,2.6,1.7l-0.8,0.5c-0.3-0.7-0.8-1.2-1.7-1.2
			c-0.8,0-1.4,0.4-1.4,1.1c0,0.7,0.5,1,1.6,1.3c1.3,0.4,2.6,0.8,2.6,2.3c0,1.3-1.1,2.2-2.6,2.2C71.5,942.7,70.4,941.9,70,940.8z"/>
		<path class="st1" d="M80,934.9v7.6h-1v-7.6H80z"/>
		<path class="st1" d="M91.3,939.2c0,1.9-1.4,3.5-3.7,3.5c-2.4,0-4-1.8-4-4c0-2.2,1.7-4,4-4c1.4,0,2.7,0.8,3.3,1.8l-0.9,0.5
			c-0.4-0.8-1.4-1.4-2.4-1.4c-1.8,0-3,1.3-3,3c0,1.7,1.2,3,3,3c1.6,0,2.5-0.9,2.7-2h-2.8v-0.9h3.8V939.2z"/>
		<path class="st1" d="M100.6,934.9v7.6h-0.8l-3.9-5.7v5.7h-1v-7.6h0.8l3.9,5.7v-5.7H100.6z"/>
		<path class="st1" d="M109.1,941.6v1h-4.6v-7.6h4.5v1h-3.5v2.3h3.2v0.9h-3.2v2.4H109.1z"/>
		<path class="st1" d="M119.2,938.7c0,2.1-1.5,3.8-3.6,3.8h-3v-7.6h3C117.6,934.9,119.2,936.6,119.2,938.7z M118.2,938.7
			c0-1.6-1.1-2.9-2.6-2.9h-2v5.7h2C117.1,941.6,118.2,940.3,118.2,938.7z"/>
		<path class="st1" d="M133.2,940.4c0,1.2-1,2.2-2.2,2.2h-3.3v-7.6h3c1.2,0,2.1,0.9,2.1,2.1c0,0.7-0.3,1.2-0.8,1.6
			C132.7,938.9,133.2,939.5,133.2,940.4z M128.7,935.8v2.3h2c0.6,0,1.1-0.5,1.1-1.2c0-0.6-0.5-1.2-1.1-1.2H128.7z M132.2,940.3
			c0-0.7-0.5-1.2-1.2-1.2h-2.3v2.5h2.3C131.7,941.6,132.2,941,132.2,940.3z"/>
		<path class="st1" d="M139.4,939.4v3.1h-1v-3.1l-2.7-4.5h1.1l2.1,3.6l2.1-3.6h1.1L139.4,939.4z"/>
	</g>
	<g>
		<path class="st1" d="M204.8,958.1c0-3.6,2.7-6.4,6.5-6.4c2.3,0,4.3,1.2,5.3,3l-1.8,1c-0.7-1.2-2-2-3.6-2c-2.7,0-4.4,1.9-4.4,4.4
			s1.8,4.4,4.4,4.4c1.6,0,2.9-0.8,3.6-2l1.8,1c-1,1.8-3,3-5.3,3C207.5,964.5,204.8,961.7,204.8,958.1z"/>
		<path class="st1" d="M227.1,955.4v8.9h-1.9V963c-0.7,0.9-1.7,1.5-3.1,1.5c-2.4,0-4.4-2-4.4-4.7c0-2.6,2-4.7,4.4-4.7
			c1.4,0,2.4,0.6,3.1,1.5v-1.3H227.1z M225.2,959.9c0-1.6-1.2-2.8-2.8-2.8c-1.6,0-2.8,1.2-2.8,2.8c0,1.6,1.2,2.8,2.8,2.8
			C224,962.7,225.2,961.5,225.2,959.9z"/>
		<path class="st1" d="M237.4,958.9v5.4h-1.9v-5.2c0-1.3-0.8-2.1-2-2.1c-1.3,0-2.2,0.7-2.2,2.5v4.7h-1.9v-8.9h1.9v1.1
			c0.6-0.9,1.5-1.4,2.7-1.4C236,955.2,237.4,956.6,237.4,958.9z"/>
		<path class="st1" d="M247.4,955.4l-3.5,8.9h-2.2l-3.5-8.9h2.1l2.5,6.7l2.5-6.7H247.4z"/>
		<path class="st1" d="M257.2,955.4v8.9h-1.9V963c-0.7,0.9-1.7,1.5-3.1,1.5c-2.4,0-4.4-2-4.4-4.7c0-2.6,2-4.7,4.4-4.7
			c1.4,0,2.4,0.6,3.1,1.5v-1.3H257.2z M255.3,959.9c0-1.6-1.2-2.8-2.8-2.8c-1.6,0-2.8,1.2-2.8,2.8c0,1.6,1.2,2.8,2.8,2.8
			C254.1,962.7,255.3,961.5,255.3,959.9z"/>
		<path class="st1" d="M265.8,961.8c0,1.8-1.5,2.7-3.5,2.7c-1.8,0-3-0.8-3.6-2.1l1.6-1c0.3,0.8,1,1.3,2,1.3c0.8,0,1.5-0.3,1.5-1
			c0-1.6-4.8-0.7-4.8-3.9c0-1.7,1.4-2.7,3.2-2.7c1.5,0,2.7,0.7,3.3,1.8L264,958c-0.3-0.7-0.9-1-1.7-1c-0.7,0-1.3,0.3-1.3,0.9
			C261.1,959.5,265.8,958.5,265.8,961.8z"/>
		<path class="st1" d="M271.4,961.5l1.8-1c0.4,1.3,1.4,2.1,3.1,2.1c1.6,0,2.3-0.7,2.3-1.6c0-1.1-1-1.5-2.8-2
			c-1.9-0.6-3.8-1.3-3.8-3.6c0-2.3,1.9-3.6,4-3.6c2,0,3.5,1.1,4.3,2.7l-1.7,1c-0.4-1-1.2-1.7-2.6-1.7c-1.2,0-1.9,0.6-1.9,1.5
			c0,1,0.7,1.4,2.5,1.9c2.1,0.7,4.1,1.3,4.1,3.8c0,2.3-1.8,3.6-4.4,3.6C273.7,964.5,272.1,963.3,271.4,961.5z"/>
		<path class="st1" d="M284.7,957.3v4.2c0,1.1,0.7,1.1,2.2,1v1.7c-2.9,0.4-4.1-0.5-4.1-2.8v-4.2h-1.6v-1.8h1.6v-1.9l1.9-0.6v2.5h2.2
			v1.8H284.7z"/>
		<path class="st1" d="M297.2,955.4v8.9h-1.9V963c-0.7,0.9-1.7,1.5-3.1,1.5c-2.4,0-4.4-2-4.4-4.7c0-2.6,2-4.7,4.4-4.7
			c1.4,0,2.4,0.6,3.1,1.5v-1.3H297.2z M295.3,959.9c0-1.6-1.2-2.8-2.8-2.8c-1.6,0-2.8,1.2-2.8,2.8c0,1.6,1.2,2.8,2.8,2.8
			C294.1,962.7,295.3,961.5,295.3,959.9z"/>
		<path class="st1" d="M307.5,958.9v5.4h-1.9v-5.2c0-1.3-0.8-2.1-2-2.1c-1.3,0-2.2,0.7-2.2,2.5v4.7h-1.9v-8.9h1.9v1.1
			c0.6-0.9,1.5-1.4,2.7-1.4C306.1,955.2,307.5,956.6,307.5,958.9z"/>
		<path class="st1" d="M318.5,951.9v12.4h-1.9V963c-0.7,0.9-1.7,1.5-3.1,1.5c-2.4,0-4.4-2-4.4-4.7c0-2.6,2-4.7,4.4-4.7
			c1.4,0,2.4,0.6,3.1,1.5v-4.8H318.5z M316.5,959.9c0-1.6-1.2-2.8-2.8-2.8c-1.6,0-2.8,1.2-2.8,2.8c0,1.6,1.2,2.8,2.8,2.8
			C315.3,962.7,316.5,961.5,316.5,959.9z"/>
	</g>
	<g>
		<path class="st1" d="M841.3,942.5h-1v-7.6h1.1l2.4,4l2.4-4h1.1v7.6h-1v-6l-2.5,4.2h-0.1l-2.5-4.1V942.5z M858.8,938.7
			c0,2.2-1.7,4-4,4c-2.2,0-3.9-1.8-3.9-4c0-2.2,1.7-4,3.9-4C857.1,934.7,858.8,936.5,858.8,938.7z M857.8,938.7c0-1.7-1.3-3-2.9-3
			c-1.7,0-2.9,1.3-2.9,3c0,1.7,1.3,3,2.9,3C856.6,941.7,857.8,940.4,857.8,938.7z M866.2,939.5l1.8,3.1h-1.1l-1.7-2.9h-1.8v2.9h-1
			v-7.6h3c1.3,0,2.4,1.1,2.4,2.4C867.8,938.2,867.1,939.1,866.2,939.5z M865.4,938.7c0.8,0,1.4-0.6,1.4-1.4c0-0.8-0.6-1.4-1.4-1.4
			h-2v2.8H865.4z M875.9,941.6h-3.5v-2.4h3.2v-0.9h-3.2v-2.3h3.5v-1h-4.5v7.6h4.6V941.6z M844.2,962.2l-2.5-6.7h-2.1l3.5,8.9h2.2
			l3.5-8.9h-2.1L844.2,962.2z M850,964.3h1.9v-8.9H850V964.3z M851,951.7c-0.7,0-1.2,0.5-1.2,1.2c0,0.7,0.5,1.2,1.2,1.2
			c0.7,0,1.2-0.6,1.2-1.2C852.2,952.2,851.6,951.7,851,951.7z M855.2,951.7c-0.7,0-1.2,0.5-1.2,1.2c0,0.7,0.5,1.2,1.2,1.2
			c0.7,0,1.2-0.6,1.2-1.2C856.5,952.2,855.9,951.7,855.2,951.7z M854.3,964.7c0,1.2-0.5,1.7-1.7,1.6v1.8c2.4,0.2,3.6-1,3.6-3.4v-9.2
			h-1.9V964.7z M865.4,955.4h1.9v8.9h-1.9V963c-0.7,0.9-1.7,1.5-3.1,1.5c-2.4,0-4.4-2-4.4-4.7c0-2.6,2-4.7,4.4-4.7
			c1.4,0,2.4,0.6,3.1,1.5V955.4z M865.4,959.9c0-1.6-1.2-2.8-2.8-2.8c-1.6,0-2.8,1.2-2.8,2.8c0,1.6,1.2,2.8,2.8,2.8
			C864.2,962.7,865.4,961.5,865.4,959.9z M873.3,961.9l-2.6-6.4h-2.1l3.8,8.7l-0.1,0.2c-0.4,1.2-1.1,1.8-2.4,1.7v1.8
			c2,0.1,3.5-1,4.3-3.3l3.4-9.1h-2L873.3,961.9z M882.3,962.2l-2.5-6.7h-2.1l3.5,8.9h2.2l3.5-8.9h-2.1L882.3,962.2z M896.4,959.9
			c0,0.3,0,0.5-0.1,0.8h-7c0.3,1.4,1.4,2.1,2.8,2.1c1.1,0,1.9-0.5,2.3-1.1l1.6,0.9c-0.8,1.2-2.1,1.9-3.9,1.9c-2.9,0-4.8-2-4.8-4.7
			c0-2.6,1.9-4.7,4.7-4.7C894.5,955.2,896.4,957.3,896.4,959.9z M894.4,959.1c-0.3-1.5-1.4-2.2-2.5-2.2c-1.4,0-2.4,0.8-2.7,2.2
			H894.4z M899.9,956.9v-1.5H898v8.9h1.9v-4.5c0-2,1.5-2.6,2.7-2.5v-2.1C901.6,955.3,900.5,955.7,899.9,956.9z M913.8,955.2
			c-1.2,0-2.1,0.5-2.7,1.4c-0.5-0.9-1.4-1.4-2.5-1.4c-1.1,0-2,0.4-2.5,1.3v-1.1h-1.9v8.9h1.9v-5c0-1.6,0.9-2.3,2-2.3
			c1,0,1.7,0.7,1.7,1.9v5.4h1.9v-5c0-1.6,0.8-2.3,1.9-2.3c1,0,1.7,0.7,1.7,1.9v5.4h1.9v-5.5C917.1,956.6,915.8,955.2,913.8,955.2z
			 M926.2,955.4h1.9v8.9h-1.9V963c-0.7,0.9-1.7,1.5-3.1,1.5c-2.4,0-4.4-2-4.4-4.7c0-2.6,2-4.7,4.4-4.7c1.4,0,2.4,0.6,3.1,1.5V955.4z
			 M926.2,959.9c0-1.6-1.2-2.8-2.8-2.8c-1.6,0-2.8,1.2-2.8,2.8c0,1.6,1.2,2.8,2.8,2.8C925,962.7,926.2,961.5,926.2,959.9z
			 M931.5,961.9c-0.7,0-1.3,0.6-1.3,1.3c0,0.7,0.6,1.3,1.3,1.3c0.7,0,1.3-0.6,1.3-1.3C932.8,962.4,932.2,961.9,931.5,961.9z
			 M938.3,962.6c-1.6,0-2.7-1.2-2.7-2.8c0-1.6,1.2-2.8,2.7-2.8c1.1,0,1.9,0.5,2.3,1.4l1.6-1c-0.7-1.4-2.2-2.3-3.9-2.3
			c-2.7,0-4.7,2-4.7,4.7c0,2.6,2,4.7,4.7,4.7c1.7,0,3.2-0.9,4-2.3l-1.6-0.9C940.2,962.1,939.3,962.6,938.3,962.6z M952.4,959.9
			c0,2.6-2.1,4.7-4.7,4.7c-2.6,0-4.7-2-4.7-4.7c0-2.6,2.1-4.7,4.7-4.7C950.3,955.2,952.4,957.2,952.4,959.9z M950.5,959.9
			c0-1.6-1.2-2.8-2.8-2.8s-2.8,1.2-2.8,2.8c0,1.6,1.2,2.8,2.8,2.8S950.5,961.5,950.5,959.9z"/>
	</g>
</g>
<path id="XMLID_3_" class="st2" d="M774.5,271.1H591.6v-52h60c14.4,0,26-11.6,26-26v0c0-14.4-11.6-26-26-26H348.4
	c-14.4,0-26,11.6-26,26v0c0,14.4,11.6,26,26,26h60v52H225.5c-14.4,0-26,11.6-26,26v0c0,14.4,11.6,26,26,26h68.6v52h3.7
	c-14.4,0-26,11.6-26,26v0c0,14.4,11.6,26,26,26h98.6v52h-76c-14.4,0-26,11.6-26,26v0c0,14.4,11.6,26,26,26h76v52H289.7
	c-14.4,0-26,11.6-26,26v0c0,14.4,11.6,26,26,26h388.5c14.4,0,26-11.6,26-26v0c0-14.4-11.6-26-26-26h-74.5v-52h23.6
	c14.4,0,26-11.6,26-26v0c0-14.4-11.6-26-26-26h-23.6v-52h98.6c14.4,0,26-11.6,26-26v0c0-14.4-11.6-26-26-26h3.7v-52h68.6
	c14.4,0,26-11.6,26-26v0C800.5,282.8,788.8,271.1,774.5,271.1z"/>
<path id="XMLID_105_" class="st3" d="M846.3,713.5H153.7c-6.6,0-12-5.4-12-12l0,0c0-6.6,5.4-12,12-12h692.7c6.6,0,12,5.4,12,12l0,0
	C858.3,708.1,853,713.5,846.3,713.5z"/>
<path id="XMLID_226_" class="st2" d="M231.8,429.7h-27.2c-14.4,0-26-11.6-26-26v0c0-14.4,11.6-26,26-26h27.2c14.4,0,26,11.6,26,26v0
	C257.8,418,246.2,429.7,231.8,429.7z"/>
<path id="XMLID_157_" class="st0" d="M555.9,375.1H444.1c-14.4,0-26-11.6-26-26v0c0-14.4,11.6-26,26-26h111.7c14.4,0,26,11.6,26,26
	v0C581.9,363.5,570.2,375.1,555.9,375.1z"/>
<path id="XMLID_216_" class="st0" d="M796,375.1H684.3c-14.4,0-26-11.6-26-26v0c0-14.4,11.6-26,26-26H796c14.4,0,26,11.6,26,26v0
	C822,363.5,810.4,375.1,796,375.1z"/>
<path id="XMLID_223_" class="st0" d="M694.2,479.1H582.5c-14.4,0-26-11.6-26-26v0c0-14.4,11.6-26,26-26h111.7c14.4,0,26,11.6,26,26
	v0C720.2,467.5,708.6,479.1,694.2,479.1z"/>
<path id="XMLID_220_" class="st0" d="M350.3,375.1H238.5c-14.4,0-26-11.6-26-26v0c0-14.4,11.6-26,26-26h111.7c14.4,0,26,11.6,26,26
	v0C376.3,363.5,364.6,375.1,350.3,375.1z"/>
<path id="XMLID_221_" class="st0" d="M422.3,271.1H310.6c-14.4,0-26-11.6-26-26v0c0-14.4,11.6-26,26-26h111.7c14.4,0,26,11.6,26,26
	v0C448.3,259.5,436.7,271.1,422.3,271.1z"/>
<path id="XMLID_222_" class="st0" d="M667.7,271.1H556c-14.4,0-26-11.6-26-26v0c0-14.4,11.6-26,26-26h111.7c14.4,0,26,11.6,26,26v0
	C693.7,259.5,682.1,271.1,667.7,271.1z"/>
<path id="XMLID_224_" class="st0" d="M694.2,583.1H582.5c-14.4,0-26-11.6-26-26v0c0-14.4,11.6-26,26-26h111.7c14.4,0,26,11.6,26,26
	v0C720.2,571.5,708.6,583.1,694.2,583.1z"/>
<path id="XMLID_225_" class="st0" d="M410.5,583.1H298.7c-14.4,0-26-11.6-26-26v0c0-14.4,11.6-26,26-26h111.7c14.4,0,26,11.6,26,26
	v0C436.5,571.5,424.8,583.1,410.5,583.1z"/>
<path id="XMLID_251_" class="st4" d="M780,492.1h-28.1v-4.2c0-2.5,2-4.5,4.5-4.5h19c2.5,0,4.5,2,4.5,4.5V492.1z"/>
<path id="XMLID_245_" class="st5" d="M777.1,483.3H774c1.6,0,2.9,1.1,2.9,2.5v6.2h3.1v-6.2C780,484.4,778.7,483.3,777.1,483.3z"/>
<path id="XMLID_170_" class="st6" d="M779.6,535.5h-27.4c-3.5,0-6.2-2.8-6.2-6.2v-30.9c0-3.5,2.8-6.2,6.2-6.2h27.4
	c3.5,0,6.2,2.8,6.2,6.2v30.9C785.9,532.7,783.1,535.5,779.6,535.5z"/>
<path id="XMLID_252_" class="st7" d="M779.6,492.1h-4.6c3.5,0,6.2,2.8,6.2,6.2v30.9c0,3.5-2.8,6.2-6.2,6.2h4.6
	c3.5,0,6.2-2.8,6.2-6.2v-30.9C785.9,494.9,783.1,492.1,779.6,492.1z"/>
<rect id="XMLID_163_" x="271.8" y="635.1" class="st0" width="456.5" height="52"/>
<rect id="XMLID_112_" x="424.9" y="226.5" class="st8" width="38.1" height="64.5"/>
<rect id="XMLID_93_" x="418.6" y="226.5" class="st9" width="38.1" height="64.5"/>
<rect id="XMLID_107_" x="418.6" y="283.5" class="st10" width="38.1" height="6.5"/>
<rect id="XMLID_179_" x="456.7" y="283.5" class="st10" width="6.3" height="6.5"/>
<rect id="XMLID_40_" x="404.7" y="290" class="st8" width="86.3" height="40.8"/>
<polygon id="XMLID_101_" class="st11" points="372.3,676.4 433,509.6 396.9,496.4 331.3,676.4 "/>
<polygon id="XMLID_104_" class="st9" points="356.6,676.4 417.3,509.6 381.1,496.4 315.6,676.4 "/>
<polygon id="XMLID_150_" class="st10" points="395,501.5 381.1,496.4 354.6,569.3 411.2,569.3 433,509.6 396.9,496.4 "/>
<rect id="XMLID_21_" x="285.1" y="676.4" class="st9" width="56.3" height="26"/>
<rect id="XMLID_23_" x="334.3" y="676.4" class="st12" width="56.3" height="26"/>
<g id="XMLID_30_">
	<path id="XMLID_7_" class="st13" d="M682.6,414.2l-7.4,2c-0.9,0.2-1.5,1.1-1.5,2.2c-0.4,5.7,0,12.6,1.4,20.7
		c3.3,19.2,11.8,42.2,24.3,62.9c1.5,2.6,4.5,1.8,4.6-1.2c0.6-24.2-3.3-48.4-9.9-66.7c-2.8-7.7-5.8-13.9-9-18.7
		C684.4,414.5,683.5,414,682.6,414.2z"/>
	<path id="XMLID_6_" class="st14" d="M694.1,434.1c-2.8-7.7-5.8-13.9-9-18.7c-0.6-1-1.6-1.4-2.4-1.2l-3.4,0.9
		c0.8,1.1,1.8,2.3,2.7,3.7c0,0,1.4,2.2,2.8,4.6c7.8,13.9,10.8,26.7,13.3,37.6c1.8,7.8,2.5,13.3,3.8,24.3c0.5,3.8,1.7,14.2,0.4,18.1
		c0.9-0.3,1.7-1.2,1.7-2.7C704.6,476.7,700.7,452.5,694.1,434.1z"/>
	<path id="XMLID_2_" class="st15" d="M670.3,385.9c0-0.4-0.4-0.5-0.7-0.3c-2.3,2.8-7.8,10.7-6.1,20.4c0.2,1.1,2.1,11.3,9.8,14.8
		c2.5,1.1,4.4,1,4.8,1c4.6-0.3,8.8-4.6,9.8-9.1c1.3-5.8-2.8-12-7.2-14.5c-2.2-1.3-4.2-1.4-6.8-3.9c-2.6-2.4-3.3-4.7-3.4-5.2
		C670.2,387.9,670.2,386.8,670.3,385.9z"/>
	<path id="XMLID_8_" class="st16" d="M680.8,398.2c-2.2-1.3-4.2-1.4-6.8-3.9c-2.6-2.4-3.3-4.7-3.4-5.2c-0.3-1.1-0.3-2.2-0.3-3
		c0-0.2-0.1-0.4-0.3-0.4c-0.2,1-0.4,2.4-0.1,4c0.1,0.6,0.6,3,3,5.8c2.5,2.8,4.5,3.1,6.6,4.7c4.2,3,7.9,9.9,6.1,15.8
		c-0.4,1.2-0.9,2.3-1.6,3.4c2-1.7,3.5-4.1,4-6.6C689.2,406.9,685.1,400.7,680.8,398.2z"/>
	<path id="XMLID_36_" class="st17" d="M673.9,394.3c-2.6-2.4-3.3-4.7-3.4-5.2c-0.3-1.2-0.3-2.3-0.3-3.1c0-0.4-0.4-0.5-0.7-0.3
		c-2.1,2.6-6.9,9.5-6.3,18.1c0,0,0.1,0.7,0.1,0.9v16.5c0,1,0.8,1.9,1.9,1.9h0c1,0,1.9-0.8,1.9-1.9v-15.6c0-0.7,0.6-1.3,1.3-1.3
		s1.3,0.6,1.3,1.3v2.9c0,0.8,0.5,1.5,1.3,1.6c1,0.2,1.8-0.6,1.8-1.6v-1.1c0-1.2-0.1-4.2,2-4.7c4.6-1.1,4.7-1.9,5.7-4.6l0,0
		C678.5,396.9,676.6,396.8,673.9,394.3z"/>
</g>
<rect id="XMLID_53_" x="781.9" y="551.5" transform="matrix(-1 -6.657531e-11 6.657531e-11 -1 1573.7675 1253)" class="st18" width="10" height="150"/>
<rect id="XMLID_22_" x="769.9" y="551.5" transform="matrix(-1 -4.426205e-11 4.426205e-11 -1 1551.7675 1253)" class="st19" width="12" height="150"/>
<rect id="XMLID_70_" x="717.9" y="667.3" class="st20" width="58" height="13"/>
<rect id="XMLID_16_" x="717.9" y="551.5" class="st20" width="58" height="40"/>
<path id="XMLID_126_" class="st21" d="M764.3,569.9h-4.8c-1.7,0-3-1.3-3-3l0,0c0-1.7,1.3-3,3-3h4.8c1.7,0,3,1.3,3,3l0,0
	C767.3,568.5,766,569.9,764.3,569.9z"/>
<path id="XMLID_124_" class="st21" d="M768.3,579.1h-23.2c-1.7,0-3-1.3-3-3l0,0c0-1.7,1.3-3,3-3h23.2c1.7,0,3,1.3,3,3l0,0
	C771.3,577.8,770,579.1,768.3,579.1z"/>
<path id="XMLID_122_" class="st21" d="M751.1,569.9h-13.7c-1.7,0-3-1.3-3-3l0,0c0-1.7,1.3-3,3-3h13.7c1.7,0,3,1.3,3,3l0,0
	C754.1,568.5,752.8,569.9,751.1,569.9z"/>
<polygon id="XMLID_162_" class="st22" points="397.5,583.3 385,617.5 490.6,617.5 490.6,583.3 "/>
<polygon id="XMLID_165_" class="st23" points="397.5,583.3 385,617.5 391.8,617.5 404.3,583.3 "/>
<g id="XMLID_33_">
	<polygon id="XMLID_15_" class="st24" points="723.1,391.1 718.3,390.4 712.2,401.2 725.8,403.2 	"/>
	<path id="XMLID_4_" class="st13" d="M706.7,491.6l-1.7-0.2c-3.3-0.5-5.5-3.5-5.1-6.8l12.3-83.3l13.5,2l-12.3,83.3
		C713,489.8,709.9,492.1,706.7,491.6z"/>
	<path id="XMLID_10_" class="st14" d="M702.6,491L702.6,491c-1.9-0.3-3.3-2.1-3-4l12.7-85.8l3.5,0.5L702.6,491z"/>
	<path id="XMLID_12_" class="st14" d="M709.1,491.9L709.1,491.9l13.2-89.3l3.5,0.5l-12.7,85.8C712.8,490.9,711,492.2,709.1,491.9z"
		/>
	<path id="XMLID_25_" class="st15" d="M723.1,391.1l-1.1-5c-0.2-0.7-0.9-0.9-1.3-0.2l-2.5,4.4L723.1,391.1z"/>
	<polygon id="XMLID_14_" class="st25" points="723.1,391.1 720.8,390.7 722.3,402.7 725.8,403.2 	"/>
</g>
<rect id="XMLID_51_" x="633.9" y="551.5" transform="matrix(-1 -6.657531e-11 6.657531e-11 -1 1277.7675 1253)" class="st18" width="10" height="150"/>
<rect id="XMLID_45_" x="621.9" y="551.5" transform="matrix(-1 -4.426205e-11 4.426205e-11 -1 1255.7675 1253)" class="st19" width="12" height="150"/>
<rect id="XMLID_18_" x="717.9" y="551.5" transform="matrix(-1 -6.657531e-11 6.657531e-11 -1 1445.7675 1253)" class="st18" width="10" height="150"/>
<rect id="XMLID_11_" x="705.9" y="551.5" transform="matrix(-1 -4.426205e-11 4.426205e-11 -1 1423.7675 1253)" class="st19" width="12" height="150"/>
<rect id="XMLID_62_" x="638.4" y="551.5" class="st19" width="67.5" height="40"/>
<rect id="XMLID_68_" x="638.4" y="667.3" class="st19" width="67.5" height="13"/>
<polygon id="XMLID_98_" class="st11" points="553.5,676.4 487.9,496.4 451.8,509.6 512.5,676.4 "/>
<polygon id="XMLID_95_" class="st9" points="541.9,676.4 476.4,496.4 440.3,509.6 501,676.4 "/>
<polygon id="XMLID_152_" class="st10" points="487.9,496.4 477.7,500.1 476.4,496.4 440.3,509.6 462,569.3 514.5,569.3 "/>
<path id="XMLID_49_" class="st8" d="M304,557h-19.2v-16.6c0-6,4.9-10.9,10.9-10.9h8.4V557z"/>
<path id="XMLID_48_" class="st9" d="M582.5,557H284.8v-16.6c0-6,4.9-10.9,10.9-10.9h286.9V557z"/>
<path id="XMLID_47_" class="st8" d="M582.5,557h-19.2v-16.6c0-6,4.9-10.9,10.9-10.9h8.4V557z"/>
<rect id="XMLID_64_" x="324.5" y="330.8" class="st8" width="240.4" height="198.7"/>
<rect id="XMLID_44_" x="309.3" y="330.8" class="st26" width="240.4" height="198.7"/>
<rect id="XMLID_26_" x="476.3" y="676.4" class="st9" width="56.3" height="26"/>
<rect id="XMLID_24_" x="525.6" y="676.4" class="st12" width="56.3" height="26"/>
<rect id="XMLID_5_" x="611.9" y="535.5" class="st19" width="106" height="16"/>
<rect id="XMLID_17_" x="717.9" y="535.5" class="st18" width="80" height="16"/>
<rect id="XMLID_60_" x="638.4" y="551.5" class="st27" width="67.5" height="5.5"/>
<rect id="XMLID_61_" x="709.9" y="569.5" transform="matrix(7.576079e-11 -1 1 7.576079e-11 158.3837 1301.3837)" class="st28" width="40" height="4"/>
<rect id="XMLID_71_" x="723.4" y="671.8" transform="matrix(2.331105e-10 -1 1 2.331105e-10 56.0504 1403.717)" class="st28" width="13" height="4"/>
<rect id="XMLID_63_" x="729.9" y="551.5" transform="matrix(-1 -1.454402e-10 1.454402e-10 -1 1505.7675 1108.5453)" class="st28" width="46" height="5.5"/>
<rect id="XMLID_65_" x="705.9" y="551.5" class="st27" width="12" height="0.6"/>
<rect id="XMLID_67_" x="621.9" y="551.5" class="st27" width="12" height="0.6"/>
<circle id="XMLID_74_" class="st27" cx="674.9" cy="572.5" r="5.5"/>
<circle id="XMLID_66_" class="st29" cx="672.1" cy="572" r="5.5"/>
<ellipse id="XMLID_72_" transform="matrix(0.996 -8.880485e-02 8.880485e-02 0.996 -47.9474 61.7955)" class="st30" cx="670.5" cy="569.8" rx="2.1" ry="1.7"/>
<path id="XMLID_76_" class="st31" d="M701.1,565.7h-11c-1.7,0-3-1.3-3-3l0,0c0-1.7,1.3-3,3-3h11c1.7,0,3,1.3,3,3l0,0
	C704.1,564.4,702.8,565.7,701.1,565.7z"/>
<path id="XMLID_79_" class="st31" d="M695.2,575h-7.4c-1.7,0-3-1.3-3-3l0,0c0-1.7,1.3-3,3-3h7.4c1.7,0,3,1.3,3,3l0,0
	C698.2,573.7,696.8,575,695.2,575z"/>
<path id="XMLID_80_" class="st32" d="M681.8,586.1h-36c-1.7,0-3-1.3-3-3l0,0c0-1.7,1.3-3,3-3h36c1.7,0,3,1.3,3,3l0,0
	C684.8,584.7,683.5,586.1,681.8,586.1z"/>
<path id="XMLID_77_" class="st33" d="M662.8,586.1h-5.3c-1.7,0-3-1.3-3-3l0,0c0-1.7,1.3-3,3-3h5.2c1.7,0,3,1.3,3,3l0,0
	C665.8,584.7,664.5,586.1,662.8,586.1z"/>
<path id="XMLID_78_" class="st31" d="M671.9,565.7h-25c-1.7,0-3-1.3-3-3l0,0c0-1.7,1.3-3,3-3h25c1.7,0,3,1.3,3,3l0,0
	C674.9,564.4,673.6,565.7,671.9,565.7z"/>
<path id="XMLID_91_" class="st34" d="M732.1,535.5h-56c-4.4,0-8-3.6-8-8v-68.2c0-1.7,1.3-3,3-3h66c1.7,0,3,1.3,3,3v68.2
	C740.1,531.9,736.5,535.5,732.1,535.5z"/>
<path id="XMLID_129_" class="st35" d="M723.2,456.3v71.2c0,4.4-3.6,8-8,8h17c4.4,0,8-3.6,8-8v-68.2c0-1.7-1.3-3-3-3H723.2z"/>
<path id="XMLID_31_" class="st14" d="M248.8,623.6h-43.4v-11.3c0-2.5,2-4.5,4.5-4.5h34.4c2.5,0,4.5,2,4.5,4.5V623.6z"/>
<path id="XMLID_171_" class="st36" d="M244.3,607.8h-4.8c2.5,0,4.5,2,4.5,4.5v11.3h4.8v-11.3C248.8,609.8,246.8,607.8,244.3,607.8z"
	/>
<path id="XMLID_32_" class="st13" d="M251.7,702.3h-49.1c-3.5,0-6.2-2.8-6.2-6.2v-66.2c0-3.5,2.8-6.2,6.2-6.2h49.1
	c3.5,0,6.2,2.8,6.2,6.2V696C257.9,699.5,255.1,702.3,251.7,702.3z"/>
<path id="XMLID_155_" class="st14" d="M250.6,623.6h-8.2c4.1,0,7.3,3.3,7.3,7.3v64c0,4.1-3.3,7.3-7.3,7.3h8.2c4.1,0,7.3-3.3,7.3-7.3
	v-64C257.9,626.9,254.7,623.6,250.6,623.6z"/>
<path id="XMLID_38_" class="st17" d="M208.4,645.2h-0.8c-1.2,0-2.2-1-2.2-2.2v-19.3h5.1V643C210.5,644.2,209.6,645.2,208.4,645.2z"
	/>
<rect id="XMLID_41_" x="210.5" y="623.6" class="st17" width="5.1" height="7"/>
<path id="XMLID_97_" class="st13" d="M213.5,633.3h-0.8c-1.2,0-2.2-1-2.2-2.2v-1.7c0-1.2,1-2.2,2.2-2.2h0.8c1.2,0,2.2,1,2.2,2.2v1.7
	C215.7,632.3,214.7,633.3,213.5,633.3z"/>
<path id="XMLID_42_" class="st17" d="M218.6,633.7h-0.8c-1.2,0-2.2-1-2.2-2.2v-7.9h5.1v7.9C220.8,632.7,219.8,633.7,218.6,633.7z"/>
<rect id="XMLID_27_" x="390.5" y="290" class="st9" width="86.3" height="40.8"/>
<circle id="XMLID_111_" class="st10" cx="439.8" cy="310.4" r="10.3"/>
<circle id="XMLID_28_" class="st37" cx="437.1" cy="310.4" r="10.3"/>
<rect id="XMLID_34_" x="196.3" y="648.9" class="st34" width="61.6" height="26.2"/>
<rect id="XMLID_114_" x="250.2" y="648.9" class="st38" width="7.8" height="26.2"/>
<path id="XMLID_167_" class="st17" d="M659.2,664.9c-1.9,0-3.5-1.6-3.5-3.5c0-1.9,1.6-3.5,3.5-3.5h42.1v-2.5h-42.1c-3.3,0-6,2.7-6,6
	s2.7,6,6,6h42.1v-2.5H659.2z"/>
<path id="XMLID_159_" class="st39" d="M659.2,664.9c-1.9,0-3.5-1.6-3.5-3.5c0-1.9,1.6-3.5,3.5-3.5h40.2v7H659.2z"/>
<rect id="XMLID_209_" x="682.4" y="657.9" class="st40" width="17" height="7"/>
<rect id="XMLID_153_" x="682.4" y="655.4" class="st40" width="18.9" height="2.4"/>
<rect id="XMLID_180_" x="682.4" y="664.9" class="st40" width="18.9" height="2.4"/>
<path id="XMLID_128_" class="st17" d="M171.5,702.3c0-3.6,2.9-6.6,6.6-6.6s6.6,2.9,6.6,6.6H171.5z"/>
<path id="XMLID_130_" class="st41" d="M181.3,702.3c0-1.8,1.5-3.3,3.3-3.3c1.8,0,3.3,1.5,3.3,3.3H181.3z"/>
</svg>
