<?xml version="1.0" encoding="utf-8"?>
<!-- Generator: Adobe Illustrator 23.1.1, SVG Export Plug-In . SVG Version: 6.00 Build 0)  -->
<svg version="1.1" id="Layer_1" xmlns="http://www.w3.org/2000/svg" xmlns:xlink="http://www.w3.org/1999/xlink" x="0px" y="0px"
	 viewBox="0 0 1000 1000" style="enable-background:new 0 0 1000 1000;" xml:space="preserve">
<style type="text/css">
	.st0{fill:#3A3D41;}
	.st1{fill:#EEF2F4;}
	.st2{opacity:0.67;fill:#2F3133;}
	.st3{fill:#56242A;}
	.st4{fill:none;stroke:#56242A;stroke-width:4;stroke-linecap:round;stroke-linejoin:round;stroke-miterlimit:10;}
	.st5{opacity:0.53;fill:none;stroke:#FFFFFF;stroke-width:4;stroke-linecap:round;stroke-miterlimit:10;}
	.st6{opacity:0.53;fill:#FFFFFF;}
	.st7{fill:none;stroke:#FFFFFF;stroke-width:4;stroke-linecap:round;stroke-miterlimit:10;}
	.st8{opacity:0.29;}
	.st9{fill:#FFFFFF;}
	.st10{opacity:0.47;fill:#F9DEDC;}
	.st11{fill:none;stroke:#56242A;stroke-width:6;stroke-linecap:round;stroke-linejoin:round;stroke-miterlimit:10;}
	.st12{fill:#DA4328;}
	.st13{opacity:0.34;fill:#BC2F1D;}
	.st14{fill:#E85642;}
	.st15{fill:#843949;}
	.st16{filter:url(#Adobe_OpacityMaskFilter);}
	.st17{mask:url(#XMLID_2_);}
	.st18{fill:none;stroke:#934451;stroke-width:4;stroke-linecap:round;stroke-linejoin:round;stroke-miterlimit:10;}
	.st19{fill:none;stroke:#56242A;stroke-width:2;stroke-linecap:round;stroke-linejoin:round;stroke-miterlimit:10;}
	.st20{opacity:0.44;fill:#542934;}
	.st21{opacity:0.17;fill:#BA7483;}
	.st22{opacity:0.4;fill:#542934;}
	.st23{opacity:0.54;fill:#BC2F1D;stroke:#BC2F1D;stroke-width:4;stroke-linecap:round;stroke-linejoin:round;stroke-miterlimit:10;}
	.st24{fill:#DDDBDB;}
	.st25{fill:#EA1B3D;}
	.st26{fill:#D11539;}
	.st27{opacity:0.66;fill:#FFFFFF;}
	.st28{opacity:0.32;fill:#898989;}
</style>
<rect id="XMLID_14_" class="st0" width="1000" height="1000"/>
<g>
	<g>
		<g>
			<path class="st1" d="M63.2,959.2c0,2.5-1.2,3.7-2.6,3.7c-1.1,0-1.9-0.5-2.1-1.4c-0.4,0.5-1,0.8-1.8,0.8c-1.5,0-2.6-1.2-2.6-2.8
				c0-1.6,1.1-2.8,2.6-2.8c0.7,0,1.2,0.3,1.6,0.7v-0.5h1.6v3.9c0,0.8,0.3,1.4,1,1.4c0.9,0,1.7-0.9,1.7-3c0-3-2.3-5.3-5.4-5.3
				c-3.1,0-5.6,2.4-5.6,5.7c0,3.3,2.5,5.7,5.9,5.7c1.1,0,2.1-0.2,2.9-0.4v0.6c-0.8,0.3-1.7,0.4-2.9,0.4c-3.7,0-6.5-2.6-6.5-6.2
				c0-3.4,2.7-6.2,6.2-6.2C61.1,953.3,63.2,956.4,63.2,959.2z M58.3,959.5c0-0.8-0.6-1.4-1.3-1.4c-0.8,0-1.3,0.5-1.3,1.4
				c0,0.8,0.6,1.3,1.3,1.3C57.8,960.9,58.3,960.3,58.3,959.5z"/>
		</g>
		<g>
			<path class="st1" d="M69.4,955.1v2c-1.2-0.1-2.6,0.5-2.6,2.4v4.3h-1.9v-8.6h1.9v1.4C67.3,955.5,68.3,955.1,69.4,955.1z"/>
		</g>
		<g>
			<path class="st1" d="M74.6,962.3c1,0,1.8-0.5,2.2-1.1l1.5,0.9c-0.8,1.2-2.1,1.9-3.8,1.9c-2.8,0-4.7-1.9-4.7-4.5
				c0-2.5,1.8-4.5,4.5-4.5c2.6,0,4.3,2.1,4.3,4.5c0,0.3,0,0.5-0.1,0.8h-6.8C72.1,961.6,73.2,962.3,74.6,962.3z M76.9,958.8
				c-0.3-1.5-1.3-2.1-2.5-2.1c-1.4,0-2.3,0.8-2.6,2.1H76.9z"/>
		</g>
		<g>
			<path class="st1" d="M88.9,955.2v8.6h-1.9v-1.2c-0.7,0.9-1.7,1.5-3,1.5c-2.3,0-4.3-2-4.3-4.5c0-2.6,1.9-4.5,4.3-4.5
				c1.3,0,2.3,0.5,3,1.4v-1.2H88.9z M87.1,959.5c0-1.6-1.2-2.7-2.7-2.7c-1.5,0-2.7,1.1-2.7,2.7c0,1.6,1.2,2.7,2.7,2.7
				C85.9,962.3,87.1,961.1,87.1,959.5z"/>
		</g>
		<g>
			<path class="st1" d="M91.1,951.3H93v12.5h-1.9V951.3z"/>
		</g>
		<g>
			<path class="st1" d="M102.9,955.2l-3.3,8.6h-2.1l-3.3-8.6h2l2.4,6.5l2.4-6.5H102.9z"/>
		</g>
		<g>
			<path class="st1" d="M104.2,955.2h1.9v8.9c0,2.4-1.2,3.5-3.5,3.3v-1.8c1.1,0.1,1.7-0.3,1.7-1.5V955.2z M104,952.8
				c0-0.7,0.5-1.2,1.2-1.2c0.7,0,1.2,0.5,1.2,1.2c0,0.6-0.5,1.2-1.2,1.2C104.5,954,104,953.4,104,952.8z"/>
		</g>
		<g>
			<path class="st1" d="M116,955.2l-3.3,8.8c-0.8,2.2-2.2,3.3-4.2,3.2v-1.7c1.2,0.1,1.9-0.5,2.3-1.7l0.1-0.2l-3.6-8.4h2l2.6,6.2
				l2.2-6.2H116z"/>
		</g>
	</g>
	<g>
		<path class="st1" d="M211.9,938.7c0,2.1-1.5,3.8-3.6,3.8h-3v-7.6h3C210.4,934.9,211.9,936.6,211.9,938.7z M210.9,938.7
			c0-1.6-1.1-2.9-2.6-2.9h-2v5.7h2C209.8,941.6,210.9,940.3,210.9,938.7z"/>
		<path class="st1" d="M219.5,940.8h-3.4l-0.6,1.7h-1.1l2.8-7.6h1.1l2.8,7.6h-1.1L219.5,940.8z M219.2,939.9l-1.4-3.8l-1.4,3.8
			H219.2z"/>
		<path class="st1" d="M226.4,939.4v3.1h-1v-3.1l-2.7-4.5h1.1l2.1,3.6l2.1-3.6h1.1L226.4,939.4z"/>
		<path class="st1" d="M236.9,941.7l2.7-2.7c0.6-0.6,1.1-1.2,1.1-1.9c0-0.9-0.6-1.4-1.4-1.4c-0.7,0-1.2,0.3-1.6,1l-0.8-0.5
			c0.5-1,1.4-1.5,2.4-1.5c1.2,0,2.4,0.8,2.4,2.3c0,0.9-0.6,1.8-1.4,2.5l-2,1.9h3.5v1h-4.9V941.7z"/>
		<path class="st1" d="M249.9,940.3c0,1.5-1.2,2.4-2.6,2.4c-1.1,0-2.1-0.5-2.5-1.5l0.9-0.5c0.2,0.7,0.8,1.1,1.7,1.1
			c0.9,0,1.6-0.5,1.6-1.4c0-0.9-0.7-1.4-1.6-1.4H247l-0.4-0.6l1.8-2.4H245v-0.9h4.6v0.9l-1.7,2.2C249,938.2,249.9,939,249.9,940.3z"
			/>
	</g>
	<g>
		<path class="st1" d="M58.9,938.7c0,2.1-1.5,3.8-3.6,3.8h-3v-7.6h3C57.4,934.9,58.9,936.6,58.9,938.7z M57.9,938.7
			c0-1.6-1.1-2.9-2.6-2.9h-2v5.7h2C56.8,941.6,57.9,940.3,57.9,938.7z"/>
		<path class="st1" d="M67,941.6v1h-4.6v-7.6h4.5v1h-3.5v2.3h3.2v0.9h-3.2v2.4H67z"/>
		<path class="st1" d="M70,940.8l0.9-0.5c0.3,0.8,0.9,1.4,2,1.4c1.1,0,1.6-0.5,1.6-1.2c0-0.8-0.7-1-1.8-1.4
			c-1.2-0.4-2.4-0.8-2.4-2.2c0-1.4,1.1-2.2,2.4-2.2c1.3,0,2.2,0.7,2.6,1.7l-0.8,0.5c-0.3-0.7-0.8-1.2-1.7-1.2
			c-0.8,0-1.4,0.4-1.4,1.1c0,0.7,0.5,1,1.6,1.3c1.3,0.4,2.6,0.8,2.6,2.3c0,1.3-1.1,2.2-2.6,2.2C71.5,942.7,70.4,941.9,70,940.8z"/>
		<path class="st1" d="M80,934.9v7.6h-1v-7.6H80z"/>
		<path class="st1" d="M91.3,939.2c0,1.9-1.4,3.5-3.7,3.5c-2.4,0-4-1.8-4-4c0-2.2,1.7-4,4-4c1.4,0,2.7,0.8,3.3,1.8l-0.9,0.5
			c-0.4-0.8-1.4-1.4-2.4-1.4c-1.8,0-3,1.3-3,3c0,1.7,1.2,3,3,3c1.6,0,2.5-0.9,2.7-2h-2.8v-0.9h3.8V939.2z"/>
		<path class="st1" d="M100.6,934.9v7.6h-0.8l-3.9-5.7v5.7h-1v-7.6h0.8l3.9,5.7v-5.7H100.6z"/>
		<path class="st1" d="M109.1,941.6v1h-4.6v-7.6h4.5v1h-3.5v2.3h3.2v0.9h-3.2v2.4H109.1z"/>
		<path class="st1" d="M119.2,938.7c0,2.1-1.5,3.8-3.6,3.8h-3v-7.6h3C117.6,934.9,119.2,936.6,119.2,938.7z M118.2,938.7
			c0-1.6-1.1-2.9-2.6-2.9h-2v5.7h2C117.1,941.6,118.2,940.3,118.2,938.7z"/>
		<path class="st1" d="M133.2,940.4c0,1.2-1,2.2-2.2,2.2h-3.3v-7.6h3c1.2,0,2.1,0.9,2.1,2.1c0,0.7-0.3,1.2-0.8,1.6
			C132.7,938.9,133.2,939.5,133.2,940.4z M128.7,935.8v2.3h2c0.6,0,1.1-0.5,1.1-1.2c0-0.6-0.5-1.2-1.1-1.2H128.7z M132.2,940.3
			c0-0.7-0.5-1.2-1.2-1.2h-2.3v2.5h2.3C131.7,941.6,132.2,941,132.2,940.3z"/>
		<path class="st1" d="M139.4,939.4v3.1h-1v-3.1l-2.7-4.5h1.1l2.1,3.6l2.1-3.6h1.1L139.4,939.4z"/>
	</g>
	<g>
		<path class="st1" d="M209.9,959.8h-2.4v4.5h-2v-12.4h5c2.2,0,4,1.8,4,4c0,1.6-1,3-2.5,3.6l2.8,4.8h-2.2L209.9,959.8z M207.5,958
			h2.9c1.1,0,1.9-0.9,1.9-2.1c0-1.2-0.9-2.1-1.9-2.1h-2.9V958z"/>
		<path class="st1" d="M224.6,955.4v8.9h-1.9V963c-0.7,0.9-1.7,1.5-3.1,1.5c-2.4,0-4.4-2-4.4-4.7c0-2.6,2-4.7,4.4-4.7
			c1.4,0,2.4,0.6,3.1,1.5v-1.3H224.6z M222.7,959.9c0-1.6-1.2-2.8-2.8-2.8c-1.6,0-2.8,1.2-2.8,2.8c0,1.6,1.2,2.8,2.8,2.8
			C221.5,962.7,222.7,961.5,222.7,959.9z"/>
		<path class="st1" d="M235.8,951.9v12.4h-1.9V963c-0.7,0.9-1.7,1.5-3.1,1.5c-2.4,0-4.4-2-4.4-4.7c0-2.6,2-4.7,4.4-4.7
			c1.4,0,2.4,0.6,3.1,1.5v-4.8H235.8z M233.9,959.9c0-1.6-1.2-2.8-2.8-2.8c-1.6,0-2.8,1.2-2.8,2.8c0,1.6,1.2,2.8,2.8,2.8
			C232.7,962.7,233.9,961.5,233.9,959.9z"/>
		<path class="st1" d="M237.8,952.9c0-0.7,0.5-1.2,1.2-1.2c0.7,0,1.2,0.5,1.2,1.2c0,0.7-0.5,1.2-1.2,1.2
			C238.3,954.1,237.8,953.6,237.8,952.9z M238,955.4h1.9v8.9H238V955.4z"/>
		<path class="st1" d="M241.7,959.9c0-2.6,2.1-4.7,4.7-4.7c2.6,0,4.7,2,4.7,4.7c0,2.6-2.1,4.7-4.7,4.7
			C243.8,964.5,241.7,962.5,241.7,959.9z M249.1,959.9c0-1.6-1.2-2.8-2.8-2.8s-2.8,1.2-2.8,2.8c0,1.6,1.2,2.8,2.8,2.8
			S249.1,961.5,249.1,959.9z"/>
	</g>
	<g>
		<g>
			<path class="st1" d="M846.1,938.7c0,2.1-1.5,3.8-3.6,3.8h-3v-7.6h3C844.6,934.9,846.1,936.6,846.1,938.7z M845.2,938.7
				c0-1.6-1.1-2.9-2.6-2.9h-2v5.7h2C844.1,941.6,845.2,940.3,845.2,938.7z"/>
		</g>
		<g>
			<path class="st1" d="M849.3,938.7c0-2.2,1.7-4,3.9-4c2.2,0,4,1.8,4,4c0,2.2-1.7,4-4,4C851,942.7,849.3,940.9,849.3,938.7z
				 M856.1,938.7c0-1.7-1.3-3-2.9-3c-1.7,0-2.9,1.3-2.9,3c0,1.7,1.3,3,2.9,3C854.9,941.7,856.1,940.4,856.1,938.7z"/>
		</g>
		<g>
			<path class="st1" d="M859.8,934.9h1.1l1.7,6.3l1.9-6.3h1l1.9,6.3l1.7-6.3h1.1l-2.2,7.6h-1.2l-1.8-6.1l-1.8,6.1H862L859.8,934.9z"
				/>
		</g>
		<g>
			<path class="st1" d="M879.3,934.9v7.6h-0.8l-3.9-5.7v5.7h-1v-7.6h0.8l3.9,5.7v-5.7H879.3z"/>
		</g>
		<g>
			<path class="st1" d="M887.5,941.6v1h-4.3v-7.6h1v6.7H887.5z"/>
		</g>
		<g>
			<path class="st1" d="M889.9,938.7c0-2.2,1.7-4,3.9-4c2.2,0,4,1.8,4,4c0,2.2-1.7,4-4,4C891.6,942.7,889.9,940.9,889.9,938.7z
				 M896.8,938.7c0-1.7-1.3-3-2.9-3c-1.7,0-2.9,1.3-2.9,3c0,1.7,1.3,3,2.9,3C895.5,941.7,896.8,940.4,896.8,938.7z"/>
		</g>
		<g>
			<path class="st1" d="M905.4,940.8H902l-0.6,1.7h-1.1l2.8-7.6h1.1l2.8,7.6H906L905.4,940.8z M905.1,939.9l-1.4-3.8l-1.4,3.8H905.1
				z"/>
		</g>
		<g>
			<path class="st1" d="M916.9,938.7c0,2.1-1.5,3.8-3.6,3.8h-3v-7.6h3C915.4,934.9,916.9,936.6,916.9,938.7z M915.9,938.7
				c0-1.6-1.1-2.9-2.6-2.9h-2v5.7h2C914.9,941.6,915.9,940.3,915.9,938.7z"/>
		</g>
		<g>
			<path class="st1" d="M926.5,935.8v2.5h3.2v1h-3.2v3.2h-1v-7.6h4.4v1H926.5z"/>
		</g>
		<g>
			<path class="st1" d="M936.2,939.6h-1.8v2.9h-1v-7.6h3c1.3,0,2.4,1.1,2.4,2.4c0,1-0.7,1.9-1.6,2.2l1.8,3.1h-1.1L936.2,939.6z
				 M934.4,938.7h2c0.8,0,1.4-0.6,1.4-1.4c0-0.8-0.6-1.4-1.4-1.4h-2V938.7z"/>
		</g>
		<g>
			<path class="st1" d="M941.9,938.7c0-2.2,1.7-4,3.9-4c2.2,0,4,1.8,4,4c0,2.2-1.7,4-4,4C943.6,942.7,941.9,940.9,941.9,938.7z
				 M948.8,938.7c0-1.7-1.3-3-2.9-3c-1.7,0-2.9,1.3-2.9,3c0,1.7,1.3,3,2.9,3C947.5,941.7,948.8,940.4,948.8,938.7z"/>
		</g>
		<g>
			<path class="st1" d="M960.4,942.5h-1v-6l-2.5,4.2h-0.1l-2.5-4.1v5.9h-1v-7.6h1.1l2.4,4l2.4-4h1.1V942.5z"/>
		</g>
	</g>
	<g>
		<g>
			<path class="st1" d="M839.3,952.9c0-0.7,0.5-1.2,1.2-1.2c0.7,0,1.2,0.5,1.2,1.2c0,0.7-0.5,1.2-1.2,1.2
				C839.9,954.1,839.3,953.6,839.3,952.9z M839.6,955.4h1.9v8.9h-1.9V955.4z"/>
		</g>
		<g>
			<path class="st1" d="M843.7,951.4h1.9v12.9h-1.9V951.4z"/>
		</g>
		<g>
			<path class="st1" d="M847.8,951.4h1.9v12.9h-1.9V951.4z"/>
		</g>
		<g>
			<path class="st1" d="M852,951.4h1.9v12.9H852V951.4z"/>
		</g>
		<g>
			<path class="st1" d="M864,955.4v8.9h-1.9v-1.1c-0.6,0.9-1.5,1.4-2.7,1.4c-2,0-3.4-1.3-3.4-3.6v-5.4h1.9v5.2c0,1.3,0.8,2.1,2,2.1
				c1.3,0,2.2-0.7,2.2-2.5v-4.7H864z"/>
		</g>
		<g>
			<path class="st1" d="M872.6,961.8c0,1.8-1.5,2.7-3.5,2.7c-1.8,0-3-0.8-3.6-2.1l1.6-1c0.3,0.8,1,1.3,2,1.3c0.8,0,1.5-0.3,1.5-1
				c0-1.6-4.8-0.7-4.8-3.9c0-1.7,1.4-2.7,3.2-2.7c1.5,0,2.7,0.7,3.3,1.8l-1.6,0.9c-0.3-0.7-0.9-1-1.7-1c-0.7,0-1.3,0.3-1.3,0.9
				C867.9,959.5,872.6,958.5,872.6,961.8z"/>
		</g>
		<g>
			<path class="st1" d="M876.7,957.3v4.2c0,1.1,0.7,1.1,2.2,1v1.7c-2.9,0.4-4.1-0.5-4.1-2.8v-4.2h-1.6v-1.8h1.6v-1.9l1.9-0.6v2.5
				h2.2v1.8H876.7z"/>
		</g>
		<g>
			<path class="st1" d="M885.4,955.3v2.1c-1.3-0.1-2.7,0.5-2.7,2.5v4.5h-1.9v-8.9h1.9v1.5C883.2,955.7,884.2,955.3,885.4,955.3z"/>
		</g>
		<g>
			<path class="st1" d="M895.3,955.4v8.9h-1.9V963c-0.7,0.9-1.7,1.5-3.1,1.5c-2.4,0-4.4-2-4.4-4.7c0-2.6,2-4.7,4.4-4.7
				c1.4,0,2.4,0.6,3.1,1.5v-1.3H895.3z M893.4,959.9c0-1.6-1.2-2.8-2.8-2.8c-1.6,0-2.8,1.2-2.8,2.8c0,1.6,1.2,2.8,2.8,2.8
				C892.2,962.7,893.4,961.5,893.4,959.9z"/>
		</g>
		<g>
			<path class="st1" d="M900.3,957.3v4.2c0,1.1,0.7,1.1,2.2,1v1.7c-2.9,0.4-4.1-0.5-4.1-2.8v-4.2h-1.6v-1.8h1.6v-1.9l1.9-0.6v2.5
				h2.2v1.8H900.3z"/>
		</g>
		<g>
			<path class="st1" d="M903.9,952.9c0-0.7,0.5-1.2,1.2-1.2c0.7,0,1.2,0.5,1.2,1.2c0,0.7-0.5,1.2-1.2,1.2
				C904.5,954.1,903.9,953.6,903.9,952.9z M904.2,955.4h1.9v8.9h-1.9V955.4z"/>
		</g>
		<g>
			<path class="st1" d="M907.8,959.9c0-2.6,2.1-4.7,4.7-4.7c2.6,0,4.7,2,4.7,4.7c0,2.6-2.1,4.7-4.7,4.7
				C909.9,964.5,907.8,962.5,907.8,959.9z M915.3,959.9c0-1.6-1.2-2.8-2.8-2.8c-1.6,0-2.8,1.2-2.8,2.8c0,1.6,1.2,2.8,2.8,2.8
				C914.1,962.7,915.3,961.5,915.3,959.9z"/>
		</g>
		<g>
			<path class="st1" d="M927,958.9v5.4h-1.9v-5.2c0-1.3-0.8-2.1-2-2.1c-1.3,0-2.2,0.7-2.2,2.5v4.7h-1.9v-8.9h1.9v1.1
				c0.6-0.9,1.5-1.4,2.7-1.4C925.5,955.2,927,956.6,927,958.9z"/>
		</g>
		<g>
			<path class="st1" d="M935.5,961.8c0,1.8-1.5,2.7-3.5,2.7c-1.8,0-3-0.8-3.6-2.1l1.6-1c0.3,0.8,1,1.3,2,1.3c0.8,0,1.5-0.3,1.5-1
				c0-1.6-4.8-0.7-4.8-3.9c0-1.7,1.4-2.7,3.2-2.7c1.5,0,2.7,0.7,3.3,1.8l-1.6,0.9c-0.3-0.7-0.9-1-1.7-1c-0.7,0-1.3,0.3-1.3,0.9
				C930.7,959.5,935.5,958.5,935.5,961.8z"/>
		</g>
		<g>
			<path class="st1" d="M936.8,963.2c0-0.7,0.6-1.3,1.3-1.3c0.7,0,1.3,0.6,1.3,1.3c0,0.7-0.6,1.3-1.3,1.3
				C937.4,964.5,936.8,963.9,936.8,963.2z"/>
		</g>
		<g>
			<path class="st1" d="M940.3,959.9c0-2.6,2-4.7,4.7-4.7c1.7,0,3.2,0.9,3.9,2.3l-1.6,1c-0.4-0.8-1.3-1.4-2.3-1.4
				c-1.6,0-2.7,1.2-2.7,2.8c0,1.6,1.2,2.8,2.7,2.8c1.1,0,1.9-0.5,2.4-1.4l1.6,0.9c-0.7,1.4-2.2,2.3-4,2.3
				C942.3,964.5,940.3,962.5,940.3,959.9z"/>
		</g>
		<g>
			<path class="st1" d="M949.7,959.9c0-2.6,2.1-4.7,4.7-4.7c2.6,0,4.7,2,4.7,4.7c0,2.6-2.1,4.7-4.7,4.7
				C951.8,964.5,949.7,962.5,949.7,959.9z M957.2,959.9c0-1.6-1.2-2.8-2.8-2.8s-2.8,1.2-2.8,2.8c0,1.6,1.2,2.8,2.8,2.8
				S957.2,961.5,957.2,959.9z"/>
		</g>
	</g>
</g>
<ellipse id="XMLID_5_" class="st2" cx="509" cy="708.8" rx="280.6" ry="14.9"/>
<g id="XMLID_110_">
	<polygon id="XMLID_100_" class="st3" points="352.1,472.3 336.7,457 469.3,328.4 480.6,339.8 	"/>
	<polygon id="XMLID_13_" class="st4" points="352.1,472.3 336.7,457 469.3,328.4 480.6,339.8 	"/>
	<polygon id="XMLID_101_" class="st3" points="478.9,338.1 471,330.2 602.6,200.6 608.4,206.5 	"/>
	<line id="XMLID_106_" class="st5" x1="602.4" y1="205.4" x2="476.1" y2="329.1"/>
	<line id="XMLID_109_" class="st5" x1="468.1" y1="338.3" x2="341.8" y2="462"/>
	<polygon id="XMLID_15_" class="st4" points="478.9,338.1 471,330.2 602.6,200.6 608.4,206.5 	"/>
	<g id="XMLID_108_">
		<path id="XMLID_102_" class="st3" d="M605,186.6l-7,7c-0.6,0.6-0.7,1.6-0.2,2.3c4.4,5.8,9.5,10.9,15.3,15.3
			c0.7,0.5,1.7,0.4,2.3-0.2l7.1-7.1c0.6-0.6,0.7-1.6,0.2-2.3c-4.4-5.8-9.5-10.9-15.3-15.3C606.6,185.9,605.6,186,605,186.6z"/>
		<path id="XMLID_111_" class="st6" d="M621.9,202.5c-4-5.8-8.9-10.8-14.7-14.7c-0.7-0.5-1.8-0.2-2.6,0.6l-1.9,1.9
			c0.8-0.8-4.9,4-4.2,4.5c0.3,0.2,7.4-5,7.7-4.8c5.4,3.9,10.1,9,13.9,14.5c0.5,0.7,0.2,1.8-0.6,2.6l1.9-1.9
			C622.2,204.3,622.4,203.2,621.9,202.5z"/>
		<path id="XMLID_16_" class="st4" d="M605,186.6l-7,7c-0.6,0.6-0.7,1.6-0.2,2.3c4.4,5.8,9.5,10.9,15.3,15.3
			c0.7,0.5,1.7,0.4,2.3-0.2l7.1-7.1c0.6-0.6,0.7-1.6,0.2-2.3c-4.4-5.8-9.5-10.9-15.3-15.3C606.6,185.9,605.6,186,605,186.6z"/>
	</g>
	<path id="XMLID_107_" class="st7" d="M475.4,328.4"/>
	<path id="XMLID_105_" class="st7" d="M602.2,205.2"/>
</g>
<path id="XMLID_4_" class="st3" d="M725.1,415.8c-1.2-23.1-18.9-41.9-41.6-44.5c-119.8-13.9-240.8-13.9-360.5,0
	c-22.7,2.6-40.4,21.4-41.6,44.5c-1.8,33-0.6,65.6,3.5,99.2c0.3,0,0.7,0.1,1,0.1c-2.9-29.1-3.6-57.5-2.1-86.3
	c1.2-22.9,18.7-41.5,41.2-44.1c118.5-13.8,238.2-13.8,356.7,0c22.5,2.6,39.9,21.2,41.2,44.1c1.5,28.8,0.8,57.2-2.1,86.3
	c0.3,0,0.7-0.1,1-0.1C725.7,481.4,726.9,448.8,725.1,415.8z"/>
<g id="XMLID_124_" class="st8">
	<path id="XMLID_127_" class="st9" d="M281.4,424.8c1.2-23.1,18.9-41.9,41.6-44.5c119.8-13.9,240.8-13.9,360.5,0
		c22.7,2.6,40.4,21.4,41.6,44.5c0.4,8.2,0.7,16.3,0.8,24.4c0.1-11.5-0.2-22.9-0.8-34.4c-1.2-23.1-18.9-41.9-41.6-44.5
		c-119.8-13.9-240.8-13.9-360.5,0c-22.7,2.6-40.4,21.4-41.6,44.5c-0.6,11.5-0.9,22.9-0.8,34.4C280.7,441.1,281,433,281.4,424.8z"/>
	<path id="XMLID_128_" class="st9" d="M284.9,514c0.3,0,0.6,0.1,0.9,0.1c-1.8-17.4-2.7-34.5-2.9-51.7
		C282.8,479.6,283.5,496.7,284.9,514z"/>
	<path id="XMLID_129_" class="st9" d="M723.5,462.5c-0.2,17.1-1.1,34.3-2.9,51.7c0.3,0,0.6-0.1,0.9-0.1
		C723.1,496.7,723.7,479.6,723.5,462.5z"/>
</g>
<path id="XMLID_121_" class="st4" d="M725.1,415.8c-1.2-23.1-18.9-41.9-41.6-44.5c-119.8-13.9-240.8-13.9-360.5,0
	c-22.7,2.6-40.4,21.4-41.6,44.5c-1.8,33-0.6,65.6,3.5,99.2c0.3,0,0.7,0.1,1,0.1c-2.9-29.1-3.6-57.5-2.1-86.3
	c1.2-22.9,18.7-41.5,41.2-44.1c118.5-13.8,238.2-13.8,356.7,0c22.5,2.6,39.9,21.2,41.2,44.1c1.5,28.8,0.8,57.2-2.1,86.3
	c0.3,0,0.7-0.1,1-0.1C725.7,481.4,726.9,448.8,725.1,415.8z"/>
<path id="XMLID_21_" class="st3" d="M285,613.5h-21.7c-6,0-11-4.6-11.5-10.7c-2.2-23-2.2-46.1,0-69.1c0.6-6.1,5.5-10.7,11.5-10.7
	H285c6,0,11,4.6,11.5,10.7c2.2,23,2.2,46.1,0,69.1C296,608.8,291,613.5,285,613.5z"/>
<path id="XMLID_103_" class="st10" d="M257,602.8c-2.2-23-2.2-46.1,0-69.1c0.6-6.1,5.5-10.7,11.5-10.7h-5.2c-6,0-11,4.6-11.5,10.7
	c-2.2,23-2.2,46.1,0,69.1c0.6,6.1,5.5,10.7,11.5,10.7h5.2C262.6,613.5,257.6,608.8,257,602.8z"/>
<path id="XMLID_11_" class="st11" d="M285,613.5h-21.7c-6,0-11-4.6-11.5-10.7c-2.2-23-2.2-46.1,0-69.1c0.6-6.1,5.5-10.7,11.5-10.7
	H285c6,0,11,4.6,11.5,10.7c2.2,23,2.2,46.1,0,69.1C296,608.8,291,613.5,285,613.5z"/>
<path id="XMLID_18_" class="st12" d="M685.2,703.6c-119,10-238.5,10-357.5,0c-25-2.1-45.3-21.2-49-46c-8.9-59.9-8.9-118.9,0-178.8
	c3.7-24.8,23.9-43.9,49-46c119-10,238.5-10,357.5,0c25,2.1,45.3,21.2,49,46c8.9,59.9,8.9,118.9,0,178.8
	C730.5,682.5,710.2,701.5,685.2,703.6z"/>
<path id="XMLID_24_" class="st13" d="M734.2,480.8c-3.7-24.8-23.9-43.9-49-46c-84.1-7.1-168.5-9.1-252.7-6.2
	c77.6-1.5,155.3,1,232.7,7.5c26.4,2.2,47.7,22.3,51.6,48.5c9.4,63.2,9.4,125.4,0,188.5c-1.5,10.1-5.6,19.3-11.6,26.9
	c15.3-7.8,26.4-22.6,29-40.3C743,599.7,743,540.7,734.2,480.8z"/>
<path id="XMLID_104_" class="st14" d="M278.8,486.4c3.7-24.8,23.9-43.9,49-46c119-10,238.5-10,357.5,0c25,2.1,45.3,21.2,49,46
	c4.2,28.5,6.4,56.8,6.6,85.1c0.2-31.2-2-62.3-6.6-93.7c-3.7-24.8-23.9-43.9-49-46c-119-10-238.5-10-357.5,0c-25,2.1-45.3,21.2-49,46
	c-4.6,31.4-6.8,62.6-6.6,93.7C272.4,543.2,274.6,514.9,278.8,486.4z"/>
<path id="XMLID_26_" class="st13" d="M296.2,673.1c-9.4-63.2-9.4-125.4,0-188.5c3.9-26.2,25.2-46.3,51.6-48.5
	c77.4-6.5,155.1-9,232.7-7.5c-84.3-2.9-168.7-0.9-252.7,6.2c-25,2.1-45.3,21.2-49,46c-8.9,59.9-8.9,118.9,0,178.8
	c2.6,17.8,13.7,32.5,29,40.3C301.8,692.4,297.7,683.2,296.2,673.1z"/>
<path id="XMLID_27_" class="st14" d="M303.7,695.6c7.1,4.4,15.3,7.3,24.1,8c119,10,238.5,10,357.5,0c8.8-0.7,17-3.6,24.1-8
	C574.3,706.3,438.7,706.3,303.7,695.6z"/>
<path id="XMLID_19_" class="st15" d="M734.2,478.8c0-0.2-0.1-0.3-0.1-0.5c-10.5-10.1-25.1-16.3-41.1-16.1c-6.1,0.1-12.9,0.7-21,1.7
	c-57.3,5.8-139.3,49.1-177.3,78.3c-22.4,17.8-22.4,34.2,0,52c38,29.2,120,72.4,177.3,78.3c8.1,1.1,14.9,1.6,21,1.7
	c16.1,0.2,30.7-6,41.1-16.1c0-0.2,0.1-0.3,0.1-0.5C743,597.7,743,538.7,734.2,478.8z"/>
<defs>
	<filter id="Adobe_OpacityMaskFilter" filterUnits="userSpaceOnUse" x="475.8" y="468.8" width="276.1" height="198">
		
			<feColorMatrix  type="matrix" values="-1 0 0 0 1  0 -1 0 0 1  0 0 -1 0 1  0 0 0 1 0" color-interpolation-filters="sRGB" result="source"/>
	</filter>
</defs>
<mask maskUnits="userSpaceOnUse" x="475.8" y="468.8" width="276.1" height="198" id="XMLID_2_">
	<g id="XMLID_20_" class="st16">
		<path id="XMLID_23_" d="M734.2,478.8c0-0.2-0.1-0.3-0.1-0.5c-10.5-10.1-25.1-16.3-41.1-16.1c-6.1,0.1-12.9,0.7-21,1.7
			c-57.3,5.8-139.3,49.1-177.3,78.3c-22.4,17.8-22.4,34.2,0,52c38,29.2,120,72.4,177.3,78.3c8.1,1.1,14.9,1.6,21,1.7
			c16.1,0.2,30.7-6,41.1-16.1c0-0.2,0.1-0.3,0.1-0.5C743,597.7,743,538.7,734.2,478.8z"/>
	</g>
</mask>
<g id="XMLID_22_" class="st17">
	<g id="XMLID_96_">
		<line id="XMLID_99_" class="st18" x1="477.8" y1="662.8" x2="749.8" y2="662.8"/>
		<line id="XMLID_98_" class="st19" x1="477.8" y1="665.8" x2="749.8" y2="665.8"/>
	</g>
	<g id="XMLID_92_">
		<line id="XMLID_95_" class="st18" x1="477.8" y1="650.8" x2="749.8" y2="650.8"/>
		<line id="XMLID_94_" class="st19" x1="477.8" y1="653.8" x2="749.8" y2="653.8"/>
	</g>
	<g id="XMLID_88_">
		<line id="XMLID_91_" class="st18" x1="477.8" y1="638.8" x2="749.8" y2="638.8"/>
		<line id="XMLID_90_" class="st19" x1="477.8" y1="641.8" x2="749.8" y2="641.8"/>
	</g>
	<g id="XMLID_84_">
		<line id="XMLID_87_" class="st18" x1="477.8" y1="626.8" x2="749.8" y2="626.8"/>
		<line id="XMLID_86_" class="st19" x1="477.8" y1="629.8" x2="749.8" y2="629.8"/>
	</g>
	<g id="XMLID_80_">
		<line id="XMLID_83_" class="st18" x1="477.8" y1="614.8" x2="749.8" y2="614.8"/>
		<line id="XMLID_82_" class="st19" x1="477.8" y1="617.8" x2="749.8" y2="617.8"/>
	</g>
	<g id="XMLID_76_">
		<line id="XMLID_79_" class="st18" x1="477.8" y1="602.8" x2="749.8" y2="602.8"/>
		<line id="XMLID_78_" class="st19" x1="477.8" y1="605.8" x2="749.8" y2="605.8"/>
	</g>
	<g id="XMLID_72_">
		<line id="XMLID_75_" class="st18" x1="477.8" y1="590.8" x2="749.8" y2="590.8"/>
		<line id="XMLID_74_" class="st19" x1="477.8" y1="593.8" x2="749.8" y2="593.8"/>
	</g>
	<g id="XMLID_68_">
		<line id="XMLID_71_" class="st18" x1="477.8" y1="578.8" x2="749.8" y2="578.8"/>
		<line id="XMLID_70_" class="st19" x1="477.8" y1="581.8" x2="749.8" y2="581.8"/>
	</g>
	<g id="XMLID_64_">
		<line id="XMLID_67_" class="st18" x1="477.8" y1="566.8" x2="749.8" y2="566.8"/>
		<line id="XMLID_66_" class="st19" x1="477.8" y1="569.8" x2="749.8" y2="569.8"/>
	</g>
	<g id="XMLID_60_">
		<line id="XMLID_63_" class="st18" x1="477.8" y1="554.8" x2="749.8" y2="554.8"/>
		<line id="XMLID_62_" class="st19" x1="477.8" y1="557.8" x2="749.8" y2="557.8"/>
	</g>
	<g id="XMLID_55_">
		<line id="XMLID_59_" class="st18" x1="477.8" y1="542.8" x2="749.8" y2="542.8"/>
		<line id="XMLID_58_" class="st19" x1="477.8" y1="545.8" x2="749.8" y2="545.8"/>
	</g>
	<g id="XMLID_51_">
		<line id="XMLID_54_" class="st18" x1="477.8" y1="530.8" x2="749.8" y2="530.8"/>
		<line id="XMLID_53_" class="st19" x1="477.8" y1="533.8" x2="749.8" y2="533.8"/>
	</g>
	<g id="XMLID_47_">
		<line id="XMLID_50_" class="st18" x1="477.8" y1="518.8" x2="749.8" y2="518.8"/>
		<line id="XMLID_49_" class="st19" x1="477.8" y1="521.8" x2="749.8" y2="521.8"/>
	</g>
	<g id="XMLID_43_">
		<line id="XMLID_46_" class="st18" x1="477.8" y1="506.8" x2="749.8" y2="506.8"/>
		<line id="XMLID_45_" class="st19" x1="477.8" y1="509.8" x2="749.8" y2="509.8"/>
	</g>
	<g id="XMLID_39_">
		<line id="XMLID_42_" class="st18" x1="477.8" y1="494.8" x2="749.8" y2="494.8"/>
		<line id="XMLID_41_" class="st19" x1="477.8" y1="497.8" x2="749.8" y2="497.8"/>
	</g>
	<g id="XMLID_35_">
		<line id="XMLID_38_" class="st18" x1="477.8" y1="482.8" x2="749.8" y2="482.8"/>
		<line id="XMLID_37_" class="st19" x1="477.8" y1="485.8" x2="749.8" y2="485.8"/>
	</g>
	<g id="XMLID_31_">
		<line id="XMLID_34_" class="st18" x1="477.8" y1="470.8" x2="749.8" y2="470.8"/>
		<line id="XMLID_33_" class="st19" x1="477.8" y1="473.8" x2="749.8" y2="473.8"/>
	</g>
</g>
<path id="XMLID_36_" class="st20" d="M494.6,549.7c38-29.2,120-72.4,177.3-78.3c8.1-1.1,14.9-1.6,21-1.7c16.1-0.2,30.7,6,41.1,16.1
	c0,0.2,0.1,0.3,0.1,0.5c4.2,28.7,6.4,57.2,6.6,85.7c0.2-31-2-61.9-6.6-93.2c0-0.2-0.1-0.3-0.1-0.5c-10.5-10.1-25.1-16.3-41.1-16.1
	c-6.1,0.1-12.9,0.7-21,1.7c-57.3,5.8-139.3,49.1-177.3,78.3c-12.9,10.2-18.3,19.9-16.5,29.7C479.5,564.7,485,557.3,494.6,549.7z"/>
<path id="XMLID_32_" class="st21" d="M734.2,648.7c0,0.2-0.1,0.3-0.1,0.5c-10.5,10.1-25.1,16.3-41.1,16.1c-6.1-0.1-12.9-0.7-21-1.7
	c-57.3-5.8-139.3-49.1-177.3-78.3c-9.3-7.3-14.7-14.4-16.3-21.5c-2.3,10.1,3.1,20,16.3,30.5c38,29.2,120,72.4,177.3,78.3
	c8.1,1.1,14.9,1.6,21,1.7c16.1,0.2,30.7-6,41.1-16.1c0-0.2,0.1-0.3,0.1-0.5c4.7-31.5,6.8-62.7,6.6-93.9
	C740.6,592,738.4,620.2,734.2,648.7z"/>
<path id="XMLID_28_" class="st22" d="M734.2,478.8c0-0.2-0.1-0.3-0.1-0.5c-6.4-6.1-14.3-10.8-23.1-13.5c2.8,5.5,4.8,11.4,5.7,17.8
	c9.3,62.6,9.3,124.3,0.2,186.9c6.4-2.8,12.2-6.6,17.1-11.3c0-0.2,0.1-0.4,0.1-0.5C743,597.7,743,538.7,734.2,478.8z"/>
<path id="XMLID_12_" class="st11" d="M734.2,478.8c0-0.2-0.1-0.3-0.1-0.5c-10.5-10.1-25.1-16.3-41.1-16.1c-6.1,0.1-12.9,0.7-21,1.7
	c-57.3,5.8-139.3,49.1-177.3,78.3c-22.4,17.8-22.4,34.2,0,52c38,29.2,120,72.4,177.3,78.3c8.1,1.1,14.9,1.6,21,1.7
	c16.1,0.2,30.7-6,41.1-16.1c0-0.2,0.1-0.3,0.1-0.5C743,597.7,743,538.7,734.2,478.8z"/>
<rect id="XMLID_93_" x="317.2" y="481.3" class="st23" width="180" height="51.5"/>
<path id="XMLID_9_" class="st11" d="M685.2,703.6c-119,10-238.5,10-357.5,0c-25-2.1-45.3-21.2-49-46c-8.9-59.9-8.9-118.9,0-178.8
	c3.7-24.8,23.9-43.9,49-46c119-10,238.5-10,357.5,0c25,2.1,45.3,21.2,49,46c8.9,59.9,8.9,118.9,0,178.8
	C730.5,682.5,710.2,701.5,685.2,703.6z"/>
<rect id="XMLID_25_" x="321.2" y="484.8" class="st24" width="172" height="44"/>
<rect id="XMLID_30_" x="401.8" y="486.4" class="st25" width="9" height="42.4"/>
<rect id="XMLID_69_" x="409.2" y="486.4" class="st26" width="1.6" height="42.4"/>
<path id="XMLID_89_" class="st27" d="M489.9,491.3H324.4c-1.8,0-3.2-1.5-3.2-3.2l0,0c0-1.8,1.5-3.2,3.2-3.2h165.5
	c1.8,0,3.2,1.5,3.2,3.2l0,0C493.2,489.9,491.7,491.3,489.9,491.3z"/>
<path id="XMLID_97_" class="st28" d="M489.9,529.1H324.4c-1.8,0-3.2-1.5-3.2-3.2v-0.8c0-1.8,1.5-3.2,3.2-3.2h165.5
	c1.8,0,3.2,1.5,3.2,3.2v0.8C493.2,527.6,491.7,529.1,489.9,529.1z"/>
<rect id="XMLID_10_" x="321.2" y="484.8" class="st4" width="172" height="44"/>
<g id="XMLID_29_">
	<g id="XMLID_81_">
		<path id="XMLID_85_" class="st3" d="M477.4,502h-0.5c-1,0-1.9-0.8-1.9-1.9v-4.5c0-1,0.8-1.9,1.9-1.9h0.5c1,0,1.9,0.8,1.9,1.9v4.5
			C479.3,501.2,478.5,502,477.4,502z"/>
	</g>
	<g id="XMLID_73_">
		<path id="XMLID_77_" class="st3" d="M449.4,502h-0.5c-1,0-1.9-0.8-1.9-1.9v-4.5c0-1,0.8-1.9,1.9-1.9h0.5c1,0,1.9,0.8,1.9,1.9v4.5
			C451.3,501.2,450.5,502,449.4,502z"/>
	</g>
	<g id="XMLID_61_">
		<path id="XMLID_65_" class="st3" d="M421.4,502h-0.5c-1,0-1.9-0.8-1.9-1.9v-4.5c0-1,0.8-1.9,1.9-1.9h0.5c1,0,1.9,0.8,1.9,1.9v4.5
			C423.3,501.2,422.5,502,421.4,502z"/>
	</g>
	<g id="XMLID_56_">
		<path id="XMLID_57_" class="st3" d="M393.4,502h-0.5c-1,0-1.9-0.8-1.9-1.9v-4.5c0-1,0.8-1.9,1.9-1.9h0.5c1,0,1.9,0.8,1.9,1.9v4.5
			C395.3,501.2,394.5,502,393.4,502z"/>
	</g>
	<g id="XMLID_48_">
		<path id="XMLID_52_" class="st3" d="M365.4,502h-0.5c-1,0-1.9-0.8-1.9-1.9v-4.5c0-1,0.8-1.9,1.9-1.9h0.5c1,0,1.9,0.8,1.9,1.9v4.5
			C367.3,501.2,366.5,502,365.4,502z"/>
	</g>
	<g id="XMLID_40_">
		<path id="XMLID_44_" class="st3" d="M337.4,502h-0.5c-1,0-1.9-0.8-1.9-1.9v-4.5c0-1,0.8-1.9,1.9-1.9h0.5c1,0,1.9,0.8,1.9,1.9v4.5
			C339.3,501.2,338.5,502,337.4,502z"/>
	</g>
</g>
<path id="XMLID_112_" class="st13" d="M409.3,625.2h-77c-2.9,0-5.2-2.3-5.2-5.2l0,0c0-2.9,2.3-5.2,5.2-5.2h77c2.9,0,5.2,2.3,5.2,5.2
	l0,0C414.5,622.9,412.2,625.2,409.3,625.2z"/>
<path id="XMLID_114_" class="st13" d="M472.6,644H332.3c-2.9,0-5.2-2.3-5.2-5.2l0,0c0-2.9,2.3-5.2,5.2-5.2h140.3
	c2.9,0,5.2,2.3,5.2,5.2l0,0C477.8,641.7,475.4,644,472.6,644z"/>
<path id="XMLID_115_" class="st13" d="M528.7,662.8H332.3c-2.9,0-5.2-2.3-5.2-5.2v0c0-2.9,2.3-5.2,5.2-5.2h196.3
	c2.9,0,5.2,2.3,5.2,5.2v0C533.8,660.5,531.5,662.8,528.7,662.8z"/>
<circle id="XMLID_113_" class="st13" cx="340.2" cy="589.8" r="13"/>
<circle id="XMLID_117_" class="st13" cx="369.5" cy="589.8" r="8"/>
<path id="XMLID_116_" class="st12" d="M647.9,390.9c-48.1-4.3-96.7-6.5-144.6-6.5c-47.9,0-96.6,2.2-144.6,6.5v0
	c-2.9,0.3-5.4-2-5.4-5v-23.7c0-2.6,2-4.8,4.6-5l0,0c48.4-4.2,97.3-6.4,145.5-6.4c48.2,0,97.1,2.2,145.5,6.4l0,0
	c2.6,0.2,4.6,2.4,4.6,5v23.7C653.4,388.9,650.8,391.2,647.9,390.9L647.9,390.9z"/>
<path id="XMLID_126_" class="st14" d="M648.8,357.2L648.8,357.2c-48.4-4.2-97.3-6.4-145.5-6.4c-48.2,0-97.1,2.2-145.5,6.4h0
	c-2.6,0.2-4.6,2.4-4.6,5v6.6c0-2.6,2-4.8,4.6-5l0,0c48.4-4.2,97.3-6.4,145.5-6.4c48.2,0,97.1,2.2,145.5,6.4l0,0
	c2.6,0.2,4.6,2.4,4.6,5v-6.6C653.4,359.6,651.4,357.5,648.8,357.2z"/>
<path id="XMLID_6_" class="st13" d="M503.9,384.4c46.3,0,93.1,1.5,139.7,4.4c-8-9.3-69.2-16.6-143.5-16.6
	c-75.6,0-137.7,7.5-143.9,17.1C405.3,386.1,454.9,384.4,503.9,384.4z"/>
<path id="XMLID_119_" class="st4" d="M647.9,390.9c-48.1-4.3-96.7-6.5-144.6-6.5c-47.9,0-96.6,2.2-144.6,6.5v0c-2.9,0.3-5.4-2-5.4-5
	v-23.7c0-2.6,2-4.8,4.6-5l0,0c48.4-4.2,97.3-6.4,145.5-6.4c48.2,0,97.1,2.2,145.5,6.4l0,0c2.6,0.2,4.6,2.4,4.6,5v23.7
	C653.4,388.9,650.8,391.2,647.9,390.9L647.9,390.9z"/>
</svg>
