<?xml version="1.0" encoding="utf-8"?>
<!-- Generator: Adobe Illustrator 23.1.1, SVG Export Plug-In . SVG Version: 6.00 Build 0)  -->
<svg version="1.1" id="Layer_1" xmlns="http://www.w3.org/2000/svg" xmlns:xlink="http://www.w3.org/1999/xlink" x="0px" y="0px"
	 viewBox="0 0 1000 1000" style="enable-background:new 0 0 1000 1000;" xml:space="preserve">
<style type="text/css">
	.st0{fill:#EDEDED;}
	.st1{fill:#725865;}
	.st2{fill:none;stroke:#00233A;stroke-width:8;stroke-linecap:round;stroke-linejoin:round;stroke-miterlimit:10;}
	.st3{fill:#9BA589;}
	.st4{fill:none;stroke:#3E3442;stroke-width:10;stroke-linecap:round;stroke-linejoin:round;stroke-miterlimit:10;}
	.st5{fill:#F26161;}
	.st6{opacity:0.3;fill:#994A4A;}
	.st7{fill:#604957;}
	.st8{opacity:0.26;fill:#725865;}
	
		.st9{fill:none;stroke:#3E3442;stroke-width:3;stroke-linecap:round;stroke-linejoin:round;stroke-miterlimit:10;stroke-dasharray:5,7;}
	.st10{opacity:0.25;fill:#9BA589;}
	.st11{opacity:0.31;fill:#9BA589;}
	.st12{fill:none;stroke:#3E3442;stroke-width:14;stroke-linecap:round;stroke-linejoin:round;stroke-miterlimit:10;}
	.st13{opacity:0.39;fill:#F26161;}
	.st14{fill:#EAE6E5;}
	.st15{fill:none;stroke:#3E3442;stroke-width:2;stroke-linecap:round;stroke-linejoin:round;stroke-miterlimit:10;}
	.st16{opacity:0.3;fill:#994A4A;stroke:#994A4A;stroke-width:10;stroke-linecap:round;stroke-linejoin:round;stroke-miterlimit:10;}
	.st17{opacity:0.4;fill:#3E3442;stroke:#3E3442;stroke-width:6;stroke-linecap:round;stroke-linejoin:round;stroke-miterlimit:10;}
	.st18{fill:none;stroke:#3E3442;stroke-width:3;stroke-linecap:round;stroke-linejoin:round;stroke-dasharray:4.9889,6.9845;}
	.st19{opacity:0.32;fill:#725865;}
	.st20{opacity:0.58;fill:#725865;}
	.st21{fill:#EDAB7A;}
	.st22{fill:none;stroke:#3E3442;stroke-width:6;stroke-linecap:round;stroke-linejoin:round;stroke-miterlimit:10;}
	.st23{fill:#3E3442;}
	.st24{opacity:0.6;fill:#EDAB7A;}
	.st25{fill:#826776;}
	
		.st26{fill:none;stroke:#3E3442;stroke-width:2;stroke-linecap:round;stroke-linejoin:round;stroke-miterlimit:10;stroke-dasharray:3,5;}
	.st27{fill:none;stroke:#3E3442;stroke-width:4;stroke-linecap:round;stroke-linejoin:round;stroke-miterlimit:10;}
	.st28{fill:none;stroke:#3E3442;stroke-width:6;stroke-linejoin:round;stroke-miterlimit:10;}
	.st29{fill:#D35050;}
	.st30{fill:#8CA85E;}
</style>
<rect id="XMLID_11_" class="st0" width="1000" height="1000"/>
<g>
	<g>
		<g>
			<path class="st1" d="M63.2,959.2c0,2.5-1.2,3.7-2.6,3.7c-1.1,0-1.9-0.5-2.1-1.4c-0.4,0.5-1,0.8-1.8,0.8c-1.5,0-2.6-1.2-2.6-2.8
				c0-1.6,1.1-2.8,2.6-2.8c0.7,0,1.2,0.3,1.6,0.7v-0.5h1.6v3.9c0,0.8,0.3,1.4,1,1.4c0.9,0,1.7-0.9,1.7-3c0-3-2.3-5.3-5.4-5.3
				c-3.1,0-5.6,2.4-5.6,5.7c0,3.3,2.5,5.7,5.9,5.7c1.1,0,2.1-0.2,2.9-0.4v0.6c-0.8,0.3-1.7,0.4-2.9,0.4c-3.7,0-6.5-2.6-6.5-6.2
				c0-3.4,2.7-6.2,6.2-6.2C61.1,953.3,63.2,956.4,63.2,959.2z M58.3,959.5c0-0.8-0.6-1.4-1.3-1.4c-0.8,0-1.3,0.5-1.3,1.4
				c0,0.8,0.6,1.3,1.3,1.3C57.8,960.9,58.3,960.3,58.3,959.5z"/>
		</g>
		<g>
			<path class="st1" d="M69.4,955.1v2c-1.2-0.1-2.6,0.5-2.6,2.4v4.3h-1.9v-8.6h1.9v1.4C67.3,955.5,68.3,955.1,69.4,955.1z"/>
		</g>
		<g>
			<path class="st1" d="M74.6,962.3c1,0,1.8-0.5,2.2-1.1l1.5,0.9c-0.8,1.2-2.1,1.9-3.8,1.9c-2.8,0-4.7-1.9-4.7-4.5
				c0-2.5,1.8-4.5,4.5-4.5c2.6,0,4.3,2.1,4.3,4.5c0,0.3,0,0.5-0.1,0.8h-6.8C72.1,961.6,73.2,962.3,74.6,962.3z M76.9,958.8
				c-0.3-1.5-1.3-2.1-2.5-2.1c-1.4,0-2.3,0.8-2.6,2.1H76.9z"/>
		</g>
		<g>
			<path class="st1" d="M88.9,955.2v8.6h-1.9v-1.2c-0.7,0.9-1.7,1.5-3,1.5c-2.3,0-4.3-2-4.3-4.5c0-2.6,1.9-4.5,4.3-4.5
				c1.3,0,2.3,0.5,3,1.4v-1.2H88.9z M87.1,959.5c0-1.6-1.2-2.7-2.7-2.7c-1.5,0-2.7,1.1-2.7,2.7c0,1.6,1.2,2.7,2.7,2.7
				C85.9,962.3,87.1,961.1,87.1,959.5z"/>
		</g>
		<g>
			<path class="st1" d="M91.1,951.3H93v12.5h-1.9V951.3z"/>
		</g>
		<g>
			<path class="st1" d="M102.9,955.2l-3.3,8.6h-2.1l-3.3-8.6h2l2.4,6.5l2.4-6.5H102.9z"/>
		</g>
		<g>
			<path class="st1" d="M104.2,955.2h1.9v8.9c0,2.4-1.2,3.5-3.5,3.3v-1.8c1.1,0.1,1.7-0.3,1.7-1.5V955.2z M104,952.8
				c0-0.7,0.5-1.2,1.2-1.2c0.7,0,1.2,0.5,1.2,1.2c0,0.6-0.5,1.2-1.2,1.2C104.5,954,104,953.4,104,952.8z"/>
		</g>
		<g>
			<path class="st1" d="M116,955.2l-3.3,8.8c-0.8,2.2-2.2,3.3-4.2,3.2v-1.7c1.2,0.1,1.9-0.5,2.3-1.7l0.1-0.2l-3.6-8.4h2l2.6,6.2
				l2.2-6.2H116z"/>
		</g>
	</g>
	<g>
		<path class="st1" d="M211.9,938.7c0,2.1-1.5,3.8-3.6,3.8h-3v-7.6h3C210.4,934.9,211.9,936.6,211.9,938.7z M210.9,938.7
			c0-1.6-1.1-2.9-2.6-2.9h-2v5.7h2C209.8,941.6,210.9,940.3,210.9,938.7z"/>
		<path class="st1" d="M219.5,940.8h-3.4l-0.6,1.7h-1.1l2.8-7.6h1.1l2.8,7.6h-1.1L219.5,940.8z M219.2,939.9l-1.4-3.8l-1.4,3.8
			H219.2z"/>
		<path class="st1" d="M226.4,939.4v3.1h-1v-3.1l-2.7-4.5h1.1l2.1,3.6l2.1-3.6h1.1L226.4,939.4z"/>
		<path class="st1" d="M242.1,940.1c0,1.5-1.1,2.6-2.6,2.6c-1.5,0-2.6-1.1-2.6-2.6c0-0.6,0.2-1.1,0.5-1.5l2.5-3.7h1.2l-1.8,2.7
			c0.1,0,0.2,0,0.4,0C241,937.5,242.1,938.6,242.1,940.1z M241.1,940.1c0-1-0.7-1.6-1.6-1.6c-1,0-1.6,0.6-1.6,1.6s0.7,1.6,1.6,1.6
			C240.4,941.7,241.1,941,241.1,940.1z"/>
		<path class="st1" d="M247.3,934.9v7.6h-1V936l-1.6,0.5l-0.3-0.9l2-0.7H247.3z"/>
	</g>
	<g>
		<path class="st1" d="M58.9,938.7c0,2.1-1.5,3.8-3.6,3.8h-3v-7.6h3C57.4,934.9,58.9,936.6,58.9,938.7z M57.9,938.7
			c0-1.6-1.1-2.9-2.6-2.9h-2v5.7h2C56.8,941.6,57.9,940.3,57.9,938.7z"/>
		<path class="st1" d="M67,941.6v1h-4.6v-7.6h4.5v1h-3.5v2.3h3.2v0.9h-3.2v2.4H67z"/>
		<path class="st1" d="M70,940.8l0.9-0.5c0.3,0.8,0.9,1.4,2,1.4c1.1,0,1.6-0.5,1.6-1.2c0-0.8-0.7-1-1.8-1.4
			c-1.2-0.4-2.4-0.8-2.4-2.2c0-1.4,1.1-2.2,2.4-2.2c1.3,0,2.2,0.7,2.6,1.7l-0.8,0.5c-0.3-0.7-0.8-1.2-1.7-1.2
			c-0.8,0-1.4,0.4-1.4,1.1c0,0.7,0.5,1,1.6,1.3c1.3,0.4,2.6,0.8,2.6,2.3c0,1.3-1.1,2.2-2.6,2.2C71.5,942.7,70.4,941.9,70,940.8z"/>
		<path class="st1" d="M80,934.9v7.6h-1v-7.6H80z"/>
		<path class="st1" d="M91.3,939.2c0,1.9-1.4,3.5-3.7,3.5c-2.4,0-4-1.8-4-4c0-2.2,1.7-4,4-4c1.4,0,2.7,0.8,3.3,1.8l-0.9,0.5
			c-0.4-0.8-1.4-1.4-2.4-1.4c-1.8,0-3,1.3-3,3c0,1.7,1.2,3,3,3c1.6,0,2.5-0.9,2.7-2h-2.8v-0.9h3.8V939.2z"/>
		<path class="st1" d="M100.6,934.9v7.6h-0.8l-3.9-5.7v5.7h-1v-7.6h0.8l3.9,5.7v-5.7H100.6z"/>
		<path class="st1" d="M109.1,941.6v1h-4.6v-7.6h4.5v1h-3.5v2.3h3.2v0.9h-3.2v2.4H109.1z"/>
		<path class="st1" d="M119.2,938.7c0,2.1-1.5,3.8-3.6,3.8h-3v-7.6h3C117.6,934.9,119.2,936.6,119.2,938.7z M118.2,938.7
			c0-1.6-1.1-2.9-2.6-2.9h-2v5.7h2C117.1,941.6,118.2,940.3,118.2,938.7z"/>
		<path class="st1" d="M133.2,940.4c0,1.2-1,2.2-2.2,2.2h-3.3v-7.6h3c1.2,0,2.1,0.9,2.1,2.1c0,0.7-0.3,1.2-0.8,1.6
			C132.7,938.9,133.2,939.5,133.2,940.4z M128.7,935.8v2.3h2c0.6,0,1.1-0.5,1.1-1.2c0-0.6-0.5-1.2-1.1-1.2H128.7z M132.2,940.3
			c0-0.7-0.5-1.2-1.2-1.2h-2.3v2.5h2.3C131.7,941.6,132.2,941,132.2,940.3z"/>
		<path class="st1" d="M139.4,939.4v3.1h-1v-3.1l-2.7-4.5h1.1l2.1,3.6l2.1-3.6h1.1L139.4,939.4z"/>
	</g>
	<g>
		<path class="st1" d="M213.5,953.9H210v10.4h-2v-10.4h-3.5v-1.9h9V953.9z"/>
		<path class="st1" d="M218.4,955.3v2.1c-1.3-0.1-2.7,0.5-2.7,2.5v4.5h-1.9v-8.9h1.9v1.5C216.2,955.7,217.3,955.3,218.4,955.3z"/>
		<path class="st1" d="M228.3,955.4v8.9h-1.9V963c-0.7,0.9-1.7,1.5-3.1,1.5c-2.4,0-4.4-2-4.4-4.7c0-2.6,2-4.7,4.4-4.7
			c1.4,0,2.4,0.6,3.1,1.5v-1.3H228.3z M226.4,959.9c0-1.6-1.2-2.8-2.8-2.8c-1.6,0-2.8,1.2-2.8,2.8c0,1.6,1.2,2.8,2.8,2.8
			C225.2,962.7,226.4,961.5,226.4,959.9z"/>
		<path class="st1" d="M238.6,955.4l-3.5,8.9H233l-3.5-8.9h2.1l2.5,6.7l2.5-6.7H238.6z"/>
		<path class="st1" d="M243.8,962.8c1.1,0,1.9-0.5,2.3-1.1l1.6,0.9c-0.8,1.2-2.1,1.9-3.9,1.9c-2.9,0-4.8-2-4.8-4.7
			c0-2.6,1.9-4.7,4.7-4.7c2.6,0,4.4,2.1,4.4,4.7c0,0.3,0,0.5-0.1,0.8h-7C241.3,962.1,242.4,962.8,243.8,962.8z M246.2,959.1
			c-0.3-1.5-1.4-2.2-2.5-2.2c-1.4,0-2.4,0.8-2.7,2.2H246.2z"/>
		<path class="st1" d="M249.8,951.4h1.9v12.9h-1.9V951.4z"/>
		<path class="st1" d="M267.5,960.8c0,2.1-1.7,3.5-3.7,3.5h-5.3v-12.4h4.9c2,0,3.6,1.5,3.6,3.4c0,1.1-0.5,2-1.3,2.5
			C266.8,958.4,267.5,959.4,267.5,960.8z M260.5,953.8v3.3h2.9c0.9,0,1.6-0.7,1.6-1.6c0-0.9-0.7-1.6-1.6-1.6H260.5z M265.5,960.6
			c0-1-0.7-1.7-1.7-1.7h-3.3v3.5h3.3C264.7,962.4,265.5,961.6,265.5,960.6z"/>
		<path class="st1" d="M278.2,955.4v8.9h-1.9V963c-0.7,0.9-1.7,1.5-3.1,1.5c-2.4,0-4.4-2-4.4-4.7c0-2.6,2-4.7,4.4-4.7
			c1.4,0,2.4,0.6,3.1,1.5v-1.3H278.2z M276.2,959.9c0-1.6-1.2-2.8-2.8-2.8c-1.6,0-2.8,1.2-2.8,2.8c0,1.6,1.2,2.8,2.8,2.8
			C275,962.7,276.2,961.5,276.2,959.9z"/>
		<path class="st1" d="M289.3,955.4v8.4c0,2.8-2.2,4.2-4.5,4.2c-1.9,0-3.5-0.7-4.2-2.1l1.6-1c0.4,0.8,1,1.4,2.6,1.4
			c1.6,0,2.6-0.9,2.6-2.4v-1.1c-0.7,1-1.7,1.5-3.1,1.5c-2.5,0-4.5-2-4.5-4.6s2-4.6,4.5-4.6c1.4,0,2.4,0.6,3.1,1.5v-1.3H289.3z
			 M287.4,959.8c0-1.6-1.2-2.8-2.8-2.8c-1.6,0-2.8,1.2-2.8,2.8s1.2,2.8,2.8,2.8C286.2,962.6,287.4,961.4,287.4,959.8z"/>
	</g>
	<g>
		<g>
			<g>
				<path class="st1" d="M846.1,938.7c0,2.1-1.5,3.8-3.6,3.8h-3v-7.6h3C844.6,934.9,846.1,936.6,846.1,938.7z M845.2,938.7
					c0-1.6-1.1-2.9-2.6-2.9h-2v5.7h2C844.1,941.6,845.2,940.3,845.2,938.7z"/>
			</g>
			<g>
				<path class="st1" d="M849.3,938.7c0-2.2,1.7-4,3.9-4c2.2,0,4,1.8,4,4c0,2.2-1.7,4-4,4C851,942.7,849.3,940.9,849.3,938.7z
					 M856.1,938.7c0-1.7-1.3-3-2.9-3c-1.7,0-2.9,1.3-2.9,3c0,1.7,1.3,3,2.9,3C854.9,941.7,856.1,940.4,856.1,938.7z"/>
			</g>
			<g>
				<path class="st1" d="M859.8,934.9h1.1l1.7,6.3l1.9-6.3h1l1.9,6.3l1.7-6.3h1.1l-2.2,7.6h-1.2l-1.8-6.1l-1.8,6.1H862L859.8,934.9z
					"/>
			</g>
			<g>
				<path class="st1" d="M879.3,934.9v7.6h-0.8l-3.9-5.7v5.7h-1v-7.6h0.8l3.9,5.7v-5.7H879.3z"/>
			</g>
			<g>
				<path class="st1" d="M887.5,941.6v1h-4.3v-7.6h1v6.7H887.5z"/>
			</g>
			<g>
				<path class="st1" d="M889.9,938.7c0-2.2,1.7-4,3.9-4c2.2,0,4,1.8,4,4c0,2.2-1.7,4-4,4C891.6,942.7,889.9,940.9,889.9,938.7z
					 M896.8,938.7c0-1.7-1.3-3-2.9-3c-1.7,0-2.9,1.3-2.9,3c0,1.7,1.3,3,2.9,3C895.5,941.7,896.8,940.4,896.8,938.7z"/>
			</g>
			<g>
				<path class="st1" d="M905.4,940.8H902l-0.6,1.7h-1.1l2.8-7.6h1.1l2.8,7.6H906L905.4,940.8z M905.1,939.9l-1.4-3.8l-1.4,3.8
					H905.1z"/>
			</g>
			<g>
				<path class="st1" d="M916.9,938.7c0,2.1-1.5,3.8-3.6,3.8h-3v-7.6h3C915.4,934.9,916.9,936.6,916.9,938.7z M915.9,938.7
					c0-1.6-1.1-2.9-2.6-2.9h-2v5.7h2C914.9,941.6,915.9,940.3,915.9,938.7z"/>
			</g>
			<g>
				<path class="st1" d="M926.5,935.8v2.5h3.2v1h-3.2v3.2h-1v-7.6h4.4v1H926.5z"/>
			</g>
			<g>
				<path class="st1" d="M936.2,939.6h-1.8v2.9h-1v-7.6h3c1.3,0,2.4,1.1,2.4,2.4c0,1-0.7,1.9-1.6,2.2l1.8,3.1h-1.1L936.2,939.6z
					 M934.4,938.7h2c0.8,0,1.4-0.6,1.4-1.4c0-0.8-0.6-1.4-1.4-1.4h-2V938.7z"/>
			</g>
			<g>
				<path class="st1" d="M941.9,938.7c0-2.2,1.7-4,3.9-4c2.2,0,4,1.8,4,4c0,2.2-1.7,4-4,4C943.6,942.7,941.9,940.9,941.9,938.7z
					 M948.8,938.7c0-1.7-1.3-3-2.9-3c-1.7,0-2.9,1.3-2.9,3c0,1.7,1.3,3,2.9,3C947.5,941.7,948.8,940.4,948.8,938.7z"/>
			</g>
			<g>
				<path class="st1" d="M960.4,942.5h-1v-6l-2.5,4.2h-0.1l-2.5-4.1v5.9h-1v-7.6h1.1l2.4,4l2.4-4h1.1V942.5z"/>
			</g>
		</g>
		<g>
			<g>
				<path class="st1" d="M839.3,952.9c0-0.7,0.5-1.2,1.2-1.2c0.7,0,1.2,0.5,1.2,1.2c0,0.7-0.5,1.2-1.2,1.2
					C839.9,954.1,839.3,953.6,839.3,952.9z M839.6,955.4h1.9v8.9h-1.9V955.4z"/>
			</g>
			<g>
				<path class="st1" d="M843.7,951.4h1.9v12.9h-1.9V951.4z"/>
			</g>
			<g>
				<path class="st1" d="M847.8,951.4h1.9v12.9h-1.9V951.4z"/>
			</g>
			<g>
				<path class="st1" d="M852,951.4h1.9v12.9H852V951.4z"/>
			</g>
			<g>
				<path class="st1" d="M864,955.4v8.9h-1.9v-1.1c-0.6,0.9-1.5,1.4-2.7,1.4c-2,0-3.4-1.3-3.4-3.6v-5.4h1.9v5.2c0,1.3,0.8,2.1,2,2.1
					c1.3,0,2.2-0.7,2.2-2.5v-4.7H864z"/>
			</g>
			<g>
				<path class="st1" d="M872.6,961.8c0,1.8-1.5,2.7-3.5,2.7c-1.8,0-3-0.8-3.6-2.1l1.6-1c0.3,0.8,1,1.3,2,1.3c0.8,0,1.5-0.3,1.5-1
					c0-1.6-4.8-0.7-4.8-3.9c0-1.7,1.4-2.7,3.2-2.7c1.5,0,2.7,0.7,3.3,1.8l-1.6,0.9c-0.3-0.7-0.9-1-1.7-1c-0.7,0-1.3,0.3-1.3,0.9
					C867.9,959.5,872.6,958.5,872.6,961.8z"/>
			</g>
			<g>
				<path class="st1" d="M876.7,957.3v4.2c0,1.1,0.7,1.1,2.2,1v1.7c-2.9,0.4-4.1-0.5-4.1-2.8v-4.2h-1.6v-1.8h1.6v-1.9l1.9-0.6v2.5
					h2.2v1.8H876.7z"/>
			</g>
			<g>
				<path class="st1" d="M885.4,955.3v2.1c-1.3-0.1-2.7,0.5-2.7,2.5v4.5h-1.9v-8.9h1.9v1.5C883.2,955.7,884.2,955.3,885.4,955.3z"/>
			</g>
			<g>
				<path class="st1" d="M895.3,955.4v8.9h-1.9V963c-0.7,0.9-1.7,1.5-3.1,1.5c-2.4,0-4.4-2-4.4-4.7c0-2.6,2-4.7,4.4-4.7
					c1.4,0,2.4,0.6,3.1,1.5v-1.3H895.3z M893.4,959.9c0-1.6-1.2-2.8-2.8-2.8c-1.6,0-2.8,1.2-2.8,2.8c0,1.6,1.2,2.8,2.8,2.8
					C892.2,962.7,893.4,961.5,893.4,959.9z"/>
			</g>
			<g>
				<path class="st1" d="M900.3,957.3v4.2c0,1.1,0.7,1.1,2.2,1v1.7c-2.9,0.4-4.1-0.5-4.1-2.8v-4.2h-1.6v-1.8h1.6v-1.9l1.9-0.6v2.5
					h2.2v1.8H900.3z"/>
			</g>
			<g>
				<path class="st1" d="M903.9,952.9c0-0.7,0.5-1.2,1.2-1.2c0.7,0,1.2,0.5,1.2,1.2c0,0.7-0.5,1.2-1.2,1.2
					C904.5,954.1,903.9,953.6,903.9,952.9z M904.2,955.4h1.9v8.9h-1.9V955.4z"/>
			</g>
			<g>
				<path class="st1" d="M907.8,959.9c0-2.6,2.1-4.7,4.7-4.7c2.6,0,4.7,2,4.7,4.7c0,2.6-2.1,4.7-4.7,4.7
					C909.9,964.5,907.8,962.5,907.8,959.9z M915.3,959.9c0-1.6-1.2-2.8-2.8-2.8c-1.6,0-2.8,1.2-2.8,2.8c0,1.6,1.2,2.8,2.8,2.8
					C914.1,962.7,915.3,961.5,915.3,959.9z"/>
			</g>
			<g>
				<path class="st1" d="M927,958.9v5.4h-1.9v-5.2c0-1.3-0.8-2.1-2-2.1c-1.3,0-2.2,0.7-2.2,2.5v4.7h-1.9v-8.9h1.9v1.1
					c0.6-0.9,1.5-1.4,2.7-1.4C925.5,955.2,927,956.6,927,958.9z"/>
			</g>
			<g>
				<path class="st1" d="M935.5,961.8c0,1.8-1.5,2.7-3.5,2.7c-1.8,0-3-0.8-3.6-2.1l1.6-1c0.3,0.8,1,1.3,2,1.3c0.8,0,1.5-0.3,1.5-1
					c0-1.6-4.8-0.7-4.8-3.9c0-1.7,1.4-2.7,3.2-2.7c1.5,0,2.7,0.7,3.3,1.8l-1.6,0.9c-0.3-0.7-0.9-1-1.7-1c-0.7,0-1.3,0.3-1.3,0.9
					C930.7,959.5,935.5,958.5,935.5,961.8z"/>
			</g>
			<g>
				<path class="st1" d="M936.8,963.2c0-0.7,0.6-1.3,1.3-1.3c0.7,0,1.3,0.6,1.3,1.3c0,0.7-0.6,1.3-1.3,1.3
					C937.4,964.5,936.8,963.9,936.8,963.2z"/>
			</g>
			<g>
				<path class="st1" d="M940.3,959.9c0-2.6,2-4.7,4.7-4.7c1.7,0,3.2,0.9,3.9,2.3l-1.6,1c-0.4-0.8-1.3-1.4-2.3-1.4
					c-1.6,0-2.7,1.2-2.7,2.8c0,1.6,1.2,2.8,2.7,2.8c1.1,0,1.9-0.5,2.4-1.4l1.6,0.9c-0.7,1.4-2.2,2.3-4,2.3
					C942.3,964.5,940.3,962.5,940.3,959.9z"/>
			</g>
			<g>
				<path class="st1" d="M949.7,959.9c0-2.6,2.1-4.7,4.7-4.7c2.6,0,4.7,2,4.7,4.7c0,2.6-2.1,4.7-4.7,4.7
					C951.8,964.5,949.7,962.5,949.7,959.9z M957.2,959.9c0-1.6-1.2-2.8-2.8-2.8s-2.8,1.2-2.8,2.8c0,1.6,1.2,2.8,2.8,2.8
					S957.2,961.5,957.2,959.9z"/>
			</g>
		</g>
	</g>
</g>
<g id="XMLID_192_">
	<path id="XMLID_177_" class="st2" d="M756.5,605.1L756.5,605.1c-33.9,0.2-59.3-14.7-80.4-35.6c-4.1-4.2-7.9-9.7-11.5-15.8
		c-18.1-31.1-23-67.2-14.7-101.5c13.6-56.4,43.3-157.5,94.9-231.4c5.4-7.8,18-7.8,23.4,0c51.6,73.9,81.3,175,94.9,231.4
		c8.3,34.4,3.4,70.4-14.7,101.5c-3.6,6.1-7.4,11.6-11.5,15.8C815.8,590.3,790.4,605.3,756.5,605.1z"/>
	<line id="XMLID_27_" class="st2" x1="756.5" y1="532.9" x2="809.9" y2="494.4"/>
	<line id="XMLID_16_" class="st2" x1="756.5" y1="479.6" x2="708.9" y2="442.8"/>
	<line id="XMLID_1_" class="st2" x1="756.5" y1="747.5" x2="756.5" y2="389.5"/>
</g>
<g id="XMLID_195_">
	<path id="XMLID_304_" class="st2" d="M259.7,646L259.7,646c24.2,0.2,42.2-11.6,57.3-28c2.9-3.3,5.7-7.6,8.2-12.5
		c12.9-24.4,16.4-52.8,10.5-79.8c-9.7-44.3-30.9-123.7-67.6-181.8c-3.9-6.1-12.8-6.1-16.7,0c-36.8,58.1-57.9,137.5-67.6,181.8
		c-5.9,27-2.4,55.3,10.5,79.8c2.5,4.8,5.3,9.1,8.2,12.5C217.4,634.5,235.5,646.2,259.7,646z"/>
	<line id="XMLID_301_" class="st2" x1="259.7" y1="594.7" x2="221.6" y2="567.2"/>
	<line id="XMLID_300_" class="st2" x1="259.7" y1="556.7" x2="293.5" y2="530.5"/>
	<path id="XMLID_3_" class="st2" d="M313,622.1v15.1c0,18.8,15.3,34.1,34.1,34.1h51.2c18.8,0,34.1-15.3,34.1-34.1v-102
		c0-18.8-15.3-34.1-34.1-34.1h-51.2c-5.9,0-11.4,1.5-16.3,4.1"/>
	<line id="XMLID_268_" class="st2" x1="372.7" y1="646" x2="347.4" y2="622.7"/>
	<line id="XMLID_217_" class="st2" x1="372.7" y1="607.3" x2="400.8" y2="594.7"/>
	<line id="XMLID_204_" class="st2" x1="259.7" y1="747.5" x2="259.7" y2="492.5"/>
	<line id="XMLID_203_" class="st2" x1="372.7" y1="567.5" x2="372.7" y2="747.5"/>
	<polyline id="XMLID_2_" class="st2" points="249,219.4 270.7,224.3 276.6,204.7 	"/>
	<polyline id="XMLID_26_" class="st2" points="346.5,181 356.3,193.4 368.3,185.3 	"/>
	<polyline id="XMLID_299_" class="st2" points="439.1,186.8 454,192 459.8,178.6 	"/>
</g>
<g>
	<g id="XMLID_191_">
		<path class="st3" d="M656,327.8c-2.4,0-4.8,0-7.2,0c-4.8,0-9.3-3.9-9.9-8.8c-1.7-16.6-1.7-33.4,0-50.1c0.6-4.9,5.1-8.8,9.9-8.8
			c2.4,0,4.8,0,7.2,0c4.8,0,9.3,3.9,9.9,8.8c1.7,16.6,1.7,33.4,0,50.1C665.4,323.8,660.8,327.8,656,327.8z"/>
	</g>
	<g id="XMLID_145_">
		<path class="st4" d="M656,327.8c-2.4,0-4.8,0-7.2,0c-4.8,0-9.3-3.9-9.9-8.8c-1.7-16.6-1.7-33.4,0-50.1c0.6-4.9,5.1-8.8,9.9-8.8
			c2.4,0,4.8,0,7.2,0c4.8,0,9.3,3.9,9.9,8.8c1.7,16.6,1.7,33.4,0,50.1C665.4,323.8,660.8,327.8,656,327.8z"/>
	</g>
	<g id="XMLID_194_">
		<path class="st3" d="M347.4,327.8c-2.4,0-4.8,0-7.2,0c-4.8,0-9.3-3.9-9.9-8.8c-1.7-16.6-1.7-33.4,0-50.1c0.6-4.9,5.1-8.8,9.9-8.8
			c2.4,0,4.8,0,7.2,0c4.8,0,9.3,3.9,9.9,8.8c1.7,16.6,1.7,33.4,0,50.1C356.8,323.8,352.2,327.8,347.4,327.8z"/>
	</g>
	<g id="XMLID_187_">
		<path class="st4" d="M347.4,327.8c-2.4,0-4.8,0-7.2,0c-4.8,0-9.3-3.9-9.9-8.8c-1.7-16.6-1.7-33.4,0-50.1c0.6-4.9,5.1-8.8,9.9-8.8
			c2.4,0,4.8,0,7.2,0c4.8,0,9.3,3.9,9.9,8.8c1.7,16.6,1.7,33.4,0,50.1C356.8,323.8,352.2,327.8,347.4,327.8z"/>
	</g>
	<g id="XMLID_9_">
		<g>
			<path id="XMLID_206_" class="st4" d="M359.5,689.9l-23.8-8.5c-34.3-12.3-55.6-54.4-49.6-97.8l8.3-59.7
				c2.7-19.2,16.2-33.3,32-33.3h33.1V689.9z"/>
			<path id="XMLID_200_" class="st4" d="M345.6,583.1c10.3-4.5,18.1-8.5,24.1-11.9v-93.3h-43.3c-20.9,0-38.6,18.4-42.1,43.8
				l-8.3,59.7c-0.6,4.1-0.9,8.1-1.1,12.1C290.4,595.6,316.2,595.9,345.6,583.1z"/>
		</g>
	</g>
	<path id="XMLID_61_" class="st4" d="M359.5,689.9l-23.8-8.5c-34.3-12.3-55.6-54.4-49.6-97.8l8.3-59.7c2.7-19.2,16.2-33.3,32-33.3
		h33.1V689.9z"/>
	<path id="XMLID_22_" class="st5" d="M359.5,689.9l-23.8-8.5c-34.3-12.3-55.6-54.4-49.6-97.8l8.3-59.7c2.7-19.2,16.2-33.3,32-33.3
		h33.1V689.9z"/>
	<path id="XMLID_220_" class="st6" d="M294.4,527.8l-8.3,59.7c-0.9,6.4-1.2,12.7-0.9,18.9c2.1,0.1,4.1,0.2,6.2,0.2c0,0,0,0,0,0
		c19.5,0,38.8-4.1,57.4-12.2c3.8-1.6,7.3-3.3,10.7-4.9v-95h-33.1C310.6,494.5,297,508.6,294.4,527.8z"/>
	<path id="XMLID_66_" class="st4" d="M359.5,689.9l-23.8-8.5c-34.3-12.3-55.6-54.4-49.6-97.8l8.3-59.7c2.7-19.2,16.2-33.3,32-33.3
		h33.1V689.9z"/>
	<path id="XMLID_23_" class="st7" d="M345.6,583.1c10.3-4.5,18.1-8.5,24.1-11.9v-93.3h-43.3c-20.9,0-38.6,18.4-42.1,43.8l-8.3,59.7
		c-0.6,4.1-0.9,8.1-1.1,12.1C290.4,595.6,316.2,595.9,345.6,583.1z"/>
	<path id="XMLID_207_" class="st8" d="M282.4,587l8.3-59.7c3.5-25.4,21.2-43.8,42.1-43.8h36.9v-5.6h-43.3
		c-20.9,0-38.6,18.4-42.1,43.8l-8.3,59.7c-0.6,4.1-0.9,8.1-1.1,12.1c2.1,0.3,4.3,0.5,6.7,0.7C281.8,591.8,282.1,589.4,282.4,587z"/>
	<path id="XMLID_56_" class="st4" d="M345.6,583.1c10.3-4.5,18.1-8.5,24.1-11.9v-93.3h-43.3c-20.9,0-38.6,18.4-42.1,43.8l-8.3,59.7
		c-0.6,4.1-0.9,8.1-1.1,12.1C290.4,595.6,316.2,595.9,345.6,583.1z"/>
	<path id="XMLID_81_" class="st9" d="M291.4,584.6c-1.9,0-3.8,0-5.7-0.1c0.1-0.6,0.1-1.1,0.2-1.7l8.3-59.7
		c2.8-20.4,16.4-35.2,32.2-35.2h33.3v77.4c-5.2,2.8-11.3,5.7-18.1,8.7C325.3,581,308.4,584.6,291.4,584.6
		C291.4,584.6,291.4,584.6,291.4,584.6z"/>
	<g id="XMLID_53_">
		<g>
			<path id="XMLID_186_" class="st4" d="M638.4,689.9l23.8-8.5c34.3-12.3,55.6-54.4,49.6-97.8l-8.3-59.7
				c-2.7-19.2-16.2-33.3-32-33.3h-33.1V689.9z"/>
			<path id="XMLID_185_" class="st4" d="M652.3,583.1c-10.3-4.5-18.1-8.5-24.1-11.9v-93.3h43.3c20.9,0,38.6,18.4,42.1,43.8l8.3,59.7
				c0.6,4.1,0.9,8.1,1.1,12.1C707.5,595.6,681.7,595.9,652.3,583.1z"/>
		</g>
	</g>
	<path id="XMLID_49_" class="st4" d="M638.4,689.9l23.8-8.5c34.3-12.3,55.6-54.4,49.6-97.8l-8.3-59.7c-2.7-19.2-16.2-33.3-32-33.3
		h-33.1V689.9z"/>
	<path id="XMLID_32_" class="st5" d="M638.4,689.9l23.8-8.5c34.3-12.3,55.6-54.4,49.6-97.8l-8.3-59.7c-2.7-19.2-16.2-33.3-32-33.3
		h-33.1V689.9z"/>
	<path id="XMLID_221_" class="st6" d="M711.8,587.5l-8.3-59.7c-2.7-19.2-16.2-33.3-32-33.3h-33.1v95c3.4,1.6,6.9,3.2,10.7,4.9
		c18.6,8.1,37.9,12.2,57.4,12.2c2.1,0,4.2-0.1,6.2-0.2C713,600.2,712.7,593.9,711.8,587.5z"/>
	<path id="XMLID_31_" class="st4" d="M638.4,689.9l23.8-8.5c34.3-12.3,55.6-54.4,49.6-97.8l-8.3-59.7c-2.7-19.2-16.2-33.3-32-33.3
		h-33.1V689.9z"/>
	<path id="XMLID_14_" class="st7" d="M652.3,583.1c-10.3-4.5-18.1-8.5-24.1-11.9v-93.3h43.3c20.9,0,38.6,18.4,42.1,43.8l8.3,59.7
		c0.6,4.1,0.9,8.1,1.1,12.1C707.5,595.6,681.7,595.9,652.3,583.1z"/>
	<path id="XMLID_224_" class="st8" d="M664.5,483.3c20.9,0,38.6,18.1,42.1,43.1l8.3,58.7c0.4,2.7,0.7,5.5,0.8,8.2
		c2.6-0.2,5-0.4,7.2-0.7c-0.2-3.9-0.5-7.9-1.1-11.9l-8.3-58.7c-3.5-25-21.2-43.1-42.1-43.1h-43.3v4.4H664.5z"/>
	<path id="XMLID_201_" class="st9" d="M706.5,584.6c-17,0-33.9-3.6-50.2-10.7c-6.8-3-12.9-5.9-18.1-8.7v-77.4h33.3
		c15.8,0,29.4,14.8,32.2,35.2l8.3,59.7c0.1,0.6,0.2,1.1,0.2,1.7C710.3,584.6,708.4,584.6,706.5,584.6z"/>
	<path id="XMLID_13_" class="st4" d="M652.3,583.1c-10.3-4.5-18.1-8.5-24.1-11.9v-93.3h43.3c20.9,0,38.6,18.4,42.1,43.8l8.3,59.7
		c0.6,4.1,0.9,8.1,1.1,12.1C707.5,595.6,681.7,595.9,652.3,583.1z"/>
	<path id="XMLID_17_" class="st3" d="M629.5,341.7c-87.7,0-175.3,0-263,0c-26.8,0.2-28.4-19.2-28.1-46.1v0
		c-0.3-26.9,1.3-46.3,28.1-46.1c87.7,0,175.3,0,263,0c26.8-0.2,28.4,19.2,28.1,46.1c0,0,0,0,0,0
		C657.9,322.5,656.3,341.9,629.5,341.7z"/>
	<path id="XMLID_303_" class="st10" d="M657.7,295.6c0-2.1,0-4.1,0-6.1c-0.1,23.6-3.4,40.1-28.1,39.9c-87.7,0-175.3,0-263,0
		c-24.7,0.2-28-16.3-28.1-39.9c0,2,0,4.1,0,6.2v0c-0.3,26.9,1.3,46.3,28.1,46.1c87.7,0,175.3,0,263,0
		C656.3,341.9,657.9,322.5,657.7,295.6C657.7,295.6,657.7,295.6,657.7,295.6z"/>
	<path id="XMLID_302_" class="st11" d="M338.4,295.6c0,2.1,0,4.2,0,6.2c0.2-23.6,3.5-40.1,28.1-39.9c87.7,0,175.3,0,263,0
		c24.7-0.2,28,16.3,28.1,39.9c0-2,0-4.1,0-6.2c0,0,0,0,0,0c0.3-26.9-1.3-46.3-28.1-46.1c-87.7,0-175.3,0-263,0
		C339.8,249.3,338.2,268.7,338.4,295.6L338.4,295.6z"/>
	<path id="XMLID_4_" class="st4" d="M629.5,341.7c-87.7,0-175.3,0-263,0c-26.8,0.2-28.4-19.2-28.1-46.1v0
		c-0.3-26.9,1.3-46.3,28.1-46.1c87.7,0,175.3,0,263,0c26.8-0.2,28.4,19.2,28.1,46.1c0,0,0,0,0,0
		C657.9,322.5,656.3,341.9,629.5,341.7z"/>
	<line id="XMLID_64_" class="st12" x1="584.9" y1="246.1" x2="584.9" y2="313.9"/>
	<line id="XMLID_65_" class="st12" x1="414.7" y1="246.1" x2="414.7" y2="313.9"/>
	<path id="XMLID_15_" class="st5" d="M658.3,440.8c-2.2-11.6-5.4-22.9-9.4-33.7c-23.9-63.8-83.5-105.2-149.1-105.2h-0.1
		c-65.6,0-125.1,41.4-149.1,105.2c-4,10.8-7.2,22-9.4,33.7c-11.4,71.6-15.5,143.6-10.3,214.9c4.7,51.4,48.6,95.2,88,95.2
		c53.9,0,107.7,0,161.6,0c39.5,0,83.4-43.8,88-95.2C673.8,584.4,669.7,512.4,658.3,440.8z"/>
	<path id="XMLID_242_" class="st6" d="M668.6,643.5c-4.7,50.4-48.6,93.2-88,93.2c-53.9,0-107.7,0-161.6,0c-39.5,0-83.4-42.9-88-93.2
		c-1.3-17.2-2-34.4-2.2-51.6c-0.2,23,0.5,45.9,2.2,68.7c4.7,50.4,48.6,93.2,88,93.2c53.9,0,107.7,0,161.6,0
		c39.5,0,83.4-42.9,88-93.2c1.7-22.9,2.4-45.8,2.2-68.7C670.6,609.1,669.9,626.4,668.6,643.5z"/>
	<path id="XMLID_44_" class="st13" d="M658.3,440.8c-2.2-11.6-5.4-22.9-9.4-33.7c-23.9-63.8-83.5-105.2-149.1-105.2h-0.1
		c-65.6,0-125.1,41.4-149.1,105.2c-4,10.8-7.2,22-9.4,33.7c-11.4,71.6-15.5,143.6-10.3,214.9c2.4,26.5,15.3,51.1,32.6,68.5
		c-13.1-16.3-22.5-37.3-24.4-59.7c-5-70-1.1-140.5,9.8-210.7c2.1-11.4,5.1-22.4,9-33c22.8-62.6,79.5-103.2,141.9-103.2h0.1
		c62.4,0,119.1,40.6,141.9,103.2c3.8,10.6,6.9,21.6,9,33c10.9,70.2,14.7,140.7,9.8,210.7c-2,22.4-11.3,43.4-24.4,59.7
		c17.3-17.5,30.2-42,32.6-68.5C673.8,584.4,669.7,512.4,658.3,440.8z"/>
	<path id="XMLID_118_" class="st14" d="M444.7,445c-11.5,0-20.9,9.4-20.9,20.9c0,11.5,9.4,20.9,20.9,20.9c11.5,0,20.9-9.4,20.9-20.9
		C465.6,454.3,456.2,445,444.7,445z M444.7,477.8c-6.6,0-11.9-5.3-11.9-11.9c0-6.6,5.3-11.9,11.9-11.9s11.9,5.3,11.9,11.9
		C456.6,472.5,451.2,477.8,444.7,477.8z"/>
	<path id="XMLID_126_" class="st15" d="M444.7,445c-11.5,0-20.9,9.4-20.9,20.9c0,11.5,9.4,20.9,20.9,20.9c11.5,0,20.9-9.4,20.9-20.9
		C465.6,454.3,456.2,445,444.7,445z M444.7,477.8c-6.6,0-11.9-5.3-11.9-11.9c0-6.6,5.3-11.9,11.9-11.9s11.9,5.3,11.9,11.9
		C456.6,472.5,451.2,477.8,444.7,477.8z"/>
	<path id="XMLID_158_" class="st14" d="M566,445c-11.5,0-20.9,9.4-20.9,20.9c0,11.5,9.4,20.9,20.9,20.9c11.5,0,20.9-9.4,20.9-20.9
		C586.9,454.3,577.5,445,566,445z M566,477.8c-6.6,0-11.9-5.3-11.9-11.9c0-6.6,5.3-11.9,11.9-11.9s11.9,5.3,11.9,11.9
		C577.9,472.5,572.6,477.8,566,477.8z"/>
	<path id="XMLID_275_" class="st6" d="M656.3,438c0.1-0.1,0.2-0.2,0.4-0.3c-2-8.8-4.6-17.3-7.7-25.6
		c-23.9-63.8-83.5-105.2-149.1-105.2h-0.1c-65.6,0-125.1,41.4-149.1,105.2c-3.1,8.3-5.7,16.8-7.7,25.6c0.1,0.1,0.2,0.2,0.4,0.3
		c44.4,38,106.9,44.9,156.5,44.9C549.3,482.9,611.9,476,656.3,438z"/>
	<path id="XMLID_116_" class="st16" d="M594.2,707.9H412.5c-12,0-21.8-9.7-21.8-21.8v-81c0-12,9.7-21.8,21.8-21.8h181.7
		c12,0,21.8,9.7,21.8,21.8v81C616,698.2,606.3,707.9,594.2,707.9z"/>
	<path id="XMLID_121_" class="st15" d="M566,445c-11.5,0-20.9,9.4-20.9,20.9c0,11.5,9.4,20.9,20.9,20.9c11.5,0,20.9-9.4,20.9-20.9
		C586.9,454.3,577.5,445,566,445z M566,477.8c-6.6,0-11.9-5.3-11.9-11.9c0-6.6,5.3-11.9,11.9-11.9s11.9,5.3,11.9,11.9
		C577.9,472.5,572.6,477.8,566,477.8z"/>
	<path id="XMLID_25_" class="st1" d="M594.2,697.9H412.5c-12,0-21.8-9.7-21.8-21.8v-81c0-12,9.7-21.8,21.8-21.8h181.7
		c12,0,21.8,9.7,21.8,21.8v81C616,688.2,606.3,697.9,594.2,697.9z"/>
	<path id="XMLID_99_" class="st17" d="M510.1,643.5l-6,6.2c-2.3,2.4-6.3,2.4-8.6,0l-6-6.2c-0.5-0.5-0.7-1.1-0.7-1.7v-75.2
		c0-1.4,1.2-2.5,2.8-2.5H508c1.5,0,2.8,1.1,2.8,2.5v75.2C510.8,642.5,510.5,643.1,510.1,643.5z"/>
	<path id="XMLID_10_" class="st4" d="M594.2,697.9H412.5c-12,0-21.8-9.7-21.8-21.8v-81c0-12,9.7-21.8,21.8-21.8h181.7
		c12,0,21.8,9.7,21.8,21.8v81C616,688.2,606.3,697.9,594.2,697.9z"/>
	<g id="XMLID_21_">
		<path class="st18" d="M412.5,685.9c-5.4,0-9.8-4.4-9.8-9.8v-81c0-5.4,4.4-9.8,9.8-9.8h181.7c5.4,0,9.8,4.4,9.8,9.8v81
			c0,5.4-4.4,9.8-9.8,9.8H412.5z"/>
	</g>
	<path id="XMLID_18_" class="st4" d="M658.3,440.8c-2.2-11.6-5.4-22.9-9.4-33.7c-23.9-63.8-83.5-105.2-149.1-105.2h-0.1
		c-65.6,0-125.1,41.4-149.1,105.2c-4,10.8-7.2,22-9.4,33.7c-11.4,71.6-15.5,143.6-10.3,214.9c4.7,51.4,48.6,95.2,88,95.2
		c53.9,0,107.7,0,161.6,0c39.5,0,83.4-43.8,88-95.2C673.8,584.4,669.7,512.4,658.3,440.8z"/>
	<path id="XMLID_24_" class="st1" d="M499.8,465.9c59,0,112.2-8.1,150-40.5c7-6,9.8-16.4,6.7-25.6c0-0.1,0-0.1-0.1-0.2
		c-12.3-36.1-33.6-66.7-61.8-88.5c-28.1-21.7-60.8-33.2-94.8-33.2c-33.9,0-66.7,11.5-94.8,33.2c-28.2,21.8-49.5,52.5-61.8,88.5
		c0,0.1,0,0.1-0.1,0.2c-3.1,9.2-0.4,19.6,6.7,25.6C387.6,457.7,440.8,465.9,499.8,465.9z"/>
	<path id="XMLID_115_" class="st17" d="M453.1,362.8l-6,6.7c-2.3,2.6-6.3,2.6-8.6,0l-6-6.7c-0.5-0.5-0.7-1.2-0.7-1.8v-82.3
		c0-1.5,1.2-2.8,2.8-2.8h16.5c1.5,0,2.8,1.2,2.8,2.8v82.3C453.8,361.6,453.6,362.3,453.1,362.8z"/>
	<path id="XMLID_205_" class="st17" d="M565.5,362.8l-6,6.7c-2.3,2.6-6.3,2.6-8.6,0l-6-6.7c-0.5-0.5-0.7-1.2-0.7-1.8v-82.3
		c0-1.5,1.2-2.8,2.8-2.8h16.5c1.5,0,2.8,1.2,2.8,2.8v82.3C566.2,361.6,565.9,362.3,565.5,362.8z"/>
	<path id="XMLID_249_" class="st19" d="M649.8,416.4c-37.8,32.3-91,40.5-150,40.5c-59,0-112.2-8.1-150-40.5c-4-3.4-6.6-8.2-7.5-13.3
		c-1.5,8.3,1.3,17,7.5,22.3c37.8,32.3,91,40.5,150,40.5c59,0,112.2-8.1,150-40.5c6.2-5.3,9.1-14,7.5-22.3
		C656.3,408.3,653.7,413,649.8,416.4z"/>
	<path id="XMLID_33_" class="st20" d="M656.4,399.8c0-0.1,0-0.1-0.1-0.2c-12.3-36.1-33.6-66.7-61.8-88.5
		c-28.1-21.7-60.8-33.2-94.8-33.2c-33.9,0-66.7,11.5-94.8,33.2c-28.2,21.8-49.5,52.5-61.8,88.5c0,0.1,0,0.1-0.1,0.2
		c-3,8.8-0.6,18.7,5.8,24.8c-3.2-5.6-4-12.7-1.8-19.2c0,0,0-0.1,0.1-0.1c12-35.2,32.8-65,60.2-86.3c27.3-21.2,59.3-32.4,92.3-32.4
		c33.1,0,65.1,11.2,92.4,32.4c27.4,21.3,48.3,51.1,60.2,86.3c0,0,0,0.1,0,0.1c2.2,6.5,1.4,13.6-1.8,19.2
		C657,418.5,659.4,408.6,656.4,399.8z"/>
	<path id="XMLID_19_" class="st4" d="M499.8,465.9c59,0,112.2-8.1,150-40.5c7-6,9.8-16.4,6.7-25.6c0-0.1,0-0.1-0.1-0.2
		c-12.3-36.1-33.6-66.7-61.8-88.5c-28.1-21.7-60.8-33.2-94.8-33.2c-33.9,0-66.7,11.5-94.8,33.2c-28.2,21.8-49.5,52.5-61.8,88.5
		c0,0.1,0,0.1-0.1,0.2c-3.1,9.2-0.4,19.6,6.7,25.6C387.6,457.7,440.8,465.9,499.8,465.9z"/>
	<path id="XMLID_28_" class="st9" d="M499.8,453.9c-68,0-111.8-11.6-142.2-37.6c-3.4-2.9-4.7-8.1-3.1-12.6l0-0.1
		c11.5-33.9,31.5-62.5,57.8-82.9c25.9-20.1,56.2-30.7,87.4-30.7c31.3,0,61.5,10.6,87.5,30.7c26.3,20.4,46.3,49.1,57.8,82.9l0,0.1
		c1.5,4.6,0.3,9.8-3.1,12.6C611.6,442.3,567.8,453.9,499.8,453.9z"/>
	<g id="XMLID_36_">
		<path id="XMLID_8_" class="st21" d="M510.1,634.1l-6.7,7.5c-1.9,2.2-5.3,2.2-7.3,0l-6.7-7.5c-0.5-0.5-0.7-1.2-0.7-1.8v-65.3
			c0-1.5,1.2-2.8,2.8-2.8H508c1.5,0,2.8,1.2,2.8,2.8v65.3C510.8,632.9,510.5,633.6,510.1,634.1z"/>
		<path id="XMLID_5_" class="st22" d="M510.1,634.1l-6,6.7c-2.3,2.6-6.3,2.6-8.6,0l-6-6.7c-0.5-0.5-0.7-1.2-0.7-1.8v-65.3
			c0-1.5,1.2-2.8,2.8-2.8H508c1.5,0,2.8,1.2,2.8,2.8v65.3C510.8,632.9,510.5,633.6,510.1,634.1z"/>
		<rect id="XMLID_20_" x="488.8" y="601.6" class="st22" width="22" height="13.5"/>
		<line id="XMLID_35_" class="st22" x1="499.8" y1="602.8" x2="499.8" y2="615.1"/>
		<circle id="XMLID_34_" class="st23" cx="499.8" cy="577.6" r="3.4"/>
		<circle id="XMLID_40_" class="st23" cx="499.8" cy="591.6" r="3.4"/>
		<circle id="XMLID_51_" class="st23" cx="499.8" cy="625" r="3.4"/>
	</g>
	<g id="XMLID_108_">
		<g id="XMLID_45_">
			<path id="XMLID_120_" class="st21" d="M453.1,353.8l-6.7,7.5c-1.9,2.2-5.3,2.2-7.3,0l-6.7-7.5c-0.5-0.5-0.7-1.2-0.7-1.8v-82.3
				c0-1.5,1.2-2.8,2.8-2.8h16.5c1.5,0,2.8,1.2,2.8,2.8v82.3C453.8,352.6,453.6,353.3,453.1,353.8z"/>
			<path id="XMLID_117_" class="st22" d="M453.1,353.8l-6,6.7c-2.3,2.6-6.3,2.6-8.6,0l-6-6.7c-0.5-0.5-0.7-1.2-0.7-1.8v-82.3
				c0-1.5,1.2-2.8,2.8-2.8h16.5c1.5,0,2.8,1.2,2.8,2.8v82.3C453.8,352.6,453.6,353.3,453.1,353.8z"/>
			<rect id="XMLID_54_" x="431.8" y="321.3" class="st24" width="22" height="13.5"/>
			<rect id="XMLID_114_" x="431.8" y="321.3" class="st22" width="22" height="13.5"/>
			<line id="XMLID_113_" class="st22" x1="442.8" y1="322.5" x2="442.8" y2="334.8"/>
			<circle id="XMLID_110_" class="st23" cx="442.8" cy="297.3" r="3.4"/>
			<circle id="XMLID_72_" class="st23" cx="442.8" cy="311.3" r="3.4"/>
			<circle id="XMLID_52_" class="st23" cx="442.8" cy="344.7" r="3.4"/>
		</g>
		<g id="XMLID_123_">
			<path id="XMLID_140_" class="st21" d="M565.5,353.8l-6.7,7.5c-1.9,2.2-5.3,2.2-7.3,0l-6.7-7.5c-0.5-0.5-0.7-1.2-0.7-1.8v-82.3
				c0-1.5,1.2-2.8,2.8-2.8h16.5c1.5,0,2.8,1.2,2.8,2.8v82.3C566.2,352.6,565.9,353.3,565.5,353.8z"/>
			<rect id="XMLID_76_" x="544.2" y="321.3" class="st24" width="22" height="13.5"/>
			<path id="XMLID_137_" class="st22" d="M565.5,353.8l-6,6.7c-2.3,2.6-6.3,2.6-8.6,0l-6-6.7c-0.5-0.5-0.7-1.2-0.7-1.8v-82.3
				c0-1.5,1.2-2.8,2.8-2.8h16.5c1.5,0,2.8,1.2,2.8,2.8v82.3C566.2,352.6,565.9,353.3,565.5,353.8z"/>
			<circle id="XMLID_210_" class="st23" cx="442.8" cy="283.3" r="3.4"/>
			<circle id="XMLID_143_" class="st23" cx="555.2" cy="283.3" r="3.4"/>
			<circle id="XMLID_232_" class="st23" cx="442.8" cy="270.2" r="3.4"/>
			<circle id="XMLID_218_" class="st23" cx="555.2" cy="270.2" r="3.4"/>
			<rect id="XMLID_74_" x="544.2" y="321.3" class="st24" width="22" height="13.5"/>
			<rect id="XMLID_134_" x="544.2" y="321.3" class="st22" width="22" height="13.5"/>
			<line id="XMLID_133_" class="st22" x1="555.2" y1="322.5" x2="555.2" y2="334.8"/>
			<circle id="XMLID_130_" class="st23" cx="555.2" cy="297.3" r="3.4"/>
			<circle id="XMLID_127_" class="st23" cx="555.2" cy="311.3" r="3.4"/>
			<circle id="XMLID_124_" class="st23" cx="555.2" cy="344.7" r="3.4"/>
		</g>
	</g>
	<path id="XMLID_39_" class="st25" d="M520,439.4h-41.5c-4,0-7.2-3.2-7.2-7.2v-49c0-4,3.2-7.2,7.2-7.2H520c4,0,7.2,3.2,7.2,7.2v49
		C527.3,436.1,524,439.4,520,439.4z"/>
	<rect id="XMLID_202_" x="471.3" y="375.9" class="st19" width="56" height="27.6"/>
	<path id="XMLID_43_" class="st22" d="M520,439.4h-41.5c-4,0-7.2-3.2-7.2-7.2v-49c0-4,3.2-7.2,7.2-7.2H520c4,0,7.2,3.2,7.2,7.2v49
		C527.3,436.1,524,439.4,520,439.4z"/>
	<path id="XMLID_196_" class="st26" d="M478.5,433.4c-0.7,0-1.2-0.6-1.2-1.2v-49c0-0.7,0.6-1.2,1.2-1.2H520c0.7,0,1.2,0.6,1.2,1.2
		v49c0,0.7-0.6,1.2-1.2,1.2H478.5z"/>
	<rect id="XMLID_41_" x="466.3" y="354.9" class="st5" width="66" height="38.3"/>
	<rect id="XMLID_37_" x="466.3" y="354.9" class="st22" width="66" height="38.3"/>
	<path id="XMLID_166_" class="st1" d="M542.1,534.6h-88.2c-4.5,0-8.2-3.7-8.2-8.2l0,0c0-4.5,3.7-8.2,8.2-8.2h88.2
		c4.5,0,8.2,3.7,8.2,8.2l0,0C550.3,530.9,546.7,534.6,542.1,534.6z"/>
	<path id="XMLID_119_" class="st27" d="M542.1,534.6h-88.2c-4.5,0-8.2-3.7-8.2-8.2l0,0c0-4.5,3.7-8.2,8.2-8.2h88.2
		c4.5,0,8.2,3.7,8.2,8.2l0,0C550.3,530.9,546.7,534.6,542.1,534.6z"/>
	<line id="XMLID_175_" class="st28" x1="507.5" y1="526.4" x2="537.1" y2="526.4"/>
	<line id="XMLID_174_" class="st28" x1="483.2" y1="526.4" x2="498" y2="526.4"/>
	<line id="XMLID_167_" class="st28" x1="459" y1="526.4" x2="475.3" y2="526.4"/>
	<rect id="XMLID_42_" x="488.5" y="350.1" class="st29" width="21.5" height="64.8"/>
	<rect id="XMLID_38_" x="488.5" y="350.1" class="st27" width="21.5" height="64.8"/>
	<circle id="XMLID_60_" class="st27" cx="499.8" cy="402" r="3.8"/>
	<circle id="XMLID_78_" class="st25" cx="573.8" cy="404.9" r="14.7"/>
	<circle id="XMLID_70_" class="st15" cx="573.8" cy="404.9" r="14.7"/>
	<g id="XMLID_216_">
		<polygon id="XMLID_225_" class="st30" points="567.8,411 573.8,395.9 579.8,411 		"/>
		<polygon id="XMLID_223_" class="st15" points="567.8,411 573.8,395.9 579.8,411 		"/>
	</g>
</g>
<line id="XMLID_270_" class="st4" x1="748.7" y1="750.9" x2="774" y2="750.9"/>
<line id="XMLID_193_" class="st4" x1="794" y1="750.9" x2="804.3" y2="750.9"/>
<line id="XMLID_305_" class="st4" x1="322.3" y1="750.9" x2="712.2" y2="750.9"/>
<line id="XMLID_262_" class="st4" x1="240.7" y1="750.9" x2="297.3" y2="750.9"/>
</svg>
