<?xml version="1.0" encoding="utf-8"?>
<!-- Generator: Adobe Illustrator 24.1.0, SVG Export Plug-In . SVG Version: 6.00 Build 0)  -->
<svg version="1.1" id="Layer_1" xmlns="http://www.w3.org/2000/svg" xmlns:xlink="http://www.w3.org/1999/xlink" x="0px" y="0px"
	 viewBox="0 0 1000 1000" style="enable-background:new 0 0 1000 1000;" xml:space="preserve">
<style type="text/css">
	.st0{fill:#FFFFFF;}
	.st1{fill:#E4E8EC;}
	.st2{fill:#606060;}
	.st3{fill:#4BE080;}
	.st4{fill:#4ACC8A;}
	.st5{fill:none;stroke:#441A36;stroke-width:6;stroke-linecap:round;stroke-linejoin:round;stroke-miterlimit:10;}
	.st6{fill:#9DEDB8;}
	.st7{fill:#441A36;}
	.st8{fill:#FFC417;}
	.st9{fill:#FF4F7C;}
	.st10{fill:#F2F2F2;}
</style>
<rect class="st0" width="1000" height="1000"/>
<ellipse class="st1" cx="500" cy="878.6" rx="207.5" ry="22.6"/>
<g>
	<g>
		<g>
			<g>
				<path class="st2" d="M63.2,959.2c0,2.5-1.2,3.7-2.6,3.7c-1.1,0-1.9-0.5-2.1-1.4c-0.4,0.5-1,0.8-1.8,0.8c-1.5,0-2.6-1.2-2.6-2.8
					s1.1-2.8,2.6-2.8c0.7,0,1.2,0.3,1.6,0.7v-0.5h1.6v3.9c0,0.8,0.3,1.4,1,1.4c0.9,0,1.7-0.9,1.7-3c0-3-2.3-5.3-5.4-5.3
					c-3.1,0-5.6,2.4-5.6,5.7s2.5,5.7,5.9,5.7c1.1,0,2.1-0.2,2.9-0.4v0.6c-0.8,0.3-1.7,0.4-2.9,0.4c-3.7,0-6.5-2.6-6.5-6.2
					c0-3.4,2.7-6.2,6.2-6.2C61.1,953.3,63.2,956.4,63.2,959.2z M58.3,959.5c0-0.8-0.6-1.4-1.3-1.4c-0.8,0-1.3,0.5-1.3,1.4
					c0,0.8,0.6,1.3,1.3,1.3C57.8,960.9,58.3,960.3,58.3,959.5z"/>
			</g>
		</g>
		<g>
			<g>
				<path class="st2" d="M69.4,955.1v2c-1.2-0.1-2.6,0.5-2.6,2.4v4.3h-1.9v-8.6h1.9v1.4C67.3,955.5,68.3,955.1,69.4,955.1z"/>
			</g>
		</g>
		<g>
			<g>
				<path class="st2" d="M74.6,962.3c1,0,1.8-0.5,2.2-1.1l1.5,0.9c-0.8,1.2-2.1,1.9-3.8,1.9c-2.8,0-4.7-1.9-4.7-4.5
					c0-2.5,1.8-4.5,4.5-4.5c2.6,0,4.3,2.1,4.3,4.5c0,0.3,0,0.5-0.1,0.8h-6.8C72.1,961.6,73.2,962.3,74.6,962.3z M76.9,958.8
					c-0.3-1.5-1.3-2.1-2.5-2.1c-1.4,0-2.3,0.8-2.6,2.1H76.9z"/>
			</g>
		</g>
		<g>
			<g>
				<path class="st2" d="M88.9,955.2v8.6H87v-1.2c-0.7,0.9-1.7,1.5-3,1.5c-2.3,0-4.3-2-4.3-4.5c0-2.6,1.9-4.5,4.3-4.5
					c1.3,0,2.3,0.5,3,1.4v-1.2L88.9,955.2L88.9,955.2z M87.1,959.5c0-1.6-1.2-2.7-2.7-2.7s-2.7,1.1-2.7,2.7c0,1.6,1.2,2.7,2.7,2.7
					C85.9,962.3,87.1,961.1,87.1,959.5z"/>
			</g>
		</g>
		<g>
			<g>
				<path class="st2" d="M91.1,951.3H93v12.5h-1.9V951.3z"/>
			</g>
		</g>
		<g>
			<g>
				<path class="st2" d="M102.9,955.2l-3.3,8.6h-2.1l-3.3-8.6h2l2.4,6.5l2.4-6.5H102.9z"/>
			</g>
		</g>
		<g>
			<g>
				<path class="st2" d="M104.2,955.2h1.9v8.9c0,2.4-1.2,3.5-3.5,3.3v-1.8c1.1,0.1,1.7-0.3,1.7-1.5L104.2,955.2L104.2,955.2z
					 M104,952.8c0-0.7,0.5-1.2,1.2-1.2s1.2,0.5,1.2,1.2c0,0.6-0.5,1.2-1.2,1.2S104,953.4,104,952.8z"/>
			</g>
		</g>
		<g>
			<g>
				<path class="st2" d="M116,955.2l-3.3,8.8c-0.8,2.2-2.2,3.3-4.2,3.2v-1.7c1.2,0.1,1.9-0.5,2.3-1.7l0.1-0.2l-3.6-8.4h2l2.6,6.2
					l2.2-6.2L116,955.2L116,955.2z"/>
			</g>
		</g>
	</g>
	<g>
		<g>
			<path class="st2" d="M58.9,938.7c0,2.1-1.5,3.8-3.6,3.8h-3v-7.6h3C57.4,934.9,58.9,936.6,58.9,938.7z M57.9,938.7
				c0-1.6-1.1-2.9-2.6-2.9h-2v5.7h2C56.8,941.6,57.9,940.3,57.9,938.7z"/>
		</g>
		<g>
			<path class="st2" d="M67,941.6v1h-4.6V935h4.5v1h-3.5v2.3h3.2v0.9h-3.2v2.4L67,941.6L67,941.6z"/>
		</g>
		<g>
			<path class="st2" d="M70,940.8l0.9-0.5c0.3,0.8,0.9,1.4,2,1.4s1.6-0.5,1.6-1.2c0-0.8-0.7-1-1.8-1.4c-1.2-0.4-2.4-0.8-2.4-2.2
				s1.1-2.2,2.4-2.2s2.2,0.7,2.6,1.7l-0.8,0.5c-0.3-0.7-0.8-1.2-1.7-1.2c-0.8,0-1.4,0.4-1.4,1.1c0,0.7,0.5,1,1.6,1.3
				c1.3,0.4,2.6,0.8,2.6,2.3c0,1.3-1.1,2.2-2.6,2.2C71.5,942.7,70.4,941.9,70,940.8z"/>
		</g>
		<g>
			<path class="st2" d="M80,934.9v7.6h-1v-7.6H80z"/>
		</g>
		<g>
			<path class="st2" d="M91.3,939.2c0,1.9-1.4,3.5-3.7,3.5c-2.4,0-4-1.8-4-4s1.7-4,4-4c1.4,0,2.7,0.8,3.3,1.8L90,937
				c-0.4-0.8-1.4-1.4-2.4-1.4c-1.8,0-3,1.3-3,3s1.2,3,3,3c1.6,0,2.5-0.9,2.7-2h-2.8v-0.9h3.8V939.2z"/>
		</g>
		<g>
			<path class="st2" d="M100.6,934.9v7.6h-0.8l-3.9-5.7v5.7h-1v-7.6h0.8l3.9,5.7v-5.7H100.6z"/>
		</g>
		<g>
			<path class="st2" d="M109.1,941.6v1h-4.6V935h4.5v1h-3.5v2.3h3.2v0.9h-3.2v2.4L109.1,941.6L109.1,941.6z"/>
		</g>
		<g>
			<path class="st2" d="M119.2,938.7c0,2.1-1.5,3.8-3.6,3.8h-3v-7.6h3C117.6,934.9,119.2,936.6,119.2,938.7z M118.2,938.7
				c0-1.6-1.1-2.9-2.6-2.9h-2v5.7h2C117.1,941.6,118.2,940.3,118.2,938.7z"/>
		</g>
		<g>
			<path class="st2" d="M133.2,940.4c0,1.2-1,2.2-2.2,2.2h-3.3V935h3c1.2,0,2.1,0.9,2.1,2.1c0,0.7-0.3,1.2-0.8,1.6
				C132.7,938.9,133.2,939.5,133.2,940.4z M128.7,935.8v2.3h2c0.6,0,1.1-0.5,1.1-1.2c0-0.6-0.5-1.2-1.1-1.2h-2V935.8z M132.2,940.3
				c0-0.7-0.5-1.2-1.2-1.2h-2.3v2.5h2.3C131.7,941.6,132.2,941,132.2,940.3z"/>
		</g>
		<g>
			<path class="st2" d="M139.4,939.4v3.1h-1v-3.1l-2.7-4.5h1.1l2.1,3.6l2.1-3.6h1.1L139.4,939.4z"/>
		</g>
	</g>
	<g>
		<g>
			<g>
				<g>
					<path class="st2" d="M846.1,938.7c0,2.1-1.5,3.8-3.6,3.8h-3v-7.6h3C844.6,934.9,846.1,936.6,846.1,938.7z M845.2,938.7
						c0-1.6-1.1-2.9-2.6-2.9h-2v5.7h2C844.1,941.6,845.2,940.3,845.2,938.7z"/>
				</g>
			</g>
			<g>
				<g>
					<path class="st2" d="M849.3,938.7c0-2.2,1.7-4,3.9-4s4,1.8,4,4s-1.7,4-4,4C851,942.7,849.3,940.9,849.3,938.7z M856.1,938.7
						c0-1.7-1.3-3-2.9-3c-1.7,0-2.9,1.3-2.9,3s1.3,3,2.9,3C854.9,941.7,856.1,940.4,856.1,938.7z"/>
				</g>
			</g>
			<g>
				<g>
					<path class="st2" d="M859.8,934.9h1.1l1.7,6.3l1.9-6.3h1l1.9,6.3l1.7-6.3h1.1l-2.2,7.6h-1.2l-1.8-6.1l-1.8,6.1H862L859.8,934.9
						z"/>
				</g>
			</g>
			<g>
				<g>
					<path class="st2" d="M879.3,934.9v7.6h-0.8l-3.9-5.7v5.7h-1v-7.6h0.8l3.9,5.7v-5.7H879.3z"/>
				</g>
			</g>
			<g>
				<g>
					<path class="st2" d="M887.5,941.6v1h-4.3V935h1v6.7h3.3V941.6z"/>
				</g>
			</g>
			<g>
				<g>
					<path class="st2" d="M889.9,938.7c0-2.2,1.7-4,3.9-4s4,1.8,4,4s-1.7,4-4,4C891.6,942.7,889.9,940.9,889.9,938.7z M896.8,938.7
						c0-1.7-1.3-3-2.9-3c-1.7,0-2.9,1.3-2.9,3s1.3,3,2.9,3S896.8,940.4,896.8,938.7z"/>
				</g>
			</g>
			<g>
				<g>
					<path class="st2" d="M905.4,940.8H902l-0.6,1.7h-1.1l2.8-7.6h1.1l2.8,7.6h-1L905.4,940.8z M905.1,939.9l-1.4-3.8l-1.4,3.8
						H905.1z"/>
				</g>
			</g>
			<g>
				<g>
					<path class="st2" d="M916.9,938.7c0,2.1-1.5,3.8-3.6,3.8h-3v-7.6h3C915.4,934.9,916.9,936.6,916.9,938.7z M915.9,938.7
						c0-1.6-1.1-2.9-2.6-2.9h-2v5.7h2C914.9,941.6,915.9,940.3,915.9,938.7z"/>
				</g>
			</g>
			<g>
				<g>
					<path class="st2" d="M926.5,935.8v2.5h3.2v1h-3.2v3.2h-1v-7.6h4.4v1h-3.4V935.8z"/>
				</g>
			</g>
			<g>
				<g>
					<path class="st2" d="M936.2,939.6h-1.8v2.9h-1v-7.6h3c1.3,0,2.4,1.1,2.4,2.4c0,1-0.7,1.9-1.6,2.2l1.8,3.1h-1.1L936.2,939.6z
						 M934.4,938.7h2c0.8,0,1.4-0.6,1.4-1.4c0-0.8-0.6-1.4-1.4-1.4h-2V938.7z"/>
				</g>
			</g>
			<g>
				<g>
					<path class="st2" d="M941.9,938.7c0-2.2,1.7-4,3.9-4s4,1.8,4,4s-1.7,4-4,4C943.6,942.7,941.9,940.9,941.9,938.7z M948.8,938.7
						c0-1.7-1.3-3-2.9-3c-1.7,0-2.9,1.3-2.9,3s1.3,3,2.9,3S948.8,940.4,948.8,938.7z"/>
				</g>
			</g>
			<g>
				<g>
					<path class="st2" d="M960.4,942.5h-1v-6l-2.5,4.2h-0.1l-2.5-4.1v5.9h-1v-7.6h1.1l2.4,4l2.4-4h1.1L960.4,942.5L960.4,942.5z"/>
				</g>
			</g>
		</g>
		<g>
			<g>
				<g>
					<path class="st2" d="M839.3,952.9c0-0.7,0.5-1.2,1.2-1.2s1.2,0.5,1.2,1.2s-0.5,1.2-1.2,1.2
						C839.9,954.1,839.3,953.6,839.3,952.9z M839.6,955.4h1.9v8.9h-1.9V955.4z"/>
				</g>
			</g>
			<g>
				<g>
					<path class="st2" d="M843.7,951.4h1.9v12.9h-1.9V951.4z"/>
				</g>
			</g>
			<g>
				<g>
					<path class="st2" d="M847.8,951.4h1.9v12.9h-1.9V951.4z"/>
				</g>
			</g>
			<g>
				<g>
					<path class="st2" d="M852,951.4h1.9v12.9H852V951.4z"/>
				</g>
			</g>
			<g>
				<g>
					<path class="st2" d="M864,955.4v8.9h-1.9v-1.1c-0.6,0.9-1.5,1.4-2.7,1.4c-2,0-3.4-1.3-3.4-3.6v-5.4h1.9v5.2
						c0,1.3,0.8,2.1,2,2.1c1.3,0,2.2-0.7,2.2-2.5v-4.7h1.9V955.4z"/>
				</g>
			</g>
			<g>
				<g>
					<path class="st2" d="M872.6,961.8c0,1.8-1.5,2.7-3.5,2.7c-1.8,0-3-0.8-3.6-2.1l1.6-1c0.3,0.8,1,1.3,2,1.3c0.8,0,1.5-0.3,1.5-1
						c0-1.6-4.8-0.7-4.8-3.9c0-1.7,1.4-2.7,3.2-2.7c1.5,0,2.7,0.7,3.3,1.8l-1.6,0.9c-0.3-0.7-0.9-1-1.7-1c-0.7,0-1.3,0.3-1.3,0.9
						C867.9,959.5,872.6,958.5,872.6,961.8z"/>
				</g>
			</g>
			<g>
				<g>
					<path class="st2" d="M876.7,957.3v4.2c0,1.1,0.7,1.1,2.2,1v1.7c-2.9,0.4-4.1-0.5-4.1-2.8v-4.2h-1.6v-1.8h1.6v-1.9l1.9-0.6v2.5
						h2.2v1.8L876.7,957.3L876.7,957.3z"/>
				</g>
			</g>
			<g>
				<g>
					<path class="st2" d="M885.4,955.3v2.1c-1.3-0.1-2.7,0.5-2.7,2.5v4.5h-1.9v-8.9h1.9v1.5C883.2,955.7,884.2,955.3,885.4,955.3z"
						/>
				</g>
			</g>
			<g>
				<g>
					<path class="st2" d="M895.3,955.4v8.9h-1.9V963c-0.7,0.9-1.7,1.5-3.1,1.5c-2.4,0-4.4-2-4.4-4.7c0-2.6,2-4.7,4.4-4.7
						c1.4,0,2.4,0.6,3.1,1.5v-1.3h1.9V955.4z M893.4,959.9c0-1.6-1.2-2.8-2.8-2.8s-2.8,1.2-2.8,2.8s1.2,2.8,2.8,2.8
						S893.4,961.5,893.4,959.9z"/>
				</g>
			</g>
			<g>
				<g>
					<path class="st2" d="M900.3,957.3v4.2c0,1.1,0.7,1.1,2.2,1v1.7c-2.9,0.4-4.1-0.5-4.1-2.8v-4.2h-1.6v-1.8h1.6v-1.9l1.9-0.6v2.5
						h2.2v1.8L900.3,957.3L900.3,957.3z"/>
				</g>
			</g>
			<g>
				<g>
					<path class="st2" d="M903.9,952.9c0-0.7,0.5-1.2,1.2-1.2s1.2,0.5,1.2,1.2s-0.5,1.2-1.2,1.2
						C904.5,954.1,903.9,953.6,903.9,952.9z M904.2,955.4h1.9v8.9h-1.9V955.4z"/>
				</g>
			</g>
			<g>
				<g>
					<path class="st2" d="M907.8,959.9c0-2.6,2.1-4.7,4.7-4.7c2.6,0,4.7,2,4.7,4.7c0,2.6-2.1,4.7-4.7,4.7
						C909.9,964.5,907.8,962.5,907.8,959.9z M915.3,959.9c0-1.6-1.2-2.8-2.8-2.8s-2.8,1.2-2.8,2.8s1.2,2.8,2.8,2.8
						S915.3,961.5,915.3,959.9z"/>
				</g>
			</g>
			<g>
				<g>
					<path class="st2" d="M927,958.9v5.4h-1.9v-5.2c0-1.3-0.8-2.1-2-2.1c-1.3,0-2.2,0.7-2.2,2.5v4.7H919v-8.9h1.9v1.1
						c0.6-0.9,1.5-1.4,2.7-1.4C925.5,955.2,927,956.6,927,958.9z"/>
				</g>
			</g>
			<g>
				<g>
					<path class="st2" d="M935.5,961.8c0,1.8-1.5,2.7-3.5,2.7c-1.8,0-3-0.8-3.6-2.1l1.6-1c0.3,0.8,1,1.3,2,1.3c0.8,0,1.5-0.3,1.5-1
						c0-1.6-4.8-0.7-4.8-3.9c0-1.7,1.4-2.7,3.2-2.7c1.5,0,2.7,0.7,3.3,1.8l-1.6,0.9c-0.3-0.7-0.9-1-1.7-1c-0.7,0-1.3,0.3-1.3,0.9
						C930.7,959.5,935.5,958.5,935.5,961.8z"/>
				</g>
			</g>
			<g>
				<g>
					<path class="st2" d="M936.8,963.2c0-0.7,0.6-1.3,1.3-1.3s1.3,0.6,1.3,1.3s-0.6,1.3-1.3,1.3
						C937.4,964.5,936.8,963.9,936.8,963.2z"/>
				</g>
			</g>
			<g>
				<g>
					<path class="st2" d="M940.3,959.9c0-2.6,2-4.7,4.7-4.7c1.7,0,3.2,0.9,3.9,2.3l-1.6,1c-0.4-0.8-1.3-1.4-2.3-1.4
						c-1.6,0-2.7,1.2-2.7,2.8s1.2,2.8,2.7,2.8c1.1,0,1.9-0.5,2.4-1.4l1.6,0.9c-0.7,1.4-2.2,2.3-4,2.3
						C942.3,964.5,940.3,962.5,940.3,959.9z"/>
				</g>
			</g>
			<g>
				<g>
					<path class="st2" d="M949.7,959.9c0-2.6,2.1-4.7,4.7-4.7c2.6,0,4.7,2,4.7,4.7c0,2.6-2.1,4.7-4.7,4.7
						C951.8,964.5,949.7,962.5,949.7,959.9z M957.2,959.9c0-1.6-1.2-2.8-2.8-2.8s-2.8,1.2-2.8,2.8s1.2,2.8,2.8,2.8
						S957.2,961.5,957.2,959.9z"/>
				</g>
			</g>
		</g>
	</g>
	<g>
		<path class="st2" d="M209.9,943.1c-1.2,0-2.2-0.4-3-1.2c-0.8-0.8-1.2-1.8-1.2-2.9c0-1.2,0.4-2.1,1.2-2.9c0.8-0.8,1.8-1.2,3-1.2
			c0.7,0,1.4,0.2,2,0.5c0.6,0.3,1.1,0.8,1.4,1.4l-0.9,0.5c-0.2-0.4-0.6-0.8-1-1c-0.4-0.3-0.9-0.4-1.5-0.4c-0.9,0-1.7,0.3-2.2,0.9
			c-0.6,0.6-0.9,1.3-0.9,2.2c0,0.9,0.3,1.6,0.9,2.2c0.6,0.6,1.3,0.9,2.2,0.9c0.5,0,1-0.1,1.5-0.4c0.5-0.3,0.8-0.6,1-1l0.9,0.5
			c-0.3,0.6-0.8,1.1-1.4,1.4C211.3,942.9,210.6,943.1,209.9,943.1z"/>
		<path class="st2" d="M222.1,941.9c-0.8,0.8-1.8,1.2-2.9,1.2s-2.1-0.4-2.9-1.2s-1.2-1.8-1.2-2.9c0-1.2,0.4-2.1,1.2-2.9
			c0.8-0.8,1.8-1.2,2.9-1.2s2.1,0.4,2.9,1.2c0.8,0.8,1.2,1.8,1.2,2.9C223.3,940.1,222.9,941.1,222.1,941.9z M217,941.2
			c0.6,0.6,1.3,0.9,2.2,0.9c0.9,0,1.6-0.3,2.2-0.9s0.9-1.3,0.9-2.2c0-0.9-0.3-1.6-0.9-2.2c-0.6-0.6-1.3-0.9-2.2-0.9
			c-0.9,0-1.6,0.3-2.2,0.9c-0.6,0.6-0.9,1.3-0.9,2.2C216.1,939.8,216.4,940.6,217,941.2z"/>
		<path class="st2" d="M227.3,942.9l-2.8-7.9h1.1l2.3,6.6l2.3-6.6h1.1l-2.8,7.9H227.3z"/>
		<path class="st2" d="M233.3,935h1.1v7.9h-1.1V935z"/>
		<path class="st2" d="M240.2,935c1.1,0,2,0.4,2.7,1.2c0.7,0.8,1.1,1.7,1.1,2.8s-0.4,2.1-1.1,2.8c-0.7,0.8-1.6,1.2-2.7,1.2h-3.1V935
			H240.2z M240.2,941.9c0.8,0,1.5-0.3,2-0.9c0.5-0.6,0.8-1.3,0.8-2.1s-0.3-1.6-0.8-2.1c-0.5-0.6-1.2-0.9-2-0.9h-2v5.9H240.2z"/>
		<path class="st2" d="M246.2,939.9v-1h4.1v1H246.2z"/>
		<path class="st2" d="M254.5,935h0.9v7.9h-1v-6.8l-1.7,0.5l-0.3-0.9L254.5,935z"/>
		<path class="st2" d="M263.1,942c-0.5,0.8-1.3,1.1-2.3,1.1s-1.7-0.4-2.3-1.1c-0.5-0.7-0.8-1.7-0.8-3c0-1.2,0.3-2.2,0.8-3
			s1.3-1.1,2.3-1.1s1.7,0.4,2.3,1.1s0.8,1.7,0.8,3C263.9,940.2,263.6,941.2,263.1,942z M259.4,941.3c0.3,0.5,0.8,0.8,1.5,0.8
			c0.6,0,1.1-0.3,1.5-0.8c0.4-0.5,0.5-1.3,0.5-2.3s-0.2-1.7-0.5-2.3c-0.4-0.5-0.8-0.8-1.5-0.8c-0.6,0-1.1,0.3-1.5,0.8
			c-0.3,0.5-0.5,1.3-0.5,2.3C258.8,940,259,940.7,259.4,941.3z"/>
	</g>
	<g>
		<path class="st2" d="M211.5,965.1c-2,0-3.6-0.6-4.9-1.9c-1.3-1.3-1.9-2.9-1.9-4.8c0-1.9,0.6-3.5,1.9-4.8c1.3-1.3,2.9-1.9,4.9-1.9
			c1.2,0,2.3,0.3,3.3,0.8c1,0.6,1.8,1.3,2.3,2.3l-1.9,1.1c-0.3-0.6-0.9-1.2-1.5-1.5c-0.7-0.4-1.4-0.6-2.2-0.6
			c-1.4,0-2.5,0.4-3.4,1.3c-0.9,0.9-1.3,2-1.3,3.3s0.4,2.5,1.3,3.3s2,1.3,3.4,1.3c0.8,0,1.6-0.2,2.2-0.6c0.7-0.4,1.2-0.9,1.5-1.5
			l1.9,1.1c-0.5,1-1.3,1.7-2.3,2.3S212.7,965.1,211.5,965.1z"/>
		<path class="st2" d="M229.7,963.1c-1.3,1.3-2.9,2-4.8,2s-3.5-0.7-4.8-2s-2-2.9-2-4.8c0-1.9,0.7-3.5,2-4.8s2.9-2,4.8-2
			s3.5,0.7,4.8,2s2,2.9,2,4.8C231.6,960.2,231,961.8,229.7,963.1z M221.6,961.7c0.9,0.9,2,1.3,3.3,1.3c1.3,0,2.4-0.4,3.3-1.3
			s1.3-2,1.3-3.3c0-1.3-0.4-2.5-1.3-3.3s-2-1.3-3.3-1.3c-1.3,0-2.4,0.4-3.3,1.3s-1.3,2-1.3,3.3C220.3,959.7,220.7,960.8,221.6,961.7
			z"/>
		<path class="st2" d="M236.3,964.8l-4.5-13h2.3l3.5,10.4l3.5-10.4h2.3l-4.5,13H236.3z"/>
		<path class="st2" d="M244.8,951.8h2.1v13h-2.1V951.8z"/>
		<path class="st2" d="M254.7,951.8c1.8,0,3.3,0.6,4.5,1.9c1.2,1.3,1.8,2.8,1.8,4.6c0,1.8-0.6,3.4-1.8,4.6c-1.2,1.3-2.7,1.9-4.5,1.9
			h-5.1v-13H254.7z M254.7,962.8c1.2,0,2.2-0.4,3-1.3c0.8-0.8,1.2-1.9,1.2-3.2c0-1.3-0.4-2.4-1.2-3.2c-0.8-0.8-1.8-1.3-3-1.3h-3v8.9
			H254.7z"/>
		<path class="st2" d="M270.8,964.8l-4.5-13h2.3l3.5,10.4l3.5-10.4h2.3l-4.5,13H270.8z"/>
		<path class="st2" d="M280.7,953.8c-0.3,0.3-0.6,0.4-0.9,0.4c-0.3,0-0.6-0.1-0.9-0.4c-0.3-0.3-0.4-0.6-0.4-0.9s0.1-0.6,0.4-0.9
			s0.6-0.4,0.9-0.4c0.4,0,0.7,0.1,0.9,0.4s0.4,0.6,0.4,0.9S281,953.5,280.7,953.8z M278.8,964.8v-9.3h2v9.3H278.8z"/>
		<path class="st2" d="M285.2,957.1c0.5-1.2,1.5-1.7,2.9-1.7v2.2c-0.8,0-1.4,0.1-2,0.5c-0.6,0.4-0.9,1.1-0.9,2.1v4.7h-2v-9.3h2
			V957.1z"/>
		<path class="st2" d="M295.8,955.5h2v9.3h-2v-1.2c-0.6,1-1.6,1.4-2.9,1.4c-1.1,0-1.9-0.3-2.6-1c-0.7-0.7-1-1.6-1-2.8v-5.7h2v5.5
			c0,0.7,0.2,1.2,0.6,1.6s0.9,0.6,1.5,0.6c0.7,0,1.3-0.2,1.7-0.7c0.4-0.4,0.7-1.1,0.7-2V955.5z"/>
		<path class="st2" d="M301.9,958.1c0,0.3,0.2,0.6,0.5,0.7c0.3,0.2,0.8,0.3,1.2,0.5c0.5,0.1,1,0.3,1.5,0.5s0.9,0.5,1.3,0.9
			c0.3,0.4,0.5,0.9,0.5,1.6c0,0.9-0.3,1.6-1,2.1c-0.7,0.5-1.6,0.8-2.6,0.8c-0.9,0-1.7-0.2-2.4-0.6c-0.7-0.4-1.1-0.9-1.4-1.6l1.7-1
			c0.3,0.9,1,1.3,2.1,1.3c1.1,0,1.6-0.3,1.6-1c0-0.3-0.2-0.5-0.5-0.7c-0.3-0.2-0.8-0.3-1.2-0.5c-0.5-0.1-1-0.3-1.5-0.5
			s-0.9-0.5-1.3-0.9c-0.3-0.4-0.5-0.9-0.5-1.5c0-0.9,0.3-1.5,1-2.1c0.7-0.5,1.5-0.8,2.4-0.8c0.8,0,1.5,0.2,2.1,0.5s1.1,0.8,1.4,1.4
			l-1.7,0.9c-0.3-0.7-0.9-1.1-1.7-1.1c-0.4,0-0.7,0.1-1,0.3C302,957.5,301.9,957.8,301.9,958.1z"/>
	</g>
</g>
<g>
	<g>
		<g>
			<g>
				<path class="st3" d="M468.8,793.7c0,17.2,14,31.2,31.2,31.2s31.2-14,31.2-31.2c0-13-8-24.2-19.3-28.8V714h-23.7v50.9
					C476.8,769.5,468.8,780.7,468.8,793.7z"/>
				<rect x="488.1" y="714" class="st4" width="23.7" height="21.2"/>
				<path class="st5" d="M468.8,793.7c0,17.2,14,31.2,31.2,31.2s31.2-14,31.2-31.2c0-13-8-24.2-19.3-28.8V714h-23.7v50.9
					C476.8,769.5,468.8,780.7,468.8,793.7z"/>
				<ellipse class="st6" cx="497.7" cy="808.4" rx="11.2" ry="6.2"/>
			</g>
			<g>
				<path class="st3" d="M531.2,206.3c0-17.2-14-31.2-31.2-31.2s-31.2,14-31.2,31.2c0,13,8,24.2,19.3,28.8V286h23.7v-50.9
					C523.2,230.5,531.2,219.3,531.2,206.3z"/>
				<rect x="488.1" y="264.8" class="st4" width="23.7" height="21.2"/>
				<path class="st5" d="M531.2,206.3c0-17.2-14-31.2-31.2-31.2s-31.2,14-31.2,31.2c0,13,8,24.2,19.3,28.8V286h23.7v-50.9
					C523.2,230.5,531.2,219.3,531.2,206.3z"/>
				<ellipse class="st6" cx="502.3" cy="191.6" rx="11.2" ry="6.2"/>
			</g>
		</g>
		<g>
			<g>
				<path class="st3" d="M619.9,769.9c8.6,14.9,27.7,20,42.6,11.4s20-27.7,11.4-42.6c-6.5-11.3-19-16.9-31.1-15.3l-25.4-44.1
					l-20.6,11.9l25.4,44.1C614.7,745,613.3,758.7,619.9,769.9z"/>
				
					<rect x="600.4" y="683.9" transform="matrix(0.866 -0.5 0.5 0.866 -265.2316 399.2062)" class="st4" width="23.7" height="21.2"/>
				<path class="st5" d="M619.9,769.9c8.6,14.9,27.7,20,42.6,11.4s20-27.7,11.4-42.6c-6.5-11.3-19-16.9-31.1-15.3l-25.4-44.1
					l-20.6,11.9l25.4,44.1C614.7,745,613.3,758.7,619.9,769.9z"/>
				<ellipse transform="matrix(0.866 -0.5 0.5 0.866 -296.7239 429.0346)" class="st6" cx="652.2" cy="768.2" rx="11.2" ry="6.2"/>
			</g>
			<g>
				<path class="st3" d="M380.1,230.1c-8.6-14.9-27.7-20-42.6-11.4s-20,27.7-11.4,42.6c6.5,11.3,19,16.9,31.1,15.3l25.4,44.1
					l20.6-11.9l-25.4-44.1C385.3,255,386.7,241.3,380.1,230.1z"/>
				
					<rect x="375.8" y="294.8" transform="matrix(0.866 -0.5 0.5 0.866 -100.7938 234.7684)" class="st4" width="23.7" height="21.2"/>
				<path class="st5" d="M380.1,230.1c-8.6-14.9-27.7-20-42.6-11.4s-20,27.7-11.4,42.6c6.5,11.3,19,16.9,31.1,15.3l25.4,44.1
					l20.6-11.9l-25.4-44.1C385.3,255,386.7,241.3,380.1,230.1z"/>
				<ellipse transform="matrix(0.866 -0.5 0.5 0.866 -69.3015 204.9399)" class="st6" cx="347.8" cy="231.8" rx="11.2" ry="6.2"/>
			</g>
		</g>
		<g>
			<g>
				<path class="st3" d="M738.8,673.9c14.9,8.6,34,3.5,42.6-11.4s3.5-34-11.4-42.6c-11.3-6.5-24.9-5.2-34.6,2.3l-44.1-25.4
					l-11.9,20.6l44.1,25.4C721.8,654.9,727.5,667.3,738.8,673.9z"/>
				
					<rect x="682.7" y="601.7" transform="matrix(0.5 -0.866 0.866 0.5 -183.0127 907.639)" class="st4" width="23.7" height="21.2"/>
				<path class="st5" d="M738.8,673.9c14.9,8.6,34,3.5,42.6-11.4s3.5-34-11.4-42.6c-11.3-6.5-24.9-5.2-34.6,2.3l-44.1-25.4
					l-11.9,20.6l44.1,25.4C721.8,654.9,727.5,667.3,738.8,673.9z"/>
				<ellipse transform="matrix(0.5 -0.866 0.866 0.5 -185.2855 991.4045)" class="st6" cx="765.9" cy="656.2" rx="11.2" ry="6.2"/>
			</g>
			<g>
				<path class="st3" d="M261.2,326.1c-14.9-8.6-34-3.5-42.6,11.4s-3.5,34,11.4,42.6c11.3,6.5,24.9,5.2,34.6-2.3l44.1,25.4
					l11.9-20.6l-44.1-25.4C278.2,345.1,272.5,332.7,261.2,326.1z"/>
				
					<rect x="293.6" y="377.1" transform="matrix(0.5 -0.866 0.866 0.5 -183.0127 458.3864)" class="st4" width="23.7" height="21.2"/>
				<path class="st5" d="M261.2,326.1c-14.9-8.6-34-3.5-42.6,11.4s-3.5,34,11.4,42.6c11.3,6.5,24.9,5.2,34.6-2.3l44.1,25.4
					l11.9-20.6l-44.1-25.4C278.2,345.1,272.5,332.7,261.2,326.1z"/>
				<ellipse transform="matrix(0.5 -0.866 0.866 0.5 -180.7399 374.6208)" class="st6" cx="234.1" cy="343.8" rx="11.2" ry="6.2"/>
			</g>
		</g>
		<g>
			<g>
				<path class="st3" d="M793.7,531.2c17.2,0,31.2-14,31.2-31.2s-14-31.2-31.2-31.2c-13,0-24.2,8-28.8,19.3H714v23.7h50.9
					C769.5,523.2,780.7,531.2,793.7,531.2z"/>
				<rect x="714" y="488.1" class="st4" width="21.2" height="23.7"/>
				<path class="st5" d="M793.7,531.2c17.2,0,31.2-14,31.2-31.2s-14-31.2-31.2-31.2c-13,0-24.2,8-28.8,19.3H714v23.7h50.9
					C769.5,523.2,780.7,531.2,793.7,531.2z"/>
				<ellipse class="st6" cx="808.4" cy="502.3" rx="6.2" ry="11.2"/>
			</g>
			<g>
				<path class="st3" d="M206.3,468.8c-17.2,0-31.2,14-31.2,31.2s14,31.2,31.2,31.2c13,0,24.2-8,28.8-19.3H286v-23.7h-50.9
					C230.5,476.8,219.3,468.8,206.3,468.8z"/>
				<rect x="264.8" y="488.1" class="st4" width="21.2" height="23.7"/>
				<path class="st5" d="M206.3,468.8c-17.2,0-31.2,14-31.2,31.2s14,31.2,31.2,31.2c13,0,24.2-8,28.8-19.3H286v-23.7h-50.9
					C230.5,476.8,219.3,468.8,206.3,468.8z"/>
				<ellipse class="st6" cx="191.6" cy="497.7" rx="6.2" ry="11.2"/>
			</g>
		</g>
		<g>
			<g>
				<path class="st3" d="M769.9,380.1c14.9-8.6,20-27.7,11.4-42.6s-27.7-20-42.6-11.4c-11.3,6.5-16.9,19-15.3,31.1l-44.1,25.4
					l11.9,20.6l44.1-25.4C745,385.3,758.7,386.7,769.9,380.1z"/>
				
					<rect x="683.9" y="375.8" transform="matrix(0.866 -0.5 0.5 0.866 -100.7938 399.2062)" class="st4" width="21.2" height="23.7"/>
				<path class="st5" d="M769.9,380.1c14.9-8.6,20-27.7,11.4-42.6s-27.7-20-42.6-11.4c-11.3,6.5-16.9,19-15.3,31.1l-44.1,25.4
					l11.9,20.6l44.1-25.4C745,385.3,758.7,386.7,769.9,380.1z"/>
				<ellipse transform="matrix(0.866 -0.5 0.5 0.866 -70.9654 430.6985)" class="st6" cx="768.2" cy="347.8" rx="6.2" ry="11.2"/>
			</g>
			<g>
				<path class="st3" d="M230.1,619.9c-14.9,8.6-20,27.7-11.4,42.6s27.7,20,42.6,11.4c11.3-6.5,16.9-19,15.3-31.1l44.1-25.4
					l-11.9-20.6l-44.1,25.4C255,614.7,241.3,613.3,230.1,619.9z"/>
				
					<rect x="294.8" y="600.4" transform="matrix(0.866 -0.5 0.5 0.866 -265.2316 234.7684)" class="st4" width="21.2" height="23.7"/>
				<path class="st5" d="M230.1,619.9c-14.9,8.6-20,27.7-11.4,42.6s27.7,20,42.6,11.4c11.3-6.5,16.9-19,15.3-31.1l44.1-25.4
					l-11.9-20.6l-44.1,25.4C255,614.7,241.3,613.3,230.1,619.9z"/>
				<ellipse transform="matrix(0.866 -0.5 0.5 0.866 -295.0601 203.2761)" class="st6" cx="231.8" cy="652.2" rx="6.2" ry="11.2"/>
			</g>
		</g>
		<g>
			<g>
				<path class="st3" d="M673.9,261.2c8.6-14.9,3.5-34-11.4-42.6s-34-3.5-42.6,11.4c-6.5,11.3-5.2,24.9,2.3,34.6l-25.4,44.1
					l20.6,11.9l25.4-44.1C654.9,278.2,667.3,272.5,673.9,261.2z"/>
				<rect x="601.7" y="293.6" transform="matrix(0.5 -0.866 0.866 0.5 41.6136 683.0127)" class="st4" width="21.2" height="23.7"/>
				<path class="st5" d="M673.9,261.2c8.6-14.9,3.5-34-11.4-42.6s-34-3.5-42.6,11.4c-6.5,11.3-5.2,24.9,2.3,34.6l-25.4,44.1
					l20.6,11.9l25.4-44.1C654.9,278.2,667.3,272.5,673.9,261.2z"/>
				<ellipse transform="matrix(0.5 -0.866 0.866 0.5 125.3792 685.2855)" class="st6" cx="656.2" cy="234.1" rx="6.2" ry="11.2"/>
			</g>
			<g>
				<path class="st3" d="M326.1,738.8c-8.6,14.9-3.5,34,11.4,42.6s34,3.5,42.6-11.4c6.5-11.3,5.2-24.9-2.3-34.6l25.4-44.1
					l-20.6-11.9l-25.4,44.1C345.1,721.8,332.7,727.5,326.1,738.8z"/>
				
					<rect x="377.1" y="682.7" transform="matrix(0.5 -0.866 0.866 0.5 -407.639 683.0127)" class="st4" width="21.2" height="23.7"/>
				<path class="st5" d="M326.1,738.8c-8.6,14.9-3.5,34,11.4,42.6s34,3.5,42.6-11.4c6.5-11.3,5.2-24.9-2.3-34.6l25.4-44.1
					l-20.6-11.9l-25.4,44.1C345.1,721.8,332.7,727.5,326.1,738.8z"/>
				<ellipse transform="matrix(0.5 -0.866 0.866 0.5 -491.4046 680.7399)" class="st6" cx="343.8" cy="765.9" rx="6.2" ry="11.2"/>
			</g>
		</g>
	</g>
	<g>
		<circle class="st3" cx="500" cy="500" r="221.4"/>
		<path class="st4" d="M646,333.6c34.5,39,55.4,90.3,55.4,146.5c0,122.3-99.1,221.4-221.4,221.4c-55.9,0-107-20.8-146-55
			c40.6,45.9,99.9,74.8,165.9,74.8c122.3,0,221.4-99.1,221.4-221.4C721.4,433.7,692.2,374.2,646,333.6z"/>
		<circle class="st5" cx="500" cy="500" r="221.4"/>
		<g>
			<path class="st7" d="M352.7,492.9c-21.9,18.9-29.5,80.1,36.1,131c71,55.1,195.7,47.5,244.4-17.7c24.6-33,26.9-86,10.1-97.9
				c-33.7-24-70.2,13.2-78.6,15.8c-20.4,6.3-48.5,7-88.9-9.5C426.7,494.6,383.8,466.1,352.7,492.9z"/>
			<path class="st8" d="M475.8,514.7c-12.8-5.2-25.1-11-36.9-16.2c-1.5,3.8-2,9.3-1.5,17.4c0.9,13.2,11.1,27.2,27.8,27.2
				c13,0,20.9-11.9,24.3-23.2C485.2,518.3,480.6,516.6,475.8,514.7z"/>
			<path class="st8" d="M411.5,521.1c14.8,0,26.2-10.6,29.4-21.8c-20.8-9.2-40-17-57.1-17.3c-0.4,3.2-0.5,7.1-0.2,11.9
				C384.5,507.1,394.7,521.1,411.5,521.1z"/>
			<path class="st8" d="M592.1,549.2c14.4-5.1,13.4-30.1,13.4-44.9c0-0.7,0-1.4,0-2c-16.6,4.6-30.7,16.1-37.7,20.4
				C568.7,537.1,578.8,553.9,592.1,549.2z"/>
			<path class="st8" d="M636.1,504.1c-10.4-4.8-20.9-4.5-30.5-1.9c0,0.6-0.1,1.3-0.1,2.1c-0.7,22.5,4.1,32.1,11.3,32.1
				C626.1,536.3,636.1,516.8,636.1,504.1z"/>
			<path class="st5" d="M475.8,514.7c-12.8-5.2-25.1-11-36.9-16.2c-1.5,3.8-2,9.3-1.5,17.4c0.9,13.2,11.1,27.2,27.8,27.2
				c13,0,20.9-11.9,24.3-23.2C485.2,518.3,480.6,516.6,475.8,514.7z"/>
			<path class="st5" d="M411.5,521.1c14.8,0,26.2-10.6,29.4-21.8c-20.8-9.2-40-17-57.1-17.3c-0.4,3.2-0.5,7.1-0.2,11.9
				C384.5,507.1,394.7,521.1,411.5,521.1z"/>
			<path class="st5" d="M592.1,549.2c14.4-5.1,13.4-30.1,13.4-44.9c0-0.7,0-1.4,0-2c-16.6,4.6-30.7,16.1-37.7,20.4
				C568.7,537.1,578.8,553.9,592.1,549.2z"/>
			<path class="st5" d="M636.1,504.1c-10.4-4.8-20.9-4.5-30.5-1.9c0,0.6-0.1,1.3-0.1,2.1c-0.7,22.5,4.1,32.1,11.3,32.1
				C626.1,536.3,636.1,516.8,636.1,504.1z"/>
			<path class="st5" d="M352.7,492.9c-21.9,18.9-29.5,80.1,36.1,131c71,55.1,195.7,47.5,244.4-17.7c24.6-33,26.9-86,10.1-97.9
				c-33.7-24-70.2,13.2-78.6,15.8c-20.4,6.3-48.5,7-88.9-9.5C426.7,494.6,383.8,466.1,352.7,492.9z"/>
			<path class="st9" d="M493.5,580.2c-6.5,0-12.8,1-18.7,3c-11.9-16.5-30.4-27.1-51.2-27.1c-27.1,0-50.4,18.1-60.2,43.8
				c6.8,8.1,15.2,16.2,25.3,24.1c11.9,9.3,25.4,16.8,39.8,22.5c0,0,0,0,0,0c0.9,0.3,1.8,0.7,2.6,1c0.4,0.2,0.8,0.3,1.2,0.5
				c1.6,0.6,3.3,1.2,4.9,1.7c0.5,0.2,1.1,0.4,1.7,0.6c1.5,0.5,3.1,1,4.6,1.5c0.3,0.1,0.5,0.2,0.8,0.2c1.7,0.5,3.4,1,5.1,1.4
				c0.5,0.1,1,0.3,1.5,0.4c1.8,0.5,3.6,0.9,5.4,1.3c0.1,0,0.3,0.1,0.4,0.1c1.7,0.4,3.5,0.8,5.2,1.1c0.4,0.1,0.9,0.2,1.3,0.3
				c1.8,0.4,3.7,0.7,5.6,1c0.2,0,0.3,0.1,0.5,0.1c1.7,0.3,3.5,0.6,5.3,0.8c0.4,0.1,0.8,0.1,1.2,0.2c1.9,0.3,3.8,0.5,5.7,0.7
				c0.1,0,0.1,0,0.2,0c0,0,0,0,0,0c26.1,2.8,52.8,0.9,77-5.8c0-0.8,0.1-1.7,0.1-2.5C558.6,611.9,529.5,580.2,493.5,580.2z"/>
			<path class="st5" d="M493.5,580.2c-6.5,0-12.8,1-18.7,3c-11.9-16.5-30.4-27.1-51.2-27.1c-27.1,0-50.4,18.1-60.2,43.8
				c6.8,8.1,15.2,16.2,25.3,24.1c11.9,9.3,25.4,16.8,39.8,22.5c0,0,0,0,0,0c0.9,0.3,1.8,0.7,2.6,1c0.4,0.2,0.8,0.3,1.2,0.5
				c1.6,0.6,3.3,1.2,4.9,1.7c0.5,0.2,1.1,0.4,1.7,0.6c1.5,0.5,3.1,1,4.6,1.5c0.3,0.1,0.5,0.2,0.8,0.2c1.7,0.5,3.4,1,5.1,1.4
				c0.5,0.1,1,0.3,1.5,0.4c1.8,0.5,3.6,0.9,5.4,1.3c0.1,0,0.3,0.1,0.4,0.1c1.7,0.4,3.5,0.8,5.2,1.1c0.4,0.1,0.9,0.2,1.3,0.3
				c1.8,0.4,3.7,0.7,5.6,1c0.2,0,0.3,0.1,0.5,0.1c1.7,0.3,3.5,0.6,5.3,0.8c0.4,0.1,0.8,0.1,1.2,0.2c1.9,0.3,3.8,0.5,5.7,0.7
				c0.1,0,0.1,0,0.2,0c0,0,0,0,0,0c26.1,2.8,52.8,0.9,77-5.8c0-0.8,0.1-1.7,0.1-2.5C558.6,611.9,529.5,580.2,493.5,580.2z"/>
		</g>
		<path class="st10" d="M430.7,379.5c-7.1,10.3-11.2,22.8-11.2,36.3c0,35.6,28.8,64.4,64.4,64.4c24.4,0,45.7-13.6,56.6-33.6
			L430.7,379.5z"/>
		<path class="st5" d="M430.7,379.5c-7.1,10.3-11.2,22.8-11.2,36.3c0,35.6,28.8,64.4,64.4,64.4c24.4,0,45.7-13.6,56.6-33.6
			L430.7,379.5z"/>
		<path class="st5" d="M459.6,397.1c-3.5,5.1-5.5,11.3-5.5,17.9c0,17.6,14.2,31.8,31.8,31.8c12.1,0,22.6-6.7,27.9-16.6L459.6,397.1z
			"/>
		<path class="st0" d="M592.3,412.2c-1.8-2.7-3.8-5.2-6-7.5L541,446.8c13.8,20.4,36.4,29.1,50.5,19.6S606,432.6,592.3,412.2z"/>
		<path class="st5" d="M592.3,412.2c-1.8-2.7-3.8-5.2-6-7.5L541,446.8c13.8,20.4,36.4,29.1,50.5,19.6S606,432.6,592.3,412.2z"/>
		<path class="st7" d="M459.6,397.1c-3.5,5.1-5.5,11.3-5.5,17.9c0,17.6,14.2,31.8,31.8,31.8c12.1,0,22.6-6.7,27.9-16.6L459.6,397.1z
			"/>
		<path class="st7" d="M553.3,460.3c10.1-0.6,18.1-8.9,18.1-19.2c0-6.3-3-11.9-7.7-15.4L541,446.8
			C544.6,452.2,548.8,456.7,553.3,460.3z"/>
		<path class="st5" d="M553.3,460.3c10.1-0.6,18.1-8.9,18.1-19.2c0-6.3-3-11.9-7.7-15.4L541,446.8
			C544.6,452.2,548.8,456.7,553.3,460.3z"/>
		<circle class="st6" cx="491.3" cy="330.4" r="17.3"/>
		<circle class="st6" cx="596.7" cy="337" r="17.3"/>
		<circle class="st6" cx="419.6" cy="348.6" r="11.1"/>
		<circle class="st6" cx="358.9" cy="421.9" r="11.1"/>
		<circle class="st6" cx="656.2" cy="437.4" r="5.6"/>
		<circle class="st6" cx="553.1" cy="372.4" r="5.6"/>
	</g>
</g>
<g>
	<circle class="st3" cx="814.5" cy="118.5" r="51.8"/>
	<path class="st4" d="M838.6,72.7C849.2,82.1,856,96,856,111.4c0,28.6-23.2,51.8-51.8,51.8c-8.7,0-16.8-2.1-24-5.9
		c9.1,8.1,21.2,13.1,34.4,13.1c28.6,0,51.8-23.2,51.8-51.8C866.3,98.6,855.1,81.3,838.6,72.7z"/>
	<circle class="st5" cx="814.5" cy="118.5" r="51.8"/>
	<g>
		<g>
			<line class="st5" x1="814.2" y1="46.2" x2="814.2" y2="64.5"/>
			<circle class="st7" cx="814.5" cy="46.2" r="7.2"/>
		</g>
		<g>
			<line class="st5" x1="814.9" y1="190.8" x2="814.9" y2="172.5"/>
			<circle class="st7" cx="814.5" cy="190.8" r="7.2"/>
		</g>
	</g>
	<g>
		<g>
			<line class="st5" x1="778.1" y1="56.1" x2="787.2" y2="71.9"/>
			<circle class="st7" cx="778.4" cy="55.9" r="7.2"/>
		</g>
		<g>
			<line class="st5" x1="851" y1="181" x2="841.8" y2="165.1"/>
			<circle class="st7" cx="850.7" cy="181.2" r="7.2"/>
		</g>
	</g>
	<g>
		<g>
			<line class="st5" x1="751.8" y1="82.7" x2="767.6" y2="91.8"/>
			<circle class="st7" cx="751.9" cy="82.4" r="7.2"/>
		</g>
		<g>
			<line class="st5" x1="877.3" y1="154.4" x2="861.5" y2="145.2"/>
			<circle class="st7" cx="877.2" cy="154.7" r="7.2"/>
		</g>
	</g>
	<g>
		<g>
			<line class="st5" x1="742.2" y1="118.9" x2="760.5" y2="118.9"/>
			<circle class="st7" cx="742.2" cy="118.5" r="7.2"/>
		</g>
		<g>
			<line class="st5" x1="886.9" y1="118.2" x2="868.5" y2="118.2"/>
			<circle class="st7" cx="886.9" cy="118.5" r="7.2"/>
		</g>
	</g>
	<g>
		<g>
			<line class="st5" x1="752.1" y1="155" x2="768" y2="145.8"/>
			<circle class="st7" cx="751.9" cy="154.7" r="7.2"/>
		</g>
		<g>
			<line class="st5" x1="877" y1="82.1" x2="861.1" y2="91.2"/>
			<circle class="st7" cx="877.2" cy="82.4" r="7.2"/>
		</g>
	</g>
	<g>
		<g>
			<line class="st5" x1="778.7" y1="181.3" x2="787.8" y2="165.5"/>
			<circle class="st7" cx="778.4" cy="181.2" r="7.2"/>
		</g>
		<g>
			<line class="st5" x1="850.4" y1="55.7" x2="841.2" y2="71.6"/>
			<circle class="st7" cx="850.7" cy="55.9" r="7.2"/>
		</g>
	</g>
	<circle class="st6" cx="797.3" cy="143.2" r="10.1"/>
	<circle class="st6" cx="804.2" cy="111.4" r="5"/>
	<circle class="st4" cx="824.9" cy="107.7" r="6.4"/>
</g>
<g>
	<circle class="st3" cx="121.1" cy="788.2" r="34.6"/>
	<path class="st4" d="M137.2,757.5c7.1,6.3,11.6,15.6,11.6,25.9c0,19.1-15.5,34.6-34.6,34.6c-5.8,0-11.2-1.4-16-3.9
		c6.1,5.4,14.1,8.7,23,8.7c19.1,0,34.6-15.5,34.6-34.6C155.7,774.8,148.2,763.3,137.2,757.5z"/>
	<circle class="st5" cx="121.1" cy="788.2" r="34.6"/>
	<g>
		<g>
			<line class="st5" x1="120.9" y1="739.9" x2="120.9" y2="752.1"/>
			<circle class="st7" cx="121.1" cy="739.9" r="4.8"/>
		</g>
		<g>
			<line class="st5" x1="121.3" y1="836.5" x2="121.3" y2="824.2"/>
			<circle class="st7" cx="121.1" cy="836.5" r="4.8"/>
		</g>
	</g>
	<g>
		<g>
			<line class="st5" x1="96.8" y1="746.4" x2="102.9" y2="757"/>
			<circle class="st7" cx="97" cy="746.3" r="4.8"/>
		</g>
		<g>
			<line class="st5" x1="145.5" y1="829.9" x2="139.4" y2="819.3"/>
			<circle class="st7" cx="145.3" cy="830" r="4.8"/>
		</g>
	</g>
	<g>
		<g>
			<line class="st5" x1="79.2" y1="764.2" x2="89.8" y2="770.3"/>
			<circle class="st7" cx="79.3" cy="764" r="4.8"/>
		</g>
		<g>
			<line class="st5" x1="163.1" y1="812.1" x2="152.5" y2="806"/>
			<circle class="st7" cx="162.9" cy="812.3" r="4.8"/>
		</g>
	</g>
	<g>
		<g>
			<line class="st5" x1="72.8" y1="788.4" x2="85" y2="788.4"/>
			<circle class="st7" cx="72.8" cy="788.2" r="4.8"/>
		</g>
		<g>
			<line class="st5" x1="169.4" y1="787.9" x2="157.2" y2="787.9"/>
			<circle class="st7" cx="169.4" cy="788.2" r="4.8"/>
		</g>
	</g>
	<g>
		<g>
			<line class="st5" x1="79.4" y1="812.5" x2="90" y2="806.4"/>
			<circle class="st7" cx="79.3" cy="812.3" r="4.8"/>
		</g>
		<g>
			<line class="st5" x1="162.8" y1="763.8" x2="152.2" y2="769.9"/>
			<circle class="st7" cx="162.9" cy="764" r="4.8"/>
		</g>
	</g>
	<g>
		<g>
			<line class="st5" x1="97.2" y1="830.1" x2="103.3" y2="819.5"/>
			<circle class="st7" cx="97" cy="830" r="4.8"/>
		</g>
		<g>
			<line class="st5" x1="145.1" y1="746.2" x2="139" y2="756.8"/>
			<circle class="st7" cx="145.3" cy="746.3" r="4.8"/>
		</g>
	</g>
	<circle class="st6" cx="109.6" cy="804.7" r="6.7"/>
	<circle class="st6" cx="114.2" cy="783.4" r="3.4"/>
	<circle class="st4" cx="128" cy="780.9" r="4.3"/>
</g>
<g>
	<g>
		<path class="st4" d="M889.5,499.2c1.9,0,1.9-3,0-3C887.5,496.2,887.5,499.2,889.5,499.2L889.5,499.2z"/>
	</g>
</g>
</svg>
