<?xml version="1.0" encoding="utf-8"?>
<!-- Generator: Adobe Illustrator 23.1.1, SVG Export Plug-In . SVG Version: 6.00 Build 0)  -->
<svg version="1.1" id="Layer_1" xmlns="http://www.w3.org/2000/svg" xmlns:xlink="http://www.w3.org/1999/xlink" x="0px" y="0px"
	 viewBox="0 0 1000 1000" style="enable-background:new 0 0 1000 1000;" xml:space="preserve">
<style type="text/css">
	.st0{fill:#593F7C;}
	.st1{fill:#EEF2F4;}
	.st2{opacity:0.55;fill:#221C58;}
	.st3{fill:#5EA652;}
	.st4{fill:#4B9B56;}
	.st5{fill:none;stroke:#041D31;stroke-width:6;stroke-linecap:round;stroke-linejoin:round;stroke-miterlimit:10;}
	.st6{fill:#70BA61;}
	.st7{fill:#44934C;}
	.st8{fill:#2B323A;}
	.st9{opacity:0.8;fill:#252C33;}
	.st10{fill:#252C33;}
	.st11{opacity:0.8;}
	.st12{fill:#FFFFFF;}
	.st13{fill:#041D31;}
	.st14{fill:#534741;}
	.st15{fill:#4C3E38;}
	.st16{fill:#FFAD57;}
	.st17{opacity:0.83;fill:#E89567;}
	.st18{fill:none;stroke:#041D31;stroke-width:2;stroke-linecap:round;stroke-linejoin:round;stroke-miterlimit:10;}
	.st19{fill:#BBBE93;}
	.st20{fill:#8A8D91;}
	.st21{fill:#9DA0A5;}
	.st22{fill:#ADB3BC;}
	.st23{fill:#686F77;}
	.st24{fill:#727984;}
	.st25{opacity:0.65;fill:none;stroke:#D8865D;stroke-width:3;stroke-linecap:round;stroke-linejoin:round;stroke-miterlimit:10;}
</style>
<rect id="XMLID_28_" class="st0" width="1000" height="1000"/>
<g>
	<g>
		<g>
			<path class="st1" d="M63.2,959.2c0,2.5-1.2,3.7-2.6,3.7c-1.1,0-1.9-0.5-2.1-1.4c-0.4,0.5-1,0.8-1.8,0.8c-1.5,0-2.6-1.2-2.6-2.8
				c0-1.6,1.1-2.8,2.6-2.8c0.7,0,1.2,0.3,1.6,0.7v-0.5h1.6v3.9c0,0.8,0.3,1.4,1,1.4c0.9,0,1.7-0.9,1.7-3c0-3-2.3-5.3-5.4-5.3
				c-3.1,0-5.6,2.4-5.6,5.7c0,3.3,2.5,5.7,5.9,5.7c1.1,0,2.1-0.2,2.9-0.4v0.6c-0.8,0.3-1.7,0.4-2.9,0.4c-3.7,0-6.5-2.6-6.5-6.2
				c0-3.4,2.7-6.2,6.2-6.2C61.1,953.3,63.2,956.4,63.2,959.2z M58.3,959.5c0-0.8-0.6-1.4-1.3-1.4c-0.8,0-1.3,0.5-1.3,1.4
				c0,0.8,0.6,1.3,1.3,1.3C57.8,960.9,58.3,960.3,58.3,959.5z"/>
		</g>
		<g>
			<path class="st1" d="M69.4,955.1v2c-1.2-0.1-2.6,0.5-2.6,2.4v4.3h-1.9v-8.6h1.9v1.4C67.3,955.5,68.3,955.1,69.4,955.1z"/>
		</g>
		<g>
			<path class="st1" d="M74.6,962.3c1,0,1.8-0.5,2.2-1.1l1.5,0.9c-0.8,1.2-2.1,1.9-3.8,1.9c-2.8,0-4.7-1.9-4.7-4.5
				c0-2.5,1.8-4.5,4.5-4.5c2.6,0,4.3,2.1,4.3,4.5c0,0.3,0,0.5-0.1,0.8h-6.8C72.1,961.6,73.2,962.3,74.6,962.3z M76.9,958.8
				c-0.3-1.5-1.3-2.1-2.5-2.1c-1.4,0-2.3,0.8-2.6,2.1H76.9z"/>
		</g>
		<g>
			<path class="st1" d="M88.9,955.2v8.6h-1.9v-1.2c-0.7,0.9-1.7,1.5-3,1.5c-2.3,0-4.3-2-4.3-4.5c0-2.6,1.9-4.5,4.3-4.5
				c1.3,0,2.3,0.5,3,1.4v-1.2H88.9z M87.1,959.5c0-1.6-1.2-2.7-2.7-2.7c-1.5,0-2.7,1.1-2.7,2.7c0,1.6,1.2,2.7,2.7,2.7
				C85.9,962.3,87.1,961.1,87.1,959.5z"/>
		</g>
		<g>
			<path class="st1" d="M91.1,951.3H93v12.5h-1.9V951.3z"/>
		</g>
		<g>
			<path class="st1" d="M102.9,955.2l-3.3,8.6h-2.1l-3.3-8.6h2l2.4,6.5l2.4-6.5H102.9z"/>
		</g>
		<g>
			<path class="st1" d="M104.2,955.2h1.9v8.9c0,2.4-1.2,3.5-3.5,3.3v-1.8c1.1,0.1,1.7-0.3,1.7-1.5V955.2z M104,952.8
				c0-0.7,0.5-1.2,1.2-1.2c0.7,0,1.2,0.5,1.2,1.2c0,0.6-0.5,1.2-1.2,1.2C104.5,954,104,953.4,104,952.8z"/>
		</g>
		<g>
			<path class="st1" d="M116,955.2l-3.3,8.8c-0.8,2.2-2.2,3.3-4.2,3.2v-1.7c1.2,0.1,1.9-0.5,2.3-1.7l0.1-0.2l-3.6-8.4h2l2.6,6.2
				l2.2-6.2H116z"/>
		</g>
	</g>
	<g>
		<path class="st1" d="M211.9,938.7c0,2.1-1.5,3.8-3.6,3.8h-3v-7.6h3C210.4,934.9,211.9,936.6,211.9,938.7z M210.9,938.7
			c0-1.6-1.1-2.9-2.6-2.9h-2v5.7h2C209.8,941.6,210.9,940.3,210.9,938.7z"/>
		<path class="st1" d="M219.5,940.8h-3.4l-0.6,1.7h-1.1l2.8-7.6h1.1l2.8,7.6h-1.1L219.5,940.8z M219.2,939.9l-1.4-3.8l-1.4,3.8
			H219.2z"/>
		<path class="st1" d="M226.4,939.4v3.1h-1v-3.1l-2.7-4.5h1.1l2.1,3.6l2.1-3.6h1.1L226.4,939.4z"/>
		<path class="st1" d="M241.9,940.3c0,1.5-1.2,2.4-2.6,2.4c-1.1,0-2.1-0.5-2.5-1.5l0.9-0.5c0.2,0.7,0.8,1.1,1.7,1.1
			c0.9,0,1.6-0.5,1.6-1.4c0-0.9-0.7-1.4-1.6-1.4h-0.3l-0.4-0.6l1.8-2.4H237v-0.9h4.6v0.9l-1.7,2.2C241,938.2,241.9,939,241.9,940.3z
			"/>
		<path class="st1" d="M245,941.7l2.7-2.7c0.6-0.6,1.1-1.2,1.1-1.9c0-0.9-0.6-1.4-1.4-1.4c-0.7,0-1.2,0.3-1.6,1l-0.8-0.5
			c0.5-1,1.4-1.5,2.4-1.5c1.2,0,2.4,0.8,2.4,2.3c0,0.9-0.6,1.8-1.4,2.5l-2,1.9h3.5v1H245V941.7z"/>
	</g>
	<g>
		<path class="st1" d="M58.9,938.7c0,2.1-1.5,3.8-3.6,3.8h-3v-7.6h3C57.4,934.9,58.9,936.6,58.9,938.7z M57.9,938.7
			c0-1.6-1.1-2.9-2.6-2.9h-2v5.7h2C56.8,941.6,57.9,940.3,57.9,938.7z"/>
		<path class="st1" d="M67,941.6v1h-4.6v-7.6h4.5v1h-3.5v2.3h3.2v0.9h-3.2v2.4H67z"/>
		<path class="st1" d="M70,940.8l0.9-0.5c0.3,0.8,0.9,1.4,2,1.4c1.1,0,1.6-0.5,1.6-1.2c0-0.8-0.7-1-1.8-1.4
			c-1.2-0.4-2.4-0.8-2.4-2.2c0-1.4,1.1-2.2,2.4-2.2c1.3,0,2.2,0.7,2.6,1.7l-0.8,0.5c-0.3-0.7-0.8-1.2-1.7-1.2
			c-0.8,0-1.4,0.4-1.4,1.1c0,0.7,0.5,1,1.6,1.3c1.3,0.4,2.6,0.8,2.6,2.3c0,1.3-1.1,2.2-2.6,2.2C71.5,942.7,70.4,941.9,70,940.8z"/>
		<path class="st1" d="M80,934.9v7.6h-1v-7.6H80z"/>
		<path class="st1" d="M91.3,939.2c0,1.9-1.4,3.5-3.7,3.5c-2.4,0-4-1.8-4-4c0-2.2,1.7-4,4-4c1.4,0,2.7,0.8,3.3,1.8l-0.9,0.5
			c-0.4-0.8-1.4-1.4-2.4-1.4c-1.8,0-3,1.3-3,3c0,1.7,1.2,3,3,3c1.6,0,2.5-0.9,2.7-2h-2.8v-0.9h3.8V939.2z"/>
		<path class="st1" d="M100.6,934.9v7.6h-0.8l-3.9-5.7v5.7h-1v-7.6h0.8l3.9,5.7v-5.7H100.6z"/>
		<path class="st1" d="M109.1,941.6v1h-4.6v-7.6h4.5v1h-3.5v2.3h3.2v0.9h-3.2v2.4H109.1z"/>
		<path class="st1" d="M119.2,938.7c0,2.1-1.5,3.8-3.6,3.8h-3v-7.6h3C117.6,934.9,119.2,936.6,119.2,938.7z M118.2,938.7
			c0-1.6-1.1-2.9-2.6-2.9h-2v5.7h2C117.1,941.6,118.2,940.3,118.2,938.7z"/>
		<path class="st1" d="M133.2,940.4c0,1.2-1,2.2-2.2,2.2h-3.3v-7.6h3c1.2,0,2.1,0.9,2.1,2.1c0,0.7-0.3,1.2-0.8,1.6
			C132.7,938.9,133.2,939.5,133.2,940.4z M128.7,935.8v2.3h2c0.6,0,1.1-0.5,1.1-1.2c0-0.6-0.5-1.2-1.1-1.2H128.7z M132.2,940.3
			c0-0.7-0.5-1.2-1.2-1.2h-2.3v2.5h2.3C131.7,941.6,132.2,941,132.2,940.3z"/>
		<path class="st1" d="M139.4,939.4v3.1h-1v-3.1l-2.7-4.5h1.1l2.1,3.6l2.1-3.6h1.1L139.4,939.4z"/>
	</g>
	<g>
		<path class="st1" d="M207.5,953.9v3.5h5v1.9h-5v5h-2v-12.4h7.3v1.9H207.5z"/>
		<path class="st1" d="M219.1,955.3v2.1c-1.3-0.1-2.7,0.5-2.7,2.5v4.5h-1.9v-8.9h1.9v1.5C216.9,955.7,218,955.3,219.1,955.3z"/>
		<path class="st1" d="M229.1,955.4v8.9h-1.9V963c-0.7,0.9-1.7,1.5-3.1,1.5c-2.4,0-4.4-2-4.4-4.7c0-2.6,2-4.7,4.4-4.7
			c1.4,0,2.4,0.6,3.1,1.5v-1.3H229.1z M227.2,959.9c0-1.6-1.2-2.8-2.8-2.8c-1.6,0-2.8,1.2-2.8,2.8c0,1.6,1.2,2.8,2.8,2.8
			C226,962.7,227.2,961.5,227.2,959.9z"/>
		<path class="st1" d="M239.4,958.9v5.4h-1.9v-5.2c0-1.3-0.8-2.1-2-2.1c-1.3,0-2.2,0.7-2.2,2.5v4.7h-1.9v-8.9h1.9v1.1
			c0.6-0.9,1.5-1.4,2.7-1.4C237.9,955.2,239.4,956.6,239.4,958.9z"/>
		<path class="st1" d="M247,964.3l-3.6-4.1v4.1h-1.9v-12.4h1.9v7.5l3.4-3.9h2.3l-3.9,4.3l4,4.5H247z"/>
		<path class="st1" d="M254.2,962.8c1.1,0,1.9-0.5,2.3-1.1l1.6,0.9c-0.8,1.2-2.1,1.9-3.9,1.9c-2.9,0-4.8-2-4.8-4.7
			c0-2.6,1.9-4.7,4.7-4.7c2.6,0,4.4,2.1,4.4,4.7c0,0.3,0,0.5-0.1,0.8h-7C251.6,962.1,252.7,962.8,254.2,962.8z M256.5,959.1
			c-0.3-1.5-1.4-2.2-2.5-2.2c-1.4,0-2.4,0.8-2.7,2.2H256.5z"/>
		<path class="st1" d="M268.2,958.9v5.4h-1.9v-5.2c0-1.3-0.8-2.1-2-2.1c-1.3,0-2.2,0.7-2.2,2.5v4.7h-1.9v-8.9h1.9v1.1
			c0.6-0.9,1.5-1.4,2.7-1.4C266.8,955.2,268.2,956.6,268.2,958.9z"/>
		<path class="st1" d="M276.7,961.8c0,1.8-1.5,2.7-3.5,2.7c-1.8,0-3-0.8-3.6-2.1l1.6-1c0.3,0.8,1,1.3,2,1.3c0.8,0,1.5-0.3,1.5-1
			c0-1.6-4.8-0.7-4.8-3.9c0-1.7,1.4-2.7,3.2-2.7c1.5,0,2.7,0.7,3.3,1.8l-1.6,0.9c-0.3-0.7-0.9-1-1.7-1c-0.7,0-1.3,0.3-1.3,0.9
			C272,959.5,276.7,958.5,276.7,961.8z"/>
		<path class="st1" d="M280.8,957.3v4.2c0,1.1,0.7,1.1,2.2,1v1.7c-2.9,0.4-4.1-0.5-4.1-2.8v-4.2h-1.6v-1.8h1.6v-1.9l1.9-0.6v2.5h2.2
			v1.8H280.8z"/>
		<path class="st1" d="M288.7,962.8c1.1,0,1.9-0.5,2.3-1.1l1.6,0.9c-0.8,1.2-2.1,1.9-3.9,1.9c-2.9,0-4.8-2-4.8-4.7
			c0-2.6,1.9-4.7,4.7-4.7c2.6,0,4.4,2.1,4.4,4.7c0,0.3,0,0.5-0.1,0.8h-7C286.2,962.1,287.3,962.8,288.7,962.8z M291.1,959.1
			c-0.3-1.5-1.4-2.2-2.5-2.2c-1.4,0-2.4,0.8-2.7,2.2H291.1z"/>
		<path class="st1" d="M294.4,952.9c0-0.7,0.5-1.2,1.2-1.2c0.7,0,1.2,0.5,1.2,1.2c0,0.7-0.5,1.2-1.2,1.2
			C295,954.1,294.4,953.6,294.4,952.9z M294.7,955.4h1.9v8.9h-1.9V955.4z"/>
		<path class="st1" d="M306.9,958.9v5.4h-1.9v-5.2c0-1.3-0.8-2.1-2-2.1c-1.3,0-2.2,0.7-2.2,2.5v4.7h-1.9v-8.9h1.9v1.1
			c0.6-0.9,1.5-1.4,2.7-1.4C305.4,955.2,306.9,956.6,306.9,958.9z"/>
	</g>
	<g>
		<g>
			<path class="st1" d="M846.1,938.7c0,2.1-1.5,3.8-3.6,3.8h-3v-7.6h3C844.6,934.9,846.1,936.6,846.1,938.7z M845.2,938.7
				c0-1.6-1.1-2.9-2.6-2.9h-2v5.7h2C844.1,941.6,845.2,940.3,845.2,938.7z"/>
		</g>
		<g>
			<path class="st1" d="M849.3,938.7c0-2.2,1.7-4,3.9-4c2.2,0,4,1.8,4,4c0,2.2-1.7,4-4,4C851,942.7,849.3,940.9,849.3,938.7z
				 M856.1,938.7c0-1.7-1.3-3-2.9-3c-1.7,0-2.9,1.3-2.9,3c0,1.7,1.3,3,2.9,3C854.9,941.7,856.1,940.4,856.1,938.7z"/>
		</g>
		<g>
			<path class="st1" d="M859.8,934.9h1.1l1.7,6.3l1.9-6.3h1l1.9,6.3l1.7-6.3h1.1l-2.2,7.6h-1.2l-1.8-6.1l-1.8,6.1H862L859.8,934.9z"
				/>
		</g>
		<g>
			<path class="st1" d="M879.3,934.9v7.6h-0.8l-3.9-5.7v5.7h-1v-7.6h0.8l3.9,5.7v-5.7H879.3z"/>
		</g>
		<g>
			<path class="st1" d="M887.5,941.6v1h-4.3v-7.6h1v6.7H887.5z"/>
		</g>
		<g>
			<path class="st1" d="M889.9,938.7c0-2.2,1.7-4,3.9-4c2.2,0,4,1.8,4,4c0,2.2-1.7,4-4,4C891.6,942.7,889.9,940.9,889.9,938.7z
				 M896.8,938.7c0-1.7-1.3-3-2.9-3c-1.7,0-2.9,1.3-2.9,3c0,1.7,1.3,3,2.9,3C895.5,941.7,896.8,940.4,896.8,938.7z"/>
		</g>
		<g>
			<path class="st1" d="M905.4,940.8H902l-0.6,1.7h-1.1l2.8-7.6h1.1l2.8,7.6H906L905.4,940.8z M905.1,939.9l-1.4-3.8l-1.4,3.8H905.1
				z"/>
		</g>
		<g>
			<path class="st1" d="M916.9,938.7c0,2.1-1.5,3.8-3.6,3.8h-3v-7.6h3C915.4,934.9,916.9,936.6,916.9,938.7z M915.9,938.7
				c0-1.6-1.1-2.9-2.6-2.9h-2v5.7h2C914.9,941.6,915.9,940.3,915.9,938.7z"/>
		</g>
		<g>
			<path class="st1" d="M926.5,935.8v2.5h3.2v1h-3.2v3.2h-1v-7.6h4.4v1H926.5z"/>
		</g>
		<g>
			<path class="st1" d="M936.2,939.6h-1.8v2.9h-1v-7.6h3c1.3,0,2.4,1.1,2.4,2.4c0,1-0.7,1.9-1.6,2.2l1.8,3.1h-1.1L936.2,939.6z
				 M934.4,938.7h2c0.8,0,1.4-0.6,1.4-1.4c0-0.8-0.6-1.4-1.4-1.4h-2V938.7z"/>
		</g>
		<g>
			<path class="st1" d="M941.9,938.7c0-2.2,1.7-4,3.9-4c2.2,0,4,1.8,4,4c0,2.2-1.7,4-4,4C943.6,942.7,941.9,940.9,941.9,938.7z
				 M948.8,938.7c0-1.7-1.3-3-2.9-3c-1.7,0-2.9,1.3-2.9,3c0,1.7,1.3,3,2.9,3C947.5,941.7,948.8,940.4,948.8,938.7z"/>
		</g>
		<g>
			<path class="st1" d="M960.4,942.5h-1v-6l-2.5,4.2h-0.1l-2.5-4.1v5.9h-1v-7.6h1.1l2.4,4l2.4-4h1.1V942.5z"/>
		</g>
	</g>
	<g>
		<g>
			<path class="st1" d="M839.3,952.9c0-0.7,0.5-1.2,1.2-1.2c0.7,0,1.2,0.5,1.2,1.2c0,0.7-0.5,1.2-1.2,1.2
				C839.9,954.1,839.3,953.6,839.3,952.9z M839.6,955.4h1.9v8.9h-1.9V955.4z"/>
		</g>
		<g>
			<path class="st1" d="M843.7,951.4h1.9v12.9h-1.9V951.4z"/>
		</g>
		<g>
			<path class="st1" d="M847.8,951.4h1.9v12.9h-1.9V951.4z"/>
		</g>
		<g>
			<path class="st1" d="M852,951.4h1.9v12.9H852V951.4z"/>
		</g>
		<g>
			<path class="st1" d="M864,955.4v8.9h-1.9v-1.1c-0.6,0.9-1.5,1.4-2.7,1.4c-2,0-3.4-1.3-3.4-3.6v-5.4h1.9v5.2c0,1.3,0.8,2.1,2,2.1
				c1.3,0,2.2-0.7,2.2-2.5v-4.7H864z"/>
		</g>
		<g>
			<path class="st1" d="M872.6,961.8c0,1.8-1.5,2.7-3.5,2.7c-1.8,0-3-0.8-3.6-2.1l1.6-1c0.3,0.8,1,1.3,2,1.3c0.8,0,1.5-0.3,1.5-1
				c0-1.6-4.8-0.7-4.8-3.9c0-1.7,1.4-2.7,3.2-2.7c1.5,0,2.7,0.7,3.3,1.8l-1.6,0.9c-0.3-0.7-0.9-1-1.7-1c-0.7,0-1.3,0.3-1.3,0.9
				C867.9,959.5,872.6,958.5,872.6,961.8z"/>
		</g>
		<g>
			<path class="st1" d="M876.7,957.3v4.2c0,1.1,0.7,1.1,2.2,1v1.7c-2.9,0.4-4.1-0.5-4.1-2.8v-4.2h-1.6v-1.8h1.6v-1.9l1.9-0.6v2.5
				h2.2v1.8H876.7z"/>
		</g>
		<g>
			<path class="st1" d="M885.4,955.3v2.1c-1.3-0.1-2.7,0.5-2.7,2.5v4.5h-1.9v-8.9h1.9v1.5C883.2,955.7,884.2,955.3,885.4,955.3z"/>
		</g>
		<g>
			<path class="st1" d="M895.3,955.4v8.9h-1.9V963c-0.7,0.9-1.7,1.5-3.1,1.5c-2.4,0-4.4-2-4.4-4.7c0-2.6,2-4.7,4.4-4.7
				c1.4,0,2.4,0.6,3.1,1.5v-1.3H895.3z M893.4,959.9c0-1.6-1.2-2.8-2.8-2.8c-1.6,0-2.8,1.2-2.8,2.8c0,1.6,1.2,2.8,2.8,2.8
				C892.2,962.7,893.4,961.5,893.4,959.9z"/>
		</g>
		<g>
			<path class="st1" d="M900.3,957.3v4.2c0,1.1,0.7,1.1,2.2,1v1.7c-2.9,0.4-4.1-0.5-4.1-2.8v-4.2h-1.6v-1.8h1.6v-1.9l1.9-0.6v2.5
				h2.2v1.8H900.3z"/>
		</g>
		<g>
			<path class="st1" d="M903.9,952.9c0-0.7,0.5-1.2,1.2-1.2c0.7,0,1.2,0.5,1.2,1.2c0,0.7-0.5,1.2-1.2,1.2
				C904.5,954.1,903.9,953.6,903.9,952.9z M904.2,955.4h1.9v8.9h-1.9V955.4z"/>
		</g>
		<g>
			<path class="st1" d="M907.8,959.9c0-2.6,2.1-4.7,4.7-4.7c2.6,0,4.7,2,4.7,4.7c0,2.6-2.1,4.7-4.7,4.7
				C909.9,964.5,907.8,962.5,907.8,959.9z M915.3,959.9c0-1.6-1.2-2.8-2.8-2.8c-1.6,0-2.8,1.2-2.8,2.8c0,1.6,1.2,2.8,2.8,2.8
				C914.1,962.7,915.3,961.5,915.3,959.9z"/>
		</g>
		<g>
			<path class="st1" d="M927,958.9v5.4h-1.9v-5.2c0-1.3-0.8-2.1-2-2.1c-1.3,0-2.2,0.7-2.2,2.5v4.7h-1.9v-8.9h1.9v1.1
				c0.6-0.9,1.5-1.4,2.7-1.4C925.5,955.2,927,956.6,927,958.9z"/>
		</g>
		<g>
			<path class="st1" d="M935.5,961.8c0,1.8-1.5,2.7-3.5,2.7c-1.8,0-3-0.8-3.6-2.1l1.6-1c0.3,0.8,1,1.3,2,1.3c0.8,0,1.5-0.3,1.5-1
				c0-1.6-4.8-0.7-4.8-3.9c0-1.7,1.4-2.7,3.2-2.7c1.5,0,2.7,0.7,3.3,1.8l-1.6,0.9c-0.3-0.7-0.9-1-1.7-1c-0.7,0-1.3,0.3-1.3,0.9
				C930.7,959.5,935.5,958.5,935.5,961.8z"/>
		</g>
		<g>
			<path class="st1" d="M936.8,963.2c0-0.7,0.6-1.3,1.3-1.3c0.7,0,1.3,0.6,1.3,1.3c0,0.7-0.6,1.3-1.3,1.3
				C937.4,964.5,936.8,963.9,936.8,963.2z"/>
		</g>
		<g>
			<path class="st1" d="M940.3,959.9c0-2.6,2-4.7,4.7-4.7c1.7,0,3.2,0.9,3.9,2.3l-1.6,1c-0.4-0.8-1.3-1.4-2.3-1.4
				c-1.6,0-2.7,1.2-2.7,2.8c0,1.6,1.2,2.8,2.7,2.8c1.1,0,1.9-0.5,2.4-1.4l1.6,0.9c-0.7,1.4-2.2,2.3-4,2.3
				C942.3,964.5,940.3,962.5,940.3,959.9z"/>
		</g>
		<g>
			<path class="st1" d="M949.7,959.9c0-2.6,2.1-4.7,4.7-4.7c2.6,0,4.7,2,4.7,4.7c0,2.6-2.1,4.7-4.7,4.7
				C951.8,964.5,949.7,962.5,949.7,959.9z M957.2,959.9c0-1.6-1.2-2.8-2.8-2.8s-2.8,1.2-2.8,2.8c0,1.6,1.2,2.8,2.8,2.8
				S957.2,961.5,957.2,959.9z"/>
		</g>
	</g>
</g>
<ellipse id="XMLID_118_" class="st2" cx="500" cy="766.7" rx="118" ry="19"/>
<path id="XMLID_80_" class="st3" d="M522,539h-44c-39.8,0-72-32.4-72-72.2V359h188v107.8C594,506.6,561.8,539,522,539z"/>
<path id="XMLID_112_" class="st4" d="M450.5,469.4V359H406v107.8c0,39.8,32.2,72.2,72,72.2h26.2
	C473.3,530.9,450.5,502.8,450.5,469.4z"/>
<path id="XMLID_1_" class="st5" d="M522,539h-44c-39.8,0-72-32.4-72-72.2V359h188v107.8C594,506.6,561.8,539,522,539z"/>
<path id="XMLID_83_" class="st3" d="M581.4,291.8c-53.6-11.8-109.2-11.8-162.9,0c-7.3,1.6-12.6,8.1-12.6,15.6v51.4
	c61.7,15.8,126.3,15.8,188,0v-51.4C594,300,588.8,293.5,581.4,291.8z"/>
<path id="XMLID_22_" class="st6" d="M581.4,291.8c-1.8-0.4-3.6-0.8-5.4-1.2V363c6-1.2,12-2.6,18-4.2v-51.4
	C594,300,588.8,293.5,581.4,291.8z"/>
<path id="XMLID_120_" class="st4" d="M450.5,312.6c0-10.1,3-19.5,8.2-27.4c-13.5,1.5-26.9,3.7-40.1,6.6c-7.3,1.6-12.6,8.1-12.6,15.6
	v51.4c14.7,3.8,29.6,6.6,44.5,8.6V312.6z"/>
<path id="XMLID_115_" class="st4" d="M602,456h-8v-54h8c6.6,0,12,5.7,12,12.3v30C614,450.9,608.6,456,602,456z"/>
<path id="XMLID_4_" class="st5" d="M602,456h-8v-54h8c6.6,0,12,5.7,12,12.3v30C614,450.9,608.6,456,602,456z"/>
<path id="XMLID_116_" class="st7" d="M398,456h8v-54h-8c-6.6,0-12,5.7-12,12.3v30C386,450.9,391.4,456,398,456z"/>
<path id="XMLID_11_" class="st5" d="M398,456h8v-54h-8c-6.6,0-12,5.7-12,12.3v30C386,450.9,391.4,456,398,456z"/>
<path id="XMLID_26_" class="st5" d="M493.7,509.3c1.4-11.3,11.7-19.4,23-18c2.8,0.3,5.5,1.3,7.8,2.6"/>
<path id="XMLID_93_" class="st8" d="M443,661.3v90h54V704c0-2.8,2.3-5,5-5c0,0,0,0,0,0h0c0,0,0,0,0,0c2.8,0,5,2.2,5,5v47.3h54v-90
	H443z"/>
<path id="XMLID_253_" class="st9" d="M516.5,751.3H507V699h1.4c4.5,0,8.1,3.6,8.1,8.1V751.3z"/>
<g id="XMLID_284_">
	<g id="XMLID_345_">
		<g id="XMLID_348_">
			<path id="XMLID_349_" class="st10" d="M514.3,699C514.3,699,514.3,699,514.3,699C514.3,699,514.3,699,514.3,699L514.3,699z"/>
		</g>
		<g id="XMLID_346_" class="st11">
			<rect id="XMLID_347_" x="443" y="661.3" class="st10" width="12.2" height="90"/>
		</g>
	</g>
</g>
<path id="XMLID_75_" class="st5" d="M443,661.3v90h54V704c0-2.8,2.3-5,5-5c0,0,0,0,0,0h0c0,0,0,0,0,0c2.8,0,5,2.2,5,5v47.3h54v-90
	H443z"/>
<circle id="XMLID_111_" class="st3" cx="578.8" cy="680.9" r="18.5"/>
<path id="XMLID_272_" class="st4" d="M577.3,682.5c-0.7-7.7,3.5-14.7,9.9-18c-3-1.6-6.5-2.3-10.1-2c-10.2,0.9-17.7,9.9-16.8,20.1
	c0.9,10.2,9.9,17.7,20.1,16.8c2.5-0.2,4.8-0.9,6.9-2C581.8,694.5,577.9,689.1,577.3,682.5z"/>
<circle id="XMLID_123_" class="st5" cx="578.8" cy="680.9" r="18.5"/>
<g>
	<circle id="XMLID_82_" class="st12" cx="463.4" cy="432" r="32"/>
	<circle id="XMLID_9_" class="st5" cx="463.4" cy="432" r="32"/>
	<circle id="XMLID_16_" class="st13" cx="479.7" cy="433" r="14"/>
	<circle id="XMLID_49_" class="st12" cx="484.7" cy="433" r="5"/>
</g>
<path id="XMLID_114_" class="st14" d="M497,751.3h-54v8c0,3.3,2.7,6,6,6h42c3.3,0,6-2.7,6-6V751.3z"/>
<path id="XMLID_319_" class="st15" d="M455.2,759.3v-8H443v8c0,3.3,2.7,6,6,6h12.2C457.9,765.3,455.2,762.6,455.2,759.3z"/>
<path id="XMLID_110_" class="st14" d="M513,765.3h42c3.3,0,6-2.7,6-6v-8h-54v8C507,762.6,509.7,765.3,513,765.3z"/>
<path id="XMLID_323_" class="st15" d="M516.5,759.3v-8H507v8c0,3.3,2.7,6,6,6h9.5C519.2,765.3,516.5,762.6,516.5,759.3z"/>
<path id="XMLID_76_" class="st5" d="M497,751.3h-54v8c0,3.3,2.7,6,6,6h42c3.3,0,6-2.7,6-6V751.3z"/>
<path id="XMLID_77_" class="st5" d="M513,765.3h42c3.3,0,6-2.7,6-6v-8h-54v8C507,762.6,509.7,765.3,513,765.3z"/>
<circle id="XMLID_113_" class="st3" cx="425.4" cy="682.5" r="18.7"/>
<path id="XMLID_305_" class="st4" d="M421.2,680.9c0.6-7.2,5.2-13,11.4-15.6c-1.7-0.7-3.6-1.2-5.6-1.4c-10.3-0.9-19.4,6.7-20.3,17
	s6.7,19.4,17,20.3c3.1,0.3,6.2-0.3,8.9-1.4C425.3,696.7,420.5,689.2,421.2,680.9z"/>
<circle id="XMLID_30_" class="st5" cx="425.4" cy="682.5" r="18.7"/>
<path id="XMLID_19_" class="st16" d="M597.4,680.5l-7.6-86.9C588.4,578,576,566,561,564.1c0,0,0,0,0-0.1c-39.2-4.9-78.8-4.9-118,0
	c0,0,0,0,0,0.1c-15.1,1.8-27.4,14-28.8,29.7l-7.6,86.9l35.9,3.1l1-11.7c38.8,4.9,78.1,4.9,116.9,0l1,11.6L597.4,680.5z"/>
<path id="XMLID_103_" class="st17" d="M589.8,592.7C588.4,577,576,565,561,563.1c0,0,0,0,0-0.1c-39.2-4.9-78.8-4.9-118,0
	c0,0,0,0,0,0.1c-15.1,1.8-27.4,14-28.8,29.7l-7.6,86.9l1,0.1l6.6-76c1.4-15.7,13.7-27.9,28.8-29.7c0,0,0,0,0-0.1
	c11.2-1.4,22.4-2.4,33.7-3c2,7.1,8.5,12.3,16.2,12.3h18.2c7.7,0,14.2-5.2,16.2-12.3c11.2,0.6,22.5,1.6,33.7,3c0,0,0,0,0,0.1
	c15,1.9,27.4,13.9,28.8,29.6l6.6,76l1-0.1L589.8,592.7z"/>
<path id="XMLID_109_" class="st5" d="M597.4,680.5l-7.6-86.9C588.4,578,576,566,561,564.1c0,0,0,0,0-0.1c-39.2-4.9-78.8-4.9-118,0
	c0,0,0,0,0,0.1c-15.1,1.8-27.4,14-28.8,29.7l-7.6,86.9l35.9,3.1l1-11.7c36.7,5.9,78,6.2,116.9,0l1,11.6L597.4,680.5z"/>
<line id="XMLID_108_" class="st5" x1="442.5" y1="683.8" x2="449.3" y2="606"/>
<path id="XMLID_98_" class="st5" d="M551,564.1"/>
<path id="XMLID_92_" class="st5" d="M554.7,606"/>
<line id="XMLID_25_" class="st5" x1="560.5" y1="672.1" x2="554.7" y2="606"/>
<path id="XMLID_91_" class="st13" d="M583.2,284c-27.3-6-55.2-9.1-83.2-9.1c-27.9,0-55.9,3-83.2,9.1c-10.9,2.4-18.8,12.3-18.8,23.4
	v18.5l6,1c7.4,1.2,14.9,2.2,22.3,3.2l5.9-19.3h7.8l1.1,20.9c6.8,0.7,13.7,1.2,20.6,1.6l2.3-22.5l3.1,22.9c8.7,0.5,17.4,0.8,26.1,0.8
	l3.8-21.7l3,21.8l14.5-3.5l6.2-29.8l17.6,32c7.3-0.5,14.6-1,21.9-1.8v-23.3l5.2-1l8.6,22.7c4.4-0.5,8.9-1.1,13.3-1.8
	c-0.5-10.5-1.3-30.1,0.3-27c1.6,3.1,7,17.7,9.8,25.4l4.5-0.7v-18.5C602,296.3,594.1,286.4,583.2,284z"/>
<path id="XMLID_15_" class="st18" d="M583.2,284c-27.3-6-55.2-9.1-83.2-9.1c-27.9,0-55.9,3-83.2,9.1c-10.9,2.4-18.8,12.3-18.8,23.4
	v18.5l6,1c7.4,1.2,14.9,2.2,22.3,3.2l5.9-19.3h7.8l1.1,20.9c6.8,0.7,13.7,1.2,20.6,1.6l2.3-22.5l3.1,22.9c8.7,0.5,17.4,0.8,26.1,0.8
	l3.8-21.7l3,21.8l14.5-3.5l6.2-29.8l17.6,32c7.3-0.5,14.6-1,21.9-1.8v-23.3l5.2-1l8.6,22.7c4.4-0.5,8.9-1.1,13.3-1.8
	c-0.5-10.5-1.3-30.1,0.3-27c1.6,3.1,7,17.7,9.8,25.4l4.5-0.7v-18.5C602,296.3,594.1,286.4,583.2,284z"/>
<path id="XMLID_7_" class="st5" d="M581.4,293.6c-53.6-11.6-109.2-11.6-162.9,0c-7.3,1.6-12.6,7.9-12.6,15.3v50.2
	c61.7,15.5,126.3,15.5,188,0v-50.2C594,301.6,588.8,295.2,581.4,293.6z"/>
<path id="XMLID_85_" class="st19" d="M436.5,381h-0.6c-4.2,0-7.7-3.4-7.7-7.7v-16.6c0-4.2,3.4-7.7,7.7-7.7h0.6
	c4.2,0,7.7,3.4,7.7,7.7v16.6C444.2,377.6,440.7,381,436.5,381z"/>
<path id="XMLID_84_" class="st5" d="M436.5,381h-0.6c-4.2,0-7.7-3.4-7.7-7.7v-16.6c0-4.2,3.4-7.7,7.7-7.7h0.6c4.2,0,7.7,3.4,7.7,7.7
	v16.6C444.2,377.6,440.7,381,436.5,381z"/>
<path id="XMLID_191_" class="st19" d="M476,384.2h-0.6c-4.2,0-7.7-3.4-7.7-7.7v-16.6c0-4.2,3.4-7.7,7.7-7.7h0.6
	c4.2,0,7.7,3.4,7.7,7.7v16.6C483.7,380.8,480.2,384.2,476,384.2z"/>
<path id="XMLID_188_" class="st5" d="M476,384.2h-0.6c-4.2,0-7.7-3.4-7.7-7.7v-16.6c0-4.2,3.4-7.7,7.7-7.7h0.6
	c4.2,0,7.7,3.4,7.7,7.7v16.6C483.7,380.8,480.2,384.2,476,384.2z"/>
<path id="XMLID_210_" class="st19" d="M516.9,382.5h-0.6c-4.2,0-7.7-3.4-7.7-7.7v-16.6c0-4.2,3.4-7.7,7.7-7.7h0.6
	c4.2,0,7.7,3.4,7.7,7.7v16.6C524.6,379.1,521.1,382.5,516.9,382.5z"/>
<path id="XMLID_195_" class="st5" d="M516.9,382.5h-0.6c-4.2,0-7.7-3.4-7.7-7.7v-16.6c0-4.2,3.4-7.7,7.7-7.7h0.6
	c4.2,0,7.7,3.4,7.7,7.7v16.6C524.6,379.1,521.1,382.5,516.9,382.5z"/>
<path id="XMLID_217_" class="st19" d="M559.4,382.5h-0.6c-4.2,0-7.7-3.4-7.7-7.7v-16.6c0-4.2,3.4-7.7,7.7-7.7h0.6
	c4.2,0,7.7,3.4,7.7,7.7v16.6C567.1,379.1,563.6,382.5,559.4,382.5z"/>
<path id="XMLID_214_" class="st5" d="M559.4,382.5h-0.6c-4.2,0-7.7-3.4-7.7-7.7v-16.6c0-4.2,3.4-7.7,7.7-7.7h0.6
	c4.2,0,7.7,3.4,7.7,7.7v16.6C567.1,379.1,563.6,382.5,559.4,382.5z"/>
<rect id="XMLID_14_" x="594" y="353" class="st20" width="16" height="12"/>
<rect id="XMLID_12_" x="594" y="353" class="st5" width="16" height="12"/>
<path id="XMLID_18_" class="st21" d="M619.6,375h-3.2c-3.5,0-6.4-2.9-6.4-6.4v-19.2c0-3.5,2.9-6.4,6.4-6.4h3.2
	c3.5,0,6.4,2.9,6.4,6.4v19.2C626,372.1,623.1,375,619.6,375z"/>
<path id="XMLID_275_" class="st21" d="M619.6,375h-3.2c-3.5,0-6.4-2.9-6.4-6.4v-19.2c0-3.5,2.9-6.4,6.4-6.4h3.2
	c3.5,0,6.4,2.9,6.4,6.4v19.2C626,372.1,623.1,375,619.6,375z"/>
<path id="XMLID_278_" class="st22" d="M622.4,352.2h-8.8c-2,0-3.6-1.6-3.6-3.6v-2c0-2,1.6-3.6,3.6-3.6h8.8c2,0,3.6,1.6,3.6,3.6v2
	C626,350.6,624.4,352.2,622.4,352.2z"/>
<path id="XMLID_17_" class="st5" d="M619.6,375h-3.2c-3.5,0-6.4-2.9-6.4-6.4v-19.2c0-3.5,2.9-6.4,6.4-6.4h3.2c3.5,0,6.4,2.9,6.4,6.4
	v19.2C626,372.1,623.1,375,619.6,375z"/>
<rect id="XMLID_212_" x="390" y="353" transform="matrix(-1 -4.496327e-11 4.496327e-11 -1 796 718)" class="st23" width="16" height="12"/>
<rect id="XMLID_119_" x="390" y="353" transform="matrix(-1 -4.496327e-11 4.496327e-11 -1 796 718)" class="st5" width="16" height="12"/>
<path id="XMLID_107_" class="st24" d="M380.4,375h3.2c3.5,0,6.4-2.9,6.4-6.4v-19.2c0-3.5-2.9-6.4-6.4-6.4h-3.2
	c-3.5,0-6.4,2.9-6.4,6.4v19.2C374,372.1,376.9,375,380.4,375z"/>
<path id="XMLID_233_" class="st24" d="M380.4,375h3.2c3.5,0,6.4-2.9,6.4-6.4v-19.2c0-3.5-2.9-6.4-6.4-6.4h-3.2
	c-3.5,0-6.4,2.9-6.4,6.4v19.2C374,372.1,376.9,375,380.4,375z"/>
<path id="XMLID_274_" class="st22" d="M378,352.2h8c2.2,0,4-1.8,4-4V347c0-2.2-1.8-4-4-4h-8c-2.2,0-4,1.8-4,4v1.2
	C374,350.5,375.8,352.2,378,352.2z"/>
<path id="XMLID_106_" class="st5" d="M380.4,375h3.2c3.5,0,6.4-2.9,6.4-6.4v-19.2c0-3.5-2.9-6.4-6.4-6.4h-3.2
	c-3.5,0-6.4,2.9-6.4,6.4v19.2C374,372.1,376.9,375,380.4,375z"/>
<path id="XMLID_87_" class="st4" d="M507.2,575h-10.5c-8.1,0-14.8-6.6-14.8-14.8V539h40v21.2C522,568.4,515.4,575,507.2,575z"/>
<path id="XMLID_271_" class="st7" d="M494.5,560.2V539H482v21.2c0,8.1,6.6,14.8,14.8,14.8h10.5c0.3,0,0.7,0,1-0.1
	C500.6,574.4,494.5,568.1,494.5,560.2z"/>
<path id="XMLID_23_" class="st5" d="M507.2,575h-10.5c-8.1,0-14.8-6.6-14.8-14.8V539h40v21.2C522,568.4,515.4,575,507.2,575z"/>
<line id="XMLID_122_" class="st25" x1="531" y1="637.2" x2="520" y2="660.2"/>
<line id="XMLID_124_" class="st25" x1="534" y1="646.5" x2="528" y2="663.7"/>
<g id="XMLID_199_">
	<path id="XMLID_235_" class="st13" d="M498,637.2c-1.7,0-3-1.3-3-3v-20.8c0-1.7,1.3-3,3-3h13.5c1.7,0,3,1.3,3,3s-1.3,3-3,3H501
		v17.8C501,635.9,499.7,637.2,498,637.2z"/>
</g>
<g id="XMLID_232_">
	<path id="XMLID_238_" class="st13" d="M506,627.1c-3,0-5.3-0.4-7-1.1c-0.7-0.4-1.2-1.3-1.2-2.1c0-0.7,0.5-1.7,1.2-2.1
		c1.7-0.7,4-1.1,7-1.1c2,0.1,4,1.7,4,3.2C510,625.4,508,627,506,627.1z"/>
</g>
<g>
	<circle id="XMLID_102_" class="st12" cx="534.4" cy="429" r="27"/>
	<circle id="XMLID_282_" class="st5" cx="534.4" cy="429" r="27"/>
	<circle id="XMLID_52_" class="st13" cx="520.5" cy="433" r="11"/>
	<circle id="XMLID_51_" class="st12" cx="517" cy="432.5" r="3.5"/>
</g>
</svg>
