<?xml version="1.0" encoding="utf-8"?>
<!-- Generator: Adobe Illustrator 23.1.1, SVG Export Plug-In . SVG Version: 6.00 Build 0)  -->
<svg version="1.1" id="Layer_1" xmlns="http://www.w3.org/2000/svg" xmlns:xlink="http://www.w3.org/1999/xlink" x="0px" y="0px"
	 viewBox="0 0 1000 1000" style="enable-background:new 0 0 1000 1000;" xml:space="preserve">
<style type="text/css">
	.st0{fill:#92CED7;}
	.st1{fill:#534668;}
	.st2{opacity:0.12;fill:#FFFFFF;}
	.st3{opacity:0.4;fill:#FFFFFF;}
	.st4{opacity:0.14;fill:#686868;}
	.st5{fill:none;stroke:#51B3C3;stroke-width:6;stroke-linecap:round;stroke-linejoin:round;stroke-miterlimit:10;}
	.st6{fill:#FFFFFF;}
	.st7{fill:none;stroke:#534668;stroke-width:6;stroke-linecap:round;stroke-linejoin:round;stroke-miterlimit:10;}
	.st8{fill:#F4646C;}
	.st9{opacity:0.23;fill:#F4646C;}
	.st10{fill:#F4536D;}
	.st11{fill:#FA8F97;}
	.st12{opacity:0.7;fill:#FA8F97;}
	.st13{fill:#DD4A58;}
	.st14{opacity:0.4;fill:#C42C49;}
	.st15{opacity:0.41;fill:#534668;}
	.st16{fill:#FAB56A;}
	.st17{opacity:0.45;}
	.st18{fill:#A3533B;}
	.st19{opacity:0.42;fill:none;stroke:#534668;stroke-linecap:round;stroke-linejoin:round;stroke-miterlimit:10;}
	.st20{opacity:0.46;fill:none;stroke:#A3533B;stroke-linecap:round;stroke-linejoin:round;stroke-miterlimit:10;}
	.st21{fill:none;stroke:#A3533B;stroke-linecap:round;stroke-linejoin:round;stroke-miterlimit:10;}
	.st22{fill:none;stroke:#534668;stroke-width:8;stroke-linecap:round;stroke-linejoin:round;stroke-miterlimit:10;}
	.st23{fill:#FFB839;}
	.st24{opacity:0.47;fill:#ED4307;}
	.st25{opacity:0.47;fill:#FF4729;}
	.st26{opacity:0.46;fill:#FFB839;}
	.st27{fill:#B2B2B2;}
	.st28{fill:none;stroke:#534668;stroke-width:4;stroke-linecap:round;stroke-linejoin:round;stroke-miterlimit:10;}
	.st29{fill:#B75A44;}
	.st30{opacity:0.61;fill:none;stroke:#534668;stroke-linecap:round;stroke-linejoin:round;stroke-miterlimit:10;}
</style>
<rect id="XMLID_331_" x="0" class="st0" width="1000" height="1000"/>
<g>
	<g>
		<g>
			<path class="st1" d="M63.2,959.2c0,2.5-1.2,3.7-2.6,3.7c-1.1,0-1.9-0.5-2.1-1.4c-0.4,0.5-1,0.8-1.8,0.8c-1.5,0-2.6-1.2-2.6-2.8
				c0-1.6,1.1-2.8,2.6-2.8c0.7,0,1.2,0.3,1.6,0.7v-0.5h1.6v3.9c0,0.8,0.3,1.4,1,1.4c0.9,0,1.7-0.9,1.7-3c0-3-2.3-5.3-5.4-5.3
				c-3.1,0-5.6,2.4-5.6,5.7c0,3.3,2.5,5.7,5.9,5.7c1.1,0,2.1-0.2,2.9-0.4v0.6c-0.8,0.3-1.7,0.4-2.9,0.4c-3.7,0-6.5-2.6-6.5-6.2
				c0-3.4,2.7-6.2,6.2-6.2C61.1,953.3,63.2,956.4,63.2,959.2z M58.3,959.5c0-0.8-0.6-1.4-1.3-1.4c-0.8,0-1.3,0.5-1.3,1.4
				c0,0.8,0.6,1.3,1.3,1.3C57.8,960.9,58.3,960.3,58.3,959.5z"/>
		</g>
		<g>
			<path class="st1" d="M69.4,955.1v2c-1.2-0.1-2.6,0.5-2.6,2.4v4.3h-1.9v-8.6h1.9v1.4C67.3,955.5,68.3,955.1,69.4,955.1z"/>
		</g>
		<g>
			<path class="st1" d="M74.6,962.3c1,0,1.8-0.5,2.2-1.1l1.5,0.9c-0.8,1.2-2.1,1.9-3.8,1.9c-2.8,0-4.7-1.9-4.7-4.5
				c0-2.5,1.8-4.5,4.5-4.5c2.6,0,4.3,2.1,4.3,4.5c0,0.3,0,0.5-0.1,0.8h-6.8C72.1,961.6,73.2,962.3,74.6,962.3z M76.9,958.8
				c-0.3-1.5-1.3-2.1-2.5-2.1c-1.4,0-2.3,0.8-2.6,2.1H76.9z"/>
		</g>
		<g>
			<path class="st1" d="M88.9,955.2v8.6h-1.9v-1.2c-0.7,0.9-1.7,1.5-3,1.5c-2.3,0-4.3-2-4.3-4.5c0-2.6,1.9-4.5,4.3-4.5
				c1.3,0,2.3,0.5,3,1.4v-1.2H88.9z M87.1,959.5c0-1.6-1.2-2.7-2.7-2.7c-1.5,0-2.7,1.1-2.7,2.7c0,1.6,1.2,2.7,2.7,2.7
				C85.9,962.3,87.1,961.1,87.1,959.5z"/>
		</g>
		<g>
			<path class="st1" d="M91.1,951.3H93v12.5h-1.9V951.3z"/>
		</g>
		<g>
			<path class="st1" d="M102.9,955.2l-3.3,8.6h-2.1l-3.3-8.6h2l2.4,6.5l2.4-6.5H102.9z"/>
		</g>
		<g>
			<path class="st1" d="M104.2,955.2h1.9v8.9c0,2.4-1.2,3.5-3.5,3.3v-1.8c1.1,0.1,1.7-0.3,1.7-1.5V955.2z M104,952.8
				c0-0.7,0.5-1.2,1.2-1.2c0.7,0,1.2,0.5,1.2,1.2c0,0.6-0.5,1.2-1.2,1.2C104.5,954,104,953.4,104,952.8z"/>
		</g>
		<g>
			<path class="st1" d="M116,955.2l-3.3,8.8c-0.8,2.2-2.2,3.3-4.2,3.2v-1.7c1.2,0.1,1.9-0.5,2.3-1.7l0.1-0.2l-3.6-8.4h2l2.6,6.2
				l2.2-6.2H116z"/>
		</g>
	</g>
	<g>
		<path class="st1" d="M211.9,938.7c0,2.1-1.5,3.8-3.6,3.8h-3v-7.6h3C210.4,934.9,211.9,936.6,211.9,938.7z M210.9,938.7
			c0-1.6-1.1-2.9-2.6-2.9h-2v5.7h2C209.8,941.6,210.9,940.3,210.9,938.7z"/>
		<path class="st1" d="M219.5,940.8h-3.4l-0.6,1.7h-1.1l2.8-7.6h1.1l2.8,7.6h-1.1L219.5,940.8z M219.2,939.9l-1.4-3.8l-1.4,3.8
			H219.2z"/>
		<path class="st1" d="M226.4,939.4v3.1h-1v-3.1l-2.7-4.5h1.1l2.1,3.6l2.1-3.6h1.1L226.4,939.4z"/>
		<path class="st1" d="M241.6,938.8L241.6,938.8l-2.5,3.7H238l1.8-2.7c-0.1,0-0.2,0-0.4,0c-1.5,0-2.6-1-2.6-2.6
			c0-1.5,1.1-2.6,2.6-2.6s2.6,1,2.6,2.6C242.1,937.9,241.9,938.4,241.6,938.8z M239.4,938.9c1,0,1.6-0.6,1.6-1.6s-0.7-1.6-1.6-1.6
			s-1.6,0.6-1.6,1.6C237.8,938.3,238.5,938.9,239.4,938.9z"/>
		<path class="st1" d="M250,940.1c0,1.5-1.1,2.6-2.6,2.6c-1.5,0-2.6-1.1-2.6-2.6c0-0.6,0.2-1.1,0.5-1.5l2.5-3.7h1.2l-1.8,2.7
			c0.1,0,0.2,0,0.4,0C248.9,937.5,250,938.6,250,940.1z M249,940.1c0-1-0.7-1.6-1.6-1.6c-1,0-1.6,0.6-1.6,1.6s0.7,1.6,1.6,1.6
			C248.3,941.7,249,941,249,940.1z"/>
	</g>
	<g>
		<path class="st1" d="M58.9,938.7c0,2.1-1.5,3.8-3.6,3.8h-3v-7.6h3C57.4,934.9,58.9,936.6,58.9,938.7z M57.9,938.7
			c0-1.6-1.1-2.9-2.6-2.9h-2v5.7h2C56.8,941.6,57.9,940.3,57.9,938.7z"/>
		<path class="st1" d="M67,941.6v1h-4.6v-7.6h4.5v1h-3.5v2.3h3.2v0.9h-3.2v2.4H67z"/>
		<path class="st1" d="M70,940.8l0.9-0.5c0.3,0.8,0.9,1.4,2,1.4c1.1,0,1.6-0.5,1.6-1.2c0-0.8-0.7-1-1.8-1.4
			c-1.2-0.4-2.4-0.8-2.4-2.2c0-1.4,1.1-2.2,2.4-2.2c1.3,0,2.2,0.7,2.6,1.7l-0.8,0.5c-0.3-0.7-0.8-1.2-1.7-1.2
			c-0.8,0-1.4,0.4-1.4,1.1c0,0.7,0.5,1,1.6,1.3c1.3,0.4,2.6,0.8,2.6,2.3c0,1.3-1.1,2.2-2.6,2.2C71.5,942.7,70.4,941.9,70,940.8z"/>
		<path class="st1" d="M80,934.9v7.6h-1v-7.6H80z"/>
		<path class="st1" d="M91.3,939.2c0,1.9-1.4,3.5-3.7,3.5c-2.4,0-4-1.8-4-4c0-2.2,1.7-4,4-4c1.4,0,2.7,0.8,3.3,1.8l-0.9,0.5
			c-0.4-0.8-1.4-1.4-2.4-1.4c-1.8,0-3,1.3-3,3c0,1.7,1.2,3,3,3c1.6,0,2.5-0.9,2.7-2h-2.8v-0.9h3.8V939.2z"/>
		<path class="st1" d="M100.6,934.9v7.6h-0.8l-3.9-5.7v5.7h-1v-7.6h0.8l3.9,5.7v-5.7H100.6z"/>
		<path class="st1" d="M109.1,941.6v1h-4.6v-7.6h4.5v1h-3.5v2.3h3.2v0.9h-3.2v2.4H109.1z"/>
		<path class="st1" d="M119.2,938.7c0,2.1-1.5,3.8-3.6,3.8h-3v-7.6h3C117.6,934.9,119.2,936.6,119.2,938.7z M118.2,938.7
			c0-1.6-1.1-2.9-2.6-2.9h-2v5.7h2C117.1,941.6,118.2,940.3,118.2,938.7z"/>
		<path class="st1" d="M133.2,940.4c0,1.2-1,2.2-2.2,2.2h-3.3v-7.6h3c1.2,0,2.1,0.9,2.1,2.1c0,0.7-0.3,1.2-0.8,1.6
			C132.7,938.9,133.2,939.5,133.2,940.4z M128.7,935.8v2.3h2c0.6,0,1.1-0.5,1.1-1.2c0-0.6-0.5-1.2-1.1-1.2H128.7z M132.2,940.3
			c0-0.7-0.5-1.2-1.2-1.2h-2.3v2.5h2.3C131.7,941.6,132.2,941,132.2,940.3z"/>
		<path class="st1" d="M139.4,939.4v3.1h-1v-3.1l-2.7-4.5h1.1l2.1,3.6l2.1-3.6h1.1L139.4,939.4z"/>
	</g>
	<g>
		<path class="st1" d="M204.8,958.1c0-3.6,2.7-6.4,6.5-6.4c2.3,0,4.3,1.2,5.3,3l-1.8,1c-0.7-1.2-2-2-3.6-2c-2.7,0-4.4,1.9-4.4,4.4
			s1.8,4.4,4.4,4.4c1.6,0,2.9-0.8,3.6-2l1.8,1c-1,1.8-3,3-5.3,3C207.5,964.5,204.8,961.7,204.8,958.1z"/>
		<path class="st1" d="M227.1,955.4v8.9h-1.9V963c-0.7,0.9-1.7,1.5-3.1,1.5c-2.4,0-4.4-2-4.4-4.7c0-2.6,2-4.7,4.4-4.7
			c1.4,0,2.4,0.6,3.1,1.5v-1.3H227.1z M225.2,959.9c0-1.6-1.2-2.8-2.8-2.8c-1.6,0-2.8,1.2-2.8,2.8c0,1.6,1.2,2.8,2.8,2.8
			C224,962.7,225.2,961.5,225.2,959.9z"/>
		<path class="st1" d="M242.3,958.8v5.5h-1.9v-5.4c0-1.2-0.7-1.9-1.7-1.9c-1.1,0-1.9,0.7-1.9,2.3v5h-1.9v-5.4c0-1.2-0.6-1.9-1.7-1.9
			c-1.1,0-2,0.7-2,2.3v5h-1.9v-8.9h1.9v1.1c0.6-0.9,1.4-1.3,2.5-1.3c1.2,0,2,0.5,2.5,1.4c0.6-0.9,1.5-1.4,2.7-1.4
			C241,955.2,242.3,956.6,242.3,958.8z"/>
		<path class="st1" d="M253.8,959.9c0,2.6-2,4.7-4.4,4.7c-1.4,0-2.4-0.6-3.1-1.5v4.8h-1.9v-12.4h1.9v1.3c0.7-0.9,1.7-1.5,3.1-1.5
			C251.8,955.2,253.8,957.3,253.8,959.9z M251.9,959.9c0-1.6-1.2-2.8-2.8-2.8c-1.6,0-2.8,1.2-2.8,2.8c0,1.6,1.2,2.8,2.8,2.8
			C250.7,962.7,251.9,961.5,251.9,959.9z"/>
		<path class="st1" d="M255.3,952.9c0-0.7,0.5-1.2,1.2-1.2c0.7,0,1.2,0.5,1.2,1.2c0,0.7-0.5,1.2-1.2,1.2
			C255.8,954.1,255.3,953.6,255.3,952.9z M255.6,955.4h1.9v8.9h-1.9V955.4z"/>
		<path class="st1" d="M267.7,958.9v5.4h-1.9v-5.2c0-1.3-0.8-2.1-2-2.1c-1.3,0-2.2,0.7-2.2,2.5v4.7h-1.9v-8.9h1.9v1.1
			c0.6-0.9,1.5-1.4,2.7-1.4C266.3,955.2,267.7,956.6,267.7,958.9z"/>
		<path class="st1" d="M278.7,955.4v8.4c0,2.8-2.2,4.2-4.5,4.2c-1.9,0-3.5-0.7-4.2-2.1l1.6-1c0.4,0.8,1,1.4,2.6,1.4
			c1.6,0,2.6-0.9,2.6-2.4v-1.1c-0.7,1-1.7,1.5-3.1,1.5c-2.5,0-4.5-2-4.5-4.6s2-4.6,4.5-4.6c1.4,0,2.4,0.6,3.1,1.5v-1.3H278.7z
			 M276.8,959.8c0-1.6-1.2-2.8-2.8-2.8c-1.6,0-2.8,1.2-2.8,2.8s1.2,2.8,2.8,2.8C275.6,962.6,276.8,961.4,276.8,959.8z"/>
	</g>
	<g>
		<g>
			<g>
				<path class="st1" d="M846.1,938.7c0,2.1-1.5,3.8-3.6,3.8h-3v-7.6h3C844.6,934.9,846.1,936.6,846.1,938.7z M845.2,938.7
					c0-1.6-1.1-2.9-2.6-2.9h-2v5.7h2C844.1,941.6,845.2,940.3,845.2,938.7z"/>
			</g>
			<g>
				<path class="st1" d="M849.3,938.7c0-2.2,1.7-4,3.9-4c2.2,0,4,1.8,4,4c0,2.2-1.7,4-4,4C851,942.7,849.3,940.9,849.3,938.7z
					 M856.1,938.7c0-1.7-1.3-3-2.9-3c-1.7,0-2.9,1.3-2.9,3c0,1.7,1.3,3,2.9,3C854.9,941.7,856.1,940.4,856.1,938.7z"/>
			</g>
			<g>
				<path class="st1" d="M859.8,934.9h1.1l1.7,6.3l1.9-6.3h1l1.9,6.3l1.7-6.3h1.1l-2.2,7.6h-1.2l-1.8-6.1l-1.8,6.1H862L859.8,934.9z
					"/>
			</g>
			<g>
				<path class="st1" d="M879.3,934.9v7.6h-0.8l-3.9-5.7v5.7h-1v-7.6h0.8l3.9,5.7v-5.7H879.3z"/>
			</g>
			<g>
				<path class="st1" d="M887.5,941.6v1h-4.3v-7.6h1v6.7H887.5z"/>
			</g>
			<g>
				<path class="st1" d="M889.9,938.7c0-2.2,1.7-4,3.9-4c2.2,0,4,1.8,4,4c0,2.2-1.7,4-4,4C891.6,942.7,889.9,940.9,889.9,938.7z
					 M896.8,938.7c0-1.7-1.3-3-2.9-3c-1.7,0-2.9,1.3-2.9,3c0,1.7,1.3,3,2.9,3C895.5,941.7,896.8,940.4,896.8,938.7z"/>
			</g>
			<g>
				<path class="st1" d="M905.4,940.8H902l-0.6,1.7h-1.1l2.8-7.6h1.1l2.8,7.6H906L905.4,940.8z M905.1,939.9l-1.4-3.8l-1.4,3.8
					H905.1z"/>
			</g>
			<g>
				<path class="st1" d="M916.9,938.7c0,2.1-1.5,3.8-3.6,3.8h-3v-7.6h3C915.4,934.9,916.9,936.6,916.9,938.7z M915.9,938.7
					c0-1.6-1.1-2.9-2.6-2.9h-2v5.7h2C914.9,941.6,915.9,940.3,915.9,938.7z"/>
			</g>
			<g>
				<path class="st1" d="M926.5,935.8v2.5h3.2v1h-3.2v3.2h-1v-7.6h4.4v1H926.5z"/>
			</g>
			<g>
				<path class="st1" d="M936.2,939.6h-1.8v2.9h-1v-7.6h3c1.3,0,2.4,1.1,2.4,2.4c0,1-0.7,1.9-1.6,2.2l1.8,3.1h-1.1L936.2,939.6z
					 M934.4,938.7h2c0.8,0,1.4-0.6,1.4-1.4c0-0.8-0.6-1.4-1.4-1.4h-2V938.7z"/>
			</g>
			<g>
				<path class="st1" d="M941.9,938.7c0-2.2,1.7-4,3.9-4c2.2,0,4,1.8,4,4c0,2.2-1.7,4-4,4C943.6,942.7,941.9,940.9,941.9,938.7z
					 M948.8,938.7c0-1.7-1.3-3-2.9-3c-1.7,0-2.9,1.3-2.9,3c0,1.7,1.3,3,2.9,3C947.5,941.7,948.8,940.4,948.8,938.7z"/>
			</g>
			<g>
				<path class="st1" d="M960.4,942.5h-1v-6l-2.5,4.2h-0.1l-2.5-4.1v5.9h-1v-7.6h1.1l2.4,4l2.4-4h1.1V942.5z"/>
			</g>
		</g>
		<g>
			<g>
				<path class="st1" d="M839.3,952.9c0-0.7,0.5-1.2,1.2-1.2c0.7,0,1.2,0.5,1.2,1.2c0,0.7-0.5,1.2-1.2,1.2
					C839.9,954.1,839.3,953.6,839.3,952.9z M839.6,955.4h1.9v8.9h-1.9V955.4z"/>
			</g>
			<g>
				<path class="st1" d="M843.7,951.4h1.9v12.9h-1.9V951.4z"/>
			</g>
			<g>
				<path class="st1" d="M847.8,951.4h1.9v12.9h-1.9V951.4z"/>
			</g>
			<g>
				<path class="st1" d="M852,951.4h1.9v12.9H852V951.4z"/>
			</g>
			<g>
				<path class="st1" d="M864,955.4v8.9h-1.9v-1.1c-0.6,0.9-1.5,1.4-2.7,1.4c-2,0-3.4-1.3-3.4-3.6v-5.4h1.9v5.2c0,1.3,0.8,2.1,2,2.1
					c1.3,0,2.2-0.7,2.2-2.5v-4.7H864z"/>
			</g>
			<g>
				<path class="st1" d="M872.6,961.8c0,1.8-1.5,2.7-3.5,2.7c-1.8,0-3-0.8-3.6-2.1l1.6-1c0.3,0.8,1,1.3,2,1.3c0.8,0,1.5-0.3,1.5-1
					c0-1.6-4.8-0.7-4.8-3.9c0-1.7,1.4-2.7,3.2-2.7c1.5,0,2.7,0.7,3.3,1.8l-1.6,0.9c-0.3-0.7-0.9-1-1.7-1c-0.7,0-1.3,0.3-1.3,0.9
					C867.9,959.5,872.6,958.5,872.6,961.8z"/>
			</g>
			<g>
				<path class="st1" d="M876.7,957.3v4.2c0,1.1,0.7,1.1,2.2,1v1.7c-2.9,0.4-4.1-0.5-4.1-2.8v-4.2h-1.6v-1.8h1.6v-1.9l1.9-0.6v2.5
					h2.2v1.8H876.7z"/>
			</g>
			<g>
				<path class="st1" d="M885.4,955.3v2.1c-1.3-0.1-2.7,0.5-2.7,2.5v4.5h-1.9v-8.9h1.9v1.5C883.2,955.7,884.2,955.3,885.4,955.3z"/>
			</g>
			<g>
				<path class="st1" d="M895.3,955.4v8.9h-1.9V963c-0.7,0.9-1.7,1.5-3.1,1.5c-2.4,0-4.4-2-4.4-4.7c0-2.6,2-4.7,4.4-4.7
					c1.4,0,2.4,0.6,3.1,1.5v-1.3H895.3z M893.4,959.9c0-1.6-1.2-2.8-2.8-2.8c-1.6,0-2.8,1.2-2.8,2.8c0,1.6,1.2,2.8,2.8,2.8
					C892.2,962.7,893.4,961.5,893.4,959.9z"/>
			</g>
			<g>
				<path class="st1" d="M900.3,957.3v4.2c0,1.1,0.7,1.1,2.2,1v1.7c-2.9,0.4-4.1-0.5-4.1-2.8v-4.2h-1.6v-1.8h1.6v-1.9l1.9-0.6v2.5
					h2.2v1.8H900.3z"/>
			</g>
			<g>
				<path class="st1" d="M903.9,952.9c0-0.7,0.5-1.2,1.2-1.2c0.7,0,1.2,0.5,1.2,1.2c0,0.7-0.5,1.2-1.2,1.2
					C904.5,954.1,903.9,953.6,903.9,952.9z M904.2,955.4h1.9v8.9h-1.9V955.4z"/>
			</g>
			<g>
				<path class="st1" d="M907.8,959.9c0-2.6,2.1-4.7,4.7-4.7c2.6,0,4.7,2,4.7,4.7c0,2.6-2.1,4.7-4.7,4.7
					C909.9,964.5,907.8,962.5,907.8,959.9z M915.3,959.9c0-1.6-1.2-2.8-2.8-2.8c-1.6,0-2.8,1.2-2.8,2.8c0,1.6,1.2,2.8,2.8,2.8
					C914.1,962.7,915.3,961.5,915.3,959.9z"/>
			</g>
			<g>
				<path class="st1" d="M927,958.9v5.4h-1.9v-5.2c0-1.3-0.8-2.1-2-2.1c-1.3,0-2.2,0.7-2.2,2.5v4.7h-1.9v-8.9h1.9v1.1
					c0.6-0.9,1.5-1.4,2.7-1.4C925.5,955.2,927,956.6,927,958.9z"/>
			</g>
			<g>
				<path class="st1" d="M935.5,961.8c0,1.8-1.5,2.7-3.5,2.7c-1.8,0-3-0.8-3.6-2.1l1.6-1c0.3,0.8,1,1.3,2,1.3c0.8,0,1.5-0.3,1.5-1
					c0-1.6-4.8-0.7-4.8-3.9c0-1.7,1.4-2.7,3.2-2.7c1.5,0,2.7,0.7,3.3,1.8l-1.6,0.9c-0.3-0.7-0.9-1-1.7-1c-0.7,0-1.3,0.3-1.3,0.9
					C930.7,959.5,935.5,958.5,935.5,961.8z"/>
			</g>
			<g>
				<path class="st1" d="M936.8,963.2c0-0.7,0.6-1.3,1.3-1.3c0.7,0,1.3,0.6,1.3,1.3c0,0.7-0.6,1.3-1.3,1.3
					C937.4,964.5,936.8,963.9,936.8,963.2z"/>
			</g>
			<g>
				<path class="st1" d="M940.3,959.9c0-2.6,2-4.7,4.7-4.7c1.7,0,3.2,0.9,3.9,2.3l-1.6,1c-0.4-0.8-1.3-1.4-2.3-1.4
					c-1.6,0-2.7,1.2-2.7,2.8c0,1.6,1.2,2.8,2.7,2.8c1.1,0,1.9-0.5,2.4-1.4l1.6,0.9c-0.7,1.4-2.2,2.3-4,2.3
					C942.3,964.5,940.3,962.5,940.3,959.9z"/>
			</g>
			<g>
				<path class="st1" d="M949.7,959.9c0-2.6,2.1-4.7,4.7-4.7c2.6,0,4.7,2,4.7,4.7c0,2.6-2.1,4.7-4.7,4.7
					C951.8,964.5,949.7,962.5,949.7,959.9z M957.2,959.9c0-1.6-1.2-2.8-2.8-2.8s-2.8,1.2-2.8,2.8c0,1.6,1.2,2.8,2.8,2.8
					S957.2,961.5,957.2,959.9z"/>
			</g>
		</g>
	</g>
</g>
<path id="XMLID_429_" class="st2" d="M323.5,695.6c-115.8-24.3-161.9-39.6-191.2-83.6c-27.9-41.9-40.2-109.1-11.6-146.8
	c21-27.7,46.8-16.8,82.1-47.6c7.6-6.6,13.1-12.4,17.7-19.6c34.9-54.9-53.1-131.3-28.3-182.1c7.9-16.1,73.3-26.9,203.8-47.9
	c28.5-4.6,50.3-7.3,78.2-0.6c53.3,12.8,65,68.7,91.2,64.1c24.1-4.3,18.6-48.2,52.2-71.4c44.9-30.9,117.1,4.4,122.2,7
	c63.9,32.2,86.7,98.1,115.1,184.1c36,109.1,64.8,193.1,22.7,269.9c-35.3,64.4-97.2,91.4-130.4,105.5
	C659.7,763.6,546.9,742.5,323.5,695.6z"/>
<g id="XMLID_351_">
	<path id="XMLID_427_" class="st0" d="M754.9,289l-101.6-24l-43.4,63.4l8.4,33.1l-41.6-6.6l-37.6,8l-6.9,18.8
		c-20.7-40.3-39.8-80.9-55.7-116.7c0,14-59.6,45.9-134.8,56C315.4,377,92,689.2,92,689.2l770.1-1.6L754.9,289z"/>
	<path id="XMLID_402_" class="st3" d="M518.7,355l25.4,49.6l15,8.5l25.8-3.1h35.6l32.8,35.1l21.7-4.8c0,0,14.7-0.9,26-2.3v-59
		l-108-60L518.7,355z"/>
	<path id="XMLID_385_" class="st4" d="M518.7,355l20.3-9.8l56.7,148.9C595.7,494.1,527.3,383,518.7,355z"/>
	<path id="XMLID_384_" class="st5" d="M518.7,355l25.4,49.6l15,8.5l25.8-3.1h35.6l32.8,35.1l21.7-4.8c0,0,14.7-0.9,26-2.3v-59
		l-108-60L518.7,355z"/>
	<path id="XMLID_400_" class="st3" d="M313.5,368.7l15.5,23.1l87.9-18.1l45.3,36.3l39.2-11l37.6-4c-23.3-44.6-45-90.3-62.6-129.9
		c0,14-59.6,45.9-134.8,56C337.3,330.5,327.2,347.3,313.5,368.7z"/>
	<path id="XMLID_353_" class="st5" d="M313.5,368.7l15.5,23.1l87.9-18.1l45.3,36.3l39.2-11l37.6-4c-23.3-44.6-45-90.3-62.6-129.9
		c0,14-59.6,45.9-134.8,56C337.3,330.5,327.2,347.3,313.5,368.7z"/>
	<path id="XMLID_399_" class="st5" d="M609.9,328.4l43.4-63.4l101.6,24l107.1,398.6L92,689.2c0,0,223.4-312.2,249.7-368.2
		c75.2-10.1,134.8-42,134.8-56C528,381,614,548.7,676,589.8"/>
	<polygon id="XMLID_383_" class="st4" points="662.8,354.9 706.9,367.7 715,382 755.2,490.8 701,488.2 701,379 	"/>
	<polygon id="XMLID_397_" class="st3" points="711.5,337.5 731,327 757,367.1 785.1,401.3 785.1,401.3 754.9,289 653.3,265 
		623,309.2 636.8,319 682.2,319 	"/>
	<polygon id="XMLID_405_" class="st5" points="711.5,337.5 731,327 757,367.1 785.1,401.3 785.1,401.3 754.9,289 653.3,265 
		623,309.2 636.8,319 682.2,319 	"/>
	<polyline id="XMLID_398_" class="st5" points="518.7,355 593,319 701,379 701,500.9 	"/>
</g>
<g id="XMLID_338_">
	<path id="XMLID_390_" class="st0" d="M500.7,497.6c5.6,59.3-21.3,115.9-61.1,115.9s-66.8-56.7-61.1-115.9
		c4.7-50.1,31.8-85.3,61.1-85.3S496,447.5,500.7,497.6z"/>
	<path id="XMLID_330_" class="st5" d="M500.7,497.6c5.6,59.3-21.3,115.9-61.1,115.9s-66.8-56.7-61.1-115.9
		c4.7-50.1,31.8-85.3,61.1-85.3S496,447.5,500.7,497.6z"/>
	<line id="XMLID_332_" class="st5" x1="439.6" y1="465.6" x2="439.6" y2="687.6"/>
	<polyline id="XMLID_377_" class="st5" points="462.2,561.7 439.6,584.3 416.9,561.7 	"/>
	<polyline id="XMLID_376_" class="st5" points="462.2,529.6 439.6,552.3 416.9,529.6 	"/>
	<polyline id="XMLID_375_" class="st5" points="462.2,497.6 439.6,520.3 416.9,497.6 	"/>
	<polyline id="XMLID_369_" class="st5" points="462.2,465.6 439.6,488.2 416.9,465.6 	"/>
</g>
<g id="XMLID_381_">
	<path id="XMLID_379_" class="st0" d="M424.5,572.9c3.9,30.1-14.7,58.8-42.2,58.8s-46-28.7-42.2-58.8c3.3-25.4,22-43.3,42.2-43.3
		S421.2,547.5,424.5,572.9z"/>
	<path id="XMLID_396_" class="st5" d="M424.5,572.9c3.9,30.1-14.7,58.8-42.2,58.8s-46-28.7-42.2-58.8c3.3-25.4,22-43.3,42.2-43.3
		S421.2,547.5,424.5,572.9z"/>
	<line id="XMLID_395_" class="st5" x1="382.3" y1="544.4" x2="382.3" y2="687.6"/>
	<polyline id="XMLID_392_" class="st5" points="397.9,600.7 382.3,616.4 366.7,600.7 	"/>
	<polyline id="XMLID_387_" class="st5" points="397.9,578.6 382.3,594.3 366.7,578.6 	"/>
	<polyline id="XMLID_386_" class="st5" points="397.9,556.6 382.3,572.2 366.7,556.6 	"/>
</g>
<g id="XMLID_337_">
	<path id="XMLID_276_" class="st0" d="M949.8,514.5c-8.2-9.5-10.3-21.4-6.1-32.4c2.2-5.7,3.4-12,3.4-18.5
		c0-28.3-22.6-51.2-50.5-51.2S846,435.2,846,463.5c0,6.5,1.2,12.7,3.4,18.5c4.2,11,2.1,23-6.1,32.4c-9.9,11.5-15.9,26.3-15.9,42.4
		c0,36.7,30.9,66.4,69.1,66.4s69.1-29.7,69.1-66.4C965.6,540.7,959.7,526,949.8,514.5z"/>
	<path id="XMLID_335_" class="st5" d="M949.8,514.5c-8.2-9.5-10.3-21.4-6.1-32.4c2.2-5.7,3.4-12,3.4-18.5
		c0-28.3-22.6-51.2-50.5-51.2S846,435.2,846,463.5c0,6.5,1.2,12.7,3.4,18.5c4.2,11,2.1,23-6.1,32.4c-9.9,11.5-15.9,26.3-15.9,42.4
		c0,36.7,30.9,66.4,69.1,66.4s69.1-29.7,69.1-66.4C965.6,540.7,959.7,526,949.8,514.5z"/>
	<line id="XMLID_333_" class="st5" x1="896.5" y1="446.5" x2="896.5" y2="689.2"/>
	<polyline id="XMLID_370_" class="st5" points="921.5,573.5 896.5,598.5 871.5,573.5 	"/>
	<polyline id="XMLID_372_" class="st5" points="921.5,538.2 896.5,563.2 871.5,538.2 	"/>
	<polyline id="XMLID_373_" class="st5" points="921.5,502.9 896.5,527.8 871.5,502.9 	"/>
	<polyline id="XMLID_374_" class="st5" points="921.5,467.5 896.5,492.5 871.5,467.5 	"/>
</g>
<path id="XMLID_419_" class="st2" d="M153.9,270.8c-15.7-3.3-34.6,23.7-42.5,44.4c-13.8,36.4-5.6,84.7,11.6,88.9
	c18.3,4.4,52.3-39.8,52.2-83.1C175.1,302.2,168.5,273.9,153.9,270.8z"/>
<path id="XMLID_413_" class="st6" d="M940.1,689H76.8v55.9l35.8,40.4l6.9-31.3l48.7,50.9c27.5-3.7,54.9-7.5,82.4-11.2
	c21.2-37.4,30.5-47.2,34.1-45.7c7.4,3-8.4,51.4,6.2,59.2c8.3,4.4,22.1-6.6,27.2-0.9c3.1,3.5-1,8.8,2.1,14.8c3.6,7,13.6,8.4,19.5,9.3
	c19.2,2.8,36.1-4.6,45.4-9.7c10.6-7.2,21.3-14.4,31.9-21.6c7.6-4,30.7-15,60.1-9.8c40.8,7.2,61.2,39.6,64.4,44.8
	c20.7,0,41.5,0,62.2,0c7.4-8.4,14.8-16.8,22.2-25.3c38.6,10.7,77.1,21.3,115.7,32c28-2.8,56.1-5.6,84.1-8.4
	c4.9-7.2,9.7-14.4,14.6-21.6l0,0l56.3-3.9c0,0,10.2,3.9,10.2-11.8s5.9-25.5,5.9-25.5s-9.8-17.6-3.9-23.5c5.9-5.9,5.9-5.9,5.9-5.9
	L940.1,689z"/>
<line id="XMLID_278_" class="st7" x1="940.1" y1="689" x2="76.8" y2="689"/>
<polyline id="XMLID_298_" class="st7" points="478.8,689 559.7,689 636.8,689 "/>
<g>
	<polygon id="XMLID_297_" class="st8" points="840.2,536.5 670.1,445.1 500.8,536.5 478.8,689 862.3,689 	"/>
	<polygon id="XMLID_309_" class="st9" points="653.3,689 653.3,536.5 500.8,536.5 478.8,689 	"/>
	<path id="XMLID_388_" class="st10" d="M595.6,689.2c0,0,10.9-21.1,19.6-24.6c18.6-7.4,7.3-15.3,7.3-15.3s-26.3-23.8-45.8-70.7
		C582.9,615.4,586.9,680.5,595.6,689.2z"/>
	<polygon id="XMLID_394_" class="st11" points="497.3,536.5 478.8,689 490,689 508.5,536.5 	"/>
	<polygon id="XMLID_295_" class="st8" points="500.8,536.5 840.2,536.5 670.1,445.1 	"/>
	<polygon id="XMLID_426_" class="st12" points="674.6,451.9 832,536.5 840.2,536.5 670.1,445.1 500.8,536.5 517.9,536.5 	"/>
	<polygon id="XMLID_304_" class="st13" points="840.2,536.5 670.1,445.1 640.7,536.5 636.8,689 862.3,689 	"/>
	<polygon id="XMLID_279_" class="st14" points="840.2,536.5 670.1,445.1 666.5,456.3 815.7,536.5 837.7,689 862.3,689 	"/>
	<polygon id="XMLID_425_" class="st14" points="678,449.3 670.1,445.1 640.7,536.5 636.8,689 646,689 649.9,536.5 	"/>
	<polygon id="XMLID_308_" class="st15" points="862.3,689 840.2,536.5 640.7,536.5 636.8,689 	"/>
	<polygon id="XMLID_294_" class="st7" points="840.2,536.5 670.1,445.1 640.7,536.5 636.8,689 862.3,689 	"/>
	<polygon id="XMLID_293_" class="st7" points="500.8,536.5 840.2,536.5 670.1,445.1 	"/>
	<polygon id="XMLID_272_" class="st1" points="565.7,536.5 550.6,689.2 593,689 593,641.9 	"/>
	<polygon id="XMLID_296_" class="st7" points="565.7,536.5 550.6,689.2 593,689 593,641.9 	"/>
	<path id="XMLID_299_" class="st16" d="M565.7,536.5c0,0,17.7,84.6,49.4,116.4C597.3,660.8,593,689,593,689s-11.1-22.2-18.3-62.8
		C571.3,607.2,565.7,536.5,565.7,536.5z"/>
	<g id="XMLID_433_" class="st17">
		<path id="XMLID_451_" class="st16" d="M567.7,545.1c-1.3-5.4-2-8.6-2-8.6s0.1,1.4,0.3,3.8C566.5,541.8,567.1,543.4,567.7,545.1z"
			/>
		<path id="XMLID_452_" class="st16" d="M612.2,654.5c0.9-0.6,1.9-1.1,2.9-1.5c-0.4-0.4-0.8-0.8-1.2-1.2
			C613.4,652.6,612.8,653.5,612.2,654.5z"/>
		<path id="XMLID_453_" class="st16" d="M580.4,620.4c-3.3-11.8-9.3-44-13.2-66.2c1.9,22.2,5.2,59.1,7.5,72
			C581.9,666.8,593,689,593,689s1.4-9.1,5.8-18.4C594,660.7,586.8,643.7,580.4,620.4z"/>
	</g>
	<path id="XMLID_300_" class="st7" d="M565.7,536.5c0,0,20.8,90.7,49.4,116.4C597.3,660.8,593,689,593,689s-11.1-22.2-18.3-62.8
		C571.3,607.2,565.7,536.5,565.7,536.5z"/>
	<polygon id="XMLID_303_" class="st7" points="840.2,536.5 670.1,445.1 500.8,536.5 478.8,689 862.3,689 	"/>
	<polygon id="XMLID_302_" class="st7" points="500.8,536.5 840.2,536.5 670.1,445.1 	"/>
</g>
<g>
	<g id="XMLID_401_">
		<path id="XMLID_360_" class="st18" d="M288.4,689h-88c-7.7,0-14-6.3-14-14l0,0c0-7.7,6.3-14,14-14h88c7.7,0,14,6.3,14,14l0,0
			C302.4,682.7,296.2,689,288.4,689z"/>
		<path id="XMLID_422_" class="st19" d="M260.5,673.4c5.9-4.6,9.7-4.7,12-4c3.4,1,3.8,3.7,8.7,6.2c2.2,1.1,7,3.6,10.3,1.6
			c2.9-1.8,4-6.6,2.7-11.8"/>
		<path id="XMLID_403_" class="st19" d="M213.2,669.2c5.7,2.4,10.7,9.9,16.1,11.9c3,1.1,6.6,1.2,21.9-4.3"/>
		<path id="XMLID_423_" class="st19" d="M251.5,681.3c0,0-12.6,7-20.3,5.5"/>
		<path id="XMLID_407_" class="st19" d="M268.6,676.1c0,0-12.4,3.8-12.4,8.3c0,4.5,8.2,5.2,15.6,4.6c7.4-0.5,13.4-3.5,9.6-7.3
			C277.6,677.8,274.1,673.9,268.6,676.1z"/>
		<path id="XMLID_409_" class="st20" d="M195.6,671.4c0,0-8.7,3.8-8.7,8.3s5.8,5.2,10.9,4.6c5.2-0.5,9.4-3.5,6.7-7.3
			S199.4,669.2,195.6,671.4z"/>
		<path id="XMLID_411_" class="st19" d="M216.1,679.9c0,0-3.9,1.7-3.9,3.7c0,2,2.6,2.3,4.9,2.1c2.3-0.2,4.2-1.5,3-3.2
			C218.9,680.7,217.9,678.9,216.1,679.9z"/>
		<path id="XMLID_417_" class="st19" d="M232.4,671.8c0,0-3.9,1.7-3.9,3.7c0,1.7,4.4,2,4.9,2.1c0.6,0,2.3,0.1,5.5-1.1
			c3.3-1.2,6.5-2.4,6.5-4.1c0.1-1.8-3.1-3.6-6-3.8C235.5,668.3,232.8,671.3,232.4,671.8z"/>
		<path id="XMLID_420_" class="st19" d="M269,678.4c0,0-5.9,2.6-5.9,5.7c0,2.2,4.8,2.8,7.5,3.2c2.7,0.4,4.7,0.7,5.8-0.5
			c1.3-1.5,0.5-4.5-1-6.3C273.1,677.7,269.3,678.3,269,678.4z"/>
		<path id="XMLID_408_" class="st19" d="M269.2,681.5c0,0-3,1.3-3,2.8c0,1.5,2,1.8,3.8,1.6c1.8-0.2,3.2-1.2,2.3-2.5
			C271.4,682.1,270.5,680.8,269.2,681.5z"/>
		<path id="XMLID_291_" class="st7" d="M288.4,689h-88c-7.7,0-14-6.3-14-14l0,0c0-7.7,6.3-14,14-14h88c7.7,0,14,6.3,14,14l0,0
			C302.4,682.7,296.2,689,288.4,689z"/>
		<path id="XMLID_421_" class="st21" d="M251.5,681.3"/>
	</g>
	<line id="XMLID_306_" class="st7" x1="168.1" y1="689" x2="168.1" y2="531.3"/>
	<path id="XMLID_307_" class="st7" d="M153,512.5l9.9,15.7c2.6,4.2,8,4.2,10.6,0l9.9-15.7"/>
	<line id="XMLID_315_" class="st7" x1="324" y1="689" x2="324" y2="531.3"/>
	<path id="XMLID_313_" class="st7" d="M308.8,512.5l9.9,15.7c2.6,4.2,8,4.2,10.6,0l9.9-15.7"/>
	<line id="XMLID_318_" class="st22" x1="153" y1="525" x2="339.2" y2="525"/>
	<path id="XMLID_319_" class="st23" d="M224.2,636.8c2.8,4.6,3.8,4.8,3.4,13.8c-0.8,17.5,7.3,25.7,17,28.2c11.5,3,17.1-0.4,21.9-4.7
		c19.5-17.4,2.7-40.1,0.9-41.7c0,6.9-0.5,16.5-5,17.8c3-13.2-7.7-26.8-17.9-30.9c5.6,13.4-3.3,19.2,0.8,35.1
		C242.6,643.6,228.4,637.4,224.2,636.8z"/>
	<path id="XMLID_368_" class="st24" d="M231.2,645.4c2.2,3.6,3,3.8,2.7,10.8c-0.6,13.8,5.8,20.2,13.3,22.2c9,2.3,13.4-0.3,17.2-3.7
		c15.3-13.7,2.1-31.6,0.7-32.8c0,5.4-0.4,13-4,14c2.4-10.4-6.1-21.1-14.1-24.3c4.4,10.5-2.6,15.1,0.6,27.6
		C245.7,650.8,234.5,646,231.2,645.4z"/>
	<path id="XMLID_371_" class="st25" d="M230.6,649.6c2.2,3.6-0.5,9.2,2.6,15.6c6.5,13,6.4,11.4,14,13.3c9,2.3,13.4-0.3,17.2-3.7
		c15.3-13.7,2.1-31.6,0.7-32.8c0,5.4-0.4,13-4,14c2.4-10.4-3.1-21.1-11.1-24.3c2.1,9.2-5.6,15.1-2.4,27.6
		C245.7,650.8,233.9,650.1,230.6,649.6z"/>
	<path id="XMLID_382_" class="st26" d="M250.4,675.8c-6.4-1.4-11.2-6.9-10.8-15.7c0.1-1.2,0.1-2.3,0-3.2c2.3,1.6,10,7.1,10.7,9.7
		v-2.5c-1.1-4.5,0.8-10.1,1.4-13.4c0.3-1.5,0.6-3.1,0.7-4.9c3.1,3.5,6.8,11,6.8,15.5l-0.2,3.3c0,0,0.7-1,2.1-1.6
		c1.4-0.6,3.5-2.1,4.4-4.2c0.3,1.4,0.5,2.9,0.4,4.4c-0.2,4-1.9,7.4-5.3,10.4C258.6,675.7,253.7,676.5,250.4,675.8z"/>
	<path id="XMLID_343_" class="st6" d="M212.1,574.5c1.6,15.5,16.2,30.7,34,30.7s32.4-15.2,34-30.7H212.1z"/>
	<path id="XMLID_457_" class="st27" d="M222.2,574.5h-10.1c1.6,15.5,16.2,30.7,34,30.7c1.7,0,3.4-0.1,5.1-0.4
		C235.7,602.2,223.6,588.5,222.2,574.5z"/>
	<path id="XMLID_325_" class="st7" d="M212.1,574.5c1.6,15.5,16.2,30.7,34,30.7s32.4-15.2,34-30.7H212.1z"/>
	<ellipse id="XMLID_339_" class="st16" cx="246.1" cy="574.5" rx="34" ry="4.2"/>
	<ellipse id="XMLID_305_" class="st7" cx="246.1" cy="574.5" rx="34" ry="4.2"/>
	<circle id="XMLID_322_" class="st7" cx="212.1" cy="574.5" r="4.3"/>
	<circle id="XMLID_329_" class="st7" cx="280" cy="574.5" r="4.3"/>
	<path id="XMLID_324_" class="st28" d="M211.2,570.2c-2.6-14.7,4.7-30.1,34.9-30.1s37.4,15.4,34.9,30.1"/>
	<g id="XMLID_345_">
		<circle id="XMLID_344_" class="st7" cx="246.7" cy="524.1" r="4.8"/>
		<circle id="XMLID_346_" class="st7" cx="241.9" cy="524.1" r="4.8"/>
	</g>
	<circle id="XMLID_357_" class="st28" cx="247.3" cy="540.2" r="2.8"/>
	<circle id="XMLID_355_" class="st28" cx="243.3" cy="540.2" r="2.8"/>
	<path id="XMLID_352_" class="st28" d="M246.1,526.6c0,0-3.4,6.3-0.7,10.8c0,0,0.4,4.7-1,7.2c-1.4,2.5-1.1,3.4-1.1,4"/>
	<circle id="XMLID_363_" class="st29" cx="200.4" cy="675" r="14"/>
	<circle id="XMLID_358_" class="st7" cx="200.4" cy="675" r="14"/>
	<path id="XMLID_365_" class="st30" d="M203.1,681.7c-0.9,0.6-1.9,1-3,1c-3.4,0-6.1-3.2-6.1-7.2s2.7-7.2,6.1-7.2
		c3.4,0,6.1,3.2,6.1,7.2c0,1.6-0.4,3.1-1.2,4.3"/>
	<path id="XMLID_366_" class="st30" d="M204.2,674.6c0,2.4-2.1,4.8-4.1,4.8c-2,0-3.6-1.9-3.6-4.3c0-2.4,1.6-4.3,3.6-4.3
		C202.1,670.8,204.2,672.2,204.2,674.6z"/>
	<path id="XMLID_367_" class="st30" d="M200.1,676c-0.8,0-1.4-0.7-1.4-1.5s0.6-1.5,1.4-1.5c0,0,1.3-0.1,1.6,0.8"/>
</g>
</svg>
