<?xml version="1.0" encoding="utf-8"?>
<!-- Generator: Adobe Illustrator 23.1.1, SVG Export Plug-In . SVG Version: 6.00 Build 0)  -->
<svg version="1.1" id="Layer_1" xmlns="http://www.w3.org/2000/svg" xmlns:xlink="http://www.w3.org/1999/xlink" x="0px" y="0px"
	 viewBox="0 0 1000 1000" style="enable-background:new 0 0 1000 1000;" xml:space="preserve">
<style type="text/css">
	.st0{fill:#D6F2C7;}
	.st1{fill:#333333;}
	.st2{opacity:0.23;}
	.st3{fill:none;stroke:#474747;stroke-width:6;stroke-linecap:round;stroke-linejoin:round;stroke-miterlimit:10;}
	.st4{fill:none;stroke:#333333;stroke-width:10;stroke-linecap:round;stroke-linejoin:round;stroke-miterlimit:10;}
	.st5{fill:#FFC859;}
	.st6{fill:#F9D895;}
	.st7{fill:#CE5555;}
	.st8{opacity:0.47;fill:#CE5555;}
	.st9{opacity:0.5;fill:#CE5555;}
	.st10{fill:#B2C68B;}
	.st11{opacity:0.38;fill:#AABC80;}
	.st12{fill:#AA7D5E;}
	.st13{fill:#FFC758;}
	.st14{opacity:0.96;fill:#FFC758;}
	.st15{fill:#6A6A68;}
	.st16{opacity:0.38;fill:#629EC0;}
	.st17{fill:#FF7373;}
	.st18{fill:#F9F9F9;}
	.st19{fill:#B7F2A7;}
	.st20{fill:#9FD3ED;}
	.st21{fill:#F97D7D;}
	.st22{fill:#BFBFBF;}
	.st23{fill:none;stroke:#333333;stroke-width:6;stroke-linecap:round;stroke-linejoin:round;stroke-miterlimit:10;}
	.st24{fill:none;stroke:#333333;stroke-width:8;stroke-linecap:round;stroke-linejoin:round;stroke-miterlimit:10;}
	.st25{fill:none;stroke:#333333;stroke-width:5;stroke-linecap:round;stroke-linejoin:round;stroke-miterlimit:10;}
	.st26{fill:#996447;}
	.st27{fill:#BF9E86;}
	.st28{fill:none;stroke:#333333;stroke-width:12;stroke-linecap:round;stroke-linejoin:round;stroke-miterlimit:10;}
	.st29{fill:#B67DBC;}
	.st30{opacity:0.44;fill:#B67DBC;}
	.st31{fill:#9A5BA2;}
	.st32{fill:#474747;}
	.st33{fill:none;stroke:#333333;stroke-width:4;stroke-linecap:round;stroke-linejoin:round;stroke-miterlimit:10;}
	.st34{fill:#7D80BA;}
	.st35{opacity:0.6;}
	.st36{opacity:0.6;fill:#7D80BA;}
	.st37{fill:none;stroke:#1D2F3D;stroke-width:10;stroke-linecap:round;stroke-linejoin:round;stroke-miterlimit:10;}
</style>
<rect id="XMLID_49_" class="st0" width="1000" height="1000"/>
<g>
	<g>
		<g>
			<path class="st1" d="M63.2,959.2c0,2.5-1.2,3.7-2.6,3.7c-1.1,0-1.9-0.5-2.1-1.4c-0.4,0.5-1,0.8-1.8,0.8c-1.5,0-2.6-1.2-2.6-2.8
				c0-1.6,1.1-2.8,2.6-2.8c0.7,0,1.2,0.3,1.6,0.7v-0.5h1.6v3.9c0,0.8,0.3,1.4,1,1.4c0.9,0,1.7-0.9,1.7-3c0-3-2.3-5.3-5.4-5.3
				c-3.1,0-5.6,2.4-5.6,5.7c0,3.3,2.5,5.7,5.9,5.7c1.1,0,2.1-0.2,2.9-0.4v0.6c-0.8,0.3-1.7,0.4-2.9,0.4c-3.7,0-6.5-2.6-6.5-6.2
				c0-3.4,2.7-6.2,6.2-6.2C61.1,953.3,63.2,956.4,63.2,959.2z M58.3,959.5c0-0.8-0.6-1.4-1.3-1.4c-0.8,0-1.3,0.5-1.3,1.4
				c0,0.8,0.6,1.3,1.3,1.3C57.8,960.9,58.3,960.3,58.3,959.5z"/>
		</g>
		<g>
			<path class="st1" d="M69.4,955.1v2c-1.2-0.1-2.6,0.5-2.6,2.4v4.3h-1.9v-8.6h1.9v1.4C67.3,955.5,68.3,955.1,69.4,955.1z"/>
		</g>
		<g>
			<path class="st1" d="M74.6,962.3c1,0,1.8-0.5,2.2-1.1l1.5,0.9c-0.8,1.2-2.1,1.9-3.8,1.9c-2.8,0-4.7-1.9-4.7-4.5
				c0-2.5,1.8-4.5,4.5-4.5c2.6,0,4.3,2.1,4.3,4.5c0,0.3,0,0.5-0.1,0.8h-6.8C72.1,961.6,73.2,962.3,74.6,962.3z M76.9,958.8
				c-0.3-1.5-1.3-2.1-2.5-2.1c-1.4,0-2.3,0.8-2.6,2.1H76.9z"/>
		</g>
		<g>
			<path class="st1" d="M88.9,955.2v8.6h-1.9v-1.2c-0.7,0.9-1.7,1.5-3,1.5c-2.3,0-4.3-2-4.3-4.5c0-2.6,1.9-4.5,4.3-4.5
				c1.3,0,2.3,0.5,3,1.4v-1.2H88.9z M87.1,959.5c0-1.6-1.2-2.7-2.7-2.7c-1.5,0-2.7,1.1-2.7,2.7c0,1.6,1.2,2.7,2.7,2.7
				C85.9,962.3,87.1,961.1,87.1,959.5z"/>
		</g>
		<g>
			<path class="st1" d="M91.1,951.3H93v12.5h-1.9V951.3z"/>
		</g>
		<g>
			<path class="st1" d="M102.9,955.2l-3.3,8.6h-2.1l-3.3-8.6h2l2.4,6.5l2.4-6.5H102.9z"/>
		</g>
		<g>
			<path class="st1" d="M104.2,955.2h1.9v8.9c0,2.4-1.2,3.5-3.5,3.3v-1.8c1.1,0.1,1.7-0.3,1.7-1.5V955.2z M104,952.8
				c0-0.7,0.5-1.2,1.2-1.2c0.7,0,1.2,0.5,1.2,1.2c0,0.6-0.5,1.2-1.2,1.2C104.5,954,104,953.4,104,952.8z"/>
		</g>
		<g>
			<path class="st1" d="M116,955.2l-3.3,8.8c-0.8,2.2-2.2,3.3-4.2,3.2v-1.7c1.2,0.1,1.9-0.5,2.3-1.7l0.1-0.2l-3.6-8.4h2l2.6,6.2
				l2.2-6.2H116z"/>
		</g>
	</g>
	<g>
		<path class="st1" d="M211.9,938.7c0,2.1-1.5,3.8-3.6,3.8h-3v-7.6h3C210.4,934.9,211.9,936.6,211.9,938.7z M210.9,938.7
			c0-1.6-1.1-2.9-2.6-2.9h-2v5.7h2C209.8,941.6,210.9,940.3,210.9,938.7z"/>
		<path class="st1" d="M219.5,940.8h-3.4l-0.6,1.7h-1.1l2.8-7.6h1.1l2.8,7.6h-1.1L219.5,940.8z M219.2,939.9l-1.4-3.8l-1.4,3.8
			H219.2z"/>
		<path class="st1" d="M226.4,939.4v3.1h-1v-3.1l-2.7-4.5h1.1l2.1,3.6l2.1-3.6h1.1L226.4,939.4z"/>
		<path class="st1" d="M242,940.3c0,1.5-1.2,2.4-2.6,2.4c-1.1,0-2.1-0.5-2.5-1.6l0.9-0.5c0.2,0.8,0.8,1.1,1.7,1.1
			c0.9,0,1.6-0.5,1.6-1.4c0-0.9-0.7-1.4-1.6-1.4h-2.2l0.3-4h4.2v0.9h-3.3l-0.1,2h1.1C240.8,937.9,242,938.7,242,940.3z"/>
		<path class="st1" d="M250.3,940.4c0,1.4-1.1,2.2-2.6,2.2c-1.5,0-2.6-0.8-2.6-2.2c0-0.8,0.5-1.5,1.2-1.9c-0.6-0.3-0.9-0.9-0.9-1.7
			c0-1.5,1.2-2.2,2.4-2.2c1.2,0,2.4,0.7,2.4,2.2c0,0.8-0.4,1.3-0.9,1.7C249.9,938.9,250.3,939.6,250.3,940.4z M249.3,940.4
			c0-0.9-0.7-1.3-1.6-1.3c-0.9,0-1.6,0.4-1.6,1.3c0,0.9,0.7,1.3,1.6,1.3C248.7,941.7,249.3,941.2,249.3,940.4z M246.4,936.9
			c0,0.8,0.6,1.2,1.4,1.2c0.7,0,1.4-0.4,1.4-1.2c0-0.8-0.6-1.2-1.4-1.2C247,935.7,246.4,936.1,246.4,936.9z"/>
	</g>
	<g>
		<path class="st1" d="M58.9,938.7c0,2.1-1.5,3.8-3.6,3.8h-3v-7.6h3C57.4,934.9,58.9,936.6,58.9,938.7z M57.9,938.7
			c0-1.6-1.1-2.9-2.6-2.9h-2v5.7h2C56.8,941.6,57.9,940.3,57.9,938.7z"/>
		<path class="st1" d="M67,941.6v1h-4.6v-7.6h4.5v1h-3.5v2.3h3.2v0.9h-3.2v2.4H67z"/>
		<path class="st1" d="M70,940.8l0.9-0.5c0.3,0.8,0.9,1.4,2,1.4c1.1,0,1.6-0.5,1.6-1.2c0-0.8-0.7-1-1.8-1.4
			c-1.2-0.4-2.4-0.8-2.4-2.2c0-1.4,1.1-2.2,2.4-2.2c1.3,0,2.2,0.7,2.6,1.7l-0.8,0.5c-0.3-0.7-0.8-1.2-1.7-1.2
			c-0.8,0-1.4,0.4-1.4,1.1c0,0.7,0.5,1,1.6,1.3c1.3,0.4,2.6,0.8,2.6,2.3c0,1.3-1.1,2.2-2.6,2.2C71.5,942.7,70.4,941.9,70,940.8z"/>
		<path class="st1" d="M80,934.9v7.6h-1v-7.6H80z"/>
		<path class="st1" d="M91.3,939.2c0,1.9-1.4,3.5-3.7,3.5c-2.4,0-4-1.8-4-4c0-2.2,1.7-4,4-4c1.4,0,2.7,0.8,3.3,1.8l-0.9,0.5
			c-0.4-0.8-1.4-1.4-2.4-1.4c-1.8,0-3,1.3-3,3c0,1.7,1.2,3,3,3c1.6,0,2.5-0.9,2.7-2h-2.8v-0.9h3.8V939.2z"/>
		<path class="st1" d="M100.6,934.9v7.6h-0.8l-3.9-5.7v5.7h-1v-7.6h0.8l3.9,5.7v-5.7H100.6z"/>
		<path class="st1" d="M109.1,941.6v1h-4.6v-7.6h4.5v1h-3.5v2.3h3.2v0.9h-3.2v2.4H109.1z"/>
		<path class="st1" d="M119.2,938.7c0,2.1-1.5,3.8-3.6,3.8h-3v-7.6h3C117.6,934.9,119.2,936.6,119.2,938.7z M118.2,938.7
			c0-1.6-1.1-2.9-2.6-2.9h-2v5.7h2C117.1,941.6,118.2,940.3,118.2,938.7z"/>
		<path class="st1" d="M133.2,940.4c0,1.2-1,2.2-2.2,2.2h-3.3v-7.6h3c1.2,0,2.1,0.9,2.1,2.1c0,0.7-0.3,1.2-0.8,1.6
			C132.7,938.9,133.2,939.5,133.2,940.4z M128.7,935.8v2.3h2c0.6,0,1.1-0.5,1.1-1.2c0-0.6-0.5-1.2-1.1-1.2H128.7z M132.2,940.3
			c0-0.7-0.5-1.2-1.2-1.2h-2.3v2.5h2.3C131.7,941.6,132.2,941,132.2,940.3z"/>
		<path class="st1" d="M139.4,939.4v3.1h-1v-3.1l-2.7-4.5h1.1l2.1,3.6l2.1-3.6h1.1L139.4,939.4z"/>
	</g>
	<g>
		<path class="st1" d="M214.5,960.8c0,2.1-1.7,3.5-3.7,3.5h-5.3v-12.4h4.9c2,0,3.6,1.5,3.6,3.4c0,1.1-0.5,2-1.3,2.5
			C213.8,958.4,214.5,959.4,214.5,960.8z M207.5,953.8v3.3h2.9c0.9,0,1.6-0.7,1.6-1.6c0-0.9-0.7-1.6-1.6-1.6H207.5z M212.4,960.6
			c0-1-0.7-1.7-1.7-1.7h-3.3v3.5h3.3C211.7,962.4,212.4,961.6,212.4,960.6z"/>
		<path class="st1" d="M220.6,962.8c1.1,0,1.9-0.5,2.3-1.1l1.6,0.9c-0.8,1.2-2.1,1.9-3.9,1.9c-2.9,0-4.8-2-4.8-4.7
			c0-2.6,1.9-4.7,4.7-4.7c2.6,0,4.4,2.1,4.4,4.7c0,0.3,0,0.5-0.1,0.8h-7C218,962.1,219.1,962.8,220.6,962.8z M222.9,959.1
			c-0.3-1.5-1.4-2.2-2.5-2.2c-1.4,0-2.4,0.8-2.7,2.2H222.9z"/>
		<path class="st1" d="M235.4,951.9v12.4h-1.9V963c-0.7,0.9-1.7,1.5-3.1,1.5c-2.4,0-4.4-2-4.4-4.7c0-2.6,2-4.7,4.4-4.7
			c1.4,0,2.4,0.6,3.1,1.5v-4.8H235.4z M233.5,959.9c0-1.6-1.2-2.8-2.8-2.8c-1.6,0-2.8,1.2-2.8,2.8c0,1.6,1.2,2.8,2.8,2.8
			C232.3,962.7,233.5,961.5,233.5,959.9z"/>
		<path class="st1" d="M242.3,955.3v2.1c-1.3-0.1-2.7,0.5-2.7,2.5v4.5h-1.9v-8.9h1.9v1.5C240.1,955.7,241.1,955.3,242.3,955.3z"/>
		<path class="st1" d="M242.8,959.9c0-2.6,2.1-4.7,4.7-4.7c2.6,0,4.7,2,4.7,4.7c0,2.6-2.1,4.7-4.7,4.7
			C244.9,964.5,242.8,962.5,242.8,959.9z M250.2,959.9c0-1.6-1.2-2.8-2.8-2.8s-2.8,1.2-2.8,2.8c0,1.6,1.2,2.8,2.8,2.8
			S250.2,961.5,250.2,959.9z"/>
		<path class="st1" d="M253.4,959.9c0-2.6,2.1-4.7,4.7-4.7c2.6,0,4.7,2,4.7,4.7c0,2.6-2.1,4.7-4.7,4.7
			C255.5,964.5,253.4,962.5,253.4,959.9z M260.8,959.9c0-1.6-1.2-2.8-2.8-2.8s-2.8,1.2-2.8,2.8c0,1.6,1.2,2.8,2.8,2.8
			S260.8,961.5,260.8,959.9z"/>
		<path class="st1" d="M277.5,958.8v5.5h-1.9v-5.4c0-1.2-0.7-1.9-1.7-1.9c-1.1,0-1.9,0.7-1.9,2.3v5H270v-5.4c0-1.2-0.6-1.9-1.7-1.9
			c-1.1,0-2,0.7-2,2.3v5h-1.9v-8.9h1.9v1.1c0.6-0.9,1.4-1.3,2.5-1.3c1.2,0,2,0.5,2.5,1.4c0.6-0.9,1.5-1.4,2.7-1.4
			C276.1,955.2,277.5,956.6,277.5,958.8z"/>
	</g>
	<g>
		<g>
			<g>
				<path class="st1" d="M846.1,938.7c0,2.1-1.5,3.8-3.6,3.8h-3v-7.6h3C844.6,934.9,846.1,936.6,846.1,938.7z M845.2,938.7
					c0-1.6-1.1-2.9-2.6-2.9h-2v5.7h2C844.1,941.6,845.2,940.3,845.2,938.7z"/>
			</g>
			<g>
				<path class="st1" d="M849.3,938.7c0-2.2,1.7-4,3.9-4c2.2,0,4,1.8,4,4c0,2.2-1.7,4-4,4C851,942.7,849.3,940.9,849.3,938.7z
					 M856.1,938.7c0-1.7-1.3-3-2.9-3c-1.7,0-2.9,1.3-2.9,3c0,1.7,1.3,3,2.9,3C854.9,941.7,856.1,940.4,856.1,938.7z"/>
			</g>
			<g>
				<path class="st1" d="M859.8,934.9h1.1l1.7,6.3l1.9-6.3h1l1.9,6.3l1.7-6.3h1.1l-2.2,7.6h-1.2l-1.8-6.1l-1.8,6.1H862L859.8,934.9z
					"/>
			</g>
			<g>
				<path class="st1" d="M879.3,934.9v7.6h-0.8l-3.9-5.7v5.7h-1v-7.6h0.8l3.9,5.7v-5.7H879.3z"/>
			</g>
			<g>
				<path class="st1" d="M887.5,941.6v1h-4.3v-7.6h1v6.7H887.5z"/>
			</g>
			<g>
				<path class="st1" d="M889.9,938.7c0-2.2,1.7-4,3.9-4c2.2,0,4,1.8,4,4c0,2.2-1.7,4-4,4C891.6,942.7,889.9,940.9,889.9,938.7z
					 M896.8,938.7c0-1.7-1.3-3-2.9-3c-1.7,0-2.9,1.3-2.9,3c0,1.7,1.3,3,2.9,3C895.5,941.7,896.8,940.4,896.8,938.7z"/>
			</g>
			<g>
				<path class="st1" d="M905.4,940.8H902l-0.6,1.7h-1.1l2.8-7.6h1.1l2.8,7.6H906L905.4,940.8z M905.1,939.9l-1.4-3.8l-1.4,3.8
					H905.1z"/>
			</g>
			<g>
				<path class="st1" d="M916.9,938.7c0,2.1-1.5,3.8-3.6,3.8h-3v-7.6h3C915.4,934.9,916.9,936.6,916.9,938.7z M915.9,938.7
					c0-1.6-1.1-2.9-2.6-2.9h-2v5.7h2C914.9,941.6,915.9,940.3,915.9,938.7z"/>
			</g>
			<g>
				<path class="st1" d="M926.5,935.8v2.5h3.2v1h-3.2v3.2h-1v-7.6h4.4v1H926.5z"/>
			</g>
			<g>
				<path class="st1" d="M936.2,939.6h-1.8v2.9h-1v-7.6h3c1.3,0,2.4,1.1,2.4,2.4c0,1-0.7,1.9-1.6,2.2l1.8,3.1h-1.1L936.2,939.6z
					 M934.4,938.7h2c0.8,0,1.4-0.6,1.4-1.4c0-0.8-0.6-1.4-1.4-1.4h-2V938.7z"/>
			</g>
			<g>
				<path class="st1" d="M941.9,938.7c0-2.2,1.7-4,3.9-4c2.2,0,4,1.8,4,4c0,2.2-1.7,4-4,4C943.6,942.7,941.9,940.9,941.9,938.7z
					 M948.8,938.7c0-1.7-1.3-3-2.9-3c-1.7,0-2.9,1.3-2.9,3c0,1.7,1.3,3,2.9,3C947.5,941.7,948.8,940.4,948.8,938.7z"/>
			</g>
			<g>
				<path class="st1" d="M960.4,942.5h-1v-6l-2.5,4.2h-0.1l-2.5-4.1v5.9h-1v-7.6h1.1l2.4,4l2.4-4h1.1V942.5z"/>
			</g>
		</g>
		<g>
			<g>
				<path class="st1" d="M839.3,952.9c0-0.7,0.5-1.2,1.2-1.2c0.7,0,1.2,0.5,1.2,1.2c0,0.7-0.5,1.2-1.2,1.2
					C839.9,954.1,839.3,953.6,839.3,952.9z M839.6,955.4h1.9v8.9h-1.9V955.4z"/>
			</g>
			<g>
				<path class="st1" d="M843.7,951.4h1.9v12.9h-1.9V951.4z"/>
			</g>
			<g>
				<path class="st1" d="M847.8,951.4h1.9v12.9h-1.9V951.4z"/>
			</g>
			<g>
				<path class="st1" d="M852,951.4h1.9v12.9H852V951.4z"/>
			</g>
			<g>
				<path class="st1" d="M864,955.4v8.9h-1.9v-1.1c-0.6,0.9-1.5,1.4-2.7,1.4c-2,0-3.4-1.3-3.4-3.6v-5.4h1.9v5.2c0,1.3,0.8,2.1,2,2.1
					c1.3,0,2.2-0.7,2.2-2.5v-4.7H864z"/>
			</g>
			<g>
				<path class="st1" d="M872.6,961.8c0,1.8-1.5,2.7-3.5,2.7c-1.8,0-3-0.8-3.6-2.1l1.6-1c0.3,0.8,1,1.3,2,1.3c0.8,0,1.5-0.3,1.5-1
					c0-1.6-4.8-0.7-4.8-3.9c0-1.7,1.4-2.7,3.2-2.7c1.5,0,2.7,0.7,3.3,1.8l-1.6,0.9c-0.3-0.7-0.9-1-1.7-1c-0.7,0-1.3,0.3-1.3,0.9
					C867.9,959.5,872.6,958.5,872.6,961.8z"/>
			</g>
			<g>
				<path class="st1" d="M876.7,957.3v4.2c0,1.1,0.7,1.1,2.2,1v1.7c-2.9,0.4-4.1-0.5-4.1-2.8v-4.2h-1.6v-1.8h1.6v-1.9l1.9-0.6v2.5
					h2.2v1.8H876.7z"/>
			</g>
			<g>
				<path class="st1" d="M885.4,955.3v2.1c-1.3-0.1-2.7,0.5-2.7,2.5v4.5h-1.9v-8.9h1.9v1.5C883.2,955.7,884.2,955.3,885.4,955.3z"/>
			</g>
			<g>
				<path class="st1" d="M895.3,955.4v8.9h-1.9V963c-0.7,0.9-1.7,1.5-3.1,1.5c-2.4,0-4.4-2-4.4-4.7c0-2.6,2-4.7,4.4-4.7
					c1.4,0,2.4,0.6,3.1,1.5v-1.3H895.3z M893.4,959.9c0-1.6-1.2-2.8-2.8-2.8c-1.6,0-2.8,1.2-2.8,2.8c0,1.6,1.2,2.8,2.8,2.8
					C892.2,962.7,893.4,961.5,893.4,959.9z"/>
			</g>
			<g>
				<path class="st1" d="M900.3,957.3v4.2c0,1.1,0.7,1.1,2.2,1v1.7c-2.9,0.4-4.1-0.5-4.1-2.8v-4.2h-1.6v-1.8h1.6v-1.9l1.9-0.6v2.5
					h2.2v1.8H900.3z"/>
			</g>
			<g>
				<path class="st1" d="M903.9,952.9c0-0.7,0.5-1.2,1.2-1.2c0.7,0,1.2,0.5,1.2,1.2c0,0.7-0.5,1.2-1.2,1.2
					C904.5,954.1,903.9,953.6,903.9,952.9z M904.2,955.4h1.9v8.9h-1.9V955.4z"/>
			</g>
			<g>
				<path class="st1" d="M907.8,959.9c0-2.6,2.1-4.7,4.7-4.7c2.6,0,4.7,2,4.7,4.7c0,2.6-2.1,4.7-4.7,4.7
					C909.9,964.5,907.8,962.5,907.8,959.9z M915.3,959.9c0-1.6-1.2-2.8-2.8-2.8c-1.6,0-2.8,1.2-2.8,2.8c0,1.6,1.2,2.8,2.8,2.8
					C914.1,962.7,915.3,961.5,915.3,959.9z"/>
			</g>
			<g>
				<path class="st1" d="M927,958.9v5.4h-1.9v-5.2c0-1.3-0.8-2.1-2-2.1c-1.3,0-2.2,0.7-2.2,2.5v4.7h-1.9v-8.9h1.9v1.1
					c0.6-0.9,1.5-1.4,2.7-1.4C925.5,955.2,927,956.6,927,958.9z"/>
			</g>
			<g>
				<path class="st1" d="M935.5,961.8c0,1.8-1.5,2.7-3.5,2.7c-1.8,0-3-0.8-3.6-2.1l1.6-1c0.3,0.8,1,1.3,2,1.3c0.8,0,1.5-0.3,1.5-1
					c0-1.6-4.8-0.7-4.8-3.9c0-1.7,1.4-2.7,3.2-2.7c1.5,0,2.7,0.7,3.3,1.8l-1.6,0.9c-0.3-0.7-0.9-1-1.7-1c-0.7,0-1.3,0.3-1.3,0.9
					C930.7,959.5,935.5,958.5,935.5,961.8z"/>
			</g>
			<g>
				<path class="st1" d="M936.8,963.2c0-0.7,0.6-1.3,1.3-1.3c0.7,0,1.3,0.6,1.3,1.3c0,0.7-0.6,1.3-1.3,1.3
					C937.4,964.5,936.8,963.9,936.8,963.2z"/>
			</g>
			<g>
				<path class="st1" d="M940.3,959.9c0-2.6,2-4.7,4.7-4.7c1.7,0,3.2,0.9,3.9,2.3l-1.6,1c-0.4-0.8-1.3-1.4-2.3-1.4
					c-1.6,0-2.7,1.2-2.7,2.8c0,1.6,1.2,2.8,2.7,2.8c1.1,0,1.9-0.5,2.4-1.4l1.6,0.9c-0.7,1.4-2.2,2.3-4,2.3
					C942.3,964.5,940.3,962.5,940.3,959.9z"/>
			</g>
			<g>
				<path class="st1" d="M949.7,959.9c0-2.6,2.1-4.7,4.7-4.7c2.6,0,4.7,2,4.7,4.7c0,2.6-2.1,4.7-4.7,4.7
					C951.8,964.5,949.7,962.5,949.7,959.9z M957.2,959.9c0-1.6-1.2-2.8-2.8-2.8s-2.8,1.2-2.8,2.8c0,1.6,1.2,2.8,2.8,2.8
					S957.2,961.5,957.2,959.9z"/>
			</g>
		</g>
	</g>
</g>
<g id="XMLID_262_" class="st2">
	<polyline id="XMLID_269_" class="st3" points="619.2,271.4 619.2,240.5 557.4,240.5 	"/>
	<polyline id="XMLID_268_" class="st3" points="681.1,240.5 619.2,240.5 619.2,271.4 	"/>
	<rect id="XMLID_267_" x="588.3" y="209.5" class="st3" width="61.9" height="30.9"/>
	<polyline id="XMLID_266_" class="st3" points="636.8,178.6 619.2,178.6 619.2,209.5 681.1,209.5 	"/>
	<polyline id="XMLID_265_" class="st3" points="557.4,209.5 619.2,209.5 619.2,178.6 569.1,178.6 	"/>
	<polyline id="XMLID_264_" class="st3" points="536.3,240.5 588.3,240.5 588.3,209.5 557.4,209.5 	"/>
	<polyline id="XMLID_263_" class="st3" points="694.8,209.5 650.2,209.5 650.2,240.5 671.6,240.5 	"/>
</g>
<g id="XMLID_278_" class="st2">
	<polyline id="XMLID_285_" class="st3" points="224.2,420.2 224.2,451.1 162.3,451.1 	"/>
	<polyline id="XMLID_284_" class="st3" points="286.1,451.1 224.2,451.1 224.2,420.2 	"/>
	<rect id="XMLID_283_" x="193.3" y="451.1" class="st3" width="61.9" height="30.9"/>
	<polyline id="XMLID_282_" class="st3" points="241.8,513 224.2,513 224.2,482.1 286.1,482.1 	"/>
	<polyline id="XMLID_281_" class="st3" points="162.3,482.1 224.2,482.1 224.2,513 174,513 	"/>
	<polyline id="XMLID_280_" class="st3" points="141.3,451.1 193.3,451.1 193.3,482.1 162.3,482.1 	"/>
	<polyline id="XMLID_279_" class="st3" points="299.8,482.1 255.1,482.1 255.1,451.1 276.6,451.1 	"/>
</g>
<g id="XMLID_270_" class="st2">
	<polyline id="XMLID_277_" class="st3" points="850,567 850,598 911.9,598 	"/>
	<polyline id="XMLID_276_" class="st3" points="788.1,598 850,598 850,567 	"/>
	
		<rect id="XMLID_275_" x="819.1" y="598" transform="matrix(-1 -4.490021e-11 4.490021e-11 -1 1699.9797 1226.834)" class="st3" width="61.9" height="30.9"/>
	<polyline id="XMLID_274_" class="st3" points="832.4,659.8 850,659.8 850,628.9 788.1,628.9 	"/>
	<polyline id="XMLID_273_" class="st3" points="911.9,628.9 850,628.9 850,659.8 873.2,659.8 	"/>
	<polyline id="XMLID_272_" class="st3" points="932.9,598 880.9,598 880.9,628.9 911.9,628.9 	"/>
	<polyline id="XMLID_271_" class="st3" points="774.4,628.9 819.1,628.9 819.1,598 797.6,598 	"/>
</g>
<line id="XMLID_5_" class="st4" x1="201" y1="726" x2="902.2" y2="726"/>
<line id="XMLID_213_" class="st4" x1="150.5" y1="726" x2="178.3" y2="726"/>
<g>
	<polygon id="XMLID_51_" class="st1" points="372.3,726 284.6,726 284.6,706 392.5,706 	"/>
	<polygon id="XMLID_52_" class="st1" points="503.7,726 591.4,726 591.4,706 483.5,706 	"/>
	<path id="XMLID_53_" class="st5" d="M618,614.9c-118.5,24-241.5,24-360,0c0-33.4,0-66.7,0-100.1c0-9.9,8.8-19.8,19.8-21.9
		c105.8-18.9,214.6-18.9,320.4,0c11,2.1,19.8,12,19.8,21.9C618,548.2,618,581.5,618,614.9z"/>
	<path id="XMLID_79_" class="st6" d="M279.9,502.7c104.4-16.4,211.8-16.4,316.1,0c7,1.2,13.2,5.3,16.6,10.3c0-1,0-2,0-3
		c0-8.6-8.6-17.2-19.2-19c-102.7-16.4-208.3-16.4-311,0c-10.6,1.8-19.2,10.4-19.2,19c0,1,0,2,0,3
		C266.7,507.9,272.9,503.9,279.9,502.7z"/>
	<path id="XMLID_54_" class="st7" d="M407.1,589.5c-35.2,3.5-70.7,3.5-105.9,0c-7.6-0.8-13.7-6.9-14.3-14.6c-0.5-6.5-0.5-13,0-19.5
		c0.6-7.7,6.6-13.8,14.3-14.6c35.2-3.5,70.7-3.5,105.9,0c7.6,0.8,13.7,6.9,14.3,14.6c0.5,6.5,0.5,13,0,19.5
		C420.7,582.6,414.7,588.8,407.1,589.5z"/>
	<path id="XMLID_95_" class="st8" d="M419,560.6c-0.6,7.7-6.4,13.8-13.8,14.6c-34,3.5-68.2,3.5-102.2,0c-7.4-0.8-13.2-6.9-13.8-14.6
		c-0.1-0.8-0.1-1.7-0.1-2.5c-0.3,5.6-0.3,11.3,0.1,16.9c0.6,7.7,6.4,13.8,13.8,14.6c34,3.5,68.2,3.5,102.2,0
		c7.4-0.8,13.2-6.9,13.8-14.6c0.4-5.7,0.5-11.3,0.1-16.9C419.1,558.9,419.1,559.7,419,560.6z"/>
	<path id="XMLID_65_" class="st9" d="M286.9,563.5c0.6-7.7,6.6-13.8,14.3-14.6c35.2-3.5,70.7-3.5,105.9,0
		c7.6,0.8,13.7,6.9,14.3,14.6c0.2,1.9,0.2,3.8,0.3,5.7c0.2-4.6,0.1-9.1-0.3-13.7c-0.6-7.7-6.6-13.8-14.3-14.6
		c-35.2-3.5-70.7-3.5-105.9,0c-7.6,0.8-13.7,6.9-14.3,14.6c-0.4,4.6-0.5,9.2-0.3,13.7C286.7,567.3,286.7,565.4,286.9,563.5z"/>
	<path id="XMLID_7_" class="st4" d="M407.1,589.5c-35.2,3.5-70.7,3.5-105.9,0c-7.6-0.8-13.7-6.9-14.3-14.6c-0.5-6.5-0.5-13,0-19.5
		c0.6-7.7,6.6-13.8,14.3-14.6c35.2-3.5,70.7-3.5,105.9,0c7.6,0.8,13.7,6.9,14.3,14.6c0.5,6.5,0.5,13,0,19.5
		C420.7,582.6,414.7,588.8,407.1,589.5z"/>
	<path id="XMLID_56_" class="st7" d="M574.8,589.5c-35.2,3.5-70.7,3.5-105.9,0c-7.6-0.8-13.7-6.9-14.3-14.6c-0.5-6.5-0.5-13,0-19.5
		c0.6-7.7,6.6-13.8,14.3-14.6c35.2-3.5,70.7-3.5,105.9,0c7.6,0.8,13.7,6.9,14.3,14.6c0.5,6.5,0.5,13,0,19.5
		C588.5,582.6,582.5,588.8,574.8,589.5z"/>
	<path id="XMLID_76_" class="st8" d="M585.5,560.6c-0.6,7.7-6.3,13.8-13.5,14.6c-33.3,3.5-66.9,3.5-100.3,0
		c-7.2-0.8-12.9-6.9-13.5-14.6c-0.1-0.8-0.1-1.7-0.1-2.5c-0.3,5.6-0.3,11.3,0.1,16.9c0.6,7.7,6.3,13.8,13.5,14.6
		c33.3,3.5,66.9,3.5,100.3,0c7.2-0.8,12.9-6.9,13.5-14.6c0.4-5.7,0.5-11.3,0.1-16.9C585.6,558.9,585.6,559.7,585.5,560.6z"/>
	<path id="XMLID_85_" class="st9" d="M454.7,563.5c0.6-7.7,6.6-13.8,14.3-14.6c35.2-3.5,70.7-3.5,105.9,0
		c7.6,0.8,13.7,6.9,14.3,14.6c0.2,1.9,0.2,3.8,0.3,5.7c0.2-4.6,0.1-9.1-0.3-13.7c-0.6-7.7-6.6-13.8-14.3-14.6
		c-35.2-3.5-70.7-3.5-105.9,0c-7.6,0.8-13.7,6.9-14.3,14.6c-0.4,4.6-0.5,9.2-0.3,13.7C454.4,567.3,454.5,565.4,454.7,563.5z"/>
	<path id="XMLID_12_" class="st4" d="M574.8,589.5c-35.2,3.5-70.7,3.5-105.9,0c-7.6-0.8-13.7-6.9-14.3-14.6c-0.5-6.5-0.5-13,0-19.5
		c0.6-7.7,6.6-13.8,14.3-14.6c35.2-3.5,70.7-3.5,105.9,0c7.6,0.8,13.7,6.9,14.3,14.6c0.5,6.5,0.5,13,0,19.5
		C588.5,582.6,582.5,588.8,574.8,589.5z"/>
	<path id="XMLID_10_" class="st4" d="M618,614.9c-118.5,24-241.5,24-360,0c0-33.4,0-66.7,0-100.1c0-9.9,8.8-19.8,19.8-21.9
		c105.8-18.9,214.6-18.9,320.4,0c11,2.1,19.8,12,19.8,21.9C618,548.2,618,581.5,618,614.9z"/>
	<path id="XMLID_55_" class="st10" d="M627,622.4H249l0,0c0-17.7,14.3-32,32-32H595C612.7,590.3,627,604.7,627,622.4L627,622.4z"/>
	<rect id="XMLID_75_" x="249" y="606.4" class="st11" width="378" height="16"/>
	<path id="XMLID_2_" class="st4" d="M627,622.4H249l0,0c0-17.7,14.3-32,32-32H595C612.7,590.3,627,604.7,627,622.4L627,622.4z"/>
	<path id="XMLID_50_" class="st12" d="M634,706H242v-75.6c0-4.4,3.6-8,8-8h376c4.4,0,8,3.6,8,8V706z"/>
	<path id="XMLID_63_" class="st13" d="M634,706H242v-75.6c0-4.4,3.6-8,8-8h376c4.4,0,8,3.6,8,8V706z"/>
	<rect id="XMLID_67_" x="242" y="694.3" class="st14" width="392" height="11.7"/>
	<path id="XMLID_70_" class="st6" d="M634,632.9H242v-2.5c0-4.4,3.6-8,8-8h376c4.4,0,8,3.6,8,8V632.9z"/>
	<path id="XMLID_48_" class="st4" d="M634,706H242v-75.6c0-4.4,3.6-8,8-8h376c4.4,0,8,3.6,8,8V706z"/>
	<polygon id="XMLID_17_" class="st4" points="372.3,726 284.6,726 284.6,706 392.5,706 	"/>
	<polygon id="XMLID_20_" class="st4" points="503.7,726 591.4,726 591.4,706 483.5,706 	"/>
</g>
<rect id="XMLID_23_" x="337.3" y="259.8" class="st15" width="110" height="16"/>
<rect id="XMLID_25_" x="337.3" y="259.8" class="st4" width="110" height="16"/>
<rect id="XMLID_24_" x="347" y="176.1" class="st4" width="23.3" height="83.7"/>
<rect id="XMLID_128_" x="347" y="176.1" class="st16" width="23.3" height="83.7"/>
<rect id="XMLID_126_" x="370.3" y="154.7" class="st5" width="23.3" height="105.1"/>
<rect id="XMLID_27_" x="370.3" y="154.7" class="st4" width="23.3" height="105.1"/>
<rect id="XMLID_125_" x="408.4" y="170.9" transform="matrix(0.9286 -0.3712 0.3712 0.9286 -48.983 170.9191)" class="st17" width="22.3" height="83.7"/>
<rect id="XMLID_28_" x="408.4" y="170.9" transform="matrix(0.9286 -0.3712 0.3712 0.9286 -48.983 170.9191)" class="st4" width="22.3" height="83.7"/>
<rect id="XMLID_135_" x="376.5" y="298.7" class="st18" width="102.1" height="101.6"/>
<rect id="XMLID_26_" x="376.5" y="298.7" class="st4" width="102.1" height="101.6"/>
<rect id="XMLID_93_" x="387.7" y="309.5" transform="matrix(-1.836970e-16 1 -1 -1.836970e-16 777.083 -78.0156)" class="st19" width="79.6" height="80.1"/>
<rect id="XMLID_130_" x="497.5" y="225" class="st18" width="77.1" height="101.6"/>
<rect id="XMLID_30_" x="497.5" y="225" class="st4" width="77.1" height="101.6"/>
<rect id="XMLID_97_" x="496.2" y="248.3" transform="matrix(-1.836970e-16 1 -1 -1.836970e-16 811.8096 -260.21)" class="st20" width="79.6" height="55.1"/>
<rect id="XMLID_138_" x="497.5" y="349.5" class="st18" width="105.1" height="78.7"/>
<rect id="XMLID_31_" x="497.5" y="349.5" class="st4" width="105.1" height="78.7"/>
<rect id="XMLID_88_" x="521.7" y="347.3" transform="matrix(-1.836970e-16 1 -1 -1.836970e-16 938.8767 -161.1428)" class="st21" width="56.7" height="83.1"/>
<g>
	<path id="XMLID_69_" class="st18" d="M737.2,336.6l-37.7-37.7c-7.8-7.8-7.8-20.5,0-28.3l37.7-37.7c7.8-7.8,20.5-7.8,28.3,0
		l37.7,37.7c7.8,7.8,7.8,20.5,0,28.3l-37.7,37.7C757.7,344.4,745,344.4,737.2,336.6z"/>
	<path id="XMLID_81_" class="st22" d="M742,242.4c5.2-4.6,13.6-4.6,18.8,0l50,45c-0.1-5-2.1-10-6-13.8l-38.8-37.7
		c-8.1-7.8-21.1-7.8-29.2,0L698,273.6c-3.9,3.8-5.9,8.8-6,13.8L742,242.4z"/>
	<path id="XMLID_29_" class="st4" d="M737.2,336.6l-37.7-37.7c-7.8-7.8-7.8-20.5,0-28.3l37.7-37.7c7.8-7.8,20.5-7.8,28.3,0
		l37.7,37.7c7.8,7.8,7.8,20.5,0,28.3l-37.7,37.7C757.7,344.4,745,344.4,737.2,336.6z"/>
	<line id="XMLID_33_" class="st23" x1="751.3" y1="241.4" x2="751.3" y2="233.5"/>
	<line id="XMLID_34_" class="st23" x1="751.3" y1="336" x2="751.3" y2="328.1"/>
	<line id="XMLID_35_" class="st23" x1="794.7" y1="284.7" x2="802.6" y2="284.7"/>
	<line id="XMLID_32_" class="st23" x1="700.1" y1="284.7" x2="708" y2="284.7"/>
	<line id="XMLID_37_" class="st24" x1="751.3" y1="284.7" x2="738.7" y2="273"/>
	<line id="XMLID_38_" class="st25" x1="770.1" y1="259.9" x2="751.3" y2="286.2"/>
	<circle id="XMLID_36_" class="st1" cx="752.3" cy="284.7" r="6.2"/>
</g>
<g>
	<rect id="XMLID_57_" x="674" y="577.7" class="st26" width="142" height="130"/>
	
		<rect id="XMLID_64_" x="720.6" y="554.4" transform="matrix(-1.836970e-16 1 -1 -1.836970e-16 1358.4182 -131.5842)" class="st12" width="48.8" height="118"/>
	
		<rect id="XMLID_62_" x="720.6" y="613.1" transform="matrix(-1.836970e-16 1 -1 -1.836970e-16 1417.0795 -72.923)" class="st12" width="48.8" height="118"/>
	
		<rect id="XMLID_61_" x="741.3" y="592.4" transform="matrix(-1.836970e-16 1 -1 -1.836970e-16 1396.4335 -93.569)" class="st27" width="7.5" height="118"/>
	<rect id="XMLID_11_" x="674" y="577.7" class="st4" width="142" height="130"/>
	
		<rect id="XMLID_60_" x="741.3" y="533.8" transform="matrix(-1.836970e-16 1 -1 -1.836970e-16 1337.7722 -152.2302)" class="st27" width="7.5" height="118"/>
	
		<rect id="XMLID_16_" x="720.6" y="554.4" transform="matrix(-1.836970e-16 1 -1 -1.836970e-16 1358.4182 -131.5842)" class="st23" width="48.8" height="118"/>
	
		<rect id="XMLID_15_" x="720.6" y="613.1" transform="matrix(-1.836970e-16 1 -1 -1.836970e-16 1417.0795 -72.923)" class="st23" width="48.8" height="118"/>
	<path id="XMLID_14_" class="st28" d="M711.3,496.9v-5.6c0-21.4,16.3-38.7,36.3-38.7h0c20.1,0,36.3,17.3,36.3,38.7v72"/>
	<rect id="XMLID_71_" x="749.5" y="559.7" class="st29" width="49.8" height="18"/>
	<rect id="XMLID_72_" x="749.5" y="559.7" class="st30" width="49.8" height="8.1"/>
	<rect id="XMLID_13_" x="749.5" y="559.7" class="st4" width="49.8" height="18"/>
	<path id="XMLID_73_" class="st31" d="M738.1,527.3c0.9-3.6,1.4-7.5,1.4-11.4c0-20.5-12.6-37.2-28.1-37.2
		c-15.5,0-28.1,16.6-28.1,37.2c0,4,0.5,7.8,1.4,11.4H738.1z"/>
	<path id="XMLID_123_" class="st29" d="M719.4,499c0-7.3-1.7-14.1-4.6-19.9c-1.1-0.2-2.3-0.3-3.5-0.3c-15.5,0-28.1,16.6-28.1,37.2
		c0,4,0.5,7.8,1.4,11.4H709C715.4,520.4,719.4,510.3,719.4,499z"/>
	<path id="XMLID_19_" class="st4" d="M738.1,527.3c0.9-3.6,1.4-7.5,1.4-11.4c0-20.5-12.6-37.2-28.1-37.2
		c-15.5,0-28.1,16.6-28.1,37.2c0,4,0.5,7.8,1.4,11.4H738.1z"/>
	<rect id="XMLID_68_" x="727.7" y="606.4" class="st32" width="34.7" height="14"/>
	<rect id="XMLID_9_" x="727.7" y="606.4" class="st23" width="34.7" height="14"/>
	<rect id="XMLID_66_" x="727.7" y="665.1" class="st32" width="34.7" height="14"/>
	<rect id="XMLID_18_" x="727.7" y="665.1" class="st23" width="34.7" height="14"/>
	<polygon id="XMLID_58_" class="st1" points="714.7,726 686.7,726 686.7,707.7 730.7,707.7 	"/>
	<polygon id="XMLID_46_" class="st4" points="714.7,726 686.7,726 686.7,707.7 730.7,707.7 	"/>
	<polygon id="XMLID_59_" class="st1" points="775.3,726 803.3,726 803.3,707.7 759.3,707.7 	"/>
	<polygon id="XMLID_47_" class="st4" points="775.3,726 803.3,726 803.3,707.7 759.3,707.7 	"/>
	
		<ellipse id="XMLID_74_" transform="matrix(0.4112 -0.9116 0.9116 0.4112 -14.6469 967.1323)" class="st30" cx="741.3" cy="494.9" rx="4.2" ry="3.3"/>
</g>
<line id="XMLID_98_" class="st33" x1="396.5" y1="352.2" x2="423.9" y2="324.9"/>
<line id="XMLID_101_" class="st33" x1="421.1" y1="349.5" x2="445.8" y2="324.9"/>
<line id="XMLID_99_" class="st33" x1="401.9" y1="368.7" x2="412" y2="358.6"/>
<line id="XMLID_100_" class="st33" x1="520.3" y1="272.3" x2="539" y2="253.7"/>
<line id="XMLID_119_" class="st33" x1="548.3" y1="267.8" x2="555.5" y2="260.6"/>
<line id="XMLID_109_" class="st33" x1="517.3" y1="298.7" x2="540.3" y2="275.8"/>
<line id="XMLID_120_" class="st33" x1="533.6" y1="404.6" x2="567.3" y2="370.8"/>
<line id="XMLID_122_" class="st33" x1="528.4" y1="388.9" x2="543.6" y2="373.7"/>
<line id="XMLID_127_" class="st4" x1="401.6" y1="197.9" x2="422.2" y2="189.2"/>
<line id="XMLID_129_" class="st4" x1="370.3" y1="181.2" x2="393.7" y2="181.2"/>
<line id="XMLID_132_" class="st4" x1="347" y1="194.9" x2="370.3" y2="194.9"/>
<g>
	<rect id="XMLID_78_" x="172.1" y="412.2" class="st15" width="110" height="16"/>
	<rect id="XMLID_21_" x="172.1" y="412.2" class="st4" width="110" height="16"/>
	<polyline id="XMLID_39_" class="st25" points="209,219.2 227,233.2 227,299.7 	"/>
	<line id="XMLID_43_" class="st25" x1="236.1" y1="268.4" x2="236.1" y2="301.7"/>
	<line id="XMLID_45_" class="st25" x1="216.7" y1="244" x2="216.7" y2="300"/>
	<path id="XMLID_22_" class="st34" d="M244.6,354.1v-64.9h-35v64.9c0,2.2-1,4.3-2.6,5.8c-6.3,5.7-10.2,14.1-9.9,23.4
		c0.6,15.2,12.8,27.8,28.1,28.8c17.4,1.1,31.9-12.7,31.9-29.9c0-8.9-3.8-16.8-9.9-22.3C245.5,358.4,244.6,356.3,244.6,354.1z"/>
	<g id="XMLID_147_" class="st35">
		<path id="XMLID_149_" class="st34" d="M257.1,364.5c-0.6-1.2-1.3-2.3-2.1-3.4C255.3,362.4,256.1,363.6,257.1,364.5z"/>
		<path id="XMLID_151_" class="st34" d="M207.1,388c-0.4-9.3,3.5-17.7,9.9-23.4c1.7-1.5,2.6-3.6,2.6-5.8v-64.9h28.7v-8h-35v64.9
			c0,2.2-1,4.3-2.6,5.8c-6.3,5.7-10.2,14.1-9.9,23.4c0.3,8.3,4.1,15.8,10,21.1C208.6,397.2,207.3,392.7,207.1,388z"/>
	</g>
	<path id="XMLID_124_" class="st4" d="M244.6,354.1v-64.9h-35v64.9c0,2.2-1,4.3-2.6,5.8c-6.3,5.7-10.2,14.1-9.9,23.4
		c0.6,15.2,12.8,27.8,28.1,28.8c17.4,1.1,31.9-12.7,31.9-29.9c0-8.9-3.8-16.8-9.9-22.3C245.5,358.4,244.6,356.3,244.6,354.1z"/>
	<polyline id="XMLID_40_" class="st25" points="227,250.2 241.5,240.4 241.5,219.2 251.1,209.9 	"/>
	<line id="XMLID_42_" class="st25" x1="241.5" y1="174.1" x2="241.5" y2="219.2"/>
	<line id="XMLID_44_" class="st25" x1="227" y1="183" x2="241.5" y2="194.9"/>
	<path id="XMLID_41_" class="st25" d="M206,259.8l10.6,8.6L206,259.8z"/>
	
		<ellipse id="XMLID_121_" transform="matrix(0.4957 -0.8685 0.8685 0.4957 -220.0906 383.8737)" class="st36" cx="220.5" cy="381.5" rx="5.5" ry="3.9"/>
</g>
<line id="XMLID_3_" class="st37" x1="495.1" y1="774.6" x2="574.3" y2="774.6"/>
<line id="XMLID_1_" class="st37" x1="460.3" y1="774.6" x2="473" y2="774.6"/>
</svg>
