<?xml version="1.0" encoding="utf-8"?>
<!-- Generator: Adobe Illustrator 23.1.1, SVG Export Plug-In . SVG Version: 6.00 Build 0)  -->
<svg version="1.1" id="Layer_1" xmlns="http://www.w3.org/2000/svg" xmlns:xlink="http://www.w3.org/1999/xlink" x="0px" y="0px"
	 viewBox="0 0 1000 1000" style="enable-background:new 0 0 1000 1000;" xml:space="preserve">
<style type="text/css">
	.st0{fill:#FFFFFF;}
	.st1{fill:#9D9FFF;}
	.st2{fill:none;stroke:#000000;stroke-width:12;stroke-linecap:round;stroke-linejoin:round;stroke-miterlimit:10;}
	.st3{filter:url(#Adobe_OpacityMaskFilter);}
	.st4{mask:url(#XMLID_2_);}
	.st5{fill:#EF2020;}
	.st6{fill:#AF1B1B;}
	.st7{fill:#EA7E4E;}
	.st8{fill:#D36B42;}
	.st9{fill:#BFBFBF;}
	.st10{fill:#333333;}
	.st11{fill:#F2973D;}
	.st12{fill:#C67226;}
	.st13{fill:none;stroke:#BFBFBF;stroke-width:12;stroke-miterlimit:10;}
	.st14{fill:none;stroke:#000000;stroke-width:6;stroke-linecap:round;stroke-linejoin:round;stroke-miterlimit:10;}
	.st15{filter:url(#Adobe_OpacityMaskFilter_1_);}
	.st16{mask:url(#XMLID_3_);}
</style>
<rect id="XMLID_244_" x="0" class="st0" width="1000" height="1000"/>
<g>
	<g>
		<g>
			<path d="M63.2,959.2c0,2.5-1.2,3.7-2.6,3.7c-1.1,0-1.9-0.5-2.1-1.4c-0.4,0.5-1,0.8-1.8,0.8c-1.5,0-2.6-1.2-2.6-2.8
				c0-1.6,1.1-2.8,2.6-2.8c0.7,0,1.2,0.3,1.6,0.7v-0.5h1.6v3.9c0,0.8,0.3,1.4,1,1.4c0.9,0,1.7-0.9,1.7-3c0-3-2.3-5.3-5.4-5.3
				c-3.1,0-5.6,2.4-5.6,5.7c0,3.3,2.5,5.7,5.9,5.7c1.1,0,2.1-0.2,2.9-0.4v0.6c-0.8,0.3-1.7,0.4-2.9,0.4c-3.7,0-6.5-2.6-6.5-6.2
				c0-3.4,2.7-6.2,6.2-6.2C61.1,953.3,63.2,956.4,63.2,959.2z M58.3,959.5c0-0.8-0.6-1.4-1.3-1.4c-0.8,0-1.3,0.5-1.3,1.4
				c0,0.8,0.6,1.3,1.3,1.3C57.8,960.9,58.3,960.3,58.3,959.5z"/>
		</g>
		<g>
			<path d="M69.4,955.1v2c-1.2-0.1-2.6,0.5-2.6,2.4v4.3h-1.9v-8.6h1.9v1.4C67.3,955.5,68.3,955.1,69.4,955.1z"/>
		</g>
		<g>
			<path d="M74.6,962.3c1,0,1.8-0.5,2.2-1.1l1.5,0.9c-0.8,1.2-2.1,1.9-3.8,1.9c-2.8,0-4.7-1.9-4.7-4.5c0-2.5,1.8-4.5,4.5-4.5
				c2.6,0,4.3,2.1,4.3,4.5c0,0.3,0,0.5-0.1,0.8h-6.8C72.1,961.6,73.2,962.3,74.6,962.3z M76.9,958.8c-0.3-1.5-1.3-2.1-2.5-2.1
				c-1.4,0-2.3,0.8-2.6,2.1H76.9z"/>
		</g>
		<g>
			<path d="M88.9,955.2v8.6h-1.9v-1.2c-0.7,0.9-1.7,1.5-3,1.5c-2.3,0-4.3-2-4.3-4.5c0-2.6,1.9-4.5,4.3-4.5c1.3,0,2.3,0.5,3,1.4v-1.2
				H88.9z M87.1,959.5c0-1.6-1.2-2.7-2.7-2.7c-1.5,0-2.7,1.1-2.7,2.7c0,1.6,1.2,2.7,2.7,2.7C85.9,962.3,87.1,961.1,87.1,959.5z"/>
		</g>
		<g>
			<path d="M91.1,951.3H93v12.5h-1.9V951.3z"/>
		</g>
		<g>
			<path d="M102.9,955.2l-3.3,8.6h-2.1l-3.3-8.6h2l2.4,6.5l2.4-6.5H102.9z"/>
		</g>
		<g>
			<path d="M104.2,955.2h1.9v8.9c0,2.4-1.2,3.5-3.5,3.3v-1.8c1.1,0.1,1.7-0.3,1.7-1.5V955.2z M104,952.8c0-0.7,0.5-1.2,1.2-1.2
				c0.7,0,1.2,0.5,1.2,1.2c0,0.6-0.5,1.2-1.2,1.2C104.5,954,104,953.4,104,952.8z"/>
		</g>
		<g>
			<path d="M116,955.2l-3.3,8.8c-0.8,2.2-2.2,3.3-4.2,3.2v-1.7c1.2,0.1,1.9-0.5,2.3-1.7l0.1-0.2l-3.6-8.4h2l2.6,6.2l2.2-6.2H116z"/>
		</g>
	</g>
	<g>
		<path d="M211.9,938.7c0,2.1-1.5,3.8-3.6,3.8h-3v-7.6h3C210.4,934.9,211.9,936.6,211.9,938.7z M210.9,938.7c0-1.6-1.1-2.9-2.6-2.9
			h-2v5.7h2C209.8,941.6,210.9,940.3,210.9,938.7z"/>
		<path d="M219.5,940.8h-3.4l-0.6,1.7h-1.1l2.8-7.6h1.1l2.8,7.6h-1.1L219.5,940.8z M219.2,939.9l-1.4-3.8l-1.4,3.8H219.2z"/>
		<path d="M226.4,939.4v3.1h-1v-3.1l-2.7-4.5h1.1l2.1,3.6l2.1-3.6h1.1L226.4,939.4z"/>
		<path d="M241.6,938.8L241.6,938.8l-2.5,3.7H238l1.8-2.7c-0.1,0-0.2,0-0.4,0c-1.5,0-2.6-1-2.6-2.6c0-1.5,1.1-2.6,2.6-2.6
			s2.6,1,2.6,2.6C242.1,937.9,241.9,938.4,241.6,938.8z M239.4,938.9c1,0,1.6-0.6,1.6-1.6s-0.7-1.6-1.6-1.6s-1.6,0.6-1.6,1.6
			C237.8,938.3,238.5,938.9,239.4,938.9z"/>
		<path d="M245.1,938.7c0-2.4,1.1-4,2.9-4c1.9,0,2.9,1.6,2.9,4c0,2.4-1,4-2.9,4C246.2,942.7,245.1,941,245.1,938.7z M250,938.7
			c0-1.9-0.7-3-1.9-3c-1.2,0-1.9,1.1-1.9,3s0.7,3,1.9,3C249.3,941.7,250,940.6,250,938.7z"/>
	</g>
	<g>
		<path d="M58.9,938.7c0,2.1-1.5,3.8-3.6,3.8h-3v-7.6h3C57.4,934.9,58.9,936.6,58.9,938.7z M57.9,938.7c0-1.6-1.1-2.9-2.6-2.9h-2
			v5.7h2C56.8,941.6,57.9,940.3,57.9,938.7z"/>
		<path d="M67,941.6v1h-4.6v-7.6h4.5v1h-3.5v2.3h3.2v0.9h-3.2v2.4H67z"/>
		<path d="M70,940.8l0.9-0.5c0.3,0.8,0.9,1.4,2,1.4c1.1,0,1.6-0.5,1.6-1.2c0-0.8-0.7-1-1.8-1.4c-1.2-0.4-2.4-0.8-2.4-2.2
			c0-1.4,1.1-2.2,2.4-2.2c1.3,0,2.2,0.7,2.6,1.7l-0.8,0.5c-0.3-0.7-0.8-1.2-1.7-1.2c-0.8,0-1.4,0.4-1.4,1.1c0,0.7,0.5,1,1.6,1.3
			c1.3,0.4,2.6,0.8,2.6,2.3c0,1.3-1.1,2.2-2.6,2.2C71.5,942.7,70.4,941.9,70,940.8z"/>
		<path d="M80,934.9v7.6h-1v-7.6H80z"/>
		<path d="M91.3,939.2c0,1.9-1.4,3.5-3.7,3.5c-2.4,0-4-1.8-4-4c0-2.2,1.7-4,4-4c1.4,0,2.7,0.8,3.3,1.8l-0.9,0.5
			c-0.4-0.8-1.4-1.4-2.4-1.4c-1.8,0-3,1.3-3,3c0,1.7,1.2,3,3,3c1.6,0,2.5-0.9,2.7-2h-2.8v-0.9h3.8V939.2z"/>
		<path d="M100.6,934.9v7.6h-0.8l-3.9-5.7v5.7h-1v-7.6h0.8l3.9,5.7v-5.7H100.6z"/>
		<path d="M109.1,941.6v1h-4.6v-7.6h4.5v1h-3.5v2.3h3.2v0.9h-3.2v2.4H109.1z"/>
		<path d="M119.2,938.7c0,2.1-1.5,3.8-3.6,3.8h-3v-7.6h3C117.6,934.9,119.2,936.6,119.2,938.7z M118.2,938.7c0-1.6-1.1-2.9-2.6-2.9
			h-2v5.7h2C117.1,941.6,118.2,940.3,118.2,938.7z"/>
		<path d="M133.2,940.4c0,1.2-1,2.2-2.2,2.2h-3.3v-7.6h3c1.2,0,2.1,0.9,2.1,2.1c0,0.7-0.3,1.2-0.8,1.6
			C132.7,938.9,133.2,939.5,133.2,940.4z M128.7,935.8v2.3h2c0.6,0,1.1-0.5,1.1-1.2c0-0.6-0.5-1.2-1.1-1.2H128.7z M132.2,940.3
			c0-0.7-0.5-1.2-1.2-1.2h-2.3v2.5h2.3C131.7,941.6,132.2,941,132.2,940.3z"/>
		<path d="M139.4,939.4v3.1h-1v-3.1l-2.7-4.5h1.1l2.1,3.6l2.1-3.6h1.1L139.4,939.4z"/>
	</g>
	<g>
		<path d="M204.8,961.5l1.8-1c0.4,1.3,1.4,2.1,3.1,2.1c1.6,0,2.3-0.7,2.3-1.6c0-1.1-1-1.5-2.8-2c-1.9-0.6-3.8-1.3-3.8-3.6
			c0-2.3,1.9-3.6,4-3.6c2,0,3.5,1.1,4.3,2.7l-1.7,1c-0.4-1-1.2-1.7-2.6-1.7c-1.2,0-1.9,0.6-1.9,1.5c0,1,0.7,1.4,2.5,1.9
			c2.1,0.7,4.1,1.3,4.1,3.8c0,2.3-1.8,3.6-4.4,3.6C207.1,964.5,205.5,963.3,204.8,961.5z"/>
		<path d="M224.8,955.4v8.9h-1.9V963c-0.7,0.9-1.7,1.5-3.1,1.5c-2.4,0-4.4-2-4.4-4.7c0-2.6,2-4.7,4.4-4.7c1.4,0,2.4,0.6,3.1,1.5
			v-1.3H224.8z M222.9,959.9c0-1.6-1.2-2.8-2.8-2.8c-1.6,0-2.8,1.2-2.8,2.8c0,1.6,1.2,2.8,2.8,2.8
			C221.7,962.7,222.9,961.5,222.9,959.9z"/>
		<path d="M235.1,958.9v5.4h-1.9v-5.2c0-1.3-0.8-2.1-2-2.1c-1.3,0-2.2,0.7-2.2,2.5v4.7H227v-8.9h1.9v1.1c0.6-0.9,1.5-1.4,2.7-1.4
			C233.6,955.2,235.1,956.6,235.1,958.9z"/>
		<path d="M239.9,957.3v4.2c0,1.1,0.7,1.1,2.2,1v1.7c-2.9,0.4-4.1-0.5-4.1-2.8v-4.2h-1.6v-1.8h1.6v-1.9l1.9-0.6v2.5h2.2v1.8H239.9z"
			/>
		<path d="M252.4,955.4v8.9h-1.9V963c-0.7,0.9-1.7,1.5-3.1,1.5c-2.4,0-4.4-2-4.4-4.7c0-2.6,2-4.7,4.4-4.7c1.4,0,2.4,0.6,3.1,1.5
			v-1.3H252.4z M250.4,959.9c0-1.6-1.2-2.8-2.8-2.8c-1.6,0-2.8,1.2-2.8,2.8c0,1.6,1.2,2.8,2.8,2.8
			C249.2,962.7,250.4,961.5,250.4,959.9z"/>
	</g>
	<g>
		<g>
			<g>
				<path d="M846.1,938.7c0,2.1-1.5,3.8-3.6,3.8h-3v-7.6h3C844.6,934.9,846.1,936.6,846.1,938.7z M845.2,938.7
					c0-1.6-1.1-2.9-2.6-2.9h-2v5.7h2C844.1,941.6,845.2,940.3,845.2,938.7z"/>
			</g>
			<g>
				<path d="M849.3,938.7c0-2.2,1.7-4,3.9-4c2.2,0,4,1.8,4,4c0,2.2-1.7,4-4,4C851,942.7,849.3,940.9,849.3,938.7z M856.1,938.7
					c0-1.7-1.3-3-2.9-3c-1.7,0-2.9,1.3-2.9,3c0,1.7,1.3,3,2.9,3C854.9,941.7,856.1,940.4,856.1,938.7z"/>
			</g>
			<g>
				<path d="M859.8,934.9h1.1l1.7,6.3l1.9-6.3h1l1.9,6.3l1.7-6.3h1.1l-2.2,7.6h-1.2l-1.8-6.1l-1.8,6.1H862L859.8,934.9z"/>
			</g>
			<g>
				<path d="M879.3,934.9v7.6h-0.8l-3.9-5.7v5.7h-1v-7.6h0.8l3.9,5.7v-5.7H879.3z"/>
			</g>
			<g>
				<path d="M887.5,941.6v1h-4.3v-7.6h1v6.7H887.5z"/>
			</g>
			<g>
				<path d="M889.9,938.7c0-2.2,1.7-4,3.9-4c2.2,0,4,1.8,4,4c0,2.2-1.7,4-4,4C891.6,942.7,889.9,940.9,889.9,938.7z M896.8,938.7
					c0-1.7-1.3-3-2.9-3c-1.7,0-2.9,1.3-2.9,3c0,1.7,1.3,3,2.9,3C895.5,941.7,896.8,940.4,896.8,938.7z"/>
			</g>
			<g>
				<path d="M905.4,940.8H902l-0.6,1.7h-1.1l2.8-7.6h1.1l2.8,7.6H906L905.4,940.8z M905.1,939.9l-1.4-3.8l-1.4,3.8H905.1z"/>
			</g>
			<g>
				<path d="M916.9,938.7c0,2.1-1.5,3.8-3.6,3.8h-3v-7.6h3C915.4,934.9,916.9,936.6,916.9,938.7z M915.9,938.7
					c0-1.6-1.1-2.9-2.6-2.9h-2v5.7h2C914.9,941.6,915.9,940.3,915.9,938.7z"/>
			</g>
			<g>
				<path d="M926.5,935.8v2.5h3.2v1h-3.2v3.2h-1v-7.6h4.4v1H926.5z"/>
			</g>
			<g>
				<path d="M936.2,939.6h-1.8v2.9h-1v-7.6h3c1.3,0,2.4,1.1,2.4,2.4c0,1-0.7,1.9-1.6,2.2l1.8,3.1h-1.1L936.2,939.6z M934.4,938.7h2
					c0.8,0,1.4-0.6,1.4-1.4c0-0.8-0.6-1.4-1.4-1.4h-2V938.7z"/>
			</g>
			<g>
				<path d="M941.9,938.7c0-2.2,1.7-4,3.9-4c2.2,0,4,1.8,4,4c0,2.2-1.7,4-4,4C943.6,942.7,941.9,940.9,941.9,938.7z M948.8,938.7
					c0-1.7-1.3-3-2.9-3c-1.7,0-2.9,1.3-2.9,3c0,1.7,1.3,3,2.9,3C947.5,941.7,948.8,940.4,948.8,938.7z"/>
			</g>
			<g>
				<path d="M960.4,942.5h-1v-6l-2.5,4.2h-0.1l-2.5-4.1v5.9h-1v-7.6h1.1l2.4,4l2.4-4h1.1V942.5z"/>
			</g>
		</g>
		<g>
			<g>
				<path d="M839.3,952.9c0-0.7,0.5-1.2,1.2-1.2c0.7,0,1.2,0.5,1.2,1.2c0,0.7-0.5,1.2-1.2,1.2C839.9,954.1,839.3,953.6,839.3,952.9z
					 M839.6,955.4h1.9v8.9h-1.9V955.4z"/>
			</g>
			<g>
				<path d="M843.7,951.4h1.9v12.9h-1.9V951.4z"/>
			</g>
			<g>
				<path d="M847.8,951.4h1.9v12.9h-1.9V951.4z"/>
			</g>
			<g>
				<path d="M852,951.4h1.9v12.9H852V951.4z"/>
			</g>
			<g>
				<path d="M864,955.4v8.9h-1.9v-1.1c-0.6,0.9-1.5,1.4-2.7,1.4c-2,0-3.4-1.3-3.4-3.6v-5.4h1.9v5.2c0,1.3,0.8,2.1,2,2.1
					c1.3,0,2.2-0.7,2.2-2.5v-4.7H864z"/>
			</g>
			<g>
				<path d="M872.6,961.8c0,1.8-1.5,2.7-3.5,2.7c-1.8,0-3-0.8-3.6-2.1l1.6-1c0.3,0.8,1,1.3,2,1.3c0.8,0,1.5-0.3,1.5-1
					c0-1.6-4.8-0.7-4.8-3.9c0-1.7,1.4-2.7,3.2-2.7c1.5,0,2.7,0.7,3.3,1.8l-1.6,0.9c-0.3-0.7-0.9-1-1.7-1c-0.7,0-1.3,0.3-1.3,0.9
					C867.9,959.5,872.6,958.5,872.6,961.8z"/>
			</g>
			<g>
				<path d="M876.7,957.3v4.2c0,1.1,0.7,1.1,2.2,1v1.7c-2.9,0.4-4.1-0.5-4.1-2.8v-4.2h-1.6v-1.8h1.6v-1.9l1.9-0.6v2.5h2.2v1.8H876.7
					z"/>
			</g>
			<g>
				<path d="M885.4,955.3v2.1c-1.3-0.1-2.7,0.5-2.7,2.5v4.5h-1.9v-8.9h1.9v1.5C883.2,955.7,884.2,955.3,885.4,955.3z"/>
			</g>
			<g>
				<path d="M895.3,955.4v8.9h-1.9V963c-0.7,0.9-1.7,1.5-3.1,1.5c-2.4,0-4.4-2-4.4-4.7c0-2.6,2-4.7,4.4-4.7c1.4,0,2.4,0.6,3.1,1.5
					v-1.3H895.3z M893.4,959.9c0-1.6-1.2-2.8-2.8-2.8c-1.6,0-2.8,1.2-2.8,2.8c0,1.6,1.2,2.8,2.8,2.8
					C892.2,962.7,893.4,961.5,893.4,959.9z"/>
			</g>
			<g>
				<path d="M900.3,957.3v4.2c0,1.1,0.7,1.1,2.2,1v1.7c-2.9,0.4-4.1-0.5-4.1-2.8v-4.2h-1.6v-1.8h1.6v-1.9l1.9-0.6v2.5h2.2v1.8H900.3
					z"/>
			</g>
			<g>
				<path d="M903.9,952.9c0-0.7,0.5-1.2,1.2-1.2c0.7,0,1.2,0.5,1.2,1.2c0,0.7-0.5,1.2-1.2,1.2C904.5,954.1,903.9,953.6,903.9,952.9z
					 M904.2,955.4h1.9v8.9h-1.9V955.4z"/>
			</g>
			<g>
				<path d="M907.8,959.9c0-2.6,2.1-4.7,4.7-4.7c2.6,0,4.7,2,4.7,4.7c0,2.6-2.1,4.7-4.7,4.7C909.9,964.5,907.8,962.5,907.8,959.9z
					 M915.3,959.9c0-1.6-1.2-2.8-2.8-2.8c-1.6,0-2.8,1.2-2.8,2.8c0,1.6,1.2,2.8,2.8,2.8C914.1,962.7,915.3,961.5,915.3,959.9z"/>
			</g>
			<g>
				<path d="M927,958.9v5.4h-1.9v-5.2c0-1.3-0.8-2.1-2-2.1c-1.3,0-2.2,0.7-2.2,2.5v4.7h-1.9v-8.9h1.9v1.1c0.6-0.9,1.5-1.4,2.7-1.4
					C925.5,955.2,927,956.6,927,958.9z"/>
			</g>
			<g>
				<path d="M935.5,961.8c0,1.8-1.5,2.7-3.5,2.7c-1.8,0-3-0.8-3.6-2.1l1.6-1c0.3,0.8,1,1.3,2,1.3c0.8,0,1.5-0.3,1.5-1
					c0-1.6-4.8-0.7-4.8-3.9c0-1.7,1.4-2.7,3.2-2.7c1.5,0,2.7,0.7,3.3,1.8l-1.6,0.9c-0.3-0.7-0.9-1-1.7-1c-0.7,0-1.3,0.3-1.3,0.9
					C930.7,959.5,935.5,958.5,935.5,961.8z"/>
			</g>
			<g>
				<path d="M936.8,963.2c0-0.7,0.6-1.3,1.3-1.3c0.7,0,1.3,0.6,1.3,1.3c0,0.7-0.6,1.3-1.3,1.3C937.4,964.5,936.8,963.9,936.8,963.2z
					"/>
			</g>
			<g>
				<path d="M940.3,959.9c0-2.6,2-4.7,4.7-4.7c1.7,0,3.2,0.9,3.9,2.3l-1.6,1c-0.4-0.8-1.3-1.4-2.3-1.4c-1.6,0-2.7,1.2-2.7,2.8
					c0,1.6,1.2,2.8,2.7,2.8c1.1,0,1.9-0.5,2.4-1.4l1.6,0.9c-0.7,1.4-2.2,2.3-4,2.3C942.3,964.5,940.3,962.5,940.3,959.9z"/>
			</g>
			<g>
				<path d="M949.7,959.9c0-2.6,2.1-4.7,4.7-4.7c2.6,0,4.7,2,4.7,4.7c0,2.6-2.1,4.7-4.7,4.7C951.8,964.5,949.7,962.5,949.7,959.9z
					 M957.2,959.9c0-1.6-1.2-2.8-2.8-2.8s-2.8,1.2-2.8,2.8c0,1.6,1.2,2.8,2.8,2.8S957.2,961.5,957.2,959.9z"/>
			</g>
		</g>
	</g>
</g>
<g id="XMLID_243_">
	<circle id="XMLID_178_" class="st1" cx="510.3" cy="509.3" r="258.6"/>
	<circle id="XMLID_173_" class="st2" cx="510.3" cy="509.3" r="258.6"/>
	<defs>
		<filter id="Adobe_OpacityMaskFilter" filterUnits="userSpaceOnUse" x="249.7" y="201.9" width="506.6" height="593.5">
			<feColorMatrix  type="matrix" values="1 0 0 0 0  0 1 0 0 0  0 0 1 0 0  0 0 0 1 0"/>
		</filter>
	</defs>
	<mask maskUnits="userSpaceOnUse" x="249.7" y="201.9" width="506.6" height="593.5" id="XMLID_2_">
		<g id="XMLID_177_" class="st3">
			<path id="XMLID_174_" class="st0" d="M768.9,509.3c0,142.8-115.8,258.6-258.6,258.6S251.7,652.1,251.7,509.3
				S421,176.3,563.8,176.3S768.9,366.5,768.9,509.3z"/>
		</g>
	</mask>
	<g id="XMLID_176_" class="st4">
		<g id="XMLID_172_">
			<ellipse id="XMLID_206_" class="st5" cx="506.1" cy="593" rx="184.4" ry="196.4"/>
			<path id="XMLID_205_" class="st6" d="M597.3,422.3c40.9,36,66.9,90.4,66.9,151.4c0,108.4-82.6,196.4-184.4,196.4
				c-33.2,0-64.3-9.3-91.2-25.7c31.9,28.1,72.8,45,117.5,45c101.8,0,184.4-87.9,184.4-196.4C690.5,519.9,653,456.1,597.3,422.3z"/>
			<path id="XMLID_204_" class="st6" d="M655.5,498c-0.4-5.7-1.3-11.4-2.6-17c-32.2-48-83.7-79-141.7-79
				c-59.8,0-112.6,33-144.5,83.4c-0.8,4.1-1.3,8.3-1.7,12.5c-1.8,24.1,4.6,45.6,18,60.4c19.9,22.8,43,39.3,63.3,53.9
				c20.7,14.8,40.3,28.8,52.5,46.6l11.4,16.6l11.4-16.6c12.2-17.8,31.8-31.8,52.5-46.6c20.4-14.6,43.4-31.1,63.3-53.9
				C650.9,543.4,657.3,522,655.5,498z"/>
			<ellipse id="XMLID_203_" class="st2" cx="506.1" cy="593" rx="184.4" ry="196.4"/>
			<path id="XMLID_202_" class="st5" d="M421.1,307.5c0-21.5,32.2-100.7,119.5-99.6c61,0.8,100.1,51.9,103.5,73.6
				c-37-8.3-47.3,27.7-47.3,27.7S510.6,289.6,421.1,307.5z"/>
			<path id="XMLID_201_" class="st6" d="M510.2,300.1c50.1,0.9,86.6,9.2,86.6,9.2s10.3-36,47.3-27.7c-0.5-3.2-1.8-7-3.8-11.3
				c-12-5-25.6-8.2-40.4-8.3C558.3,261.4,529.3,279.1,510.2,300.1z"/>
			<path id="XMLID_200_" class="st2" d="M421.1,307.5c0-21.5,32.2-100.7,119.5-99.6c61,0.8,100.1,51.9,103.5,73.6
				c-37-8.3-47.3,27.7-47.3,27.7S510.6,289.6,421.1,307.5z"/>
			<circle id="XMLID_199_" class="st7" cx="596.8" cy="363.3" r="23.5"/>
			<circle id="XMLID_198_" class="st8" cx="596.8" cy="363.3" r="23.5"/>
			<circle id="XMLID_197_" class="st2" cx="596.8" cy="363.3" r="23.5"/>
			<circle id="XMLID_196_" class="st7" cx="413.4" cy="363.3" r="23.5"/>
			<circle id="XMLID_195_" class="st2" cx="413.4" cy="363.3" r="23.5"/>
			<g id="XMLID_191_">
				<path id="XMLID_194_" class="st7" d="M591.9,362.2c0,64.6-34,124.3-86.8,124.3s-86.8-59.7-86.8-124.3s34-71.9,86.8-71.9
					S591.9,297.6,591.9,362.2z"/>
				<path id="XMLID_193_" class="st8" d="M505.1,290.2c-44.6,0-75.8,5.2-84.4,45.8c1.1-0.1,2.3-0.3,3.5-0.6c0.5,0,0.9,0.1,1.4,0.1
					c0.7,0,1.4-0.1,2.1-0.2c0.2,0,0.4,0,0.6,0c0.6,0,1.2,0,1.8,0l0.3,0c1,0.2,2.4,0.4,4.1,0.4c3,0,5.8-0.8,8.3-2.3l0,0
					c0.7,0,1.7-0.1,2.8-0.2l5.9-0.6l0.2-0.2c1.3-0.1,2.5-0.3,3.7-0.8c0.7,0.1,1.4,0.2,2.2,0.2h0c2.2,0,4.3-0.5,6.3-1.5
					c0.5,0.1,1,0.1,1.6,0.2l5.8,0.3l0.8-0.9l1.7-0.1c1.8-0.1,3.2-0.3,4.4-0.6l0.6,0.2l2.6-0.2c1.2-0.1,2.4-0.1,3.5-0.2l1.6-0.1
					c0.3,0,0.6,0,1,0c0.8,0,1.6-0.1,2.4-0.2l2.6-0.1l0,0c0.6,0.1,1.2,0.1,1.9,0.1c0.9,0,1.9-0.1,2.7-0.2l1.5-0.2
					c1,0.1,2.3,0.3,3.8,0.3l5.1,0c0.5,0.1,1.1,0.1,1.6,0.1c1.2,0,2.4-0.2,3.6-0.4l0.3-0.1c1.8,0.6,3.7,0.9,5.7,0.9
					c1,0,1.9-0.1,2.5-0.1c1,0,2.1,0.1,3.1,0.1l2.2,0.1l1.2-0.4l0.9,0.7l4.1,0.1c2.5,0.1,4.4,0.2,6,0.5c2.4,0.5,4.5,0.6,6.3,0.7
					c0.9,0.1,1.7,0.1,2.4,0.2l0.2,0c0.5,0.1,0.9,0.1,1.4,0.1l9.9,5.2l1.6-3.6l0.5,0.1l3.3,3.8l4.2-2.1c1,0.2,2,0.4,3.2,0.4
					c0.3,0,0.5,0,0.8,0c0.4,0.2-1.4-0.9-0.8,0c3.8,5.3,6.5,11.5,6.7,18.1c0.4,12.3-4.2,21.1-9,23.9c-5.6,3.2-20.3,3.1-29.1,1.7
					c14.1,13.2,40.4,18.2,45.3,14.8c8-5.5,6.5-25.4,5.4-44.9C582.4,308.8,549.4,290.2,505.1,290.2z"/>
				<path id="XMLID_192_" class="st2" d="M591.9,362.2c0,64.6-34,124.3-86.8,124.3s-86.8-59.7-86.8-124.3s34-71.9,86.8-71.9
					S591.9,297.6,591.9,362.2z"/>
			</g>
			<g id="XMLID_185_">
				<path id="XMLID_188_" class="st0" d="M572.9,322c-44.8-7.8-90.9-7.8-135.7,0c-12.2,2.1-26.9,0.4-30.4-10c-0.6-2,17.5-15,30-19.7
					c45-16.8,91.4-16.8,136.5,0c12.5,4.7,30.7,17.7,30,19.7C599.8,322.3,585.1,324.1,572.9,322z"/>
				<path id="XMLID_187_" class="st9" d="M586.9,299.9c-3.6-2.5-8.6-0.3-9.2,4.1c-0.3,2.3-1.1,4.1-4.8,3.4
					c-44.8-7.8-99.3-10.4-147.4,3.9c-7.7,2.3-5.3-2.8-11.6-6.1c-4.4,3.2-7.4,6-7.1,6.8c3.5,10.3,18.2,12.1,30.4,10
					c44.8-7.8,90.9-7.8,135.7,0c12.2,2.1,26.9,0.4,30.4-10C603.5,311.4,593.7,304.6,586.9,299.9z"/>
				<path id="XMLID_186_" class="st2" d="M572.9,322c-1.8,1.3-3.5-1.8-5.3-0.9c-1.8-2-3.5-2.4-5.3-0.8c-1.8-0.3-3.5-2-5.3-0.7
					c-1.3,0.1-2.7-3.5-4-0.5c-1.3-0.7-2.7-0.3-4-0.5c-2.7-0.3-5.3-0.3-8-0.8c-2.7-0.4-5.3-0.6-8-0.7c-2.7-2-5.3-1.3-8-0.5
					c-1.3-0.1-2.7-0.1-4-0.2c-1.3,0.1-2.7,0.4-4-0.1c-2.4-2-4.9-2.6-7.3-0.2c-2.4,0.6-4.9-3.5-7.3,0c-2.4,0-4.9-0.9-7.3,0.1
					c-2.4,0.4-4.9-1.3-7.3,0.2c-1.2,0.7-2.4-2.5-3.6,0.2c-1.2,0.1-2.4,0.1-3.6,0.2c-2.4-0.9-4.9,0.4-7.3,0.5
					c-2.4-1.9-4.8-1.9-7.3,0.7c-2.4-0.1-4.8-3.7-7.2,0.8c-2.4,2.1-4.8-3.6-7.2,0.9c-2.4,1.1-4.8-2.5-7.2,1.1
					c-2.4,0.2-4.8-0.1-7.2,1.2c-2.4,2.5-5,0.2-7.5,0.8c-1.3,0-2.5,0-3.8,0c-1.2,1.5-2.5-5-3.7-0.4c-2.4,2.2-4.7,1.3-6.7-1.8
					c-2.1,0.2-3.9-0.2-5.4-3.4c-1.5,0.3-2.6-3.2-3.3-5.2c-0.1-1.1,0.5-0.8,1.7-2.4c1.2-2,2.9-2.6,5-4.1c2.1-4,4.6-4.8,7.2-4.9
					c1.3-1.8,2.7-1.6,4-2.4c1.4-0.8,2.8-1.6,4.1-2.3c2.8-3.7,5.5-2.2,8-3.6c2.5,1,5,2.9,7.5-2.6c2.5,0.4,5-5.1,7.5-2.3
					c2.5,3.3,5-3.3,7.6-2c2.5,0.4,5-5.2,7.6-1.7c2.5,3.9,5.1-2.4,7.6-1.4c2.5-5.8,5.1-1,7.6-1.1c2.5,3.4,5.1-5.2,7.6-0.8
					c2.5-3.2,5.1-2,7.6-0.5c2.5,2.9,5.1-2.7,7.6-0.2c2.5,3.7,5.1,1.2,7.6,0.2c2.5-1.9,5.1-0.9,7.6,0.5c2.5-1.7,5.1,4,7.6,0.8
					c2.5,0.7,5.1-0.8,7.6,1.1c2.5,1.8,5.1,0.8,7.6,1.4c2.5,1.4,5.1,3,7.6,1.7c2.5-1.3,5,1.1,7.6,2c2.5-0.4,5,5.9,7.5,2.3
					c2.5-2.6,5,1.5,7.5,2.6c2.5-1.8,5.2,1.8,8,3.6c2.8,5.2,5.5,4,8.2,4.7c2.6,2,5.1,6.2,7.2,4.9c2.1,1.5,3.8,3,5,4.1
					c1.2,1.1,1.8,2,1.7,2.4c-0.7,2.1-1.9,3.8-3.3,5.2c-1.5,1.4-3.3,2.5-5.4,3.4c-2.1-0.6-4.3,2.3-6.7,1.8c-2.4-0.8-4.9,4.1-7.5,0.4
					C577.9,325.8,575.4,319.7,572.9,322z"/>
			</g>
			<path id="XMLID_184_" class="st0" d="M684.5,296c0-0.4-0.1,4.5-0.3,4.2c-0.2-0.2-0.5,2.5-0.9,3c-0.4-4.8-0.8,4.1-1.4,2.5
				c-0.5,1.9-1.2,5.8-1.9,3.8c-0.7,1-1.5-0.2-2.3,2.5c-0.8,0.2-1.7,3.6-2.7,2.4c-0.9-2-1.9,2.5-3,1.9c-1,0.1-2.1,0.1-3.3,1.4
				c-1.1-0.8-2.3,2.3-3.5,0.9c-1.2,0.2-2.4,0.3-3.7,0.3c-2.5-2.8-4.9-1-7.2-1.2c-2.3,0.1-4.4-1.4-6.3-3.2c-1.9-3.5-3.6-4.5-4.9-4.9
				c-0.7,0.4-1.3-0.9-1.9-2.4c-0.5-2-1,0.3-1.4-3.8c-0.4-4.4-0.7,1.3-0.9-3.3c-0.2-0.9-0.3-1.8-0.3-3.9c0,0.2,0.1,0.4,0.3-3.8
				c0.2,3.3,0.5-2.1,0.9-3.4c0.4,4,0.8-7.3,1.4-3.3c0.5-0.4,1.2-5.6,1.9-3c0.7,2.6,1.5-0.4,2.3-2.7c0.8-1.4,1.7-3.2,2.7-2.3
				c0.9-3.4,1.9,1.4,3-1.9c1,0.7,2.1-0.6,3.3-1.4c1.1-0.6,2.3-1.8,3.5-1c1.2,2.5,2.4,3.8,3.7-0.2c1.3-2.4,2.5-0.1,3.7-0.3
				c1.2,2.6,2.4-1.1,3.5,1.5c1.1,0.3,2.2,1.3,3.3,0.7c1,1,2,0.7,3,2.5c0.9,3.5,1.8,6.5,2.7,2.3c0.8,3.5,1.6,3.4,2.3,2.7
				c0.9,3.1,1.7,0.3,2.4,4c0.3,1.3,0.6,1.6,0.9,2.1c0.3,0.4,0.5,0.9,0.6,2.4c0.2-1.1,0.3,2.6,0.4,3
				C684.4,293.1,684.5,299.8,684.5,296z"/>
			<g id="XMLID_181_">
				<path id="XMLID_183_" class="st9" d="M684.3,294.1c-0.1-0.4-0.2-4.1-0.4-3c-0.2-1.5-0.4-2-0.6-2.4c-0.3-0.4-0.5-0.8-0.9-2.1
					c-0.7-3.7-1.4-0.9-2.4-4c-0.7,0.7-1.5,0.8-2.3-2.7c-0.8,4.2-1.7,1.3-2.7-2.3c-0.9-1.8-1.9-1.6-3-2.5c-0.3,0.2-0.7,0.2-1,0.2
					c0.2,0.4,0.4,0.9,0.6,2.3c0.2-1.1,0.3,2.6,0.4,3c0.1-0.6,0.1,1.5,0.1,2.6c0-0.5,0-0.8,0-0.6c0,1.6,0,1.4,0,0.6
					c0,1.2-0.1,3.8-0.3,3.6c-0.2-0.2-0.5,2.5-0.9,3c-0.4-4.8-0.8,4.1-1.4,2.5c-0.5,1.9-1.2,5.8-1.9,3.8c-0.7,1-1.5-0.2-2.3,2.5
					c-0.8,0.2-1.7,3.6-2.7,2.4c-0.9-2-1.9,2.5-3,1.9c-1,0.1-2.1,0.1-3.3,1.4c-1.1-0.8-2.3,2.3-3.5,0.9c-1.2,0.2-2.4,0.3-3.7,0.3
					c-2.5-2.8-4.9-1-7.2-1.2c-0.7,0-1.4-0.1-2.1-0.4c0.4,3.4,0.8,1.4,1.3,3.3c0.5,1.5,1.2,2.8,1.9,2.4c1.4,0.4,3,1.4,4.9,4.9
					c1.9,1.9,4,3.3,6.3,3.2c2.3,0.2,4.7-1.7,7.2,1.2c1.3,0,2.5-0.1,3.7-0.3c1.2,1.4,2.4-1.7,3.5-0.9c1.1-1.3,2.2-1.3,3.3-1.4
					c1,0.7,2-3.9,3-1.9c0.9,1.1,1.8-2.2,2.7-2.4c0.8-2.7,1.6-1.4,2.3-2.5c0.7,2,1.3-1.9,1.9-3.8c0.5,1.6,1-7.3,1.4-2.5
					c0.4-0.5,0.7-3.2,0.9-3c0.1,0.2,0.2-2.3,0.3-3.6C684.4,295.6,684.4,293.5,684.3,294.1z"/>
				<path id="XMLID_182_" class="st9" d="M684.5,296c0-0.1,0,0.2,0,0.6C684.5,297.4,684.5,297.6,684.5,296z"/>
			</g>
			<path id="XMLID_180_" class="st2" d="M684.5,296c0-0.4-0.1,4.5-0.3,4.2c-0.2-0.2-0.5,2.5-0.9,3c-0.4-4.8-0.8,4.1-1.4,2.5
				c-0.5,1.9-1.2,5.8-1.9,3.8c-0.7,1-1.5-0.2-2.3,2.5c-0.8,0.2-1.7,3.6-2.7,2.4c-0.9-2-1.9,2.5-3,1.9c-1,0.1-2.1,0.1-3.3,1.4
				c-1.1-0.8-2.3,2.3-3.5,0.9c-1.2,0.2-2.4,0.3-3.7,0.3c-2.5-2.8-4.9-1-7.2-1.2c-2.3,0.1-4.4-1.4-6.3-3.2c-1.9-3.5-3.6-4.5-4.9-4.9
				c-0.7,0.4-1.3-0.9-1.9-2.4c-0.5-2-1,0.3-1.4-3.8c-0.4-4.4-0.7,1.3-0.9-3.3c-0.2-0.9-0.3-1.8-0.3-3.9c0,0.2,0.1,0.4,0.3-3.8
				c0.2,3.3,0.5-2.1,0.9-3.4c0.4,4,0.8-7.3,1.4-3.3c0.5-0.4,1.2-5.6,1.9-3c0.7,2.6,1.5-0.4,2.3-2.7c0.8-1.4,1.7-3.2,2.7-2.3
				c0.9-3.4,1.9,1.4,3-1.9c1,0.7,2.1-0.6,3.3-1.4c1.1-0.6,2.3-1.8,3.5-1c1.2,2.5,2.4,3.8,3.7-0.2c1.3-2.4,2.5-0.1,3.7-0.3
				c1.2,2.6,2.4-1.1,3.5,1.5c1.1,0.3,2.2,1.3,3.3,0.7c1,1,2,0.7,3,2.5c0.9,3.5,1.8,6.5,2.7,2.3c0.8,3.5,1.6,3.4,2.3,2.7
				c0.9,3.1,1.7,0.3,2.4,4c0.3,1.3,0.6,1.6,0.9,2.1c0.3,0.4,0.5,0.9,0.6,2.4c0.2-1.1,0.3,2.6,0.4,3
				C684.4,293.1,684.5,299.8,684.5,296z"/>
			<path id="XMLID_171_" class="st10" d="M348.8,695.4c6.2,10.7,13.3,20.7,21.2,30c39.4,13.1,86.4,20.6,136.7,20.6
				c49.7,0,96.1-7.4,135.2-20.1c7.9-9.2,15-19.2,21.2-29.8c-43.3,19-98.2,29.4-156.4,29.4C447.8,725.5,392.3,714.9,348.8,695.4z"/>
			<path id="XMLID_170_" class="st2" d="M348.8,695.4c6.2,10.7,13.3,20.7,21.2,30c39.4,13.1,86.4,20.6,136.7,20.6
				c49.7,0,96.1-7.4,135.2-20.1c7.9-9.2,15-19.2,21.2-29.8c-43.3,19-98.2,29.4-156.4,29.4C447.8,725.5,392.3,714.9,348.8,695.4z"/>
			<rect id="XMLID_169_" x="484.1" y="712.9" class="st11" width="47.8" height="44.3"/>
			<path id="XMLID_168_" class="st12" d="M517.3,712.9V730c0,8.3-6.7,15-15,15h-18.2v12.2h47.8v-44.3H517.3z"/>
			<rect id="XMLID_167_" x="484.1" y="712.9" class="st2" width="47.8" height="44.3"/>
			<ellipse id="XMLID_166_" cx="507.1" cy="672.4" rx="7.6" ry="8.2"/>
			<ellipse id="XMLID_165_" class="st10" cx="507.1" cy="672.4" rx="7.6" ry="8.2"/>
			<ellipse id="XMLID_164_" class="st2" cx="507.1" cy="672.4" rx="7.6" ry="8.2"/>
			<g id="XMLID_133_">
				<path id="XMLID_163_" class="st2" d="M348,689.1c-12.9-27.2-20.2-58.1-20.2-90.9c0-81.4,44.9-151.2,109-181
					c-31.1,10.4-59.5,27.8-83.3,51.5c-40.1,39.9-62.1,92.7-62.1,148.8c0,35.7,9,70.1,25.8,100.7C327.4,708.6,338.5,698.2,348,689.1z
					"/>
				<path id="XMLID_162_" class="st5" d="M355.3,703c-17.4-30.3-27.5-66.2-27.5-104.8c0-81.4,44.9-151.2,109-181
					c-31.1,10.4-59.5,27.8-83.3,51.5c-40.1,39.9-62.1,92.7-62.1,148.8c0,40.4,11.4,79.1,32.7,112.4L355.3,703z"/>
				<path id="XMLID_161_" class="st5" d="M355.3,703c-17.4-30.3-27.5-66.2-27.5-104.8c0-81.4,44.9-151.2,109-181
					c-31.1,10.4-59.5,27.8-83.3,51.5c-40.1,39.9-62.1,92.7-62.1,148.8c0,40.4,11.4,79.1,32.7,112.4L355.3,703z"/>
				<g id="XMLID_141_">
					<path id="XMLID_160_" class="st6" d="M436.8,417.3c-15,5-29.5,11.7-43,20c8.5-4.3,17.3-7.9,26.3-11
						C425.5,423,431,420,436.8,417.3z"/>
					<path id="XMLID_142_" class="st6" d="M418.7,427.1c-62.6,30.5-106.2,99.5-106.2,179.6c0,38.5,10.1,74.5,27.5,104.8L322.1,727
						c0.6,1,1.3,2.1,1.9,3.1l31.2-27c-17.4-30.3-27.5-66.2-27.5-104.8C327.8,524.8,364.5,460.8,418.7,427.1z"/>
				</g>
				<path id="XMLID_140_" class="st2" d="M355.3,703c-17.4-30.3-27.5-66.2-27.5-104.8c0-81.4,44.9-151.2,109-181
					c-31.1,10.4-59.5,27.8-83.3,51.5c-40.1,39.9-62.1,92.7-62.1,148.8c0,40.4,11.4,79.1,32.7,112.4L355.3,703z"/>
				<path id="XMLID_139_" class="st0" d="M335.9,729.4c0,0,0.3,13,10.9,31.5s56.9-2.9,52.9-28.5c-3.9-25.6-48.5-12.8-48.4-23.2
					S335.9,729.4,335.9,729.4z"/>
				<path id="XMLID_138_" class="st7" d="M335.9,729.4c0,0,0.3,13,10.9,31.5s56.9-2.9,52.9-28.5c-3.9-25.6-48.5-12.8-48.4-23.2
					S335.9,729.4,335.9,729.4z"/>
				<path id="XMLID_137_" class="st8" d="M344.6,726.8c-0.1,10.5,44.4-2.4,48.4,23.2c0.1,0.7,0.2,1.4,0.2,2.1
					c4.9-5.7,7.7-12.5,6.6-19.7c-3.9-25.6-48.5-12.8-48.4-23.2c0.1-10.5-15.5,20.2-15.5,20.2s0,1.5,0.5,4.3
					C340.5,727,344.7,721.3,344.6,726.8z"/>
				<path id="XMLID_136_" class="st2" d="M335.9,729.4c0,0,0.3,13,10.9,31.5s56.9-2.9,52.9-28.5c-3.9-25.6-48.5-12.8-48.4-23.2
					S335.9,729.4,335.9,729.4z"/>
				<path id="XMLID_135_" class="st0" d="M363.9,692.9c0-0.1-0.1-0.1-0.1-0.2c-2.4-4.5-7.2-6.6-11.7-6c-2.3,0.3-4.5,1.3-6.3,3
					c0,0-0.9-0.3-2.3,2.2c-1.5,3.7-3.5,3.1-5.8,5.4c-2.3,6.7-4.9-0.9-7.6,7.1c-2.6,3.7-5.2,6.6-7.6,7.1c-2.3,1-4.4,1.6-5.8,5.4
					c-1.5,3.2-2.3,3-2.3,2.2c-1.4,1.3-2.4,2.9-3.1,4.7c-1.3,3.5-1,7.5,1.1,10.8c0.6,1,1.2,1.9,1.8,2.9c1.4,2.1,3.3,3.7,5.4,4.5
					c2.1,0.9,4.4,1.1,6.7,0.6c2.2-0.2,4.4-6.6,6.1-3.4c1.6-4,3.3,0.2,5-5.3c1.7-1.5,3.4,0.7,5.1-5.4c1.7-4.7,3.4-13.2,5.1-5.4
					c1.7-9,3.4-3.4,5-5.4c1.7-0.5,3.3-6.7,4.9-5.3c1.6-2.8,3.2-3.4,4.7-5.1C365.7,703.4,366.4,697.5,363.9,692.9z"/>
				<path id="XMLID_134_" class="st2" d="M363.9,692.9c0,0.1-0.1,3.4-0.1-0.2c-1.2-0.7-3-3.7-5.1-4.9c-2-2-4.4-1.2-6.6-1.1
					c-2.3,0.9-4.5,1-6.3,3c0-0.9-0.9-0.9-2.3,2.2c-0.7,3.1-1.6,1.8-2.6,3c-1,1.7-2.1-1-3.2,2.4c-0.6-1.5-1.2-0.1-1.8,1.8
					s-1.2,4.9-1.9,4.2c-0.6,1.7-1.3,2.1-1.9,2.4c-0.6,0.4-1.3,0.6-2-1.3c-1.3,0.4-2.6,0-3.9,0.6c-1.3,0.6-2.5,2.2-3.7,6.5
					c-1.2,2.2-2.3,3-3.2,3.5c-1,0.5-1.9,0.8-2.6,1.9c-1.5,1.9-2.3,3-2.3,2.2c-0.7,0.3-1.3,1.2-1.8,2.5c-0.5-0.9-0.9,5.9-1.3,2.2
					c-0.3,0.8-0.5,3.9-0.7,2.8c-0.1,1.2-0.1,2.2,0,2.6c0.1,2.2,0.3,3.6,0.6,2.1c0.3,4.5,0.7-2.6,1.2,3.2c0.3,0.4,0.6,0.2,0.9,0.1
					c0.3,2.4,0.6,1.6,0.9,2.8c0.7-1.4,1.5-6.2,2.4,0.3c0.5,2.5,0.9,1.4,1.4,0.7c0.5,1.8,1,1.8,1.5,3.5c1.1,0.9,2.2,0.7,3.3,0.3
					c1.1-1.5,2.3-1.4,3.4,0.3c1.1,1.2,2.2-1.9,3.2-1.4c1-0.9,2-3.3,2.9-2c0.5,0.9,1.1-3.1,1.6-1.8c0.6,2.2,1.1-2.5,1.7-1.8
					c0.6,1.7,1.1-0.7,1.7-1.9c0.6-0.2,1.1-2.7,1.7-1.7c0.6,2.2,1.1-1,1.7-0.9c0.6-2,1.1-2.5,1.7-2.7c0.8,4.2,1.7-1.9,2.5-2.8
					c0.8-1,1.7-2.2,2.5-2.6c0.4,1.9,0.8,1.1,1.3-0.1s0.8-3.1,1.3-3.2c0.8-2.5,1.7-3.6,2.5-2c0.8-3,1.7,0.2,2.5-2.6
					c0.8,1.2,1.6-1.3,2.4-2.6c0.8-0.3,1.6-1.7,2.4-2.2c0.8-1,1.6-2,2.3-2.8c1.2-1.9,2.1-1.3,2.6-4.4c0.5-1.7,0.8-1.4,0.6-5
					c-0.1-0.8-0.2-1.5-0.5-2.2C364.6,695,364.3,694.1,363.9,692.9z"/>
			</g>
			<g id="XMLID_120_">
				<path id="XMLID_132_" class="st2" d="M664,689.1c12.9-27.2,20.2-58.1,20.2-90.9c0-81.4-44.9-151.2-109-181
					c31.1,10.4,59.5,27.8,83.3,51.5c40.1,39.9,62.1,92.7,62.1,148.8c0,35.7-9,70.1-25.8,100.7C684.6,708.6,673.5,698.2,664,689.1z"
					/>
				<path id="XMLID_131_" class="st5" d="M656.7,703c17.4-30.3,27.5-66.2,27.5-104.8c0-81.4-44.9-151.2-109-181
					c31.1,10.4,59.5,27.8,83.3,51.5c40.1,39.9,62.1,92.7,62.1,148.8c0,40.4-11.4,79.1-32.7,112.4L656.7,703z"/>
				<path id="XMLID_130_" class="st6" d="M700.2,609.2c0-56.1-22.1-109-62.1-148.8c-17.5-17.4-37.4-31.4-59.1-41.7
					c-1.2-0.4-2.5-0.9-3.7-1.3c64,29.8,109,99.6,109,181c0,38.5-10.1,74.5-27.5,104.8l14.4,12.5
					C690.1,683.6,700.2,647.1,700.2,609.2z"/>
				<path id="XMLID_129_" class="st2" d="M656.7,703c17.4-30.3,27.5-66.2,27.5-104.8c0-81.4-44.9-151.2-109-181
					c31.1,10.4,59.5,27.8,83.3,51.5c40.1,39.9,62.1,92.7,62.1,148.8c0,40.4-11.4,79.1-32.7,112.4L656.7,703z"/>
				<path id="XMLID_128_" class="st7" d="M676.1,729.4c0,0-0.3,13-10.9,31.5c-10.6,18.5-56.9-2.9-52.9-28.5s48.5-12.8,48.4-23.2
					C660.5,698.7,676.1,729.4,676.1,729.4z"/>
				<path id="XMLID_127_" class="st8" d="M631.3,746.8c3.1-20.5,32.4-16.4,43.8-19.3c-3.4-6.5-14.6-27.2-14.5-18.4
					c0.1,10.5-44.4-2.4-48.4,23.2c-2.1,13.9,10.5,26.5,24.2,32.2C632.5,759.3,630.3,753.2,631.3,746.8z"/>
				<path id="XMLID_126_" class="st2" d="M676.1,729.4c0,0-0.3,13-10.9,31.5c-10.6,18.5-56.9-2.9-52.9-28.5s48.5-12.8,48.4-23.2
					C660.5,698.7,676.1,729.4,676.1,729.4z"/>
				<path id="XMLID_122_" class="st0" d="M648.1,692.9c0-0.1,0.1-0.1,0.1-0.2c3.7-6.7,12.4-8.2,18-3l31.4,29.4
					c4.2,4,5.1,10.5,2,15.5c-0.6,1-1.2,1.9-1.8,2.9c-4.1,6.4-12.9,7.2-18.1,1.7c-9.9-10.5-20.5-21.9-29.8-31.9
					C646.3,703.4,645.6,697.5,648.1,692.9z"/>
				<path id="XMLID_121_" class="st2" d="M648.1,692.9c0-2.5,0.1-2.3,0.1-0.2c0.6,2.1,1.4-1.9,2.2-2.9c0.9,1.7,1.8,1,2.8-2
					c1,0,2.1-0.5,3.2-1c1.1-1.8,2.3-1.3,3.4-0.1c1.1,0.9,2.2,0.4,3.3,0.7c1.1,0.5,2.1,1.2,3,2.3c0-1.2,0.9-2.8,2.3,2.2
					c1.5,1.9,3.5,2.2,5.8,5.4c2.3-3.6,4.9,9.2,7.6,7.1c0.7,0.3,1.3,0.8,2,1.4s1.3,1.3,1.9,2c0.6,1.3,1.3,0.6,1.9,2
					c0.6-0.2,1.2,1.2,1.8,1.6c0.6-1,1.1-0.6,1.7,0.1c0.5,0.7,1.1,1.6,1.5,1.7c1,3.6,1.9,3.3,2.6,3.7c1.5,3.4,2.3,5.1,2.3,2.2
					c0.7-0.7,1.3,3.5,1.8,2.2c0.5,4.4,0.9,1.3,1.3,2.5c0.6,2.9,0.9,3.6,0.7,5.5c-0.2,0.5-0.8,1.6-1.8,5.3c-0.6,0.3-1.2,2.1-1.8,2.9
					c-1.4,2.1-3.3,3.7-5.4,4.5c-2.8,1.2-6,1.1-8.8-0.1c-1.4-0.6-2.7-1.4-3.9-2.8c-1.6-3.7-3.3-4.9-5-5.3c-1.7-5.5-3.4-0.5-5.1-5.4
					c-1.7-6.4-3.4-7.2-5.1-5.4c-1.7,0.6-3.4-4-5-5.4c-0.8,1.2-1.7-0.1-2.5-1.7c-0.8-0.2-1.6-2.6-2.4-3.6c-0.8-1.2-1.6-2-2.4-2.8
					c-0.8-0.3-1.6,2.7-2.3-2.3c-1.2,3.6-2.1-5.9-2.6-4.4c-0.5-6.6-0.8-2.3-0.6-5C646.8,698.6,647.3,693.4,648.1,692.9z"/>
			</g>
			<g id="XMLID_114_">
				<path id="XMLID_118_" class="st0" d="M383,543.1c40.7,44.8,94.4,63.5,122,101.9c27.6-38.4,81.4-57.1,122-101.9
					c28.2-29.9,13.9-89.6-17.3-113.9c-32.2-24.6-69.7-40.3-104.8-40.3h0c-35.1,0-72.6,15.8-104.5,40.3
					C369.2,453.5,354.8,513.2,383,543.1z"/>
				<g id="XMLID_189_">
					<ellipse id="XMLID_115_" class="st13" cx="509.1" cy="435.6" rx="22.5" ry="22.5"/>
					<path id="XMLID_216_" class="st13" d="M589.1,408.4c-24.1-8.9-42.2-23.2-66.6-14.2c-10.8,4-21.7,33.6,15.2,47
						c23.4,8.5,43.4,5.5,60.5-4.1C585.1,427.3,578.9,418.6,589.1,408.4z"/>
					<path id="XMLID_215_" class="st13" d="M501.8,394.2c-29.8-11-50.1,12.6-83.3,18.9c-1.9,5.1-7.9,1.8-9.8,6.3
						c15.3,19.7,48.1,32.7,77.9,21.8C523.5,427.8,512.6,398.2,501.8,394.2z"/>
				</g>
				<path id="XMLID_117_" class="st9" d="M609.8,429.1c-32.2-24.6-69.7-40.3-104.8-40.3h0c-4.9,0-9.9,0.3-15,0.9
					c30.6,3.7,62.2,18.3,89.8,39.4c31.2,24.3,45.5,84,17.3,113.9c-34.2,37.7-86.9,65.4-96.5,95.8c5.5,5.3,0,0,4.4,6.1
					c27.6-38.4,81.4-57.1,122-101.9C655.4,513.2,641,453.5,609.8,429.1z"/>
				<path id="XMLID_116_" class="st2" d="M383,543.1c40.7,44.8,94.4,63.5,122,101.9c27.6-38.4,81.4-57.1,122-101.9
					c28.2-29.9,13.9-89.6-17.3-113.9c-32.2-24.6-69.7-40.3-104.8-40.3h0c-35.1,0-72.6,15.8-104.5,40.3
					C369.2,453.5,354.8,513.2,383,543.1z"/>
			</g>
			<ellipse id="XMLID_111_" cx="506.1" cy="423.6" rx="22.5" ry="22.5"/>
			<ellipse id="XMLID_110_" class="st2" cx="506.1" cy="423.6" rx="22.5" ry="22.5"/>
			<path id="XMLID_109_" class="st0" d="M516.4,384.2c-10.8,4-21.7,33.6,15.2,47s65.4-1.8,87.4-26.7
				C573.6,406.5,551.6,371.3,516.4,384.2z"/>
			<path id="XMLID_108_" class="st9" d="M594.2,401.9c-0.2,0.2-0.4,0.4-0.7,0.6c-10.9-4-21.5-4.6-43.7-17.2
				c11.4,9.9,25.5,20.4,33.9,24.5c1.5,0.7,1.7,2.8,0.4,3.9c-15.9,13.1-41.5,13.2-65.1,4.6c-4.1-1.5-7.6-3.2-10.5-5
				c3.3,6.8,10.4,13.3,23.1,18c36.9,13.5,65.4-1.8,87.4-26.7C609.9,404.9,601.8,403.8,594.2,401.9z"/>
			<path id="XMLID_107_" class="st2" d="M516.4,384.2c-10.8,4-21.7,33.6,15.2,47s65.4-1.8,87.4-26.7
				C573.6,406.5,551.6,371.3,516.4,384.2z"/>
			<path id="XMLID_106_" class="st0" d="M495.8,384.2c10.8,4,21.7,33.6-15.2,47s-65.4-1.8-87.4-26.7
				C438.6,406.5,460.7,371.3,495.8,384.2z"/>
			<path id="XMLID_105_" class="st9" d="M495.8,384.2c-11.5-4.2-21.6-3.3-31.6-0.3c5.4-0.1,11,0.5,17,2.4
				c10.5,3.2,21.4,26.1-14.2,36c-23.7,6.6-43.9,3.4-61.2-5.2c20,17,44.5,25.1,74.6,14.1C517.5,417.8,506.6,388.2,495.8,384.2z"/>
			<path id="XMLID_104_" class="st2" d="M495.8,384.2c10.8,4,21.7,33.6-15.2,47s-65.4-1.8-87.4-26.7
				C438.6,406.5,460.7,371.3,495.8,384.2z"/>
			<path id="XMLID_101_" class="st7" d="M502.2,354.9c0,0-23.3,31.7,2.8,38.3c5.6,1.4,16.5-5.6,15.7-13.5"/>
			<path id="XMLID_99_" class="st2" d="M502.2,354.9c0,0-23.3,31.7,2.8,38.3c5.6,1.4,16.5-5.6,15.7-13.5"/>
			<path id="XMLID_96_" class="st2" d="M466.2,567.8"/>
			<path id="XMLID_95_" class="st2" d="M449.7,543.1"/>
			<g id="XMLID_98_">
				<path id="XMLID_97_" class="st14" d="M528.1,338c0,0,15.3-4.5,28.1,0"/>
				<ellipse id="XMLID_245_" class="st0" cx="535.3" cy="357.9" rx="13.1" ry="13.5"/>
				<ellipse id="XMLID_246_" cx="534" cy="362.2" rx="5.4" ry="5.5"/>
				<ellipse id="XMLID_190_" class="st14" cx="535.3" cy="357.9" rx="13.1" ry="13.5"/>
			</g>
			<g id="XMLID_248_">
				<path id="XMLID_253_" class="st14" d="M482,338c0,0-15.3-4.5-28.1,0"/>
				<ellipse id="XMLID_252_" class="st0" cx="474.9" cy="357.9" rx="13.1" ry="13.5"/>
				<ellipse id="XMLID_251_" cx="476.2" cy="362.2" rx="5.4" ry="5.5"/>
				<ellipse id="XMLID_249_" class="st14" cx="474.9" cy="357.9" rx="13.1" ry="13.5"/>
			</g>
		</g>
		<path id="XMLID_175_" class="st2" d="M750.3,605.9c-38.3,95-131.3,162-239.9,162c-127.3,0-233.2-92-254.6-213.2"/>
	</g>
	<defs>
		<filter id="Adobe_OpacityMaskFilter_1_" filterUnits="userSpaceOnUse" x="569.2" y="411.3" width="157.4" height="369.3">
			<feColorMatrix  type="matrix" values="1 0 0 0 0  0 1 0 0 0  0 0 1 0 0  0 0 0 1 0"/>
		</filter>
	</defs>
	<mask maskUnits="userSpaceOnUse" x="569.2" y="411.3" width="157.4" height="369.3" id="XMLID_3_">
		<g id="XMLID_242_" class="st15">
			<path id="XMLID_241_" class="st0" d="M697,455.5l-59.3,111c0,0-68,139.4-68,163.1s0.5,51.6,16.8,59.8
				c16.3,8.2,122.8,12.3,125.6,9.6s41.7-46.6,49.2-78.3c7.5-31.7,19.8-89.5,15-114.9c-4.8-25.4-4.1-49.3-14.3-73.9
				C751.7,507.4,697,455.5,697,455.5z"/>
		</g>
	</mask>
	<g id="XMLID_179_" class="st16">
		<path id="XMLID_240_" class="st2" d="M664,689.1c12.9-27.2,20.2-58.1,20.2-90.9c0-81.4-44.9-151.2-109-181
			c31.1,10.4,59.5,27.8,83.3,51.5c40.1,39.9,62.1,92.7,62.1,148.8c0,35.7-9,70.1-25.8,100.7C684.6,708.6,673.5,698.2,664,689.1z"/>
		<path id="XMLID_214_" class="st5" d="M656.7,703c17.4-30.3,27.5-66.2,27.5-104.8c0-81.4-44.9-151.2-109-181
			c31.1,10.4,59.5,27.8,83.3,51.5c40.1,39.9,62.1,92.7,62.1,148.8c0,40.4-11.4,79.1-32.7,112.4L656.7,703z"/>
		<path id="XMLID_213_" class="st6" d="M700.2,609.2c0-56.1-22.1-109-62.1-148.8c-17.5-17.4-37.4-31.4-59.1-41.7
			c-1.2-0.4-2.5-0.9-3.7-1.3c64,29.8,109,99.6,109,181c0,38.5-10.1,74.5-27.5,104.8l14.4,12.5C690.1,683.6,700.2,647.1,700.2,609.2z
			"/>
		<path id="XMLID_212_" class="st2" d="M656.7,703c17.4-30.3,27.5-66.2,27.5-104.8c0-81.4-44.9-151.2-109-181
			c31.1,10.4,59.5,27.8,83.3,51.5c40.1,39.9,62.1,92.7,62.1,148.8c0,40.4-11.4,79.1-32.7,112.4L656.7,703z"/>
		<path id="XMLID_211_" class="st7" d="M676.1,729.4c0,0,3.3,24.3-10.9,38.5c-15.1,15.1-56.9-9.8-52.9-35.5s48.5-12.8,48.4-23.2
			C660.5,698.7,676.1,729.4,676.1,729.4z"/>
		<path id="XMLID_210_" class="st8" d="M631.3,746.8c3.1-20.5,32.4-16.4,43.8-19.3c-3.4-6.5-14.6-27.2-14.5-18.4
			c0.1,10.5-44.4-2.4-48.4,23.2c-2.1,13.9,10.5,26.5,24.2,32.2C632.5,759.3,630.3,753.2,631.3,746.8z"/>
		<path id="XMLID_209_" class="st2" d="M676.1,729.4c0,0,5,18.3-5.6,36.8c-10.6,18.5-65.1,6.2-58.2-33.8
			c4.4-25.5,48.5-12.8,48.4-23.2C660.5,698.7,676.1,729.4,676.1,729.4z"/>
		<path id="XMLID_208_" class="st0" d="M648.1,692.9c0-0.1,0.1-0.1,0.1-0.2c3.7-6.7,12.4-8.2,18-3l31.4,29.4c4.2,4,5.1,10.5,2,15.5
			c-0.6,1-1.2,1.9-1.8,2.9c-4.1,6.4-12.9,7.2-18.1,1.7c-9.9-10.5-20.5-21.9-29.8-31.9C646.3,703.4,645.6,697.5,648.1,692.9z"/>
		<path id="XMLID_207_" class="st2" d="M648.1,692.9c0-2.5,0.1-2.3,0.1-0.2c0.6,2.1,1.4-1.9,2.2-2.9c0.9,1.7,1.8,1,2.8-2
			c1,0,2.1-0.5,3.2-1c1.1-1.8,2.3-1.3,3.4-0.1c1.1,0.9,2.2,0.4,3.3,0.7c1.1,0.5,2.1,1.2,3,2.3c0-1.2,0.9-2.8,2.3,2.2
			c1.5,1.9,3.5,2.2,5.8,5.4c2.3-3.6,4.9,9.2,7.6,7.1c0.7,0.3,1.3,0.8,2,1.4s1.3,1.3,1.9,2c0.6,1.3,1.3,0.6,1.9,2
			c0.6-0.2,1.2,1.2,1.8,1.6c0.6-1,1.1-0.6,1.7,0.1c0.5,0.7,1.1,1.6,1.5,1.7c1,3.6,1.9,3.3,2.6,3.7c1.5,3.4,2.3,5.1,2.3,2.2
			c0.7-0.7,1.3,3.5,1.8,2.2c0.5,4.4,0.9,1.3,1.3,2.5c0.6,2.9,0.9,3.6,0.7,5.5c-0.2,0.5-0.8,1.6-1.8,5.3c-0.6,0.3-1.2,2.1-1.8,2.9
			c-1.4,2.1-3.3,3.7-5.4,4.5c-2.8,1.2-6,1.1-8.8-0.1c-1.4-0.6-2.7-1.4-3.9-2.8c-1.6-3.7-3.3-4.9-5-5.3c-1.7-5.5-3.4-0.5-5.1-5.4
			c-1.7-6.4-3.4-7.2-5.1-5.4c-1.7,0.6-3.4-4-5-5.4c-0.8,1.2-1.7-0.1-2.5-1.7c-0.8-0.2-1.6-2.6-2.4-3.6c-0.8-1.2-1.6-2-2.4-2.8
			c-0.8-0.3-1.6,2.7-2.3-2.3c-1.2,3.6-2.1-5.9-2.6-4.4c-0.5-6.6-0.8-2.3-0.6-5C646.8,698.6,647.3,693.4,648.1,692.9z"/>
	</g>
</g>
<path id="XMLID_112_" class="st9" d="M607.3,470.1c0,0-1.6-24.9-30.1-23.8c-7.4,0.3,21-9.1,21-9.1L607.3,470.1z"/>
<path id="XMLID_93_" class="st14" d="M400,486.5c0,0-10.1,38.4,42.7,68.1c35.4,20,47.4,35.2,47.4,35.2"/>
</svg>
