<svg xmlns="http://www.w3.org/2000/svg" viewBox="0 0 1000 1000.244"><title>110-sega-megdrive</title><rect y="0.244" width="1000" height="1000" style="fill:#0095b7"/><path d="M420.925,937.592a2.267,2.267,0,0,0,2.421-2.334,2.071,2.071,0,0,0-2.29-2.2,2.2,2.2,0,0,0-2.421,2.139v.064A2.277,2.277,0,0,0,420.925,937.592Z" transform="translate(0 0.244)" style="fill:#fcfafa"/><path d="M476.412,941.87c-.13-.778,1.178-.908,1.047-1.556-.131-.907-.916-.907-1.439-.843-2.945.325-3.534,1.3-3.795,3.176a4.023,4.023,0,0,0,1.308,2.917,21.625,21.625,0,0,1-.523,4.407.925.925,0,0,0-.524.583,56.18,56.18,0,0,1-1.766,6.287,3.239,3.239,0,0,0-.655,1.232v.324c-.654,1.231-1.374,2.138-2.224,2.138-.393,0-.524-1.037-.524-2.4,0-2.4,1.243-9.073,1.243-10.5,0-1.88.328-3.5.328-5.056,0-.648-.459-.842-1.047-.842-.458,0-.72.324-1.178.324-1.9,0-2.16,1.037-2.16,2.592,0,.649,0,9.852-.13,11.018-.131,1.945-1.244,4.343-3.337,4.343-1.9,0-2.814-2.593-2.814-5.38a31.409,31.409,0,0,1,.785-6.8c.2-.648,1.047-3.629,1.047-4.018,0-.713-.065-.907-.851-.907-3.01.064-3.6.324-4.056,1.944a36.319,36.319,0,0,0-.982,8.037v.842c-.72,2.2-1.5,4.667-3.533,4.8-1.375.065-1.833-3.37-1.833-6.935,0-7.064,2.029-13.934,2.291-21,.065-.648-.393-1.1-1.178-1.1a9.691,9.691,0,0,1-1.832.065c-.785,0-1.113.324-1.178,1.1-.654,7.065-2.094,15.685-2.094,22.555v.129c-.72,2.269-1.5,5.185-3.664,5.315-1.374.065-1.832-3.37-1.832-6.935,0-7.065,2.028-13.935,2.29-21,.065-.648-.393-1.1-1.178-1.1-1.047,0-1.374-.065-1.9-.065-.785,0-1.112.324-1.177,1.1-.655,7.065-2.094,15.685-2.094,22.555v.129c-.72,2.269-1.5,5.185-3.664,5.315-1.375.065-1.833-3.37-1.833-6.935,0-7.065,2.029-13.935,2.291-21,.065-.648-.393-1.1-1.178-1.1-1.113,0-1.44-.065-1.963-.065-.785,0-1.113.324-1.178,1.1-.654,7.065-2.094,15.685-2.094,22.555v1.037c-.654,2.268-1.636,4.731-2.879,4.731-.589-.065-1.047-.907-1.047-2.852,0-3.564.327-8.49.654-12.249.066-.454-.13-.908-.654-.908-.458-.064-1.9-.194-2.421-.194-.785,0-1.112.454-1.112,1.3v1.3c.065,4.343-.393,7.778-.393,11.861,0,2.917,1.57,4.926,3.533,4.926,2.094,0,3.73-1.75,4.843-3.824.588,2.2,1.7,4.148,3.926,4.148,2.093,0,4.122-2.269,5.5-4.8.523,2.463,1.636,4.8,4.057,4.8,2.094,0,4.122-2.269,5.5-4.8.524,2.463,1.636,4.8,4.057,4.8,2.029,0,4.057-2.2,5.431-4.6.72,2.917,2.356,5.12,5.431,5.12,2.552,0,3.272-1.037,4.908-3.37.523,1.3.719,3.759,2.224,3.759,2.094,0,3.861-2.4,5.039-5.12a8.291,8.291,0,0,0,6.543,3.629c3.533,0,6.543-2.527,6.282-6.351C484.722,950.36,477,944.786,476.412,941.87Zm.916,17.434c-1.046,0-2.682-.648-2.748-2.009-.065-.778,1.767-1.167,2.421-1.556.524-.324.655-.583.655-.777-.066-.454-.72-.778-1.44-.778a4.5,4.5,0,0,0-2.421.842c.2-.907,1.57-5.573,1.9-7.842a14.918,14.918,0,0,1,5.169,9.333C481.058,959.045,478.179,959.3,477.328,959.3Z" transform="translate(0 0.244)" style="fill:#fcfafa"/><path d="M535.957,937.592a2.267,2.267,0,0,0,2.421-2.334,2.071,2.071,0,0,0-2.29-2.2,2.2,2.2,0,0,0-2.421,2.139v.064A2.277,2.277,0,0,0,535.957,937.592Z" transform="translate(0 0.244)" style="fill:#fcfafa"/><path d="M573.777,963.128c-1.178-.778-2.028-2.009-1.832-7.065.131-3.24.785-7.712.785-10.888,0-1.426-.654-3.046-2.486-3.046-2.29,0-5.628,4.666-6.675,6.74.131-1.231.524-4.861.589-6.092s.066-1.3-2.094-1.3c-1.439,0-1.569.259-1.569.777,0,2.982-.263,6.417-.524,9.852-.786,1.685-1.833,3.37-3.338,3.37a3.006,3.006,0,0,1-1.308-.324,9.938,9.938,0,0,0,1.113-4.342,3.117,3.117,0,0,0-3.141-3.241,3.709,3.709,0,0,0-3.861,4.018c0,1.815,1.9,3.889,3.337,4.861a4.97,4.97,0,0,1-4.515,2.722c-2.813,0-3.8-5.12-3.8-7,0-3.63,1.309-7.713,5.627-7.713,2.945,0,2.945,1.944,4.188,1.944.131,0,.524-.194.524-.388,0-2.139-3.4-3.889-5.17-3.889-6.02,0-10.207,4.731-10.207,10.629a11.3,11.3,0,0,0,.589,3.565c-.589,1.49-1.309,2.657-2.225,2.657-.589,0-1.047-.843-1.047-2.787,0-3.565.327-8.49.654-12.249.066-.454-.131-.908-.654-.908-.458-.065-1.9-.194-2.421-.194-.785,0-1.113.453-1.113,1.3v1.3c0,2.269-.13,4.213-.2,6.157a1.432,1.432,0,0,0-.2.324c-.72,1.945-1.636,7.324-3.8,7.324-.655,0-2.029-.907-2.029-3.435,0-4.083,1.374-12.249,1.571-13.675,2.093-.454,3.926-.324,6.412-1.037,1.113-.324.458-1.62-.785-1.491a34.906,34.906,0,0,1-5.431,0c.065-2.139.589-3.5.589-5.7v-.2c0-.583-.262-1.037-.851-1.037-1.178,0-3.01.389-3.01,2.009,0,1.686-.326,3.176-.262,4.861-1.177.065-2.224-.259-3.4-.259-.85,0-1.047,1.556-1.047,2.139,0,.648.066,1.1.458,1.1a30.272,30.272,0,0,0,3.73-.324c-.327,4.277-.85,6.675-1.178,9.657,0,.194-.066.453-.066.713-.719,2.268-2.093,5.768-3.205,5.768A1.464,1.464,0,0,1,519.4,957.1,42.575,42.575,0,0,1,520.58,946.8a11.062,11.062,0,0,0,.654-2.527c0-.843-1.374-1.3-2.093-1.3-1.178,0-1.113.648-1.571,1.685-.851-.648-1.047-1.814-3.337-1.814-4.188,0-6.74,6.74-6.74,10.953,0,.713-.065,1.1-.065,1.491,0,2.4-1.374,5.379-2.814,5.379-1.243,0-1.636-3.37-1.636-4.8a31.6,31.6,0,0,1,1.7-8.426,6.148,6.148,0,0,0,.916-2.268c0-.907-1.047-2.4-2.094-2.4-1.178,0-1.9.648-3.141.648-1.963,0-3.272-1.231-4.384-1.231a1.026,1.026,0,0,0-1.113,1.1c0,1.75,1.9,1.426,1.44,3.63-.458,2.074-1.832,7.713-2.617,9.851a.48.48,0,0,0-.066.324,1.892,1.892,0,0,0,.132.649c-.459.777-.982,1.3-1.637,1.3s-2.028-.908-2.028-3.435c0-4.083,1.374-12.25,1.571-13.676,2.094-.453,3.925-.324,6.412-1.037,1.112-.324.458-1.62-.786-1.49a35.035,35.035,0,0,1-5.431,0c.066-2.139.589-3.5.589-5.7,0-.583-.261-1.037-.85-1.037-1.178,0-3.01.389-3.01,2.009,0,1.686-.327,3.176-.262,4.861-1.177.065-2.224-.259-3.4-.259-.851,0-1.047,1.556-1.047,2.139,0,.648.065,1.1.458,1.1a30.272,30.272,0,0,0,3.73-.324c-.327,4.277-.851,6.675-1.178,9.657a53.122,53.122,0,0,0-.458,5.573c0,2.787,2.42,5.056,4.449,5.056,3.6,0,6.543-7.259,6.543-10.24v-.389c.393-1.75.655-3.5.982-4.991.065-.194.262-.778.785-.778,1.178,0,1.309.843,1.309,1.75,0,2.4-.851,6.676-.851,9.2,0,2.462.654,5.509,3.534,5.509a6.357,6.357,0,0,0,5.5-3.63c.785,1.88,2.094,3.37,3.926,3.37,1.767,0,3.272-1.3,4.319-2.527.262.648.654,2.4,2.552,2.4,1.766,0,3.141-1.491,4.188-3.371a4.919,4.919,0,0,0,4.252,3.76c2.029,0,3.926-2.4,5.1-4.991.131,2.722,1.636,4.537,3.534,4.537,1.963,0,3.6-1.556,4.711-3.5a6.643,6.643,0,0,0,5.758,3.37c3.6,0,5.758-2.333,7.655-5.12a9.921,9.921,0,0,0,1.833.324,4.887,4.887,0,0,0,3.468-2.009c-.131,2.074-.262,4.083-.262,5.9,0,.648.131.907.589,1.037a5.742,5.742,0,0,0,1.832.065c.654,0,.785.065.916-.778.065-.583.458-7.518.458-8.037,0-1.426,3.468-7.453,5.169-7.453.328,0,.589.583.589.972,0,3.111-.981,8.166-.981,11.407,0,3.435,1.7,4.6,2.421,4.991a6.445,6.445,0,0,0,2.813.713C573.777,963.776,574.235,963.387,573.777,963.128Zm-57.45-6.611c-.066.907-1.7,3.241-2.945,3.241-1.374,0-1.963-3.889-1.9-6.481.065-3.047,1.57-8.491,3.01-8.491,1.9,0,2.159,4.537,2.159,5.963C516.654,952.369,516.458,954.9,516.327,956.517Zm37.559-2.139a4.186,4.186,0,0,1-1.374-3.111c0-.583.2-1.879,1.047-1.879.785,0,1.046,1.426,1.046,2.009A11.079,11.079,0,0,1,553.886,954.378Z" transform="translate(0 0.244)" style="fill:#fcfafa"/><path d="M588.826,955.48c-.327-5.12-8.114-10.694-8.637-13.611-.13-.777,1.178-.907,1.047-1.555-.13-.907-.916-.907-1.44-.843-2.944.324-3.533,1.3-3.794,3.176a4.027,4.027,0,0,0,1.308,2.917c.066,2.268-1.177,8.555-2.617,11.018a5.056,5.056,0,0,0-.851,1.491c-.131.777.458,1.166.982.648.458-.389.392-.648.85-.973,1.047,2.4,4.319,4.084,6.806,4.084C586.079,961.832,589.023,959.3,588.826,955.48Zm-7.72,3.824c-1.047,0-2.683-.648-2.749-2.009-.065-.778,1.767-1.167,2.421-1.556.523-.324.655-.583.655-.777-.066-.454-.721-.778-1.44-.778a4.5,4.5,0,0,0-2.421.842c.2-.907,1.571-5.574,1.9-7.842a14.907,14.907,0,0,1,5.168,9.333C584.835,959.045,581.956,959.3,581.106,959.3Z" transform="translate(0 0.244)" style="fill:#fcfafa"/><path d="M63.2,959.2c0,2.5-1.2,3.7-2.6,3.7a1.928,1.928,0,0,1-2.1-1.4,2.2,2.2,0,0,1-1.8.8,2.808,2.808,0,0,1,0-5.6,2.175,2.175,0,0,1,1.6.7v-.5h1.6v3.9c0,.8.3,1.4,1,1.4.9,0,1.7-.9,1.7-3a5.233,5.233,0,0,0-5.4-5.3,5.552,5.552,0,0,0-5.6,5.7,5.624,5.624,0,0,0,5.9,5.7,11.935,11.935,0,0,0,2.9-.4v.6a8.119,8.119,0,0,1-2.9.4,6.2,6.2,0,1,1-.3-12.4A5.593,5.593,0,0,1,63.2,959.2Zm-4.9.3a1.347,1.347,0,0,0-1.3-1.4,1.238,1.238,0,0,0-1.3,1.4,1.261,1.261,0,0,0,1.3,1.3C57.8,960.9,58.3,960.3,58.3,959.5Z" transform="translate(0 0.244)" style="fill:#fcfafa"/><path d="M69.4,955.1v2a2.244,2.244,0,0,0-2.6,2.4v4.3H64.9v-8.6h1.9v1.4A2.632,2.632,0,0,1,69.4,955.1Z" transform="translate(0 0.244)" style="fill:#fcfafa"/><path d="M74.6,962.3a2.641,2.641,0,0,0,2.2-1.1l1.5.9a4.346,4.346,0,0,1-3.8,1.9,4.414,4.414,0,0,1-4.7-4.5,4.36,4.36,0,0,1,4.5-4.5,4.313,4.313,0,0,1,4.3,4.5,2.2,2.2,0,0,1-.1.8H71.7A2.832,2.832,0,0,0,74.6,962.3Zm2.3-3.5a2.375,2.375,0,0,0-2.5-2.1,2.506,2.506,0,0,0-2.6,2.1Z" transform="translate(0 0.244)" style="fill:#fcfafa"/><path d="M88.9,955.2v8.6H87v-1.2a3.692,3.692,0,0,1-3,1.5,4.443,4.443,0,0,1-4.3-4.5,4.317,4.317,0,0,1,4.3-4.5,3.613,3.613,0,0,1,3,1.4v-1.2h1.9Zm-1.8,4.3a2.7,2.7,0,1,0-2.7,2.7A2.571,2.571,0,0,0,87.1,959.5Z" transform="translate(0 0.244)" style="fill:#fcfafa"/><path d="M91.1,951.3H93v12.5H91.1Z" transform="translate(0 0.244)" style="fill:#fcfafa"/><path d="M102.9,955.2l-3.3,8.6H97.5l-3.3-8.6h2l2.4,6.5,2.4-6.5Z" transform="translate(0 0.244)" style="fill:#fcfafa"/><path d="M104.2,955.2h1.9v8.9c0,2.4-1.2,3.5-3.5,3.3v-1.8c1.1.1,1.7-.3,1.7-1.5v-8.9Zm-.2-2.4a1.2,1.2,0,0,1,2.4,0,1.2,1.2,0,1,1-2.4,0Z" transform="translate(0 0.244)" style="fill:#fcfafa"/><path d="M116,955.2l-3.3,8.8c-.8,2.2-2.2,3.3-4.2,3.2v-1.7a2.076,2.076,0,0,0,2.3-1.7l.1-.2-3.6-8.4h2l2.6,6.2,2.2-6.2Z" transform="translate(0 0.244)" style="fill:#fcfafa"/><path d="M58.9,938.7a3.633,3.633,0,0,1-3.6,3.8h-3v-7.6h3A3.633,3.633,0,0,1,58.9,938.7Zm-1,0a2.722,2.722,0,0,0-2.6-2.9h-2v5.7h2A2.577,2.577,0,0,0,57.9,938.7Z" transform="translate(0 0.244)" style="fill:#fcfafa"/><path d="M67,941.6v1H62.4V935h4.5v1H63.4v2.3h3.2v.9H63.4v2.4Z" transform="translate(0 0.244)" style="fill:#fcfafa"/><path d="M70,940.8l.9-.5a1.987,1.987,0,0,0,2,1.4c1.1,0,1.6-.5,1.6-1.2,0-.8-.7-1-1.8-1.4-1.2-.4-2.4-.8-2.4-2.2a2.208,2.208,0,0,1,2.4-2.2,2.664,2.664,0,0,1,2.6,1.7l-.8.5a1.743,1.743,0,0,0-1.7-1.2c-.8,0-1.4.4-1.4,1.1s.5,1,1.6,1.3c1.3.4,2.6.8,2.6,2.3a2.333,2.333,0,0,1-2.6,2.2A2.847,2.847,0,0,1,70,940.8Z" transform="translate(0 0.244)" style="fill:#fcfafa"/><path d="M80,934.9v7.6H79v-7.6Z" transform="translate(0 0.244)" style="fill:#fcfafa"/><path d="M91.3,939.2a3.47,3.47,0,0,1-3.7,3.5,3.888,3.888,0,0,1-4-4,3.974,3.974,0,0,1,7.3-2.2l-.9.5a2.775,2.775,0,0,0-2.4-1.4,3,3,0,0,0,0,6,2.5,2.5,0,0,0,2.7-2H87.5v-.9h3.8Z" transform="translate(0 0.244)" style="fill:#fcfafa"/><path d="M100.6,934.9v7.6h-.8l-3.9-5.7v5.7h-1v-7.6h.8l3.9,5.7v-5.7Z" transform="translate(0 0.244)" style="fill:#fcfafa"/><path d="M109.1,941.6v1h-4.6V935H109v1h-3.5v2.3h3.2v.9h-3.2v2.4Z" transform="translate(0 0.244)" style="fill:#fcfafa"/><path d="M119.2,938.7a3.633,3.633,0,0,1-3.6,3.8h-3v-7.6h3A3.7,3.7,0,0,1,119.2,938.7Zm-1,0a2.722,2.722,0,0,0-2.6-2.9h-2v5.7h2A2.577,2.577,0,0,0,118.2,938.7Z" transform="translate(0 0.244)" style="fill:#fcfafa"/><path d="M133.2,940.4a2.22,2.22,0,0,1-2.2,2.2h-3.3V935h3a2.051,2.051,0,0,1,2.1,2.1,1.943,1.943,0,0,1-.8,1.6A1.658,1.658,0,0,1,133.2,940.4Zm-4.5-4.6v2.3h2a1.135,1.135,0,0,0,1.1-1.2,1.2,1.2,0,0,0-1.1-1.2h-2Zm3.5,4.5a1.155,1.155,0,0,0-1.2-1.2h-2.3v2.5H131A1.24,1.24,0,0,0,132.2,940.3Z" transform="translate(0 0.244)" style="fill:#fcfafa"/><path d="M139.4,939.4v3.1h-1v-3.1l-2.7-4.5h1.1l2.1,3.6,2.1-3.6h1.1Z" transform="translate(0 0.244)" style="fill:#fcfafa"/><path d="M210.957,934.972v7.7h-.825l-3.96-5.754v5.754h-1.024v-7.7h.826l3.96,5.743v-5.743Z" transform="translate(0 0.244)" style="fill:#fcfafa"/><path d="M219.405,941.705v.968h-4.6v-7.7h4.544v.967H215.83v2.367h3.245v.957H215.83v2.442Z" transform="translate(0 0.244)" style="fill:#fcfafa"/><path d="M222.286,934.972h1.078l1.76,6.337,1.87-6.337h1.034l1.87,6.337,1.761-6.337h1.078l-2.211,7.7h-1.188l-1.826-6.15-1.826,6.15H224.5Z" transform="translate(0 0.244)" style="fill:#fcfafa"/><path d="M243.22,934.972v7.7h-1.013v-6.6l-1.639.484-.253-.88,2.025-.7Z" transform="translate(0 0.244)" style="fill:#fcfafa"/><path d="M249.336,934.972v7.7h-1.013v-6.6l-1.638.484-.253-.88,2.024-.7Z" transform="translate(0 0.244)" style="fill:#fcfafa"/><path d="M252.888,938.822c0-2.376,1.067-3.993,2.97-3.993s2.97,1.617,2.97,3.993-1.056,3.993-2.97,3.993S252.888,941.2,252.888,938.822Zm4.928,0c0-1.914-.714-3-1.958-3s-1.947,1.089-1.947,3,.7,2.992,1.947,2.992S257.816,940.736,257.816,938.822Z" transform="translate(0 0.244)" style="fill:#fcfafa"/><path d="M205,960.8l2.1-1.226a2.786,2.786,0,0,0,2.859,1.9c1.474,0,1.989-.621,1.989-1.315,0-.923-.835-1.278-2.682-1.811-1.9-.55-3.747-1.35-3.747-3.712,0-2.345,1.953-3.695,4.085-3.695a4.726,4.726,0,0,1,4.44,2.789l-2.061,1.19a2.443,2.443,0,0,0-2.379-1.6c-1.031,0-1.634.533-1.634,1.243,0,.764.479,1.173,2.362,1.742,1.972.621,4.067,1.278,4.067,3.818,0,2.327-1.865,3.748-4.511,3.748A4.8,4.8,0,0,1,205,960.8Z" transform="translate(0 0.244)" style="fill:#fcfafa"/><path d="M220.575,961.8a2.458,2.458,0,0,0,1.989-.889l1.847,1.067a4.492,4.492,0,0,1-3.871,1.9,4.691,4.691,0,1,1-.178-9.378,4.49,4.49,0,0,1,4.493,4.689,5.322,5.322,0,0,1-.088.941h-6.7A2.332,2.332,0,0,0,220.575,961.8Zm1.989-3.446a2.154,2.154,0,0,0-2.2-1.794,2.216,2.216,0,0,0-2.327,1.794Z" transform="translate(0 0.244)" style="fill:#fcfafa"/><path d="M235.421,954.743V963.2c0,2.913-2.292,4.228-4.636,4.228a4.5,4.5,0,0,1-4.21-2.167l1.954-1.119a2.307,2.307,0,0,0,2.326,1.244,2.069,2.069,0,0,0,2.328-2.186v-.959a3.394,3.394,0,0,1-2.842,1.351,4.549,4.549,0,0,1,0-9.094,3.394,3.394,0,0,1,2.842,1.35v-1.1Zm-2.238,4.3a2.488,2.488,0,1,0-2.487,2.433A2.371,2.371,0,0,0,233.183,959.042Z" transform="translate(0 0.244)" style="fill:#fcfafa"/><path d="M246.534,954.743v8.881h-2.292v-1.048a3.533,3.533,0,0,1-2.894,1.3,4.705,4.705,0,0,1,0-9.378,3.532,3.532,0,0,1,2.894,1.3v-1.048Zm-2.292,4.441a2.46,2.46,0,1,0-2.469,2.5A2.387,2.387,0,0,0,244.242,959.184Z" transform="translate(0 0.244)" style="fill:#fcfafa"/><path d="M265.319,963.624h-2.433v-8.063l-3.5,5.772H259.1l-3.5-5.755v8.046h-2.452V951.191h2.523l3.57,5.879,3.552-5.879h2.522Z" transform="translate(0 0.244)" style="fill:#fcfafa"/><path d="M271.956,961.8a2.458,2.458,0,0,0,1.989-.889l1.847,1.067a4.492,4.492,0,0,1-3.871,1.9,4.691,4.691,0,1,1-.178-9.378,4.49,4.49,0,0,1,4.493,4.689,5.227,5.227,0,0,1-.089.941h-6.695A2.331,2.331,0,0,0,271.956,961.8Zm1.989-3.446a2.154,2.154,0,0,0-2.2-1.794,2.216,2.216,0,0,0-2.327,1.794Z" transform="translate(0 0.244)" style="fill:#fcfafa"/><path d="M286.8,954.743V963.2c0,2.913-2.291,4.228-4.635,4.228a4.5,4.5,0,0,1-4.21-2.167l1.954-1.119a2.307,2.307,0,0,0,2.326,1.244,2.067,2.067,0,0,0,2.327-2.186v-.959a3.394,3.394,0,0,1-2.841,1.351,4.549,4.549,0,0,1,0-9.094,3.393,3.393,0,0,1,2.841,1.35v-1.1Zm-2.238,4.3a2.487,2.487,0,1,0-2.486,2.433A2.37,2.37,0,0,0,284.562,959.042Z" transform="translate(0 0.244)" style="fill:#fcfafa"/><path d="M297.9,951.191v12.433h-2.291v-1.048a3.447,3.447,0,0,1-2.876,1.3,4.7,4.7,0,0,1,0-9.378,3.452,3.452,0,0,1,2.876,1.3v-4.6Zm-2.291,7.993a2.46,2.46,0,1,0-2.451,2.5A2.382,2.382,0,0,0,295.605,959.184Z" transform="translate(0 0.244)" style="fill:#fcfafa"/><path d="M304.979,954.565v2.558a2.217,2.217,0,0,0-2.7,2.256v4.245h-2.291v-8.881h2.291v1.528A2.734,2.734,0,0,1,304.979,954.565Z" transform="translate(0 0.244)" style="fill:#fcfafa"/><path d="M306.042,952.274a1.412,1.412,0,1,1,1.4,1.4A1.419,1.419,0,0,1,306.042,952.274Zm.267,2.469H308.6v8.881h-2.291Z" transform="translate(0 0.244)" style="fill:#fcfafa"/><path d="M319.059,954.743l-3.374,8.881h-2.612l-3.374-8.881h2.522l2.149,6.217,2.167-6.217Z" transform="translate(0 0.244)" style="fill:#fcfafa"/><path d="M324.242,961.8a2.458,2.458,0,0,0,1.989-.889l1.847,1.067a4.492,4.492,0,0,1-3.871,1.9,4.691,4.691,0,1,1-.178-9.378,4.49,4.49,0,0,1,4.493,4.689,5.322,5.322,0,0,1-.088.941h-6.7A2.334,2.334,0,0,0,324.242,961.8Zm1.989-3.446a2.154,2.154,0,0,0-2.2-1.794,2.216,2.216,0,0,0-2.327,1.794Z" transform="translate(0 0.244)" style="fill:#fcfafa"/><path d="M848.133,938.45a3.648,3.648,0,0,1-3.617,3.813h-2.973v-7.626h2.973A3.648,3.648,0,0,1,848.133,938.45Zm-.969,0a2.669,2.669,0,0,0-2.648-2.855h-1.961V941.3h1.961A2.669,2.669,0,0,0,847.164,938.45Z" transform="translate(0 0.244)" style="fill:#fcfafa"/><path d="M851.254,938.45a3.949,3.949,0,1,1,3.943,3.955A3.917,3.917,0,0,1,851.254,938.45Zm6.887,0a2.943,2.943,0,1,0-2.944,2.964A2.911,2.911,0,0,0,858.141,938.45Z" transform="translate(0 0.244)" style="fill:#fcfafa"/><path d="M861.783,934.637h1.069l1.742,6.276,1.853-6.276h1.024l1.851,6.276,1.744-6.276h1.067l-2.19,7.626h-1.175l-1.809-6.09-1.809,6.09h-1.177Z" transform="translate(0 0.244)" style="fill:#fcfafa"/><path d="M881.27,934.637v7.626h-.819l-3.922-5.7v5.7h-1.011v-7.626h.816l3.922,5.687v-5.687Z" transform="translate(0 0.244)" style="fill:#fcfafa"/><path d="M889.5,941.3v.959h-4.3v-7.626h1.014V941.3Z" transform="translate(0 0.244)" style="fill:#fcfafa"/><path d="M891.877,938.45a3.949,3.949,0,1,1,3.943,3.955A3.917,3.917,0,0,1,891.877,938.45Zm6.887,0a2.943,2.943,0,1,0-2.944,2.964A2.911,2.911,0,0,0,898.764,938.45Z" transform="translate(0 0.244)" style="fill:#fcfafa"/><path d="M907.418,940.552h-3.432l-.621,1.711h-1.078l2.844-7.626h1.142l2.844,7.626h-1.078Zm-.348-.947-1.373-3.759-1.361,3.759Z" transform="translate(0 0.244)" style="fill:#fcfafa"/><path d="M918.906,938.45a3.647,3.647,0,0,1-3.617,3.813h-2.975v-7.626h2.975A3.647,3.647,0,0,1,918.906,938.45Zm-.97,0a2.67,2.67,0,0,0-2.647-2.855h-1.961V941.3h1.961A2.669,2.669,0,0,0,917.936,938.45Z" transform="translate(0 0.244)" style="fill:#fcfafa"/><path d="M928.457,935.6v2.474h3.236v.959h-3.236v3.235h-1.014v-7.626h4.391v.958Z" transform="translate(0 0.244)" style="fill:#fcfafa"/><path d="M938.168,939.343h-1.8v2.92h-1.012v-7.626h3.049a2.353,2.353,0,0,1,.8,4.575l1.8,3.051h-1.121Zm-1.8-.915h2.037a1.423,1.423,0,0,0,0-2.843h-2.037Z" transform="translate(0 0.244)" style="fill:#fcfafa"/><path d="M943.869,938.45a3.95,3.95,0,1,1,3.943,3.955A3.918,3.918,0,0,1,943.869,938.45Zm6.887,0a2.943,2.943,0,1,0-2.944,2.964A2.911,2.911,0,0,0,950.756,938.45Z" transform="translate(0 0.244)" style="fill:#fcfafa"/><path d="M962.418,942.263h-1V936.3l-2.5,4.151h-.131l-2.494-4.14v5.948h-1.014v-7.626h1.145l2.429,4.031,2.418-4.031h1.145Z" transform="translate(0 0.244)" style="fill:#fcfafa"/><path d="M841.318,952.65a1.221,1.221,0,1,1,1.221,1.222A1.224,1.224,0,0,1,841.318,952.65Zm.266,2.549H843.5v8.85h-1.911Z" transform="translate(0 0.244)" style="fill:#fcfafa"/><path d="M845.709,951.128h1.912v12.921h-1.912Z" transform="translate(0 0.244)" style="fill:#fcfafa"/><path d="M849.834,951.128h1.912v12.921h-1.912Z" transform="translate(0 0.244)" style="fill:#fcfafa"/><path d="M853.96,951.128h1.911v12.921H853.96Z" transform="translate(0 0.244)" style="fill:#fcfafa"/><path d="M865.963,955.2v8.85h-1.912v-1.132a3.048,3.048,0,0,1-2.744,1.363,3.305,3.305,0,0,1-3.4-3.647V955.2h1.912v5.24a1.845,1.845,0,0,0,1.983,2.053c1.257,0,2.248-.743,2.248-2.549V955.2Z" transform="translate(0 0.244)" style="fill:#fcfafa"/><path d="M874.621,961.553c0,1.771-1.539,2.727-3.451,2.727a3.694,3.694,0,0,1-3.611-2.071l1.646-.956a1.945,1.945,0,0,0,1.965,1.274c.85,0,1.5-.283,1.5-.991,0-1.575-4.761-.691-4.761-3.859,0-1.664,1.434-2.708,3.238-2.708a3.566,3.566,0,0,1,3.276,1.841l-1.612.9a1.723,1.723,0,0,0-1.664-1.008c-.689,0-1.292.3-1.292.938C869.86,959.253,874.621,958.279,874.621,961.553Z" transform="translate(0 0.244)" style="fill:#fcfafa"/><path d="M878.7,957.041v4.248c0,1.132.744,1.114,2.2,1.044v1.716c-2.938.355-4.106-.46-4.106-2.76v-4.248h-1.629V955.2h1.629v-1.911l1.91-.567V955.2h2.2v1.842Z" transform="translate(0 0.244)" style="fill:#fcfafa"/><path d="M887.354,955.04v2.071a2.337,2.337,0,0,0-2.725,2.478v4.46h-1.912V955.2h1.912v1.487A2.782,2.782,0,0,1,887.354,955.04Z" transform="translate(0 0.244)" style="fill:#fcfafa"/><path d="M897.286,955.2v8.85h-1.911v-1.274a3.639,3.639,0,0,1-3.1,1.5,4.662,4.662,0,0,1,0-9.311,3.672,3.672,0,0,1,3.1,1.487V955.2Zm-1.911,4.426a2.8,2.8,0,1,0-2.8,2.832A2.735,2.735,0,0,0,895.375,959.625Z" transform="translate(0 0.244)" style="fill:#fcfafa"/><path d="M902.264,957.041v4.248c0,1.132.744,1.114,2.195,1.044v1.716c-2.938.355-4.1-.46-4.1-2.76v-4.248h-1.629V955.2h1.629v-1.911l1.91-.567V955.2h2.195v1.842Z" transform="translate(0 0.244)" style="fill:#fcfafa"/><path d="M905.931,952.65a1.221,1.221,0,0,1,2.442,0,1.221,1.221,0,1,1-2.442,0Zm.265,2.549h1.911v8.85H906.2Z" transform="translate(0 0.244)" style="fill:#fcfafa"/><path d="M909.826,959.625a4.673,4.673,0,1,1,4.674,4.655A4.621,4.621,0,0,1,909.826,959.625Zm7.435,0a2.762,2.762,0,1,0-2.761,2.8A2.718,2.718,0,0,0,917.261,959.625Z" transform="translate(0 0.244)" style="fill:#fcfafa"/><path d="M928.965,958.616v5.433h-1.912V958.81a1.845,1.845,0,0,0-1.983-2.053c-1.257,0-2.248.744-2.248,2.549v4.743H920.91V955.2h1.912v1.133a3.047,3.047,0,0,1,2.744-1.363A3.3,3.3,0,0,1,928.965,958.616Z" transform="translate(0 0.244)" style="fill:#fcfafa"/><path d="M937.5,961.553c0,1.771-1.541,2.727-3.451,2.727a3.692,3.692,0,0,1-3.611-2.071l1.646-.956a1.943,1.943,0,0,0,1.965,1.274c.849,0,1.5-.283,1.5-.991,0-1.575-4.762-.691-4.762-3.859,0-1.664,1.434-2.708,3.239-2.708a3.563,3.563,0,0,1,3.275,1.841l-1.611.9a1.725,1.725,0,0,0-1.664-1.008c-.69,0-1.292.3-1.292.938C932.738,959.253,937.5,958.279,937.5,961.553Z" transform="translate(0 0.244)" style="fill:#fcfafa"/><path d="M938.83,962.934a1.328,1.328,0,0,1,2.656,0,1.328,1.328,0,0,1-2.656,0Z" transform="translate(0 0.244)" style="fill:#fcfafa"/><path d="M942.319,959.625a4.567,4.567,0,0,1,4.673-4.656,4.373,4.373,0,0,1,3.947,2.284l-1.646.956a2.473,2.473,0,0,0-2.318-1.364,2.779,2.779,0,0,0,0,5.558,2.6,2.6,0,0,0,2.353-1.362l1.647.937a4.451,4.451,0,0,1-3.983,2.3A4.577,4.577,0,0,1,942.319,959.625Z" transform="translate(0 0.244)" style="fill:#fcfafa"/><path d="M951.722,959.625a4.673,4.673,0,1,1,4.673,4.655A4.62,4.62,0,0,1,951.722,959.625Zm7.434,0a2.762,2.762,0,1,0-2.761,2.8A2.718,2.718,0,0,0,959.156,959.625Z" transform="translate(0 0.244)" style="fill:#fcfafa"/><path d="M672.631,74.571h-160.5a19.823,19.823,0,0,1-19.8-19.8V.3h-10V54.771a29.833,29.833,0,0,0,29.8,29.8h160.5a19.8,19.8,0,1,1,0,39.6h-397.5a29.8,29.8,0,1,0,0,59.6h187.5a19.822,19.822,0,0,1,19.8,19.8v51.174H467.139V264.86h-6.545v10.728h6.545v9.5h-6.545v10.728h6.545v9.5h-6.545v10.728h6.545V324.5h39.74v-8.451h6.545V305.318h-6.545v-9.5h6.545V285.089h-6.545v-9.5h6.545V264.86h-6.545V254.745H492.431V203.571a29.834,29.834,0,0,0-29.8-29.8h-187.5a19.8,19.8,0,1,1,0-39.6h397.5a29.8,29.8,0,1,0,0-59.6Z" transform="translate(0 0.244)" style="fill:#05456b"/><path d="M824.969,517.187C775.524,424.622,631,383.135,500,383.134H500c-130.994,0-275.521,41.488-324.966,134.053-46.144,86.386,9.769,207.562,80.161,251.238,44.354,27.52,79.349,15.657,98.745-31.27C370.844,696.251,436.87,673.61,500,673.61s129.156,22.641,146.063,63.545c19.4,46.927,54.391,58.79,98.745,31.27C815.2,724.749,871.113,603.573,824.969,517.187Z" transform="translate(0 0.244)" style="fill:#05456b"/><path d="M824.969,449.766C775.524,357.2,631,315.715,500,315.714H500C369,315.715,224.476,357.2,175.031,449.766,128.887,536.153,184.8,657.329,255.192,701c44.354,27.52,79.349,15.658,98.745-31.269,16.907-40.9,82.933-63.545,146.063-63.546s129.156,22.642,146.063,63.546c19.4,46.927,54.391,58.789,98.745,31.269C815.2,657.329,871.113,536.153,824.969,449.766Z" transform="translate(0 0.244)" style="fill:#ef4923"/><path d="M824.969,449.766C775.524,357.2,631,315.715,500,315.714H500C369,315.715,224.476,357.2,175.031,449.766,128.887,536.153,184.8,657.329,255.192,701c44.354,27.52,79.349,15.658,98.745-31.269,16.907-40.9,82.933-63.545,146.063-63.546s129.156,22.642,146.063,63.546c19.4,46.927,54.391,58.789,98.745,31.269C815.2,657.329,871.113,536.153,824.969,449.766Z" transform="translate(0 0.244)" style="fill:#ef4923"/><path d="M824.969,449.766C775.524,357.2,631,315.715,500,315.714H500C369,315.715,224.476,357.2,175.031,449.766,128.887,536.153,184.8,657.329,255.192,701c44.354,27.52,79.349,15.658,98.745-31.269,16.907-40.9,82.933-63.545,146.063-63.546s129.156,22.642,146.063,63.546c19.4,46.927,54.391,58.789,98.745,31.269C815.2,657.329,871.113,536.153,824.969,449.766Z" transform="translate(0 0.244)" style="fill:#ef4923"/><path d="M824.969,449.766C775.524,357.2,631,315.715,500,315.714H500C369,315.715,224.476,357.2,175.031,449.766,128.887,536.153,184.8,657.329,255.192,701c44.354,27.52,79.349,15.658,98.745-31.269,16.907-40.9,82.933-63.545,146.063-63.546s129.156,22.642,146.063,63.546c19.4,46.927,54.391,58.789,98.745,31.269C815.2,657.329,871.113,536.153,824.969,449.766Z" transform="translate(0 0.244)" style="fill:#ee4823;stroke:#fff;stroke-miterlimit:10"/><path d="M824.969,449.766C775.524,357.2,631,315.715,500,315.714H500C369,315.715,224.476,357.2,175.031,449.766,128.887,536.153,184.8,657.329,255.192,701c44.354,27.52,79.349,15.658,98.745-31.269,16.907-40.9,82.933-63.545,146.063-63.546s129.156,22.642,146.063,63.546c19.4,46.927,54.391,58.789,98.745,31.269C815.2,657.329,871.113,536.153,824.969,449.766Z" transform="translate(0 0.244)" style="fill:#ee4823"/><rect x="597.989" y="397.034" width="82.723" height="29.609" rx="14.805" transform="translate(-107.211 267.079) rotate(-21.796)" style="fill:#de1e26"/><circle cx="304.212" cy="498.025" r="108.095" style="fill:#de1e26"/><path d="M500,337.935H500c124.152,0,259.719,35,325.152,112.2-.064-.122-.123-.245-.187-.366C775.524,357.2,631,315.715,500,315.714H500C369,315.715,224.476,357.2,175.031,449.766c-.064.121-.123.244-.187.366C240.277,372.935,375.844,337.937,500,337.935Z" transform="translate(0 0.244)" style="fill:#f48551"/><path d="M826.292,452.347c3.121,31.654,7.994,69.209-48.286,97.693-41.749,21.129-73,28.152-96.58,42.83-53.477,33.3-81.961,17.564-121.825-31.814-16.858,0-140.452,1.152-162.784,0-43.993,81.321-138.832,69.6-179.237,27.606-43.2-44.9-48.313-108-43.872-136.315C130.012,538.55,185.5,657.761,255.192,701c44.354,27.52,79.349,15.658,98.745-31.269,16.907-40.9,82.933-63.545,146.063-63.546s129.156,22.642,146.063,63.546c19.4,46.927,54.391,58.789,98.745,31.269C814.5,657.761,869.988,538.55,826.292,452.347Z" transform="translate(0 0.244)" style="fill:#de1e26"/><path d="M500,327.714H500c124.738,0,261.343,36.39,322.077,116.912C770.105,355.668,628.544,315.715,500,315.714H500c-128.541,0-270.1,39.954-322.078,128.912C238.653,364.1,375.258,327.715,500,327.714Z" transform="translate(0 0.244)" style="fill:#282522"/><path d="M824.969,449.766C775.524,357.2,631,315.715,500,315.714H500C369,315.715,224.476,357.2,175.031,449.766,128.887,536.153,184.8,657.329,255.192,701c44.354,27.52,79.349,15.658,98.745-31.269,16.907-40.9,82.933-63.545,146.063-63.546s129.156,22.642,146.063,63.546c19.4,46.927,54.391,58.789,98.745,31.269C815.2,657.329,871.113,536.153,824.969,449.766Z" transform="translate(0 0.244)" style="fill:none;stroke:#282522;stroke-miterlimit:10;stroke-width:6px"/><circle cx="303.057" cy="506.863" r="106.708" style="fill:#de1e26"/><path d="M298.275,407.085a106.73,106.73,0,0,1,91.208,162.123,106.715,106.715,0,1,0-177.633-118A106.558,106.558,0,0,1,298.275,407.085Z" transform="translate(0 0.244)" style="fill:#f48551"/><path d="M608.748,369.429A578.956,578.956,0,0,0,500,359.205H500a576.745,576.745,0,0,0-114.745,11.417" transform="translate(0 0.244)" style="fill:none;stroke:#de1e26;stroke-linecap:round;stroke-miterlimit:10;stroke-width:12px"/><circle cx="303.057" cy="506.863" r="85.153" style="fill:#ee4823"/><circle cx="303.057" cy="506.863" r="65.689" style="fill:#282522"/><circle cx="303.057" cy="506.863" r="65.689" style="fill:none;stroke:#282522;stroke-miterlimit:10;stroke-width:6px"/><path d="M317.049,455.005a9.971,9.971,0,0,0-9.146-9.956q-2.4-.192-4.846-.194t-4.845.193a9.973,9.973,0,0,0-9.146,9.957v16.806a20.817,20.817,0,0,1-20.817,20.817H251.443a9.973,9.973,0,0,0-9.957,9.146q-.19,2.4-.193,4.845t.193,4.846a9.973,9.973,0,0,0,9.957,9.146h16.806a20.817,20.817,0,0,1,20.817,20.817v16.806a9.973,9.973,0,0,0,9.146,9.957q2.4.19,4.845.193t4.846-.193a9.973,9.973,0,0,0,9.146-9.957V541.428a20.817,20.817,0,0,1,20.817-20.817h16.806a9.971,9.971,0,0,0,9.956-9.146q.192-2.4.193-4.846t-.193-4.845a9.971,9.971,0,0,0-9.956-9.146H337.866a20.817,20.817,0,0,1-20.817-20.817Z" transform="translate(0 0.244)" style="fill:#0d1622"/><circle cx="303.057" cy="506.863" r="106.708" style="fill:none;stroke:#282522;stroke-miterlimit:10;stroke-width:6px"/><circle cx="303.057" cy="506.863" r="20.826" style="fill:#ee4823"/><path d="M292.227,512.522a12.333,12.333,0,0,1,10.831-18.239" transform="translate(0 0.244)" style="fill:none;stroke:#282522;stroke-linecap:round;stroke-miterlimit:10;stroke-width:4px"/><path d="M319.833,494.316a20.813,20.813,0,0,1-35.991,20.337,20.819,20.819,0,1,0,35.991-20.337Z" transform="translate(0 0.244)" style="fill:#de1e26"/><circle cx="370.047" cy="439.879" r="2.137" style="fill:#f48551"/><circle cx="236.067" cy="573.86" r="2.137" style="fill:#f48551"/><circle cx="370.047" cy="573.86" r="2.137" style="fill:#f48551"/><circle cx="236.067" cy="439.879" r="2.137" style="fill:#f48551"/><path d="M809.369,514.238c20.02-27.323,10.118-73.672-25.3-86.636-38.033-13.923-92.14,1.624-123.764,17.07-30.7,14.994-89.032,44.587-99.782,87.273-9.183,36.463,19.594,70.5,53.343,73.384,31.9,2.726,47.153-19.868,106.993-44.8C748.238,549.128,790.444,540.067,809.369,514.238Z" transform="translate(0 0.244)" style="fill:#de1e26"/><path d="M658.705,453.5c31.625-15.446,85.732-30.993,123.765-17.07,25.419,9.306,37.692,35.811,35.192,60.136,6.909-26.382-5.047-58.512-33.588-68.96-38.033-13.923-92.14,1.624-123.764,17.07-30.7,14.994-89.032,44.587-99.782,87.273a57.044,57.044,0,0,0-1.411,8.108C570.336,497.754,628.179,468.406,658.705,453.5Z" transform="translate(0 0.244)" style="fill:#f48551"/><circle cx="617.816" cy="550.359" r="32.248" style="fill:#282522;stroke:#282522;stroke-miterlimit:10;stroke-width:6px"/><path d="M597.047,558.088a22.273,22.273,0,0,1,12.8-28.743" transform="translate(0 0.244)" style="fill:#282522;stroke:#282522;stroke-linecap:round;stroke-miterlimit:10;stroke-width:4px"/><circle cx="689.375" cy="517.887" r="32.248" style="fill:#282522;stroke:#282522;stroke-miterlimit:10"/><circle cx="689.375" cy="517.887" r="32.248" style="fill:#282522;stroke:#282522;stroke-miterlimit:10;stroke-width:6px"/><path d="M668.605,525.617a22.274,22.274,0,0,1,12.8-28.744" transform="translate(0 0.244)" style="fill:#282522;stroke:#282522;stroke-linecap:round;stroke-miterlimit:10;stroke-width:4px"/><circle cx="760.332" cy="485.415" r="32.248" style="fill:#282522;stroke:#282522;stroke-miterlimit:10"/><circle cx="760.332" cy="485.415" r="32.248" style="fill:#282522;stroke:#282522;stroke-miterlimit:10;stroke-width:6px"/><path d="M739.562,493.145a22.274,22.274,0,0,1,12.8-28.744" transform="translate(0 0.244)" style="fill:#282522;stroke:#282522;stroke-linecap:round;stroke-miterlimit:10;stroke-width:4px"/><path d="M809.369,514.238c20.02-27.323,10.118-73.672-25.3-86.636-38.033-13.923-92.14,1.624-123.764,17.07-30.7,14.994-89.032,44.587-99.782,87.273-9.183,36.463,19.594,70.5,53.343,73.384,31.9,2.726,47.153-19.868,106.993-44.8C748.238,549.128,790.444,540.067,809.369,514.238Z" transform="translate(0 0.244)" style="fill:none;stroke:#282522;stroke-miterlimit:10;stroke-width:6px"/><circle cx="618.476" cy="543.788" r="32.248" style="fill:#ee4823"/><path d="M648.581,531.987a32.085,32.085,0,0,0-9.419-13.18,32.248,32.248,0,0,1-47.96,41.946,32.248,32.248,0,0,0,57.379-28.766Z" transform="translate(0 0.244)" style="fill:#de1e26"/><circle cx="618.476" cy="543.788" r="32.248" style="fill:none;stroke:#282522;stroke-miterlimit:10;stroke-width:6px"/><path d="M597.706,551.518a22.274,22.274,0,0,1,12.8-28.744" transform="translate(0 0.244)" style="fill:none;stroke:#282522;stroke-linecap:round;stroke-miterlimit:10;stroke-width:4px"/><circle cx="687.592" cy="510.676" r="32.248" style="fill:#ee4823"/><path d="M717.7,498.875a32.094,32.094,0,0,0-9.419-13.18,32.248,32.248,0,0,1-47.961,41.946,32.249,32.249,0,0,0,57.38-28.766Z" transform="translate(0 0.244)" style="fill:#de1e26"/><circle cx="687.592" cy="510.676" r="32.248" style="fill:none;stroke:#282522;stroke-miterlimit:10;stroke-width:6px"/><path d="M666.823,518.405a22.272,22.272,0,0,1,12.8-28.743" transform="translate(0 0.244)" style="fill:none;stroke:#282522;stroke-linecap:round;stroke-miterlimit:10;stroke-width:4px"/><rect x="608.177" y="398.291" width="67.71" height="18" rx="9" transform="matrix(0.929, -0.371, 0.371, 0.929, -105.331, 267.75)" style="fill:#ee4823"/><rect x="608.177" y="398.291" width="67.71" height="18" rx="9" transform="matrix(0.929, -0.371, 0.371, 0.929, -105.331, 267.75)" style="fill:none;stroke:#282522;stroke-miterlimit:10;stroke-width:6px"/><path d="M612.324,394.469c-1.548.619-3.023.385-3.483-.765l1.359-.543c.269.511.886.762,1.765.411s1.232-.959,1.012-1.511c-.628-1.571-4.33,1.092-5.287-1.3-.457-1.141.339-2.283,1.92-2.916,1.481-.592,2.79-.356,3.347.712l-1.4.561c-.22-.421-.837-.641-1.647-.339-.742.275-1.191.8-.94,1.428.587,1.468,4.319-1.087,5.269,1.288C614.624,392.466,614.051,393.779,612.324,394.469Z" transform="translate(0 0.244)" style="fill:#f48551"/><path d="M614.593,385.949l5.4-2.16.347.869-2.06.824,2.251,5.629-1.269.508-2.251-5.629-2.071.828Z" transform="translate(0 0.244)" style="fill:#f48551"/><path d="M629.126,386.135l-3.241,1.3-.025,1.551-1.325.53.17-7.617,1.47-.588,5.375,5.4-1.336.535Zm-3.171-3.245-.061,3.528,2.528-1.011Z" transform="translate(0 0.244)" style="fill:#f48551"/><path d="M633.945,378.21c1.837-.735,3.094-.207,3.517.849a2.093,2.093,0,0,1-1.049,2.578l2.992,1.927-1.514.606-2.821-1.887-.969.387,1.039,2.6-1.269.507-2.6-6.5Zm.348.869-1.4.562.871,2.178,1.4-.561c.991-.4,1.253-1.032,1-1.678S635.284,378.683,634.293,379.079Z" transform="translate(0 0.244)" style="fill:#f48551"/><path d="M639.027,376.177l5.4-2.159.348.869-2.06.824,2.251,5.629-1.27.508-2.251-5.629-2.071.828Z" transform="translate(0 0.244)" style="fill:#f48551"/><path d="M500,315.714H500c-48.4,0-98.64,5.671-145.255,17.482,8.1,2.824,16.9,5.384,26.271,7.65A573.343,573.343,0,0,1,500,328.476H500a578.968,578.968,0,0,1,101.7,8.97,235,235,0,0,0,24.864-8.618A609.527,609.527,0,0,0,500,315.714Z" transform="translate(0 0.244)" style="fill:#ef4923"/><path d="M500,321.984H500a614.029,614.029,0,0,1,115.845,10.939c3.719-1.312,7.3-2.677,10.717-4.1A609.527,609.527,0,0,0,500,315.714H500c-48.4,0-98.64,5.671-145.255,17.482,3.587,1.25,7.317,2.445,11.165,3.589A605.783,605.783,0,0,1,500,321.984Z" transform="translate(0 0.244)" style="fill:#f48551"/><path d="M500,315.714H500c-48.4,0-98.64,5.671-145.255,17.482,8.1,2.824,16.9,5.384,26.271,7.65A573.343,573.343,0,0,1,500,328.476H500a578.968,578.968,0,0,1,101.7,8.97,235,235,0,0,0,24.864-8.618A609.527,609.527,0,0,0,500,315.714Z" transform="translate(0 0.244)" style="fill:none;stroke:#282522;stroke-miterlimit:10;stroke-width:6px"/><circle cx="761.059" cy="475.955" r="32.248" style="fill:#ee4823"/><path d="M791.164,464.154a32.1,32.1,0,0,0-9.418-13.18,32.248,32.248,0,0,1-47.961,41.946,32.248,32.248,0,0,0,57.379-28.766Z" transform="translate(0 0.244)" style="fill:#de1e26"/><circle cx="761.059" cy="475.955" r="32.248" style="fill:none;stroke:#282522;stroke-miterlimit:10;stroke-width:6px"/><path d="M740.289,483.685a22.273,22.273,0,0,1,12.8-28.743" transform="translate(0 0.244)" style="fill:none;stroke:#282522;stroke-linecap:round;stroke-miterlimit:10;stroke-width:4px"/><path d="M488.958,312.971h-10v-119.4a19.822,19.822,0,0,0-19.8-19.8h-187.5a29.8,29.8,0,0,1,0-59.6h397.5a19.8,19.8,0,0,0,0-39.6h-160.5a29.834,29.834,0,0,1-29.8-29.8V-.244h10V44.771a19.823,19.823,0,0,0,19.8,19.8h160.5a29.8,29.8,0,0,1,0,59.6h-397.5a19.8,19.8,0,0,0,0,39.6h187.5a29.833,29.833,0,0,1,29.8,29.8Z" transform="translate(0 0.244)" style="fill:#282522"/><rect x="463.666" y="244.989" width="39.741" height="10.728" style="fill:#282522"/><rect x="457.122" y="255.104" width="52.829" height="10.728" style="fill:#302e2c"/><rect x="463.666" y="265.218" width="39.741" height="10.728" style="fill:#282522"/><rect x="457.122" y="275.333" width="52.829" height="10.728" style="fill:#302e2c"/><rect x="463.666" y="285.447" width="39.741" height="10.728" style="fill:#282522"/><rect x="463.666" y="304.013" width="39.741" height="10.728" style="fill:#282522"/><rect x="457.122" y="295.562" width="52.829" height="10.728" style="fill:#302e2c"/><path d="M308.775,416.835l-4.914-9.014a.9.9,0,0,0-1.608,0l-4.915,9.014a1.007,1.007,0,0,0,.8,1.5h9.917A1,1,0,0,0,308.775,416.835Z" transform="translate(0 0.244)" style="fill:#f48551"/><path d="M297.34,596.4l4.914,9.015a.9.9,0,0,0,1.608,0l4.915-9.015a1.007,1.007,0,0,0-.805-1.5h-9.918A1.006,1.006,0,0,0,297.34,596.4Z" transform="translate(0 0.244)" style="fill:#f48551"/><path d="M392.847,512.337l9.014-4.914a.9.9,0,0,0,0-1.608l-9.014-4.914a1.006,1.006,0,0,0-1.5.8v9.918A1,1,0,0,0,392.847,512.337Z" transform="translate(0 0.244)" style="fill:#f48551"/><path d="M213.278,500.9l-9.015,4.914a.9.9,0,0,0,0,1.608l9.015,4.915a1.007,1.007,0,0,0,1.5-.805v-9.917A1,1,0,0,0,213.278,500.9Z" transform="translate(0 0.244)" style="fill:#f48551"/><path d="M636.891,480.04s20.932-15.873,65.732-29.417" transform="translate(0 0.244)" style="fill:none;stroke:#f48551;stroke-linecap:round;stroke-miterlimit:10;stroke-width:6px"/><path d="M452.177,491.617h11.649a6.342,6.342,0,1,0,0-12.683l-3.286-.044a3.417,3.417,0,1,1-.013-6.833h11.625l0,1.959-11.619,0a1.473,1.473,0,0,0,0,2.946l3.288-.017a8.332,8.332,0,1,1,0,16.664l-11.639.012Z" transform="translate(0 0.244)" style="fill:#f48551"/><path d="M482.977,493.588a6.944,6.944,0,0,1-6.948-6.925V474.079a6.942,6.942,0,0,1,6.948-6.92h12.492v1.966l-12.492,0a4.958,4.958,0,0,0-4.99,4.913v12.627a4.99,4.99,0,0,0,4.99,4.979l12.434,0v1.955Zm-30.8-4.9,0-1.947,11.623-.009a1.456,1.456,0,1,0,0-2.911l-3.264-.005a8.329,8.329,0,1,1,0-16.657h11.619l0,1.974-11.625,0a6.344,6.344,0,1,0,0,12.688l3.288.036a3.414,3.414,0,1,1,.011,6.828Z" transform="translate(0 0.244)" style="fill:#f48551"/><path d="M505.914,493.588a6.958,6.958,0,0,1-6.976-6.925V474.079a6.941,6.941,0,0,1,6.946-6.92h12.1v1.964H505.914a4.964,4.964,0,0,0-4.961,4.956v12.584a4.976,4.976,0,0,0,4.972,4.969h10.089V478.9h-7.262v-1.954h9.23v16.649Zm-22.937-4.908a2.024,2.024,0,0,1-2.028-2.017v-4.824H492.6V483.8h-9.711l.013,1.013a1.916,1.916,0,0,0,1.939,1.923h10.572v1.938ZM480.95,478.9l0-4.818a2.029,2.029,0,0,1,2.023-2.031h12.492v1.972H484.845a1.905,1.905,0,0,0-1.945,1.91l-.013,1.013H492.6V478.9Z" transform="translate(0 0.244)" style="fill:#f48551"/><path d="M524.637,493.59l7.572-22.278a.29.29,0,0,1,.274-.187c.181.046.246.111.276.2l5.893,17.41H531.76l.006-2.408h3.5l-2.785-8.278-5.273,15.545ZM505.914,488.7a2.037,2.037,0,0,1-2.029-2.04V474.079a2.032,2.032,0,0,1,2.029-2.03l12.069,0,0,1.951H507.769a1.923,1.923,0,0,0-1.937,1.947l.021,8.858a1.93,1.93,0,0,0,1.926,1.929h3.341L511.1,483.8h-2.337v-1.967h4.315V488.7Z" transform="translate(0 0.244)" style="fill:#f48551"/><path d="M519.445,493.591l7.978-23.4a5.4,5.4,0,0,1,10.1-.023l7.915,23.42H531.773v-1.958h10.949l-7.263-21.4a3.235,3.235,0,0,0-2.985-2.029,3.2,3.2,0,0,0-2.961,1.971l-7.977,23.415Z" transform="translate(0 0.244)" style="fill:#f48551"/></svg>