<?xml version="1.0" encoding="utf-8"?>
<!-- Generator: Adobe Illustrator 24.1.0, SVG Export Plug-In . SVG Version: 6.00 Build 0)  -->
<svg version="1.1" id="Layer_1" xmlns="http://www.w3.org/2000/svg" xmlns:xlink="http://www.w3.org/1999/xlink" x="0px" y="0px"
	 viewBox="0 0 1000 1000" style="enable-background:new 0 0 1000 1000;" xml:space="preserve">
<style type="text/css">
	.st0{fill:#FFFFFF;}
	.st1{fill:#606060;}
	.st2{fill:#00E7E9;}
	.st3{fill:#00D3DE;}
	.st4{fill:#586B87;}
	.st5{fill:none;stroke:#171819;stroke-width:6;stroke-linecap:round;stroke-linejoin:round;stroke-miterlimit:10;}
	.st6{fill:#FFDEC5;}
	.st7{fill:#F9C0B2;}
	.st8{fill:#FFABCD;}
	.st9{fill:#FFCAE2;}
	.st10{fill:#DD76A5;}
	.st11{fill:#00A8FF;}
	.st12{fill:#008AEE;}
	.st13{fill:none;stroke:#FFFFFF;stroke-width:6;stroke-linecap:round;stroke-linejoin:round;stroke-miterlimit:10;}
	.st14{fill:#FFE870;}
	.st15{fill:#FFAC73;}
	.st16{fill:#09C690;}
	.st17{fill:#FF4F7C;}
	.st18{fill:#171819;}
	.st19{fill:#637593;}
</style>
<rect class="st0" width="1000" height="1000"/>
<g>
	<g>
		<g>
			<g>
				<path class="st1" d="M63.2,959.2c0,2.5-1.2,3.7-2.6,3.7c-1.1,0-1.9-0.5-2.1-1.4c-0.4,0.5-1,0.8-1.8,0.8c-1.5,0-2.6-1.2-2.6-2.8
					s1.1-2.8,2.6-2.8c0.7,0,1.2,0.3,1.6,0.7v-0.5h1.6v3.9c0,0.8,0.3,1.4,1,1.4c0.9,0,1.7-0.9,1.7-3c0-3-2.3-5.3-5.4-5.3
					c-3.1,0-5.6,2.4-5.6,5.7s2.5,5.7,5.9,5.7c1.1,0,2.1-0.2,2.9-0.4v0.6c-0.8,0.3-1.7,0.4-2.9,0.4c-3.7,0-6.5-2.6-6.5-6.2
					c0-3.4,2.7-6.2,6.2-6.2C61.1,953.3,63.2,956.4,63.2,959.2z M58.3,959.5c0-0.8-0.6-1.4-1.3-1.4c-0.8,0-1.3,0.5-1.3,1.4
					c0,0.8,0.6,1.3,1.3,1.3C57.8,960.9,58.3,960.3,58.3,959.5z"/>
			</g>
		</g>
		<g>
			<g>
				<path class="st1" d="M69.4,955.1v2c-1.2-0.1-2.6,0.5-2.6,2.4v4.3h-1.9v-8.6h1.9v1.4C67.3,955.5,68.3,955.1,69.4,955.1z"/>
			</g>
		</g>
		<g>
			<g>
				<path class="st1" d="M74.6,962.3c1,0,1.8-0.5,2.2-1.1l1.5,0.9c-0.8,1.2-2.1,1.9-3.8,1.9c-2.8,0-4.7-1.9-4.7-4.5
					c0-2.5,1.8-4.5,4.5-4.5c2.6,0,4.3,2.1,4.3,4.5c0,0.3,0,0.5-0.1,0.8h-6.8C72.1,961.6,73.2,962.3,74.6,962.3z M76.9,958.8
					c-0.3-1.5-1.3-2.1-2.5-2.1c-1.4,0-2.3,0.8-2.6,2.1H76.9z"/>
			</g>
		</g>
		<g>
			<g>
				<path class="st1" d="M88.9,955.2v8.6H87v-1.2c-0.7,0.9-1.7,1.5-3,1.5c-2.3,0-4.3-2-4.3-4.5c0-2.6,1.9-4.5,4.3-4.5
					c1.3,0,2.3,0.5,3,1.4v-1.2L88.9,955.2L88.9,955.2z M87.1,959.5c0-1.6-1.2-2.7-2.7-2.7s-2.7,1.1-2.7,2.7c0,1.6,1.2,2.7,2.7,2.7
					C85.9,962.3,87.1,961.1,87.1,959.5z"/>
			</g>
		</g>
		<g>
			<g>
				<path class="st1" d="M91.1,951.3H93v12.5h-1.9V951.3z"/>
			</g>
		</g>
		<g>
			<g>
				<path class="st1" d="M102.9,955.2l-3.3,8.6h-2.1l-3.3-8.6h2l2.4,6.5l2.4-6.5H102.9z"/>
			</g>
		</g>
		<g>
			<g>
				<path class="st1" d="M104.2,955.2h1.9v8.9c0,2.4-1.2,3.5-3.5,3.3v-1.8c1.1,0.1,1.7-0.3,1.7-1.5L104.2,955.2L104.2,955.2z
					 M104,952.8c0-0.7,0.5-1.2,1.2-1.2s1.2,0.5,1.2,1.2c0,0.6-0.5,1.2-1.2,1.2S104,953.4,104,952.8z"/>
			</g>
		</g>
		<g>
			<g>
				<path class="st1" d="M116,955.2l-3.3,8.8c-0.8,2.2-2.2,3.3-4.2,3.2v-1.7c1.2,0.1,1.9-0.5,2.3-1.7l0.1-0.2l-3.6-8.4h2l2.6,6.2
					l2.2-6.2L116,955.2L116,955.2z"/>
			</g>
		</g>
	</g>
	<g>
		<g>
			<path class="st1" d="M58.9,938.7c0,2.1-1.5,3.8-3.6,3.8h-3v-7.6h3C57.4,934.9,58.9,936.6,58.9,938.7z M57.9,938.7
				c0-1.6-1.1-2.9-2.6-2.9h-2v5.7h2C56.8,941.6,57.9,940.3,57.9,938.7z"/>
		</g>
		<g>
			<path class="st1" d="M67,941.6v1h-4.6V935h4.5v1h-3.5v2.3h3.2v0.9h-3.2v2.4L67,941.6L67,941.6z"/>
		</g>
		<g>
			<path class="st1" d="M70,940.8l0.9-0.5c0.3,0.8,0.9,1.4,2,1.4s1.6-0.5,1.6-1.2c0-0.8-0.7-1-1.8-1.4c-1.2-0.4-2.4-0.8-2.4-2.2
				s1.1-2.2,2.4-2.2s2.2,0.7,2.6,1.7l-0.8,0.5c-0.3-0.7-0.8-1.2-1.7-1.2c-0.8,0-1.4,0.4-1.4,1.1c0,0.7,0.5,1,1.6,1.3
				c1.3,0.4,2.6,0.8,2.6,2.3c0,1.3-1.1,2.2-2.6,2.2C71.5,942.7,70.4,941.9,70,940.8z"/>
		</g>
		<g>
			<path class="st1" d="M80,934.9v7.6h-1v-7.6H80z"/>
		</g>
		<g>
			<path class="st1" d="M91.3,939.2c0,1.9-1.4,3.5-3.7,3.5c-2.4,0-4-1.8-4-4s1.7-4,4-4c1.4,0,2.7,0.8,3.3,1.8L90,937
				c-0.4-0.8-1.4-1.4-2.4-1.4c-1.8,0-3,1.3-3,3s1.2,3,3,3c1.6,0,2.5-0.9,2.7-2h-2.8v-0.9h3.8V939.2z"/>
		</g>
		<g>
			<path class="st1" d="M100.6,934.9v7.6h-0.8l-3.9-5.7v5.7h-1v-7.6h0.8l3.9,5.7v-5.7H100.6z"/>
		</g>
		<g>
			<path class="st1" d="M109.1,941.6v1h-4.6V935h4.5v1h-3.5v2.3h3.2v0.9h-3.2v2.4L109.1,941.6L109.1,941.6z"/>
		</g>
		<g>
			<path class="st1" d="M119.2,938.7c0,2.1-1.5,3.8-3.6,3.8h-3v-7.6h3C117.6,934.9,119.2,936.6,119.2,938.7z M118.2,938.7
				c0-1.6-1.1-2.9-2.6-2.9h-2v5.7h2C117.1,941.6,118.2,940.3,118.2,938.7z"/>
		</g>
		<g>
			<path class="st1" d="M133.2,940.4c0,1.2-1,2.2-2.2,2.2h-3.3V935h3c1.2,0,2.1,0.9,2.1,2.1c0,0.7-0.3,1.2-0.8,1.6
				C132.7,938.9,133.2,939.5,133.2,940.4z M128.7,935.8v2.3h2c0.6,0,1.1-0.5,1.1-1.2c0-0.6-0.5-1.2-1.1-1.2h-2V935.8z M132.2,940.3
				c0-0.7-0.5-1.2-1.2-1.2h-2.3v2.5h2.3C131.7,941.6,132.2,941,132.2,940.3z"/>
		</g>
		<g>
			<path class="st1" d="M139.4,939.4v3.1h-1v-3.1l-2.7-4.5h1.1l2.1,3.6l2.1-3.6h1.1L139.4,939.4z"/>
		</g>
	</g>
	<g>
		<g>
			<g>
				<g>
					<path class="st1" d="M846.1,938.7c0,2.1-1.5,3.8-3.6,3.8h-3v-7.6h3C844.6,934.9,846.1,936.6,846.1,938.7z M845.2,938.7
						c0-1.6-1.1-2.9-2.6-2.9h-2v5.7h2C844.1,941.6,845.2,940.3,845.2,938.7z"/>
				</g>
			</g>
			<g>
				<g>
					<path class="st1" d="M849.3,938.7c0-2.2,1.7-4,3.9-4s4,1.8,4,4s-1.7,4-4,4C851,942.7,849.3,940.9,849.3,938.7z M856.1,938.7
						c0-1.7-1.3-3-2.9-3c-1.7,0-2.9,1.3-2.9,3s1.3,3,2.9,3C854.9,941.7,856.1,940.4,856.1,938.7z"/>
				</g>
			</g>
			<g>
				<g>
					<path class="st1" d="M859.8,934.9h1.1l1.7,6.3l1.9-6.3h1l1.9,6.3l1.7-6.3h1.1l-2.2,7.6h-1.2l-1.8-6.1l-1.8,6.1H862L859.8,934.9
						z"/>
				</g>
			</g>
			<g>
				<g>
					<path class="st1" d="M879.3,934.9v7.6h-0.8l-3.9-5.7v5.7h-1v-7.6h0.8l3.9,5.7v-5.7H879.3z"/>
				</g>
			</g>
			<g>
				<g>
					<path class="st1" d="M887.5,941.6v1h-4.3V935h1v6.7h3.3V941.6z"/>
				</g>
			</g>
			<g>
				<g>
					<path class="st1" d="M889.9,938.7c0-2.2,1.7-4,3.9-4s4,1.8,4,4s-1.7,4-4,4C891.6,942.7,889.9,940.9,889.9,938.7z M896.8,938.7
						c0-1.7-1.3-3-2.9-3c-1.7,0-2.9,1.3-2.9,3s1.3,3,2.9,3S896.8,940.4,896.8,938.7z"/>
				</g>
			</g>
			<g>
				<g>
					<path class="st1" d="M905.4,940.8H902l-0.6,1.7h-1.1l2.8-7.6h1.1l2.8,7.6h-1L905.4,940.8z M905.1,939.9l-1.4-3.8l-1.4,3.8
						H905.1z"/>
				</g>
			</g>
			<g>
				<g>
					<path class="st1" d="M916.9,938.7c0,2.1-1.5,3.8-3.6,3.8h-3v-7.6h3C915.4,934.9,916.9,936.6,916.9,938.7z M915.9,938.7
						c0-1.6-1.1-2.9-2.6-2.9h-2v5.7h2C914.9,941.6,915.9,940.3,915.9,938.7z"/>
				</g>
			</g>
			<g>
				<g>
					<path class="st1" d="M926.5,935.8v2.5h3.2v1h-3.2v3.2h-1v-7.6h4.4v1h-3.4V935.8z"/>
				</g>
			</g>
			<g>
				<g>
					<path class="st1" d="M936.2,939.6h-1.8v2.9h-1v-7.6h3c1.3,0,2.4,1.1,2.4,2.4c0,1-0.7,1.9-1.6,2.2l1.8,3.1h-1.1L936.2,939.6z
						 M934.4,938.7h2c0.8,0,1.4-0.6,1.4-1.4c0-0.8-0.6-1.4-1.4-1.4h-2V938.7z"/>
				</g>
			</g>
			<g>
				<g>
					<path class="st1" d="M941.9,938.7c0-2.2,1.7-4,3.9-4s4,1.8,4,4s-1.7,4-4,4C943.6,942.7,941.9,940.9,941.9,938.7z M948.8,938.7
						c0-1.7-1.3-3-2.9-3c-1.7,0-2.9,1.3-2.9,3s1.3,3,2.9,3S948.8,940.4,948.8,938.7z"/>
				</g>
			</g>
			<g>
				<g>
					<path class="st1" d="M960.4,942.5h-1v-6l-2.5,4.2h-0.1l-2.5-4.1v5.9h-1v-7.6h1.1l2.4,4l2.4-4h1.1L960.4,942.5L960.4,942.5z"/>
				</g>
			</g>
		</g>
		<g>
			<g>
				<g>
					<path class="st1" d="M839.3,952.9c0-0.7,0.5-1.2,1.2-1.2s1.2,0.5,1.2,1.2s-0.5,1.2-1.2,1.2
						C839.9,954.1,839.3,953.6,839.3,952.9z M839.6,955.4h1.9v8.9h-1.9V955.4z"/>
				</g>
			</g>
			<g>
				<g>
					<path class="st1" d="M843.7,951.4h1.9v12.9h-1.9V951.4z"/>
				</g>
			</g>
			<g>
				<g>
					<path class="st1" d="M847.8,951.4h1.9v12.9h-1.9V951.4z"/>
				</g>
			</g>
			<g>
				<g>
					<path class="st1" d="M852,951.4h1.9v12.9H852V951.4z"/>
				</g>
			</g>
			<g>
				<g>
					<path class="st1" d="M864,955.4v8.9h-1.9v-1.1c-0.6,0.9-1.5,1.4-2.7,1.4c-2,0-3.4-1.3-3.4-3.6v-5.4h1.9v5.2
						c0,1.3,0.8,2.1,2,2.1c1.3,0,2.2-0.7,2.2-2.5v-4.7h1.9V955.4z"/>
				</g>
			</g>
			<g>
				<g>
					<path class="st1" d="M872.6,961.8c0,1.8-1.5,2.7-3.5,2.7c-1.8,0-3-0.8-3.6-2.1l1.6-1c0.3,0.8,1,1.3,2,1.3c0.8,0,1.5-0.3,1.5-1
						c0-1.6-4.8-0.7-4.8-3.9c0-1.7,1.4-2.7,3.2-2.7c1.5,0,2.7,0.7,3.3,1.8l-1.6,0.9c-0.3-0.7-0.9-1-1.7-1c-0.7,0-1.3,0.3-1.3,0.9
						C867.9,959.5,872.6,958.5,872.6,961.8z"/>
				</g>
			</g>
			<g>
				<g>
					<path class="st1" d="M876.7,957.3v4.2c0,1.1,0.7,1.1,2.2,1v1.7c-2.9,0.4-4.1-0.5-4.1-2.8v-4.2h-1.6v-1.8h1.6v-1.9l1.9-0.6v2.5
						h2.2v1.8L876.7,957.3L876.7,957.3z"/>
				</g>
			</g>
			<g>
				<g>
					<path class="st1" d="M885.4,955.3v2.1c-1.3-0.1-2.7,0.5-2.7,2.5v4.5h-1.9v-8.9h1.9v1.5C883.2,955.7,884.2,955.3,885.4,955.3z"
						/>
				</g>
			</g>
			<g>
				<g>
					<path class="st1" d="M895.3,955.4v8.9h-1.9V963c-0.7,0.9-1.7,1.5-3.1,1.5c-2.4,0-4.4-2-4.4-4.7c0-2.6,2-4.7,4.4-4.7
						c1.4,0,2.4,0.6,3.1,1.5v-1.3h1.9V955.4z M893.4,959.9c0-1.6-1.2-2.8-2.8-2.8s-2.8,1.2-2.8,2.8s1.2,2.8,2.8,2.8
						S893.4,961.5,893.4,959.9z"/>
				</g>
			</g>
			<g>
				<g>
					<path class="st1" d="M900.3,957.3v4.2c0,1.1,0.7,1.1,2.2,1v1.7c-2.9,0.4-4.1-0.5-4.1-2.8v-4.2h-1.6v-1.8h1.6v-1.9l1.9-0.6v2.5
						h2.2v1.8L900.3,957.3L900.3,957.3z"/>
				</g>
			</g>
			<g>
				<g>
					<path class="st1" d="M903.9,952.9c0-0.7,0.5-1.2,1.2-1.2s1.2,0.5,1.2,1.2s-0.5,1.2-1.2,1.2
						C904.5,954.1,903.9,953.6,903.9,952.9z M904.2,955.4h1.9v8.9h-1.9V955.4z"/>
				</g>
			</g>
			<g>
				<g>
					<path class="st1" d="M907.8,959.9c0-2.6,2.1-4.7,4.7-4.7c2.6,0,4.7,2,4.7,4.7c0,2.6-2.1,4.7-4.7,4.7
						C909.9,964.5,907.8,962.5,907.8,959.9z M915.3,959.9c0-1.6-1.2-2.8-2.8-2.8s-2.8,1.2-2.8,2.8s1.2,2.8,2.8,2.8
						S915.3,961.5,915.3,959.9z"/>
				</g>
			</g>
			<g>
				<g>
					<path class="st1" d="M927,958.9v5.4h-1.9v-5.2c0-1.3-0.8-2.1-2-2.1c-1.3,0-2.2,0.7-2.2,2.5v4.7H919v-8.9h1.9v1.1
						c0.6-0.9,1.5-1.4,2.7-1.4C925.5,955.2,927,956.6,927,958.9z"/>
				</g>
			</g>
			<g>
				<g>
					<path class="st1" d="M935.5,961.8c0,1.8-1.5,2.7-3.5,2.7c-1.8,0-3-0.8-3.6-2.1l1.6-1c0.3,0.8,1,1.3,2,1.3c0.8,0,1.5-0.3,1.5-1
						c0-1.6-4.8-0.7-4.8-3.9c0-1.7,1.4-2.7,3.2-2.7c1.5,0,2.7,0.7,3.3,1.8l-1.6,0.9c-0.3-0.7-0.9-1-1.7-1c-0.7,0-1.3,0.3-1.3,0.9
						C930.7,959.5,935.5,958.5,935.5,961.8z"/>
				</g>
			</g>
			<g>
				<g>
					<path class="st1" d="M936.8,963.2c0-0.7,0.6-1.3,1.3-1.3s1.3,0.6,1.3,1.3s-0.6,1.3-1.3,1.3
						C937.4,964.5,936.8,963.9,936.8,963.2z"/>
				</g>
			</g>
			<g>
				<g>
					<path class="st1" d="M940.3,959.9c0-2.6,2-4.7,4.7-4.7c1.7,0,3.2,0.9,3.9,2.3l-1.6,1c-0.4-0.8-1.3-1.4-2.3-1.4
						c-1.6,0-2.7,1.2-2.7,2.8s1.2,2.8,2.7,2.8c1.1,0,1.9-0.5,2.4-1.4l1.6,0.9c-0.7,1.4-2.2,2.3-4,2.3
						C942.3,964.5,940.3,962.5,940.3,959.9z"/>
				</g>
			</g>
			<g>
				<g>
					<path class="st1" d="M949.7,959.9c0-2.6,2.1-4.7,4.7-4.7c2.6,0,4.7,2,4.7,4.7c0,2.6-2.1,4.7-4.7,4.7
						C951.8,964.5,949.7,962.5,949.7,959.9z M957.2,959.9c0-1.6-1.2-2.8-2.8-2.8s-2.8,1.2-2.8,2.8s1.2,2.8,2.8,2.8
						S957.2,961.5,957.2,959.9z"/>
				</g>
			</g>
		</g>
	</g>
	<g>
		<path class="st1" d="M209.9,943.1c-1.2,0-2.2-0.4-3-1.2c-0.8-0.8-1.2-1.8-1.2-2.9c0-1.2,0.4-2.1,1.2-2.9c0.8-0.8,1.8-1.2,3-1.2
			c0.7,0,1.4,0.2,2,0.5c0.6,0.3,1.1,0.8,1.4,1.4l-0.9,0.5c-0.2-0.4-0.6-0.8-1-1s-0.9-0.4-1.5-0.4c-0.9,0-1.7,0.3-2.2,0.9
			c-0.6,0.6-0.9,1.3-0.9,2.2c0,0.9,0.3,1.6,0.9,2.2c0.6,0.6,1.3,0.9,2.2,0.9c0.5,0,1-0.1,1.5-0.4c0.5-0.3,0.8-0.6,1-1l0.9,0.5
			c-0.3,0.6-0.8,1.1-1.4,1.4C211.3,942.9,210.6,943.1,209.9,943.1z"/>
		<path class="st1" d="M222.1,941.9c-0.8,0.8-1.8,1.2-2.9,1.2s-2.1-0.4-2.9-1.2s-1.2-1.8-1.2-2.9c0-1.2,0.4-2.1,1.2-2.9
			c0.8-0.8,1.8-1.2,2.9-1.2s2.1,0.4,2.9,1.2c0.8,0.8,1.2,1.8,1.2,2.9C223.3,940.1,222.9,941.1,222.1,941.9z M217,941.2
			c0.6,0.6,1.3,0.9,2.2,0.9s1.6-0.3,2.2-0.9c0.6-0.6,0.9-1.3,0.9-2.2c0-0.9-0.3-1.6-0.9-2.2c-0.6-0.6-1.3-0.9-2.2-0.9
			s-1.6,0.3-2.2,0.9c-0.6,0.6-0.9,1.3-0.9,2.2C216.1,939.8,216.4,940.6,217,941.2z"/>
		<path class="st1" d="M227.3,942.9l-2.8-7.9h1.1l2.3,6.6l2.3-6.6h1.1l-2.8,7.9H227.3z"/>
		<path class="st1" d="M233.3,935h1.1v7.9h-1.1V935z"/>
		<path class="st1" d="M240.2,935c1.1,0,2,0.4,2.7,1.2c0.7,0.8,1.1,1.7,1.1,2.8s-0.4,2.1-1.1,2.8c-0.7,0.8-1.6,1.2-2.7,1.2h-3.1V935
			H240.2z M240.2,941.9c0.8,0,1.5-0.3,2-0.9c0.5-0.6,0.8-1.3,0.8-2.1s-0.3-1.6-0.8-2.1c-0.5-0.6-1.2-0.9-2-0.9h-2v5.9H240.2z"/>
		<path class="st1" d="M246.2,939.9v-1h4.1v1H246.2z"/>
		<path class="st1" d="M254.5,935h0.9v7.9h-1v-6.8l-1.7,0.5l-0.3-0.9L254.5,935z"/>
	</g>
	<g>
		<path class="st1" d="M208.1,964.8l-3.7-13h2.3l2.7,10.2l3-10.2h2l2.9,10.2l2.7-10.2h2.3l-3.7,13h-2.5l-2.8-9.5l-2.8,9.5H208.1z"/>
		<path class="st1" d="M227.1,965.1c-1.4,0-2.5-0.5-3.5-1.4s-1.4-2.1-1.4-3.5c0-1.4,0.5-2.5,1.4-3.5s2.1-1.4,3.5-1.4
			c1.4,0,2.5,0.5,3.5,1.4s1.4,2.1,1.4,3.5c0,1.4-0.5,2.5-1.4,3.5S228.5,965.1,227.1,965.1z M225,962.3c0.6,0.6,1.2,0.8,2.1,0.8
			c0.8,0,1.5-0.3,2.1-0.8c0.6-0.6,0.8-1.3,0.8-2.1s-0.3-1.5-0.8-2.1c-0.6-0.6-1.2-0.8-2.1-0.8c-0.8,0-1.5,0.3-2.1,0.8
			c-0.6,0.6-0.8,1.3-0.8,2.1S224.5,961.7,225,962.3z"/>
		<path class="st1" d="M235.8,957.1c0.5-1.2,1.5-1.7,2.9-1.7v2.2c-0.8,0-1.4,0.1-2,0.5c-0.6,0.4-0.9,1.1-0.9,2.1v4.7h-2v-9.3h2
			V957.1z"/>
		<path class="st1" d="M248.4,964.8H246l-3.8-4.3v4.3h-2v-13h2v7.8l3.6-4.1h2.5l-4.1,4.6L248.4,964.8z"/>
		<path class="st1" d="M262.2,953.9h-5.5v3.6h5.3v2h-5.3v5.3h-2.1v-13h7.6V953.9z"/>
		<path class="st1" d="M266.1,957.1c0.5-1.2,1.5-1.7,2.9-1.7v2.2c-0.8,0-1.4,0.1-2,0.5c-0.6,0.4-0.9,1.1-0.9,2.1v4.7h-2v-9.3h2
			V957.1z"/>
		<path class="st1" d="M274.4,965.1c-1.4,0-2.5-0.5-3.5-1.4s-1.4-2.1-1.4-3.5c0-1.4,0.5-2.5,1.4-3.5s2.1-1.4,3.5-1.4
			c1.4,0,2.5,0.5,3.5,1.4s1.4,2.1,1.4,3.5c0,1.4-0.5,2.5-1.4,3.5S275.7,965.1,274.4,965.1z M272.3,962.3c0.6,0.6,1.2,0.8,2.1,0.8
			c0.8,0,1.5-0.3,2.1-0.8c0.6-0.6,0.8-1.3,0.8-2.1s-0.3-1.5-0.8-2.1c-0.6-0.6-1.2-0.8-2.1-0.8c-0.8,0-1.5,0.3-2.1,0.8
			c-0.6,0.6-0.8,1.3-0.8,2.1S271.7,961.7,272.3,962.3z"/>
		<path class="st1" d="M291.3,955.3c1.1,0,1.9,0.3,2.5,1s1,1.6,1,2.8v5.8h-2v-5.6c0-0.6-0.2-1.1-0.5-1.5s-0.8-0.5-1.3-0.5
			c-0.6,0-1.1,0.2-1.5,0.6c-0.4,0.4-0.5,1-0.5,1.8v5.2h-2v-5.6c0-0.6-0.2-1.1-0.5-1.5c-0.3-0.4-0.7-0.5-1.3-0.5
			c-0.6,0-1.1,0.2-1.5,0.6c-0.4,0.4-0.6,1-0.6,1.8v5.2h-2v-9.3h2v1.1c0.6-0.9,1.5-1.4,2.7-1.4c1.2,0,2.1,0.5,2.6,1.5
			C289,955.8,290,955.3,291.3,955.3z"/>
		<path class="st1" d="M309.4,951.8h2.1v13h-2.1v-5.6h-5.6v5.6h-2.1v-13h2.1v5.3h5.6V951.8z"/>
		<path class="st1" d="M318.4,965.1c-1.4,0-2.5-0.5-3.5-1.4s-1.4-2.1-1.4-3.5c0-1.4,0.5-2.5,1.4-3.5s2.1-1.4,3.5-1.4
			c1.4,0,2.5,0.5,3.5,1.4s1.4,2.1,1.4,3.5c0,1.4-0.5,2.5-1.4,3.5S319.8,965.1,318.4,965.1z M316.4,962.3c0.6,0.6,1.2,0.8,2.1,0.8
			c0.8,0,1.5-0.3,2.1-0.8c0.6-0.6,0.8-1.3,0.8-2.1s-0.3-1.5-0.8-2.1c-0.6-0.6-1.2-0.8-2.1-0.8c-0.8,0-1.5,0.3-2.1,0.8
			c-0.6,0.6-0.8,1.3-0.8,2.1S315.8,961.7,316.4,962.3z"/>
		<path class="st1" d="M335.3,955.3c1.1,0,1.9,0.3,2.5,1s1,1.6,1,2.8v5.8h-2v-5.6c0-0.6-0.2-1.1-0.5-1.5s-0.8-0.5-1.3-0.5
			c-0.6,0-1.1,0.2-1.5,0.6c-0.4,0.4-0.5,1-0.5,1.8v5.2h-2v-5.6c0-0.6-0.2-1.1-0.5-1.5c-0.3-0.4-0.7-0.5-1.3-0.5
			c-0.6,0-1.1,0.2-1.5,0.6c-0.4,0.4-0.6,1-0.6,1.8v5.2h-2v-9.3h2v1.1c0.6-0.9,1.5-1.4,2.7-1.4c1.2,0,2.1,0.5,2.6,1.5
			C333.1,955.8,334.1,955.3,335.3,955.3z"/>
		<path class="st1" d="M342.6,961c0.1,0.7,0.5,1.2,1,1.6s1.2,0.6,2,0.6c1.1,0,1.9-0.4,2.4-1.2l1.7,1c-0.9,1.4-2.3,2-4.1,2
			c-1.5,0-2.7-0.5-3.7-1.4c-0.9-0.9-1.4-2.1-1.4-3.5c0-1.4,0.5-2.6,1.4-3.5c0.9-0.9,2.1-1.4,3.5-1.4c1.4,0,2.5,0.5,3.4,1.4
			c0.9,1,1.3,2.1,1.3,3.5c0,0.2,0,0.5-0.1,0.8H342.6z M342.6,959.4h5.5c-0.1-0.8-0.4-1.3-0.9-1.7c-0.5-0.4-1.1-0.6-1.7-0.6
			c-0.7,0-1.4,0.2-1.9,0.6C343,958.1,342.7,958.7,342.6,959.4z"/>
		<path class="st1" d="M356.6,960.1v-1.9h6.9v1.9H356.6z"/>
		<path class="st1" d="M374.1,964.8l-4.5-13h2.3l3.5,10.4l3.5-10.4h2.3l-4.5,13H374.1z"/>
		<path class="st1" d="M383.9,953.8c-0.3,0.3-0.6,0.4-0.9,0.4c-0.3,0-0.6-0.1-0.9-0.4c-0.3-0.3-0.4-0.6-0.4-0.9s0.1-0.6,0.4-0.9
			s0.6-0.4,0.9-0.4c0.4,0,0.7,0.1,0.9,0.4s0.4,0.6,0.4,0.9S384.2,953.5,383.9,953.8z M382,964.8v-9.3h2v9.3H382z"/>
		<path class="st1" d="M393.7,951.8h2v13h-2v-1.3c-0.8,1.1-1.8,1.6-3.3,1.6c-1.3,0-2.4-0.5-3.3-1.4c-0.9-0.9-1.4-2.1-1.4-3.5
			c0-1.4,0.5-2.5,1.4-3.5s2-1.4,3.3-1.4c1.4,0,2.5,0.5,3.3,1.6V951.8z M388.7,962.3c0.6,0.6,1.3,0.8,2.1,0.8c0.8,0,1.5-0.3,2.1-0.8
			s0.8-1.3,0.8-2.1s-0.3-1.6-0.8-2.1s-1.3-0.8-2.1-0.8c-0.8,0-1.5,0.3-2.1,0.8c-0.6,0.6-0.8,1.3-0.8,2.1S388.1,961.7,388.7,962.3z"
			/>
		<path class="st1" d="M399.7,961c0.1,0.7,0.5,1.2,1,1.6s1.2,0.6,2,0.6c1.1,0,1.9-0.4,2.4-1.2l1.7,1c-0.9,1.4-2.3,2-4.1,2
			c-1.5,0-2.7-0.5-3.7-1.4c-0.9-0.9-1.4-2.1-1.4-3.5c0-1.4,0.5-2.6,1.4-3.5c0.9-0.9,2.1-1.4,3.5-1.4c1.4,0,2.5,0.5,3.4,1.4
			c0.9,1,1.3,2.1,1.3,3.5c0,0.2,0,0.5-0.1,0.8H399.7z M399.7,959.4h5.5c-0.1-0.8-0.4-1.3-0.9-1.7c-0.5-0.4-1.1-0.6-1.7-0.6
			c-0.7,0-1.4,0.2-1.9,0.6C400.1,958.1,399.8,958.7,399.7,959.4z"/>
		<path class="st1" d="M413.2,965.1c-1.4,0-2.5-0.5-3.5-1.4s-1.4-2.1-1.4-3.5c0-1.4,0.5-2.5,1.4-3.5s2.1-1.4,3.5-1.4
			c1.4,0,2.5,0.5,3.5,1.4s1.4,2.1,1.4,3.5c0,1.4-0.5,2.5-1.4,3.5S414.6,965.1,413.2,965.1z M411.2,962.3c0.6,0.6,1.2,0.8,2.1,0.8
			c0.8,0,1.5-0.3,2.1-0.8c0.6-0.6,0.8-1.3,0.8-2.1s-0.3-1.5-0.8-2.1c-0.6-0.6-1.2-0.8-2.1-0.8c-0.8,0-1.5,0.3-2.1,0.8
			c-0.6,0.6-0.8,1.3-0.8,2.1S410.6,961.7,411.2,962.3z"/>
		<path class="st1" d="M430.9,965.1c-2,0-3.6-0.6-4.9-1.9c-1.3-1.3-1.9-2.9-1.9-4.8c0-1.9,0.6-3.5,1.9-4.8c1.3-1.3,2.9-1.9,4.9-1.9
			c1.2,0,2.3,0.3,3.3,0.8c1,0.6,1.8,1.3,2.3,2.3l-1.9,1.1c-0.3-0.6-0.9-1.2-1.5-1.5c-0.7-0.4-1.4-0.6-2.2-0.6
			c-1.4,0-2.5,0.4-3.4,1.3c-0.9,0.9-1.3,2-1.3,3.3s0.4,2.5,1.3,3.3s2,1.3,3.4,1.3c0.8,0,1.6-0.2,2.2-0.6c0.7-0.4,1.2-0.9,1.5-1.5
			l1.9,1.1c-0.5,1-1.3,1.7-2.3,2.3S432.1,965.1,430.9,965.1z"/>
		<path class="st1" d="M445.5,955.5h2v9.3h-2v-1.3c-0.8,1.1-1.8,1.6-3.3,1.6c-1.3,0-2.4-0.5-3.3-1.4c-0.9-0.9-1.4-2.1-1.4-3.5
			c0-1.4,0.5-2.5,1.4-3.5s2-1.4,3.3-1.4c1.4,0,2.5,0.5,3.3,1.6V955.5z M440.5,962.3c0.6,0.6,1.3,0.8,2.1,0.8c0.8,0,1.5-0.3,2.1-0.8
			s0.8-1.3,0.8-2.1s-0.3-1.6-0.8-2.1s-1.3-0.8-2.1-0.8c-0.8,0-1.5,0.3-2.1,0.8c-0.6,0.6-0.8,1.3-0.8,2.1S439.9,961.7,440.5,962.3z"
			/>
		<path class="st1" d="M449.9,964.8v-13.6h2v13.6H449.9z"/>
		<path class="st1" d="M454.2,964.8v-13.6h2v13.6H454.2z"/>
	</g>
</g>
<path class="st2" d="M785,674.3H215c-22.1,0-40-17.9-40-40V284c0-22.1,17.9-40,40-40h570c22.1,0,40,17.9,40,40v350.3
	C825,656.4,807.1,674.3,785,674.3z"/>
<path class="st3" d="M806.8,250.5c1,3.6,1.6,7.3,1.6,11.2V612c0,22.1-17.9,40-40,40h-570c-8,0-15.5-2.4-21.8-6.4
	c4.9,16.6,20.2,28.8,38.4,28.8h570c22.1,0,40-17.9,40-40V284C825,270,817.7,257.6,806.8,250.5z"/>
<path class="st4" d="M582.3,597.2H417.7c-27.6,0-50-22.4-50-50V306.8c0-73.1,59.2-132.3,132.3-132.3h0
	c73.1,0,132.3,59.2,132.3,132.3v240.5C632.3,574.8,609.9,597.2,582.3,597.2z"/>
<path class="st5" d="M582.3,597.2H417.7c-27.6,0-50-22.4-50-50V306.8c0-73.1,59.2-132.3,132.3-132.3h0
	c73.1,0,132.3,59.2,132.3,132.3v240.5C632.3,574.8,609.9,597.2,582.3,597.2z"/>
<g>
	<path class="st6" d="M598.2,433.4c-10.3-23-3.3-65.2-3.3-65.2s23.2-3.3,28.7,4.7C632.5,386.2,628.4,433.4,598.2,433.4z"/>
	<path class="st7" d="M594.9,368.2c0,0-1.1,6.8-1.8,16.5c0,0,18.9-11.5,34.2,0c-0.8-4.5-1.9-9-3.8-11.8
		C618.1,364.8,594.9,368.2,594.9,368.2z"/>
	<path class="st5" d="M598.2,433.4c-10.3-23-3.3-65.2-3.3-65.2s23.2-3.3,28.7,4.7C632.5,386.2,628.4,433.4,598.2,433.4z"/>
</g>
<g>
	<path class="st8" d="M663.7,674.3H336.3v-35.6c0-29.7,20.2-56.2,50.8-66.7L500,533.4L612.9,572c30.6,10.5,50.8,37,50.8,66.7V674.3z
		"/>
	<path class="st9" d="M350.6,639.7c0-29.7,20.2-56.2,50.8-66.7l107.2-36.6l-8.6-2.9L387.1,572c-30.6,10.5-50.8,37-50.8,66.7v35.6
		h14.3V639.7z"/>
	<path class="st10" d="M612.9,572L500,533.4l-16.6,5.7l96.3,32.9c30.6,10.5,50.8,37,50.8,66.7v35.6h33.2v-35.6
		C663.7,609,643.5,582.4,612.9,572z"/>
	<path class="st5" d="M663.7,674.3H336.3v-35.6c0-29.7,20.2-56.2,50.8-66.7L500,533.4L612.9,572c30.6,10.5,50.8,37,50.8,66.7V674.3z
		"/>
</g>
<g>
	<path class="st6" d="M451.9,504v38.8c0,26.5,21.5,38.1,48.1,38.1l0,0c26.5,0,48.1-11.5,48.1-38.1V504H451.9z"/>
	<path class="st7" d="M451.9,525.7c14.4,7.2,30.7,11.2,48.1,11.2h0c17.3,0,33.7-4,48.1-11.2V504h-96.1V525.7z"/>
	<path class="st5" d="M451.9,504v38.8c0,26.5,21.5,38.1,48.1,38.1l0,0c26.5,0,48.1-11.5,48.1-38.1V504H451.9z"/>
</g>
<path class="st5" d="M785,674.3H215c-22.1,0-40-17.9-40-40V284c0-22.1,17.9-40,40-40h570c22.1,0,40,17.9,40,40v350.3
	C825,656.4,807.1,674.3,785,674.3z"/>
<g>
	<path class="st11" d="M885.1,364.6h-150c-27.6,0-50,22.4-50,50v0c0,27.6,22.4,50,50,50H763v23.8l23.8-23.8h98.2
		c27.6,0,50-22.4,50-50v0C935.1,387,912.7,364.6,885.1,364.6z"/>
	<g>
		<path class="st12" d="M764.3,463.5c0-6.3-5.1-11.4-11.4-11.4h-25.4c-15.6,0-29.5-7.1-38.7-18.3c7.5,18.1,25.4,30.8,46.2,30.8h29.2
			V463.5z"/>
		<path class="st12" d="M923.7,382.9c2.5,5.9,3.8,12.4,3.8,19.2v0c0,27.6-22.4,50-50,50h-91.2c-4.3,0-8.3,2.4-10.2,6.3l-11.9,23.2
			l-1.3,6.9l23.8-23.8h98.2c27.6,0,50-22.4,50-50v0C935.1,402.6,930.8,391.5,923.7,382.9z"/>
	</g>
	<circle class="st13" cx="763" cy="414" r="13"/>
	<circle class="st13" cx="810.1" cy="414" r="13"/>
	<circle class="st13" cx="858.2" cy="414" r="13"/>
	<path class="st5" d="M885.1,364.6h-150c-27.6,0-50,22.4-50,50v0c0,27.6,22.4,50,50,50H763v23.8l23.8-23.8h98.2
		c27.6,0,50-22.4,50-50v0C935.1,387,912.7,364.6,885.1,364.6z"/>
</g>
<g>
	<path class="st14" d="M136.3,182.1h150c27.6,0,50,22.4,50,50v0c0,27.6-22.4,50-50,50h-27.9V306l-23.8-23.8h-98.2
		c-27.6,0-50-22.4-50-50v0C86.3,204.5,108.7,182.1,136.3,182.1z"/>
	<g>
		<path class="st15" d="M257.1,281c0-6.3,5.1-11.4,11.4-11.4h25.4c15.6,0,29.5-7.1,38.7-18.3c-7.5,18.1-25.4,30.8-46.2,30.8h-29.2
			V281z"/>
		<path class="st15" d="M97.6,200.4c-2.5,5.9-3.8,12.4-3.8,19.2v0c0,27.6,22.4,50,50,50H235c4.3,0,8.3,2.4,10.2,6.3l11.9,23.2
			l1.3,6.9l-23.8-23.8h-98.2c-27.6,0-50-22.4-50-50v0C86.3,220.1,90.6,209,97.6,200.4z"/>
	</g>
	<circle class="st13" cx="258.4" cy="231.5" r="13"/>
	<circle class="st13" cx="211.3" cy="231.5" r="13"/>
	<circle class="st13" cx="163.2" cy="231.5" r="13"/>
	<path class="st5" d="M136.3,182.1h150c27.6,0,50,22.4,50,50v0c0,27.6-22.4,50-50,50h-27.9V306l-23.8-23.8h-98.2
		c-27.6,0-50-22.4-50-50v0C86.3,204.5,108.7,182.1,136.3,182.1z"/>
</g>
<g>
	<circle class="st16" cx="417.6" cy="777.4" r="57.3"/>
	<circle class="st17" cx="582.4" cy="777.4" r="57.3"/>
	<circle class="st5" cx="582.4" cy="777.4" r="57.3"/>
	<path class="st0" d="M582.4,762.4c-20.9,0-37.5,6.8-37.5,15.7v8.4c0.2,3.3,2.9,6,6,6h12.4c4.4,0,7.3-4.6,5.3-8.4
		c-1.3-2.6-0.2-6,2.2-7.5c5.5-3.3,17.3-3.5,23.1,0c2.7,1.3,3.6,4.9,2.2,7.5c-2,3.8,0.9,8.4,5.3,8.4h12.4c3.3-0.2,6-2.9,6-6V778
		C619.7,769.4,603.3,762.4,582.4,762.4z"/>
	<g>
		<path class="st0" d="M421.5,757.4h-30c-4.1,0-7.4,3.4-7.4,7.4v25.1c0,4.1,3.4,7.4,7.4,7.4h30c4.1,0,7.4-3.4,7.4-7.4v-25.1
			C429,760.6,425.6,757.4,421.5,757.4z"/>
		<path class="st0" d="M445.6,761.5c-0.4,0.1-0.9,0.3-1.3,0.5l-11.6,6.7V786l11.7,6.7c2.2,1.3,4.8,0.5,6.1-1.6
			c0.4-0.7,0.6-1.4,0.6-2.2v-23C451.1,763,448.5,760.8,445.6,761.5z"/>
	</g>
	<circle class="st5" cx="417.6" cy="777.4" r="57.3"/>
</g>
<g>
	<path class="st6" d="M395.4,314.4v107.2c0,57.8,46.8,102.2,104.6,102.2h0c57.8,0,104.6-44.4,104.6-102.2V314.4H395.4z"/>
	<path class="st7" d="M500,508.8L500,508.8c-57.8,0-104.6-44.4-104.6-102.2v15c0,57.8,46.8,102.2,104.6,102.2h0
		c57.8,0,104.6-44.4,104.6-102.2v-15C604.6,464.4,557.8,508.8,500,508.8z"/>
	<path class="st7" d="M395.4,376.1c66.3,0.3,126.3-18.9,162.2-48.3c6,25.5,32.9,46.1,47.1,45.1l0-58.6c-23.9,0-149.5,4.9-209.2,0
		C395.4,340.4,395.4,358.3,395.4,376.1z"/>
	<path class="st5" d="M395.4,314.4v107.2c0,57.8,46.8,102.2,104.6,102.2h0c57.8,0,104.6-44.4,104.6-102.2V314.4H395.4z"/>
	<g>
		<path class="st5" d="M469,385.8c-12.2-2.1-24.8-2.1-37,0"/>
		<circle class="st18" cx="442.7" cy="395" r="9.2"/>
		<path class="st5" d="M560.3,385.8c-12.2-2.1-24.8-2.1-37,0"/>
		<circle class="st18" cx="533.9" cy="395" r="9.2"/>
	</g>
	<path class="st5" d="M507.7,479.4c0,0,18.7,1.8,31.7-18.1"/>
	<path class="st5" d="M483.1,436.7c1.3,5.8,7.8,10.2,15.6,10.2s14.3-4.4,15.6-10.2"/>
</g>
<g>
	<path class="st19" d="M557.9,187.8c-8.1,18.3-12.7,39.1-12.7,61c0,62.2,36.9,114.6,87.1,130.4v-72.5
		C632.3,254.5,601.9,209.3,557.9,187.8z"/>
	<path class="st4" d="M557.9,187.8c-1.4,3.2-2.7,6.4-3.9,9.7c34.9,23.8,57.8,63.9,57.8,109.3v63.6c6.5,3.6,13.4,6.7,20.5,8.9v-72.5
		C632.3,254.5,601.9,209.3,557.9,187.8z"/>
	<path class="st5" d="M557.9,187.8c-8.1,18.3-12.7,39.1-12.7,61c0,62.2,36.9,114.6,87.1,130.4v-72.5
		C632.3,254.5,601.9,209.3,557.9,187.8z"/>
	<path class="st19" d="M500,174.5L500,174.5c-73.1,0-132.3,59.2-132.3,132.3v55.6c7.9,0.5,15.9,0.8,24,0.8
		c104.9,0,194.7-42.7,232-103.2C604.8,210,556.6,174.5,500,174.5z"/>
	<path class="st4" d="M500,174.5L500,174.5c-23.2,0-45,6-63.9,16.5c13.5-4.4,27.9-6.7,42.9-6.7h0c59.5,0,110.3,37.4,130.3,89.9
		c-4.7,7.7-10.3,15-16.5,22.1c12.5-11.1,23-23.3,31-36.3C604.8,210,556.6,174.5,500,174.5z"/>
	<path class="st5" d="M500,174.5L500,174.5c-73.1,0-132.3,59.2-132.3,132.3v55.6c7.9,0.5,15.9,0.8,24,0.8
		c104.9,0,194.7-42.7,232-103.2C604.8,210,556.6,174.5,500,174.5z"/>
	<path class="st5" d="M464.4,311.7c38-5.8,83.6-18.3,114.2-45"/>
	<path class="st5" d="M396.2,316.6c0,0,14.4,0.4,35.8-1.2"/>
</g>
<g>
	<g>
		<path class="st10" d="M547.7,561.5c-15,8.1-30.5,9.1-47.7,17.7c-17.2-8.6-32.7-9.6-47.7-17.7c-0.8-0.4-20.4-1-20.5-1
			c1.4-0.1-1.7,13.2,0.6,27.5c1.9,14.3,9.3,29.5,20.6,33.1c0.7,0.2,1.4,0.3,2.1,0.3c14.3,1.4,36.9-32.5,44.8-40.5
			c7.9,8,30.6,41.9,44.8,40.5c0.7-0.1,1.4-0.2,2.1-0.3c11.4-3.6,18.8-18.8,20.6-33.1c2.4-14.3-0.7-27.5,0.6-27.5
			C568.2,560.5,548.5,561.1,547.7,561.5z"/>
	</g>
	<g>
		<path class="st0" d="M452.5,549.6l47.5,31.2c0,0-25,35.3-37.3,33c-15.9-3-29.2-57.7-29.2-57.7L452.5,549.6z"/>
		<path class="st5" d="M452.5,549.6l47.5,31.2c0,0-25,35.3-37.3,33c-15.9-3-29.2-57.7-29.2-57.7L452.5,549.6z"/>
	</g>
	<g>
		<path class="st0" d="M547.5,549.6L500,580.9c0,0,25,35.3,37.3,33c15.9-3,29.2-57.7,29.2-57.7L547.5,549.6z"/>
		<path class="st5" d="M547.5,549.6L500,580.9c0,0,25,35.3,37.3,33c15.9-3,29.2-57.7,29.2-57.7L547.5,549.6z"/>
	</g>
	<line class="st5" x1="500" y1="580.9" x2="500" y2="644.4"/>
</g>
</svg>
