<?xml version="1.0" encoding="utf-8"?>
<!-- Generator: Adobe Illustrator 23.1.1, SVG Export Plug-In . SVG Version: 6.00 Build 0)  -->
<svg version="1.1" id="Layer_1" xmlns="http://www.w3.org/2000/svg" xmlns:xlink="http://www.w3.org/1999/xlink" x="0px" y="0px"
	 viewBox="0 0 1000 1000" style="enable-background:new 0 0 1000 1000;" xml:space="preserve">
<style type="text/css">
	.st0{fill:#FFFFFF;}
	.st1{opacity:0.45;fill:#898386;}
	.st2{opacity:0.35;fill:#A9DBED;}
	.st3{opacity:0.69;}
	.st4{fill:#422725;}
	.st5{fill:none;stroke:#1E1E1E;stroke-width:4;stroke-linecap:round;stroke-linejoin:round;stroke-miterlimit:10;}
	.st6{fill:#1E1E1E;}
	.st7{opacity:0.51;fill:#DB485F;}
	.st8{fill:#FFA578;}
	.st9{fill:#F49971;}
	.st10{fill:#ED8C6B;}
	.st11{fill:#AC3942;}
	.st12{fill:#FF4C63;}
	.st13{fill:#CD3B43;}
	.st14{fill:#E24249;}
	.st15{fill:#D3405C;}
	.st16{fill:#76B276;}
	.st17{fill:#99CC99;}
	.st18{fill:#F79B72;}
	.st19{fill:#ED4A61;}
	.st20{opacity:0.69;fill:#422725;}
	.st21{opacity:0.68;fill:#DB485F;}
	.st22{opacity:0.87;fill:#EF5964;}
	.st23{fill:#FFA6B5;}
</style>
<rect id="XMLID_472_" class="st0" width="1000" height="1000"/>
<path id="XMLID_386_" class="st1" d="M686.9,850L686.9,850c0,6.6-5.4,12-12,12H298.4c-6.6,0-12-5.4-12-12v0c0-6.6,5.4-12,12-12
	h113.4c6.6,0,12-5.4,12-12l0,0c0-6.6-5.4-12-12-12h-11.3c-6.6,0-12-5.4-12-12l0,0c0-6.6,5.4-12,12-12H633c6.6,0,12,5.4,12,12l0,0
	c0,6.6-5.4,12-12,12h-26.1c-6.6,0-12,5.4-12,12l0,0c0,6.6,5.4,12,12,12h68C681.5,838,686.9,843.4,686.9,850z"/>
<path id="XMLID_385_" class="st2" d="M727.5,403.1L727.5,403.1c0-13.4-10.8-24.2-24.2-24.2H602.7c-13.4,0-24.2-10.8-24.2-24.2v0
	c0-13.4,10.8-24.2,24.2-24.2h23.7c13.4,0,24.2-10.8,24.2-24.2v0c0-13.4-10.8-24.2-24.2-24.2H362.8c-13.4,0-24.2,10.8-24.2,24.2v0
	c0,13.4,10.8,24.2,24.2,24.2h25.4c13.4,0,24.2,10.8,24.2,24.2v0c0,13.4-10.8,24.2-24.2,24.2h-80.9c-13.4,0-24.2,10.8-24.2,24.2v0
	c0,13.4,10.8,24.2,24.2,24.2h7c13.4,0,24.2,10.8,24.2,24.2v0c0,13.4-10.8,24.2-24.2,24.2h-40.9c-13.4,0-24.2,10.8-24.2,24.2v0
	c0,13.4,10.8,24.2,24.2,24.2H366c13.4,0,24.2,10.8,24.2,24.2v0c0,13.4-10.8,24.2-24.2,24.2h-37.1c-13.4,0-24.2,10.8-24.2,24.2v0
	c0,13.4,10.8,24.2,24.2,24.2H374c13.4,0,24.2,10.8,24.2,24.2v0c0,13.4-10.8,24.2-24.2,24.2h-2.9c-13.4,0-24.2,10.8-24.2,24.2v0
	c0,13.4,10.8,24.2,24.2,24.2h242.2c13.4,0,24.2-10.8,24.2-24.2v0c0-13.4-10.8-24.2-24.2-24.2h-20.8c-13.4,0-24.2-10.8-24.2-24.2v0
	c0-13.4,10.8-24.2,24.2-24.2h110.8c13.4,0,24.2-10.8,24.2-24.2v0c0-13.4-10.8-24.2-24.2-24.2h-28.4c-13.4,0-24.2-10.8-24.2-24.2v0
	c0-13.4,10.8-24.2,24.2-24.2h17.5c13.4,0,24.2-10.8,24.2-24.2v0c0-13.4-10.8-24.2-24.2-24.2h-55.7c-13.4,0-24.2-10.8-24.2-24.2v0
	c0-13.4,10.8-24.2,24.2-24.2h66.6C716.7,427.3,727.5,416.5,727.5,403.1z M485.9,475.8h-20.9c-13.4,0-24.2-10.8-24.2-24.2v0
	c0-13.4,10.8-24.2,24.2-24.2h20.9c13.4,0,24.2,10.8,24.2,24.2v0C510.2,464.9,499.3,475.8,485.9,475.8z"/>
<g class="st3">
	<g>
		<g>
			<path class="st4" d="M63.2,959.2c0,2.5-1.2,3.7-2.6,3.7c-1.1,0-1.9-0.5-2.1-1.4c-0.4,0.5-1,0.8-1.8,0.8c-1.5,0-2.6-1.2-2.6-2.8
				c0-1.6,1.1-2.8,2.6-2.8c0.7,0,1.2,0.3,1.6,0.7v-0.5h1.6v3.9c0,0.8,0.3,1.4,1,1.4c0.9,0,1.7-0.9,1.7-3c0-3-2.3-5.3-5.4-5.3
				c-3.1,0-5.6,2.4-5.6,5.7c0,3.3,2.5,5.7,5.9,5.7c1.1,0,2.1-0.2,2.9-0.4v0.6c-0.8,0.3-1.7,0.4-2.9,0.4c-3.7,0-6.5-2.6-6.5-6.2
				c0-3.4,2.7-6.2,6.2-6.2C61.1,953.3,63.2,956.4,63.2,959.2z M58.3,959.5c0-0.8-0.6-1.4-1.3-1.4c-0.8,0-1.3,0.5-1.3,1.4
				c0,0.8,0.6,1.3,1.3,1.3C57.8,960.9,58.3,960.3,58.3,959.5z"/>
		</g>
		<g>
			<path class="st4" d="M69.4,955.1v2c-1.2-0.1-2.6,0.5-2.6,2.4v4.3h-1.9v-8.6h1.9v1.4C67.3,955.5,68.3,955.1,69.4,955.1z"/>
		</g>
		<g>
			<path class="st4" d="M74.6,962.3c1,0,1.8-0.5,2.2-1.1l1.5,0.9c-0.8,1.2-2.1,1.9-3.8,1.9c-2.8,0-4.7-1.9-4.7-4.5
				c0-2.5,1.8-4.5,4.5-4.5c2.6,0,4.3,2.1,4.3,4.5c0,0.3,0,0.5-0.1,0.8h-6.8C72.1,961.6,73.2,962.3,74.6,962.3z M76.9,958.8
				c-0.3-1.5-1.3-2.1-2.5-2.1c-1.4,0-2.3,0.8-2.6,2.1H76.9z"/>
		</g>
		<g>
			<path class="st4" d="M88.9,955.2v8.6h-1.9v-1.2c-0.7,0.9-1.7,1.5-3,1.5c-2.3,0-4.3-2-4.3-4.5c0-2.6,1.9-4.5,4.3-4.5
				c1.3,0,2.3,0.5,3,1.4v-1.2H88.9z M87.1,959.5c0-1.6-1.2-2.7-2.7-2.7c-1.5,0-2.7,1.1-2.7,2.7c0,1.6,1.2,2.7,2.7,2.7
				C85.9,962.3,87.1,961.1,87.1,959.5z"/>
		</g>
		<g>
			<path class="st4" d="M91.1,951.3H93v12.5h-1.9V951.3z"/>
		</g>
		<g>
			<path class="st4" d="M102.9,955.2l-3.3,8.6h-2.1l-3.3-8.6h2l2.4,6.5l2.4-6.5H102.9z"/>
		</g>
		<g>
			<path class="st4" d="M104.2,955.2h1.9v8.9c0,2.4-1.2,3.5-3.5,3.3v-1.8c1.1,0.1,1.7-0.3,1.7-1.5V955.2z M104,952.8
				c0-0.7,0.5-1.2,1.2-1.2c0.7,0,1.2,0.5,1.2,1.2c0,0.6-0.5,1.2-1.2,1.2C104.5,954,104,953.4,104,952.8z"/>
		</g>
		<g>
			<path class="st4" d="M116,955.2l-3.3,8.8c-0.8,2.2-2.2,3.3-4.2,3.2v-1.7c1.2,0.1,1.9-0.5,2.3-1.7l0.1-0.2l-3.6-8.4h2l2.6,6.2
				l2.2-6.2H116z"/>
		</g>
	</g>
	<g>
		<path class="st4" d="M211.9,938.7c0,2.1-1.5,3.8-3.6,3.8h-3v-7.6h3C210.4,934.9,211.9,936.6,211.9,938.7z M210.9,938.7
			c0-1.6-1.1-2.9-2.6-2.9h-2v5.7h2C209.8,941.6,210.9,940.3,210.9,938.7z"/>
		<path class="st4" d="M219.5,940.8h-3.4l-0.6,1.7h-1.1l2.8-7.6h1.1l2.8,7.6h-1.1L219.5,940.8z M219.2,939.9l-1.4-3.8l-1.4,3.8
			H219.2z"/>
		<path class="st4" d="M226.4,939.4v3.1h-1v-3.1l-2.7-4.5h1.1l2.1,3.6l2.1-3.6h1.1L226.4,939.4z"/>
		<path class="st4" d="M236.9,941.7l2.7-2.7c0.6-0.6,1.1-1.2,1.1-1.9c0-0.9-0.6-1.4-1.4-1.4c-0.7,0-1.2,0.3-1.6,1l-0.8-0.5
			c0.5-1,1.4-1.5,2.4-1.5c1.2,0,2.4,0.8,2.4,2.3c0,0.9-0.6,1.8-1.4,2.5l-2,1.9h3.5v1h-4.9V941.7z"/>
		<path class="st4" d="M250.1,940.4c0,1.4-1.1,2.2-2.6,2.2c-1.5,0-2.6-0.8-2.6-2.2c0-0.8,0.5-1.5,1.2-1.9c-0.6-0.3-0.9-0.9-0.9-1.7
			c0-1.5,1.2-2.2,2.4-2.2c1.2,0,2.4,0.7,2.4,2.2c0,0.8-0.4,1.3-0.9,1.7C249.7,938.9,250.1,939.6,250.1,940.4z M249.1,940.4
			c0-0.9-0.7-1.3-1.6-1.3c-0.9,0-1.6,0.4-1.6,1.3c0,0.9,0.7,1.3,1.6,1.3C248.4,941.7,249.1,941.2,249.1,940.4z M246.2,936.9
			c0,0.8,0.6,1.2,1.4,1.2c0.7,0,1.4-0.4,1.4-1.2c0-0.8-0.6-1.2-1.4-1.2C246.8,935.7,246.2,936.1,246.2,936.9z"/>
	</g>
	<g>
		<path class="st4" d="M58.9,938.7c0,2.1-1.5,3.8-3.6,3.8h-3v-7.6h3C57.4,934.9,58.9,936.6,58.9,938.7z M57.9,938.7
			c0-1.6-1.1-2.9-2.6-2.9h-2v5.7h2C56.8,941.6,57.9,940.3,57.9,938.7z"/>
		<path class="st4" d="M67,941.6v1h-4.6v-7.6h4.5v1h-3.5v2.3h3.2v0.9h-3.2v2.4H67z"/>
		<path class="st4" d="M70,940.8l0.9-0.5c0.3,0.8,0.9,1.4,2,1.4c1.1,0,1.6-0.5,1.6-1.2c0-0.8-0.7-1-1.8-1.4
			c-1.2-0.4-2.4-0.8-2.4-2.2c0-1.4,1.1-2.2,2.4-2.2c1.3,0,2.2,0.7,2.6,1.7l-0.8,0.5c-0.3-0.7-0.8-1.2-1.7-1.2
			c-0.8,0-1.4,0.4-1.4,1.1c0,0.7,0.5,1,1.6,1.3c1.3,0.4,2.6,0.8,2.6,2.3c0,1.3-1.1,2.2-2.6,2.2C71.5,942.7,70.4,941.9,70,940.8z"/>
		<path class="st4" d="M80,934.9v7.6h-1v-7.6H80z"/>
		<path class="st4" d="M91.3,939.2c0,1.9-1.4,3.5-3.7,3.5c-2.4,0-4-1.8-4-4c0-2.2,1.7-4,4-4c1.4,0,2.7,0.8,3.3,1.8l-0.9,0.5
			c-0.4-0.8-1.4-1.4-2.4-1.4c-1.8,0-3,1.3-3,3c0,1.7,1.2,3,3,3c1.6,0,2.5-0.9,2.7-2h-2.8v-0.9h3.8V939.2z"/>
		<path class="st4" d="M100.6,934.9v7.6h-0.8l-3.9-5.7v5.7h-1v-7.6h0.8l3.9,5.7v-5.7H100.6z"/>
		<path class="st4" d="M109.1,941.6v1h-4.6v-7.6h4.5v1h-3.5v2.3h3.2v0.9h-3.2v2.4H109.1z"/>
		<path class="st4" d="M119.2,938.7c0,2.1-1.5,3.8-3.6,3.8h-3v-7.6h3C117.6,934.9,119.2,936.6,119.2,938.7z M118.2,938.7
			c0-1.6-1.1-2.9-2.6-2.9h-2v5.7h2C117.1,941.6,118.2,940.3,118.2,938.7z"/>
		<path class="st4" d="M133.2,940.4c0,1.2-1,2.2-2.2,2.2h-3.3v-7.6h3c1.2,0,2.1,0.9,2.1,2.1c0,0.7-0.3,1.2-0.8,1.6
			C132.7,938.9,133.2,939.5,133.2,940.4z M128.7,935.8v2.3h2c0.6,0,1.1-0.5,1.1-1.2c0-0.6-0.5-1.2-1.1-1.2H128.7z M132.2,940.3
			c0-0.7-0.5-1.2-1.2-1.2h-2.3v2.5h2.3C131.7,941.6,132.2,941,132.2,940.3z"/>
		<path class="st4" d="M139.4,939.4v3.1h-1v-3.1l-2.7-4.5h1.1l2.1,3.6l2.1-3.6h1.1L139.4,939.4z"/>
	</g>
	<g>
		<path class="st4" d="M204.8,961.5l1.8-1c0.4,1.3,1.4,2.1,3.1,2.1c1.6,0,2.3-0.7,2.3-1.6c0-1.1-1-1.5-2.8-2
			c-1.9-0.6-3.8-1.3-3.8-3.6c0-2.3,1.9-3.6,4-3.6c2,0,3.5,1.1,4.3,2.7l-1.7,1c-0.4-1-1.2-1.7-2.6-1.7c-1.2,0-1.9,0.6-1.9,1.5
			c0,1,0.7,1.4,2.5,1.9c2.1,0.7,4.1,1.3,4.1,3.8c0,2.3-1.8,3.6-4.4,3.6C207.1,964.5,205.5,963.3,204.8,961.5z"/>
		<path class="st4" d="M220.2,962.8c1.1,0,1.9-0.5,2.3-1.1l1.6,0.9c-0.8,1.2-2.1,1.9-3.9,1.9c-2.9,0-4.8-2-4.8-4.7
			c0-2.6,1.9-4.7,4.7-4.7c2.6,0,4.4,2.1,4.4,4.7c0,0.3,0,0.5-0.1,0.8h-7C217.7,962.1,218.8,962.8,220.2,962.8z M222.5,959.1
			c-0.3-1.5-1.4-2.2-2.5-2.2c-1.4,0-2.4,0.8-2.7,2.2H222.5z"/>
		<path class="st4" d="M226.2,951.4h1.9v12.9h-1.9V951.4z"/>
		<path class="st4" d="M237.7,964.3h-1.9v-7h-2.9v7h-1.9v-7h-1.3v-1.8h1.3v-0.2c0-2.4,1.3-3.6,4-3.6c0.6,0,1.3,0.1,2,0.2v1.8
			c-0.7-0.1-1.3-0.1-2-0.1c-1.3,0-2.1,0.4-2.1,1.8v0.2h4.8V964.3z"/>
		<path class="st4" d="M256.5,958.7c0,3.4-2.4,5.8-6.1,5.8c-3.9,0-6.6-2.9-6.6-6.4s2.8-6.4,6.5-6.4c2.4,0,4.4,1.2,5.4,2.9l-1.8,1
			c-0.6-1.2-2-2-3.6-2c-2.6,0-4.5,1.9-4.5,4.5c0,2.5,1.8,4.4,4.6,4.4c2.2,0,3.6-1.2,4-2.8h-4.1v-1.8h6.2V958.7z"/>
		<path class="st4" d="M258,952.9c0-0.7,0.5-1.2,1.2-1.2s1.2,0.5,1.2,1.2c0,0.7-0.5,1.2-1.2,1.2S258,953.6,258,952.9z M258.2,955.4
			h1.9v8.9h-1.9V955.4z"/>
		<path class="st4" d="M267,955.3v2.1c-1.3-0.1-2.7,0.5-2.7,2.5v4.5h-1.9v-8.9h1.9v1.5C264.8,955.7,265.9,955.3,267,955.3z"/>
		<path class="st4" d="M268.4,951.4h1.9v12.9h-1.9V951.4z"/>
	</g>
	<g>
		<g>
			<path class="st4" d="M846.1,938.7c0,2.1-1.5,3.8-3.6,3.8h-3v-7.6h3C844.6,934.9,846.1,936.6,846.1,938.7z M845.2,938.7
				c0-1.6-1.1-2.9-2.6-2.9h-2v5.7h2C844.1,941.6,845.2,940.3,845.2,938.7z"/>
		</g>
		<g>
			<path class="st4" d="M849.3,938.7c0-2.2,1.7-4,3.9-4c2.2,0,4,1.8,4,4c0,2.2-1.7,4-4,4C851,942.7,849.3,940.9,849.3,938.7z
				 M856.1,938.7c0-1.7-1.3-3-2.9-3c-1.7,0-2.9,1.3-2.9,3c0,1.7,1.3,3,2.9,3C854.9,941.7,856.1,940.4,856.1,938.7z"/>
		</g>
		<g>
			<path class="st4" d="M859.8,934.9h1.1l1.7,6.3l1.9-6.3h1l1.9,6.3l1.7-6.3h1.1l-2.2,7.6h-1.2l-1.8-6.1l-1.8,6.1H862L859.8,934.9z"
				/>
		</g>
		<g>
			<path class="st4" d="M879.3,934.9v7.6h-0.8l-3.9-5.7v5.7h-1v-7.6h0.8l3.9,5.7v-5.7H879.3z"/>
		</g>
		<g>
			<path class="st4" d="M887.5,941.6v1h-4.3v-7.6h1v6.7H887.5z"/>
		</g>
		<g>
			<path class="st4" d="M889.9,938.7c0-2.2,1.7-4,3.9-4c2.2,0,4,1.8,4,4c0,2.2-1.7,4-4,4C891.6,942.7,889.9,940.9,889.9,938.7z
				 M896.8,938.7c0-1.7-1.3-3-2.9-3c-1.7,0-2.9,1.3-2.9,3c0,1.7,1.3,3,2.9,3C895.5,941.7,896.8,940.4,896.8,938.7z"/>
		</g>
		<g>
			<path class="st4" d="M905.4,940.8H902l-0.6,1.7h-1.1l2.8-7.6h1.1l2.8,7.6H906L905.4,940.8z M905.1,939.9l-1.4-3.8l-1.4,3.8H905.1
				z"/>
		</g>
		<g>
			<path class="st4" d="M916.9,938.7c0,2.1-1.5,3.8-3.6,3.8h-3v-7.6h3C915.4,934.9,916.9,936.6,916.9,938.7z M915.9,938.7
				c0-1.6-1.1-2.9-2.6-2.9h-2v5.7h2C914.9,941.6,915.9,940.3,915.9,938.7z"/>
		</g>
		<g>
			<path class="st4" d="M926.5,935.8v2.5h3.2v1h-3.2v3.2h-1v-7.6h4.4v1H926.5z"/>
		</g>
		<g>
			<path class="st4" d="M936.2,939.6h-1.8v2.9h-1v-7.6h3c1.3,0,2.4,1.1,2.4,2.4c0,1-0.7,1.9-1.6,2.2l1.8,3.1h-1.1L936.2,939.6z
				 M934.4,938.7h2c0.8,0,1.4-0.6,1.4-1.4c0-0.8-0.6-1.4-1.4-1.4h-2V938.7z"/>
		</g>
		<g>
			<path class="st4" d="M941.9,938.7c0-2.2,1.7-4,3.9-4c2.2,0,4,1.8,4,4c0,2.2-1.7,4-4,4C943.6,942.7,941.9,940.9,941.9,938.7z
				 M948.8,938.7c0-1.7-1.3-3-2.9-3c-1.7,0-2.9,1.3-2.9,3c0,1.7,1.3,3,2.9,3C947.5,941.7,948.8,940.4,948.8,938.7z"/>
		</g>
		<g>
			<path class="st4" d="M960.4,942.5h-1v-6l-2.5,4.2h-0.1l-2.5-4.1v5.9h-1v-7.6h1.1l2.4,4l2.4-4h1.1V942.5z"/>
		</g>
	</g>
	<g>
		<g>
			<path class="st4" d="M839.3,952.9c0-0.7,0.5-1.2,1.2-1.2c0.7,0,1.2,0.5,1.2,1.2c0,0.7-0.5,1.2-1.2,1.2
				C839.9,954.1,839.3,953.6,839.3,952.9z M839.6,955.4h1.9v8.9h-1.9V955.4z"/>
		</g>
		<g>
			<path class="st4" d="M843.7,951.4h1.9v12.9h-1.9V951.4z"/>
		</g>
		<g>
			<path class="st4" d="M847.8,951.4h1.9v12.9h-1.9V951.4z"/>
		</g>
		<g>
			<path class="st4" d="M852,951.4h1.9v12.9H852V951.4z"/>
		</g>
		<g>
			<path class="st4" d="M864,955.4v8.9h-1.9v-1.1c-0.6,0.9-1.5,1.4-2.7,1.4c-2,0-3.4-1.3-3.4-3.6v-5.4h1.9v5.2c0,1.3,0.8,2.1,2,2.1
				c1.3,0,2.2-0.7,2.2-2.5v-4.7H864z"/>
		</g>
		<g>
			<path class="st4" d="M872.6,961.8c0,1.8-1.5,2.7-3.5,2.7c-1.8,0-3-0.8-3.6-2.1l1.6-1c0.3,0.8,1,1.3,2,1.3c0.8,0,1.5-0.3,1.5-1
				c0-1.6-4.8-0.7-4.8-3.9c0-1.7,1.4-2.7,3.2-2.7c1.5,0,2.7,0.7,3.3,1.8l-1.6,0.9c-0.3-0.7-0.9-1-1.7-1c-0.7,0-1.3,0.3-1.3,0.9
				C867.9,959.5,872.6,958.5,872.6,961.8z"/>
		</g>
		<g>
			<path class="st4" d="M876.7,957.3v4.2c0,1.1,0.7,1.1,2.2,1v1.7c-2.9,0.4-4.1-0.5-4.1-2.8v-4.2h-1.6v-1.8h1.6v-1.9l1.9-0.6v2.5
				h2.2v1.8H876.7z"/>
		</g>
		<g>
			<path class="st4" d="M885.4,955.3v2.1c-1.3-0.1-2.7,0.5-2.7,2.5v4.5h-1.9v-8.9h1.9v1.5C883.2,955.7,884.2,955.3,885.4,955.3z"/>
		</g>
		<g>
			<path class="st4" d="M895.3,955.4v8.9h-1.9V963c-0.7,0.9-1.7,1.5-3.1,1.5c-2.4,0-4.4-2-4.4-4.7c0-2.6,2-4.7,4.4-4.7
				c1.4,0,2.4,0.6,3.1,1.5v-1.3H895.3z M893.4,959.9c0-1.6-1.2-2.8-2.8-2.8c-1.6,0-2.8,1.2-2.8,2.8c0,1.6,1.2,2.8,2.8,2.8
				C892.2,962.7,893.4,961.5,893.4,959.9z"/>
		</g>
		<g>
			<path class="st4" d="M900.3,957.3v4.2c0,1.1,0.7,1.1,2.2,1v1.7c-2.9,0.4-4.1-0.5-4.1-2.8v-4.2h-1.6v-1.8h1.6v-1.9l1.9-0.6v2.5
				h2.2v1.8H900.3z"/>
		</g>
		<g>
			<path class="st4" d="M903.9,952.9c0-0.7,0.5-1.2,1.2-1.2c0.7,0,1.2,0.5,1.2,1.2c0,0.7-0.5,1.2-1.2,1.2
				C904.5,954.1,903.9,953.6,903.9,952.9z M904.2,955.4h1.9v8.9h-1.9V955.4z"/>
		</g>
		<g>
			<path class="st4" d="M907.8,959.9c0-2.6,2.1-4.7,4.7-4.7c2.6,0,4.7,2,4.7,4.7c0,2.6-2.1,4.7-4.7,4.7
				C909.9,964.5,907.8,962.5,907.8,959.9z M915.3,959.9c0-1.6-1.2-2.8-2.8-2.8c-1.6,0-2.8,1.2-2.8,2.8c0,1.6,1.2,2.8,2.8,2.8
				C914.1,962.7,915.3,961.5,915.3,959.9z"/>
		</g>
		<g>
			<path class="st4" d="M927,958.9v5.4h-1.9v-5.2c0-1.3-0.8-2.1-2-2.1c-1.3,0-2.2,0.7-2.2,2.5v4.7h-1.9v-8.9h1.9v1.1
				c0.6-0.9,1.5-1.4,2.7-1.4C925.5,955.2,927,956.6,927,958.9z"/>
		</g>
		<g>
			<path class="st4" d="M935.5,961.8c0,1.8-1.5,2.7-3.5,2.7c-1.8,0-3-0.8-3.6-2.1l1.6-1c0.3,0.8,1,1.3,2,1.3c0.8,0,1.5-0.3,1.5-1
				c0-1.6-4.8-0.7-4.8-3.9c0-1.7,1.4-2.7,3.2-2.7c1.5,0,2.7,0.7,3.3,1.8l-1.6,0.9c-0.3-0.7-0.9-1-1.7-1c-0.7,0-1.3,0.3-1.3,0.9
				C930.7,959.5,935.5,958.5,935.5,961.8z"/>
		</g>
		<g>
			<path class="st4" d="M936.8,963.2c0-0.7,0.6-1.3,1.3-1.3c0.7,0,1.3,0.6,1.3,1.3c0,0.7-0.6,1.3-1.3,1.3
				C937.4,964.5,936.8,963.9,936.8,963.2z"/>
		</g>
		<g>
			<path class="st4" d="M940.3,959.9c0-2.6,2-4.7,4.7-4.7c1.7,0,3.2,0.9,3.9,2.3l-1.6,1c-0.4-0.8-1.3-1.4-2.3-1.4
				c-1.6,0-2.7,1.2-2.7,2.8c0,1.6,1.2,2.8,2.7,2.8c1.1,0,1.9-0.5,2.4-1.4l1.6,0.9c-0.7,1.4-2.2,2.3-4,2.3
				C942.3,964.5,940.3,962.5,940.3,959.9z"/>
		</g>
		<g>
			<path class="st4" d="M949.7,959.9c0-2.6,2.1-4.7,4.7-4.7c2.6,0,4.7,2,4.7,4.7c0,2.6-2.1,4.7-4.7,4.7
				C951.8,964.5,949.7,962.5,949.7,959.9z M957.2,959.9c0-1.6-1.2-2.8-2.8-2.8s-2.8,1.2-2.8,2.8c0,1.6,1.2,2.8,2.8,2.8
				S957.2,961.5,957.2,959.9z"/>
		</g>
	</g>
</g>
<ellipse id="XMLID_54_" class="st5" cx="437" cy="-970.1" rx="68" ry="62.4"/>
<path id="XMLID_53_" class="st5" d="M436.9-874.8L436.9-874.8c-14.2,0-32.3-10.4-42.1-28.1c-11.7-20.1-18.1-50.9-2.9-69.6
	c30,0,60,0,90,0c15.2,18.7,8.9,49.5-2.9,69.6C469.1-885.3,451.1-874.9,436.9-874.8z"/>
<path id="XMLID_52_" class="st5" d="M492.9-934.5c7.6-10.1,12.1-22.4,12.1-35.6c0-34.5-30.4-62.4-68-62.4c-26.8,0-50,14.3-61.1,35
	c1.3,7.1,3.6,13.8,7,20c0,0,7.6,16,34.6,16C442-961.5,481.3-965.9,492.9-934.5z"/>
<circle id="XMLID_51_" class="st5" cx="455.6" cy="-1026.1" r="35"/>
<path id="XMLID_50_" class="st5" d="M375.9-979.5c0,0,14.1,4.5,14.1,17.5c0,7-6.6,18.1-21,20.2c-12.7,1.9-23.2,4.8-29.8,14.2
	c1-8,4.6-17.8,21.6-22.8S382.8-963.5,375.9-979.5z"/>
<path id="XMLID_49_" class="st5" d="M390-940c0,0-0.8,21.7-7.1,32.3c-6.4,10.7-13.1,14.7-7,28.7s27.6,11.5,27.6,11.5
	c-5.5,0-24.3-5.8-24.3-16.3S396-915,396-917S397-940,390-940z"/>
<path id="XMLID_48_" class="st5" d="M477-940c0,0-0.8,21.7-7.1,32.3c-6.4,10.7-13.1,14.7-7,28.7s27.6,11.5,27.6,11.5
	c-5.5,0-24.3-5.8-24.3-16.3S483-915,483-917S484-940,477-940z"/>
<path id="XMLID_47_" class="st6" d="M448.2-920.5c0,0,6.3-6.7,12.3-5.3c6,1.3,7.4,5.3,10.7,5.3c3.3,0,6-0.2,6-2.8
	c-2.1,0-7.4-1.9-12.3-4.2C455.6-931.8,452.4-924.7,448.2-920.5z"/>
<path id="XMLID_46_" class="st5" d="M425-891.5c0,0,7.4,6.5,15.4,2.5"/>
<path id="XMLID_45_" class="st5" d="M455.6-1068.8c0,0,32.9,16.7,35,42.7C493.6-1038.6,490.2-1064.8,455.6-1068.8z"/>
<rect id="XMLID_44_" x="417.5" y="-880.3" class="st5" width="19.5" height="31.8"/>
<path id="XMLID_43_" class="st5" d="M467.2-773.6l-59.4,5.9l-7.7-76.7c-0.9-8.8,5.6-16.7,14.4-17.5l27.5-2.7
	c8.8-0.9,16.7,5.6,17.5,14.4L467.2-773.6z"/>
<circle id="XMLID_42_" class="st5" cx="413.8" cy="-819.4" r="19.1"/>
<circle id="XMLID_41_" class="st5" cx="451.8" cy="-819.4" r="19.1"/>
<path id="XMLID_40_" class="st5" d="M379.2-692.8l7.4-23.7l19.9-63.5l60.6-10.8c0,0,26.7,43.3,56.7,64.7
	c30,21.3,27.3,18.7,27.3,18.7s-6.7,12.7-14.7,20.7S379.2-639.5,379.2-692.8z"/>
<path id="XMLID_39_" class="st5" d="M358.9-673.5c9.3,9.3,6.7,19.3,47.7,26.7c41,7.3,83-5.1,113.7-12.5s50-3.5,44.7-14.1
	c-5.3-10.7-25-15-27.3-17.3c-2.3-2.3-39.3-31.3-39.3-31.3l-116,11.6L358.9-673.5z"/>
<path id="XMLID_38_" class="st5" d="M462.7-665.4c0,0-7.7,78.4-15.2,91.4s-61,98-66,115.5s-7,26-9.5,37S345-411,349.5-432
	s19-35,23.5-47.5s10.5-50,24-73.5s26-28,28.5-38s-8-68-8-68L462.7-665.4z"/>
<path id="XMLID_37_" class="st5" d="M465.2-658.8c0,0,10.3,54.3,17.3,72.3s8,26,8,34s0,40,0,60s4.5,21,0,46.8s-8,29.8-8,33.5
	s-2.2,13.8,1.2,17.2s18-2,21-21.2s0.2-34.8,2-48.5s14.8-53.8,11.2-84.2s-9.5-37.5-9.5-52s-0.5-64.4-0.5-64.4L465.2-658.8z"/>
<path id="XMLID_36_" class="st5" d="M456.5-862.1L456.5-862.1c4.1-2.8,9.7-1.7,12.5,2.5l38.2,57.2c2.8,4.1,1.7,9.7-2.5,12.5h0
	c-4.1,2.8-9.7,1.7-12.5-2.5l-38.2-57.2C451.3-853.7,452.4-859.3,456.5-862.1z"/>
<path id="XMLID_35_" class="st5" d="M398.1-855.3L398.1-855.3c4.5,2.2,6.3,7.5,4.2,12l-29.9,61.9c-2.2,4.5-7.5,6.3-12,4.2l0,0
	c-4.5-2.2-6.3-7.5-4.2-12l29.9-61.9C388.2-855.6,393.6-857.5,398.1-855.3z"/>
<path id="XMLID_34_" class="st5" d="M407.2-738L407.2-738c-3.5,3.5-9.2,3.5-12.7,0l-36-36c-3.5-3.5-3.5-9.2,0-12.7h0
	c3.5-3.5,9.2-3.5,12.7,0l36,36C410.8-747.2,410.8-741.5,407.2-738z"/>
<path id="XMLID_33_" class="st5" d="M496.9-789.8L496.9-789.8c-4.7-1.6-7.2-6.7-5.6-11.4l24.9-73.7l17.1,5.8l-24.9,73.7
	C506.8-790.7,501.7-788.2,496.9-789.8z"/>
<circle id="XMLID_32_" class="st5" cx="529.5" cy="-881" r="17.5"/>
<circle id="XMLID_28_" class="st5" cx="409.5" cy="-745" r="17.5"/>
<path id="XMLID_594_" class="st7" d="M505.2,408.5c0.4,13.9-0.5,20.5-0.5,20.5c0.9,0.9,1.1,1,2.2,1c-1.4,0.4-3,0.8-3,4.5
	c0,13-0.3,76.4-2.2,90.9c-11.9-1.9-25.9,0.1-34.2-0.8c-11.3-1.3-8.5-11.8-6.8-14.6c32.6-53.1,34.4-77.5,34.4-77.5s0.5-2.7,1.2-4.1
	c0.5-3.1,1.1-8.1,0.2-14c-0.4-2.8-2.4-9.2-4.6-14.2c-0.1-0.1-0.2-0.2-0.4-0.3c-3.7-2.5-6.3-6.6-7-11.5c0,0,0-0.1,0-0.2
	c-0.3-2.5,1.3-4.7,3.6-4.9l2.8-0.3c-0.3,1.6,0.5,9.8,8.2,13.1c6,2.5,12.9,0.1,15-2.2c0.4,1.9-2,5.1-5.1,7.3
	C506.6,402.9,505.2,405.6,505.2,408.5z"/>
<rect id="XMLID_557_" x="500" y="336.2" class="st8" width="19.5" height="31.8"/>
<rect id="XMLID_553_" x="500" y="336.2" class="st9" width="9.8" height="16.7"/>
<path id="XMLID_544_" class="st10" d="M500,348.8c4.1,0.1,11.9-0.4,19.5-3.9v-8.7H500V348.8z"/>
<path id="XMLID_535_" class="st8" d="M596.4,402.3l33.9-61.9l-15.8-8.6L584.3,387c-1,1.8-3.3,2.2-4.8,0.9l-41-35.1
	c-3.8-3.2-9.5-2.8-12.7,1v0c-3.2,3.8-2.8,9.5,1,12.7l46.8,40.1l4,3.4c5,4.2,12.6,2.9,15.9-2.7L596.4,402.3z"/>
<path id="XMLID_527_" class="st8" d="M596.4,402.3l33.9-61.9l-15.8-8.6L584.3,387c-1,1.8-3.3,2.2-4.8,0.9l-41-35.1
	c-3.8-3.2-9.5-2.8-12.7,1v0c-3.2,3.8-2.8,9.5,1,12.7l46.8,40.1l4,3.4c5,4.2,12.6,2.9,15.9-2.7L596.4,402.3z"/>
<path id="XMLID_522_" class="st8" d="M538.1,389.8l-47.7,2.4c-0.4,0-0.8-0.3-0.8-0.7l-1.7-33.3c-0.1-2.8,2-5.2,4.9-5.4l35.7-1.8
	c4.6-0.2,8.6,3.3,8.8,8l1.5,30.1C538.8,389.4,538.5,389.8,538.1,389.8z"/>
<path id="XMLID_519_" class="st9" d="M576.8,393c4.3,3.7,11,2.5,13.7-2.5l30.3-55.3l-6.3-3.4L584.3,387c-1,1.8-3.3,2.2-4.8,0.9
	l-41-35.1c-2.9-2.5-6.2-2.6-12.8-1.7c0,0,3.4-0.4,7,2.9C545.5,365.6,576.8,393,576.8,393z"/>
<path id="XMLID_505_" class="st8" d="M496.2,354.7c-4-2.9-9.6-2.1-12.6,1.9l-40.7,55.5c-0.8,1.2-1.4,2.4-1.6,3.8
	c-0.5,2.3-0.1,4.8,1.4,7l28.9,41.9c2.8,4.1,8.4,5.1,12.5,2.3v0c4.1-2.8,5.1-8.4,2.3-12.5l-25.3-36.7l37-50.5
	C501.1,363.2,500.2,357.6,496.2,354.7z"/>
<path id="XMLID_496_" class="st9" d="M461.8,416.9l29.6-39.4l-1.8-4.6c-0.4-1-1.7-1.1-2.3-0.3l-29.6,40.3l-2.1,2.8
	c-0.9,1.2-0.9,2.8-0.1,4l2,2.9l28.9,42c2-3,2-7-0.1-10.1l-24.6-35.7C461.4,418.2,461.4,417.4,461.8,416.9z"/>
<path id="XMLID_493_" class="st11" d="M469,522.5c-2.8,0-9,6.9-11,11.8s22.2,19,51.3,23.4s76.2,9,95.9,4.2s36.7-21,32.1-26.4
	C635,533,599,522.5,599,522.5H469z"/>
<path id="XMLID_464_" class="st12" d="M564,794c0,0-1.6,10.8-2.7,22.4c-1.7,17.7,10.1,5.6,10.1,5.6s13.3-10.7,14.8-32
	C587.7,768.7,565.2,787.8,564,794z"/>
<path id="XMLID_457_" class="st12" d="M432.9,775.8c0,0-5.2,21-1.3,35.3c0.6,2.3,3.3,3.6,5.5,2.5c8.8-4.1,16-17.7,17.8-25.3
	C456.9,779.5,442.4,761.6,432.9,775.8z"/>
<ellipse id="XMLID_454_" transform="matrix(0.9983 -5.882530e-02 5.882530e-02 0.9983 -13.6881 30.246)" class="st11" cx="506.9" cy="247.6" rx="68" ry="62.4"/>
<circle id="XMLID_445_" class="st11" cx="506.6" cy="191.4" r="35"/>
<path id="XMLID_441_" class="st13" d="M553.3,271c0,0,0.5,21.7-5.2,32.7c-5.7,11-11.6,23-6.6,32.5c7.1,13.5,27,6.3,27,6.3
	c-5.5,0.3-22.1,1-22.7-9.5c-0.6-10.5,15-37.4,14.8-39.4C560.6,291.6,560.3,270.6,553.3,271z"/>
<path id="XMLID_428_" class="st11" d="M519.9,152.5c0,0-29.4-1.2-46.3,30.1C474.5,169.8,485.7,145.8,519.9,152.5z"/>
<path id="XMLID_423_" class="st13" d="M473.2,180.8c5.9-18.4,25.6-28.6,44-22.7c11.1,3.6,19.3,12.2,22.6,22.5v0
	c-6.5-6.5-23.2-8.1-38.4,7c-10.1,10.1-20.7,17.8-24,23.3C471.8,202.3,469.9,191.3,473.2,180.8z"/>
<path id="XMLID_415_" class="st11" d="M461.7,280.4c0,0,0.5,21.7-5.2,32.7c-5.7,11-11.2,18.2-6.6,30.4c4.6,12.3,28.9,9.5,29.6,8.5
	c-10.3,0.8-27.7-5.3-26.4-15.8c2.1-15.8,16.1-31.2,16-33.2C469,301,468.7,280,461.7,280.4z"/>
<path id="XMLID_412_" class="st8" d="M512.3,342.7L512.3,342.7c-14,0.8-32.4-8.5-43.2-25.6c-12.8-19.4-20.9-49.7-6.9-69.3
	c29.6-1.7,59.2-3.5,88.8-5.2c16.1,17.8,11.6,48.9,1.3,69.7C543.5,330.4,526.3,341.9,512.3,342.7z"/>
<path id="XMLID_408_" class="st9" d="M460.4,307l-1.8,0.3c-2.7,0.4-5.2-1.4-5.6-4.1l-3.1-19.3c-0.4-2.7,1.4-5.2,4.1-5.6l1.8-0.3
	c2.7-0.4,5.2,1.4,5.6,4.1l3.1,19.3C464.9,304,463.1,306.5,460.4,307z"/>
<path id="XMLID_405_" class="st10" d="M555.8,307l1.8,0.3c2.7,0.4,5.2-1.4,5.6-4.1l3.1-19.3c0.4-2.7-1.4-5.2-4.1-5.6l-1.8-0.3
	c-2.7-0.4-5.2,1.4-5.6,4.1l-3.1,19.3C551.3,304,553.2,306.5,555.8,307z"/>
<path id="XMLID_402_" class="st8" d="M512.3,342.7L512.3,342.7c-14,0.8-32.4-8.5-43.2-25.6c-12.8-19.4-20.9-49.7-6.9-69.3
	c29.6-1.7,59.2-3.5,88.8-5.2c16.1,17.8,11.6,48.9,1.3,69.7C543.5,330.4,526.3,341.9,512.3,342.7z"/>
<path id="XMLID_399_" class="st9" d="M551,242.6c-6.3,0.4-77.9,11.4-84.3,11.8c2,11.8,57.2,1.2,61.6,8.5c8.5,14,4.7,32.7,1.2,47.2
	c-4,16.5-16.1,30.2-28.8,31.3c4,1.1,8,1.6,11.7,1.4h0c14-0.8,31.2-12.3,39.9-30.5C562.6,291.5,567.1,260.4,551,242.6z"/>
<path id="XMLID_396_" class="st13" d="M564.7,279.8c7-10.5,10.8-23,10-36.2c-2-34.4-34.1-60.5-71.6-58.3
	c-19.8,1.2-37.2,10-48.9,23.2c-7.9,8.9-9.3,21.7-3.6,32.1c0.5,1,1.1,1.9,1.7,2.8c0,0,8.6,15.5,35.5,13.9
	C512.4,255.9,551.3,249.2,564.7,279.8z"/>
<g id="XMLID_393_">
	<path id="XMLID_395_" class="st14" d="M502.3,315.5c0,0,0.4,0.1,1,0.3c0.6,0.2,1.5,0.4,2.5,0.7c0.5,0.1,1,0.3,1.6,0.4
		c0.5,0.2,1.1,0.3,1.7,0.4c0.6,0.1,1.1,0.3,1.7,0.4c0.6,0.1,1.1,0.2,1.7,0.3c0.6,0.1,1.1,0.1,1.7,0.2c0.6,0.1,1.1,0,1.7,0.1
		c0.6,0.1,1.1-0.1,1.7-0.1c0.6,0,1.1-0.1,1.6-0.1c0.5-0.1,1,0,1.4-0.1c0.4-0.1,0.8-0.1,1.1-0.2c0.3,0,0.6-0.1,0.8-0.1
		c0.2,0,0.3,0,0.3,0s0,0.1-0.1,0.2c-0.1,0.1-0.2,0.4-0.4,0.7c-0.2,0.3-0.4,0.6-0.8,1c-0.3,0.4-0.7,0.7-1.2,1.1
		c-0.5,0.4-1,0.8-1.6,1.1c-0.3,0.2-0.6,0.3-1,0.5c-0.2,0.1-0.3,0.2-0.5,0.2l-0.5,0.1c-0.7,0.2-1.5,0.4-2.3,0.4c-0.4,0-0.8,0-1.2,0.1
		c-0.4,0-0.8-0.1-1.2-0.1c-0.8-0.1-1.6-0.3-2.4-0.5c-0.8-0.2-1.5-0.6-2.1-0.9c-0.6-0.4-1.3-0.8-1.8-1.2c-0.5-0.4-1-0.9-1.4-1.3
		c-0.8-0.9-1.3-1.7-1.6-2.4C502.4,316,502.3,315.5,502.3,315.5z"/>
</g>
<ellipse id="XMLID_390_" transform="matrix(0.9994 -3.348624e-02 3.348624e-02 0.9994 -12.614 16.9616)" class="st8" cx="500.1" cy="385.1" rx="15" ry="17.4"/>
<ellipse id="XMLID_387_" transform="matrix(0.9994 -3.348624e-02 3.348624e-02 0.9994 -12.5117 17.9061)" class="st8" cx="528.3" cy="382.5" rx="15" ry="17.4"/>
<path id="XMLID_384_" class="st8" d="M545.2,545.9c0,0-7.7,78.4-15.2,91.4s-61,98-66,115.5s-7,26-9.5,37s-27,10.5-22.5-10.5
	s19-35,23.5-47.5s10.5-50,24-73.5s26-28,28.5-38s-8-68-8-68L545.2,545.9z"/>
<g id="XMLID_380_">
	<path id="XMLID_381_" class="st9" d="M437.2,795.2c6.3,3.6,15.5,1.2,17.2-5.2C450.4,794,443.5,796.9,437.2,795.2z"/>
</g>
<path id="XMLID_373_" class="st9" d="M530.2,543.5c-2.1,29.2-2.5,79.9-8.6,90.6c-7.6,13.2-48.3,77.5-65,117.2
	c-2.5,5.9,6.5,4.4,7.3,1.5c5-17.5,58.5-102.5,66-115.5s15.2-91.4,15.2-91.4L530.2,543.5z"/>
<path id="XMLID_363_" class="st8" d="M546.7,547.4c0,0,10.3,54.3,17.3,72.3s8,26,8,34s1.4,37.4,1.4,57.4s3.1,23.6-1.4,49.3
	s-8,29.8-8,33.5s-1.5,11.4,2,14.9s17.2,0.4,20.2-18.9s0.2-34.8,2-48.5s14.8-53.8,11.2-84.2s-9.5-37.5-9.5-52s-0.5-64.4-0.5-64.4
	L546.7,547.4z"/>
<path id="XMLID_360_" class="st9" d="M569.1,810.1c5.2,0.4,13.9-4.2,16.8-18.1C581.4,801.7,575.9,808.2,569.1,810.1z"/>
<path id="XMLID_357_" class="st9" d="M599.5,657.2c-3.5-30.5-9.5-37.5-9.5-52s-0.5-64.4-0.5-64.4l-9.6,1.5
	c0.2,18.2,0.4,48.2,0.4,59.5c0,16.7,6.9,24.8,10.9,59.9s-9.8,73.7-11.3,97.6c-0.1,1.2-0.2,5.9,0.9,7.5c2.3,3.5,6.9,3.5,6.9-1.8
	c-0.1-8.5-0.4-16.3,0.5-23.5C590,727.8,603,687.8,599.5,657.2z"/>
<path id="XMLID_354_" class="st15" d="M458.8,532.1c-2.3,7.4-3.2-7.6,31.2,16c28.2,19.4,55.4,41.5,112.7,3.8
	c30.5-20.1,35.4-13.4,35.4-13.4s0.7-1.5-1.1-5c-5.3-10.7-14.7-10.8-17-13.1c-2.3-2.3-39.3-31.3-39.3-31.3l-105.8,26.8
	C474.8,515.9,461.2,524.7,458.8,532.1z"/>
<path id="XMLID_353_" class="st16" d="M627.3,332.2l-16,6.7c-4.5,1.9-9.6-1.4-9.6-6.4v-46.1c0-2.8,1.7-5.3,4.2-6.4l16-6.7
	c4.5-1.9,9.6,1.4,9.6,6.4v46.1C631.6,328.6,629.9,331.2,627.3,332.2z"/>
<path id="XMLID_352_" class="st17" d="M631.5,332.2l-16,6.7c-4.5,1.9-9.6-1.4-9.6-6.4v-46.1c0-2.8,1.7-5.3,4.2-6.4l16-6.7
	c4.5-1.9,9.6,1.4,9.6,6.4v46.1C635.7,328.6,634.1,331.2,631.5,332.2z"/>
<circle id="XMLID_349_" class="st18" cx="625.4" cy="333.7" r="17.5"/>
<circle id="XMLID_346_" class="st8" cx="622.6" cy="331.8" r="11"/>
<path id="XMLID_343_" class="st14" d="M453.6,229.3c0,0,14.3,3.7,15.1,16.6c0.4,7-5.5,18.4-19.8,21.5c-12.5,2.7-22.8,6.1-28.9,16
	c0.5-8,3.5-18,20.2-24C456.9,253.4,461.4,244.9,453.6,229.3z"/>
<path id="XMLID_340_" class="st9" d="M509.8,373.8c0,0,4.3,2.2,5.4,8.1c0.5-5.1,2.3-8.5,3.3-9.1c-1.4,0.4-3.2,2.3-3.7,4.6
	C513.7,375,509.8,373.8,509.8,373.8z"/>
<path id="XMLID_337_" class="st12" d="M539.9,378.4l-51.8,4.9c-2.3,0.2-4,2.5-3.6,4.9c0,0.1,0,0.1,0,0.2c1.2,8.4,8.2,14.6,16,14.2
	c7-0.4,12.5-5.7,14.2-12.6c2.8,6.7,9.4,11.1,16.6,9.8c6.3-1.1,11.3-6.5,12.6-13.3c0.2-1.2,0.3-2.4,0.3-3.6
	C544.2,380.2,542.2,378.2,539.9,378.4z"/>
<g id="XMLID_335_">
	<path id="XMLID_336_" class="st12" d="M542,425.5c0,0-4-10-4-14.2c0-11,3-22.4,3-22.4h-26.3l-25,5.6c0,0,6.1,14.9,6.8,19.9
		c1.5,9.9-0.8,16.4-0.8,16.4s-2.4,26.1-35,79.2c-1.7,2.8-4.5,13.3,6.8,14.6c13.9,1.6,43.4-5.1,53.1,11.8
		c13.7,23.8,68.6-21.1,82.4-4.4c11.3,13.7,24.6,0.3,32.2-10.2c3.9-5.3,2.9-12.8-2.3-16.8c-5.9-4.7-14.8-11.5-26.6-19.9
		C576.3,463.8,542,425.5,542,425.5z"/>
</g>
<path id="XMLID_333_" class="st19" d="M482.2,497.2c2.3-12,15.7-58.3,17.7-68.8c0.1-0.4,1-0.7,1.1-0.9c0-0.4-0.8-0.8-0.8-1.2
	c0.5-6-0.1-13.1-0.6-17.8c-0.4-2.9,1.1-6.8,3.9-7.5c2.4-0.6,8.3-3.6,9.6-6.7c-3.4,4.8-15.8,6.8-21.6,1.1c-4.1-4.1-4.4-8.8-4.7-11.7
	c-1.5,0.8-2.5,2.6-2.3,4.5c0,0.1,0,0.1,0,0.2c0.7,4.9,3.4,9,7,11.5c0.1,0.1,0.3,0.2,0.4,0.3c2.2,5,4.2,11.4,4.6,14.2
	c0.9,5.9,0.3,10.9-0.2,14c-0.5,1.8-1.2,5.8-1.2,5.8s-3.7,20.6-34.4,75.8c-1.6,2.9-4.5,13.3,6.8,14.6c2.8,0.3,7,0.3,10.8,0.2
	C479.4,518.3,481,503.1,482.2,497.2z"/>
<path id="XMLID_332_" class="st20" d="M538.7,281.2c-1.2-0.7-2.6-0.7-3.8,0c-1.7-2.3-4.1-3.6-6.4-3.1c-2.7,0.6-4.5,3.3-4.8,6.7
	c1.3-1.5,2.8-2.8,4.9-3.3c3-0.7,5.4,0.9,6.2,1.3c0.1,0,0.2,0.1,0.3,0c1.5-0.9,3.3-1,4.5-0.3c0.3,0.2,0.6,0.4,0.8,0.6
	C540,282.3,539.5,281.6,538.7,281.2z"/>
<path id="XMLID_331_" class="st20" d="M482.4,284.5c1.1-0.8,2.6-1,3.8-0.5c1.4-2.5,3.6-4.1,6-3.8c2.7,0.2,4.9,2.7,5.6,6.1
	c-1.4-1.4-3.1-2.5-5.3-2.7c-3.1-0.3-5.3,1.5-6,2c-0.1,0.1-0.2,0.1-0.3,0.1c-1.6-0.7-3.4-0.6-4.5,0.2c-0.3,0.2-0.5,0.4-0.7,0.7
	C481.2,285.8,481.7,285,482.4,284.5z"/>
<circle id="XMLID_327_" class="st8" cx="488.4" cy="463.5" r="17.5"/>
<circle id="XMLID_324_" class="st8" cx="488.4" cy="463.5" r="17.5"/>
<path id="XMLID_321_" class="st18" d="M491.6,446.3c-5.4-1-10.7,0.6-14.6,4c0.4,0,0.7,0.1,1.1,0.1c9.2,1.7,15.3,10.5,13.6,19.8
	c-0.8,4.3-3.2,8-6.4,10.4c9.5,1.7,18.6-4.5,20.3-14C507.3,457.2,501.1,448.1,491.6,446.3z"/>
<path id="XMLID_320_" class="st21" d="M606.3,485.1c-28.9-20.6-61.9-56.9-64.2-59.4c-0.1-0.1-0.2-0.2-0.2-0.3
	c-0.5-1.4-3.9-10.2-3.9-14.1c0-5.8,0.8-11.7,1.6-16c0-0.2,0.1-0.4,0.2-0.5c0.6-0.7,1.1-1.4,1.6-2.2c0,0,0,0,0,0l0,0
	c1.1-1.8,2-3.9,2.4-6.2c0.2-1.2,0.3-2.4,0.3-3.6c0-2.6-2-4.5-4.3-4.3l-3.2,0.3c0.3,0.6,0.5,1.3,0.7,2c0,0,0.3,1.2,0.5,2.3
	c0.2,1.7-0.6,6.5-3.8,9.5c-3.7,3.5-9.9,4.2-15.5,1.6c0,0,1.6,1.5,4,2.9c1.8,1,4.5,2,5.3,2.1c2.5,0.4,4.4,2.3,4.7,4.8
	c0.4,3.3,0.6,6.7,0.6,8.3c0,2.1,0.2,6.7,1,11.3c0.1,0.5-1.1,1.2-1,1.7c0.1,0.4,1.2-0.1,1.2,0.2c0.3,1.4,0.8,3.3,1.2,4.6
	c1.6,4.8,42.3,69.4,68,102.6c0,0,0,0.1,0.1,0.1c11.3,12.5,24.3-0.9,31.8-11.3c3.7-5.2,2.6-12.4-2.4-16.3
	C627.2,500.5,618.2,493.6,606.3,485.1z"/>
<path id="XMLID_317_" class="st14" d="M561.6,240.8c-6.5,14.8-34.1,5.3-59.2,2.9c-36.3-3.5-44.6-24.3-38.1-39.1s38.6-24.7,61.7-14.5
	C549.1,200.2,568.1,226,561.6,240.8z"/>
<ellipse id="XMLID_314_" transform="matrix(0.2636 -0.9646 0.9646 0.2636 170.5591 637.5068)" class="st22" cx="502.8" cy="207" rx="13.6" ry="23.4"/>
<ellipse id="XMLID_311_" transform="matrix(0.8292 -0.559 0.559 0.8292 -10.9075 306.9063)" class="st22" cx="496.7" cy="171.3" rx="13.4" ry="7"/>
<circle id="XMLID_310_" class="st16" cx="620.8" cy="291.8" r="3.3"/>
<ellipse id="XMLID_309_" transform="matrix(0.9891 -0.1474 0.1474 0.9891 -114.0216 72.7502)" class="st23" cx="434" cy="805.9" rx="1.1" ry="4.2"/>
<ellipse id="XMLID_308_" transform="matrix(6.194725e-03 -1 1 6.194725e-03 -257.7302 1377.835)" class="st23" cx="564.3" cy="818.6" rx="4.2" ry="1.1"/>
</svg>
