<?xml version="1.0" encoding="utf-8"?>
<!-- Generator: Adobe Illustrator 23.1.1, SVG Export Plug-In . SVG Version: 6.00 Build 0)  -->
<svg version="1.1" id="Layer_1" xmlns="http://www.w3.org/2000/svg" xmlns:xlink="http://www.w3.org/1999/xlink" x="0px" y="0px"
	 viewBox="0 0 1000 1000" style="enable-background:new 0 0 1000 1000;" xml:space="preserve">
<style type="text/css">
	.st0{fill:#F9B978;}
	.st1{fill:#1F3250;}
	.st2{fill:#D6925B;stroke:#D6925B;stroke-width:6;stroke-miterlimit:10;}
	.st3{fill:none;stroke:#1F3250;stroke-width:6;stroke-linecap:round;stroke-linejoin:round;stroke-miterlimit:10;}
	.st4{fill:#0C776D;}
	.st5{fill:#1F3250;stroke:#1F3250;stroke-width:6;stroke-linecap:round;stroke-linejoin:round;stroke-miterlimit:10;}
	.st6{fill:none;stroke:#5C290C;stroke-width:6;stroke-linecap:round;stroke-linejoin:round;stroke-miterlimit:10;}
	.st7{fill:#0F8E85;}
	.st8{fill:#BEEDC4;}
	.st9{fill:none;stroke:#1F3250;stroke-width:4;stroke-linecap:round;stroke-linejoin:round;stroke-miterlimit:10;}
	.st10{fill:#0C776D;stroke:#0C776D;stroke-width:6;stroke-linecap:round;stroke-linejoin:round;stroke-miterlimit:10;}
	.st11{opacity:0.86;fill:#36B2A0;}
	.st12{fill:#7DD9D6;}
	.st13{opacity:0.64;fill:#32B94D;}
	.st14{fill:none;stroke:#0C776D;stroke-width:8;stroke-linecap:round;stroke-linejoin:round;stroke-miterlimit:10;}
	.st15{fill:none;stroke:#0C776D;stroke-width:6;stroke-linecap:round;stroke-linejoin:round;stroke-miterlimit:10;}
	.st16{filter:url(#Adobe_OpacityMaskFilter);}
	.st17{mask:url(#XMLID_6_);}
	.st18{fill:none;stroke:#1F3250;stroke-width:8;stroke-linecap:round;stroke-linejoin:round;stroke-miterlimit:10;}
	.st19{filter:url(#Adobe_OpacityMaskFilter_1_);}
	.st20{mask:url(#XMLID_7_);}
	.st21{fill:none;stroke:#1F3250;stroke-width:3;stroke-linecap:round;stroke-linejoin:round;stroke-miterlimit:10;}
	.st22{opacity:0.51;fill:#7DB9F9;}
	.st23{opacity:0.43;fill:#FFFFFF;}
	.st24{opacity:0.36;fill:none;stroke:#1F3250;stroke-width:6;stroke-linecap:round;stroke-linejoin:round;stroke-miterlimit:10;}
	.st25{fill:#6DD2B9;}
	.st26{fill:#32B94D;}
	.st27{fill:none;stroke:#6DD2B9;stroke-width:6;stroke-linecap:round;stroke-linejoin:round;stroke-miterlimit:10;}
</style>
<rect id="XMLID_12_" class="st0" width="1000" height="1000"/>
<g>
	<g>
		<g>
			<path class="st1" d="M63.2,959.2c0,2.5-1.2,3.7-2.6,3.7c-1.1,0-1.9-0.5-2.1-1.4c-0.4,0.5-1,0.8-1.8,0.8c-1.5,0-2.6-1.2-2.6-2.8
				c0-1.6,1.1-2.8,2.6-2.8c0.7,0,1.2,0.3,1.6,0.7v-0.5h1.6v3.9c0,0.8,0.3,1.4,1,1.4c0.9,0,1.7-0.9,1.7-3c0-3-2.3-5.3-5.4-5.3
				c-3.1,0-5.6,2.4-5.6,5.7c0,3.3,2.5,5.7,5.9,5.7c1.1,0,2.1-0.2,2.9-0.4v0.6c-0.8,0.3-1.7,0.4-2.9,0.4c-3.7,0-6.5-2.6-6.5-6.2
				c0-3.4,2.7-6.2,6.2-6.2C61.1,953.3,63.2,956.4,63.2,959.2z M58.3,959.5c0-0.8-0.6-1.4-1.3-1.4c-0.8,0-1.3,0.5-1.3,1.4
				c0,0.8,0.6,1.3,1.3,1.3C57.8,960.9,58.3,960.3,58.3,959.5z"/>
		</g>
		<g>
			<path class="st1" d="M69.4,955.1v2c-1.2-0.1-2.6,0.5-2.6,2.4v4.3h-1.9v-8.6h1.9v1.4C67.3,955.5,68.3,955.1,69.4,955.1z"/>
		</g>
		<g>
			<path class="st1" d="M74.6,962.3c1,0,1.8-0.5,2.2-1.1l1.5,0.9c-0.8,1.2-2.1,1.9-3.8,1.9c-2.8,0-4.7-1.9-4.7-4.5
				c0-2.5,1.8-4.5,4.5-4.5c2.6,0,4.3,2.1,4.3,4.5c0,0.3,0,0.5-0.1,0.8h-6.8C72.1,961.6,73.2,962.3,74.6,962.3z M76.9,958.8
				c-0.3-1.5-1.3-2.1-2.5-2.1c-1.4,0-2.3,0.8-2.6,2.1H76.9z"/>
		</g>
		<g>
			<path class="st1" d="M88.9,955.2v8.6h-1.9v-1.2c-0.7,0.9-1.7,1.5-3,1.5c-2.3,0-4.3-2-4.3-4.5c0-2.6,1.9-4.5,4.3-4.5
				c1.3,0,2.3,0.5,3,1.4v-1.2H88.9z M87.1,959.5c0-1.6-1.2-2.7-2.7-2.7c-1.5,0-2.7,1.1-2.7,2.7c0,1.6,1.2,2.7,2.7,2.7
				C85.9,962.3,87.1,961.1,87.1,959.5z"/>
		</g>
		<g>
			<path class="st1" d="M91.1,951.3H93v12.5h-1.9V951.3z"/>
		</g>
		<g>
			<path class="st1" d="M102.9,955.2l-3.3,8.6h-2.1l-3.3-8.6h2l2.4,6.5l2.4-6.5H102.9z"/>
		</g>
		<g>
			<path class="st1" d="M104.2,955.2h1.9v8.9c0,2.4-1.2,3.5-3.5,3.3v-1.8c1.1,0.1,1.7-0.3,1.7-1.5V955.2z M104,952.8
				c0-0.7,0.5-1.2,1.2-1.2c0.7,0,1.2,0.5,1.2,1.2c0,0.6-0.5,1.2-1.2,1.2C104.5,954,104,953.4,104,952.8z"/>
		</g>
		<g>
			<path class="st1" d="M116,955.2l-3.3,8.8c-0.8,2.2-2.2,3.3-4.2,3.2v-1.7c1.2,0.1,1.9-0.5,2.3-1.7l0.1-0.2l-3.6-8.4h2l2.6,6.2
				l2.2-6.2H116z"/>
		</g>
	</g>
	<g>
		<path class="st1" d="M211.9,938.7c0,2.1-1.5,3.8-3.6,3.8h-3v-7.6h3C210.4,934.9,211.9,936.6,211.9,938.7z M210.9,938.7
			c0-1.6-1.1-2.9-2.6-2.9h-2v5.7h2C209.8,941.6,210.9,940.3,210.9,938.7z"/>
		<path class="st1" d="M219.5,940.8h-3.4l-0.6,1.7h-1.1l2.8-7.6h1.1l2.8,7.6h-1.1L219.5,940.8z M219.2,939.9l-1.4-3.8l-1.4,3.8
			H219.2z"/>
		<path class="st1" d="M226.4,939.4v3.1h-1v-3.1l-2.7-4.5h1.1l2.1,3.6l2.1-3.6h1.1L226.4,939.4z"/>
		<path class="st1" d="M239.5,934.9v7.6h-1V936l-1.6,0.5l-0.3-0.9l2-0.7H239.5z"/>
		<path class="st1" d="M248.2,940.1c0,1.5-1.1,2.6-2.6,2.6c-1.5,0-2.6-1.1-2.6-2.6c0-0.6,0.2-1.1,0.5-1.5l2.5-3.7h1.2l-1.8,2.7
			c0.1,0,0.2,0,0.4,0C247.1,937.5,248.2,938.6,248.2,940.1z M247.2,940.1c0-1-0.7-1.6-1.6-1.6c-1,0-1.6,0.6-1.6,1.6s0.7,1.6,1.6,1.6
			C246.6,941.7,247.2,941,247.2,940.1z"/>
	</g>
	<g>
		<path class="st1" d="M58.9,938.7c0,2.1-1.5,3.8-3.6,3.8h-3v-7.6h3C57.4,934.9,58.9,936.6,58.9,938.7z M57.9,938.7
			c0-1.6-1.1-2.9-2.6-2.9h-2v5.7h2C56.8,941.6,57.9,940.3,57.9,938.7z"/>
		<path class="st1" d="M67,941.6v1h-4.6v-7.6h4.5v1h-3.5v2.3h3.2v0.9h-3.2v2.4H67z"/>
		<path class="st1" d="M70,940.8l0.9-0.5c0.3,0.8,0.9,1.4,2,1.4c1.1,0,1.6-0.5,1.6-1.2c0-0.8-0.7-1-1.8-1.4
			c-1.2-0.4-2.4-0.8-2.4-2.2c0-1.4,1.1-2.2,2.4-2.2c1.3,0,2.2,0.7,2.6,1.7l-0.8,0.5c-0.3-0.7-0.8-1.2-1.7-1.2
			c-0.8,0-1.4,0.4-1.4,1.1c0,0.7,0.5,1,1.6,1.3c1.3,0.4,2.6,0.8,2.6,2.3c0,1.3-1.1,2.2-2.6,2.2C71.5,942.7,70.4,941.9,70,940.8z"/>
		<path class="st1" d="M80,934.9v7.6h-1v-7.6H80z"/>
		<path class="st1" d="M91.3,939.2c0,1.9-1.4,3.5-3.7,3.5c-2.4,0-4-1.8-4-4c0-2.2,1.7-4,4-4c1.4,0,2.7,0.8,3.3,1.8l-0.9,0.5
			c-0.4-0.8-1.4-1.4-2.4-1.4c-1.8,0-3,1.3-3,3c0,1.7,1.2,3,3,3c1.6,0,2.5-0.9,2.7-2h-2.8v-0.9h3.8V939.2z"/>
		<path class="st1" d="M100.6,934.9v7.6h-0.8l-3.9-5.7v5.7h-1v-7.6h0.8l3.9,5.7v-5.7H100.6z"/>
		<path class="st1" d="M109.1,941.6v1h-4.6v-7.6h4.5v1h-3.5v2.3h3.2v0.9h-3.2v2.4H109.1z"/>
		<path class="st1" d="M119.2,938.7c0,2.1-1.5,3.8-3.6,3.8h-3v-7.6h3C117.6,934.9,119.2,936.6,119.2,938.7z M118.2,938.7
			c0-1.6-1.1-2.9-2.6-2.9h-2v5.7h2C117.1,941.6,118.2,940.3,118.2,938.7z"/>
		<path class="st1" d="M133.2,940.4c0,1.2-1,2.2-2.2,2.2h-3.3v-7.6h3c1.2,0,2.1,0.9,2.1,2.1c0,0.7-0.3,1.2-0.8,1.6
			C132.7,938.9,133.2,939.5,133.2,940.4z M128.7,935.8v2.3h2c0.6,0,1.1-0.5,1.1-1.2c0-0.6-0.5-1.2-1.1-1.2H128.7z M132.2,940.3
			c0-0.7-0.5-1.2-1.2-1.2h-2.3v2.5h2.3C131.7,941.6,132.2,941,132.2,940.3z"/>
		<path class="st1" d="M139.4,939.4v3.1h-1v-3.1l-2.7-4.5h1.1l2.1,3.6l2.1-3.6h1.1L139.4,939.4z"/>
	</g>
	<g>
		<path class="st1" d="M209.9,959.8h-2.4v4.5h-2v-12.4h5c2.2,0,4,1.8,4,4c0,1.6-1,3-2.5,3.6l2.8,4.8h-2.2L209.9,959.8z M207.5,958
			h2.9c1.1,0,1.9-0.9,1.9-2.1c0-1.2-0.9-2.1-1.9-2.1h-2.9V958z"/>
		<path class="st1" d="M220.1,962.8c1.1,0,1.9-0.5,2.3-1.1l1.6,0.9c-0.8,1.2-2.1,1.9-3.9,1.9c-2.9,0-4.8-2-4.8-4.7
			c0-2.6,1.9-4.7,4.7-4.7c2.6,0,4.4,2.1,4.4,4.7c0,0.3,0,0.5-0.1,0.8h-7C217.5,962.1,218.6,962.8,220.1,962.8z M222.4,959.1
			c-0.3-1.5-1.4-2.2-2.5-2.2c-1.4,0-2.4,0.8-2.7,2.2H222.4z"/>
		<path class="st1" d="M228.5,957.3v4.2c0,1.1,0.7,1.1,2.2,1v1.7c-2.9,0.4-4.1-0.5-4.1-2.8v-4.2h-1.6v-1.8h1.6v-1.9l1.9-0.6v2.5h2.2
			v1.8H228.5z"/>
		<path class="st1" d="M237.1,955.3v2.1c-1.3-0.1-2.7,0.5-2.7,2.5v4.5h-1.9v-8.9h1.9v1.5C235,955.7,236,955.3,237.1,955.3z"/>
		<path class="st1" d="M237.7,959.9c0-2.6,2.1-4.7,4.7-4.7c2.6,0,4.7,2,4.7,4.7c0,2.6-2.1,4.7-4.7,4.7
			C239.8,964.5,237.7,962.5,237.7,959.9z M245.1,959.9c0-1.6-1.2-2.8-2.8-2.8s-2.8,1.2-2.8,2.8c0,1.6,1.2,2.8,2.8,2.8
			S245.1,961.5,245.1,959.9z"/>
		<path class="st1" d="M252.7,958.1c0-3.6,2.7-6.4,6.5-6.4c2.3,0,4.3,1.2,5.3,3l-1.8,1c-0.7-1.2-2-2-3.6-2c-2.7,0-4.4,1.9-4.4,4.4
			s1.8,4.4,4.4,4.4c1.6,0,2.9-0.8,3.6-2l1.8,1c-1,1.8-3,3-5.3,3C255.4,964.5,252.7,961.7,252.7,958.1z"/>
		<path class="st1" d="M275,955.4v8.9H273V963c-0.7,0.9-1.7,1.5-3.1,1.5c-2.4,0-4.4-2-4.4-4.7c0-2.6,2-4.7,4.4-4.7
			c1.4,0,2.4,0.6,3.1,1.5v-1.3H275z M273,959.9c0-1.6-1.2-2.8-2.8-2.8c-1.6,0-2.8,1.2-2.8,2.8c0,1.6,1.2,2.8,2.8,2.8
			C271.8,962.7,273,961.5,273,959.9z"/>
		<path class="st1" d="M283.6,961.8c0,1.8-1.5,2.7-3.5,2.7c-1.8,0-3-0.8-3.6-2.1l1.6-1c0.3,0.8,1,1.3,2,1.3c0.8,0,1.5-0.3,1.5-1
			c0-1.6-4.8-0.7-4.8-3.9c0-1.7,1.4-2.7,3.2-2.7c1.5,0,2.7,0.7,3.3,1.8l-1.6,0.9c-0.3-0.7-0.9-1-1.7-1c-0.7,0-1.3,0.3-1.3,0.9
			C278.8,959.5,283.6,958.5,283.6,961.8z"/>
		<path class="st1" d="M291.2,961.8c0,1.8-1.5,2.7-3.5,2.7c-1.8,0-3-0.8-3.6-2.1l1.6-1c0.3,0.8,1,1.3,2,1.3c0.8,0,1.5-0.3,1.5-1
			c0-1.6-4.8-0.7-4.8-3.9c0-1.7,1.4-2.7,3.2-2.7c1.5,0,2.7,0.7,3.3,1.8l-1.6,0.9c-0.3-0.7-0.9-1-1.7-1c-0.7,0-1.3,0.3-1.3,0.9
			C286.5,959.5,291.2,958.5,291.2,961.8z"/>
		<path class="st1" d="M297,962.8c1.1,0,1.9-0.5,2.3-1.1l1.6,0.9c-0.8,1.2-2.1,1.9-3.9,1.9c-2.9,0-4.8-2-4.8-4.7
			c0-2.6,1.9-4.7,4.7-4.7c2.6,0,4.4,2.1,4.4,4.7c0,0.3,0,0.5-0.1,0.8h-7C294.5,962.1,295.6,962.8,297,962.8z M299.4,959.1
			c-0.3-1.5-1.4-2.2-2.5-2.2c-1.4,0-2.4,0.8-2.7,2.2H299.4z"/>
		<path class="st1" d="M305.5,957.3v4.2c0,1.1,0.7,1.1,2.2,1v1.7c-2.9,0.4-4.1-0.5-4.1-2.8v-4.2h-1.6v-1.8h1.6v-1.9l1.9-0.6v2.5h2.2
			v1.8H305.5z"/>
		<path class="st1" d="M311.7,957.3v4.2c0,1.1,0.7,1.1,2.2,1v1.7c-2.9,0.4-4.1-0.5-4.1-2.8v-4.2h-1.6v-1.8h1.6v-1.9l1.9-0.6v2.5h2.2
			v1.8H311.7z"/>
		<path class="st1" d="M319.6,962.8c1.1,0,1.9-0.5,2.3-1.1l1.6,0.9c-0.8,1.2-2.1,1.9-3.9,1.9c-2.9,0-4.8-2-4.8-4.7
			c0-2.6,1.9-4.7,4.7-4.7c2.6,0,4.4,2.1,4.4,4.7c0,0.3,0,0.5-0.1,0.8h-7C317.1,962.1,318.2,962.8,319.6,962.8z M322,959.1
			c-0.3-1.5-1.4-2.2-2.5-2.2c-1.4,0-2.4,0.8-2.7,2.2H322z"/>
	</g>
	<g>
		<path class="st1" d="M841.3,942.5h-1v-7.6h1.1l2.4,4l2.4-4h1.1v7.6h-1v-6l-2.5,4.2h-0.1l-2.5-4.1V942.5z M858.8,938.7
			c0,2.2-1.7,4-4,4c-2.2,0-3.9-1.8-3.9-4c0-2.2,1.7-4,3.9-4C857.1,934.7,858.8,936.5,858.8,938.7z M857.8,938.7c0-1.7-1.3-3-2.9-3
			c-1.7,0-2.9,1.3-2.9,3c0,1.7,1.3,3,2.9,3C856.6,941.7,857.8,940.4,857.8,938.7z M866.2,939.5l1.8,3.1h-1.1l-1.7-2.9h-1.8v2.9h-1
			v-7.6h3c1.3,0,2.4,1.1,2.4,2.4C867.8,938.2,867.1,939.1,866.2,939.5z M865.4,938.7c0.8,0,1.4-0.6,1.4-1.4c0-0.8-0.6-1.4-1.4-1.4
			h-2v2.8H865.4z M875.9,941.6h-3.5v-2.4h3.2v-0.9h-3.2v-2.3h3.5v-1h-4.5v7.6h4.6V941.6z M844.2,962.2l-2.5-6.7h-2.1l3.5,8.9h2.2
			l3.5-8.9h-2.1L844.2,962.2z M850,964.3h1.9v-8.9H850V964.3z M851,951.7c-0.7,0-1.2,0.5-1.2,1.2c0,0.7,0.5,1.2,1.2,1.2
			c0.7,0,1.2-0.6,1.2-1.2C852.2,952.2,851.6,951.7,851,951.7z M855.2,951.7c-0.7,0-1.2,0.5-1.2,1.2c0,0.7,0.5,1.2,1.2,1.2
			c0.7,0,1.2-0.6,1.2-1.2C856.5,952.2,855.9,951.7,855.2,951.7z M854.3,964.7c0,1.2-0.5,1.7-1.7,1.6v1.8c2.4,0.2,3.6-1,3.6-3.4v-9.2
			h-1.9V964.7z M865.4,955.4h1.9v8.9h-1.9V963c-0.7,0.9-1.7,1.5-3.1,1.5c-2.4,0-4.4-2-4.4-4.7c0-2.6,2-4.7,4.4-4.7
			c1.4,0,2.4,0.6,3.1,1.5V955.4z M865.4,959.9c0-1.6-1.2-2.8-2.8-2.8c-1.6,0-2.8,1.2-2.8,2.8c0,1.6,1.2,2.8,2.8,2.8
			C864.2,962.7,865.4,961.5,865.4,959.9z M873.3,961.9l-2.6-6.4h-2.1l3.8,8.7l-0.1,0.2c-0.4,1.2-1.1,1.8-2.4,1.7v1.8
			c2,0.1,3.5-1,4.3-3.3l3.4-9.1h-2L873.3,961.9z M882.3,962.2l-2.5-6.7h-2.1l3.5,8.9h2.2l3.5-8.9h-2.1L882.3,962.2z M896.4,959.9
			c0,0.3,0,0.5-0.1,0.8h-7c0.3,1.4,1.4,2.1,2.8,2.1c1.1,0,1.9-0.5,2.3-1.1l1.6,0.9c-0.8,1.2-2.1,1.9-3.9,1.9c-2.9,0-4.8-2-4.8-4.7
			c0-2.6,1.9-4.7,4.7-4.7C894.5,955.2,896.4,957.3,896.4,959.9z M894.4,959.1c-0.3-1.5-1.4-2.2-2.5-2.2c-1.4,0-2.4,0.8-2.7,2.2
			H894.4z M899.9,956.9v-1.5H898v8.9h1.9v-4.5c0-2,1.5-2.6,2.7-2.5v-2.1C901.6,955.3,900.5,955.7,899.9,956.9z M913.8,955.2
			c-1.2,0-2.1,0.5-2.7,1.4c-0.5-0.9-1.4-1.4-2.5-1.4c-1.1,0-2,0.4-2.5,1.3v-1.1h-1.9v8.9h1.9v-5c0-1.6,0.9-2.3,2-2.3
			c1,0,1.7,0.7,1.7,1.9v5.4h1.9v-5c0-1.6,0.8-2.3,1.9-2.3c1,0,1.7,0.7,1.7,1.9v5.4h1.9v-5.5C917.1,956.6,915.8,955.2,913.8,955.2z
			 M926.2,955.4h1.9v8.9h-1.9V963c-0.7,0.9-1.7,1.5-3.1,1.5c-2.4,0-4.4-2-4.4-4.7c0-2.6,2-4.7,4.4-4.7c1.4,0,2.4,0.6,3.1,1.5V955.4z
			 M926.2,959.9c0-1.6-1.2-2.8-2.8-2.8c-1.6,0-2.8,1.2-2.8,2.8c0,1.6,1.2,2.8,2.8,2.8C925,962.7,926.2,961.5,926.2,959.9z
			 M931.5,961.9c-0.7,0-1.3,0.6-1.3,1.3c0,0.7,0.6,1.3,1.3,1.3c0.7,0,1.3-0.6,1.3-1.3C932.8,962.4,932.2,961.9,931.5,961.9z
			 M938.3,962.6c-1.6,0-2.7-1.2-2.7-2.8c0-1.6,1.2-2.8,2.7-2.8c1.1,0,1.9,0.5,2.3,1.4l1.6-1c-0.7-1.4-2.2-2.3-3.9-2.3
			c-2.7,0-4.7,2-4.7,4.7c0,2.6,2,4.7,4.7,4.7c1.7,0,3.2-0.9,4-2.3l-1.6-0.9C940.2,962.1,939.3,962.6,938.3,962.6z M952.4,959.9
			c0,2.6-2.1,4.7-4.7,4.7c-2.6,0-4.7-2-4.7-4.7c0-2.6,2.1-4.7,4.7-4.7C950.3,955.2,952.4,957.2,952.4,959.9z M950.5,959.9
			c0-1.6-1.2-2.8-2.8-2.8s-2.8,1.2-2.8,2.8c0,1.6,1.2,2.8,2.8,2.8S950.5,961.5,950.5,959.9z"/>
	</g>
</g>
<path id="XMLID_170_" class="st2" d="M233.8,654.2l-7.1-6.7c-1.8-1.7-2.9-4.3-2.9-7.1v-93.8c0-3.3,1.5-6.3,3.8-7.8l6.2-4.2V654.2z"
	/>
<path id="XMLID_168_" class="st3" d="M233.8,641.2l-7.1-6.7c-1.8-1.7-2.9-4.3-2.9-7.1v-93.8c0-3.3,1.5-6.3,3.8-7.8l6.2-4.2V641.2z"
	/>
<path id="XMLID_148_" class="st2" d="M659.9,700.2H339.6c-5.1,0-8.9-4.7-7.8-9.7l17.3-82c0.8-3.7,4-6.3,7.8-6.3h285.7
	c3.8,0,7,2.6,7.8,6.3l17.3,82C668.8,695.5,665,700.2,659.9,700.2z"/>
<path id="XMLID_147_" class="st2" d="M753.8,687.8h-508c-6.6,0-12-5.4-12-12v-330c0-6.6,5.4-12,12-12h508c6.6,0,12,5.4,12,12v330
	C765.8,682.4,760.4,687.8,753.8,687.8z"/>
<g id="XMLID_175_">
	<path id="XMLID_172_" class="st2" d="M765.8,648l7.1-6.7c1.8-1.7,2.9-4.3,2.9-7.1v-93.8c0-3.3-1.5-6.3-3.8-7.8l-6.2-4.2V648z"/>
	<path id="XMLID_167_" class="st3" d="M765.8,635l7.1-6.7c1.8-1.7,2.9-4.3,2.9-7.1v-93.8c0-3.3-1.5-6.3-3.8-7.8l-6.2-4.2V635z"/>
	<path id="XMLID_163_" class="st4" d="M765.8,628l7.1-6.7c1.8-1.7,2.9-4.3,2.9-7.1v-93.8c0-3.3-1.5-6.3-3.8-7.8l-6.2-4.2V628z"/>
	<path id="XMLID_150_" class="st3" d="M765.8,628l7.1-6.7c1.8-1.7,2.9-4.3,2.9-7.1v-93.8c0-3.3-1.5-6.3-3.8-7.8l-6.2-4.2V628z"/>
</g>
<path id="XMLID_49_" class="st5" d="M753.8,662.8h-508c-6.6,0-12-5.4-12-12v-330c0-6.6,5.4-12,12-12h508c6.6,0,12,5.4,12,12v330
	C765.8,657.4,760.4,662.8,753.8,662.8z"/>
<path id="XMLID_47_" class="st5" d="M659.9,676.2H339.6c-5.1,0-8.9-4.7-7.8-9.7l17.3-82c0.8-3.7,4-6.3,7.8-6.3h285.7
	c3.8,0,7,2.6,7.8,6.3l17.3,82C668.8,671.5,665,676.2,659.9,676.2z"/>
<path id="XMLID_2_" class="st6" d="M753.8,653.8h-508c-6.6,0-12-5.4-12-12v-330c0-6.6,5.4-12,12-12h508c6.6,0,12,5.4,12,12v330
	C765.8,648.4,760.4,653.8,753.8,653.8z"/>
<path id="XMLID_14_" class="st7" d="M753.8,653.8h-508c-6.6,0-12-5.4-12-12v-330c0-6.6,5.4-12,12-12h508c6.6,0,12,5.4,12,12v330
	C765.8,648.4,760.4,653.8,753.8,653.8z"/>
<g id="XMLID_104_">
	<circle id="XMLID_103_" class="st4" cx="265.4" cy="328.5" r="15.2"/>
	<circle id="XMLID_149_" class="st8" cx="265.4" cy="328.5" r="10.5"/>
	<circle id="XMLID_10_" class="st9" cx="265.4" cy="328.5" r="10.5"/>
	<line id="XMLID_34_" class="st9" x1="261.6" y1="324.7" x2="269.2" y2="332.3"/>
	<line id="XMLID_27_" class="st9" x1="269.2" y1="324.7" x2="261.6" y2="332.3"/>
</g>
<g id="XMLID_106_">
	<circle id="XMLID_112_" class="st4" cx="734.1" cy="328.5" r="15.2"/>
	<circle id="XMLID_151_" class="st8" cx="734.1" cy="328.5" r="10.5"/>
	<circle id="XMLID_110_" class="st9" cx="734.1" cy="328.5" r="10.5"/>
	<line id="XMLID_108_" class="st9" x1="730.3" y1="324.7" x2="737.9" y2="332.3"/>
	<line id="XMLID_107_" class="st9" x1="737.9" y1="324.7" x2="730.3" y2="332.3"/>
</g>
<path id="XMLID_23_" class="st4" d="M677.4,632.2l-12.6-60c-1.8-8.5-9.4-15-18.1-15H352.8c-8.7,0-16.3,6.5-18.1,15l-12.6,60H677.4z"
	/>
<path id="XMLID_19_" class="st10" d="M711.9,565.3h-424c-3.3,0-6-2.7-6-6v-182c0-11,9-20,20-20h396c11,0,20,9,20,20v182
	C717.9,562.6,715.2,565.3,711.9,565.3z"/>
<path id="XMLID_18_" class="st4" d="M753.8,653.8h-508c-6.6,0-12-5.4-12-12v-14.6h532v14.6C765.8,648.4,760.4,653.8,753.8,653.8z"/>
<path id="XMLID_17_" class="st11" d="M765.8,315.8h-532v-4c0-6.6,5.4-12,12-12h508c6.6,0,12,5.4,12,12V315.8z"/>
<path id="XMLID_13_" class="st3" d="M753.8,653.8h-508c-6.6,0-12-5.4-12-12v-330c0-6.6,5.4-12,12-12h508c6.6,0,12,5.4,12,12v330
	C765.8,648.4,760.4,653.8,753.8,653.8z"/>
<path id="XMLID_15_" class="st12" d="M711.9,555.3h-424c-3.3,0-6-2.7-6-6v-182c0-11,9-20,20-20h396c11,0,20,9,20,20v182
	C717.9,552.6,715.2,555.3,711.9,555.3z"/>
<path id="XMLID_37_" class="st13" d="M711.9,555.3h-424c-3.3,0-6-2.7-6-6V407.9h436v141.4C717.9,552.6,715.2,555.3,711.9,555.3z"/>
<path id="XMLID_3_" class="st3" d="M711.9,555.3h-424c-3.3,0-6-2.7-6-6v-182c0-11,9-20,20-20h396c11,0,20,9,20,20v182
	C717.9,552.6,715.2,555.3,711.9,555.3z"/>
<path id="XMLID_16_" class="st7" d="M659.9,667.2H339.6c-5.1,0-8.9-4.7-7.8-9.7l17.3-82c0.8-3.7,4-6.3,7.8-6.3h285.7
	c3.8,0,7,2.6,7.8,6.3l17.3,82C668.8,662.5,665,667.2,659.9,667.2z"/>
<line id="XMLID_59_" class="st14" x1="347" y1="589.2" x2="347" y2="658.6"/>
<line id="XMLID_60_" class="st14" x1="652" y1="579.7" x2="652" y2="661.9"/>
<g id="XMLID_22_">
	<line id="XMLID_4_" class="st14" x1="365" y1="569.2" x2="365" y2="661.9"/>
	<line class="st14" x1="381.9" y1="569.2" x2="381.9" y2="661.9"/>
	<line class="st14" x1="398.8" y1="569.2" x2="398.8" y2="661.9"/>
	<line class="st14" x1="415.6" y1="569.2" x2="415.6" y2="661.9"/>
	<line class="st14" x1="432.5" y1="569.2" x2="432.5" y2="661.9"/>
	<line class="st14" x1="449.4" y1="569.2" x2="449.4" y2="661.9"/>
	<line class="st14" x1="466.2" y1="569.2" x2="466.2" y2="661.9"/>
	<line class="st14" x1="483.1" y1="569.2" x2="483.1" y2="661.9"/>
	<line class="st14" x1="500" y1="569.2" x2="500" y2="661.9"/>
	<line class="st14" x1="516.9" y1="569.2" x2="516.9" y2="661.9"/>
	<line class="st14" x1="533.8" y1="569.2" x2="533.8" y2="661.9"/>
	<line class="st14" x1="550.6" y1="569.2" x2="550.6" y2="661.9"/>
	<line class="st14" x1="567.5" y1="569.2" x2="567.5" y2="661.9"/>
	<line class="st14" x1="584.4" y1="569.2" x2="584.4" y2="661.9"/>
	<line class="st14" x1="601.2" y1="569.2" x2="601.2" y2="661.9"/>
	<line class="st14" x1="618.1" y1="569.2" x2="618.1" y2="661.9"/>
	<line id="XMLID_1_" class="st14" x1="635" y1="569.2" x2="635" y2="661.9"/>
</g>
<path id="XMLID_26_" class="st4" d="M664.8,643.6c-1.3,1-3,1.7-4.9,1.7H339.6c-1.9,0-3.5-0.6-4.9-1.7l-3,14c-1,5,2.7,9.7,7.8,9.7
	h320.3c5.1,0,8.9-4.7,7.8-9.7L664.8,643.6z"/>
<path id="XMLID_9_" class="st3" d="M659.9,667.2H339.6c-5.1,0-8.9-4.7-7.8-9.7l17.3-82c0.8-3.7,4-6.3,7.8-6.3h285.7
	c3.8,0,7,2.6,7.8,6.3l17.3,82C668.8,662.5,665,667.2,659.9,667.2z"/>
<path id="XMLID_11_" class="st7" d="M637.9,491.3h-276c-6.6,0-12-5.4-12-12v-56c0-6.6,5.4-12,12-12h276c6.6,0,12,5.4,12,12v56
	C649.9,485.9,644.5,491.3,637.9,491.3z"/>
<path id="XMLID_161_" class="st4" d="M637.9,411.3h-276c-6.6,0-12,5.4-12,12v15c0-6.6,5.4-12,12-12h276c6.6,0,12,5.4,12,12v-15
	C649.9,416.7,644.5,411.3,637.9,411.3z"/>
<path id="XMLID_20_" class="st3" d="M637.9,491.3h-276c-6.6,0-12-5.4-12-12v-56c0-6.6,5.4-12,12-12h276c6.6,0,12,5.4,12,12v56
	C649.9,485.9,644.5,491.3,637.9,491.3z"/>
<path id="XMLID_21_" class="st15" d="M347,586.2"/>
<circle id="XMLID_61_" class="st4" cx="391.3" cy="631.9" r="18.2"/>
<circle id="XMLID_58_" class="st3" cx="391.3" cy="631.9" r="11.3"/>
<circle id="XMLID_68_" class="st4" cx="608.3" cy="631.9" r="18.2"/>
<circle id="XMLID_67_" class="st3" cx="608.3" cy="631.9" r="11.3"/>
<circle id="XMLID_64_" class="st4" cx="450.9" cy="601.3" r="14.8"/>
<circle id="XMLID_63_" class="st3" cx="450.9" cy="601.3" r="9.2"/>
<circle id="XMLID_66_" class="st4" cx="547.9" cy="601.3" r="14.8"/>
<circle id="XMLID_65_" class="st3" cx="547.9" cy="601.3" r="9.2"/>
<g id="XMLID_76_">
	<circle id="XMLID_62_" class="st1" cx="403.9" cy="451.3" r="28.7"/>
	<defs>
		<filter id="Adobe_OpacityMaskFilter" filterUnits="userSpaceOnUse" x="369" y="416.4" width="69.8" height="69.8">
			
				<feColorMatrix  type="matrix" values="-1 0 0 0 1  0 -1 0 0 1  0 0 -1 0 1  0 0 0 1 0" color-interpolation-filters="sRGB" result="source"/>
		</filter>
	</defs>
	<mask maskUnits="userSpaceOnUse" x="369" y="416.4" width="69.8" height="69.8" id="XMLID_6_">
		<g id="XMLID_72_" class="st16">
			<circle id="XMLID_74_" cx="403.9" cy="451.3" r="26.5"/>
		</g>
	</mask>
	<g id="XMLID_73_" class="st17">
		<line id="XMLID_70_" class="st14" x1="403.9" y1="420.4" x2="403.9" y2="482.2"/>
		<line id="XMLID_69_" class="st14" x1="434.8" y1="451.3" x2="373" y2="451.3"/>
		<line id="XMLID_40_" class="st14" x1="425.7" y1="429.5" x2="382.1" y2="473.2"/>
		<line id="XMLID_38_" class="st14" x1="425.7" y1="473.2" x2="382.1" y2="429.5"/>
	</g>
	<circle id="XMLID_71_" class="st4" cx="403.9" cy="451.3" r="17.4"/>
	<circle id="XMLID_75_" class="st18" cx="403.9" cy="451.3" r="28.7"/>
</g>
<g id="XMLID_88_">
	<circle id="XMLID_102_" class="st1" cx="595.6" cy="451.3" r="28.7"/>
	<defs>
		<filter id="Adobe_OpacityMaskFilter_1_" filterUnits="userSpaceOnUse" x="560.7" y="416.4" width="69.8" height="69.8">
			
				<feColorMatrix  type="matrix" values="-1 0 0 0 1  0 -1 0 0 1  0 0 -1 0 1  0 0 0 1 0" color-interpolation-filters="sRGB" result="source"/>
		</filter>
	</defs>
	<mask maskUnits="userSpaceOnUse" x="560.7" y="416.4" width="69.8" height="69.8" id="XMLID_7_">
		<g id="XMLID_95_" class="st19">
			<circle id="XMLID_97_" cx="595.6" cy="451.3" r="26.5"/>
		</g>
	</mask>
	<g id="XMLID_93_" class="st20">
		<line id="XMLID_101_" class="st14" x1="595.6" y1="420.4" x2="595.6" y2="482.2"/>
		<line id="XMLID_100_" class="st14" x1="626.5" y1="451.3" x2="564.7" y2="451.3"/>
		<line id="XMLID_99_" class="st14" x1="617.4" y1="429.5" x2="573.8" y2="473.2"/>
		<line id="XMLID_98_" class="st14" x1="617.4" y1="473.2" x2="573.8" y2="429.5"/>
	</g>
	<circle id="XMLID_90_" class="st4" cx="595.6" cy="451.3" r="17.4"/>
	<circle id="XMLID_89_" class="st18" cx="595.6" cy="451.3" r="28.7"/>
</g>
<path id="XMLID_78_" class="st0" d="M546.9,473.1h-94.2c-3.3,0-6-2.7-6-6v-36c0-3.3,2.7-6,6-6h94.2c3.3,0,6,2.7,6,6v36
	C552.9,470.4,550.2,473.1,546.9,473.1z"/>
<g id="XMLID_123_">
	<circle id="XMLID_128_" class="st4" cx="265.4" cy="620.6" r="15.2"/>
	<circle id="XMLID_127_" class="st9" cx="265.4" cy="620.6" r="10.5"/>
	<line id="XMLID_126_" class="st9" x1="261.6" y1="616.8" x2="269.2" y2="624.4"/>
	<line id="XMLID_125_" class="st9" x1="269.2" y1="616.8" x2="261.6" y2="624.4"/>
</g>
<g id="XMLID_114_">
	<circle id="XMLID_119_" class="st4" cx="734.1" cy="620.6" r="15.2"/>
	<circle id="XMLID_118_" class="st9" cx="734.1" cy="620.6" r="10.5"/>
	<line id="XMLID_117_" class="st9" x1="730.3" y1="616.8" x2="737.9" y2="624.4"/>
	<line id="XMLID_116_" class="st9" x1="737.9" y1="616.8" x2="730.3" y2="624.4"/>
</g>
<g id="XMLID_131_">
	<circle id="XMLID_135_" class="st4" cx="499.8" cy="594.7" r="10.2"/>
	<circle id="XMLID_134_" class="st21" cx="499.8" cy="594.7" r="7.1"/>
	<line id="XMLID_133_" class="st21" x1="496.6" y1="594.7" x2="502.9" y2="594.7"/>
	<line id="XMLID_132_" class="st21" x1="499.8" y1="591.6" x2="499.8" y2="597.8"/>
</g>
<path id="XMLID_43_" class="st1" d="M446.6,431.1v36c0,3.3,2.7,6,6,6h36.1c1.8-7,2.7-14.3,2.7-21.8c0-9.1-1.4-17.9-4-26.2h-34.9
	C449.3,425.1,446.6,427.8,446.6,431.1z"/>
<path id="XMLID_44_" class="st1" d="M540.1,473.1h6.7c3.3,0,6-2.7,6-6v-36c0-3.3-2.7-6-6-6h-4.8c-3.9,7.9-6.1,16.8-6.1,26.2
	C536,459,537.5,466.4,540.1,473.1z"/>
<path id="XMLID_31_" class="st22" d="M546.9,472.1h-94.2c-3.3,0-6-2.7-6-6v-34c0-3.3,2.7-6,6-6h94.2c3.3,0,6,2.7,6,6v34
	C552.9,469.4,550.2,472.1,546.9,472.1z"/>
<polygon id="XMLID_48_" class="st23" points="479,472.1 524.7,426.1 505.9,426.1 460.2,472.1 "/>
<polygon id="XMLID_46_" class="st23" points="498.7,472.1 544.3,426.1 535,426.1 489.3,472.1 "/>
<path id="XMLID_29_" class="st3" d="M546.9,473.1h-94.2c-3.3,0-6-2.7-6-6v-36c0-3.3,2.7-6,6-6h94.2c3.3,0,6,2.7,6,6v36
	C552.9,470.4,550.2,473.1,546.9,473.1z"/>
<line id="XMLID_50_" class="st24" x1="533.1" y1="510.6" x2="572.5" y2="510.6"/>
<line id="XMLID_45_" class="st24" x1="427" y1="510.6" x2="521.1" y2="510.6"/>
<line id="XMLID_51_" class="st24" x1="427" y1="527.2" x2="572.5" y2="527.2"/>
<path id="XMLID_32_" class="st25" d="M363.2,401.9h-30.5c-3.4,0-6.1-2.7-6.1-6.1v-30.5c0-3.4,2.7-6.1,6.1-6.1h30.5
	c3.4,0,6.1,2.7,6.1,6.1v30.5C369.3,399.2,366.6,401.9,363.2,401.9z"/>
<g id="XMLID_35_">
	<path class="st26" d="M352.1,386.5h-10.3l-1.8,5h-4.2l8.8-24.6h4.7l8.8,24.6h-4.2L352.1,386.5z M346.9,371.7l-4,11.4h8L346.9,371.7
		z"/>
</g>
<path id="XMLID_96_" class="st4" d="M233.8,634.2l-7.1-6.7c-1.8-1.7-2.9-4.3-2.9-7.1v-93.8c0-3.3,1.5-6.3,3.8-7.8l6.2-4.2V634.2z"/>
<line id="XMLID_92_" class="st27" x1="365" y1="368.6" x2="672.9" y2="368.6"/>
<line id="XMLID_94_" class="st27" x1="365" y1="380.6" x2="672.9" y2="380.6"/>
<line id="XMLID_152_" class="st27" x1="365" y1="392.6" x2="672.9" y2="392.6"/>
<path id="XMLID_91_" class="st3" d="M233.8,634.2l-7.1-6.7c-1.8-1.7-2.9-4.3-2.9-7.1v-93.8c0-3.3,1.5-6.3,3.8-7.8l6.2-4.2V634.2z"/>
</svg>
