<?xml version="1.0" encoding="utf-8"?>
<!-- Generator: Adobe Illustrator 23.1.1, SVG Export Plug-In . SVG Version: 6.00 Build 0)  -->
<svg version="1.1" id="Layer_1" xmlns="http://www.w3.org/2000/svg" xmlns:xlink="http://www.w3.org/1999/xlink" x="0px" y="0px"
	 viewBox="0 0 1000 1000" style="enable-background:new 0 0 1000 1000;" xml:space="preserve">
<style type="text/css">
	.st0{fill:#53BCBD;}
	.st1{opacity:0.41;stroke:#000000;stroke-width:10;stroke-linecap:round;stroke-linejoin:round;stroke-miterlimit:10;}
	.st2{opacity:0.41;fill:none;stroke:#000000;stroke-width:10;stroke-linecap:round;stroke-linejoin:round;stroke-miterlimit:10;}
	.st3{fill:none;stroke:#663C3B;stroke-width:10;stroke-linejoin:round;stroke-miterlimit:10;}
	.st4{fill:#663C3B;}
	.st5{fill:#FEC556;}
	.st6{fill:#F29940;}
	.st7{fill:#835559;}
	.st8{fill:#95676B;}
	.st9{fill:none;stroke:#663C3B;stroke-width:6;stroke-linecap:round;stroke-linejoin:round;stroke-miterlimit:10;}
	.st10{fill:none;stroke:#663C3B;stroke-width:3;stroke-linecap:round;stroke-linejoin:round;stroke-miterlimit:10;}
	.st11{fill:none;stroke:#663C3B;stroke-width:8;stroke-linecap:round;stroke-linejoin:round;stroke-miterlimit:10;}
	.st12{opacity:0.17;}
	.st13{fill:#32B94D;}
	.st14{fill:none;stroke:#663C3B;stroke-width:2;stroke-linecap:round;stroke-linejoin:round;stroke-miterlimit:10;}
	.st15{fill:#8BD8F5;}
	.st16{fill:#FEF585;}
	.st17{fill:#E7503B;}
	.st18{fill:#EEF2F4;}
</style>
<rect id="XMLID_42_" class="st0" width="1000" height="1000"/>
<path id="XMLID_20_" class="st1" d="M692.3,414.8h-380c-72.9,0-132,59.1-132,132s59.1,132,132,132c51.3,0,95.8-29.3,117.6-72h144.8
	c21.8,42.7,66.3,72,117.6,72c72.9,0,132-59.1,132-132S765.2,414.8,692.3,414.8z"/>
<path id="XMLID_19_" class="st2" d="M502.3,382.5V263.1c0-13.7-11.1-24.8-24.8-24.8H290c-13.7,0-24.8-11.1-24.8-24.8v0
	c0-13.7,11.1-24.8,24.8-24.8h397.5c13.7,0,24.8-11.1,24.8-24.8v0c0-13.7-11.1-24.8-24.8-24.8H527c-13.7,0-24.8-11.1-24.8-24.8V9"/>
<path id="XMLID_43_" class="st3" d="M502.3,369.2V249.8c0-13.7-11.1-24.8-24.8-24.8H290c-13.7,0-24.8-11.1-24.8-24.8v0
	c0-13.7,11.1-24.8,24.8-24.8h397.5c13.7,0,24.8-11.1,24.8-24.8v0c0-13.7-11.1-24.8-24.8-24.8H527c-13.7,0-24.8-11.1-24.8-24.8V0"/>
<rect id="XMLID_37_" x="473.3" y="379" class="st4" width="58" height="12.5"/>
<rect id="XMLID_41_" x="481.5" y="372.8" class="st4" width="41.5" height="9.8"/>
<rect id="XMLID_54_" x="487" y="366.5" class="st4" width="30.5" height="9.4"/>
<path id="XMLID_44_" class="st5" d="M692.3,391.8h-380c-72.9,0-132,59.1-132,132s59.1,132,132,132c51.3,0,95.8-29.3,117.6-72h144.8
	c21.8,42.7,66.3,72,117.6,72c72.9,0,132-59.1,132-132S765.2,391.8,692.3,391.8z"/>
<path id="XMLID_74_" class="st6" d="M481.7,443.6h-28c-2.2,0-4-1.8-4-4l0,0c0-2.2,1.8-4,4-4h28c2.2,0,4,1.8,4,4l0,0
	C485.7,441.8,484,443.6,481.7,443.6z"/>
<path id="XMLID_73_" class="st6" d="M560.4,443.9h-56.9c-2.2,0-4-1.8-4-4l0,0c0-2.2,1.8-4,4-4h56.9c2.2,0,4,1.8,4,4l0,0
	C564.4,442.1,562.7,443.9,560.4,443.9z"/>
<path id="XMLID_71_" class="st6" d="M560.4,460.4H453.6c-2.2,0-4-1.8-4-4l0,0c0-2.2,1.8-4,4-4h106.8c2.2,0,4,1.8,4,4l0,0
	C564.4,458.6,562.6,460.4,560.4,460.4z"/>
<path id="XMLID_67_" class="st6" d="M452.4,542.7L452.4,542.7c-3.5-3.5-3.5-9.2,0-12.7l29.7-29.7c3.5-3.5,9.2-3.5,12.7,0l0,0
	c3.5,3.5,3.5,9.2,0,12.7l-29.7,29.7C461.6,546.2,455.9,546.2,452.4,542.7z"/>
<path id="XMLID_56_" class="st6" d="M519.4,542.7L519.4,542.7c-3.5-3.5-3.5-9.2,0-12.7l29.7-29.7c3.5-3.5,9.2-3.5,12.7,0h0
	c3.5,3.5,3.5,9.2,0,12.7l-29.7,29.7C528.6,546.2,522.9,546.2,519.4,542.7z"/>
<path id="XMLID_53_" class="st6" d="M312.3,403.3h380c71.3,0,129.4,55.6,131.9,125.1c0.1-1.6,0.1-3.1,0.1-4.7
	c0-72.9-59.1-132-132-132h-380c-72.9,0-132,59.1-132,132c0,1.6,0,3.1,0.1,4.7C182.8,458.9,240.9,403.3,312.3,403.3z"/>
<path id="XMLID_52_" class="st6" d="M692.3,638.8c-51.3,0-92.8-21.3-114.6-64H426.9c-21.8,42.7-63.3,64-114.6,64
	c-70,0-127.3-54.6-131.7-123.5c-0.2,2.8-0.3,5.6-0.3,8.5c0,72.9,59.1,132,132,132c51.3,0,95.8-29.3,117.6-72h144.8
	c21.8,42.7,66.3,72,117.6,72c72.9,0,132-59.1,132-132c0-2.9-0.1-5.7-0.3-8.5C819.6,584.2,762.3,638.8,692.3,638.8z"/>
<circle id="XMLID_48_" class="st6" cx="312.8" cy="531" r="85"/>
<circle id="XMLID_46_" class="st7" cx="312.8" cy="523.8" r="84"/>
<circle id="XMLID_50_" class="st8" cx="312.8" cy="523.8" r="71"/>
<path id="XMLID_6_" class="st4" d="M363.2,507.8h-34.4v-34.4c0-2.5-2.1-4.6-4.6-4.6h-22.8c-2.5,0-4.6,2.1-4.6,4.6v34.4h-34.4
	c-2.5,0-4.6,2.1-4.6,4.6v22.8c0,2.5,2.1,4.6,4.6,4.6h34.4v34.4c0,2.5,2.1,4.6,4.6,4.6h22.8c2.5,0,4.6-2.1,4.6-4.6v-34.4h34.4
	c2.5,0,4.6-2.1,4.6-4.6v-22.8C367.8,509.8,365.7,507.8,363.2,507.8z"/>
<circle id="XMLID_7_" class="st9" cx="312.8" cy="523.8" r="84"/>
<circle id="XMLID_51_" class="st6" cx="692.8" cy="531" r="85"/>
<circle id="XMLID_49_" class="st7" cx="692.8" cy="523.8" r="84"/>
<circle id="XMLID_66_" class="st8" cx="692.8" cy="523.8" r="71"/>
<circle id="XMLID_16_" class="st9" cx="692.8" cy="523.8" r="84"/>
<path id="XMLID_10_" class="st5" d="M306.3,487.2l5.5-9.6c0.4-0.7,1.4-0.7,1.8,0l5.5,9.6c0.4,0.7-0.1,1.6-0.9,1.6h-11.1
	C306.4,488.8,305.9,487.9,306.3,487.2z"/>
<path id="XMLID_12_" class="st5" d="M306.3,560.4l5.5,9.6c0.4,0.7,1.4,0.7,1.8,0l5.5-9.6c0.4-0.7-0.1-1.6-0.9-1.6h-11.1
	C306.4,558.8,305.9,559.7,306.3,560.4z"/>
<path id="XMLID_55_" class="st10" d="M363.2,507.8h-34.4v-34.4c0-2.5-2.1-4.6-4.6-4.6h-22.8c-2.5,0-4.6,2.1-4.6,4.6v34.4h-34.4
	c-2.5,0-4.6,2.1-4.6,4.6v22.8c0,2.5,2.1,4.6,4.6,4.6h34.4v34.4c0,2.5,2.1,4.6,4.6,4.6h22.8c2.5,0,4.6-2.1,4.6-4.6v-34.4h34.4
	c2.5,0,4.6-2.1,4.6-4.6v-22.8C367.8,509.8,365.7,507.8,363.2,507.8z"/>
<path id="XMLID_11_" class="st5" d="M347.6,517.3l9.6,5.5c0.7,0.4,0.7,1.4,0,1.8l-9.6,5.5c-0.7,0.4-1.6-0.1-1.6-0.9v-11.1
	C346,517.4,346.9,516.9,347.6,517.3z"/>
<path id="XMLID_9_" class="st5" d="M276.2,517.3l-9.6,5.5c-0.7,0.4-0.7,1.4,0,1.8l9.6,5.5c0.7,0.4,1.6-0.1,1.6-0.9v-11.1
	C277.8,517.4,276.9,516.9,276.2,517.3z"/>
<path id="XMLID_45_" class="st11" d="M602,385.8h90.8c19.5,0,38.1,4.1,55,11.4"/>
<path id="XMLID_36_" class="st11" d="M257.8,397.2c16.9-7.4,35.5-11.4,55-11.4H402"/>
<path id="XMLID_32_" class="st9" d="M692.3,391.8h-380c-72.9,0-132,59.1-132,132s59.1,132,132,132c51.3,0,95.8-29.3,117.6-72h144.8
	c21.8,42.7,66.3,72,117.6,72c72.9,0,132-59.1,132-132S765.2,391.8,692.3,391.8z"/>
<path id="XMLID_65_" class="st12" d="M706.3,511.5l-39.6,39.6c-8.6,8.6-22.5,8.6-31.1,0l0,0c-8.6-8.6-8.6-22.5,0-31.1l39.6-39.6
	c8.6-8.6,22.5-8.6,31.1,0v0C714.9,488.9,714.9,502.9,706.3,511.5z"/>
<path id="XMLID_59_" class="st5" d="M704.3,507.5l-39.6,39.6c-8.6,8.6-22.5,8.6-31.1,0l0,0c-8.6-8.6-8.6-22.5,0-31.1l39.6-39.6
	c8.6-8.6,22.5-8.6,31.1,0v0C712.9,484.9,712.9,498.9,704.3,507.5z"/>
<path id="XMLID_2_" class="st10" d="M704.3,507.5l-39.6,39.6c-8.6,8.6-22.5,8.6-31.1,0l0,0c-8.6-8.6-8.6-22.5,0-31.1l39.6-39.6
	c8.6-8.6,22.5-8.6,31.1,0v0C712.9,484.9,712.9,498.9,704.3,507.5z"/>
<circle id="XMLID_63_" class="st13" cx="649.2" cy="531.5" r="14"/>
<path id="XMLID_8_" class="st14" d="M640.2,530.7c0.4-5,4.8-8.6,9.8-8.2"/>
<circle id="XMLID_18_" class="st10" cx="649.2" cy="531.5" r="14"/>
<circle id="XMLID_62_" class="st15" cx="688.8" cy="491.9" r="14"/>
<path id="XMLID_13_" class="st14" d="M679.8,491.9c0-5,4-9,9-9"/>
<circle id="XMLID_17_" class="st10" cx="688.8" cy="491.9" r="14"/>
<path id="XMLID_64_" class="st12" d="M752.9,537.7l-39.6,39.6c-8.6,8.6-22.5,8.6-31.1,0h0c-8.6-8.6-8.6-22.5,0-31.1l39.6-39.6
	c8.6-8.6,22.5-8.6,31.1,0l0,0C761.5,515.2,761.5,529.1,752.9,537.7z"/>
<path id="XMLID_57_" class="st5" d="M751.9,532.7l-39.6,39.6c-8.6,8.6-22.5,8.6-31.1,0h0c-8.6-8.6-8.6-22.5,0-31.1l39.6-39.6
	c8.6-8.6,22.5-8.6,31.1,0l0,0C760.5,510.2,760.5,524.1,751.9,532.7z"/>
<path id="XMLID_35_" class="st10" d="M751.9,532.7l-39.6,39.6c-8.6,8.6-22.5,8.6-31.1,0h0c-8.6-8.6-8.6-22.5,0-31.1l39.6-39.6
	c8.6-8.6,22.5-8.6,31.1,0l0,0C760.5,510.2,760.5,524.1,751.9,532.7z"/>
<circle id="XMLID_61_" class="st16" cx="696.8" cy="556.8" r="14"/>
<path id="XMLID_15_" class="st14" d="M687.8,556.8c0-5,4-9,9-9"/>
<circle id="XMLID_34_" class="st10" cx="696.8" cy="556.8" r="14"/>
<circle id="XMLID_33_" class="st17" cx="736.4" cy="517.2" r="14"/>
<path id="XMLID_70_" class="st14" d="M727.4,517.2c0-5,4-9,9-9"/>
<circle id="XMLID_60_" class="st10" cx="736.4" cy="517.2" r="14"/>
<path id="XMLID_14_" class="st4" d="M452.4,538.7L452.4,538.7c-3.5-3.5-3.5-9.2,0-12.7l29.7-29.7c3.5-3.5,9.2-3.5,12.7,0l0,0
	c3.5,3.5,3.5,9.2,0,12.7l-29.7,29.7C461.6,542.2,455.9,542.2,452.4,538.7z"/>
<path id="XMLID_38_" class="st4" d="M519.4,538.7L519.4,538.7c-3.5-3.5-3.5-9.2,0-12.7l29.7-29.7c3.5-3.5,9.2-3.5,12.7,0h0
	c3.5,3.5,3.5,9.2,0,12.7l-29.7,29.7C528.6,542.2,522.9,542.2,519.4,538.7z"/>
<circle id="XMLID_58_" class="st5" cx="312.8" cy="523.8" r="16"/>
<path id="XMLID_72_" class="st6" d="M312.8,536.5c-8.1,0-15.1-6.4-15.9-14.4c-0.1,0.5-0.1,1.1-0.1,1.6c0,8.7,7.3,16,16,16
	s16-7.3,16-16c0-0.6,0-1.1-0.1-1.6C327.8,530.1,320.9,536.5,312.8,536.5z"/>
<path id="XMLID_68_" class="st14" d="M300.8,523.8c0-6.5,5.5-12,12-12"/>
<g>
	<g>
		<g>
			<path class="st18" d="M63.2,959.2c0,2.5-1.2,3.7-2.6,3.7c-1.1,0-1.9-0.5-2.1-1.4c-0.4,0.5-1,0.8-1.8,0.8c-1.5,0-2.6-1.2-2.6-2.8
				c0-1.6,1.1-2.8,2.6-2.8c0.7,0,1.2,0.3,1.6,0.7v-0.5h1.6v3.9c0,0.8,0.3,1.4,1,1.4c0.9,0,1.7-0.9,1.7-3c0-3-2.3-5.3-5.4-5.3
				c-3.1,0-5.6,2.4-5.6,5.7c0,3.3,2.5,5.7,5.9,5.7c1.1,0,2.1-0.2,2.9-0.4v0.6c-0.8,0.3-1.7,0.4-2.9,0.4c-3.7,0-6.5-2.6-6.5-6.2
				c0-3.4,2.7-6.2,6.2-6.2C61.1,953.3,63.2,956.4,63.2,959.2z M58.3,959.5c0-0.8-0.6-1.4-1.3-1.4c-0.8,0-1.3,0.5-1.3,1.4
				c0,0.8,0.6,1.3,1.3,1.3C57.8,960.9,58.3,960.3,58.3,959.5z"/>
		</g>
		<g>
			<path class="st18" d="M69.4,955.1v2c-1.2-0.1-2.6,0.5-2.6,2.4v4.3h-1.9v-8.6h1.9v1.4C67.3,955.5,68.3,955.1,69.4,955.1z"/>
		</g>
		<g>
			<path class="st18" d="M74.6,962.3c1,0,1.8-0.5,2.2-1.1l1.5,0.9c-0.8,1.2-2.1,1.9-3.8,1.9c-2.8,0-4.7-1.9-4.7-4.5
				c0-2.5,1.8-4.5,4.5-4.5c2.6,0,4.3,2.1,4.3,4.5c0,0.3,0,0.5-0.1,0.8h-6.8C72.1,961.6,73.2,962.3,74.6,962.3z M76.9,958.8
				c-0.3-1.5-1.3-2.1-2.5-2.1c-1.4,0-2.3,0.8-2.6,2.1H76.9z"/>
		</g>
		<g>
			<path class="st18" d="M88.9,955.2v8.6h-1.9v-1.2c-0.7,0.9-1.7,1.5-3,1.5c-2.3,0-4.3-2-4.3-4.5c0-2.6,1.9-4.5,4.3-4.5
				c1.3,0,2.3,0.5,3,1.4v-1.2H88.9z M87.1,959.5c0-1.6-1.2-2.7-2.7-2.7c-1.5,0-2.7,1.1-2.7,2.7c0,1.6,1.2,2.7,2.7,2.7
				C85.9,962.3,87.1,961.1,87.1,959.5z"/>
		</g>
		<g>
			<path class="st18" d="M91.1,951.3H93v12.5h-1.9V951.3z"/>
		</g>
		<g>
			<path class="st18" d="M102.9,955.2l-3.3,8.6h-2.1l-3.3-8.6h2l2.4,6.5l2.4-6.5H102.9z"/>
		</g>
		<g>
			<path class="st18" d="M104.2,955.2h1.9v8.9c0,2.4-1.2,3.5-3.5,3.3v-1.8c1.1,0.1,1.7-0.3,1.7-1.5V955.2z M104,952.8
				c0-0.7,0.5-1.2,1.2-1.2c0.7,0,1.2,0.5,1.2,1.2c0,0.6-0.5,1.2-1.2,1.2C104.5,954,104,953.4,104,952.8z"/>
		</g>
		<g>
			<path class="st18" d="M116,955.2l-3.3,8.8c-0.8,2.2-2.2,3.3-4.2,3.2v-1.7c1.2,0.1,1.9-0.5,2.3-1.7l0.1-0.2l-3.6-8.4h2l2.6,6.2
				l2.2-6.2H116z"/>
		</g>
	</g>
	<g>
		<path class="st18" d="M211.9,938.7c0,2.1-1.5,3.8-3.6,3.8h-3v-7.6h3C210.4,934.9,211.9,936.6,211.9,938.7z M210.9,938.7
			c0-1.6-1.1-2.9-2.6-2.9h-2v5.7h2C209.8,941.6,210.9,940.3,210.9,938.7z"/>
		<path class="st18" d="M219.5,940.8h-3.4l-0.6,1.7h-1.1l2.8-7.6h1.1l2.8,7.6h-1.1L219.5,940.8z M219.2,939.9l-1.4-3.8l-1.4,3.8
			H219.2z"/>
		<path class="st18" d="M226.4,939.4v3.1h-1v-3.1l-2.7-4.5h1.1l2.1,3.6l2.1-3.6h1.1L226.4,939.4z"/>
		<path class="st18" d="M237,938.7c0-2.4,1.1-4,2.9-4c1.9,0,2.9,1.6,2.9,4c0,2.4-1,4-2.9,4C238.1,942.7,237,941,237,938.7z
			 M241.9,938.7c0-1.9-0.7-3-1.9-3c-1.2,0-1.9,1.1-1.9,3s0.7,3,1.9,3C241.2,941.7,241.9,940.6,241.9,938.7z"/>
		<path class="st18" d="M245.9,941.7l2.7-2.7c0.6-0.6,1.1-1.2,1.1-1.9c0-0.9-0.6-1.4-1.4-1.4c-0.7,0-1.2,0.3-1.6,1l-0.8-0.5
			c0.5-1,1.4-1.5,2.4-1.5c1.2,0,2.4,0.8,2.4,2.3c0,0.9-0.6,1.8-1.4,2.5l-2,1.9h3.5v1h-4.9V941.7z"/>
	</g>
	<g>
		<path class="st18" d="M847.4,942.5h-1v-6l-2.5,4.2h-0.1l-2.5-4.1v5.9h-1v-7.6h1.1l2.4,4l2.4-4h1.1V942.5z"/>
		<path class="st18" d="M850.9,938.7c0-2.2,1.7-4,3.9-4c2.2,0,4,1.8,4,4c0,2.2-1.7,4-4,4C852.7,942.7,850.9,940.9,850.9,938.7z
			 M857.8,938.7c0-1.7-1.3-3-2.9-3c-1.7,0-2.9,1.3-2.9,3c0,1.7,1.3,3,2.9,3C856.6,941.7,857.8,940.4,857.8,938.7z"/>
		<path class="st18" d="M865.2,939.6h-1.8v2.9h-1v-7.6h3c1.3,0,2.4,1.1,2.4,2.4c0,1-0.7,1.9-1.6,2.2l1.8,3.1h-1.1L865.2,939.6z
			 M863.4,938.7h2c0.8,0,1.4-0.6,1.4-1.4c0-0.8-0.6-1.4-1.4-1.4h-2V938.7z"/>
		<path class="st18" d="M875.9,941.6v1h-4.6v-7.6h4.5v1h-3.5v2.3h3.2v0.9h-3.2v2.4H875.9z"/>
	</g>
	<g>
		<path class="st18" d="M58.9,938.7c0,2.1-1.5,3.8-3.6,3.8h-3v-7.6h3C57.4,934.9,58.9,936.6,58.9,938.7z M57.9,938.7
			c0-1.6-1.1-2.9-2.6-2.9h-2v5.7h2C56.8,941.6,57.9,940.3,57.9,938.7z"/>
		<path class="st18" d="M67,941.6v1h-4.6v-7.6h4.5v1h-3.5v2.3h3.2v0.9h-3.2v2.4H67z"/>
		<path class="st18" d="M70,940.8l0.9-0.5c0.3,0.8,0.9,1.4,2,1.4c1.1,0,1.6-0.5,1.6-1.2c0-0.8-0.7-1-1.8-1.4
			c-1.2-0.4-2.4-0.8-2.4-2.2c0-1.4,1.1-2.2,2.4-2.2c1.3,0,2.2,0.7,2.6,1.7l-0.8,0.5c-0.3-0.7-0.8-1.2-1.7-1.2
			c-0.8,0-1.4,0.4-1.4,1.1c0,0.7,0.5,1,1.6,1.3c1.3,0.4,2.6,0.8,2.6,2.3c0,1.3-1.1,2.2-2.6,2.2C71.5,942.7,70.4,941.9,70,940.8z"/>
		<path class="st18" d="M80,934.9v7.6h-1v-7.6H80z"/>
		<path class="st18" d="M91.3,939.2c0,1.9-1.4,3.5-3.7,3.5c-2.4,0-4-1.8-4-4c0-2.2,1.7-4,4-4c1.4,0,2.7,0.8,3.3,1.8l-0.9,0.5
			c-0.4-0.8-1.4-1.4-2.4-1.4c-1.8,0-3,1.3-3,3c0,1.7,1.2,3,3,3c1.6,0,2.5-0.9,2.7-2h-2.8v-0.9h3.8V939.2z"/>
		<path class="st18" d="M100.6,934.9v7.6h-0.8l-3.9-5.7v5.7h-1v-7.6h0.8l3.9,5.7v-5.7H100.6z"/>
		<path class="st18" d="M109.1,941.6v1h-4.6v-7.6h4.5v1h-3.5v2.3h3.2v0.9h-3.2v2.4H109.1z"/>
		<path class="st18" d="M119.2,938.7c0,2.1-1.5,3.8-3.6,3.8h-3v-7.6h3C117.6,934.9,119.2,936.6,119.2,938.7z M118.2,938.7
			c0-1.6-1.1-2.9-2.6-2.9h-2v5.7h2C117.1,941.6,118.2,940.3,118.2,938.7z"/>
		<path class="st18" d="M133.2,940.4c0,1.2-1,2.2-2.2,2.2h-3.3v-7.6h3c1.2,0,2.1,0.9,2.1,2.1c0,0.7-0.3,1.2-0.8,1.6
			C132.7,938.9,133.2,939.5,133.2,940.4z M128.7,935.8v2.3h2c0.6,0,1.1-0.5,1.1-1.2c0-0.6-0.5-1.2-1.1-1.2H128.7z M132.2,940.3
			c0-0.7-0.5-1.2-1.2-1.2h-2.3v2.5h2.3C131.7,941.6,132.2,941,132.2,940.3z"/>
		<path class="st18" d="M139.4,939.4v3.1h-1v-3.1l-2.7-4.5h1.1l2.1,3.6l2.1-3.6h1.1L139.4,939.4z"/>
	</g>
	<g>
		<path class="st18" d="M214.2,955.4v8.4c0,2.8-2.2,4.2-4.5,4.2c-1.9,0-3.5-0.7-4.2-2.1l1.6-1c0.4,0.8,1,1.4,2.6,1.4
			c1.6,0,2.6-0.9,2.6-2.4v-1.1c-0.7,1-1.7,1.5-3.1,1.5c-2.5,0-4.5-2-4.5-4.6s2-4.6,4.5-4.6c1.4,0,2.4,0.6,3.1,1.5v-1.3H214.2z
			 M212.4,959.8c0-1.6-1.2-2.8-2.8-2.8c-1.6,0-2.8,1.2-2.8,2.8s1.2,2.8,2.8,2.8C211.2,962.6,212.4,961.4,212.4,959.8z"/>
		<path class="st18" d="M225.4,955.4v8.9h-1.9V963c-0.7,0.9-1.7,1.5-3.1,1.5c-2.4,0-4.4-2-4.4-4.7c0-2.6,2-4.7,4.4-4.7
			c1.4,0,2.4,0.6,3.1,1.5v-1.3H225.4z M223.5,959.9c0-1.6-1.2-2.8-2.8-2.8c-1.6,0-2.8,1.2-2.8,2.8c0,1.6,1.2,2.8,2.8,2.8
			C222.3,962.7,223.5,961.5,223.5,959.9z"/>
		<path class="st18" d="M240.6,958.8v5.5h-1.9v-5.4c0-1.2-0.7-1.9-1.7-1.9c-1.1,0-1.9,0.7-1.9,2.3v5h-1.9v-5.4
			c0-1.2-0.6-1.9-1.7-1.9c-1.1,0-2,0.7-2,2.3v5h-1.9v-8.9h1.9v1.1c0.6-0.9,1.4-1.3,2.5-1.3c1.2,0,2,0.5,2.5,1.4
			c0.6-0.9,1.5-1.4,2.7-1.4C239.3,955.2,240.6,956.6,240.6,958.8z"/>
		<path class="st18" d="M242.4,952.9c0-0.7,0.5-1.2,1.2-1.2c0.7,0,1.2,0.5,1.2,1.2c0,0.7-0.5,1.2-1.2,1.2
			C243,954.1,242.4,953.6,242.4,952.9z M242.7,955.4h1.9v8.9h-1.9V955.4z"/>
		<path class="st18" d="M254.9,958.9v5.4H253v-5.2c0-1.3-0.8-2.1-2-2.1c-1.3,0-2.2,0.7-2.2,2.5v4.7h-1.9v-8.9h1.9v1.1
			c0.6-0.9,1.5-1.4,2.7-1.4C253.5,955.2,254.9,956.6,254.9,958.9z"/>
		<path class="st18" d="M265.9,955.4v8.4c0,2.8-2.2,4.2-4.5,4.2c-1.9,0-3.5-0.7-4.2-2.1l1.6-1c0.4,0.8,1,1.4,2.6,1.4
			c1.6,0,2.6-0.9,2.6-2.4v-1.1c-0.7,1-1.7,1.5-3.1,1.5c-2.5,0-4.5-2-4.5-4.6s2-4.6,4.5-4.6c1.4,0,2.4,0.6,3.1,1.5v-1.3H265.9z
			 M264,959.8c0-1.6-1.2-2.8-2.8-2.8c-1.6,0-2.8,1.2-2.8,2.8s1.2,2.8,2.8,2.8C262.8,962.6,264,961.4,264,959.8z"/>
		<path class="st18" d="M272,959.9c0-2.6,2-4.7,4.7-4.7c1.7,0,3.2,0.9,3.9,2.3l-1.6,1c-0.4-0.8-1.3-1.4-2.3-1.4
			c-1.6,0-2.7,1.2-2.7,2.8c0,1.6,1.2,2.8,2.7,2.8c1.1,0,1.9-0.5,2.4-1.4l1.6,0.9c-0.7,1.4-2.2,2.3-4,2.3
			C274,964.5,272,962.5,272,959.9z"/>
		<path class="st18" d="M281.4,959.9c0-2.6,2.1-4.7,4.7-4.7c2.6,0,4.7,2,4.7,4.7c0,2.6-2.1,4.7-4.7,4.7
			C283.5,964.5,281.4,962.5,281.4,959.9z M288.9,959.9c0-1.6-1.2-2.8-2.8-2.8s-2.8,1.2-2.8,2.8c0,1.6,1.2,2.8,2.8,2.8
			S288.9,961.5,288.9,959.9z"/>
		<path class="st18" d="M300.6,958.9v5.4h-1.9v-5.2c0-1.3-0.8-2.1-2-2.1c-1.3,0-2.2,0.7-2.2,2.5v4.7h-1.9v-8.9h1.9v1.1
			c0.6-0.9,1.5-1.4,2.7-1.4C299.2,955.2,300.6,956.6,300.6,958.9z"/>
		<path class="st18" d="M309.1,961.8c0,1.8-1.5,2.7-3.5,2.7c-1.8,0-3-0.8-3.6-2.1l1.6-1c0.3,0.8,1,1.3,2,1.3c0.8,0,1.5-0.3,1.5-1
			c0-1.6-4.8-0.7-4.8-3.9c0-1.7,1.4-2.7,3.2-2.7c1.5,0,2.7,0.7,3.3,1.8l-1.6,0.9c-0.3-0.7-0.9-1-1.7-1c-0.7,0-1.3,0.3-1.3,0.9
			C304.3,959.5,309.1,958.5,309.1,961.8z"/>
		<path class="st18" d="M310.1,959.9c0-2.6,2.1-4.7,4.7-4.7c2.6,0,4.7,2,4.7,4.7c0,2.6-2.1,4.7-4.7,4.7
			C312.2,964.5,310.1,962.5,310.1,959.9z M317.5,959.9c0-1.6-1.2-2.8-2.8-2.8s-2.8,1.2-2.8,2.8c0,1.6,1.2,2.8,2.8,2.8
			S317.5,961.5,317.5,959.9z"/>
		<path class="st18" d="M321.2,951.4h1.9v12.9h-1.9V951.4z"/>
		<path class="st18" d="M329.6,962.8c1.1,0,1.9-0.5,2.3-1.1l1.6,0.9c-0.8,1.2-2.1,1.9-3.9,1.9c-2.9,0-4.8-2-4.8-4.7
			c0-2.6,1.9-4.7,4.7-4.7c2.6,0,4.4,2.1,4.4,4.7c0,0.3,0,0.5-0.1,0.8h-7C327.1,962.1,328.2,962.8,329.6,962.8z M332,959.1
			c-0.3-1.5-1.4-2.2-2.5-2.2c-1.4,0-2.4,0.8-2.7,2.2H332z"/>
	</g>
	<g>
		<path class="st18" d="M848.8,955.4l-3.5,8.9h-2.2l-3.5-8.9h2.1l2.5,6.7l2.5-6.7H848.8z"/>
		<path class="st18" d="M849.7,952.9c0-0.7,0.5-1.2,1.2-1.2c0.7,0,1.2,0.5,1.2,1.2c0,0.7-0.5,1.2-1.2,1.2
			C850.3,954.1,849.7,953.6,849.7,952.9z M850,955.4h1.9v8.9H850V955.4z"/>
		<path class="st18" d="M854.3,955.4h1.9v9.2c0,2.4-1.2,3.6-3.6,3.4v-1.8c1.2,0.1,1.7-0.3,1.7-1.6V955.4z M854,952.9
			c0-0.7,0.5-1.2,1.2-1.2c0.7,0,1.2,0.5,1.2,1.2c0,0.7-0.5,1.2-1.2,1.2C854.6,954.1,854,953.6,854,952.9z"/>
		<path class="st18" d="M867.3,955.4v8.9h-1.9V963c-0.7,0.9-1.7,1.5-3.1,1.5c-2.4,0-4.4-2-4.4-4.7c0-2.6,2-4.7,4.4-4.7
			c1.4,0,2.4,0.6,3.1,1.5v-1.3H867.3z M865.4,959.9c0-1.6-1.2-2.8-2.8-2.8c-1.6,0-2.8,1.2-2.8,2.8c0,1.6,1.2,2.8,2.8,2.8
			C864.2,962.7,865.4,961.5,865.4,959.9z"/>
		<path class="st18" d="M877.6,955.4l-3.4,9.1c-0.8,2.2-2.3,3.4-4.3,3.3V966c1.2,0.1,1.9-0.6,2.4-1.7l0.1-0.2l-3.8-8.7h2.1l2.6,6.4
			l2.3-6.4H877.6z"/>
		<path class="st18" d="M886.9,955.4l-3.5,8.9h-2.2l-3.5-8.9h2.1l2.5,6.7l2.5-6.7H886.9z"/>
		<path class="st18" d="M892.1,962.8c1.1,0,1.9-0.5,2.3-1.1l1.6,0.9c-0.8,1.2-2.1,1.9-3.9,1.9c-2.9,0-4.8-2-4.8-4.7
			c0-2.6,1.9-4.7,4.7-4.7c2.6,0,4.4,2.1,4.4,4.7c0,0.3,0,0.5-0.1,0.8h-7C889.5,962.1,890.7,962.8,892.1,962.8z M894.4,959.1
			c-0.3-1.5-1.4-2.2-2.5-2.2c-1.4,0-2.4,0.8-2.7,2.2H894.4z"/>
		<path class="st18" d="M902.7,955.3v2.1c-1.3-0.1-2.7,0.5-2.7,2.5v4.5H898v-8.9h1.9v1.5C900.5,955.7,901.6,955.3,902.7,955.3z"/>
		<path class="st18" d="M917.1,958.8v5.5h-1.9v-5.4c0-1.2-0.7-1.9-1.7-1.9c-1.1,0-1.9,0.7-1.9,2.3v5h-1.9v-5.4
			c0-1.2-0.6-1.9-1.7-1.9c-1.1,0-2,0.7-2,2.3v5h-1.9v-8.9h1.9v1.1c0.6-0.9,1.4-1.3,2.5-1.3c1.2,0,2,0.5,2.5,1.4
			c0.6-0.9,1.5-1.4,2.7-1.4C915.8,955.2,917.1,956.6,917.1,958.8z"/>
		<path class="st18" d="M928.1,955.4v8.9h-1.9V963c-0.7,0.9-1.7,1.5-3.1,1.5c-2.4,0-4.4-2-4.4-4.7c0-2.6,2-4.7,4.4-4.7
			c1.4,0,2.4,0.6,3.1,1.5v-1.3H928.1z M926.2,959.9c0-1.6-1.2-2.8-2.8-2.8c-1.6,0-2.8,1.2-2.8,2.8c0,1.6,1.2,2.8,2.8,2.8
			C925,962.7,926.2,961.5,926.2,959.9z"/>
		<path class="st18" d="M930.1,963.2c0-0.7,0.6-1.3,1.3-1.3c0.7,0,1.3,0.6,1.3,1.3c0,0.7-0.6,1.3-1.3,1.3
			C930.7,964.5,930.1,963.9,930.1,963.2z"/>
		<path class="st18" d="M933.6,959.9c0-2.6,2-4.7,4.7-4.7c1.7,0,3.2,0.9,3.9,2.3l-1.6,1c-0.4-0.8-1.3-1.4-2.3-1.4
			c-1.6,0-2.7,1.2-2.7,2.8c0,1.6,1.2,2.8,2.7,2.8c1.1,0,1.9-0.5,2.4-1.4l1.6,0.9c-0.7,1.4-2.2,2.3-4,2.3
			C935.6,964.5,933.6,962.5,933.6,959.9z"/>
		<path class="st18" d="M943,959.9c0-2.6,2.1-4.7,4.7-4.7c2.6,0,4.7,2,4.7,4.7c0,2.6-2.1,4.7-4.7,4.7
			C945.1,964.5,943,962.5,943,959.9z M950.5,959.9c0-1.6-1.2-2.8-2.8-2.8s-2.8,1.2-2.8,2.8c0,1.6,1.2,2.8,2.8,2.8
			S950.5,961.5,950.5,959.9z"/>
	</g>
</g>
</svg>
