<?xml version="1.0" encoding="utf-8"?>
<!-- Generator: Adobe Illustrator 23.1.1, SVG Export Plug-In . SVG Version: 6.00 Build 0)  -->
<svg version="1.1" xmlns="http://www.w3.org/2000/svg" xmlns:xlink="http://www.w3.org/1999/xlink" x="0px" y="0px"
	 viewBox="0 0 1000 1000" style="enable-background:new 0 0 1000 1000;" xml:space="preserve">
<style type="text/css">
	.st0{fill:#4A6D8B;}
	.st1{fill:#EEF2F4;}
	.st2{opacity:0.69;fill:#395D77;}
	.st3{opacity:0.5;fill:#825D7E;}
	.st4{fill:#684463;}
	.st5{opacity:0.56;fill:#2D4659;}
	.st6{fill:#8BBF98;}
	.st7{fill:#63916E;}
	.st8{fill:#55845F;}
	.st9{fill:#EF6562;}
	.st10{fill:#EC958B;}
	.st11{fill:#34515B;}
	.st12{fill:#D84E4E;}
	.st13{fill:#284249;}
	.st14{fill:#9FD6A3;}
	.st15{fill:#83B78D;}
	.st16{fill:#81B58C;}
	.st17{fill:#577F5D;}
	.st18{fill:#DD5858;}
	.st19{fill:#E8E8E8;}
	.st20{fill:#D35050;}
	.st21{fill:#35393D;}
	.st22{fill:#808284;}
	.st23{fill:#3B4044;}
	.st24{opacity:0.66;fill:#6D6F70;}
	.st25{fill:#C5E1DF;}
	.st26{fill:#B3DBAD;}
	.st27{fill:#68A575;}
	.st28{fill:#6F5A66;}
	.st29{fill:#A5CECA;}
	.st30{fill:#F2E07C;}
	.st31{fill:#DFBB4D;}
	.st32{fill:#6E7EE0;}
	.st33{fill:#7A8CE2;}
	.st34{fill:#6373C1;}
	.st35{fill:#FFFFFF;}
	.st36{fill:#E8B58B;}
	.st37{fill:#E09D6C;}
	.st38{fill:#1BB1B2;}
	.st39{fill:#19A5A1;}
	.st40{opacity:0.25;fill:#A59A63;}
	.st41{fill:#D1D1D1;}
	.st42{opacity:0.74;fill:#8BBF98;}
	.st43{opacity:0.23;fill:#EF6562;}
	.st44{opacity:0.18;fill:#63916E;}
	.st45{opacity:0.26;fill:#8BBF98;}
</style>
<g id="Layer_1">
	<rect id="XMLID_9_" class="st0" width="1000" height="1000"/>
	<g>
		<g>
			<g>
				<path class="st1" d="M63.2,959.2c0,2.5-1.2,3.7-2.6,3.7c-1.1,0-1.9-0.5-2.1-1.4c-0.4,0.5-1,0.8-1.8,0.8c-1.5,0-2.6-1.2-2.6-2.8
					c0-1.6,1.1-2.8,2.6-2.8c0.7,0,1.2,0.3,1.6,0.7v-0.5h1.6v3.9c0,0.8,0.3,1.4,1,1.4c0.9,0,1.7-0.9,1.7-3c0-3-2.3-5.3-5.4-5.3
					c-3.1,0-5.6,2.4-5.6,5.7c0,3.3,2.5,5.7,5.9,5.7c1.1,0,2.1-0.2,2.9-0.4v0.6c-0.8,0.3-1.7,0.4-2.9,0.4c-3.7,0-6.5-2.6-6.5-6.2
					c0-3.4,2.7-6.2,6.2-6.2C61.1,953.3,63.2,956.4,63.2,959.2z M58.3,959.5c0-0.8-0.6-1.4-1.3-1.4c-0.8,0-1.3,0.5-1.3,1.4
					c0,0.8,0.6,1.3,1.3,1.3C57.8,960.9,58.3,960.3,58.3,959.5z"/>
			</g>
			<g>
				<path class="st1" d="M69.4,955.1v2c-1.2-0.1-2.6,0.5-2.6,2.4v4.3h-1.9v-8.6h1.9v1.4C67.3,955.5,68.3,955.1,69.4,955.1z"/>
			</g>
			<g>
				<path class="st1" d="M74.6,962.3c1,0,1.8-0.5,2.2-1.1l1.5,0.9c-0.8,1.2-2.1,1.9-3.8,1.9c-2.8,0-4.7-1.9-4.7-4.5
					c0-2.5,1.8-4.5,4.5-4.5c2.6,0,4.3,2.1,4.3,4.5c0,0.3,0,0.5-0.1,0.8h-6.8C72.1,961.6,73.2,962.3,74.6,962.3z M76.9,958.8
					c-0.3-1.5-1.3-2.1-2.5-2.1c-1.4,0-2.3,0.8-2.6,2.1H76.9z"/>
			</g>
			<g>
				<path class="st1" d="M88.9,955.2v8.6h-1.9v-1.2c-0.7,0.9-1.7,1.5-3,1.5c-2.3,0-4.3-2-4.3-4.5c0-2.6,1.9-4.5,4.3-4.5
					c1.3,0,2.3,0.5,3,1.4v-1.2H88.9z M87.1,959.5c0-1.6-1.2-2.7-2.7-2.7c-1.5,0-2.7,1.1-2.7,2.7c0,1.6,1.2,2.7,2.7,2.7
					C85.9,962.3,87.1,961.1,87.1,959.5z"/>
			</g>
			<g>
				<path class="st1" d="M91.1,951.3H93v12.5h-1.9V951.3z"/>
			</g>
			<g>
				<path class="st1" d="M102.9,955.2l-3.3,8.6h-2.1l-3.3-8.6h2l2.4,6.5l2.4-6.5H102.9z"/>
			</g>
			<g>
				<path class="st1" d="M104.2,955.2h1.9v8.9c0,2.4-1.2,3.5-3.5,3.3v-1.8c1.1,0.1,1.7-0.3,1.7-1.5V955.2z M104,952.8
					c0-0.7,0.5-1.2,1.2-1.2c0.7,0,1.2,0.5,1.2,1.2c0,0.6-0.5,1.2-1.2,1.2C104.5,954,104,953.4,104,952.8z"/>
			</g>
			<g>
				<path class="st1" d="M116,955.2l-3.3,8.8c-0.8,2.2-2.2,3.3-4.2,3.2v-1.7c1.2,0.1,1.9-0.5,2.3-1.7l0.1-0.2l-3.6-8.4h2l2.6,6.2
					l2.2-6.2H116z"/>
			</g>
		</g>
		<g>
			<path class="st1" d="M211.9,938.7c0,2.1-1.5,3.8-3.6,3.8h-3v-7.6h3C210.4,934.9,211.9,936.6,211.9,938.7z M210.9,938.7
				c0-1.6-1.1-2.9-2.6-2.9h-2v5.7h2C209.8,941.6,210.9,940.3,210.9,938.7z"/>
			<path class="st1" d="M219.5,940.8h-3.4l-0.6,1.7h-1.1l2.8-7.6h1.1l2.8,7.6h-1.1L219.5,940.8z M219.2,939.9l-1.4-3.8l-1.4,3.8
				H219.2z"/>
			<path class="st1" d="M226.4,939.4v3.1h-1v-3.1l-2.7-4.5h1.1l2.1,3.6l2.1-3.6h1.1L226.4,939.4z"/>
			<path class="st1" d="M239.5,934.9v7.6h-1V936l-1.6,0.5l-0.3-0.9l2-0.7H239.5z"/>
			<path class="st1" d="M245.7,934.9v7.6h-1V936l-1.6,0.5l-0.3-0.9l2-0.7H245.7z"/>
		</g>
		<g>
			<path class="st1" d="M58.9,938.7c0,2.1-1.5,3.8-3.6,3.8h-3v-7.6h3C57.4,934.9,58.9,936.6,58.9,938.7z M57.9,938.7
				c0-1.6-1.1-2.9-2.6-2.9h-2v5.7h2C56.8,941.6,57.9,940.3,57.9,938.7z"/>
			<path class="st1" d="M67,941.6v1h-4.6v-7.6h4.5v1h-3.5v2.3h3.2v0.9h-3.2v2.4H67z"/>
			<path class="st1" d="M70,940.8l0.9-0.5c0.3,0.8,0.9,1.4,2,1.4c1.1,0,1.6-0.5,1.6-1.2c0-0.8-0.7-1-1.8-1.4
				c-1.2-0.4-2.4-0.8-2.4-2.2c0-1.4,1.1-2.2,2.4-2.2c1.3,0,2.2,0.7,2.6,1.7l-0.8,0.5c-0.3-0.7-0.8-1.2-1.7-1.2
				c-0.8,0-1.4,0.4-1.4,1.1c0,0.7,0.5,1,1.6,1.3c1.3,0.4,2.6,0.8,2.6,2.3c0,1.3-1.1,2.2-2.6,2.2C71.5,942.7,70.4,941.9,70,940.8z"/>
			<path class="st1" d="M80,934.9v7.6h-1v-7.6H80z"/>
			<path class="st1" d="M91.3,939.2c0,1.9-1.4,3.5-3.7,3.5c-2.4,0-4-1.8-4-4c0-2.2,1.7-4,4-4c1.4,0,2.7,0.8,3.3,1.8l-0.9,0.5
				c-0.4-0.8-1.4-1.4-2.4-1.4c-1.8,0-3,1.3-3,3c0,1.7,1.2,3,3,3c1.6,0,2.5-0.9,2.7-2h-2.8v-0.9h3.8V939.2z"/>
			<path class="st1" d="M100.6,934.9v7.6h-0.8l-3.9-5.7v5.7h-1v-7.6h0.8l3.9,5.7v-5.7H100.6z"/>
			<path class="st1" d="M109.1,941.6v1h-4.6v-7.6h4.5v1h-3.5v2.3h3.2v0.9h-3.2v2.4H109.1z"/>
			<path class="st1" d="M119.2,938.7c0,2.1-1.5,3.8-3.6,3.8h-3v-7.6h3C117.6,934.9,119.2,936.6,119.2,938.7z M118.2,938.7
				c0-1.6-1.1-2.9-2.6-2.9h-2v5.7h2C117.1,941.6,118.2,940.3,118.2,938.7z"/>
			<path class="st1" d="M133.2,940.4c0,1.2-1,2.2-2.2,2.2h-3.3v-7.6h3c1.2,0,2.1,0.9,2.1,2.1c0,0.7-0.3,1.2-0.8,1.6
				C132.7,938.9,133.2,939.5,133.2,940.4z M128.7,935.8v2.3h2c0.6,0,1.1-0.5,1.1-1.2c0-0.6-0.5-1.2-1.1-1.2H128.7z M132.2,940.3
				c0-0.7-0.5-1.2-1.2-1.2h-2.3v2.5h2.3C131.7,941.6,132.2,941,132.2,940.3z"/>
			<path class="st1" d="M139.4,939.4v3.1h-1v-3.1l-2.7-4.5h1.1l2.1,3.6l2.1-3.6h1.1L139.4,939.4z"/>
		</g>
		<g>
			<path class="st1" d="M214.5,960.8c0,2.1-1.7,3.5-3.7,3.5h-5.3v-12.4h4.9c2,0,3.6,1.5,3.6,3.4c0,1.1-0.5,2-1.3,2.5
				C213.8,958.4,214.5,959.4,214.5,960.8z M207.5,953.8v3.3h2.9c0.9,0,1.6-0.7,1.6-1.6c0-0.9-0.7-1.6-1.6-1.6H207.5z M212.4,960.6
				c0-1-0.7-1.7-1.7-1.7h-3.3v3.5h3.3C211.7,962.4,212.4,961.6,212.4,960.6z"/>
			<path class="st1" d="M216.1,951.4h1.9v12.9h-1.9V951.4z"/>
			<path class="st1" d="M229.2,955.4v8.9h-1.9V963c-0.7,0.9-1.7,1.5-3.1,1.5c-2.4,0-4.4-2-4.4-4.7c0-2.6,2-4.7,4.4-4.7
				c1.4,0,2.4,0.6,3.1,1.5v-1.3H229.2z M227.3,959.9c0-1.6-1.2-2.8-2.8-2.8c-1.6,0-2.8,1.2-2.8,2.8c0,1.6,1.2,2.8,2.8,2.8
				C226.1,962.7,227.3,961.5,227.3,959.9z"/>
			<path class="st1" d="M230.9,959.9c0-2.6,2-4.7,4.7-4.7c1.7,0,3.2,0.9,3.9,2.3l-1.6,1c-0.4-0.8-1.3-1.4-2.3-1.4
				c-1.6,0-2.7,1.2-2.7,2.8c0,1.6,1.2,2.8,2.7,2.8c1.1,0,1.9-0.5,2.4-1.4l1.6,0.9c-0.7,1.4-2.2,2.3-4,2.3
				C232.9,964.5,230.9,962.5,230.9,959.9z"/>
			<path class="st1" d="M246.5,964.3l-3.6-4.1v4.1H241v-12.4h1.9v7.5l3.4-3.9h2.3l-3.9,4.3l4,4.5H246.5z"/>
			<path class="st1" d="M259.5,959.9c0,2.6-2,4.7-4.4,4.7c-1.4,0-2.4-0.6-3.1-1.5v1.3h-1.9v-12.4h1.9v4.8c0.7-0.9,1.7-1.5,3.1-1.5
				C257.5,955.2,259.5,957.2,259.5,959.9z M257.6,959.9c0-1.6-1.2-2.8-2.8-2.8c-1.6,0-2.8,1.2-2.8,2.8c0,1.6,1.2,2.8,2.8,2.8
				C256.4,962.7,257.6,961.5,257.6,959.9z"/>
			<path class="st1" d="M260.7,959.9c0-2.6,2.1-4.7,4.7-4.7c2.6,0,4.7,2,4.7,4.7c0,2.6-2.1,4.7-4.7,4.7
				C262.8,964.5,260.7,962.5,260.7,959.9z M268.2,959.9c0-1.6-1.2-2.8-2.8-2.8s-2.8,1.2-2.8,2.8c0,1.6,1.2,2.8,2.8,2.8
				S268.2,961.5,268.2,959.9z"/>
			<path class="st1" d="M280.7,955.4v8.9h-1.9V963c-0.7,0.9-1.7,1.5-3.1,1.5c-2.4,0-4.4-2-4.4-4.7c0-2.6,2-4.7,4.4-4.7
				c1.4,0,2.4,0.6,3.1,1.5v-1.3H280.7z M278.8,959.9c0-1.6-1.2-2.8-2.8-2.8c-1.6,0-2.8,1.2-2.8,2.8c0,1.6,1.2,2.8,2.8,2.8
				C277.6,962.7,278.8,961.5,278.8,959.9z"/>
			<path class="st1" d="M287.6,955.3v2.1c-1.3-0.1-2.7,0.5-2.7,2.5v4.5H283v-8.9h1.9v1.5C285.4,955.7,286.5,955.3,287.6,955.3z"/>
			<path class="st1" d="M297.5,951.9v12.4h-1.9V963c-0.7,0.9-1.7,1.5-3.1,1.5c-2.4,0-4.4-2-4.4-4.7c0-2.6,2-4.7,4.4-4.7
				c1.4,0,2.4,0.6,3.1,1.5v-4.8H297.5z M295.6,959.9c0-1.6-1.2-2.8-2.8-2.8c-1.6,0-2.8,1.2-2.8,2.8c0,1.6,1.2,2.8,2.8,2.8
				C294.4,962.7,295.6,961.5,295.6,959.9z"/>
		</g>
		<g>
			<path class="st1" d="M841.3,942.5h-1v-7.6h1.1l2.4,4l2.4-4h1.1v7.6h-1v-6l-2.5,4.2h-0.1l-2.5-4.1V942.5z M858.8,938.7
				c0,2.2-1.7,4-4,4c-2.2,0-3.9-1.8-3.9-4c0-2.2,1.7-4,3.9-4C857.1,934.7,858.8,936.5,858.8,938.7z M857.8,938.7c0-1.7-1.3-3-2.9-3
				c-1.7,0-2.9,1.3-2.9,3c0,1.7,1.3,3,2.9,3C856.6,941.7,857.8,940.4,857.8,938.7z M866.2,939.5l1.8,3.1h-1.1l-1.7-2.9h-1.8v2.9h-1
				v-7.6h3c1.3,0,2.4,1.1,2.4,2.4C867.8,938.2,867.1,939.1,866.2,939.5z M865.4,938.7c0.8,0,1.4-0.6,1.4-1.4c0-0.8-0.6-1.4-1.4-1.4
				h-2v2.8H865.4z M875.9,941.6h-3.5v-2.4h3.2v-0.9h-3.2v-2.3h3.5v-1h-4.5v7.6h4.6V941.6z M844.2,962.2l-2.5-6.7h-2.1l3.5,8.9h2.2
				l3.5-8.9h-2.1L844.2,962.2z M850,964.3h1.9v-8.9H850V964.3z M851,951.7c-0.7,0-1.2,0.5-1.2,1.2c0,0.7,0.5,1.2,1.2,1.2
				c0.7,0,1.2-0.6,1.2-1.2C852.2,952.2,851.6,951.7,851,951.7z M855.2,951.7c-0.7,0-1.2,0.5-1.2,1.2c0,0.7,0.5,1.2,1.2,1.2
				c0.7,0,1.2-0.6,1.2-1.2C856.5,952.2,855.9,951.7,855.2,951.7z M854.3,964.7c0,1.2-0.5,1.7-1.7,1.6v1.8c2.4,0.2,3.6-1,3.6-3.4
				v-9.2h-1.9V964.7z M865.4,955.4h1.9v8.9h-1.9V963c-0.7,0.9-1.7,1.5-3.1,1.5c-2.4,0-4.4-2-4.4-4.7c0-2.6,2-4.7,4.4-4.7
				c1.4,0,2.4,0.6,3.1,1.5V955.4z M865.4,959.9c0-1.6-1.2-2.8-2.8-2.8c-1.6,0-2.8,1.2-2.8,2.8c0,1.6,1.2,2.8,2.8,2.8
				C864.2,962.7,865.4,961.5,865.4,959.9z M873.3,961.9l-2.6-6.4h-2.1l3.8,8.7l-0.1,0.2c-0.4,1.2-1.1,1.8-2.4,1.7v1.8
				c2,0.1,3.5-1,4.3-3.3l3.4-9.1h-2L873.3,961.9z M882.3,962.2l-2.5-6.7h-2.1l3.5,8.9h2.2l3.5-8.9h-2.1L882.3,962.2z M896.4,959.9
				c0,0.3,0,0.5-0.1,0.8h-7c0.3,1.4,1.4,2.1,2.8,2.1c1.1,0,1.9-0.5,2.3-1.1l1.6,0.9c-0.8,1.2-2.1,1.9-3.9,1.9c-2.9,0-4.8-2-4.8-4.7
				c0-2.6,1.9-4.7,4.7-4.7C894.5,955.2,896.4,957.3,896.4,959.9z M894.4,959.1c-0.3-1.5-1.4-2.2-2.5-2.2c-1.4,0-2.4,0.8-2.7,2.2
				H894.4z M899.9,956.9v-1.5H898v8.9h1.9v-4.5c0-2,1.5-2.6,2.7-2.5v-2.1C901.6,955.3,900.5,955.7,899.9,956.9z M913.8,955.2
				c-1.2,0-2.1,0.5-2.7,1.4c-0.5-0.9-1.4-1.4-2.5-1.4c-1.1,0-2,0.4-2.5,1.3v-1.1h-1.9v8.9h1.9v-5c0-1.6,0.9-2.3,2-2.3
				c1,0,1.7,0.7,1.7,1.9v5.4h1.9v-5c0-1.6,0.8-2.3,1.9-2.3c1,0,1.7,0.7,1.7,1.9v5.4h1.9v-5.5C917.1,956.6,915.8,955.2,913.8,955.2z
				 M926.2,955.4h1.9v8.9h-1.9V963c-0.7,0.9-1.7,1.5-3.1,1.5c-2.4,0-4.4-2-4.4-4.7c0-2.6,2-4.7,4.4-4.7c1.4,0,2.4,0.6,3.1,1.5V955.4
				z M926.2,959.9c0-1.6-1.2-2.8-2.8-2.8c-1.6,0-2.8,1.2-2.8,2.8c0,1.6,1.2,2.8,2.8,2.8C925,962.7,926.2,961.5,926.2,959.9z
				 M931.5,961.9c-0.7,0-1.3,0.6-1.3,1.3c0,0.7,0.6,1.3,1.3,1.3c0.7,0,1.3-0.6,1.3-1.3C932.8,962.4,932.2,961.9,931.5,961.9z
				 M938.3,962.6c-1.6,0-2.7-1.2-2.7-2.8c0-1.6,1.2-2.8,2.7-2.8c1.1,0,1.9,0.5,2.3,1.4l1.6-1c-0.7-1.4-2.2-2.3-3.9-2.3
				c-2.7,0-4.7,2-4.7,4.7c0,2.6,2,4.7,4.7,4.7c1.7,0,3.2-0.9,4-2.3l-1.6-0.9C940.2,962.1,939.3,962.6,938.3,962.6z M952.4,959.9
				c0,2.6-2.1,4.7-4.7,4.7c-2.6,0-4.7-2-4.7-4.7c0-2.6,2.1-4.7,4.7-4.7C950.3,955.2,952.4,957.2,952.4,959.9z M950.5,959.9
				c0-1.6-1.2-2.8-2.8-2.8s-2.8,1.2-2.8,2.8c0,1.6,1.2,2.8,2.8,2.8S950.5,961.5,950.5,959.9z"/>
		</g>
	</g>
	<path id="XMLID_192_" class="st2" d="M757.4,300.7H601.6v-52H645c14.4,0,26-11.6,26-26v0c0-14.4-11.6-26-26-26H389.6
		c-14.4,0-26,11.6-26,26v0c0,14.4,11.6,26,26,26h55.4c14.4,0,26,11.6,26,26v0c0,14.4-11.6,26-26,26h-178c-14.4,0-26,11.6-26,26v0
		c0,14.4,11.6,26,26,26h70.8c14.4,0,26,11.6,26,26v0c0,14.4-11.6,26-26,26h-29.9c-14.4,0-26,11.6-26,26v0c0,14.4,11.6,26,26,26h98.6
		v52h-76c-14.4,0-26,11.6-26,26l0,0c0,14.4,11.6,26,26,26h138.6c14.4,0,26,11.6,26,26v0c0,14.4-11.6,26-26,26h-77.5
		c-14.4,0-26,11.6-26,26v0c0,14.4,11.6,26,26,26h296.6c14.4,0,26-11.6,26-26v0c0-14.4-11.6-26-26-26h-74.5v-52h23.6
		c14.4,0,26-11.6,26-26v0c0-14.4-11.6-26-26-26h-23.6v-52h98.6c14.4,0,26-11.6,26-26v0c0-14.4-11.6-26-26-26h3.7v-52h41.6
		c14.4,0,26-11.6,26-26v0C783.4,312.4,771.8,300.7,757.4,300.7z"/>
	<path id="XMLID_226_" class="st3" d="M265.8,506.3h-27.2c-14.4,0-26-11.6-26-26v0c0-14.4,11.6-26,26-26h27.2c14.4,0,26,11.6,26,26
		v0C291.8,494.6,280.2,506.3,265.8,506.3z"/>
	<path id="XMLID_190_" class="st0" d="M515.8,404.7h-52.7c-14.4,0-26-11.6-26-26v0c0-14.4,11.6-26,26-26h52.7c14.4,0,26,11.6,26,26
		v0C541.8,393.1,530.2,404.7,515.8,404.7z"/>
	<path id="XMLID_189_" class="st0" d="M747.9,404.7H636.2c-14.4,0-26-11.6-26-26v0c0-14.4,11.6-26,26-26h111.7c14.4,0,26,11.6,26,26
		v0C773.9,393.1,762.3,404.7,747.9,404.7z"/>
	<path id="XMLID_188_" class="st0" d="M653.2,508.7H541.5c-14.4,0-26-11.6-26-26v0c0-14.4,11.6-26,26-26h111.7c14.4,0,26,11.6,26,26
		v0C679.2,497.1,667.6,508.7,653.2,508.7z"/>
	<path id="XMLID_82_" class="st4" d="M384.2,451.7H272.5c-14.4,0-26-11.6-26-26v0c0-14.4,11.6-26,26-26h111.7c14.4,0,26,11.6,26,26
		v0C410.2,440.1,398.6,451.7,384.2,451.7z"/>
	<path id="XMLID_66_" class="st0" d="M713.6,300.7H601.8c-14.4,0-26-11.6-26-26v0c0-14.4,11.6-26,26-26h111.7c14.4,0,26,11.6,26,26
		v0C739.6,289.1,727.9,300.7,713.6,300.7z"/>
	<path id="XMLID_224_" class="st0" d="M719.4,612.7H607.7c-14.4,0-26-11.6-26-26v0c0-14.4,11.6-26,26-26h111.7c14.4,0,26,11.6,26,26
		v0C745.4,601.1,733.8,612.7,719.4,612.7z"/>
	<path id="XMLID_225_" class="st2" d="M705.2,560.7h36.2c14.4,0,26-11.6,26-26v0c0-14.4-11.6-26-26-26h-36.2c-14.4,0-26,11.6-26,26
		v0C679.2,549.1,690.8,560.7,705.2,560.7z"/>
	<path id="XMLID_4_" class="st2" d="M793.4,456.7H781c-14.4,0-26-11.6-26-26v0c0-14.4,11.6-26,26-26h12.4c14.4,0,26,11.6,26,26v0
		C819.4,445.1,807.8,456.7,793.4,456.7z"/>
	<path id="XMLID_249_" class="st2" d="M272.5,664.7h48.6c14.4,0,26-11.6,26-26v0c0-14.4-11.6-26-26-26h-48.6c-14.4,0-26,11.6-26,26
		v0C246.5,653.1,258.1,664.7,272.5,664.7z"/>
	<path id="XMLID_220_" class="st2" d="M195.3,352.7L195.3,352.7c14.4,0,26-11.6,26-26v0c0-14.4-11.6-26-26-26h0
		c-14.4,0-26,11.6-26,26v0C169.3,341.1,180.9,352.7,195.3,352.7z"/>
	<path id="XMLID_35_" class="st5" d="M888.2,713.5H111.8c-7.2,0-13-5.8-13-13v0c0-7.2,5.8-13,13-13h776.3c7.2,0,13,5.8,13,13v0
		C901.2,707.7,895.3,713.5,888.2,713.5z"/>
	<rect id="XMLID_1_" x="435.7" y="599.5" class="st6" width="20" height="100"/>
	<rect id="XMLID_17_" x="455.7" y="599.5" class="st7" width="12" height="100"/>
	<rect id="XMLID_21_" x="547.7" y="599.5" class="st6" width="20" height="100"/>
	<rect id="XMLID_16_" x="567.7" y="599.5" class="st7" width="12" height="100"/>
	<rect id="XMLID_26_" x="631.7" y="599.5" class="st6" width="20" height="100"/>
	<rect id="XMLID_19_" x="651.7" y="599.5" class="st7" width="12" height="100"/>
	<rect id="XMLID_87_" x="716.1" y="619.5" class="st6" width="12" height="80"/>
	<rect id="XMLID_84_" x="728.1" y="619.5" class="st7" width="8" height="80"/>
	<rect id="XMLID_34_" x="792" y="619.5" class="st6" width="12" height="80"/>
	<rect id="XMLID_31_" x="804" y="619.5" class="st7" width="8" height="80"/>
	<rect id="XMLID_20_" x="804" y="619.5" class="st8" width="8" height="4"/>
	<rect id="XMLID_50_" x="792" y="619.5" class="st7" width="12" height="4"/>
	<rect id="XMLID_94_" x="761.4" y="507.5" class="st6" width="12" height="192"/>
	<rect id="XMLID_91_" x="773.4" y="507.5" class="st7" width="8" height="192"/>
	<rect id="XMLID_88_" x="837.4" y="507.5" class="st6" width="12" height="192"/>
	<rect id="XMLID_30_" x="849.4" y="507.5" class="st7" width="8" height="192"/>
	<path id="XMLID_5_" class="st9" d="M431.1,547.5h-23.6v-172h23.6c3.3,0,6,2.7,6,6v160C437.1,544.8,434.5,547.5,431.1,547.5z"/>
	<path id="XMLID_3_" class="st10" d="M423.6,547.5h-244c-3.3,0-6-2.7-6-6v-160c0-3.3,2.7-6,6-6h244c3.3,0,6,2.7,6,6v160
		C429.6,544.8,426.9,547.5,423.6,547.5z"/>
	
		<rect id="XMLID_14_" x="227.6" y="345.4" transform="matrix(-1.836970e-16 1 -1 -1.836970e-16 762.9394 159.8375)" class="st11" width="148" height="232"/>
	
		<rect id="XMLID_12_" x="113.1" y="459.9" transform="matrix(-1.836970e-16 1 -1 -1.836970e-16 648.4394 274.3375)" class="st12" width="148" height="3"/>
	<rect id="XMLID_18_" x="413.8" y="387.4" class="st13" width="3.8" height="148"/>
	<rect id="XMLID_7_" x="304.2" y="547.5" class="st12" width="18.2" height="152"/>
	<rect id="XMLID_6_" x="296.6" y="547.5" class="st9" width="18.2" height="152"/>
	<rect id="XMLID_24_" x="296.6" y="547.5" class="st12" width="18.2" height="7.4"/>
	<path id="XMLID_10_" class="st9" d="M376.6,699.5H253.9v-12c0-6.6,5.4-12,12-12h98.7c6.6,0,12,5.4,12,12V699.5z"/>
	<path id="XMLID_8_" class="st10" d="M365.5,699.5H242.8v-12c0-6.6,5.4-12,12-12h98.7c6.6,0,12,5.4,12,12V699.5z"/>
	<rect id="XMLID_11_" x="435.7" y="580.4" class="st6" width="132" height="19.1"/>
	<rect id="XMLID_48_" x="567.7" y="580.4" class="st7" width="96" height="19.1"/>
	<rect id="XMLID_13_" x="428.7" y="567.1" class="st14" width="129" height="13.3"/>
	<rect id="XMLID_54_" x="435.7" y="580.4" class="st7" width="132" height="4"/>
	<rect id="XMLID_56_" x="557.7" y="567.1" class="st15" width="115.6" height="13.3"/>
	<rect id="XMLID_25_" x="710.4" y="603.5" class="st16" width="96" height="16"/>
	<rect id="XMLID_97_" x="806.4" y="603.5" class="st7" width="56" height="16"/>
	<rect id="XMLID_29_" x="773.4" y="517.3" class="st16" width="64" height="36"/>
	<rect id="XMLID_32_" x="849.4" y="619.5" class="st8" width="8" height="4"/>
	<rect id="XMLID_51_" x="837.4" y="619.5" class="st7" width="12" height="4"/>
	<rect id="XMLID_53_" x="761.4" y="619.5" class="st7" width="12" height="4"/>
	<rect id="XMLID_116_" x="716.1" y="619.5" class="st7" width="12" height="4"/>
	<rect id="XMLID_120_" x="728.1" y="619.5" class="st8" width="8" height="4"/>
	<rect id="XMLID_110_" x="773.4" y="619.5" class="st8" width="8" height="4"/>
	<rect id="XMLID_114_" x="567.7" y="580.4" class="st17" width="96" height="4"/>
	<g id="XMLID_44_">
		
			<rect id="XMLID_70_" x="601" y="453.6" transform="matrix(0.9911 -0.1334 0.1334 0.9911 -60.7587 85.2339)" class="st18" width="9.4" height="84.8"/>
		
			<rect id="XMLID_72_" x="596.5" y="456.2" transform="matrix(0.9911 -0.1334 0.1334 0.9911 -56.9574 84.4606)" class="st9" width="10.6" height="22.3"/>
		
			<rect id="XMLID_123_" x="593.4" y="459" transform="matrix(0.9911 -0.1334 0.1334 0.9911 -56.0165 83.4062)" class="st19" width="2" height="1.4"/>
		<path id="XMLID_126_" class="st19" d="M596.2,476.3l-0.6,0.1l-2.1-15.7l1.4-0.2l2,14.9C597,475.7,596.7,476.2,596.2,476.3z"/>
		
			<rect id="XMLID_125_" x="598.7" y="478.3" transform="matrix(0.9911 -0.1334 0.1334 0.9911 -58.4882 84.772)" class="st20" width="9.4" height="1.1"/>
	</g>
	<g id="XMLID_76_">
		<path id="XMLID_60_" class="st19" d="M583.7,479.6l-8.1,2.5l-3.7-11.9c-0.5-1.6,0.4-3.3,2-3.8l2.4-0.7c1.6-0.5,3.3,0.4,3.8,2
			L583.7,479.6z"/>
		
			<rect id="XMLID_69_" x="576.6" y="480.4" transform="matrix(0.9544 -0.2986 0.2986 0.9544 -120.0758 196.4244)" class="st21" width="12.6" height="21.8"/>
		<polygon id="XMLID_129_" class="st22" points="579,500.7 588.8,488.4 586.7,481.8 576.9,494.1 		"/>
		
			<rect id="XMLID_62_" x="587" y="500.6" transform="matrix(0.9544 -0.2986 0.2986 0.9544 -128.9842 200.7801)" class="st23" width="11.4" height="43.9"/>
		
			<rect id="XMLID_74_" x="589" y="501.2" transform="matrix(0.9544 -0.2986 0.2986 0.9544 -129.2357 200.2657)" class="st24" width="3.8" height="43.9"/>
	</g>
	<g id="XMLID_134_">
		<polygon id="XMLID_169_" class="st25" points="633.9,463.9 630,463.3 625.1,472.1 636.1,473.7 		"/>
		<path id="XMLID_166_" class="st26" d="M621.4,545.3l-2.9-0.4c-2.2-0.3-3.7-2.4-3.4-4.6l10.1-68.2l10.9,1.6L626,541.9
			C625.7,544.1,623.6,545.7,621.4,545.3z"/>
		<path id="XMLID_163_" class="st27" d="M617.3,544.7l-0.8-0.1c-1.1-0.2-1.9-1.2-1.8-2.4l10.4-70.2l2.8,0.4L617.3,544.7z"/>
		<path id="XMLID_156_" class="st27" d="M623.3,545.6l-0.8-0.1l10.7-72.2l2.8,0.4l-10.4,70.2C625.5,545,624.5,545.8,623.3,545.6z"/>
		<path id="XMLID_146_" class="st28" d="M633.9,463.9l-0.9-4c-0.1-0.6-0.8-0.7-1.1-0.2l-2,3.6L633.9,463.9z"/>
		<polygon id="XMLID_141_" class="st29" points="633.9,463.9 632,463.6 633.2,473.3 636.1,473.7 		"/>
	</g>
	<path id="XMLID_22_" class="st30" d="M633.9,567.1h-56v-57.6c0-1.1,0.9-2,2-2h52c1.1,0,2,0.9,2,2V567.1z"/>
	<path id="XMLID_150_" class="st31" d="M625.9,507.5v59.6h8v-57.6c0-1.1-0.9-2-2-2H625.9z"/>
	<rect id="XMLID_144_" x="564.3" y="537.3" class="st32" width="31.1" height="29.8"/>
	<rect id="XMLID_140_" x="564.3" y="537.3" class="st33" width="3.4" height="29.8"/>
	
		<rect id="XMLID_147_" x="590.9" y="537.3" transform="matrix(-1 -1.224647e-16 1.224647e-16 -1 1186.2551 1104.3224)" class="st34" width="4.5" height="29.8"/>
	
		<rect id="XMLID_155_" x="595.4" y="537.3" transform="matrix(-1 -1.224647e-16 1.224647e-16 -1 1193.5815 1104.3224)" class="st31" width="2.8" height="29.8"/>
	<rect id="XMLID_142_" x="471.5" y="543.6" class="st10" width="23.4" height="23.4"/>
	<rect id="XMLID_154_" x="471.5" y="543.6" class="st9" width="23.4" height="1.1"/>
	<rect id="XMLID_152_" x="494.9" y="543.6" class="st9" width="12.4" height="23.4"/>
	<g id="XMLID_148_">
		<path class="st35" d="M485.7,558.7h-3.9l-0.6,1.9h-2.1l3.5-9.8h2.3l3.5,9.8h-2.1L485.7,558.7z M483.7,553.1l-1.4,4.1h2.8
			L483.7,553.1z"/>
	</g>
	<rect id="XMLID_186_" x="504.7" y="543.6" class="st36" width="23.4" height="23.4"/>
	<rect id="XMLID_158_" x="528.1" y="543.6" class="st37" width="12.4" height="23.4"/>
	<g id="XMLID_157_">
		<path class="st35" d="M516.5,550.8c2.4,0,3.5,1.4,3.5,3c0,1.2-0.7,2.4-2.2,2.8l2.3,4h-2.3l-2.2-3.8h-0.9v3.8h-2v-9.8H516.5z
			 M516.5,552.4h-1.6v2.9h1.6c1.1,0,1.6-0.6,1.6-1.5C518,553,517.5,552.4,516.5,552.4z"/>
	</g>
	<rect id="XMLID_193_" x="465.3" y="520.2" class="st38" width="23.4" height="23.4"/>
	<rect id="XMLID_181_" x="488.7" y="520.2" class="st39" width="12.4" height="23.4"/>
	<g id="XMLID_159_">
		<path class="st35" d="M480.2,527.4h2.1l-3.6,9.8h-2.4l-3.6-9.8h2.1l2.7,7.8L480.2,527.4z"/>
	</g>
	<path id="XMLID_47_" class="st9" d="M187.2,693.3c-12.5,9.1-30,6.4-39.1-6.1c-9.1-12.5-6.4-30,6.1-39.1L187.2,693.3z"/>
	<path id="XMLID_33_" class="st30" d="M154.2,648.1c12.5-9.1,30-6.4,39.1,6.1c9.1,12.5,6.4,30-6.1,39.1L154.2,648.1z"/>
	<path id="XMLID_81_" class="st40" d="M174.9,643c10.6,4,18.1,14.2,18.1,26.2c0,15.5-12.5,28-28,28c-1.4,0-2.8-0.1-4.2-0.3
		c3.1,1.2,6.4,1.8,9.9,1.8c15.5,0,28-12.5,28-28C198.7,656.6,188.4,645,174.9,643z"/>
	<g id="XMLID_64_">
		<path id="XMLID_281_" class="st41" d="M278.9,472.4c0.6-1.1,1.1-2.2,1.6-3.3c0.5-1.1,1-2.3,1.4-3.5c0.9-2.3,1.7-4.7,2.4-7.1
			c0.2-0.6,0.4-1.2,0.5-1.8l0.5-1.8c0.3-1.2,0.6-2.4,0.8-3.7c0.3-1.2,0.5-2.5,0.7-3.7c0.2-1.2,0.3-2.5,0.5-3.7l0.1-0.8l0.5-0.4l0,0
			c0.5-0.5,1.3-1,2.2-1c0.9-0.1,1.6,0.2,2.1,0.5c1,0.6,1.7,1.2,2.2,1.9c1.1,1.3,1.9,2.6,2.7,4c1.5,2.7,2.7,5.4,3.9,8.2
			c1.1,2.8,2.2,5.6,3.1,8.4c0.9,2.8,1.8,5.7,2.4,8.7c0.1,0.5-0.2,1-0.7,1.1c-0.5,0.1-1-0.2-1.1-0.7l0,0c-0.8-2.8-1.8-5.5-2.9-8.3
			c-1.1-2.7-2.3-5.4-3.5-8c-1.3-2.6-2.6-5.2-4.2-7.6c-0.8-1.2-1.6-2.3-2.5-3.2c-0.4-0.4-0.9-0.8-1.2-0.9c-0.1-0.1-0.2,0,0,0
			c0.1,0,0.3-0.1,0.2-0.1l0,0l0.6-1.2c-0.2,1.3-0.3,2.6-0.5,3.9c-0.2,1.3-0.4,2.6-0.7,3.9c-0.2,1.3-0.6,2.6-0.9,3.8l-0.5,1.9
			c-0.2,0.6-0.3,1.3-0.5,1.9c-0.7,2.5-1.6,5-2.5,7.4c-0.5,1.2-1,2.4-1.5,3.6c-0.5,1.2-1.1,2.4-1.7,3.6c-0.5,1-1.7,1.4-2.7,0.8
			S278.4,473.4,278.9,472.4L278.9,472.4L278.9,472.4z"/>
	</g>
	<g id="XMLID_68_">
		<path id="XMLID_277_" class="st41" d="M280.4,459.4l25-2.6c0.9-0.1,1.7,0.6,1.8,1.5c0.1,0.9-0.5,1.7-1.4,1.8l-25,3.3
			c-1.1,0.1-2.1-0.6-2.2-1.7S279.3,459.6,280.4,459.4C280.4,459.4,280.4,459.4,280.4,459.4z"/>
	</g>
	<path id="XMLID_230_" class="st6" d="M833.8,528.2h-11c-1.7,0-3-1.3-3-3l0,0c0-1.7,1.3-3,3-3h11c1.7,0,3,1.3,3,3l0,0
		C836.8,526.8,835.5,528.2,833.8,528.2z"/>
	<path id="XMLID_229_" class="st6" d="M825.9,537.5h-12c-1.7,0-3-1.3-3-3l0,0c0-1.7,1.3-3,3-3h12c1.7,0,3,1.3,3,3l0,0
		C828.9,536.1,827.6,537.5,825.9,537.5z"/>
	<path id="XMLID_228_" class="st42" d="M816.4,548.5h-36c-1.7,0-3-1.3-3-3l0,0c0-1.7,1.3-3,3-3h36c1.7,0,3,1.3,3,3l0,0
		C819.4,547.2,818.1,548.5,816.4,548.5z"/>
	<path id="XMLID_231_" class="st43" d="M281.5,687.5h-23c-1.7,0-3-1.3-3-3v0c0-1.7,1.3-3,3-3h23c1.7,0,3,1.3,3,3v0
		C284.5,686.1,283.2,687.5,281.5,687.5z"/>
	<path id="XMLID_232_" class="st43" d="M304.2,687.5h-6.7c-1.7,0-3-1.3-3-3v0c0-1.7,1.3-3,3-3h6.7c1.7,0,3,1.3,3,3v0
		C307.2,686.1,305.9,687.5,304.2,687.5z"/>
	<path id="XMLID_234_" class="st43" d="M354,695h-26.8c-1.7,0-3-1.3-3-3l0,0c0-1.7,1.3-3,3-3H354c1.7,0,3,1.3,3,3l0,0
		C357,693.6,355.7,695,354,695z"/>
	<path id="XMLID_28_" class="st43" d="M343.2,695H338c-1.7,0-3-1.3-3-3l0,0c0-1.7,1.3-3,3-3h5.2c1.7,0,3,1.3,3,3l0,0
		C346.2,693.6,344.9,695,343.2,695z"/>
	<path id="XMLID_227_" class="st6" d="M797.4,537.5h-5.2c-1.7,0-3-1.3-3-3l0,0c0-1.7,1.3-3,3-3h5.2c1.7,0,3,1.3,3,3l0,0
		C800.4,536.1,799.1,537.5,797.4,537.5z"/>
	<path id="XMLID_218_" class="st6" d="M806.5,528.2h-25c-1.7,0-3-1.3-3-3l0,0c0-1.7,1.3-3,3-3h25c1.7,0,3,1.3,3,3l0,0
		C809.5,526.8,808.2,528.2,806.5,528.2z"/>
	<path id="XMLID_248_" class="st44" d="M472.1,589.9h-20.8c-0.9,0-1.7-0.7-1.7-1.7l0,0c0-0.9,0.7-1.7,1.7-1.7h20.8
		c0.9,0,1.7,0.7,1.7,1.7l0,0C473.7,589.2,473,589.9,472.1,589.9z"/>
	<path id="XMLID_254_" class="st44" d="M488,589.9h-9.5c-0.9,0-1.7-0.7-1.7-1.7l0,0c0-0.9,0.7-1.7,1.7-1.7h9.5
		c0.9,0,1.7,0.7,1.7,1.7l0,0C489.6,589.2,488.9,589.9,488,589.9z"/>
	<path id="XMLID_255_" class="st44" d="M500.9,595.7h-20.5c-0.9,0-1.7-0.7-1.7-1.7l0,0c0-0.9,0.7-1.7,1.7-1.7h20.5
		c0.9,0,1.7,0.7,1.7,1.7l0,0C502.5,594.9,501.8,595.7,500.9,595.7z"/>
	<path id="XMLID_268_" class="st44" d="M537.4,595.7h-6.1c-0.9,0-1.7-0.7-1.7-1.7l0,0c0-0.9,0.7-1.7,1.7-1.7h6.1
		c0.9,0,1.7,0.7,1.7,1.7l0,0C539,594.9,538.3,595.7,537.4,595.7z"/>
	<path id="XMLID_256_" class="st44" d="M543.5,590.9h-6.1c-0.9,0-1.7-0.7-1.7-1.7l0,0c0-0.9,0.7-1.7,1.7-1.7h6.1
		c0.9,0,1.7,0.7,1.7,1.7l0,0C545.2,590.1,544.5,590.9,543.5,590.9z"/>
	<path id="XMLID_282_" class="st45" d="M607.6,595.7h-23.5c-0.9,0-1.7-0.7-1.7-1.7l0,0c0-0.9,0.7-1.7,1.7-1.7h23.5
		c0.9,0,1.7,0.7,1.7,1.7l0,0C609.2,594.9,608.5,595.7,607.6,595.7z"/>
	<path id="XMLID_279_" class="st45" d="M641.1,595.7H635c-0.9,0-1.7-0.7-1.7-1.7l0,0c0-0.9,0.7-1.7,1.7-1.7h6.1
		c0.9,0,1.7,0.7,1.7,1.7l0,0C642.7,594.9,642,595.7,641.1,595.7z"/>
	<path id="XMLID_271_" class="st45" d="M614,590h-13.2c-0.9,0-1.7-0.7-1.7-1.7l0,0c0-0.9,0.7-1.7,1.7-1.7H614c0.9,0,1.7,0.7,1.7,1.7
		l0,0C615.7,589.3,615,590,614,590z"/>
</g>
<g id="Layer_2">
</g>
</svg>
