<svg xmlns="http://www.w3.org/2000/svg" xmlns:xlink="http://www.w3.org/1999/xlink" viewBox="0 0 1000 1000"><defs><linearGradient id="a" x1="505.007" y1="194.725" x2="505.007" y2="719.205" gradientUnits="userSpaceOnUse"><stop offset="0" stop-color="#fff"/><stop offset="0.093" stop-color="#fff" stop-opacity="0.864"/><stop offset="0.284" stop-color="#fff" stop-opacity="0.605"/><stop offset="0.466" stop-color="#fff" stop-opacity="0.389"/><stop offset="0.633" stop-color="#fff" stop-opacity="0.221"/><stop offset="0.784" stop-color="#fff" stop-opacity="0.1"/><stop offset="0.911" stop-color="#fff" stop-opacity="0.026"/><stop offset="1" stop-color="#fff" stop-opacity="0"/></linearGradient></defs><title>111-coding</title><g style="isolation:isolate"><rect width="1000" height="1000" style="fill:#1bb1b2"/><path d="M420.925,937.592a2.267,2.267,0,0,0,2.421-2.334,2.071,2.071,0,0,0-2.29-2.2,2.2,2.2,0,0,0-2.421,2.139v.064A2.277,2.277,0,0,0,420.925,937.592Z" style="fill:#e5e5e5"/><path d="M476.412,941.87c-.13-.778,1.178-.908,1.047-1.556-.131-.907-.916-.907-1.439-.843-2.945.325-3.534,1.3-3.795,3.176a4.023,4.023,0,0,0,1.308,2.917,21.625,21.625,0,0,1-.523,4.407.925.925,0,0,0-.524.583,56.18,56.18,0,0,1-1.766,6.287,3.239,3.239,0,0,0-.655,1.232v.324c-.654,1.231-1.374,2.138-2.224,2.138-.393,0-.524-1.037-.524-2.4,0-2.4,1.243-9.073,1.243-10.5,0-1.88.328-3.5.328-5.056,0-.648-.459-.842-1.047-.842-.458,0-.72.324-1.178.324-1.9,0-2.16,1.037-2.16,2.592,0,.649,0,9.852-.13,11.018-.131,1.945-1.244,4.343-3.337,4.343-1.9,0-2.814-2.593-2.814-5.38a31.409,31.409,0,0,1,.785-6.8c.2-.648,1.047-3.629,1.047-4.018,0-.713-.065-.907-.851-.907-3.01.064-3.6.324-4.056,1.944a36.319,36.319,0,0,0-.982,8.037v.842c-.72,2.2-1.5,4.667-3.533,4.8-1.375.065-1.833-3.37-1.833-6.935,0-7.064,2.029-13.934,2.291-21,.065-.648-.393-1.1-1.178-1.1a9.691,9.691,0,0,1-1.832.065c-.785,0-1.113.324-1.178,1.1-.654,7.065-2.094,15.685-2.094,22.555v.129c-.72,2.269-1.5,5.185-3.664,5.315-1.374.065-1.832-3.37-1.832-6.935,0-7.065,2.028-13.935,2.29-21,.065-.648-.393-1.1-1.178-1.1-1.047,0-1.374-.065-1.9-.065-.785,0-1.112.324-1.177,1.1-.655,7.065-2.094,15.685-2.094,22.555v.129c-.72,2.269-1.5,5.185-3.664,5.315-1.375.065-1.833-3.37-1.833-6.935,0-7.065,2.029-13.935,2.291-21,.065-.648-.393-1.1-1.178-1.1-1.113,0-1.44-.065-1.963-.065-.785,0-1.113.324-1.178,1.1-.654,7.065-2.094,15.685-2.094,22.555v1.037c-.654,2.268-1.636,4.731-2.879,4.731-.589-.065-1.047-.907-1.047-2.852,0-3.564.327-8.49.654-12.249.066-.454-.13-.908-.654-.908-.458-.064-1.9-.194-2.421-.194-.785,0-1.112.454-1.112,1.3v1.3c.065,4.343-.393,7.778-.393,11.861,0,2.917,1.57,4.926,3.533,4.926,2.094,0,3.73-1.75,4.843-3.824.588,2.2,1.7,4.148,3.926,4.148,2.093,0,4.122-2.269,5.5-4.8.523,2.463,1.636,4.8,4.057,4.8,2.094,0,4.122-2.269,5.5-4.8.524,2.463,1.636,4.8,4.057,4.8,2.029,0,4.057-2.2,5.431-4.6.72,2.917,2.356,5.12,5.431,5.12,2.552,0,3.272-1.037,4.908-3.37.523,1.3.719,3.759,2.224,3.759,2.094,0,3.861-2.4,5.039-5.12a8.291,8.291,0,0,0,6.543,3.629c3.533,0,6.543-2.527,6.282-6.351C484.722,950.36,477,944.786,476.412,941.87Zm.916,17.434c-1.046,0-2.682-.648-2.748-2.009-.065-.778,1.767-1.167,2.421-1.556.524-.324.655-.583.655-.777-.066-.454-.72-.778-1.44-.778a4.5,4.5,0,0,0-2.421.842c.2-.907,1.57-5.573,1.9-7.842a14.918,14.918,0,0,1,5.169,9.333C481.058,959.045,478.179,959.3,477.328,959.3Z" style="fill:#e5e5e5"/><path d="M535.957,937.592a2.267,2.267,0,0,0,2.421-2.334,2.071,2.071,0,0,0-2.29-2.2,2.2,2.2,0,0,0-2.421,2.139v.064A2.277,2.277,0,0,0,535.957,937.592Z" style="fill:#e5e5e5"/><path d="M573.777,963.128c-1.178-.778-2.028-2.009-1.832-7.065.131-3.24.785-7.712.785-10.888,0-1.426-.654-3.046-2.486-3.046-2.29,0-5.628,4.666-6.675,6.74.131-1.231.524-4.861.589-6.092s.066-1.3-2.094-1.3c-1.439,0-1.569.259-1.569.777,0,2.982-.263,6.417-.524,9.852-.786,1.685-1.833,3.37-3.338,3.37a3.006,3.006,0,0,1-1.308-.324,9.938,9.938,0,0,0,1.113-4.342,3.117,3.117,0,0,0-3.141-3.241,3.709,3.709,0,0,0-3.861,4.018c0,1.815,1.9,3.889,3.337,4.861a4.97,4.97,0,0,1-4.515,2.722c-2.813,0-3.8-5.12-3.8-7,0-3.63,1.309-7.713,5.627-7.713,2.945,0,2.945,1.944,4.188,1.944.131,0,.524-.194.524-.388,0-2.139-3.4-3.889-5.17-3.889-6.02,0-10.207,4.731-10.207,10.629a11.3,11.3,0,0,0,.589,3.565c-.589,1.49-1.309,2.657-2.225,2.657-.589,0-1.047-.843-1.047-2.787,0-3.565.327-8.49.654-12.249.066-.454-.131-.908-.654-.908-.458-.065-1.9-.194-2.421-.194-.785,0-1.113.453-1.113,1.3v1.3c0,2.269-.13,4.213-.2,6.157a1.432,1.432,0,0,0-.2.324c-.72,1.945-1.636,7.324-3.8,7.324-.655,0-2.029-.907-2.029-3.435,0-4.083,1.374-12.249,1.571-13.675,2.093-.454,3.926-.324,6.412-1.037,1.113-.324.458-1.62-.785-1.491a34.906,34.906,0,0,1-5.431,0c.065-2.139.589-3.5.589-5.7v-.2c0-.583-.262-1.037-.851-1.037-1.178,0-3.01.389-3.01,2.009,0,1.686-.326,3.176-.262,4.861-1.177.065-2.224-.259-3.4-.259-.85,0-1.047,1.556-1.047,2.139,0,.648.066,1.1.458,1.1a30.272,30.272,0,0,0,3.73-.324c-.327,4.277-.85,6.675-1.178,9.657,0,.194-.066.453-.066.713-.719,2.268-2.093,5.768-3.205,5.768A1.464,1.464,0,0,1,519.4,957.1,42.575,42.575,0,0,1,520.58,946.8a11.062,11.062,0,0,0,.654-2.527c0-.843-1.374-1.3-2.093-1.3-1.178,0-1.113.648-1.571,1.685-.851-.648-1.047-1.814-3.337-1.814-4.188,0-6.74,6.74-6.74,10.953,0,.713-.065,1.1-.065,1.491,0,2.4-1.374,5.379-2.814,5.379-1.243,0-1.636-3.37-1.636-4.8a31.6,31.6,0,0,1,1.7-8.426,6.148,6.148,0,0,0,.916-2.268c0-.907-1.047-2.4-2.094-2.4-1.178,0-1.9.648-3.141.648-1.963,0-3.272-1.231-4.384-1.231a1.026,1.026,0,0,0-1.113,1.1c0,1.75,1.9,1.426,1.44,3.63-.458,2.074-1.832,7.713-2.617,9.851a.48.48,0,0,0-.066.324,1.892,1.892,0,0,0,.132.649c-.459.777-.982,1.3-1.637,1.3s-2.028-.908-2.028-3.435c0-4.083,1.374-12.25,1.571-13.676,2.094-.453,3.925-.324,6.412-1.037,1.112-.324.458-1.62-.786-1.49a35.035,35.035,0,0,1-5.431,0c.066-2.139.589-3.5.589-5.7,0-.583-.261-1.037-.85-1.037-1.178,0-3.01.389-3.01,2.009,0,1.686-.327,3.176-.262,4.861-1.177.065-2.224-.259-3.4-.259-.851,0-1.047,1.556-1.047,2.139,0,.648.065,1.1.458,1.1a30.272,30.272,0,0,0,3.73-.324c-.327,4.277-.851,6.675-1.178,9.657a53.122,53.122,0,0,0-.458,5.573c0,2.787,2.42,5.056,4.449,5.056,3.6,0,6.543-7.259,6.543-10.24v-.389c.393-1.75.655-3.5.982-4.991.065-.194.262-.778.785-.778,1.178,0,1.309.843,1.309,1.75,0,2.4-.851,6.676-.851,9.2,0,2.462.654,5.509,3.534,5.509a6.357,6.357,0,0,0,5.5-3.63c.785,1.88,2.094,3.37,3.926,3.37,1.767,0,3.272-1.3,4.319-2.527.262.648.654,2.4,2.552,2.4,1.766,0,3.141-1.491,4.188-3.371a4.919,4.919,0,0,0,4.252,3.76c2.029,0,3.926-2.4,5.1-4.991.131,2.722,1.636,4.537,3.534,4.537,1.963,0,3.6-1.556,4.711-3.5a6.643,6.643,0,0,0,5.758,3.37c3.6,0,5.758-2.333,7.655-5.12a9.921,9.921,0,0,0,1.833.324,4.887,4.887,0,0,0,3.468-2.009c-.131,2.074-.262,4.083-.262,5.9,0,.648.131.907.589,1.037a5.742,5.742,0,0,0,1.832.065c.654,0,.785.065.916-.778.065-.583.458-7.518.458-8.037,0-1.426,3.468-7.453,5.169-7.453.328,0,.589.583.589.972,0,3.111-.981,8.166-.981,11.407,0,3.435,1.7,4.6,2.421,4.991a6.445,6.445,0,0,0,2.813.713C573.777,963.776,574.235,963.387,573.777,963.128Zm-57.45-6.611c-.066.907-1.7,3.241-2.945,3.241-1.374,0-1.963-3.889-1.9-6.481.065-3.047,1.57-8.491,3.01-8.491,1.9,0,2.159,4.537,2.159,5.963C516.654,952.369,516.458,954.9,516.327,956.517Zm37.559-2.139a4.186,4.186,0,0,1-1.374-3.111c0-.583.2-1.879,1.047-1.879.785,0,1.046,1.426,1.046,2.009A11.079,11.079,0,0,1,553.886,954.378Z" style="fill:#e5e5e5"/><path d="M588.826,955.48c-.327-5.12-8.114-10.694-8.637-13.611-.13-.777,1.178-.907,1.047-1.555-.13-.907-.916-.907-1.44-.843-2.944.324-3.533,1.3-3.794,3.176a4.027,4.027,0,0,0,1.308,2.917c.066,2.268-1.177,8.555-2.617,11.018a5.056,5.056,0,0,0-.851,1.491c-.131.777.458,1.166.982.648.458-.389.392-.648.85-.973,1.047,2.4,4.319,4.084,6.806,4.084C586.079,961.832,589.023,959.3,588.826,955.48Zm-7.72,3.824c-1.047,0-2.683-.648-2.749-2.009-.065-.778,1.767-1.167,2.421-1.556.523-.324.655-.583.655-.777-.066-.454-.721-.778-1.44-.778a4.5,4.5,0,0,0-2.421.842c.2-.907,1.571-5.574,1.9-7.842a14.907,14.907,0,0,1,5.168,9.333C584.835,959.045,581.956,959.3,581.106,959.3Z" style="fill:#e5e5e5"/><path d="M63.2,959.2c0,2.5-1.2,3.7-2.6,3.7a1.928,1.928,0,0,1-2.1-1.4,2.2,2.2,0,0,1-1.8.8,2.808,2.808,0,0,1,0-5.6,2.175,2.175,0,0,1,1.6.7v-.5h1.6v3.9c0,.8.3,1.4,1,1.4.9,0,1.7-.9,1.7-3a5.233,5.233,0,0,0-5.4-5.3,5.552,5.552,0,0,0-5.6,5.7,5.624,5.624,0,0,0,5.9,5.7,11.935,11.935,0,0,0,2.9-.4v.6a8.119,8.119,0,0,1-2.9.4,6.2,6.2,0,1,1-.3-12.4A5.593,5.593,0,0,1,63.2,959.2Zm-4.9.3a1.347,1.347,0,0,0-1.3-1.4,1.238,1.238,0,0,0-1.3,1.4,1.261,1.261,0,0,0,1.3,1.3C57.8,960.9,58.3,960.3,58.3,959.5Z" style="fill:#e5e5e5"/><path d="M69.4,955.1v2a2.244,2.244,0,0,0-2.6,2.4v4.3H64.9v-8.6h1.9v1.4A2.632,2.632,0,0,1,69.4,955.1Z" style="fill:#e5e5e5"/><path d="M74.6,962.3a2.641,2.641,0,0,0,2.2-1.1l1.5.9a4.346,4.346,0,0,1-3.8,1.9,4.414,4.414,0,0,1-4.7-4.5,4.36,4.36,0,0,1,4.5-4.5,4.313,4.313,0,0,1,4.3,4.5,2.2,2.2,0,0,1-.1.8H71.7A2.832,2.832,0,0,0,74.6,962.3Zm2.3-3.5a2.375,2.375,0,0,0-2.5-2.1,2.506,2.506,0,0,0-2.6,2.1Z" style="fill:#e5e5e5"/><path d="M88.9,955.2v8.6H87v-1.2a3.692,3.692,0,0,1-3,1.5,4.443,4.443,0,0,1-4.3-4.5,4.317,4.317,0,0,1,4.3-4.5,3.613,3.613,0,0,1,3,1.4v-1.2h1.9Zm-1.8,4.3a2.7,2.7,0,1,0-2.7,2.7A2.571,2.571,0,0,0,87.1,959.5Z" style="fill:#e5e5e5"/><path d="M91.1,951.3H93v12.5H91.1Z" style="fill:#e5e5e5"/><path d="M102.9,955.2l-3.3,8.6H97.5l-3.3-8.6h2l2.4,6.5,2.4-6.5Z" style="fill:#e5e5e5"/><path d="M104.2,955.2h1.9v8.9c0,2.4-1.2,3.5-3.5,3.3v-1.8c1.1.1,1.7-.3,1.7-1.5v-8.9Zm-.2-2.4a1.2,1.2,0,0,1,2.4,0,1.2,1.2,0,1,1-2.4,0Z" style="fill:#e5e5e5"/><path d="M116,955.2l-3.3,8.8c-.8,2.2-2.2,3.3-4.2,3.2v-1.7a2.076,2.076,0,0,0,2.3-1.7l.1-.2-3.6-8.4h2l2.6,6.2,2.2-6.2Z" style="fill:#e5e5e5"/><path d="M58.9,938.7a3.633,3.633,0,0,1-3.6,3.8h-3v-7.6h3A3.633,3.633,0,0,1,58.9,938.7Zm-1,0a2.722,2.722,0,0,0-2.6-2.9h-2v5.7h2A2.577,2.577,0,0,0,57.9,938.7Z" style="fill:#e5e5e5"/><path d="M67,941.6v1H62.4V935h4.5v1H63.4v2.3h3.2v.9H63.4v2.4Z" style="fill:#e5e5e5"/><path d="M70,940.8l.9-.5a1.987,1.987,0,0,0,2,1.4c1.1,0,1.6-.5,1.6-1.2,0-.8-.7-1-1.8-1.4-1.2-.4-2.4-.8-2.4-2.2a2.208,2.208,0,0,1,2.4-2.2,2.664,2.664,0,0,1,2.6,1.7l-.8.5a1.743,1.743,0,0,0-1.7-1.2c-.8,0-1.4.4-1.4,1.1s.5,1,1.6,1.3c1.3.4,2.6.8,2.6,2.3a2.333,2.333,0,0,1-2.6,2.2A2.847,2.847,0,0,1,70,940.8Z" style="fill:#e5e5e5"/><path d="M80,934.9v7.6H79v-7.6Z" style="fill:#e5e5e5"/><path d="M91.3,939.2a3.47,3.47,0,0,1-3.7,3.5,3.888,3.888,0,0,1-4-4,3.974,3.974,0,0,1,7.3-2.2l-.9.5a2.775,2.775,0,0,0-2.4-1.4,3,3,0,0,0,0,6,2.5,2.5,0,0,0,2.7-2H87.5v-.9h3.8Z" style="fill:#e5e5e5"/><path d="M100.6,934.9v7.6h-.8l-3.9-5.7v5.7h-1v-7.6h.8l3.9,5.7v-5.7Z" style="fill:#e5e5e5"/><path d="M109.1,941.6v1h-4.6V935H109v1h-3.5v2.3h3.2v.9h-3.2v2.4Z" style="fill:#e5e5e5"/><path d="M119.2,938.7a3.633,3.633,0,0,1-3.6,3.8h-3v-7.6h3A3.7,3.7,0,0,1,119.2,938.7Zm-1,0a2.722,2.722,0,0,0-2.6-2.9h-2v5.7h2A2.577,2.577,0,0,0,118.2,938.7Z" style="fill:#e5e5e5"/><path d="M133.2,940.4a2.22,2.22,0,0,1-2.2,2.2h-3.3V935h3a2.051,2.051,0,0,1,2.1,2.1,1.943,1.943,0,0,1-.8,1.6A1.658,1.658,0,0,1,133.2,940.4Zm-4.5-4.6v2.3h2a1.135,1.135,0,0,0,1.1-1.2,1.2,1.2,0,0,0-1.1-1.2h-2Zm3.5,4.5a1.155,1.155,0,0,0-1.2-1.2h-2.3v2.5H131A1.24,1.24,0,0,0,132.2,940.3Z" style="fill:#e5e5e5"/><path d="M139.4,939.4v3.1h-1v-3.1l-2.7-4.5h1.1l2.1,3.6,2.1-3.6h1.1Z" style="fill:#e5e5e5"/><path d="M210.957,934.972v7.7h-.825l-3.96-5.754v5.754h-1.024v-7.7h.826l3.96,5.743v-5.743Z" style="fill:#e5e5e5"/><path d="M219.405,941.705v.968h-4.6v-7.7h4.544v.967H215.83v2.367h3.245v.957H215.83v2.442Z" style="fill:#e5e5e5"/><path d="M222.287,934.972h1.078l1.76,6.337,1.87-6.337h1.034l1.87,6.337,1.761-6.337h1.078l-2.211,7.7h-1.188l-1.826-6.15-1.826,6.15H224.5Z" style="fill:#e5e5e5"/><path d="M243.22,934.972v7.7h-1.013v-6.6l-1.639.484-.253-.88,2.025-.7Z" style="fill:#e5e5e5"/><path d="M249.336,934.972v7.7h-1.013v-6.6l-1.638.484-.253-.88,2.024-.7Z" style="fill:#e5e5e5"/><path d="M255.452,934.972v7.7h-1.013v-6.6l-1.638.484-.253-.88,2.024-.7Z" style="fill:#e5e5e5"/><path d="M205.074,957.407a6.3,6.3,0,0,1,6.465-6.465,6.2,6.2,0,0,1,5.347,2.931l-2.114,1.226a3.588,3.588,0,0,0-3.233-1.777,4.077,4.077,0,0,0,0,8.153,3.591,3.591,0,0,0,3.233-1.758l2.114,1.225a6.15,6.15,0,0,1-5.347,2.931A6.313,6.313,0,0,1,205.074,957.407Z" style="fill:#e5e5e5"/><path d="M217.875,959.184a4.7,4.7,0,1,1,4.689,4.689A4.64,4.64,0,0,1,217.875,959.184Zm7.1,0a2.407,2.407,0,1,0-2.415,2.451A2.361,2.361,0,0,0,224.979,959.184Z" style="fill:#e5e5e5"/><path d="M237.905,951.191v12.433h-2.291v-1.048a3.447,3.447,0,0,1-2.877,1.3,4.7,4.7,0,0,1,0-9.378,3.452,3.452,0,0,1,2.877,1.3v-4.6Zm-2.291,7.993a2.46,2.46,0,1,0-2.451,2.5A2.383,2.383,0,0,0,235.614,959.184Z" style="fill:#e5e5e5"/><path d="M239.73,952.274a1.413,1.413,0,1,1,1.4,1.4A1.419,1.419,0,0,1,239.73,952.274Zm.267,2.469h2.291v8.881H240Z" style="fill:#e5e5e5"/><path d="M252.677,958.171v5.453h-2.292v-5.169a1.653,1.653,0,0,0-1.758-1.829c-1.119,0-1.954.657-1.954,2.2v4.8h-2.291v-8.881h2.291v1a3.018,3.018,0,0,1,2.646-1.243C251.2,954.5,252.677,955.809,252.677,958.171Z" style="fill:#e5e5e5"/><path d="M263.667,954.743V963.2c0,2.913-2.292,4.228-4.636,4.228a4.5,4.5,0,0,1-4.21-2.167l1.954-1.119a2.308,2.308,0,0,0,2.327,1.244,2.068,2.068,0,0,0,2.327-2.186v-.959a3.394,3.394,0,0,1-2.842,1.351,4.549,4.549,0,0,1,0-9.094,3.394,3.394,0,0,1,2.842,1.35v-1.1Zm-2.238,4.3a2.488,2.488,0,1,0-2.487,2.433A2.371,2.371,0,0,0,261.429,959.042Z" style="fill:#e5e5e5"/><path d="M848.133,938.45a3.648,3.648,0,0,1-3.617,3.813h-2.973v-7.626h2.973A3.648,3.648,0,0,1,848.133,938.45Zm-.969,0a2.669,2.669,0,0,0-2.648-2.855h-1.961V941.3h1.961A2.669,2.669,0,0,0,847.164,938.45Z" style="fill:#e5e5e5"/><path d="M851.254,938.45a3.949,3.949,0,1,1,3.943,3.955A3.917,3.917,0,0,1,851.254,938.45Zm6.887,0a2.943,2.943,0,1,0-2.944,2.964A2.911,2.911,0,0,0,858.141,938.45Z" style="fill:#e5e5e5"/><path d="M861.783,934.637h1.069l1.742,6.276,1.853-6.276h1.024l1.851,6.276,1.744-6.276h1.067l-2.19,7.626h-1.175l-1.809-6.09-1.809,6.09h-1.177Z" style="fill:#e5e5e5"/><path d="M881.27,934.637v7.626h-.819l-3.922-5.7v5.7h-1.011v-7.626h.816l3.922,5.687v-5.687Z" style="fill:#e5e5e5"/><path d="M889.5,941.3v.959h-4.3v-7.626h1.014V941.3Z" style="fill:#e5e5e5"/><path d="M891.877,938.45a3.949,3.949,0,1,1,3.943,3.955A3.917,3.917,0,0,1,891.877,938.45Zm6.887,0a2.943,2.943,0,1,0-2.944,2.964A2.911,2.911,0,0,0,898.764,938.45Z" style="fill:#e5e5e5"/><path d="M907.418,940.552h-3.432l-.621,1.711h-1.078l2.844-7.626h1.142l2.844,7.626h-1.078Zm-.348-.947-1.373-3.759-1.361,3.759Z" style="fill:#e5e5e5"/><path d="M918.906,938.45a3.647,3.647,0,0,1-3.617,3.813h-2.975v-7.626h2.975A3.647,3.647,0,0,1,918.906,938.45Zm-.97,0a2.67,2.67,0,0,0-2.647-2.855h-1.961V941.3h1.961A2.669,2.669,0,0,0,917.936,938.45Z" style="fill:#e5e5e5"/><path d="M928.457,935.6v2.474h3.236v.959h-3.236v3.235h-1.014v-7.626h4.391v.958Z" style="fill:#e5e5e5"/><path d="M938.168,939.343h-1.8v2.92h-1.012v-7.626h3.049a2.353,2.353,0,0,1,.8,4.575l1.8,3.051h-1.121Zm-1.8-.915h2.037a1.423,1.423,0,0,0,0-2.843h-2.037Z" style="fill:#e5e5e5"/><path d="M943.869,938.45a3.95,3.95,0,1,1,3.943,3.955A3.918,3.918,0,0,1,943.869,938.45Zm6.887,0a2.943,2.943,0,1,0-2.944,2.964A2.911,2.911,0,0,0,950.756,938.45Z" style="fill:#e5e5e5"/><path d="M962.418,942.263h-1V936.3l-2.5,4.151h-.131l-2.494-4.14v5.948h-1.014v-7.626h1.145l2.429,4.031,2.418-4.031h1.145Z" style="fill:#e5e5e5"/><path d="M841.318,952.65a1.221,1.221,0,1,1,1.221,1.222A1.224,1.224,0,0,1,841.318,952.65Zm.266,2.549H843.5v8.85h-1.911Z" style="fill:#e5e5e5"/><path d="M845.709,951.128h1.912v12.921h-1.912Z" style="fill:#e5e5e5"/><path d="M849.834,951.128h1.912v12.921h-1.912Z" style="fill:#e5e5e5"/><path d="M853.96,951.128h1.911v12.921H853.96Z" style="fill:#e5e5e5"/><path d="M865.963,955.2v8.85h-1.912v-1.132a3.048,3.048,0,0,1-2.744,1.363,3.305,3.305,0,0,1-3.4-3.647V955.2h1.912v5.24a1.845,1.845,0,0,0,1.983,2.053c1.257,0,2.248-.743,2.248-2.549V955.2Z" style="fill:#e5e5e5"/><path d="M874.621,961.553c0,1.771-1.539,2.727-3.451,2.727a3.694,3.694,0,0,1-3.611-2.071l1.646-.956a1.945,1.945,0,0,0,1.965,1.274c.85,0,1.5-.283,1.5-.991,0-1.575-4.761-.691-4.761-3.859,0-1.664,1.434-2.708,3.238-2.708a3.566,3.566,0,0,1,3.276,1.841l-1.612.9a1.723,1.723,0,0,0-1.664-1.008c-.689,0-1.292.3-1.292.938C869.86,959.253,874.621,958.279,874.621,961.553Z" style="fill:#e5e5e5"/><path d="M878.7,957.041v4.248c0,1.132.744,1.114,2.2,1.044v1.716c-2.938.355-4.106-.46-4.106-2.76v-4.248h-1.629V955.2h1.629v-1.911l1.91-.567V955.2h2.2v1.842Z" style="fill:#e5e5e5"/><path d="M887.354,955.04v2.071a2.337,2.337,0,0,0-2.725,2.478v4.46h-1.912V955.2h1.912v1.487A2.782,2.782,0,0,1,887.354,955.04Z" style="fill:#e5e5e5"/><path d="M897.286,955.2v8.85h-1.911v-1.274a3.639,3.639,0,0,1-3.1,1.5,4.662,4.662,0,0,1,0-9.311,3.672,3.672,0,0,1,3.1,1.487V955.2Zm-1.911,4.426a2.8,2.8,0,1,0-2.8,2.832A2.735,2.735,0,0,0,895.375,959.625Z" style="fill:#e5e5e5"/><path d="M902.264,957.041v4.248c0,1.132.744,1.114,2.195,1.044v1.716c-2.938.355-4.1-.46-4.1-2.76v-4.248h-1.629V955.2h1.629v-1.911l1.91-.567V955.2h2.195v1.842Z" style="fill:#e5e5e5"/><path d="M905.931,952.65a1.221,1.221,0,0,1,2.442,0,1.221,1.221,0,1,1-2.442,0Zm.265,2.549h1.911v8.85H906.2Z" style="fill:#e5e5e5"/><path d="M909.826,959.625a4.673,4.673,0,1,1,4.674,4.655A4.621,4.621,0,0,1,909.826,959.625Zm7.435,0a2.762,2.762,0,1,0-2.761,2.8A2.718,2.718,0,0,0,917.261,959.625Z" style="fill:#e5e5e5"/><path d="M928.965,958.616v5.433h-1.912V958.81a1.845,1.845,0,0,0-1.983-2.053c-1.257,0-2.248.744-2.248,2.549v4.743H920.91V955.2h1.912v1.133a3.047,3.047,0,0,1,2.744-1.363A3.3,3.3,0,0,1,928.965,958.616Z" style="fill:#e5e5e5"/><path d="M937.5,961.553c0,1.771-1.541,2.727-3.451,2.727a3.692,3.692,0,0,1-3.611-2.071l1.646-.956a1.943,1.943,0,0,0,1.965,1.274c.849,0,1.5-.283,1.5-.991,0-1.575-4.762-.691-4.762-3.859,0-1.664,1.434-2.708,3.239-2.708a3.563,3.563,0,0,1,3.275,1.841l-1.611.9a1.725,1.725,0,0,0-1.664-1.008c-.69,0-1.292.3-1.292.938C932.738,959.253,937.5,958.279,937.5,961.553Z" style="fill:#e5e5e5"/><path d="M938.83,962.934a1.328,1.328,0,0,1,2.656,0,1.328,1.328,0,0,1-2.656,0Z" style="fill:#e5e5e5"/><path d="M942.319,959.625a4.567,4.567,0,0,1,4.673-4.656,4.373,4.373,0,0,1,3.947,2.284l-1.646.956a2.473,2.473,0,0,0-2.318-1.364,2.779,2.779,0,0,0,0,5.558,2.6,2.6,0,0,0,2.353-1.362l1.647.937a4.451,4.451,0,0,1-3.983,2.3A4.577,4.577,0,0,1,942.319,959.625Z" style="fill:#e5e5e5"/><path d="M951.722,959.625a4.673,4.673,0,1,1,4.673,4.655A4.62,4.62,0,0,1,951.722,959.625Zm7.434,0a2.762,2.762,0,1,0-2.761,2.8A2.718,2.718,0,0,0,959.156,959.625Z" style="fill:#e5e5e5"/><polygon points="813.971 701.562 196.043 701.562 427.014 201.676 583 201.676 813.971 701.562" style="opacity:0.43;mix-blend-mode:overlay;fill:url(#a)"/><path d="M744.124,546.4" style="fill:none;stroke:#212728;stroke-linecap:round;stroke-linejoin:round;stroke-width:6px"/><path d="M758.34,513.448" style="fill:none;stroke:#212728;stroke-linecap:round;stroke-linejoin:round;stroke-width:6px"/><polyline points="182.562 561.774 190.394 524.448 231.562 515.115" style="fill:none;stroke:#283035;stroke-linecap:round;stroke-linejoin:round;stroke-width:8px"/><path d="M310.7,435.853H648.478a17.113,17.113,0,0,1,17.113,17.113V675.853a0,0,0,0,1,0,0h-372a0,0,0,0,1,0,0V452.965A17.113,17.113,0,0,1,310.7,435.853Z" style="fill:#d2dce6"/><path d="M310.7,435.853H648.478a17.113,17.113,0,0,1,17.113,17.113V675.853a0,0,0,0,1,0,0h-372a0,0,0,0,1,0,0V452.965A17.113,17.113,0,0,1,310.7,435.853Z" style="fill:none;stroke:#283035;stroke-linecap:round;stroke-linejoin:round;stroke-width:6px"/><rect x="387.591" y="398.136" width="184" height="316" transform="translate(1035.727 76.545) rotate(90)" style="fill:#ff5c5c"/><line x1="505.007" y1="618.781" x2="557.007" y2="618.781" style="fill:#fff;stroke:#fff;stroke-linecap:round;stroke-linejoin:round;stroke-width:6px;opacity:0.30000000000000004"/><g style="opacity:0.30000000000000004"><path d="M631.78,561.585a4.464,4.464,0,0,1,4.547,3.143V553.273a12.25,12.25,0,0,0-3.38-.492H631.78q-3.774,0-3.773,3.773V557.9C628.007,560.327,629.264,561.585,631.78,561.585Z" style="fill:#fff"/><path d="M636.327,616.494a4.472,4.472,0,0,1-4.547,3.12q-3.774,0-3.773,3.772v1.348q0,3.772,3.773,3.773h1.167a12.25,12.25,0,0,0,3.38-.492Z" style="fill:#fff"/></g><rect x="387.591" y="398.136" width="184" height="316" transform="translate(1035.727 76.545) rotate(90)" style="fill:none;stroke:#283035;stroke-linecap:round;stroke-linejoin:round;stroke-width:6px"/><path d="M252.543,676h454.1a4,4,0,0,1,4,4v4.791a20,20,0,0,1-20,20h-422.1a20,20,0,0,1-20-20V680A4,4,0,0,1,252.543,676Z" style="fill:#e5e5e5"/><path d="M690.639,695.787h-422.1A19.986,19.986,0,0,1,248.778,678.7a3.957,3.957,0,0,0-.235,1.3v4.791a20,20,0,0,0,20,20h422.1a20,20,0,0,0,20-20V680a3.957,3.957,0,0,0-.235-1.3A19.986,19.986,0,0,1,690.639,695.787Z" style="fill:#cfd1d0"/><path d="M252.543,676h454.1a4,4,0,0,1,4,4v4.791a20,20,0,0,1-20,20h-422.1a20,20,0,0,1-20-20V680A4,4,0,0,1,252.543,676Z" style="fill:none;stroke:#283035;stroke-linecap:round;stroke-linejoin:round;stroke-width:6px"/><path d="M437.591,675.853h84a0,0,0,0,1,0,0v0a8,8,0,0,1-8,8h-68a8,8,0,0,1-8-8v0a0,0,0,0,1,0,0Z" style="fill:#686b6d"/><path d="M437.591,675.853h84a0,0,0,0,1,0,0v0a8,8,0,0,1-8,8h-68a8,8,0,0,1-8-8v0a0,0,0,0,1,0,0Z" style="fill:none;stroke:#283035;stroke-linecap:round;stroke-linejoin:round;stroke-width:4px"/><circle cx="478.804" cy="449.619" r="8" style="fill:#686b6d"/><circle cx="478.804" cy="449.619" r="8" style="fill:none;stroke:#283035;stroke-linecap:round;stroke-linejoin:round;stroke-width:4px"/><path d="M153.455,704.787h49.1a7,7,0,0,0,6.944-6.115l13.115-102.9H133.4l13.116,102.9A7,7,0,0,0,153.455,704.787Z" style="fill:#ead57d"/><path d="M147.048,595.774l10.406,95.034a7.983,7.983,0,0,0,7.935,7.114H209.6l-.095.75a7,7,0,0,1-6.944,6.115h-49.1a7,7,0,0,1-6.943-6.115L133.4,595.774Z" style="fill:#e5c66e"/><path d="M153.455,704.787h49.1a7,7,0,0,0,6.944-6.115l13.115-102.9H133.4l13.116,102.9A7,7,0,0,0,153.455,704.787Z" style="fill:none;stroke:#283035;stroke-linecap:round;stroke-linejoin:round;stroke-width:6px"/><polygon points="219.25 675.164 225.593 625.397 130.42 625.397 136.763 675.164 219.25 675.164" style="fill:#5cbf84"/><polygon points="219.25 675.164 225.593 625.397 130.42 625.397 136.763 675.164 219.25 675.164" style="fill:#4fb277"/><path d="M218.856,669.414l5.319-44.017H144.367l4.9,40.524a3.97,3.97,0,0,0,3.941,3.493Z" style="fill:#5cbf84"/><polygon points="219.25 675.164 225.593 625.397 130.42 625.397 136.763 675.164 219.25 675.164" style="fill:none;stroke:#283035;stroke-linecap:round;stroke-linejoin:round;stroke-width:6px"/><rect x="116.667" y="573.774" width="122.678" height="22" rx="11" transform="translate(356.013 1169.547) rotate(180)" style="fill:#5cbf84"/><rect x="116.667" y="573.774" width="122.678" height="22" rx="11" transform="translate(356.013 1169.547) rotate(180)" style="fill:#4fb277"/><rect x="130.42" y="573.774" width="108.926" height="17.25" rx="8.625" transform="translate(369.765 1164.797) rotate(-180)" style="fill:#5cbf84"/><rect x="116.667" y="573.774" width="122.678" height="22" rx="11" transform="translate(356.013 1169.547) rotate(180)" style="fill:none;stroke:#283035;stroke-linecap:round;stroke-linejoin:round;stroke-width:6px"/><polygon points="138.006 573.774 218.006 573.774 216.423 561.774 139.59 561.774 138.006 573.774" style="fill:#5cbf84"/><polygon points="139.59 561.774 163.062 561.774 157.506 573.774 138.006 573.774 139.59 561.774" style="fill:#54af79"/><polygon points="138.006 573.774 218.006 573.774 216.423 561.774 139.59 561.774 138.006 573.774" style="fill:none;stroke:#283035;stroke-linecap:round;stroke-linejoin:round;stroke-width:6px"/><path d="M252.926,700.963" style="fill:none;stroke:#212728;stroke-linecap:round;stroke-linejoin:round;stroke-width:6px"/><path d="M721.134,704.886a28.99,28.99,0,0,1,57.979,0Z" style="fill:#e5e5e5"/><path d="M750.124,695.729a29.046,29.046,0,0,0,21.976-9.736,28.967,28.967,0,0,0-43.953,0A29.047,29.047,0,0,0,750.124,695.729Z" style="fill:#cfd1d0"/><path d="M721.134,704.886a28.99,28.99,0,0,1,57.979,0Z" style="fill:none;stroke:#283035;stroke-linecap:round;stroke-linejoin:round;stroke-width:6px"/><rect x="367.007" y="499.781" width="168" height="134" rx="8.008" style="opacity:0.14;mix-blend-mode:multiply"/><rect x="359.174" y="492.781" width="168" height="134" rx="8.008" style="fill:#353f49"/><rect x="359.174" y="492.781" width="168" height="134" rx="8.008" style="fill:none;stroke:#283035;stroke-linecap:round;stroke-linejoin:round;stroke-width:4px"/><path d="M367.181,492.781H519.166a8.008,8.008,0,0,1,8.008,8.008v11.992a0,0,0,0,1,0,0h-168a0,0,0,0,1,0,0V500.789A8.008,8.008,0,0,1,367.181,492.781Z" style="fill:#eaeeef"/><path d="M367.181,492.781H519.166a8.008,8.008,0,0,1,8.008,8.008v11.992a0,0,0,0,1,0,0h-168a0,0,0,0,1,0,0V500.789A8.008,8.008,0,0,1,367.181,492.781Z" style="fill:none;stroke:#283035;stroke-linecap:round;stroke-linejoin:round;stroke-width:4px"/><circle cx="373.507" cy="502.781" r="3.125" style="fill:#283035;opacity:0.35000000000000003"/><circle cx="383.34" cy="502.781" r="3.125" style="fill:#283035;opacity:0.35000000000000003"/><circle cx="392.674" cy="502.781" r="3.125" style="fill:#283035;opacity:0.35000000000000003"/><line x1="367.007" y1="519.781" x2="378.007" y2="519.781" style="fill:none;stroke:#46bb86;stroke-miterlimit:10;stroke-width:3px"/><line x1="382.007" y1="519.781" x2="412.007" y2="519.781" style="fill:none;stroke:#46bb86;stroke-miterlimit:10;stroke-width:3px"/><line x1="367.007" y1="527.781" x2="412.007" y2="527.781" style="fill:none;stroke:#389abe;stroke-miterlimit:10;stroke-width:3px"/><line x1="376.007" y1="535.781" x2="398.007" y2="535.781" style="fill:none;stroke:#e5c689;stroke-miterlimit:10;stroke-width:3px"/><line x1="402.007" y1="535.781" x2="426.007" y2="535.781" style="fill:none;stroke:#f2f3f4;stroke-miterlimit:10;stroke-width:3px"/><line x1="388.007" y1="543.781" x2="434.007" y2="543.781" style="fill:none;stroke:#f2f3f4;stroke-miterlimit:10;stroke-width:3px"/><line x1="388.007" y1="551.781" x2="422.007" y2="551.781" style="fill:none;stroke:#ffa49f;stroke-miterlimit:10;stroke-width:3px"/><line x1="376.007" y1="559.781" x2="426.007" y2="559.781" style="fill:none;stroke:#f2f3f4;stroke-miterlimit:10;stroke-width:3px"/><line x1="367.007" y1="566.781" x2="394.007" y2="566.781" style="fill:none;stroke:#389abe;stroke-miterlimit:10;stroke-width:3px"/><g style="opacity:0.30000000000000004"><path d="M599.643,605.522c0-3.952-1.528-6.736-4.582-8.443-2.156-1.168-3.054-2.067-3.054-4.132v-3.5c0-2.425,1.078-2.964,2.964-4.222,3.144-1.347,4.672-4.221,4.672-8.533v-7.636c0-6.108,2.245-10.6,5.479-12.486a15.02,15.02,0,0,1,8.264-2.785h1.168q3.772,0,3.773,3.773V558.9c0,2.425-1.258,3.683-3.773,3.683-3.5,0-5.21,2.515-5.21,7.635v9.432a11.959,11.959,0,0,1-6.557,11.139l-.809.269v.18a7.017,7.017,0,0,1,2.515,1.348c2.246,1.346,4.851,4.491,4.851,9.97v10.51c0,5.03,1.707,7.546,5.21,7.546q3.772,0,3.773,3.772v1.348q0,3.772-3.773,3.773h-1.168a15.02,15.02,0,0,1-8.264-2.785c-3.234-1.886-5.479-6.467-5.479-12.486Z" style="fill:#fff"/></g><path d="M161.665,650.076" style="fill:none;stroke:#212728;stroke-linecap:round;stroke-miterlimit:10"/><path d="M148.923,653.683l2-1.946a42.611,42.611,0,0,0,53.664,0l2.5,2.444" style="fill:none;stroke:#283035;stroke-linecap:round;stroke-linejoin:round;stroke-width:3px"/><path d="M171.624,643.6a4.281,4.281,0,0,0-4.281-4.281h0a4.281,4.281,0,0,0-4.281,4.281v3.921" style="fill:none;stroke:#283035;stroke-linecap:round;stroke-linejoin:round;stroke-width:3px"/><path d="M184.388,643.6a4.281,4.281,0,0,1,4.281-4.281h0a4.281,4.281,0,0,1,4.281,4.281v3.921" style="fill:none;stroke:#283035;stroke-linecap:round;stroke-linejoin:round;stroke-width:3px"/><rect x="793.741" y="574.886" width="96" height="130" rx="9.1" style="fill:#e5e5e5"/><path d="M880.641,574.886h-1.153a9.091,9.091,0,0,1,.253,2.1v111.8a9.1,9.1,0,0,1-9.1,9.1H794a9.1,9.1,0,0,0,8.847,7h77.8a9.1,9.1,0,0,0,9.1-9.1v-111.8A9.1,9.1,0,0,0,880.641,574.886Z" style="fill:#cfd1d0"/><rect x="793.741" y="574.886" width="96" height="130" rx="9.1" style="fill:none;stroke:#283035;stroke-linecap:round;stroke-linejoin:round;stroke-width:6px"/><path d="M857.741,567.342h-8v-3a8,8,0,0,0-16,0v3h-8a8,8,0,0,0,0,16h32a8,8,0,0,0,0-16Z" style="fill:#f7b66f"/><path d="M861.458,568.262a7.974,7.974,0,0,1-7.717,10.08h-32a7.958,7.958,0,0,1-3.717-.919,8,8,0,0,0,7.717,5.919h32a8,8,0,0,0,3.717-15.08Z" style="fill:#eda762"/><path d="M845.741,559.342v3h3.738a8,8,0,0,0-4.021-5.08A7.971,7.971,0,0,1,845.741,559.342Z" style="fill:#eda762"/><path d="M857.741,567.342h-8v-3a8,8,0,0,0-16,0v3h-8a8,8,0,0,0,0,16h32a8,8,0,0,0,0-16Z" style="fill:none;stroke:#283035;stroke-linecap:round;stroke-linejoin:round;stroke-width:6px"/><circle cx="841.741" cy="604.009" r="8.333" style="fill:#8eafbf"/><circle cx="841.741" cy="604.009" r="8.333" style="fill:none;stroke:#283035;stroke-linecap:round;stroke-linejoin:round;stroke-width:6px"/><line x1="809.964" y1="629.676" x2="829.964" y2="629.676" style="fill:none;stroke:#283035;stroke-linecap:round;stroke-linejoin:round;stroke-width:6px"/><line x1="809.964" y1="656.842" x2="829.964" y2="656.842" style="fill:none;stroke:#283035;stroke-linecap:round;stroke-linejoin:round;stroke-width:6px"/><line x1="809.964" y1="684.009" x2="829.964" y2="684.009" style="fill:none;stroke:#283035;stroke-linecap:round;stroke-linejoin:round;stroke-width:6px"/><polyline points="843.178 628.606 848.392 635.541 863.996 623.811" style="fill:none;stroke:#8bafc1;stroke-linecap:round;stroke-linejoin:round;stroke-width:4px"/><polyline points="843.178 655.772 848.392 662.708 863.996 650.977" style="fill:none;stroke:#8bafc1;stroke-linecap:round;stroke-linejoin:round;stroke-width:4px"/><rect x="894.104" y="630.914" width="10" height="64" transform="translate(-82.787 130.247) rotate(-7.922)" style="fill:#3bbc88"/><rect x="894.104" y="630.914" width="10" height="64" transform="translate(-82.787 130.247) rotate(-7.922)" style="fill:none;stroke:#283035;stroke-linecap:round;stroke-linejoin:round;stroke-width:4px"/><polygon points="908.467 693.92 898.562 695.298 904.893 704.513 908.467 693.92" style="fill:#e5e5e5"/><polygon points="908.467 693.92 898.562 695.298 904.893 704.513 908.467 693.92" style="fill:none;stroke:#283035;stroke-linecap:round;stroke-linejoin:round;stroke-width:4px"/><rect x="891.005" y="621.267" width="6" height="10" transform="matrix(0.99, -0.138, 0.138, 0.99, -77.784, 129.195)" style="fill:#e5e5e5"/><rect x="891.005" y="621.267" width="6" height="10" transform="matrix(0.99, -0.138, 0.138, 0.99, -77.784, 129.195)" style="fill:none;stroke:#283035;stroke-linecap:round;stroke-linejoin:round;stroke-width:4px"/><path d="M908.6,655.545a18.786,18.786,0,0,1-2.347-5.984c-1.105-5.433,1.623-8.539.148-11.631-.588-1.233-.873-2.917-5.29-3.555" style="fill:none;stroke:#283035;stroke-linecap:round;stroke-linejoin:round;stroke-width:4px"/><line x1="920.75" y1="704.886" x2="946.5" y2="704.886" style="fill:none;stroke:#283035;stroke-linecap:round;stroke-linejoin:round;stroke-width:6px"/><line x1="234.333" y1="704.886" x2="909.5" y2="704.886" style="fill:none;stroke:#283035;stroke-linecap:round;stroke-linejoin:round;stroke-width:6px"/><line x1="114.75" y1="704.886" x2="222.616" y2="704.886" style="fill:none;stroke:#283035;stroke-linecap:round;stroke-linejoin:round;stroke-width:6px"/><line x1="80.333" y1="704.886" x2="103.5" y2="704.886" style="fill:none;stroke:#283035;stroke-linecap:round;stroke-linejoin:round;stroke-width:6px"/><circle cx="505.007" cy="203.582" r="24" style="fill:#fff"/><path d="M436.111,209a8.632,8.632,0,0,1-8.538-9.692C432.238,159.7,465.127,129,505.007,129s72.769,30.7,77.433,70.308A8.631,8.631,0,0,1,573.9,209Z" style="fill:#f7b66f"/><path d="M517.007,129.944h0c-.258-.041-.519-.07-.778-.108-.909-.134-1.823-.255-2.742-.357-.418-.047-.837-.085-1.257-.125-.762-.072-1.525-.137-2.289-.181-.444-.026-.885-.059-1.33-.08-1.195-.056-2.4-.093-3.6-.093s-2.4.036-3.588.093c-.549.026-1.094.069-1.64.106-.59.041-1.18.083-1.767.138-.72.065-1.436.143-2.15.229-.349.042-.7.089-1.044.136-36.024,4.823-64.327,34.836-67.512,72.249a6.478,6.478,0,0,0,6.44,7.049H576.268a6.449,6.449,0,0,0,6.449-6.944C579.629,165.22,552.2,135.518,517.007,129.944Zm-62.976,56.985a79.3,79.3,0,0,1,50.24-53.8,79.285,79.285,0,0,1,50.294,53.8A10.762,10.762,0,0,1,544.141,200.5H464.456A10.761,10.761,0,0,1,454.031,186.929Z" style="fill:#efaa65"/><path d="M436.178,209a8.69,8.69,0,0,1-8.6-9.759C432.275,159.661,465.15,129,505.007,129s72.732,30.661,77.425,70.241a8.689,8.689,0,0,1-8.6,9.759Z" style="fill:none;stroke:#283035;stroke-linecap:round;stroke-linejoin:round;stroke-width:6px"/><line x1="505.007" x2="505.007" y2="129" style="fill:none;stroke:#283035;stroke-linejoin:round;stroke-width:6px"/></g></svg>