<?xml version="1.0" encoding="utf-8"?>
<!-- Generator: Adobe Illustrator 23.1.1, SVG Export Plug-In . SVG Version: 6.00 Build 0)  -->
<svg version="1.1" id="Layer_1" xmlns="http://www.w3.org/2000/svg" xmlns:xlink="http://www.w3.org/1999/xlink" x="0px" y="0px"
	 viewBox="0 0 1000 1000" style="enable-background:new 0 0 1000 1000;" xml:space="preserve">
<style type="text/css">
	.st0{fill:#4F4F59;}
	.st1{fill:#EEF2F4;}
	.st2{fill:#36303E;}
	.st3{fill:#403A46;}
	.st4{opacity:0.75;fill:#37333D;}
	.st5{fill:none;stroke:#36303E;stroke-width:4;stroke-linecap:round;stroke-linejoin:round;stroke-miterlimit:10;}
	.st6{opacity:0.13;fill:#EDEDED;}
	.st7{fill:none;stroke:#372F3C;stroke-width:4;stroke-linecap:round;stroke-linejoin:round;stroke-miterlimit:10;}
	.st8{fill:#FCAF43;}
	.st9{fill:#FA932A;}
	.st10{fill:#3BA2DC;}
	.st11{opacity:0.63;fill:#36303E;}
	.st12{fill:#385A78;}
	.st13{fill:none;stroke:#385A78;stroke-width:6;stroke-linecap:round;stroke-linejoin:round;stroke-miterlimit:10;}
	.st14{opacity:0.76;fill:#3BA2DC;}
	.st15{opacity:0.35;fill:#FFFFFF;}
	.st16{opacity:0.35;fill:#FDE3BE;}
	.st17{opacity:0.14;fill:#FDE3BE;}
	.st18{opacity:8.000000e-02;fill:#FFFFFF;}
	.st19{fill:#67646D;}
	.st20{opacity:0.74;fill:#36303E;}
	.st21{opacity:0.4;fill:#FDE3BE;}
	.st22{fill:none;stroke:#36303E;stroke-width:6;stroke-linecap:round;stroke-linejoin:round;stroke-miterlimit:10;}
	.st23{fill:#9B989F;}
	.st24{fill:#8F8D91;}
	.st25{opacity:0.75;fill:#403A46;}
	.st26{fill:#C71F2C;}
	.st27{opacity:0.27;fill:#FDE3BE;}
	.st28{fill:#AD1E2F;}
	.st29{fill:none;stroke:#FA932A;stroke-width:5;stroke-linecap:round;stroke-linejoin:round;stroke-miterlimit:10;}
	.st30{fill:#FFB808;}
	.st31{fill:#47A942;}
	.st32{fill:#81C347;}
	.st33{fill:#5CB342;}
	.st34{fill:#CADB2A;}
	.st35{fill:#26863F;stroke:#26863F;stroke-width:5;stroke-miterlimit:10;}
	.st36{fill:#26863F;}
	.st37{fill:#F78F1E;}
	.st38{fill:#FDB813;}
	.st39{fill:#FEF200;}
	.st40{opacity:0.28;fill:#26863F;}
</style>
<rect id="XMLID_6_" class="st0" width="1000" height="1000"/>
<g>
	<g>
		<g>
			<path class="st1" d="M63.2,959.2c0,2.5-1.2,3.7-2.6,3.7c-1.1,0-1.9-0.5-2.1-1.4c-0.4,0.5-1,0.8-1.8,0.8c-1.5,0-2.6-1.2-2.6-2.8
				c0-1.6,1.1-2.8,2.6-2.8c0.7,0,1.2,0.3,1.6,0.7v-0.5h1.6v3.9c0,0.8,0.3,1.4,1,1.4c0.9,0,1.7-0.9,1.7-3c0-3-2.3-5.3-5.4-5.3
				c-3.1,0-5.6,2.4-5.6,5.7c0,3.3,2.5,5.7,5.9,5.7c1.1,0,2.1-0.2,2.9-0.4v0.6c-0.8,0.3-1.7,0.4-2.9,0.4c-3.7,0-6.5-2.6-6.5-6.2
				c0-3.4,2.7-6.2,6.2-6.2C61.1,953.3,63.2,956.4,63.2,959.2z M58.3,959.5c0-0.8-0.6-1.4-1.3-1.4c-0.8,0-1.3,0.5-1.3,1.4
				c0,0.8,0.6,1.3,1.3,1.3C57.8,960.9,58.3,960.3,58.3,959.5z"/>
		</g>
		<g>
			<path class="st1" d="M69.4,955.1v2c-1.2-0.1-2.6,0.5-2.6,2.4v4.3h-1.9v-8.6h1.9v1.4C67.3,955.5,68.3,955.1,69.4,955.1z"/>
		</g>
		<g>
			<path class="st1" d="M74.6,962.3c1,0,1.8-0.5,2.2-1.1l1.5,0.9c-0.8,1.2-2.1,1.9-3.8,1.9c-2.8,0-4.7-1.9-4.7-4.5
				c0-2.5,1.8-4.5,4.5-4.5c2.6,0,4.3,2.1,4.3,4.5c0,0.3,0,0.5-0.1,0.8h-6.8C72.1,961.6,73.2,962.3,74.6,962.3z M76.9,958.8
				c-0.3-1.5-1.3-2.1-2.5-2.1c-1.4,0-2.3,0.8-2.6,2.1H76.9z"/>
		</g>
		<g>
			<path class="st1" d="M88.9,955.2v8.6h-1.9v-1.2c-0.7,0.9-1.7,1.5-3,1.5c-2.3,0-4.3-2-4.3-4.5c0-2.6,1.9-4.5,4.3-4.5
				c1.3,0,2.3,0.5,3,1.4v-1.2H88.9z M87.1,959.5c0-1.6-1.2-2.7-2.7-2.7c-1.5,0-2.7,1.1-2.7,2.7c0,1.6,1.2,2.7,2.7,2.7
				C85.9,962.3,87.1,961.1,87.1,959.5z"/>
		</g>
		<g>
			<path class="st1" d="M91.1,951.3H93v12.5h-1.9V951.3z"/>
		</g>
		<g>
			<path class="st1" d="M102.9,955.2l-3.3,8.6h-2.1l-3.3-8.6h2l2.4,6.5l2.4-6.5H102.9z"/>
		</g>
		<g>
			<path class="st1" d="M104.2,955.2h1.9v8.9c0,2.4-1.2,3.5-3.5,3.3v-1.8c1.1,0.1,1.7-0.3,1.7-1.5V955.2z M104,952.8
				c0-0.7,0.5-1.2,1.2-1.2c0.7,0,1.2,0.5,1.2,1.2c0,0.6-0.5,1.2-1.2,1.2C104.5,954,104,953.4,104,952.8z"/>
		</g>
		<g>
			<path class="st1" d="M116,955.2l-3.3,8.8c-0.8,2.2-2.2,3.3-4.2,3.2v-1.7c1.2,0.1,1.9-0.5,2.3-1.7l0.1-0.2l-3.6-8.4h2l2.6,6.2
				l2.2-6.2H116z"/>
		</g>
	</g>
	<g>
		<path class="st1" d="M211.9,938.7c0,2.1-1.5,3.8-3.6,3.8h-3v-7.6h3C210.4,934.9,211.9,936.6,211.9,938.7z M210.9,938.7
			c0-1.6-1.1-2.9-2.6-2.9h-2v5.7h2C209.8,941.6,210.9,940.3,210.9,938.7z"/>
		<path class="st1" d="M219.5,940.8h-3.4l-0.6,1.7h-1.1l2.8-7.6h1.1l2.8,7.6h-1.1L219.5,940.8z M219.2,939.9l-1.4-3.8l-1.4,3.8
			H219.2z"/>
		<path class="st1" d="M226.4,939.4v3.1h-1v-3.1l-2.7-4.5h1.1l2.1,3.6l2.1-3.6h1.1L226.4,939.4z"/>
		<path class="st1" d="M239.5,934.9v7.6h-1V936l-1.6,0.5l-0.3-0.9l2-0.7H239.5z"/>
		<path class="st1" d="M248.8,941.1h-0.9v1.4h-1v-1.4h-3.9v-0.9l2.7-5.2h1.1l-2.7,5.2h2.8V938h1v2.2h0.9V941.1z"/>
	</g>
	<g>
		<path class="st1" d="M58.9,938.7c0,2.1-1.5,3.8-3.6,3.8h-3v-7.6h3C57.4,934.9,58.9,936.6,58.9,938.7z M57.9,938.7
			c0-1.6-1.1-2.9-2.6-2.9h-2v5.7h2C56.8,941.6,57.9,940.3,57.9,938.7z"/>
		<path class="st1" d="M67,941.6v1h-4.6v-7.6h4.5v1h-3.5v2.3h3.2v0.9h-3.2v2.4H67z"/>
		<path class="st1" d="M70,940.8l0.9-0.5c0.3,0.8,0.9,1.4,2,1.4c1.1,0,1.6-0.5,1.6-1.2c0-0.8-0.7-1-1.8-1.4
			c-1.2-0.4-2.4-0.8-2.4-2.2c0-1.4,1.1-2.2,2.4-2.2c1.3,0,2.2,0.7,2.6,1.7l-0.8,0.5c-0.3-0.7-0.8-1.2-1.7-1.2
			c-0.8,0-1.4,0.4-1.4,1.1c0,0.7,0.5,1,1.6,1.3c1.3,0.4,2.6,0.8,2.6,2.3c0,1.3-1.1,2.2-2.6,2.2C71.5,942.7,70.4,941.9,70,940.8z"/>
		<path class="st1" d="M80,934.9v7.6h-1v-7.6H80z"/>
		<path class="st1" d="M91.3,939.2c0,1.9-1.4,3.5-3.7,3.5c-2.4,0-4-1.8-4-4c0-2.2,1.7-4,4-4c1.4,0,2.7,0.8,3.3,1.8l-0.9,0.5
			c-0.4-0.8-1.4-1.4-2.4-1.4c-1.8,0-3,1.3-3,3c0,1.7,1.2,3,3,3c1.6,0,2.5-0.9,2.7-2h-2.8v-0.9h3.8V939.2z"/>
		<path class="st1" d="M100.6,934.9v7.6h-0.8l-3.9-5.7v5.7h-1v-7.6h0.8l3.9,5.7v-5.7H100.6z"/>
		<path class="st1" d="M109.1,941.6v1h-4.6v-7.6h4.5v1h-3.5v2.3h3.2v0.9h-3.2v2.4H109.1z"/>
		<path class="st1" d="M119.2,938.7c0,2.1-1.5,3.8-3.6,3.8h-3v-7.6h3C117.6,934.9,119.2,936.6,119.2,938.7z M118.2,938.7
			c0-1.6-1.1-2.9-2.6-2.9h-2v5.7h2C117.1,941.6,118.2,940.3,118.2,938.7z"/>
		<path class="st1" d="M133.2,940.4c0,1.2-1,2.2-2.2,2.2h-3.3v-7.6h3c1.2,0,2.1,0.9,2.1,2.1c0,0.7-0.3,1.2-0.8,1.6
			C132.7,938.9,133.2,939.5,133.2,940.4z M128.7,935.8v2.3h2c0.6,0,1.1-0.5,1.1-1.2c0-0.6-0.5-1.2-1.1-1.2H128.7z M132.2,940.3
			c0-0.7-0.5-1.2-1.2-1.2h-2.3v2.5h2.3C131.7,941.6,132.2,941,132.2,940.3z"/>
		<path class="st1" d="M139.4,939.4v3.1h-1v-3.1l-2.7-4.5h1.1l2.1,3.6l2.1-3.6h1.1L139.4,939.4z"/>
	</g>
	<g>
		<path class="st1" d="M207.5,953.9v3.5h5v1.9h-5v5h-2v-12.4h7.3v1.9H207.5z"/>
		<path class="st1" d="M214,959.9c0-2.6,2.1-4.7,4.7-4.7c2.6,0,4.7,2,4.7,4.7c0,2.6-2.1,4.7-4.7,4.7
			C216.1,964.5,214,962.5,214,959.9z M221.4,959.9c0-1.6-1.2-2.8-2.8-2.8s-2.8,1.2-2.8,2.8c0,1.6,1.2,2.8,2.8,2.8
			S221.4,961.5,221.4,959.9z"/>
		<path class="st1" d="M229.7,955.3v2.1c-1.3-0.1-2.7,0.5-2.7,2.5v4.5h-1.9v-8.9h1.9v1.5C227.5,955.7,228.6,955.3,229.7,955.3z"/>
		<path class="st1" d="M236.7,964.3l-3.6-4.1v4.1h-1.9v-12.4h1.9v7.5l3.4-3.9h2.3l-3.9,4.3l4,4.5H236.7z"/>
		<path class="st1" d="M240.3,951.4h1.9v12.9h-1.9V951.4z"/>
		<path class="st1" d="M244.1,952.9c0-0.7,0.5-1.2,1.2-1.2c0.7,0,1.2,0.5,1.2,1.2c0,0.7-0.5,1.2-1.2,1.2
			C244.7,954.1,244.1,953.6,244.1,952.9z M244.4,955.4h1.9v8.9h-1.9V955.4z"/>
		<path class="st1" d="M251.1,955.3v0.2h2.1v1.8h-2.1v7h-1.9v-7h-1.3v-1.8h1.3v-0.2c0-2.4,1.3-3.8,4-3.6v1.8
			C251.8,953.4,251.1,953.9,251.1,955.3z"/>
		<path class="st1" d="M257.3,957.3v4.2c0,1.1,0.7,1.1,2.2,1v1.7c-2.9,0.4-4.1-0.5-4.1-2.8v-4.2h-1.6v-1.8h1.6v-1.9l1.9-0.6v2.5h2.2
			v1.8H257.3z"/>
	</g>
	<g>
		<path class="st1" d="M841.3,942.5h-1v-7.6h1.1l2.4,4l2.4-4h1.1v7.6h-1v-6l-2.5,4.2h-0.1l-2.5-4.1V942.5z M858.8,938.7
			c0,2.2-1.7,4-4,4c-2.2,0-3.9-1.8-3.9-4c0-2.2,1.7-4,3.9-4C857.1,934.7,858.8,936.5,858.8,938.7z M857.8,938.7c0-1.7-1.3-3-2.9-3
			c-1.7,0-2.9,1.3-2.9,3c0,1.7,1.3,3,2.9,3C856.6,941.7,857.8,940.4,857.8,938.7z M866.2,939.5l1.8,3.1h-1.1l-1.7-2.9h-1.8v2.9h-1
			v-7.6h3c1.3,0,2.4,1.1,2.4,2.4C867.8,938.2,867.1,939.1,866.2,939.5z M865.4,938.7c0.8,0,1.4-0.6,1.4-1.4c0-0.8-0.6-1.4-1.4-1.4
			h-2v2.8H865.4z M875.9,941.6h-3.5v-2.4h3.2v-0.9h-3.2v-2.3h3.5v-1h-4.5v7.6h4.6V941.6z M844.2,962.2l-2.5-6.7h-2.1l3.5,8.9h2.2
			l3.5-8.9h-2.1L844.2,962.2z M850,964.3h1.9v-8.9H850V964.3z M851,951.7c-0.7,0-1.2,0.5-1.2,1.2c0,0.7,0.5,1.2,1.2,1.2
			c0.7,0,1.2-0.6,1.2-1.2C852.2,952.2,851.6,951.7,851,951.7z M855.2,951.7c-0.7,0-1.2,0.5-1.2,1.2c0,0.7,0.5,1.2,1.2,1.2
			c0.7,0,1.2-0.6,1.2-1.2C856.5,952.2,855.9,951.7,855.2,951.7z M854.3,964.7c0,1.2-0.5,1.7-1.7,1.6v1.8c2.4,0.2,3.6-1,3.6-3.4v-9.2
			h-1.9V964.7z M865.4,955.4h1.9v8.9h-1.9V963c-0.7,0.9-1.7,1.5-3.1,1.5c-2.4,0-4.4-2-4.4-4.7c0-2.6,2-4.7,4.4-4.7
			c1.4,0,2.4,0.6,3.1,1.5V955.4z M865.4,959.9c0-1.6-1.2-2.8-2.8-2.8c-1.6,0-2.8,1.2-2.8,2.8c0,1.6,1.2,2.8,2.8,2.8
			C864.2,962.7,865.4,961.5,865.4,959.9z M873.3,961.9l-2.6-6.4h-2.1l3.8,8.7l-0.1,0.2c-0.4,1.2-1.1,1.8-2.4,1.7v1.8
			c2,0.1,3.5-1,4.3-3.3l3.4-9.1h-2L873.3,961.9z M882.3,962.2l-2.5-6.7h-2.1l3.5,8.9h2.2l3.5-8.9h-2.1L882.3,962.2z M896.4,959.9
			c0,0.3,0,0.5-0.1,0.8h-7c0.3,1.4,1.4,2.1,2.8,2.1c1.1,0,1.9-0.5,2.3-1.1l1.6,0.9c-0.8,1.2-2.1,1.9-3.9,1.9c-2.9,0-4.8-2-4.8-4.7
			c0-2.6,1.9-4.7,4.7-4.7C894.5,955.2,896.4,957.3,896.4,959.9z M894.4,959.1c-0.3-1.5-1.4-2.2-2.5-2.2c-1.4,0-2.4,0.8-2.7,2.2
			H894.4z M899.9,956.9v-1.5H898v8.9h1.9v-4.5c0-2,1.5-2.6,2.7-2.5v-2.1C901.6,955.3,900.5,955.7,899.9,956.9z M913.8,955.2
			c-1.2,0-2.1,0.5-2.7,1.4c-0.5-0.9-1.4-1.4-2.5-1.4c-1.1,0-2,0.4-2.5,1.3v-1.1h-1.9v8.9h1.9v-5c0-1.6,0.9-2.3,2-2.3
			c1,0,1.7,0.7,1.7,1.9v5.4h1.9v-5c0-1.6,0.8-2.3,1.9-2.3c1,0,1.7,0.7,1.7,1.9v5.4h1.9v-5.5C917.1,956.6,915.8,955.2,913.8,955.2z
			 M926.2,955.4h1.9v8.9h-1.9V963c-0.7,0.9-1.7,1.5-3.1,1.5c-2.4,0-4.4-2-4.4-4.7c0-2.6,2-4.7,4.4-4.7c1.4,0,2.4,0.6,3.1,1.5V955.4z
			 M926.2,959.9c0-1.6-1.2-2.8-2.8-2.8c-1.6,0-2.8,1.2-2.8,2.8c0,1.6,1.2,2.8,2.8,2.8C925,962.7,926.2,961.5,926.2,959.9z
			 M931.5,961.9c-0.7,0-1.3,0.6-1.3,1.3c0,0.7,0.6,1.3,1.3,1.3c0.7,0,1.3-0.6,1.3-1.3C932.8,962.4,932.2,961.9,931.5,961.9z
			 M938.3,962.6c-1.6,0-2.7-1.2-2.7-2.8c0-1.6,1.2-2.8,2.7-2.8c1.1,0,1.9,0.5,2.3,1.4l1.6-1c-0.7-1.4-2.2-2.3-3.9-2.3
			c-2.7,0-4.7,2-4.7,4.7c0,2.6,2,4.7,4.7,4.7c1.7,0,3.2-0.9,4-2.3l-1.6-0.9C940.2,962.1,939.3,962.6,938.3,962.6z M952.4,959.9
			c0,2.6-2.1,4.7-4.7,4.7c-2.6,0-4.7-2-4.7-4.7c0-2.6,2.1-4.7,4.7-4.7C950.3,955.2,952.4,957.2,952.4,959.9z M950.5,959.9
			c0-1.6-1.2-2.8-2.8-2.8s-2.8,1.2-2.8,2.8c0,1.6,1.2,2.8,2.8,2.8S950.5,961.5,950.5,959.9z"/>
	</g>
</g>
<path id="XMLID_2_" class="st2" d="M764.7,713H232.3c-6.3,0-11.3-5.1-11.3-11.3v0c0-6.3,5.1-11.3,11.3-11.3h532.4
	c6.3,0,11.3,5.1,11.3,11.3v0C776.1,707.9,771,713,764.7,713z"/>
<rect id="XMLID_53_" x="550.5" y="637.4" class="st3" width="85.2" height="33.2"/>
<rect id="XMLID_1_" x="550.5" y="640.5" class="st4" width="85.2" height="17"/>
<rect id="XMLID_58_" x="550.5" y="637.4" class="st5" width="85.2" height="33.2"/>
<path id="XMLID_28_" class="st3" d="M718.5,355.1h-206v0c0-17.7,14.3-32,32-32h142C704.2,323.1,718.5,337.4,718.5,355.1L718.5,355.1
	z"/>
<path id="XMLID_141_" class="st6" d="M534.7,339.1h161.6c7.5,0,9.8-10.4,2.9-13.4c-3.9-1.7-8.2-2.6-12.7-2.6h-142
	c-4.5,0-8.8,0.9-12.7,2.6C524.9,328.7,527.2,339.1,534.7,339.1z"/>
<path id="XMLID_55_" class="st5" d="M718.5,355.1h-206v0c0-17.7,14.3-32,32-32h142C704.2,323.1,718.5,337.4,718.5,355.1L718.5,355.1
	z"/>
<rect id="XMLID_3_" x="455" y="587.9" class="st3" width="37.3" height="33.5"/>
<rect id="XMLID_56_" x="455" y="587.9" class="st7" width="37.3" height="33.5"/>
<path id="XMLID_19_" class="st8" d="M688.3,644.1H510.8c-18,0-32-15.6-29.8-33.6l31.5-255.4h206v259.2
	C718.5,630.8,704.9,644.1,688.3,644.1z"/>
<path id="XMLID_106_" class="st9" d="M488.1,622.6h-7.3v-8.5h15.8l0,0C496.6,618.8,492.8,622.6,488.1,622.6z"/>
<path id="XMLID_50_" class="st9" d="M706.4,383.7v226.1c0,13.4-10.9,24.3-24.3,24.3H508c-4.9,0-8.9,4.1-8.7,9l0,0
	c2.4,0.6,8.9,1,11.5,1h177.5c16.6,0,30.2-13.6,30.2-30.2V371.6C711.8,371.6,706.4,377,706.4,383.7z"/>
<path id="XMLID_162_" class="st9" d="M709.8,570h-6.3c-3.7,0-6.6,3-6.6,6.6V619c0,4.8,3.9,8.6,8.6,8.6h4.3V570z"/>
<path id="XMLID_31_" class="st10" d="M649.7,368.1H510.9l-25.6,208h164.4c26.5,0,47.8-21.3,47.8-47.8V415.6
	C697.5,389,676.2,368.1,649.7,368.1z"/>
<path id="XMLID_70_" class="st11" d="M646,577.5h-52.9v-20c0-30.9,25.1-56,56-56h50.3v22.6C699.4,553.6,675.5,577.5,646,577.5z"/>
<path id="XMLID_119_" class="st11" d="M699.4,501.5h-35.6v-38.4c0-10,8.1-18.1,18.1-18.1h17.5V501.5z"/>
<path id="XMLID_163_" class="st11" d="M699.4,445.1h-10.9v-28.8c0-3.7,3-6.6,6.6-6.6h4.2V445.1z"/>
<polygon id="XMLID_164_" class="st12" points="493.1,512.9 485.3,576.1 551.9,576.1 "/>
<line id="XMLID_116_" class="st13" x1="565.5" y1="505" x2="542" y2="530.4"/>
<line id="XMLID_112_" class="st13" x1="582.6" y1="522.8" x2="548.4" y2="487.2"/>
<polygon id="XMLID_71_" class="st12" points="528.7,554.1 517.4,541.7 536.9,522.2 548.8,534.1 "/>
<path id="XMLID_81_" class="st14" d="M649.7,368.1H510.9l-25.6,208h164.4c26.5,0,47.8-21.3,47.8-47.8V415.6
	C697.5,389,676.2,368.1,649.7,368.1z"/>
<path id="XMLID_183_" class="st15" d="M617.8,368.1h-69.5l148.6,167.6c0.4-2.4,0.6-4.9,0.6-7.4v-70.3L617.8,368.1z"/>
<path id="XMLID_179_" class="st15" d="M526.9,368.1h-15.7l172.2,194.1c2.8-2.8,5.3-6,7.4-9.4L526.9,368.1z"/>
<path id="XMLID_51_" class="st16" d="M512.5,355.1l-31.5,255.4c-0.1,1-0.2,2-0.2,3.1l0,0c6.7,0,12.3-5,13.1-11.6l29.4-238.6h181.1
	c4.6,0,8.3-3.7,8.3-8.3H512.5z"/>
<path id="XMLID_232_" class="st17" d="M502.7,618.4"/>
<path id="XMLID_118_" class="st18" d="M649.7,368.1H510.9l-6.8,55.5h8.5H542h109.3c22.1,0,40.6,14.6,46.2,34.9v-42.9
	C697.5,389,676.2,368.1,649.7,368.1z"/>
<path id="XMLID_32_" class="st5" d="M649.7,368.1H510.9l-25.6,208h164.4c26.5,0,47.8-21.3,47.8-47.8V415.6
	C697.5,389,676.2,368.1,649.7,368.1z"/>
<path id="XMLID_29_" class="st5" d="M688.3,644.1H510.8c-18,0-32-15.6-29.8-33.6l31.5-255.4h206v259.2
	C718.5,630.8,704.9,644.1,688.3,644.1z"/>
<path id="XMLID_15_" class="st19" d="M444,397.5v223H221v0c0,9.4,7.6,17,17,17h207v0h16v0v-16v-224H444z"/>
<path id="XMLID_7_" class="st6" d="M440.8,627.6H230.8c-1.7,0-3.1-1.4-3.1-3.1l0,0c0-1.7,1.4-3.1,3.1-3.1h210.1
	c1.7,0,3.1,1.4,3.1,3.1l0,0C444,626.2,442.6,627.6,440.8,627.6z"/>
<path id="XMLID_5_" class="st6" d="M447.7,622.6L447.7,622.6c-2.1,0-3.8-1.7-3.8-3.8V407.6c0-2.1,1.7-3.8,3.8-3.8h0
	c2.1,0,3.8,1.7,3.8,3.8v211.2C451.5,620.9,449.8,622.6,447.7,622.6z"/>
<path id="XMLID_12_" class="st7" d="M444,403.4v217H221v0c0,9.4,7.6,17,17,17h207v0h16v0v-16v-218c0-3.3-2.7-6-6-6h-5.1
	C446.6,397.5,444,400.1,444,403.4z"/>
<path id="XMLID_79_" class="st3" d="M528,370.1h-13.1c1.2-6.3,4.9-11.7,10.1-15h-12.5c-6.3,4.1-10.4,11.2-10.4,19.3
	c0,0.4,0,0.8,0,1.2c0,0.2,0,0.4,0,0.6v31c0,3.3,2.7,6,6,6h20c3.3,0,6-2.7,6-6v-31C534,372.8,531.3,370.1,528,370.1z"/>
<path id="XMLID_154_" class="st20" d="M527.7,379.7v24.9c0,2.1-1.7,3.7-3.7,3.7h-21.8c0.6,2.7,3,4.8,5.9,4.8h20c3.3,0,6-2.7,6-6v-31
	c0-0.4-0.1-0.9-0.1-1.3h-1.3C529.9,374.8,527.7,377,527.7,379.7z"/>
<path id="XMLID_52_" class="st6" d="M506.3,407.7H503v-36.4c0-1.8,1.5-3.3,3.3-3.3h0c1.8,0,3.3,1.5,3.3,3.3v33.1
	C509.5,406.2,508.1,407.7,506.3,407.7z"/>
<path id="XMLID_83_" class="st5" d="M528,370.1h-13.1c1.2-6.3,4.9-11.7,10.1-15h-12.5c-6.3,4.1-10.4,11.2-10.4,19.3
	c0,0.4,0,0.8,0,1.2c0,0.2,0,0.4,0,0.6v31c0,3.3,2.7,6,6,6h20c3.3,0,6-2.7,6-6v-31C534,372.8,531.3,370.1,528,370.1z"/>
<g id="XMLID_21_">
	<path id="XMLID_158_" class="st3" d="M586.3,660.9c0,2.4-2.2,4.6-2.6,6.9c-0.4,2.4,0.9,5.2,0.1,7.4c-0.8,2.3-3.6,3.6-4.8,5.6
		c-1.2,2.1-0.9,5.2-2.5,7c-1.5,1.8-4.6,2.1-6.5,3.6c-1.8,1.5-2.6,4.5-4.7,5.7c-2.1,1.2-5.1,0.4-7.3,1.2c-2.2,0.8-4,3.4-6.4,3.8
		c-2.3,0.4-4.9-1.4-7.3-1.4c-2.4,0-5,1.8-7.3,1.4c-2.4-0.4-4.2-3-6.4-3.8c-2.3-0.8-5.3,0-7.3-1.2c-2.1-1.2-2.9-4.2-4.7-5.7
		c-1.8-1.5-4.9-1.8-6.5-3.6c-1.5-1.8-1.3-4.9-2.5-7c-1.2-2.1-4-3.4-4.8-5.6c-0.8-2.2,0.5-5,0.1-7.4c-0.4-2.3-2.6-4.5-2.6-6.9
		s2.2-4.6,2.6-6.9c0.4-2.4-0.9-5.2-0.1-7.4c0.8-2.3,3.6-3.6,4.8-5.6c1.2-2.1,0.9-5.2,2.5-7c1.5-1.8,4.6-2.1,6.5-3.6
		c1.8-1.5,2.6-4.5,4.7-5.7c2.1-1.2,5.1-0.4,7.3-1.2c2.2-0.8,4-3.4,6.4-3.8c2.3-0.4,4.9,1.4,7.3,1.4c2.4,0,5-1.8,7.3-1.4
		c2.4,0.4,4.2,3,6.4,3.8c2.3,0.8,5.3,0,7.3,1.2c2.1,1.2,2.9,4.2,4.7,5.7c1.8,1.5,4.9,1.8,6.5,3.6c1.5,1.8,1.3,4.9,2.5,7
		c1.2,2.1,4,3.4,4.8,5.6c0.8,2.2-0.5,5-0.1,7.4C584.1,656.3,586.3,658.5,586.3,660.9z"/>
</g>
<path id="XMLID_75_" class="st21" d="M609.2,299.3L609.2,299.3c-2.7,0-4.9-2.2-4.9-4.9v-9.5c0-2.7,2.2-4.9,4.9-4.9l0,0
	c2.7,0,4.9,2.2,4.9,4.9l0,9.5C614.1,297.1,611.9,299.3,609.2,299.3z"/>
<g id="XMLID_57_">
	<path id="XMLID_68_" class="st22" d="M584.9,671.4c-0.6,2.4-3.3,3.9-4.3,6.1c-1,2.2-0.4,5.3-1.8,7.2c-1.4,2-4.4,2.6-6.1,4.2
		c-1.7,1.7-2.2,4.8-4.1,6.2c-1.9,1.4-5,0.9-7.2,1.9c-2.1,1-3.7,3.7-6,4.4c-2.3,0.6-5-0.9-7.4-0.7c-2.4,0.2-4.7,2.2-7.1,2
		c-2.3-0.2-4.4-2.5-6.7-3.2s-5.3,0.5-7.4-0.5c-2.2-1-3.3-3.9-5.2-5.3c-2-1.4-5.1-1.4-6.8-3c-1.7-1.7-1.7-4.8-3.1-6.7
		c-1.4-1.9-4.3-3-5.3-5.1c-1-2.1,0-5.1-0.6-7.4c-0.6-2.3-3-4.3-3.3-6.7c-0.2-2.4,1.7-4.8,1.9-7.2c0.2-2.3-1.4-5-0.8-7.4
		c0.6-2.4,3.3-3.9,4.3-6.1c1-2.2,0.4-5.3,1.8-7.2c1.4-2,4.4-2.6,6.1-4.2c1.7-1.7,2.2-4.8,4.1-6.2c1.9-1.4,5-0.9,7.2-1.9
		c2.1-1,3.7-3.7,6-4.4c2.3-0.6,5,0.9,7.4,0.7c2.4-0.2,4.7-2.2,7.1-2c2.3,0.2,4.4,2.5,6.7,3.2s5.3-0.5,7.4,0.5c2.2,1,3.3,3.9,5.2,5.3
		c2,1.4,5.1,1.4,6.8,3c1.7,1.7,1.7,4.8,3.1,6.7c1.4,1.9,4.3,3,5.3,5.1c1,2.1,0,5.1,0.6,7.4c0.6,2.3,3,4.3,3.3,6.7
		c0.2,2.4-1.7,4.8-1.9,7.2C584,666.4,585.5,669.1,584.9,671.4z"/>
</g>
<circle id="XMLID_27_" class="st23" cx="544.3" cy="660.9" r="25"/>
<path id="XMLID_150_" class="st24" d="M544.3,644.1c12.4,0,22.7,9.1,24.7,20.9c0.2-1.3,0.3-2.7,0.3-4.1c0-13.8-11.2-25-25-25
	s-25,11.2-25,25c0,1.4,0.1,2.8,0.3,4.1C521.5,653.1,531.8,644.1,544.3,644.1z"/>
<circle id="XMLID_59_" class="st8" cx="544.3" cy="660.9" r="10.6"/>
<circle id="XMLID_20_" class="st5" cx="544.3" cy="660.9" r="10.6"/>
<circle id="XMLID_36_" class="st5" cx="544.3" cy="660.9" r="25"/>
<g id="XMLID_127_">
	<path id="XMLID_139_" class="st3" d="M693.9,660.9c0,2.4-2.2,4.6-2.6,6.9c-0.4,2.4,0.9,5.2,0.1,7.4c-0.8,2.3-3.6,3.6-4.8,5.6
		c-1.2,2.1-0.9,5.2-2.5,7c-1.5,1.8-4.6,2.1-6.5,3.6c-1.8,1.5-2.6,4.5-4.7,5.7c-2.1,1.2-5.1,0.4-7.3,1.2c-2.2,0.8-4,3.4-6.4,3.8
		c-2.3,0.4-4.9-1.4-7.3-1.4c-2.4,0-5,1.8-7.3,1.4c-2.4-0.4-4.2-3-6.4-3.8c-2.3-0.8-5.3,0-7.3-1.2c-2.1-1.2-2.9-4.2-4.7-5.7
		c-1.8-1.5-4.9-1.8-6.5-3.6c-1.5-1.8-1.3-4.9-2.5-7c-1.2-2.1-4-3.4-4.8-5.6c-0.8-2.2,0.5-5,0.1-7.4c-0.4-2.3-2.6-4.5-2.6-6.9
		s2.2-4.6,2.6-6.9c0.4-2.4-0.9-5.2-0.1-7.4c0.8-2.3,3.6-3.6,4.8-5.6c1.2-2.1,0.9-5.2,2.5-7c1.5-1.8,4.6-2.1,6.5-3.6
		c1.8-1.5,2.6-4.5,4.7-5.7c2.1-1.2,5.1-0.4,7.3-1.2c2.2-0.8,4-3.4,6.4-3.8c2.3-0.4,4.9,1.4,7.3,1.4c2.4,0,5-1.8,7.3-1.4
		c2.4,0.4,4.2,3,6.4,3.8c2.3,0.8,5.3,0,7.3,1.2c2.1,1.2,2.9,4.2,4.7,5.7c1.8,1.5,4.9,1.8,6.5,3.6c1.5,1.8,1.3,4.9,2.5,7
		c1.2,2.1,4,3.4,4.8,5.6c0.8,2.2-0.5,5-0.1,7.4C691.7,656.3,693.9,658.5,693.9,660.9z"/>
</g>
<g id="XMLID_123_">
	<path id="XMLID_125_" class="st22" d="M692.5,671.4c-0.6,2.4-3.3,3.9-4.3,6.1c-1,2.2-0.4,5.3-1.8,7.2c-1.4,2-4.4,2.6-6.1,4.2
		c-1.7,1.7-2.2,4.8-4.1,6.2c-1.9,1.4-5,0.9-7.2,1.9c-2.1,1-3.7,3.7-6,4.4c-2.3,0.6-5-0.9-7.4-0.7c-2.4,0.2-4.7,2.2-7.1,2
		c-2.3-0.2-4.4-2.5-6.7-3.2c-2.4-0.6-5.3,0.5-7.4-0.5c-2.2-1-3.3-3.9-5.2-5.3c-2-1.4-5.1-1.4-6.8-3c-1.7-1.7-1.7-4.8-3.1-6.7
		c-1.4-1.9-4.3-3-5.3-5.1c-1-2.1,0-5.1-0.6-7.4c-0.6-2.3-3-4.3-3.3-6.7c-0.2-2.4,1.7-4.8,1.9-7.2c0.2-2.3-1.4-5-0.8-7.4
		c0.6-2.4,3.3-3.9,4.3-6.1c1-2.2,0.4-5.3,1.8-7.2c1.4-2,4.4-2.6,6.1-4.2c1.7-1.7,2.2-4.8,4.1-6.2c1.9-1.4,5-0.9,7.2-1.9
		c2.1-1,3.7-3.7,6-4.4c2.3-0.6,5,0.9,7.4,0.7c2.4-0.2,4.7-2.2,7.1-2c2.3,0.2,4.4,2.5,6.7,3.2c2.4,0.6,5.3-0.5,7.4,0.5
		c2.2,1,3.3,3.9,5.2,5.3c2,1.4,5.1,1.4,6.8,3c1.7,1.7,1.7,4.8,3.1,6.7c1.4,1.9,4.3,3,5.3,5.1c1,2.1,0,5.1,0.6,7.4
		c0.6,2.3,3,4.3,3.3,6.7c0.2,2.4-1.7,4.8-1.9,7.2C691.6,666.4,693.2,669.1,692.5,671.4z"/>
</g>
<circle id="XMLID_108_" class="st23" cx="651.9" cy="660.9" r="25"/>
<path id="XMLID_92_" class="st24" d="M651.9,644.1c12.4,0,22.7,9.1,24.7,20.9c0.2-1.3,0.3-2.7,0.3-4.1c0-13.8-11.2-25-25-25
	s-25,11.2-25,25c0,1.4,0.1,2.8,0.3,4.1C629.2,653.1,639.5,644.1,651.9,644.1z"/>
<circle id="XMLID_88_" class="st8" cx="651.9" cy="660.9" r="10.6"/>
<circle id="XMLID_64_" class="st5" cx="651.9" cy="660.9" r="10.6"/>
<circle id="XMLID_54_" class="st5" cx="651.9" cy="660.9" r="25"/>
<rect id="XMLID_11_" x="605.6" y="306.2" class="st19" width="30.4" height="16.8"/>
<rect id="XMLID_140_" x="605.6" y="317.2" class="st25" width="30.4" height="5.8"/>
<rect id="XMLID_30_" x="605.6" y="306.2" class="st5" width="30.4" height="16.8"/>
<path id="XMLID_63_" class="st8" d="M636,306.2h-30.4v-19.7c0-5.1,4.2-9.3,9.3-9.3h11.8c5.1,0,9.3,4.2,9.3,9.3L636,306.2z"/>
<path id="XMLID_73_" class="st21" d="M611.6,300.2h-5v-14.3c0-2.7,2.2-5,5-5h0c2.7,0,5,2.2,5,5v9.4
	C616.5,298,614.3,300.2,611.6,300.2z"/>
<path id="XMLID_77_" class="st9" d="M629.1,285.8v15.2h-23.5v5.2H636v-20.5c0-1.7-1.2-3.1-2.6-3.1h-1.5
	C630.4,282.6,629.1,284.1,629.1,285.8z"/>
<path id="XMLID_69_" class="st5" d="M636,306.2h-30.4v-19.7c0-5.1,4.2-9.3,9.3-9.3h11.8c5.1,0,9.3,4.2,9.3,9.3L636,306.2z"/>
<path id="XMLID_142_" class="st26" d="M718.6,618.6h-12.7V579h12.7c3.7,0,6.6,3,6.6,6.6V612C725.2,615.7,722.2,618.6,718.6,618.6z"
	/>
<path id="XMLID_160_" class="st27" d="M708.7,612.8h-1.3v-28.7c0-1.2,1-2.2,2.2-2.2h0c1.4,0,2.6,1.1,2.6,2.6v24.9
	C712.1,611.3,710.6,612.8,708.7,612.8z"/>
<path id="XMLID_173_" class="st28" d="M719.4,579c0,0.2,0.1,0.3,0.1,0.5v31.9c0,1.8-1.4,3.2-3.2,3.2h-10.4v4h12.7
	c3.7,0,6.6-3,6.6-6.6v-26.4C725.2,582.2,722.6,579.4,719.4,579z"/>
<path id="XMLID_157_" class="st5" d="M718.6,618.6h-10.3c-1.3,0-2.4-1.1-2.4-2.4v-34.8c0-1.3,1.1-2.4,2.4-2.4h10.3
	c3.7,0,6.6,3,6.6,6.6V612C725.2,615.7,722.2,618.6,718.6,618.6z"/>
<path id="XMLID_103_" class="st2" d="M444,620.5H221l0,0c0-3.8,3.1-6.9,6.9-6.9H444V620.5z"/>
<path id="XMLID_89_" class="st7" d="M444,620.5H221l0,0c0-3.8,3.1-6.9,6.9-6.9H444V620.5z"/>
<line id="XMLID_224_" class="st29" x1="567.5" y1="587.9" x2="631.8" y2="587.9"/>
<line id="XMLID_226_" class="st29" x1="568.1" y1="598.8" x2="582.2" y2="598.8"/>
<line id="XMLID_227_" class="st29" x1="568.1" y1="608.7" x2="594.7" y2="608.7"/>
<path id="XMLID_228_" class="st26" d="M497.9,613.6h-15.7c-3.7,0-6.8-3-6.8-6.8v-9c0-3.7,3-6.8,6.8-6.8h15.7V613.6z"/>
<path id="XMLID_231_" class="st27" d="M477.2,610.5L477.2,610.5v-16.4l0,0c2.1,0,3.9,1.7,3.9,3.9v8.6
	C481.1,608.8,479.3,610.5,477.2,610.5z"/>
<rect id="XMLID_229_" x="486.6" y="591.1" class="st30" width="11.2" height="22.5"/>
<path id="XMLID_230_" class="st5" d="M492.3,613.6L492.3,613.6c-3.1,0-5.6-2.5-5.6-5.6v-11.2c0-3.1,2.5-5.6,5.6-5.6l0,0
	c3.1,0,5.6,2.5,5.6,5.6v11.2C497.9,611,495.4,613.6,492.3,613.6z"/>
<path id="XMLID_223_" class="st5" d="M492.6,613.6h-10.4c-3.7,0-6.8-3-6.8-6.8v-9c0-3.7,3-6.8,6.8-6.8h10.4c2.9,0,5.3,2.4,5.3,5.3
	v11.9C497.9,611.2,495.5,613.6,492.6,613.6z"/>
<path id="XMLID_136_" class="st31" d="M401.7,616.5H263.2c-9.3,0-16.9-7.6-16.9-16.9V461.1c0-9.3,7.6-16.9,16.9-16.9h138.5
	c9.3,0,16.9,7.6,16.9,16.9v138.5C418.6,608.9,411,616.5,401.7,616.5z"/>
<path id="XMLID_266_" class="st32" d="M252.8,587.7V475.3c0-9.3,7.6-16.9,16.9-16.9h125.5c9.3,0,16.9,7.6,16.9,16.9v112.4
	c0,3.6,2.9,6.5,6.5,6.5l0,0v-133c0-9.3-7.6-16.9-16.9-16.9H263.2c-9.3,0-16.9,7.6-16.9,16.9v133l0,0
	C249.9,594.1,252.8,591.2,252.8,587.7z"/>
<circle id="XMLID_243_" class="st33" cx="332.5" cy="530.4" r="44.2"/>
<path id="XMLID_268_" class="st34" d="M249.1,451.8h166.7c-3-4.6-8.2-7.6-14.1-7.6H263.2C257.3,444.2,252.1,447.3,249.1,451.8z"/>
<path id="XMLID_248_" class="st35" d="M304.6,512.7v-64.3c0-3.4,2.8-6.2,6.2-6.2h35.6c3.4,0,6.2,2.8,6.2,6.2v39.4c0,2-1,3.9-2.6,5.1
	l-35.6,24.9C310.2,520.6,304.6,517.7,304.6,512.7z"/>
<path id="XMLID_277_" class="st36" d="M401.7,604.5H263.2c-9.3,0-16.9-7.6-16.9-16.9v12c0,9.3,7.6,16.9,16.9,16.9h138.5
	c9.3,0,16.9-7.6,16.9-16.9v-12C418.6,596.9,411,604.5,401.7,604.5z"/>
<path id="XMLID_234_" class="st5" d="M401.7,616.5H263.2c-9.3,0-16.9-7.6-16.9-16.9V461.1c0-9.3,7.6-16.9,16.9-16.9h138.5
	c9.3,0,16.9,7.6,16.9,16.9v138.5C418.6,608.9,411,616.5,401.7,616.5z"/>
<path id="XMLID_244_" class="st37" d="M302.6,514.9v-72.1c0-1.9,1.6-3.5,3.5-3.5h41c1.9,0,3.5,1.6,3.5,3.5v43.5
	c0,1.1-0.6,2.2-1.5,2.9l-41,28.6C305.8,519.3,302.6,517.7,302.6,514.9z"/>
<path id="XMLID_260_" class="st38" d="M347.1,439.2h-41c-1.9,0-3.5,1.6-3.5,3.5v25.3h48v-25.3C350.6,440.8,349,439.2,347.1,439.2z"
	/>
<path id="XMLID_270_" class="st39" d="M347.1,439.2h-41c-1.9,0-3.5,1.6-3.5,3.5v5.3h48v-5.3C350.6,440.8,349,439.2,347.1,439.2z"/>
<path id="XMLID_245_" class="st5" d="M302.6,514.9v-72.1c0-1.9,1.6-3.5,3.5-3.5h41c1.9,0,3.5,1.6,3.5,3.5v43.5
	c0,1.1-0.6,2.2-1.5,2.9l-41,28.6C305.8,519.3,302.6,517.7,302.6,514.9z"/>
<path id="XMLID_233_" class="st32" d="M264.3,571L264.3,571c-1.7,0-3.1-1.4-3.1-3.1v-94.2c0-1.7,1.4-3.1,3.1-3.1l0,0
	c1.7,0,3.1,1.4,3.1,3.1v94.2C267.4,569.6,266,571,264.3,571z"/>
<path id="XMLID_9_" class="st32" d="M264.3,585L264.3,585c-1.7,0-3.1-1.4-3.1-3.1v-2.7c0-1.7,1.4-3.1,3.1-3.1l0,0
	c1.7,0,3.1,1.4,3.1,3.1v2.7C267.4,583.6,266,585,264.3,585z"/>
<path id="XMLID_72_" class="st40" d="M400.3,589.6L400.3,589.6c-1.7,0-3.1-1.4-3.1-3.1V471.2c0-1.7,1.4-3.1,3.1-3.1l0,0
	c1.7,0,3.1,1.4,3.1,3.1v115.2C403.4,588.2,402,589.6,400.3,589.6z"/>
<path id="XMLID_4_" class="st0" d="M523.5,378.8h-9c-1.1,0-2-0.9-2-2l0,0c0-1.1,0.9-2,2-2h9c1.1,0,2,0.9,2,2l0,0
	C525.5,377.9,524.6,378.8,523.5,378.8z"/>
</svg>
