<?xml version="1.0" encoding="utf-8"?>
<!-- Generator: Adobe Illustrator 23.1.1, SVG Export Plug-In . SVG Version: 6.00 Build 0)  -->
<svg version="1.1" id="Layer_1" xmlns="http://www.w3.org/2000/svg" xmlns:xlink="http://www.w3.org/1999/xlink" x="0px" y="0px"
	 viewBox="0 0 1000 1000" style="enable-background:new 0 0 1000 1000;" xml:space="preserve">
<style type="text/css">
	.st0{fill:#FFDAA9;}
	.st1{fill:#00233A;}
	.st2{fill:#FF6550;}
	.st3{opacity:0.4;fill:#FF7364;}
	.st4{fill:none;stroke:#00233A;stroke-width:10;stroke-linecap:round;stroke-linejoin:round;stroke-miterlimit:10;}
	.st5{fill:#E97E1C;}
	.st6{opacity:0.74;fill:#E8531F;}
	.st7{fill:#FFB845;}
	.st8{opacity:0.53;fill:#D89535;}
	.st9{opacity:0.6;fill:#EF8C3A;}
	.st10{fill:#FFD766;}
	.st11{opacity:0.38;fill:#FFB845;}
	.st12{fill:#FF9F48;}
	.st13{fill:#EF8C3A;}
	.st14{fill:#81440E;}
	.st15{fill:#663717;}
	.st16{fill:#A05720;}
	.st17{fill:#EF4D3C;}
	.st18{opacity:0.91;fill:#FF6550;}
	.st19{opacity:0.6;fill:#E8531F;}
</style>
<rect id="XMLID_39_" class="st0" width="1000" height="1000"/>
<g>
	<g>
		<g>
			<path class="st1" d="M63.2,959.2c0,2.5-1.2,3.7-2.6,3.7c-1.1,0-1.9-0.5-2.1-1.4c-0.4,0.5-1,0.8-1.8,0.8c-1.5,0-2.6-1.2-2.6-2.8
				c0-1.6,1.1-2.8,2.6-2.8c0.7,0,1.2,0.3,1.6,0.7v-0.5h1.6v3.9c0,0.8,0.3,1.4,1,1.4c0.9,0,1.7-0.9,1.7-3c0-3-2.3-5.3-5.4-5.3
				c-3.1,0-5.6,2.4-5.6,5.7c0,3.3,2.5,5.7,5.9,5.7c1.1,0,2.1-0.2,2.9-0.4v0.6c-0.8,0.3-1.7,0.4-2.9,0.4c-3.7,0-6.5-2.6-6.5-6.2
				c0-3.4,2.7-6.2,6.2-6.2C61.1,953.3,63.2,956.4,63.2,959.2z M58.3,959.5c0-0.8-0.6-1.4-1.3-1.4c-0.8,0-1.3,0.5-1.3,1.4
				c0,0.8,0.6,1.3,1.3,1.3C57.8,960.9,58.3,960.3,58.3,959.5z"/>
		</g>
		<g>
			<path class="st1" d="M69.4,955.1v2c-1.2-0.1-2.6,0.5-2.6,2.4v4.3h-1.9v-8.6h1.9v1.4C67.3,955.5,68.3,955.1,69.4,955.1z"/>
		</g>
		<g>
			<path class="st1" d="M74.6,962.3c1,0,1.8-0.5,2.2-1.1l1.5,0.9c-0.8,1.2-2.1,1.9-3.8,1.9c-2.8,0-4.7-1.9-4.7-4.5
				c0-2.5,1.8-4.5,4.5-4.5c2.6,0,4.3,2.1,4.3,4.5c0,0.3,0,0.5-0.1,0.8h-6.8C72.1,961.6,73.2,962.3,74.6,962.3z M76.9,958.8
				c-0.3-1.5-1.3-2.1-2.5-2.1c-1.4,0-2.3,0.8-2.6,2.1H76.9z"/>
		</g>
		<g>
			<path class="st1" d="M88.9,955.2v8.6h-1.9v-1.2c-0.7,0.9-1.7,1.5-3,1.5c-2.3,0-4.3-2-4.3-4.5c0-2.6,1.9-4.5,4.3-4.5
				c1.3,0,2.3,0.5,3,1.4v-1.2H88.9z M87.1,959.5c0-1.6-1.2-2.7-2.7-2.7c-1.5,0-2.7,1.1-2.7,2.7c0,1.6,1.2,2.7,2.7,2.7
				C85.9,962.3,87.1,961.1,87.1,959.5z"/>
		</g>
		<g>
			<path class="st1" d="M91.1,951.3H93v12.5h-1.9V951.3z"/>
		</g>
		<g>
			<path class="st1" d="M102.9,955.2l-3.3,8.6h-2.1l-3.3-8.6h2l2.4,6.5l2.4-6.5H102.9z"/>
		</g>
		<g>
			<path class="st1" d="M104.2,955.2h1.9v8.9c0,2.4-1.2,3.5-3.5,3.3v-1.8c1.1,0.1,1.7-0.3,1.7-1.5V955.2z M104,952.8
				c0-0.7,0.5-1.2,1.2-1.2c0.7,0,1.2,0.5,1.2,1.2c0,0.6-0.5,1.2-1.2,1.2C104.5,954,104,953.4,104,952.8z"/>
		</g>
		<g>
			<path class="st1" d="M116,955.2l-3.3,8.8c-0.8,2.2-2.2,3.3-4.2,3.2v-1.7c1.2,0.1,1.9-0.5,2.3-1.7l0.1-0.2l-3.6-8.4h2l2.6,6.2
				l2.2-6.2H116z"/>
		</g>
	</g>
	<g>
		<path class="st1" d="M211.9,938.7c0,2.1-1.5,3.8-3.6,3.8h-3v-7.6h3C210.4,934.9,211.9,936.6,211.9,938.7z M210.9,938.7
			c0-1.6-1.1-2.9-2.6-2.9h-2v5.7h2C209.8,941.6,210.9,940.3,210.9,938.7z"/>
		<path class="st1" d="M219.5,940.8h-3.4l-0.6,1.7h-1.1l2.8-7.6h1.1l2.8,7.6h-1.1L219.5,940.8z M219.2,939.9l-1.4-3.8l-1.4,3.8
			H219.2z"/>
		<path class="st1" d="M226.4,939.4v3.1h-1v-3.1l-2.7-4.5h1.1l2.1,3.6l2.1-3.6h1.1L226.4,939.4z"/>
		<path class="st1" d="M242,940.3c0,1.5-1.2,2.4-2.6,2.4c-1.1,0-2.1-0.5-2.5-1.6l0.9-0.5c0.2,0.8,0.8,1.1,1.7,1.1
			c0.9,0,1.6-0.5,1.6-1.4c0-0.9-0.7-1.4-1.6-1.4h-2.2l0.3-4h4.2v0.9h-3.3l-0.1,2h1.1C240.8,937.9,242,938.7,242,940.3z"/>
		<path class="st1" d="M244.9,941.7l2.7-2.7c0.6-0.6,1.1-1.2,1.1-1.9c0-0.9-0.6-1.4-1.4-1.4c-0.7,0-1.2,0.3-1.6,1l-0.8-0.5
			c0.5-1,1.4-1.5,2.4-1.5c1.2,0,2.4,0.8,2.4,2.3c0,0.9-0.6,1.8-1.4,2.5l-2,1.9h3.5v1h-4.9V941.7z"/>
	</g>
	<g>
		<path class="st1" d="M58.9,938.7c0,2.1-1.5,3.8-3.6,3.8h-3v-7.6h3C57.4,934.9,58.9,936.6,58.9,938.7z M57.9,938.7
			c0-1.6-1.1-2.9-2.6-2.9h-2v5.7h2C56.8,941.6,57.9,940.3,57.9,938.7z"/>
		<path class="st1" d="M67,941.6v1h-4.6v-7.6h4.5v1h-3.5v2.3h3.2v0.9h-3.2v2.4H67z"/>
		<path class="st1" d="M70,940.8l0.9-0.5c0.3,0.8,0.9,1.4,2,1.4c1.1,0,1.6-0.5,1.6-1.2c0-0.8-0.7-1-1.8-1.4
			c-1.2-0.4-2.4-0.8-2.4-2.2c0-1.4,1.1-2.2,2.4-2.2c1.3,0,2.2,0.7,2.6,1.7l-0.8,0.5c-0.3-0.7-0.8-1.2-1.7-1.2
			c-0.8,0-1.4,0.4-1.4,1.1c0,0.7,0.5,1,1.6,1.3c1.3,0.4,2.6,0.8,2.6,2.3c0,1.3-1.1,2.2-2.6,2.2C71.5,942.7,70.4,941.9,70,940.8z"/>
		<path class="st1" d="M80,934.9v7.6h-1v-7.6H80z"/>
		<path class="st1" d="M91.3,939.2c0,1.9-1.4,3.5-3.7,3.5c-2.4,0-4-1.8-4-4c0-2.2,1.7-4,4-4c1.4,0,2.7,0.8,3.3,1.8l-0.9,0.5
			c-0.4-0.8-1.4-1.4-2.4-1.4c-1.8,0-3,1.3-3,3c0,1.7,1.2,3,3,3c1.6,0,2.5-0.9,2.7-2h-2.8v-0.9h3.8V939.2z"/>
		<path class="st1" d="M100.6,934.9v7.6h-0.8l-3.9-5.7v5.7h-1v-7.6h0.8l3.9,5.7v-5.7H100.6z"/>
		<path class="st1" d="M109.1,941.6v1h-4.6v-7.6h4.5v1h-3.5v2.3h3.2v0.9h-3.2v2.4H109.1z"/>
		<path class="st1" d="M119.2,938.7c0,2.1-1.5,3.8-3.6,3.8h-3v-7.6h3C117.6,934.9,119.2,936.6,119.2,938.7z M118.2,938.7
			c0-1.6-1.1-2.9-2.6-2.9h-2v5.7h2C117.1,941.6,118.2,940.3,118.2,938.7z"/>
		<path class="st1" d="M133.2,940.4c0,1.2-1,2.2-2.2,2.2h-3.3v-7.6h3c1.2,0,2.1,0.9,2.1,2.1c0,0.7-0.3,1.2-0.8,1.6
			C132.7,938.9,133.2,939.5,133.2,940.4z M128.7,935.8v2.3h2c0.6,0,1.1-0.5,1.1-1.2c0-0.6-0.5-1.2-1.1-1.2H128.7z M132.2,940.3
			c0-0.7-0.5-1.2-1.2-1.2h-2.3v2.5h2.3C131.7,941.6,132.2,941,132.2,940.3z"/>
		<path class="st1" d="M139.4,939.4v3.1h-1v-3.1l-2.7-4.5h1.1l2.1,3.6l2.1-3.6h1.1L139.4,939.4z"/>
	</g>
	<g>
		<path class="st1" d="M212.7,961.8h-5.3l-0.9,2.5h-2.2l4.5-12.4h2.4l4.5,12.4h-2.2L212.7,961.8z M212,959.9l-2-5.6l-2,5.6H212z"/>
		<path class="st1" d="M224.7,955.4v8.9h-1.9v-1.1c-0.6,0.9-1.5,1.4-2.7,1.4c-2,0-3.4-1.3-3.4-3.6v-5.4h1.9v5.2c0,1.3,0.8,2.1,2,2.1
			c1.3,0,2.2-0.7,2.2-2.5v-4.7H224.7z"/>
		<path class="st1" d="M235,958.9v5.4h-1.9v-5.2c0-1.3-0.8-2.1-2-2.1c-1.3,0-2.2,0.7-2.2,2.5v4.7h-1.9v-8.9h1.9v1.1
			c0.6-0.9,1.5-1.4,2.7-1.4C233.6,955.2,235,956.6,235,958.9z"/>
		<path class="st1" d="M239.8,957.3v4.2c0,1.1,0.7,1.1,2.2,1v1.7c-2.9,0.4-4.1-0.5-4.1-2.8v-4.2h-1.6v-1.8h1.6v-1.9l1.9-0.6v2.5h2.2
			v1.8H239.8z"/>
		<path class="st1" d="M251.7,955.4v8.9h-1.9v-1.1c-0.6,0.9-1.5,1.4-2.7,1.4c-2,0-3.4-1.3-3.4-3.6v-5.4h1.9v5.2c0,1.3,0.8,2.1,2,2.1
			c1.3,0,2.2-0.7,2.2-2.5v-4.7H251.7z"/>
		<path class="st1" d="M266.9,958.8v5.5H265v-5.4c0-1.2-0.7-1.9-1.7-1.9c-1.1,0-1.9,0.7-1.9,2.3v5h-1.9v-5.4c0-1.2-0.6-1.9-1.7-1.9
			c-1.1,0-2,0.7-2,2.3v5h-1.9v-8.9h1.9v1.1c0.6-0.9,1.4-1.3,2.5-1.3c1.2,0,2,0.5,2.5,1.4c0.6-0.9,1.5-1.4,2.7-1.4
			C265.6,955.2,266.9,956.6,266.9,958.8z"/>
	</g>
	<g>
		<g>
			<g>
				<path class="st1" d="M846.1,938.7c0,2.1-1.5,3.8-3.6,3.8h-3v-7.6h3C844.6,934.9,846.1,936.6,846.1,938.7z M845.2,938.7
					c0-1.6-1.1-2.9-2.6-2.9h-2v5.7h2C844.1,941.6,845.2,940.3,845.2,938.7z"/>
			</g>
			<g>
				<path class="st1" d="M849.3,938.7c0-2.2,1.7-4,3.9-4c2.2,0,4,1.8,4,4c0,2.2-1.7,4-4,4C851,942.7,849.3,940.9,849.3,938.7z
					 M856.1,938.7c0-1.7-1.3-3-2.9-3c-1.7,0-2.9,1.3-2.9,3c0,1.7,1.3,3,2.9,3C854.9,941.7,856.1,940.4,856.1,938.7z"/>
			</g>
			<g>
				<path class="st1" d="M859.8,934.9h1.1l1.7,6.3l1.9-6.3h1l1.9,6.3l1.7-6.3h1.1l-2.2,7.6h-1.2l-1.8-6.1l-1.8,6.1H862L859.8,934.9z
					"/>
			</g>
			<g>
				<path class="st1" d="M879.3,934.9v7.6h-0.8l-3.9-5.7v5.7h-1v-7.6h0.8l3.9,5.7v-5.7H879.3z"/>
			</g>
			<g>
				<path class="st1" d="M887.5,941.6v1h-4.3v-7.6h1v6.7H887.5z"/>
			</g>
			<g>
				<path class="st1" d="M889.9,938.7c0-2.2,1.7-4,3.9-4c2.2,0,4,1.8,4,4c0,2.2-1.7,4-4,4C891.6,942.7,889.9,940.9,889.9,938.7z
					 M896.8,938.7c0-1.7-1.3-3-2.9-3c-1.7,0-2.9,1.3-2.9,3c0,1.7,1.3,3,2.9,3C895.5,941.7,896.8,940.4,896.8,938.7z"/>
			</g>
			<g>
				<path class="st1" d="M905.4,940.8H902l-0.6,1.7h-1.1l2.8-7.6h1.1l2.8,7.6H906L905.4,940.8z M905.1,939.9l-1.4-3.8l-1.4,3.8
					H905.1z"/>
			</g>
			<g>
				<path class="st1" d="M916.9,938.7c0,2.1-1.5,3.8-3.6,3.8h-3v-7.6h3C915.4,934.9,916.9,936.6,916.9,938.7z M915.9,938.7
					c0-1.6-1.1-2.9-2.6-2.9h-2v5.7h2C914.9,941.6,915.9,940.3,915.9,938.7z"/>
			</g>
			<g>
				<path class="st1" d="M926.5,935.8v2.5h3.2v1h-3.2v3.2h-1v-7.6h4.4v1H926.5z"/>
			</g>
			<g>
				<path class="st1" d="M936.2,939.6h-1.8v2.9h-1v-7.6h3c1.3,0,2.4,1.1,2.4,2.4c0,1-0.7,1.9-1.6,2.2l1.8,3.1h-1.1L936.2,939.6z
					 M934.4,938.7h2c0.8,0,1.4-0.6,1.4-1.4c0-0.8-0.6-1.4-1.4-1.4h-2V938.7z"/>
			</g>
			<g>
				<path class="st1" d="M941.9,938.7c0-2.2,1.7-4,3.9-4c2.2,0,4,1.8,4,4c0,2.2-1.7,4-4,4C943.6,942.7,941.9,940.9,941.9,938.7z
					 M948.8,938.7c0-1.7-1.3-3-2.9-3c-1.7,0-2.9,1.3-2.9,3c0,1.7,1.3,3,2.9,3C947.5,941.7,948.8,940.4,948.8,938.7z"/>
			</g>
			<g>
				<path class="st1" d="M960.4,942.5h-1v-6l-2.5,4.2h-0.1l-2.5-4.1v5.9h-1v-7.6h1.1l2.4,4l2.4-4h1.1V942.5z"/>
			</g>
		</g>
		<g>
			<g>
				<path class="st1" d="M839.3,952.9c0-0.7,0.5-1.2,1.2-1.2c0.7,0,1.2,0.5,1.2,1.2c0,0.7-0.5,1.2-1.2,1.2
					C839.9,954.1,839.3,953.6,839.3,952.9z M839.6,955.4h1.9v8.9h-1.9V955.4z"/>
			</g>
			<g>
				<path class="st1" d="M843.7,951.4h1.9v12.9h-1.9V951.4z"/>
			</g>
			<g>
				<path class="st1" d="M847.8,951.4h1.9v12.9h-1.9V951.4z"/>
			</g>
			<g>
				<path class="st1" d="M852,951.4h1.9v12.9H852V951.4z"/>
			</g>
			<g>
				<path class="st1" d="M864,955.4v8.9h-1.9v-1.1c-0.6,0.9-1.5,1.4-2.7,1.4c-2,0-3.4-1.3-3.4-3.6v-5.4h1.9v5.2c0,1.3,0.8,2.1,2,2.1
					c1.3,0,2.2-0.7,2.2-2.5v-4.7H864z"/>
			</g>
			<g>
				<path class="st1" d="M872.6,961.8c0,1.8-1.5,2.7-3.5,2.7c-1.8,0-3-0.8-3.6-2.1l1.6-1c0.3,0.8,1,1.3,2,1.3c0.8,0,1.5-0.3,1.5-1
					c0-1.6-4.8-0.7-4.8-3.9c0-1.7,1.4-2.7,3.2-2.7c1.5,0,2.7,0.7,3.3,1.8l-1.6,0.9c-0.3-0.7-0.9-1-1.7-1c-0.7,0-1.3,0.3-1.3,0.9
					C867.9,959.5,872.6,958.5,872.6,961.8z"/>
			</g>
			<g>
				<path class="st1" d="M876.7,957.3v4.2c0,1.1,0.7,1.1,2.2,1v1.7c-2.9,0.4-4.1-0.5-4.1-2.8v-4.2h-1.6v-1.8h1.6v-1.9l1.9-0.6v2.5
					h2.2v1.8H876.7z"/>
			</g>
			<g>
				<path class="st1" d="M885.4,955.3v2.1c-1.3-0.1-2.7,0.5-2.7,2.5v4.5h-1.9v-8.9h1.9v1.5C883.2,955.7,884.2,955.3,885.4,955.3z"/>
			</g>
			<g>
				<path class="st1" d="M895.3,955.4v8.9h-1.9V963c-0.7,0.9-1.7,1.5-3.1,1.5c-2.4,0-4.4-2-4.4-4.7c0-2.6,2-4.7,4.4-4.7
					c1.4,0,2.4,0.6,3.1,1.5v-1.3H895.3z M893.4,959.9c0-1.6-1.2-2.8-2.8-2.8c-1.6,0-2.8,1.2-2.8,2.8c0,1.6,1.2,2.8,2.8,2.8
					C892.2,962.7,893.4,961.5,893.4,959.9z"/>
			</g>
			<g>
				<path class="st1" d="M900.3,957.3v4.2c0,1.1,0.7,1.1,2.2,1v1.7c-2.9,0.4-4.1-0.5-4.1-2.8v-4.2h-1.6v-1.8h1.6v-1.9l1.9-0.6v2.5
					h2.2v1.8H900.3z"/>
			</g>
			<g>
				<path class="st1" d="M903.9,952.9c0-0.7,0.5-1.2,1.2-1.2c0.7,0,1.2,0.5,1.2,1.2c0,0.7-0.5,1.2-1.2,1.2
					C904.5,954.1,903.9,953.6,903.9,952.9z M904.2,955.4h1.9v8.9h-1.9V955.4z"/>
			</g>
			<g>
				<path class="st1" d="M907.8,959.9c0-2.6,2.1-4.7,4.7-4.7c2.6,0,4.7,2,4.7,4.7c0,2.6-2.1,4.7-4.7,4.7
					C909.9,964.5,907.8,962.5,907.8,959.9z M915.3,959.9c0-1.6-1.2-2.8-2.8-2.8c-1.6,0-2.8,1.2-2.8,2.8c0,1.6,1.2,2.8,2.8,2.8
					C914.1,962.7,915.3,961.5,915.3,959.9z"/>
			</g>
			<g>
				<path class="st1" d="M927,958.9v5.4h-1.9v-5.2c0-1.3-0.8-2.1-2-2.1c-1.3,0-2.2,0.7-2.2,2.5v4.7h-1.9v-8.9h1.9v1.1
					c0.6-0.9,1.5-1.4,2.7-1.4C925.5,955.2,927,956.6,927,958.9z"/>
			</g>
			<g>
				<path class="st1" d="M935.5,961.8c0,1.8-1.5,2.7-3.5,2.7c-1.8,0-3-0.8-3.6-2.1l1.6-1c0.3,0.8,1,1.3,2,1.3c0.8,0,1.5-0.3,1.5-1
					c0-1.6-4.8-0.7-4.8-3.9c0-1.7,1.4-2.7,3.2-2.7c1.5,0,2.7,0.7,3.3,1.8l-1.6,0.9c-0.3-0.7-0.9-1-1.7-1c-0.7,0-1.3,0.3-1.3,0.9
					C930.7,959.5,935.5,958.5,935.5,961.8z"/>
			</g>
			<g>
				<path class="st1" d="M936.8,963.2c0-0.7,0.6-1.3,1.3-1.3c0.7,0,1.3,0.6,1.3,1.3c0,0.7-0.6,1.3-1.3,1.3
					C937.4,964.5,936.8,963.9,936.8,963.2z"/>
			</g>
			<g>
				<path class="st1" d="M940.3,959.9c0-2.6,2-4.7,4.7-4.7c1.7,0,3.2,0.9,3.9,2.3l-1.6,1c-0.4-0.8-1.3-1.4-2.3-1.4
					c-1.6,0-2.7,1.2-2.7,2.8c0,1.6,1.2,2.8,2.7,2.8c1.1,0,1.9-0.5,2.4-1.4l1.6,0.9c-0.7,1.4-2.2,2.3-4,2.3
					C942.3,964.5,940.3,962.5,940.3,959.9z"/>
			</g>
			<g>
				<path class="st1" d="M949.7,959.9c0-2.6,2.1-4.7,4.7-4.7c2.6,0,4.7,2,4.7,4.7c0,2.6-2.1,4.7-4.7,4.7
					C951.8,964.5,949.7,962.5,949.7,959.9z M957.2,959.9c0-1.6-1.2-2.8-2.8-2.8s-2.8,1.2-2.8,2.8c0,1.6,1.2,2.8,2.8,2.8
					S957.2,961.5,957.2,959.9z"/>
			</g>
		</g>
	</g>
</g>
<path id="XMLID_38_" class="st2" d="M802,613.8L802,613.8c-26.7,0.2-46.7-12.8-63.3-30.9c-3.2-3.6-6.3-8.4-9.1-13.8
	c-14.3-27-18.1-58.3-11.6-88.2c10.7-49,34.1-136.8,74.8-201c4.3-6.8,14.2-6.8,18.5,0c40.6,64.2,64,152,74.8,201
	c6.5,29.8,2.6,61.2-11.6,88.2c-2.8,5.3-5.9,10.1-9.1,13.8C848.7,601,828.7,614,802,613.8z"/>
<path id="XMLID_131_" class="st3" d="M884.9,480.9c-10.7-49-34.1-136.8-74.8-201c-3.2-5-9.5-6.3-14.3-3.8c3.8,3.1,7,7.1,9.4,12
	c31.1,63.4,50,136,59.6,179.9c7.1,32.3,2.9,66.1-12.4,95.4c-3.2,6.1-6.6,11.6-10.3,15.8c-15.6,17-34,30-57.4,33.1
	c5.1,1.1,10.4,1.6,16.1,1.6h0c26.7,0.2,46.7-12.8,63.3-30.9c3.2-3.6,6.3-8.4,9.1-13.8C887.6,542.1,891.5,510.8,884.9,480.9z"/>
<path id="XMLID_19_" class="st4" d="M802,613.8L802,613.8c-26.7,0.2-46.7-12.8-63.3-30.9c-3.2-3.6-6.3-8.4-9.1-13.8
	c-14.3-27-18.1-58.3-11.6-88.2c10.7-49,34.1-136.8,74.8-201c4.3-6.8,14.2-6.8,18.5,0c40.6,64.2,64,152,74.8,201
	c6.5,29.8,2.6,61.2-11.6,88.2c-2.8,5.3-5.9,10.1-9.1,13.8C848.7,601,828.7,614,802,613.8z"/>
<line id="XMLID_22_" class="st4" x1="802" y1="557" x2="844" y2="526.7"/>
<line id="XMLID_23_" class="st4" x1="802" y1="515" x2="764.5" y2="486"/>
<path id="XMLID_42_" class="st5" d="M708.9,641.8H645c-18.8,0-34.1-15.3-34.1-34.1v-120c0-18.8,15.3-34.1,34.1-34.1h63.8
	c18.8,0,34.1,15.3,34.1,34.1v120C743,626.5,727.7,641.8,708.9,641.8z"/>
<path id="XMLID_134_" class="st6" d="M707.9,453.6h-15c18.8,0,34.1,15.3,34.1,34.1v120c0,18.8-15.3,34.1-34.1,34.1h15
	c18.8,0,34.1-15.3,34.1-34.1v-120C742,468.8,726.7,453.6,707.9,453.6z"/>
<path id="XMLID_21_" class="st4" d="M708.9,641.8H645c-18.8,0-34.1-15.3-34.1-34.1v-120c0-18.8,15.3-34.1,34.1-34.1h63.8
	c18.8,0,34.1,15.3,34.1,34.1v120C743,626.5,727.7,641.8,708.9,641.8z"/>
<line id="XMLID_28_" class="st4" x1="677" y1="613.8" x2="705" y2="588"/>
<line id="XMLID_29_" class="st4" x1="677" y1="571" x2="646" y2="557"/>
<line id="XMLID_20_" class="st4" x1="802" y1="726" x2="802" y2="444"/>
<line id="XMLID_26_" class="st4" x1="677" y1="527" x2="677" y2="726"/>
<ellipse id="XMLID_36_" class="st7" cx="202.7" cy="454.8" rx="60" ry="160"/>
<path id="XMLID_149_" class="st8" d="M202.7,294.8c-0.5,0-1,0-1.6,0.1c27.7,14.2,48.6,79.1,48.6,157.1c0,87-26,157.7-58.4,159.9
	c3.7,1.9,7.5,2.9,11.4,2.9c33.1,0,60-71.6,60-160S235.8,294.8,202.7,294.8z"/>
<ellipse id="XMLID_1_" class="st4" cx="202.7" cy="454.8" rx="60" ry="160"/>
<line id="XMLID_7_" class="st4" x1="202.4" y1="402" x2="202.4" y2="715"/>
<line id="XMLID_8_" class="st4" x1="202.7" y1="500" x2="226.4" y2="469"/>
<line id="XMLID_9_" class="st4" x1="202.7" y1="561" x2="177.1" y2="534.3"/>
<line id="XMLID_10_" class="st4" x1="202.4" y1="454.3" x2="181.7" y2="431"/>
<circle id="XMLID_6_" class="st9" cx="232.7" cy="428.6" r="8.3"/>
<circle id="XMLID_143_" class="st10" cx="177.1" cy="390" r="5.3"/>
<circle id="XMLID_144_" class="st10" cx="211.6" cy="378.6" r="4.5"/>
<circle id="XMLID_5_" class="st11" cx="647.8" cy="494.7" r="10.2"/>
<circle id="XMLID_138_" class="st11" cx="679.8" cy="500.6" r="7.3"/>
<circle id="XMLID_140_" class="st6" cx="647.8" cy="591.5" r="7.3"/>
<circle id="XMLID_30_" class="st6" cx="701.5" cy="533.1" r="6.1"/>
<circle id="XMLID_111_" class="st9" cx="171" cy="484.5" r="8.3"/>
<circle id="XMLID_12_" class="st9" cx="189.7" cy="360.3" r="8.3"/>
<circle id="XMLID_13_" class="st9" cx="226.7" cy="526.3" r="8.3"/>
<circle id="XMLID_43_" class="st12" cx="256.3" cy="355.3" r="23.2"/>
<path id="XMLID_146_" class="st13" d="M256.3,332.1c-0.2,0-0.3,0-0.5,0c6.7,4.1,11.2,11.5,11.2,19.9c0,12.6-10.1,22.9-22.7,23.2
	c3.5,2.1,7.6,3.3,12,3.3c12.8,0,23.2-10.4,23.2-23.2S269.1,332.1,256.3,332.1z"/>
<circle id="XMLID_11_" class="st4" cx="256.3" cy="355.3" r="23.2"/>
<path id="XMLID_59_" class="st2" d="M643.5,726c0-26.2,21.2-47.3,47.3-47.3s47.3,21.1,47.3,47.3H643.5z"/>
<path id="XMLID_236_" class="st3" d="M690.8,678.7c-4.9,0-9.5,0.7-14,2.1c19.3,5.9,33.3,23.9,33.3,45.2h27.9
	C738.1,699.8,716.9,678.7,690.8,678.7z"/>
<path id="XMLID_57_" class="st4" d="M643.5,726c0-26.2,21.2-47.3,47.3-47.3s47.3,21.1,47.3,47.3H643.5z"/>
<path id="XMLID_100_" class="st7" d="M714.9,726c0-17.4,14-31.3,31.3-31.3c17.3,0,31.3,14,31.3,31.3H714.9z"/>
<path id="XMLID_239_" class="st8" d="M746.2,694.7c-2.5,0-4.9,0.3-7.2,0.8c13.8,3.2,24.2,15.6,24.2,30.5h14.4
	C777.6,708.6,763.5,694.7,746.2,694.7z"/>
<path id="XMLID_61_" class="st4" d="M714.9,726c0-17.4,14-31.3,31.3-31.3c17.3,0,31.3,14,31.3,31.3H714.9z"/>
<path id="XMLID_105_" class="st7" d="M787.6,726c0-12.7,10.2-22.8,22.8-22.8c12.6,0,22.8,10.2,22.8,22.8H787.6z"/>
<path id="XMLID_102_" class="st4" d="M787.6,726c0-12.7,10.2-22.8,22.8-22.8c12.6,0,22.8,10.2,22.8,22.8H787.6z"/>
<path id="XMLID_15_" class="st7" d="M234.7,726c0-12.6,10.2-22.8,22.8-22.8s22.8,10.2,22.8,22.8H234.7z"/>
<path id="XMLID_17_" class="st4" d="M234.7,726c0-12.6,10.2-22.8,22.8-22.8s22.8,10.2,22.8,22.8H234.7z"/>
<path id="XMLID_66_" class="st1" d="M349.9,726c0-8.1,6.5-14.6,14.6-14.6c8.1,0,14.6,6.5,14.6,14.6H349.9z"/>
<path id="XMLID_229_" class="st1" d="M324.3,724.7c0-6.7,5.4-12.1,12.1-12.1c6.7,0,12.1,5.4,12.1,12.1H324.3z"/>
<path id="XMLID_41_" class="st4" d="M349.9,726c0-8.1,6.5-14.6,14.6-14.6c8.1,0,14.6,6.5,14.6,14.6H349.9z"/>
<path id="XMLID_129_" class="st1" d="M386.8,726c0-12.6,10.2-22.8,22.8-22.8s22.8,10.2,22.8,22.8H386.8z"/>
<path id="XMLID_223_" class="st1" d="M581.1,725.3c0-8.7,7-15.7,15.7-15.7s15.7,7,15.7,15.7H581.1z"/>
<path id="XMLID_224_" class="st1" d="M540.1,725.3c0-11.4,9.3-20.7,20.7-20.7s20.7,9.3,20.7,20.7H540.1z"/>
<path id="XMLID_68_" class="st4" d="M386.8,726c0-12.6,10.2-22.8,22.8-22.8s22.8,10.2,22.8,22.8H386.8z"/>
<line id="XMLID_60_" class="st4" x1="527.7" y1="726" x2="873.4" y2="726"/>
<line id="XMLID_58_" class="st4" x1="485.4" y1="726" x2="510.4" y2="726"/>
<line id="XMLID_25_" class="st4" x1="110.4" y1="726" x2="470.4" y2="726"/>
<g>
	<rect id="XMLID_48_" x="334" y="676.5" class="st14" width="20" height="49.5"/>
	<rect id="XMLID_71_" x="334" y="676.5" class="st14" width="20" height="49.5"/>
	<rect id="XMLID_89_" x="334" y="676.5" class="st15" width="20" height="15.2"/>
	<rect id="XMLID_47_" x="540.8" y="676.5" class="st14" width="20" height="49.5"/>
	<rect id="XMLID_92_" x="540.8" y="676.5" class="st15" width="20" height="15.2"/>
	<rect id="XMLID_34_" x="334" y="676.5" class="st4" width="20" height="49.5"/>
	<rect id="XMLID_37_" x="540.8" y="676.5" class="st4" width="20" height="49.5"/>
	<rect id="XMLID_44_" x="346.9" y="547.9" class="st14" width="14" height="106.1"/>
	<rect id="XMLID_98_" x="346.9" y="569.2" class="st15" width="14" height="67.8"/>
	<rect id="XMLID_31_" x="346.9" y="547.9" class="st4" width="14" height="106.1"/>
	<rect id="XMLID_45_" x="533.9" y="547.9" class="st14" width="14" height="106.1"/>
	<rect id="XMLID_99_" x="533.9" y="564" class="st15" width="14" height="73"/>
	<rect id="XMLID_35_" x="533.9" y="547.9" class="st4" width="14" height="106.1"/>
	<rect id="XMLID_24_" x="301.2" y="564.1" class="st14" width="280" height="30"/>
	<rect id="XMLID_49_" x="301.2" y="564.1" class="st16" width="280" height="10.2"/>
	<rect id="XMLID_27_" x="301.2" y="564.1" class="st4" width="280" height="30"/>
	<rect id="XMLID_18_" x="301.2" y="594.1" class="st14" width="280" height="30"/>
	<rect id="XMLID_51_" x="301.2" y="594.1" class="st16" width="280" height="9.7"/>
	<rect id="XMLID_32_" x="301.2" y="594.1" class="st4" width="280" height="30"/>
	<rect id="XMLID_46_" x="279.2" y="656.5" class="st14" width="336.4" height="20"/>
	<rect id="XMLID_94_" x="279.2" y="656.5" class="st14" width="336.4" height="20"/>
	<rect id="XMLID_97_" x="279.2" y="656.5" class="st16" width="336.4" height="8"/>
	<rect id="XMLID_33_" x="279.2" y="656.5" class="st4" width="336.4" height="20"/>
	<circle id="XMLID_145_" class="st15" cx="355.2" cy="580.2" r="5.3"/>
	<circle id="XMLID_175_" class="st15" cx="355.2" cy="608" r="5.3"/>
	<circle id="XMLID_217_" class="st15" cx="542.2" cy="580.2" r="5.3"/>
	<circle id="XMLID_208_" class="st15" cx="542.2" cy="608" r="5.3"/>
	<circle id="XMLID_67_" class="st1" cx="353.9" cy="580.2" r="4"/>
	<circle id="XMLID_74_" class="st1" cx="353.9" cy="608" r="4"/>
	<circle id="XMLID_80_" class="st1" cx="540.9" cy="580.2" r="4"/>
	<circle id="XMLID_77_" class="st1" cx="540.9" cy="608" r="4"/>
</g>
<line id="XMLID_114_" class="st4" x1="596.8" y1="755.1" x2="602.9" y2="755.1"/>
<line id="XMLID_119_" class="st4" x1="443.7" y1="755.1" x2="577.1" y2="755.1"/>
<line id="XMLID_107_" class="st4" x1="397.4" y1="755.1" x2="420.3" y2="755.1"/>
<line id="XMLID_121_" class="st4" x1="613.9" y1="332.1" x2="625.4" y2="332.1"/>
<line id="XMLID_123_" class="st4" x1="646.4" y1="332.1" x2="682.9" y2="332.1"/>
<line id="XMLID_228_" class="st4" x1="43.5" y1="408.2" x2="78" y2="408.2"/>
<line id="XMLID_226_" class="st4" x1="94.3" y1="408.2" x2="112.5" y2="408.2"/>
<line id="XMLID_227_" class="st4" x1="939.2" y1="399.1" x2="946" y2="399.1"/>
<line id="XMLID_108_" class="st4" x1="903.6" y1="399.1" x2="923.3" y2="399.1"/>
<line id="XMLID_127_" class="st4" x1="652.6" y1="368.7" x2="713.2" y2="368.7"/>
<path id="XMLID_54_" class="st4" d="M401,385.6c-0.1-0.8-0.2-1.7-0.2-2.6c0-8.9,7.2-16.2,16.2-16.2c8.9,0,16.2,7.2,16.2,16.2
	c0,8.9-7.2,16.2-16.2,16.2"/>
<line id="XMLID_132_" class="st4" x1="347.8" y1="399.1" x2="417" y2="399.1"/>
<path id="XMLID_62_" class="st4" d="M871.5,354.6c-0.1-0.8-0.2-1.7-0.2-2.6c0-8.9,7.2-16.2,16.2-16.2s16.2,7.2,16.2,16.2
	s-7.2,16.2-16.2,16.2"/>
<line id="XMLID_50_" class="st4" x1="828.4" y1="368.2" x2="887.4" y2="368.2"/>
<path id="XMLID_139_" class="st4" d="M443.3,442.1c-0.1,0.8-0.2,1.7-0.2,2.6c0,8.9,7.2,16.2,16.2,16.2s16.2-7.2,16.2-16.2
	s-7.2-16.2-16.2-16.2"/>
<line id="XMLID_136_" class="st4" x1="397.6" y1="428.6" x2="459.2" y2="428.6"/>
<line id="XMLID_141_" class="st4" x1="375.4" y1="428.6" x2="382.7" y2="428.6"/>
<line id="XMLID_142_" class="st4" x1="321.7" y1="428.6" x2="357.4" y2="428.6"/>
<line id="XMLID_133_" class="st4" x1="362.3" y1="379.1" x2="298.2" y2="379.1"/>
<line id="XMLID_147_" class="st4" x1="94.3" y1="360.1" x2="118.5" y2="360.1"/>
<circle id="XMLID_120_" class="st17" cx="886.7" cy="479.5" r="23.8"/>
<circle id="XMLID_40_" class="st4" cx="886.7" cy="479.5" r="23.8"/>
<ellipse id="XMLID_3_" class="st5" cx="162.7" cy="669.9" rx="34.3" ry="56.1"/>
<path id="XMLID_233_" class="st6" d="M162.7,613.8c-0.8,0-1.6,0.1-2.3,0.1c13.4,7.6,23,28.5,23,52.9c0,29.7-14.1,54-32,55.9
	c3.5,2,7.4,3.1,11.3,3.1c18.9,0,34.3-25.1,34.3-56.1C197,638.9,181.6,613.8,162.7,613.8z"/>
<ellipse id="XMLID_2_" class="st4" cx="162.7" cy="669.9" rx="34.3" ry="56.1"/>
<path id="XMLID_14_" class="st2" d="M166.3,726c0-19,15.3-34.3,34.3-34.3s34.3,15.3,34.3,34.3H166.3z"/>
<path id="XMLID_234_" class="st3" d="M200.5,691.7c-3,0-5.8,0.4-8.6,1.1c14.8,3.8,25.7,17.2,25.7,33.2h17.2
	C234.8,707,219.4,691.7,200.5,691.7z"/>
<path id="XMLID_16_" class="st4" d="M166.3,726c0-19,15.3-34.3,34.3-34.3s34.3,15.3,34.3,34.3H166.3z"/>
<circle id="XMLID_4_" class="st18" cx="791.2" cy="382" r="7.9"/>
<circle id="XMLID_178_" class="st18" cx="774.7" cy="418.4" r="10.2"/>
<circle id="XMLID_184_" class="st18" cx="828.4" cy="500" r="10.2"/>
<circle id="XMLID_181_" class="st3" cx="833.2" cy="444.7" r="10.2"/>
<circle id="XMLID_168_" class="st11" cx="159.7" cy="656.5" r="8.3"/>
<circle id="XMLID_173_" class="st19" cx="147.6" cy="670.8" r="4.9"/>
<circle id="XMLID_171_" class="st11" cx="168" cy="684.1" r="5.8"/>
</svg>
