<?xml version="1.0" encoding="utf-8"?>
<!-- Generator: Adobe Illustrator 23.1.1, SVG Export Plug-In . SVG Version: 6.00 Build 0)  -->
<svg version="1.1" id="Layer_1" xmlns="http://www.w3.org/2000/svg" xmlns:xlink="http://www.w3.org/1999/xlink" x="0px" y="0px"
	 viewBox="0 0 1000 1000" style="enable-background:new 0 0 1000 1000;" xml:space="preserve">
<style type="text/css">
	.st0{fill:#2B9CF2;}
	.st1{fill:none;stroke:#4E5A7D;stroke-width:6;stroke-linecap:round;stroke-linejoin:round;stroke-miterlimit:10;}
	.st2{fill:#4E5A7D;}
	.st3{fill:#BCAFAA;}
	.st4{fill:#A09592;}
	.st5{fill:#D1CAC7;}
	.st6{fill:#E08484;}
	.st7{fill:#E99697;}
	.st8{fill:#D87171;}
	.st9{fill:#FBE3D5;}
	.st10{fill:#FFF4EE;}
	.st11{fill:#F9D1BD;}
	.st12{fill:none;stroke:#4E5A7D;stroke-width:13;stroke-linecap:round;stroke-linejoin:round;stroke-miterlimit:10;}
	.st13{fill:none;stroke:#4E5A7D;stroke-width:10;stroke-linecap:round;stroke-linejoin:round;stroke-miterlimit:10;}
	.st14{fill:none;stroke:#4E5A7D;stroke-width:9;stroke-linecap:round;stroke-linejoin:round;stroke-miterlimit:10;}
	.st15{fill:#FFFFFF;}
	.st16{fill:none;stroke:#4E5A7D;stroke-width:4;stroke-linecap:round;stroke-linejoin:round;stroke-miterlimit:10;}
	.st17{fill:none;stroke:#FFFFFF;stroke-width:2;stroke-linecap:round;stroke-linejoin:round;stroke-miterlimit:10;}
	.st18{fill:none;stroke:#4E5A7D;stroke-width:5;stroke-linecap:round;stroke-linejoin:round;stroke-miterlimit:10;}
	
		.st19{fill:none;stroke:#FFFFFF;stroke-width:3;stroke-linecap:round;stroke-linejoin:round;stroke-miterlimit:10;stroke-dasharray:18,20;}
</style>
<rect id="XMLID_133_" class="st0" width="1000" height="1000"/>
<line id="XMLID_382_" class="st1" x1="228.6" y1="776.5" x2="708.6" y2="776.5"/>
<line id="XMLID_381_" class="st1" x1="735.6" y1="776.5" x2="785" y2="776.5"/>
<line id="XMLID_380_" class="st1" x1="174.1" y1="776.5" x2="208.8" y2="776.5"/>
<line id="XMLID_379_" class="st1" x1="802.4" y1="776.5" x2="811" y2="776.5"/>
<path id="XMLID_390_" class="st2" d="M511.4,453.1h-24.2c-1.2,0-2.1-1-2.1-2.1v-51c0-1.2,1-2.1,2.1-2.1h24.2c1.2,0,2.1,1,2.1,2.1v51
	C513.5,452.1,512.6,453.1,511.4,453.1z"/>
<path id="XMLID_335_" class="st1" d="M511.4,453.1h-24.2c-1.2,0-2.1-1-2.1-2.1v-51c0-1.2,1-2.1,2.1-2.1h24.2c1.2,0,2.1,1,2.1,2.1v51
	C513.5,452.1,512.6,453.1,511.4,453.1z"/>
<path id="XMLID_394_" class="st3" d="M543,420.1h-87.4c-9.4,0-17.1-7.6-17.1-17.1v-10.3c0-9.4,7.6-17.1,17.1-17.1H543
	c9.4,0,17.1,7.6,17.1,17.1V403C560,412.4,552.4,420.1,543,420.1z"/>
<path id="XMLID_330_" class="st4" d="M543,410.8h-87.4c-9.4,0-17.1-7.6-17.1-17.1v9.3c0,9.4,7.6,17.1,17.1,17.1H543
	c9.4,0,17.1-7.6,17.1-17.1v-9.3C560,403.2,552.4,410.8,543,410.8z"/>
<path id="XMLID_329_" class="st5" d="M543,375.7h-87.4c-9.4,0-17.1,7.6-17.1,17.1V403c0,0.2,0,0.3,0,0.5c0.3-9.2,7.8-16.5,17-16.5
	H543c9.2,0,16.7,7.4,17,16.5c0-0.2,0-0.3,0-0.5v-10.3C560,383.3,552.4,375.7,543,375.7z"/>
<path id="XMLID_336_" class="st1" d="M543,420.1h-87.4c-9.4,0-17.1-7.6-17.1-17.1v-10.3c0-9.4,7.6-17.1,17.1-17.1H543
	c9.4,0,17.1,7.6,17.1,17.1V403C560,412.4,552.4,420.1,543,420.1z"/>
<g id="XMLID_257_">
	
		<rect id="XMLID_255_" x="571.5" y="448.1" transform="matrix(0.866 0.5 -0.5 0.866 309.8412 -228.067)" class="st2" width="18" height="32"/>
	
		<rect id="XMLID_31_" x="571.5" y="448.1" transform="matrix(0.866 0.5 -0.5 0.866 309.8412 -228.067)" class="st1" width="18" height="32"/>
	<path id="XMLID_256_" class="st6" d="M600,456.9l-23-13.3c-4.8-2.8-6.4-8.8-3.6-13.6l0.8-1.4c2.8-4.8,8.8-6.4,13.6-3.6l23,13.3
		c4.8,2.8,6.4,8.8,3.6,13.6l-0.8,1.4C610.9,458,604.8,459.7,600,456.9z"/>
	<path id="XMLID_365_" class="st6" d="M600,456.9l-23-13.3c-4.8-2.8-6.4-8.8-3.6-13.6l0.8-1.4c2.8-4.8,8.8-6.4,13.6-3.6l23,13.3
		c4.8,2.8,6.4,8.8,3.6,13.6l-0.8,1.4C610.9,458,604.8,459.7,600,456.9z"/>
	<path id="XMLID_375_" class="st7" d="M572.3,435.3l0.8-1.4c2.8-4.8,8.8-6.4,13.6-3.6l23,13.3c2.7,1.6,4.4,4.2,4.9,7
		c2.5-4.7,0.9-10.7-3.8-13.4l-23-13.3c-4.8-2.8-10.9-1.1-13.6,3.6l-0.8,1.4c-1.2,2.1-1.6,4.4-1.2,6.6
		C572.2,435.5,572.2,435.4,572.3,435.3z"/>
	<path id="XMLID_254_" class="st1" d="M600,456.9l-23-13.3c-4.8-2.8-6.4-8.8-3.6-13.6l0.8-1.4c2.8-4.8,8.8-6.4,13.6-3.6l23,13.3
		c4.8,2.8,6.4,8.8,3.6,13.6l-0.8,1.4C610.9,458,604.8,459.7,600,456.9z"/>
</g>
<g id="XMLID_17_">
	
		<rect id="XMLID_20_" x="410.5" y="448.1" transform="matrix(-0.866 0.5 -0.5 -0.866 1014.868 656.3429)" class="st2" width="18" height="32"/>
	
		<rect id="XMLID_109_" x="410.5" y="448.1" transform="matrix(-0.866 0.5 -0.5 -0.866 1014.868 656.3429)" class="st1" width="18" height="32"/>
	<path id="XMLID_19_" class="st6" d="M400,456.9l23-13.3c4.8-2.8,6.4-8.8,3.6-13.6l-0.8-1.4c-2.8-4.8-8.8-6.4-13.6-3.6l-23,13.3
		c-4.8,2.8-6.4,8.8-3.6,13.6l0.8,1.4C389.1,458,395.2,459.7,400,456.9z"/>
	<path id="XMLID_364_" class="st6" d="M400,456.9l23-13.3c4.8-2.8,6.4-8.8,3.6-13.6l-0.8-1.4c-2.8-4.8-8.8-6.4-13.6-3.6l-23,13.3
		c-4.8,2.8-6.4,8.8-3.6,13.6l0.8,1.4C389.1,458,395.2,459.7,400,456.9z"/>
	<path id="XMLID_372_" class="st7" d="M389.6,444.6l23-13.3c4.8-2.8,10.9-1.1,13.6,3.6l0.8,1.4c0.2,0.4,0.4,0.9,0.6,1.3
		c0.7-2.5,0.4-5.2-1-7.6l-0.8-1.4c-2.8-4.8-8.8-6.4-13.6-3.6l-23,13.3c-4.3,2.5-6.1,7.8-4.3,12.3C385.6,448.2,387.2,446,389.6,444.6
		z"/>
	<path id="XMLID_18_" class="st1" d="M400,456.9l23-13.3c4.8-2.8,6.4-8.8,3.6-13.6l-0.8-1.4c-2.8-4.8-8.8-6.4-13.6-3.6l-23,13.3
		c-4.8,2.8-6.4,8.8-3.6,13.6l0.8,1.4C389.1,458,395.2,459.7,400,456.9z"/>
</g>
<g id="XMLID_464_">
	<g id="XMLID_476_">
		<line id="XMLID_477_" class="st1" x1="544.1" y1="376" x2="544.1" y2="420.1"/>
	</g>
	<g id="XMLID_474_">
		<line id="XMLID_475_" class="st1" x1="526.1" y1="376" x2="526.1" y2="420.1"/>
	</g>
	<g id="XMLID_471_">
		<line id="XMLID_472_" class="st1" x1="508.1" y1="376" x2="508.1" y2="420.1"/>
	</g>
	<g id="XMLID_469_">
		<line id="XMLID_470_" class="st1" x1="490.1" y1="376" x2="490.1" y2="420.1"/>
	</g>
	<g id="XMLID_467_">
		<line id="XMLID_468_" class="st1" x1="472.1" y1="376" x2="472.1" y2="420.1"/>
	</g>
	<g id="XMLID_465_">
		<line id="XMLID_466_" class="st1" x1="454.1" y1="376" x2="454.1" y2="420.1"/>
	</g>
</g>
<circle id="XMLID_16_" class="st6" cx="499.3" cy="609.8" r="166.7"/>
<path id="XMLID_368_" class="st8" d="M499.3,763.2c-89.8,0-163-71-166.5-160c-0.1,2.2-0.1,4.4-0.1,6.7
	c0,92.1,74.6,166.7,166.7,166.7c92.1,0,166.7-74.6,166.7-166.7c0-2.2-0.1-4.5-0.1-6.7C662.3,692.1,589.1,763.2,499.3,763.2z"/>
<path id="XMLID_367_" class="st7" d="M499.3,454c90.2,0,163.7,71.7,166.6,161.3c0.1-1.8,0.1-3.6,0.1-5.4
	c0-92.1-74.6-166.7-166.7-166.7c-92.1,0-166.7,74.6-166.7,166.7c0,1.8,0,3.6,0.1,5.4C335.6,525.7,409,454,499.3,454z"/>
<circle id="XMLID_350_" class="st9" cx="499.3" cy="609.8" r="131.8"/>
<path id="XMLID_370_" class="st10" d="M499.3,725.3c-70,0-127.3-54.6-131.5-123.6c-0.2,2.7-0.3,5.4-0.3,8.1
	c0,72.8,59,131.8,131.8,131.8c72.8,0,131.8-59,131.8-131.8c0-2.7-0.1-5.4-0.3-8.1C626.6,670.7,569.3,725.3,499.3,725.3z"/>
<path id="XMLID_369_" class="st11" d="M499.3,494.9c69.9,0,127.1,54.5,131.5,123.3c0.2-2.8,0.3-5.6,0.3-8.4
	c0-72.8-59-131.8-131.8-131.8c-72.8,0-131.8,59-131.8,131.8c0,2.8,0.1,5.6,0.3,8.4C372.2,549.4,429.4,494.9,499.3,494.9z"/>
<line id="XMLID_383_" class="st12" x1="500" y1="607.1" x2="500" y2="656.7"/>
<line id="XMLID_378_" class="st12" x1="500" y1="607.1" x2="500" y2="533.5"/>
<circle id="XMLID_334_" class="st1" cx="499.3" cy="609.8" r="131.8"/>
<g id="XMLID_14_">
	<line id="XMLID_340_" class="st13" x1="500" y1="481.9" x2="500" y2="508"/>
	<line id="XMLID_15_" class="st13" x1="500" y1="711.7" x2="500" y2="737.8"/>
</g>
<g id="XMLID_13_">
	<line id="XMLID_78_" class="st13" x1="627.9" y1="609.8" x2="601.9" y2="609.8"/>
	<line id="XMLID_77_" class="st13" x1="398.1" y1="609.8" x2="372.1" y2="609.8"/>
</g>
<g id="XMLID_388_">
	<line id="XMLID_391_" class="st1" x1="592.8" y1="517" x2="583.1" y2="526.8"/>
	<path id="XMLID_393_" class="st1" d="M592.8,517"/>
	<path id="XMLID_387_" class="st1" d="M604.3,505.5"/>
	<line id="XMLID_389_" class="st1" x1="416.9" y1="692.9" x2="406.5" y2="703.4"/>
</g>
<g id="XMLID_385_">
	<line id="XMLID_392_" class="st1" x1="592.8" y1="702.6" x2="583.1" y2="692.9"/>
	<line id="XMLID_386_" class="st1" x1="416.9" y1="526.8" x2="406.5" y2="516.3"/>
</g>
<circle id="XMLID_12_" class="st9" cx="500" cy="607.1" r="13.5"/>
<circle id="XMLID_11_" class="st14" cx="500" cy="607.1" r="13.5"/>
<circle id="XMLID_384_" class="st9" cx="500" cy="656.7" r="9.3"/>
<circle id="XMLID_10_" class="st1" cx="500" cy="656.7" r="9.3"/>
<circle id="XMLID_306_" class="st1" cx="499.3" cy="609.8" r="166.7"/>
<g id="XMLID_397_">
	<path id="XMLID_374_" class="st15" d="M520.4,284.1c-25.3,2.4-50.8,2.4-76.1,0c-9.8-0.9-17.7-6.8-19.4-14.6
		c-4.4-20.4-4.4-39.9,0-60.3c1.7-7.7,9.6-13.6,19.4-14.6c25.3-2.4,50.8-2.4,76.1,0c9.8,0.9,17.7,6.8,19.4,14.6
		c4.4,20.4,4.4,39.9,0,60.3C538.2,277.3,530.2,283.2,520.4,284.1z"/>
	<path id="XMLID_371_" class="st1" d="M520.4,284.1c-25.3,2.4-50.8,2.4-76.1,0c-9.8-0.9-17.7-6.8-19.4-14.6
		c-4.4-20.4-4.4-39.9,0-60.3c1.7-7.7,9.6-13.6,19.4-14.6c25.3-2.4,50.8-2.4,76.1,0c9.8,0.9,17.7,6.8,19.4,14.6
		c4.4,20.4,4.4,39.9,0,60.3C538.2,277.3,530.2,283.2,520.4,284.1z"/>
	<path id="XMLID_366_" class="st1" d="M477.6,220.1l25.2,13.6c4.7,2.6,4.7,8.9,0,11.5l-25.2,13.6c-4.7,2.6-10.6-0.6-10.6-5.7v-27.2
		C466.9,220.7,472.9,217.5,477.6,220.1z"/>
</g>
<g id="XMLID_398_">
	<path id="XMLID_376_" class="st15" d="M235.9,495.8c0,0-45.1,6.9-52.6-0.7c-12.3-12.4,8.6-17.5,7.1-29.4
		c-3.2-24.9-1.7-52.9,8.2-65.4c0.1-0.1,0.2-0.2,0.3-0.4c11.9-14.7,33.7-17.5,48.9-6.2c0.1,0.1,0.3,0.2,0.4,0.3
		c12.7,9.7,21.1,36.4,24.3,61.3c1.5,11.9,23,11.7,14.2,26.7C281.3,491.2,235.9,495.8,235.9,495.8z"/>
	<path id="XMLID_377_" class="st1" d="M235.9,495.8c0,0-45.1,6.9-52.6-0.7c-12.3-12.4,8.6-17.5,7.1-29.4
		c-3.2-24.9-1.7-52.9,8.2-65.4c0.1-0.1,0.2-0.2,0.3-0.4c11.9-14.7,33.7-17.5,48.9-6.2c0.1,0.1,0.3,0.2,0.4,0.3
		c12.7,9.7,21.1,36.4,24.3,61.3c1.5,11.9,23,11.7,14.2,26.7C281.3,491.2,235.9,495.8,235.9,495.8z"/>
	<path id="XMLID_399_" class="st16" d="M257.7,457.7c0.9,6.9,4,12,7.5,15.8"/>
	<path id="XMLID_363_" class="st16" d="M240.2,408.4l0.2,0.2c5,3.8,11.5,17.7,15.4,37.4"/>
	<path id="XMLID_395_" class="st15" d="M249.4,494.1c0.9,7.3-4.4,14-11.8,14.9c-7.4,0.9-14.2-4.2-15.2-11.5L249.4,494.1z"/>
	<path id="XMLID_396_" class="st1" d="M249.4,494.1c0.9,7.3-4.4,14-11.8,14.9c-7.4,0.9-14.2-4.2-15.2-11.5L249.4,494.1z"/>
</g>
<g id="XMLID_451_">
	<line id="XMLID_454_" class="st17" x1="289.1" y1="456.5" x2="296.4" y2="453.6"/>
	<line id="XMLID_453_" class="st17" x1="282.3" y1="452" x2="284.9" y2="443.5"/>
	<line id="XMLID_452_" class="st17" x1="285.7" y1="453.6" x2="293.2" y2="445.1"/>
</g>
<g id="XMLID_488_">
	<line id="XMLID_491_" class="st17" x1="542.8" y1="192.6" x2="551.4" y2="189.1"/>
	<line id="XMLID_490_" class="st17" x1="535" y1="187.3" x2="537.9" y2="177.4"/>
	<line id="XMLID_489_" class="st17" x1="538.9" y1="189.1" x2="547.6" y2="179.3"/>
</g>
<g id="XMLID_264_">
	<line id="XMLID_270_" class="st17" x1="802.3" y1="366.1" x2="810.8" y2="362.7"/>
	<line id="XMLID_266_" class="st17" x1="794.4" y1="360.9" x2="797.4" y2="350.9"/>
	<line id="XMLID_265_" class="st17" x1="798.4" y1="362.7" x2="807.1" y2="352.8"/>
</g>
<g id="XMLID_484_">
	<line id="XMLID_487_" class="st17" x1="176.8" y1="471.3" x2="174.9" y2="463.4"/>
	<line id="XMLID_486_" class="st17" x1="171.1" y1="477.6" x2="160.8" y2="475.6"/>
	<line id="XMLID_485_" class="st17" x1="173.2" y1="474.3" x2="165.7" y2="465.4"/>
</g>
<path id="XMLID_252_" class="st15" d="M780.6,469.6c-26.1,1.2-52.3,1.2-78.5,0c-9.1-0.4-16.4-7.9-16.4-17v-58.6
	c0-9.2,7.2-16.6,16.4-17c26.1-1.2,52.3-1.2,78.5,0c9.1,0.4,16.4,7.9,16.4,17v58.6C797,461.7,789.7,469.2,780.6,469.6z"/>
<path id="XMLID_83_" class="st1" d="M780.6,469.6c-26.1,1.2-52.3,1.2-78.5,0c-9.1-0.4-16.4-7.9-16.4-17v-58.6
	c0-9.2,7.2-16.6,16.4-17c26.1-1.2,52.3-1.2,78.5,0c9.1,0.4,16.4,7.9,16.4,17v58.6C797,461.7,789.7,469.2,780.6,469.6z"/>
<polyline id="XMLID_242_" class="st1" points="700.9,441.3 724.7,410.6 752.9,430.9 781.2,404 "/>
<circle id="XMLID_3_" class="st15" cx="700.9" cy="442" r="5.9"/>
<circle id="XMLID_2_" class="st1" cx="700.9" cy="442" r="5.9"/>
<circle id="XMLID_244_" class="st15" cx="725.2" cy="410.7" r="6.7"/>
<circle id="XMLID_243_" class="st1" cx="725.2" cy="410.7" r="6.7"/>
<circle id="XMLID_246_" class="st15" cx="752.8" cy="428.8" r="7.3"/>
<circle id="XMLID_245_" class="st1" cx="752.8" cy="428.8" r="7.3"/>
<circle id="XMLID_248_" class="st15" cx="782.4" cy="402.4" r="7.3"/>
<circle id="XMLID_247_" class="st1" cx="782.4" cy="402.4" r="7.3"/>
<circle id="XMLID_258_" class="st15" cx="794.2" cy="461.9" r="33.1"/>
<circle id="XMLID_259_" class="st15" cx="794.2" cy="461.9" r="33.1"/>
<circle id="XMLID_253_" class="st1" cx="794.2" cy="461.9" r="33.1"/>
<path id="XMLID_262_" class="st18" d="M807.9,443.1c5.8,4.2,9.5,11,9.5,18.7c0,12.8-10.4,23.2-23.2,23.2S771,474.7,771,461.9
	c0-2,0.3-4,0.8-5.9"/>
<path id="XMLID_261_" class="st18" d="M803.8,452.1c0.9,0.9,1.7,1.9,2.3,3.1c3.7,6.6,1.3,15-5.3,18.6c-3.3,1.8-7.1,2.2-10.4,1.2"/>
<path id="XMLID_313_" class="st19" d="M304.5,642.1c-27.3-28.3-47.6-62.3-58.4-99.8"/>
<path id="XMLID_308_" class="st19" d="M749.3,521.9c-6.4,38.5-22.6,74-46.2,104.4"/>
<path id="XMLID_309_" class="st19" d="M583.1,244.5c62.5,16.9,115.5,54,150,103"/>
<path id="XMLID_260_" class="st19" d="M273.4,366.1c24.6-47.9,67.1-86.7,119.7-109"/>
</svg>
