<?xml version="1.0" encoding="utf-8"?>
<!-- Generator: Adobe Illustrator 23.1.1, SVG Export Plug-In . SVG Version: 6.00 Build 0)  -->
<svg version="1.1" id="Layer_1" xmlns="http://www.w3.org/2000/svg" xmlns:xlink="http://www.w3.org/1999/xlink" x="0px" y="0px"
	 viewBox="0 0 1000 1000" style="enable-background:new 0 0 1000 1000;" xml:space="preserve">
<style type="text/css">
	.st0{fill:#F2F2F2;}
	.st1{fill:#F5DA8D;}
	.st2{fill:none;stroke:#3D0938;stroke-width:4;stroke-linecap:round;stroke-linejoin:round;stroke-miterlimit:10;}
	.st3{fill:#E38980;}
	.st4{fill:#CC5F7E;}
	.st5{fill:#36C2E3;}
	.st6{fill:#6D4F8D;}
	.st7{fill:none;stroke:#3D0938;stroke-width:6;stroke-linecap:round;stroke-linejoin:round;stroke-miterlimit:10;}
	.st8{fill:#FFFFFF;}
	.st9{fill:#CCFFFF;}
	.st10{opacity:0.43;fill:#3D0938;}
	.st11{fill:#F0406F;}
	.st12{fill:#D4907F;}
	.st13{fill:none;stroke:#3D0938;stroke-width:5;stroke-linecap:round;stroke-linejoin:round;stroke-miterlimit:10;}
	.st14{fill:#DB2C62;}
	.st15{fill:#F96291;}
	.st16{fill:#F1CB9C;}
	.st17{fill:#F8E4C1;}
	.st18{fill:#EFAB89;}
	.st19{fill:none;stroke:#3D0938;stroke-width:3;stroke-linecap:round;stroke-linejoin:round;stroke-miterlimit:10;}
	.st20{fill:none;stroke:#3D0938;stroke-width:2;stroke-linecap:round;stroke-linejoin:round;stroke-miterlimit:10;}
	.st21{fill:#21E8A6;}
</style>
<rect id="XMLID_25_" class="st0" width="1000" height="1000"/>
<g>
	<path id="XMLID_14_" class="st1" d="M259.6,609.9c-12.7-31.3-19.4-65.1-19.4-100c0-70.8,27.6-137.4,77.6-187.4
		c50.1-50.1,116.6-77.6,187.4-77.6s137.4,27.6,187.4,77.6c25.5,25.5,45.1,55.2,58.3,87.6l29.2-11.9c-14.7-36.2-36.7-69.5-65.2-98
		c-56-56-130.5-86.9-209.7-86.9s-153.7,30.8-209.7,86.9c-56,56-86.9,130.5-86.9,209.7c0,39,7.5,76.8,21.7,111.8L259.6,609.9z"/>
	<path id="XMLID_22_" class="st2" d="M259.6,609.9c-12.7-31.3-19.4-65.1-19.4-100c0-70.8,27.6-137.4,77.6-187.4
		c50.1-50.1,116.6-77.6,187.4-77.6s137.4,27.6,187.4,77.6c25.5,25.5,45.1,55.2,58.3,87.6l29.2-11.9c-14.7-36.2-36.7-69.5-65.2-98
		c-56-56-130.5-86.9-209.7-86.9s-153.7,30.8-209.7,86.9c-56,56-86.9,130.5-86.9,209.7c0,39,7.5,76.8,21.7,111.8L259.6,609.9z"/>
	<path id="XMLID_19_" class="st3" d="M288.8,598.1c-11.2-27.6-17.1-57.4-17.1-88.1c0-62.4,24.3-121,68.4-165.2
		c44.1-44.1,102.8-68.4,165.2-68.4s121,24.3,165.2,68.4c22.5,22.5,39.8,48.7,51.3,77.2l29.2-11.9c-13.2-32.4-32.8-62.2-58.3-87.6
		c-50.1-50.1-116.6-77.6-187.4-77.6s-137.4,27.6-187.4,77.6c-50.1,50.1-77.6,116.6-77.6,187.4c0,34.8,6.7,68.6,19.4,100L288.8,598.1
		z"/>
	<path id="XMLID_26_" class="st2" d="M288.8,598.1c-11.2-27.6-17.1-57.4-17.1-88.1c0-62.4,24.3-121,68.4-165.2
		c44.1-44.1,102.8-68.4,165.2-68.4s121,24.3,165.2,68.4c22.5,22.5,39.8,48.7,51.3,77.2l29.2-11.9c-13.2-32.4-32.8-62.2-58.3-87.6
		c-50.1-50.1-116.6-77.6-187.4-77.6s-137.4,27.6-187.4,77.6c-50.1,50.1-77.6,116.6-77.6,187.4c0,34.8,6.7,68.6,19.4,100L288.8,598.1
		z"/>
	<path id="XMLID_21_" class="st4" d="M318,586.2c-9.7-23.9-14.8-49.7-14.8-76.2c0-54,21-104.7,59.2-142.9
		c38.2-38.2,88.9-59.2,142.9-59.2c54,0,104.7,21,142.9,59.2c19.4,19.4,34.4,42.1,44.4,66.8l29.2-11.9
		c-11.6-28.6-28.9-54.8-51.3-77.2c-44.1-44.1-102.8-68.4-165.2-68.4s-121,24.3-165.2,68.4C296,388.9,271.7,447.6,271.7,510
		c0,30.7,5.9,60.5,17.1,88.1L318,586.2z"/>
	<path id="XMLID_18_" class="st2" d="M318,586.2c-9.7-23.9-14.8-49.7-14.8-76.2c0-54,21-104.7,59.2-142.9
		c38.2-38.2,88.9-59.2,142.9-59.2c54,0,104.7,21,142.9,59.2c19.4,19.4,34.4,42.1,44.4,66.8l29.2-11.9
		c-11.6-28.6-28.9-54.8-51.3-77.2c-44.1-44.1-102.8-68.4-165.2-68.4s-121,24.3-165.2,68.4C296,388.9,271.7,447.6,271.7,510
		c0,30.7,5.9,60.5,17.1,88.1L318,586.2z"/>
	<path id="XMLID_24_" class="st5" d="M376.4,562.5c-6.6-16.2-10.2-33.9-10.2-52.5c0-76.8,62.3-139.1,139.1-139.1
		c58.3,0,108.2,35.9,128.9,86.8l29.2-11.9c-8.5-20.9-21.1-40-37.5-56.4c-32.2-32.2-75.1-50-120.6-50c-45.6,0-88.4,17.7-120.6,50
		c-32.2,32.2-50,75.1-50,120.6c0,22.4,4.3,44.2,12.5,64.4L376.4,562.5z"/>
	<path id="XMLID_17_" class="st2" d="M376.4,562.5c-6.6-16.2-10.2-33.9-10.2-52.5c0-76.8,62.3-139.1,139.1-139.1
		c58.3,0,108.2,35.9,128.9,86.8l29.2-11.9c-8.5-20.9-21.1-40-37.5-56.4c-32.2-32.2-75.1-50-120.6-50c-45.6,0-88.4,17.7-120.6,50
		c-32.2,32.2-50,75.1-50,120.6c0,22.4,4.3,44.2,12.5,64.4L376.4,562.5z"/>
	<path id="XMLID_23_" class="st6" d="M347.2,574.3c-8.2-20.2-12.5-41.9-12.5-64.4c0-45.6,17.7-88.4,50-120.6
		c32.2-32.2,75.1-50,120.6-50c45.6,0,88.4,17.7,120.6,50c16.4,16.4,29,35.6,37.5,56.4l29.2-11.9c-10-24.7-25-47.4-44.4-66.8
		c-38.2-38.2-88.9-59.2-142.9-59.2c-54,0-104.7,21-142.9,59.2c-38.2,38.2-59.2,88.9-59.2,142.9c0,26.6,5.1,52.3,14.8,76.2
		L347.2,574.3z"/>
	<path id="XMLID_1_" class="st2" d="M347.2,574.3c-8.2-20.2-12.5-41.9-12.5-64.4c0-45.6,17.7-88.4,50-120.6
		c32.2-32.2,75.1-50,120.6-50c45.6,0,88.4,17.7,120.6,50c16.4,16.4,29,35.6,37.5,56.4l29.2-11.9c-10-24.7-25-47.4-44.4-66.8
		c-38.2-38.2-88.9-59.2-142.9-59.2c-54,0-104.7,21-142.9,59.2c-38.2,38.2-59.2,88.9-59.2,142.9c0,26.6,5.1,52.3,14.8,76.2
		L347.2,574.3z"/>
</g>
<line id="XMLID_11_" class="st7" x1="345.8" y1="539" x2="375.2" y2="539"/>
<line id="XMLID_12_" class="st7" x1="368.3" y1="539" x2="397.6" y2="539"/>
<path id="XMLID_15_" class="st8" d="M787.7,386.2c-7.9,0-15.1,3.3-20.2,8.7c-3.1-30.5-28.9-54.2-60.2-54.2
	c-25.8,0-47.9,16.2-56.5,39c-6.2-2.2-12.9-3.4-20-3.4c-29.7,0-53.8,21.3-53.8,47.6c0,24.6,21.1,44.9,48.2,47.4
	c6.7,22.4,27.5,38.8,52.1,38.8c22.7,0,42.1-13.9,50.3-33.6c6.4,5.7,14.7,9.1,23.9,9.1c19.9,0,36-16.1,36-36c0-2.6-0.3-5-0.8-7.4
	c0.3,0,0.5,0,0.8,0c15.4,0,27.9-12.5,27.9-27.9C815.6,398.7,803.1,386.2,787.7,386.2z"/>
<path id="XMLID_29_" class="st9" d="M787.7,418.1c-0.3,0-0.5,0-0.8,0c0.5,2.4,0.8,4.9,0.8,7.4c0,19.9-16.1,36-36,36
	c-9.2,0-17.6-3.4-23.9-9.1c-8.2,19.7-27.6,33.6-50.3,33.6c-24.6,0-45.4-16.4-52.1-38.8c-22.5-2.1-40.9-16.4-46.5-35.4
	c-1.1,3.8-1.7,7.9-1.7,12c0,24.6,21.1,44.9,48.2,47.4c6.7,22.4,27.5,38.8,52.1,38.8c22.7,0,42.1-13.9,50.3-33.6
	c6.4,5.7,14.7,9.1,23.9,9.1c19.9,0,36-16.1,36-36c0-2.6-0.3-5-0.8-7.4c0.3,0,0.5,0,0.8,0c15.4,0,27.9-12.5,27.9-27.9
	c0-4.3-1-8.4-2.7-12C808.4,411.6,798.8,418.1,787.7,418.1z"/>
<path id="XMLID_176_" class="st10" d="M780.2,398.3L751,410.2l-87.6,35.6l-29.2,11.9c-11.2-27.6-31-50.8-56.1-66.2
	c6.6-8.8,15.8-15.8,26.6-20.2c8-3.3,16.9-5.1,26.2-5.1c4.9,0,9.7,0.5,14.4,1.5c0.4-0.7,0.8-1.5,1.2-2.2c5.4-9.2,12.9-17,21.6-22.9
	c9.6-6.4,20.8-10.5,32.5-11.7c2.2-0.2,4.4-0.3,6.6-0.3c17.7,0,34,6.5,46.4,17.4C764.2,363.9,773.1,380.8,780.2,398.3z"/>
<path id="XMLID_16_" class="st2" d="M787.7,386.2c-7.9,0-15.1,3.3-20.2,8.7c-3.1-30.5-28.9-54.2-60.2-54.2
	c-25.8,0-47.9,16.2-56.5,39c-6.2-2.2-12.9-3.4-20-3.4c-29.7,0-53.8,21.3-53.8,47.6c0,24.6,21.1,44.9,48.2,47.4
	c6.7,22.4,27.5,38.8,52.1,38.8c22.7,0,42.1-13.9,50.3-33.6c6.4,5.7,14.7,9.1,23.9,9.1c19.9,0,36-16.1,36-36c0-2.6-0.3-5-0.8-7.4
	c0.3,0,0.5,0,0.8,0c15.4,0,27.9-12.5,27.9-27.9C815.6,398.7,803.1,386.2,787.7,386.2z"/>
<path id="XMLID_175_" class="st10" d="M376.4,562.5l-29.2,11.9l-58.4,23.7L259.6,610l-29.2,11.9c-14.3-35-21.7-72.9-21.7-111.8
	c0-6.7,0.2-13.3,0.7-19.9c0.9,0,1.8,0,2.7,0c5.2,0,10.3,0.5,15.3,1.5c4.4-5.9,9.4-11.1,15-15.7c10.2-8.4,22.2-14.4,35-17.6
	c6-1.5,12.2-2.4,18.5-2.6c1,0,2-0.1,3.1-0.1c3.8,0,7.6,0.2,11.3,0.7c10.7,1.4,20.8,4.7,30,9.5c10.5,5.5,19.9,13.2,27.5,22.3
	c-1.1,7.1-1.7,14.4-1.7,21.8C366.2,528.6,369.8,546.3,376.4,562.5z"/>
<path id="XMLID_13_" class="st8" d="M489.2,596.7c-0.7-20.2-17.6-36-37.8-35.3c-1.9,0.1-3.8,0.3-5.7,0.6
	c-8.2-21.8-29.5-36.9-54.1-36.1c-5.3,0.2-10.3,1.1-15.1,2.6c-7.7-37-41.2-64.2-80.2-62.9c-27.4,0.9-51.1,15.6-64.6,37.3
	c-7-2.1-14.4-3.1-22-2.8c-38.3,1.3-68.3,33.4-67,71.7c1.3,38.3,33.4,68.3,71.7,67c2.3-0.1,4.6-0.3,6.9-0.6
	c13.3,27.2,41.7,45.4,73.9,44.3c33.2-1.1,61-22.5,71.8-52c8.4,4.6,18.2,7.1,28.5,6.7c12.4-0.4,23.8-4.9,32.8-12.1
	c6.8,6,15.8,9.6,25.6,9.3C474,633.8,489.8,616.9,489.2,596.7z"/>
<path id="XMLID_28_" class="st9" d="M487.4,586.8c-4.6,14.3-17.7,24.8-33.6,25.4c-9.8,0.3-18.8-3.2-25.6-9.3
	c-9,7.2-20.4,11.7-32.8,12.1c-10.3,0.3-20.1-2.1-28.5-6.7c-10.8,29.4-38.5,50.8-71.8,52c-32.2,1.1-60.5-17.2-73.9-44.3
	c-2.3,0.3-4.6,0.5-6.9,0.6c-35.3,1.2-65.3-24.2-70.8-58.2c-0.7,4.4-1,8.9-0.9,13.6c1.3,38.3,33.4,68.3,71.7,67
	c2.3-0.1,4.6-0.3,6.9-0.6c13.3,27.2,41.7,45.4,73.9,44.3c33.2-1.1,61-22.5,71.8-52c8.4,4.6,18.2,7.1,28.5,6.7
	c12.4-0.4,23.8-4.9,32.8-12.1c6.8,6,15.8,9.6,25.6,9.3c20.2-0.7,36-17.6,35.3-37.8C489.1,593.3,488.4,589.9,487.4,586.8z"/>
<path id="XMLID_96_" class="st2" d="M489.2,596.7c-0.7-20.2-17.6-36-37.8-35.3c-1.9,0.1-3.8,0.3-5.7,0.6
	c-8.2-21.8-29.5-36.9-54.1-36.1c-5.3,0.2-10.3,1.1-15.1,2.6c-7.7-37-41.2-64.2-80.2-62.9c-27.4,0.9-51.1,15.6-64.6,37.3
	c-7-2.1-14.4-3.1-22-2.8c-38.3,1.3-68.3,33.4-67,71.7c1.3,38.3,33.4,68.3,71.7,67c2.3-0.1,4.6-0.3,6.9-0.6
	c13.3,27.2,41.7,45.4,73.9,44.3c33.2-1.1,61-22.5,71.8-52c8.4,4.6,18.2,7.1,28.5,6.7c12.4-0.4,23.8-4.9,32.8-12.1
	c6.8,6,15.8,9.6,25.6,9.3C474,633.8,489.8,616.9,489.2,596.7z"/>
<g>
	<polygon id="XMLID_67_" class="st11" points="544,584.4 557.5,602.4 564.4,591.3 	"/>
	<polygon id="XMLID_114_" class="st2" points="544,584.4 557.5,602.4 564.4,591.3 	"/>
	<polygon id="XMLID_66_" class="st11" points="553.4,565.9 564.4,591.3 576.3,584.7 	"/>
	<polygon id="XMLID_115_" class="st2" points="553.4,565.9 564.4,591.3 576.3,584.7 	"/>
	<path id="XMLID_64_" class="st12" d="M743.5,604.9c-9.5,1.2-30.8,2.2-55.2-6.6c-33.1-11.9-50-9.9-57.3-7.7c0,0,0,0,0,0
		c-2.5,0.7-5,1.6-7.5,2.7c-21.6,10.1-30.9,35.9-20.7,57.4c6.4,13.7,19.1,22.4,33,24.4c0,0,0,0,0,0s0.4,0.1,1.2,0.1
		c0.2,0,0.4,0,0.6,0.1c5.2,0.6,20.8,1.9,31.4-1.4c11-5.2-5-10.7-5-10.7s12.5,3.5,21.9-1.3c13.8-7.1-1.6-12.1-1.6-12.1
		s13.6,4.1,23.6-5.1c6.3-5.8,0.8-7.8-4.2-8.5c7,0.1,18.6-0.9,22.5-8.2c2.8-5.2-3.5-6.4-8.2-6.6c5.9-0.2,16.4-1.4,22.4-6
		c2.8-2.2,4.7-4.1,6-5.7C748,607.7,746.2,604.6,743.5,604.9z"/>
	<path id="XMLID_62_" class="st2" d="M743.5,604.9c-9.5,1.2-30.8,2.2-55.2-6.6c-33.1-11.9-50-9.9-57.3-7.7c0,0,0,0,0,0
		c-2.5,0.7-5,1.6-7.5,2.7c-21.6,10.1-30.9,35.9-20.7,57.4c6.4,13.7,19.1,22.4,33,24.4c0,0,0,0,0,0s0.4,0.1,1.2,0.1
		c0.2,0,0.4,0,0.6,0.1c5.2,0.6,20.8,1.9,31.4-1.4c11-5.2-5-10.7-5-10.7s12.5,3.5,21.9-1.3c13.8-7.1-1.6-12.1-1.6-12.1
		s13.6,4.1,23.6-5.1c6.3-5.8,0.8-7.8-4.2-8.5c7,0.1,18.6-0.9,22.5-8.2c2.8-5.2-6.1-6.5-10.7-6.7c5.9-0.2,18.9-1.3,24.9-5.9
		c2.8-2.2,4.7-4.1,6-5.7C748,607.7,746.2,604.6,743.5,604.9z"/>
	<path id="XMLID_98_" class="st13" d="M678.9,682.6c0,0,20.8,4.8,50.6,23.1c29.9,18.2,42.3,13.9,42.3,13.9"/>
	<path id="XMLID_107_" class="st13" d="M736.6,727.9c0,0-13.7-0.5-27.3-18.2s-19-26.2-24.7-26.6"/>
	<path id="XMLID_65_" class="st11" d="M787.4,647.7c0.9-1,1.7-2.7,1.4-4.4c-0.1-0.4-0.4-1.5-1.4-2.2c-1-0.8-2.4-1.1-3.9-0.8
		c3-0.7,4.9-3.4,4.5-6c0,0,0,0,0,0c0,0,0,0,0,0c-0.5-2.6-3.3-4.5-6.3-4.1c1.5-0.2,2.7-1,3.4-2.1c0.6-1,0.6-2.1,0.5-2.6
		c-0.2-1.7-1.6-3-2.8-3.6c-2.6-1.3-5.9,0.1-8.7,1.3c-5.5,2.3-8.9,5.8-11.3,8.3c-1.8,1.9-4.3,4.7-6.6,8.6c0,0,0,0,0,0c0,0,0,0,0,0
		c3.5,2.8,6.8,4.6,9.1,5.7c3.1,1.5,7.5,3.5,13.5,3.8C781.8,649.7,785.4,649.8,787.4,647.7z"/>
	<g id="XMLID_106_">
		<path id="XMLID_109_" class="st14" d="M786.9,643.3c-0.1-0.4-0.4-1.5-1.4-2.2c-0.2-0.1-0.4-0.2-0.6-0.4c-0.3,0.7-0.7,1.2-1.1,1.7
			c-2,2.1-5.6,2-8.6,1.9c-6-0.3-10.4-2.3-13.5-3.8c-1.6-0.7-3.5-1.8-5.7-3.2c-0.6,0.9-1.2,1.8-1.8,2.8c0,0,0,0,0,0c0,0,0,0,0,0
			c3.5,2.8,6.8,4.6,9.1,5.7c3.1,1.5,7.5,3.5,13.5,3.8c3,0.1,6.6,0.2,8.6-1.9C786.5,646.7,787.3,645,786.9,643.3z"/>
		<path id="XMLID_167_" class="st14" d="M781.6,622.9c-0.7,1.1-1.9,1.9-3.4,2.1c2.2-0.3,4.3,0.7,5.4,2.2c0.2-0.7,0.1-1.3,0.1-1.6
			c-0.2-1.3-1-2.4-1.9-3.1C781.7,622.6,781.7,622.7,781.6,622.9z"/>
	</g>
	<g id="XMLID_99_">
		<path id="XMLID_100_" class="st15" d="M754.3,640c0.3,0.2,0.6,0.4,0.9,0.7c1.3-1.8,2.6-3.2,3.7-4.3c2.4-2.5,5.8-5.9,11.3-8.3
			c2.8-1.2,6.1-2.5,8.7-1.3c1,0.5,2.1,1.5,2.6,2.8c0.7-0.4,1.3-0.9,1.7-1.5c0.6-1,0.6-2.1,0.5-2.6c-0.2-1.7-1.6-3-2.8-3.6
			c-2.6-1.3-5.9,0.1-8.7,1.3c-5.5,2.3-8.9,5.8-11.3,8.3C759.1,633.4,756.6,636.2,754.3,640C754.3,640,754.3,640,754.3,640
			C754.3,640,754.3,640,754.3,640z"/>
	</g>
	<path id="XMLID_8_" class="st2" d="M787.4,647.7c0.9-1,1.7-2.7,1.4-4.4c-0.1-0.4-0.4-1.5-1.4-2.2c-1-0.8-2.4-1.1-3.9-0.8
		c3-0.7,4.9-3.4,4.5-6c0,0,0,0,0,0c0,0,0,0,0,0c-0.5-2.6-3.3-4.5-6.3-4.1c1.5-0.2,2.7-1,3.4-2.1c0.6-1,0.6-2.1,0.5-2.6
		c-0.2-1.7-1.6-3-2.8-3.6c-2.6-1.3-5.9,0.1-8.7,1.3c-5.5,2.3-8.9,5.8-11.3,8.3c-1.8,1.9-4.3,4.7-6.6,8.6c0,0,0,0,0,0c0,0,0,0,0,0
		c3.5,2.8,6.8,4.6,9.1,5.7c3.1,1.5,7.5,3.5,13.5,3.8C781.8,649.7,785.4,649.8,787.4,647.7z"/>
	<path id="XMLID_57_" class="st16" d="M756.1,640.1c0,0-45.5,4.1-92.1-29.6c-15.9-11.5-26.3-18.9-33.1-23.5c-3.3-3-7.1-5.6-11.3-7.5
		c-1.5-0.9-1.4-0.7-1.4-0.7l0,0c-5.6-2.4-11.9-3.8-18.4-3.8c-25.6,0-46.4,20.8-46.4,46.4c0,17.4,9.6,32.6,23.8,40.5l0,0
		c0,0,0.1,0.1,0.3,0.1c1.8,1,3.7,1.8,5.6,2.6C604.1,673.4,678.3,697.9,756.1,640.1z"/>
	<path id="XMLID_95_" class="st17" d="M599.8,580.4c6.5,0,12.8,1.4,18.4,3.8l0,0c0,0-0.1-0.2,1.4,0.7c4.1,2,7.9,4.5,11.3,7.5
		c6.8,4.7,17.1,12,33.1,23.5c36.2,26.1,74,27.2,88.1,27.4c2.1-1.5,1.9-0.6,4-2.2c0,0-45.5,4.1-92.1-29.6
		c-15.9-11.5-26.3-18.9-33.1-23.5c-3.3-3-7.1-5.6-11.3-7.5c-1.5-0.9-1.4-0.7-1.4-0.7l0,0c-5.6-2.4-11.9-3.8-18.4-3.8
		c-25.6,0-46.4,20.8-46.4,46.4c0,0.7,0,1.3,0.1,1.9C554.8,599.8,575,580.4,599.8,580.4z"/>
	<path id="XMLID_68_" class="st12" d="M744.8,640c-72.5,45.3-139.2,23.3-158.9,14.9c-1.9-0.7-3.8-1.6-5.6-2.6
		c-0.2-0.1-0.3-0.1-0.3-0.1l0,0c-14.2-7.9-23.8-23.1-23.8-40.5c0-2.8,0.3-5.5,0.7-8.2c-2.3,5.5-3.6,11.5-3.6,17.8
		c0,17.4,9.6,32.6,23.8,40.5l0,0c0,0,0.1,0.1,0.3,0.1c1.8,1,3.7,1.8,5.6,2.6c21,8.9,95.2,33.3,173-24.5
		C756.1,640.1,751.9,640.4,744.8,640z"/>
	<path id="XMLID_112_" class="st2" d="M756.1,640.1c0,0-45.5,4.1-92.1-29.6c-15.9-11.5-26.3-18.9-33.1-23.5c-3.3-3-7.1-5.6-11.3-7.5
		c-1.5-0.9-1.4-0.7-1.4-0.7l0,0c-5.6-2.4-11.9-3.8-18.4-3.8c-25.6,0-46.4,20.8-46.4,46.4c0,17.4,9.6,32.6,23.8,40.5l0,0
		c0,0,0.1,0.1,0.3,0.1c1.8,1,3.7,1.8,5.6,2.6C604.1,673.4,678.3,697.9,756.1,640.1z"/>
	<path id="XMLID_63_" class="st18" d="M723.2,682.9c-9.1-3-28.8-11.1-47.1-29.4c-24.9-24.9-41.1-30.3-48.6-31.3c0,0,0,0,0,0
		c-2.6-0.5-5.2-0.7-7.9-0.7c-23.8,0-43.2,19.3-43.2,43.2c0,15.1,7.8,28.4,19.5,36.1l0,0c0,0,0.4,0.2,1,0.6c0.2,0.1,0.3,0.2,0.5,0.3
		c4.4,2.7,18,10.6,29,12.1c12.2,0,0-11.8,0-11.8s9.8,8.5,20.3,8.1c15.5-0.5,3.7-11.7,3.7-11.7s10.5,9.5,23.5,5.4
		c8.2-2.6,4-6.7-0.2-9.5c6.3,3.1,17.2,7.2,23.9,2.2c4.7-3.5-0.5-7.3-4.6-9.5c5.5,2.3,15.4,5.7,22.8,4.1c3.5-0.8,6-1.7,7.9-2.6
		C726.1,687.4,725.8,683.8,723.2,682.9z"/>
	<g id="XMLID_27_">
		<path id="XMLID_101_" class="st12" d="M627.3,704.7c-11-1.5-24.6-9.4-29-12.1c-0.2-0.1-0.3-0.2-0.5-0.3c-0.6-0.4-1-0.6-1-0.6l0,0
			c-11.7-7.7-19.5-21-19.5-36.1c0-0.1,0-0.2,0-0.3c-0.7,3-1,6.1-1,9.3c0,15.1,7.8,28.4,19.5,36.1l0,0c0,0,0.4,0.2,1,0.6
			c0.2,0.1,0.3,0.2,0.5,0.3c4.4,2.7,18,10.6,29,12.1c8.4,0,5.2-5.6,2.5-9.1C628.3,704.7,627.8,704.7,627.3,704.7z"/>
		<path id="XMLID_103_" class="st12" d="M723.2,682.9c-1.1-0.4-2.4-0.8-3.9-1.4c-0.8,0.2-2-0.1-2.6,0.6c-3.7,5.2-24.3,2.7-29.7,0.4
			c4.1,2.2,3.3,3.3,11.6,4.9c0.7,0.1-1.1,0.7-1.7,1c5.6,2,13,3.9,18.9,2.6c3.5-0.8,6-1.7,7.9-2.6
			C726.1,687.4,725.8,683.8,723.2,682.9z"/>
		<path id="XMLID_111_" class="st12" d="M647.6,701c-10.6,0.4-25.5-7.4-25.5-7.4c-2.3,1.7-3.5-0.5,7.6,10.8
			c3.8,2.5,10.1,5.8,16.8,5.6c11.3-0.4,8.1-6.4,5.5-9.6C651,700.8,649.5,701,647.6,701z"/>
		<path id="XMLID_118_" class="st12" d="M674.5,694.9c-12.9,3.8-28.2-3.3-28.2-3.3s0.9,3.7,6.4,8.6c3.8,2.5,11.8,6.5,21.1,3.6
			C681.5,701.4,678.4,697.6,674.5,694.9z"/>
		<path id="XMLID_119_" class="st12" d="M696,688.9c-5.3,4.7-23.1,1.2-28.7-1.5c4.2,2.7,4.2,4.9,7.5,7.4c0,0-0.1,0-0.1,0
			c6.4,3,16.5,6.4,22.8,1.7C701.1,693.9,699.1,691.1,696,688.9z"/>
	</g>
	<path id="XMLID_113_" class="st2" d="M723.2,682.9c-9.1-3-28.8-11.1-47.1-29.4c-24.9-24.9-41.1-30.3-48.6-31.3c0,0,0,0,0,0
		c-2.6-0.5-5.2-0.7-7.9-0.7c-23.8,0-43.2,19.3-43.2,43.2c0,15.1,7.8,28.4,19.5,36.1l0,0c0,0,0.4,0.2,1,0.6c0.2,0.1,0.3,0.2,0.5,0.3
		c4.4,2.7,18,10.6,29,12.1c12.2,0,0-11.8,0-11.8s9.8,8.5,20.3,8.1c15.5-0.5,3.7-11.7,3.7-11.7s10.5,9.5,23.5,5.4
		c8.2-2.6,4-6.7-0.2-9.5c6.3,3.1,17.2,7.2,23.9,2.2c4.7-3.5-0.5-7.3-4.6-9.5c5.5,2.3,15.4,5.7,22.8,4.1c3.5-0.8,6-1.7,7.9-2.6
		C726.1,687.4,725.8,683.8,723.2,682.9z"/>
	<path id="XMLID_30_" class="st2" d="M581.1,601.4c0,0,0.6,11,10.8,11c8.9,0,11.4-4.2,11.4-4.2"/>
	<line id="XMLID_58_" class="st2" x1="577.7" y1="608.1" x2="582.7" y2="606.9"/>
	<line id="XMLID_59_" class="st2" x1="582.7" y1="613.7" x2="585.1" y2="610.1"/>
	<line id="XMLID_60_" class="st2" x1="590.3" y1="612.4" x2="590.3" y2="616.5"/>
	<line id="XMLID_61_" class="st2" x1="598.6" y1="611.4" x2="600.5" y2="616.5"/>
	<path id="XMLID_69_" class="st19" d="M605.8,641.8c0,0,3.4,3.9,7.2,0"/>
	<path id="XMLID_70_" class="st19" d="M594.4,659.6c0,0,6.9,2.8,9.7-3.7"/>
	<path id="XMLID_71_" class="st19" d="M595.1,676.5c0,0,4.9,1.9,6.8-2.6"/>
	<path id="XMLID_74_" class="st19" d="M636,655c0,0,4.2,3.2,7.3-0.6"/>
	<path id="XMLID_77_" class="st19" d="M648.5,679.5c0,0,4.2,3.2,7.3-0.6"/>
	<path id="XMLID_78_" class="st19" d="M657.6,666c0,0,4.2,3.2,7.3-0.6"/>
	<path id="XMLID_75_" class="st19" d="M631.3,668.2c0,0,4.2,3.2,7.3-0.6"/>
	<path id="XMLID_9_" class="st19" d="M667.5,603c0,0,4.2,3.2,7.3-0.6"/>
	<path id="XMLID_7_" class="st19" d="M696,625.6c0,0,4.2,3.2,7.3-0.6"/>
	<path id="XMLID_6_" class="st19" d="M696.1,615.2c0,0,4.9,1.9,6.8-2.7"/>
	<path id="XMLID_3_" class="st19" d="M681.3,613c0,0,5.2,0.6,5.9-4.3"/>
	<path id="XMLID_76_" class="st19" d="M617.6,681.1c0,0,5,1.7,6.7-2.8"/>
	<path id="XMLID_72_" class="st19" d="M615.9,653.5c0,0,5.4,3.9,9.2-1.1"/>
	<path id="XMLID_73_" class="st19" d="M613,666.1c0,0,5.4,3.9,9.2-1.1"/>
	<path id="XMLID_79_" class="st2" d="M620.6,694.3c0,0,0.8,2.7,5.7,7.6"/>
	<path id="XMLID_80_" class="st2" d="M650.3,698.4c0,0-2.1-1.3-5.3-6"/>
	<path id="XMLID_81_" class="st2" d="M673.7,694.3c0,0-4.3-3-7.8-6.9"/>
	<path id="XMLID_110_" class="st2" d="M693,687.1c0,0-6.7-2.8-8.5-4.6"/>
</g>
<g>
	<g>
		<g>
			<path class="st6" d="M63.2,959.2c0,2.5-1.2,3.7-2.6,3.7c-1.1,0-1.9-0.5-2.1-1.4c-0.4,0.5-1,0.8-1.8,0.8c-1.5,0-2.6-1.2-2.6-2.8
				c0-1.6,1.1-2.8,2.6-2.8c0.7,0,1.2,0.3,1.6,0.7v-0.5h1.6v3.9c0,0.8,0.3,1.4,1,1.4c0.9,0,1.7-0.9,1.7-3c0-3-2.3-5.3-5.4-5.3
				c-3.1,0-5.6,2.4-5.6,5.7c0,3.3,2.5,5.7,5.9,5.7c1.1,0,2.1-0.2,2.9-0.4v0.6c-0.8,0.3-1.7,0.4-2.9,0.4c-3.7,0-6.5-2.6-6.5-6.2
				c0-3.4,2.7-6.2,6.2-6.2C61.1,953.3,63.2,956.4,63.2,959.2z M58.3,959.5c0-0.8-0.6-1.4-1.3-1.4c-0.8,0-1.3,0.5-1.3,1.4
				c0,0.8,0.6,1.3,1.3,1.3C57.8,960.9,58.3,960.3,58.3,959.5z"/>
		</g>
		<g>
			<path class="st6" d="M69.4,955.1v2c-1.2-0.1-2.6,0.5-2.6,2.4v4.3h-1.9v-8.6h1.9v1.4C67.3,955.5,68.3,955.1,69.4,955.1z"/>
		</g>
		<g>
			<path class="st6" d="M74.6,962.3c1,0,1.8-0.5,2.2-1.1l1.5,0.9c-0.8,1.2-2.1,1.9-3.8,1.9c-2.8,0-4.7-1.9-4.7-4.5
				c0-2.5,1.8-4.5,4.5-4.5c2.6,0,4.3,2.1,4.3,4.5c0,0.3,0,0.5-0.1,0.8h-6.8C72.1,961.6,73.2,962.3,74.6,962.3z M76.9,958.8
				c-0.3-1.5-1.3-2.1-2.5-2.1c-1.4,0-2.3,0.8-2.6,2.1H76.9z"/>
		</g>
		<g>
			<path class="st6" d="M88.9,955.2v8.6h-1.9v-1.2c-0.7,0.9-1.7,1.5-3,1.5c-2.3,0-4.3-2-4.3-4.5c0-2.6,1.9-4.5,4.3-4.5
				c1.3,0,2.3,0.5,3,1.4v-1.2H88.9z M87.1,959.5c0-1.6-1.2-2.7-2.7-2.7c-1.5,0-2.7,1.1-2.7,2.7c0,1.6,1.2,2.7,2.7,2.7
				C85.9,962.3,87.1,961.1,87.1,959.5z"/>
		</g>
		<g>
			<path class="st6" d="M91.1,951.3H93v12.5h-1.9V951.3z"/>
		</g>
		<g>
			<path class="st6" d="M102.9,955.2l-3.3,8.6h-2.1l-3.3-8.6h2l2.4,6.5l2.4-6.5H102.9z"/>
		</g>
		<g>
			<path class="st6" d="M104.2,955.2h1.9v8.9c0,2.4-1.2,3.5-3.5,3.3v-1.8c1.1,0.1,1.7-0.3,1.7-1.5V955.2z M104,952.8
				c0-0.7,0.5-1.2,1.2-1.2c0.7,0,1.2,0.5,1.2,1.2c0,0.6-0.5,1.2-1.2,1.2C104.5,954,104,953.4,104,952.8z"/>
		</g>
		<g>
			<path class="st6" d="M116,955.2l-3.3,8.8c-0.8,2.2-2.2,3.3-4.2,3.2v-1.7c1.2,0.1,1.9-0.5,2.3-1.7l0.1-0.2l-3.6-8.4h2l2.6,6.2
				l2.2-6.2H116z"/>
		</g>
	</g>
	<g>
		<path class="st6" d="M211.9,938.7c0,2.1-1.5,3.8-3.6,3.8h-3v-7.6h3C210.4,934.9,211.9,936.6,211.9,938.7z M210.9,938.7
			c0-1.6-1.1-2.9-2.6-2.9h-2v5.7h2C209.8,941.6,210.9,940.3,210.9,938.7z"/>
		<path class="st6" d="M219.5,940.8h-3.4l-0.6,1.7h-1.1l2.8-7.6h1.1l2.8,7.6h-1.1L219.5,940.8z M219.2,939.9l-1.4-3.8l-1.4,3.8
			H219.2z"/>
		<path class="st6" d="M226.4,939.4v3.1h-1v-3.1l-2.7-4.5h1.1l2.1,3.6l2.1-3.6h1.1L226.4,939.4z"/>
		<path class="st6" d="M236.9,941.7l2.7-2.7c0.6-0.6,1.1-1.2,1.1-1.9c0-0.9-0.6-1.4-1.4-1.4c-0.7,0-1.2,0.3-1.6,1l-0.8-0.5
			c0.5-1,1.4-1.5,2.4-1.5c1.2,0,2.4,0.8,2.4,2.3c0,0.9-0.6,1.8-1.4,2.5l-2,1.9h3.5v1h-4.9V941.7z"/>
		<path class="st6" d="M249.9,940.1c0,1.5-1.1,2.6-2.6,2.6c-1.5,0-2.6-1.1-2.6-2.6c0-0.6,0.2-1.1,0.5-1.5l2.5-3.7h1.2l-1.8,2.7
			c0.1,0,0.2,0,0.4,0C248.8,937.5,249.9,938.6,249.9,940.1z M248.9,940.1c0-1-0.7-1.6-1.6-1.6c-1,0-1.6,0.6-1.6,1.6s0.7,1.6,1.6,1.6
			C248.2,941.7,248.9,941,248.9,940.1z"/>
	</g>
	<g>
		<path class="st6" d="M58.9,938.7c0,2.1-1.5,3.8-3.6,3.8h-3v-7.6h3C57.4,934.9,58.9,936.6,58.9,938.7z M57.9,938.7
			c0-1.6-1.1-2.9-2.6-2.9h-2v5.7h2C56.8,941.6,57.9,940.3,57.9,938.7z"/>
		<path class="st6" d="M67,941.6v1h-4.6v-7.6h4.5v1h-3.5v2.3h3.2v0.9h-3.2v2.4H67z"/>
		<path class="st6" d="M70,940.8l0.9-0.5c0.3,0.8,0.9,1.4,2,1.4c1.1,0,1.6-0.5,1.6-1.2c0-0.8-0.7-1-1.8-1.4
			c-1.2-0.4-2.4-0.8-2.4-2.2c0-1.4,1.1-2.2,2.4-2.2c1.3,0,2.2,0.7,2.6,1.7l-0.8,0.5c-0.3-0.7-0.8-1.2-1.7-1.2
			c-0.8,0-1.4,0.4-1.4,1.1c0,0.7,0.5,1,1.6,1.3c1.3,0.4,2.6,0.8,2.6,2.3c0,1.3-1.1,2.2-2.6,2.2C71.5,942.7,70.4,941.9,70,940.8z"/>
		<path class="st6" d="M80,934.9v7.6h-1v-7.6H80z"/>
		<path class="st6" d="M91.3,939.2c0,1.9-1.4,3.5-3.7,3.5c-2.4,0-4-1.8-4-4c0-2.2,1.7-4,4-4c1.4,0,2.7,0.8,3.3,1.8l-0.9,0.5
			c-0.4-0.8-1.4-1.4-2.4-1.4c-1.8,0-3,1.3-3,3c0,1.7,1.2,3,3,3c1.6,0,2.5-0.9,2.7-2h-2.8v-0.9h3.8V939.2z"/>
		<path class="st6" d="M100.6,934.9v7.6h-0.8l-3.9-5.7v5.7h-1v-7.6h0.8l3.9,5.7v-5.7H100.6z"/>
		<path class="st6" d="M109.1,941.6v1h-4.6v-7.6h4.5v1h-3.5v2.3h3.2v0.9h-3.2v2.4H109.1z"/>
		<path class="st6" d="M119.2,938.7c0,2.1-1.5,3.8-3.6,3.8h-3v-7.6h3C117.6,934.9,119.2,936.6,119.2,938.7z M118.2,938.7
			c0-1.6-1.1-2.9-2.6-2.9h-2v5.7h2C117.1,941.6,118.2,940.3,118.2,938.7z"/>
		<path class="st6" d="M133.2,940.4c0,1.2-1,2.2-2.2,2.2h-3.3v-7.6h3c1.2,0,2.1,0.9,2.1,2.1c0,0.7-0.3,1.2-0.8,1.6
			C132.7,938.9,133.2,939.5,133.2,940.4z M128.7,935.8v2.3h2c0.6,0,1.1-0.5,1.1-1.2c0-0.6-0.5-1.2-1.1-1.2H128.7z M132.2,940.3
			c0-0.7-0.5-1.2-1.2-1.2h-2.3v2.5h2.3C131.7,941.6,132.2,941,132.2,940.3z"/>
		<path class="st6" d="M139.4,939.4v3.1h-1v-3.1l-2.7-4.5h1.1l2.1,3.6l2.1-3.6h1.1L139.4,939.4z"/>
	</g>
	<g>
		<path class="st6" d="M209.9,959.8h-2.4v4.5h-2v-12.4h5c2.2,0,4,1.8,4,4c0,1.6-1,3-2.5,3.6l2.8,4.8h-2.2L209.9,959.8z M207.5,958
			h2.9c1.1,0,1.9-0.9,1.9-2.1c0-1.2-0.9-2.1-1.9-2.1h-2.9V958z"/>
		<path class="st6" d="M224.6,955.4v8.9h-1.9V963c-0.7,0.9-1.7,1.5-3.1,1.5c-2.4,0-4.4-2-4.4-4.7c0-2.6,2-4.7,4.4-4.7
			c1.4,0,2.4,0.6,3.1,1.5v-1.3H224.6z M222.7,959.9c0-1.6-1.2-2.8-2.8-2.8c-1.6,0-2.8,1.2-2.8,2.8c0,1.6,1.2,2.8,2.8,2.8
			C221.5,962.7,222.7,961.5,222.7,959.9z"/>
		<path class="st6" d="M226.6,952.9c0-0.7,0.5-1.2,1.2-1.2c0.7,0,1.2,0.5,1.2,1.2c0,0.7-0.5,1.2-1.2,1.2
			C227.2,954.1,226.6,953.6,226.6,952.9z M226.9,955.4h1.9v8.9h-1.9V955.4z"/>
		<path class="st6" d="M239.1,958.9v5.4h-1.9v-5.2c0-1.3-0.8-2.1-2-2.1c-1.3,0-2.2,0.7-2.2,2.5v4.7H231v-8.9h1.9v1.1
			c0.6-0.9,1.5-1.4,2.7-1.4C237.6,955.2,239.1,956.6,239.1,958.9z"/>
		<path class="st6" d="M250.5,959.9c0,2.6-2,4.7-4.4,4.7c-1.4,0-2.4-0.6-3.1-1.5v1.3h-1.9v-12.4h1.9v4.8c0.7-0.9,1.7-1.5,3.1-1.5
			C248.5,955.2,250.5,957.2,250.5,959.9z M248.6,959.9c0-1.6-1.2-2.8-2.8-2.8c-1.6,0-2.8,1.2-2.8,2.8c0,1.6,1.2,2.8,2.8,2.8
			C247.4,962.7,248.6,961.5,248.6,959.9z"/>
		<path class="st6" d="M251.8,959.9c0-2.6,2.1-4.7,4.7-4.7c2.6,0,4.7,2,4.7,4.7c0,2.6-2.1,4.7-4.7,4.7
			C253.9,964.5,251.8,962.5,251.8,959.9z M259.2,959.9c0-1.6-1.2-2.8-2.8-2.8s-2.8,1.2-2.8,2.8c0,1.6,1.2,2.8,2.8,2.8
			S259.2,961.5,259.2,959.9z"/>
		<path class="st6" d="M274.7,955.4l-2.8,8.9h-1.9l-1.8-6l-1.9,6h-1.9l-2.8-8.9h2l1.7,6.1l1.9-6.1h1.8l1.8,6.1l1.7-6.1H274.7z"/>
	</g>
	<g>
		<g>
			<path class="st6" d="M846.1,938.7c0,2.1-1.5,3.8-3.6,3.8h-3v-7.6h3C844.6,934.9,846.1,936.6,846.1,938.7z M845.2,938.7
				c0-1.6-1.1-2.9-2.6-2.9h-2v5.7h2C844.1,941.6,845.2,940.3,845.2,938.7z"/>
		</g>
		<g>
			<path class="st6" d="M849.3,938.7c0-2.2,1.7-4,3.9-4c2.2,0,4,1.8,4,4c0,2.2-1.7,4-4,4C851,942.7,849.3,940.9,849.3,938.7z
				 M856.1,938.7c0-1.7-1.3-3-2.9-3c-1.7,0-2.9,1.3-2.9,3c0,1.7,1.3,3,2.9,3C854.9,941.7,856.1,940.4,856.1,938.7z"/>
		</g>
		<g>
			<path class="st6" d="M859.8,934.9h1.1l1.7,6.3l1.9-6.3h1l1.9,6.3l1.7-6.3h1.1l-2.2,7.6h-1.2l-1.8-6.1l-1.8,6.1H862L859.8,934.9z"
				/>
		</g>
		<g>
			<path class="st6" d="M879.3,934.9v7.6h-0.8l-3.9-5.7v5.7h-1v-7.6h0.8l3.9,5.7v-5.7H879.3z"/>
		</g>
		<g>
			<path class="st6" d="M887.5,941.6v1h-4.3v-7.6h1v6.7H887.5z"/>
		</g>
		<g>
			<path class="st6" d="M889.9,938.7c0-2.2,1.7-4,3.9-4c2.2,0,4,1.8,4,4c0,2.2-1.7,4-4,4C891.6,942.7,889.9,940.9,889.9,938.7z
				 M896.8,938.7c0-1.7-1.3-3-2.9-3c-1.7,0-2.9,1.3-2.9,3c0,1.7,1.3,3,2.9,3C895.5,941.7,896.8,940.4,896.8,938.7z"/>
		</g>
		<g>
			<path class="st6" d="M905.4,940.8H902l-0.6,1.7h-1.1l2.8-7.6h1.1l2.8,7.6H906L905.4,940.8z M905.1,939.9l-1.4-3.8l-1.4,3.8H905.1
				z"/>
		</g>
		<g>
			<path class="st6" d="M916.9,938.7c0,2.1-1.5,3.8-3.6,3.8h-3v-7.6h3C915.4,934.9,916.9,936.6,916.9,938.7z M915.9,938.7
				c0-1.6-1.1-2.9-2.6-2.9h-2v5.7h2C914.9,941.6,915.9,940.3,915.9,938.7z"/>
		</g>
		<g>
			<path class="st6" d="M926.5,935.8v2.5h3.2v1h-3.2v3.2h-1v-7.6h4.4v1H926.5z"/>
		</g>
		<g>
			<path class="st6" d="M936.2,939.6h-1.8v2.9h-1v-7.6h3c1.3,0,2.4,1.1,2.4,2.4c0,1-0.7,1.9-1.6,2.2l1.8,3.1h-1.1L936.2,939.6z
				 M934.4,938.7h2c0.8,0,1.4-0.6,1.4-1.4c0-0.8-0.6-1.4-1.4-1.4h-2V938.7z"/>
		</g>
		<g>
			<path class="st6" d="M941.9,938.7c0-2.2,1.7-4,3.9-4c2.2,0,4,1.8,4,4c0,2.2-1.7,4-4,4C943.6,942.7,941.9,940.9,941.9,938.7z
				 M948.8,938.7c0-1.7-1.3-3-2.9-3c-1.7,0-2.9,1.3-2.9,3c0,1.7,1.3,3,2.9,3C947.5,941.7,948.8,940.4,948.8,938.7z"/>
		</g>
		<g>
			<path class="st6" d="M960.4,942.5h-1v-6l-2.5,4.2h-0.1l-2.5-4.1v5.9h-1v-7.6h1.1l2.4,4l2.4-4h1.1V942.5z"/>
		</g>
	</g>
	<g>
		<g>
			<path class="st6" d="M839.3,952.9c0-0.7,0.5-1.2,1.2-1.2c0.7,0,1.2,0.5,1.2,1.2c0,0.7-0.5,1.2-1.2,1.2
				C839.9,954.1,839.3,953.6,839.3,952.9z M839.6,955.4h1.9v8.9h-1.9V955.4z"/>
		</g>
		<g>
			<path class="st6" d="M843.7,951.4h1.9v12.9h-1.9V951.4z"/>
		</g>
		<g>
			<path class="st6" d="M847.8,951.4h1.9v12.9h-1.9V951.4z"/>
		</g>
		<g>
			<path class="st6" d="M852,951.4h1.9v12.9H852V951.4z"/>
		</g>
		<g>
			<path class="st6" d="M864,955.4v8.9h-1.9v-1.1c-0.6,0.9-1.5,1.4-2.7,1.4c-2,0-3.4-1.3-3.4-3.6v-5.4h1.9v5.2c0,1.3,0.8,2.1,2,2.1
				c1.3,0,2.2-0.7,2.2-2.5v-4.7H864z"/>
		</g>
		<g>
			<path class="st6" d="M872.6,961.8c0,1.8-1.5,2.7-3.5,2.7c-1.8,0-3-0.8-3.6-2.1l1.6-1c0.3,0.8,1,1.3,2,1.3c0.8,0,1.5-0.3,1.5-1
				c0-1.6-4.8-0.7-4.8-3.9c0-1.7,1.4-2.7,3.2-2.7c1.5,0,2.7,0.7,3.3,1.8l-1.6,0.9c-0.3-0.7-0.9-1-1.7-1c-0.7,0-1.3,0.3-1.3,0.9
				C867.9,959.5,872.6,958.5,872.6,961.8z"/>
		</g>
		<g>
			<path class="st6" d="M876.7,957.3v4.2c0,1.1,0.7,1.1,2.2,1v1.7c-2.9,0.4-4.1-0.5-4.1-2.8v-4.2h-1.6v-1.8h1.6v-1.9l1.9-0.6v2.5
				h2.2v1.8H876.7z"/>
		</g>
		<g>
			<path class="st6" d="M885.4,955.3v2.1c-1.3-0.1-2.7,0.5-2.7,2.5v4.5h-1.9v-8.9h1.9v1.5C883.2,955.7,884.2,955.3,885.4,955.3z"/>
		</g>
		<g>
			<path class="st6" d="M895.3,955.4v8.9h-1.9V963c-0.7,0.9-1.7,1.5-3.1,1.5c-2.4,0-4.4-2-4.4-4.7c0-2.6,2-4.7,4.4-4.7
				c1.4,0,2.4,0.6,3.1,1.5v-1.3H895.3z M893.4,959.9c0-1.6-1.2-2.8-2.8-2.8c-1.6,0-2.8,1.2-2.8,2.8c0,1.6,1.2,2.8,2.8,2.8
				C892.2,962.7,893.4,961.5,893.4,959.9z"/>
		</g>
		<g>
			<path class="st6" d="M900.3,957.3v4.2c0,1.1,0.7,1.1,2.2,1v1.7c-2.9,0.4-4.1-0.5-4.1-2.8v-4.2h-1.6v-1.8h1.6v-1.9l1.9-0.6v2.5
				h2.2v1.8H900.3z"/>
		</g>
		<g>
			<path class="st6" d="M903.9,952.9c0-0.7,0.5-1.2,1.2-1.2c0.7,0,1.2,0.5,1.2,1.2c0,0.7-0.5,1.2-1.2,1.2
				C904.5,954.1,903.9,953.6,903.9,952.9z M904.2,955.4h1.9v8.9h-1.9V955.4z"/>
		</g>
		<g>
			<path class="st6" d="M907.8,959.9c0-2.6,2.1-4.7,4.7-4.7c2.6,0,4.7,2,4.7,4.7c0,2.6-2.1,4.7-4.7,4.7
				C909.9,964.5,907.8,962.5,907.8,959.9z M915.3,959.9c0-1.6-1.2-2.8-2.8-2.8c-1.6,0-2.8,1.2-2.8,2.8c0,1.6,1.2,2.8,2.8,2.8
				C914.1,962.7,915.3,961.5,915.3,959.9z"/>
		</g>
		<g>
			<path class="st6" d="M927,958.9v5.4h-1.9v-5.2c0-1.3-0.8-2.1-2-2.1c-1.3,0-2.2,0.7-2.2,2.5v4.7h-1.9v-8.9h1.9v1.1
				c0.6-0.9,1.5-1.4,2.7-1.4C925.5,955.2,927,956.6,927,958.9z"/>
		</g>
		<g>
			<path class="st6" d="M935.5,961.8c0,1.8-1.5,2.7-3.5,2.7c-1.8,0-3-0.8-3.6-2.1l1.6-1c0.3,0.8,1,1.3,2,1.3c0.8,0,1.5-0.3,1.5-1
				c0-1.6-4.8-0.7-4.8-3.9c0-1.7,1.4-2.7,3.2-2.7c1.5,0,2.7,0.7,3.3,1.8l-1.6,0.9c-0.3-0.7-0.9-1-1.7-1c-0.7,0-1.3,0.3-1.3,0.9
				C930.7,959.5,935.5,958.5,935.5,961.8z"/>
		</g>
		<g>
			<path class="st6" d="M936.8,963.2c0-0.7,0.6-1.3,1.3-1.3c0.7,0,1.3,0.6,1.3,1.3c0,0.7-0.6,1.3-1.3,1.3
				C937.4,964.5,936.8,963.9,936.8,963.2z"/>
		</g>
		<g>
			<path class="st6" d="M940.3,959.9c0-2.6,2-4.7,4.7-4.7c1.7,0,3.2,0.9,3.9,2.3l-1.6,1c-0.4-0.8-1.3-1.4-2.3-1.4
				c-1.6,0-2.7,1.2-2.7,2.8c0,1.6,1.2,2.8,2.7,2.8c1.1,0,1.9-0.5,2.4-1.4l1.6,0.9c-0.7,1.4-2.2,2.3-4,2.3
				C942.3,964.5,940.3,962.5,940.3,959.9z"/>
		</g>
		<g>
			<path class="st6" d="M949.7,959.9c0-2.6,2.1-4.7,4.7-4.7c2.6,0,4.7,2,4.7,4.7c0,2.6-2.1,4.7-4.7,4.7
				C951.8,964.5,949.7,962.5,949.7,959.9z M957.2,959.9c0-1.6-1.2-2.8-2.8-2.8s-2.8,1.2-2.8,2.8c0,1.6,1.2,2.8,2.8,2.8
				S957.2,961.5,957.2,959.9z"/>
		</g>
	</g>
</g>
<path id="XMLID_2_" class="st11" d="M523.5,503.2L523.5,503.2l0,21.5c-0.5-0.1-1.1-0.2-1.7-0.2c-3.9,0-7.1,2.7-7.1,6.1
	c0,3.4,3.2,6.1,7.1,6.1c3.9,0,7.1-2.7,7.1-6.1v-23.7l15.6-6.6v17.1c-0.5-0.1-1.1-0.2-1.7-0.2c-3.9,0-7.1,2.7-7.1,6.1
	c0,3.4,3.2,6.1,7.1,6.1c3.9,0,7.1-2.7,7.1-6.1V498v-2.1V492L523.5,503.2z"/>
<path id="XMLID_123_" class="st20" d="M523.5,503.2L523.5,503.2l0,21.5c-0.5-0.1-1.1-0.2-1.7-0.2c-3.9,0-7.1,2.7-7.1,6.1
	c0,3.4,3.2,6.1,7.1,6.1c3.9,0,7.1-2.7,7.1-6.1v-23.7l15.6-6.6v17.1c-0.5-0.1-1.1-0.2-1.7-0.2c-3.9,0-7.1,2.7-7.1,6.1
	c0,3.4,3.2,6.1,7.1,6.1c3.9,0,7.1-2.7,7.1-6.1V498v-2.1V492L523.5,503.2z"/>
<path id="XMLID_121_" class="st21" d="M522.2,415.5L522.2,415.5l-7.2,25.7c-0.3,1.2-1.6,1.8-2.8,1.5c0,0,0,0,0,0
	c-5.1-1.4-10.3,1-11.5,5.4c-1.2,4.4,1.9,9.1,7,10.5c5.1,1.4,10.3-1,11.5-5.4l8.2-29.6c0.2-0.8,1-1.5,1.8-1.6l18-2.3
	c1.6-0.2,2.8,1.2,2.4,2.8l-4.7,16.8c-0.3,1.2-1.6,1.8-2.8,1.5c0,0,0,0,0,0c-5.1-1.4-10.3,1-11.5,5.4c-1.2,4.4,1.9,9.1,7,10.5
	c5.1,1.4,10.3-1,11.5-5.4l9.2-33l0.7-2.7l0.5-1.9c0.4-1.5-0.8-3-2.4-2.8L522.2,415.5z"/>
<path id="XMLID_120_" class="st20" d="M522.2,415.5L522.2,415.5l-7.2,25.7c-0.3,1.2-1.6,1.8-2.8,1.5c0,0,0,0,0,0
	c-5.1-1.4-10.3,1-11.5,5.4c-1.2,4.4,1.9,9.1,7,10.5c5.1,1.4,10.3-1,11.5-5.4l8.2-29.6c0.2-0.8,1-1.5,1.8-1.6l18-2.3
	c1.6-0.2,2.8,1.2,2.4,2.8l-4.7,16.8c-0.3,1.2-1.6,1.8-2.8,1.5c0,0,0,0,0,0c-5.1-1.4-10.3,1-11.5,5.4c-1.2,4.4,1.9,9.1,7,10.5
	c5.1,1.4,10.3-1,11.5-5.4l9.2-33l0.7-2.7l0.5-1.9c0.4-1.5-0.8-3-2.4-2.8L522.2,415.5z"/>
<path id="XMLID_122_" class="st3" d="M536.5,548.1l-0.8,1.2c-0.8,1.2-1.9,2.1-3.1,2.8l-6.5,3.7l0.9,3.1l0,0l3.5,11.5
	c-0.4,0-0.7,0.1-1.1,0.2c-2.1,0.6-3.4,2.6-2.9,4.5c0.5,1.8,2.7,2.8,4.9,2.2c2-0.6,2.5-1.2,2.2-2.9l0.1-1l-3.5-12.5l4.4-2.6
	c1.4-0.8,2.6-1.9,3.5-3.3l0.4-0.6L536.5,548.1z"/>
<path id="XMLID_125_" class="st20" d="M537.5,548.1l-0.8,1.2c-0.8,1.2-1.9,2.1-3.1,2.8l-6.5,3.7l0.9,3.1l0,0l3.5,11.5
	c-0.4,0-0.7,0.1-1.1,0.2c-2.1,0.6-3.4,2.6-2.9,4.5c0.5,1.8,2.7,2.8,4.9,2.2c2-0.6,1.2-1.4,0.9-3.2l0,0l-3.8-12.6l6.1-3.2
	c1.4-0.8,2.6-1.9,3.5-3.3l0.4-0.6L537.5,548.1z"/>
<path id="XMLID_4_" class="st8" d="M262.9,359.2c-2-11.4-12.8-19-24.1-17c-0.2,0-0.4,0.1-0.5,0.1c-5-13.1-18.7-21.3-33.1-18.8
	c-12.4,2.2-21.7,11.7-24.1,23.3c-3.5-1.9-7.6-2.7-11.8-1.9c-9.9,1.7-16.5,11.1-14.8,21c1.7,9.9,11.1,16.5,21,14.8
	c3.3-0.6,6.2-2,8.6-4c2.3,13.2,15,22.1,28.2,19.8c9-1.6,16.1-7.9,18.9-16c4.2,2.7,9.4,3.9,14.8,3
	C257.3,381.3,264.9,370.5,262.9,359.2z"/>
<path id="XMLID_157_" class="st9" d="M247.6,374.6c-5.3,0.9-10.6-0.3-14.8-3c-2.8,8.1-9.8,14.4-18.9,16
	c-13.3,2.3-25.9-6.6-28.2-19.8c-2.4,2-5.3,3.4-8.6,4c-9.9,1.7-19.3-4.9-21-14.8c-0.1-0.7-0.2-1.4-0.2-2c-1.5,3.2-2.1,7-1.4,10.8
	c1.7,9.9,11.1,16.5,21,14.8c3.3-0.6,6.2-2,8.6-4c2.3,13.2,15,22.1,28.2,19.8c9-1.6,16.1-7.9,18.9-16c4.2,2.7,9.4,3.9,14.8,3
	c10.3-1.8,17.5-10.9,17.3-21.1C260.5,368.5,254.8,373.3,247.6,374.6z"/>
<path id="XMLID_161_" class="st10" d="M235.6,392.9c2.2,0.5,4.4,0.7,6.7,0.7c0,0,0,0,0,0c1.8,0,3.5-0.2,5.3-0.5
	c16.8-2.9,28.1-18.9,25.1-35.7c-1.3-7.2-5-13.5-10.2-18c-13.1,18.5-23.9,38.3-32.3,59.1C232.3,396.8,234.1,395,235.6,392.9z"/>
<path id="XMLID_158_" class="st2" d="M262.9,359.2c-2-11.4-12.8-19-24.1-17c-0.2,0-0.4,0.1-0.5,0.1c-5-13.1-18.7-21.3-33.1-18.8
	c-12.4,2.2-21.7,11.7-24.1,23.3c-3.5-1.9-7.6-2.7-11.8-1.9c-9.9,1.7-16.5,11.1-14.8,21c1.7,9.9,11.1,16.5,21,14.8
	c3.3-0.6,6.2-2,8.6-4c2.3,13.2,15,22.1,28.2,19.8c9-1.6,16.1-7.9,18.9-16c4.2,2.7,9.4,3.9,14.8,3
	C257.3,381.3,264.9,370.5,262.9,359.2z"/>
</svg>
