<?xml version="1.0" encoding="utf-8"?>
<!-- Generator: Adobe Illustrator 23.1.1, SVG Export Plug-In . SVG Version: 6.00 Build 0)  -->
<svg version="1.1" id="Layer_1" xmlns="http://www.w3.org/2000/svg" xmlns:xlink="http://www.w3.org/1999/xlink" x="0px" y="0px"
	 viewBox="0 0 1000 1000" style="enable-background:new 0 0 1000 1000;" xml:space="preserve">
<style type="text/css">
	.st0{fill:#FFFFFF;}
	.st1{opacity:0.39;}
	.st2{fill:none;stroke:#9284CE;stroke-width:6;stroke-linecap:round;stroke-linejoin:round;stroke-miterlimit:10;}
	.st3{opacity:0.4;}
	.st4{fill:none;stroke:#FF6F6C;stroke-width:3.6376;stroke-linecap:round;stroke-linejoin:round;stroke-miterlimit:10;}
	.st5{fill:none;stroke:#FFA65C;stroke-width:6;stroke-linecap:round;stroke-linejoin:round;stroke-miterlimit:10;}
	.st6{opacity:0.45;fill:none;stroke:#FFA65C;stroke-width:4;stroke-linecap:round;stroke-linejoin:round;stroke-miterlimit:10;}
	.st7{opacity:0.24;}
	.st8{fill:none;stroke:#34323A;stroke-width:9.3261;stroke-linecap:round;stroke-linejoin:round;stroke-miterlimit:10;}
	.st9{fill:none;stroke:#FFA64D;stroke-width:3;stroke-linecap:round;stroke-linejoin:round;stroke-miterlimit:10;}
	.st10{opacity:0.57;}
	.st11{fill:none;stroke:#E24D59;stroke-width:4;stroke-linecap:square;stroke-miterlimit:10;}
	.st12{fill:none;stroke:#AE8DCE;stroke-width:3.1048;stroke-linecap:round;stroke-linejoin:round;stroke-miterlimit:10;}
	.st13{fill:none;stroke:#34323A;stroke-width:12;stroke-linecap:round;stroke-linejoin:round;stroke-miterlimit:10;}
	.st14{fill:#DBA44A;}
	.st15{fill:none;stroke:#34323A;stroke-width:8;stroke-linecap:round;stroke-linejoin:round;stroke-miterlimit:10;}
	.st16{fill:#FECB5B;}
	.st17{fill:#EF4C4E;}
	.st18{opacity:0.46;fill:#F4E598;}
	.st19{opacity:0.2;fill:#4C1C1F;}
	.st20{fill:none;stroke:#34323A;stroke-width:6;stroke-linecap:round;stroke-linejoin:round;stroke-miterlimit:10;}
	.st21{fill:#EEF2FA;}
	.st22{fill:none;stroke:#34323A;stroke-width:2;stroke-linecap:round;stroke-linejoin:round;stroke-miterlimit:10;}
	.st23{fill:#6FBB57;}
	.st24{fill:#579B3E;}
	.st25{opacity:0.42;fill:#FFFFFF;}
	.st26{opacity:0.63;fill:#EA952F;}
	.st27{fill:#F7B45C;}
	.st28{fill:#FFCC66;}
	.st29{opacity:0.6;fill:#F7B45C;}
	.st30{fill:#6B9EC0;}
	.st31{fill:#5187A5;}
	.st32{opacity:0.62;}
	.st33{fill:#DD3A43;}
	.st34{fill:#FF8D93;}
</style>
<rect id="XMLID_2_" class="st0" width="1000" height="1000"/>
<g id="XMLID_41_">
	<g id="XMLID_354_" class="st1">
		<line id="XMLID_356_" class="st2" x1="798.2" y1="558.8" x2="810.2" y2="558.8"/>
		<line id="XMLID_355_" class="st2" x1="804.2" y1="552.8" x2="804.2" y2="564.8"/>
	</g>
	<g id="XMLID_358_" class="st3">
		<line id="XMLID_360_" class="st2" x1="469.1" y1="262.5" x2="481.1" y2="262.5"/>
		<line id="XMLID_359_" class="st2" x1="475.1" y1="256.5" x2="475.1" y2="268.5"/>
	</g>
	<circle id="XMLID_353_" class="st4" cx="660.1" cy="340.6" r="8.7"/>
	<circle id="XMLID_352_" class="st4" cx="114.5" cy="452.5" r="3.8"/>
	<circle id="XMLID_351_" class="st5" cx="769.2" cy="334.7" r="7.3"/>
	<circle id="XMLID_361_" class="st6" cx="167.5" cy="650.2" r="7.3"/>
	<g id="XMLID_348_">
		<line id="XMLID_350_" class="st4" x1="396.2" y1="225.1" x2="405.4" y2="225.1"/>
		<line id="XMLID_349_" class="st4" x1="400.8" y1="220.5" x2="400.8" y2="229.7"/>
	</g>
	<g id="XMLID_345_" class="st7">
		<line id="XMLID_347_" class="st8" x1="269.5" y1="525" x2="291.6" y2="525"/>
		<line id="XMLID_346_" class="st8" x1="280.6" y1="513.9" x2="280.6" y2="536.1"/>
	</g>
	<g id="XMLID_330_">
		<g id="XMLID_338_">
			<g id="XMLID_342_">
				<line id="XMLID_344_" class="st9" x1="769.2" y1="475.2" x2="769.2" y2="478.7"/>
				<line id="XMLID_343_" class="st9" x1="769.2" y1="488.7" x2="769.2" y2="492.2"/>
			</g>
			<g id="XMLID_339_">
				<line id="XMLID_341_" class="st9" x1="777.7" y1="483.7" x2="774.3" y2="483.7"/>
				<line id="XMLID_340_" class="st9" x1="764.2" y1="483.7" x2="760.7" y2="483.7"/>
			</g>
		</g>
		<g id="XMLID_331_">
			<g id="XMLID_335_">
				<line id="XMLID_337_" class="st9" x1="775.3" y1="477.7" x2="772.8" y2="480.2"/>
				<line id="XMLID_336_" class="st9" x1="765.7" y1="487.3" x2="763.2" y2="489.7"/>
			</g>
			<g id="XMLID_332_">
				<line id="XMLID_334_" class="st9" x1="775.3" y1="489.7" x2="772.8" y2="487.3"/>
				<line id="XMLID_333_" class="st9" x1="765.7" y1="480.2" x2="763.2" y2="477.7"/>
			</g>
		</g>
	</g>
	<g id="XMLID_315_" class="st10">
		<g id="XMLID_323_">
			<g id="XMLID_327_">
				<line id="XMLID_329_" class="st11" x1="611.9" y1="225.1" x2="611.9" y2="233.7"/>
				<line id="XMLID_328_" class="st11" x1="611.9" y1="258.2" x2="611.9" y2="266.7"/>
			</g>
			<g id="XMLID_324_">
				<line id="XMLID_326_" class="st11" x1="632.7" y1="245.9" x2="624.2" y2="245.9"/>
				<line id="XMLID_325_" class="st11" x1="599.7" y1="245.9" x2="591.1" y2="245.9"/>
			</g>
		</g>
		<g id="XMLID_316_">
			<g id="XMLID_320_">
				<line id="XMLID_322_" class="st11" x1="626.6" y1="231.2" x2="620.6" y2="237.3"/>
				<line id="XMLID_321_" class="st11" x1="603.2" y1="254.6" x2="597.2" y2="260.6"/>
			</g>
			<g id="XMLID_317_">
				<line id="XMLID_319_" class="st11" x1="626.6" y1="260.6" x2="620.6" y2="254.6"/>
				<line id="XMLID_318_" class="st11" x1="603.2" y1="237.3" x2="597.2" y2="231.2"/>
			</g>
		</g>
	</g>
	<g id="XMLID_300_">
		<g id="XMLID_308_">
			<g id="XMLID_312_">
				<line id="XMLID_314_" class="st4" x1="189.4" y1="448.3" x2="189.4" y2="454.5"/>
				<line id="XMLID_313_" class="st4" x1="189.4" y1="472.1" x2="189.4" y2="478.3"/>
			</g>
			<g id="XMLID_309_">
				<line id="XMLID_311_" class="st4" x1="204.4" y1="463.3" x2="198.3" y2="463.3"/>
				<line id="XMLID_310_" class="st4" x1="180.6" y1="463.3" x2="174.4" y2="463.3"/>
			</g>
		</g>
		<g id="XMLID_301_">
			<g id="XMLID_305_">
				<line id="XMLID_307_" class="st4" x1="200" y1="452.7" x2="195.7" y2="457.1"/>
				<line id="XMLID_306_" class="st4" x1="183.2" y1="469.6" x2="178.8" y2="473.9"/>
			</g>
			<g id="XMLID_302_">
				<line id="XMLID_304_" class="st4" x1="200" y1="473.9" x2="195.7" y2="469.6"/>
				<line id="XMLID_303_" class="st4" x1="183.2" y1="457.1" x2="178.8" y2="452.7"/>
			</g>
		</g>
	</g>
	<g id="XMLID_87_">
		<g id="XMLID_293_">
			<g id="XMLID_297_">
				<line id="XMLID_299_" class="st12" x1="305.2" y1="279.1" x2="305.2" y2="284.4"/>
				<line id="XMLID_298_" class="st12" x1="305.2" y1="299.5" x2="305.2" y2="304.7"/>
			</g>
			<g id="XMLID_294_">
				<line id="XMLID_296_" class="st12" x1="318" y1="291.9" x2="312.7" y2="291.9"/>
				<line id="XMLID_295_" class="st12" x1="297.6" y1="291.9" x2="292.4" y2="291.9"/>
			</g>
		</g>
		<g id="XMLID_89_">
			<g id="XMLID_270_">
				<line id="XMLID_292_" class="st12" x1="314.2" y1="282.9" x2="310.5" y2="286.6"/>
				<line id="XMLID_289_" class="st12" x1="299.8" y1="297.3" x2="296.1" y2="301"/>
			</g>
			<g id="XMLID_266_">
				<line id="XMLID_269_" class="st12" x1="314.2" y1="301" x2="310.5" y2="297.3"/>
				<line id="XMLID_268_" class="st12" x1="299.8" y1="286.6" x2="296.1" y2="282.9"/>
			</g>
		</g>
	</g>
</g>
<line id="XMLID_267_" class="st13" x1="155.5" y1="745.4" x2="838" y2="745.4"/>
<g id="XMLID_194_">
	<path id="XMLID_192_" class="st14" d="M225.1,627c-14.7,9-21.2,25.1,0,31c44.8-0.9,66.5-1,66.5-1v-18.1
		C291.6,638.9,239.8,618,225.1,627z"/>
	<path id="XMLID_191_" class="st15" d="M225.1,627c-14.7,9-21.2,25.1,0,31c44.8-0.9,66.5-1,66.5-1v-18.1
		C291.6,638.9,239.8,618,225.1,627z"/>
</g>
<g id="XMLID_195_">
	<path id="XMLID_202_" class="st14" d="M225.1,627c-14.7,9-21.2,25.1,0,31c44.8-0.9,66.5-1,66.5-1v-18.1
		C291.6,638.9,239.8,618,225.1,627z"/>
	<path id="XMLID_221_" class="st16" d="M226.7,634.1c13.2-8,56.3,8,65,11.3v-6.5c0,0-51.8-20.9-66.5-11.9
		c-10.4,6.4-16.7,16.3-11.9,23.7C214.1,644.8,219.4,638.5,226.7,634.1z"/>
	<path id="XMLID_201_" class="st15" d="M225.1,627c-14.7,9-21.2,25.1,0,31c44.8-0.9,66.5-1,66.5-1v-18.1
		C291.6,638.9,239.8,618,225.1,627z"/>
</g>
<g id="XMLID_197_">
	<path id="XMLID_200_" class="st14" d="M397.3,627c14.7,9,21.2,25.1,0,31c-44.8-0.9-66.5-1-66.5-1v-18.1
		C330.8,638.9,382.7,618,397.3,627z"/>
	<path id="XMLID_222_" class="st16" d="M397.3,633.1c6.7,4.1,11.6,9.6,13.1,15c2.2-7-3.8-15.5-13.1-21.2
		c-14.7-9-66.5,11.9-66.5,11.9v6.2C330.8,645.1,382.7,624.2,397.3,633.1z"/>
	<path id="XMLID_199_" class="st15" d="M397.3,627c14.7,9,21.2,25.1,0,31c-44.8-0.9-66.5-1-66.5-1v-18.1
		C330.8,638.9,382.7,618,397.3,627z"/>
</g>
<g id="XMLID_193_">
	<path id="XMLID_190_" class="st14" d="M326,663.5c-9.9,2.2-20.2,2.2-30.1,0c-6.8-1.9-12-9.7-12-15.9l0,0c0-6.2,5.2-14.1,12-15.9
		c9.9-2.2,20.2-2.2,30.1,0c6.8,1.9,12,9.7,12,15.9l0,0C337.9,653.7,332.7,661.6,326,663.5z"/>
	<path id="XMLID_205_" class="st16" d="M295.8,639.4c9.9-2.2,20.2-2.2,30.1,0c5.4,1.5,9.8,6.8,11.4,12c0.4-1.3,0.6-2.7,0.6-3.9
		c0-6.2-5.2-14.1-12-15.9c-9.9-2.2-20.2-2.2-30.1,0c-6.8,1.9-12,9.7-12,15.9c0,1.3,0.2,2.6,0.6,3.9
		C286.1,646.2,290.5,640.9,295.8,639.4z"/>
	<path id="XMLID_189_" class="st15" d="M326,663.5c-9.9,2.2-20.2,2.2-30.1,0c-6.8-1.9-12-9.7-12-15.9l0,0c0-6.2,5.2-14.1,12-15.9
		c9.9-2.2,20.2-2.2,30.1,0c6.8,1.9,12,9.7,12,15.9l0,0C337.9,653.7,332.7,661.6,326,663.5z"/>
</g>
<g id="XMLID_188_">
	<rect id="XMLID_187_" x="204" y="659.7" class="st16" width="178.3" height="85.2"/>
	<g id="XMLID_11_">
		<polygon id="XMLID_243_" class="st17" points="382.3,678.8 316.1,744.9 339.6,744.9 382.3,702.2 		"/>
		<polygon id="XMLID_244_" class="st17" points="377,659.7 355.4,659.7 270.1,744.9 293.6,744.9 377.9,660.6 		"/>
		<polygon id="XMLID_245_" class="st17" points="309.4,659.7 224.1,744.9 247.6,744.9 332.8,659.7 		"/>
		<polygon id="XMLID_246_" class="st17" points="286.8,659.7 263.4,659.7 204,719 204,736.9 206.8,739.7 		"/>
		<polygon id="XMLID_247_" class="st17" points="217.4,659.7 204,673 204,696.5 240.8,659.7 		"/>
	</g>
	<rect id="XMLID_207_" x="204" y="659.7" class="st18" width="178.3" height="12.3"/>
	<rect id="XMLID_206_" x="204" y="659.7" class="st19" width="15.5" height="85.2"/>
	<rect id="XMLID_215_" x="349.2" y="659.7" class="st19" width="15.5" height="85.2"/>
	<rect id="XMLID_184_" x="204" y="659.7" class="st13" width="178.3" height="85.2"/>
</g>
<path id="XMLID_166_" class="st0" d="M599.5,413.7c0,0,2.6,10.1-11.9,19c31.5,6.5,51.1,21.7,54.3,25.3c6.2,0,6.2,0,6.2,0
	S639.7,417.7,599.5,413.7z"/>
<path id="XMLID_162_" class="st20" d="M599.5,413.7c0,0,2.6,10.1-11.9,19c31.5,6.5,51.1,21.7,54.3,25.3c6.2,0,6.2,0,6.2,0
	S639.7,417.7,599.5,413.7z"/>
<path id="XMLID_170_" class="st0" d="M709.4,420.1c0,0-4,9.6,9.1,20.5c-32.1,2-53.7,14.2-57.3,17.4c-6.2-0.9-6.2-0.9-6.2-0.9
	S669,418.4,709.4,420.1z"/>
<path id="XMLID_168_" class="st20" d="M709.4,420.1c0,0-4,9.6,9.1,20.5c-32.1,2-53.7,14.2-57.3,17.4c-6.2-0.9-6.2-0.9-6.2-0.9
	S669,418.4,709.4,420.1z"/>
<g id="XMLID_160_">
	<path id="XMLID_154_" class="st21" d="M655,452.6c0,0,9.2-20.5,29.2-20.5c19.1,0.8,32.2,31.4,16.8,33.9
		c-15.5,2.5-41.9,3.3-41.9,3.3S662.9,460.5,655,452.6z"/>
	<path id="XMLID_152_" class="st20" d="M655,452.6c0,0,9.2-20.5,29.2-20.5c19.1,0.8,32.2,31.4,16.8,33.9
		c-15.5,2.5-41.9,3.3-41.9,3.3S662.9,460.5,655,452.6z"/>
</g>
<g id="XMLID_156_">
	<path id="XMLID_159_" class="st21" d="M644.5,452.6c0,0-9.2-20.5-29.2-20.5c-19.1,0.8-32.2,31.4-16.8,33.9
		c15.5,2.5,41.9,3.3,41.9,3.3S636.6,460.5,644.5,452.6z"/>
	<path id="XMLID_158_" class="st20" d="M644.5,452.6c0,0-9.2-20.5-29.2-20.5c-19.1,0.8-32.2,31.4-16.8,33.9
		c15.5,2.5,41.9,3.3,41.9,3.3S636.6,460.5,644.5,452.6z"/>
</g>
<path id="XMLID_178_" class="st22" d="M638.5,456.5c0,0,0-4.9-10.3-6.8"/>
<path id="XMLID_175_" class="st22" d="M639.5,461.4c0,0-11.1-8.5-28.8-8"/>
<path id="XMLID_5_" class="st23" d="M533.2,744.9H369.5c-3.3,0-6-2.7-6-6V384.7h175.7v354.2C539.2,742.3,536.5,744.9,533.2,744.9z"
	/>
<g id="XMLID_26_">
	<g>
		<g id="XMLID_391_">
			<rect x="363.5" y="384.7" class="st24" width="175.7" height="16.7"/>
		</g>
		<g id="XMLID_390_">
			<rect x="363.5" y="552.1" class="st24" width="175.7" height="16.7"/>
		</g>
		<g id="XMLID_389_">
			<rect x="451.1" y="384.7" class="st24" width="24.2" height="360.2"/>
		</g>
		<g id="XMLID_388_">
			<path class="st24" d="M517.9,744.9h-24.2V622c0-7.1,5.7-12.8,12.8-12.8h11.4V744.9z"/>
		</g>
		<g id="XMLID_387_">
			<rect x="364.1" y="384.7" class="st24" width="12.1" height="360.2"/>
		</g>
	</g>
</g>
<path id="XMLID_1_" class="st13" d="M533.2,744.9H369.5c-3.3,0-6-2.7-6-6V384.7h175.7v354.2C539.2,742.3,536.5,744.9,533.2,744.9z"
	/>
<path id="XMLID_8_" class="st23" d="M545.4,340.7h-188c-3.3,0-6,2.7-6,6v32c0,3.3,2.7,6,6,6h188c3.3,0,6-2.7,6-6v-32
	C551.4,343.4,548.7,340.7,545.4,340.7z"/>
<g id="XMLID_91_">
	<g id="XMLID_124_">
		<g id="XMLID_127_">
			<path id="XMLID_128_" class="st23" d="M456.6,332.2c0,0,16.7-31.5,47-34.2c22.3-2,27.3,52.2,21.3,58.3
				c-9.6,9.6-26.6,4.2-58.5-2.6C456.6,332.2,456.6,332.2,456.6,332.2z"/>
		</g>
		<g id="XMLID_125_">
			<path id="XMLID_126_" class="st23" d="M441.5,332.2c0,0-16.7-31.5-47-34.2c-22.3-2-27.3,52.2-21.3,58.3
				c9.6,9.6,26.6,4.2,58.5-2.6C441.5,332.2,441.5,332.2,441.5,332.2z"/>
		</g>
	</g>
</g>
<rect id="XMLID_49_" x="436.7" y="340.7" class="st23" width="45.3" height="44"/>
<g id="XMLID_6_">
	<g>
		<g id="XMLID_365_">
			<path class="st24" d="M545.4,372.7h-188c-3.3,0-6,2.7-6,6v0c0,3.3,2.7,6,6,6h188c3.3,0,6-2.7,6-6v0
				C551.4,375.4,548.7,372.7,545.4,372.7z"/>
		</g>
		<g id="XMLID_364_">
			<rect x="353.5" y="340.7" class="st24" width="10" height="44"/>
		</g>
	</g>
</g>
<path id="XMLID_34_" class="st25" d="M545.4,340.7h-188c-3.3,0-6,2.7-6,6l0,0c0,3.3,2.7,6,6,6h188c3.3,0,6-2.7,6-6l0,0
	C551.4,343.4,548.7,340.7,545.4,340.7z"/>
<rect id="XMLID_10_" x="436.4" y="384.7" class="st16" width="30" height="360.2"/>
<rect id="XMLID_9_" x="436.4" y="384.7" class="st15" width="30" height="360.2"/>
<path id="XMLID_7_" class="st13" d="M545.4,340.7h-188c-3.3,0-6,2.7-6,6v32c0,3.3,2.7,6,6,6h188c3.3,0,6-2.7,6-6v-32
	C551.4,343.4,548.7,340.7,545.4,340.7z"/>
<rect id="XMLID_20_" x="428.7" y="340.7" class="st16" width="45.3" height="44"/>
<path id="XMLID_50_" class="st26" d="M451.4,369.9L451.4,369.9c-12.5,0-22.7-10.1-22.7-22.7V339c0-12.5,10.1-22.7,22.7-22.7h0
	c12.5,0,22.7,10.1,22.7,22.7v8.3C474,359.8,463.9,369.9,451.4,369.9z"/>
<rect id="XMLID_19_" x="428.7" y="340.7" class="st15" width="45.3" height="44"/>
<g id="XMLID_25_">
	<path id="XMLID_17_" class="st27" d="M456.6,323.2c0,0,16.7-31.5,47-34.2c22.3-2,27.3,52.2,21.3,58.3c-9.6,9.6-26.6,4.2-58.5-2.6
		C456.6,323.2,456.6,323.2,456.6,323.2z"/>
	<path id="XMLID_42_" class="st26" d="M481,338.3V330c0-9.6-4.6-18.1-11.6-23.5c-8.4,8.4-12.8,16.7-12.8,16.7s0,0,9.8,21.5
		c4.7,1,9.1,2,13.2,2.9C480.5,344.6,481,341.5,481,338.3z"/>
	<path id="XMLID_43_" class="st16" d="M505.4,295.8c9.5-0.9,15.9,8.5,19.6,20c-3.2-14.3-10.1-27.8-21.4-26.8
		c-30.3,2.7-47,34.2-47,34.2s0,0,2.5,5.6C462.5,323,478.7,298.2,505.4,295.8z"/>
	<path id="XMLID_16_" class="st15" d="M456.6,323.2c0,0,16.7-31.5,47-34.2c22.3-2,27.3,52.2,21.3,58.3c-9.6,9.6-26.6,4.2-58.5-2.6
		C456.6,323.2,456.6,323.2,456.6,323.2z"/>
</g>
<path id="XMLID_56_" class="st22" d="M469.5,326.9c0,0,11.7-10.4,25.1-12.4"/>
<path id="XMLID_62_" class="st22" d="M471.1,326.4c0,0,14.8-5.2,27.9-2.2"/>
<g id="XMLID_18_">
	<path id="XMLID_24_" class="st27" d="M441.5,323.2c0,0-16.7-31.5-47-34.2c-22.3-2-27.3,52.2-21.3,58.3c9.6,9.6,26.6,4.2,58.5-2.6
		C441.5,323.2,441.5,323.2,441.5,323.2z"/>
	<path id="XMLID_40_" class="st26" d="M421.7,330v8.3c0,2.9,0.4,5.7,1.2,8.4c2.8-0.6,5.7-1.3,8.8-1.9c9.8-21.5,9.8-21.5,9.8-21.5
		s-3.7-6.9-10.7-14.5C425.2,314,421.7,321.6,421.7,330z"/>
	<path id="XMLID_208_" class="st16" d="M393.3,296.8c25.4,2.3,41.3,24.8,45.7,32c2.5-5.6,2.5-5.6,2.5-5.6s-16.7-31.5-47-34.2
		c-13.8-1.2-21,19.2-23,36.3C374.5,310.4,381.5,295.7,393.3,296.8z"/>
	<path id="XMLID_21_" class="st15" d="M441.5,323.2c0,0-16.7-31.5-47-34.2c-22.3-2-27.3,52.2-21.3,58.3c9.6,9.6,26.6,4.2,58.5-2.6
		C441.5,323.2,441.5,323.2,441.5,323.2z"/>
</g>
<path id="XMLID_58_" class="st22" d="M404.9,326.2c0,0,15.6-1.8,27.7,4.2"/>
<path id="XMLID_64_" class="st22" d="M408.2,315.2c0,0,15.2,3.6,24.7,13.3"/>
<rect id="XMLID_13_" x="363.5" y="530.5" class="st28" width="175.7" height="30"/>
<g>
	<g>
		<g>
			<path class="st17" d="M63.2,959.2c0,2.5-1.2,3.7-2.6,3.7c-1.1,0-1.9-0.5-2.1-1.4c-0.4,0.5-1,0.8-1.8,0.8c-1.5,0-2.6-1.2-2.6-2.8
				c0-1.6,1.1-2.8,2.6-2.8c0.7,0,1.2,0.3,1.6,0.7v-0.5h1.6v3.9c0,0.8,0.3,1.4,1,1.4c0.9,0,1.7-0.9,1.7-3c0-3-2.3-5.3-5.4-5.3
				c-3.1,0-5.6,2.4-5.6,5.7c0,3.3,2.5,5.7,5.9,5.7c1.1,0,2.1-0.2,2.9-0.4v0.6c-0.8,0.3-1.7,0.4-2.9,0.4c-3.7,0-6.5-2.6-6.5-6.2
				c0-3.4,2.7-6.2,6.2-6.2C61.1,953.3,63.2,956.4,63.2,959.2z M58.3,959.5c0-0.8-0.6-1.4-1.3-1.4c-0.8,0-1.3,0.5-1.3,1.4
				c0,0.8,0.6,1.3,1.3,1.3C57.8,960.9,58.3,960.3,58.3,959.5z"/>
		</g>
		<g>
			<path class="st17" d="M69.4,955.1v2c-1.2-0.1-2.6,0.5-2.6,2.4v4.3h-1.9v-8.6h1.9v1.4C67.3,955.5,68.3,955.1,69.4,955.1z"/>
		</g>
		<g>
			<path class="st17" d="M74.6,962.3c1,0,1.8-0.5,2.2-1.1l1.5,0.9c-0.8,1.2-2.1,1.9-3.8,1.9c-2.8,0-4.7-1.9-4.7-4.5
				c0-2.5,1.8-4.5,4.5-4.5c2.6,0,4.3,2.1,4.3,4.5c0,0.3,0,0.5-0.1,0.8h-6.8C72.1,961.6,73.2,962.3,74.6,962.3z M76.9,958.8
				c-0.3-1.5-1.3-2.1-2.5-2.1c-1.4,0-2.3,0.8-2.6,2.1H76.9z"/>
		</g>
		<g>
			<path class="st17" d="M88.9,955.2v8.6h-1.9v-1.2c-0.7,0.9-1.7,1.5-3,1.5c-2.3,0-4.3-2-4.3-4.5c0-2.6,1.9-4.5,4.3-4.5
				c1.3,0,2.3,0.5,3,1.4v-1.2H88.9z M87.1,959.5c0-1.6-1.2-2.7-2.7-2.7c-1.5,0-2.7,1.1-2.7,2.7c0,1.6,1.2,2.7,2.7,2.7
				C85.9,962.3,87.1,961.1,87.1,959.5z"/>
		</g>
		<g>
			<path class="st17" d="M91.1,951.3H93v12.5h-1.9V951.3z"/>
		</g>
		<g>
			<path class="st17" d="M102.9,955.2l-3.3,8.6h-2.1l-3.3-8.6h2l2.4,6.5l2.4-6.5H102.9z"/>
		</g>
		<g>
			<path class="st17" d="M104.2,955.2h1.9v8.9c0,2.4-1.2,3.5-3.5,3.3v-1.8c1.1,0.1,1.7-0.3,1.7-1.5V955.2z M104,952.8
				c0-0.7,0.5-1.2,1.2-1.2c0.7,0,1.2,0.5,1.2,1.2c0,0.6-0.5,1.2-1.2,1.2C104.5,954,104,953.4,104,952.8z"/>
		</g>
		<g>
			<path class="st17" d="M116,955.2l-3.3,8.8c-0.8,2.2-2.2,3.3-4.2,3.2v-1.7c1.2,0.1,1.9-0.5,2.3-1.7l0.1-0.2l-3.6-8.4h2l2.6,6.2
				l2.2-6.2H116z"/>
		</g>
	</g>
	<g>
		<path class="st17" d="M211.9,938.7c0,2.1-1.5,3.8-3.6,3.8h-3v-7.6h3C210.4,934.9,211.9,936.6,211.9,938.7z M210.9,938.7
			c0-1.6-1.1-2.9-2.6-2.9h-2v5.7h2C209.8,941.6,210.9,940.3,210.9,938.7z"/>
		<path class="st17" d="M219.5,940.8h-3.4l-0.6,1.7h-1.1l2.8-7.6h1.1l2.8,7.6h-1.1L219.5,940.8z M219.2,939.9l-1.4-3.8l-1.4,3.8
			H219.2z"/>
		<path class="st17" d="M226.4,939.4v3.1h-1v-3.1l-2.7-4.5h1.1l2.1,3.6l2.1-3.6h1.1L226.4,939.4z"/>
		<path class="st17" d="M242.1,940.4c0,1.4-1.1,2.2-2.6,2.2c-1.5,0-2.6-0.8-2.6-2.2c0-0.8,0.5-1.5,1.2-1.9c-0.6-0.3-0.9-0.9-0.9-1.7
			c0-1.5,1.2-2.2,2.4-2.2c1.2,0,2.4,0.7,2.4,2.2c0,0.8-0.4,1.3-0.9,1.7C241.7,938.9,242.1,939.6,242.1,940.4z M241.1,940.4
			c0-0.9-0.7-1.3-1.6-1.3c-0.9,0-1.6,0.4-1.6,1.3c0,0.9,0.7,1.3,1.6,1.3C240.5,941.7,241.1,941.2,241.1,940.4z M238.2,936.9
			c0,0.8,0.6,1.2,1.4,1.2c0.7,0,1.4-0.4,1.4-1.2c0-0.8-0.6-1.2-1.4-1.2C238.8,935.7,238.2,936.1,238.2,936.9z"/>
		<path class="st17" d="M249.9,938.8L249.9,938.8l-2.5,3.7h-1.1l1.8-2.7c-0.1,0-0.2,0-0.4,0c-1.5,0-2.6-1-2.6-2.6
			c0-1.5,1.1-2.6,2.6-2.6s2.6,1,2.6,2.6C250.4,937.9,250.2,938.4,249.9,938.8z M247.8,938.9c1,0,1.6-0.6,1.6-1.6s-0.7-1.6-1.6-1.6
			s-1.6,0.6-1.6,1.6C246.2,938.3,246.8,938.9,247.8,938.9z"/>
	</g>
	<g>
		<path class="st17" d="M58.9,938.7c0,2.1-1.5,3.8-3.6,3.8h-3v-7.6h3C57.4,934.9,58.9,936.6,58.9,938.7z M57.9,938.7
			c0-1.6-1.1-2.9-2.6-2.9h-2v5.7h2C56.8,941.6,57.9,940.3,57.9,938.7z"/>
		<path class="st17" d="M67,941.6v1h-4.6v-7.6h4.5v1h-3.5v2.3h3.2v0.9h-3.2v2.4H67z"/>
		<path class="st17" d="M70,940.8l0.9-0.5c0.3,0.8,0.9,1.4,2,1.4c1.1,0,1.6-0.5,1.6-1.2c0-0.8-0.7-1-1.8-1.4
			c-1.2-0.4-2.4-0.8-2.4-2.2c0-1.4,1.1-2.2,2.4-2.2c1.3,0,2.2,0.7,2.6,1.7l-0.8,0.5c-0.3-0.7-0.8-1.2-1.7-1.2
			c-0.8,0-1.4,0.4-1.4,1.1c0,0.7,0.5,1,1.6,1.3c1.3,0.4,2.6,0.8,2.6,2.3c0,1.3-1.1,2.2-2.6,2.2C71.5,942.7,70.4,941.9,70,940.8z"/>
		<path class="st17" d="M80,934.9v7.6h-1v-7.6H80z"/>
		<path class="st17" d="M91.3,939.2c0,1.9-1.4,3.5-3.7,3.5c-2.4,0-4-1.8-4-4c0-2.2,1.7-4,4-4c1.4,0,2.7,0.8,3.3,1.8l-0.9,0.5
			c-0.4-0.8-1.4-1.4-2.4-1.4c-1.8,0-3,1.3-3,3c0,1.7,1.2,3,3,3c1.6,0,2.5-0.9,2.7-2h-2.8v-0.9h3.8V939.2z"/>
		<path class="st17" d="M100.6,934.9v7.6h-0.8l-3.9-5.7v5.7h-1v-7.6h0.8l3.9,5.7v-5.7H100.6z"/>
		<path class="st17" d="M109.1,941.6v1h-4.6v-7.6h4.5v1h-3.5v2.3h3.2v0.9h-3.2v2.4H109.1z"/>
		<path class="st17" d="M119.2,938.7c0,2.1-1.5,3.8-3.6,3.8h-3v-7.6h3C117.6,934.9,119.2,936.6,119.2,938.7z M118.2,938.7
			c0-1.6-1.1-2.9-2.6-2.9h-2v5.7h2C117.1,941.6,118.2,940.3,118.2,938.7z"/>
		<path class="st17" d="M133.2,940.4c0,1.2-1,2.2-2.2,2.2h-3.3v-7.6h3c1.2,0,2.1,0.9,2.1,2.1c0,0.7-0.3,1.2-0.8,1.6
			C132.7,938.9,133.2,939.5,133.2,940.4z M128.7,935.8v2.3h2c0.6,0,1.1-0.5,1.1-1.2c0-0.6-0.5-1.2-1.1-1.2H128.7z M132.2,940.3
			c0-0.7-0.5-1.2-1.2-1.2h-2.3v2.5h2.3C131.7,941.6,132.2,941,132.2,940.3z"/>
		<path class="st17" d="M139.4,939.4v3.1h-1v-3.1l-2.7-4.5h1.1l2.1,3.6l2.1-3.6h1.1L139.4,939.4z"/>
	</g>
	<g>
		<path class="st17" d="M204.8,958.1c0-3.6,2.7-6.4,6.5-6.4c2.3,0,4.3,1.2,5.3,3l-1.8,1c-0.7-1.2-2-2-3.6-2c-2.7,0-4.4,1.9-4.4,4.4
			s1.8,4.4,4.4,4.4c1.6,0,2.9-0.8,3.6-2l1.8,1c-1,1.8-3,3-5.3,3C207.5,964.5,204.8,961.7,204.8,958.1z"/>
		<path class="st17" d="M226.3,958.9v5.4h-1.9v-5.2c0-1.3-0.8-2.1-2-2.1c-1.3,0-2.2,0.7-2.2,2.5v4.7h-1.9v-12.4h1.9v4.7
			c0.6-0.9,1.5-1.4,2.7-1.4C224.9,955.2,226.3,956.6,226.3,958.9z"/>
		<path class="st17" d="M233,955.3v2.1c-1.3-0.1-2.7,0.5-2.7,2.5v4.5h-1.9v-8.9h1.9v1.5C230.8,955.7,231.9,955.3,233,955.3z"/>
		<path class="st17" d="M234.2,952.9c0-0.7,0.5-1.2,1.2-1.2c0.7,0,1.2,0.5,1.2,1.2c0,0.7-0.5,1.2-1.2,1.2
			C234.7,954.1,234.2,953.6,234.2,952.9z M234.5,955.4h1.9v8.9h-1.9V955.4z"/>
		<path class="st17" d="M245,961.8c0,1.8-1.5,2.7-3.5,2.7c-1.8,0-3-0.8-3.6-2.1l1.6-1c0.3,0.8,1,1.3,2,1.3c0.8,0,1.5-0.3,1.5-1
			c0-1.6-4.8-0.7-4.8-3.9c0-1.7,1.4-2.7,3.2-2.7c1.5,0,2.7,0.7,3.3,1.8l-1.6,0.9c-0.3-0.7-0.9-1-1.7-1c-0.7,0-1.3,0.3-1.3,0.9
			C240.2,959.5,245,958.5,245,961.8z"/>
		<path class="st17" d="M249.1,957.3v4.2c0,1.1,0.7,1.1,2.2,1v1.7c-2.9,0.4-4.1-0.5-4.1-2.8v-4.2h-1.6v-1.8h1.6v-1.9l1.9-0.6v2.5
			h2.2v1.8H249.1z"/>
		<path class="st17" d="M266.1,958.8v5.5h-1.9v-5.4c0-1.2-0.7-1.9-1.7-1.9c-1.1,0-1.9,0.7-1.9,2.3v5h-1.9v-5.4
			c0-1.2-0.6-1.9-1.7-1.9c-1.1,0-2,0.7-2,2.3v5h-1.9v-8.9h1.9v1.1c0.6-0.9,1.4-1.3,2.5-1.3c1.2,0,2,0.5,2.5,1.4
			c0.6-0.9,1.5-1.4,2.7-1.4C264.8,955.2,266.1,956.6,266.1,958.8z"/>
		<path class="st17" d="M277.1,955.4v8.9h-1.9V963c-0.7,0.9-1.7,1.5-3.1,1.5c-2.4,0-4.4-2-4.4-4.7c0-2.6,2-4.7,4.4-4.7
			c1.4,0,2.4,0.6,3.1,1.5v-1.3H277.1z M275.2,959.9c0-1.6-1.2-2.8-2.8-2.8c-1.6,0-2.8,1.2-2.8,2.8c0,1.6,1.2,2.8,2.8,2.8
			C274,962.7,275.2,961.5,275.2,959.9z"/>
		<path class="st17" d="M285.8,961.8c0,1.8-1.5,2.7-3.5,2.7c-1.8,0-3-0.8-3.6-2.1l1.6-1c0.3,0.8,1,1.3,2,1.3c0.8,0,1.5-0.3,1.5-1
			c0-1.6-4.8-0.7-4.8-3.9c0-1.7,1.4-2.7,3.2-2.7c1.5,0,2.7,0.7,3.3,1.8l-1.6,0.9c-0.3-0.7-0.9-1-1.7-1c-0.7,0-1.3,0.3-1.3,0.9
			C281,959.5,285.8,958.5,285.8,961.8z"/>
		<path class="st17" d="M304,958.7c0,3.4-2.4,5.8-6.1,5.8c-3.9,0-6.6-2.9-6.6-6.4s2.8-6.4,6.5-6.4c2.4,0,4.4,1.2,5.4,2.9l-1.8,1
			c-0.6-1.2-2-2-3.6-2c-2.6,0-4.5,1.9-4.5,4.5c0,2.5,1.8,4.4,4.6,4.4c2.2,0,3.6-1.2,4-2.8h-4.1v-1.8h6.2V958.7z"/>
		<path class="st17" d="M305.5,952.9c0-0.7,0.5-1.2,1.2-1.2c0.7,0,1.2,0.5,1.2,1.2c0,0.7-0.5,1.2-1.2,1.2
			C306.1,954.1,305.5,953.6,305.5,952.9z M305.8,955.4h1.9v8.9h-1.9V955.4z"/>
		<path class="st17" d="M312.5,955.3v0.2h2.1v1.8h-2.1v7h-1.9v-7h-1.3v-1.8h1.3v-0.2c0-2.4,1.3-3.8,4-3.6v1.8
			C313.2,953.4,312.5,953.9,312.5,955.3z"/>
		<path class="st17" d="M318.7,957.3v4.2c0,1.1,0.7,1.1,2.2,1v1.7c-2.9,0.4-4.1-0.5-4.1-2.8v-4.2h-1.6v-1.8h1.6v-1.9l1.9-0.6v2.5
			h2.2v1.8H318.7z"/>
	</g>
	<g>
		<g>
			<g>
				<path class="st17" d="M846.1,938.7c0,2.1-1.5,3.8-3.6,3.8h-3v-7.6h3C844.6,934.9,846.1,936.6,846.1,938.7z M845.2,938.7
					c0-1.6-1.1-2.9-2.6-2.9h-2v5.7h2C844.1,941.6,845.2,940.3,845.2,938.7z"/>
			</g>
			<g>
				<path class="st17" d="M849.3,938.7c0-2.2,1.7-4,3.9-4c2.2,0,4,1.8,4,4c0,2.2-1.7,4-4,4C851,942.7,849.3,940.9,849.3,938.7z
					 M856.1,938.7c0-1.7-1.3-3-2.9-3c-1.7,0-2.9,1.3-2.9,3c0,1.7,1.3,3,2.9,3C854.9,941.7,856.1,940.4,856.1,938.7z"/>
			</g>
			<g>
				<path class="st17" d="M859.8,934.9h1.1l1.7,6.3l1.9-6.3h1l1.9,6.3l1.7-6.3h1.1l-2.2,7.6h-1.2l-1.8-6.1l-1.8,6.1H862L859.8,934.9
					z"/>
			</g>
			<g>
				<path class="st17" d="M879.3,934.9v7.6h-0.8l-3.9-5.7v5.7h-1v-7.6h0.8l3.9,5.7v-5.7H879.3z"/>
			</g>
			<g>
				<path class="st17" d="M887.5,941.6v1h-4.3v-7.6h1v6.7H887.5z"/>
			</g>
			<g>
				<path class="st17" d="M889.9,938.7c0-2.2,1.7-4,3.9-4c2.2,0,4,1.8,4,4c0,2.2-1.7,4-4,4C891.6,942.7,889.9,940.9,889.9,938.7z
					 M896.8,938.7c0-1.7-1.3-3-2.9-3c-1.7,0-2.9,1.3-2.9,3c0,1.7,1.3,3,2.9,3C895.5,941.7,896.8,940.4,896.8,938.7z"/>
			</g>
			<g>
				<path class="st17" d="M905.4,940.8H902l-0.6,1.7h-1.1l2.8-7.6h1.1l2.8,7.6H906L905.4,940.8z M905.1,939.9l-1.4-3.8l-1.4,3.8
					H905.1z"/>
			</g>
			<g>
				<path class="st17" d="M916.9,938.7c0,2.1-1.5,3.8-3.6,3.8h-3v-7.6h3C915.4,934.9,916.9,936.6,916.9,938.7z M915.9,938.7
					c0-1.6-1.1-2.9-2.6-2.9h-2v5.7h2C914.9,941.6,915.9,940.3,915.9,938.7z"/>
			</g>
			<g>
				<path class="st17" d="M926.5,935.8v2.5h3.2v1h-3.2v3.2h-1v-7.6h4.4v1H926.5z"/>
			</g>
			<g>
				<path class="st17" d="M936.2,939.6h-1.8v2.9h-1v-7.6h3c1.3,0,2.4,1.1,2.4,2.4c0,1-0.7,1.9-1.6,2.2l1.8,3.1h-1.1L936.2,939.6z
					 M934.4,938.7h2c0.8,0,1.4-0.6,1.4-1.4c0-0.8-0.6-1.4-1.4-1.4h-2V938.7z"/>
			</g>
			<g>
				<path class="st17" d="M941.9,938.7c0-2.2,1.7-4,3.9-4c2.2,0,4,1.8,4,4c0,2.2-1.7,4-4,4C943.6,942.7,941.9,940.9,941.9,938.7z
					 M948.8,938.7c0-1.7-1.3-3-2.9-3c-1.7,0-2.9,1.3-2.9,3c0,1.7,1.3,3,2.9,3C947.5,941.7,948.8,940.4,948.8,938.7z"/>
			</g>
			<g>
				<path class="st17" d="M960.4,942.5h-1v-6l-2.5,4.2h-0.1l-2.5-4.1v5.9h-1v-7.6h1.1l2.4,4l2.4-4h1.1V942.5z"/>
			</g>
		</g>
		<g>
			<g>
				<path class="st17" d="M839.3,952.9c0-0.7,0.5-1.2,1.2-1.2c0.7,0,1.2,0.5,1.2,1.2c0,0.7-0.5,1.2-1.2,1.2
					C839.9,954.1,839.3,953.6,839.3,952.9z M839.6,955.4h1.9v8.9h-1.9V955.4z"/>
			</g>
			<g>
				<path class="st17" d="M843.7,951.4h1.9v12.9h-1.9V951.4z"/>
			</g>
			<g>
				<path class="st17" d="M847.8,951.4h1.9v12.9h-1.9V951.4z"/>
			</g>
			<g>
				<path class="st17" d="M852,951.4h1.9v12.9H852V951.4z"/>
			</g>
			<g>
				<path class="st17" d="M864,955.4v8.9h-1.9v-1.1c-0.6,0.9-1.5,1.4-2.7,1.4c-2,0-3.4-1.3-3.4-3.6v-5.4h1.9v5.2
					c0,1.3,0.8,2.1,2,2.1c1.3,0,2.2-0.7,2.2-2.5v-4.7H864z"/>
			</g>
			<g>
				<path class="st17" d="M872.6,961.8c0,1.8-1.5,2.7-3.5,2.7c-1.8,0-3-0.8-3.6-2.1l1.6-1c0.3,0.8,1,1.3,2,1.3c0.8,0,1.5-0.3,1.5-1
					c0-1.6-4.8-0.7-4.8-3.9c0-1.7,1.4-2.7,3.2-2.7c1.5,0,2.7,0.7,3.3,1.8l-1.6,0.9c-0.3-0.7-0.9-1-1.7-1c-0.7,0-1.3,0.3-1.3,0.9
					C867.9,959.5,872.6,958.5,872.6,961.8z"/>
			</g>
			<g>
				<path class="st17" d="M876.7,957.3v4.2c0,1.1,0.7,1.1,2.2,1v1.7c-2.9,0.4-4.1-0.5-4.1-2.8v-4.2h-1.6v-1.8h1.6v-1.9l1.9-0.6v2.5
					h2.2v1.8H876.7z"/>
			</g>
			<g>
				<path class="st17" d="M885.4,955.3v2.1c-1.3-0.1-2.7,0.5-2.7,2.5v4.5h-1.9v-8.9h1.9v1.5C883.2,955.7,884.2,955.3,885.4,955.3z"
					/>
			</g>
			<g>
				<path class="st17" d="M895.3,955.4v8.9h-1.9V963c-0.7,0.9-1.7,1.5-3.1,1.5c-2.4,0-4.4-2-4.4-4.7c0-2.6,2-4.7,4.4-4.7
					c1.4,0,2.4,0.6,3.1,1.5v-1.3H895.3z M893.4,959.9c0-1.6-1.2-2.8-2.8-2.8c-1.6,0-2.8,1.2-2.8,2.8c0,1.6,1.2,2.8,2.8,2.8
					C892.2,962.7,893.4,961.5,893.4,959.9z"/>
			</g>
			<g>
				<path class="st17" d="M900.3,957.3v4.2c0,1.1,0.7,1.1,2.2,1v1.7c-2.9,0.4-4.1-0.5-4.1-2.8v-4.2h-1.6v-1.8h1.6v-1.9l1.9-0.6v2.5
					h2.2v1.8H900.3z"/>
			</g>
			<g>
				<path class="st17" d="M903.9,952.9c0-0.7,0.5-1.2,1.2-1.2c0.7,0,1.2,0.5,1.2,1.2c0,0.7-0.5,1.2-1.2,1.2
					C904.5,954.1,903.9,953.6,903.9,952.9z M904.2,955.4h1.9v8.9h-1.9V955.4z"/>
			</g>
			<g>
				<path class="st17" d="M907.8,959.9c0-2.6,2.1-4.7,4.7-4.7c2.6,0,4.7,2,4.7,4.7c0,2.6-2.1,4.7-4.7,4.7
					C909.9,964.5,907.8,962.5,907.8,959.9z M915.3,959.9c0-1.6-1.2-2.8-2.8-2.8c-1.6,0-2.8,1.2-2.8,2.8c0,1.6,1.2,2.8,2.8,2.8
					C914.1,962.7,915.3,961.5,915.3,959.9z"/>
			</g>
			<g>
				<path class="st17" d="M927,958.9v5.4h-1.9v-5.2c0-1.3-0.8-2.1-2-2.1c-1.3,0-2.2,0.7-2.2,2.5v4.7h-1.9v-8.9h1.9v1.1
					c0.6-0.9,1.5-1.4,2.7-1.4C925.5,955.2,927,956.6,927,958.9z"/>
			</g>
			<g>
				<path class="st17" d="M935.5,961.8c0,1.8-1.5,2.7-3.5,2.7c-1.8,0-3-0.8-3.6-2.1l1.6-1c0.3,0.8,1,1.3,2,1.3c0.8,0,1.5-0.3,1.5-1
					c0-1.6-4.8-0.7-4.8-3.9c0-1.7,1.4-2.7,3.2-2.7c1.5,0,2.7,0.7,3.3,1.8l-1.6,0.9c-0.3-0.7-0.9-1-1.7-1c-0.7,0-1.3,0.3-1.3,0.9
					C930.7,959.5,935.5,958.5,935.5,961.8z"/>
			</g>
			<g>
				<path class="st17" d="M936.8,963.2c0-0.7,0.6-1.3,1.3-1.3c0.7,0,1.3,0.6,1.3,1.3c0,0.7-0.6,1.3-1.3,1.3
					C937.4,964.5,936.8,963.9,936.8,963.2z"/>
			</g>
			<g>
				<path class="st17" d="M940.3,959.9c0-2.6,2-4.7,4.7-4.7c1.7,0,3.2,0.9,3.9,2.3l-1.6,1c-0.4-0.8-1.3-1.4-2.3-1.4
					c-1.6,0-2.7,1.2-2.7,2.8c0,1.6,1.2,2.8,2.7,2.8c1.1,0,1.9-0.5,2.4-1.4l1.6,0.9c-0.7,1.4-2.2,2.3-4,2.3
					C942.3,964.5,940.3,962.5,940.3,959.9z"/>
			</g>
			<g>
				<path class="st17" d="M949.7,959.9c0-2.6,2.1-4.7,4.7-4.7c2.6,0,4.7,2,4.7,4.7c0,2.6-2.1,4.7-4.7,4.7
					C951.8,964.5,949.7,962.5,949.7,959.9z M957.2,959.9c0-1.6-1.2-2.8-2.8-2.8s-2.8,1.2-2.8,2.8c0,1.6,1.2,2.8,2.8,2.8
					S957.2,961.5,957.2,959.9z"/>
			</g>
		</g>
	</g>
</g>
<rect id="XMLID_27_" x="363.5" y="530.5" class="st29" width="12.6" height="30"/>
<rect id="XMLID_12_" x="363.5" y="530.5" class="st15" width="175.7" height="30"/>
<path id="XMLID_15_" class="st27" d="M451.4,360.9L451.4,360.9c-12.5,0-22.7-10.1-22.7-22.7V330c0-12.5,10.1-22.7,22.7-22.7h0
	c12.5,0,22.7,10.1,22.7,22.7v8.3C474,350.8,463.9,360.9,451.4,360.9z"/>
<path id="XMLID_224_" class="st16" d="M451.4,307.3L451.4,307.3c-12.5,0-22.7,10.1-22.7,22.7v6.6c0-12.5,10.1-22.7,22.7-22.7h0
	c12.5,0,22.7,10.1,22.7,22.7V330C474,317.5,463.9,307.3,451.4,307.3z"/>
<path id="XMLID_14_" class="st15" d="M451.4,360.9L451.4,360.9c-12.5,0-22.7-10.1-22.7-22.7V330c0-12.5,10.1-22.7,22.7-22.7h0
	c12.5,0,22.7,10.1,22.7,22.7v8.3C474,350.8,463.9,360.9,451.4,360.9z"/>
<line id="XMLID_31_" class="st22" x1="445.5" y1="693.9" x2="445.5" y2="744.9"/>
<line id="XMLID_30_" class="st22" x1="455.8" y1="387.9" x2="455.8" y2="406.3"/>
<line id="XMLID_67_" class="st22" x1="451.4" y1="387.9" x2="451.4" y2="397.1"/>
<path id="XMLID_47_" class="st22" d="M455.8,744.9"/>
<path id="XMLID_29_" class="st22" d="M455.8,727.9"/>
<line id="XMLID_45_" class="st22" x1="457.2" y1="720.2" x2="457.2" y2="744.9"/>
<line id="XMLID_59_" class="st22" x1="363.5" y1="540.9" x2="376.2" y2="540.9"/>
<line id="XMLID_60_" class="st22" x1="520.2" y1="549.8" x2="542.5" y2="549.8"/>
<line id="XMLID_61_" class="st22" x1="505.8" y1="541.9" x2="538.4" y2="541.9"/>
<path id="XMLID_65_" class="st30" d="M736.7,744.9H511.8c-3.3,0-6-2.7-6-6V620.3c0-3.3,2.7-6,6-6h224.9c3.3,0,6,2.7,6,6v118.7
	C742.7,742.3,740,744.9,736.7,744.9z"/>
<path id="XMLID_145_" class="st31" d="M736.7,613.3H522.5h-10.6h-6v6v2.4v122.2h16.6v-108c0-4.5,3.7-8.2,8.2-8.2h206
	c3.3,0,6-2.7,6-6v-2.4C742.7,616,740,613.3,736.7,613.3z"/>
<g id="XMLID_97_" class="st32">
	<g id="XMLID_75_">
		<circle id="XMLID_73_" class="st0" cx="522.5" cy="620.1" r="8.6"/>
		<circle id="XMLID_79_" class="st0" cx="556.4" cy="620.1" r="8.6"/>
		<circle id="XMLID_85_" class="st0" cx="590.3" cy="620.1" r="8.6"/>
		<circle id="XMLID_88_" class="st0" cx="624.3" cy="620.1" r="8.6"/>
		<circle id="XMLID_90_" class="st0" cx="658.2" cy="620.1" r="8.6"/>
		<circle id="XMLID_93_" class="st0" cx="692.2" cy="620.1" r="8.6"/>
		<circle id="XMLID_95_" class="st0" cx="726.1" cy="620.1" r="8.6"/>
	</g>
	<g id="XMLID_99_">
		<circle id="XMLID_106_" class="st0" cx="539.4" cy="644" r="8.6"/>
		<circle id="XMLID_105_" class="st0" cx="573.4" cy="644" r="8.6"/>
		<circle id="XMLID_104_" class="st0" cx="607.3" cy="644" r="8.6"/>
		<circle id="XMLID_103_" class="st0" cx="641.2" cy="644" r="8.6"/>
		<circle id="XMLID_102_" class="st0" cx="675.2" cy="644" r="8.6"/>
		<circle id="XMLID_101_" class="st0" cx="709.1" cy="644" r="8.6"/>
	</g>
	<g id="XMLID_113_">
		<circle id="XMLID_121_" class="st0" cx="522.5" cy="668.3" r="8.6"/>
		<circle id="XMLID_120_" class="st0" cx="556.4" cy="668.3" r="8.6"/>
		<circle id="XMLID_119_" class="st0" cx="590.3" cy="668.3" r="8.6"/>
		<circle id="XMLID_117_" class="st0" cx="624.3" cy="668.3" r="8.6"/>
		<circle id="XMLID_116_" class="st0" cx="658.2" cy="668.3" r="8.6"/>
		<circle id="XMLID_115_" class="st0" cx="692.2" cy="668.3" r="8.6"/>
		<circle id="XMLID_114_" class="st0" cx="726.1" cy="668.3" r="8.6"/>
	</g>
	<g id="XMLID_100_">
		<circle id="XMLID_112_" class="st0" cx="539.4" cy="692.2" r="8.6"/>
		<circle id="XMLID_111_" class="st0" cx="573.4" cy="692.2" r="8.6"/>
		<circle id="XMLID_110_" class="st0" cx="607.3" cy="692.2" r="8.6"/>
		<circle id="XMLID_109_" class="st0" cx="641.2" cy="692.2" r="8.6"/>
		<circle id="XMLID_108_" class="st0" cx="675.2" cy="692.2" r="8.6"/>
		<circle id="XMLID_107_" class="st0" cx="709.1" cy="692.2" r="8.6"/>
	</g>
	<g id="XMLID_134_">
		<circle id="XMLID_141_" class="st0" cx="522.5" cy="715.3" r="8.6"/>
		<circle id="XMLID_140_" class="st0" cx="556.4" cy="715.3" r="8.6"/>
		<circle id="XMLID_139_" class="st0" cx="590.3" cy="715.3" r="8.6"/>
		<circle id="XMLID_138_" class="st0" cx="624.3" cy="715.3" r="8.6"/>
		<circle id="XMLID_137_" class="st0" cx="658.2" cy="715.3" r="8.6"/>
		<circle id="XMLID_136_" class="st0" cx="692.2" cy="715.3" r="8.6"/>
		<circle id="XMLID_135_" class="st0" cx="726.1" cy="715.3" r="8.6"/>
	</g>
	<g id="XMLID_122_">
		<circle id="XMLID_133_" class="st0" cx="539.4" cy="739.1" r="8.6"/>
		<circle id="XMLID_132_" class="st0" cx="573.4" cy="739.1" r="8.6"/>
		<circle id="XMLID_131_" class="st0" cx="607.3" cy="739.1" r="8.6"/>
		<circle id="XMLID_130_" class="st0" cx="641.2" cy="739.1" r="8.6"/>
		<circle id="XMLID_129_" class="st0" cx="675.2" cy="739.1" r="8.6"/>
		<circle id="XMLID_123_" class="st0" cx="709.1" cy="739.1" r="8.6"/>
	</g>
</g>
<path id="XMLID_63_" class="st13" d="M736.7,744.9H511.8c-3.3,0-6-2.7-6-6V620.3c0-3.3,2.7-6,6-6h224.9c3.3,0,6,2.7,6,6v118.7
	C742.7,742.3,740,744.9,736.7,744.9z"/>
<rect id="XMLID_143_" x="577.9" y="467.8" class="st17" width="146.4" height="146.5"/>
<g id="XMLID_183_">
	<g>
		<rect id="XMLID_372_" x="655" y="469.3" class="st33" width="12.2" height="142.2"/>
		<rect id="XMLID_371_" x="579.5" y="469.3" class="st33" width="144.2" height="8"/>
		<rect id="XMLID_370_" x="579.5" y="551.1" class="st33" width="144.2" height="8"/>
		<rect id="XMLID_369_" x="579.5" y="473.3" class="st33" width="8.1" height="138.2"/>
	</g>
</g>
<rect id="XMLID_146_" x="641.1" y="467.7" class="st21" width="20" height="146.5"/>
<rect id="XMLID_144_" x="641.1" y="467.7" class="st20" width="20" height="146.5"/>
<rect id="XMLID_148_" x="640.5" y="469.4" transform="matrix(3.801652e-11 1 -1 3.801652e-11 1193.0831 -107.9678)" class="st21" width="20" height="146.4"/>
<rect id="XMLID_147_" x="640.5" y="469.4" transform="matrix(3.801652e-11 1 -1 3.801652e-11 1193.0831 -107.9678)" class="st20" width="20" height="146.4"/>
<rect id="XMLID_142_" x="577.9" y="467.8" class="st13" width="146.4" height="146.5"/>
<path id="XMLID_150_" class="st0" d="M635.1,465.4c0-8.1,6.6-14.7,14.7-14.7s14.7,6.6,14.7,14.7H635.1z"/>
<path id="XMLID_149_" class="st20" d="M635.1,465.4c0-8.1,6.6-14.7,14.7-14.7s14.7,6.6,14.7,14.7H635.1z"/>
<line id="XMLID_157_" class="st22" x1="661.1" y1="582.1" x2="661.1" y2="614.3"/>
<line id="XMLID_161_" class="st22" x1="666.8" y1="598.2" x2="666.8" y2="614.3"/>
<line id="XMLID_164_" class="st22" x1="699.8" y1="542.6" x2="724.2" y2="542.6"/>
<line id="XMLID_167_" class="st22" x1="592.5" y1="540.9" x2="607.3" y2="540.9"/>
<path id="XMLID_172_" class="st22" d="M662.1,456.5c0,0,2.2-4.2,10.1-8.4"/>
<path id="XMLID_173_" class="st22" d="M661.1,461.4c0,0,12.8-8.9,25.7-9.1"/>
<g id="XMLID_265_">
	<g id="XMLID_258_">
		
			<rect id="XMLID_78_" x="811.9" y="655.1" transform="matrix(0.8694 0.4941 -0.4941 0.8694 435.682 -317.441)" class="st13" width="12.8" height="20.6"/>
		<circle id="XMLID_33_" class="st17" cx="795.1" cy="706.3" r="37.8"/>
		<path id="XMLID_272_" class="st34" d="M767.3,697.4c10.3-18.2,33.4-24.5,51.6-14.2c4.9,2.8,8.9,6.5,12,10.8
			c-2.9-8.4-8.7-15.9-17.1-20.6c-18.2-10.3-41.3-4-51.6,14.2c-7.5,13.3-6.2,29.2,2.2,40.8C761,718.5,761.7,707.2,767.3,697.4z"/>
		<circle id="XMLID_4_" class="st13" cx="795.1" cy="706.3" r="37.8"/>
		<line id="XMLID_263_" class="st13" x1="809.9" y1="648.8" x2="836" y2="663.6"/>
		
			<ellipse id="XMLID_262_" transform="matrix(0.874 -0.4859 0.4859 0.874 -234.1817 473.7899)" class="st0" cx="796.5" cy="688.5" rx="7.3" ry="4.6"/>
		
			<ellipse id="XMLID_264_" transform="matrix(0.4941 -0.8694 0.8694 0.4941 -207.9043 1032.8418)" class="st0" cx="783.6" cy="695.1" rx="2.8" ry="2.5"/>
	</g>
	<g id="XMLID_260_">
		<g id="XMLID_76_">
			<circle id="XMLID_44_" class="st16" cx="777.2" cy="694.7" r="7.3"/>
			<circle id="XMLID_35_" class="st20" cx="777.2" cy="694.7" r="7.3"/>
		</g>
		<g id="XMLID_220_">
			<circle id="XMLID_255_" class="st16" cx="792.2" cy="711.6" r="7.3"/>
			<circle id="XMLID_227_" class="st20" cx="792.2" cy="711.6" r="7.3"/>
		</g>
		<g id="XMLID_257_">
			<circle id="XMLID_261_" class="st16" cx="813.4" cy="717.2" r="7.3"/>
			<circle id="XMLID_259_" class="st20" cx="813.4" cy="717.2" r="7.3"/>
		</g>
	</g>
	<ellipse id="XMLID_290_" class="st13" cx="823.2" cy="656.3" rx="5.5" ry="4.5"/>
</g>
</svg>
