<?xml version="1.0" encoding="utf-8"?>
<!-- Generator: Adobe Illustrator 23.1.1, SVG Export Plug-In . SVG Version: 6.00 Build 0)  -->
<svg version="1.1" id="Layer_1" xmlns="http://www.w3.org/2000/svg" xmlns:xlink="http://www.w3.org/1999/xlink" x="0px" y="0px"
	 viewBox="0 0 1000 1000" style="enable-background:new 0 0 1000 1000;" xml:space="preserve">
<style type="text/css">
	.st0{fill:#FFFFFF;}
	.st1{opacity:0.2;}
	.st2{fill:none;stroke:#153144;stroke-width:6;stroke-linecap:round;stroke-linejoin:round;stroke-miterlimit:10;}
	.st3{opacity:0.36;fill:none;stroke:#153144;stroke-width:6;stroke-linecap:round;stroke-linejoin:round;stroke-miterlimit:10;}
	.st4{fill:#153144;}
	.st5{fill:none;stroke:#153144;stroke-width:8;stroke-linecap:round;stroke-linejoin:round;stroke-miterlimit:10;}
	.st6{fill:#EF2C54;}
	.st7{opacity:0.3;fill:#7EB25B;}
	.st8{fill:none;stroke:#EF2C54;stroke-width:5;stroke-linecap:round;stroke-linejoin:round;stroke-miterlimit:10;}
	.st9{fill:#90CAF8;}
	.st10{fill:#CE2951;}
	.st11{fill:#AD254C;}
	.st12{fill:#74BAE8;}
	.st13{opacity:0.63;fill:#AD254C;}
</style>
<rect id="XMLID_2_" class="st0" width="1000" height="1000"/>
<g id="XMLID_126_" class="st1">
	
		<rect id="XMLID_125_" x="653.5" y="412.3" transform="matrix(-1 -1.224647e-16 1.224647e-16 -1 1306.9482 1112.6478)" class="st2" width="0" height="288"/>
	<rect id="XMLID_124_" x="395.7" y="319.4" class="st2" width="112" height="380.9"/>
	<g id="XMLID_121_">
		<g>
			<g>
				<line id="XMLID_256_" class="st2" x1="415.1" y1="617.3" x2="488.1" y2="617.3"/>
				<line id="XMLID_255_" class="st2" x1="415.1" y1="629.3" x2="488.1" y2="629.3"/>
			</g>
		</g>
		<g>
			<g>
				<line id="XMLID_250_" class="st2" x1="415.1" y1="583.3" x2="488.1" y2="583.3"/>
				<line id="XMLID_249_" class="st2" x1="415.1" y1="595.3" x2="488.1" y2="595.3"/>
			</g>
		</g>
		<g>
			<g>
				<line id="XMLID_244_" class="st2" x1="415.1" y1="549.3" x2="488.1" y2="549.3"/>
				<line id="XMLID_243_" class="st2" x1="415.1" y1="561.3" x2="488.1" y2="561.3"/>
			</g>
		</g>
		<g>
			<g>
				<line id="XMLID_221_" class="st2" x1="415.1" y1="515.3" x2="488.1" y2="515.3"/>
				<line id="XMLID_220_" class="st2" x1="415.1" y1="527.3" x2="488.1" y2="527.3"/>
			</g>
		</g>
		<g>
			<g>
				<line id="XMLID_215_" class="st2" x1="415.1" y1="481.3" x2="488.1" y2="481.3"/>
				<line id="XMLID_214_" class="st2" x1="415.1" y1="493.3" x2="488.1" y2="493.3"/>
			</g>
		</g>
		<g>
			<g>
				<line id="XMLID_209_" class="st2" x1="415.1" y1="447.3" x2="488.1" y2="447.3"/>
				<line id="XMLID_208_" class="st2" x1="415.1" y1="459.3" x2="488.1" y2="459.3"/>
			</g>
		</g>
		<g>
			<g>
				<line id="XMLID_200_" class="st2" x1="415.1" y1="413.3" x2="488.1" y2="413.3"/>
				<line id="XMLID_198_" class="st2" x1="415.1" y1="425.3" x2="488.1" y2="425.3"/>
			</g>
		</g>
		<g>
			<g>
				<line id="XMLID_193_" class="st2" x1="415.1" y1="379.3" x2="488.1" y2="379.3"/>
				<line id="XMLID_192_" class="st2" x1="415.1" y1="391.3" x2="488.1" y2="391.3"/>
			</g>
		</g>
		<g>
			<g>
				<line id="XMLID_187_" class="st2" x1="415.1" y1="345.3" x2="488.1" y2="345.3"/>
				<line id="XMLID_186_" class="st2" x1="415.1" y1="357.3" x2="488.1" y2="357.3"/>
			</g>
		</g>
	</g>
	<path id="XMLID_120_" class="st2" d="M488.7,319.4h-74v-43c0-20.4,16.6-37,37-37h0c20.4,0,37,16.6,37,37V319.4z"/>
	<rect id="XMLID_119_" x="507.7" y="392.3" class="st2" width="145.8" height="20"/>
	<g id="XMLID_106_">
		<g>
			<g>
				<g id="XMLID_675_">
					<line id="XMLID_676_" class="st2" x1="631.1" y1="644.3" x2="631.1" y2="659.3"/>
				</g>
				<g id="XMLID_673_">
					<line id="XMLID_674_" class="st2" x1="611.1" y1="644.3" x2="611.1" y2="659.3"/>
				</g>
				<g id="XMLID_671_">
					<line id="XMLID_672_" class="st2" x1="591.1" y1="644.3" x2="591.1" y2="659.3"/>
				</g>
				<g id="XMLID_669_">
					<line id="XMLID_670_" class="st2" x1="571.1" y1="644.3" x2="571.1" y2="659.3"/>
				</g>
				<g id="XMLID_667_">
					<line id="XMLID_668_" class="st2" x1="551.1" y1="644.3" x2="551.1" y2="659.3"/>
				</g>
				<g id="XMLID_665_">
					<line id="XMLID_666_" class="st2" x1="531.1" y1="644.3" x2="531.1" y2="659.3"/>
				</g>
			</g>
		</g>
		<g>
			<g>
				<g id="XMLID_639_">
					<line id="XMLID_640_" class="st2" x1="631.1" y1="604.3" x2="631.1" y2="619.3"/>
				</g>
				<g id="XMLID_637_">
					<line id="XMLID_638_" class="st2" x1="611.1" y1="604.3" x2="611.1" y2="619.3"/>
				</g>
				<g id="XMLID_635_">
					<line id="XMLID_636_" class="st2" x1="591.1" y1="604.3" x2="591.1" y2="619.3"/>
				</g>
				<g id="XMLID_633_">
					<line id="XMLID_634_" class="st2" x1="571.1" y1="604.3" x2="571.1" y2="619.3"/>
				</g>
				<g id="XMLID_631_">
					<line id="XMLID_632_" class="st2" x1="551.1" y1="604.3" x2="551.1" y2="619.3"/>
				</g>
				<g id="XMLID_629_">
					<line id="XMLID_630_" class="st2" x1="531.1" y1="604.3" x2="531.1" y2="619.3"/>
				</g>
			</g>
		</g>
		<g>
			<g>
				<g id="XMLID_603_">
					<line id="XMLID_604_" class="st2" x1="631.1" y1="564.3" x2="631.1" y2="579.3"/>
				</g>
				<g id="XMLID_601_">
					<line id="XMLID_602_" class="st2" x1="611.1" y1="564.3" x2="611.1" y2="579.3"/>
				</g>
				<g id="XMLID_599_">
					<line id="XMLID_600_" class="st2" x1="591.1" y1="564.3" x2="591.1" y2="579.3"/>
				</g>
				<g id="XMLID_597_">
					<line id="XMLID_598_" class="st2" x1="571.1" y1="564.3" x2="571.1" y2="579.3"/>
				</g>
				<g id="XMLID_595_">
					<line id="XMLID_596_" class="st2" x1="551.1" y1="564.3" x2="551.1" y2="579.3"/>
				</g>
				<g id="XMLID_593_">
					<line id="XMLID_594_" class="st2" x1="531.1" y1="564.3" x2="531.1" y2="579.3"/>
				</g>
			</g>
		</g>
		<g>
			<g>
				<g id="XMLID_567_">
					<line id="XMLID_568_" class="st2" x1="631.1" y1="524.3" x2="631.1" y2="539.3"/>
				</g>
				<g id="XMLID_565_">
					<line id="XMLID_566_" class="st2" x1="611.1" y1="524.3" x2="611.1" y2="539.3"/>
				</g>
				<g id="XMLID_563_">
					<line id="XMLID_564_" class="st2" x1="591.1" y1="524.3" x2="591.1" y2="539.3"/>
				</g>
				<g id="XMLID_561_">
					<line id="XMLID_562_" class="st2" x1="571.1" y1="524.3" x2="571.1" y2="539.3"/>
				</g>
				<g id="XMLID_559_">
					<line id="XMLID_560_" class="st2" x1="551.1" y1="524.3" x2="551.1" y2="539.3"/>
				</g>
				<g id="XMLID_557_">
					<line id="XMLID_558_" class="st2" x1="531.1" y1="524.3" x2="531.1" y2="539.3"/>
				</g>
			</g>
		</g>
		<g>
			<g>
				<g id="XMLID_531_">
					<line id="XMLID_532_" class="st2" x1="631.1" y1="484.3" x2="631.1" y2="499.3"/>
				</g>
				<g id="XMLID_529_">
					<line id="XMLID_530_" class="st2" x1="611.1" y1="484.3" x2="611.1" y2="499.3"/>
				</g>
				<g id="XMLID_527_">
					<line id="XMLID_528_" class="st2" x1="591.1" y1="484.3" x2="591.1" y2="499.3"/>
				</g>
				<g id="XMLID_525_">
					<line id="XMLID_526_" class="st2" x1="571.1" y1="484.3" x2="571.1" y2="499.3"/>
				</g>
				<g id="XMLID_523_">
					<line id="XMLID_524_" class="st2" x1="551.1" y1="484.3" x2="551.1" y2="499.3"/>
				</g>
				<g id="XMLID_521_">
					<line id="XMLID_522_" class="st2" x1="531.1" y1="484.3" x2="531.1" y2="499.3"/>
				</g>
			</g>
		</g>
		<g>
			<g>
				<g id="XMLID_495_">
					<line id="XMLID_496_" class="st2" x1="631.1" y1="444.3" x2="631.1" y2="459.3"/>
				</g>
				<g id="XMLID_493_">
					<line id="XMLID_494_" class="st2" x1="611.1" y1="444.3" x2="611.1" y2="459.3"/>
				</g>
				<g id="XMLID_491_">
					<line id="XMLID_492_" class="st2" x1="591.1" y1="444.3" x2="591.1" y2="459.3"/>
				</g>
				<g id="XMLID_489_">
					<line id="XMLID_490_" class="st2" x1="571.1" y1="444.3" x2="571.1" y2="459.3"/>
				</g>
				<g id="XMLID_487_">
					<line id="XMLID_488_" class="st2" x1="551.1" y1="444.3" x2="551.1" y2="459.3"/>
				</g>
				<g id="XMLID_485_">
					<line id="XMLID_486_" class="st2" x1="531.1" y1="444.3" x2="531.1" y2="459.3"/>
				</g>
			</g>
		</g>
	</g>
	<rect id="XMLID_105_" x="334" y="412.3" class="st2" width="60.6" height="288"/>
	<g id="XMLID_3_">
		<g>
			<g>
				<g id="XMLID_433_">
					<line id="XMLID_435_" class="st2" x1="351.1" y1="604.3" x2="351.1" y2="619.3"/>
					<line id="XMLID_434_" class="st3" x1="351.1" y1="624.3" x2="351.1" y2="630.3"/>
				</g>
				<g id="XMLID_430_">
					<line id="XMLID_432_" class="st2" x1="364.1" y1="604.3" x2="364.1" y2="619.3"/>
					<line id="XMLID_431_" class="st3" x1="364.1" y1="624.3" x2="364.1" y2="630.3"/>
				</g>
				<g id="XMLID_427_">
					<line id="XMLID_429_" class="st2" x1="377.1" y1="604.3" x2="377.1" y2="619.3"/>
					<line id="XMLID_428_" class="st3" x1="377.1" y1="624.3" x2="377.1" y2="630.3"/>
				</g>
			</g>
		</g>
		<g>
			<g>
				<g id="XMLID_406_">
					<line id="XMLID_408_" class="st2" x1="351.1" y1="560.3" x2="351.1" y2="575.3"/>
					<line id="XMLID_407_" class="st3" x1="351.1" y1="580.3" x2="351.1" y2="586.3"/>
				</g>
				<g id="XMLID_403_">
					<line id="XMLID_405_" class="st2" x1="364.1" y1="560.3" x2="364.1" y2="575.3"/>
					<line id="XMLID_404_" class="st3" x1="364.1" y1="580.3" x2="364.1" y2="586.3"/>
				</g>
				<g id="XMLID_400_">
					<line id="XMLID_402_" class="st2" x1="377.1" y1="560.3" x2="377.1" y2="575.3"/>
					<line id="XMLID_401_" class="st3" x1="377.1" y1="580.3" x2="377.1" y2="586.3"/>
				</g>
			</g>
		</g>
		<g>
			<g>
				<g id="XMLID_379_">
					<line id="XMLID_381_" class="st2" x1="351.1" y1="516.3" x2="351.1" y2="531.3"/>
					<line id="XMLID_380_" class="st3" x1="351.1" y1="536.3" x2="351.1" y2="542.3"/>
				</g>
				<g id="XMLID_376_">
					<line id="XMLID_378_" class="st2" x1="364.1" y1="516.3" x2="364.1" y2="531.3"/>
					<line id="XMLID_377_" class="st3" x1="364.1" y1="536.3" x2="364.1" y2="542.3"/>
				</g>
				<g id="XMLID_373_">
					<line id="XMLID_375_" class="st2" x1="377.1" y1="516.3" x2="377.1" y2="531.3"/>
					<line id="XMLID_374_" class="st3" x1="377.1" y1="536.3" x2="377.1" y2="542.3"/>
				</g>
			</g>
		</g>
		<g>
			<g>
				<g id="XMLID_352_">
					<line id="XMLID_354_" class="st2" x1="351.1" y1="472.3" x2="351.1" y2="487.3"/>
					<line id="XMLID_353_" class="st3" x1="351.1" y1="492.3" x2="351.1" y2="498.3"/>
				</g>
				<g id="XMLID_349_">
					<line id="XMLID_351_" class="st2" x1="364.1" y1="472.3" x2="364.1" y2="487.3"/>
					<line id="XMLID_350_" class="st3" x1="364.1" y1="492.3" x2="364.1" y2="498.3"/>
				</g>
				<g id="XMLID_346_">
					<line id="XMLID_348_" class="st2" x1="377.1" y1="472.3" x2="377.1" y2="487.3"/>
					<line id="XMLID_347_" class="st3" x1="377.1" y1="492.3" x2="377.1" y2="498.3"/>
				</g>
			</g>
		</g>
		<g>
			<g>
				<g id="XMLID_325_">
					<line id="XMLID_327_" class="st2" x1="351.1" y1="428.3" x2="351.1" y2="443.3"/>
					<line id="XMLID_326_" class="st3" x1="351.1" y1="448.3" x2="351.1" y2="454.3"/>
				</g>
				<g id="XMLID_322_">
					<line id="XMLID_324_" class="st2" x1="364.1" y1="428.3" x2="364.1" y2="443.3"/>
					<line id="XMLID_323_" class="st3" x1="364.1" y1="448.3" x2="364.1" y2="454.3"/>
				</g>
				<g id="XMLID_319_">
					<line id="XMLID_321_" class="st2" x1="377.1" y1="428.3" x2="377.1" y2="443.3"/>
					<line id="XMLID_320_" class="st3" x1="377.1" y1="448.3" x2="377.1" y2="454.3"/>
				</g>
			</g>
		</g>
	</g>
	<ellipse id="XMLID_130_" class="st2" cx="713.8" cy="559.2" rx="41" ry="56.9"/>
	<line id="XMLID_129_" class="st2" x1="715.4" y1="592.6" x2="727.1" y2="580.8"/>
	<line id="XMLID_128_" class="st2" x1="713.8" y1="574.7" x2="701.3" y2="563"/>
	<line id="XMLID_127_" class="st2" x1="715.4" y1="546.2" x2="715.4" y2="667.4"/>
	<line id="XMLID_132_" class="st2" x1="451.6" y1="187" x2="451.6" y2="239.4"/>
</g>
<ellipse id="XMLID_6_" class="st4" cx="152.5" cy="573.7" rx="19" ry="11.2"/>
<polygon id="XMLID_96_" class="st0" points="387.1,433 230.6,433 230.6,398.1 185.8,407.1 230.6,365.4 230.6,286.4 387.1,286.4 "/>
<path id="XMLID_104_" class="st0" d="M371.9,433H240.8c-8.4,0-15.2-6.8-15.2-15.2v-19.7l-44.9,9l44.9-41.7v-63.8
	c0-8.4,6.8-15.2,15.2-15.2h131.1c8.4,0,15.2,6.8,15.2,15.2v116.2C387.1,426.2,380.3,433,371.9,433z"/>
<path id="XMLID_67_" class="st5" d="M371.9,433H240.8c-8.4,0-15.2-6.8-15.2-15.2v-19.7l-44.9,9l44.9-41.7v-63.8
	c0-8.4,6.8-15.2,15.2-15.2h131.1c8.4,0,15.2,6.8,15.2,15.2v116.2C387.1,426.2,380.3,433,371.9,433z"/>
<path id="XMLID_45_" class="st6" d="M822,699.7c-4.1-46-38.4-82-80.1-82c-41.7,0-76.1,36-80.1,82H822z"/>
<path id="XMLID_88_" class="st7" d="M766,649c0-10.7-3.1-20.8-8.4-29.6c-5.1-1.1-10.3-1.7-15.7-1.7c-41.7,0-76.1,36-80.1,82h74.8
	C754.3,688.4,766,669.9,766,649z"/>
<path id="XMLID_91_" class="st6" d="M864.5,699.7c-2.2-24.4-20.4-43.5-42.5-43.5c-22.1,0-40.3,19.1-42.5,43.5H864.5z"/>
<path id="XMLID_90_" class="st7" d="M834.8,672.8c0-5.7-1.6-11-4.5-15.7c-2.7-0.6-5.5-0.9-8.3-0.9c-22.1,0-40.3,19.1-42.5,43.5h39.7
	C828.6,693.7,834.8,683.9,834.8,672.8z"/>
<line id="XMLID_37_" class="st5" x1="745.7" y1="648.1" x2="745.7" y2="699.7"/>
<line id="XMLID_41_" class="st5" x1="718.7" y1="656.2" x2="745.7" y2="672.9"/>
<line id="XMLID_54_" class="st5" x1="746.2" y1="691.3" x2="767.4" y2="673.9"/>
<ellipse id="XMLID_46_" class="st6" cx="787.7" cy="419.7" rx="75" ry="107"/>
<path id="XMLID_87_" class="st7" d="M712.7,419.7c0,23,5.1,44.3,13.8,61.8c7.8,4.4,16.2,6.8,25,6.8c37.7,0,68.3-43.6,68.3-97.5
	c0-31.8-10.7-60-27.2-77.8c-1.6-0.2-3.3-0.2-4.9-0.2C746.3,312.7,712.7,360.6,712.7,419.7z"/>
<path id="XMLID_84_" class="st5" d="M871.3,699.7H238c-8.7,0-15.8-7.1-15.8-15.8v0c0-8.7,7.1-15.8,15.8-15.8h20.2
	c7,0,12.7-5.7,12.7-12.7v0c0-7-5.7-12.7-12.7-12.7H186c-7.5,0-13.5-6-13.5-13.5l0,0c0-7.5,6-13.5,13.5-13.5h15.2
	c10.9,0,19.7-8.8,19.7-19.7l0,0c0-10.9-8.8-19.7-19.7-19.7h-48.7"/>
<line id="XMLID_1_" class="st5" x1="922.6" y1="699.7" x2="893.3" y2="699.7"/>
<path id="XMLID_11_" class="st6" d="M116.9,435.5L116.9,435.5c19.1-20.9,52-20.9,71.1,0l0,0c13.3,14.6,16.3,36,7.6,53.7l-43.1,87.1
	l-43.1-87.1C100.6,471.5,103.6,450.1,116.9,435.5z"/>
<path id="XMLID_95_" class="st6" d="M116.9,454.3L116.9,454.3c19.1-20.9,52-20.9,71.1,0l0,0c6,6.6,9.9,14.6,11.6,23
	c3-14.8-1.1-30.4-11.6-41.9l0,0c-19.1-20.9-52-20.9-71.1,0l0,0c-10.5,11.5-14.6,27.1-11.6,41.9C107,468.9,110.9,461,116.9,454.3z"/>
<path id="XMLID_4_" class="st5" d="M116.9,435.5L116.9,435.5c19.1-20.9,52-20.9,71.1,0l0,0c13.3,14.6,16.3,36,7.6,53.7l-43.1,87.1
	l-43.1-87.1C100.6,471.5,103.6,450.1,116.9,435.5z"/>
<circle id="XMLID_14_" class="st0" cx="152.5" cy="467.7" r="23.3"/>
<circle id="XMLID_101_" class="st5" cx="152.5" cy="467.7" r="23.3"/>
<ellipse id="XMLID_20_" class="st2" cx="784.1" cy="350.7" rx="7.6" ry="17.4"/>
<ellipse id="XMLID_18_" transform="matrix(0.7178 -0.6963 0.6963 0.7178 -71.4944 640.2252)" class="st2" cx="754" cy="408.3" rx="7.6" ry="17.4"/>
<ellipse id="XMLID_38_" transform="matrix(0.5119 -0.859 0.859 0.5119 -98.4599 842.5667)" class="st2" cx="692.2" cy="507.9" rx="17.4" ry="7.6"/>
<ellipse id="XMLID_82_" transform="matrix(1 -1.413290e-03 1.413290e-03 1 -0.8581 1.1955)" class="st2" cx="845.5" cy="607.8" rx="7.6" ry="17.4"/>
<ellipse id="XMLID_19_" transform="matrix(0.5674 -0.8234 0.8234 0.5674 31.0156 846.9899)" class="st2" cx="821.7" cy="394" rx="17.4" ry="7.6"/>
<ellipse id="XMLID_21_" transform="matrix(0.5674 -0.8234 0.8234 0.5674 -35.3029 878.3284)" class="st2" cx="818.3" cy="472.8" rx="13.5" ry="5.9"/>
<line id="XMLID_22_" class="st5" x1="787.7" y1="460.7" x2="810.2" y2="440.7"/>
<line id="XMLID_23_" class="st5" x1="787.7" y1="494.7" x2="759.7" y2="472.8"/>
<g id="XMLID_24_">
	<polyline id="XMLID_102_" class="st8" points="282,381.2 261.5,381.2 261.5,333.8 245,333.8 254.9,314.7 	"/>
	<path id="XMLID_97_" class="st4" d="M266.5,376.2v-47.4h-13.3l7.3-14.1H282v61.5H266.5z"/>
	<polyline id="XMLID_103_" class="st8" points="362.7,381.2 339.1,381.2 326.4,363.8 326.4,381.2 299.6,381.2 299.6,314.1 	"/>
	<path id="XMLID_99_" class="st4" d="M304.6,376.2v-62.1h16.8v28.2l19.6-28.2h19.7l-23,30.3l24.9,31.8h-21.1l-20.2-27.9v27.9H304.6z
		"/>
</g>
<g>
	<g>
		<g>
			<path class="st4" d="M63.2,959.2c0,2.5-1.2,3.7-2.6,3.7c-1.1,0-1.9-0.5-2.1-1.4c-0.4,0.5-1,0.8-1.8,0.8c-1.5,0-2.6-1.2-2.6-2.8
				c0-1.6,1.1-2.8,2.6-2.8c0.7,0,1.2,0.3,1.6,0.7v-0.5h1.6v3.9c0,0.8,0.3,1.4,1,1.4c0.9,0,1.7-0.9,1.7-3c0-3-2.3-5.3-5.4-5.3
				c-3.1,0-5.6,2.4-5.6,5.7c0,3.3,2.5,5.7,5.9,5.7c1.1,0,2.1-0.2,2.9-0.4v0.6c-0.8,0.3-1.7,0.4-2.9,0.4c-3.7,0-6.5-2.6-6.5-6.2
				c0-3.4,2.7-6.2,6.2-6.2C61.1,953.3,63.2,956.4,63.2,959.2z M58.3,959.5c0-0.8-0.6-1.4-1.3-1.4c-0.8,0-1.3,0.5-1.3,1.4
				c0,0.8,0.6,1.3,1.3,1.3C57.8,960.9,58.3,960.3,58.3,959.5z"/>
		</g>
		<g>
			<path class="st4" d="M69.4,955.1v2c-1.2-0.1-2.6,0.5-2.6,2.4v4.3h-1.9v-8.6h1.9v1.4C67.3,955.5,68.3,955.1,69.4,955.1z"/>
		</g>
		<g>
			<path class="st4" d="M74.6,962.3c1,0,1.8-0.5,2.2-1.1l1.5,0.9c-0.8,1.2-2.1,1.9-3.8,1.9c-2.8,0-4.7-1.9-4.7-4.5
				c0-2.5,1.8-4.5,4.5-4.5c2.6,0,4.3,2.1,4.3,4.5c0,0.3,0,0.5-0.1,0.8h-6.8C72.1,961.6,73.2,962.3,74.6,962.3z M76.9,958.8
				c-0.3-1.5-1.3-2.1-2.5-2.1c-1.4,0-2.3,0.8-2.6,2.1H76.9z"/>
		</g>
		<g>
			<path class="st4" d="M88.9,955.2v8.6h-1.9v-1.2c-0.7,0.9-1.7,1.5-3,1.5c-2.3,0-4.3-2-4.3-4.5c0-2.6,1.9-4.5,4.3-4.5
				c1.3,0,2.3,0.5,3,1.4v-1.2H88.9z M87.1,959.5c0-1.6-1.2-2.7-2.7-2.7c-1.5,0-2.7,1.1-2.7,2.7c0,1.6,1.2,2.7,2.7,2.7
				C85.9,962.3,87.1,961.1,87.1,959.5z"/>
		</g>
		<g>
			<path class="st4" d="M91.1,951.3H93v12.5h-1.9V951.3z"/>
		</g>
		<g>
			<path class="st4" d="M102.9,955.2l-3.3,8.6h-2.1l-3.3-8.6h2l2.4,6.5l2.4-6.5H102.9z"/>
		</g>
		<g>
			<path class="st4" d="M104.2,955.2h1.9v8.9c0,2.4-1.2,3.5-3.5,3.3v-1.8c1.1,0.1,1.7-0.3,1.7-1.5V955.2z M104,952.8
				c0-0.7,0.5-1.2,1.2-1.2c0.7,0,1.2,0.5,1.2,1.2c0,0.6-0.5,1.2-1.2,1.2C104.5,954,104,953.4,104,952.8z"/>
		</g>
		<g>
			<path class="st4" d="M116,955.2l-3.3,8.8c-0.8,2.2-2.2,3.3-4.2,3.2v-1.7c1.2,0.1,1.9-0.5,2.3-1.7l0.1-0.2l-3.6-8.4h2l2.6,6.2
				l2.2-6.2H116z"/>
		</g>
	</g>
	<g>
		<path class="st4" d="M211.9,938.7c0,2.1-1.5,3.8-3.6,3.8h-3v-7.6h3C210.4,934.9,211.9,936.6,211.9,938.7z M210.9,938.7
			c0-1.6-1.1-2.9-2.6-2.9h-2v5.7h2C209.8,941.6,210.9,940.3,210.9,938.7z"/>
		<path class="st4" d="M219.5,940.8h-3.4l-0.6,1.7h-1.1l2.8-7.6h1.1l2.8,7.6h-1.1L219.5,940.8z M219.2,939.9l-1.4-3.8l-1.4,3.8
			H219.2z"/>
		<path class="st4" d="M226.4,939.4v3.1h-1v-3.1l-2.7-4.5h1.1l2.1,3.6l2.1-3.6h1.1L226.4,939.4z"/>
		<path class="st4" d="M242.1,940.1c0,1.5-1.1,2.6-2.6,2.6c-1.5,0-2.6-1.1-2.6-2.6c0-0.6,0.2-1.1,0.5-1.5l2.5-3.7h1.2l-1.8,2.7
			c0.1,0,0.2,0,0.4,0C241,937.5,242.1,938.6,242.1,940.1z M241.1,940.1c0-1-0.7-1.6-1.6-1.6c-1,0-1.6,0.6-1.6,1.6s0.7,1.6,1.6,1.6
			C240.4,941.7,241.1,941,241.1,940.1z"/>
		<path class="st4" d="M250.9,941.1h-0.9v1.4h-1v-1.4H245v-0.9l2.7-5.2h1.1l-2.7,5.2h2.8V938h1v2.2h0.9V941.1z"/>
	</g>
	<g>
		<path class="st4" d="M58.9,938.7c0,2.1-1.5,3.8-3.6,3.8h-3v-7.6h3C57.4,934.9,58.9,936.6,58.9,938.7z M57.9,938.7
			c0-1.6-1.1-2.9-2.6-2.9h-2v5.7h2C56.8,941.6,57.9,940.3,57.9,938.7z"/>
		<path class="st4" d="M67,941.6v1h-4.6v-7.6h4.5v1h-3.5v2.3h3.2v0.9h-3.2v2.4H67z"/>
		<path class="st4" d="M70,940.8l0.9-0.5c0.3,0.8,0.9,1.4,2,1.4c1.1,0,1.6-0.5,1.6-1.2c0-0.8-0.7-1-1.8-1.4
			c-1.2-0.4-2.4-0.8-2.4-2.2c0-1.4,1.1-2.2,2.4-2.2c1.3,0,2.2,0.7,2.6,1.7l-0.8,0.5c-0.3-0.7-0.8-1.2-1.7-1.2
			c-0.8,0-1.4,0.4-1.4,1.1c0,0.7,0.5,1,1.6,1.3c1.3,0.4,2.6,0.8,2.6,2.3c0,1.3-1.1,2.2-2.6,2.2C71.5,942.7,70.4,941.9,70,940.8z"/>
		<path class="st4" d="M80,934.9v7.6h-1v-7.6H80z"/>
		<path class="st4" d="M91.3,939.2c0,1.9-1.4,3.5-3.7,3.5c-2.4,0-4-1.8-4-4c0-2.2,1.7-4,4-4c1.4,0,2.7,0.8,3.3,1.8l-0.9,0.5
			c-0.4-0.8-1.4-1.4-2.4-1.4c-1.8,0-3,1.3-3,3c0,1.7,1.2,3,3,3c1.6,0,2.5-0.9,2.7-2h-2.8v-0.9h3.8V939.2z"/>
		<path class="st4" d="M100.6,934.9v7.6h-0.8l-3.9-5.7v5.7h-1v-7.6h0.8l3.9,5.7v-5.7H100.6z"/>
		<path class="st4" d="M109.1,941.6v1h-4.6v-7.6h4.5v1h-3.5v2.3h3.2v0.9h-3.2v2.4H109.1z"/>
		<path class="st4" d="M119.2,938.7c0,2.1-1.5,3.8-3.6,3.8h-3v-7.6h3C117.6,934.9,119.2,936.6,119.2,938.7z M118.2,938.7
			c0-1.6-1.1-2.9-2.6-2.9h-2v5.7h2C117.1,941.6,118.2,940.3,118.2,938.7z"/>
		<path class="st4" d="M133.2,940.4c0,1.2-1,2.2-2.2,2.2h-3.3v-7.6h3c1.2,0,2.1,0.9,2.1,2.1c0,0.7-0.3,1.2-0.8,1.6
			C132.7,938.9,133.2,939.5,133.2,940.4z M128.7,935.8v2.3h2c0.6,0,1.1-0.5,1.1-1.2c0-0.6-0.5-1.2-1.1-1.2H128.7z M132.2,940.3
			c0-0.7-0.5-1.2-1.2-1.2h-2.3v2.5h2.3C131.7,941.6,132.2,941,132.2,940.3z"/>
		<path class="st4" d="M139.4,939.4v3.1h-1v-3.1l-2.7-4.5h1.1l2.1,3.6l2.1-3.6h1.1L139.4,939.4z"/>
	</g>
	<g>
		<path class="st4" d="M207.5,953.9v3.5h5v1.9h-5v5h-2v-12.4h7.3v1.9H207.5z"/>
		<path class="st4" d="M214,959.9c0-2.6,2.1-4.7,4.7-4.7c2.6,0,4.7,2,4.7,4.7c0,2.6-2.1,4.7-4.7,4.7
			C216.1,964.5,214,962.5,214,959.9z M221.4,959.9c0-1.6-1.2-2.8-2.8-2.8s-2.8,1.2-2.8,2.8c0,1.6,1.2,2.8,2.8,2.8
			S221.4,961.5,221.4,959.9z"/>
		<path class="st4" d="M225.1,951.4h1.9v12.9h-1.9V951.4z"/>
		<path class="st4" d="M229.2,951.4h1.9v12.9h-1.9V951.4z"/>
		<path class="st4" d="M232.8,959.9c0-2.6,2.1-4.7,4.7-4.7c2.6,0,4.7,2,4.7,4.7c0,2.6-2.1,4.7-4.7,4.7
			C234.9,964.5,232.8,962.5,232.8,959.9z M240.3,959.9c0-1.6-1.2-2.8-2.8-2.8s-2.8,1.2-2.8,2.8c0,1.6,1.2,2.8,2.8,2.8
			S240.3,961.5,240.3,959.9z"/>
		<path class="st4" d="M255.8,955.4l-2.8,8.9h-1.9l-1.8-6l-1.9,6h-1.9l-2.8-8.9h2l1.7,6.1l1.9-6.1h1.8l1.8,6.1l1.7-6.1H255.8z"/>
		<path class="st4" d="M261.2,962.8c1.1,0,1.9-0.5,2.3-1.1l1.6,0.9c-0.8,1.2-2.1,1.9-3.9,1.9c-2.9,0-4.8-2-4.8-4.7
			c0-2.6,1.9-4.7,4.7-4.7c2.6,0,4.4,2.1,4.4,4.7c0,0.3,0,0.5-0.1,0.8h-7C258.7,962.1,259.8,962.8,261.2,962.8z M263.5,959.1
			c-0.3-1.5-1.4-2.2-2.5-2.2c-1.4,0-2.4,0.8-2.7,2.2H263.5z"/>
		<path class="st4" d="M271.8,955.3v2.1c-1.3-0.1-2.7,0.5-2.7,2.5v4.5h-1.9v-8.9h1.9v1.5C269.6,955.7,270.7,955.3,271.8,955.3z"/>
		<path class="st4" d="M279.4,961.8c0,1.8-1.5,2.7-3.5,2.7c-1.8,0-3-0.8-3.6-2.1l1.6-1c0.3,0.8,1,1.3,2,1.3c0.8,0,1.5-0.3,1.5-1
			c0-1.6-4.8-0.7-4.8-3.9c0-1.7,1.4-2.7,3.2-2.7c1.5,0,2.7,0.7,3.3,1.8l-1.6,0.9c-0.3-0.7-0.9-1-1.7-1c-0.7,0-1.3,0.3-1.3,0.9
			C274.6,959.5,279.4,958.5,279.4,961.8z"/>
	</g>
	<g>
		<g>
			<g>
				<path class="st4" d="M846.1,938.7c0,2.1-1.5,3.8-3.6,3.8h-3v-7.6h3C844.6,934.9,846.1,936.6,846.1,938.7z M845.2,938.7
					c0-1.6-1.1-2.9-2.6-2.9h-2v5.7h2C844.1,941.6,845.2,940.3,845.2,938.7z"/>
			</g>
			<g>
				<path class="st4" d="M849.3,938.7c0-2.2,1.7-4,3.9-4c2.2,0,4,1.8,4,4c0,2.2-1.7,4-4,4C851,942.7,849.3,940.9,849.3,938.7z
					 M856.1,938.7c0-1.7-1.3-3-2.9-3c-1.7,0-2.9,1.3-2.9,3c0,1.7,1.3,3,2.9,3C854.9,941.7,856.1,940.4,856.1,938.7z"/>
			</g>
			<g>
				<path class="st4" d="M859.8,934.9h1.1l1.7,6.3l1.9-6.3h1l1.9,6.3l1.7-6.3h1.1l-2.2,7.6h-1.2l-1.8-6.1l-1.8,6.1H862L859.8,934.9z
					"/>
			</g>
			<g>
				<path class="st4" d="M879.3,934.9v7.6h-0.8l-3.9-5.7v5.7h-1v-7.6h0.8l3.9,5.7v-5.7H879.3z"/>
			</g>
			<g>
				<path class="st4" d="M887.5,941.6v1h-4.3v-7.6h1v6.7H887.5z"/>
			</g>
			<g>
				<path class="st4" d="M889.9,938.7c0-2.2,1.7-4,3.9-4c2.2,0,4,1.8,4,4c0,2.2-1.7,4-4,4C891.6,942.7,889.9,940.9,889.9,938.7z
					 M896.8,938.7c0-1.7-1.3-3-2.9-3c-1.7,0-2.9,1.3-2.9,3c0,1.7,1.3,3,2.9,3C895.5,941.7,896.8,940.4,896.8,938.7z"/>
			</g>
			<g>
				<path class="st4" d="M905.4,940.8H902l-0.6,1.7h-1.1l2.8-7.6h1.1l2.8,7.6H906L905.4,940.8z M905.1,939.9l-1.4-3.8l-1.4,3.8
					H905.1z"/>
			</g>
			<g>
				<path class="st4" d="M916.9,938.7c0,2.1-1.5,3.8-3.6,3.8h-3v-7.6h3C915.4,934.9,916.9,936.6,916.9,938.7z M915.9,938.7
					c0-1.6-1.1-2.9-2.6-2.9h-2v5.7h2C914.9,941.6,915.9,940.3,915.9,938.7z"/>
			</g>
			<g>
				<path class="st4" d="M926.5,935.8v2.5h3.2v1h-3.2v3.2h-1v-7.6h4.4v1H926.5z"/>
			</g>
			<g>
				<path class="st4" d="M936.2,939.6h-1.8v2.9h-1v-7.6h3c1.3,0,2.4,1.1,2.4,2.4c0,1-0.7,1.9-1.6,2.2l1.8,3.1h-1.1L936.2,939.6z
					 M934.4,938.7h2c0.8,0,1.4-0.6,1.4-1.4c0-0.8-0.6-1.4-1.4-1.4h-2V938.7z"/>
			</g>
			<g>
				<path class="st4" d="M941.9,938.7c0-2.2,1.7-4,3.9-4c2.2,0,4,1.8,4,4c0,2.2-1.7,4-4,4C943.6,942.7,941.9,940.9,941.9,938.7z
					 M948.8,938.7c0-1.7-1.3-3-2.9-3c-1.7,0-2.9,1.3-2.9,3c0,1.7,1.3,3,2.9,3C947.5,941.7,948.8,940.4,948.8,938.7z"/>
			</g>
			<g>
				<path class="st4" d="M960.4,942.5h-1v-6l-2.5,4.2h-0.1l-2.5-4.1v5.9h-1v-7.6h1.1l2.4,4l2.4-4h1.1V942.5z"/>
			</g>
		</g>
		<g>
			<g>
				<path class="st4" d="M839.3,952.9c0-0.7,0.5-1.2,1.2-1.2c0.7,0,1.2,0.5,1.2,1.2c0,0.7-0.5,1.2-1.2,1.2
					C839.9,954.1,839.3,953.6,839.3,952.9z M839.6,955.4h1.9v8.9h-1.9V955.4z"/>
			</g>
			<g>
				<path class="st4" d="M843.7,951.4h1.9v12.9h-1.9V951.4z"/>
			</g>
			<g>
				<path class="st4" d="M847.8,951.4h1.9v12.9h-1.9V951.4z"/>
			</g>
			<g>
				<path class="st4" d="M852,951.4h1.9v12.9H852V951.4z"/>
			</g>
			<g>
				<path class="st4" d="M864,955.4v8.9h-1.9v-1.1c-0.6,0.9-1.5,1.4-2.7,1.4c-2,0-3.4-1.3-3.4-3.6v-5.4h1.9v5.2c0,1.3,0.8,2.1,2,2.1
					c1.3,0,2.2-0.7,2.2-2.5v-4.7H864z"/>
			</g>
			<g>
				<path class="st4" d="M872.6,961.8c0,1.8-1.5,2.7-3.5,2.7c-1.8,0-3-0.8-3.6-2.1l1.6-1c0.3,0.8,1,1.3,2,1.3c0.8,0,1.5-0.3,1.5-1
					c0-1.6-4.8-0.7-4.8-3.9c0-1.7,1.4-2.7,3.2-2.7c1.5,0,2.7,0.7,3.3,1.8l-1.6,0.9c-0.3-0.7-0.9-1-1.7-1c-0.7,0-1.3,0.3-1.3,0.9
					C867.9,959.5,872.6,958.5,872.6,961.8z"/>
			</g>
			<g>
				<path class="st4" d="M876.7,957.3v4.2c0,1.1,0.7,1.1,2.2,1v1.7c-2.9,0.4-4.1-0.5-4.1-2.8v-4.2h-1.6v-1.8h1.6v-1.9l1.9-0.6v2.5
					h2.2v1.8H876.7z"/>
			</g>
			<g>
				<path class="st4" d="M885.4,955.3v2.1c-1.3-0.1-2.7,0.5-2.7,2.5v4.5h-1.9v-8.9h1.9v1.5C883.2,955.7,884.2,955.3,885.4,955.3z"/>
			</g>
			<g>
				<path class="st4" d="M895.3,955.4v8.9h-1.9V963c-0.7,0.9-1.7,1.5-3.1,1.5c-2.4,0-4.4-2-4.4-4.7c0-2.6,2-4.7,4.4-4.7
					c1.4,0,2.4,0.6,3.1,1.5v-1.3H895.3z M893.4,959.9c0-1.6-1.2-2.8-2.8-2.8c-1.6,0-2.8,1.2-2.8,2.8c0,1.6,1.2,2.8,2.8,2.8
					C892.2,962.7,893.4,961.5,893.4,959.9z"/>
			</g>
			<g>
				<path class="st4" d="M900.3,957.3v4.2c0,1.1,0.7,1.1,2.2,1v1.7c-2.9,0.4-4.1-0.5-4.1-2.8v-4.2h-1.6v-1.8h1.6v-1.9l1.9-0.6v2.5
					h2.2v1.8H900.3z"/>
			</g>
			<g>
				<path class="st4" d="M903.9,952.9c0-0.7,0.5-1.2,1.2-1.2c0.7,0,1.2,0.5,1.2,1.2c0,0.7-0.5,1.2-1.2,1.2
					C904.5,954.1,903.9,953.6,903.9,952.9z M904.2,955.4h1.9v8.9h-1.9V955.4z"/>
			</g>
			<g>
				<path class="st4" d="M907.8,959.9c0-2.6,2.1-4.7,4.7-4.7c2.6,0,4.7,2,4.7,4.7c0,2.6-2.1,4.7-4.7,4.7
					C909.9,964.5,907.8,962.5,907.8,959.9z M915.3,959.9c0-1.6-1.2-2.8-2.8-2.8c-1.6,0-2.8,1.2-2.8,2.8c0,1.6,1.2,2.8,2.8,2.8
					C914.1,962.7,915.3,961.5,915.3,959.9z"/>
			</g>
			<g>
				<path class="st4" d="M927,958.9v5.4h-1.9v-5.2c0-1.3-0.8-2.1-2-2.1c-1.3,0-2.2,0.7-2.2,2.5v4.7h-1.9v-8.9h1.9v1.1
					c0.6-0.9,1.5-1.4,2.7-1.4C925.5,955.2,927,956.6,927,958.9z"/>
			</g>
			<g>
				<path class="st4" d="M935.5,961.8c0,1.8-1.5,2.7-3.5,2.7c-1.8,0-3-0.8-3.6-2.1l1.6-1c0.3,0.8,1,1.3,2,1.3c0.8,0,1.5-0.3,1.5-1
					c0-1.6-4.8-0.7-4.8-3.9c0-1.7,1.4-2.7,3.2-2.7c1.5,0,2.7,0.7,3.3,1.8l-1.6,0.9c-0.3-0.7-0.9-1-1.7-1c-0.7,0-1.3,0.3-1.3,0.9
					C930.7,959.5,935.5,958.5,935.5,961.8z"/>
			</g>
			<g>
				<path class="st4" d="M936.8,963.2c0-0.7,0.6-1.3,1.3-1.3c0.7,0,1.3,0.6,1.3,1.3c0,0.7-0.6,1.3-1.3,1.3
					C937.4,964.5,936.8,963.9,936.8,963.2z"/>
			</g>
			<g>
				<path class="st4" d="M940.3,959.9c0-2.6,2-4.7,4.7-4.7c1.7,0,3.2,0.9,3.9,2.3l-1.6,1c-0.4-0.8-1.3-1.4-2.3-1.4
					c-1.6,0-2.7,1.2-2.7,2.8c0,1.6,1.2,2.8,2.7,2.8c1.1,0,1.9-0.5,2.4-1.4l1.6,0.9c-0.7,1.4-2.2,2.3-4,2.3
					C942.3,964.5,940.3,962.5,940.3,959.9z"/>
			</g>
			<g>
				<path class="st4" d="M949.7,959.9c0-2.6,2.1-4.7,4.7-4.7c2.6,0,4.7,2,4.7,4.7c0,2.6-2.1,4.7-4.7,4.7
					C951.8,964.5,949.7,962.5,949.7,959.9z M957.2,959.9c0-1.6-1.2-2.8-2.8-2.8s-2.8,1.2-2.8,2.8c0,1.6,1.2,2.8,2.8,2.8
					S957.2,961.5,957.2,959.9z"/>
			</g>
		</g>
	</g>
</g>
<g>
	<path class="st6" d="M251.9,396.3h7.2v1.4h-5.6v4.3h4.5v1.4h-4.5v5.8h-1.7V396.3z"/>
	<path class="st6" d="M267,409.3c-3.6,0-6.4-2.7-6.4-6.5c0-3.8,2.8-6.5,6.4-6.5c3.6,0,6.4,2.7,6.4,6.5
		C273.4,406.6,270.6,409.3,267,409.3z M267,407.8c2.7,0,4.7-2,4.7-5.1c0-3.1-2-5.1-4.7-5.1s-4.7,1.9-4.7,5.1
		C262.2,405.8,264.3,407.8,267,407.8z"/>
	<path class="st6" d="M277.2,396.3v11.4h4.5v1.4h-6.1v-12.8H277.2z"/>
	<path class="st6" d="M285.2,396.3v11.4h4.5v1.4h-6.1v-12.8H285.2z"/>
	<path class="st6" d="M297.2,409.3c-3.6,0-6.4-2.7-6.4-6.5c0-3.8,2.8-6.5,6.4-6.5c3.6,0,6.4,2.7,6.4,6.5
		C303.6,406.6,300.8,409.3,297.2,409.3z M297.2,407.8c2.7,0,4.7-2,4.7-5.1c0-3.1-2-5.1-4.7-5.1s-4.7,1.9-4.7,5.1
		C292.5,405.8,294.5,407.8,297.2,407.8z"/>
	<path class="st6" d="M304.8,396.3h1.8l2.8,10.8l3.1-10.8h1.9l2.9,10.8l2.8-10.8h1.8l-3.7,12.8h-1.9l-3-10.3l-3.1,10.3l-1.9,0
		L304.8,396.3z"/>
	<path class="st6" d="M330.6,397.7h-5.2v4.3h4.7v1.4h-4.7v4.4h5.2v1.4h-6.9v-12.8h6.9V397.7z"/>
	<path class="st6" d="M337.3,396.3c3,0,4.4,1.7,4.4,3.8c0,1.6-0.9,3.2-3,3.7l3.2,5.4h-2l-3-5.2h-2v5.2h-1.7v-12.8H337.3z
		 M337.3,397.7h-2.5v4.8h2.5c1.9,0,2.7-1,2.7-2.5C340,398.7,339.2,397.7,337.3,397.7z"/>
	<path class="st6" d="M348.3,409.3c-2.6,0-4.4-1.4-4.4-3.5h1.8c0.1,1.1,0.9,2.1,2.6,2.1c1.6,0,2.6-0.9,2.6-2.1c0-3.4-6.9-1.2-6.9-6
		c0-2.1,1.7-3.5,4.2-3.5c2.4,0,4,1.3,4.2,3.3h-1.8c-0.1-0.9-0.9-1.8-2.5-1.9c-1.4,0-2.5,0.7-2.5,2.1c0,3.3,6.9,1.2,6.9,6
		C352.6,407.5,351.1,409.3,348.3,409.3z"/>
</g>
<line id="XMLID_5_" class="st5" x1="787.7" y1="419.7" x2="787.7" y2="699.7"/>
<g>
	<path id="XMLID_50_" class="st0" d="M469.7,501c0,0-12.1,16.8-13.6,18.3s-40.8,7.3-40.8,7.3l-4.4,14.7c0,0,48.8-3.5,53.3-8
		s17-20.7,17-20.7L469.7,501z"/>
	<path id="XMLID_32_" class="st5" d="M469.7,501c0,0-12.1,16.8-13.6,18.3s-45.3,7.3-45.3,7.3l-4.4,14.7c0,0,53.2-3.5,57.7-8
		s17-20.7,17-20.7L469.7,501z"/>
	<circle id="XMLID_47_" class="st0" cx="563.1" cy="640" r="59.7"/>
	<circle id="XMLID_9_" class="st0" cx="381" cy="640" r="59.7"/>
	<circle id="XMLID_17_" class="st5" cx="381" cy="640" r="59.7"/>
	<path id="XMLID_39_" class="st9" d="M381,679.7c-21.9,0-39.7-17.8-39.7-39.7s17.8-39.7,39.7-39.7c21.9,0,39.7,17.8,39.7,39.7
		S402.9,679.7,381,679.7z"/>
	<path id="XMLID_81_" class="st2" d="M346.1,658.8c-3-5.6-4.7-12-4.7-18.8c0-13.3,6.5-25,16.6-32.2"/>
	<path id="XMLID_85_" class="st2" d="M404.1,621.4c4.1,5.1,6.5,11.5,6.5,18.6c0,3.7-0.7,7.2-1.9,10.4"/>
	<line id="XMLID_35_" class="st5" x1="381" y1="640" x2="410.8" y2="541.3"/>
	<path id="XMLID_7_" class="st6" d="M381,647c-3.8,0-7-3.2-7-7c0-3.8,3.2-7,7-7s7,3.2,7,7C388,643.8,384.8,647,381,647z"/>
	<path id="XMLID_43_" class="st5" d="M381,647c-3.8,0-7-3.2-7-7c0-3.8,3.2-7,7-7s7,3.2,7,7C388,643.8,384.8,647,381,647z"/>
	<circle id="XMLID_26_" class="st5" cx="563.1" cy="640" r="59.7"/>
	<path id="XMLID_40_" class="st9" d="M563.1,679.7c-21.9,0-39.7-17.8-39.7-39.7s17.8-39.7,39.7-39.7s39.7,17.8,39.7,39.7
		S585,679.7,563.1,679.7z"/>
	<path id="XMLID_89_" class="st2" d="M570.5,601c18.4,3.5,32.3,19.6,32.3,39"/>
	<path id="XMLID_92_" class="st2" d="M557.6,669.2c-7.5-1.4-14-5.7-18.4-11.6"/>
	<polygon id="XMLID_28_" class="st5" points="409.7,559.8 464.6,642 563.5,641.9 508.6,559.7 	"/>
	<circle id="XMLID_51_" class="st0" cx="468.6" cy="462.1" r="26.2"/>
	<line id="XMLID_29_" class="st5" x1="481.3" y1="451.4" x2="461.9" y2="488.3"/>
	<circle id="XMLID_25_" class="st5" cx="468.6" cy="462.1" r="26.2"/>
	<path id="XMLID_52_" class="st10" d="M502.1,458.1c2.1-9.6,0.8-18.4-4.3-24.5c-10.9-13-36.1-9.4-57.3,8.4
		c-5.8,4.9-10.7,10.3-14.7,16H502.1z"/>
	<path id="XMLID_86_" class="st11" d="M497.8,433.6c-6.7-8-18.7-9.7-31.9-5.7c7.1,0.4,13.1,2.9,17.1,7.7c4.7,5.7,6.2,13.6,4.7,22.5
		h14.4C504.1,448.4,502.9,439.7,497.8,433.6z"/>
	<path id="XMLID_31_" class="st5" d="M502.1,458.1c2.1-9.6,0.8-18.4-4.3-24.5c-10.9-13-36.1-9.4-57.3,8.4
		c-5.8,4.9-10.7,10.3-14.7,16H502.1z"/>
	<path id="XMLID_70_" class="st0" d="M479.1,573.7c0,0-7.6,6.2-10.4,9c-2.8,2.8-1.5,55.3-1.5,55.3h14.2c0,0,4.8-41.8,6.7-43.7
		c1.8-1.8,12.1-8.7,12.1-8.7L479.1,573.7z"/>
	<path id="XMLID_30_" class="st5" d="M479.1,573.7c0,0-7.6,6.2-10.4,9c-2.8,2.8-1.5,55.3-1.5,55.3h14.2c0,0,4.8-41.8,6.7-43.7
		c1.8-1.8,12.1-8.7,12.1-8.7L479.1,573.7z"/>
	<path id="XMLID_49_" class="st9" d="M467.2,500.7l13.2,17l6.2-7.3l21.7,36.7l49.3,3c0,0-31.9-51.7-47.2-63
		c-15.3-11.3-23.4-6.1-26.9-2.7C480.1,487.8,467.2,500.7,467.2,500.7z"/>
	<path id="XMLID_94_" class="st12" d="M526.2,548.1c-2.8-30-20-54.7-42.9-63.6c-3.7,3.7-16.1,16.1-16.1,16.1l13.2,17l6.2-7.3
		l21.7,36.7L526.2,548.1z"/>
	<path id="XMLID_33_" class="st5" d="M467.2,500.7l13.2,17l6.2-7.3l21.7,39.7h49.3c0,0-31.9-51.7-47.2-63
		c-15.3-11.3-23.4-6.1-26.9-2.7C480.1,487.8,467.2,500.7,467.2,500.7z"/>
	<path id="XMLID_16_" class="st4" d="M487.5,654.2h-33.6v-5.5c0-4.9,3.8-8.9,8.6-9.2l24.9-1.4V654.2z"/>
	<path id="XMLID_34_" class="st5" d="M487.5,654.2h-33.6v-5.5c0-4.9,3.8-8.9,8.6-9.2l24.9-1.4V654.2z"/>
	<path id="XMLID_48_" class="st10" d="M476.9,572l23.2,17.7c0,0,49.9-17,57.5-39.7c-38,0-49.3,0-49.3,0L476.9,572z"/>
	<path id="XMLID_93_" class="st13" d="M525.3,550c-12.6,0-17,0-17,0l-31.4,22l5.6,4.3c1.2-0.2,2.4-0.4,3.7-0.6
		C505.8,571.7,521.1,561.2,525.3,550z"/>
	<path id="XMLID_27_" class="st5" d="M476.9,572l23.2,17.7c0,0,49.9-17,57.5-39.7c-38,0-49.3,0-49.3,0L476.9,572z"/>
	<path id="XMLID_13_" class="st6" d="M563.5,649c-3.8,0-7-3.2-7-7c0-3.8,3.2-7,7-7s7,3.2,7,7C570.5,645.8,567.3,649,563.5,649z"/>
	<path id="XMLID_12_" class="st5" d="M563.5,649c-3.8,0-7-3.2-7-7c0-3.8,3.2-7,7-7s7,3.2,7,7C570.5,645.8,567.3,649,563.5,649z"/>
	<line id="XMLID_76_" class="st5" x1="549.8" y1="435.2" x2="557.6" y2="435.2"/>
	<line id="XMLID_63_" class="st5" x1="487.5" y1="435.2" x2="536.7" y2="435.2"/>
	<line id="XMLID_64_" class="st5" x1="588.7" y1="656.2" x2="661.7" y2="656.2"/>
	<line id="XMLID_77_" class="st5" x1="675.3" y1="617.7" x2="682.3" y2="617.7"/>
	<line id="XMLID_65_" class="st5" x1="634.2" y1="617.7" x2="661.7" y2="617.7"/>
	<line id="XMLID_66_" class="st5" x1="551.3" y1="491" x2="589.6" y2="491"/>
	<line id="XMLID_68_" class="st5" x1="346.1" y1="576.3" x2="312.6" y2="576.3"/>
	<line id="XMLID_80_" class="st5" x1="374.7" y1="559.7" x2="357.9" y2="559.7"/>
</g>
</svg>
