<?xml version="1.0" encoding="utf-8"?>
<!-- Generator: Adobe Illustrator 23.1.1, SVG Export Plug-In . SVG Version: 6.00 Build 0)  -->
<svg version="1.1" id="Layer_1" xmlns="http://www.w3.org/2000/svg" xmlns:xlink="http://www.w3.org/1999/xlink" x="0px" y="0px"
	 viewBox="0 0 1000 1000" style="enable-background:new 0 0 1000 1000;" xml:space="preserve">
<style type="text/css">
	.st0{fill:#3197D6;}
	.st1{fill:#EEF2F4;}
	.st2{opacity:0.64;fill:#68CCE9;}
	.st3{fill:#282323;stroke:#000000;stroke-width:4;stroke-linecap:round;stroke-linejoin:round;stroke-miterlimit:10;}
	.st4{fill:#442C2A;}
	.st5{opacity:0.37;fill:#442C2A;}
	.st6{fill:none;stroke:#000000;stroke-width:4;stroke-linecap:round;stroke-linejoin:round;stroke-miterlimit:10;}
	.st7{fill:#151E28;}
	.st8{fill:#2A3749;}
	.st9{opacity:0.67;fill:#151E28;}
	.st10{fill:#9B2121;}
	.st11{fill:#F1534D;}
	.st12{opacity:0.24;}
	.st13{fill:#F46262;}
	.st14{fill:#FFC897;}
	.st15{fill:#E5A973;}
	.st16{fill:#607691;}
	.st17{fill:#B5B5B5;}
	.st18{opacity:0.21;fill:#7E7E7E;}
	.st19{opacity:0.66;fill:#B5B5B5;}
	.st20{fill:none;stroke:#000000;stroke-width:6;stroke-linecap:round;stroke-linejoin:round;stroke-miterlimit:10;}
	.st21{fill:#7E7E7E;}
	.st22{fill:#231A17;}
	.st23{opacity:0.34;}
	.st24{fill:none;stroke:#000000;stroke-width:3;stroke-linecap:round;stroke-linejoin:round;stroke-miterlimit:10;}
	.st25{fill:none;stroke:#000000;stroke-width:2;stroke-linecap:round;stroke-linejoin:round;stroke-miterlimit:10;}
	.st26{opacity:0.64;}
	.st27{fill:#68CCE9;}
	.st28{fill:#FFFFFF;}
</style>
<rect id="XMLID_66_" x="0" class="st0" width="1000" height="1000"/>
<g>
	<g>
		<g>
			<path class="st1" d="M63.2,959.2c0,2.5-1.2,3.7-2.6,3.7c-1.1,0-1.9-0.5-2.1-1.4c-0.4,0.5-1,0.8-1.8,0.8c-1.5,0-2.6-1.2-2.6-2.8
				c0-1.6,1.1-2.8,2.6-2.8c0.7,0,1.2,0.3,1.6,0.7v-0.5h1.6v3.9c0,0.8,0.3,1.4,1,1.4c0.9,0,1.7-0.9,1.7-3c0-3-2.3-5.3-5.4-5.3
				c-3.1,0-5.6,2.4-5.6,5.7c0,3.3,2.5,5.7,5.9,5.7c1.1,0,2.1-0.2,2.9-0.4v0.6c-0.8,0.3-1.7,0.4-2.9,0.4c-3.7,0-6.5-2.6-6.5-6.2
				c0-3.4,2.7-6.2,6.2-6.2C61.1,953.3,63.2,956.4,63.2,959.2z M58.3,959.5c0-0.8-0.6-1.4-1.3-1.4c-0.8,0-1.3,0.5-1.3,1.4
				c0,0.8,0.6,1.3,1.3,1.3C57.8,960.9,58.3,960.3,58.3,959.5z"/>
		</g>
		<g>
			<path class="st1" d="M69.4,955.1v2c-1.2-0.1-2.6,0.5-2.6,2.4v4.3h-1.9v-8.6h1.9v1.4C67.3,955.5,68.3,955.1,69.4,955.1z"/>
		</g>
		<g>
			<path class="st1" d="M74.6,962.3c1,0,1.8-0.5,2.2-1.1l1.5,0.9c-0.8,1.2-2.1,1.9-3.8,1.9c-2.8,0-4.7-1.9-4.7-4.5
				c0-2.5,1.8-4.5,4.5-4.5c2.6,0,4.3,2.1,4.3,4.5c0,0.3,0,0.5-0.1,0.8h-6.8C72.1,961.6,73.2,962.3,74.6,962.3z M76.9,958.8
				c-0.3-1.5-1.3-2.1-2.5-2.1c-1.4,0-2.3,0.8-2.6,2.1H76.9z"/>
		</g>
		<g>
			<path class="st1" d="M88.9,955.2v8.6h-1.9v-1.2c-0.7,0.9-1.7,1.5-3,1.5c-2.3,0-4.3-2-4.3-4.5c0-2.6,1.9-4.5,4.3-4.5
				c1.3,0,2.3,0.5,3,1.4v-1.2H88.9z M87.1,959.5c0-1.6-1.2-2.7-2.7-2.7c-1.5,0-2.7,1.1-2.7,2.7c0,1.6,1.2,2.7,2.7,2.7
				C85.9,962.3,87.1,961.1,87.1,959.5z"/>
		</g>
		<g>
			<path class="st1" d="M91.1,951.3H93v12.5h-1.9V951.3z"/>
		</g>
		<g>
			<path class="st1" d="M102.9,955.2l-3.3,8.6h-2.1l-3.3-8.6h2l2.4,6.5l2.4-6.5H102.9z"/>
		</g>
		<g>
			<path class="st1" d="M104.2,955.2h1.9v8.9c0,2.4-1.2,3.5-3.5,3.3v-1.8c1.1,0.1,1.7-0.3,1.7-1.5V955.2z M104,952.8
				c0-0.7,0.5-1.2,1.2-1.2c0.7,0,1.2,0.5,1.2,1.2c0,0.6-0.5,1.2-1.2,1.2C104.5,954,104,953.4,104,952.8z"/>
		</g>
		<g>
			<path class="st1" d="M116,955.2l-3.3,8.8c-0.8,2.2-2.2,3.3-4.2,3.2v-1.7c1.2,0.1,1.9-0.5,2.3-1.7l0.1-0.2l-3.6-8.4h2l2.6,6.2
				l2.2-6.2H116z"/>
		</g>
	</g>
	<g>
		<path class="st1" d="M211.9,938.7c0,2.1-1.5,3.8-3.6,3.8h-3v-7.6h3C210.4,934.9,211.9,936.6,211.9,938.7z M210.9,938.7
			c0-1.6-1.1-2.9-2.6-2.9h-2v5.7h2C209.8,941.6,210.9,940.3,210.9,938.7z"/>
		<path class="st1" d="M219.5,940.8h-3.4l-0.6,1.7h-1.1l2.8-7.6h1.1l2.8,7.6h-1.1L219.5,940.8z M219.2,939.9l-1.4-3.8l-1.4,3.8
			H219.2z"/>
		<path class="st1" d="M226.4,939.4v3.1h-1v-3.1l-2.7-4.5h1.1l2.1,3.6l2.1-3.6h1.1L226.4,939.4z"/>
		<path class="st1" d="M241.6,938.8L241.6,938.8l-2.5,3.7H238l1.8-2.7c-0.1,0-0.2,0-0.4,0c-1.5,0-2.6-1-2.6-2.6
			c0-1.5,1.1-2.6,2.6-2.6s2.6,1,2.6,2.6C242.1,937.9,241.9,938.4,241.6,938.8z M239.4,938.9c1,0,1.6-0.6,1.6-1.6s-0.7-1.6-1.6-1.6
			s-1.6,0.6-1.6,1.6C237.8,938.3,238.5,938.9,239.4,938.9z"/>
		<path class="st1" d="M245,941.7l2.7-2.7c0.6-0.6,1.1-1.2,1.1-1.9c0-0.9-0.6-1.4-1.4-1.4c-0.7,0-1.2,0.3-1.6,1l-0.8-0.5
			c0.5-1,1.4-1.5,2.4-1.5c1.2,0,2.4,0.8,2.4,2.3c0,0.9-0.6,1.8-1.4,2.5l-2,1.9h3.5v1H245V941.7z"/>
	</g>
	<g>
		<path class="st1" d="M58.9,938.7c0,2.1-1.5,3.8-3.6,3.8h-3v-7.6h3C57.4,934.9,58.9,936.6,58.9,938.7z M57.9,938.7
			c0-1.6-1.1-2.9-2.6-2.9h-2v5.7h2C56.8,941.6,57.9,940.3,57.9,938.7z"/>
		<path class="st1" d="M67,941.6v1h-4.6v-7.6h4.5v1h-3.5v2.3h3.2v0.9h-3.2v2.4H67z"/>
		<path class="st1" d="M70,940.8l0.9-0.5c0.3,0.8,0.9,1.4,2,1.4c1.1,0,1.6-0.5,1.6-1.2c0-0.8-0.7-1-1.8-1.4
			c-1.2-0.4-2.4-0.8-2.4-2.2c0-1.4,1.1-2.2,2.4-2.2c1.3,0,2.2,0.7,2.6,1.7l-0.8,0.5c-0.3-0.7-0.8-1.2-1.7-1.2
			c-0.8,0-1.4,0.4-1.4,1.1c0,0.7,0.5,1,1.6,1.3c1.3,0.4,2.6,0.8,2.6,2.3c0,1.3-1.1,2.2-2.6,2.2C71.5,942.7,70.4,941.9,70,940.8z"/>
		<path class="st1" d="M80,934.9v7.6h-1v-7.6H80z"/>
		<path class="st1" d="M91.3,939.2c0,1.9-1.4,3.5-3.7,3.5c-2.4,0-4-1.8-4-4c0-2.2,1.7-4,4-4c1.4,0,2.7,0.8,3.3,1.8l-0.9,0.5
			c-0.4-0.8-1.4-1.4-2.4-1.4c-1.8,0-3,1.3-3,3c0,1.7,1.2,3,3,3c1.6,0,2.5-0.9,2.7-2h-2.8v-0.9h3.8V939.2z"/>
		<path class="st1" d="M100.6,934.9v7.6h-0.8l-3.9-5.7v5.7h-1v-7.6h0.8l3.9,5.7v-5.7H100.6z"/>
		<path class="st1" d="M109.1,941.6v1h-4.6v-7.6h4.5v1h-3.5v2.3h3.2v0.9h-3.2v2.4H109.1z"/>
		<path class="st1" d="M119.2,938.7c0,2.1-1.5,3.8-3.6,3.8h-3v-7.6h3C117.6,934.9,119.2,936.6,119.2,938.7z M118.2,938.7
			c0-1.6-1.1-2.9-2.6-2.9h-2v5.7h2C117.1,941.6,118.2,940.3,118.2,938.7z"/>
		<path class="st1" d="M133.2,940.4c0,1.2-1,2.2-2.2,2.2h-3.3v-7.6h3c1.2,0,2.1,0.9,2.1,2.1c0,0.7-0.3,1.2-0.8,1.6
			C132.7,938.9,133.2,939.5,133.2,940.4z M128.7,935.8v2.3h2c0.6,0,1.1-0.5,1.1-1.2c0-0.6-0.5-1.2-1.1-1.2H128.7z M132.2,940.3
			c0-0.7-0.5-1.2-1.2-1.2h-2.3v2.5h2.3C131.7,941.6,132.2,941,132.2,940.3z"/>
		<path class="st1" d="M139.4,939.4v3.1h-1v-3.1l-2.7-4.5h1.1l2.1,3.6l2.1-3.6h1.1L139.4,939.4z"/>
	</g>
	<g>
		<path class="st1" d="M207.5,953.9v3.5h5v1.9h-5v5h-2v-12.4h7.3v1.9H207.5z"/>
		<path class="st1" d="M219.1,955.3v2.1c-1.3-0.1-2.7,0.5-2.7,2.5v4.5h-1.9v-8.9h1.9v1.5C216.9,955.7,218,955.3,219.1,955.3z"/>
		<path class="st1" d="M224.5,962.8c1.1,0,1.9-0.5,2.3-1.1l1.6,0.9c-0.8,1.2-2.1,1.9-3.9,1.9c-2.9,0-4.8-2-4.8-4.7
			c0-2.6,1.9-4.7,4.7-4.7c2.6,0,4.4,2.1,4.4,4.7c0,0.3,0,0.5-0.1,0.8h-7C222,962.1,223.1,962.8,224.5,962.8z M226.8,959.1
			c-0.3-1.5-1.4-2.2-2.5-2.2c-1.4,0-2.4,0.8-2.7,2.2H226.8z"/>
		<path class="st1" d="M234.7,962.8c1.1,0,1.9-0.5,2.3-1.1l1.6,0.9c-0.8,1.2-2.1,1.9-3.9,1.9c-2.9,0-4.8-2-4.8-4.7
			c0-2.6,1.9-4.7,4.7-4.7c2.6,0,4.4,2.1,4.4,4.7c0,0.3,0,0.5-0.1,0.8h-7C232.2,962.1,233.3,962.8,234.7,962.8z M237.1,959.1
			c-0.3-1.5-1.4-2.2-2.5-2.2c-1.4,0-2.4,0.8-2.7,2.2H237.1z"/>
		<path class="st1" d="M240.7,951.4h1.9v12.9h-1.9V951.4z"/>
		<path class="st1" d="M253.8,955.4v8.9h-1.9V963c-0.7,0.9-1.7,1.5-3.1,1.5c-2.4,0-4.4-2-4.4-4.7c0-2.6,2-4.7,4.4-4.7
			c1.4,0,2.4,0.6,3.1,1.5v-1.3H253.8z M251.8,959.9c0-1.6-1.2-2.8-2.8-2.8c-1.6,0-2.8,1.2-2.8,2.8c0,1.6,1.2,2.8,2.8,2.8
			C250.6,962.7,251.8,961.5,251.8,959.9z"/>
		<path class="st1" d="M264,958.9v5.4h-1.9v-5.2c0-1.3-0.8-2.1-2-2.1c-1.3,0-2.2,0.7-2.2,2.5v4.7H256v-8.9h1.9v1.1
			c0.6-0.9,1.5-1.4,2.7-1.4C262.6,955.2,264,956.6,264,958.9z"/>
		<path class="st1" d="M265.6,959.9c0-2.6,2-4.7,4.7-4.7c1.7,0,3.2,0.9,3.9,2.3l-1.6,1c-0.4-0.8-1.3-1.4-2.3-1.4
			c-1.6,0-2.7,1.2-2.7,2.8c0,1.6,1.2,2.8,2.7,2.8c1.1,0,1.9-0.5,2.4-1.4l1.6,0.9c-0.7,1.4-2.2,2.3-4,2.3
			C267.6,964.5,265.6,962.5,265.6,959.9z"/>
		<path class="st1" d="M275.4,952.9c0-0.7,0.5-1.2,1.2-1.2c0.7,0,1.2,0.5,1.2,1.2c0,0.7-0.5,1.2-1.2,1.2
			C275.9,954.1,275.4,953.6,275.4,952.9z M275.6,955.4h1.9v8.9h-1.9V955.4z"/>
		<path class="st1" d="M287.8,958.9v5.4h-1.9v-5.2c0-1.3-0.8-2.1-2-2.1c-1.3,0-2.2,0.7-2.2,2.5v4.7h-1.9v-8.9h1.9v1.1
			c0.6-0.9,1.5-1.4,2.7-1.4C286.4,955.2,287.8,956.6,287.8,958.9z"/>
		<path class="st1" d="M298.8,955.4v8.4c0,2.8-2.2,4.2-4.5,4.2c-1.9,0-3.5-0.7-4.2-2.1l1.6-1c0.4,0.8,1,1.4,2.6,1.4
			c1.6,0,2.6-0.9,2.6-2.4v-1.1c-0.7,1-1.7,1.5-3.1,1.5c-2.5,0-4.5-2-4.5-4.6s2-4.6,4.5-4.6c1.4,0,2.4,0.6,3.1,1.5v-1.3H298.8z
			 M296.9,959.8c0-1.6-1.2-2.8-2.8-2.8c-1.6,0-2.8,1.2-2.8,2.8s1.2,2.8,2.8,2.8C295.7,962.6,296.9,961.4,296.9,959.8z"/>
	</g>
	<g>
		<g>
			<g>
				<path class="st1" d="M846.1,938.7c0,2.1-1.5,3.8-3.6,3.8h-3v-7.6h3C844.6,934.9,846.1,936.6,846.1,938.7z M845.2,938.7
					c0-1.6-1.1-2.9-2.6-2.9h-2v5.7h2C844.1,941.6,845.2,940.3,845.2,938.7z"/>
			</g>
			<g>
				<path class="st1" d="M849.3,938.7c0-2.2,1.7-4,3.9-4c2.2,0,4,1.8,4,4c0,2.2-1.7,4-4,4C851,942.7,849.3,940.9,849.3,938.7z
					 M856.1,938.7c0-1.7-1.3-3-2.9-3c-1.7,0-2.9,1.3-2.9,3c0,1.7,1.3,3,2.9,3C854.9,941.7,856.1,940.4,856.1,938.7z"/>
			</g>
			<g>
				<path class="st1" d="M859.8,934.9h1.1l1.7,6.3l1.9-6.3h1l1.9,6.3l1.7-6.3h1.1l-2.2,7.6h-1.2l-1.8-6.1l-1.8,6.1H862L859.8,934.9z
					"/>
			</g>
			<g>
				<path class="st1" d="M879.3,934.9v7.6h-0.8l-3.9-5.7v5.7h-1v-7.6h0.8l3.9,5.7v-5.7H879.3z"/>
			</g>
			<g>
				<path class="st1" d="M887.5,941.6v1h-4.3v-7.6h1v6.7H887.5z"/>
			</g>
			<g>
				<path class="st1" d="M889.9,938.7c0-2.2,1.7-4,3.9-4c2.2,0,4,1.8,4,4c0,2.2-1.7,4-4,4C891.6,942.7,889.9,940.9,889.9,938.7z
					 M896.8,938.7c0-1.7-1.3-3-2.9-3c-1.7,0-2.9,1.3-2.9,3c0,1.7,1.3,3,2.9,3C895.5,941.7,896.8,940.4,896.8,938.7z"/>
			</g>
			<g>
				<path class="st1" d="M905.4,940.8H902l-0.6,1.7h-1.1l2.8-7.6h1.1l2.8,7.6H906L905.4,940.8z M905.1,939.9l-1.4-3.8l-1.4,3.8
					H905.1z"/>
			</g>
			<g>
				<path class="st1" d="M916.9,938.7c0,2.1-1.5,3.8-3.6,3.8h-3v-7.6h3C915.4,934.9,916.9,936.6,916.9,938.7z M915.9,938.7
					c0-1.6-1.1-2.9-2.6-2.9h-2v5.7h2C914.9,941.6,915.9,940.3,915.9,938.7z"/>
			</g>
			<g>
				<path class="st1" d="M926.5,935.8v2.5h3.2v1h-3.2v3.2h-1v-7.6h4.4v1H926.5z"/>
			</g>
			<g>
				<path class="st1" d="M936.2,939.6h-1.8v2.9h-1v-7.6h3c1.3,0,2.4,1.1,2.4,2.4c0,1-0.7,1.9-1.6,2.2l1.8,3.1h-1.1L936.2,939.6z
					 M934.4,938.7h2c0.8,0,1.4-0.6,1.4-1.4c0-0.8-0.6-1.4-1.4-1.4h-2V938.7z"/>
			</g>
			<g>
				<path class="st1" d="M941.9,938.7c0-2.2,1.7-4,3.9-4c2.2,0,4,1.8,4,4c0,2.2-1.7,4-4,4C943.6,942.7,941.9,940.9,941.9,938.7z
					 M948.8,938.7c0-1.7-1.3-3-2.9-3c-1.7,0-2.9,1.3-2.9,3c0,1.7,1.3,3,2.9,3C947.5,941.7,948.8,940.4,948.8,938.7z"/>
			</g>
			<g>
				<path class="st1" d="M960.4,942.5h-1v-6l-2.5,4.2h-0.1l-2.5-4.1v5.9h-1v-7.6h1.1l2.4,4l2.4-4h1.1V942.5z"/>
			</g>
		</g>
		<g>
			<g>
				<path class="st1" d="M839.3,952.9c0-0.7,0.5-1.2,1.2-1.2c0.7,0,1.2,0.5,1.2,1.2c0,0.7-0.5,1.2-1.2,1.2
					C839.9,954.1,839.3,953.6,839.3,952.9z M839.6,955.4h1.9v8.9h-1.9V955.4z"/>
			</g>
			<g>
				<path class="st1" d="M843.7,951.4h1.9v12.9h-1.9V951.4z"/>
			</g>
			<g>
				<path class="st1" d="M847.8,951.4h1.9v12.9h-1.9V951.4z"/>
			</g>
			<g>
				<path class="st1" d="M852,951.4h1.9v12.9H852V951.4z"/>
			</g>
			<g>
				<path class="st1" d="M864,955.4v8.9h-1.9v-1.1c-0.6,0.9-1.5,1.4-2.7,1.4c-2,0-3.4-1.3-3.4-3.6v-5.4h1.9v5.2c0,1.3,0.8,2.1,2,2.1
					c1.3,0,2.2-0.7,2.2-2.5v-4.7H864z"/>
			</g>
			<g>
				<path class="st1" d="M872.6,961.8c0,1.8-1.5,2.7-3.5,2.7c-1.8,0-3-0.8-3.6-2.1l1.6-1c0.3,0.8,1,1.3,2,1.3c0.8,0,1.5-0.3,1.5-1
					c0-1.6-4.8-0.7-4.8-3.9c0-1.7,1.4-2.7,3.2-2.7c1.5,0,2.7,0.7,3.3,1.8l-1.6,0.9c-0.3-0.7-0.9-1-1.7-1c-0.7,0-1.3,0.3-1.3,0.9
					C867.9,959.5,872.6,958.5,872.6,961.8z"/>
			</g>
			<g>
				<path class="st1" d="M876.7,957.3v4.2c0,1.1,0.7,1.1,2.2,1v1.7c-2.9,0.4-4.1-0.5-4.1-2.8v-4.2h-1.6v-1.8h1.6v-1.9l1.9-0.6v2.5
					h2.2v1.8H876.7z"/>
			</g>
			<g>
				<path class="st1" d="M885.4,955.3v2.1c-1.3-0.1-2.7,0.5-2.7,2.5v4.5h-1.9v-8.9h1.9v1.5C883.2,955.7,884.2,955.3,885.4,955.3z"/>
			</g>
			<g>
				<path class="st1" d="M895.3,955.4v8.9h-1.9V963c-0.7,0.9-1.7,1.5-3.1,1.5c-2.4,0-4.4-2-4.4-4.7c0-2.6,2-4.7,4.4-4.7
					c1.4,0,2.4,0.6,3.1,1.5v-1.3H895.3z M893.4,959.9c0-1.6-1.2-2.8-2.8-2.8c-1.6,0-2.8,1.2-2.8,2.8c0,1.6,1.2,2.8,2.8,2.8
					C892.2,962.7,893.4,961.5,893.4,959.9z"/>
			</g>
			<g>
				<path class="st1" d="M900.3,957.3v4.2c0,1.1,0.7,1.1,2.2,1v1.7c-2.9,0.4-4.1-0.5-4.1-2.8v-4.2h-1.6v-1.8h1.6v-1.9l1.9-0.6v2.5
					h2.2v1.8H900.3z"/>
			</g>
			<g>
				<path class="st1" d="M903.9,952.9c0-0.7,0.5-1.2,1.2-1.2c0.7,0,1.2,0.5,1.2,1.2c0,0.7-0.5,1.2-1.2,1.2
					C904.5,954.1,903.9,953.6,903.9,952.9z M904.2,955.4h1.9v8.9h-1.9V955.4z"/>
			</g>
			<g>
				<path class="st1" d="M907.8,959.9c0-2.6,2.1-4.7,4.7-4.7c2.6,0,4.7,2,4.7,4.7c0,2.6-2.1,4.7-4.7,4.7
					C909.9,964.5,907.8,962.5,907.8,959.9z M915.3,959.9c0-1.6-1.2-2.8-2.8-2.8c-1.6,0-2.8,1.2-2.8,2.8c0,1.6,1.2,2.8,2.8,2.8
					C914.1,962.7,915.3,961.5,915.3,959.9z"/>
			</g>
			<g>
				<path class="st1" d="M927,958.9v5.4h-1.9v-5.2c0-1.3-0.8-2.1-2-2.1c-1.3,0-2.2,0.7-2.2,2.5v4.7h-1.9v-8.9h1.9v1.1
					c0.6-0.9,1.5-1.4,2.7-1.4C925.5,955.2,927,956.6,927,958.9z"/>
			</g>
			<g>
				<path class="st1" d="M935.5,961.8c0,1.8-1.5,2.7-3.5,2.7c-1.8,0-3-0.8-3.6-2.1l1.6-1c0.3,0.8,1,1.3,2,1.3c0.8,0,1.5-0.3,1.5-1
					c0-1.6-4.8-0.7-4.8-3.9c0-1.7,1.4-2.7,3.2-2.7c1.5,0,2.7,0.7,3.3,1.8l-1.6,0.9c-0.3-0.7-0.9-1-1.7-1c-0.7,0-1.3,0.3-1.3,0.9
					C930.7,959.5,935.5,958.5,935.5,961.8z"/>
			</g>
			<g>
				<path class="st1" d="M936.8,963.2c0-0.7,0.6-1.3,1.3-1.3c0.7,0,1.3,0.6,1.3,1.3c0,0.7-0.6,1.3-1.3,1.3
					C937.4,964.5,936.8,963.9,936.8,963.2z"/>
			</g>
			<g>
				<path class="st1" d="M940.3,959.9c0-2.6,2-4.7,4.7-4.7c1.7,0,3.2,0.9,3.9,2.3l-1.6,1c-0.4-0.8-1.3-1.4-2.3-1.4
					c-1.6,0-2.7,1.2-2.7,2.8c0,1.6,1.2,2.8,2.7,2.8c1.1,0,1.9-0.5,2.4-1.4l1.6,0.9c-0.7,1.4-2.2,2.3-4,2.3
					C942.3,964.5,940.3,962.5,940.3,959.9z"/>
			</g>
			<g>
				<path class="st1" d="M949.7,959.9c0-2.6,2.1-4.7,4.7-4.7c2.6,0,4.7,2,4.7,4.7c0,2.6-2.1,4.7-4.7,4.7
					C951.8,964.5,949.7,962.5,949.7,959.9z M957.2,959.9c0-1.6-1.2-2.8-2.8-2.8s-2.8,1.2-2.8,2.8c0,1.6,1.2,2.8,2.8,2.8
					S957.2,961.5,957.2,959.9z"/>
			</g>
		</g>
	</g>
</g>
<g id="XMLID_1207_">
	<ellipse id="XMLID_1193_" class="st2" cx="492.2" cy="720.8" rx="235.1" ry="47.3"/>
	<g id="XMLID_43_">
		<path id="XMLID_1211_" class="st3" d="M379.5,713.2c3.3-10.7,13.4-16.4,29.8-21.2c10.4-3,23.6-4.4,44.3-8.6c10.1-2,17.2-6,17.2-6
			v11.5c0,0-68.5,13.5-79.2,31.2c-5.2,8.7-3.6,30,20.9,32.2c-7.5,1.1-19.8-0.8-26.4-7.5C377.9,736.5,375.7,725.4,379.5,713.2z"/>
		<path id="XMLID_1210_" class="st4" d="M470.8,688.9c0,0-41,7.6-62.9,17c-19.2,8.3-18.6,16.9-19.1,25.7
			c-0.3,5.1,3.3,17.7,17.9,19.9c17.4,2.6,37.9-0.2,64.1-16.9C470.8,693.7,470.8,688.9,470.8,688.9z"/>
		<path id="XMLID_53_" class="st5" d="M388.8,731.6c0.4-7.1,0.1-14.1,10.1-20.9c-0.4,2.5-0.5,4.9-0.6,7.4c-0.3,5.1,12-1.5,26.6,0.6
			c15.2,2.3,24.2,19.7,45.9,8c0,2.5,0,5.1,0,7.8c-26.2,16.7-46.7,19.4-64.1,16.9C392.1,749.3,388.5,736.6,388.8,731.6z"/>
		<path id="XMLID_47_" class="st6" d="M470.8,688.9c0,0-41,7.6-62.9,17c-19.2,8.3-18.6,16.9-19.1,25.7c-0.3,5.1,3.3,17.7,17.9,19.9
			c17.4,2.6,37.9-0.2,64.1-16.9C470.8,693.7,470.8,688.9,470.8,688.9z"/>
		<path id="XMLID_46_" class="st6" d="M432.8,712.4c-3.3,1.8-2.5,19.3,5.5,21.7"/>
		<path id="XMLID_45_" class="st6" d="M445.3,711.1c-3.4,4.8-1,16.1,5.1,18.9"/>
		<path id="XMLID_44_" class="st6" d="M456.8,707.1c-3.4,4.8-1,16.1,5.1,18.9"/>
	</g>
	<path id="XMLID_77_" class="st7" d="M574.8,655.3c-21.6,15-52.3,23.6-84.4,23.6c-32,0-62.8-8.6-84.4-23.6
		c-9.9-6.9-26.5-21.3-26.5-40.5s16.6-33.6,26.5-40.5c21.6-15,52.3-23.6,84.4-23.6c32,0,62.8,8.6,84.4,23.6
		c9.9,6.9,26.5,21.3,26.5,40.5S584.7,648.4,574.8,655.3z"/>
	<path id="XMLID_76_" class="st8" d="M673.7,630.8c-0.4,2-0.8,3.9-1.4,5.9c-15.6,56.9-90.8,100.1-181.3,100.1
		c-90.7,0-166.1-43.4-181.4-100.5c-0.4-1.6-0.8-3.2-1.1-4.8c-0.4-3-0.3-6,0.3-9c3.7-16.8,24.1-26.5,45.6-21.7
		c14.1,3.1,25.1,11.8,30,22.1c0.5,2.2,1.3,4.4,2.2,6.5c5.2,12,15.6,21,22.6,26c20.9,15,50.8,23.6,81.8,23.6
		c31.1,0,60.9-8.6,81.8-23.6c7.1-5.1,17.6-14.2,22.7-26.2c0.8-1.9,1.5-4,2-6c4.8-10.4,15.9-19.1,30.1-22.3
		c21.5-4.8,41.9,5,45.6,21.7C673.9,625.2,674,628,673.7,630.8z"/>
	<path id="XMLID_1209_" class="st9" d="M673.2,622.4c-0.1-0.5-0.2-0.9-0.4-1.4c-0.3,1.6-0.7,3.3-1.2,4.9
		C656.2,682.8,580.9,726,490.5,726c-90.7,0-166.1-43.4-181.4-100.5c-0.2-0.6-0.3-1.2-0.5-1.9c-0.4,2.6-0.5,5.2-0.1,7.7
		c0.3,1.6,0.7,3.2,1.1,4.8c15.3,57.1,90.7,100.5,181.4,100.5c90.5,0,165.7-43.2,181.3-100.1c0.5-1.9,1-3.9,1.4-5.9
		C674,628,673.9,625.2,673.2,622.4z"/>
	<path id="XMLID_56_" class="st6" d="M673.7,630.8c-0.4,2-0.8,3.9-1.4,5.9c-15.6,56.9-90.8,100.1-181.3,100.1
		c-90.7,0-166.1-43.4-181.4-100.5c-0.4-1.6-0.8-3.2-1.1-4.8c-0.4-3-0.3-6,0.3-9c3.7-16.8,24.1-26.5,45.6-21.7
		c14.1,3.1,25.1,11.8,30,22.1c0.5,2.2,1.3,4.4,2.2,6.5c5.2,12,15.6,21,22.6,26c20.9,15,50.8,23.6,81.8,23.6
		c31.1,0,60.9-8.6,81.8-23.6c7.1-5.1,17.6-14.2,22.7-26.2c0.8-1.9,1.5-4,2-6c4.8-10.4,15.9-19.1,30.1-22.3
		c21.5-4.8,41.9,5,45.6,21.7C673.9,625.2,674,628,673.7,630.8z"/>
	<ellipse id="XMLID_75_" class="st10" cx="492.2" cy="617.8" rx="90.1" ry="30.6"/>
	<ellipse id="XMLID_31_" class="st6" cx="492.2" cy="617.8" rx="90.1" ry="30.6"/>
	<g id="XMLID_89_">
		<path id="XMLID_69_" class="st11" d="M594.8,551H387.2c-15.9,0-28.2-13.9-26.2-29.7l9.2-73.5c2.6-21,20.4-36.7,41.6-36.7h158.6
			c21.1,0,38.9,15.7,41.6,36.7l9.2,73.5C623,537.1,610.7,551,594.8,551z"/>
		<path id="XMLID_24_" class="st6" d="M594.8,551H387.2c-15.9,0-28.2-13.9-26.2-29.7l9.2-73.5c2.6-21,20.4-36.7,41.6-36.7h158.6
			c21.1,0,38.9,15.7,41.6,36.7l9.2,73.5C623,537.1,610.7,551,594.8,551z"/>
		<path id="XMLID_90_" class="st6" d="M415,473.2"/>
		<g id="XMLID_1191_">
			<line id="XMLID_1189_" class="st6" x1="409.7" y1="473.2" x2="407.7" y2="498.3"/>
			<line id="XMLID_1192_" class="st6" x1="573.8" y1="473.2" x2="575.8" y2="498.3"/>
		</g>
	</g>
	<g id="XMLID_1194_">
		<path id="XMLID_1202_" class="st11" d="M594.8,551H387.2c-15.9,0-28.2-13.9-26.2-29.7l9.2-73.5c2.6-21,20.4-36.7,41.6-36.7h158.6
			c21.1,0,38.9,15.7,41.6,36.7l9.2,73.5C623,537.1,610.7,551,594.8,551z"/>
		<g id="XMLID_4_" class="st12">
			<path id="XMLID_1208_" class="st10" d="M370.1,455.6c2.6-21,20.4-36.7,41.6-36.7h158.6c21.1,0,38.9,15.7,41.6,36.7l9.1,72.9
				c0.3-2.3,0.4-4.7,0.1-7.2l-9.2-73.5c-2.6-21-20.4-36.7-41.6-36.7H411.7c-21.1,0-38.9,15.7-41.6,36.7l-9.2,73.5
				c-0.3,2.4-0.3,4.8,0.1,7.2L370.1,455.6z"/>
			<path id="XMLID_8_" class="st10" d="M420.9,418.9c0,0,12.3,2.2,13.3,9c0.8,5.5,0.7,9.1,2.8,11.3s7,6.7,16.9,6.7
				c-5.5-5.5-5.6-24.8-7.1-24.8c-1.4,0-5-9.6-5-9.6l-4.8-2.2C437.1,409.3,419.4,411.5,420.9,418.9z"/>
			<path id="XMLID_10_" class="st10" d="M552.3,418.9c0,0-12.3,2.2-13.3,9c-0.8,5.5-0.7,9.1-2.8,11.3c-2.1,2.1-7,6.7-16.9,6.7
				c5.5-5.5,5.6-24.8,7.1-24.8c1.4,0,5-9.6,5-9.6l4.8-2.2C536.1,409.3,553.8,411.5,552.3,418.9z"/>
		</g>
		<path id="XMLID_1201_" class="st6" d="M594.8,551H387.2c-15.9,0-28.2-13.9-26.2-29.7l9.2-73.5c2.6-21,20.4-36.7,41.6-36.7h158.6
			c21.1,0,38.9,15.7,41.6,36.7l9.2,73.5C623,537.1,610.7,551,594.8,551z"/>
		<path id="XMLID_1200_" class="st6" d="M415,473.2"/>
		<g id="XMLID_1195_">
			<line id="XMLID_1199_" class="st6" x1="409.7" y1="473.2" x2="407.7" y2="498.3"/>
			<line id="XMLID_1196_" class="st6" x1="573.8" y1="473.2" x2="575.8" y2="498.3"/>
		</g>
	</g>
	<g id="XMLID_78_">
		<path id="XMLID_80_" class="st10" d="M464.3,369.3l-32.9-1.7l-15.4,1.7c0,0-10.3,7.7-10.3,9.8c0,2.1,1,19.2,1,19.2
			s24.3,3.3,26.9,5.8s18,16.9,18,16.9l14.9-5.8l7.8-20.8L464.3,369.3z"/>
		<path id="XMLID_72_" class="st11" d="M458.5,356.6h-38c-15.3,0-27.8,12.4-27.8,27.8v0c0,15.3,12.4,27.8,27.8,27.8h5
			c8.1,0,14.6,6.5,14.6,14.6v1.5c0,9.7,7.9,17.6,17.6,17.6l0,0c0,0,0-18,0-18c0.2,0,0.4,0.2,0.4,0.4v-1.5c0-18-14.6-32.6-32.6-32.6
			h-5c-5.4,0-9.8-4.4-9.8-9.8s4.4-9.8,9.8-9.8h38L458.5,356.6z"/>
		<path id="XMLID_81_" class="st6" d="M456.2,415.5c-4.6-12.4-16.6-21.4-30.6-21.4h-5c-5.4,0-9.8-4.4-9.8-9.8s4.4-9.8,9.8-9.8h38
			l0-18h-38c-15.3,0-27.8,12.4-27.8,27.8v0c0,15.3,12.4,27.8,27.8,27.8h5c8.1,0,14.6,6.5,14.6,14.6v1.5c0,9.7,7.9,17.6,17.6,17.6"/>
	</g>
	<g id="XMLID_28_">
		<path id="XMLID_82_" class="st10" d="M507.8,369.3l32.9-1.7l15.4,1.7c0,0,10.3,7.7,10.3,9.8c0,2.1-1,19.2-1,19.2
			s-24.3,3.3-26.9,5.8c-2.6,2.6-18,16.9-18,16.9l-14.9-5.8l-7.8-20.8L507.8,369.3z"/>
		<path id="XMLID_79_" class="st11" d="M513.6,356.6h38c15.3,0,27.8,12.4,27.8,27.8v0c0,15.3-12.4,27.8-27.8,27.8h-5
			c-8.1,0-14.6,6.5-14.6,14.6v1.5c0,9.7-7.9,17.6-17.6,17.6l0,0c0,0,0-18,0-18c-0.2,0-0.4,0.2-0.4,0.4v-1.5
			c0-18,14.6-32.6,32.6-32.6h5c5.4,0,9.8-4.4,9.8-9.8s-4.4-9.8-9.8-9.8h-38L513.6,356.6z"/>
		<path id="XMLID_71_" class="st6" d="M516,415.5c4.6-12.4,16.6-21.4,30.6-21.4h5c5.4,0,9.8-4.4,9.8-9.8s-4.4-9.8-9.8-9.8h-38l0-18
			h38c15.3,0,27.8,12.4,27.8,27.8v0c0,15.3-12.4,27.8-27.8,27.8h-5c-8.1,0-14.6,6.5-14.6,14.6v1.5c0,9.7-7.9,17.6-17.6,17.6"/>
	</g>
	<circle id="XMLID_74_" class="st13" cx="487.9" cy="392.7" r="39"/>
	<path id="XMLID_2426_" class="st11" d="M450.6,381.2c10.8,6.9,23.6,11,37.3,11c13.7,0,26.5-4,37.3-11c-4.9-16-19.7-27.6-37.3-27.6
		C470.4,353.7,455.5,365.3,450.6,381.2z"/>
	<circle id="XMLID_23_" class="st6" cx="487.9" cy="392.7" r="39"/>
	<path id="XMLID_70_" class="st14" d="M487.9,415.3L487.9,415.3c-12.7,0-23-10.3-23-23v-17.2c0-3.2,2.6-5.8,5.8-5.8h34.5
		c3.2,0,5.8,2.6,5.8,5.8v17.2C510.9,405,500.6,415.3,487.9,415.3z"/>
	<path id="XMLID_2425_" class="st15" d="M505.2,369.3h-34.5c-3.2,0-5.8,2.8-5.8,6.2v14.1c7.2,2.7,14.9,4.2,23,4.2
		c8.1,0,15.8-1.5,23-4.2v-14.1C510.9,372.1,508.3,369.3,505.2,369.3z"/>
	<path id="XMLID_15_" class="st6" d="M487.9,415.3L487.9,415.3c-12.7,0-23-10.3-23-23v-17.2c0-3.2,2.6-5.8,5.8-5.8h34.5
		c3.2,0,5.8,2.6,5.8,5.8v17.2C510.9,405,500.6,415.3,487.9,415.3z"/>
	<path id="XMLID_25_" class="st6" d="M465.7,404.2"/>
	<rect id="XMLID_30_" x="491.4" y="674.4" class="st16" width="21.4" height="68.3"/>
	<rect id="XMLID_33_" x="491.4" y="674.4" class="st6" width="21.4" height="68.3"/>
	<path id="XMLID_54_" class="st6" d="M386.5,629.2c-0.9-2.1-1.6-4.2-2.2-6.5C385.4,624.9,386.1,627,386.5,629.2z"/>
	<path id="XMLID_51_" class="st6" d="M595.6,629c0.4-2.1,1.1-4.1,2-6C597.1,625.1,596.4,627.1,595.6,629z"/>
	<g id="XMLID_88_">
		<path id="XMLID_73_" class="st17" d="M595.3,624.2H386.8c-7.4,0-13.7-5.5-14.7-12.9l-13-101.8c-1.1-8.8,5.8-16.7,14.7-16.7h234.5
			c8.9,0,15.8,7.8,14.7,16.7l-13,101.8C609,618.6,602.7,624.2,595.3,624.2z"/>
		<path id="XMLID_1188_" class="st18" d="M609.9,604.9c-0.9,7.4-7.2,12.9-14.7,12.9H386.8c-7.4,0-13.7-5.5-14.7-12.9l-12.8-100.3
			c-0.3,1.6-0.4,3.2-0.2,4.9l13,101.8c0.9,7.4,7.2,12.9,14.7,12.9h208.5c7.4,0,13.7-5.5,14.7-12.9l13-101.8c0.2-1.7,0.1-3.3-0.2-4.9
			L609.9,604.9z"/>
		<path id="XMLID_91_" class="st18" d="M359.2,510.4c1.2-6.8,7.2-12.2,14.5-12.2h234.5c7.4,0,13.3,5.3,14.5,12.2l0.1-1
			c1.1-8.8-5.8-16.7-14.7-16.7H373.8c-8.9,0-15.8,7.8-14.7,16.7L359.2,510.4z"/>
		<path id="XMLID_29_" class="st6" d="M595.3,624.2H386.8c-7.4,0-13.7-5.5-14.7-12.9l-13-101.8c-1.1-8.8,5.8-16.7,14.7-16.7h234.5
			c8.9,0,15.8,7.8,14.7,16.7l-13,101.8C609,618.6,602.7,624.2,595.3,624.2z"/>
		<path id="XMLID_1190_" class="st19" d="M500.9,552.3c-4.5,0-8.1-3.6-8.1-8.1c0-0.3,0-0.6,0.1-0.9c-0.8-0.1-1.6-0.2-2.4-0.2
			c-7.3,0-13.3,6-13.3,13.3s6,13.3,13.3,13.3s13.3-6,13.3-13.3c0-1.5-0.3-3-0.7-4.4C502.4,552.1,501.7,552.3,500.9,552.3z"/>
	</g>
	<g id="XMLID_39_">
		<path id="XMLID_36_" class="st3" d="M604.1,713.2c-3.3-10.7-13.4-16.4-29.8-21.2c-10.4-3-23.6-4.4-44.3-8.6c-10.1-2-17.2-6-17.2-6
			v11.5c0,0,68.5,13.5,79.2,31.2c5.2,8.7,3.6,30-20.9,32.2c7.5,1.1,19.8-0.8,26.4-7.5C605.7,736.5,607.9,725.4,604.1,713.2z"/>
		<path id="XMLID_52_" class="st4" d="M512.8,688.9c0,0,41,7.6,62.9,17c19.2,8.3,18.6,16.9,19.1,25.7c0.3,5.1-3.3,17.7-17.9,19.9
			c-17.4,2.6-37.9-0.2-64.1-16.9C512.8,693.7,512.8,688.9,512.8,688.9z"/>
		<path id="XMLID_1212_" class="st5" d="M594.8,731.6c-0.4-7.1-0.1-14.1-10.1-20.9c0.4,2.5,0.5,4.9,0.6,7.4
			c0.3,5.1-3.3,17.7-17.9,19.9c-15.2,2.3-32.9,0.4-54.6-11.3c0,2.5,0,5.1,0,7.8c26.2,16.7,46.7,19.4,64.1,16.9
			C591.6,749.3,595.1,736.6,594.8,731.6z"/>
		<path id="XMLID_34_" class="st6" d="M512.8,688.9c0,0,41,7.6,62.9,17c19.2,8.3,18.6,16.9,19.1,25.7c0.3,5.1-3.3,17.7-17.9,19.9
			c-17.4,2.6-37.9-0.2-64.1-16.9C512.8,693.7,512.8,688.9,512.8,688.9z"/>
		<path id="XMLID_37_" class="st6" d="M550.8,712.4c3.3,1.8,2.5,19.3-5.5,21.7"/>
		<path id="XMLID_38_" class="st6" d="M538.3,711.1c3.4,4.8,1,16.1-5.1,18.9"/>
		<path id="XMLID_40_" class="st6" d="M526.8,707.1c3.4,4.8,1,16.1-5.1,18.9"/>
	</g>
	<line id="XMLID_83_" class="st20" x1="452.8" y1="435.7" x2="452.8" y2="488.9"/>
	<line id="XMLID_84_" class="st20" x1="520.3" y1="435.7" x2="520.3" y2="473.2"/>
	<circle id="XMLID_27_" cx="520.3" cy="476.2" r="8.3"/>
	<circle id="XMLID_86_" class="st21" cx="520.3" cy="475.2" r="3.4"/>
	<g id="XMLID_41_">
		<path id="XMLID_5_" class="st14" d="M487.9,386.2L487.9,386.2c-34.8,0-63.1-28.2-63.1-63.1v-73.2H551v73.2
			C551,357.9,522.8,386.2,487.9,386.2z"/>
		<path id="XMLID_1198_" class="st15" d="M487.9,377.5L487.9,377.5c-34.8,0-63.1-28.2-63.1-63.1v8.7c0,34.8,28.2,63.1,63.1,63.1h0
			c34.8,0,63.1-28.2,63.1-63.1v-8.7C551,349.2,522.8,377.5,487.9,377.5z"/>
		<path id="XMLID_2424_" class="st6" d="M487.9,386.2L487.9,386.2c-34.8,0-63.1-28.2-63.1-63.1v-73.2H551v73.2
			C551,357.9,522.8,386.2,487.9,386.2z"/>
		<path id="XMLID_1197_" class="st15" d="M551.5,257.2c-0.2-3.4-0.4-6.9-0.5-10.3c-42,2-84.2,1.7-126.1-2c-0.3,3.9-0.5,7.8-0.8,11.7
			c1.9,1.7,3.9,3.5,5.8,5.2c1.6,0.8,3.7,1.9,5.6,2.9c8.4,4.4,20.1,10,31.3,12.2c4.1,0.8,8.4,1.2,12.8,1.1
			c18.9-0.2,34.8-7.7,41.5-10.8c1-0.5,1.8-0.9,2.3-1c0.4-0.2,0.8-0.3,1.4-0.3c1.2,0,2.6,0.3,4.3,0.6c2.2,0.5,4.8,1,7.7,0.8
			c3.3-0.2,6.3-1.2,9.2-3.1C547.7,261.8,549.6,259.5,551.5,257.2z"/>
		<path id="XMLID_68_" class="st22" d="M521.1,219.2c0,0-50.5-33.3-92.3,3.9c-7.8,6.9-10.9,16.8-10.9,25.9v48.2h7v-35
			c0-2.6,1.8-4.6,4-4.6h0c3.6,0,23.1,10.4,39.6,13.3c24.9,4.3,47.6-7.2,52.5-8.9c8.4-3,15.2,7.4,25.8-4.3h0.4c2.2,0,4,2.1,4,4.6v35
			h7v-48C558,237.5,544.4,207.9,521.1,219.2z"/>
		<g id="XMLID_2783_" class="st23">
			<rect id="XMLID_2784_" x="417.8" y="290.6" class="st22" width="7" height="6.6"/>
			<rect id="XMLID_2785_" x="551" y="290.6" class="st22" width="7" height="6.6"/>
		</g>
		<path id="XMLID_3_" class="st6" d="M521.1,219.2c0,0-50.5-33.3-92.3,3.9c-7.8,6.9-10.9,16.8-10.9,25.9v48.2h7v-35
			c0-2.6,1.8-4.6,4-4.6h0c3.6,0,23.1,10.4,39.6,13.3c24.9,4.3,47.6-7.2,52.5-8.9c8.4-3,15.2,7.4,25.8-4.3h0.4c2.2,0,4,2.1,4,4.6v35
			h7v-48C558,237.5,544.4,207.9,521.1,219.2z"/>
		<path id="XMLID_6_" class="st6" d="M478.4,251.7c0,0-54.2,3.5-65.7-25.3"/>
		<path id="XMLID_9_" class="st6" d="M486.1,244.8c0,0-52.2-3.3-65.8-32.1"/>
		<path id="XMLID_85_" class="st14" d="M551,289.4v32.8c7,0,12.6-7.3,12.6-16.4v0C563.6,296.7,558,289.4,551,289.4z"/>
		<path id="XMLID_1205_" class="st15" d="M551,291.2v29.1c4.1-2.7,6.9-8.2,6.9-14.6v0C557.9,299.4,555.1,293.9,551,291.2z"/>
		<path id="XMLID_12_" class="st6" d="M551,289.4v32.8c7,0,12.6-7.3,12.6-16.4v0C563.6,296.7,558,289.4,551,289.4z"/>
		<path id="XMLID_87_" class="st14" d="M424.9,289.4v32.8c-7,0-12.6-7.3-12.6-16.4v0C412.2,296.7,417.9,289.4,424.9,289.4z"/>
		<path id="XMLID_1203_" class="st15" d="M424.9,291.8c-3.6,2.9-6.1,8.1-6.1,14v0c0,5.9,2.4,11.1,6.1,14V291.8z"/>
		<path id="XMLID_11_" class="st6" d="M424.9,289.4v32.8c-7,0-12.6-7.3-12.6-16.4v0C412.2,296.7,417.9,289.4,424.9,289.4z"/>
		<path id="XMLID_7_" class="st6" d="M485.3,316.1l-4.2,13.7c0,1.5,4.9,0.3,9.9,1.5"/>
		<path id="XMLID_16_" class="st24" d="M508.9,341.7c1.5,10.4-11.9,19.6-22.4,17.7"/>
		<g id="XMLID_19_">
			<ellipse id="XMLID_14_" class="st25" cx="465.2" cy="300" rx="4.2" ry="4.5"/>
			<ellipse id="XMLID_20_" cx="465.2" cy="300" rx="4.2" ry="4.5"/>
			<path id="XMLID_17_" class="st24" d="M450.7,290.5c2.1-2.5,7-4.2,12.8-4.2c4.6,0,8.6,1.1,11.1,2.8"/>
		</g>
		<g id="XMLID_13_">
			<ellipse id="XMLID_22_" class="st25" cx="511.2" cy="300" rx="4.2" ry="4.5"/>
			<ellipse id="XMLID_21_" cx="511.2" cy="300" rx="4.2" ry="4.5"/>
			<path id="XMLID_18_" class="st24" d="M525.7,290.5c-2.1-2.5-7-4.2-12.8-4.2c-4.6,0-8.6,1.1-11.1,2.8"/>
		</g>
	</g>
</g>
<g id="XMLID_1_" class="st26">
	<path class="st27" d="M318.5,823.5H341v5.9h-15.2v9.3h11.6v5.8h-11.6V860h-7.3V823.5z"/>
	<path class="st27" d="M365.1,823.5c8.8,0,13.2,5.1,13.2,11.2c0,4.4-2.5,8.9-8.3,10.5l8.7,14.8h-8.5l-8-14.2h-3.4V860h-7.3v-36.5
		H365.1z M364.9,829.6h-6.1v10.7h6.1c4.1,0,5.9-2.1,5.9-5.4C370.8,831.6,368.9,829.6,364.9,829.6z"/>
	<path class="st27" d="M411.3,829.4h-13.8v9.1h12.3v5.8h-12.3v9.7h13.8v6h-21.2v-36.5h21.2V829.4z"/>
	<path class="st27" d="M444.3,829.4h-13.8v9.1h12.3v5.8h-12.3v9.7h13.8v6h-21.2v-36.5h21.2V829.4z"/>
	<path class="st27" d="M463.5,823.5v30.7h12v5.8h-19.3v-36.5H463.5z"/>
	<path class="st27" d="M507.7,853.1h-14.5l-2.4,6.9h-7.7l13.1-36.5h8.5l13.1,36.5h-7.7L507.7,853.1z M500.5,832l-5.3,15.3h10.6
		L500.5,832z"/>
	<path class="st27" d="M559.2,823.5V860h-7.3l-16.6-25v25H528v-36.5h7.3l16.6,25.1v-25.1H559.2z"/>
	<path class="st27" d="M588.3,823.1c8.1,0,14.7,4.3,17.1,11.8h-8.4c-1.7-3.5-4.9-5.2-8.8-5.2c-6.4,0-10.9,4.6-10.9,12.1
		c0,7.4,4.5,12.1,10.9,12.1c3.9,0,7.1-1.7,8.8-5.3h8.4c-2.5,7.5-9,11.8-17.1,11.8c-10.5,0-18.5-7.7-18.5-18.6
		C569.8,830.8,577.8,823.1,588.3,823.1z"/>
	<path class="st27" d="M638.1,829.4h-13.8v9.1h12.3v5.8h-12.3v9.7h13.8v6H617v-36.5h21.2V829.4z"/>
	<path class="st27" d="M663.7,823.5c8.8,0,13.2,5.1,13.2,11.2c0,4.4-2.5,8.9-8.3,10.5l8.7,14.8h-8.5l-8-14.2h-3.4V860H650v-36.5
		H663.7z M663.4,829.6h-6.1v10.7h6.1c4.1,0,5.9-2.1,5.9-5.4C669.3,831.6,667.5,829.6,663.4,829.6z"/>
</g>
<g>
	<g>
		<path class="st28" d="M318.5,818.5H341v5.9h-15.2v9.3h11.6v5.8h-11.6V855h-7.3V818.5z"/>
	</g>
	<g>
		<path class="st28" d="M365.1,818.5c8.8,0,13.2,5.1,13.2,11.2c0,4.4-2.5,8.9-8.3,10.5l8.7,14.8h-8.5l-8-14.2h-3.4V855h-7.3v-36.5
			H365.1z M364.9,824.6h-6.1v10.7h6.1c4.1,0,5.9-2.1,5.9-5.4C370.8,826.6,368.9,824.6,364.9,824.6z"/>
	</g>
	<g>
		<path class="st28" d="M411.3,824.4h-13.8v9.1h12.3v5.8h-12.3v9.7h13.8v6h-21.2v-36.5h21.2V824.4z"/>
	</g>
	<g>
		<path class="st28" d="M444.3,824.4h-13.8v9.1h12.3v5.8h-12.3v9.7h13.8v6h-21.2v-36.5h21.2V824.4z"/>
	</g>
	<g>
		<path class="st28" d="M463.5,818.5v30.7h12v5.8h-19.3v-36.5H463.5z"/>
	</g>
	<g>
		<path class="st28" d="M507.7,848.1h-14.5l-2.4,6.9h-7.7l13.1-36.5h8.5l13.1,36.5h-7.7L507.7,848.1z M500.5,827l-5.3,15.3h10.6
			L500.5,827z"/>
	</g>
	<g>
		<path class="st28" d="M559.2,818.5V855h-7.3l-16.6-25v25H528v-36.5h7.3l16.6,25.1v-25.1H559.2z"/>
	</g>
	<g>
		<path class="st28" d="M588.3,818.1c8.1,0,14.7,4.3,17.1,11.8h-8.4c-1.7-3.5-4.9-5.2-8.8-5.2c-6.4,0-10.9,4.6-10.9,12.1
			c0,7.4,4.5,12.1,10.9,12.1c3.9,0,7.1-1.7,8.8-5.3h8.4c-2.5,7.5-9,11.8-17.1,11.8c-10.5,0-18.5-7.7-18.5-18.6
			C569.8,825.8,577.8,818.1,588.3,818.1z"/>
	</g>
	<g>
		<path class="st28" d="M638.1,824.4h-13.8v9.1h12.3v5.8h-12.3v9.7h13.8v6H617v-36.5h21.2V824.4z"/>
	</g>
	<g>
		<path class="st28" d="M663.7,818.5c8.8,0,13.2,5.1,13.2,11.2c0,4.4-2.5,8.9-8.3,10.5l8.7,14.8h-8.5l-8-14.2h-3.4V855H650v-36.5
			H663.7z M663.4,824.6h-6.1v10.7h6.1c4.1,0,5.9-2.1,5.9-5.4C669.3,826.6,667.5,824.6,663.4,824.6z"/>
	</g>
</g>
<g>
	<g>
		<path class="st28" d="M329.6,882.6c0,4.7-3,7.5-8,7.5h-4.5V875h4.5C326.6,875,329.6,877.8,329.6,882.6z M321.6,888.8
			c4.3,0,6.5-2.4,6.5-6.3c0-3.9-2.2-6.3-6.5-6.3h-3v12.6H321.6z"/>
	</g>
	<g>
		<path class="st28" d="M346.8,876.2h-6.4v5.6h5.7v1.3h-5.7v5.7h6.4v1.3h-7.9V875h7.9V876.2z"/>
	</g>
	<g>
		<path class="st28" d="M360.8,890.3c-3,0-5-1.7-5.1-4h1.6c0.1,1.3,1.1,2.8,3.5,2.8c2.1,0,3.3-1.2,3.3-2.8c0-4.5-8.3-1.6-8.3-7.3
			c0-2.3,1.9-4,4.8-4c2.9,0,4.6,1.6,4.9,3.7h-1.6c-0.2-1.1-1.2-2.4-3.3-2.4c-1.8,0-3.2,1-3.2,2.7c0,4.4,8.3,1.7,8.3,7.3
			C365.7,888.2,364,890.3,360.8,890.3z"/>
	</g>
	<g>
		<path class="st28" d="M375.1,875h1.5v15.1h-1.5V875z"/>
	</g>
	<g>
		<path class="st28" d="M400.2,879.4h-1.8c-0.8-1.9-2.7-3.2-5.1-3.2c-3.4,0-5.9,2.4-5.9,6.3c0,3.9,2.6,6.4,5.9,6.4
			c3.2,0,5.5-2.1,5.8-5.6h-6.4v-1.2h8v1.1c-0.2,4-3.2,7.1-7.4,7.1c-4.2,0-7.5-3.2-7.5-7.7c0-4.5,3.2-7.7,7.5-7.7
			C396.6,874.8,399.1,876.5,400.2,879.4z"/>
	</g>
	<g>
		<path class="st28" d="M421.3,875v15.1h-1.5l-8.4-12.7v12.7h-1.5V875h1.5l8.4,12.7V875H421.3z"/>
	</g>
	<g>
		<path class="st28" d="M439.2,876.2h-6.4v5.6h5.7v1.3h-5.7v5.7h6.4v1.3h-7.9V875h7.9V876.2z"/>
	</g>
	<g>
		<path class="st28" d="M453.2,875c3.5,0,5.1,1.9,5.1,4.4c0,2.1-1.2,3.8-3.7,4.3l3.9,6.4h-1.8l-3.7-6.3h-2.8v6.3h-1.5V875H453.2z
			 M453.2,876.3h-3v6.3h3.1c2.5,0,3.6-1.3,3.6-3.2C456.8,877.5,455.7,876.3,453.2,876.3z"/>
	</g>
	<g>
		<path class="st28" d="M487.4,878.1c0-1.4-1-2.1-2.1-2.1c-1.3,0-2.2,0.8-2.2,2c0,1,0.5,1.8,1.6,2.9l5,5c0.3-0.4,0.5-0.8,0.8-1.3
			l1.4-2.3h1.6l-1.6,2.8c-0.4,0.7-0.8,1.3-1.2,1.8l3.2,3.2h-2l-2.1-2.1c-1.5,1.6-3.1,2.4-5.2,2.4c-3.1,0-5.1-1.8-5.1-4.6
			c0-2.1,1.2-3.7,3.6-4.7c-1-1.1-1.4-2-1.4-3.1c0-1.9,1.5-3.2,3.8-3.2c2.2,0,3.7,1.4,3.6,3.4H487.4z M488.7,887l-4.8-4.9
			c-2.1,0.8-3,2-3,3.6c0,1.9,1.5,3.3,3.6,3.3C486.2,889,487.5,888.4,488.7,887z"/>
	</g>
	<g>
		<path class="st28" d="M527.2,882.6c0,4.7-3,7.5-8,7.5h-4.5V875h4.5C524.2,875,527.2,877.8,527.2,882.6z M519.2,888.8
			c4.3,0,6.5-2.4,6.5-6.3c0-3.9-2.2-6.3-6.5-6.3h-3v12.6H519.2z"/>
	</g>
	<g>
		<path class="st28" d="M544.4,876.2H538v5.6h5.7v1.3H538v5.7h6.4v1.3h-7.9V875h7.9V876.2z"/>
	</g>
	<g>
		<path class="st28" d="M564.2,875h1.6l-5.7,15.1h-1.7l-5.7-15.1h1.6l5,13.5L564.2,875z"/>
	</g>
	<g>
		<path class="st28" d="M582.5,876.2h-6.4v5.6h5.7v1.3h-5.7v5.7h6.4v1.3h-7.9V875h7.9V876.2z"/>
	</g>
	<g>
		<path class="st28" d="M593.5,875v13.9h5.4v1.2H592V875H593.5z"/>
	</g>
	<g>
		<path class="st28" d="M614.4,890.3c-4.2,0-7.5-3.2-7.5-7.7c0-4.5,3.2-7.7,7.5-7.7c4.3,0,7.5,3.2,7.5,7.7
			C621.9,887.1,618.6,890.3,614.4,890.3z M614.4,888.9c3.4,0,5.9-2.4,5.9-6.4c0-4-2.6-6.4-5.9-6.4c-3.4,0-5.9,2.4-5.9,6.4
			C608.4,886.5,611,888.9,614.4,888.9z"/>
	</g>
	<g>
		<path class="st28" d="M635.7,883.7h-3.1v6.4h-1.5V875h4.6c3.5,0,5.1,1.9,5.1,4.3C640.8,881.8,639.2,883.7,635.7,883.7z
			 M635.7,882.4c2.6,0,3.5-1.2,3.5-3c0-1.9-1-3.1-3.5-3.1h-3.1v6.1H635.7z"/>
	</g>
	<g>
		<path class="st28" d="M657.7,876.2h-6.4v5.6h5.7v1.3h-5.7v5.7h6.4v1.3h-7.9V875h7.9V876.2z"/>
	</g>
	<g>
		<path class="st28" d="M671.7,875c3.5,0,5.2,1.9,5.2,4.4c0,2.1-1.2,3.8-3.7,4.3l3.9,6.4h-1.8l-3.7-6.3h-2.8v6.3h-1.5V875H671.7z
			 M671.7,876.3h-3v6.3h3.1c2.5,0,3.6-1.3,3.6-3.2C675.3,877.5,674.3,876.3,671.7,876.3z"/>
	</g>
</g>
</svg>
