<?xml version="1.0" encoding="utf-8"?>
<!-- Generator: Adobe Illustrator 23.1.1, SVG Export Plug-In . SVG Version: 6.00 Build 0)  -->
<svg version="1.1" id="Layer_1" xmlns="http://www.w3.org/2000/svg" xmlns:xlink="http://www.w3.org/1999/xlink" x="0px" y="0px"
	 viewBox="0 0 1000 1000" style="enable-background:new 0 0 1000 1000;" xml:space="preserve">
<style type="text/css">
	.st0{fill:#008B87;}
	.st1{fill:#EEF2F4;}
	.st2{fill:#C88D6C;}
	.st3{fill:#B77D5F;}
	.st4{fill:#DBA797;}
	.st5{fill:#D5A284;}
	.st6{fill:#C28467;}
	.st7{fill:none;stroke:#34323A;stroke-width:12;stroke-linecap:round;stroke-linejoin:round;stroke-miterlimit:10;}
	.st8{fill:#593939;}
	.st9{fill:#764F4F;}
	.st10{fill:#B26447;}
	.st11{fill:#C97C5B;}
	.st12{fill:#A5553B;}
	.st13{fill:#AD5E42;}
	.st14{fill:#FFFFFF;}
	.st15{fill:#A7583D;}
	.st16{fill:#34323A;}
	.st17{fill:#C28064;}
	.st18{opacity:0.4;}
	.st19{opacity:0.2;}
	.st20{fill:#B67056;}
	.st21{fill:#403E47;}
	.st22{fill:#FDFDFF;}
</style>
<rect id="XMLID_71_" class="st0" width="1000" height="1000"/>
<g>
	<g>
		<g>
			<path class="st1" d="M63.2,959.2c0,2.5-1.2,3.7-2.6,3.7c-1.1,0-1.9-0.5-2.1-1.4c-0.4,0.5-1,0.8-1.8,0.8c-1.5,0-2.6-1.2-2.6-2.8
				s1.1-2.8,2.6-2.8c0.7,0,1.2,0.3,1.6,0.7v-0.5h1.6v3.9c0,0.8,0.3,1.4,1,1.4c0.9,0,1.7-0.9,1.7-3c0-3-2.3-5.3-5.4-5.3
				c-3.1,0-5.6,2.4-5.6,5.7s2.5,5.7,5.9,5.7c1.1,0,2.1-0.2,2.9-0.4v0.6c-0.8,0.3-1.7,0.4-2.9,0.4c-3.7,0-6.5-2.6-6.5-6.2
				c0-3.4,2.7-6.2,6.2-6.2C61.1,953.3,63.2,956.4,63.2,959.2z M58.3,959.5c0-0.8-0.6-1.4-1.3-1.4c-0.8,0-1.3,0.5-1.3,1.4
				c0,0.8,0.6,1.3,1.3,1.3C57.8,960.9,58.3,960.3,58.3,959.5z"/>
		</g>
		<g>
			<path class="st1" d="M69.4,955.1v2c-1.2-0.1-2.6,0.5-2.6,2.4v4.3h-1.9v-8.6h1.9v1.4C67.3,955.5,68.3,955.1,69.4,955.1z"/>
		</g>
		<g>
			<path class="st1" d="M74.6,962.3c1,0,1.8-0.5,2.2-1.1l1.5,0.9c-0.8,1.2-2.1,1.9-3.8,1.9c-2.8,0-4.7-1.9-4.7-4.5
				c0-2.5,1.8-4.5,4.5-4.5c2.6,0,4.3,2.1,4.3,4.5c0,0.3,0,0.5-0.1,0.8h-6.8C72.1,961.6,73.2,962.3,74.6,962.3z M76.9,958.8
				c-0.3-1.5-1.3-2.1-2.5-2.1c-1.4,0-2.3,0.8-2.6,2.1H76.9z"/>
		</g>
		<g>
			<path class="st1" d="M88.9,955.2v8.6H87v-1.2c-0.7,0.9-1.7,1.5-3,1.5c-2.3,0-4.3-2-4.3-4.5c0-2.6,1.9-4.5,4.3-4.5
				c1.3,0,2.3,0.5,3,1.4v-1.2L88.9,955.2L88.9,955.2z M87.1,959.5c0-1.6-1.2-2.7-2.7-2.7s-2.7,1.1-2.7,2.7c0,1.6,1.2,2.7,2.7,2.7
				C85.9,962.3,87.1,961.1,87.1,959.5z"/>
		</g>
		<g>
			<path class="st1" d="M91.1,951.3H93v12.5h-1.9V951.3z"/>
		</g>
		<g>
			<path class="st1" d="M102.9,955.2l-3.3,8.6h-2.1l-3.3-8.6h2l2.4,6.5l2.4-6.5H102.9z"/>
		</g>
		<g>
			<path class="st1" d="M104.2,955.2h1.9v8.9c0,2.4-1.2,3.5-3.5,3.3v-1.8c1.1,0.1,1.7-0.3,1.7-1.5L104.2,955.2L104.2,955.2z
				 M104,952.8c0-0.7,0.5-1.2,1.2-1.2s1.2,0.5,1.2,1.2c0,0.6-0.5,1.2-1.2,1.2S104,953.4,104,952.8z"/>
		</g>
		<g>
			<path class="st1" d="M116,955.2l-3.3,8.8c-0.8,2.2-2.2,3.3-4.2,3.2v-1.7c1.2,0.1,1.9-0.5,2.3-1.7l0.1-0.2l-3.6-8.4h2l2.6,6.2
				l2.2-6.2L116,955.2L116,955.2z"/>
		</g>
	</g>
	<g>
		<path class="st1" d="M211.9,938.7c0,2.1-1.5,3.8-3.6,3.8h-3v-7.6h3C210.4,934.9,211.9,936.6,211.9,938.7z M210.9,938.7
			c0-1.6-1.1-2.9-2.6-2.9h-2v5.7h2C209.8,941.6,210.9,940.3,210.9,938.7z"/>
		<path class="st1" d="M219.5,940.8h-3.4l-0.6,1.7h-1.1l2.8-7.6h1.1l2.8,7.6H220L219.5,940.8z M219.2,939.9l-1.4-3.8l-1.4,3.8H219.2
			z"/>
		<path class="st1" d="M226.4,939.4v3.1h-1v-3.1l-2.7-4.5h1.1l2.1,3.6l2.1-3.6h1.1L226.4,939.4z"/>
		<path class="st1" d="M242.1,940.4c0,1.4-1.1,2.2-2.6,2.2s-2.6-0.8-2.6-2.2c0-0.8,0.5-1.5,1.2-1.9c-0.6-0.3-0.9-0.9-0.9-1.7
			c0-1.5,1.2-2.2,2.4-2.2s2.4,0.7,2.4,2.2c0,0.8-0.4,1.3-0.9,1.7C241.7,938.9,242.1,939.6,242.1,940.4z M241.1,940.4
			c0-0.9-0.7-1.3-1.6-1.3c-0.9,0-1.6,0.4-1.6,1.3c0,0.9,0.7,1.3,1.6,1.3C240.5,941.7,241.1,941.2,241.1,940.4z M238.2,936.9
			c0,0.8,0.6,1.2,1.4,1.2c0.7,0,1.4-0.4,1.4-1.2s-0.6-1.2-1.4-1.2S238.2,936.1,238.2,936.9z"/>
		<path class="st1" d="M251,941.1h-0.9v1.4h-1v-1.4h-3.9v-0.9l2.7-5.2h1.1l-2.7,5.2h2.8V938h1v2.2h0.9L251,941.1L251,941.1z"/>
	</g>
	<g>
		<path class="st1" d="M58.9,938.7c0,2.1-1.5,3.8-3.6,3.8h-3v-7.6h3C57.4,934.9,58.9,936.6,58.9,938.7z M57.9,938.7
			c0-1.6-1.1-2.9-2.6-2.9h-2v5.7h2C56.8,941.6,57.9,940.3,57.9,938.7z"/>
		<path class="st1" d="M67,941.6v1h-4.6V935h4.5v1h-3.5v2.3h3.2v0.9h-3.2v2.4L67,941.6L67,941.6z"/>
		<path class="st1" d="M70,940.8l0.9-0.5c0.3,0.8,0.9,1.4,2,1.4s1.6-0.5,1.6-1.2c0-0.8-0.7-1-1.8-1.4c-1.2-0.4-2.4-0.8-2.4-2.2
			s1.1-2.2,2.4-2.2s2.2,0.7,2.6,1.7l-0.8,0.5c-0.3-0.7-0.8-1.2-1.7-1.2c-0.8,0-1.4,0.4-1.4,1.1c0,0.7,0.5,1,1.6,1.3
			c1.3,0.4,2.6,0.8,2.6,2.3c0,1.3-1.1,2.2-2.6,2.2C71.5,942.7,70.4,941.9,70,940.8z"/>
		<path class="st1" d="M80,934.9v7.6h-1v-7.6H80z"/>
		<path class="st1" d="M91.3,939.2c0,1.9-1.4,3.5-3.7,3.5c-2.4,0-4-1.8-4-4s1.7-4,4-4c1.4,0,2.7,0.8,3.3,1.8L90,937
			c-0.4-0.8-1.4-1.4-2.4-1.4c-1.8,0-3,1.3-3,3s1.2,3,3,3c1.6,0,2.5-0.9,2.7-2h-2.8v-0.9h3.8V939.2z"/>
		<path class="st1" d="M100.6,934.9v7.6h-0.8l-3.9-5.7v5.7h-1v-7.6h0.8l3.9,5.7v-5.7H100.6z"/>
		<path class="st1" d="M109.1,941.6v1h-4.6V935h4.5v1h-3.5v2.3h3.2v0.9h-3.2v2.4L109.1,941.6L109.1,941.6z"/>
		<path class="st1" d="M119.2,938.7c0,2.1-1.5,3.8-3.6,3.8h-3v-7.6h3C117.6,934.9,119.2,936.6,119.2,938.7z M118.2,938.7
			c0-1.6-1.1-2.9-2.6-2.9h-2v5.7h2C117.1,941.6,118.2,940.3,118.2,938.7z"/>
		<path class="st1" d="M133.2,940.4c0,1.2-1,2.2-2.2,2.2h-3.3V935h3c1.2,0,2.1,0.9,2.1,2.1c0,0.7-0.3,1.2-0.8,1.6
			C132.7,938.9,133.2,939.5,133.2,940.4z M128.7,935.8v2.3h2c0.6,0,1.1-0.5,1.1-1.2c0-0.6-0.5-1.2-1.1-1.2h-2V935.8z M132.2,940.3
			c0-0.7-0.5-1.2-1.2-1.2h-2.3v2.5h2.3C131.7,941.6,132.2,941,132.2,940.3z"/>
		<path class="st1" d="M139.4,939.4v3.1h-1v-3.1l-2.7-4.5h1.1l2.1,3.6l2.1-3.6h1.1L139.4,939.4z"/>
	</g>
	<g>
		<path class="st1" d="M209.9,959.8h-2.4v4.5h-2v-12.4h5c2.2,0,4,1.8,4,4c0,1.6-1,3-2.5,3.6l2.8,4.8h-2.2L209.9,959.8z M207.5,958
			h2.9c1.1,0,1.9-0.9,1.9-2.1c0-1.2-0.9-2.1-1.9-2.1h-2.9V958z"/>
		<path class="st1" d="M220.1,962.8c1.1,0,1.9-0.5,2.3-1.1l1.6,0.9c-0.8,1.2-2.1,1.9-3.9,1.9c-2.9,0-4.8-2-4.8-4.7
			c0-2.6,1.9-4.7,4.7-4.7c2.6,0,4.4,2.1,4.4,4.7c0,0.3,0,0.5-0.1,0.8h-7C217.5,962.1,218.6,962.8,220.1,962.8z M222.4,959.1
			c-0.3-1.5-1.4-2.2-2.5-2.2c-1.4,0-2.4,0.8-2.7,2.2H222.4z"/>
		<path class="st1" d="M225.8,952.9c0-0.7,0.5-1.2,1.2-1.2s1.2,0.5,1.2,1.2s-0.5,1.2-1.2,1.2C226.3,954.1,225.8,953.6,225.8,952.9z
			 M226,955.4h1.9v8.9H226V955.4z"/>
		<path class="st1" d="M238.2,958.9v5.4h-1.9v-5.2c0-1.3-0.8-2.1-2-2.1c-1.3,0-2.2,0.7-2.2,2.5v4.7h-1.9v-8.9h1.9v1.1
			c0.6-0.9,1.5-1.4,2.7-1.4C236.8,955.2,238.2,956.6,238.2,958.9z"/>
		<path class="st1" d="M249.2,951.9v12.4h-1.9V963c-0.7,0.9-1.7,1.5-3.1,1.5c-2.4,0-4.4-2-4.4-4.7c0-2.6,2-4.7,4.4-4.7
			c1.4,0,2.4,0.6,3.1,1.5v-4.8h1.9V951.9z M247.3,959.9c0-1.6-1.2-2.8-2.8-2.8s-2.8,1.2-2.8,2.8s1.2,2.8,2.8,2.8
			S247.3,961.5,247.3,959.9z"/>
		<path class="st1" d="M255.8,962.8c1.1,0,1.9-0.5,2.3-1.1l1.6,0.9c-0.8,1.2-2.1,1.9-3.9,1.9c-2.9,0-4.8-2-4.8-4.7
			c0-2.6,1.9-4.7,4.7-4.7c2.6,0,4.4,2.1,4.4,4.7c0,0.3,0,0.5-0.1,0.8h-7C253.2,962.1,254.3,962.8,255.8,962.8z M258.1,959.1
			c-0.3-1.5-1.4-2.2-2.5-2.2c-1.4,0-2.4,0.8-2.7,2.2H258.1z"/>
		<path class="st1" d="M266,962.8c1.1,0,1.9-0.5,2.3-1.1l1.6,0.9c-0.8,1.2-2.1,1.9-3.9,1.9c-2.9,0-4.8-2-4.8-4.7
			c0-2.6,1.9-4.7,4.7-4.7c2.6,0,4.4,2.1,4.4,4.7c0,0.3,0,0.5-0.1,0.8h-7C263.5,962.1,264.6,962.8,266,962.8z M268.4,959.1
			c-0.3-1.5-1.4-2.2-2.5-2.2c-1.4,0-2.4,0.8-2.7,2.2H268.4z"/>
		<path class="st1" d="M276.6,955.3v2.1c-1.3-0.1-2.7,0.5-2.7,2.5v4.5H272v-8.9h1.9v1.5C274.4,955.7,275.5,955.3,276.6,955.3z"/>
	</g>
	<g>
		<g>
			<g>
				<path class="st1" d="M846.1,938.7c0,2.1-1.5,3.8-3.6,3.8h-3v-7.6h3C844.6,934.9,846.1,936.6,846.1,938.7z M845.2,938.7
					c0-1.6-1.1-2.9-2.6-2.9h-2v5.7h2C844.1,941.6,845.2,940.3,845.2,938.7z"/>
			</g>
			<g>
				<path class="st1" d="M849.3,938.7c0-2.2,1.7-4,3.9-4s4,1.8,4,4s-1.7,4-4,4C851,942.7,849.3,940.9,849.3,938.7z M856.1,938.7
					c0-1.7-1.3-3-2.9-3c-1.7,0-2.9,1.3-2.9,3s1.3,3,2.9,3C854.9,941.7,856.1,940.4,856.1,938.7z"/>
			</g>
			<g>
				<path class="st1" d="M859.8,934.9h1.1l1.7,6.3l1.9-6.3h1l1.9,6.3l1.7-6.3h1.1l-2.2,7.6h-1.2l-1.8-6.1l-1.8,6.1H862L859.8,934.9z
					"/>
			</g>
			<g>
				<path class="st1" d="M879.3,934.9v7.6h-0.8l-3.9-5.7v5.7h-1v-7.6h0.8l3.9,5.7v-5.7H879.3z"/>
			</g>
			<g>
				<path class="st1" d="M887.5,941.6v1h-4.3V935h1v6.7h3.3V941.6z"/>
			</g>
			<g>
				<path class="st1" d="M889.9,938.7c0-2.2,1.7-4,3.9-4s4,1.8,4,4s-1.7,4-4,4C891.6,942.7,889.9,940.9,889.9,938.7z M896.8,938.7
					c0-1.7-1.3-3-2.9-3c-1.7,0-2.9,1.3-2.9,3s1.3,3,2.9,3S896.8,940.4,896.8,938.7z"/>
			</g>
			<g>
				<path class="st1" d="M905.4,940.8H902l-0.6,1.7h-1.1l2.8-7.6h1.1l2.8,7.6h-1L905.4,940.8z M905.1,939.9l-1.4-3.8l-1.4,3.8H905.1
					z"/>
			</g>
			<g>
				<path class="st1" d="M916.9,938.7c0,2.1-1.5,3.8-3.6,3.8h-3v-7.6h3C915.4,934.9,916.9,936.6,916.9,938.7z M915.9,938.7
					c0-1.6-1.1-2.9-2.6-2.9h-2v5.7h2C914.9,941.6,915.9,940.3,915.9,938.7z"/>
			</g>
			<g>
				<path class="st1" d="M926.5,935.8v2.5h3.2v1h-3.2v3.2h-1v-7.6h4.4v1h-3.4V935.8z"/>
			</g>
			<g>
				<path class="st1" d="M936.2,939.6h-1.8v2.9h-1v-7.6h3c1.3,0,2.4,1.1,2.4,2.4c0,1-0.7,1.9-1.6,2.2l1.8,3.1h-1.1L936.2,939.6z
					 M934.4,938.7h2c0.8,0,1.4-0.6,1.4-1.4c0-0.8-0.6-1.4-1.4-1.4h-2V938.7z"/>
			</g>
			<g>
				<path class="st1" d="M941.9,938.7c0-2.2,1.7-4,3.9-4s4,1.8,4,4s-1.7,4-4,4C943.6,942.7,941.9,940.9,941.9,938.7z M948.8,938.7
					c0-1.7-1.3-3-2.9-3c-1.7,0-2.9,1.3-2.9,3s1.3,3,2.9,3S948.8,940.4,948.8,938.7z"/>
			</g>
			<g>
				<path class="st1" d="M960.4,942.5h-1v-6l-2.5,4.2h-0.1l-2.5-4.1v5.9h-1v-7.6h1.1l2.4,4l2.4-4h1.1L960.4,942.5L960.4,942.5z"/>
			</g>
		</g>
		<g>
			<g>
				<path class="st1" d="M839.3,952.9c0-0.7,0.5-1.2,1.2-1.2s1.2,0.5,1.2,1.2s-0.5,1.2-1.2,1.2C839.9,954.1,839.3,953.6,839.3,952.9
					z M839.6,955.4h1.9v8.9h-1.9V955.4z"/>
			</g>
			<g>
				<path class="st1" d="M843.7,951.4h1.9v12.9h-1.9V951.4z"/>
			</g>
			<g>
				<path class="st1" d="M847.8,951.4h1.9v12.9h-1.9V951.4z"/>
			</g>
			<g>
				<path class="st1" d="M852,951.4h1.9v12.9H852V951.4z"/>
			</g>
			<g>
				<path class="st1" d="M864,955.4v8.9h-1.9v-1.1c-0.6,0.9-1.5,1.4-2.7,1.4c-2,0-3.4-1.3-3.4-3.6v-5.4h1.9v5.2c0,1.3,0.8,2.1,2,2.1
					c1.3,0,2.2-0.7,2.2-2.5v-4.7h1.9V955.4z"/>
			</g>
			<g>
				<path class="st1" d="M872.6,961.8c0,1.8-1.5,2.7-3.5,2.7c-1.8,0-3-0.8-3.6-2.1l1.6-1c0.3,0.8,1,1.3,2,1.3c0.8,0,1.5-0.3,1.5-1
					c0-1.6-4.8-0.7-4.8-3.9c0-1.7,1.4-2.7,3.2-2.7c1.5,0,2.7,0.7,3.3,1.8l-1.6,0.9c-0.3-0.7-0.9-1-1.7-1c-0.7,0-1.3,0.3-1.3,0.9
					C867.9,959.5,872.6,958.5,872.6,961.8z"/>
			</g>
			<g>
				<path class="st1" d="M876.7,957.3v4.2c0,1.1,0.7,1.1,2.2,1v1.7c-2.9,0.4-4.1-0.5-4.1-2.8v-4.2h-1.6v-1.8h1.6v-1.9l1.9-0.6v2.5
					h2.2v1.8L876.7,957.3L876.7,957.3z"/>
			</g>
			<g>
				<path class="st1" d="M885.4,955.3v2.1c-1.3-0.1-2.7,0.5-2.7,2.5v4.5h-1.9v-8.9h1.9v1.5C883.2,955.7,884.2,955.3,885.4,955.3z"/>
			</g>
			<g>
				<path class="st1" d="M895.3,955.4v8.9h-1.9V963c-0.7,0.9-1.7,1.5-3.1,1.5c-2.4,0-4.4-2-4.4-4.7c0-2.6,2-4.7,4.4-4.7
					c1.4,0,2.4,0.6,3.1,1.5v-1.3h1.9V955.4z M893.4,959.9c0-1.6-1.2-2.8-2.8-2.8s-2.8,1.2-2.8,2.8s1.2,2.8,2.8,2.8
					S893.4,961.5,893.4,959.9z"/>
			</g>
			<g>
				<path class="st1" d="M900.3,957.3v4.2c0,1.1,0.7,1.1,2.2,1v1.7c-2.9,0.4-4.1-0.5-4.1-2.8v-4.2h-1.6v-1.8h1.6v-1.9l1.9-0.6v2.5
					h2.2v1.8L900.3,957.3L900.3,957.3z"/>
			</g>
			<g>
				<path class="st1" d="M903.9,952.9c0-0.7,0.5-1.2,1.2-1.2s1.2,0.5,1.2,1.2s-0.5,1.2-1.2,1.2C904.5,954.1,903.9,953.6,903.9,952.9
					z M904.2,955.4h1.9v8.9h-1.9V955.4z"/>
			</g>
			<g>
				<path class="st1" d="M907.8,959.9c0-2.6,2.1-4.7,4.7-4.7c2.6,0,4.7,2,4.7,4.7c0,2.6-2.1,4.7-4.7,4.7
					C909.9,964.5,907.8,962.5,907.8,959.9z M915.3,959.9c0-1.6-1.2-2.8-2.8-2.8s-2.8,1.2-2.8,2.8s1.2,2.8,2.8,2.8
					S915.3,961.5,915.3,959.9z"/>
			</g>
			<g>
				<path class="st1" d="M927,958.9v5.4h-1.9v-5.2c0-1.3-0.8-2.1-2-2.1c-1.3,0-2.2,0.7-2.2,2.5v4.7H919v-8.9h1.9v1.1
					c0.6-0.9,1.5-1.4,2.7-1.4C925.5,955.2,927,956.6,927,958.9z"/>
			</g>
			<g>
				<path class="st1" d="M935.5,961.8c0,1.8-1.5,2.7-3.5,2.7c-1.8,0-3-0.8-3.6-2.1l1.6-1c0.3,0.8,1,1.3,2,1.3c0.8,0,1.5-0.3,1.5-1
					c0-1.6-4.8-0.7-4.8-3.9c0-1.7,1.4-2.7,3.2-2.7c1.5,0,2.7,0.7,3.3,1.8l-1.6,0.9c-0.3-0.7-0.9-1-1.7-1c-0.7,0-1.3,0.3-1.3,0.9
					C930.7,959.5,935.5,958.5,935.5,961.8z"/>
			</g>
			<g>
				<path class="st1" d="M936.8,963.2c0-0.7,0.6-1.3,1.3-1.3s1.3,0.6,1.3,1.3s-0.6,1.3-1.3,1.3C937.4,964.5,936.8,963.9,936.8,963.2
					z"/>
			</g>
			<g>
				<path class="st1" d="M940.3,959.9c0-2.6,2-4.7,4.7-4.7c1.7,0,3.2,0.9,3.9,2.3l-1.6,1c-0.4-0.8-1.3-1.4-2.3-1.4
					c-1.6,0-2.7,1.2-2.7,2.8s1.2,2.8,2.7,2.8c1.1,0,1.9-0.5,2.4-1.4l1.6,0.9c-0.7,1.4-2.2,2.3-4,2.3
					C942.3,964.5,940.3,962.5,940.3,959.9z"/>
			</g>
			<g>
				<path class="st1" d="M949.7,959.9c0-2.6,2.1-4.7,4.7-4.7c2.6,0,4.7,2,4.7,4.7c0,2.6-2.1,4.7-4.7,4.7
					C951.8,964.5,949.7,962.5,949.7,959.9z M957.2,959.9c0-1.6-1.2-2.8-2.8-2.8s-2.8,1.2-2.8,2.8s1.2,2.8,2.8,2.8
					S957.2,961.5,957.2,959.9z"/>
			</g>
		</g>
	</g>
</g>
<g id="XMLID_1_">
	<path id="XMLID_38_" class="st2" d="M627.6,478.4c4.1,14.1,5.2,31.5,41.5,76.9c74.2,92.9,69.2,166.8,60,191.7
		c-5.8-9.7-7.4-16.3-19.9-32.7c9.2,30.7,1.8,75-23.7,101l-4.1-25.7c-9,46.1-34.5,62.7-48.2,76.7c0-12.8-5.8-30.5-5.7-30.5
		c-7.2,25.5-39,59.5-61.6,68.8c3.9-9.2,2.3-34-11.6-41.7c0,8.1-10.7,51.8-50.1,67.6c-39.5-15.8-50.1-59.6-50.1-67.6
		c-13.9,7.6-15.5,32.5-11.6,41.7c-22.6-9.3-54.5-43.3-61.6-68.8c0.1,0-5.7,17.6-5.7,30.5c-13.7-14-39.2-30.5-48.2-76.7l-4.1,25.7
		c-25.4-26-32.9-70.2-23.7-101c-12.5,16.3-14.1,23-19.9,32.7c-9.2-24.8-14.2-98.8,60-191.7c36.3-45.4,37.3-62.8,41.5-76.9H627.6z"/>
	<g id="XMLID_101_">
		<path id="XMLID_103_" class="st3" d="M357.2,544.9c26.8-34.5,34.4-53.2,38.2-66.5h-14.6c-4.1,14.1-5.2,31.5-41.5,76.9
			c-74.2,92.9-69.2,166.8-60,191.7c4.7-7.8,6.7-13.6,13.7-24.1C288.8,687.8,296.7,622.9,357.2,544.9z"/>
		<path id="XMLID_104_" class="st4" d="M699.3,785.7c-1.3,6.8-3,13-4.9,18.7c2.3-3.3,4.3-6.7,6.2-10.3
			C699.9,789.5,699.3,785.7,699.3,785.7z"/>
		<path id="XMLID_105_" class="st4" d="M734.1,718.5c-1.9-2.9-4.2-6.3-7-10.1c2.9,10.1,4.2,21.5,3.7,33.3
			C732.4,735.7,733.7,727.9,734.1,718.5z"/>
	</g>
	<g id="XMLID_46_">
		<path id="XMLID_47_" class="st3" d="M285.7,670.1c-3.8,5-6.6,9-8.8,12.6c-5.3,30.2-1.9,52.7,2.4,64.4c3-5.1,4.9-9.3,7.9-14.5
			C280.6,711.4,280.2,688.4,285.7,670.1z"/>
		<path id="XMLID_58_" class="st3" d="M717.3,635c6.2,31.9,2.7,55.6-1.8,67.7c-5.8-9.7-7.4-16.3-19.9-32.7c9.2,30.7,1.8,75-23.7,101
			l-4.1-25.7c-9,46.1-34.5,62.7-48.2,76.7c0-12.8-5.8-30.5-5.7-30.5c-7.2,25.5-39,59.5-61.6,68.8c3.9-9.2,2.3-34-11.6-41.7
			c0,8.1-10.7,51.8-50.1,67.6c-39.5-15.8-50.1-59.6-50.1-67.6c-13.9,7.6-15.5,32.5-11.6,41.7c-22.6-9.3-54.5-43.3-61.6-68.8
			c0.1,0-5.7,17.6-5.7,30.5c-13.7-14-39.2-30.5-48.2-76.7l-4.1,25.7c-5.2-5.3-9.7-11.4-13.4-18c2.2,22.7,11,46.1,26.9,62.3l4.1-25.7
			c9,46.1,34.5,62.7,48.2,76.7c0-12.8,5.8-30.5,5.7-30.5c7.2,25.5,39,59.5,61.6,68.8c-3.9-9.2-2.3-34,11.6-41.7
			c0,8.1,10.7,51.8,50.1,67.6c39.5-15.8,50.1-59.6,50.1-67.6c13.9,7.6,15.5,32.5,11.6,41.7c22.6-9.3,54.5-43.3,61.6-68.8
			c-0.1,0,5.7,17.6,5.7,30.5c13.7-14,39.2-30.5,48.2-76.7l4.1,25.7c25.4-26,32.9-70.2,23.7-101c12.5,16.3,14.1,23,19.9,32.7
			C735.4,729.9,739.8,689.2,717.3,635z"/>
	</g>
	<g id="XMLID_41_">
		<path id="XMLID_43_" class="st5" d="M580.7,439.6c3.2,9-4-8.2,21.4,21.1c56.1,64.8,68.2,161.8,64.3,184.7
			c-5.1-9.2-6.9-15.5-17.2-30.3c9.3,28.1,8.2,71.8-8.2,96.5l-5.3-26c-2.9,46.6-21,62-30.7,75.8c-0.9-13.6-6.5-32-6.4-32
			c-3.9,26.1-27.2,60.1-44.9,69c2.8-9.7,0.7-36.1-10.4-44.3c0.2,8.5-7.2,54.1-39.2,71.3c-32-17.1-39.4-62.8-39.2-71.3
			c-11.1,8.2-13.2,34.6-10.4,44.3c-17.8-8.9-41-42.9-44.9-69c0.1,0-5.5,18.4-6.4,32c-9.6-13.8-27.8-29.3-30.7-75.8
			c0,0-5.2,25.9-5.3,26c-16.5-24.8-17.6-68.5-8.2-96.5c-10.3,14.8-12.1,21-17.2,30.3c-4-22.9,7.7-119.9,63.8-184.7
			c25.4-29.3,18.8-12.1,21.9-21.1C478.6,445,529.8,445,580.7,439.6z"/>
	</g>
	<path id="XMLID_50_" class="st6" d="M632.7,490.3c-0.3-1.3-4.8-10.7-5.1-11.9l-234.3,4c-0.4,1.4-0.7,2.7-1.1,4.2
		c3.4,5.7,6.8,11.2,9.8,16.5c11.9,21,19.6,44,22.3,67.3c-8.2,14.6-12.9,31.5-12.9,49.3c0,29.1,12.4,55.4,32.3,74.1
		c9.7,37,38.7,63.9,73,63.9c34.5,0,63.6-27.1,73.2-64.4c19.6-18.7,31.8-44.8,31.8-73.7c0-17.7-4.6-34.4-12.7-49
		c2.6-23.2,9.7-46.1,21.6-66.9C633.8,498.2,629.1,496.5,632.7,490.3z"/>
	<path id="XMLID_2_" class="st7" d="M627.6,478.4c4.1,14.1,5.2,31.5,41.5,76.9c74.2,92.9,69.2,166.8,60,191.7
		c-5.8-9.7-7.4-16.3-19.9-32.7c9.2,30.7,1.8,75-23.7,101l-4.1-25.7c-9,46.1-34.5,62.7-48.2,76.7c0-12.8-5.8-30.5-5.7-30.5
		c-7.2,25.5-39,59.5-61.6,68.8c3.9-9.2,2.3-34-11.6-41.7c0,8.1-10.7,51.8-50.1,67.6c-39.5-15.8-50.1-59.6-50.1-67.6
		c-13.9,7.6-15.5,32.5-11.6,41.7c-22.6-9.3-54.5-43.3-61.6-68.8c0.1,0-5.7,17.6-5.7,30.5c-13.7-14-39.2-30.5-48.2-76.7l-4.1,25.7
		c-25.4-26-32.9-70.2-23.7-101c-12.5,16.3-14.1,23-19.9,32.7c-9.2-24.8-14.2-98.8,60-191.7c36.3-45.4,37.3-62.8,41.5-76.9H627.6z"/>
	<path id="XMLID_40_" class="st8" d="M564.6,350.5c0,0-36.4-66.5-34.1-92.5c2.3-26,23.8-26.2,22.7-13.6c-3.9,44.6,21.1,3.6,28.4,6.8
		c13.7,6.2-10.7,26.9-11.5,36.2c-1.6,18.6,6.4,17.3,21.5,4.7c12.4-10.5,37-30.5,29.9-89.2c-16.9-42.7,23.3-63.5,29.4-47.1
		c6.1,16.4,7.7,72.6-7.9,101.3c56.1-9.2,94.4-50.8,99.1-105.6c-3.9-30.7,32.2-36.6,37-9.5c1.9,11-21.3,71.5-59.2,103.4
		c-37.9,31.8,31.5,6.1,40.1,16.3c23.6,28-50.6,48.1-88.2,10.5c-39.3,21-80.7,44.2-100.3,96.8C558.4,367.7,564.6,350.5,564.6,350.5z"
		/>
	<g id="XMLID_77_">
		<path id="XMLID_78_" class="st9" d="M591.5,291.9c-3.1,2.6-5.8,4.7-8.3,6.2c2.5,6.2,9.7,3,20.7-6.2c12.4-10.5,37-30.5,29.9-89.2
			c-10.9-27.4,1.8-45.8,13.9-51.1c-11-7.7-41.4,13-26.3,51.1C628.5,261.4,603.9,281.5,591.5,291.9z"/>
		<path id="XMLID_79_" class="st9" d="M656.8,253.9c-0.5,1.1-1,2.1-1.5,3.1c56.1-9.2,94.4-50.8,99.1-105.6
			c-1.8-13.9,4.6-22.7,12.6-25.7c-11.9-4.6-27.7,4.8-25,25.7C737.6,201.5,705.2,240.5,656.8,253.9z"/>
		<path id="XMLID_80_" class="st9" d="M754.9,259.4c-7.4-1.2-20.6,1-31,2C729.8,262.8,743.4,260.3,754.9,259.4z"/>
		<path id="XMLID_81_" class="st9" d="M577,350.5c0,0-36.4-66.5-34.1-92.5c0.9-10,4.6-16.2,8.8-19.3c-4.8-5.9-19.3-1.8-21.2,19.3
			c-2.3,26,34.1,92.5,34.1,92.5s-6.2,17.3,6.8,18.4c1.3-3.5,2.7-6.8,4.1-10C575.5,354.6,577,350.5,577,350.5z"/>
		<path id="XMLID_82_" class="st9" d="M585.5,255.3c-0.5-1.7-1.7-3.1-3.9-4.2c-3.1-1.4-9.5,5.3-15.5,10
			C569,270.7,578.1,261.4,585.5,255.3z"/>
		<path id="XMLID_83_" class="st9" d="M684.1,272c-2.6,1.4-5.2,2.8-7.8,4.2c16.1,13.2,37.1,17.6,54.6,16.2
			C714.6,291.2,697.1,285.1,684.1,272z"/>
	</g>
	<path id="XMLID_23_" class="st7" d="M564.6,350.5c0,0-36.4-66.5-34.1-92.5c2.3-26,23.8-26.2,22.7-13.6c-3.9,44.6,21.1,3.6,28.4,6.8
		c13.7,6.2-10.7,26.9-11.5,36.2c-1.6,18.6,6.4,17.3,21.5,4.7c12.4-10.5,37-30.5,29.9-89.2c-16.9-42.7,23.3-63.5,29.4-47.1
		c6.1,16.4,7.7,72.6-7.9,101.3c56.1-9.2,94.4-50.8,99.1-105.6c-3.9-30.7,32.2-36.6,37-9.5c1.9,11-21.3,71.5-59.2,103.4
		c-37.9,31.8,31.5,6.1,40.1,16.3c23.6,28-50.6,48.1-88.2,10.5c-39.3,21-80.7,44.2-100.3,96.8C558.4,367.7,564.6,350.5,564.6,350.5z"
		/>
	<g id="XMLID_55_">
		<g id="XMLID_5_">
			<path id="XMLID_33_" class="st10" d="M607.9,437.8c0,0,1,0.2,2.7,0.5C610.2,440.6,607.9,437.8,607.9,437.8z"/>
			<path id="XMLID_32_" class="st10" d="M807.4,348.5c21.5,21.5-32.1,50.3-63.1,64.2c-46.6,20.9-88.3-4.5-133.6,25.5
				c0.4-2.2-0.8-9.2-7.2-27.9C661.9,349.9,763.4,304.5,807.4,348.5z"/>
		</g>
		<g id="XMLID_51_">
			<path id="XMLID_54_" class="st10" d="M607.9,437.8c0,0,1,0.2,2.7,0.5C610.2,440.6,607.9,437.8,607.9,437.8z"/>
			<path id="XMLID_53_" class="st10" d="M807.4,348.5c21.5,21.5-32.1,50.3-63.1,64.2c-46.6,20.9-88.3-4.5-133.6,25.5
				c0.4-2.2-0.8-9.2-7.2-27.9C661.9,349.9,763.4,304.5,807.4,348.5z"/>
			<path id="XMLID_88_" class="st10" d="M807.4,348.5c21.5,21.5-32.1,50.3-63.1,64.2c-46.6,20.9-88.3-4.5-133.6,25.5
				c0.4-2.2-0.8-9.2-7.2-27.9C661.9,349.9,763.4,304.5,807.4,348.5z"/>
			<path id="XMLID_92_" class="st11" d="M807.4,348.5c-35.6-35.6-108.5-12.8-166.1,29C725.7,332,767,340.1,785,353
				c12.6,9.1,11.3,28.7-4,40.6C803.6,379.5,821.4,362.5,807.4,348.5z"/>
			<path id="XMLID_95_" class="st12" d="M689.8,409.2c-45.5-6.2-37.4-31.8-22.3-46.9c-21.1,6.3-52.1,35.7-64.1,48.1
				c6.4,18.7,7.7,25.7,7.2,27.9c39.6-26.2,83.7-10.1,123.6-19.6C723.7,416.5,704.6,411.2,689.8,409.2z"/>
		</g>
		<g id="XMLID_25_">
			<path id="XMLID_26_" class="st7" d="M607.9,437.8c0,0,1,0.2,2.7,0.5C610.2,440.6,607.9,437.8,607.9,437.8z"/>
			<path id="XMLID_27_" class="st7" d="M807.4,348.5c21.5,21.5-32.1,50.3-63.1,64.2c-46.6,20.9-88.3-4.5-133.6,25.5
				c0.4-2.2-0.8-9.2-7.2-27.9C661.9,349.9,763.4,304.5,807.4,348.5z"/>
		</g>
	</g>
	<g id="XMLID_29_">
		<g id="XMLID_60_">
			<path id="XMLID_62_" class="st10" d="M400.4,437.8c0,0-1,0.2-2.7,0.5C398.2,440.6,400.4,437.8,400.4,437.8z"/>
			<path id="XMLID_61_" class="st10" d="M201,348.5c-21.5,21.5,32.1,50.3,63.1,64.2c46.6,20.9,88.3-4.5,133.6,25.5
				c-0.4-2.2,0.8-9.2,7.2-27.9C346.4,349.9,245,304.5,201,348.5z"/>
		</g>
		<g id="XMLID_37_">
			<path id="XMLID_59_" class="st10" d="M400.4,437.8c0,0-1,0.2-2.7,0.5C398.2,440.6,400.4,437.8,400.4,437.8z"/>
			<path id="XMLID_57_" class="st10" d="M201,348.5c-21.5,21.5,32.1,50.3,63.1,64.2c46.6,20.9,88.3-4.5,133.6,25.5
				c-0.4-2.2,0.8-9.2,7.2-27.9C346.4,349.9,245,304.5,201,348.5z"/>
		</g>
		<g id="XMLID_68_">
			<path id="XMLID_84_" class="st10" d="M400.4,437.8c0,0-1,0.2-2.7,0.5C398.2,440.6,400.4,437.8,400.4,437.8z"/>
			<path id="XMLID_69_" class="st10" d="M201,348.5c-21.5,21.5,32.1,50.3,63.1,64.2c46.6,20.9,88.3-4.5,133.6,25.5
				c-0.4-2.2,0.8-9.2,7.2-27.9C346.4,349.9,245,304.5,201,348.5z"/>
		</g>
		<g id="XMLID_85_">
			<path id="XMLID_87_" class="st10" d="M400.4,437.8c0,0-1,0.2-2.7,0.5C398.2,440.6,400.4,437.8,400.4,437.8z"/>
			<path id="XMLID_86_" class="st10" d="M201,348.5c-21.5,21.5,32.1,50.3,63.1,64.2c46.6,20.9,88.3-4.5,133.6,25.5
				c-0.4-2.2,0.8-9.2,7.2-27.9C346.4,349.9,245,304.5,201,348.5z"/>
			<path id="XMLID_91_" class="st11" d="M215,359c16.8-16.8,75.7-14.9,106.8-8.6C272,331,224.3,325.2,201,348.5
				c-21.5,21.5,32.1,50.3,63.1,64.2c1.6,0.7,3.2,1.4,4.8,2C239.1,398.7,204.8,369.2,215,359z"/>
			<path id="XMLID_93_" class="st12" d="M297.5,343.5c20.5,11.5,47.6,26.9,52,54.5c1.6,10.2,0.7,17.8-4.1,24.4
				c17.2,0.8,34.5,4.1,52.4,15.9c-0.4-2.2,0.8-9.2,7.2-27.9C388.5,393.4,329.5,350.5,297.5,343.5z"/>
		</g>
		<g id="XMLID_30_">
			<path id="XMLID_36_" class="st7" d="M400.4,437.8c0,0-1,0.2-2.7,0.5C398.2,440.6,400.4,437.8,400.4,437.8z"/>
			<path id="XMLID_35_" class="st7" d="M201,348.5c-21.5,21.5,32.1,50.3,63.1,64.2c46.6,20.9,88.3-4.5,133.6,25.5
				c-0.4-2.2,0.8-9.2,7.2-27.9C346.4,349.9,245,304.5,201,348.5z"/>
		</g>
	</g>
	<path id="XMLID_39_" class="st8" d="M435.4,350.5c0,0,28.2-60.6,28.3-86.7c0.1-45.9-17.9-32-16.9-19.5c3.9,44.6-21.1,3.6-28.4,6.8
		c-13.7,6.2,12.9,31.3,12.9,40.6c0,4.9-3.7,29.8-17.1,25.6c-15.5-4.8-38.6-34.7-35.4-56.6c7.4-55.1-31.6-82.4-37-78.5
		c-13.3,9.9,42.1,86.5,4.6,73.2c-19.9-7-51.2-53.5-60.1-68.4c-23.2-38.9-36.2-52.6-60-58.6c-62,14.9,113.2,126.3,76.1,143.2
		c-13.2,6-46.5-25.8-65.2-7c-11.8,11.8,50.1,51.7,94.2,24.2c5.4-3.4,80.8,43.1,86,91.2C418.8,393.1,435.4,350.5,435.4,350.5z"/>
	<g id="XMLID_70_">
		<path id="XMLID_72_" class="st9" d="M443.4,270.2c-7-1-18.4-16.1-22.9-14.1c-3.8,1.7-4.5,4.9-3.5,8.8
			C424.9,267.6,441.6,291.5,443.4,270.2z"/>
		<path id="XMLID_73_" class="st9" d="M375.1,274.5c-3.1,21.8,19.9,51.7,35.4,56.6c7,2.2,11.3-3.5,13.9-10.1
			c-2.2,1.7-4.9,2.4-8.1,1.4c-15.5-4.8-38.6-34.7-35.4-56.6c7.4-55.1-31.6-82.4-37-78.5c-2.1,1.5-2.5,4.7-1.8,8.9
			C353.3,200.1,381.5,227,375.1,274.5z"/>
		<path id="XMLID_74_" class="st9" d="M222.6,142.2c23.8,6,36.8,19.8,60,58.6c8.9,14.9,40.3,61.4,60.1,68.4
			c10.8,3.8,13.9,0.2,13.1-7.2c-1.9,0-4.3-0.5-7.4-1.5c-19.9-7-51.2-53.5-60.1-68.4c-23.2-38.9-36.2-52.6-60-58.6
			c-8.8,2.1-12.8,6.2-13.3,11.7C217,143.9,219.5,142.9,222.6,142.2z"/>
		<path id="XMLID_75_" class="st9" d="M449,246.1c4.9-1.8,11.1,4.5,11,31.4c-0.1,26.1-28.3,86.7-28.3,86.7s-5.3,13.5-10.2,23
			c4.9-3.5,15.9-31.7,15.9-31.7s28.2-60.6,28.3-86.7C465.8,226.8,450.7,234.8,449,246.1z"/>
		<path id="XMLID_76_" class="st9" d="M298.7,285.4c4-1.8,5.5-4.7,5.2-8.5c-13.5,4.9-46.2-25.7-64.7-7.2c-1.4,1.4-1.8,3.2-1.2,5.3
			C257.2,264.3,286.5,291,298.7,285.4z"/>
	</g>
	<path id="XMLID_31_" class="st7" d="M435.4,350.5c0,0,28.2-60.6,28.3-86.7c0.1-45.9-17.9-32-16.9-19.5c3.9,44.6-21.1,3.6-28.4,6.8
		c-13.7,6.2,12.9,31.3,12.9,40.6c0,4.9-3.7,29.8-17.1,25.6c-15.5-4.8-38.6-34.7-35.4-56.6c7.4-55.1-31.6-82.4-37-78.5
		c-13.3,9.9,42.1,86.5,4.6,73.2c-19.9-7-51.2-53.5-60.1-68.4c-23.2-38.9-36.2-52.6-60-58.6c-62,14.9,113.2,126.3,76.1,143.2
		c-13.2,6-46.5-25.8-65.2-7c-11.8,11.8,50.1,51.7,94.2,24.2c5.4-3.4,80.8,43.1,86,91.2C418.8,393.1,435.4,350.5,435.4,350.5z"/>
	<g id="XMLID_28_">
		<path id="XMLID_48_" class="st7" d="M503.3,332c-67,0.5-128.3,53.8-124.3,125c1.2,22.1,16.7,42.5,26.8,59.9
			c10.8,18.6,17.5,39,19.5,59.6c-7,11.4-11,24.4-11,38.3c0,27.2,15.3,49,38.7,61.8c0,0.6-0.1,1.1-0.1,1.7c0,21.7,23,39.4,51.3,39.4
			c28.3,0,51.3-17.6,51.3-39.4c0-0.6,0-1.1-0.1-1.7c23.4-12.8,38.7-34.6,38.7-61.8c0-13.7-3.9-26.7-10.8-37.9
			c1.9-20.5,8.1-40.9,18.9-59.3c10.6-18,26.2-39.2,27.2-62.3C632.5,383.6,570.7,331.4,503.3,332z"/>
		<path id="XMLID_24_" class="st10" d="M629.4,455.2c3.1-71.6-58.7-123.8-126.1-123.2c-67,0.5-128.3,53.8-124.3,125
			c1.2,22.1,16.7,42.5,26.8,59.9c14.4,24.8,21.6,52.7,19.8,80.2c-0.2,2.9-0.2,15.2-0.1,18.2c1.7,43.1,36.3,68,77.7,68.6
			c42.7,0.6,78.6-25,79.8-69.4c0.1-2.3,0-13.9-0.1-16.2c-1.4-27.6,4.8-55.9,19.4-80.7C612.8,499.5,628.4,478.2,629.4,455.2z"/>
		<path id="XMLID_7_" class="st7" d="M629.4,455.2c3.1-71.6-58.7-123.8-126.1-123.2c-67,0.5-128.3,53.8-124.3,125
			c1.2,22.1,16.7,42.5,26.8,59.9c14.4,24.8,21.6,52.7,19.8,80.2c-0.2,2.9-0.2,15.2-0.1,18.2c1.7,43.1,36.3,68,77.7,68.6
			c42.7,0.6,78.6-25,79.8-69.4c0.1-2.3,0-13.9-0.1-16.2c-1.4-27.6,4.8-55.9,19.4-80.7C612.8,499.5,628.4,478.2,629.4,455.2z"/>
	</g>
	<g id="XMLID_45_">
		<path id="XMLID_63_" class="st7" d="M503.3,332c-67,0.5-128.3,53.8-124.3,125c1.2,22.1,16.7,42.5,26.8,59.9
			c10.8,18.6,17.5,39,19.5,59.6c-7,11.4-11,24.4-11,38.3c0,27.2,15.3,49,38.7,61.8c0,0.6-0.1,1.1-0.1,1.7c0,21.7,23,39.4,51.3,39.4
			c28.3,0,51.3-17.6,51.3-39.4c0-0.6,0-1.1-0.1-1.7c23.4-12.8,38.7-34.6,38.7-61.8c0-13.7-3.9-26.7-10.8-37.9
			c1.9-20.5,8.1-40.9,18.9-59.3c10.6-18,26.2-39.2,27.2-62.3C632.5,383.6,570.7,331.4,503.3,332z"/>
		<path id="XMLID_56_" class="st10" d="M629.4,455.2c3.1-71.6-58.7-123.8-126.1-123.2c-67,0.5-128.3,53.8-124.3,125
			c1.2,22.1,16.7,42.5,26.8,59.9c14.4,24.8,21.6,52.7,19.8,80.2c-0.2,2.9-0.2,15.2-0.1,18.2c1.7,43.1,36.3,68,77.7,68.6
			c42.7,0.6,78.6-25,79.8-69.4c0.1-2.3,0-13.9-0.1-16.2c-1.4-27.6,4.8-55.9,19.4-80.7C612.8,499.5,628.4,478.2,629.4,455.2z"/>
		<path id="XMLID_109_" class="st13" d="M582.9,614.3c0.1-2.3,0-13.9-0.1-16.2c-1.4-27.6,4.8-55.9,19.4-80.7
			c10.6-18,26.2-39.2,27.2-62.3c3.1-71.6-58.7-123.8-126.1-123.2c-2.7,0-5.4,0.1-8,0.3c13,29.6,33.9,52.3,38.7,105.9
			c4.2,46.4-37.1,185.9-37.1,204.1s-3.2,46,23.8,38.5c2.8-0.8,7.1-1.2,12.5-1.3C561.5,670.5,582,647.7,582.9,614.3z"/>
		<path id="XMLID_90_" class="st12" d="M503.3,332c-2.7,0-5.5,0.1-8.2,0.3c63.3,4.5,108.2,66.7,108.2,121.8c0,23-9.1,45.3-19.6,63.3
			c-14.6,24.8-20.8,53.1-19.4,80.7c0.1,2.3,0.1,13.9,0.1,16.2c-1.2,40.7-31.3,65.6-69.3,69c2.6,0.2,5.2,0.4,7.9,0.4
			c42.7,0.6,78.6-25,79.8-69.4c0.1-2.3,0-13.9-0.1-16.2c-1.4-27.6,4.8-55.9,19.4-80.7c10.6-18,26.2-39.2,27.2-62.3
			C632.5,383.6,570.7,331.4,503.3,332z"/>
		<path id="XMLID_52_" class="st7" d="M629.4,455.2c3.1-71.6-58.7-123.8-126.1-123.2c-67,0.5-128.3,53.8-124.3,125
			c1.2,22.1,16.7,42.5,26.8,59.9c14.4,24.8,21.6,52.7,19.8,80.2c-0.2,2.9-0.2,15.2-0.1,18.2c1.7,43.1,36.3,68,77.7,68.6
			c42.7,0.6,78.6-25,79.8-69.4c0.1-2.3,0-13.9-0.1-16.2c-1.4-27.6,4.8-55.9,19.4-80.7C612.8,499.5,628.4,478.2,629.4,455.2z"/>
	</g>
	<g id="XMLID_64_">
		<path id="XMLID_67_" class="st7" d="M503.3,332c-67,0.5-128.3,53.8-124.3,125c1.2,22.1,16.7,42.5,26.8,59.9
			c10.8,18.6,17.5,39,19.5,59.6c-7,11.4-11,24.4-11,38.3c0,27.2,15.3,49,38.7,61.8c0,0.6-0.1,1.1-0.1,1.7c0,21.7,23,39.4,51.3,39.4
			c28.3,0,51.3-17.6,51.3-39.4c0-0.6,0-1.1-0.1-1.7c23.4-12.8,38.7-34.6,38.7-61.8c0-13.7-3.9-26.7-10.8-37.9
			c1.9-20.5,8.1-40.9,18.9-59.3c10.6-18,26.2-39.2,27.2-62.3C632.5,383.6,570.7,331.4,503.3,332z"/>
		<path id="XMLID_94_" class="st11" d="M562.5,345.6c-18-8.9-38.3-13.8-59.2-13.6c-67,0.5-128.3,53.8-124.3,125
			c1.2,22.1,16.7,42.5,26.8,59.9c11.2,19.3,18,40.5,19.7,61.9l4.5,4.4c0,0-7.2-13.3-2.8-19.2c14.5-19.5-42.3-81.4-23.7-149.2
			c1.9-7,32.6-75,106.9-79.1c19.3-1.1,12.8,2,12.8,2C522.5,336,563.2,347.2,562.5,345.6z"/>
		<path id="XMLID_65_" class="st7" d="M629.4,455.2c3.1-71.6-58.7-123.8-126.1-123.2c-67,0.5-128.3,53.8-124.3,125
			c1.2,22.1,16.7,42.5,26.8,59.9c14.4,24.8,21.6,52.7,19.8,80.2c-0.2,2.9-0.2,15.2-0.1,18.2c1.7,43.1,36.3,68,77.7,68.6
			c42.7,0.6,78.6-25,79.8-69.4c0.1-2.3,0-13.9-0.1-16.2c-1.4-27.6,4.8-55.9,19.4-80.7C612.8,499.5,628.4,478.2,629.4,455.2z"/>
	</g>
	<ellipse id="XMLID_22_" class="st14" cx="504.2" cy="678.2" rx="51.3" ry="39.4"/>
	<ellipse id="XMLID_3_" class="st10" cx="504.2" cy="678.2" rx="51.3" ry="39.4"/>
	<path id="XMLID_106_" class="st15" d="M529.9,644.1c5,6.1,7.9,13.3,7.9,21c0,21.7-23,39.4-51.3,39.4c-9.4,0-18.2-1.9-25.7-5.3
		c9.1,11,25.1,18.4,43.4,18.4c28.3,0,51.3-17.6,51.3-39.4C555.5,663.6,545.2,650.9,529.9,644.1z"/>
	<ellipse id="XMLID_21_" class="st7" cx="504.2" cy="678.2" rx="51.3" ry="39.4"/>
	<g id="XMLID_10_">
		<g id="XMLID_12_">
			<ellipse id="XMLID_14_" class="st16" cx="555.5" cy="478.4" rx="16.8" ry="24.3"/>
			<ellipse id="XMLID_13_" class="st14" cx="562.1" cy="472.1" rx="4.6" ry="6.3"/>
		</g>
		<path id="XMLID_11_" class="st16" d="M549.6,415.4c-8.6,2.9-15.6,7.5-18.2,12.4c-0.8,1.5-1.9,5.2,0,5.9c5.6,2.2,5.9-4.3,21.9-6.2
			c11.7-1.4,20.5,4.2,24.9,0.9c2-1.5,3.1-4.6,2.1-7.3C576.8,412,560.3,411.8,549.6,415.4z"/>
	</g>
	<g id="XMLID_4_">
		<g id="XMLID_8_">
			<ellipse id="XMLID_16_" class="st16" cx="452.9" cy="478.4" rx="16.8" ry="24.3"/>
			<ellipse id="XMLID_9_" class="st14" cx="446.3" cy="472.1" rx="4.6" ry="6.3"/>
		</g>
		<path id="XMLID_6_" class="st16" d="M458.8,415.4c8.6,2.9,15.6,7.5,18.2,12.4c0.8,1.5,1.9,5.2,0,5.9c-5.6,2.2-5.9-4.3-21.9-6.2
			c-11.7-1.4-20.5,4.2-24.9,0.9c-2-1.5-3.1-4.6-2.1-7.3C431.6,412,448,411.8,458.8,415.4z"/>
	</g>
	<path id="XMLID_19_" class="st17" d="M504.2,534.9c-49.7,0-89.9,35.7-89.9,79.8c0,35,25.4,61.2,60.7,70.5
		c13.8,3.6,27.6-2.2,29.2-16.3l0,0l0,0c1.6,14.2,15.4,20,29.2,16.3c35.3-9.3,60.7-35.5,60.7-70.5
		C594.1,570.6,553.8,534.9,504.2,534.9z"/>
	<path id="XMLID_44_" class="st17" d="M504.2,534.9c-49.7,0-89.9,35.7-89.9,79.8c0,35,25.4,61.2,60.7,70.5
		c13.8,3.6,27.6-2.2,29.2-16.3l0,0l0,0c1.6,14.2,15.4,20,29.2,16.3c35.3-9.3,60.7-35.5,60.7-70.5
		C594.1,570.6,553.8,534.9,504.2,534.9z"/>
	<path id="XMLID_66_" class="st17" d="M504.2,534.9c-49.7,0-89.9,35.7-89.9,79.8c0,35,25.4,61.2,60.7,70.5
		c13.8,3.6,27.6-2.2,29.2-16.3l0,0l0,0c1.6,14.2,15.4,20,29.2,16.3c35.3-9.3,60.7-35.5,60.7-70.5
		C594.1,570.6,553.8,534.9,504.2,534.9z"/>
	<g id="XMLID_97_" class="st18">
		<path id="XMLID_99_" class="st10" d="M488.4,685.2c-35.3-9.3-60.7-35.5-60.7-70.5c0-42.1,36.7-76.5,83.2-79.6
			c-2.2-0.1-4.5-0.2-6.7-0.2c-49.7,0-89.9,35.7-89.9,79.8c0,35,25.4,61.2,60.7,70.5c5,1.3,10.1,1.4,14.5,0.3
			C489.1,685.3,488.7,685.3,488.4,685.2z"/>
	</g>
	<g id="XMLID_96_" class="st19">
		<path id="XMLID_98_" class="st20" d="M504.2,534.9c-4.4,0-8.8,0.3-13.1,0.8c43.5,5.6,87,36.4,83.3,84.3
			c-3.1,39.4-28.8,52.6-60.8,63.2c5.5,3.1,12.7,3.8,19.9,1.9c35.3-9.3,60.7-35.5,60.7-70.5C594.1,570.6,553.8,534.9,504.2,534.9z"/>
	</g>
	<path id="XMLID_18_" class="st7" d="M504.2,534.9c-49.7,0-89.9,35.7-89.9,79.8c0,35,25.4,61.2,60.7,70.5
		c13.8,3.6,27.6-2.2,29.2-16.3l0,0l0,0c1.6,14.2,15.4,20,29.2,16.3c35.3-9.3,60.7-35.5,60.7-70.5
		C594.1,570.6,553.8,534.9,504.2,534.9z"/>
	<line id="XMLID_15_" class="st7" x1="504.2" y1="668.8" x2="504.2" y2="629.5"/>
	<g id="XMLID_17_">
		<ellipse id="XMLID_20_" class="st16" cx="504.2" cy="603.3" rx="57.9" ry="39.4"/>
		<ellipse id="XMLID_34_" class="st7" cx="504.2" cy="603.3" rx="57.9" ry="39.4"/>
		<ellipse id="XMLID_49_" class="st21" cx="504.2" cy="594.1" rx="46.2" ry="30.2"/>
		<ellipse id="XMLID_42_" class="st22" cx="496.9" cy="583.1" rx="26.2" ry="11"/>
	</g>
</g>
<path id="XMLID_100_" class="st7" d="M655.2,408c0,0,62.2-32.9,99.6-39.1"/>
<path id="XMLID_102_" class="st7" d="M263,374c0,0,62,10,102,34"/>
</svg>
