<?xml version="1.0" encoding="utf-8"?>
<!-- Generator: Adobe Illustrator 23.1.1, SVG Export Plug-In . SVG Version: 6.00 Build 0)  -->
<svg version="1.1" id="Layer_1" xmlns="http://www.w3.org/2000/svg" xmlns:xlink="http://www.w3.org/1999/xlink" x="0px" y="0px"
	 viewBox="0 0 1000 1000" style="enable-background:new 0 0 1000 1000;" xml:space="preserve">
<style type="text/css">
	.st0{fill:#FFF2DC;}
	.st1{fill:#AD5349;}
	.st2{opacity:0.55;}
	.st3{fill:none;stroke:#474747;stroke-width:6;stroke-linecap:round;stroke-linejoin:round;stroke-miterlimit:10;}
	.st4{fill:none;stroke:#333333;stroke-width:10;stroke-linecap:round;stroke-linejoin:round;stroke-miterlimit:10;}
	.st5{fill:none;stroke:#333333;stroke-width:6;stroke-linecap:round;stroke-linejoin:round;stroke-miterlimit:10;}
	.st6{fill:none;stroke:#333333;stroke-width:8;stroke-linecap:round;stroke-linejoin:round;stroke-miterlimit:10;}
	.st7{fill:none;stroke:#333333;stroke-width:5;stroke-linecap:round;stroke-linejoin:round;stroke-miterlimit:10;}
	.st8{fill:#333333;}
	.st9{fill:none;stroke:#333333;stroke-width:4;stroke-linecap:round;stroke-linejoin:round;stroke-miterlimit:10;}
	.st10{fill:none;stroke:#43293A;stroke-width:10;stroke-linecap:round;stroke-linejoin:round;stroke-miterlimit:10;}
	.st11{fill:#FFE5CC;}
	.st12{fill:none;stroke:#43293A;stroke-width:8;stroke-linecap:round;stroke-linejoin:round;stroke-miterlimit:10;}
	.st13{fill:#FF8345;}
	.st14{opacity:0.48;fill:#AD5349;stroke:#AD5349;stroke-width:10;stroke-miterlimit:10;}
	.st15{fill:#FFFFFF;}
	.st16{fill:none;stroke:#43293A;stroke-width:4;stroke-linecap:round;stroke-linejoin:round;stroke-miterlimit:10;}
	.st17{opacity:0.48;fill:#AD5349;}
	.st18{fill:#933B34;}
	.st19{opacity:0.45;fill:#FF8345;}
	
		.st20{fill:none;stroke:#43293A;stroke-width:3;stroke-linecap:round;stroke-linejoin:round;stroke-miterlimit:10;stroke-dasharray:5,7;}
	.st21{fill:#EDAB7A;}
	.st22{opacity:0.84;fill:#EDAB7A;}
	
		.st23{fill:none;stroke:#43293A;stroke-width:4;stroke-linecap:round;stroke-linejoin:round;stroke-miterlimit:10;stroke-dasharray:7,9;}
	.st24{opacity:0.55;fill:#FF8345;}
	.st25{fill:none;stroke:#43293A;stroke-width:4;stroke-linecap:round;stroke-linejoin:round;stroke-dasharray:7.01,9.0129;}
	.st26{fill:#43293A;}
	.st27{opacity:0.78;fill:#EDAB7A;}
	.st28{fill:#F7CFB5;}
	.st29{opacity:0.75;fill:#F7CFB5;}
	.st30{fill:none;stroke:#43293A;stroke-width:5;stroke-linecap:round;stroke-linejoin:round;stroke-miterlimit:10;}
	.st31{fill:none;stroke:#43293A;stroke-width:3;stroke-linecap:round;stroke-linejoin:round;stroke-miterlimit:10;}
</style>
<rect id="XMLID_25_" class="st0" width="1000" height="1000"/>
<g>
	<g>
		<g>
			<path class="st1" d="M63.2,959.2c0,2.5-1.2,3.7-2.6,3.7c-1.1,0-1.9-0.5-2.1-1.4c-0.4,0.5-1,0.8-1.8,0.8c-1.5,0-2.6-1.2-2.6-2.8
				c0-1.6,1.1-2.8,2.6-2.8c0.7,0,1.2,0.3,1.6,0.7v-0.5h1.6v3.9c0,0.8,0.3,1.4,1,1.4c0.9,0,1.7-0.9,1.7-3c0-3-2.3-5.3-5.4-5.3
				c-3.1,0-5.6,2.4-5.6,5.7c0,3.3,2.5,5.7,5.9,5.7c1.1,0,2.1-0.2,2.9-0.4v0.6c-0.8,0.3-1.7,0.4-2.9,0.4c-3.7,0-6.5-2.6-6.5-6.2
				c0-3.4,2.7-6.2,6.2-6.2C61.1,953.3,63.2,956.4,63.2,959.2z M58.3,959.5c0-0.8-0.6-1.4-1.3-1.4c-0.8,0-1.3,0.5-1.3,1.4
				c0,0.8,0.6,1.3,1.3,1.3C57.8,960.9,58.3,960.3,58.3,959.5z"/>
		</g>
		<g>
			<path class="st1" d="M69.4,955.1v2c-1.2-0.1-2.6,0.5-2.6,2.4v4.3h-1.9v-8.6h1.9v1.4C67.3,955.5,68.3,955.1,69.4,955.1z"/>
		</g>
		<g>
			<path class="st1" d="M74.6,962.3c1,0,1.8-0.5,2.2-1.1l1.5,0.9c-0.8,1.2-2.1,1.9-3.8,1.9c-2.8,0-4.7-1.9-4.7-4.5
				c0-2.5,1.8-4.5,4.5-4.5c2.6,0,4.3,2.1,4.3,4.5c0,0.3,0,0.5-0.1,0.8h-6.8C72.1,961.6,73.2,962.3,74.6,962.3z M76.9,958.8
				c-0.3-1.5-1.3-2.1-2.5-2.1c-1.4,0-2.3,0.8-2.6,2.1H76.9z"/>
		</g>
		<g>
			<path class="st1" d="M88.9,955.2v8.6h-1.9v-1.2c-0.7,0.9-1.7,1.5-3,1.5c-2.3,0-4.3-2-4.3-4.5c0-2.6,1.9-4.5,4.3-4.5
				c1.3,0,2.3,0.5,3,1.4v-1.2H88.9z M87.1,959.5c0-1.6-1.2-2.7-2.7-2.7c-1.5,0-2.7,1.1-2.7,2.7c0,1.6,1.2,2.7,2.7,2.7
				C85.9,962.3,87.1,961.1,87.1,959.5z"/>
		</g>
		<g>
			<path class="st1" d="M91.1,951.3H93v12.5h-1.9V951.3z"/>
		</g>
		<g>
			<path class="st1" d="M102.9,955.2l-3.3,8.6h-2.1l-3.3-8.6h2l2.4,6.5l2.4-6.5H102.9z"/>
		</g>
		<g>
			<path class="st1" d="M104.2,955.2h1.9v8.9c0,2.4-1.2,3.5-3.5,3.3v-1.8c1.1,0.1,1.7-0.3,1.7-1.5V955.2z M104,952.8
				c0-0.7,0.5-1.2,1.2-1.2c0.7,0,1.2,0.5,1.2,1.2c0,0.6-0.5,1.2-1.2,1.2C104.5,954,104,953.4,104,952.8z"/>
		</g>
		<g>
			<path class="st1" d="M116,955.2l-3.3,8.8c-0.8,2.2-2.2,3.3-4.2,3.2v-1.7c1.2,0.1,1.9-0.5,2.3-1.7l0.1-0.2l-3.6-8.4h2l2.6,6.2
				l2.2-6.2H116z"/>
		</g>
	</g>
	<g>
		<path class="st1" d="M211.9,938.7c0,2.1-1.5,3.8-3.6,3.8h-3v-7.6h3C210.4,934.9,211.9,936.6,211.9,938.7z M210.9,938.7
			c0-1.6-1.1-2.9-2.6-2.9h-2v5.7h2C209.8,941.6,210.9,940.3,210.9,938.7z"/>
		<path class="st1" d="M219.5,940.8h-3.4l-0.6,1.7h-1.1l2.8-7.6h1.1l2.8,7.6h-1.1L219.5,940.8z M219.2,939.9l-1.4-3.8l-1.4,3.8
			H219.2z"/>
		<path class="st1" d="M226.4,939.4v3.1h-1v-3.1l-2.7-4.5h1.1l2.1,3.6l2.1-3.6h1.1L226.4,939.4z"/>
		<path class="st1" d="M242.1,940.1c0,1.5-1.1,2.6-2.6,2.6c-1.5,0-2.6-1.1-2.6-2.6c0-0.6,0.2-1.1,0.5-1.5l2.5-3.7h1.2l-1.8,2.7
			c0.1,0,0.2,0,0.4,0C241,937.5,242.1,938.6,242.1,940.1z M241.1,940.1c0-1-0.7-1.6-1.6-1.6c-1,0-1.6,0.6-1.6,1.6s0.7,1.6,1.6,1.6
			C240.4,941.7,241.1,941,241.1,940.1z"/>
		<path class="st1" d="M244.9,941.7l2.7-2.7c0.6-0.6,1.1-1.2,1.1-1.9c0-0.9-0.6-1.4-1.4-1.4c-0.7,0-1.2,0.3-1.6,1l-0.8-0.5
			c0.5-1,1.4-1.5,2.4-1.5c1.2,0,2.4,0.8,2.4,2.3c0,0.9-0.6,1.8-1.4,2.5l-2,1.9h3.5v1h-4.9V941.7z"/>
	</g>
	<g>
		<path class="st1" d="M58.9,938.7c0,2.1-1.5,3.8-3.6,3.8h-3v-7.6h3C57.4,934.9,58.9,936.6,58.9,938.7z M57.9,938.7
			c0-1.6-1.1-2.9-2.6-2.9h-2v5.7h2C56.8,941.6,57.9,940.3,57.9,938.7z"/>
		<path class="st1" d="M67,941.6v1h-4.6v-7.6h4.5v1h-3.5v2.3h3.2v0.9h-3.2v2.4H67z"/>
		<path class="st1" d="M70,940.8l0.9-0.5c0.3,0.8,0.9,1.4,2,1.4c1.1,0,1.6-0.5,1.6-1.2c0-0.8-0.7-1-1.8-1.4
			c-1.2-0.4-2.4-0.8-2.4-2.2c0-1.4,1.1-2.2,2.4-2.2c1.3,0,2.2,0.7,2.6,1.7l-0.8,0.5c-0.3-0.7-0.8-1.2-1.7-1.2
			c-0.8,0-1.4,0.4-1.4,1.1c0,0.7,0.5,1,1.6,1.3c1.3,0.4,2.6,0.8,2.6,2.3c0,1.3-1.1,2.2-2.6,2.2C71.5,942.7,70.4,941.9,70,940.8z"/>
		<path class="st1" d="M80,934.9v7.6h-1v-7.6H80z"/>
		<path class="st1" d="M91.3,939.2c0,1.9-1.4,3.5-3.7,3.5c-2.4,0-4-1.8-4-4c0-2.2,1.7-4,4-4c1.4,0,2.7,0.8,3.3,1.8l-0.9,0.5
			c-0.4-0.8-1.4-1.4-2.4-1.4c-1.8,0-3,1.3-3,3c0,1.7,1.2,3,3,3c1.6,0,2.5-0.9,2.7-2h-2.8v-0.9h3.8V939.2z"/>
		<path class="st1" d="M100.6,934.9v7.6h-0.8l-3.9-5.7v5.7h-1v-7.6h0.8l3.9,5.7v-5.7H100.6z"/>
		<path class="st1" d="M109.1,941.6v1h-4.6v-7.6h4.5v1h-3.5v2.3h3.2v0.9h-3.2v2.4H109.1z"/>
		<path class="st1" d="M119.2,938.7c0,2.1-1.5,3.8-3.6,3.8h-3v-7.6h3C117.6,934.9,119.2,936.6,119.2,938.7z M118.2,938.7
			c0-1.6-1.1-2.9-2.6-2.9h-2v5.7h2C117.1,941.6,118.2,940.3,118.2,938.7z"/>
		<path class="st1" d="M133.2,940.4c0,1.2-1,2.2-2.2,2.2h-3.3v-7.6h3c1.2,0,2.1,0.9,2.1,2.1c0,0.7-0.3,1.2-0.8,1.6
			C132.7,938.9,133.2,939.5,133.2,940.4z M128.7,935.8v2.3h2c0.6,0,1.1-0.5,1.1-1.2c0-0.6-0.5-1.2-1.1-1.2H128.7z M132.2,940.3
			c0-0.7-0.5-1.2-1.2-1.2h-2.3v2.5h2.3C131.7,941.6,132.2,941,132.2,940.3z"/>
		<path class="st1" d="M139.4,939.4v3.1h-1v-3.1l-2.7-4.5h1.1l2.1,3.6l2.1-3.6h1.1L139.4,939.4z"/>
	</g>
	<g>
		<path class="st1" d="M204.8,958.1c0-3.6,2.8-6.4,6.4-6.4c3.6,0,6.4,2.8,6.4,6.4c0,3.6-2.8,6.4-6.4,6.4
			C207.7,964.5,204.8,961.7,204.8,958.1z M215.6,958.1c0-2.5-1.9-4.4-4.4-4.4c-2.5,0-4.4,1.9-4.4,4.4s1.9,4.4,4.4,4.4
			C213.7,962.5,215.6,960.6,215.6,958.1z"/>
		<path class="st1" d="M231.7,964.3h-1.9v-7h-2.9v7h-1.9v-7h-3v7h-1.9v-7h-1.3v-1.8h1.3v-0.2c0-2.4,1.3-3.8,4-3.6v1.8
			c-1.3-0.1-2.1,0.4-2.1,1.8v0.2h3v-0.4c0-2.4,1.3-3.6,4-3.6c0.6,0,1.3,0.1,2,0.2v1.8c-0.7-0.1-1.3-0.1-2-0.1
			c-1.3,0-2.1,0.4-2.1,1.8v0.4h4.9V964.3z"/>
		<path class="st1" d="M233.4,959.9c0-2.6,2-4.7,4.7-4.7c1.7,0,3.2,0.9,3.9,2.3l-1.6,1c-0.4-0.8-1.3-1.4-2.3-1.4
			c-1.6,0-2.7,1.2-2.7,2.8c0,1.6,1.2,2.8,2.7,2.8c1.1,0,1.9-0.5,2.4-1.4l1.6,0.9c-0.7,1.4-2.2,2.3-4,2.3
			C235.4,964.5,233.4,962.5,233.4,959.9z"/>
		<path class="st1" d="M247.6,962.8c1.1,0,1.9-0.5,2.3-1.1l1.6,0.9c-0.8,1.2-2.1,1.9-3.9,1.9c-2.9,0-4.8-2-4.8-4.7
			c0-2.6,1.9-4.7,4.7-4.7c2.6,0,4.4,2.1,4.4,4.7c0,0.3,0,0.5-0.1,0.8h-7C245.1,962.1,246.2,962.8,247.6,962.8z M250,959.1
			c-0.3-1.5-1.4-2.2-2.5-2.2c-1.4,0-2.4,0.8-2.7,2.2H250z"/>
		<path class="st1" d="M267.2,960.8c0,2.1-1.7,3.5-3.7,3.5h-5.3v-12.4h4.9c2,0,3.6,1.5,3.6,3.4c0,1.1-0.5,2-1.3,2.5
			C266.5,958.4,267.2,959.4,267.2,960.8z M260.2,953.8v3.3h2.9c0.9,0,1.6-0.7,1.6-1.6c0-0.9-0.7-1.6-1.6-1.6H260.2z M265.2,960.6
			c0-1-0.7-1.7-1.7-1.7h-3.3v3.5h3.3C264.4,962.4,265.2,961.6,265.2,960.6z"/>
		<path class="st1" d="M277.9,955.4v8.9h-1.9V963c-0.7,0.9-1.7,1.5-3.1,1.5c-2.4,0-4.4-2-4.4-4.7c0-2.6,2-4.7,4.4-4.7
			c1.4,0,2.4,0.6,3.1,1.5v-1.3H277.9z M275.9,959.9c0-1.6-1.2-2.8-2.8-2.8c-1.6,0-2.8,1.2-2.8,2.8c0,1.6,1.2,2.8,2.8,2.8
			C274.7,962.7,275.9,961.5,275.9,959.9z"/>
		<path class="st1" d="M289,955.4v8.4c0,2.8-2.2,4.2-4.5,4.2c-1.9,0-3.5-0.7-4.2-2.1l1.6-1c0.4,0.8,1,1.4,2.6,1.4
			c1.6,0,2.6-0.9,2.6-2.4v-1.1c-0.7,1-1.7,1.5-3.1,1.5c-2.5,0-4.5-2-4.5-4.6s2-4.6,4.5-4.6c1.4,0,2.4,0.6,3.1,1.5v-1.3H289z
			 M287.1,959.8c0-1.6-1.2-2.8-2.8-2.8c-1.6,0-2.8,1.2-2.8,2.8s1.2,2.8,2.8,2.8C285.9,962.6,287.1,961.4,287.1,959.8z"/>
	</g>
	<g>
		<g>
			<g>
				<path class="st1" d="M846.1,938.7c0,2.1-1.5,3.8-3.6,3.8h-3v-7.6h3C844.6,934.9,846.1,936.6,846.1,938.7z M845.2,938.7
					c0-1.6-1.1-2.9-2.6-2.9h-2v5.7h2C844.1,941.6,845.2,940.3,845.2,938.7z"/>
			</g>
			<g>
				<path class="st1" d="M849.3,938.7c0-2.2,1.7-4,3.9-4c2.2,0,4,1.8,4,4c0,2.2-1.7,4-4,4C851,942.7,849.3,940.9,849.3,938.7z
					 M856.1,938.7c0-1.7-1.3-3-2.9-3c-1.7,0-2.9,1.3-2.9,3c0,1.7,1.3,3,2.9,3C854.9,941.7,856.1,940.4,856.1,938.7z"/>
			</g>
			<g>
				<path class="st1" d="M859.8,934.9h1.1l1.7,6.3l1.9-6.3h1l1.9,6.3l1.7-6.3h1.1l-2.2,7.6h-1.2l-1.8-6.1l-1.8,6.1H862L859.8,934.9z
					"/>
			</g>
			<g>
				<path class="st1" d="M879.3,934.9v7.6h-0.8l-3.9-5.7v5.7h-1v-7.6h0.8l3.9,5.7v-5.7H879.3z"/>
			</g>
			<g>
				<path class="st1" d="M887.5,941.6v1h-4.3v-7.6h1v6.7H887.5z"/>
			</g>
			<g>
				<path class="st1" d="M889.9,938.7c0-2.2,1.7-4,3.9-4c2.2,0,4,1.8,4,4c0,2.2-1.7,4-4,4C891.6,942.7,889.9,940.9,889.9,938.7z
					 M896.8,938.7c0-1.7-1.3-3-2.9-3c-1.7,0-2.9,1.3-2.9,3c0,1.7,1.3,3,2.9,3C895.5,941.7,896.8,940.4,896.8,938.7z"/>
			</g>
			<g>
				<path class="st1" d="M905.4,940.8H902l-0.6,1.7h-1.1l2.8-7.6h1.1l2.8,7.6H906L905.4,940.8z M905.1,939.9l-1.4-3.8l-1.4,3.8
					H905.1z"/>
			</g>
			<g>
				<path class="st1" d="M916.9,938.7c0,2.1-1.5,3.8-3.6,3.8h-3v-7.6h3C915.4,934.9,916.9,936.6,916.9,938.7z M915.9,938.7
					c0-1.6-1.1-2.9-2.6-2.9h-2v5.7h2C914.9,941.6,915.9,940.3,915.9,938.7z"/>
			</g>
			<g>
				<path class="st1" d="M926.5,935.8v2.5h3.2v1h-3.2v3.2h-1v-7.6h4.4v1H926.5z"/>
			</g>
			<g>
				<path class="st1" d="M936.2,939.6h-1.8v2.9h-1v-7.6h3c1.3,0,2.4,1.1,2.4,2.4c0,1-0.7,1.9-1.6,2.2l1.8,3.1h-1.1L936.2,939.6z
					 M934.4,938.7h2c0.8,0,1.4-0.6,1.4-1.4c0-0.8-0.6-1.4-1.4-1.4h-2V938.7z"/>
			</g>
			<g>
				<path class="st1" d="M941.9,938.7c0-2.2,1.7-4,3.9-4c2.2,0,4,1.8,4,4c0,2.2-1.7,4-4,4C943.6,942.7,941.9,940.9,941.9,938.7z
					 M948.8,938.7c0-1.7-1.3-3-2.9-3c-1.7,0-2.9,1.3-2.9,3c0,1.7,1.3,3,2.9,3C947.5,941.7,948.8,940.4,948.8,938.7z"/>
			</g>
			<g>
				<path class="st1" d="M960.4,942.5h-1v-6l-2.5,4.2h-0.1l-2.5-4.1v5.9h-1v-7.6h1.1l2.4,4l2.4-4h1.1V942.5z"/>
			</g>
		</g>
		<g>
			<g>
				<path class="st1" d="M839.3,952.9c0-0.7,0.5-1.2,1.2-1.2c0.7,0,1.2,0.5,1.2,1.2c0,0.7-0.5,1.2-1.2,1.2
					C839.9,954.1,839.3,953.6,839.3,952.9z M839.6,955.4h1.9v8.9h-1.9V955.4z"/>
			</g>
			<g>
				<path class="st1" d="M843.7,951.4h1.9v12.9h-1.9V951.4z"/>
			</g>
			<g>
				<path class="st1" d="M847.8,951.4h1.9v12.9h-1.9V951.4z"/>
			</g>
			<g>
				<path class="st1" d="M852,951.4h1.9v12.9H852V951.4z"/>
			</g>
			<g>
				<path class="st1" d="M864,955.4v8.9h-1.9v-1.1c-0.6,0.9-1.5,1.4-2.7,1.4c-2,0-3.4-1.3-3.4-3.6v-5.4h1.9v5.2c0,1.3,0.8,2.1,2,2.1
					c1.3,0,2.2-0.7,2.2-2.5v-4.7H864z"/>
			</g>
			<g>
				<path class="st1" d="M872.6,961.8c0,1.8-1.5,2.7-3.5,2.7c-1.8,0-3-0.8-3.6-2.1l1.6-1c0.3,0.8,1,1.3,2,1.3c0.8,0,1.5-0.3,1.5-1
					c0-1.6-4.8-0.7-4.8-3.9c0-1.7,1.4-2.7,3.2-2.7c1.5,0,2.7,0.7,3.3,1.8l-1.6,0.9c-0.3-0.7-0.9-1-1.7-1c-0.7,0-1.3,0.3-1.3,0.9
					C867.9,959.5,872.6,958.5,872.6,961.8z"/>
			</g>
			<g>
				<path class="st1" d="M876.7,957.3v4.2c0,1.1,0.7,1.1,2.2,1v1.7c-2.9,0.4-4.1-0.5-4.1-2.8v-4.2h-1.6v-1.8h1.6v-1.9l1.9-0.6v2.5
					h2.2v1.8H876.7z"/>
			</g>
			<g>
				<path class="st1" d="M885.4,955.3v2.1c-1.3-0.1-2.7,0.5-2.7,2.5v4.5h-1.9v-8.9h1.9v1.5C883.2,955.7,884.2,955.3,885.4,955.3z"/>
			</g>
			<g>
				<path class="st1" d="M895.3,955.4v8.9h-1.9V963c-0.7,0.9-1.7,1.5-3.1,1.5c-2.4,0-4.4-2-4.4-4.7c0-2.6,2-4.7,4.4-4.7
					c1.4,0,2.4,0.6,3.1,1.5v-1.3H895.3z M893.4,959.9c0-1.6-1.2-2.8-2.8-2.8c-1.6,0-2.8,1.2-2.8,2.8c0,1.6,1.2,2.8,2.8,2.8
					C892.2,962.7,893.4,961.5,893.4,959.9z"/>
			</g>
			<g>
				<path class="st1" d="M900.3,957.3v4.2c0,1.1,0.7,1.1,2.2,1v1.7c-2.9,0.4-4.1-0.5-4.1-2.8v-4.2h-1.6v-1.8h1.6v-1.9l1.9-0.6v2.5
					h2.2v1.8H900.3z"/>
			</g>
			<g>
				<path class="st1" d="M903.9,952.9c0-0.7,0.5-1.2,1.2-1.2c0.7,0,1.2,0.5,1.2,1.2c0,0.7-0.5,1.2-1.2,1.2
					C904.5,954.1,903.9,953.6,903.9,952.9z M904.2,955.4h1.9v8.9h-1.9V955.4z"/>
			</g>
			<g>
				<path class="st1" d="M907.8,959.9c0-2.6,2.1-4.7,4.7-4.7c2.6,0,4.7,2,4.7,4.7c0,2.6-2.1,4.7-4.7,4.7
					C909.9,964.5,907.8,962.5,907.8,959.9z M915.3,959.9c0-1.6-1.2-2.8-2.8-2.8c-1.6,0-2.8,1.2-2.8,2.8c0,1.6,1.2,2.8,2.8,2.8
					C914.1,962.7,915.3,961.5,915.3,959.9z"/>
			</g>
			<g>
				<path class="st1" d="M927,958.9v5.4h-1.9v-5.2c0-1.3-0.8-2.1-2-2.1c-1.3,0-2.2,0.7-2.2,2.5v4.7h-1.9v-8.9h1.9v1.1
					c0.6-0.9,1.5-1.4,2.7-1.4C925.5,955.2,927,956.6,927,958.9z"/>
			</g>
			<g>
				<path class="st1" d="M935.5,961.8c0,1.8-1.5,2.7-3.5,2.7c-1.8,0-3-0.8-3.6-2.1l1.6-1c0.3,0.8,1,1.3,2,1.3c0.8,0,1.5-0.3,1.5-1
					c0-1.6-4.8-0.7-4.8-3.9c0-1.7,1.4-2.7,3.2-2.7c1.5,0,2.7,0.7,3.3,1.8l-1.6,0.9c-0.3-0.7-0.9-1-1.7-1c-0.7,0-1.3,0.3-1.3,0.9
					C930.7,959.5,935.5,958.5,935.5,961.8z"/>
			</g>
			<g>
				<path class="st1" d="M936.8,963.2c0-0.7,0.6-1.3,1.3-1.3c0.7,0,1.3,0.6,1.3,1.3c0,0.7-0.6,1.3-1.3,1.3
					C937.4,964.5,936.8,963.9,936.8,963.2z"/>
			</g>
			<g>
				<path class="st1" d="M940.3,959.9c0-2.6,2-4.7,4.7-4.7c1.7,0,3.2,0.9,3.9,2.3l-1.6,1c-0.4-0.8-1.3-1.4-2.3-1.4
					c-1.6,0-2.7,1.2-2.7,2.8c0,1.6,1.2,2.8,2.7,2.8c1.1,0,1.9-0.5,2.4-1.4l1.6,0.9c-0.7,1.4-2.2,2.3-4,2.3
					C942.3,964.5,940.3,962.5,940.3,959.9z"/>
			</g>
			<g>
				<path class="st1" d="M949.7,959.9c0-2.6,2.1-4.7,4.7-4.7c2.6,0,4.7,2,4.7,4.7c0,2.6-2.1,4.7-4.7,4.7
					C951.8,964.5,949.7,962.5,949.7,959.9z M957.2,959.9c0-1.6-1.2-2.8-2.8-2.8s-2.8,1.2-2.8,2.8c0,1.6,1.2,2.8,2.8,2.8
					S957.2,961.5,957.2,959.9z"/>
			</g>
		</g>
	</g>
</g>
<g id="XMLID_278_" class="st2">
	<polyline id="XMLID_285_" class="st3" points="747.4,415.7 747.4,446.6 685.5,446.6 	"/>
	<polyline id="XMLID_284_" class="st3" points="809.2,446.6 747.4,446.6 747.4,415.7 	"/>
	<rect id="XMLID_283_" x="716.4" y="446.6" class="st3" width="61.9" height="30.9"/>
	<polyline id="XMLID_282_" class="st3" points="764.9,508.5 747.4,508.5 747.4,477.6 809.2,477.6 	"/>
	<polyline id="XMLID_281_" class="st3" points="685.5,477.6 747.4,477.6 747.4,508.5 697.2,508.5 	"/>
	<polyline id="XMLID_280_" class="st3" points="664.4,446.6 716.4,446.6 716.4,477.6 685.5,477.6 	"/>
	<polyline id="XMLID_279_" class="st3" points="822.9,477.6 778.3,477.6 778.3,446.6 799.7,446.6 	"/>
</g>
<g id="XMLID_245_" class="st2">
	<path id="XMLID_244_" class="st4" d="M666,336.5l-53.6-53.6c-7.8-7.8-7.8-20.5,0-28.3L666,201c7.8-7.8,20.5-7.8,28.3,0l53.6,53.6
		c7.8,7.8,7.8,20.5,0,28.3l-53.6,53.6C686.5,344.3,673.8,344.3,666,336.5z"/>
	<line id="XMLID_237_" class="st5" x1="680.1" y1="215" x2="680.1" y2="205.2"/>
	<line id="XMLID_236_" class="st5" x1="680.1" y1="332.3" x2="680.1" y2="322.5"/>
	<line id="XMLID_234_" class="st5" x1="733.9" y1="268.8" x2="743.7" y2="268.8"/>
	<line id="XMLID_233_" class="st5" x1="616.6" y1="268.8" x2="626.4" y2="268.8"/>
	<line id="XMLID_232_" class="st6" x1="680.1" y1="268.8" x2="664.5" y2="254.2"/>
	<line id="XMLID_231_" class="st7" x1="703.5" y1="237.9" x2="680.1" y2="270.5"/>
	<circle id="XMLID_226_" class="st8" cx="681.4" cy="268.8" r="7.6"/>
</g>
<g id="XMLID_225_" class="st2">
	<rect id="XMLID_224_" x="240" y="264.1" class="st4" width="102.1" height="101.6"/>
	<rect id="XMLID_223_" x="360.9" y="190.3" class="st4" width="77.1" height="101.6"/>
	<line id="XMLID_162_" class="st9" x1="260" y1="317.5" x2="287.3" y2="290.2"/>
	<line id="XMLID_30_" class="st9" x1="284.6" y1="314.9" x2="309.2" y2="290.2"/>
	<line id="XMLID_29_" class="st9" x1="265.4" y1="334.1" x2="275.4" y2="324"/>
	<line id="XMLID_24_" class="st9" x1="383.8" y1="237.7" x2="402.5" y2="219"/>
	<line id="XMLID_13_" class="st9" x1="411.7" y1="233.1" x2="418.9" y2="225.9"/>
	<line id="XMLID_7_" class="st9" x1="380.8" y1="264.1" x2="403.7" y2="241.1"/>
</g>
<line id="XMLID_33_" class="st10" x1="758.3" y1="750.9" x2="777.7" y2="750.9"/>
<line id="XMLID_4_" class="st10" x1="794.7" y1="750.9" x2="799.5" y2="750.9"/>
<line id="XMLID_222_" class="st10" x1="241" y1="750.9" x2="740" y2="750.9"/>
<line id="XMLID_305_" class="st10" x1="195.5" y1="750.9" x2="219" y2="750.9"/>
<g>
	<path id="XMLID_153_" class="st11" d="M379.2,385.2c0-7.9,6.4-14.3,14.3-14.3c7.9,0,14.3,6.4,14.3,14.3H379.2z"/>
	<path id="XMLID_54_" class="st12" d="M379.2,385.2c0-7.9,6.4-14.3,14.3-14.3c7.9,0,14.3,6.4,14.3,14.3H379.2z"/>
	<path id="XMLID_156_" class="st11" d="M592.3,385.2c0-7.9,6.4-14.3,14.3-14.3c7.9,0,14.3,6.4,14.3,14.3H592.3z"/>
	<path id="XMLID_155_" class="st12" d="M592.3,385.2c0-7.9,6.4-14.3,14.3-14.3c7.9,0,14.3,6.4,14.3,14.3H592.3z"/>
	<path id="XMLID_19_" class="st1" d="M612.4,397.5c-20.9,0-37.8-8-47.7-22.9l-6.4-8.6c-13.2-17.7-34.6-28.2-57.1-28.2h-2.4
		c-22.5,0-43.8,10.5-57.1,28.2l-6.4,8.6C423,393.2,399.7,401,371.4,396l2.1-11.8c13.8,2.4,38.9,3.6,51.9-16.3l0.2-0.3l6.5-8.7
		c15.5-20.7,40.4-33,66.7-33h2.4c26.3,0,51.2,12.3,66.7,33l6.8,9c13,19.9,38.1,18.8,51.9,16.3l2.1,11.8
		C623,397,617.6,397.5,612.4,397.5z"/>
	<path id="XMLID_14_" class="st10" d="M612.4,397.5c-20.9,0-37.8-8-47.7-22.9l-6.4-8.6c-13.2-17.7-34.6-28.2-57.1-28.2h-2.4
		c-22.5,0-43.8,10.5-57.1,28.2l-6.4,8.6C423,393.2,399.7,401,371.4,396l2.1-11.8c13.8,2.4,38.9,3.6,51.9-16.3l0.2-0.3l6.5-8.7
		c15.5-20.7,40.4-33,66.7-33h2.4c26.3,0,51.2,12.3,66.7,33l6.8,9c13,19.9,38.1,18.8,51.9,16.3l2.1,11.8
		C623,397,617.6,397.5,612.4,397.5z"/>
	<g id="XMLID_160_">
		<path id="XMLID_43_" class="st13" d="M302,556.7h-18.9l-21.4,141c0,0,15.1-7.1,20.2-7.1c16.2,0,20.2,7.1,20.2,7.1V556.7z"/>
		<path id="XMLID_5_" class="st10" d="M302,556.7h-18.9l-21.4,141c0,0,15.1-7.1,20.2-7.1c16.2,0,20.2,7.1,20.2,7.1V556.7z"/>
		<path id="XMLID_26_" class="st10" d="M302,556.7h-18.9l-21.4,141c0,0,15.1-7.1,20.2-7.1c16.2,0,20.2,7.1,20.2,7.1V556.7z"/>
		<path id="XMLID_44_" class="st1" d="M299.3,556.7h-16.1l-21.4,141c0,0,10.8-5,17.2-6.6L299.3,556.7z"/>
		<path id="XMLID_107_" class="st10" d="M299.3,556.7h-16.1l-21.4,141c0,0,10.8-5,17.2-6.6L299.3,556.7z"/>
	</g>
	<g id="XMLID_154_">
		<path id="XMLID_173_" class="st13" d="M698,556.7h18.9l21.4,141c0,0-15.1-7.1-20.2-7.1c-16.2,0-20.2,7.1-20.2,7.1V556.7z"/>
		<path id="XMLID_170_" class="st10" d="M698,556.7h18.9l21.4,141c0,0-15.1-7.1-20.2-7.1c-16.2,0-20.2,7.1-20.2,7.1V556.7z"/>
		<path id="XMLID_167_" class="st10" d="M698,556.7h18.9l21.4,141c0,0-15.1-7.1-20.2-7.1c-16.2,0-20.2,7.1-20.2,7.1V556.7z"/>
		<path id="XMLID_163_" class="st1" d="M700.7,556.7h16.1l21.4,141c0,0-10.8-5-17.2-6.6L700.7,556.7z"/>
		<path id="XMLID_159_" class="st10" d="M700.7,556.7h16.1l21.4,141c0,0-10.8-5-17.2-6.6L700.7,556.7z"/>
	</g>
	<path id="XMLID_16_" class="st1" d="M675.8,750.3h-352c-13.3,0-24-10.7-24-24v-250h400v250C699.8,739.6,689.1,750.3,675.8,750.3z"
		/>
	<path id="XMLID_97_" class="st14" d="M556,685H444c-8.8,0-16-7.2-16-16v-40.7h144V669C572,677.9,564.8,685,556,685z"/>
	<path id="XMLID_1_" class="st15" d="M511.9,678.7L511.9,678.7c0,6.6-5.3,11.9-11.9,11.9s-11.9-5.3-11.9-11.9v0h-9v0
		c0,11.5,9.4,20.9,20.9,20.9c11.5,0,20.9-9.4,20.9-20.9v0H511.9z"/>
	<path id="XMLID_56_" class="st16" d="M511.9,678.7L511.9,678.7c0,6.6-5.3,11.9-11.9,11.9s-11.9-5.3-11.9-11.9v0h-9v0
		c0,11.5,9.4,20.9,20.9,20.9c11.5,0,20.9-9.4,20.9-20.9v0H511.9z"/>
	<path id="XMLID_207_" class="st17" d="M676,739H324c-13.3,0-24-10.7-24-24v11.8c0,13.3,10.7,24,24,24h352c13.3,0,24-10.7,24-24V715
		C700,728.3,689.3,739,676,739z"/>
	<path id="XMLID_185_" class="st18" d="M700,589.9V480.8H300v109.1c5.4,2.6,11.2,4.5,17.4,5.8c52.1,10.5,109.1,15.4,179.4,15.4h6.4
		c70.3,0,127.3-4.9,179.4-15.4C688.8,594.4,694.6,592.5,700,589.9z"/>
	<path id="XMLID_79_" class="st13" d="M556,678H444c-8.8,0-16-7.2-16-16v-40.7h144V662C572,670.9,564.8,678,556,678z"/>
	<path id="XMLID_190_" class="st19" d="M428,643.5c5.5,5.2,12.9,8.4,21,8.4h102c8.1,0,15.5-3.2,21-8.4v-18.2H428V643.5z"/>
	<path id="XMLID_165_" class="st20" d="M451.7,667H444c-3.3,0-6-2.7-6-6v-30.7"/>
	<path id="XMLID_168_" class="st20" d="M562,650.9V661c0,3.3-2.7,6-6,6h-94"/>
	<path id="XMLID_12_" class="st10" d="M556,678H444c-8.8,0-16-7.2-16-16v-40.7h144V662C572,670.9,564.8,678,556,678z"/>
	<path id="XMLID_80_" class="st21" d="M551,641.9H449c-13.5,0-24.5-11-24.5-24.5V593h151v24.5C575.5,631,564.5,641.9,551,641.9z"/>
	<path id="XMLID_184_" class="st22" d="M424.5,609c22.6,1.3,46.5,2,72.3,2h6.4c25.7,0,49.7-0.7,72.3-2V593h-151V609z"/>
	<path id="XMLID_17_" class="st10" d="M551,641.9H449c-13.5,0-24.5-11-24.5-24.5V593h151v24.5C575.5,631,564.5,641.9,551,641.9z"/>
	<path id="XMLID_82_" class="st20" d="M434.5,616.3v-18.8h131v18.8c0,8-6.5,14.5-14.5,14.5H449C441,630.8,434.5,624.3,434.5,616.3z"
		/>
	<path id="XMLID_3_" class="st10" d="M676,750.8H324c-13.3,0-24-10.7-24-24v-250h400v250C700,740.1,689.3,750.8,676,750.8z"/>
	<path id="XMLID_8_" class="st23" d="M324,734.8c-4.4,0-8-3.6-8-8v-234h368v234c0,4.4-3.6,8-8,8H324z"/>
	<path id="XMLID_18_" class="st13" d="M285.5,419.2L272,517.7c-4.2,30.5,15.4,57.8,47.3,64.2c58.8,11.8,119.6,15.3,180.7,15.2
		c61.1,0.1,121.9-3.3,180.7-15.2c31.9-6.4,51.5-33.7,47.3-64.2l-13.5-98.5c-1.7-12.4-14-22.5-28.1-23.2
		c-124.4-5.9-248.3-5.9-372.7,0C299.6,396.7,287.2,406.8,285.5,419.2z"/>
	<path id="XMLID_41_" class="st24" d="M728,517.7l-13.5-98.5c-1.7-12.4-14-22.5-28.1-23.2c-124.4-5.9-248.3-5.9-372.7,0
		c-14.1,0.7-26.4,10.8-28.1,23.2L272,517.7c-4.2,30.5,15.4,57.8,47.3,64.2c58.8,11.8,119.6,15.3,180.7,15.2
		c61.1,0.1,121.9-3.3,180.7-15.2C712.5,575.5,732.1,548.2,728,517.7z M680.6,582.2c-51.4,10.8-107.7,15.8-177.4,15.8h-6.5
		c-69.7,0-126-5-177.4-15.8c-27.1-5.7-44.1-29.7-40.5-57l13.6-103.7c1.1-8.5,10-15.7,19.8-16.2c62.4-3.1,125.5-4.7,187.7-4.7
		s125.4,1.6,187.7,4.7c9.8,0.5,18.7,7.8,19.8,16.2l13.6,103.7C724.8,552.5,707.7,576.5,680.6,582.2z"/>
	<path id="XMLID_204_" class="st19" d="M680.7,572.3c-58.8,11.8-119.6,15.3-180.7,15.2c-61.1,0.1-121.9-3.3-180.7-15.2
		c-27.3-5.5-45.6-26.3-47.7-51.3c-2.4,29.2,16.9,54.7,47.7,60.9c58.8,11.8,119.6,15.3,180.7,15.2c61.1,0.1,121.9-3.3,180.7-15.2
		c30.7-6.2,50-31.7,47.7-60.9C726.3,546,708,566.8,680.7,572.3z"/>
	<path id="XMLID_9_" class="st10" d="M285.5,419.2L272,517.7c-4.2,30.5,15.4,57.8,47.3,64.2c58.8,11.8,119.6,15.3,180.7,15.2
		c61.1,0.1,121.9-3.3,180.7-15.2c31.9-6.4,51.5-33.7,47.3-64.2l-13.5-98.5c-1.7-12.4-14-22.5-28.1-23.2
		c-124.4-5.9-248.3-5.9-372.7,0C299.6,396.7,287.2,406.8,285.5,419.2z"/>
	<g id="XMLID_6_">
		<path class="st25" d="M496.8,581c-68.5,0-123.9-4.7-174.3-14.9c-23.5-4.7-37.7-23.8-34.6-46.3l13.5-98.5c0.6-4.2,6.1-9,13-9.4
			c61.6-2.9,124.1-4.4,185.6-4.4c61.5,0,123.9,1.5,185.6,4.4c7,0.3,12.4,5.2,13,9.4l13.5,98.5c3.1,22.6-11.1,41.6-34.6,46.3
			C627.1,576.3,571.7,581,503.2,581H496.8z"/>
	</g>
	<g id="XMLID_51_">
		<path id="XMLID_20_" class="st21" d="M385.5,765.2L385.5,765.2c-9.9,0-18-8.1-18-18V494.3h36v252.9
			C403.5,757.1,395.5,765.2,385.5,765.2z"/>
		<rect id="XMLID_169_" x="367.5" y="494.3" class="st26" width="36" height="13"/>
		<rect id="XMLID_100_" x="367.5" y="564.2" class="st27" width="36" height="18"/>
		<path id="XMLID_10_" class="st10" d="M385.5,765.2L385.5,765.2c-9.9,0-18-8.1-18-18V494.3h36v252.9
			C403.5,757.1,395.5,765.2,385.5,765.2z"/>
		<polygon id="XMLID_23_" class="st15" points="355.5,552.2 355.5,607.2 367.5,607.2 367.5,595.2 367.5,590.3 367.5,564.2 
			403.5,564.2 403.5,590.3 403.5,595.2 403.5,607.2 415.5,607.2 415.5,552.2 		"/>
		<path id="XMLID_36_" class="st12" d="M405.8,552.2h-40.4c-5.4,0-9.8,4.4-9.8,9.8v35.4c0,5.4,4.4,9.8,9.8,9.8h2.2v-12v-13v-18h36
			v18v13v12h2.2c5.4,0,9.8-4.4,9.8-9.8V562C415.5,556.6,411.2,552.2,405.8,552.2z"/>
		<circle id="XMLID_15_" class="st15" cx="385.5" cy="532.7" r="5.5"/>
		<circle id="XMLID_11_" class="st16" cx="385.5" cy="532.7" r="5.5"/>
		<circle id="XMLID_37_" class="st15" cx="385.5" cy="586.5" r="5.5"/>
		<circle id="XMLID_22_" class="st16" cx="385.5" cy="588" r="5.5"/>
		<circle id="XMLID_69_" class="st1" cx="385.5" cy="659.2" r="5.5"/>
		<circle id="XMLID_64_" class="st16" cx="385.5" cy="659.2" r="5.5"/>
		<circle id="XMLID_75_" class="st1" cx="385.5" cy="694.8" r="5.5"/>
		<circle id="XMLID_72_" class="st16" cx="385.5" cy="694.8" r="5.5"/>
		<path id="XMLID_78_" class="st15" d="M385.5,592L385.5,592c-2.2,0-4-1.8-4-4v-31.9c0-2.2,1.8-4,4-4l0,0c2.2,0,4,1.8,4,4v31.9
			C389.5,590.3,387.8,592,385.5,592z"/>
		<path id="XMLID_21_" class="st16" d="M385.5,592L385.5,592c-2.2,0-4-1.8-4-4v-31.9c0-2.2,1.8-4,4-4l0,0c2.2,0,4,1.8,4,4v31.9
			C389.5,590.3,387.8,592,385.5,592z"/>
	</g>
	<g id="XMLID_61_">
		<path id="XMLID_150_" class="st21" d="M614.5,765.2L614.5,765.2c-9.9,0-18-8.1-18-18V494.3h36v252.9
			C632.5,757.1,624.4,765.2,614.5,765.2z"/>
		<rect id="XMLID_166_" x="595.3" y="564.5" class="st27" width="36" height="18"/>
		<path id="XMLID_147_" class="st10" d="M614.5,765.2L614.5,765.2c-9.9,0-18-8.1-18-18V494.3h36v252.9
			C632.5,757.1,624.4,765.2,614.5,765.2z"/>
		<polygon id="XMLID_144_" class="st15" points="584.5,552.2 584.5,607.2 596.5,607.2 596.5,595.2 596.5,590.3 596.5,564.2 
			632.5,564.2 632.5,590.3 632.5,595.2 632.5,607.2 644.5,607.2 644.5,552.2 		"/>
		<path id="XMLID_141_" class="st12" d="M634.7,552.2h-40.4c-5.4,0-9.8,4.4-9.8,9.8v35.4c0,5.4,4.4,9.8,9.8,9.8h2.2v-12v-13v-18h36
			v18v13v12h2.2c5.4,0,9.8-4.4,9.8-9.8V562C644.5,556.6,640.1,552.2,634.7,552.2z"/>
		<circle id="XMLID_138_" class="st15" cx="614.5" cy="532.7" r="5.5"/>
		<circle id="XMLID_135_" class="st16" cx="614.5" cy="532.7" r="5.5"/>
		<circle id="XMLID_132_" class="st15" cx="614.5" cy="586.5" r="5.5"/>
		<circle id="XMLID_129_" class="st16" cx="614.5" cy="588" r="5.5"/>
		<circle id="XMLID_126_" class="st1" cx="614.5" cy="659.2" r="5.5"/>
		<circle id="XMLID_123_" class="st16" cx="614.5" cy="659.2" r="5.5"/>
		<circle id="XMLID_120_" class="st1" cx="614.5" cy="694.8" r="5.5"/>
		<circle id="XMLID_117_" class="st16" cx="614.5" cy="694.8" r="5.5"/>
		<path id="XMLID_108_" class="st15" d="M614.5,592L614.5,592c-2.2,0-4-1.8-4-4v-31.9c0-2.2,1.8-4,4-4l0,0c2.2,0,4,1.8,4,4v31.9
			C618.4,590.3,616.7,592,614.5,592z"/>
		<path id="XMLID_91_" class="st16" d="M614.5,592L614.5,592c-2.2,0-4-1.8-4-4v-31.9c0-2.2,1.8-4,4-4l0,0c2.2,0,4,1.8,4,4v31.9
			C618.4,590.3,616.7,592,614.5,592z"/>
		<rect id="XMLID_187_" x="596.5" y="494.3" class="st26" width="36" height="13"/>
	</g>
	<circle id="XMLID_32_" class="st22" cx="502.5" cy="616.8" r="5.7"/>
	<circle id="XMLID_31_" class="st16" cx="502.5" cy="616.8" r="5.7"/>
	<path id="XMLID_95_" class="st28" d="M527,511.2c0.2-2.6-1.3-5.1-3.7-6.2c-6.3-2.9-13.4-4.5-20.8-4.5c-7.4,0-14.5,1.6-20.8,4.5
		c-2.4,1.1-3.9,3.6-3.7,6.2c1.2,15.2,9.1,28.5,20.8,36.8c2.2,1.6,5.1,1.6,7.3,0C517.9,539.7,525.8,526.4,527,511.2z"/>
	<path id="XMLID_202_" class="st29" d="M506.2,537c-2.2,1.6-5.1,1.6-7.3,0c-9.9-7-17-17.6-19.7-29.8c-0.8,1.1-1.2,2.5-1.1,4
		c1.2,15.2,9.1,28.5,20.8,36.8c2.2,1.6,5.1,1.6,7.3,0c11.7-8.4,19.7-21.6,20.8-36.8c0.1-1.4-0.3-2.8-1.1-4
		C523.2,519.5,516,530,506.2,537z"/>
	<path id="XMLID_161_" class="st30" d="M527,511.2c0.2-2.6-1.3-5.1-3.7-6.2c-6.3-2.9-13.4-4.5-20.8-4.5c-7.4,0-14.5,1.6-20.8,4.5
		c-2.4,1.1-3.9,3.6-3.7,6.2c1.2,15.2,9.1,28.5,20.8,36.8c2.2,1.6,5.1,1.6,7.3,0C517.9,539.7,525.8,526.4,527,511.2z"/>
	<path id="XMLID_98_" class="st31" d="M491.6,509.9c3.5-1,7.2-1.4,10.9-1.4c3.7,0,7.4,0.5,10.9,1.4c3.3,0.9,5.3,4.3,4.5,7.6
		c-1,3.9-2.5,7.6-4.5,11.1"/>
</g>
</svg>
