<?xml version="1.0" encoding="utf-8"?>
<!-- Generator: Adobe Illustrator 23.1.1, SVG Export Plug-In . SVG Version: 6.00 Build 0)  -->
<svg version="1.1" id="Layer_1" xmlns="http://www.w3.org/2000/svg" xmlns:xlink="http://www.w3.org/1999/xlink" x="0px" y="0px"
	 viewBox="0 0 1000 1000" style="enable-background:new 0 0 1000 1000;" xml:space="preserve">
<style type="text/css">
	.st0{fill:#D0EDF5;}
	.st1{fill:#3B6B7D;}
	.st2{fill:none;stroke:#3B6B7D;stroke-width:10;stroke-linecap:round;stroke-linejoin:round;stroke-miterlimit:10;}
	.st3{opacity:0.23;}
	.st4{fill:none;stroke:#474747;stroke-width:6;stroke-linecap:round;stroke-linejoin:round;stroke-miterlimit:10;}
	.st5{fill:#F2CFB1;}
	.st6{opacity:0.58;}
	.st7{fill:#EAEAEA;}
	.st8{fill:#C6C6C6;}
	.st9{fill:#D8D8D8;}
	.st10{fill:none;stroke:#3B6B7D;stroke-width:12;stroke-linecap:round;stroke-linejoin:round;stroke-miterlimit:10;}
	.st11{fill:#87D1E8;}
	.st12{fill:none;stroke:#3B6B7D;stroke-width:13;stroke-linecap:round;stroke-linejoin:round;stroke-miterlimit:10;}
	.st13{fill:none;stroke:#3B6B7D;stroke-width:4;stroke-linecap:round;stroke-linejoin:round;stroke-miterlimit:10;}
	.st14{fill:#EF9E9D;}
	.st15{opacity:0.39;fill:#EF9E9D;}
	.st16{fill:#DD8A8A;}
	.st17{fill:#BBEAF2;}
	.st18{opacity:0.52;fill:#92D7E7;}
	.st19{opacity:0.48;fill:#92D7E7;}
	.st20{fill:#D3B379;}
	.st21{fill:none;stroke:#3B6B7D;stroke-width:6;stroke-linecap:round;stroke-linejoin:round;stroke-miterlimit:10;}
	.st22{fill:#FFFFFF;}
	.st23{opacity:0.84;fill:#D8D8D8;}
	.st24{fill:none;stroke:#3B6B7D;stroke-width:8;stroke-linecap:round;stroke-linejoin:round;stroke-miterlimit:10;}
</style>
<rect id="XMLID_101_" class="st0" width="1000" height="1000"/>
<g>
	<g>
		<g>
			<path class="st1" d="M63.2,959.2c0,2.5-1.2,3.7-2.6,3.7c-1.1,0-1.9-0.5-2.1-1.4c-0.4,0.5-1,0.8-1.8,0.8c-1.5,0-2.6-1.2-2.6-2.8
				c0-1.6,1.1-2.8,2.6-2.8c0.7,0,1.2,0.3,1.6,0.7v-0.5h1.6v3.9c0,0.8,0.3,1.4,1,1.4c0.9,0,1.7-0.9,1.7-3c0-3-2.3-5.3-5.4-5.3
				c-3.1,0-5.6,2.4-5.6,5.7c0,3.3,2.5,5.7,5.9,5.7c1.1,0,2.1-0.2,2.9-0.4v0.6c-0.8,0.3-1.7,0.4-2.9,0.4c-3.7,0-6.5-2.6-6.5-6.2
				c0-3.4,2.7-6.2,6.2-6.2C61.1,953.3,63.2,956.4,63.2,959.2z M58.3,959.5c0-0.8-0.6-1.4-1.3-1.4c-0.8,0-1.3,0.5-1.3,1.4
				c0,0.8,0.6,1.3,1.3,1.3C57.8,960.9,58.3,960.3,58.3,959.5z"/>
		</g>
		<g>
			<path class="st1" d="M69.4,955.1v2c-1.2-0.1-2.6,0.5-2.6,2.4v4.3h-1.9v-8.6h1.9v1.4C67.3,955.5,68.3,955.1,69.4,955.1z"/>
		</g>
		<g>
			<path class="st1" d="M74.6,962.3c1,0,1.8-0.5,2.2-1.1l1.5,0.9c-0.8,1.2-2.1,1.9-3.8,1.9c-2.8,0-4.7-1.9-4.7-4.5
				c0-2.5,1.8-4.5,4.5-4.5c2.6,0,4.3,2.1,4.3,4.5c0,0.3,0,0.5-0.1,0.8h-6.8C72.1,961.6,73.2,962.3,74.6,962.3z M76.9,958.8
				c-0.3-1.5-1.3-2.1-2.5-2.1c-1.4,0-2.3,0.8-2.6,2.1H76.9z"/>
		</g>
		<g>
			<path class="st1" d="M88.9,955.2v8.6h-1.9v-1.2c-0.7,0.9-1.7,1.5-3,1.5c-2.3,0-4.3-2-4.3-4.5c0-2.6,1.9-4.5,4.3-4.5
				c1.3,0,2.3,0.5,3,1.4v-1.2H88.9z M87.1,959.5c0-1.6-1.2-2.7-2.7-2.7c-1.5,0-2.7,1.1-2.7,2.7c0,1.6,1.2,2.7,2.7,2.7
				C85.9,962.3,87.1,961.1,87.1,959.5z"/>
		</g>
		<g>
			<path class="st1" d="M91.1,951.3H93v12.5h-1.9V951.3z"/>
		</g>
		<g>
			<path class="st1" d="M102.9,955.2l-3.3,8.6h-2.1l-3.3-8.6h2l2.4,6.5l2.4-6.5H102.9z"/>
		</g>
		<g>
			<path class="st1" d="M104.2,955.2h1.9v8.9c0,2.4-1.2,3.5-3.5,3.3v-1.8c1.1,0.1,1.7-0.3,1.7-1.5V955.2z M104,952.8
				c0-0.7,0.5-1.2,1.2-1.2c0.7,0,1.2,0.5,1.2,1.2c0,0.6-0.5,1.2-1.2,1.2C104.5,954,104,953.4,104,952.8z"/>
		</g>
		<g>
			<path class="st1" d="M116,955.2l-3.3,8.8c-0.8,2.2-2.2,3.3-4.2,3.2v-1.7c1.2,0.1,1.9-0.5,2.3-1.7l0.1-0.2l-3.6-8.4h2l2.6,6.2
				l2.2-6.2H116z"/>
		</g>
	</g>
	<g>
		<path class="st1" d="M211.9,938.7c0,2.1-1.5,3.8-3.6,3.8h-3v-7.6h3C210.4,934.9,211.9,936.6,211.9,938.7z M210.9,938.7
			c0-1.6-1.1-2.9-2.6-2.9h-2v5.7h2C209.8,941.6,210.9,940.3,210.9,938.7z"/>
		<path class="st1" d="M219.5,940.8h-3.4l-0.6,1.7h-1.1l2.8-7.6h1.1l2.8,7.6h-1.1L219.5,940.8z M219.2,939.9l-1.4-3.8l-1.4,3.8
			H219.2z"/>
		<path class="st1" d="M226.4,939.4v3.1h-1v-3.1l-2.7-4.5h1.1l2.1,3.6l2.1-3.6h1.1L226.4,939.4z"/>
		<path class="st1" d="M242.1,940.1c0,1.5-1.1,2.6-2.6,2.6c-1.5,0-2.6-1.1-2.6-2.6c0-0.6,0.2-1.1,0.5-1.5l2.5-3.7h1.2l-1.8,2.7
			c0.1,0,0.2,0,0.4,0C241,937.5,242.1,938.6,242.1,940.1z M241.1,940.1c0-1-0.7-1.6-1.6-1.6c-1,0-1.6,0.6-1.6,1.6s0.7,1.6,1.6,1.6
			C240.4,941.7,241.1,941,241.1,940.1z"/>
		<path class="st1" d="M245.1,938.7c0-2.4,1.1-4,2.9-4c1.9,0,2.9,1.6,2.9,4c0,2.4-1,4-2.9,4C246.2,942.7,245.1,941,245.1,938.7z
			 M250,938.7c0-1.9-0.7-3-1.9-3c-1.2,0-1.9,1.1-1.9,3s0.7,3,1.9,3C249.3,941.7,250,940.6,250,938.7z"/>
	</g>
	<g>
		<path class="st1" d="M58.9,938.7c0,2.1-1.5,3.8-3.6,3.8h-3v-7.6h3C57.4,934.9,58.9,936.6,58.9,938.7z M57.9,938.7
			c0-1.6-1.1-2.9-2.6-2.9h-2v5.7h2C56.8,941.6,57.9,940.3,57.9,938.7z"/>
		<path class="st1" d="M67,941.6v1h-4.6v-7.6h4.5v1h-3.5v2.3h3.2v0.9h-3.2v2.4H67z"/>
		<path class="st1" d="M70,940.8l0.9-0.5c0.3,0.8,0.9,1.4,2,1.4c1.1,0,1.6-0.5,1.6-1.2c0-0.8-0.7-1-1.8-1.4
			c-1.2-0.4-2.4-0.8-2.4-2.2c0-1.4,1.1-2.2,2.4-2.2c1.3,0,2.2,0.7,2.6,1.7l-0.8,0.5c-0.3-0.7-0.8-1.2-1.7-1.2
			c-0.8,0-1.4,0.4-1.4,1.1c0,0.7,0.5,1,1.6,1.3c1.3,0.4,2.6,0.8,2.6,2.3c0,1.3-1.1,2.2-2.6,2.2C71.5,942.7,70.4,941.9,70,940.8z"/>
		<path class="st1" d="M80,934.9v7.6h-1v-7.6H80z"/>
		<path class="st1" d="M91.3,939.2c0,1.9-1.4,3.5-3.7,3.5c-2.4,0-4-1.8-4-4c0-2.2,1.7-4,4-4c1.4,0,2.7,0.8,3.3,1.8l-0.9,0.5
			c-0.4-0.8-1.4-1.4-2.4-1.4c-1.8,0-3,1.3-3,3c0,1.7,1.2,3,3,3c1.6,0,2.5-0.9,2.7-2h-2.8v-0.9h3.8V939.2z"/>
		<path class="st1" d="M100.6,934.9v7.6h-0.8l-3.9-5.7v5.7h-1v-7.6h0.8l3.9,5.7v-5.7H100.6z"/>
		<path class="st1" d="M109.1,941.6v1h-4.6v-7.6h4.5v1h-3.5v2.3h3.2v0.9h-3.2v2.4H109.1z"/>
		<path class="st1" d="M119.2,938.7c0,2.1-1.5,3.8-3.6,3.8h-3v-7.6h3C117.6,934.9,119.2,936.6,119.2,938.7z M118.2,938.7
			c0-1.6-1.1-2.9-2.6-2.9h-2v5.7h2C117.1,941.6,118.2,940.3,118.2,938.7z"/>
		<path class="st1" d="M133.2,940.4c0,1.2-1,2.2-2.2,2.2h-3.3v-7.6h3c1.2,0,2.1,0.9,2.1,2.1c0,0.7-0.3,1.2-0.8,1.6
			C132.7,938.9,133.2,939.5,133.2,940.4z M128.7,935.8v2.3h2c0.6,0,1.1-0.5,1.1-1.2c0-0.6-0.5-1.2-1.1-1.2H128.7z M132.2,940.3
			c0-0.7-0.5-1.2-1.2-1.2h-2.3v2.5h2.3C131.7,941.6,132.2,941,132.2,940.3z"/>
		<path class="st1" d="M139.4,939.4v3.1h-1v-3.1l-2.7-4.5h1.1l2.1,3.6l2.1-3.6h1.1L139.4,939.4z"/>
	</g>
	<g>
		<path class="st1" d="M214.5,960.8c0,2.1-1.7,3.5-3.7,3.5h-5.3v-12.4h4.9c2,0,3.6,1.5,3.6,3.4c0,1.1-0.5,2-1.3,2.5
			C213.8,958.4,214.5,959.4,214.5,960.8z M207.5,953.8v3.3h2.9c0.9,0,1.6-0.7,1.6-1.6c0-0.9-0.7-1.6-1.6-1.6H207.5z M212.4,960.6
			c0-1-0.7-1.7-1.7-1.7h-3.3v3.5h3.3C211.7,962.4,212.4,961.6,212.4,960.6z"/>
		<path class="st1" d="M225.1,955.4v8.9h-1.9V963c-0.7,0.9-1.7,1.5-3.1,1.5c-2.4,0-4.4-2-4.4-4.7c0-2.6,2-4.7,4.4-4.7
			c1.4,0,2.4,0.6,3.1,1.5v-1.3H225.1z M223.2,959.9c0-1.6-1.2-2.8-2.8-2.8c-1.6,0-2.8,1.2-2.8,2.8c0,1.6,1.2,2.8,2.8,2.8
			C222,962.7,223.2,961.5,223.2,959.9z"/>
		<path class="st1" d="M230.1,957.3v4.2c0,1.1,0.7,1.1,2.2,1v1.7c-2.9,0.4-4.1-0.5-4.1-2.8v-4.2h-1.6v-1.8h1.6v-1.9l1.9-0.6v2.5h2.2
			v1.8H230.1z"/>
		<path class="st1" d="M242.1,958.9v5.4h-1.9v-5.2c0-1.3-0.8-2.1-2-2.1c-1.3,0-2.2,0.7-2.2,2.5v4.7H234v-12.4h1.9v4.7
			c0.6-0.9,1.5-1.4,2.7-1.4C240.7,955.2,242.1,956.6,242.1,958.9z"/>
		<path class="st1" d="M248.8,955.3v2.1c-1.3-0.1-2.7,0.5-2.7,2.5v4.5h-1.9v-8.9h1.9v1.5C246.6,955.7,247.7,955.3,248.8,955.3z"/>
		<path class="st1" d="M249.3,959.9c0-2.6,2.1-4.7,4.7-4.7c2.6,0,4.7,2,4.7,4.7c0,2.6-2.1,4.7-4.7,4.7
			C251.4,964.5,249.3,962.5,249.3,959.9z M256.7,959.9c0-1.6-1.2-2.8-2.8-2.8s-2.8,1.2-2.8,2.8c0,1.6,1.2,2.8,2.8,2.8
			S256.7,961.5,256.7,959.9z"/>
		<path class="st1" d="M259.9,959.9c0-2.6,2.1-4.7,4.7-4.7c2.6,0,4.7,2,4.7,4.7c0,2.6-2.1,4.7-4.7,4.7
			C262,964.5,259.9,962.5,259.9,959.9z M267.3,959.9c0-1.6-1.2-2.8-2.8-2.8s-2.8,1.2-2.8,2.8c0,1.6,1.2,2.8,2.8,2.8
			S267.3,961.5,267.3,959.9z"/>
		<path class="st1" d="M284,958.8v5.5h-1.9v-5.4c0-1.2-0.7-1.9-1.7-1.9c-1.1,0-1.9,0.7-1.9,2.3v5h-1.9v-5.4c0-1.2-0.6-1.9-1.7-1.9
			c-1.1,0-2,0.7-2,2.3v5H271v-8.9h1.9v1.1c0.6-0.9,1.4-1.3,2.5-1.3c1.2,0,2,0.5,2.5,1.4c0.6-0.9,1.5-1.4,2.7-1.4
			C282.7,955.2,284,956.6,284,958.8z"/>
	</g>
	<g>
		<g>
			<g>
				<path class="st1" d="M846.1,938.7c0,2.1-1.5,3.8-3.6,3.8h-3v-7.6h3C844.6,934.9,846.1,936.6,846.1,938.7z M845.2,938.7
					c0-1.6-1.1-2.9-2.6-2.9h-2v5.7h2C844.1,941.6,845.2,940.3,845.2,938.7z"/>
			</g>
			<g>
				<path class="st1" d="M849.3,938.7c0-2.2,1.7-4,3.9-4c2.2,0,4,1.8,4,4c0,2.2-1.7,4-4,4C851,942.7,849.3,940.9,849.3,938.7z
					 M856.1,938.7c0-1.7-1.3-3-2.9-3c-1.7,0-2.9,1.3-2.9,3c0,1.7,1.3,3,2.9,3C854.9,941.7,856.1,940.4,856.1,938.7z"/>
			</g>
			<g>
				<path class="st1" d="M859.8,934.9h1.1l1.7,6.3l1.9-6.3h1l1.9,6.3l1.7-6.3h1.1l-2.2,7.6h-1.2l-1.8-6.1l-1.8,6.1H862L859.8,934.9z
					"/>
			</g>
			<g>
				<path class="st1" d="M879.3,934.9v7.6h-0.8l-3.9-5.7v5.7h-1v-7.6h0.8l3.9,5.7v-5.7H879.3z"/>
			</g>
			<g>
				<path class="st1" d="M887.5,941.6v1h-4.3v-7.6h1v6.7H887.5z"/>
			</g>
			<g>
				<path class="st1" d="M889.9,938.7c0-2.2,1.7-4,3.9-4c2.2,0,4,1.8,4,4c0,2.2-1.7,4-4,4C891.6,942.7,889.9,940.9,889.9,938.7z
					 M896.8,938.7c0-1.7-1.3-3-2.9-3c-1.7,0-2.9,1.3-2.9,3c0,1.7,1.3,3,2.9,3C895.5,941.7,896.8,940.4,896.8,938.7z"/>
			</g>
			<g>
				<path class="st1" d="M905.4,940.8H902l-0.6,1.7h-1.1l2.8-7.6h1.1l2.8,7.6H906L905.4,940.8z M905.1,939.9l-1.4-3.8l-1.4,3.8
					H905.1z"/>
			</g>
			<g>
				<path class="st1" d="M916.9,938.7c0,2.1-1.5,3.8-3.6,3.8h-3v-7.6h3C915.4,934.9,916.9,936.6,916.9,938.7z M915.9,938.7
					c0-1.6-1.1-2.9-2.6-2.9h-2v5.7h2C914.9,941.6,915.9,940.3,915.9,938.7z"/>
			</g>
			<g>
				<path class="st1" d="M926.5,935.8v2.5h3.2v1h-3.2v3.2h-1v-7.6h4.4v1H926.5z"/>
			</g>
			<g>
				<path class="st1" d="M936.2,939.6h-1.8v2.9h-1v-7.6h3c1.3,0,2.4,1.1,2.4,2.4c0,1-0.7,1.9-1.6,2.2l1.8,3.1h-1.1L936.2,939.6z
					 M934.4,938.7h2c0.8,0,1.4-0.6,1.4-1.4c0-0.8-0.6-1.4-1.4-1.4h-2V938.7z"/>
			</g>
			<g>
				<path class="st1" d="M941.9,938.7c0-2.2,1.7-4,3.9-4c2.2,0,4,1.8,4,4c0,2.2-1.7,4-4,4C943.6,942.7,941.9,940.9,941.9,938.7z
					 M948.8,938.7c0-1.7-1.3-3-2.9-3c-1.7,0-2.9,1.3-2.9,3c0,1.7,1.3,3,2.9,3C947.5,941.7,948.8,940.4,948.8,938.7z"/>
			</g>
			<g>
				<path class="st1" d="M960.4,942.5h-1v-6l-2.5,4.2h-0.1l-2.5-4.1v5.9h-1v-7.6h1.1l2.4,4l2.4-4h1.1V942.5z"/>
			</g>
		</g>
		<g>
			<g>
				<path class="st1" d="M839.3,952.9c0-0.7,0.5-1.2,1.2-1.2c0.7,0,1.2,0.5,1.2,1.2c0,0.7-0.5,1.2-1.2,1.2
					C839.9,954.1,839.3,953.6,839.3,952.9z M839.6,955.4h1.9v8.9h-1.9V955.4z"/>
			</g>
			<g>
				<path class="st1" d="M843.7,951.4h1.9v12.9h-1.9V951.4z"/>
			</g>
			<g>
				<path class="st1" d="M847.8,951.4h1.9v12.9h-1.9V951.4z"/>
			</g>
			<g>
				<path class="st1" d="M852,951.4h1.9v12.9H852V951.4z"/>
			</g>
			<g>
				<path class="st1" d="M864,955.4v8.9h-1.9v-1.1c-0.6,0.9-1.5,1.4-2.7,1.4c-2,0-3.4-1.3-3.4-3.6v-5.4h1.9v5.2c0,1.3,0.8,2.1,2,2.1
					c1.3,0,2.2-0.7,2.2-2.5v-4.7H864z"/>
			</g>
			<g>
				<path class="st1" d="M872.6,961.8c0,1.8-1.5,2.7-3.5,2.7c-1.8,0-3-0.8-3.6-2.1l1.6-1c0.3,0.8,1,1.3,2,1.3c0.8,0,1.5-0.3,1.5-1
					c0-1.6-4.8-0.7-4.8-3.9c0-1.7,1.4-2.7,3.2-2.7c1.5,0,2.7,0.7,3.3,1.8l-1.6,0.9c-0.3-0.7-0.9-1-1.7-1c-0.7,0-1.3,0.3-1.3,0.9
					C867.9,959.5,872.6,958.5,872.6,961.8z"/>
			</g>
			<g>
				<path class="st1" d="M876.7,957.3v4.2c0,1.1,0.7,1.1,2.2,1v1.7c-2.9,0.4-4.1-0.5-4.1-2.8v-4.2h-1.6v-1.8h1.6v-1.9l1.9-0.6v2.5
					h2.2v1.8H876.7z"/>
			</g>
			<g>
				<path class="st1" d="M885.4,955.3v2.1c-1.3-0.1-2.7,0.5-2.7,2.5v4.5h-1.9v-8.9h1.9v1.5C883.2,955.7,884.2,955.3,885.4,955.3z"/>
			</g>
			<g>
				<path class="st1" d="M895.3,955.4v8.9h-1.9V963c-0.7,0.9-1.7,1.5-3.1,1.5c-2.4,0-4.4-2-4.4-4.7c0-2.6,2-4.7,4.4-4.7
					c1.4,0,2.4,0.6,3.1,1.5v-1.3H895.3z M893.4,959.9c0-1.6-1.2-2.8-2.8-2.8c-1.6,0-2.8,1.2-2.8,2.8c0,1.6,1.2,2.8,2.8,2.8
					C892.2,962.7,893.4,961.5,893.4,959.9z"/>
			</g>
			<g>
				<path class="st1" d="M900.3,957.3v4.2c0,1.1,0.7,1.1,2.2,1v1.7c-2.9,0.4-4.1-0.5-4.1-2.8v-4.2h-1.6v-1.8h1.6v-1.9l1.9-0.6v2.5
					h2.2v1.8H900.3z"/>
			</g>
			<g>
				<path class="st1" d="M903.9,952.9c0-0.7,0.5-1.2,1.2-1.2c0.7,0,1.2,0.5,1.2,1.2c0,0.7-0.5,1.2-1.2,1.2
					C904.5,954.1,903.9,953.6,903.9,952.9z M904.2,955.4h1.9v8.9h-1.9V955.4z"/>
			</g>
			<g>
				<path class="st1" d="M907.8,959.9c0-2.6,2.1-4.7,4.7-4.7c2.6,0,4.7,2,4.7,4.7c0,2.6-2.1,4.7-4.7,4.7
					C909.9,964.5,907.8,962.5,907.8,959.9z M915.3,959.9c0-1.6-1.2-2.8-2.8-2.8c-1.6,0-2.8,1.2-2.8,2.8c0,1.6,1.2,2.8,2.8,2.8
					C914.1,962.7,915.3,961.5,915.3,959.9z"/>
			</g>
			<g>
				<path class="st1" d="M927,958.9v5.4h-1.9v-5.2c0-1.3-0.8-2.1-2-2.1c-1.3,0-2.2,0.7-2.2,2.5v4.7h-1.9v-8.9h1.9v1.1
					c0.6-0.9,1.5-1.4,2.7-1.4C925.5,955.2,927,956.6,927,958.9z"/>
			</g>
			<g>
				<path class="st1" d="M935.5,961.8c0,1.8-1.5,2.7-3.5,2.7c-1.8,0-3-0.8-3.6-2.1l1.6-1c0.3,0.8,1,1.3,2,1.3c0.8,0,1.5-0.3,1.5-1
					c0-1.6-4.8-0.7-4.8-3.9c0-1.7,1.4-2.7,3.2-2.7c1.5,0,2.7,0.7,3.3,1.8l-1.6,0.9c-0.3-0.7-0.9-1-1.7-1c-0.7,0-1.3,0.3-1.3,0.9
					C930.7,959.5,935.5,958.5,935.5,961.8z"/>
			</g>
			<g>
				<path class="st1" d="M936.8,963.2c0-0.7,0.6-1.3,1.3-1.3c0.7,0,1.3,0.6,1.3,1.3c0,0.7-0.6,1.3-1.3,1.3
					C937.4,964.5,936.8,963.9,936.8,963.2z"/>
			</g>
			<g>
				<path class="st1" d="M940.3,959.9c0-2.6,2-4.7,4.7-4.7c1.7,0,3.2,0.9,3.9,2.3l-1.6,1c-0.4-0.8-1.3-1.4-2.3-1.4
					c-1.6,0-2.7,1.2-2.7,2.8c0,1.6,1.2,2.8,2.7,2.8c1.1,0,1.9-0.5,2.4-1.4l1.6,0.9c-0.7,1.4-2.2,2.3-4,2.3
					C942.3,964.5,940.3,962.5,940.3,959.9z"/>
			</g>
			<g>
				<path class="st1" d="M949.7,959.9c0-2.6,2.1-4.7,4.7-4.7c2.6,0,4.7,2,4.7,4.7c0,2.6-2.1,4.7-4.7,4.7
					C951.8,964.5,949.7,962.5,949.7,959.9z M957.2,959.9c0-1.6-1.2-2.8-2.8-2.8s-2.8,1.2-2.8,2.8c0,1.6,1.2,2.8,2.8,2.8
					S957.2,961.5,957.2,959.9z"/>
			</g>
		</g>
	</g>
</g>
<line id="XMLID_115_" class="st2" x1="452.1" y1="774.6" x2="531.3" y2="774.6"/>
<line id="XMLID_110_" class="st2" x1="417.3" y1="774.6" x2="430" y2="774.6"/>
<g id="XMLID_262_" class="st3">
	<polyline id="XMLID_269_" class="st4" points="606.9,394.4 606.9,425.4 545,425.4 	"/>
	<polyline id="XMLID_268_" class="st4" points="668.8,425.4 606.9,425.4 606.9,394.4 	"/>
	<rect id="XMLID_267_" x="576" y="425.4" class="st4" width="61.9" height="30.9"/>
	<polyline id="XMLID_266_" class="st4" points="624.5,487.2 606.9,487.2 606.9,456.3 668.8,456.3 	"/>
	<polyline id="XMLID_265_" class="st4" points="545,456.3 606.9,456.3 606.9,487.2 556.7,487.2 	"/>
	<polyline id="XMLID_264_" class="st4" points="524,425.4 576,425.4 576,456.3 545,456.3 	"/>
	<polyline id="XMLID_263_" class="st4" points="682.5,456.3 637.8,456.3 637.8,425.4 659.3,425.4 	"/>
</g>
<g id="XMLID_91_" class="st3">
	<polyline id="XMLID_120_" class="st4" points="860.1,567.6 860.1,598.5 798.3,598.5 	"/>
	<polyline id="XMLID_119_" class="st4" points="922,598.5 860.1,598.5 860.1,567.6 	"/>
	<rect id="XMLID_117_" x="829.2" y="598.5" class="st4" width="61.9" height="30.9"/>
	<polyline id="XMLID_114_" class="st4" points="877.7,660.4 860.1,660.4 860.1,629.4 922,629.4 	"/>
	<polyline id="XMLID_112_" class="st4" points="798.3,629.4 860.1,629.4 860.1,660.4 810,660.4 	"/>
	<polyline id="XMLID_100_" class="st4" points="777.2,598.5 829.2,598.5 829.2,629.4 798.3,629.4 	"/>
	<polyline id="XMLID_99_" class="st4" points="935.7,629.4 891,629.4 891,598.5 912.5,598.5 	"/>
</g>
<g id="XMLID_278_" class="st3">
	<polyline id="XMLID_285_" class="st4" points="119.1,522.6 119.1,553.5 57.3,553.5 	"/>
	<polyline id="XMLID_284_" class="st4" points="181,553.5 119.1,553.5 119.1,522.6 	"/>
	<rect id="XMLID_283_" x="88.2" y="553.5" class="st4" width="61.9" height="30.9"/>
	<polyline id="XMLID_282_" class="st4" points="136.7,615.4 119.1,615.4 119.1,584.5 181,584.5 	"/>
	<polyline id="XMLID_281_" class="st4" points="57.3,584.5 119.1,584.5 119.1,615.4 69,615.4 	"/>
	<polyline id="XMLID_280_" class="st4" points="36.2,553.5 88.2,553.5 88.2,584.5 57.3,584.5 	"/>
	<polyline id="XMLID_279_" class="st4" points="194.7,584.5 150,584.5 150,553.5 171.5,553.5 	"/>
</g>
<line id="XMLID_37_" class="st2" x1="618" y1="726" x2="902.9" y2="726"/>
<line id="XMLID_40_" class="st2" x1="148.3" y1="726" x2="548" y2="726"/>
<line id="XMLID_29_" class="st2" x1="119" y1="726" x2="125.5" y2="726"/>
<line id="XMLID_1_" class="st2" x1="75.8" y1="726" x2="100" y2="726"/>
<g>
	<path id="XMLID_106_" class="st5" d="M475.2,560.5c-10.3,0-19.2,6.1-23.2,14.8l-5.5-1.2c2.8-4.9,4.4-10.5,4.4-16.5
		c0-18.4-14.9-33.4-33.4-33.4c-11.8,0-22.2,6.1-28.1,15.4c-5.9-9.2-16.3-15.4-28.1-15.4c-7.6,0-14.6,2.5-20.2,6.8
		c-4.6-16.9-20.1-29.3-38.4-29.3c-17.5,0-32.3,11.3-37.7,26.9c-5-2.9-10.8-4.6-17-4.6c-18.5,0-33.5,15-33.5,33.5c0,0,0,0.1,0,0.1
		c-0.8-0.1-1.5-0.1-2.3-0.1c-15.7,0-28.5,12.8-28.5,28.5v50.1h317.2v-50.1C500.8,572,489.4,560.5,475.2,560.5z"/>
	<g id="XMLID_94_" class="st6">
		<path id="XMLID_97_" class="st5" d="M475.2,560.5c-10.3,0-19.2,6.1-23.2,14.8l-1.2-0.3c-0.4,5.1-1.9,9.9-4.3,14.1l5.5,1.2
			c4.1-8.8,13-14.8,23.2-14.8c14.2,0,25.6,11.5,25.6,25.6v-15C500.8,572,489.4,560.5,475.2,560.5z"/>
		<path id="XMLID_98_" class="st5" d="M212.2,572.6c0.8,0,1.5,0,2.3,0.1c0,0,0-0.1,0-0.1c0-18.5,15-33.5,33.5-33.5
			c6.2,0,12,1.7,17,4.6c5.4-15.7,20.2-26.9,37.7-26.9c18.4,0,33.8,12.4,38.4,29.3c5.6-4.3,12.6-6.8,20.2-6.8
			c11.8,0,22.2,6.1,28.1,15.4c5.9-9.2,16.3-15.4,28.1-15.4c15.8,0,29.1,11,32.5,25.8c0.6-2.4,0.9-4.9,0.9-7.5
			c0-18.4-14.9-33.4-33.4-33.4c-11.8,0-22.2,6.1-28.1,15.4c-5.9-9.2-16.3-15.4-28.1-15.4c-7.6,0-14.6,2.5-20.2,6.8
			c-4.6-16.9-20.1-29.3-38.4-29.3c-17.5,0-32.3,11.3-37.7,26.9c-5-2.9-10.8-4.6-17-4.6c-18.5,0-33.5,15-33.5,33.5c0,0,0,0.1,0,0.1
			c-0.8-0.1-1.5-0.1-2.3-0.1c-15.7,0-28.5,12.8-28.5,28.5v15C183.7,585.4,196.4,572.6,212.2,572.6z"/>
	</g>
	<path id="XMLID_42_" class="st2" d="M475.2,560.5c-10.3,0-19.2,6.1-23.2,14.8l-5.5-1.2c2.8-4.9,4.4-10.5,4.4-16.5
		c0-18.4-14.9-33.4-33.4-33.4c-11.8,0-22.2,6.1-28.1,15.4c-5.9-9.2-16.3-15.4-28.1-15.4c-7.6,0-14.6,2.5-20.2,6.8
		c-4.6-16.9-20.1-29.3-38.4-29.3c-17.5,0-32.3,11.3-37.7,26.9c-5-2.9-10.8-4.6-17-4.6c-18.5,0-33.5,15-33.5,33.5c0,0,0,0.1,0,0.1
		c-0.8-0.1-1.5-0.1-2.3-0.1c-15.7,0-28.5,12.8-28.5,28.5v50.1h317.2v-50.1C500.8,572,489.4,560.5,475.2,560.5z"/>
	<path id="XMLID_102_" class="st7" d="M515,572H143v24h0c5.5,0,10,4.5,10,10v50c0,28.7,23,52,51.7,52h248c28.6,0,52.3-23.4,52.3-52
		v-50c0-5.5,4.5-10,10-10l0,0V572z"/>
	<path id="XMLID_66_" class="st8" d="M153,606v3.5h352V606c0-5.5,4.5-10,10-10v-24H143v24C148.5,596,153,600.5,153,606z"/>
	<path id="XMLID_10_" class="st2" d="M515,572H143v24h0c5.5,0,10,4.5,10,10v50c0,28.7,23,52,51.7,52h248c28.6,0,52.3-23.4,52.3-52
		v-50c0-5.5,4.5-10,10-10l0,0V572z"/>
	<rect id="XMLID_55_" x="143" y="572" class="st9" width="372" height="24"/>
	<line id="XMLID_59_" class="st2" x1="449" y1="596" x2="430.5" y2="596"/>
	<polyline id="XMLID_3_" class="st2" points="413.1,596 143,596 143,572 515,572 515,596 463,596 	"/>
	<path id="XMLID_52_" class="st8" d="M466,717c0,5-4,9-9,9H200c-5,0-9-4-9-9l0,0c0-5,4-9,9-9h257C462,708,466,712,466,717L466,717z"
		/>
	<path id="XMLID_2_" class="st2" d="M466,717c0,5-4,9-9,9H200c-5,0-9-4-9-9l0,0c0-5,4-9,9-9h257C462,708,466,712,466,717L466,717z"
		/>
	<path id="XMLID_31_" class="st10" d="M269.6,277.2c-8.9-15.5-25.7-25.9-44.9-25.9c-28.6,0-51.8,23.2-51.8,51.8v266"/>
	<path id="XMLID_4_" class="st11" d="M318,304.4c-0.8-10.4-6.6-20.9-18.6-28c-2.7-1.6-5.8-2.6-9-2.9c-30.8-2.6-47,26.3-35.8,48.6
		c2,4,4.6,7.3,7.8,10.1L318,304.4z"/>
	<path id="XMLID_35_" class="st2" d="M318,304.4c-0.8-10.4-6.6-20.9-18.6-28c-2.7-1.6-5.8-2.6-9-2.9c-30.8-2.6-47,26.3-35.8,48.6
		c2,4,4.6,7.3,7.8,10.1L318,304.4z"/>
	<circle id="XMLID_5_" class="st5" cx="327.8" cy="452.1" r="11.2"/>
	<circle id="XMLID_32_" class="st2" cx="327.8" cy="452.1" r="11.2"/>
	<circle id="XMLID_54_" class="st5" cx="392.8" cy="464" r="20.2"/>
	<circle id="XMLID_39_" class="st2" cx="392.8" cy="464" r="20.2"/>
	<line id="XMLID_9_" class="st12" x1="195" y1="500" x2="175.1" y2="500"/>
	<path id="XMLID_6_" class="st2" d="M206.7,508h-15.4v-16h15.4c4.4,0,8,3.6,8,8l0,0C214.7,504.4,211.1,508,206.7,508z"/>
	<path id="XMLID_53_" class="st1" d="M206.7,508h-15.4v-16h15.4c4.4,0,8,3.6,8,8l0,0C214.7,504.4,211.1,508,206.7,508z"/>
	<line id="XMLID_43_" class="st13" x1="298.9" y1="381.2" x2="285.8" y2="335"/>
	<line id="XMLID_44_" class="st13" x1="313.4" y1="320.4" x2="342.2" y2="354.8"/>
	<line id="XMLID_47_" class="st13" x1="321.6" y1="364.7" x2="332.9" y2="384.9"/>
	<line id="XMLID_45_" class="st13" x1="301" y1="328" x2="314.4" y2="351.9"/>
</g>
<g>
	<rect id="XMLID_109_" x="692.7" y="523" class="st14" width="140" height="55"/>
	<rect id="XMLID_58_" x="692.7" y="523" class="st15" width="140" height="12.5"/>
	<rect id="XMLID_108_" x="692.7" y="578" class="st14" width="140" height="55"/>
	<rect id="XMLID_64_" x="692.7" y="577.8" class="st15" width="140" height="12.5"/>
	<rect id="XMLID_107_" x="692.7" y="633" class="st14" width="140" height="55"/>
	<rect id="XMLID_67_" x="692.7" y="633.8" class="st15" width="140" height="12.5"/>
	<rect id="XMLID_7_" x="692.7" y="523" class="st2" width="140" height="165"/>
	<rect id="XMLID_8_" x="692.7" y="523" class="st2" width="140" height="55"/>
	<rect id="XMLID_12_" x="692.7" y="578" class="st2" width="140" height="55"/>
	<rect id="XMLID_13_" x="692.7" y="633" class="st2" width="140" height="55"/>
	<line id="XMLID_15_" class="st2" x1="744.7" y1="541" x2="780.7" y2="541"/>
	<line id="XMLID_16_" class="st2" x1="744.7" y1="596" x2="780.7" y2="596"/>
	<line id="XMLID_17_" class="st2" x1="744.7" y1="651" x2="780.7" y2="651"/>
	<polygon id="XMLID_61_" class="st1" points="714.9,726 701.7,726 716.9,688 742.9,688 	"/>
	<polygon id="XMLID_14_" class="st2" points="714.9,726 701.7,726 716.9,688 742.9,688 	"/>
	<polygon id="XMLID_19_" class="st2" points="813.9,726 827.1,726 811.9,688 785.9,688 	"/>
	<polygon id="XMLID_68_" class="st1" points="813.9,726 827.1,726 811.9,688 785.9,688 	"/>
	<rect id="XMLID_49_" x="755.7" y="448" class="st11" width="14" height="42.7"/>
	<rect id="XMLID_22_" x="755.7" y="448" class="st2" width="14" height="42.7"/>
	<circle id="XMLID_48_" class="st11" cx="762.7" cy="503" r="18"/>
	<circle id="XMLID_20_" class="st2" cx="762.7" cy="503" r="18"/>
	<line id="XMLID_24_" class="st2" x1="777.2" y1="492.3" x2="789.6" y2="479.9"/>
	<line id="XMLID_25_" class="st2" x1="785.9" y1="472.5" x2="796.9" y2="483.5"/>
	<path id="XMLID_50_" class="st11" d="M778.3,458.5H747c-3.7,0-6.2-3.7-4.9-7.1l4.5-12.1c2.3-6.1,8.8-10.3,16.1-10.3h0
		c7.3,0,13.7,4.1,16.1,10.3l4.5,12.1C784.6,454.8,782,458.5,778.3,458.5z"/>
	<path id="XMLID_23_" class="st2" d="M778.3,458.5H747c-3.7,0-6.2-3.7-4.9-7.1l4.5-12.1c2.3-6.1,8.8-10.3,16.1-10.3h0
		c7.3,0,13.7,4.1,16.1,10.3l4.5,12.1C784.6,454.8,782,458.5,778.3,458.5z"/>
	<rect id="XMLID_46_" x="679.7" y="503" class="st16" width="166" height="20"/>
	<rect id="XMLID_11_" x="679.7" y="503" class="st2" width="166" height="20"/>
</g>
<g>
	<rect id="XMLID_28_" x="682.7" y="224" class="st17" width="160" height="192"/>
	<rect id="XMLID_60_" x="682.7" y="402" class="st18" width="160" height="14"/>
	<rect id="XMLID_121_" x="682.7" y="224" class="st19" width="160" height="14.1"/>
	<rect id="XMLID_18_" x="682.7" y="224" class="st2" width="160" height="192"/>
	<line id="XMLID_21_" class="st2" x1="659" y1="416" x2="866.3" y2="416"/>
	<rect id="XMLID_69_" x="800.1" y="357.7" class="st20" width="24.8" height="58.3"/>
	<rect id="XMLID_26_" x="800.1" y="357.7" class="st2" width="24.8" height="58.3"/>
	<path id="XMLID_82_" class="st0" d="M813.5,333h-2c-3.5,0-6.4,2.9-6.4,6.4v18.2h14.8v-18.2C819.9,335.9,817,333,813.5,333z"/>
	<path id="XMLID_27_" class="st2" d="M813.5,333h-2c-3.5,0-6.4,2.9-6.4,6.4v18.2h14.8v-18.2C819.9,335.9,817,333,813.5,333z"/>
	<line id="XMLID_70_" class="st21" x1="710.7" y1="310.3" x2="753.7" y2="267.3"/>
	<line id="XMLID_85_" class="st21" x1="764.3" y1="297.8" x2="803.1" y2="259.1"/>
	<line id="XMLID_73_" class="st21" x1="723" y1="339.2" x2="750" y2="312.2"/>
</g>
<g>
	<line id="XMLID_36_" class="st10" x1="440.1" y1="238.1" x2="589.7" y2="238.1"/>
	<rect id="XMLID_105_" x="413.1" y="224" class="st11" width="27" height="28.2"/>
	<rect id="XMLID_30_" x="413.1" y="224" class="st2" width="27" height="28.2"/>
	<rect id="XMLID_104_" x="589.7" y="224" class="st11" width="27" height="28.2"/>
	<rect id="XMLID_34_" x="589.7" y="224" class="st2" width="27" height="28.2"/>
	<rect id="XMLID_103_" x="457" y="224" class="st22" width="118" height="171"/>
	<rect id="XMLID_88_" x="457" y="224" class="st23" width="118" height="18.5"/>
	<rect id="XMLID_33_" x="457" y="224" class="st2" width="118" height="171"/>
	<g id="XMLID_38_">
		<g>
			<line class="st24" x1="566.5" y1="409" x2="566.5" y2="395"/>
		</g>
		<g>
			<line class="st24" x1="552.5" y1="409" x2="552.5" y2="395"/>
		</g>
		<g>
			<line class="st24" x1="538.5" y1="409" x2="538.5" y2="395"/>
		</g>
		<g>
			<line class="st24" x1="524.5" y1="409" x2="524.5" y2="395"/>
		</g>
		<g>
			<line class="st24" x1="510.5" y1="409" x2="510.5" y2="395"/>
		</g>
		<g>
			<line class="st24" x1="496.5" y1="409" x2="496.5" y2="395"/>
		</g>
		<g>
			<line class="st24" x1="482.5" y1="409" x2="482.5" y2="395"/>
		</g>
		<g>
			<line class="st24" x1="468.5" y1="409" x2="468.5" y2="395"/>
		</g>
	</g>
	<line id="XMLID_41_" class="st2" x1="457" y1="363.7" x2="575" y2="363.7"/>
	<line id="XMLID_56_" class="st21" x1="500" y1="227.2" x2="500" y2="328"/>
	<line id="XMLID_57_" class="st21" x1="539.7" y1="227.2" x2="539.7" y2="292"/>
</g>
</svg>
