<?xml version="1.0" encoding="utf-8"?>
<!-- Generator: Adobe Illustrator 23.1.1, SVG Export Plug-In . SVG Version: 6.00 Build 0)  -->
<svg version="1.1" id="Layer_1" xmlns="http://www.w3.org/2000/svg" xmlns:xlink="http://www.w3.org/1999/xlink" x="0px" y="0px"
	 viewBox="0 0 1000 1000" style="enable-background:new 0 0 1000 1000;" xml:space="preserve">
<style type="text/css">
	.st0{fill:#FFFFFF;}
	.st1{fill:#F29B1C;}
	.st2{fill:#FFC417;}
	.st3{fill:none;stroke:#441A36;stroke-width:6;stroke-linecap:round;stroke-linejoin:round;stroke-miterlimit:10;}
	.st4{fill:#F1C6AD;}
	.st5{fill:#E9B192;}
	.st6{fill:#E4E8EC;}
	.st7{fill:#606060;}
	.st8{fill:#441A36;}
</style>
<rect class="st0" width="1000" height="1000"/>
<g>
	<circle class="st1" cx="608.1" cy="590.9" r="140.1"/>
	<path class="st2" d="M597.8,689.9c77.4,0,140.1-62.7,140.1-140.1c0-4.4-0.2-8.8-0.6-13.1c7,16.7,10.9,35,10.9,54.2
		c0,77.4-62.7,140.1-140.1,140.1c-73,0-132.9-55.8-139.5-127C489.8,654.4,539.7,689.9,597.8,689.9z"/>
	<circle class="st3" cx="608.1" cy="590.9" r="140.1"/>
</g>
<g>
	<circle class="st1" cx="372.5" cy="590.9" r="140.1"/>
	<path class="st2" d="M382.8,689.9c-77.4,0-140.1-62.7-140.1-140.1c0-4.4,0.2-8.8,0.6-13.1c-7,16.7-10.9,35-10.9,54.2
		c0,77.4,62.7,140.1,140.1,140.1c73,0,132.9-55.8,139.5-127C490.8,654.4,441,689.9,382.8,689.9z"/>
	<circle class="st3" cx="372.5" cy="590.9" r="140.1"/>
</g>
<g>
	<g>
		<ellipse class="st4" cx="687.5" cy="492.1" rx="50.4" ry="57.6"/>
		<path class="st5" d="M637.2,489.1c7.9,1.9,16.3,3,25.1,3c30.1,0,56.1-12.2,68.2-29.9c-8.8-16.6-24.8-27.8-43.1-27.8
			C660.6,434.4,638.6,458.7,637.2,489.1z"/>
		<ellipse class="st3" cx="687.5" cy="492.1" rx="50.4" ry="57.6"/>
	</g>
</g>
<g>
	<g>
		<ellipse class="st4" cx="303.6" cy="492.1" rx="50.4" ry="57.6"/>
		<path class="st5" d="M353.9,489.1c-7.9,1.9-22.9,17-31.7,18c-38.5,4.7-56.5-8.7-69-15.1c-10.1-5.1,3.7-21.9,7.3-29.9
			c8.8-16.6,24.8-27.8,43.1-27.8C330.6,434.4,352.6,458.7,353.9,489.1z"/>
		<ellipse class="st3" cx="303.6" cy="492.1" rx="50.4" ry="57.6"/>
	</g>
</g>
<ellipse class="st6" cx="495.6" cy="826" rx="258.3" ry="45.2"/>
<g>
	<g>
		<g>
			<g>
				<path class="st7" d="M63.2,959.2c0,2.5-1.2,3.7-2.6,3.7c-1.1,0-1.9-0.5-2.1-1.4c-0.4,0.5-1,0.8-1.8,0.8c-1.5,0-2.6-1.2-2.6-2.8
					s1.1-2.8,2.6-2.8c0.7,0,1.2,0.3,1.6,0.7v-0.5h1.6v3.9c0,0.8,0.3,1.4,1,1.4c0.9,0,1.7-0.9,1.7-3c0-3-2.3-5.3-5.4-5.3
					c-3.1,0-5.6,2.4-5.6,5.7s2.5,5.7,5.9,5.7c1.1,0,2.1-0.2,2.9-0.4v0.6c-0.8,0.3-1.7,0.4-2.9,0.4c-3.7,0-6.5-2.6-6.5-6.2
					c0-3.4,2.7-6.2,6.2-6.2C61.1,953.3,63.2,956.4,63.2,959.2z M58.3,959.5c0-0.8-0.6-1.4-1.3-1.4c-0.8,0-1.3,0.5-1.3,1.4
					c0,0.8,0.6,1.3,1.3,1.3C57.8,960.9,58.3,960.3,58.3,959.5z"/>
			</g>
		</g>
		<g>
			<g>
				<path class="st7" d="M69.4,955.1v2c-1.2-0.1-2.6,0.5-2.6,2.4v4.3h-1.9v-8.6h1.9v1.4C67.3,955.5,68.3,955.1,69.4,955.1z"/>
			</g>
		</g>
		<g>
			<g>
				<path class="st7" d="M74.6,962.3c1,0,1.8-0.5,2.2-1.1l1.5,0.9c-0.8,1.2-2.1,1.9-3.8,1.9c-2.8,0-4.7-1.9-4.7-4.5
					c0-2.5,1.8-4.5,4.5-4.5c2.6,0,4.3,2.1,4.3,4.5c0,0.3,0,0.5-0.1,0.8h-6.8C72.1,961.6,73.2,962.3,74.6,962.3z M76.9,958.8
					c-0.3-1.5-1.3-2.1-2.5-2.1c-1.4,0-2.3,0.8-2.6,2.1H76.9z"/>
			</g>
		</g>
		<g>
			<g>
				<path class="st7" d="M88.9,955.2v8.6H87v-1.2c-0.7,0.9-1.7,1.5-3,1.5c-2.3,0-4.3-2-4.3-4.5c0-2.6,1.9-4.5,4.3-4.5
					c1.3,0,2.3,0.5,3,1.4v-1.2L88.9,955.2L88.9,955.2z M87.1,959.5c0-1.6-1.2-2.7-2.7-2.7s-2.7,1.1-2.7,2.7c0,1.6,1.2,2.7,2.7,2.7
					C85.9,962.3,87.1,961.1,87.1,959.5z"/>
			</g>
		</g>
		<g>
			<g>
				<path class="st7" d="M91.1,951.3H93v12.5h-1.9V951.3z"/>
			</g>
		</g>
		<g>
			<g>
				<path class="st7" d="M102.9,955.2l-3.3,8.6h-2.1l-3.3-8.6h2l2.4,6.5l2.4-6.5H102.9z"/>
			</g>
		</g>
		<g>
			<g>
				<path class="st7" d="M104.2,955.2h1.9v8.9c0,2.4-1.2,3.5-3.5,3.3v-1.8c1.1,0.1,1.7-0.3,1.7-1.5L104.2,955.2L104.2,955.2z
					 M104,952.8c0-0.7,0.5-1.2,1.2-1.2s1.2,0.5,1.2,1.2c0,0.6-0.5,1.2-1.2,1.2S104,953.4,104,952.8z"/>
			</g>
		</g>
		<g>
			<g>
				<path class="st7" d="M116,955.2l-3.3,8.8c-0.8,2.2-2.2,3.3-4.2,3.2v-1.7c1.2,0.1,1.9-0.5,2.3-1.7l0.1-0.2l-3.6-8.4h2l2.6,6.2
					l2.2-6.2L116,955.2L116,955.2z"/>
			</g>
		</g>
	</g>
	<g>
		<g>
			<path class="st7" d="M58.9,938.7c0,2.1-1.5,3.8-3.6,3.8h-3v-7.6h3C57.4,934.9,58.9,936.6,58.9,938.7z M57.9,938.7
				c0-1.6-1.1-2.9-2.6-2.9h-2v5.7h2C56.8,941.6,57.9,940.3,57.9,938.7z"/>
		</g>
		<g>
			<path class="st7" d="M67,941.6v1h-4.6V935h4.5v1h-3.5v2.3h3.2v0.9h-3.2v2.4L67,941.6L67,941.6z"/>
		</g>
		<g>
			<path class="st7" d="M70,940.8l0.9-0.5c0.3,0.8,0.9,1.4,2,1.4s1.6-0.5,1.6-1.2c0-0.8-0.7-1-1.8-1.4c-1.2-0.4-2.4-0.8-2.4-2.2
				s1.1-2.2,2.4-2.2s2.2,0.7,2.6,1.7l-0.8,0.5c-0.3-0.7-0.8-1.2-1.7-1.2c-0.8,0-1.4,0.4-1.4,1.1c0,0.7,0.5,1,1.6,1.3
				c1.3,0.4,2.6,0.8,2.6,2.3c0,1.3-1.1,2.2-2.6,2.2C71.5,942.7,70.4,941.9,70,940.8z"/>
		</g>
		<g>
			<path class="st7" d="M80,934.9v7.6h-1v-7.6H80z"/>
		</g>
		<g>
			<path class="st7" d="M91.3,939.2c0,1.9-1.4,3.5-3.7,3.5c-2.4,0-4-1.8-4-4s1.7-4,4-4c1.4,0,2.7,0.8,3.3,1.8L90,937
				c-0.4-0.8-1.4-1.4-2.4-1.4c-1.8,0-3,1.3-3,3s1.2,3,3,3c1.6,0,2.5-0.9,2.7-2h-2.8v-0.9h3.8C91.3,938.7,91.3,939.2,91.3,939.2z"/>
		</g>
		<g>
			<path class="st7" d="M100.6,934.9v7.6h-0.8l-3.9-5.7v5.7h-1v-7.6h0.8l3.9,5.7v-5.7H100.6z"/>
		</g>
		<g>
			<path class="st7" d="M109.1,941.6v1h-4.6V935h4.5v1h-3.5v2.3h3.2v0.9h-3.2v2.4L109.1,941.6L109.1,941.6z"/>
		</g>
		<g>
			<path class="st7" d="M119.2,938.7c0,2.1-1.5,3.8-3.6,3.8h-3v-7.6h3C117.6,934.9,119.2,936.6,119.2,938.7z M118.2,938.7
				c0-1.6-1.1-2.9-2.6-2.9h-2v5.7h2C117.1,941.6,118.2,940.3,118.2,938.7z"/>
		</g>
		<g>
			<path class="st7" d="M133.2,940.4c0,1.2-1,2.2-2.2,2.2h-3.3V935h3c1.2,0,2.1,0.9,2.1,2.1c0,0.7-0.3,1.2-0.8,1.6
				C132.7,938.9,133.2,939.5,133.2,940.4z M128.7,935.8v2.3h2c0.6,0,1.1-0.5,1.1-1.2c0-0.6-0.5-1.2-1.1-1.2h-2V935.8z M132.2,940.3
				c0-0.7-0.5-1.2-1.2-1.2h-2.3v2.5h2.3C131.7,941.6,132.2,941,132.2,940.3z"/>
		</g>
		<g>
			<path class="st7" d="M139.4,939.4v3.1h-1v-3.1l-2.7-4.5h1.1l2.1,3.6l2.1-3.6h1.1L139.4,939.4z"/>
		</g>
	</g>
	<g>
		<g>
			<g>
				<g>
					<path class="st7" d="M846.1,938.7c0,2.1-1.5,3.8-3.6,3.8h-3v-7.6h3C844.6,934.9,846.1,936.6,846.1,938.7z M845.2,938.7
						c0-1.6-1.1-2.9-2.6-2.9h-2v5.7h2C844.1,941.6,845.2,940.3,845.2,938.7z"/>
				</g>
			</g>
			<g>
				<g>
					<path class="st7" d="M849.3,938.7c0-2.2,1.7-4,3.9-4s4,1.8,4,4s-1.7,4-4,4C851,942.7,849.3,940.9,849.3,938.7z M856.1,938.7
						c0-1.7-1.3-3-2.9-3c-1.7,0-2.9,1.3-2.9,3s1.3,3,2.9,3C854.9,941.7,856.1,940.4,856.1,938.7z"/>
				</g>
			</g>
			<g>
				<g>
					<path class="st7" d="M859.8,934.9h1.1l1.7,6.3l1.9-6.3h1l1.9,6.3l1.7-6.3h1.1l-2.2,7.6h-1.2l-1.8-6.1l-1.8,6.1H862L859.8,934.9
						z"/>
				</g>
			</g>
			<g>
				<g>
					<path class="st7" d="M879.3,934.9v7.6h-0.8l-3.9-5.7v5.7h-1v-7.6h0.8l3.9,5.7v-5.7H879.3z"/>
				</g>
			</g>
			<g>
				<g>
					<path class="st7" d="M887.5,941.6v1h-4.3V935h1v6.7h3.3V941.6z"/>
				</g>
			</g>
			<g>
				<g>
					<path class="st7" d="M889.9,938.7c0-2.2,1.7-4,3.9-4s4,1.8,4,4s-1.7,4-4,4C891.6,942.7,889.9,940.9,889.9,938.7z M896.8,938.7
						c0-1.7-1.3-3-2.9-3c-1.7,0-2.9,1.3-2.9,3s1.3,3,2.9,3S896.8,940.4,896.8,938.7z"/>
				</g>
			</g>
			<g>
				<g>
					<path class="st7" d="M905.4,940.8H902l-0.6,1.7h-1.1l2.8-7.6h1.1l2.8,7.6h-1L905.4,940.8z M905.1,939.9l-1.4-3.8l-1.4,3.8
						H905.1z"/>
				</g>
			</g>
			<g>
				<g>
					<path class="st7" d="M916.9,938.7c0,2.1-1.5,3.8-3.6,3.8h-3v-7.6h3C915.4,934.9,916.9,936.6,916.9,938.7z M915.9,938.7
						c0-1.6-1.1-2.9-2.6-2.9h-2v5.7h2C914.9,941.6,915.9,940.3,915.9,938.7z"/>
				</g>
			</g>
			<g>
				<g>
					<path class="st7" d="M926.5,935.8v2.5h3.2v1h-3.2v3.2h-1v-7.6h4.4v1h-3.4V935.8z"/>
				</g>
			</g>
			<g>
				<g>
					<path class="st7" d="M936.2,939.6h-1.8v2.9h-1v-7.6h3c1.3,0,2.4,1.1,2.4,2.4c0,1-0.7,1.9-1.6,2.2l1.8,3.1h-1.1L936.2,939.6z
						 M934.4,938.7h2c0.8,0,1.4-0.6,1.4-1.4c0-0.8-0.6-1.4-1.4-1.4h-2V938.7z"/>
				</g>
			</g>
			<g>
				<g>
					<path class="st7" d="M941.9,938.7c0-2.2,1.7-4,3.9-4s4,1.8,4,4s-1.7,4-4,4C943.6,942.7,941.9,940.9,941.9,938.7z M948.8,938.7
						c0-1.7-1.3-3-2.9-3c-1.7,0-2.9,1.3-2.9,3s1.3,3,2.9,3S948.8,940.4,948.8,938.7z"/>
				</g>
			</g>
			<g>
				<g>
					<path class="st7" d="M960.4,942.5h-1v-6l-2.5,4.2h-0.1l-2.5-4.1v5.9h-1v-7.6h1.1l2.4,4l2.4-4h1.1L960.4,942.5L960.4,942.5z"/>
				</g>
			</g>
		</g>
		<g>
			<g>
				<g>
					<path class="st7" d="M839.3,952.9c0-0.7,0.5-1.2,1.2-1.2s1.2,0.5,1.2,1.2s-0.5,1.2-1.2,1.2
						C839.9,954.1,839.3,953.6,839.3,952.9z M839.6,955.4h1.9v8.9h-1.9V955.4z"/>
				</g>
			</g>
			<g>
				<g>
					<path class="st7" d="M843.7,951.4h1.9v12.9h-1.9V951.4z"/>
				</g>
			</g>
			<g>
				<g>
					<path class="st7" d="M847.8,951.4h1.9v12.9h-1.9V951.4z"/>
				</g>
			</g>
			<g>
				<g>
					<path class="st7" d="M852,951.4h1.9v12.9H852V951.4z"/>
				</g>
			</g>
			<g>
				<g>
					<path class="st7" d="M864,955.4v8.9h-1.9v-1.1c-0.6,0.9-1.5,1.4-2.7,1.4c-2,0-3.4-1.3-3.4-3.6v-5.4h1.9v5.2
						c0,1.3,0.8,2.1,2,2.1c1.3,0,2.2-0.7,2.2-2.5v-4.7h1.9V955.4z"/>
				</g>
			</g>
			<g>
				<g>
					<path class="st7" d="M872.6,961.8c0,1.8-1.5,2.7-3.5,2.7c-1.8,0-3-0.8-3.6-2.1l1.6-1c0.3,0.8,1,1.3,2,1.3c0.8,0,1.5-0.3,1.5-1
						c0-1.6-4.8-0.7-4.8-3.9c0-1.7,1.4-2.7,3.2-2.7c1.5,0,2.7,0.7,3.3,1.8l-1.6,0.9c-0.3-0.7-0.9-1-1.7-1c-0.7,0-1.3,0.3-1.3,0.9
						C867.9,959.5,872.6,958.5,872.6,961.8z"/>
				</g>
			</g>
			<g>
				<g>
					<path class="st7" d="M876.7,957.3v4.2c0,1.1,0.7,1.1,2.2,1v1.7c-2.9,0.4-4.1-0.5-4.1-2.8v-4.2h-1.6v-1.8h1.6v-1.9l1.9-0.6v2.5
						h2.2v1.8L876.7,957.3L876.7,957.3z"/>
				</g>
			</g>
			<g>
				<g>
					<path class="st7" d="M885.4,955.3v2.1c-1.3-0.1-2.7,0.5-2.7,2.5v4.5h-1.9v-8.9h1.9v1.5C883.2,955.7,884.2,955.3,885.4,955.3z"
						/>
				</g>
			</g>
			<g>
				<g>
					<path class="st7" d="M895.3,955.4v8.9h-1.9V963c-0.7,0.9-1.7,1.5-3.1,1.5c-2.4,0-4.4-2-4.4-4.7c0-2.6,2-4.7,4.4-4.7
						c1.4,0,2.4,0.6,3.1,1.5v-1.3h1.9V955.4z M893.4,959.9c0-1.6-1.2-2.8-2.8-2.8s-2.8,1.2-2.8,2.8s1.2,2.8,2.8,2.8
						S893.4,961.5,893.4,959.9z"/>
				</g>
			</g>
			<g>
				<g>
					<path class="st7" d="M900.3,957.3v4.2c0,1.1,0.7,1.1,2.2,1v1.7c-2.9,0.4-4.1-0.5-4.1-2.8v-4.2h-1.6v-1.8h1.6v-1.9l1.9-0.6v2.5
						h2.2v1.8L900.3,957.3L900.3,957.3z"/>
				</g>
			</g>
			<g>
				<g>
					<path class="st7" d="M903.9,952.9c0-0.7,0.5-1.2,1.2-1.2s1.2,0.5,1.2,1.2s-0.5,1.2-1.2,1.2
						C904.5,954.1,903.9,953.6,903.9,952.9z M904.2,955.4h1.9v8.9h-1.9V955.4z"/>
				</g>
			</g>
			<g>
				<g>
					<path class="st7" d="M907.8,959.9c0-2.6,2.1-4.7,4.7-4.7c2.6,0,4.7,2,4.7,4.7c0,2.6-2.1,4.7-4.7,4.7
						C909.9,964.5,907.8,962.5,907.8,959.9z M915.3,959.9c0-1.6-1.2-2.8-2.8-2.8s-2.8,1.2-2.8,2.8s1.2,2.8,2.8,2.8
						S915.3,961.5,915.3,959.9z"/>
				</g>
			</g>
			<g>
				<g>
					<path class="st7" d="M927,958.9v5.4h-1.9v-5.2c0-1.3-0.8-2.1-2-2.1c-1.3,0-2.2,0.7-2.2,2.5v4.7H919v-8.9h1.9v1.1
						c0.6-0.9,1.5-1.4,2.7-1.4C925.5,955.2,927,956.6,927,958.9z"/>
				</g>
			</g>
			<g>
				<g>
					<path class="st7" d="M935.5,961.8c0,1.8-1.5,2.7-3.5,2.7c-1.8,0-3-0.8-3.6-2.1l1.6-1c0.3,0.8,1,1.3,2,1.3c0.8,0,1.5-0.3,1.5-1
						c0-1.6-4.8-0.7-4.8-3.9c0-1.7,1.4-2.7,3.2-2.7c1.5,0,2.7,0.7,3.3,1.8l-1.6,0.9c-0.3-0.7-0.9-1-1.7-1c-0.7,0-1.3,0.3-1.3,0.9
						C930.7,959.5,935.5,958.5,935.5,961.8z"/>
				</g>
			</g>
			<g>
				<g>
					<path class="st7" d="M936.8,963.2c0-0.7,0.6-1.3,1.3-1.3s1.3,0.6,1.3,1.3s-0.6,1.3-1.3,1.3
						C937.4,964.5,936.8,963.9,936.8,963.2z"/>
				</g>
			</g>
			<g>
				<g>
					<path class="st7" d="M940.3,959.9c0-2.6,2-4.7,4.7-4.7c1.7,0,3.2,0.9,3.9,2.3l-1.6,1c-0.4-0.8-1.3-1.4-2.3-1.4
						c-1.6,0-2.7,1.2-2.7,2.8s1.2,2.8,2.7,2.8c1.1,0,1.9-0.5,2.4-1.4l1.6,0.9c-0.7,1.4-2.2,2.3-4,2.3
						C942.3,964.5,940.3,962.5,940.3,959.9z"/>
				</g>
			</g>
			<g>
				<g>
					<path class="st7" d="M949.7,959.9c0-2.6,2.1-4.7,4.7-4.7c2.6,0,4.7,2,4.7,4.7c0,2.6-2.1,4.7-4.7,4.7
						C951.8,964.5,949.7,962.5,949.7,959.9z M957.2,959.9c0-1.6-1.2-2.8-2.8-2.8s-2.8,1.2-2.8,2.8s1.2,2.8,2.8,2.8
						S957.2,961.5,957.2,959.9z"/>
				</g>
			</g>
		</g>
	</g>
	<g>
		<path class="st7" d="M209.9,943.1c-1.2,0-2.2-0.4-3-1.2s-1.2-1.8-1.2-2.9c0-1.2,0.4-2.1,1.2-2.9c0.8-0.8,1.8-1.2,3-1.2
			c0.7,0,1.4,0.2,2,0.5s1.1,0.8,1.4,1.4l-0.9,0.5c-0.2-0.4-0.6-0.8-1-1s-0.9-0.4-1.5-0.4c-0.9,0-1.7,0.3-2.2,0.9
			c-0.6,0.6-0.9,1.3-0.9,2.2s0.3,1.6,0.9,2.2c0.6,0.6,1.3,0.9,2.2,0.9c0.5,0,1-0.1,1.5-0.4c0.5-0.3,0.8-0.6,1-1l0.9,0.5
			c-0.3,0.6-0.8,1.1-1.4,1.4S210.6,943.1,209.9,943.1z"/>
		<path class="st7" d="M222.1,941.9c-0.8,0.8-1.8,1.2-2.9,1.2s-2.1-0.4-2.9-1.2s-1.2-1.8-1.2-2.9c0-1.2,0.4-2.1,1.2-2.9
			c0.8-0.8,1.8-1.2,2.9-1.2s2.1,0.4,2.9,1.2c0.8,0.8,1.2,1.8,1.2,2.9C223.3,940.1,222.9,941.1,222.1,941.9z M217,941.2
			c0.6,0.6,1.3,0.9,2.2,0.9s1.6-0.3,2.2-0.9c0.6-0.6,0.9-1.3,0.9-2.2s-0.3-1.6-0.9-2.2c-0.6-0.6-1.3-0.9-2.2-0.9s-1.6,0.3-2.2,0.9
			c-0.6,0.6-0.9,1.3-0.9,2.2C216.1,939.8,216.4,940.6,217,941.2z"/>
		<path class="st7" d="M227.3,942.9l-2.8-7.9h1.1l2.3,6.6l2.3-6.6h1.1l-2.8,7.9H227.3z"/>
		<path class="st7" d="M233.3,935h1.1v7.9h-1.1V935z"/>
		<path class="st7" d="M240.2,935c1.1,0,2,0.4,2.7,1.2s1.1,1.7,1.1,2.8s-0.4,2.1-1.1,2.8c-0.7,0.8-1.6,1.2-2.7,1.2h-3.1v-8H240.2z
			 M240.2,941.9c0.8,0,1.5-0.3,2-0.9c0.5-0.6,0.8-1.3,0.8-2.1s-0.3-1.6-0.8-2.1c-0.5-0.6-1.2-0.9-2-0.9h-2v5.9L240.2,941.9
			L240.2,941.9z"/>
		<path class="st7" d="M246.2,939.9v-1h4.1v1H246.2z"/>
		<path class="st7" d="M251.6,935h5v0.9l-2.9,7h-1.1l2.9-6.9h-3.8L251.6,935L251.6,935z"/>
	</g>
	<g>
		<path class="st7" d="M209.7,965.1c-1.3,0-2.3-0.3-3.2-0.9c-0.9-0.6-1.5-1.4-1.8-2.3l1.8-1.1c0.5,1.5,1.6,2.2,3.2,2.2
			c0.8,0,1.4-0.2,1.8-0.5c0.4-0.3,0.6-0.7,0.6-1.2s-0.2-0.9-0.7-1.2c-0.4-0.3-1.2-0.6-2.3-0.9c-0.6-0.2-1.1-0.4-1.5-0.5
			c-0.4-0.2-0.8-0.4-1.2-0.7s-0.7-0.7-1-1.1c-0.2-0.4-0.3-0.9-0.3-1.5c0-1.2,0.4-2.1,1.2-2.7s1.8-1,3-1c1,0,2,0.3,2.7,0.8
			c0.8,0.5,1.4,1.2,1.8,2.1l-1.8,1c-0.5-1.2-1.5-1.8-2.7-1.8c-0.6,0-1.1,0.1-1.5,0.4c-0.4,0.3-0.6,0.7-0.6,1.2s0.2,0.9,0.6,1.1
			c0.4,0.3,1.1,0.6,2.1,0.9c0.5,0.2,0.9,0.3,1.1,0.4s0.6,0.2,1,0.4s0.7,0.3,0.9,0.5s0.4,0.4,0.7,0.7c0.2,0.3,0.4,0.6,0.5,0.9
			s0.1,0.7,0.1,1.1c0,1.2-0.4,2.1-1.3,2.8C212.2,964.7,211.1,965.1,209.7,965.1z"/>
		<path class="st7" d="M217.9,953.8c-0.3,0.3-0.6,0.4-0.9,0.4c-0.3,0-0.6-0.1-0.9-0.4c-0.3-0.3-0.4-0.6-0.4-0.9s0.1-0.6,0.4-0.9
			s0.6-0.4,0.9-0.4c0.4,0,0.7,0.1,0.9,0.4s0.4,0.6,0.4,0.9S218.2,953.5,217.9,953.8z M216,964.8v-9.3h2v9.3H216z"/>
		<path class="st7" d="M224.8,965.1c-1.4,0-2.6-0.5-3.5-1.4s-1.4-2.1-1.4-3.5s0.5-2.6,1.4-3.5s2.1-1.4,3.5-1.4
			c0.9,0,1.7,0.2,2.5,0.7c0.7,0.4,1.3,1,1.7,1.7l-1.7,1c-0.2-0.4-0.5-0.8-1-1.1s-0.9-0.4-1.5-0.4c-0.8,0-1.5,0.3-2.1,0.8
			c-0.6,0.6-0.8,1.3-0.8,2.1s0.3,1.5,0.8,2.1c0.6,0.6,1.2,0.8,2.1,0.8c0.5,0,1-0.1,1.5-0.4c0.4-0.3,0.8-0.6,1-1l1.7,1
			c-0.4,0.7-1,1.3-1.7,1.8S225.7,965.1,224.8,965.1z"/>
		<path class="st7" d="M238.6,964.8h-2.4l-3.8-4.3v4.3h-2v-13h2v7.8l3.6-4.1h2.5l-4.1,4.6L238.6,964.8z"/>
		<path class="st7" d="M249.1,965.1c-1.3,0-2.3-0.3-3.2-0.9c-0.9-0.6-1.5-1.4-1.8-2.3l1.8-1.1c0.5,1.5,1.6,2.2,3.2,2.2
			c0.8,0,1.4-0.2,1.8-0.5c0.4-0.3,0.6-0.7,0.6-1.2s-0.2-0.9-0.7-1.2c-0.4-0.3-1.2-0.6-2.3-0.9c-0.6-0.2-1.1-0.4-1.5-0.5
			c-0.4-0.2-0.8-0.4-1.2-0.7s-0.7-0.7-1-1.1c-0.2-0.4-0.3-0.9-0.3-1.5c0-1.2,0.4-2.1,1.2-2.7s1.8-1,3-1c1,0,2,0.3,2.7,0.8
			c0.8,0.5,1.4,1.2,1.8,2.1l-1.8,1c-0.5-1.2-1.5-1.8-2.7-1.8c-0.6,0-1.1,0.1-1.5,0.4c-0.4,0.3-0.6,0.7-0.6,1.2s0.2,0.9,0.6,1.1
			c0.4,0.3,1.1,0.6,2.1,0.9c0.5,0.2,0.9,0.3,1.1,0.4s0.6,0.2,1,0.4s0.7,0.3,0.9,0.5s0.4,0.4,0.7,0.7c0.2,0.3,0.4,0.6,0.5,0.9
			s0.1,0.7,0.1,1.1c0,1.2-0.4,2.1-1.3,2.8C251.6,964.7,250.5,965.1,249.1,965.1z"/>
		<path class="st7" d="M260.3,955.3c1.1,0,1.9,0.3,2.6,1s1,1.6,1,2.8v5.7h-2v-5.5c0-0.7-0.2-1.2-0.6-1.6c-0.4-0.4-0.9-0.6-1.5-0.6
			c-0.7,0-1.3,0.2-1.7,0.7c-0.4,0.4-0.7,1.1-0.7,2v5h-2v-9.3h2v1.2C258.1,955.8,259,955.3,260.3,955.3z"/>
		<path class="st7" d="M267.6,961c0.1,0.7,0.5,1.2,1,1.6s1.2,0.6,2,0.6c1.1,0,1.9-0.4,2.4-1.2l1.7,1c-0.9,1.4-2.3,2-4.1,2
			c-1.5,0-2.7-0.5-3.7-1.4c-0.9-0.9-1.4-2.1-1.4-3.5s0.5-2.6,1.4-3.5s2.1-1.4,3.5-1.4s2.5,0.5,3.4,1.4c0.9,1,1.3,2.1,1.3,3.5
			c0,0.2,0,0.5-0.1,0.8h-7.4L267.6,961L267.6,961z M267.6,959.4h5.5c-0.1-0.8-0.4-1.3-0.9-1.7s-1.1-0.6-1.7-0.6
			c-0.7,0-1.4,0.2-1.9,0.6S267.8,958.7,267.6,959.4z"/>
		<path class="st7" d="M278.4,961c0.1,0.7,0.5,1.2,1,1.6s1.2,0.6,2,0.6c1.1,0,1.9-0.4,2.4-1.2l1.7,1c-0.9,1.4-2.3,2-4.1,2
			c-1.5,0-2.7-0.5-3.7-1.4c-0.9-0.9-1.4-2.1-1.4-3.5s0.5-2.6,1.4-3.5s2.1-1.4,3.5-1.4s2.5,0.5,3.4,1.4c0.9,1,1.3,2.1,1.3,3.5
			c0,0.2,0,0.5-0.1,0.8h-7.4L278.4,961L278.4,961z M278.4,959.4h5.5c-0.1-0.8-0.4-1.3-0.9-1.7s-1.1-0.6-1.7-0.6
			c-0.7,0-1.4,0.2-1.9,0.6C278.8,958.1,278.5,958.7,278.4,959.4z"/>
		<path class="st7" d="M289.6,962.9h4.5v1.9h-7.3v-1.3l4.4-6.1H287v-1.9h6.9v1.3L289.6,962.9z"/>
		<path class="st7" d="M297.9,953.8c-0.3,0.3-0.6,0.4-0.9,0.4s-0.6-0.1-0.9-0.4c-0.3-0.3-0.4-0.6-0.4-0.9s0.1-0.6,0.4-0.9
			s0.6-0.4,0.9-0.4c0.4,0,0.7,0.1,0.9,0.4s0.4,0.6,0.4,0.9S298.1,953.5,297.9,953.8z M296,964.8v-9.3h2v9.3H296z"/>
		<path class="st7" d="M305.2,955.3c1.1,0,1.9,0.3,2.6,1s1,1.6,1,2.8v5.7h-2v-5.5c0-0.7-0.2-1.2-0.6-1.6c-0.4-0.4-0.9-0.6-1.5-0.6
			c-0.7,0-1.3,0.2-1.7,0.7c-0.4,0.4-0.7,1.1-0.7,2v5h-2v-9.3h2v1.2C302.9,955.8,303.9,955.3,305.2,955.3z"/>
		<path class="st7" d="M318.3,955.5h2v8.9c0,1.4-0.5,2.5-1.4,3.3s-2.1,1.1-3.4,1.1c-2.1,0-3.6-0.8-4.4-2.3l1.7-1
			c0.5,1,1.4,1.4,2.7,1.4c0.9,0,1.5-0.2,2-0.7s0.7-1.1,0.7-1.9v-1.1c-0.8,1.1-1.8,1.6-3.2,1.6c-1.3,0-2.4-0.5-3.3-1.4
			s-1.4-2.1-1.4-3.4s0.5-2.5,1.4-3.4s2-1.4,3.3-1.4c1.4,0,2.5,0.5,3.2,1.6L318.3,955.5L318.3,955.5z M313.3,962.2
			c0.6,0.6,1.3,0.8,2.1,0.8c0.8,0,1.5-0.3,2.1-0.8c0.6-0.6,0.8-1.3,0.8-2.1s-0.3-1.5-0.8-2.1c-0.6-0.6-1.3-0.8-2.1-0.8
			c-0.8,0-1.5,0.3-2.1,0.8c-0.6,0.6-0.8,1.3-0.8,2.1S312.7,961.6,313.3,962.2z"/>
	</g>
</g>
<path class="st4" d="M496.7,692.5L496.7,692.5C387.5,692.5,299,604,299,494.9V359.2h395.3v135.6C694.3,604,605.8,692.5,496.7,692.5z
	"/>
<path class="st5" d="M301.5,506.1c123.7,43.6,250-27.1,278.5-108.4c9.8,50,70.1,86.8,114.4,72.5c0-25.9-0.1-39.8-0.1-39.8
	l-123.6-73.5L299,431.5C299,431.5,299.1,498.5,301.5,506.1z"/>
<path class="st5" d="M496.7,667.9L496.7,667.9c-109.2,0-197.6-88.5-197.6-197.6V495c0,109.2,88.5,197.6,197.6,197.6l0,0
	c109.2,0,197.6-88.5,197.6-197.6v-24.7C694.3,579.4,605.8,667.9,496.7,667.9z"/>
<path class="st3" d="M496.7,692.5L496.7,692.5C387.5,692.5,299,604,299,494.9V359.2h395.3v135.6C694.3,604,605.8,692.5,496.7,692.5z
	"/>
<path class="st2" d="M716,382.6c0-116.6-103-206-224.5-206c-119,0-214.2,94.2-214.2,209.8c-20.1,39.4-14.2,60-9.5,69.5
	c24.2,48.3,142.4,50.2,221,6.4c40.9-22.9,75.6-58.4,90.5-79.3c0,0,52.3,89.2,125.5,64.2C726.6,439.6,741.3,405,716,382.6z"/>
<path class="st1" d="M584.5,373.4c-14.9,21-221.5,148.9-300.2,45.6c-6.4-8.4-5-12-6.9-32.6c-20.1,39.4-14.2,60-9.5,69.5
	c24.2,48.3,142.4,50.2,221,6.4c40.9-22.9,75.6-58.4,90.5-79.3c0,0,52.3,89.2,125.5,64.2c15-5.1,31.7-31.2,20.2-53.2
	C704.1,441.9,600.7,403.4,584.5,373.4z"/>
<path class="st3" d="M716,382.6c0-116.6-103-206-224.5-206c-119,0-214.2,94.2-214.2,209.8c-20.1,39.4-14.2,60-9.5,69.5
	c24.2,48.3,142.4,50.2,221,6.4c40.9-22.9,75.6-58.4,90.5-79.3c0,0,52.3,89.2,125.5,64.2C726.6,439.6,741.3,405,716,382.6z"/>
<path class="st3" d="M599.8,334.1c-4.1,19.2-16.1,51.2-50.3,82.5"/>
<path class="st3" d="M599.8,334.1"/>
<g>
	<g>
		<ellipse class="st0" cx="496.1" cy="616.4" rx="34.2" ry="17"/>
		<ellipse class="st3" cx="495.6" cy="617" rx="34.2" ry="17"/>
	</g>
	<g>
		<g>
			<ellipse class="st8" cx="577.7" cy="527.7" rx="16.5" ry="13.9"/>
			<path class="st3" d="M561.8,495.5c0,0,26.4,13,50.8-0.1"/>
		</g>
		<g>
			<ellipse class="st8" cx="413.5" cy="527.7" rx="16.5" ry="13.9"/>
			<path class="st3" d="M429.3,495.5c0,0-26.4,13-50.8-0.1"/>
		</g>
	</g>
	<path class="st3" d="M476.6,559.7c4.1,5.7,11.6,9.5,20.1,9.5c8.6,0,16-3.8,20.1-9.5"/>
</g>
</svg>
