<?xml version="1.0" encoding="utf-8"?>
<!-- Generator: Adobe Illustrator 24.1.0, SVG Export Plug-In . SVG Version: 6.00 Build 0)  -->
<svg version="1.1" id="Layer_1" xmlns="http://www.w3.org/2000/svg" xmlns:xlink="http://www.w3.org/1999/xlink" x="0px" y="0px"
	 viewBox="0 0 1000 1000" style="enable-background:new 0 0 1000 1000;" xml:space="preserve">
<style type="text/css">
	.st0{fill:#FFFFFF;}
	.st1{fill:#E4E8EC;}
	.st2{fill:#606060;}
	.st3{fill:#FF901B;}
	.st4{fill:#00E7E9;}
	.st5{fill:#00D1C5;}
	.st6{fill:#FFF4E4;}
	.st7{fill:none;stroke:#171819;stroke-width:6;stroke-linecap:round;stroke-linejoin:round;stroke-miterlimit:10;}
	.st8{fill:#FFDEC5;}
	.st9{fill:#EFB58E;}
	.st10{fill:#171819;}
	.st11{fill:#B0AEFA;}
	.st12{fill:#DCDBFF;}
	.st13{fill:#FF9472;}
	.st14{fill:#EF7756;}
	.st15{fill:#FF4F7C;}
</style>
<rect class="st0" width="1000" height="1000"/>
<ellipse class="st1" cx="514.9" cy="787.6" rx="389.7" ry="45.2"/>
<g>
	<g>
		<g>
			<g>
				<path class="st2" d="M63.2,959.2c0,2.5-1.2,3.7-2.6,3.7c-1.1,0-1.9-0.5-2.1-1.4c-0.4,0.5-1,0.8-1.8,0.8c-1.5,0-2.6-1.2-2.6-2.8
					s1.1-2.8,2.6-2.8c0.7,0,1.2,0.3,1.6,0.7v-0.5h1.6v3.9c0,0.8,0.3,1.4,1,1.4c0.9,0,1.7-0.9,1.7-3c0-3-2.3-5.3-5.4-5.3
					c-3.1,0-5.6,2.4-5.6,5.7s2.5,5.7,5.9,5.7c1.1,0,2.1-0.2,2.9-0.4v0.6c-0.8,0.3-1.7,0.4-2.9,0.4c-3.7,0-6.5-2.6-6.5-6.2
					c0-3.4,2.7-6.2,6.2-6.2C61.1,953.3,63.2,956.4,63.2,959.2z M58.3,959.5c0-0.8-0.6-1.4-1.3-1.4c-0.8,0-1.3,0.5-1.3,1.4
					c0,0.8,0.6,1.3,1.3,1.3C57.8,960.9,58.3,960.3,58.3,959.5z"/>
			</g>
		</g>
		<g>
			<g>
				<path class="st2" d="M69.4,955.1v2c-1.2-0.1-2.6,0.5-2.6,2.4v4.3h-1.9v-8.6h1.9v1.4C67.3,955.5,68.3,955.1,69.4,955.1z"/>
			</g>
		</g>
		<g>
			<g>
				<path class="st2" d="M74.6,962.3c1,0,1.8-0.5,2.2-1.1l1.5,0.9c-0.8,1.2-2.1,1.9-3.8,1.9c-2.8,0-4.7-1.9-4.7-4.5
					c0-2.5,1.8-4.5,4.5-4.5c2.6,0,4.3,2.1,4.3,4.5c0,0.3,0,0.5-0.1,0.8h-6.8C72.1,961.6,73.2,962.3,74.6,962.3z M76.9,958.8
					c-0.3-1.5-1.3-2.1-2.5-2.1c-1.4,0-2.3,0.8-2.6,2.1H76.9z"/>
			</g>
		</g>
		<g>
			<g>
				<path class="st2" d="M88.9,955.2v8.6H87v-1.2c-0.7,0.9-1.7,1.5-3,1.5c-2.3,0-4.3-2-4.3-4.5c0-2.6,1.9-4.5,4.3-4.5
					c1.3,0,2.3,0.5,3,1.4v-1.2L88.9,955.2L88.9,955.2z M87.1,959.5c0-1.6-1.2-2.7-2.7-2.7s-2.7,1.1-2.7,2.7c0,1.6,1.2,2.7,2.7,2.7
					C85.9,962.3,87.1,961.1,87.1,959.5z"/>
			</g>
		</g>
		<g>
			<g>
				<path class="st2" d="M91.1,951.3H93v12.5h-1.9V951.3z"/>
			</g>
		</g>
		<g>
			<g>
				<path class="st2" d="M102.9,955.2l-3.3,8.6h-2.1l-3.3-8.6h2l2.4,6.5l2.4-6.5H102.9z"/>
			</g>
		</g>
		<g>
			<g>
				<path class="st2" d="M104.2,955.2h1.9v8.9c0,2.4-1.2,3.5-3.5,3.3v-1.8c1.1,0.1,1.7-0.3,1.7-1.5L104.2,955.2L104.2,955.2z
					 M104,952.8c0-0.7,0.5-1.2,1.2-1.2s1.2,0.5,1.2,1.2c0,0.6-0.5,1.2-1.2,1.2S104,953.4,104,952.8z"/>
			</g>
		</g>
		<g>
			<g>
				<path class="st2" d="M116,955.2l-3.3,8.8c-0.8,2.2-2.2,3.3-4.2,3.2v-1.7c1.2,0.1,1.9-0.5,2.3-1.7l0.1-0.2l-3.6-8.4h2l2.6,6.2
					l2.2-6.2L116,955.2L116,955.2z"/>
			</g>
		</g>
	</g>
	<g>
		<g>
			<path class="st2" d="M58.9,938.7c0,2.1-1.5,3.8-3.6,3.8h-3v-7.6h3C57.4,934.9,58.9,936.6,58.9,938.7z M57.9,938.7
				c0-1.6-1.1-2.9-2.6-2.9h-2v5.7h2C56.8,941.6,57.9,940.3,57.9,938.7z"/>
		</g>
		<g>
			<path class="st2" d="M67,941.6v1h-4.6V935h4.5v1h-3.5v2.3h3.2v0.9h-3.2v2.4L67,941.6L67,941.6z"/>
		</g>
		<g>
			<path class="st2" d="M70,940.8l0.9-0.5c0.3,0.8,0.9,1.4,2,1.4s1.6-0.5,1.6-1.2c0-0.8-0.7-1-1.8-1.4c-1.2-0.4-2.4-0.8-2.4-2.2
				s1.1-2.2,2.4-2.2s2.2,0.7,2.6,1.7l-0.8,0.5c-0.3-0.7-0.8-1.2-1.7-1.2c-0.8,0-1.4,0.4-1.4,1.1c0,0.7,0.5,1,1.6,1.3
				c1.3,0.4,2.6,0.8,2.6,2.3c0,1.3-1.1,2.2-2.6,2.2C71.5,942.7,70.4,941.9,70,940.8z"/>
		</g>
		<g>
			<path class="st2" d="M80,934.9v7.6h-1v-7.6H80z"/>
		</g>
		<g>
			<path class="st2" d="M91.3,939.2c0,1.9-1.4,3.5-3.7,3.5c-2.4,0-4-1.8-4-4s1.7-4,4-4c1.4,0,2.7,0.8,3.3,1.8L90,937
				c-0.4-0.8-1.4-1.4-2.4-1.4c-1.8,0-3,1.3-3,3s1.2,3,3,3c1.6,0,2.5-0.9,2.7-2h-2.8v-0.9h3.8V939.2z"/>
		</g>
		<g>
			<path class="st2" d="M100.6,934.9v7.6h-0.8l-3.9-5.7v5.7h-1v-7.6h0.8l3.9,5.7v-5.7H100.6z"/>
		</g>
		<g>
			<path class="st2" d="M109.1,941.6v1h-4.6V935h4.5v1h-3.5v2.3h3.2v0.9h-3.2v2.4L109.1,941.6L109.1,941.6z"/>
		</g>
		<g>
			<path class="st2" d="M119.2,938.7c0,2.1-1.5,3.8-3.6,3.8h-3v-7.6h3C117.6,934.9,119.2,936.6,119.2,938.7z M118.2,938.7
				c0-1.6-1.1-2.9-2.6-2.9h-2v5.7h2C117.1,941.6,118.2,940.3,118.2,938.7z"/>
		</g>
		<g>
			<path class="st2" d="M133.2,940.4c0,1.2-1,2.2-2.2,2.2h-3.3V935h3c1.2,0,2.1,0.9,2.1,2.1c0,0.7-0.3,1.2-0.8,1.6
				C132.7,938.9,133.2,939.5,133.2,940.4z M128.7,935.8v2.3h2c0.6,0,1.1-0.5,1.1-1.2c0-0.6-0.5-1.2-1.1-1.2h-2V935.8z M132.2,940.3
				c0-0.7-0.5-1.2-1.2-1.2h-2.3v2.5h2.3C131.7,941.6,132.2,941,132.2,940.3z"/>
		</g>
		<g>
			<path class="st2" d="M139.4,939.4v3.1h-1v-3.1l-2.7-4.5h1.1l2.1,3.6l2.1-3.6h1.1L139.4,939.4z"/>
		</g>
	</g>
	<g>
		<g>
			<g>
				<g>
					<path class="st2" d="M846.1,938.7c0,2.1-1.5,3.8-3.6,3.8h-3v-7.6h3C844.6,934.9,846.1,936.6,846.1,938.7z M845.2,938.7
						c0-1.6-1.1-2.9-2.6-2.9h-2v5.7h2C844.1,941.6,845.2,940.3,845.2,938.7z"/>
				</g>
			</g>
			<g>
				<g>
					<path class="st2" d="M849.3,938.7c0-2.2,1.7-4,3.9-4s4,1.8,4,4s-1.7,4-4,4C851,942.7,849.3,940.9,849.3,938.7z M856.1,938.7
						c0-1.7-1.3-3-2.9-3c-1.7,0-2.9,1.3-2.9,3s1.3,3,2.9,3C854.9,941.7,856.1,940.4,856.1,938.7z"/>
				</g>
			</g>
			<g>
				<g>
					<path class="st2" d="M859.8,934.9h1.1l1.7,6.3l1.9-6.3h1l1.9,6.3l1.7-6.3h1.1l-2.2,7.6h-1.2l-1.8-6.1l-1.8,6.1H862L859.8,934.9
						z"/>
				</g>
			</g>
			<g>
				<g>
					<path class="st2" d="M879.3,934.9v7.6h-0.8l-3.9-5.7v5.7h-1v-7.6h0.8l3.9,5.7v-5.7H879.3z"/>
				</g>
			</g>
			<g>
				<g>
					<path class="st2" d="M887.5,941.6v1h-4.3V935h1v6.7h3.3V941.6z"/>
				</g>
			</g>
			<g>
				<g>
					<path class="st2" d="M889.9,938.7c0-2.2,1.7-4,3.9-4s4,1.8,4,4s-1.7,4-4,4C891.6,942.7,889.9,940.9,889.9,938.7z M896.8,938.7
						c0-1.7-1.3-3-2.9-3c-1.7,0-2.9,1.3-2.9,3s1.3,3,2.9,3S896.8,940.4,896.8,938.7z"/>
				</g>
			</g>
			<g>
				<g>
					<path class="st2" d="M905.4,940.8H902l-0.6,1.7h-1.1l2.8-7.6h1.1l2.8,7.6h-1L905.4,940.8z M905.1,939.9l-1.4-3.8l-1.4,3.8
						H905.1z"/>
				</g>
			</g>
			<g>
				<g>
					<path class="st2" d="M916.9,938.7c0,2.1-1.5,3.8-3.6,3.8h-3v-7.6h3C915.4,934.9,916.9,936.6,916.9,938.7z M915.9,938.7
						c0-1.6-1.1-2.9-2.6-2.9h-2v5.7h2C914.9,941.6,915.9,940.3,915.9,938.7z"/>
				</g>
			</g>
			<g>
				<g>
					<path class="st2" d="M926.5,935.8v2.5h3.2v1h-3.2v3.2h-1v-7.6h4.4v1h-3.4V935.8z"/>
				</g>
			</g>
			<g>
				<g>
					<path class="st2" d="M936.2,939.6h-1.8v2.9h-1v-7.6h3c1.3,0,2.4,1.1,2.4,2.4c0,1-0.7,1.9-1.6,2.2l1.8,3.1h-1.1L936.2,939.6z
						 M934.4,938.7h2c0.8,0,1.4-0.6,1.4-1.4c0-0.8-0.6-1.4-1.4-1.4h-2V938.7z"/>
				</g>
			</g>
			<g>
				<g>
					<path class="st2" d="M941.9,938.7c0-2.2,1.7-4,3.9-4s4,1.8,4,4s-1.7,4-4,4C943.6,942.7,941.9,940.9,941.9,938.7z M948.8,938.7
						c0-1.7-1.3-3-2.9-3c-1.7,0-2.9,1.3-2.9,3s1.3,3,2.9,3S948.8,940.4,948.8,938.7z"/>
				</g>
			</g>
			<g>
				<g>
					<path class="st2" d="M960.4,942.5h-1v-6l-2.5,4.2h-0.1l-2.5-4.1v5.9h-1v-7.6h1.1l2.4,4l2.4-4h1.1L960.4,942.5L960.4,942.5z"/>
				</g>
			</g>
		</g>
		<g>
			<g>
				<g>
					<path class="st2" d="M839.3,952.9c0-0.7,0.5-1.2,1.2-1.2s1.2,0.5,1.2,1.2s-0.5,1.2-1.2,1.2
						C839.9,954.1,839.3,953.6,839.3,952.9z M839.6,955.4h1.9v8.9h-1.9V955.4z"/>
				</g>
			</g>
			<g>
				<g>
					<path class="st2" d="M843.7,951.4h1.9v12.9h-1.9V951.4z"/>
				</g>
			</g>
			<g>
				<g>
					<path class="st2" d="M847.8,951.4h1.9v12.9h-1.9V951.4z"/>
				</g>
			</g>
			<g>
				<g>
					<path class="st2" d="M852,951.4h1.9v12.9H852V951.4z"/>
				</g>
			</g>
			<g>
				<g>
					<path class="st2" d="M864,955.4v8.9h-1.9v-1.1c-0.6,0.9-1.5,1.4-2.7,1.4c-2,0-3.4-1.3-3.4-3.6v-5.4h1.9v5.2
						c0,1.3,0.8,2.1,2,2.1c1.3,0,2.2-0.7,2.2-2.5v-4.7h1.9V955.4z"/>
				</g>
			</g>
			<g>
				<g>
					<path class="st2" d="M872.6,961.8c0,1.8-1.5,2.7-3.5,2.7c-1.8,0-3-0.8-3.6-2.1l1.6-1c0.3,0.8,1,1.3,2,1.3c0.8,0,1.5-0.3,1.5-1
						c0-1.6-4.8-0.7-4.8-3.9c0-1.7,1.4-2.7,3.2-2.7c1.5,0,2.7,0.7,3.3,1.8l-1.6,0.9c-0.3-0.7-0.9-1-1.7-1c-0.7,0-1.3,0.3-1.3,0.9
						C867.9,959.5,872.6,958.5,872.6,961.8z"/>
				</g>
			</g>
			<g>
				<g>
					<path class="st2" d="M876.7,957.3v4.2c0,1.1,0.7,1.1,2.2,1v1.7c-2.9,0.4-4.1-0.5-4.1-2.8v-4.2h-1.6v-1.8h1.6v-1.9l1.9-0.6v2.5
						h2.2v1.8L876.7,957.3L876.7,957.3z"/>
				</g>
			</g>
			<g>
				<g>
					<path class="st2" d="M885.4,955.3v2.1c-1.3-0.1-2.7,0.5-2.7,2.5v4.5h-1.9v-8.9h1.9v1.5C883.2,955.7,884.2,955.3,885.4,955.3z"
						/>
				</g>
			</g>
			<g>
				<g>
					<path class="st2" d="M895.3,955.4v8.9h-1.9V963c-0.7,0.9-1.7,1.5-3.1,1.5c-2.4,0-4.4-2-4.4-4.7c0-2.6,2-4.7,4.4-4.7
						c1.4,0,2.4,0.6,3.1,1.5v-1.3h1.9V955.4z M893.4,959.9c0-1.6-1.2-2.8-2.8-2.8s-2.8,1.2-2.8,2.8s1.2,2.8,2.8,2.8
						S893.4,961.5,893.4,959.9z"/>
				</g>
			</g>
			<g>
				<g>
					<path class="st2" d="M900.3,957.3v4.2c0,1.1,0.7,1.1,2.2,1v1.7c-2.9,0.4-4.1-0.5-4.1-2.8v-4.2h-1.6v-1.8h1.6v-1.9l1.9-0.6v2.5
						h2.2v1.8L900.3,957.3L900.3,957.3z"/>
				</g>
			</g>
			<g>
				<g>
					<path class="st2" d="M903.9,952.9c0-0.7,0.5-1.2,1.2-1.2s1.2,0.5,1.2,1.2s-0.5,1.2-1.2,1.2
						C904.5,954.1,903.9,953.6,903.9,952.9z M904.2,955.4h1.9v8.9h-1.9V955.4z"/>
				</g>
			</g>
			<g>
				<g>
					<path class="st2" d="M907.8,959.9c0-2.6,2.1-4.7,4.7-4.7c2.6,0,4.7,2,4.7,4.7c0,2.6-2.1,4.7-4.7,4.7
						C909.9,964.5,907.8,962.5,907.8,959.9z M915.3,959.9c0-1.6-1.2-2.8-2.8-2.8s-2.8,1.2-2.8,2.8s1.2,2.8,2.8,2.8
						S915.3,961.5,915.3,959.9z"/>
				</g>
			</g>
			<g>
				<g>
					<path class="st2" d="M927,958.9v5.4h-1.9v-5.2c0-1.3-0.8-2.1-2-2.1c-1.3,0-2.2,0.7-2.2,2.5v4.7H919v-8.9h1.9v1.1
						c0.6-0.9,1.5-1.4,2.7-1.4C925.5,955.2,927,956.6,927,958.9z"/>
				</g>
			</g>
			<g>
				<g>
					<path class="st2" d="M935.5,961.8c0,1.8-1.5,2.7-3.5,2.7c-1.8,0-3-0.8-3.6-2.1l1.6-1c0.3,0.8,1,1.3,2,1.3c0.8,0,1.5-0.3,1.5-1
						c0-1.6-4.8-0.7-4.8-3.9c0-1.7,1.4-2.7,3.2-2.7c1.5,0,2.7,0.7,3.3,1.8l-1.6,0.9c-0.3-0.7-0.9-1-1.7-1c-0.7,0-1.3,0.3-1.3,0.9
						C930.7,959.5,935.5,958.5,935.5,961.8z"/>
				</g>
			</g>
			<g>
				<g>
					<path class="st2" d="M936.8,963.2c0-0.7,0.6-1.3,1.3-1.3s1.3,0.6,1.3,1.3s-0.6,1.3-1.3,1.3
						C937.4,964.5,936.8,963.9,936.8,963.2z"/>
				</g>
			</g>
			<g>
				<g>
					<path class="st2" d="M940.3,959.9c0-2.6,2-4.7,4.7-4.7c1.7,0,3.2,0.9,3.9,2.3l-1.6,1c-0.4-0.8-1.3-1.4-2.3-1.4
						c-1.6,0-2.7,1.2-2.7,2.8s1.2,2.8,2.7,2.8c1.1,0,1.9-0.5,2.4-1.4l1.6,0.9c-0.7,1.4-2.2,2.3-4,2.3
						C942.3,964.5,940.3,962.5,940.3,959.9z"/>
				</g>
			</g>
			<g>
				<g>
					<path class="st2" d="M949.7,959.9c0-2.6,2.1-4.7,4.7-4.7c2.6,0,4.7,2,4.7,4.7c0,2.6-2.1,4.7-4.7,4.7
						C951.8,964.5,949.7,962.5,949.7,959.9z M957.2,959.9c0-1.6-1.2-2.8-2.8-2.8s-2.8,1.2-2.8,2.8s1.2,2.8,2.8,2.8
						S957.2,961.5,957.2,959.9z"/>
				</g>
			</g>
		</g>
	</g>
	<g>
		<path class="st2" d="M209.9,943.1c-1.2,0-2.2-0.4-3-1.2c-0.8-0.8-1.2-1.8-1.2-2.9c0-1.2,0.4-2.1,1.2-2.9c0.8-0.8,1.8-1.2,3-1.2
			c0.7,0,1.4,0.2,2,0.5c0.6,0.3,1.1,0.8,1.4,1.4l-0.9,0.5c-0.2-0.4-0.6-0.8-1-1s-0.9-0.4-1.5-0.4c-0.9,0-1.7,0.3-2.2,0.9
			c-0.6,0.6-0.9,1.3-0.9,2.2c0,0.9,0.3,1.6,0.9,2.2c0.6,0.6,1.3,0.9,2.2,0.9c0.5,0,1-0.1,1.5-0.4c0.5-0.3,0.8-0.6,1-1l0.9,0.5
			c-0.3,0.6-0.8,1.1-1.4,1.4C211.3,942.9,210.6,943.1,209.9,943.1z"/>
		<path class="st2" d="M222.1,941.9c-0.8,0.8-1.8,1.2-2.9,1.2s-2.1-0.4-2.9-1.2s-1.2-1.8-1.2-2.9c0-1.2,0.4-2.1,1.2-2.9
			c0.8-0.8,1.8-1.2,2.9-1.2s2.1,0.4,2.9,1.2c0.8,0.8,1.2,1.8,1.2,2.9C223.3,940.1,222.9,941.1,222.1,941.9z M217,941.2
			c0.6,0.6,1.3,0.9,2.2,0.9s1.6-0.3,2.2-0.9c0.6-0.6,0.9-1.3,0.9-2.2c0-0.9-0.3-1.6-0.9-2.2c-0.6-0.6-1.3-0.9-2.2-0.9
			s-1.6,0.3-2.2,0.9c-0.6,0.6-0.9,1.3-0.9,2.2C216.1,939.8,216.4,940.6,217,941.2z"/>
		<path class="st2" d="M227.3,942.9l-2.8-7.9h1.1l2.3,6.6l2.3-6.6h1.1l-2.8,7.9H227.3z"/>
		<path class="st2" d="M233.3,935h1.1v7.9h-1.1V935z"/>
		<path class="st2" d="M240.2,935c1.1,0,2,0.4,2.7,1.2c0.7,0.8,1.1,1.7,1.1,2.8s-0.4,2.1-1.1,2.8c-0.7,0.8-1.6,1.2-2.7,1.2h-3.1V935
			H240.2z M240.2,941.9c0.8,0,1.5-0.3,2-0.9c0.5-0.6,0.8-1.3,0.8-2.1s-0.3-1.6-0.8-2.1c-0.5-0.6-1.2-0.9-2-0.9h-2v5.9H240.2z"/>
		<path class="st2" d="M246.2,939.9v-1h4.1v1H246.2z"/>
		<path class="st2" d="M252.6,942.9v-0.9l2.8-2.9c0.7-0.7,1.1-1.4,1.1-1.9c0-0.4-0.1-0.8-0.4-1c-0.3-0.2-0.6-0.4-1-0.4
			c-0.7,0-1.3,0.4-1.6,1.1l-0.9-0.5c0.2-0.5,0.6-0.9,1-1.2s0.9-0.4,1.5-0.4c0.7,0,1.2,0.2,1.7,0.7c0.5,0.4,0.7,1,0.7,1.8
			c0,0.8-0.5,1.7-1.4,2.6l-2,2h3.6v1H252.6z"/>
	</g>
	<g>
		<path class="st2" d="M208.1,964.8l-3.7-13h2.3l2.7,10.2l3-10.2h2l2.9,10.2l2.7-10.2h2.3l-3.7,13h-2.5l-2.8-9.5l-2.8,9.5H208.1z"/>
		<path class="st2" d="M227.1,965.1c-1.4,0-2.5-0.5-3.5-1.4s-1.4-2.1-1.4-3.5c0-1.4,0.5-2.5,1.4-3.5s2.1-1.4,3.5-1.4
			c1.4,0,2.5,0.5,3.5,1.4s1.4,2.1,1.4,3.5c0,1.4-0.5,2.5-1.4,3.5S228.5,965.1,227.1,965.1z M225,962.3c0.6,0.6,1.2,0.8,2.1,0.8
			c0.8,0,1.5-0.3,2.1-0.8c0.6-0.6,0.8-1.3,0.8-2.1s-0.3-1.5-0.8-2.1c-0.6-0.6-1.2-0.8-2.1-0.8c-0.8,0-1.5,0.3-2.1,0.8
			c-0.6,0.6-0.8,1.3-0.8,2.1S224.5,961.7,225,962.3z"/>
		<path class="st2" d="M235.8,957.1c0.5-1.2,1.5-1.7,2.9-1.7v2.2c-0.8,0-1.4,0.1-2,0.5c-0.6,0.4-0.9,1.1-0.9,2.1v4.7h-2v-9.3h2
			V957.1z"/>
		<path class="st2" d="M248.4,964.8H246l-3.8-4.3v4.3h-2v-13h2v7.8l3.6-4.1h2.5l-4.1,4.6L248.4,964.8z"/>
		<path class="st2" d="M262.2,953.9h-5.5v3.6h5.3v2h-5.3v5.3h-2.1v-13h7.6V953.9z"/>
		<path class="st2" d="M266.1,957.1c0.5-1.2,1.5-1.7,2.9-1.7v2.2c-0.8,0-1.4,0.1-2,0.5c-0.6,0.4-0.9,1.1-0.9,2.1v4.7h-2v-9.3h2
			V957.1z"/>
		<path class="st2" d="M274.4,965.1c-1.4,0-2.5-0.5-3.5-1.4s-1.4-2.1-1.4-3.5c0-1.4,0.5-2.5,1.4-3.5s2.1-1.4,3.5-1.4
			c1.4,0,2.5,0.5,3.5,1.4s1.4,2.1,1.4,3.5c0,1.4-0.5,2.5-1.4,3.5S275.7,965.1,274.4,965.1z M272.3,962.3c0.6,0.6,1.2,0.8,2.1,0.8
			c0.8,0,1.5-0.3,2.1-0.8c0.6-0.6,0.8-1.3,0.8-2.1s-0.3-1.5-0.8-2.1c-0.6-0.6-1.2-0.8-2.1-0.8c-0.8,0-1.5,0.3-2.1,0.8
			c-0.6,0.6-0.8,1.3-0.8,2.1S271.7,961.7,272.3,962.3z"/>
		<path class="st2" d="M291.3,955.3c1.1,0,1.9,0.3,2.5,1s1,1.6,1,2.8v5.8h-2v-5.6c0-0.6-0.2-1.1-0.5-1.5s-0.8-0.5-1.3-0.5
			c-0.6,0-1.1,0.2-1.5,0.6c-0.4,0.4-0.5,1-0.5,1.8v5.2h-2v-5.6c0-0.6-0.2-1.1-0.5-1.5c-0.3-0.4-0.7-0.5-1.3-0.5
			c-0.6,0-1.1,0.2-1.5,0.6c-0.4,0.4-0.6,1-0.6,1.8v5.2h-2v-9.3h2v1.1c0.6-0.9,1.5-1.4,2.7-1.4c1.2,0,2.1,0.5,2.6,1.5
			C289,955.8,290,955.3,291.3,955.3z"/>
		<path class="st2" d="M309.4,951.8h2.1v13h-2.1v-5.6h-5.6v5.6h-2.1v-13h2.1v5.3h5.6V951.8z"/>
		<path class="st2" d="M318.4,965.1c-1.4,0-2.5-0.5-3.5-1.4s-1.4-2.1-1.4-3.5c0-1.4,0.5-2.5,1.4-3.5s2.1-1.4,3.5-1.4
			c1.4,0,2.5,0.5,3.5,1.4s1.4,2.1,1.4,3.5c0,1.4-0.5,2.5-1.4,3.5S319.8,965.1,318.4,965.1z M316.4,962.3c0.6,0.6,1.2,0.8,2.1,0.8
			c0.8,0,1.5-0.3,2.1-0.8c0.6-0.6,0.8-1.3,0.8-2.1s-0.3-1.5-0.8-2.1c-0.6-0.6-1.2-0.8-2.1-0.8c-0.8,0-1.5,0.3-2.1,0.8
			c-0.6,0.6-0.8,1.3-0.8,2.1S315.8,961.7,316.4,962.3z"/>
		<path class="st2" d="M335.3,955.3c1.1,0,1.9,0.3,2.5,1s1,1.6,1,2.8v5.8h-2v-5.6c0-0.6-0.2-1.1-0.5-1.5s-0.8-0.5-1.3-0.5
			c-0.6,0-1.1,0.2-1.5,0.6c-0.4,0.4-0.5,1-0.5,1.8v5.2h-2v-5.6c0-0.6-0.2-1.1-0.5-1.5c-0.3-0.4-0.7-0.5-1.3-0.5
			c-0.6,0-1.1,0.2-1.5,0.6c-0.4,0.4-0.6,1-0.6,1.8v5.2h-2v-9.3h2v1.1c0.6-0.9,1.5-1.4,2.7-1.4c1.2,0,2.1,0.5,2.6,1.5
			C333.1,955.8,334.1,955.3,335.3,955.3z"/>
		<path class="st2" d="M342.6,961c0.1,0.7,0.5,1.2,1,1.6s1.2,0.6,2,0.6c1.1,0,1.9-0.4,2.4-1.2l1.7,1c-0.9,1.4-2.3,2-4.1,2
			c-1.5,0-2.7-0.5-3.7-1.4c-0.9-0.9-1.4-2.1-1.4-3.5c0-1.4,0.5-2.6,1.4-3.5c0.9-0.9,2.1-1.4,3.5-1.4c1.4,0,2.5,0.5,3.4,1.4
			c0.9,1,1.3,2.1,1.3,3.5c0,0.2,0,0.5-0.1,0.8H342.6z M342.6,959.4h5.5c-0.1-0.8-0.4-1.3-0.9-1.7c-0.5-0.4-1.1-0.6-1.7-0.6
			c-0.7,0-1.4,0.2-1.9,0.6C343,958.1,342.7,958.7,342.6,959.4z"/>
		<path class="st2" d="M355.9,964.8v-1.7l4.5-4.6c1.1-1.1,1.7-2.1,1.7-2.9c0-0.6-0.2-1.1-0.6-1.5c-0.4-0.4-0.9-0.5-1.4-0.5
			c-1.1,0-1.9,0.5-2.4,1.6l-1.8-1.1c0.4-0.9,1-1.5,1.7-2s1.6-0.7,2.5-0.7c1.1,0,2.1,0.4,2.9,1.1c0.8,0.7,1.2,1.7,1.2,2.9
			c0,1.3-0.7,2.7-2.2,4.2l-2.9,2.9h5.4v2.1H355.9z"/>
	</g>
</g>
<path class="st3" d="M597,792H252.1c-27.8,0-50.4-22.6-50.4-50.4v-122c0-14.6,6.4-28.5,17.6-38l78-66.5h204.2l78,66.5
	c11.1,9.5,17.6,23.4,17.6,38V792z"/>
<path class="st4" d="M597,792H252.1c-27.8,0-50.4-22.6-50.4-50.4v-122c0-14.6,6.4-28.5,17.6-38l78-66.5h204.2l78,66.5
	c11.1,9.5,17.6,23.4,17.6,38V792z"/>
<path class="st5" d="M201.7,716.1v25.5c0,27.8,22.6,50.4,50.4,50.4H597v-25.5H252.1C224.3,766.5,201.7,743.9,201.7,716.1z"/>
<path class="st5" d="M579.4,581.5l-78-66.5H471l78,66.5c11.1,9.5,17.6,23.4,17.6,38V792H597V619.6C597,604.9,590.6,591,579.4,581.5z
	"/>
<polygon class="st6" points="329,536 399,586 469,536 "/>
<path class="st7" d="M597,792H252.1c-27.8,0-50.4-22.6-50.4-50.4v-122c0-14.6,6.4-28.5,17.6-38l78-66.5h204.2l78,66.5
	c11.1,9.5,17.6,23.4,17.6,38V792z"/>
<rect x="326.3" y="720.4" class="st8" width="78.4" height="71.6"/>
<rect x="326.3" y="776.2" class="st9" width="78.4" height="15.8"/>
<rect x="326.3" y="720.4" class="st7" width="78.4" height="71.6"/>
<path class="st7" d="M271,538l66,92c0,0,17-52,62-44c-65-48-70-50-70-50"/>
<path class="st7" d="M527.4,536.9l-66,92c0,0-17-52-62-44c65-48,70-50,70-50"/>
<line class="st7" x1="399" y1="586" x2="399" y2="753.9"/>
<circle class="st10" cx="423.5" cy="634.5" r="6.5"/>
<circle class="st10" cx="423.5" cy="676.5" r="6.5"/>
<g>
	<g>
		<path class="st11" d="M652.8,793.6H390.2c-10.1,0-18.2-8.2-18.2-18.2v-3.3c0-10.1,8.2-18.2,18.2-18.2H671v21.5
			C671,785.5,662.8,793.6,652.8,793.6z"/>
		<path class="st7" d="M652.8,793.6H390.2c-10.1,0-18.2-8.2-18.2-18.2v-3.3c0-10.1,8.2-18.2,18.2-18.2H671v21.5
			C671,785.5,662.8,793.6,652.8,793.6z"/>
	</g>
	<path class="st6" d="M845.6,793.7H594.8c-11.5,0-20.1-10.7-17.6-21.9l47.1-210.4c3.9-17.4,18.4-29.7,35-29.7h235.2
		c19.4,0,33.7,19.6,29.2,39.9L880.6,764C876.7,781.4,862.2,793.7,845.6,793.7z"/>
	<path class="st12" d="M845.6,793.7H594.8c-11.5,0-20.1-10.7-17.6-21.9l47.1-210.4c3.9-17.4,18.4-29.7,35-29.7h235.2
		c19.4,0,33.7,19.6,29.2,39.9L880.6,764C876.7,781.4,862.2,793.7,845.6,793.7z"/>
	<path class="st11" d="M857.6,784.5H606.7c-11.5,0-20.1-10.7-17.6-21.9l47.1-210.4c1.5-6.6,4.5-12.5,8.6-17.3
		c-10.1,4.8-17.8,14.4-20.5,26.4l-47.1,210.4c-2.5,11.2,6,21.9,17.6,21.9h250.8c10.3,0,19.8-4.7,26.4-12.4
		C867.6,783.3,862.7,784.5,857.6,784.5z"/>
	<path class="st11" d="M597.4,771.7l47.1-210.4c3.9-17.4,18.4-29.7,35-29.7h-20.2c-16.6,0-31.1,12.3-35,29.7l-47.1,210.4
		c-2.5,11.2,6,21.9,17.6,21.9H615C603.5,793.7,594.9,783,597.4,771.7z"/>
	<path class="st7" d="M845.6,793.7H594.8c-11.5,0-20.1-10.7-17.6-21.9l47.1-210.4c3.9-17.4,18.4-29.7,35-29.7h235.2
		c19.4,0,33.7,19.6,29.2,39.9L880.6,764C876.7,781.4,862.2,793.7,845.6,793.7z"/>
	<path class="st0" d="M771.5,645.4c0.1-1.6,0.5-3.2,0.9-4.7c-1.8-0.5-3.7-0.7-5.6-0.6c-13.2,0.5-26,12.8-28.6,27.6s6,26.4,19.2,26
		c12.6-0.4,24.8-11.7,28.2-25.5C776.5,664.9,770.5,655.8,771.5,645.4z"/>
</g>
<g>
	<path class="st8" d="M451.5,732.7H466c5.9,0,10.6,4.8,10.6,10.6l0,0c0,5.9-4.8,10.6-10.6,10.6h-31.4"/>
	<path class="st7" d="M447,732.7h19c5.9,0,10.6,4.8,10.6,10.6l0,0c0,5.9-4.8,10.6-10.6,10.6h-31.4"/>
</g>
<g>
	<path class="st8" d="M390,720.4h51.4c9.3,0,16.8,7.5,16.8,16.8v0c0,9.3-7.5,16.8-16.8,16.8h-51.2"/>
	<path class="st7" d="M390,720.4h51.4c9.3,0,16.8,7.5,16.8,16.8v0c0,9.3-7.5,16.8-16.8,16.8h-51.2"/>
</g>
<path class="st7" d="M400,732.7h21.6c5.9,0,10.6,4.8,10.6,10.6l0,0c0,5.9-4.8,10.6-10.6,10.6h-31.4"/>
<polyline class="st7" points="284.8,704.5 326.3,704.5 326.3,792 "/>
<g>
	<g>
		<path class="st8" d="M400.3,549h-5.1c-71.1,0-128.7-38.6-128.7-109.7V279.2H529v160.1C529,510.4,471.4,549,400.3,549z"/>
		<path class="st9" d="M267,312.9c0,0,23.2,40,86.9,42.3c97.4,3.4,135.9-46.9,135.9-46.9L267,312.9z"/>
		<path class="st9" d="M400.3,531.7h-5.1c-71.1,0-128.7-34.6-128.7-105.7v13.3c0,71.1,57.6,109.7,128.7,109.7h5.1
			c71.1,0,128.7-38.6,128.7-109.7V426C529,497.1,471.4,531.7,400.3,531.7z"/>
		<path class="st7" d="M400.3,549h-5.1c-71.1,0-128.7-38.6-128.7-109.7V279.2H529v160.1C529,510.4,471.4,549,400.3,549z"/>
		<path class="st13" d="M302,358c-13,45-35,35-35,35V273h37C304,273,310.3,329.2,302,358z"/>
		<path class="st14" d="M304.8,344c1.3-10,1.6-21.4,1.5-31.9l-39.3,0.8C267,312.9,277.8,331.5,304.8,344z"/>
		<path class="st7" d="M302,358c-13,45-35,35-35,35V273h37C304,273,310.3,329.2,302,358z"/>
		<g>
			<path class="st13" d="M496.6,213.3c-19-17.2-47.3-32.7-86.8-31.6c-0.5,7.8,5,24.7,15,33c-37.6-35-118.5-35.3-144.5-9.1
				c3.8,12.1,14.5,27.6,31.1,35.6c-47.3-10.9-80.3,12.6-83,21c8.3,20.7,27.1,42,38.6,50.7c38.8,29.1,145.9,40.4,212.3,1.9
				c3.8-2.2,7.3-4.4,10.5-6.5c-0.4,16.9,0.3,36.3,4.2,49.8c13,45,35,35,35,35V287C529,259,517.4,232.1,496.6,213.3z"/>
			<g>
				<path class="st14" d="M424.8,214.8L424.8,214.8c-2.4-3.4-8.8-6.2-19.1-13.3c-41.1-21.3-103.2-18.3-125.4,4.1
					c0.5,1.7,1.2,3.5,2,5.3c29.6-19.1,92.9-20.4,129.2,6.8C416.2,221.2,424.8,220.7,424.8,214.8z"/>
				<path class="st14" d="M311.8,242.8c0-0.7-0.2-1.2-0.4-1.6c-1.9-0.4-8.8-1.1-23.4-2.8c-34.5-0.3-57.4,16.9-59.6,23.9
					c0.4,1.1,0.9,2.2,1.4,3.3c11.6-9.3,39.8-21.7,73.8-15.6C308,250.7,312.1,247.3,311.8,242.8z"/>
				<path class="st14" d="M496.6,213.3c-19-17.2-47.3-32.7-86.8-31.6c-0.2,2.8,0.4,6.7,1.7,11c28.3,0.6,52.9,10.8,67.3,25.6
					c28,28.8,11.4,71.4-0.9,86.6C463,323.3,454,326.4,454,326.4s29.7-8.5,35.7-18.2c-5,26.2,7.4,81.7,34.1,85.7
					c3.2,0,5.2-0.9,5.2-0.9V287C529,259,517.4,232.1,496.6,213.3z"/>
			</g>
			<path class="st7" d="M507.2,224c-18.5-20.9-49.8-43.7-97.4-42.3c-0.5,7.8,5,24.7,15,33c-37.6-35-118.5-35.3-144.5-9.1
				c3.8,12.1,14.5,27.6,31.1,35.6c-47.3-10.9-80.3,12.6-83,21c8.3,20.7,27.1,42,38.6,50.7c38.8,29.1,145.9,40.4,212.3,1.9
				c3.8-2.2,7.3-4.4,10.5-6.5c-0.4,16.9,0.3,36.3,4.2,49.8c13,45,35,35,35,35V282C529,260.7,521.4,240,507.2,224z"/>
			<path class="st7" d="M509.3,289.8c0,0-11.4,12.5-19.6,18.5c-8.5,6.2-21,13.9-37.9,19"/>
		</g>
	</g>
	<path class="st7" d="M333.3,395.3c12.2-2.1,24.8-2.1,37,0"/>
	<circle class="st10" cx="359.7" cy="409.9" r="9.2"/>
	<path class="st7" d="M427.7,395.3c12.2-2.1,24.8-2.1,37,0"/>
	<circle class="st10" cx="454" cy="409.9" r="9.2"/>
	<path class="st7" d="M382.8,448.4c3.3,5.7,9.5,9.5,16.6,9.5c7,0,13.2-3.8,16.6-9.5"/>
	<g>
		<path class="st0" d="M434.2,481c0,15.2-15.8,27.4-35.2,27.4s-35.2-12.3-35.2-27.4H434.2z"/>
		<path class="st7" d="M434.2,481c0,15.2-15.8,27.4-35.2,27.4s-35.2-12.3-35.2-27.4H434.2z"/>
	</g>
	<g>
		<path class="st8" d="M266.5,355.2c0,0-23.4-1.7-23.4,22c0,25.3,5.9,40.9,23.4,41.5V355.2z"/>
		<path class="st7" d="M266.5,355.2c0,0-23.4-1.7-23.4,22c0,25.3,5.9,40.9,23.4,41.5V355.2z"/>
	</g>
	<g>
		<path class="st8" d="M529,355.2c0,0,23.4-1.7,23.4,22c0,25.3-5.9,40.9-23.4,41.5V355.2z"/>
		<path class="st7" d="M529,355.2c0,0,23.4-1.7,23.4,22c0,25.3-5.9,40.9-23.4,41.5V355.2z"/>
	</g>
</g>
<g>
	<path class="st15" d="M874.2,344.6h-137c-11,0-20,9-20,20V439c0,11,9,20,20,20H783l22.8,28.4l22.8-28.4h45.7c11,0,20-9,20-20v-74.4
		C894.2,353.6,885.3,344.6,874.2,344.6z"/>
	<path class="st7" d="M874.2,344.6h-137c-11,0-20,9-20,20V439c0,11,9,20,20,20H783l22.8,28.4l22.8-28.4h45.7c11,0,20-9,20-20v-74.4
		C894.2,353.6,885.3,344.6,874.2,344.6z"/>
	<g>
		<circle class="st0" cx="769" cy="404.9" r="9.7"/>
		<circle class="st0" cx="845.1" cy="404.9" r="9.7"/>
		<circle class="st0" cx="807.1" cy="404.9" r="9.7"/>
	</g>
</g>
</svg>
