<?xml version="1.0" encoding="utf-8"?>
<!-- Generator: Adobe Illustrator 24.1.0, SVG Export Plug-In . SVG Version: 6.00 Build 0)  -->
<svg version="1.1" id="Layer_1" xmlns="http://www.w3.org/2000/svg" xmlns:xlink="http://www.w3.org/1999/xlink" x="0px" y="0px"
	 viewBox="0 0 1000 1000" style="enable-background:new 0 0 1000 1000;" xml:space="preserve">
<style type="text/css">
	.st0{fill:#FFFFFF;}
	.st1{fill:#EFEAE9;}
	.st2{fill:#606060;}
	.st3{fill:none;stroke:#070808;stroke-width:6;stroke-linecap:round;stroke-linejoin:round;stroke-miterlimit:10;}
	.st4{fill:none;stroke:#171819;stroke-width:6;stroke-linecap:round;stroke-linejoin:round;stroke-miterlimit:10;}
	.st5{fill:#FFDEC5;}
	.st6{opacity:0.8;fill:#41E5CD;}
	.st7{opacity:0.8;fill:#3AD8C1;}
	.st8{opacity:0.8;fill:#32CEB3;}
	.st9{fill:#EFB58E;}
	.st10{fill:#BBF2E6;}
	.st11{fill:#F2A0BE;}
	.st12{fill:#DD83A7;}
	.st13{fill:#99EDD9;}
	.st14{fill:#67DBBD;}
	.st15{fill:none;stroke:#FCFCFC;stroke-width:6;stroke-linecap:round;stroke-linejoin:round;stroke-miterlimit:10;}
	.st16{fill:#FF4F7C;}
</style>
<rect class="st0" width="1000" height="1000"/>
<ellipse class="st1" cx="465" cy="894" rx="286" ry="28"/>
<g>
	<g>
		<g>
			<g>
				<path class="st2" d="M63.2,959.2c0,2.5-1.2,3.7-2.6,3.7c-1.1,0-1.9-0.5-2.1-1.4c-0.4,0.5-1,0.8-1.8,0.8c-1.5,0-2.6-1.2-2.6-2.8
					s1.1-2.8,2.6-2.8c0.7,0,1.2,0.3,1.6,0.7v-0.5h1.6v3.9c0,0.8,0.3,1.4,1,1.4c0.9,0,1.7-0.9,1.7-3c0-3-2.3-5.3-5.4-5.3
					c-3.1,0-5.6,2.4-5.6,5.7s2.5,5.7,5.9,5.7c1.1,0,2.1-0.2,2.9-0.4v0.6c-0.8,0.3-1.7,0.4-2.9,0.4c-3.7,0-6.5-2.6-6.5-6.2
					c0-3.4,2.7-6.2,6.2-6.2C61.1,953.3,63.2,956.4,63.2,959.2z M58.3,959.5c0-0.8-0.6-1.4-1.3-1.4c-0.8,0-1.3,0.5-1.3,1.4
					c0,0.8,0.6,1.3,1.3,1.3C57.8,960.9,58.3,960.3,58.3,959.5z"/>
			</g>
		</g>
		<g>
			<g>
				<path class="st2" d="M69.4,955.1v2c-1.2-0.1-2.6,0.5-2.6,2.4v4.3h-1.9v-8.6h1.9v1.4C67.3,955.5,68.3,955.1,69.4,955.1z"/>
			</g>
		</g>
		<g>
			<g>
				<path class="st2" d="M74.6,962.3c1,0,1.8-0.5,2.2-1.1l1.5,0.9c-0.8,1.2-2.1,1.9-3.8,1.9c-2.8,0-4.7-1.9-4.7-4.5
					c0-2.5,1.8-4.5,4.5-4.5c2.6,0,4.3,2.1,4.3,4.5c0,0.3,0,0.5-0.1,0.8h-6.8C72.1,961.6,73.2,962.3,74.6,962.3z M76.9,958.8
					c-0.3-1.5-1.3-2.1-2.5-2.1c-1.4,0-2.3,0.8-2.6,2.1H76.9z"/>
			</g>
		</g>
		<g>
			<g>
				<path class="st2" d="M88.9,955.2v8.6H87v-1.2c-0.7,0.9-1.7,1.5-3,1.5c-2.3,0-4.3-2-4.3-4.5c0-2.6,1.9-4.5,4.3-4.5
					c1.3,0,2.3,0.5,3,1.4v-1.2L88.9,955.2L88.9,955.2z M87.1,959.5c0-1.6-1.2-2.7-2.7-2.7s-2.7,1.1-2.7,2.7c0,1.6,1.2,2.7,2.7,2.7
					C85.9,962.3,87.1,961.1,87.1,959.5z"/>
			</g>
		</g>
		<g>
			<g>
				<path class="st2" d="M91.1,951.3H93v12.5h-1.9V951.3z"/>
			</g>
		</g>
		<g>
			<g>
				<path class="st2" d="M102.9,955.2l-3.3,8.6h-2.1l-3.3-8.6h2l2.4,6.5l2.4-6.5H102.9z"/>
			</g>
		</g>
		<g>
			<g>
				<path class="st2" d="M104.2,955.2h1.9v8.9c0,2.4-1.2,3.5-3.5,3.3v-1.8c1.1,0.1,1.7-0.3,1.7-1.5L104.2,955.2L104.2,955.2z
					 M104,952.8c0-0.7,0.5-1.2,1.2-1.2s1.2,0.5,1.2,1.2c0,0.6-0.5,1.2-1.2,1.2S104,953.4,104,952.8z"/>
			</g>
		</g>
		<g>
			<g>
				<path class="st2" d="M116,955.2l-3.3,8.8c-0.8,2.2-2.2,3.3-4.2,3.2v-1.7c1.2,0.1,1.9-0.5,2.3-1.7l0.1-0.2l-3.6-8.4h2l2.6,6.2
					l2.2-6.2L116,955.2L116,955.2z"/>
			</g>
		</g>
	</g>
	<g>
		<g>
			<path class="st2" d="M58.9,938.7c0,2.1-1.5,3.8-3.6,3.8h-3v-7.6h3C57.4,934.9,58.9,936.6,58.9,938.7z M57.9,938.7
				c0-1.6-1.1-2.9-2.6-2.9h-2v5.7h2C56.8,941.6,57.9,940.3,57.9,938.7z"/>
		</g>
		<g>
			<path class="st2" d="M67,941.6v1h-4.6V935h4.5v1h-3.5v2.3h3.2v0.9h-3.2v2.4L67,941.6L67,941.6z"/>
		</g>
		<g>
			<path class="st2" d="M70,940.8l0.9-0.5c0.3,0.8,0.9,1.4,2,1.4s1.6-0.5,1.6-1.2c0-0.8-0.7-1-1.8-1.4c-1.2-0.4-2.4-0.8-2.4-2.2
				s1.1-2.2,2.4-2.2s2.2,0.7,2.6,1.7l-0.8,0.5c-0.3-0.7-0.8-1.2-1.7-1.2c-0.8,0-1.4,0.4-1.4,1.1c0,0.7,0.5,1,1.6,1.3
				c1.3,0.4,2.6,0.8,2.6,2.3c0,1.3-1.1,2.2-2.6,2.2C71.5,942.7,70.4,941.9,70,940.8z"/>
		</g>
		<g>
			<path class="st2" d="M80,934.9v7.6h-1v-7.6H80z"/>
		</g>
		<g>
			<path class="st2" d="M91.3,939.2c0,1.9-1.4,3.5-3.7,3.5c-2.4,0-4-1.8-4-4s1.7-4,4-4c1.4,0,2.7,0.8,3.3,1.8L90,937
				c-0.4-0.8-1.4-1.4-2.4-1.4c-1.8,0-3,1.3-3,3s1.2,3,3,3c1.6,0,2.5-0.9,2.7-2h-2.8v-0.9h3.8V939.2z"/>
		</g>
		<g>
			<path class="st2" d="M100.6,934.9v7.6h-0.8l-3.9-5.7v5.7h-1v-7.6h0.8l3.9,5.7v-5.7H100.6z"/>
		</g>
		<g>
			<path class="st2" d="M109.1,941.6v1h-4.6V935h4.5v1h-3.5v2.3h3.2v0.9h-3.2v2.4L109.1,941.6L109.1,941.6z"/>
		</g>
		<g>
			<path class="st2" d="M119.2,938.7c0,2.1-1.5,3.8-3.6,3.8h-3v-7.6h3C117.6,934.9,119.2,936.6,119.2,938.7z M118.2,938.7
				c0-1.6-1.1-2.9-2.6-2.9h-2v5.7h2C117.1,941.6,118.2,940.3,118.2,938.7z"/>
		</g>
		<g>
			<path class="st2" d="M133.2,940.4c0,1.2-1,2.2-2.2,2.2h-3.3V935h3c1.2,0,2.1,0.9,2.1,2.1c0,0.7-0.3,1.2-0.8,1.6
				C132.7,938.9,133.2,939.5,133.2,940.4z M128.7,935.8v2.3h2c0.6,0,1.1-0.5,1.1-1.2c0-0.6-0.5-1.2-1.1-1.2h-2V935.8z M132.2,940.3
				c0-0.7-0.5-1.2-1.2-1.2h-2.3v2.5h2.3C131.7,941.6,132.2,941,132.2,940.3z"/>
		</g>
		<g>
			<path class="st2" d="M139.4,939.4v3.1h-1v-3.1l-2.7-4.5h1.1l2.1,3.6l2.1-3.6h1.1L139.4,939.4z"/>
		</g>
	</g>
	<g>
		<g>
			<g>
				<g>
					<path class="st2" d="M846.1,938.7c0,2.1-1.5,3.8-3.6,3.8h-3v-7.6h3C844.6,934.9,846.1,936.6,846.1,938.7z M845.2,938.7
						c0-1.6-1.1-2.9-2.6-2.9h-2v5.7h2C844.1,941.6,845.2,940.3,845.2,938.7z"/>
				</g>
			</g>
			<g>
				<g>
					<path class="st2" d="M849.3,938.7c0-2.2,1.7-4,3.9-4s4,1.8,4,4s-1.7,4-4,4C851,942.7,849.3,940.9,849.3,938.7z M856.1,938.7
						c0-1.7-1.3-3-2.9-3c-1.7,0-2.9,1.3-2.9,3s1.3,3,2.9,3C854.9,941.7,856.1,940.4,856.1,938.7z"/>
				</g>
			</g>
			<g>
				<g>
					<path class="st2" d="M859.8,934.9h1.1l1.7,6.3l1.9-6.3h1l1.9,6.3l1.7-6.3h1.1l-2.2,7.6h-1.2l-1.8-6.1l-1.8,6.1H862L859.8,934.9
						z"/>
				</g>
			</g>
			<g>
				<g>
					<path class="st2" d="M879.3,934.9v7.6h-0.8l-3.9-5.7v5.7h-1v-7.6h0.8l3.9,5.7v-5.7H879.3z"/>
				</g>
			</g>
			<g>
				<g>
					<path class="st2" d="M887.5,941.6v1h-4.3V935h1v6.7h3.3V941.6z"/>
				</g>
			</g>
			<g>
				<g>
					<path class="st2" d="M889.9,938.7c0-2.2,1.7-4,3.9-4s4,1.8,4,4s-1.7,4-4,4C891.6,942.7,889.9,940.9,889.9,938.7z M896.8,938.7
						c0-1.7-1.3-3-2.9-3c-1.7,0-2.9,1.3-2.9,3s1.3,3,2.9,3S896.8,940.4,896.8,938.7z"/>
				</g>
			</g>
			<g>
				<g>
					<path class="st2" d="M905.4,940.8H902l-0.6,1.7h-1.1l2.8-7.6h1.1l2.8,7.6h-1L905.4,940.8z M905.1,939.9l-1.4-3.8l-1.4,3.8
						H905.1z"/>
				</g>
			</g>
			<g>
				<g>
					<path class="st2" d="M916.9,938.7c0,2.1-1.5,3.8-3.6,3.8h-3v-7.6h3C915.4,934.9,916.9,936.6,916.9,938.7z M915.9,938.7
						c0-1.6-1.1-2.9-2.6-2.9h-2v5.7h2C914.9,941.6,915.9,940.3,915.9,938.7z"/>
				</g>
			</g>
			<g>
				<g>
					<path class="st2" d="M926.5,935.8v2.5h3.2v1h-3.2v3.2h-1v-7.6h4.4v1h-3.4V935.8z"/>
				</g>
			</g>
			<g>
				<g>
					<path class="st2" d="M936.2,939.6h-1.8v2.9h-1v-7.6h3c1.3,0,2.4,1.1,2.4,2.4c0,1-0.7,1.9-1.6,2.2l1.8,3.1h-1.1L936.2,939.6z
						 M934.4,938.7h2c0.8,0,1.4-0.6,1.4-1.4c0-0.8-0.6-1.4-1.4-1.4h-2V938.7z"/>
				</g>
			</g>
			<g>
				<g>
					<path class="st2" d="M941.9,938.7c0-2.2,1.7-4,3.9-4s4,1.8,4,4s-1.7,4-4,4C943.6,942.7,941.9,940.9,941.9,938.7z M948.8,938.7
						c0-1.7-1.3-3-2.9-3c-1.7,0-2.9,1.3-2.9,3s1.3,3,2.9,3S948.8,940.4,948.8,938.7z"/>
				</g>
			</g>
			<g>
				<g>
					<path class="st2" d="M960.4,942.5h-1v-6l-2.5,4.2h-0.1l-2.5-4.1v5.9h-1v-7.6h1.1l2.4,4l2.4-4h1.1L960.4,942.5L960.4,942.5z"/>
				</g>
			</g>
		</g>
		<g>
			<g>
				<g>
					<path class="st2" d="M839.3,952.9c0-0.7,0.5-1.2,1.2-1.2s1.2,0.5,1.2,1.2s-0.5,1.2-1.2,1.2
						C839.9,954.1,839.3,953.6,839.3,952.9z M839.6,955.4h1.9v8.9h-1.9V955.4z"/>
				</g>
			</g>
			<g>
				<g>
					<path class="st2" d="M843.7,951.4h1.9v12.9h-1.9V951.4z"/>
				</g>
			</g>
			<g>
				<g>
					<path class="st2" d="M847.8,951.4h1.9v12.9h-1.9V951.4z"/>
				</g>
			</g>
			<g>
				<g>
					<path class="st2" d="M852,951.4h1.9v12.9H852V951.4z"/>
				</g>
			</g>
			<g>
				<g>
					<path class="st2" d="M864,955.4v8.9h-1.9v-1.1c-0.6,0.9-1.5,1.4-2.7,1.4c-2,0-3.4-1.3-3.4-3.6v-5.4h1.9v5.2
						c0,1.3,0.8,2.1,2,2.1c1.3,0,2.2-0.7,2.2-2.5v-4.7h1.9V955.4z"/>
				</g>
			</g>
			<g>
				<g>
					<path class="st2" d="M872.6,961.8c0,1.8-1.5,2.7-3.5,2.7c-1.8,0-3-0.8-3.6-2.1l1.6-1c0.3,0.8,1,1.3,2,1.3c0.8,0,1.5-0.3,1.5-1
						c0-1.6-4.8-0.7-4.8-3.9c0-1.7,1.4-2.7,3.2-2.7c1.5,0,2.7,0.7,3.3,1.8l-1.6,0.9c-0.3-0.7-0.9-1-1.7-1c-0.7,0-1.3,0.3-1.3,0.9
						C867.9,959.5,872.6,958.5,872.6,961.8z"/>
				</g>
			</g>
			<g>
				<g>
					<path class="st2" d="M876.7,957.3v4.2c0,1.1,0.7,1.1,2.2,1v1.7c-2.9,0.4-4.1-0.5-4.1-2.8v-4.2h-1.6v-1.8h1.6v-1.9l1.9-0.6v2.5
						h2.2v1.8L876.7,957.3L876.7,957.3z"/>
				</g>
			</g>
			<g>
				<g>
					<path class="st2" d="M885.4,955.3v2.1c-1.3-0.1-2.7,0.5-2.7,2.5v4.5h-1.9v-8.9h1.9v1.5C883.2,955.7,884.2,955.3,885.4,955.3z"
						/>
				</g>
			</g>
			<g>
				<g>
					<path class="st2" d="M895.3,955.4v8.9h-1.9V963c-0.7,0.9-1.7,1.5-3.1,1.5c-2.4,0-4.4-2-4.4-4.7c0-2.6,2-4.7,4.4-4.7
						c1.4,0,2.4,0.6,3.1,1.5v-1.3h1.9V955.4z M893.4,959.9c0-1.6-1.2-2.8-2.8-2.8s-2.8,1.2-2.8,2.8s1.2,2.8,2.8,2.8
						S893.4,961.5,893.4,959.9z"/>
				</g>
			</g>
			<g>
				<g>
					<path class="st2" d="M900.3,957.3v4.2c0,1.1,0.7,1.1,2.2,1v1.7c-2.9,0.4-4.1-0.5-4.1-2.8v-4.2h-1.6v-1.8h1.6v-1.9l1.9-0.6v2.5
						h2.2v1.8L900.3,957.3L900.3,957.3z"/>
				</g>
			</g>
			<g>
				<g>
					<path class="st2" d="M903.9,952.9c0-0.7,0.5-1.2,1.2-1.2s1.2,0.5,1.2,1.2s-0.5,1.2-1.2,1.2
						C904.5,954.1,903.9,953.6,903.9,952.9z M904.2,955.4h1.9v8.9h-1.9V955.4z"/>
				</g>
			</g>
			<g>
				<g>
					<path class="st2" d="M907.8,959.9c0-2.6,2.1-4.7,4.7-4.7c2.6,0,4.7,2,4.7,4.7c0,2.6-2.1,4.7-4.7,4.7
						C909.9,964.5,907.8,962.5,907.8,959.9z M915.3,959.9c0-1.6-1.2-2.8-2.8-2.8s-2.8,1.2-2.8,2.8s1.2,2.8,2.8,2.8
						S915.3,961.5,915.3,959.9z"/>
				</g>
			</g>
			<g>
				<g>
					<path class="st2" d="M927,958.9v5.4h-1.9v-5.2c0-1.3-0.8-2.1-2-2.1c-1.3,0-2.2,0.7-2.2,2.5v4.7H919v-8.9h1.9v1.1
						c0.6-0.9,1.5-1.4,2.7-1.4C925.5,955.2,927,956.6,927,958.9z"/>
				</g>
			</g>
			<g>
				<g>
					<path class="st2" d="M935.5,961.8c0,1.8-1.5,2.7-3.5,2.7c-1.8,0-3-0.8-3.6-2.1l1.6-1c0.3,0.8,1,1.3,2,1.3c0.8,0,1.5-0.3,1.5-1
						c0-1.6-4.8-0.7-4.8-3.9c0-1.7,1.4-2.7,3.2-2.7c1.5,0,2.7,0.7,3.3,1.8l-1.6,0.9c-0.3-0.7-0.9-1-1.7-1c-0.7,0-1.3,0.3-1.3,0.9
						C930.7,959.5,935.5,958.5,935.5,961.8z"/>
				</g>
			</g>
			<g>
				<g>
					<path class="st2" d="M936.8,963.2c0-0.7,0.6-1.3,1.3-1.3s1.3,0.6,1.3,1.3s-0.6,1.3-1.3,1.3
						C937.4,964.5,936.8,963.9,936.8,963.2z"/>
				</g>
			</g>
			<g>
				<g>
					<path class="st2" d="M940.3,959.9c0-2.6,2-4.7,4.7-4.7c1.7,0,3.2,0.9,3.9,2.3l-1.6,1c-0.4-0.8-1.3-1.4-2.3-1.4
						c-1.6,0-2.7,1.2-2.7,2.8s1.2,2.8,2.7,2.8c1.1,0,1.9-0.5,2.4-1.4l1.6,0.9c-0.7,1.4-2.2,2.3-4,2.3
						C942.3,964.5,940.3,962.5,940.3,959.9z"/>
				</g>
			</g>
			<g>
				<g>
					<path class="st2" d="M949.7,959.9c0-2.6,2.1-4.7,4.7-4.7c2.6,0,4.7,2,4.7,4.7c0,2.6-2.1,4.7-4.7,4.7
						C951.8,964.5,949.7,962.5,949.7,959.9z M957.2,959.9c0-1.6-1.2-2.8-2.8-2.8s-2.8,1.2-2.8,2.8s1.2,2.8,2.8,2.8
						S957.2,961.5,957.2,959.9z"/>
				</g>
			</g>
		</g>
	</g>
	<g>
		<path class="st2" d="M209.9,943.1c-1.2,0-2.2-0.4-3-1.2c-0.8-0.8-1.2-1.8-1.2-2.9c0-1.2,0.4-2.1,1.2-2.9c0.8-0.8,1.8-1.2,3-1.2
			c0.7,0,1.4,0.2,2,0.5c0.6,0.3,1.1,0.8,1.4,1.4l-0.9,0.5c-0.2-0.4-0.6-0.8-1-1s-0.9-0.4-1.5-0.4c-0.9,0-1.7,0.3-2.2,0.9
			c-0.6,0.6-0.9,1.3-0.9,2.2c0,0.9,0.3,1.6,0.9,2.2c0.6,0.6,1.3,0.9,2.2,0.9c0.5,0,1-0.1,1.5-0.4c0.5-0.3,0.8-0.6,1-1l0.9,0.5
			c-0.3,0.6-0.8,1.1-1.4,1.4C211.3,942.9,210.6,943.1,209.9,943.1z"/>
		<path class="st2" d="M222.1,941.9c-0.8,0.8-1.8,1.2-2.9,1.2s-2.1-0.4-2.9-1.2s-1.2-1.8-1.2-2.9c0-1.2,0.4-2.1,1.2-2.9
			c0.8-0.8,1.8-1.2,2.9-1.2s2.1,0.4,2.9,1.2c0.8,0.8,1.2,1.8,1.2,2.9C223.3,940.1,222.9,941.1,222.1,941.9z M217,941.2
			c0.6,0.6,1.3,0.9,2.2,0.9s1.6-0.3,2.2-0.9c0.6-0.6,0.9-1.3,0.9-2.2c0-0.9-0.3-1.6-0.9-2.2c-0.6-0.6-1.3-0.9-2.2-0.9
			s-1.6,0.3-2.2,0.9c-0.6,0.6-0.9,1.3-0.9,2.2C216.1,939.8,216.4,940.6,217,941.2z"/>
		<path class="st2" d="M227.3,942.9l-2.8-7.9h1.1l2.3,6.6l2.3-6.6h1.1l-2.8,7.9H227.3z"/>
		<path class="st2" d="M233.3,935h1.1v7.9h-1.1V935z"/>
		<path class="st2" d="M240.2,935c1.1,0,2,0.4,2.7,1.2c0.7,0.8,1.1,1.7,1.1,2.8s-0.4,2.1-1.1,2.8c-0.7,0.8-1.6,1.2-2.7,1.2h-3.1V935
			H240.2z M240.2,941.9c0.8,0,1.5-0.3,2-0.9c0.5-0.6,0.8-1.3,0.8-2.1s-0.3-1.6-0.8-2.1c-0.5-0.6-1.2-0.9-2-0.9h-2v5.9H240.2z"/>
		<path class="st2" d="M246.2,939.9v-1h4.1v1H246.2z"/>
		<path class="st2" d="M258.6,940.5v1h-1v1.5h-1.1v-1.5h-4.1v-1l2.8-5.4h1.1l-2.8,5.4h2.9v-2.2h1.1v2.2H258.6z"/>
	</g>
	<g>
		<path class="st2" d="M209.7,965.1c-1.3,0-2.3-0.3-3.2-0.9c-0.9-0.6-1.5-1.4-1.8-2.3l1.8-1.1c0.5,1.5,1.6,2.2,3.2,2.2
			c0.8,0,1.4-0.2,1.8-0.5c0.4-0.3,0.6-0.7,0.6-1.2c0-0.5-0.2-0.9-0.7-1.2c-0.4-0.3-1.2-0.6-2.3-0.9c-0.6-0.2-1.1-0.4-1.5-0.5
			c-0.4-0.2-0.8-0.4-1.2-0.7c-0.4-0.3-0.7-0.7-1-1.1c-0.2-0.4-0.3-0.9-0.3-1.5c0-1.2,0.4-2.1,1.2-2.7s1.8-1,3-1c1,0,2,0.3,2.7,0.8
			c0.8,0.5,1.4,1.2,1.8,2.1l-1.8,1c-0.5-1.2-1.5-1.8-2.7-1.8c-0.6,0-1.1,0.1-1.5,0.4c-0.4,0.3-0.6,0.7-0.6,1.2
			c0,0.5,0.2,0.9,0.6,1.1c0.4,0.3,1.1,0.6,2.1,0.9c0.5,0.2,0.9,0.3,1.1,0.4s0.6,0.2,1,0.4c0.4,0.2,0.7,0.3,0.9,0.5s0.4,0.4,0.7,0.7
			c0.2,0.3,0.4,0.6,0.5,0.9s0.1,0.7,0.1,1.1c0,1.2-0.4,2.1-1.3,2.8C212.2,964.7,211.1,965.1,209.7,965.1z"/>
		<path class="st2" d="M223.6,955.5h2v9.3h-2v-1.3c-0.8,1.1-1.8,1.6-3.3,1.6c-1.3,0-2.4-0.5-3.3-1.4c-0.9-0.9-1.4-2.1-1.4-3.5
			c0-1.4,0.5-2.5,1.4-3.5s2-1.4,3.3-1.4c1.4,0,2.5,0.5,3.3,1.6V955.5z M218.6,962.3c0.6,0.6,1.3,0.8,2.1,0.8c0.8,0,1.5-0.3,2.1-0.8
			s0.8-1.3,0.8-2.1s-0.3-1.6-0.8-2.1s-1.3-0.8-2.1-0.8c-0.8,0-1.5,0.3-2.1,0.8c-0.6,0.6-0.8,1.3-0.8,2.1S218,961.7,218.6,962.3z"/>
		<path class="st2" d="M232.9,955.3c1.1,0,1.9,0.3,2.6,1s1,1.6,1,2.8v5.7h-2v-5.5c0-0.7-0.2-1.2-0.6-1.6c-0.4-0.4-0.9-0.6-1.5-0.6
			c-0.7,0-1.3,0.2-1.7,0.7c-0.4,0.4-0.7,1.1-0.7,2v5h-2v-9.3h2v1.2C230.6,955.8,231.6,955.3,232.9,955.3z"/>
		<path class="st2" d="M240.5,953.8c-0.3,0.3-0.6,0.4-0.9,0.4c-0.3,0-0.6-0.1-0.9-0.4c-0.3-0.3-0.4-0.6-0.4-0.9s0.1-0.6,0.4-0.9
			s0.6-0.4,0.9-0.4c0.4,0,0.7,0.1,0.9,0.4s0.4,0.6,0.4,0.9S240.8,953.5,240.5,953.8z M238.6,964.8v-9.3h2v9.3H238.6z"/>
		<path class="st2" d="M248.1,957.5h-2.3v4.5c0,0.4,0.1,0.7,0.3,0.8c0.2,0.2,0.4,0.3,0.8,0.3c0.3,0,0.8,0,1.3,0v1.8
			c-1.5,0.2-2.6,0.1-3.3-0.4c-0.7-0.5-1-1.3-1-2.5v-4.5h-1.7v-1.9h1.7v-2l2-0.6v2.6h2.3V957.5z"/>
		<path class="st2" d="M251.9,953.8c-0.3,0.3-0.6,0.4-0.9,0.4c-0.3,0-0.6-0.1-0.9-0.4c-0.3-0.3-0.4-0.6-0.4-0.9s0.1-0.6,0.4-0.9
			s0.6-0.4,0.9-0.4c0.4,0,0.7,0.1,0.9,0.4s0.4,0.6,0.4,0.9S252.1,953.5,251.9,953.8z M250,964.8v-9.3h2v9.3H250z"/>
		<path class="st2" d="M256.7,962.9h4.5v1.9H254v-1.3l4.4-6.1h-4.2v-1.9h6.9v1.3L256.7,962.9z"/>
		<path class="st2" d="M264.1,961c0.1,0.7,0.5,1.2,1,1.6s1.2,0.6,2,0.6c1.1,0,1.9-0.4,2.4-1.2l1.7,1c-0.9,1.4-2.3,2-4.1,2
			c-1.5,0-2.7-0.5-3.7-1.4c-0.9-0.9-1.4-2.1-1.4-3.5c0-1.4,0.5-2.6,1.4-3.5c0.9-0.9,2.1-1.4,3.5-1.4c1.4,0,2.5,0.5,3.4,1.4
			c0.9,1,1.3,2.1,1.3,3.5c0,0.2,0,0.5-0.1,0.8H264.1z M264.1,959.4h5.5c-0.1-0.8-0.4-1.3-0.9-1.7c-0.5-0.4-1.1-0.6-1.7-0.6
			c-0.7,0-1.4,0.2-1.9,0.6C264.6,958.1,264.2,958.7,264.1,959.4z"/>
		<path class="st2" d="M275.4,957.1c0.5-1.2,1.5-1.7,2.9-1.7v2.2c-0.8,0-1.4,0.1-2,0.5c-0.6,0.4-0.9,1.1-0.9,2.1v4.7h-2v-9.3h2
			V957.1z"/>
	</g>
</g>
<path class="st0" d="M576.9,894H343.1c-21,0-39-15.6-42.3-36.8c-23.6-147.9-29.3-274.5-30.8-422.6c-0.6-55.9,43.7-101.6,98.3-101.6
	h183.4c54.6,0,98.9,45.6,98.3,101.6c-1.5,148.1-7.3,274.7-30.8,422.6C615.8,878.4,597.9,894,576.9,894z"/>
<path class="st1" d="M551.7,333h-55c54.6,0,98.9,45.6,98.3,101.6c-1.5,148.1-10.4,274.5-34,422.4c-3.4,21.2-18.1,37-39.1,37h55
	c21,0,39-15.6,42.3-36.8c23.6-147.9,29.3-274.5,30.8-422.6C650.6,378.6,606.3,333,551.7,333z"/>
<path class="st3" d="M452.3,813.4c-3,12.3-6.4,22.5-9.6,30.6h21.5c14.5-40.5,27.7-115,5.7-237.8c-18.3-102-16.1-176.6-11-221.3
	c5.5-48.3,15.3-72.9,15.4-73.1L465,308l-9.2-3.8c-0.4,1.1-10.9,26.6-16.7,77.3c-9.6,83.7,0.7,170.3,11.1,228.3
	C468.2,710.5,461.3,776.1,452.3,813.4z"/>
<path class="st4" d="M576.9,894H343.1c-21,0-39-15.6-42.3-36.8c-23.6-147.9-29.3-274.5-30.8-422.6c-0.6-55.9,43.7-101.6,98.3-101.6
	h183.4c54.6,0,98.9,45.6,98.3,101.6c-1.5,148.1-7.3,274.7-30.8,422.6C615.8,878.4,597.9,894,576.9,894z"/>
<path class="st5" d="M552,333H376v-65c0-14.9,12.1-27,27-27h122c14.9,0,27,12.1,27,27V333z"/>
<path class="st6" d="M303.5,458c1.7,126,7.1,249.5,30.1,393.7c0.8,4.8,4.8,8.3,9.6,8.3h233.7c4.8,0,8.8-3.5,9.6-8.3
	c10.8-67.7,18.4-139.3,23.3-218.9c3.6-58.1,5.8-99.1,6.8-174.8c0,0-78.5,20-179.5-8C362.9,429.5,303.5,458,303.5,458z"/>
<g>
	<path class="st7" d="M412,450c47.6,13.2,90.1,15.7,121.9,14.7C506.1,463.9,473,460,437,450c-24.7-6.8-47.7-8.2-67.4-7.1
		C382.9,443.7,397.1,445.9,412,450z"/>
	<path class="st8" d="M591.4,462.3c-1,72.9-3.2,113.5-6.7,170.5c-4.9,79.6-12.5,151.2-23.3,218.9c-0.8,4.8-4.8,8.3-9.6,8.3h25
		c4.8,0,8.8-3.5,9.6-8.3c10.8-67.7,18.4-139.3,23.3-218.9c3.6-58.1,5.8-99.1,6.8-174.8C616.5,458,607.4,460.3,591.4,462.3z"/>
</g>
<path class="st4" d="M303.5,458c1.7,126,7.1,249.5,30.1,393.7c0.8,4.8,4.8,8.3,9.6,8.3h233.7c4.8,0,8.8-3.5,9.6-8.3
	c10.8-67.7,18.4-139.3,23.3-218.9c3.6-58.1,5.8-99.1,6.8-174.8c0,0-78.5,20-179.5-8C362.9,429.5,303.5,458,303.5,458z"/>
<rect x="441" y="159" class="st0" width="49" height="82"/>
<rect x="441" y="159" class="st4" width="49" height="82"/>
<rect x="405" y="185" class="st5" width="121" height="30"/>
<rect x="500" y="185" transform="matrix(-1 -1.224647e-16 1.224647e-16 -1 1026 400)" class="st9" width="26" height="30"/>
<rect x="405" y="185" class="st3" width="121" height="30"/>
<circle class="st10" cx="535.5" cy="546.5" r="16.5"/>
<circle class="st10" cx="362.5" cy="675.5" r="13.5"/>
<g>
	<path class="st11" d="M675.3,194.9c-5.6-21.2-24.8-35.9-46.7-35.9H382v-50h246.6c44.5,0,83.6,30,95.1,73.1L675.3,194.9z"/>
</g>
<path class="st12" d="M697.2,189.1l26.4-7c-11.4-43-50.5-73.1-95.1-73.1h-37.1C640.7,109,683.9,141.9,697.2,189.1z"/>
<g>
	<path class="st4" d="M675.3,194.9c-5.6-21.2-24.8-35.9-46.7-35.9H382v-50h246.6c44.5,0,83.6,30,95.1,73.1L675.3,194.9z"/>
</g>
<g>
	<path class="st13" d="M738.9,249.5l-28.4-28.4l-28.4,28.4c-15.7,15.7-15.7,41.1,0,56.7l0,0c15.7,15.7,41.1,15.7,56.7,0l0,0
		C754.5,290.6,754.5,265.2,738.9,249.5z"/>
	<path class="st14" d="M738.9,249.5l-28.4-28.4l-3,3l11.4,11.4c15.7,15.7,15.7,41.1,0,56.7h0c-10.9,10.9-26.5,14.2-40.3,9.9
		c1.1,1.4,2.2,2.8,3.5,4.1h0c15.7,15.7,41.1,15.7,56.7,0h0C754.5,290.6,754.5,265.2,738.9,249.5z"/>
	<path class="st4" d="M738.9,249.5l-28.4-28.4l-28.4,28.4c-15.7,15.7-15.7,41.1,0,56.7l0,0c15.7,15.7,41.1,15.7,56.7,0l0,0
		C754.5,290.6,754.5,265.2,738.9,249.5z"/>
	<path class="st15" d="M687.1,275.4c-0.2,2.4,0,4.8,0.4,7.1"/>
	<path class="st15" d="M702.3,250.6l-7.3,7.3c-1.8,1.8-3.2,3.7-4.4,5.8"/>
</g>
<rect x="405" y="185" class="st4" width="121" height="30"/>
<path class="st9" d="M525,241h-29c14.9,0,27,12.1,27,27v65h29v-65C552,253.1,539.9,241,525,241z"/>
<path class="st4" d="M552,333H376v-65c0-14.9,12.1-27,27-27h122c14.9,0,27,12.1,27,27V333z"/>
<polygon class="st16" points="518.5,605.5 475.5,605.5 475.5,562.5 444.5,562.5 444.5,605.5 401.5,605.5 401.5,636.5 444.5,636.5 
	444.5,678.5 475.5,678.5 475.5,636.5 518.5,636.5 "/>
<polygon class="st3" points="518.5,605.5 475.5,605.5 475.5,562.5 444.5,562.5 444.5,605.5 401.5,605.5 401.5,636.5 444.5,636.5 
	444.5,678.5 475.5,678.5 475.5,636.5 518.5,636.5 "/>
</svg>
