<?xml version="1.0" encoding="utf-8"?>
<!-- Generator: Adobe Illustrator 23.1.1, SVG Export Plug-In . SVG Version: 6.00 Build 0)  -->
<svg version="1.1" id="Layer_1" xmlns="http://www.w3.org/2000/svg" xmlns:xlink="http://www.w3.org/1999/xlink" x="0px" y="0px"
	 viewBox="0 0 1000 1000" style="enable-background:new 0 0 1000 1000;" xml:space="preserve">
<style type="text/css">
	.st0{fill:#FFFFFF;}
	.st1{fill:#606060;}
	.st2{fill:#E4E8EC;}
	.st3{fill:#FFF1E5;}
	.st4{fill:#FFD7CF;}
	.st5{fill:none;stroke:#441A36;stroke-width:6;stroke-linecap:round;stroke-linejoin:round;stroke-miterlimit:10;}
	.st6{opacity:0.34;}
	.st7{fill:#231A17;}
	.st8{fill:#D37157;}
	.st9{fill:none;stroke:#000000;stroke-width:2;stroke-linecap:round;stroke-linejoin:round;stroke-miterlimit:10;}
	.st10{fill:#441A36;}
	.st11{fill:#A4FCEF;}
	.st12{fill:#8FEFDF;}
	
		.st13{opacity:0.43;fill:none;stroke:#FFFFFF;stroke-width:6;stroke-linecap:round;stroke-linejoin:round;stroke-miterlimit:10;enable-background:new    ;}
</style>
<rect class="st0" width="1000" height="1000"/>
<g>
	<g>
		<g>
			<g>
				<path class="st1" d="M63.2,959.2c0,2.5-1.2,3.7-2.6,3.7c-1.1,0-1.9-0.5-2.1-1.4c-0.4,0.5-1,0.8-1.8,0.8c-1.5,0-2.6-1.2-2.6-2.8
					s1.1-2.8,2.6-2.8c0.7,0,1.2,0.3,1.6,0.7v-0.5h1.6v3.9c0,0.8,0.3,1.4,1,1.4c0.9,0,1.7-0.9,1.7-3c0-3-2.3-5.3-5.4-5.3
					c-3.1,0-5.6,2.4-5.6,5.7s2.5,5.7,5.9,5.7c1.1,0,2.1-0.2,2.9-0.4v0.6c-0.8,0.3-1.7,0.4-2.9,0.4c-3.7,0-6.5-2.6-6.5-6.2
					c0-3.4,2.7-6.2,6.2-6.2C61.1,953.3,63.2,956.4,63.2,959.2z M58.3,959.5c0-0.8-0.6-1.4-1.3-1.4c-0.8,0-1.3,0.5-1.3,1.4
					c0,0.8,0.6,1.3,1.3,1.3C57.8,960.9,58.3,960.3,58.3,959.5z"/>
			</g>
		</g>
		<g>
			<g>
				<path class="st1" d="M69.4,955.1v2c-1.2-0.1-2.6,0.5-2.6,2.4v4.3h-1.9v-8.6h1.9v1.4C67.3,955.5,68.3,955.1,69.4,955.1z"/>
			</g>
		</g>
		<g>
			<g>
				<path class="st1" d="M74.6,962.3c1,0,1.8-0.5,2.2-1.1l1.5,0.9c-0.8,1.2-2.1,1.9-3.8,1.9c-2.8,0-4.7-1.9-4.7-4.5
					c0-2.5,1.8-4.5,4.5-4.5c2.6,0,4.3,2.1,4.3,4.5c0,0.3,0,0.5-0.1,0.8h-6.8C72.1,961.6,73.2,962.3,74.6,962.3z M76.9,958.8
					c-0.3-1.5-1.3-2.1-2.5-2.1c-1.4,0-2.3,0.8-2.6,2.1H76.9z"/>
			</g>
		</g>
		<g>
			<g>
				<path class="st1" d="M88.9,955.2v8.6H87v-1.2c-0.7,0.9-1.7,1.5-3,1.5c-2.3,0-4.3-2-4.3-4.5c0-2.6,1.9-4.5,4.3-4.5
					c1.3,0,2.3,0.5,3,1.4v-1.2L88.9,955.2L88.9,955.2z M87.1,959.5c0-1.6-1.2-2.7-2.7-2.7s-2.7,1.1-2.7,2.7c0,1.6,1.2,2.7,2.7,2.7
					C85.9,962.3,87.1,961.1,87.1,959.5z"/>
			</g>
		</g>
		<g>
			<g>
				<path class="st1" d="M91.1,951.3H93v12.5h-1.9V951.3z"/>
			</g>
		</g>
		<g>
			<g>
				<path class="st1" d="M102.9,955.2l-3.3,8.6h-2.1l-3.3-8.6h2l2.4,6.5l2.4-6.5H102.9z"/>
			</g>
		</g>
		<g>
			<g>
				<path class="st1" d="M104.2,955.2h1.9v8.9c0,2.4-1.2,3.5-3.5,3.3v-1.8c1.1,0.1,1.7-0.3,1.7-1.5L104.2,955.2L104.2,955.2z
					 M104,952.8c0-0.7,0.5-1.2,1.2-1.2s1.2,0.5,1.2,1.2c0,0.6-0.5,1.2-1.2,1.2S104,953.4,104,952.8z"/>
			</g>
		</g>
		<g>
			<g>
				<path class="st1" d="M116,955.2l-3.3,8.8c-0.8,2.2-2.2,3.3-4.2,3.2v-1.7c1.2,0.1,1.9-0.5,2.3-1.7l0.1-0.2l-3.6-8.4h2l2.6,6.2
					l2.2-6.2L116,955.2L116,955.2z"/>
			</g>
		</g>
	</g>
	<g>
		<g>
			<path class="st1" d="M58.9,938.7c0,2.1-1.5,3.8-3.6,3.8h-3v-7.6h3C57.4,934.9,58.9,936.6,58.9,938.7z M57.9,938.7
				c0-1.6-1.1-2.9-2.6-2.9h-2v5.7h2C56.8,941.6,57.9,940.3,57.9,938.7z"/>
		</g>
		<g>
			<path class="st1" d="M67,941.6v1h-4.6V935h4.5v1h-3.5v2.3h3.2v0.9h-3.2v2.4L67,941.6L67,941.6z"/>
		</g>
		<g>
			<path class="st1" d="M70,940.8l0.9-0.5c0.3,0.8,0.9,1.4,2,1.4s1.6-0.5,1.6-1.2c0-0.8-0.7-1-1.8-1.4c-1.2-0.4-2.4-0.8-2.4-2.2
				s1.1-2.2,2.4-2.2s2.2,0.7,2.6,1.7l-0.8,0.5c-0.3-0.7-0.8-1.2-1.7-1.2c-0.8,0-1.4,0.4-1.4,1.1c0,0.7,0.5,1,1.6,1.3
				c1.3,0.4,2.6,0.8,2.6,2.3c0,1.3-1.1,2.2-2.6,2.2C71.5,942.7,70.4,941.9,70,940.8z"/>
		</g>
		<g>
			<path class="st1" d="M80,934.9v7.6h-1v-7.6H80z"/>
		</g>
		<g>
			<path class="st1" d="M91.3,939.2c0,1.9-1.4,3.5-3.7,3.5c-2.4,0-4-1.8-4-4s1.7-4,4-4c1.4,0,2.7,0.8,3.3,1.8L90,937
				c-0.4-0.8-1.4-1.4-2.4-1.4c-1.8,0-3,1.3-3,3s1.2,3,3,3c1.6,0,2.5-0.9,2.7-2h-2.8v-0.9h3.8C91.3,938.7,91.3,939.2,91.3,939.2z"/>
		</g>
		<g>
			<path class="st1" d="M100.6,934.9v7.6h-0.8l-3.9-5.7v5.7h-1v-7.6h0.8l3.9,5.7v-5.7H100.6z"/>
		</g>
		<g>
			<path class="st1" d="M109.1,941.6v1h-4.6V935h4.5v1h-3.5v2.3h3.2v0.9h-3.2v2.4L109.1,941.6L109.1,941.6z"/>
		</g>
		<g>
			<path class="st1" d="M119.2,938.7c0,2.1-1.5,3.8-3.6,3.8h-3v-7.6h3C117.6,934.9,119.2,936.6,119.2,938.7z M118.2,938.7
				c0-1.6-1.1-2.9-2.6-2.9h-2v5.7h2C117.1,941.6,118.2,940.3,118.2,938.7z"/>
		</g>
		<g>
			<path class="st1" d="M133.2,940.4c0,1.2-1,2.2-2.2,2.2h-3.3V935h3c1.2,0,2.1,0.9,2.1,2.1c0,0.7-0.3,1.2-0.8,1.6
				C132.7,938.9,133.2,939.5,133.2,940.4z M128.7,935.8v2.3h2c0.6,0,1.1-0.5,1.1-1.2c0-0.6-0.5-1.2-1.1-1.2h-2V935.8z M132.2,940.3
				c0-0.7-0.5-1.2-1.2-1.2h-2.3v2.5h2.3C131.7,941.6,132.2,941,132.2,940.3z"/>
		</g>
		<g>
			<path class="st1" d="M139.4,939.4v3.1h-1v-3.1l-2.7-4.5h1.1l2.1,3.6l2.1-3.6h1.1L139.4,939.4z"/>
		</g>
	</g>
	<g>
		<g>
			<g>
				<g>
					<path class="st1" d="M846.1,938.7c0,2.1-1.5,3.8-3.6,3.8h-3v-7.6h3C844.6,934.9,846.1,936.6,846.1,938.7z M845.2,938.7
						c0-1.6-1.1-2.9-2.6-2.9h-2v5.7h2C844.1,941.6,845.2,940.3,845.2,938.7z"/>
				</g>
			</g>
			<g>
				<g>
					<path class="st1" d="M849.3,938.7c0-2.2,1.7-4,3.9-4s4,1.8,4,4s-1.7,4-4,4C851,942.7,849.3,940.9,849.3,938.7z M856.1,938.7
						c0-1.7-1.3-3-2.9-3c-1.7,0-2.9,1.3-2.9,3s1.3,3,2.9,3C854.9,941.7,856.1,940.4,856.1,938.7z"/>
				</g>
			</g>
			<g>
				<g>
					<path class="st1" d="M859.8,934.9h1.1l1.7,6.3l1.9-6.3h1l1.9,6.3l1.7-6.3h1.1l-2.2,7.6h-1.2l-1.8-6.1l-1.8,6.1H862L859.8,934.9
						z"/>
				</g>
			</g>
			<g>
				<g>
					<path class="st1" d="M879.3,934.9v7.6h-0.8l-3.9-5.7v5.7h-1v-7.6h0.8l3.9,5.7v-5.7H879.3z"/>
				</g>
			</g>
			<g>
				<g>
					<path class="st1" d="M887.5,941.6v1h-4.3V935h1v6.7h3.3V941.6z"/>
				</g>
			</g>
			<g>
				<g>
					<path class="st1" d="M889.9,938.7c0-2.2,1.7-4,3.9-4s4,1.8,4,4s-1.7,4-4,4C891.6,942.7,889.9,940.9,889.9,938.7z M896.8,938.7
						c0-1.7-1.3-3-2.9-3c-1.7,0-2.9,1.3-2.9,3s1.3,3,2.9,3S896.8,940.4,896.8,938.7z"/>
				</g>
			</g>
			<g>
				<g>
					<path class="st1" d="M905.4,940.8H902l-0.6,1.7h-1.1l2.8-7.6h1.1l2.8,7.6h-1L905.4,940.8z M905.1,939.9l-1.4-3.8l-1.4,3.8
						H905.1z"/>
				</g>
			</g>
			<g>
				<g>
					<path class="st1" d="M916.9,938.7c0,2.1-1.5,3.8-3.6,3.8h-3v-7.6h3C915.4,934.9,916.9,936.6,916.9,938.7z M915.9,938.7
						c0-1.6-1.1-2.9-2.6-2.9h-2v5.7h2C914.9,941.6,915.9,940.3,915.9,938.7z"/>
				</g>
			</g>
			<g>
				<g>
					<path class="st1" d="M926.5,935.8v2.5h3.2v1h-3.2v3.2h-1v-7.6h4.4v1h-3.4V935.8z"/>
				</g>
			</g>
			<g>
				<g>
					<path class="st1" d="M936.2,939.6h-1.8v2.9h-1v-7.6h3c1.3,0,2.4,1.1,2.4,2.4c0,1-0.7,1.9-1.6,2.2l1.8,3.1h-1.1L936.2,939.6z
						 M934.4,938.7h2c0.8,0,1.4-0.6,1.4-1.4c0-0.8-0.6-1.4-1.4-1.4h-2V938.7z"/>
				</g>
			</g>
			<g>
				<g>
					<path class="st1" d="M941.9,938.7c0-2.2,1.7-4,3.9-4s4,1.8,4,4s-1.7,4-4,4C943.6,942.7,941.9,940.9,941.9,938.7z M948.8,938.7
						c0-1.7-1.3-3-2.9-3c-1.7,0-2.9,1.3-2.9,3s1.3,3,2.9,3S948.8,940.4,948.8,938.7z"/>
				</g>
			</g>
			<g>
				<g>
					<path class="st1" d="M960.4,942.5h-1v-6l-2.5,4.2h-0.1l-2.5-4.1v5.9h-1v-7.6h1.1l2.4,4l2.4-4h1.1L960.4,942.5L960.4,942.5z"/>
				</g>
			</g>
		</g>
		<g>
			<g>
				<g>
					<path class="st1" d="M839.3,952.9c0-0.7,0.5-1.2,1.2-1.2s1.2,0.5,1.2,1.2s-0.5,1.2-1.2,1.2
						C839.9,954.1,839.3,953.6,839.3,952.9z M839.6,955.4h1.9v8.9h-1.9V955.4z"/>
				</g>
			</g>
			<g>
				<g>
					<path class="st1" d="M843.7,951.4h1.9v12.9h-1.9V951.4z"/>
				</g>
			</g>
			<g>
				<g>
					<path class="st1" d="M847.8,951.4h1.9v12.9h-1.9V951.4z"/>
				</g>
			</g>
			<g>
				<g>
					<path class="st1" d="M852,951.4h1.9v12.9H852V951.4z"/>
				</g>
			</g>
			<g>
				<g>
					<path class="st1" d="M864,955.4v8.9h-1.9v-1.1c-0.6,0.9-1.5,1.4-2.7,1.4c-2,0-3.4-1.3-3.4-3.6v-5.4h1.9v5.2
						c0,1.3,0.8,2.1,2,2.1c1.3,0,2.2-0.7,2.2-2.5v-4.7h1.9V955.4z"/>
				</g>
			</g>
			<g>
				<g>
					<path class="st1" d="M872.6,961.8c0,1.8-1.5,2.7-3.5,2.7c-1.8,0-3-0.8-3.6-2.1l1.6-1c0.3,0.8,1,1.3,2,1.3c0.8,0,1.5-0.3,1.5-1
						c0-1.6-4.8-0.7-4.8-3.9c0-1.7,1.4-2.7,3.2-2.7c1.5,0,2.7,0.7,3.3,1.8l-1.6,0.9c-0.3-0.7-0.9-1-1.7-1c-0.7,0-1.3,0.3-1.3,0.9
						C867.9,959.5,872.6,958.5,872.6,961.8z"/>
				</g>
			</g>
			<g>
				<g>
					<path class="st1" d="M876.7,957.3v4.2c0,1.1,0.7,1.1,2.2,1v1.7c-2.9,0.4-4.1-0.5-4.1-2.8v-4.2h-1.6v-1.8h1.6v-1.9l1.9-0.6v2.5
						h2.2v1.8L876.7,957.3L876.7,957.3z"/>
				</g>
			</g>
			<g>
				<g>
					<path class="st1" d="M885.4,955.3v2.1c-1.3-0.1-2.7,0.5-2.7,2.5v4.5h-1.9v-8.9h1.9v1.5C883.2,955.7,884.2,955.3,885.4,955.3z"
						/>
				</g>
			</g>
			<g>
				<g>
					<path class="st1" d="M895.3,955.4v8.9h-1.9V963c-0.7,0.9-1.7,1.5-3.1,1.5c-2.4,0-4.4-2-4.4-4.7c0-2.6,2-4.7,4.4-4.7
						c1.4,0,2.4,0.6,3.1,1.5v-1.3h1.9V955.4z M893.4,959.9c0-1.6-1.2-2.8-2.8-2.8s-2.8,1.2-2.8,2.8s1.2,2.8,2.8,2.8
						S893.4,961.5,893.4,959.9z"/>
				</g>
			</g>
			<g>
				<g>
					<path class="st1" d="M900.3,957.3v4.2c0,1.1,0.7,1.1,2.2,1v1.7c-2.9,0.4-4.1-0.5-4.1-2.8v-4.2h-1.6v-1.8h1.6v-1.9l1.9-0.6v2.5
						h2.2v1.8L900.3,957.3L900.3,957.3z"/>
				</g>
			</g>
			<g>
				<g>
					<path class="st1" d="M903.9,952.9c0-0.7,0.5-1.2,1.2-1.2s1.2,0.5,1.2,1.2s-0.5,1.2-1.2,1.2
						C904.5,954.1,903.9,953.6,903.9,952.9z M904.2,955.4h1.9v8.9h-1.9V955.4z"/>
				</g>
			</g>
			<g>
				<g>
					<path class="st1" d="M907.8,959.9c0-2.6,2.1-4.7,4.7-4.7c2.6,0,4.7,2,4.7,4.7c0,2.6-2.1,4.7-4.7,4.7
						C909.9,964.5,907.8,962.5,907.8,959.9z M915.3,959.9c0-1.6-1.2-2.8-2.8-2.8s-2.8,1.2-2.8,2.8s1.2,2.8,2.8,2.8
						S915.3,961.5,915.3,959.9z"/>
				</g>
			</g>
			<g>
				<g>
					<path class="st1" d="M927,958.9v5.4h-1.9v-5.2c0-1.3-0.8-2.1-2-2.1c-1.3,0-2.2,0.7-2.2,2.5v4.7H919v-8.9h1.9v1.1
						c0.6-0.9,1.5-1.4,2.7-1.4C925.5,955.2,927,956.6,927,958.9z"/>
				</g>
			</g>
			<g>
				<g>
					<path class="st1" d="M935.5,961.8c0,1.8-1.5,2.7-3.5,2.7c-1.8,0-3-0.8-3.6-2.1l1.6-1c0.3,0.8,1,1.3,2,1.3c0.8,0,1.5-0.3,1.5-1
						c0-1.6-4.8-0.7-4.8-3.9c0-1.7,1.4-2.7,3.2-2.7c1.5,0,2.7,0.7,3.3,1.8l-1.6,0.9c-0.3-0.7-0.9-1-1.7-1c-0.7,0-1.3,0.3-1.3,0.9
						C930.7,959.5,935.5,958.5,935.5,961.8z"/>
				</g>
			</g>
			<g>
				<g>
					<path class="st1" d="M936.8,963.2c0-0.7,0.6-1.3,1.3-1.3s1.3,0.6,1.3,1.3s-0.6,1.3-1.3,1.3
						C937.4,964.5,936.8,963.9,936.8,963.2z"/>
				</g>
			</g>
			<g>
				<g>
					<path class="st1" d="M940.3,959.9c0-2.6,2-4.7,4.7-4.7c1.7,0,3.2,0.9,3.9,2.3l-1.6,1c-0.4-0.8-1.3-1.4-2.3-1.4
						c-1.6,0-2.7,1.2-2.7,2.8s1.2,2.8,2.7,2.8c1.1,0,1.9-0.5,2.4-1.4l1.6,0.9c-0.7,1.4-2.2,2.3-4,2.3
						C942.3,964.5,940.3,962.5,940.3,959.9z"/>
				</g>
			</g>
			<g>
				<g>
					<path class="st1" d="M949.7,959.9c0-2.6,2.1-4.7,4.7-4.7c2.6,0,4.7,2,4.7,4.7c0,2.6-2.1,4.7-4.7,4.7
						C951.8,964.5,949.7,962.5,949.7,959.9z M957.2,959.9c0-1.6-1.2-2.8-2.8-2.8s-2.8,1.2-2.8,2.8s1.2,2.8,2.8,2.8
						S957.2,961.5,957.2,959.9z"/>
				</g>
			</g>
		</g>
	</g>
	<g>
		<path class="st1" d="M209.9,943.1c-1.2,0-2.2-0.4-3-1.2s-1.2-1.8-1.2-2.9c0-1.2,0.4-2.1,1.2-2.9c0.8-0.8,1.8-1.2,3-1.2
			c0.7,0,1.4,0.2,2,0.5s1.1,0.8,1.4,1.4l-0.9,0.5c-0.2-0.4-0.6-0.8-1-1s-0.9-0.4-1.5-0.4c-0.9,0-1.7,0.3-2.2,0.9
			c-0.6,0.6-0.9,1.3-0.9,2.2s0.3,1.6,0.9,2.2c0.6,0.6,1.3,0.9,2.2,0.9c0.5,0,1-0.1,1.5-0.4c0.5-0.3,0.8-0.6,1-1l0.9,0.5
			c-0.3,0.6-0.8,1.1-1.4,1.4S210.6,943.1,209.9,943.1z"/>
		<path class="st1" d="M222.1,941.9c-0.8,0.8-1.8,1.2-2.9,1.2s-2.1-0.4-2.9-1.2s-1.2-1.8-1.2-2.9c0-1.2,0.4-2.1,1.2-2.9
			c0.8-0.8,1.8-1.2,2.9-1.2s2.1,0.4,2.9,1.2c0.8,0.8,1.2,1.8,1.2,2.9C223.3,940.1,222.9,941.1,222.1,941.9z M217,941.2
			c0.6,0.6,1.3,0.9,2.2,0.9s1.6-0.3,2.2-0.9c0.6-0.6,0.9-1.3,0.9-2.2s-0.3-1.6-0.9-2.2c-0.6-0.6-1.3-0.9-2.2-0.9s-1.6,0.3-2.2,0.9
			c-0.6,0.6-0.9,1.3-0.9,2.2C216.1,939.8,216.4,940.6,217,941.2z"/>
		<path class="st1" d="M227.3,942.9l-2.8-7.9h1.1l2.3,6.6l2.3-6.6h1.1l-2.8,7.9H227.3z"/>
		<path class="st1" d="M233.3,935h1.1v7.9h-1.1V935z"/>
		<path class="st1" d="M240.2,935c1.1,0,2,0.4,2.7,1.2s1.1,1.7,1.1,2.8s-0.4,2.1-1.1,2.8c-0.7,0.8-1.6,1.2-2.7,1.2h-3.1v-8H240.2z
			 M240.2,941.9c0.8,0,1.5-0.3,2-0.9c0.5-0.6,0.8-1.3,0.8-2.1s-0.3-1.6-0.8-2.1c-0.5-0.6-1.2-0.9-2-0.9h-2v5.9L240.2,941.9
			L240.2,941.9z"/>
		<path class="st1" d="M246.2,939.9v-1h4.1v1H246.2z"/>
		<path class="st1" d="M258,937.5c0,0.6-0.2,1.1-0.5,1.6l0,0l-2.6,3.8h-1.2l1.9-2.8c-0.2,0-0.3,0-0.4,0c-0.8,0-1.5-0.2-2-0.7
			s-0.8-1.1-0.8-1.9c0-0.8,0.3-1.4,0.8-1.9s1.2-0.7,2-0.7s1.5,0.2,2,0.7C257.8,936.1,258,936.7,258,937.5z M254.1,936.3
			c-0.3,0.3-0.5,0.7-0.5,1.2s0.2,0.9,0.5,1.2s0.7,0.5,1.2,0.5s0.9-0.2,1.2-0.5s0.5-0.7,0.5-1.2s-0.2-0.9-0.5-1.2s-0.7-0.5-1.2-0.5
			C254.8,935.9,254.4,936,254.1,936.3z"/>
	</g>
	<g>
		<path class="st1" d="M208.1,964.8l-3.7-13h2.3l2.7,10.2l3-10.2h2l2.9,10.2l2.7-10.2h2.3l-3.7,13h-2.5l-2.8-9.5l-2.8,9.5H208.1z"/>
		<path class="st1" d="M224.3,961c0.1,0.7,0.5,1.2,1,1.6s1.2,0.6,2,0.6c1.1,0,1.9-0.4,2.4-1.2l1.7,1c-0.9,1.4-2.3,2-4.1,2
			c-1.5,0-2.7-0.5-3.7-1.4c-0.9-0.9-1.4-2.1-1.4-3.5s0.5-2.6,1.4-3.5s2.1-1.4,3.5-1.4s2.5,0.5,3.4,1.4c0.9,1,1.3,2.1,1.3,3.5
			c0,0.2,0,0.5-0.1,0.8h-7.4V961z M224.3,959.4h5.5c-0.1-0.8-0.4-1.3-0.9-1.7s-1.1-0.6-1.7-0.6c-0.7,0-1.4,0.2-1.9,0.6
			C224.7,958.1,224.4,958.7,224.3,959.4z"/>
		<path class="st1" d="M240.8,955.5h2v9.3h-2v-1.3c-0.8,1.1-1.8,1.6-3.3,1.6c-1.3,0-2.4-0.5-3.3-1.4c-0.9-0.9-1.4-2.1-1.4-3.5
			s0.5-2.5,1.4-3.5s2-1.4,3.3-1.4c1.4,0,2.5,0.5,3.3,1.6V955.5z M235.8,962.3c0.6,0.6,1.3,0.8,2.1,0.8s1.5-0.3,2.1-0.8
			s0.8-1.3,0.8-2.1s-0.3-1.6-0.8-2.1s-1.3-0.8-2.1-0.8s-1.5,0.3-2.1,0.8c-0.6,0.6-0.8,1.3-0.8,2.1S235.2,961.7,235.8,962.3z"/>
		<path class="st1" d="M247.2,957.1c0.5-1.2,1.5-1.7,2.9-1.7v2.2c-0.8,0-1.4,0.1-2,0.5s-0.9,1.1-0.9,2.1v4.7h-2v-9.3h2V957.1z"/>
		<path class="st1" d="M268.8,951.8v13h-2.1v-9.3l-4,6.5h-0.3l-4-6.6v9.3h-2.1v-13h2.3l3.9,6.5l3.9-6.5L268.8,951.8L268.8,951.8z"/>
		<path class="st1" d="M278.6,955.5h2v9.3h-2v-1.3c-0.8,1.1-1.8,1.6-3.3,1.6c-1.3,0-2.4-0.5-3.3-1.4s-1.4-2.1-1.4-3.5
			s0.5-2.5,1.4-3.5s2-1.4,3.3-1.4c1.4,0,2.5,0.5,3.3,1.6V955.5z M273.6,962.3c0.6,0.6,1.3,0.8,2.1,0.8c0.8,0,1.5-0.3,2.1-0.8
			s0.8-1.3,0.8-2.1s-0.3-1.6-0.8-2.1s-1.3-0.8-2.1-0.8c-0.8,0-1.5,0.3-2.1,0.8c-0.6,0.6-0.8,1.3-0.8,2.1S273,961.7,273.6,962.3z"/>
		<path class="st1" d="M284.7,958.1c0,0.3,0.2,0.6,0.5,0.7c0.3,0.2,0.8,0.3,1.2,0.5c0.5,0.1,1,0.3,1.5,0.5s0.9,0.5,1.3,0.9
			c0.3,0.4,0.5,0.9,0.5,1.6c0,0.9-0.3,1.6-1,2.1s-1.6,0.8-2.6,0.8c-0.9,0-1.7-0.2-2.4-0.6c-0.7-0.4-1.1-0.9-1.4-1.6l1.7-1
			c0.3,0.9,1,1.3,2.1,1.3s1.6-0.3,1.6-1c0-0.3-0.2-0.5-0.5-0.7s-0.8-0.3-1.2-0.5c-0.5-0.1-1-0.3-1.5-0.5s-0.9-0.5-1.3-0.9
			c-0.3-0.4-0.5-0.9-0.5-1.5c0-0.9,0.3-1.5,1-2.1c0.7-0.5,1.5-0.8,2.4-0.8c0.8,0,1.5,0.2,2.1,0.5s1.1,0.8,1.4,1.4l-1.7,0.9
			c-0.3-0.7-0.9-1.1-1.7-1.1c-0.4,0-0.7,0.1-1,0.3C284.9,957.5,284.7,957.8,284.7,958.1z"/>
		<path class="st1" d="M299.6,964.8h-2.4l-3.8-4.3v4.3h-2v-13h2v7.8l3.6-4.1h2.5l-4.1,4.6L299.6,964.8z"/>
	</g>
</g>
<ellipse class="st2" cx="500" cy="823.2" rx="258.3" ry="45.2"/>
<g>
	<path id="XMLID_5_" class="st3" d="M499.8,757.6L499.8,757.6c-114,0-206.6-92.3-206.6-206.6V311.2h413.2v239.7
		C706.5,664.9,614.1,757.6,499.8,757.6z"/>
	<path id="XMLID_1198_" class="st4" d="M499.8,729.1L499.8,729.1c-114,0-206.6-92.3-206.6-206.6V551c0,114,92.3,206.6,206.6,206.6
		l0,0c114,0,206.6-92.3,206.6-206.6v-28.5C706.5,636.4,614.1,729.1,499.8,729.1z"/>
	<path id="XMLID_2424_" class="st5" d="M499.8,757.6L499.8,757.6c-114,0-206.6-92.3-206.6-206.6V311.2h413.2v239.7
		C706.5,664.9,614.1,757.6,499.8,757.6z"/>
	<path id="XMLID_1197_" class="st4" d="M708.1,335.1c-0.7-11.1-1.3-22.6-1.6-33.7c-137.5,6.5-275.7,5.6-412.9-6.5
		c-1,12.8-1.6,25.5-2.6,38.3c6.2,5.6,12.8,11.5,19,17c5.2,2.6,12.1,6.2,18.3,9.5c27.5,14.4,65.8,32.7,102.5,39.9
		c13.4,2.6,27.5,3.9,41.9,3.6c61.9-0.7,114-25.2,135.9-35.4c3.3-1.6,5.9-2.9,7.5-3.3c1.3-0.7,2.6-1,4.6-1c3.9,0,8.5,1,14.1,2
		c7.2,1.6,15.7,3.3,25.2,2.6c10.8-0.7,20.6-3.9,30.1-10.2C695.7,350.2,701.9,342.7,708.1,335.1z"/>
	<g id="XMLID_2783_" class="st6">
		<rect id="XMLID_2784_" x="270.3" y="444.5" class="st7" width="22.9" height="21.6"/>
		<rect id="XMLID_2785_" x="706.5" y="444.5" class="st7" width="22.9" height="21.6"/>
	</g>
	<g>
		<path id="XMLID_68_" class="st8" d="M608.6,190.7c0,0-165.4-109-302.2,12.8c-25.5,22.6-35.7,55-35.7,84.8v177.8h22.9V351.5
			c0-8.5,5.9-15.1,13.1-15.1l0,0c11.8,0,75.6,34.1,129.7,43.6c81.5,14.1,155.9-23.6,171.9-29.1c27.5-9.8,49.8,24.2,84.5-14.1h1.3
			c7.2,0,13.1,6.9,13.1,15.1v114.6H730V289.3C729.4,250.6,684.8,153.7,608.6,190.7z"/>
		<path id="XMLID_3_" class="st5" d="M608.6,190.7c0,0-165.4-109-302.2,12.8c-25.5,22.6-35.7,55-35.7,84.8v177.8h22.9V351.5
			c0-8.5,5.9-15.1,13.1-15.1l0,0c11.8,0,75.6,34.1,129.7,43.6c81.5,14.1,155.9-23.6,171.9-29.1c27.5-9.8,49.8,24.2,84.5-14.1h1.3
			c7.2,0,13.1,6.9,13.1,15.1v114.6H730V289.3C729.4,250.6,684.8,153.7,608.6,190.7z"/>
		<path id="XMLID_6_" class="st5" d="M468.7,297.1c0,0-177.5,11.5-215.1-82.8"/>
		<path id="XMLID_9_" class="st5" d="M493.9,274.5c0,0-170.9-10.8-215.5-105.1"/>
	</g>
	<path id="XMLID_85_" class="st3" d="M706.5,440.6V548c22.9,0,41.3-23.9,41.3-53.7l0,0C747.7,464.5,729.4,440.6,706.5,440.6z"/>
	<path id="XMLID_1205_" class="st4" d="M706.5,446.5v95.3c13.4-8.8,22.6-26.9,22.6-47.8l0,0C729.1,473.3,719.9,455.3,706.5,446.5z"
		/>
	<path id="XMLID_12_" class="st5" d="M706.5,440.6V548c22.9,0,41.3-23.9,41.3-53.7l0,0C747.7,464.5,729.4,440.6,706.5,440.6z"/>
	<path id="XMLID_87_" class="st3" d="M293.5,440.6V548c-22.9,0-41.3-23.9-41.3-53.7l0,0C252,464.5,270.6,440.6,293.5,440.6z"/>
	<path id="XMLID_1203_" class="st4" d="M293.5,448.4c-11.8,9.5-20,26.5-20,45.8l0,0c0,19.3,7.9,36.3,20,45.8V448.4z"/>
	<path id="XMLID_11_" class="st5" d="M293.5,440.6V548c-22.9,0-41.3-23.9-41.3-53.7l0,0C252,464.5,270.6,440.6,293.5,440.6z"/>
	<path id="XMLID_7_" class="st5" d="M491.3,528l-13.8,44.9c0,4.9,16,1,32.4,4.9"/>
	<path id="XMLID_16_" class="st5" d="M568.6,611.8c4.9,34.1-39,64.2-73.3,58"/>
	<g id="XMLID_19_">
		<ellipse id="XMLID_14_" class="st9" cx="425.5" cy="475.3" rx="13.8" ry="14.7"/>
		<ellipse id="XMLID_20_" class="st10" cx="425.5" cy="475.3" rx="13.8" ry="14.7"/>
		<path id="XMLID_17_" class="st5" d="M378,444.2c6.9-8.2,22.9-13.8,41.9-13.8c15.1,0,28.2,3.6,36.3,9.2"/>
	</g>
	<g id="XMLID_13_">
		<ellipse id="XMLID_22_" class="st9" cx="576.1" cy="475.3" rx="13.8" ry="14.7"/>
		<ellipse id="XMLID_21_" class="st10" cx="576.1" cy="475.3" rx="13.8" ry="14.7"/>
		<path id="XMLID_18_" class="st5" d="M623.6,444.2c-6.9-8.2-22.9-13.8-41.9-13.8c-15.1,0-28.2,3.6-36.3,9.2"/>
	</g>
	<g>
		<g>
			<path class="st11" d="M657,593.7L657,593.7c0-18.1,0-36.1,0-54.2c-104.6-9-210-9-314.6,0c0,18.1,0,36.1,0,54.2l0,0l0,0
				c0,75.1,70.4,136,157.3,136S657,668.9,657,593.7L657,593.7z"/>
			<path class="st11" d="M657,593.7L657,593.7c0-18.1,0-36.1,0-54.2c-104.6-9-210-9-314.6,0c0,18.1,0,36.1,0,54.2l0,0l0,0
				c0,75.1,70.4,136,157.3,136S657,668.9,657,593.7L657,593.7z"/>
			<g>
				<path class="st12" d="M499.7,683c-86.9,0-157.3-49.1-157.3-109.7c0,6.8,0,13.7,0,20.5l0,0l0,0c0,75.1,70.4,136,157.3,136
					S657,668.9,657,593.7l0,0l0,0c0-6.8,0-13.7,0-20.5C657,633.8,586.6,683,499.7,683z"/>
				<path class="st12" d="M342.4,573.2L342.4,573.2L342.4,573.2z"/>
				<path class="st12" d="M657,573.2L657,573.2L657,573.2z"/>
			</g>
			<path class="st13" d="M657,561.8c-104.7-9-210-9-314.6,0"/>
			<path class="st5" d="M657,593.7L657,593.7c0-18.1,0-36.1,0-54.2c-104.6-9-210-9-314.6,0c0,18.1,0,36.1,0,54.2l0,0l0,0
				c0,75.1,70.4,136,157.3,136S657,668.9,657,593.7L657,593.7z"/>
			<path class="st5" d="M380.4,591.1c23.8,11.8,68.3,19.7,119.3,19.7s95.5-7.9,119.3-19.7"/>
			<path class="st5" d="M393.6,646.6c21.2,11.8,60.8,19.7,106.1,19.7s85-7.9,106.1-19.7"/>
		</g>
		<path class="st5" d="M657,539.6l49.4-95.1V548c0,0-19.4,59.9-61.8,98.6"/>
		<path class="st5" d="M343,539.6l-49.4-95.1V548c0,0,19.4,59.9,61.8,98.6"/>
	</g>
</g>
</svg>
