<?xml version="1.0" encoding="utf-8"?>
<!-- Generator: Adobe Illustrator 23.1.1, SVG Export Plug-In . SVG Version: 6.00 Build 0)  -->
<svg version="1.1" id="Layer_1" xmlns="http://www.w3.org/2000/svg" xmlns:xlink="http://www.w3.org/1999/xlink" x="0px" y="0px"
	 viewBox="0 0 253 60" style="enable-background:new 0 0 253 60;" xml:space="preserve">
<style type="text/css">
	.st0{fill:#18191F;}
	.st1{fill:#FFBD12;}
	.st2{fill-rule:evenodd;clip-rule:evenodd;fill:#18191F;}
	.st3{fill-rule:evenodd;clip-rule:evenodd;fill:#FFFFFF;}
</style>
<path class="st0" d="M86.1,49.3c-4.8,0-8.8-1.6-12-4.8c-3.2-3.2-4.8-7.2-4.8-11.9c0-4.7,1.6-8.7,4.8-11.9c3.2-3.2,7.2-4.8,12-4.8
	c3,0,5.8,0.7,8.4,2.2c2.6,1.5,4.6,3.4,6,5.9l-8.3,4.8C91,26.5,89,25.3,86,25.3c-2.1,0-3.8,0.7-5.1,2.1c-1.4,1.4-2,3.1-2,5.3
	c0,2.2,0.7,3.9,2,5.3c1.4,1.4,3.1,2,5.1,2c3,0,5-1.2,6.1-3.5l8.3,4.7c-1.4,2.5-3.4,4.5-5.9,6C92,48.6,89.2,49.3,86.1,49.3z"/>
<path class="st0" d="M118.1,49c-3.4,0-6.4-0.7-9.1-2.1c-2.7-1.4-4.8-3.3-6.4-5.8c-1.5-2.5-2.3-5.3-2.3-8.4c0-3.1,0.8-5.9,2.3-8.4
	c1.5-2.5,3.7-4.4,6.3-5.7c2.7-1.4,5.8-2.1,9.2-2.1c3.4,0,6.5,0.7,9.2,2.1c2.7,1.4,4.8,3.3,6.3,5.7c1.5,2.4,2.3,5.2,2.3,8.4
	c0,3.1-0.8,5.9-2.3,8.4c-1.5,2.5-3.6,4.4-6.3,5.8C124.5,48.3,121.5,49,118.1,49z M118.1,40.2c1.9,0,3.5-0.7,4.8-2
	c1.2-1.4,1.9-3.2,1.9-5.6c0-2.3-0.6-4.1-1.9-5.5c-1.2-1.3-2.8-2-4.8-2c-1.9,0-3.5,0.7-4.8,2c-1.2,1.3-1.9,3.1-1.9,5.5
	c0,2.4,0.6,4.2,1.9,5.6C114.6,39.6,116.1,40.2,118.1,40.2z"/>
<path class="st0" d="M159,16.5c3.9,0,7,1.2,9.4,3.5c2.4,2.3,3.6,5.8,3.6,10.5v18h-11V32.3c0-4.3-1.7-6.4-5.2-6.4
	c-1.9,0-3.4,0.6-4.6,1.9c-1.1,1.2-1.7,3.1-1.7,5.6v15.2h-11V17H149v3.4c1.2-1.3,2.7-2.2,4.4-2.9C155.1,16.8,156.9,16.5,159,16.5z"/>
<path class="st0" d="M198.2,47.2c-0.9,0.6-2.1,1-3.4,1.3c-1.3,0.3-2.7,0.5-4.2,0.5c-4.1,0-7.3-1-9.5-3c-2.2-2-3.3-5-3.3-9V26.4h-4.6
	v-8.2h4.6V10h11v8.2h7.2v8.2h-7.2v10.4c0,1.1,0.3,2,0.9,2.7c0.6,0.6,1.4,0.9,2.4,0.9c1.3,0,2.4-0.3,3.4-1L198.2,47.2z"/>
<path class="st0" d="M210.7,20.8c1.1-1.4,2.6-2.5,4.4-3.2c1.8-0.7,3.9-1.1,6.2-1.1v9.9c-1-0.1-1.8-0.2-2.5-0.2
	c-2.4,0-4.2,0.6-5.6,1.9c-1.3,1.3-2,3.2-2,5.9v14.4h-11V17h10.5V20.8z"/>
<path class="st0" d="M236.6,16.5c5.2,0,9.2,1.2,11.9,3.6c2.7,2.4,4.1,6,4.1,10.9v17.5h-10.3v-4.1c-1.6,3.1-4.7,4.6-9.3,4.6
	c-2.4,0-4.5-0.4-6.3-1.3c-1.8-0.9-3.1-2-4.1-3.4c-0.9-1.5-1.3-3.1-1.3-5c0-3,1.1-5.3,3.4-6.9c2.3-1.7,5.8-2.5,10.6-2.5h6.3
	c-0.2-3.3-2.4-5-6.7-5c-1.5,0-3,0.3-4.6,0.8c-1.5,0.5-2.9,1.1-3.9,2l-3.7-7.5c1.7-1.2,3.8-2,6.3-2.7
	C231.6,16.8,234.1,16.5,236.6,16.5z M236.2,42c1.3,0,2.4-0.3,3.4-0.9c1-0.6,1.7-1.5,2.1-2.7v-2.7h-4.8c-3.2,0-4.8,1.1-4.8,3.2
	c0,1,0.4,1.7,1.1,2.3C233.9,41.7,234.9,42,236.2,42z"/>
<circle class="st1" cx="30" cy="30" r="30"/>
<path class="st2" d="M14.5,46.6c4.1,4.1,9.2,6.1,15.3,6.1c3.7,0,7.2-0.9,10.3-2.6c3.2-1.8,5.6-4.1,7.4-7.1l-9.1-5.3
	c-0.8,1.5-1.9,2.6-3.5,3.5c-1.5,0.8-3.2,1.2-5.1,1.2c-3.3,0-5.9-1-7.9-3c-2-2.1-3-4.8-3-8.1c0-3.3,1-6,3-8c2-2.1,4.7-3.1,7.9-3.1
	c1.9,0,3.6,0.4,5.1,1.3c1.6,0.8,2.7,1.9,3.5,3.4l9.1-5.2c-1.8-3-4.3-5.3-7.4-7.1c-3.2-1.8-6.6-2.6-10.3-2.6c-6.2,0-11.3,2-15.3,6.1
	c-4,4.1-6,9.1-6,15.2C8.4,37.4,10.5,42.5,14.5,46.6z M46.7,36c2.6,0,4.7-2.1,4.7-4.7c0-2.6-2.1-4.7-4.7-4.7S42,28.8,42,31.3
	C42,33.9,44.1,36,46.7,36z"/>
<path class="st2" d="M35.6,42.4L35.6,42.4c-1.7,0.9-3.7,1.4-5.8,1.4c-3.6,0-6.6-1.1-8.9-3.4l0,0l0,0c-2.3-2.4-3.4-5.4-3.4-9
	c0-3.6,1.1-6.6,3.4-8.9c2.3-2.4,5.3-3.5,8.9-3.5c2.1,0,4,0.5,5.8,1.4c1.3,0.7,2.4,1.6,3.3,2.8l6.7-3.9c-1.6-2.2-3.6-4-6.2-5.5
	c-3-1.6-6.2-2.5-9.6-2.5c-5.8,0-10.6,1.9-14.4,5.7c-3.7,3.8-5.6,8.5-5.6,14.3c0,5.8,1.9,10.5,5.6,14.3c3.8,3.8,8.5,5.7,14.4,5.7
	c3.5,0,6.7-0.8,9.6-2.4c2.5-1.4,4.6-3.3,6.2-5.5l-6.7-3.9C38,40.7,36.9,41.6,35.6,42.4L35.6,42.4z M38.1,38.3
	c-0.8,1.2-1.8,2.2-3.2,2.9c-1.5,0.8-3.2,1.2-5.1,1.2c-3.3,0-5.9-1-7.9-3c-2-2.1-3-4.8-3-8.1c0-3.3,1-6,3-8c2-2.1,4.7-3.1,7.9-3.1
	c1.9,0,3.6,0.4,5.1,1.3c1.4,0.7,2.5,1.8,3.3,3c0.1,0.1,0.1,0.2,0.2,0.4l9.1-5.2c-0.2-0.4-0.5-0.8-0.7-1.1c-1.7-2.4-3.9-4.4-6.7-6
	c-3.2-1.8-6.6-2.6-10.3-2.6c-6.2,0-11.3,2-15.3,6.1c-4,4.1-6,9.1-6,15.2c0,6.1,2,11.2,6,15.3c4.1,4.1,9.2,6.1,15.3,6.1
	c3.7,0,7.2-0.9,10.3-2.6c2.8-1.5,5-3.5,6.7-6c0.3-0.4,0.5-0.7,0.7-1.1l-9.1-5.3C38.3,37.9,38.2,38.1,38.1,38.3z M46.7,34.7
	c1.8,0,3.3-1.5,3.3-3.3c0-1.8-1.5-3.3-3.3-3.3c-1.8,0-3.3,1.5-3.3,3.3C43.3,33.2,44.8,34.7,46.7,34.7z M51.3,31.3
	c0,2.6-2.1,4.7-4.7,4.7S42,33.9,42,31.3c0-2.6,2.1-4.7,4.7-4.7S51.3,28.8,51.3,31.3z"/>
<path class="st3" d="M14.5,45.3c4.1,4.1,9.2,6.1,15.3,6.1c3.7,0,7.2-0.9,10.3-2.6c3.2-1.8,5.6-4.1,7.4-7.1l-9.1-5.3
	c-0.8,1.5-1.9,2.6-3.5,3.5c-1.5,0.8-3.2,1.2-5.1,1.2c-3.3,0-5.9-1-7.9-3c-2-2.1-3-4.8-3-8.1c0-3.3,1-6,3-8c2-2.1,4.7-3.1,7.9-3.1
	c1.9,0,3.6,0.4,5.1,1.3c1.6,0.8,2.7,1.9,3.5,3.4l9.1-5.2c-1.8-3-4.3-5.3-7.4-7.1c-3.2-1.8-6.6-2.6-10.3-2.6c-6.2,0-11.3,2-15.3,6.1
	c-4,4.1-6,9.1-6,15.2C8.4,36.1,10.5,41.2,14.5,45.3z M46.7,34.7c2.6,0,4.7-2.1,4.7-4.7c0-2.6-2.1-4.7-4.7-4.7S42,27.4,42,30
	C42,32.6,44.1,34.7,46.7,34.7z"/>
<path class="st2" d="M35.6,41L35.6,41c-1.7,0.9-3.7,1.4-5.8,1.4c-3.6,0-6.6-1.1-8.9-3.4l0,0l0,0c-2.3-2.4-3.4-5.4-3.4-9
	c0-3.6,1.1-6.6,3.4-8.9c2.3-2.4,5.3-3.5,8.9-3.5c2.1,0,4,0.5,5.8,1.4c1.3,0.7,2.4,1.6,3.3,2.8l6.7-3.9c-1.6-2.2-3.6-4-6.2-5.5
	c-3-1.6-6.2-2.5-9.6-2.5c-5.8,0-10.6,1.9-14.4,5.7c-3.7,3.8-5.6,8.5-5.6,14.3c0,5.8,1.9,10.5,5.6,14.3C19.2,48.1,24,50,29.8,50
	c3.5,0,6.7-0.8,9.6-2.4c2.5-1.4,4.6-3.3,6.2-5.5l-6.7-3.9C38,39.3,36.9,40.3,35.6,41L35.6,41z M38.1,37c-0.8,1.2-1.8,2.2-3.2,2.9
	c-1.5,0.8-3.2,1.2-5.1,1.2c-3.3,0-5.9-1-7.9-3c-2-2.1-3-4.8-3-8.1c0-3.3,1-6,3-8c2-2.1,4.7-3.1,7.9-3.1c1.9,0,3.6,0.4,5.1,1.3
	c1.4,0.7,2.5,1.8,3.3,3c0.1,0.1,0.1,0.2,0.2,0.4l9.1-5.2c-0.2-0.4-0.5-0.8-0.7-1.1c-1.7-2.4-3.9-4.4-6.7-6
	c-3.2-1.8-6.6-2.6-10.3-2.6c-6.2,0-11.3,2-15.3,6.1c-4,4.1-6,9.1-6,15.2c0,6.1,2,11.2,6,15.3c4.1,4.1,9.2,6.1,15.3,6.1
	c3.7,0,7.2-0.9,10.3-2.6c2.8-1.5,5-3.5,6.7-6c0.3-0.4,0.5-0.7,0.7-1.1l-9.1-5.3C38.3,36.6,38.2,36.8,38.1,37z M46.7,33.3
	c1.8,0,3.3-1.5,3.3-3.3c0-1.8-1.5-3.3-3.3-3.3c-1.8,0-3.3,1.5-3.3,3.3C43.3,31.8,44.8,33.3,46.7,33.3z M51.3,30
	c0,2.6-2.1,4.7-4.7,4.7S42,32.6,42,30c0-2.6,2.1-4.7,4.7-4.7S51.3,27.4,51.3,30z"/>
</svg>
