<?xml version="1.0" encoding="utf-8"?>
<!-- Generator: Adobe Illustrator 23.1.1, SVG Export Plug-In . SVG Version: 6.00 Build 0)  -->
<svg version="1.1" id="Layer_1" xmlns="http://www.w3.org/2000/svg" xmlns:xlink="http://www.w3.org/1999/xlink" x="0px" y="0px"
	 viewBox="0 0 1000 1000" style="enable-background:new 0 0 1000 1000;" xml:space="preserve">
<style type="text/css">
	.st0{fill:#1B3B52;}
	.st1{fill:#EEF2F4;}
	.st2{opacity:0.35;fill:#395D77;}
	.st3{fill:#1B2238;}
	.st4{fill:#1A1F33;}
	.st5{fill:#6C9C36;}
	.st6{fill:#E63E35;}
	.st7{fill:#C61D34;}
	.st8{fill:#AF142E;}
	.st9{fill:#6C9C38;}
	.st10{fill:#593422;}
	.st11{fill:#F0EC95;}
	.st12{fill:#CEC67A;}
	.st13{fill:#CBDDAF;}
	.st14{fill:#EFF9E1;}
	.st15{fill:#A4B783;}
	.st16{fill:#F9F9F9;}
	.st17{fill:#3A7741;}
	.st18{fill:#A57767;}
</style>
<rect id="XMLID_1_" class="st0" width="1000" height="1000"/>
<g>
	<g>
		<g>
			<path class="st1" d="M63.2,959.2c0,2.5-1.2,3.7-2.6,3.7c-1.1,0-1.9-0.5-2.1-1.4c-0.4,0.5-1,0.8-1.8,0.8c-1.5,0-2.6-1.2-2.6-2.8
				c0-1.6,1.1-2.8,2.6-2.8c0.7,0,1.2,0.3,1.6,0.7v-0.5h1.6v3.9c0,0.8,0.3,1.4,1,1.4c0.9,0,1.7-0.9,1.7-3c0-3-2.3-5.3-5.4-5.3
				c-3.1,0-5.6,2.4-5.6,5.7c0,3.3,2.5,5.7,5.9,5.7c1.1,0,2.1-0.2,2.9-0.4v0.6c-0.8,0.3-1.7,0.4-2.9,0.4c-3.7,0-6.5-2.6-6.5-6.2
				c0-3.4,2.7-6.2,6.2-6.2C61.1,953.3,63.2,956.4,63.2,959.2z M58.3,959.5c0-0.8-0.6-1.4-1.3-1.4c-0.8,0-1.3,0.5-1.3,1.4
				c0,0.8,0.6,1.3,1.3,1.3C57.8,960.9,58.3,960.3,58.3,959.5z"/>
		</g>
		<g>
			<path class="st1" d="M69.4,955.1v2c-1.2-0.1-2.6,0.5-2.6,2.4v4.3h-1.9v-8.6h1.9v1.4C67.3,955.5,68.3,955.1,69.4,955.1z"/>
		</g>
		<g>
			<path class="st1" d="M74.6,962.3c1,0,1.8-0.5,2.2-1.1l1.5,0.9c-0.8,1.2-2.1,1.9-3.8,1.9c-2.8,0-4.7-1.9-4.7-4.5
				c0-2.5,1.8-4.5,4.5-4.5c2.6,0,4.3,2.1,4.3,4.5c0,0.3,0,0.5-0.1,0.8h-6.8C72.1,961.6,73.2,962.3,74.6,962.3z M76.9,958.8
				c-0.3-1.5-1.3-2.1-2.5-2.1c-1.4,0-2.3,0.8-2.6,2.1H76.9z"/>
		</g>
		<g>
			<path class="st1" d="M88.9,955.2v8.6h-1.9v-1.2c-0.7,0.9-1.7,1.5-3,1.5c-2.3,0-4.3-2-4.3-4.5c0-2.6,1.9-4.5,4.3-4.5
				c1.3,0,2.3,0.5,3,1.4v-1.2H88.9z M87.1,959.5c0-1.6-1.2-2.7-2.7-2.7c-1.5,0-2.7,1.1-2.7,2.7c0,1.6,1.2,2.7,2.7,2.7
				C85.9,962.3,87.1,961.1,87.1,959.5z"/>
		</g>
		<g>
			<path class="st1" d="M91.1,951.3H93v12.5h-1.9V951.3z"/>
		</g>
		<g>
			<path class="st1" d="M102.9,955.2l-3.3,8.6h-2.1l-3.3-8.6h2l2.4,6.5l2.4-6.5H102.9z"/>
		</g>
		<g>
			<path class="st1" d="M104.2,955.2h1.9v8.9c0,2.4-1.2,3.5-3.5,3.3v-1.8c1.1,0.1,1.7-0.3,1.7-1.5V955.2z M104,952.8
				c0-0.7,0.5-1.2,1.2-1.2c0.7,0,1.2,0.5,1.2,1.2c0,0.6-0.5,1.2-1.2,1.2C104.5,954,104,953.4,104,952.8z"/>
		</g>
		<g>
			<path class="st1" d="M116,955.2l-3.3,8.8c-0.8,2.2-2.2,3.3-4.2,3.2v-1.7c1.2,0.1,1.9-0.5,2.3-1.7l0.1-0.2l-3.6-8.4h2l2.6,6.2
				l2.2-6.2H116z"/>
		</g>
	</g>
	<g>
		<path class="st1" d="M211.9,938.7c0,2.1-1.5,3.8-3.6,3.8h-3v-7.6h3C210.4,934.9,211.9,936.6,211.9,938.7z M210.9,938.7
			c0-1.6-1.1-2.9-2.6-2.9h-2v5.7h2C209.8,941.6,210.9,940.3,210.9,938.7z"/>
		<path class="st1" d="M219.5,940.8h-3.4l-0.6,1.7h-1.1l2.8-7.6h1.1l2.8,7.6h-1.1L219.5,940.8z M219.2,939.9l-1.4-3.8l-1.4,3.8
			H219.2z"/>
		<path class="st1" d="M226.4,939.4v3.1h-1v-3.1l-2.7-4.5h1.1l2.1,3.6l2.1-3.6h1.1L226.4,939.4z"/>
		<path class="st1" d="M239.5,934.9v7.6h-1V936l-1.6,0.5l-0.3-0.9l2-0.7H239.5z"/>
		<path class="st1" d="M243.1,941.7l2.7-2.7c0.6-0.6,1.1-1.2,1.1-1.9c0-0.9-0.6-1.4-1.4-1.4c-0.7,0-1.2,0.3-1.6,1l-0.8-0.5
			c0.5-1,1.4-1.5,2.4-1.5c1.2,0,2.4,0.8,2.4,2.3c0,0.9-0.6,1.8-1.4,2.5l-2,1.9h3.5v1h-4.9V941.7z"/>
	</g>
	<g>
		<path class="st1" d="M58.9,938.7c0,2.1-1.5,3.8-3.6,3.8h-3v-7.6h3C57.4,934.9,58.9,936.6,58.9,938.7z M57.9,938.7
			c0-1.6-1.1-2.9-2.6-2.9h-2v5.7h2C56.8,941.6,57.9,940.3,57.9,938.7z"/>
		<path class="st1" d="M67,941.6v1h-4.6v-7.6h4.5v1h-3.5v2.3h3.2v0.9h-3.2v2.4H67z"/>
		<path class="st1" d="M70,940.8l0.9-0.5c0.3,0.8,0.9,1.4,2,1.4c1.1,0,1.6-0.5,1.6-1.2c0-0.8-0.7-1-1.8-1.4
			c-1.2-0.4-2.4-0.8-2.4-2.2c0-1.4,1.1-2.2,2.4-2.2c1.3,0,2.2,0.7,2.6,1.7l-0.8,0.5c-0.3-0.7-0.8-1.2-1.7-1.2
			c-0.8,0-1.4,0.4-1.4,1.1c0,0.7,0.5,1,1.6,1.3c1.3,0.4,2.6,0.8,2.6,2.3c0,1.3-1.1,2.2-2.6,2.2C71.5,942.7,70.4,941.9,70,940.8z"/>
		<path class="st1" d="M80,934.9v7.6h-1v-7.6H80z"/>
		<path class="st1" d="M91.3,939.2c0,1.9-1.4,3.5-3.7,3.5c-2.4,0-4-1.8-4-4c0-2.2,1.7-4,4-4c1.4,0,2.7,0.8,3.3,1.8l-0.9,0.5
			c-0.4-0.8-1.4-1.4-2.4-1.4c-1.8,0-3,1.3-3,3c0,1.7,1.2,3,3,3c1.6,0,2.5-0.9,2.7-2h-2.8v-0.9h3.8V939.2z"/>
		<path class="st1" d="M100.6,934.9v7.6h-0.8l-3.9-5.7v5.7h-1v-7.6h0.8l3.9,5.7v-5.7H100.6z"/>
		<path class="st1" d="M109.1,941.6v1h-4.6v-7.6h4.5v1h-3.5v2.3h3.2v0.9h-3.2v2.4H109.1z"/>
		<path class="st1" d="M119.2,938.7c0,2.1-1.5,3.8-3.6,3.8h-3v-7.6h3C117.6,934.9,119.2,936.6,119.2,938.7z M118.2,938.7
			c0-1.6-1.1-2.9-2.6-2.9h-2v5.7h2C117.1,941.6,118.2,940.3,118.2,938.7z"/>
		<path class="st1" d="M133.2,940.4c0,1.2-1,2.2-2.2,2.2h-3.3v-7.6h3c1.2,0,2.1,0.9,2.1,2.1c0,0.7-0.3,1.2-0.8,1.6
			C132.7,938.9,133.2,939.5,133.2,940.4z M128.7,935.8v2.3h2c0.6,0,1.1-0.5,1.1-1.2c0-0.6-0.5-1.2-1.1-1.2H128.7z M132.2,940.3
			c0-0.7-0.5-1.2-1.2-1.2h-2.3v2.5h2.3C131.7,941.6,132.2,941,132.2,940.3z"/>
		<path class="st1" d="M139.4,939.4v3.1h-1v-3.1l-2.7-4.5h1.1l2.1,3.6l2.1-3.6h1.1L139.4,939.4z"/>
	</g>
	<g>
		<path class="st1" d="M214.5,960.8c0,2.1-1.7,3.5-3.7,3.5h-5.3v-12.4h4.9c2,0,3.6,1.5,3.6,3.4c0,1.1-0.5,2-1.3,2.5
			C213.8,958.4,214.5,959.4,214.5,960.8z M207.5,953.8v3.3h2.9c0.9,0,1.6-0.7,1.6-1.6c0-0.9-0.7-1.6-1.6-1.6H207.5z M212.4,960.6
			c0-1-0.7-1.7-1.7-1.7h-3.3v3.5h3.3C211.7,962.4,212.4,961.6,212.4,960.6z"/>
		<path class="st1" d="M220.6,962.8c1.1,0,1.9-0.5,2.3-1.1l1.6,0.9c-0.8,1.2-2.1,1.9-3.9,1.9c-2.9,0-4.8-2-4.8-4.7
			c0-2.6,1.9-4.7,4.7-4.7c2.6,0,4.4,2.1,4.4,4.7c0,0.3,0,0.5-0.1,0.8h-7C218,962.1,219.1,962.8,220.6,962.8z M222.9,959.1
			c-0.3-1.5-1.4-2.2-2.5-2.2c-1.4,0-2.4,0.8-2.7,2.2H222.9z"/>
		<path class="st1" d="M235.4,951.9v12.4h-1.9V963c-0.7,0.9-1.7,1.5-3.1,1.5c-2.4,0-4.4-2-4.4-4.7c0-2.6,2-4.7,4.4-4.7
			c1.4,0,2.4,0.6,3.1,1.5v-4.8H235.4z M233.5,959.9c0-1.6-1.2-2.8-2.8-2.8c-1.6,0-2.8,1.2-2.8,2.8c0,1.6,1.2,2.8,2.8,2.8
			C232.3,962.7,233.5,961.5,233.5,959.9z"/>
	</g>
	<g>
		<path class="st1" d="M841.3,942.5h-1v-7.6h1.1l2.4,4l2.4-4h1.1v7.6h-1v-6l-2.5,4.2h-0.1l-2.5-4.1V942.5z M858.8,938.7
			c0,2.2-1.7,4-4,4c-2.2,0-3.9-1.8-3.9-4c0-2.2,1.7-4,3.9-4C857.1,934.7,858.8,936.5,858.8,938.7z M857.8,938.7c0-1.7-1.3-3-2.9-3
			c-1.7,0-2.9,1.3-2.9,3c0,1.7,1.3,3,2.9,3C856.6,941.7,857.8,940.4,857.8,938.7z M866.2,939.5l1.8,3.1h-1.1l-1.7-2.9h-1.8v2.9h-1
			v-7.6h3c1.3,0,2.4,1.1,2.4,2.4C867.8,938.2,867.1,939.1,866.2,939.5z M865.4,938.7c0.8,0,1.4-0.6,1.4-1.4c0-0.8-0.6-1.4-1.4-1.4
			h-2v2.8H865.4z M875.9,941.6h-3.5v-2.4h3.2v-0.9h-3.2v-2.3h3.5v-1h-4.5v7.6h4.6V941.6z M844.2,962.2l-2.5-6.7h-2.1l3.5,8.9h2.2
			l3.5-8.9h-2.1L844.2,962.2z M850,964.3h1.9v-8.9H850V964.3z M851,951.7c-0.7,0-1.2,0.5-1.2,1.2c0,0.7,0.5,1.2,1.2,1.2
			c0.7,0,1.2-0.6,1.2-1.2C852.2,952.2,851.6,951.7,851,951.7z M855.2,951.7c-0.7,0-1.2,0.5-1.2,1.2c0,0.7,0.5,1.2,1.2,1.2
			c0.7,0,1.2-0.6,1.2-1.2C856.5,952.2,855.9,951.7,855.2,951.7z M854.3,964.7c0,1.2-0.5,1.7-1.7,1.6v1.8c2.4,0.2,3.6-1,3.6-3.4v-9.2
			h-1.9V964.7z M865.4,955.4h1.9v8.9h-1.9V963c-0.7,0.9-1.7,1.5-3.1,1.5c-2.4,0-4.4-2-4.4-4.7c0-2.6,2-4.7,4.4-4.7
			c1.4,0,2.4,0.6,3.1,1.5V955.4z M865.4,959.9c0-1.6-1.2-2.8-2.8-2.8c-1.6,0-2.8,1.2-2.8,2.8c0,1.6,1.2,2.8,2.8,2.8
			C864.2,962.7,865.4,961.5,865.4,959.9z M873.3,961.9l-2.6-6.4h-2.1l3.8,8.7l-0.1,0.2c-0.4,1.2-1.1,1.8-2.4,1.7v1.8
			c2,0.1,3.5-1,4.3-3.3l3.4-9.1h-2L873.3,961.9z M882.3,962.2l-2.5-6.7h-2.1l3.5,8.9h2.2l3.5-8.9h-2.1L882.3,962.2z M896.4,959.9
			c0,0.3,0,0.5-0.1,0.8h-7c0.3,1.4,1.4,2.1,2.8,2.1c1.1,0,1.9-0.5,2.3-1.1l1.6,0.9c-0.8,1.2-2.1,1.9-3.9,1.9c-2.9,0-4.8-2-4.8-4.7
			c0-2.6,1.9-4.7,4.7-4.7C894.5,955.2,896.4,957.3,896.4,959.9z M894.4,959.1c-0.3-1.5-1.4-2.2-2.5-2.2c-1.4,0-2.4,0.8-2.7,2.2
			H894.4z M899.9,956.9v-1.5H898v8.9h1.9v-4.5c0-2,1.5-2.6,2.7-2.5v-2.1C901.6,955.3,900.5,955.7,899.9,956.9z M913.8,955.2
			c-1.2,0-2.1,0.5-2.7,1.4c-0.5-0.9-1.4-1.4-2.5-1.4c-1.1,0-2,0.4-2.5,1.3v-1.1h-1.9v8.9h1.9v-5c0-1.6,0.9-2.3,2-2.3
			c1,0,1.7,0.7,1.7,1.9v5.4h1.9v-5c0-1.6,0.8-2.3,1.9-2.3c1,0,1.7,0.7,1.7,1.9v5.4h1.9v-5.5C917.1,956.6,915.8,955.2,913.8,955.2z
			 M926.2,955.4h1.9v8.9h-1.9V963c-0.7,0.9-1.7,1.5-3.1,1.5c-2.4,0-4.4-2-4.4-4.7c0-2.6,2-4.7,4.4-4.7c1.4,0,2.4,0.6,3.1,1.5V955.4z
			 M926.2,959.9c0-1.6-1.2-2.8-2.8-2.8c-1.6,0-2.8,1.2-2.8,2.8c0,1.6,1.2,2.8,2.8,2.8C925,962.7,926.2,961.5,926.2,959.9z
			 M931.5,961.9c-0.7,0-1.3,0.6-1.3,1.3c0,0.7,0.6,1.3,1.3,1.3c0.7,0,1.3-0.6,1.3-1.3C932.8,962.4,932.2,961.9,931.5,961.9z
			 M938.3,962.6c-1.6,0-2.7-1.2-2.7-2.8c0-1.6,1.2-2.8,2.7-2.8c1.1,0,1.9,0.5,2.3,1.4l1.6-1c-0.7-1.4-2.2-2.3-3.9-2.3
			c-2.7,0-4.7,2-4.7,4.7c0,2.6,2,4.7,4.7,4.7c1.7,0,3.2-0.9,4-2.3l-1.6-0.9C940.2,962.1,939.3,962.6,938.3,962.6z M952.4,959.9
			c0,2.6-2.1,4.7-4.7,4.7c-2.6,0-4.7-2-4.7-4.7c0-2.6,2.1-4.7,4.7-4.7C950.3,955.2,952.4,957.2,952.4,959.9z M950.5,959.9
			c0-1.6-1.2-2.8-2.8-2.8s-2.8,1.2-2.8,2.8c0,1.6,1.2,2.8,2.8,2.8S950.5,961.5,950.5,959.9z"/>
	</g>
</g>
<path id="XMLID_120_" class="st2" d="M832.8,527.5H710.3V417.1h42.3c15.2,0,27.6-12.4,27.6-27.6v0c0-15.2-12.4-27.6-27.6-27.6h-42.3
	H698v-55.2h15.5c15.2,0,27.6-12.4,27.6-27.6v0c0-15.2-12.4-27.6-27.6-27.6H698h-2.6H531.1h-5.6H353.9h-39.3
	c-15.2,0-27.6,12.4-27.6,27.6v0c0,15.2,12.4,27.6,27.6,27.6h39.3v55.2H221c-11.7,0-21.2,9.5-21.2,21.2v0c0,11.7,9.5,21.2,21.2,21.2
	h132.9v44.2H154.8c-15.2,0-27.6,12.4-27.6,27.6v0c0,15.2,12.4,27.6,27.6,27.6h199.1v55.2H222.8c-24.4,0-44.2,19.8-44.2,44.2v0
	c0,24.4,19.8,44.2,44.2,44.2h131.1h58.2h32.7h265.5h122.5c33,0,59.8-26.8,59.8-59.8v0C892.6,554.3,865.8,527.5,832.8,527.5z"/>
<path id="XMLID_122_" class="st2" d="M818.1,417.1L818.1,417.1c-15.2,0-27.6-12.4-27.6-27.6v0c0-15.2,12.4-27.6,27.6-27.6l0,0
	c15.2,0,27.6,12.4,27.6,27.6v0C845.7,404.7,833.4,417.1,818.1,417.1z"/>
<path id="XMLID_65_" class="st0" d="M793.4,361.8H630.2c-15.2,0-27.6-12.4-27.6-27.6v0c0-15.2,12.4-27.6,27.6-27.6h163.3V361.8z"/>
<path id="XMLID_5_" class="st0" d="M910.8,527.5h-206c-30.5,0-55.2-24.7-55.2-55.2v0c0-30.5,24.7-55.2,55.2-55.2h206V527.5z"/>
<path id="XMLID_124_" class="st0" d="M309.5,558.8H71v-55.2h238.6c15.2,0,27.6,12.4,27.6,27.6v0
	C337.1,546.4,324.8,558.8,309.5,558.8z"/>
<path id="XMLID_129_" class="st0" d="M361.8,448.3H125c-4.1,0-7.4-3.3-7.4-7.4v-29.4c0-4.1,3.3-7.4,7.4-7.4h236.7
	c12.2,0,22.1,9.9,22.1,22.1v0C383.8,438.5,374,448.3,361.8,448.3z"/>
<path id="XMLID_152_" class="st0" d="M388.1,361.8H30.2v-55.2h357.8c15.2,0,27.6,12.4,27.6,27.6v0
	C415.7,349.5,403.3,361.8,388.1,361.8z"/>
<path id="XMLID_150_" class="st2" d="M245.5,306.6h-3.9c-15.2,0-27.6-12.4-27.6-27.6v0c0-15.2,12.4-27.6,27.6-27.6h3.9
	c15.2,0,27.6,12.4,27.6,27.6v0C273.1,294.3,260.8,306.6,245.5,306.6z"/>
<path id="XMLID_4_" class="st3" d="M844.3,664.3H184.2c-5.5,0-10,4.5-10,10c0,5.5,4.5,10,10,10H337c-5.5,0-10,4.5-10,10
	c0,5.5,4.5,10,10,10h-42.3c-5.5,0-10,4.5-10,10c0,5.5,4.5,10,10,10h380.2c5.5,0,10-4.5,10-10c0-5.5-4.5-10-10-10h25.4
	c5.5,0,10-4.5,10-10c0-5.5-4.5-10-10-10h144.1c5.5,0,10-4.5,10-10C854.3,668.7,849.8,664.3,844.3,664.3z"/>
<path id="XMLID_11_" class="st0" d="M866.5,704.3H503.2c-5.5,0-10-4.5-10-10l0,0c0-5.5,4.5-10,10-10h363.3c5.5,0,10,4.5,10,10l0,0
	C876.5,699.8,872,704.3,866.5,704.3z"/>
<path id="XMLID_13_" class="st0" d="M378,704.3H98.4c-5.5,0-10-4.5-10-10l0,0c0-5.5,4.5-10,10-10H378c5.5,0,10,4.5,10,10l0,0
	C388,699.8,383.5,704.3,378,704.3z"/>
<rect id="XMLID_67_" x="225.6" y="456.3" class="st3" width="236" height="182"/>
<rect id="XMLID_64_" x="270.6" y="447.3" transform="matrix(-1.836970e-16 1 -1 -1.836970e-16 890.8398 203.6848)" class="st4" width="146" height="200"/>
<rect id="XMLID_61_" x="209.6" y="456.3" class="st5" width="16" height="182"/>
<path id="XMLID_51_" class="st6" d="M609.3,614.8h-65.8c-18.8,0-34-15.2-34-34v0c0-18.8,15.2-34,34-34h65.8c18.8,0,34,15.2,34,34v0
	C643.3,599.5,628.1,614.8,609.3,614.8z"/>
<path id="XMLID_50_" class="st7" d="M588.6,614.8h-329c-18.8,0-34-15.2-34-34v0c0-18.8,15.2-34,34-34h329c18.8,0,34,15.2,34,34v0
	C622.6,599.5,607.4,614.8,588.6,614.8z"/>
<path id="XMLID_106_" class="st8" d="M231.1,599.3c6.1,9.3,16.6,15.5,28.5,15.5h329c12,0,22.5-6.2,28.5-15.5H231.1z"/>
<rect id="XMLID_9_" x="565.6" y="514.3" class="st3" width="236" height="124"/>
<rect id="XMLID_17_" x="639.6" y="476.3" transform="matrix(-1.836970e-16 1 -1 -1.836970e-16 1259.8398 -107.3152)" class="st4" width="88" height="200"/>
<rect id="XMLID_7_" x="549.6" y="514.3" class="st9" width="16" height="124"/>
<rect id="XMLID_14_" x="594.6" y="638.3" class="st10" width="16" height="36"/>
<rect id="XMLID_18_" x="594.6" y="638.3" class="st4" width="16" height="6.6"/>
<rect id="XMLID_16_" x="610.6" y="638.3" class="st4" width="12" height="36"/>
<rect id="XMLID_22_" x="744.6" y="638.3" class="st3" width="16" height="36"/>
<rect id="XMLID_15_" x="744.6" y="638.3" class="st4" width="16" height="6.6"/>
<rect id="XMLID_19_" x="760.6" y="638.3" class="st4" width="12" height="36"/>
<rect id="XMLID_58_" x="254.6" y="638.3" class="st10" width="16" height="36"/>
<rect id="XMLID_55_" x="254.6" y="638.3" class="st4" width="16" height="6.6"/>
<rect id="XMLID_52_" x="270.6" y="638.3" class="st4" width="12" height="36"/>
<rect id="XMLID_41_" x="404.6" y="638.3" class="st4" width="16" height="36"/>
<rect id="XMLID_29_" x="404.6" y="638.3" class="st4" width="16" height="6.6"/>
<rect id="XMLID_26_" x="420.6" y="638.3" class="st4" width="12" height="36"/>
<rect id="XMLID_23_" x="209.6" y="614.3" class="st9" width="340" height="24"/>
<path id="XMLID_69_" class="st3" d="M507.3,582.4c0-17.5,14.2-31.6,31.6-31.6h3.1v-4h-12.7c-18.8,0-34,15.2-34,34v57.5h12V582.4z"/>
<path id="XMLID_36_" class="st11" d="M532.2,546.8H389c-18.8,0-34,15.2-34,34v93.5h143.2v-93.5C498.2,562,513.4,546.8,532.2,546.8z"
	/>
<ellipse id="XMLID_79_" class="st3" cx="429.8" cy="550.4" rx="37.3" ry="4.9"/>
<ellipse id="XMLID_3_" class="st3" cx="340.8" cy="551.7" rx="37.3" ry="4.9"/>
<path id="XMLID_95_" class="st12" d="M501.3,674.3v-93.5c0-16.5,13.5-30,30-30h4.1v-4h-4.1c-18.8,0-34,15.2-34,34v93.5H501.3z"/>
<rect id="XMLID_33_" x="534.4" y="546.8" class="st12" width="15.2" height="4"/>
<path id="XMLID_93_" class="st12" d="M392,674.3h-15v-83.5c0-4.1,3.4-7.5,7.5-7.5l0,0c4.1,0,7.5,3.4,7.5,7.5V674.3z"/>
<path id="XMLID_96_" class="st12" d="M420.1,674.3h-15v-83.5c0-4.1,3.4-7.5,7.5-7.5l0,0c4.1,0,7.5,3.4,7.5,7.5V674.3z"/>
<path id="XMLID_97_" class="st12" d="M448.1,674.3h-15v-83.5c0-4.1,3.4-7.5,7.5-7.5l0,0c4.1,0,7.5,3.4,7.5,7.5V674.3z"/>
<path id="XMLID_99_" class="st12" d="M476.2,674.3h-15v-83.5c0-4.1,3.4-7.5,7.5-7.5l0,0c4.1,0,7.5,3.4,7.5,7.5V674.3z"/>
<g id="XMLID_45_">
	<path id="XMLID_101_" class="st13" d="M449.7,509c-8.6-9.6-20.4-14.7-32.3-15.2c-0.1,0-0.2,0-0.4,0l0,0h-51.6l36.7,55.5h51.8l0,0
		c3.8,0,7-2.9,7.3-6.7C462.1,530.8,458.3,518.6,449.7,509z"/>
	<path id="XMLID_66_" class="st14" d="M369.6,534c8.6,9.6,20.4,14.7,32.3,15.2c3.9,0.2,7.3-2.8,7.6-6.7c0.9-11.8-2.9-24-11.5-33.6
		c-8.6-9.6-20.4-14.7-32.3-15.2c-3.9-0.2-7.3,2.8-7.6,6.7C357.3,512.3,361,524.4,369.6,534z"/>
	<path id="XMLID_48_" class="st15" d="M409.6,541.6c0,0.3,0,0.6,0,1c-0.3,3.8-3.5,6.7-7.4,6.7l0,0h51.8l0,0c3.8,0,7-2.9,7.3-6.7
		c0-0.3,0-0.6,0-1H409.6z"/>
</g>
<g id="XMLID_25_">
	<path id="XMLID_91_" class="st13" d="M362.3,509c-8.6-9.6-20.4-14.7-32.3-15.2c-0.1,0-0.2,0-0.4,0l0,0H278l36.7,55.5h51.8l0,0
		c3.8,0,7-2.9,7.3-6.7C374.6,530.8,370.9,518.6,362.3,509z"/>
	<path id="XMLID_42_" class="st14" d="M282.2,534c8.6,9.6,20.4,14.7,32.3,15.2c3.9,0.2,7.3-2.8,7.6-6.7c0.9-11.8-2.9-24-11.5-33.6
		c-8.6-9.6-20.4-14.7-32.3-15.2c-3.9-0.2-7.3,2.8-7.6,6.7C269.8,512.3,273.6,524.4,282.2,534z"/>
	<path id="XMLID_94_" class="st15" d="M322.2,541.6c0,0.3,0,0.6,0,1c-0.3,3.8-3.5,6.7-7.4,6.7l0,0h51.8l0,0c3.8,0,7-2.9,7.3-6.7
		c0-0.3,0-0.6,0-1H322.2z"/>
</g>
<path id="XMLID_116_" class="st9" d="M648.5,357.2c0.8-6-2.4-12.1-8.1-13.8c-5.7-1.7-12.1,3-13.2,10.7c-0.2,1.4-0.2,2.8,0,4.1
	c0.1,14.1,3,27.8,8.2,40.4c3.4-0.9,6.8-1.8,10.1-2.8c-1.6-12.2-0.8-24.2,2.1-35.4C648,359.4,648.3,358.3,648.5,357.2z"/>
<path id="XMLID_108_" class="st4" d="M645.9,367.8c1.5-2.2,4.3-3.2,6.7-2c2.3,1.1,3,4.5,1.1,7.3c-0.4,0.5-0.8,1-1.2,1.3
	c-4.2,4.5-4.1,8.9-9.5,11.4c-0.8-1.3-1.6-2.6-2.4-3.9c4.1-3.5,2.3-8.4,4.7-12.9C645.4,368.6,645.6,368.2,645.9,367.8z"/>
<path id="XMLID_126_" class="st4" d="M640.4,343.1c-1.5-0.4-5.1-0.4-7.5,1.6c1-0.5,2.5-0.4,2.6-0.4c6,0.5,9.6,6.9,8.8,12.9
	c-0.2,1.1-0.5,2.2-0.9,3.2c-2.9,11.2-3.7,23.2-2.1,35.4c-2.1,0.6-4.2,1.2-6.3,1.7c0.1,0.3,0.3,0.7,0.4,1c3.4-0.9,6.8-1.8,10.1-2.8
	c-1.6-12.2-0.8-24.2,2.1-35.4c0.4-1,0.7-2.1,0.9-3.2C649.3,351.2,646.1,344.8,640.4,343.1z"/>
<path id="XMLID_110_" class="st16" d="M628.7,417.4h23.1c7-5.2,11.6-14.9,11.6-26h-46.4C617.1,402.5,621.8,412.2,628.7,417.4z"/>
<path id="XMLID_114_" class="st17" d="M632.2,357.3l-2.2,0.5l2.1,1c0.5,0.2,1.1-0.1,1.1-0.7V358
	C633.1,357.6,632.6,357.2,632.2,357.3z"/>
<path id="XMLID_118_" class="st17" d="M638.1,354.1l-1.8-1.4l0.5,2.3c0.1,0.5,0.8,0.8,1.2,0.4l0.1-0.1
	C638.5,354.9,638.5,354.4,638.1,354.1z"/>
<path id="XMLID_119_" class="st17" d="M635.8,372l-2.2,0.6l2.1,1c0.5,0.2,1.1-0.1,1.1-0.7l0-0.2C636.8,372.3,636.3,371.9,635.8,372z
	"/>
<path id="XMLID_127_" class="st4" d="M645.9,367.8c-0.3,0.4-0.5,0.9-0.7,1.3c-1.2,2.2-2.6,4.4-4.2,6.4v7.9c2.6-1.4,5-3.1,7.3-5.1
	c0.1-2.2,0.3-4.7,0.3-5.8c0-1.3,1.2-4.8,2.1-7.3C648.9,365.2,647,366.1,645.9,367.8z"/>
<path id="XMLID_128_" class="st4" d="M648,391.4c0.5,2.3,0.7,4.7,0.7,7.2c0,7-2,13.5-5.4,18.8h8.6c7-5.2,11.6-14.9,11.6-26H648z"/>
<rect id="XMLID_68_" x="565.6" y="416.4" class="st18" width="79.7" height="12"/>
<rect id="XMLID_107_" x="645.3" y="416.4" class="st3" width="65" height="12"/>
<path id="XMLID_134_" class="st0" d="M530,453.9h-40.8c-15.2,0-27.6-12.4-27.6-27.6v0c0-15.2,12.4-27.6,27.6-27.6H530
	c15.2,0,27.6,12.4,27.6,27.6v0C557.6,441.5,545.2,453.9,530,453.9z"/>
</svg>
