<?xml version="1.0" encoding="utf-8"?>
<!-- Generator: Adobe Illustrator 23.1.1, SVG Export Plug-In . SVG Version: 6.00 Build 0)  -->
<svg version="1.1" id="Layer_1" xmlns="http://www.w3.org/2000/svg" xmlns:xlink="http://www.w3.org/1999/xlink" x="0px" y="0px"
	 viewBox="0 0 1000 1000" style="enable-background:new 0 0 1000 1000;" xml:space="preserve">
<style type="text/css">
	.st0{fill:#3F3D44;}
	.st1{fill:#EEF2F4;}
	.st2{fill:#FF8603;}
	.st3{fill:#ED5F18;}
	.st4{fill:#EF2531;}
	.st5{fill:#CC253D;}
	.st6{fill:none;stroke:#3F2522;stroke-width:6;stroke-linecap:round;stroke-linejoin:round;stroke-miterlimit:10;}
	.st7{fill:#38BEB3;}
	.st8{opacity:0.14;fill:#026060;enable-background:new    ;}
	.st9{fill:none;stroke:#3F2522;stroke-width:8;stroke-linecap:round;stroke-linejoin:round;stroke-miterlimit:10;}
	.st10{fill:#F1E4E5;}
	.st11{fill:#DDD4D5;}
	.st12{fill:#3F2522;}
	.st13{fill:#6B352F;}
	.st14{opacity:0.48;fill:#A35D58;enable-background:new    ;}
	.st15{fill:#602C29;}
	.st16{opacity:0.2;}
	.st17{fill:none;}
	.st18{fill:#DD795B;}
	.st19{fill:#BDCED9;}
	.st20{opacity:0.26;fill:#FFFFFF;enable-background:new    ;}
	.st21{fill:#ACC1CC;}
	.st22{opacity:0.76;fill:#301B19;enable-background:new    ;}
	.st23{opacity:0.23;fill:#FFFFFF;enable-background:new    ;}
	.st24{opacity:0.32;fill:#026060;enable-background:new    ;}
	.st25{fill:#9BC7BC;}
	.st26{opacity:0.47;fill:#72A596;enable-background:new    ;}
	.st27{fill:#94AF4A;}
	.st28{fill:#EC2731;}
	.st29{fill:#D3112E;}
	.st30{opacity:0.51;fill:#FFA4AD;enable-background:new    ;}
	.st31{fill:#48633B;}
	.st32{fill:#BFBC47;}
	.st33{fill:#4D9358;}
	.st34{opacity:5.000000e-02;fill:#026060;enable-background:new    ;}
	.st35{opacity:0.15;fill:#92D3D1;enable-background:new    ;}
	.st36{fill:#AB5647;}
	.st37{opacity:0.21;fill:#FFBBA6;enable-background:new    ;}
	.st38{fill:#9B4F45;}
	.st39{fill:#8C443E;}
	.st40{fill:none;stroke:#EC2731;stroke-width:6;stroke-linecap:round;stroke-linejoin:round;stroke-miterlimit:10;}
	
		.st41{opacity:0.4;fill:none;stroke:#FFFFFF;stroke-width:6;stroke-linecap:round;stroke-linejoin:round;stroke-miterlimit:10;enable-background:new    ;}
	.st42{fill:#3E454F;}
</style>
<rect id="XMLID_11_" class="st0" width="1000" height="1000"/>
<g>
	<g>
		<g>
			<path class="st1" d="M63.2,959.2c0,2.5-1.2,3.7-2.6,3.7c-1.1,0-1.9-0.5-2.1-1.4c-0.4,0.5-1,0.8-1.8,0.8c-1.5,0-2.6-1.2-2.6-2.8
				s1.1-2.8,2.6-2.8c0.7,0,1.2,0.3,1.6,0.7v-0.5h1.6v3.9c0,0.8,0.3,1.4,1,1.4c0.9,0,1.7-0.9,1.7-3c0-3-2.3-5.3-5.4-5.3
				c-3.1,0-5.6,2.4-5.6,5.7s2.5,5.7,5.9,5.7c1.1,0,2.1-0.2,2.9-0.4v0.6c-0.8,0.3-1.7,0.4-2.9,0.4c-3.7,0-6.5-2.6-6.5-6.2
				c0-3.4,2.7-6.2,6.2-6.2C61.1,953.3,63.2,956.4,63.2,959.2z M58.3,959.5c0-0.8-0.6-1.4-1.3-1.4c-0.8,0-1.3,0.5-1.3,1.4
				c0,0.8,0.6,1.3,1.3,1.3C57.8,960.9,58.3,960.3,58.3,959.5z"/>
		</g>
		<g>
			<path class="st1" d="M69.4,955.1v2c-1.2-0.1-2.6,0.5-2.6,2.4v4.3h-1.9v-8.6h1.9v1.4C67.3,955.5,68.3,955.1,69.4,955.1z"/>
		</g>
		<g>
			<path class="st1" d="M74.6,962.3c1,0,1.8-0.5,2.2-1.1l1.5,0.9c-0.8,1.2-2.1,1.9-3.8,1.9c-2.8,0-4.7-1.9-4.7-4.5
				c0-2.5,1.8-4.5,4.5-4.5c2.6,0,4.3,2.1,4.3,4.5c0,0.3,0,0.5-0.1,0.8h-6.8C72.1,961.6,73.2,962.3,74.6,962.3z M76.9,958.8
				c-0.3-1.5-1.3-2.1-2.5-2.1c-1.4,0-2.3,0.8-2.6,2.1H76.9z"/>
		</g>
		<g>
			<path class="st1" d="M88.9,955.2v8.6H87v-1.2c-0.7,0.9-1.7,1.5-3,1.5c-2.3,0-4.3-2-4.3-4.5c0-2.6,1.9-4.5,4.3-4.5
				c1.3,0,2.3,0.5,3,1.4v-1.2L88.9,955.2L88.9,955.2z M87.1,959.5c0-1.6-1.2-2.7-2.7-2.7s-2.7,1.1-2.7,2.7c0,1.6,1.2,2.7,2.7,2.7
				C85.9,962.3,87.1,961.1,87.1,959.5z"/>
		</g>
		<g>
			<path class="st1" d="M91.1,951.3H93v12.5h-1.9V951.3z"/>
		</g>
		<g>
			<path class="st1" d="M102.9,955.2l-3.3,8.6h-2.1l-3.3-8.6h2l2.4,6.5l2.4-6.5H102.9z"/>
		</g>
		<g>
			<path class="st1" d="M104.2,955.2h1.9v8.9c0,2.4-1.2,3.5-3.5,3.3v-1.8c1.1,0.1,1.7-0.3,1.7-1.5L104.2,955.2L104.2,955.2z
				 M104,952.8c0-0.7,0.5-1.2,1.2-1.2s1.2,0.5,1.2,1.2c0,0.6-0.5,1.2-1.2,1.2S104,953.4,104,952.8z"/>
		</g>
		<g>
			<path class="st1" d="M116,955.2l-3.3,8.8c-0.8,2.2-2.2,3.3-4.2,3.2v-1.7c1.2,0.1,1.9-0.5,2.3-1.7l0.1-0.2l-3.6-8.4h2l2.6,6.2
				l2.2-6.2L116,955.2L116,955.2z"/>
		</g>
	</g>
	<g>
		<path class="st1" d="M211.9,938.7c0,2.1-1.5,3.8-3.6,3.8h-3v-7.6h3C210.4,934.9,211.9,936.6,211.9,938.7z M210.9,938.7
			c0-1.6-1.1-2.9-2.6-2.9h-2v5.7h2C209.8,941.6,210.9,940.3,210.9,938.7z"/>
		<path class="st1" d="M219.5,940.8h-3.4l-0.6,1.7h-1.1l2.8-7.6h1.1l2.8,7.6H220L219.5,940.8z M219.2,939.9l-1.4-3.8l-1.4,3.8H219.2
			z"/>
		<path class="st1" d="M226.4,939.4v3.1h-1v-3.1l-2.7-4.5h1.1l2.1,3.6l2.1-3.6h1.1L226.4,939.4z"/>
		<path class="st1" d="M239.5,934.9v7.6h-1V936l-1.6,0.5l-0.3-0.9l2-0.7L239.5,934.9L239.5,934.9z"/>
		<path class="st1" d="M248.2,940.3c0,1.5-1.2,2.4-2.6,2.4c-1.1,0-2.1-0.5-2.5-1.6l0.9-0.5c0.2,0.8,0.8,1.1,1.7,1.1s1.6-0.5,1.6-1.4
			s-0.7-1.4-1.6-1.4h-2.2l0.3-4h4.2v0.9h-3.3l-0.1,2h1.1C247,937.9,248.2,938.7,248.2,940.3z"/>
	</g>
	<g>
		<path class="st1" d="M58.9,938.7c0,2.1-1.5,3.8-3.6,3.8h-3v-7.6h3C57.4,934.9,58.9,936.6,58.9,938.7z M57.9,938.7
			c0-1.6-1.1-2.9-2.6-2.9h-2v5.7h2C56.8,941.6,57.9,940.3,57.9,938.7z"/>
		<path class="st1" d="M67,941.6v1h-4.6V935h4.5v1h-3.5v2.3h3.2v0.9h-3.2v2.4L67,941.6L67,941.6z"/>
		<path class="st1" d="M70,940.8l0.9-0.5c0.3,0.8,0.9,1.4,2,1.4s1.6-0.5,1.6-1.2c0-0.8-0.7-1-1.8-1.4c-1.2-0.4-2.4-0.8-2.4-2.2
			s1.1-2.2,2.4-2.2s2.2,0.7,2.6,1.7l-0.8,0.5c-0.3-0.7-0.8-1.2-1.7-1.2c-0.8,0-1.4,0.4-1.4,1.1c0,0.7,0.5,1,1.6,1.3
			c1.3,0.4,2.6,0.8,2.6,2.3c0,1.3-1.1,2.2-2.6,2.2C71.5,942.7,70.4,941.9,70,940.8z"/>
		<path class="st1" d="M80,934.9v7.6h-1v-7.6H80z"/>
		<path class="st1" d="M91.3,939.2c0,1.9-1.4,3.5-3.7,3.5c-2.4,0-4-1.8-4-4s1.7-4,4-4c1.4,0,2.7,0.8,3.3,1.8L90,937
			c-0.4-0.8-1.4-1.4-2.4-1.4c-1.8,0-3,1.3-3,3s1.2,3,3,3c1.6,0,2.5-0.9,2.7-2h-2.8v-0.9h3.8V939.2z"/>
		<path class="st1" d="M100.6,934.9v7.6h-0.8l-3.9-5.7v5.7h-1v-7.6h0.8l3.9,5.7v-5.7H100.6z"/>
		<path class="st1" d="M109.1,941.6v1h-4.6V935h4.5v1h-3.5v2.3h3.2v0.9h-3.2v2.4L109.1,941.6L109.1,941.6z"/>
		<path class="st1" d="M119.2,938.7c0,2.1-1.5,3.8-3.6,3.8h-3v-7.6h3C117.6,934.9,119.2,936.6,119.2,938.7z M118.2,938.7
			c0-1.6-1.1-2.9-2.6-2.9h-2v5.7h2C117.1,941.6,118.2,940.3,118.2,938.7z"/>
		<path class="st1" d="M133.2,940.4c0,1.2-1,2.2-2.2,2.2h-3.3V935h3c1.2,0,2.1,0.9,2.1,2.1c0,0.7-0.3,1.2-0.8,1.6
			C132.7,938.9,133.2,939.5,133.2,940.4z M128.7,935.8v2.3h2c0.6,0,1.1-0.5,1.1-1.2c0-0.6-0.5-1.2-1.1-1.2h-2V935.8z M132.2,940.3
			c0-0.7-0.5-1.2-1.2-1.2h-2.3v2.5h2.3C131.7,941.6,132.2,941,132.2,940.3z"/>
		<path class="st1" d="M139.4,939.4v3.1h-1v-3.1l-2.7-4.5h1.1l2.1,3.6l2.1-3.6h1.1L139.4,939.4z"/>
	</g>
	<g>
		<path class="st1" d="M204.8,958.1c0-3.6,2.7-6.4,6.5-6.4c2.3,0,4.3,1.2,5.3,3l-1.8,1c-0.7-1.2-2-2-3.6-2c-2.7,0-4.4,1.9-4.4,4.4
			s1.8,4.4,4.4,4.4c1.6,0,2.9-0.8,3.6-2l1.8,1c-1,1.8-3,3-5.3,3C207.5,964.5,204.8,961.7,204.8,958.1z"/>
		<path class="st1" d="M217.7,959.9c0-2.6,2.1-4.7,4.7-4.7c2.6,0,4.7,2,4.7,4.7c0,2.6-2.1,4.7-4.7,4.7
			C219.8,964.5,217.7,962.5,217.7,959.9z M225.1,959.9c0-1.6-1.2-2.8-2.8-2.8s-2.8,1.2-2.8,2.8s1.2,2.8,2.8,2.8
			S225.1,961.5,225.1,959.9z"/>
		<path class="st1" d="M228.8,951.4h1.9v12.9h-1.9V951.4z"/>
		<path class="st1" d="M232.4,959.9c0-2.6,2.1-4.7,4.7-4.7c2.6,0,4.7,2,4.7,4.7c0,2.6-2.1,4.7-4.7,4.7
			C234.5,964.5,232.4,962.5,232.4,959.9z M239.8,959.9c0-1.6-1.2-2.8-2.8-2.8s-2.8,1.2-2.8,2.8s1.2,2.8,2.8,2.8
			S239.8,961.5,239.8,959.9z"/>
		<path class="st1" d="M248.1,955.3v2.1c-1.3-0.1-2.7,0.5-2.7,2.5v4.5h-1.9v-8.9h1.9v1.5C245.9,955.7,247,955.3,248.1,955.3z"/>
		<path class="st1" d="M262.1,953.9h-3.5v10.4h-2v-10.4h-3.5V952h9V953.9z"/>
		<path class="st1" d="M261.4,959.9c0-2.6,2.1-4.7,4.7-4.7s4.7,2,4.7,4.7c0,2.6-2.1,4.7-4.7,4.7
			C263.5,964.5,261.4,962.5,261.4,959.9z M268.9,959.9c0-1.6-1.2-2.8-2.8-2.8s-2.8,1.2-2.8,2.8s1.2,2.8,2.8,2.8
			S268.9,961.5,268.9,959.9z"/>
		<path class="st1" d="M272,959.9c0-2.6,2.1-4.7,4.7-4.7s4.7,2,4.7,4.7c0,2.6-2.1,4.7-4.7,4.7C274.1,964.5,272,962.5,272,959.9z
			 M279.5,959.9c0-1.6-1.2-2.8-2.8-2.8s-2.8,1.2-2.8,2.8s1.2,2.8,2.8,2.8S279.5,961.5,279.5,959.9z"/>
		<path class="st1" d="M283.1,951.4h1.9v12.9h-1.9V951.4z"/>
	</g>
	<g>
		<path class="st1" d="M841.3,942.5h-1v-7.6h1.1l2.4,4l2.4-4h1.1v7.6h-1v-6l-2.5,4.2h-0.1l-2.5-4.1L841.3,942.5L841.3,942.5z
			 M858.8,938.7c0,2.2-1.7,4-4,4c-2.2,0-3.9-1.8-3.9-4s1.7-4,3.9-4C857.1,934.7,858.8,936.5,858.8,938.7z M857.8,938.7
			c0-1.7-1.3-3-2.9-3c-1.7,0-2.9,1.3-2.9,3s1.3,3,2.9,3C856.6,941.7,857.8,940.4,857.8,938.7z M866.2,939.5l1.8,3.1h-1.1l-1.7-2.9
			h-1.8v2.9h-1V935h3c1.3,0,2.4,1.1,2.4,2.4C867.8,938.2,867.1,939.1,866.2,939.5z M865.4,938.7c0.8,0,1.4-0.6,1.4-1.4
			c0-0.8-0.6-1.4-1.4-1.4h-2v2.8L865.4,938.7L865.4,938.7z M875.9,941.6h-3.5v-2.4h3.2v-0.9h-3.2V936h3.5v-1h-4.5v7.6h4.6
			L875.9,941.6L875.9,941.6z M844.2,962.2l-2.5-6.7h-2.1l3.5,8.9h2.2l3.5-8.9h-2.1L844.2,962.2z M850,964.3h1.9v-8.9H850V964.3z
			 M851,951.7c-0.7,0-1.2,0.5-1.2,1.2s0.5,1.2,1.2,1.2s1.2-0.6,1.2-1.2C852.2,952.2,851.6,951.7,851,951.7z M855.2,951.7
			c-0.7,0-1.2,0.5-1.2,1.2s0.5,1.2,1.2,1.2s1.2-0.6,1.2-1.2C856.5,952.2,855.9,951.7,855.2,951.7z M854.3,964.7
			c0,1.2-0.5,1.7-1.7,1.6v1.8c2.4,0.2,3.6-1,3.6-3.4v-9.2h-1.9L854.3,964.7L854.3,964.7z M865.4,955.4h1.9v8.9h-1.9V963
			c-0.7,0.9-1.7,1.5-3.1,1.5c-2.4,0-4.4-2-4.4-4.7c0-2.6,2-4.7,4.4-4.7c1.4,0,2.4,0.6,3.1,1.5V955.4z M865.4,959.9
			c0-1.6-1.2-2.8-2.8-2.8s-2.8,1.2-2.8,2.8s1.2,2.8,2.8,2.8S865.4,961.5,865.4,959.9z M873.3,961.9l-2.6-6.4h-2.1l3.8,8.7l-0.1,0.2
			c-0.4,1.2-1.1,1.8-2.4,1.7v1.8c2,0.1,3.5-1,4.3-3.3l3.4-9.1h-2L873.3,961.9z M882.3,962.2l-2.5-6.7h-2.1l3.5,8.9h2.2l3.5-8.9h-2.1
			L882.3,962.2z M896.4,959.9c0,0.3,0,0.5-0.1,0.8h-7c0.3,1.4,1.4,2.1,2.8,2.1c1.1,0,1.9-0.5,2.3-1.1l1.6,0.9
			c-0.8,1.2-2.1,1.9-3.9,1.9c-2.9,0-4.8-2-4.8-4.7c0-2.6,1.9-4.7,4.7-4.7C894.5,955.2,896.4,957.3,896.4,959.9z M894.4,959.1
			c-0.3-1.5-1.4-2.2-2.5-2.2c-1.4,0-2.4,0.8-2.7,2.2H894.4z M899.9,956.9v-1.5H898v8.9h1.9v-4.5c0-2,1.5-2.6,2.7-2.5v-2.1
			C901.6,955.3,900.5,955.7,899.9,956.9z M913.8,955.2c-1.2,0-2.1,0.5-2.7,1.4c-0.5-0.9-1.4-1.4-2.5-1.4s-2,0.4-2.5,1.3v-1.1h-1.9
			v8.9h1.9v-5c0-1.6,0.9-2.3,2-2.3c1,0,1.7,0.7,1.7,1.9v5.4h1.9v-5c0-1.6,0.8-2.3,1.9-2.3c1,0,1.7,0.7,1.7,1.9v5.4h1.9v-5.5
			C917.1,956.6,915.8,955.2,913.8,955.2z M926.2,955.4h1.9v8.9h-1.9V963c-0.7,0.9-1.7,1.5-3.1,1.5c-2.4,0-4.4-2-4.4-4.7
			c0-2.6,2-4.7,4.4-4.7c1.4,0,2.4,0.6,3.1,1.5V955.4z M926.2,959.9c0-1.6-1.2-2.8-2.8-2.8s-2.8,1.2-2.8,2.8s1.2,2.8,2.8,2.8
			S926.2,961.5,926.2,959.9z M931.5,961.9c-0.7,0-1.3,0.6-1.3,1.3s0.6,1.3,1.3,1.3s1.3-0.6,1.3-1.3
			C932.8,962.4,932.2,961.9,931.5,961.9z M938.3,962.6c-1.6,0-2.7-1.2-2.7-2.8s1.2-2.8,2.7-2.8c1.1,0,1.9,0.5,2.3,1.4l1.6-1
			c-0.7-1.4-2.2-2.3-3.9-2.3c-2.7,0-4.7,2-4.7,4.7c0,2.6,2,4.7,4.7,4.7c1.7,0,3.2-0.9,4-2.3l-1.6-0.9
			C940.2,962.1,939.3,962.6,938.3,962.6z M952.4,959.9c0,2.6-2.1,4.7-4.7,4.7c-2.6,0-4.7-2-4.7-4.7c0-2.6,2.1-4.7,4.7-4.7
			C950.3,955.2,952.4,957.2,952.4,959.9z M950.5,959.9c0-1.6-1.2-2.8-2.8-2.8s-2.8,1.2-2.8,2.8s1.2,2.8,2.8,2.8
			S950.5,961.5,950.5,959.9z"/>
	</g>
</g>
<rect id="XMLID_66_" x="642.5" y="3" class="st2" width="150" height="358.2"/>
<path id="XMLID_184_" class="st3" d="M762.5,60.5V111c0,8.3-6.7,15-15,15l0,0c-8.3,0-15-6.7-15-15V43c0-8.3-6.7-15-15-15l0,0
	c-8.3,0-15,6.7-15,15v68c0,8.3-6.7,15-15,15l0,0c-8.3,0-15-6.7-15-15V88c0-8.3-6.7-15-15-15l0,0c-8.3,0-15,6.7-15,15v38v11v212.2
	h150V137v-11V60.5c0-8.3-6.7-15-15-15l0,0C769.3,45.5,762.5,52.2,762.5,60.5z"/>
<path id="XMLID_161_" class="st4" d="M762.5,72.5V123c0,8.3-6.7,15-15,15l0,0c-8.3,0-15-6.7-15-15V55c0-8.3-6.7-15-15-15l0,0
	c-8.3,0-15,6.7-15,15v68c0,8.3-6.7,15-15,15l0,0c-8.3,0-15-6.7-15-15v-23c0-8.3-6.7-15-15-15l0,0c-8.3,0-15,6.7-15,15v38v11v212.2
	h150V149v-11V72.5c0-8.3-6.7-15-15-15l0,0C769.3,57.5,762.5,64.2,762.5,72.5z"/>
<path id="XMLID_176_" class="st5" d="M762.5,168.3v71.1c0,8.3-6.7,15-15,15l0,0c-8.3,0-15-6.7-15-15v-36.8c0-8.3-6.7-15-15-15l0,0
	c-8.3,0-15,6.7-15,15v36.8c0,8.3-6.7,15-15,15l0,0c-8.3,0-15-6.7-15-15v-50.5c0-8.3-6.7-15-15-15l0,0c-8.3,0-15,6.7-15,15v65.5v11
	v87.5h150v-87.5v-11v-86.1c0-8.3-6.7-15-15-15l0,0C769.3,153.3,762.5,160,762.5,168.3z"/>
<path id="XMLID_155_" class="st6" d="M762.5,72.5V123c0,8.3-6.7,15-15,15l0,0c-8.3,0-15-6.7-15-15V55c0-8.3-6.7-15-15-15l0,0
	c-8.3,0-15,6.7-15,15v68c0,8.3-6.7,15-15,15l0,0c-8.3,0-15-6.7-15-15v-23c0-8.3-6.7-15-15-15l0,0c-8.3,0-15,6.7-15,15v38v11v212.2
	h150V149v-11V72.5c0-8.3-6.7-15-15-15l0,0C769.3,57.5,762.5,64.2,762.5,72.5z"/>
<path id="XMLID_150_" class="st7" d="M762.5,181.3v71.1c0,8.3-6.7,15-15,15l0,0c-8.3,0-15-6.7-15-15v-36.8c0-8.3-6.7-15-15-15l0,0
	c-8.3,0-15,6.7-15,15v36.8c0,8.3-6.7,15-15,15l0,0c-8.3,0-15-6.7-15-15v-50.5c0-8.3-6.7-15-15-15l0,0c-8.3,0-15,6.7-15,15v65.5v11
	v87.5h150v-87.5v-11v-86.1c0-8.3-6.7-15-15-15l0,0C769.3,166.3,762.5,173,762.5,181.3z"/>
<rect id="XMLID_162_" x="642.5" y="325" class="st8" width="150" height="36.2"/>
<path id="XMLID_160_" class="st6" d="M762.5,181.3v71.1c0,8.3-6.7,15-15,15l0,0c-8.3,0-15-6.7-15-15v-36.8c0-8.3-6.7-15-15-15l0,0
	c-8.3,0-15,6.7-15,15v36.8c0,8.3-6.7,15-15,15l0,0c-8.3,0-15-6.7-15-15v-50.5c0-8.3-6.7-15-15-15l0,0c-8.3,0-15,6.7-15,15v65.5v11
	v87.5h150v-87.5v-11v-86.1c0-8.3-6.7-15-15-15l0,0C769.3,166.3,762.5,173,762.5,181.3z"/>
<rect id="XMLID_148_" x="642.5" y="3" class="st6" width="150" height="358.2"/>
<path id="XMLID_51_" class="st9" d="M715.2,514.4v-21.7c0-14.5,11.8-26.3,26.3-26.3h77.4c14.5,0,26.3-11.8,26.3-26.3v-22.7
	c0-14.5-11.8-26.3-26.3-26.3h-23.7"/>
<path id="XMLID_79_" class="st10" d="M564.4,382.1L536.2,331c-0.9-1.7-3.3-1.7-4.2,0l-28.1,51v9.2h60.5V382.1z"/>
<path id="XMLID_102_" class="st11" d="M536.3,331.1c-0.9-1.7-3.3-1.7-4.2,0l-3.1,5.7l26.2,47.5v6.9h9.3v-9.1L536.3,331.1z"/>
<path id="XMLID_27_" class="st6" d="M564.4,382.1L536.2,331c-0.9-1.7-3.3-1.7-4.2,0l-28.1,51v9.2h60.5V382.1z"/>
<path id="XMLID_50_" class="st6" d="M545,346.9l-8.7-15.8c-0.9-1.7-3.3-1.7-4.2,0l-8.7,15.8H545z"/>
<path id="XMLID_80_" class="st12" d="M545,346.9l-8.7-15.8c-0.9-1.7-3.3-1.7-4.2,0l-8.7,15.8H545z"/>
<path id="XMLID_16_" class="st13" d="M292.3,642.2L292.3,642.2c-16.2,0-29.9-13.4-30.5-30.5l-5.5-141.5h72l-5.5,141.5
	C322.2,628.8,308.5,642.2,292.3,642.2z"/>
<path id="XMLID_72_" class="st14" d="M262.5,617.3L262.5,617.3c7.8,0,14.1-6.5,13.7-14.3l-5-118.5c-0.3-8-6.9-14.3-14.9-14.3l0,0
	l5.5,141.5C261.9,613.6,262.1,615.5,262.5,617.3z"/>
<path id="XMLID_110_" class="st15" d="M328.3,470.2c-9,0-16.4,7.1-16.8,16.1L307,603.8c-0.7,17.2-14.3,30.5-30.5,30.5
	c-1.5,0-3.1-0.1-4.6-0.4c5.4,5.1,12.6,8.2,20.4,8.2l0,0c16.2,0,29.9-13.4,30.5-30.5L328.3,470.2L328.3,470.2z"/>
<g class="st16">
	<path class="st17" d="M259.4,549c-1.4,2.3-2.8,4.6-4.2,7.1c0.7-0.7,2.3-2.1,4.3-3.1L259.4,549z"/>
	<path class="st17" d="M333.2,470.8c-0.5-1.3-3.9-4.4-5.6-5.3c-0.7,0.7-1.8,2.8-2.7,4.7h3.3l-0.4,9.3
		C330.8,477,333.6,473.8,333.2,470.8z"/>
	<path class="st18" d="M297.1,534.7l-0.3,0.9c-2.7,6.8-9.8,24.9,0.6,37.9c6.1,7.6,14.9,8.7,23.4,9.7c1.1,0.1,2.1,0.3,3.2,0.4l0.2-6
		c-0.9-0.1-1.8-0.2-2.7-0.3c-8-1-14.8-1.8-19.4-7.5c-8.3-10.3-2.3-25.5,0.3-31.9l0.3-0.8c1.2-2.9,9.9-19.1,24.3-31.6l0.3-8
		C309.5,510.9,298.8,530.5,297.1,534.7z"/>
	<path class="st18" d="M284.4,595.4c-1.4,0-2.9,0.1-4.3,0.3c-7.7,1.1-13.7,5.1-18.5,10.3l0.2,5.7c0,1.1,0.1,2.1,0.3,3.2
		c4.6-6.6,10.6-12.1,18.8-13.2c10.1-1.4,20.1,2.2,38.1,24.2c1.1-2,1.9-4.1,2.6-6.3C309.1,604.6,297.8,595.4,284.4,595.4z"/>
	<path class="st18" d="M274.9,527.8c10.3-13,18.4-23.3,14.2-34.8c-4.4-12.1-19.3-16.9-32.7-20.3l0.2,6.3c11.5,3,23.6,7.3,26.8,16.1
		c3,8.4-3.8,17-13.3,29c-3.5,4.4-7.3,9.3-11.2,14.8l0.4,10.2C264.5,540.9,270,534,274.9,527.8z"/>
	<path class="st18" d="M306.7,478.1c2-0.9,2.8-2.2,3.1-3.2c0.5-1.6,0.1-3.2-0.6-4.7h-6.9c0.2,0.3,0.3,0.5,0.4,0.7
		c0.3,0.6,0.8,1.3,1,1.9c-1.4,0.2-3.1-0.9-4.9-2.6h-8.3C295.7,476,300.8,480.8,306.7,478.1z"/>
	<path class="st18" d="M275,496.2c-0.8-5.7-5.8-9-6.3-9.3c-3.2-2.1-7.3-2.9-11.8-2.4l0.2,6c3.3-0.4,6.1,0,8.3,1.4
		c0.9,0.6,3.2,2.5,3.6,5.1c0.5,3.7-3.6,7.6-7.6,11.4c-1.1,1-2.3,2.2-3.5,3.4l0.3,8.1c2.8-2.7,5.2-5.1,7.3-7.1
		C270.4,508.2,275.9,502.9,275,496.2z"/>
	<path class="st18" d="M306,483.6c-8,0-14.3-6.8-19.5-13.4H279c0.1,0.2,0.3,0.4,0.4,0.6c6.1,8,14.4,18.8,26.6,18.8
		c9.9,0,14.7-10.2,18.1-17.6c0.3-0.6,0.5-1.2,0.8-1.8h-6.6C315.5,476.4,311.9,483.6,306,483.6z"/>
	<path class="st18" d="M287,578.8c-4.3-6.5-5.7-16.1-4.2-28.7c1.9-15.4,13.3-31.8,19.2-38.4c10.9-12.1,21.4-20.9,25.7-24.4l0.3-8
		c-0.7,0.6-1.3,1.1-1.9,1.6c-0.6,0.4-14,10.6-28.5,26.7c-6.3,7-18.6,24.8-20.6,41.6c-1.7,14,0.1,25,5.2,32.7
		c6.6,10.1,20.4,15.5,37.1,15.5c1.4,0,2.8,0,4.2-0.1l0.2-6C306.8,592.6,293.1,588.2,287,578.8z"/>
	<path class="st18" d="M309.6,544.6l0,0.2c-1.7,12.8,2.1,18.5,5.5,20.9c2.3,1.7,5.1,2.4,8.2,2.4c0.4,0,0.8,0,1.2,0l0.2-6
		c-2.4,0.2-4.5-0.1-6.1-1.2c-1.7-1.2-4.5-4.9-3.1-15.3l0-0.1c1.2-7.9,5.6-15.4,10.6-20.8l0.3-8.5
		C318.8,522.3,311.3,532.9,309.6,544.6z"/>
	<path class="st18" d="M263.9,558c0.2,0,0.8,0.1,1.5,1.3c1.9,3,3,17-2.4,28.8c-0.6,1.3-1.3,2.6-2,3.7l0.4,9
		c2.7-2.7,5.3-6.1,7.2-10.3c4.5-9.9,6.4-27.5,2-34.4c-1.9-3-4.3-3.9-5.9-4.1c-1.8-0.2-3.6,0.3-5.1,1l0.3,7
		C261.1,558.8,262.8,557.8,263.9,558z"/>
	<path class="st18" d="M304.3,617.3c-2.2-1.8-7.9-6.4-16.3-6.8c-0.3,0-7.3-0.2-13.9,3.7c-3.8,2.3-6.9,5.8-9.3,10
		c1,2.2,2.3,4.2,3.7,6.1c1.9-4.7,4.8-8.7,8.6-11c5-3,10.6-2.9,10.6-2.9c6.3,0.3,10.8,3.9,12.8,5.4c0,0,3.5,2.8,6.8,8.3
		c1.1,1.9,2.1,3.8,2.9,5.8c1.7-1.3,3.3-2.7,4.7-4.4C310.5,622.3,304.7,617.6,304.3,617.3z"/>
	<path class="st18" d="M296.8,626.8c-4.6-1.3-10.9-0.8-14.5,3.6c-2,2.5-2.9,5.7-2.6,9c2.1,1,4.3,1.7,6.5,2.2c-1-2.9-0.6-5.7,0.7-7.4
		c2-2.4,6-2.3,8.1-1.6c3.3,1,5.9,3.9,7.4,7.8c1.9-0.7,3.7-1.6,5.4-2.6C305.7,632.4,301.8,628.3,296.8,626.8z"/>
</g>
<path id="XMLID_42_" class="st19" d="M328.3,470.2c-24,0-48,0-72,0c0.7-27.3,6.4-47.9,14.3-61.7c14.4,0,28.9,0,43.3,0
	C321.9,422.3,327.6,442.8,328.3,470.2z"/>
<path id="XMLID_179_" class="st20" d="M270.7,408.5c-7.9,13.8-13.6,34.3-14.3,61.7l0,0c7.2,0,13.3-5.5,13.9-12.7
	c1.9-21.1,7-37.4,13.6-48.9h-13.2V408.5z"/>
<path id="XMLID_26_" class="st21" d="M315.8,424.2h-30.9c-8.5,0-15.4-6.9-15.4-15.4v-0.3h46.3V424.2z"/>
<path id="XMLID_75_" class="st21" d="M314,408.5c-5.7,0-11.4,0-17.1,0c7.9,13.8,13.6,34.3,14.3,61.7c5.7,0,11.4,0,17.1,0
	C327.6,442.8,321.9,422.3,314,408.5z"/>
<path id="XMLID_7_" class="st6" d="M328.3,470.2c-24,0-48,0-72,0c0.7-27.3,6.4-47.9,14.3-61.7c14.4,0,28.9,0,43.3,0
	C321.9,422.3,327.6,442.8,328.3,470.2z"/>
<path id="XMLID_34_" class="st19" d="M312.3,408.5h-40c-6.6,0-12-5.4-12-12l0,0c0-6.6,5.4-12,12-12h40c6.6,0,12,5.4,12,12l0,0
	C324.3,403.1,319,408.5,312.3,408.5z"/>
<ellipse id="XMLID_142_" class="st20" cx="266.3" cy="396.5" rx="6.1" ry="8"/>
<path id="XMLID_138_" class="st21" d="M312.3,384.5h-24.2c6.6,0,12,5.4,12,12s-5.4,12-12,12h24.2c6.6,0,12-5.4,12-12
	S319,384.5,312.3,384.5z"/>
<path id="XMLID_8_" class="st6" d="M312.3,408.5h-40c-6.6,0-12-5.4-12-12l0,0c0-6.6,5.4-12,12-12h40c6.6,0,12,5.4,12,12l0,0
	C324.3,403.1,319,408.5,312.3,408.5z"/>
<path id="XMLID_33_" class="st12" d="M314.3,315.5c4.7,6.5,12.3,13,13.9,24.8c0.6,4.6,0.4,9.5-0.7,14.4c-3.7,15.3-21,31.5-41.4,29.5
	c-20.9-2-37.7-22.4-35-45.8c0.7-6.7,3.5-25.8,18.7-42.9c9.3-10.5,19.8-16.3,27.3-19.4c3.1-1.3,6.5,0.9,6.6,4.3
	C304.2,297.9,309.3,308.7,314.3,315.5z"/>
<path id="XMLID_10_" class="st6" d="M314.3,315.5c4.7,6.5,12.3,13,13.9,24.8c0.6,4.6,0.4,9.5-0.7,14.4c-3.7,15.3-21,31.5-41.4,29.5
	c-20.9-2-37.7-22.4-35-45.8c0.7-6.7,3.5-25.8,18.7-42.9c9.3-10.5,19.8-16.3,27.3-19.4c3.1-1.3,6.5,0.9,6.6,4.3
	C304.2,297.9,309.3,308.7,314.3,315.5z"/>
<path id="XMLID_2_" class="st22" d="M319.9,338.6c0-0.2,0-0.3,0-0.5s0.1-0.5,0.1-0.7c0.1-0.5,0.1-1.1,0.2-1.6c0-0.2,0.1-0.4,0.1-0.6
	c0.5-2.7,1.2-10.9,2.3-13.4c-1.8-0.3-3.4,4.3-4.5,2.9c-1.4-1.7-2.7-3.2-3.8-4.8c-5-6.8-10.1-17.6-10.6-35.2
	c-0.1-3.4-3.5-5.6-6.6-4.3c-7.5,3.1-18,8.9-27.3,19.4c-7.7,8.6-16.5,12.5-19,24.4c0.4,0.1,9.1,7.3,9.1,12.8v15.1
	c0,6.8,5.4,12.7,12.2,12.8c7,0.1,12.7-5.5,12.7-12.4v-26c0-3.8,2.9-7.1,6.7-7.2c3.9-0.1,7.2,3,7.2,6.9v11.9
	c0,6.9,4.8,12.4,10.7,12.4c5.4,0,9.9-4.7,10.6-10.7C319.8,339.4,319.9,339,319.9,338.6z"/>
<path id="XMLID_1_" class="st6" d="M292.3,642.2L292.3,642.2c-16.2,0-29.9-13.4-30.5-30.5l-5.5-141.5h72l-5.5,141.5
	C322.2,628.8,308.5,642.2,292.3,642.2z"/>
<path id="XMLID_82_" class="st7" d="M420,635.1L420,635.1c-17.7,0-32-14.3-32-32v-156h64v156C452,620.8,437.7,635.1,420,635.1z"/>
<path id="XMLID_92_" class="st23" d="M390,615.3L390,615.3V452.7l0,0c6.6,0,12,5.4,12,12v138.7C402,610,396.6,615.3,390,615.3z"/>
<path id="XMLID_109_" class="st24" d="M437,447.1v148.2c0,17.7-14.3,32-32,32l0,0c-2.3,0-4.5-0.2-6.7-0.7c5.7,5.3,13.3,8.5,21.7,8.5
	l0,0c17.7,0,32-14.3,32-32v-156L437,447.1L437,447.1z"/>
<path id="XMLID_9_" class="st6" d="M420,635.1L420,635.1c-17.7,0-32-14.3-32-32v-156h64v156C452,620.8,437.7,635.1,420,635.1z"/>
<path id="XMLID_29_" class="st25" d="M436,377.1v-29.6h-32v29.6c0,8.8-7.2,16-16,16l0,0v54h64v-54l0,0
	C443.2,393.1,436,385.9,436,377.1z"/>
<path id="XMLID_93_" class="st20" d="M391,443.7h-0.7v-47.2l0,0c6.3,0,11.3,5.1,11.3,11.3V433C401.7,438.9,396.9,443.7,391,443.7z"
	/>
<path id="XMLID_100_" class="st26" d="M436,377.1v-29.6l0,0c-7.7,0-14,6.3-14,14v15.6c0,11.5,6.5,21.5,16,26.5v29.5
	c0,7.7,6.3,14,14,14l0,0v-54C443.2,393.1,436,385.9,436,377.1z"/>
<path id="XMLID_83_" class="st6" d="M436,377.1v-29.6h-32v30.3c0,8.5-6.9,15.3-15.3,15.3H388v54h64v-54l0,0
	C443.2,393.1,436,385.9,436,377.1z"/>
<path id="XMLID_86_" class="st27" d="M408,302.9v44.7h24V314c-8.1-1.8-15.2-6.2-20.3-12.4C410.5,300,408,300.9,408,302.9z"/>
<path id="XMLID_30_" class="st6" d="M408,303.7v43.8h24v-33.6c-7.8-1.7-14.7-6-19.8-11.8C410.8,300.4,408,301.4,408,303.7z"/>
<path id="XMLID_81_" class="st28" d="M552.2,636.2h-36c-6.6,0-12-5.4-12-12v-15.5h60v15.5C564.2,630.8,558.8,636.2,552.2,636.2z"/>
<path id="XMLID_94_" class="st29" d="M555,618.8v4.7c0,2.9-2.4,5.3-5.3,5.3h-25.6c-4.1,0-7.5,3.3-7.5,7.5l0,0h35.5
	c6.6,0,12-5.4,12-12V610h-0.4C558.9,610,555,613.9,555,618.8z"/>
<path id="XMLID_69_" class="st30" d="M511.1,630.8L511.1,630.8c-2.2,0-3.9-1.8-3.9-3.9v-15.3h3.9c2.2,0,3.9,1.8,3.9,3.9
	c0,3.3,0,8.1,0,11.4C515,629,513.2,630.8,511.1,630.8z"/>
<path id="XMLID_25_" class="st6" d="M552.2,636.2h-36c-6.6,0-12-5.4-12-12v-15.5h60v15.5C564.2,630.8,558.8,636.2,552.2,636.2z"/>
<path id="XMLID_70_" class="st31" d="M566.2,608.7h-20v-221c0-5.5,4.5-10,10-10l0,0c5.5,0,10,4.5,10,10V608.7z"/>
<path id="XMLID_23_" class="st6" d="M566.2,608.7h-20v-221c0-5.5,4.5-10,10-10l0,0c5.5,0,10,4.5,10,10V608.7z"/>
<path id="XMLID_78_" class="st27" d="M522.2,608.7h-20v-221c0-5.5,4.5-10,10-10l0,0c5.5,0,10,4.5,10,10V608.7z"/>
<path id="XMLID_96_" class="st32" d="M506.9,604.2L506.9,604.2c-2.3,0-4.2-1.9-4.2-4.2V386.5c0-2.3,1.9-4.2,4.2-4.2l0,0
	c2.3,0,4.2,1.9,4.2,4.2V600C511.1,602.3,509.2,604.2,506.9,604.2z"/>
<path id="XMLID_32_" class="st6" d="M522.2,608.7h-20v-221c0-5.5,4.5-10,10-10l0,0c5.5,0,10,4.5,10,10V608.7z"/>
<path id="XMLID_77_" class="st33" d="M546.2,608.7h-24v-219c0-6.6,5.4-12,12-12l0,0c6.6,0,12,5.4,12,12V608.7z"/>
<path id="XMLID_38_" class="st6" d="M546.2,608.7h-24v-219c0-6.6,5.4-12,12-12l0,0c6.6,0,12,5.4,12,12V608.7z"/>
<path id="XMLID_87_" class="st7" d="M788.3,431.2H645.9c-10.7,0-19.3-8.7-19.3-19.3v-41.3c0-10.7,8.7-19.3,19.3-19.3h142.3
	c10.7,0,19.3,8.7,19.3,19.3v41.3C807.6,422.5,798.9,431.2,788.3,431.2z"/>
<path id="XMLID_185_" class="st23" d="M634.8,416L634.8,416c-3.2,0-5.8-2.6-5.8-5.8v-38c0-3.2,2.6-5.8,5.8-5.8l0,0
	c3.2,0,5.8,2.6,5.8,5.8v38C640.7,413.4,638.1,416,634.8,416z"/>
<path id="XMLID_73_" class="st34" d="M780.8,412.4H653.3c-3.4,0-6.2-2.8-6.2-6.2l0,0c0-3.4,2.8-6.2,6.2-6.2h127.5
	c3.4,0,6.2,2.8,6.2,6.2l0,0C787,409.6,784.2,412.4,780.8,412.4z"/>
<path id="XMLID_113_" class="st34" d="M783.9,394.3H650.3c-1.7,0-3.1-1.4-3.1-3.1l0,0c0-1.7,1.4-3.1,3.1-3.1H784
	c1.7,0,3.1,1.4,3.1,3.1l0,0C787,393,785.6,394.3,783.9,394.3z"/>
<path id="XMLID_153_" class="st8" d="M788.3,351.2h-1.1c1.3,2.6,2.1,5.5,2.1,8.7V406c0,8-6.5,14.6-14.6,14.6H651.3
	c-5.9,0-10.7,4.8-10.7,10.7l0,0h147.6c10.7,0,19.3-8.7,19.3-19.3v-41.3C807.6,359.8,798.9,351.2,788.3,351.2z"/>
<path id="XMLID_104_" class="st35" d="M795.6,364h-157c-2.9,0-5.2-2.3-5.2-5.2l0,0c0-2.9,2.3-5.2,5.2-5.2h157c2.9,0,5.2,2.3,5.2,5.2
	l0,0C800.8,361.7,798.5,364,795.6,364z"/>
<path id="XMLID_31_" class="st6" d="M788.3,431.2H645.9c-10.7,0-19.3-8.7-19.3-19.3v-41.3c0-10.7,8.7-19.3,19.3-19.3h142.3
	c10.7,0,19.3,8.7,19.3,19.3v41.3C807.6,422.5,798.9,431.2,788.3,431.2z"/>
<path id="XMLID_43_" class="st36" d="M715.2,630.3L715.2,630.3c-11.7,0-21.3-9.5-21.3-21.3v-68.4c0-11.7,9.5-21.3,21.3-21.3l0,0
	c11.7,0,21.3,9.5,21.3,21.3V609C736.4,620.8,726.9,630.3,715.2,630.3z"/>
<path id="XMLID_28_" class="st37" d="M700.8,617.5L700.8,617.5c-3,0-5.4-2.4-5.4-5.4v-76.7c0-3,2.4-5.4,5.4-5.4l0,0
	c3,0,5.4,2.4,5.4,5.4v76.7C706.2,615.1,703.8,617.5,700.8,617.5z"/>
<path id="XMLID_91_" class="st38" d="M720.6,520.1c3,3.7,4.9,8.4,4.9,13.5V602c0,11.7-9.5,21.3-21.3,21.3l0,0
	c-1.9,0-3.7-0.3-5.4-0.7c3.9,4.7,9.8,7.7,16.4,7.7l0,0c11.7,0,21.3-9.5,21.3-21.3v-68.4C736.4,530.8,729.7,522.5,720.6,520.1z"/>
<path id="XMLID_88_" class="st6" d="M715.2,630.3L715.2,630.3c-11.7,0-21.3-9.5-21.3-21.3v-68.4c0-11.7,9.5-21.3,21.3-21.3l0,0
	c11.7,0,21.3,9.5,21.3,21.3V609C736.4,620.8,726.9,630.3,715.2,630.3z"/>
<path id="XMLID_89_" class="st38" d="M727.3,524.4H703c-5,0-9.1-4.1-9.1-9.1l0,0c0-5,4.1-9.1,9.1-9.1h24.3c5,0,9.1,4.1,9.1,9.1l0,0
	C736.4,520.3,732.3,524.4,727.3,524.4z"/>
<ellipse id="XMLID_156_" class="st37" cx="700.1" cy="515.2" rx="6.2" ry="6.2"/>
<path id="XMLID_166_" class="st39" d="M727.3,506.1H713c5,0,9.1,4.1,9.1,9.1l0,0c0,5-4.1,9.1-9.1,9.1h14.3c5,0,9.1-4.1,9.1-9.1l0,0
	C736.4,510.2,732.3,506.1,727.3,506.1z"/>
<path id="XMLID_45_" class="st6" d="M727.3,524.4H703c-5,0-9.1-4.1-9.1-9.1l0,0c0-5,4.1-9.1,9.1-9.1h24.3c5,0,9.1,4.1,9.1,9.1l0,0
	C736.4,520.3,732.3,524.4,727.3,524.4z"/>
<path id="XMLID_76_" class="st6" d="M626.6,406.2h-1.2c-3.8,0-6.8-3.1-6.8-6.8V383c0-3.8,3.1-6.8,6.8-6.8h1.2V406.2z"/>
<path id="XMLID_68_" class="st12" d="M626.6,406.2h-1.2c-3.8,0-6.8-3.1-6.8-6.8V383c0-3.8,3.1-6.8,6.8-6.8h1.2V406.2z"/>
<path id="XMLID_90_" class="st6" d="M807.6,406.2h1.2c3.8,0,6.8-3.1,6.8-6.8V383c0-3.8-3.1-6.8-6.8-6.8h-1.2V406.2z"/>
<path id="XMLID_74_" class="st12" d="M807.6,406.2h1.2c3.8,0,6.8-3.1,6.8-6.8V383c0-3.8-3.1-6.8-6.8-6.8h-1.2V406.2z"/>
<path id="XMLID_56_" class="st40" d="M319.9,322.5c-2-2.5-4-4.8-5.6-7.1c-5-6.8-10.1-17.5-10.6-35.2c-0.1-3.4-3.5-5.6-6.7-4.3
	c-7.5,3.1-18,8.9-27.3,19.4c-7.7,8.6-12.2,17.7-14.9,25.4l0,0"/>
<path id="XMLID_71_" class="st28" d="M319.9,334.1c0-0.2,0-0.3,0-0.5s0.1-0.5,0.1-0.7c0.1-0.5,0.1-1.1,0.2-1.6
	c0-0.2,0.1-0.4,0.1-0.6c0.5-2.7,1.2-5.4,2.3-7.9c-1.8-0.3-3.4-1.2-4.5-2.6c-1.4-1.7-2.7-3.2-3.8-4.8c-5-6.8-10.1-17.6-10.6-35.2
	c-0.1-3.4-3.5-5.6-6.6-4.3c-7.5,3.1-18,8.9-27.3,19.4c-7.7,8.6-13.2,20.5-15.9,28.3c0.4,0.1,5.9,3.4,5.9,8.9v15.1
	c0,6.8,5.4,12.7,12.2,12.8c7,0.1,12.7-5.5,12.7-12.4v-26c0-3.8,2.9-7.1,6.7-7.2c3.9-0.1,7.2,3,7.2,6.9v11.9
	c0,6.9,4.8,12.4,10.7,12.4c5.4,0,9.9-4.7,10.6-10.7C319.8,335,319.9,334.6,319.9,334.1z"/>
<line id="XMLID_135_" class="st41" x1="408" y1="578.8" x2="408" y2="594.7"/>
<line id="XMLID_118_" class="st41" x1="408" y1="462.4" x2="408" y2="565.2"/>
<path id="XMLID_106_" class="st41" d="M285.4,607.2"/>
<path id="XMLID_111_" class="st5" d="M717.7,177.8L717.7,177.8l-10.8-16c-5.7-8.4-0.4-20.2,9.8-20.9c0.3,0,0.7,0,1,0l0,0
	c0.3,0,0.7,0,1,0c10.1,0.7,15.4,12.4,9.8,20.9L717.7,177.8z"/>
<path id="XMLID_170_" class="st7" d="M717.7,184.8L717.7,184.8l-10.8-16c-5.7-8.4-0.4-20.2,9.8-20.9c0.3,0,0.7,0,1,0l0,0
	c0.3,0,0.7,0,1,0c10.1,0.7,15.4,12.4,9.8,20.9L717.7,184.8z"/>
<path id="XMLID_175_" class="st6" d="M717.7,184.8L717.7,184.8l-10.8-16c-5.7-8.4-0.4-20.2,9.8-20.9c0.3,0,0.7,0,1,0l0,0
	c0.3,0,0.7,0,1,0c10.1,0.7,15.4,12.4,9.8,20.9L717.7,184.8z"/>
<path id="XMLID_195_" class="st41" d="M652.7,393.7"/>
<path id="XMLID_193_" class="st41" d="M652.7,371"/>
<path id="XMLID_189_" class="st41" d="M652.7,416"/>
<line id="XMLID_158_" class="st41" x1="652.7" y1="371" x2="736.4" y2="371"/>
<line id="XMLID_163_" class="st41" x1="753.5" y1="371" x2="765.5" y2="371"/>
<circle id="XMLID_165_" class="st42" cx="715.2" cy="606.4" r="6.7"/>
<circle id="XMLID_164_" class="st6" cx="715.2" cy="606.4" r="6.7"/>
</svg>
