<?xml version="1.0" encoding="utf-8"?>
<!-- Generator: Adobe Illustrator 23.1.1, SVG Export Plug-In . SVG Version: 6.00 Build 0)  -->
<svg version="1.1" id="Layer_1" xmlns="http://www.w3.org/2000/svg" xmlns:xlink="http://www.w3.org/1999/xlink" x="0px" y="0px"
	 viewBox="0 0 1000 1000" style="enable-background:new 0 0 1000 1000;" xml:space="preserve">
<style type="text/css">
	.st0{fill:#FF2756;}
	.st1{fill:#EEF2F4;}
	.st2{opacity:0.34;fill:#353535;}
	.st3{fill:#EDBEC4;}
	.st4{fill:#F4D7DE;}
	.st5{fill:none;stroke:#3A3842;stroke-width:6;stroke-linecap:round;stroke-linejoin:round;stroke-miterlimit:10;}
	.st6{fill:#3A3842;}
	.st7{fill:#DBA1A9;}
	.st8{fill:#CAB5EA;}
	.st9{fill:#33313A;}
	.st10{fill:none;stroke:#EDBEC4;stroke-width:6;stroke-linecap:round;stroke-linejoin:round;stroke-miterlimit:10;}
	.st11{fill:none;stroke:#3A3842;stroke-width:4;stroke-linecap:round;stroke-linejoin:round;stroke-miterlimit:10;}
	.st12{fill:#F26640;}
	.st13{fill:#5EB755;}
	.st14{fill:#6A82EA;}
	.st15{fill:#EFAD43;}
	.st16{fill:none;stroke:#FFFFFF;stroke-width:8;stroke-linecap:round;stroke-linejoin:round;stroke-miterlimit:10;}
	.st17{opacity:0.34;fill:#3A3842;}
	.st18{fill:#E8B5BB;}
	.st19{fill:#F2CCD4;}
</style>
<rect id="XMLID_18_" class="st0" width="1000" height="1000"/>
<g>
	<g>
		<g>
			<path class="st1" d="M63.2,959.2c0,2.5-1.2,3.7-2.6,3.7c-1.1,0-1.9-0.5-2.1-1.4c-0.4,0.5-1,0.8-1.8,0.8c-1.5,0-2.6-1.2-2.6-2.8
				c0-1.6,1.1-2.8,2.6-2.8c0.7,0,1.2,0.3,1.6,0.7v-0.5h1.6v3.9c0,0.8,0.3,1.4,1,1.4c0.9,0,1.7-0.9,1.7-3c0-3-2.3-5.3-5.4-5.3
				c-3.1,0-5.6,2.4-5.6,5.7c0,3.3,2.5,5.7,5.9,5.7c1.1,0,2.1-0.2,2.9-0.4v0.6c-0.8,0.3-1.7,0.4-2.9,0.4c-3.7,0-6.5-2.6-6.5-6.2
				c0-3.4,2.7-6.2,6.2-6.2C61.1,953.3,63.2,956.4,63.2,959.2z M58.3,959.5c0-0.8-0.6-1.4-1.3-1.4c-0.8,0-1.3,0.5-1.3,1.4
				c0,0.8,0.6,1.3,1.3,1.3C57.8,960.9,58.3,960.3,58.3,959.5z"/>
		</g>
		<g>
			<path class="st1" d="M69.4,955.1v2c-1.2-0.1-2.6,0.5-2.6,2.4v4.3h-1.9v-8.6h1.9v1.4C67.3,955.5,68.3,955.1,69.4,955.1z"/>
		</g>
		<g>
			<path class="st1" d="M74.6,962.3c1,0,1.8-0.5,2.2-1.1l1.5,0.9c-0.8,1.2-2.1,1.9-3.8,1.9c-2.8,0-4.7-1.9-4.7-4.5
				c0-2.5,1.8-4.5,4.5-4.5c2.6,0,4.3,2.1,4.3,4.5c0,0.3,0,0.5-0.1,0.8h-6.8C72.1,961.6,73.2,962.3,74.6,962.3z M76.9,958.8
				c-0.3-1.5-1.3-2.1-2.5-2.1c-1.4,0-2.3,0.8-2.6,2.1H76.9z"/>
		</g>
		<g>
			<path class="st1" d="M88.9,955.2v8.6h-1.9v-1.2c-0.7,0.9-1.7,1.5-3,1.5c-2.3,0-4.3-2-4.3-4.5c0-2.6,1.9-4.5,4.3-4.5
				c1.3,0,2.3,0.5,3,1.4v-1.2H88.9z M87.1,959.5c0-1.6-1.2-2.7-2.7-2.7c-1.5,0-2.7,1.1-2.7,2.7c0,1.6,1.2,2.7,2.7,2.7
				C85.9,962.3,87.1,961.1,87.1,959.5z"/>
		</g>
		<g>
			<path class="st1" d="M91.1,951.3H93v12.5h-1.9V951.3z"/>
		</g>
		<g>
			<path class="st1" d="M102.9,955.2l-3.3,8.6h-2.1l-3.3-8.6h2l2.4,6.5l2.4-6.5H102.9z"/>
		</g>
		<g>
			<path class="st1" d="M104.2,955.2h1.9v8.9c0,2.4-1.2,3.5-3.5,3.3v-1.8c1.1,0.1,1.7-0.3,1.7-1.5V955.2z M104,952.8
				c0-0.7,0.5-1.2,1.2-1.2c0.7,0,1.2,0.5,1.2,1.2c0,0.6-0.5,1.2-1.2,1.2C104.5,954,104,953.4,104,952.8z"/>
		</g>
		<g>
			<path class="st1" d="M116,955.2l-3.3,8.8c-0.8,2.2-2.2,3.3-4.2,3.2v-1.7c1.2,0.1,1.9-0.5,2.3-1.7l0.1-0.2l-3.6-8.4h2l2.6,6.2
				l2.2-6.2H116z"/>
		</g>
	</g>
	<g>
		<path class="st1" d="M211.9,938.7c0,2.1-1.5,3.8-3.6,3.8h-3v-7.6h3C210.4,934.9,211.9,936.6,211.9,938.7z M210.9,938.7
			c0-1.6-1.1-2.9-2.6-2.9h-2v5.7h2C209.8,941.6,210.9,940.3,210.9,938.7z"/>
		<path class="st1" d="M219.5,940.8h-3.4l-0.6,1.7h-1.1l2.8-7.6h1.1l2.8,7.6h-1.1L219.5,940.8z M219.2,939.9l-1.4-3.8l-1.4,3.8
			H219.2z"/>
		<path class="st1" d="M226.4,939.4v3.1h-1v-3.1l-2.7-4.5h1.1l2.1,3.6l2.1-3.6h1.1L226.4,939.4z"/>
		<path class="st1" d="M241.9,940.3c0,1.5-1.2,2.4-2.6,2.4c-1.1,0-2.1-0.5-2.5-1.5l0.9-0.5c0.2,0.7,0.8,1.1,1.7,1.1
			c0.9,0,1.6-0.5,1.6-1.4c0-0.9-0.7-1.4-1.6-1.4h-0.3l-0.4-0.6l1.8-2.4H237v-0.9h4.6v0.9l-1.7,2.2C241,938.2,241.9,939,241.9,940.3z
			"/>
		<path class="st1" d="M249.6,938.8L249.6,938.8l-2.5,3.7H246l1.8-2.7c-0.1,0-0.2,0-0.4,0c-1.5,0-2.6-1-2.6-2.6
			c0-1.5,1.1-2.6,2.6-2.6s2.6,1,2.6,2.6C250,937.9,249.9,938.4,249.6,938.8z M247.4,938.9c1,0,1.6-0.6,1.6-1.6s-0.7-1.6-1.6-1.6
			s-1.6,0.6-1.6,1.6C245.8,938.3,246.5,938.9,247.4,938.9z"/>
	</g>
	<g>
		<path class="st1" d="M58.9,938.7c0,2.1-1.5,3.8-3.6,3.8h-3v-7.6h3C57.4,934.9,58.9,936.6,58.9,938.7z M57.9,938.7
			c0-1.6-1.1-2.9-2.6-2.9h-2v5.7h2C56.8,941.6,57.9,940.3,57.9,938.7z"/>
		<path class="st1" d="M67,941.6v1h-4.6v-7.6h4.5v1h-3.5v2.3h3.2v0.9h-3.2v2.4H67z"/>
		<path class="st1" d="M70,940.8l0.9-0.5c0.3,0.8,0.9,1.4,2,1.4c1.1,0,1.6-0.5,1.6-1.2c0-0.8-0.7-1-1.8-1.4
			c-1.2-0.4-2.4-0.8-2.4-2.2c0-1.4,1.1-2.2,2.4-2.2c1.3,0,2.2,0.7,2.6,1.7l-0.8,0.5c-0.3-0.7-0.8-1.2-1.7-1.2
			c-0.8,0-1.4,0.4-1.4,1.1c0,0.7,0.5,1,1.6,1.3c1.3,0.4,2.6,0.8,2.6,2.3c0,1.3-1.1,2.2-2.6,2.2C71.5,942.7,70.4,941.9,70,940.8z"/>
		<path class="st1" d="M80,934.9v7.6h-1v-7.6H80z"/>
		<path class="st1" d="M91.3,939.2c0,1.9-1.4,3.5-3.7,3.5c-2.4,0-4-1.8-4-4c0-2.2,1.7-4,4-4c1.4,0,2.7,0.8,3.3,1.8l-0.9,0.5
			c-0.4-0.8-1.4-1.4-2.4-1.4c-1.8,0-3,1.3-3,3c0,1.7,1.2,3,3,3c1.6,0,2.5-0.9,2.7-2h-2.8v-0.9h3.8V939.2z"/>
		<path class="st1" d="M100.6,934.9v7.6h-0.8l-3.9-5.7v5.7h-1v-7.6h0.8l3.9,5.7v-5.7H100.6z"/>
		<path class="st1" d="M109.1,941.6v1h-4.6v-7.6h4.5v1h-3.5v2.3h3.2v0.9h-3.2v2.4H109.1z"/>
		<path class="st1" d="M119.2,938.7c0,2.1-1.5,3.8-3.6,3.8h-3v-7.6h3C117.6,934.9,119.2,936.6,119.2,938.7z M118.2,938.7
			c0-1.6-1.1-2.9-2.6-2.9h-2v5.7h2C117.1,941.6,118.2,940.3,118.2,938.7z"/>
		<path class="st1" d="M133.2,940.4c0,1.2-1,2.2-2.2,2.2h-3.3v-7.6h3c1.2,0,2.1,0.9,2.1,2.1c0,0.7-0.3,1.2-0.8,1.6
			C132.7,938.9,133.2,939.5,133.2,940.4z M128.7,935.8v2.3h2c0.6,0,1.1-0.5,1.1-1.2c0-0.6-0.5-1.2-1.1-1.2H128.7z M132.2,940.3
			c0-0.7-0.5-1.2-1.2-1.2h-2.3v2.5h2.3C131.7,941.6,132.2,941,132.2,940.3z"/>
		<path class="st1" d="M139.4,939.4v3.1h-1v-3.1l-2.7-4.5h1.1l2.1,3.6l2.1-3.6h1.1L139.4,939.4z"/>
	</g>
	<g>
		<path class="st1" d="M216.2,958.1c0,3.5-2.5,6.2-5.9,6.2h-4.9v-12.4h4.9C213.7,951.9,216.2,954.6,216.2,958.1z M214.3,958.1
			c0-2.5-1.6-4.2-4-4.2h-2.8v8.5h2.8C212.7,962.3,214.3,960.5,214.3,958.1z"/>
		<path class="st1" d="M222.3,962.8c1.1,0,1.9-0.5,2.3-1.1l1.6,0.9c-0.8,1.2-2.1,1.9-3.9,1.9c-2.9,0-4.8-2-4.8-4.7
			c0-2.6,1.9-4.7,4.7-4.7c2.6,0,4.4,2.1,4.4,4.7c0,0.3,0,0.5-0.1,0.8h-7C219.8,962.1,220.9,962.8,222.3,962.8z M224.7,959.1
			c-0.3-1.5-1.4-2.2-2.5-2.2c-1.4,0-2.4,0.8-2.7,2.2H224.7z"/>
		<path class="st1" d="M234.4,961.8c0,1.8-1.5,2.7-3.5,2.7c-1.8,0-3-0.8-3.6-2.1l1.6-1c0.3,0.8,1,1.3,2,1.3c0.8,0,1.5-0.3,1.5-1
			c0-1.6-4.8-0.7-4.8-3.9c0-1.7,1.4-2.7,3.2-2.7c1.5,0,2.7,0.7,3.3,1.8l-1.6,0.9c-0.3-0.7-0.9-1-1.7-1c-0.7,0-1.3,0.3-1.3,0.9
			C229.7,959.5,234.4,958.5,234.4,961.8z"/>
		<path class="st1" d="M241.5,964.3l-3.6-4.1v4.1H236v-12.4h1.9v7.5l3.4-3.9h2.3l-3.9,4.3l4,4.5H241.5z"/>
		<path class="st1" d="M247.7,957.3v4.2c0,1.1,0.7,1.1,2.2,1v1.7c-2.9,0.4-4.1-0.5-4.1-2.8v-4.2h-1.6v-1.8h1.6v-1.9l1.9-0.6v2.5h2.2
			v1.8H247.7z"/>
		<path class="st1" d="M250.8,959.9c0-2.6,2.1-4.7,4.7-4.7c2.6,0,4.7,2,4.7,4.7c0,2.6-2.1,4.7-4.7,4.7
			C252.9,964.5,250.8,962.5,250.8,959.9z M258.2,959.9c0-1.6-1.2-2.8-2.8-2.8s-2.8,1.2-2.8,2.8c0,1.6,1.2,2.8,2.8,2.8
			S258.2,961.5,258.2,959.9z"/>
		<path class="st1" d="M271.3,959.9c0,2.6-2,4.7-4.4,4.7c-1.4,0-2.4-0.6-3.1-1.5v4.8h-1.9v-12.4h1.9v1.3c0.7-0.9,1.7-1.5,3.1-1.5
			C269.3,955.2,271.3,957.3,271.3,959.9z M269.4,959.9c0-1.6-1.2-2.8-2.8-2.8c-1.6,0-2.8,1.2-2.8,2.8c0,1.6,1.2,2.8,2.8,2.8
			C268.2,962.7,269.4,961.5,269.4,959.9z"/>
		<path class="st1" d="M286.2,956c0,2.3-1.8,4.1-4.1,4.1h-2.5v4.2h-2v-12.4h4.6C284.5,951.9,286.2,953.7,286.2,956z M284.2,956
			c0-1.3-0.9-2.2-2.1-2.2h-2.5v4.3h2.5C283.3,958.1,284.2,957.2,284.2,956z"/>
		<path class="st1" d="M287.3,958.1c0-3.6,2.7-6.4,6.5-6.4c2.3,0,4.3,1.2,5.3,3l-1.8,1c-0.7-1.2-2-2-3.6-2c-2.7,0-4.4,1.9-4.4,4.4
			s1.8,4.4,4.4,4.4c1.6,0,2.9-0.8,3.6-2l1.8,1c-1,1.8-3,3-5.3,3C290,964.5,287.3,961.7,287.3,958.1z"/>
	</g>
	<g>
		<g>
			<path class="st1" d="M846.1,938.7c0,2.1-1.5,3.8-3.6,3.8h-3v-7.6h3C844.6,934.9,846.1,936.6,846.1,938.7z M845.2,938.7
				c0-1.6-1.1-2.9-2.6-2.9h-2v5.7h2C844.1,941.6,845.2,940.3,845.2,938.7z"/>
		</g>
		<g>
			<path class="st1" d="M849.3,938.7c0-2.2,1.7-4,3.9-4c2.2,0,4,1.8,4,4c0,2.2-1.7,4-4,4C851,942.7,849.3,940.9,849.3,938.7z
				 M856.1,938.7c0-1.7-1.3-3-2.9-3c-1.7,0-2.9,1.3-2.9,3c0,1.7,1.3,3,2.9,3C854.9,941.7,856.1,940.4,856.1,938.7z"/>
		</g>
		<g>
			<path class="st1" d="M859.8,934.9h1.1l1.7,6.3l1.9-6.3h1l1.9,6.3l1.7-6.3h1.1l-2.2,7.6h-1.2l-1.8-6.1l-1.8,6.1H862L859.8,934.9z"
				/>
		</g>
		<g>
			<path class="st1" d="M879.3,934.9v7.6h-0.8l-3.9-5.7v5.7h-1v-7.6h0.8l3.9,5.7v-5.7H879.3z"/>
		</g>
		<g>
			<path class="st1" d="M887.5,941.6v1h-4.3v-7.6h1v6.7H887.5z"/>
		</g>
		<g>
			<path class="st1" d="M889.9,938.7c0-2.2,1.7-4,3.9-4c2.2,0,4,1.8,4,4c0,2.2-1.7,4-4,4C891.6,942.7,889.9,940.9,889.9,938.7z
				 M896.8,938.7c0-1.7-1.3-3-2.9-3c-1.7,0-2.9,1.3-2.9,3c0,1.7,1.3,3,2.9,3C895.5,941.7,896.8,940.4,896.8,938.7z"/>
		</g>
		<g>
			<path class="st1" d="M905.4,940.8H902l-0.6,1.7h-1.1l2.8-7.6h1.1l2.8,7.6H906L905.4,940.8z M905.1,939.9l-1.4-3.8l-1.4,3.8H905.1
				z"/>
		</g>
		<g>
			<path class="st1" d="M916.9,938.7c0,2.1-1.5,3.8-3.6,3.8h-3v-7.6h3C915.4,934.9,916.9,936.6,916.9,938.7z M915.9,938.7
				c0-1.6-1.1-2.9-2.6-2.9h-2v5.7h2C914.9,941.6,915.9,940.3,915.9,938.7z"/>
		</g>
		<g>
			<path class="st1" d="M926.5,935.8v2.5h3.2v1h-3.2v3.2h-1v-7.6h4.4v1H926.5z"/>
		</g>
		<g>
			<path class="st1" d="M936.2,939.6h-1.8v2.9h-1v-7.6h3c1.3,0,2.4,1.1,2.4,2.4c0,1-0.7,1.9-1.6,2.2l1.8,3.1h-1.1L936.2,939.6z
				 M934.4,938.7h2c0.8,0,1.4-0.6,1.4-1.4c0-0.8-0.6-1.4-1.4-1.4h-2V938.7z"/>
		</g>
		<g>
			<path class="st1" d="M941.9,938.7c0-2.2,1.7-4,3.9-4c2.2,0,4,1.8,4,4c0,2.2-1.7,4-4,4C943.6,942.7,941.9,940.9,941.9,938.7z
				 M948.8,938.7c0-1.7-1.3-3-2.9-3c-1.7,0-2.9,1.3-2.9,3c0,1.7,1.3,3,2.9,3C947.5,941.7,948.8,940.4,948.8,938.7z"/>
		</g>
		<g>
			<path class="st1" d="M960.4,942.5h-1v-6l-2.5,4.2h-0.1l-2.5-4.1v5.9h-1v-7.6h1.1l2.4,4l2.4-4h1.1V942.5z"/>
		</g>
	</g>
	<g>
		<g>
			<path class="st1" d="M839.3,952.9c0-0.7,0.5-1.2,1.2-1.2c0.7,0,1.2,0.5,1.2,1.2c0,0.7-0.5,1.2-1.2,1.2
				C839.9,954.1,839.3,953.6,839.3,952.9z M839.6,955.4h1.9v8.9h-1.9V955.4z"/>
		</g>
		<g>
			<path class="st1" d="M843.7,951.4h1.9v12.9h-1.9V951.4z"/>
		</g>
		<g>
			<path class="st1" d="M847.8,951.4h1.9v12.9h-1.9V951.4z"/>
		</g>
		<g>
			<path class="st1" d="M852,951.4h1.9v12.9H852V951.4z"/>
		</g>
		<g>
			<path class="st1" d="M864,955.4v8.9h-1.9v-1.1c-0.6,0.9-1.5,1.4-2.7,1.4c-2,0-3.4-1.3-3.4-3.6v-5.4h1.9v5.2c0,1.3,0.8,2.1,2,2.1
				c1.3,0,2.2-0.7,2.2-2.5v-4.7H864z"/>
		</g>
		<g>
			<path class="st1" d="M872.6,961.8c0,1.8-1.5,2.7-3.5,2.7c-1.8,0-3-0.8-3.6-2.1l1.6-1c0.3,0.8,1,1.3,2,1.3c0.8,0,1.5-0.3,1.5-1
				c0-1.6-4.8-0.7-4.8-3.9c0-1.7,1.4-2.7,3.2-2.7c1.5,0,2.7,0.7,3.3,1.8l-1.6,0.9c-0.3-0.7-0.9-1-1.7-1c-0.7,0-1.3,0.3-1.3,0.9
				C867.9,959.5,872.6,958.5,872.6,961.8z"/>
		</g>
		<g>
			<path class="st1" d="M876.7,957.3v4.2c0,1.1,0.7,1.1,2.2,1v1.7c-2.9,0.4-4.1-0.5-4.1-2.8v-4.2h-1.6v-1.8h1.6v-1.9l1.9-0.6v2.5
				h2.2v1.8H876.7z"/>
		</g>
		<g>
			<path class="st1" d="M885.4,955.3v2.1c-1.3-0.1-2.7,0.5-2.7,2.5v4.5h-1.9v-8.9h1.9v1.5C883.2,955.7,884.2,955.3,885.4,955.3z"/>
		</g>
		<g>
			<path class="st1" d="M895.3,955.4v8.9h-1.9V963c-0.7,0.9-1.7,1.5-3.1,1.5c-2.4,0-4.4-2-4.4-4.7c0-2.6,2-4.7,4.4-4.7
				c1.4,0,2.4,0.6,3.1,1.5v-1.3H895.3z M893.4,959.9c0-1.6-1.2-2.8-2.8-2.8c-1.6,0-2.8,1.2-2.8,2.8c0,1.6,1.2,2.8,2.8,2.8
				C892.2,962.7,893.4,961.5,893.4,959.9z"/>
		</g>
		<g>
			<path class="st1" d="M900.3,957.3v4.2c0,1.1,0.7,1.1,2.2,1v1.7c-2.9,0.4-4.1-0.5-4.1-2.8v-4.2h-1.6v-1.8h1.6v-1.9l1.9-0.6v2.5
				h2.2v1.8H900.3z"/>
		</g>
		<g>
			<path class="st1" d="M903.9,952.9c0-0.7,0.5-1.2,1.2-1.2c0.7,0,1.2,0.5,1.2,1.2c0,0.7-0.5,1.2-1.2,1.2
				C904.5,954.1,903.9,953.6,903.9,952.9z M904.2,955.4h1.9v8.9h-1.9V955.4z"/>
		</g>
		<g>
			<path class="st1" d="M907.8,959.9c0-2.6,2.1-4.7,4.7-4.7c2.6,0,4.7,2,4.7,4.7c0,2.6-2.1,4.7-4.7,4.7
				C909.9,964.5,907.8,962.5,907.8,959.9z M915.3,959.9c0-1.6-1.2-2.8-2.8-2.8c-1.6,0-2.8,1.2-2.8,2.8c0,1.6,1.2,2.8,2.8,2.8
				C914.1,962.7,915.3,961.5,915.3,959.9z"/>
		</g>
		<g>
			<path class="st1" d="M927,958.9v5.4h-1.9v-5.2c0-1.3-0.8-2.1-2-2.1c-1.3,0-2.2,0.7-2.2,2.5v4.7h-1.9v-8.9h1.9v1.1
				c0.6-0.9,1.5-1.4,2.7-1.4C925.5,955.2,927,956.6,927,958.9z"/>
		</g>
		<g>
			<path class="st1" d="M935.5,961.8c0,1.8-1.5,2.7-3.5,2.7c-1.8,0-3-0.8-3.6-2.1l1.6-1c0.3,0.8,1,1.3,2,1.3c0.8,0,1.5-0.3,1.5-1
				c0-1.6-4.8-0.7-4.8-3.9c0-1.7,1.4-2.7,3.2-2.7c1.5,0,2.7,0.7,3.3,1.8l-1.6,0.9c-0.3-0.7-0.9-1-1.7-1c-0.7,0-1.3,0.3-1.3,0.9
				C930.7,959.5,935.5,958.5,935.5,961.8z"/>
		</g>
		<g>
			<path class="st1" d="M936.8,963.2c0-0.7,0.6-1.3,1.3-1.3c0.7,0,1.3,0.6,1.3,1.3c0,0.7-0.6,1.3-1.3,1.3
				C937.4,964.5,936.8,963.9,936.8,963.2z"/>
		</g>
		<g>
			<path class="st1" d="M940.3,959.9c0-2.6,2-4.7,4.7-4.7c1.7,0,3.2,0.9,3.9,2.3l-1.6,1c-0.4-0.8-1.3-1.4-2.3-1.4
				c-1.6,0-2.7,1.2-2.7,2.8c0,1.6,1.2,2.8,2.7,2.8c1.1,0,1.9-0.5,2.4-1.4l1.6,0.9c-0.7,1.4-2.2,2.3-4,2.3
				C942.3,964.5,940.3,962.5,940.3,959.9z"/>
		</g>
		<g>
			<path class="st1" d="M949.7,959.9c0-2.6,2.1-4.7,4.7-4.7c2.6,0,4.7,2,4.7,4.7c0,2.6-2.1,4.7-4.7,4.7
				C951.8,964.5,949.7,962.5,949.7,959.9z M957.2,959.9c0-1.6-1.2-2.8-2.8-2.8s-2.8,1.2-2.8,2.8c0,1.6,1.2,2.8,2.8,2.8
				S957.2,961.5,957.2,959.9z"/>
		</g>
	</g>
</g>
<path id="XMLID_74_" class="st2" d="M738.7,678.2H279.3c-10.5,0-19-8.5-19-19v0c0-10.5,8.5-19,19-19h459.3c10.5,0,19,8.5,19,19v0
	C757.7,669.7,749.2,678.2,738.7,678.2z"/>
<path id="XMLID_28_" class="st3" d="M381.8,520.8v-200c0-6.6,5.4-12,12-12h220c6.6,0,12,5.4,12,12v200c0,6.6-5.4,12-12,12h-220
	C387.1,532.8,381.8,527.4,381.8,520.8z"/>
<path id="XMLID_31_" class="st4" d="M389.8,511.5v-188c0-2.8,2.2-5,5-5h218c2.8,0,5,2.2,5,5v188c0,2.8-2.2,5-5,5h-218
	C392,516.5,389.8,514.2,389.8,511.5z"/>
<path id="XMLID_16_" class="st5" d="M381.8,520.8v-200c0-6.6,5.4-12,12-12h220c6.6,0,12,5.4,12,12v200c0,6.6-5.4,12-12,12h-220
	C387.1,532.8,381.8,527.4,381.8,520.8z"/>
<path id="XMLID_32_" class="st3" d="M399.8,483.5v-146c0-3.9,3.1-7,7-7h194c3.9,0,7,3.1,7,7v146c0,3.9-3.1,7-7,7h-194
	C402.9,490.5,399.8,487.4,399.8,483.5z"/>
<path id="XMLID_30_" class="st6" d="M428.8,481.5c-12.1,0-22-9.9-22-22v-98c0-12.1,9.9-22,22-22h150c12.1,0,22,9.9,22,22v98
	c0,12.1-9.9,22-22,22H428.8z"/>
<path id="XMLID_8_" class="st3" d="M582.8,550.8h-158c-4.4,0-8-3.6-8-8v-10h174v10C590.8,547.2,587.2,550.8,582.8,550.8z"/>
<rect id="XMLID_29_" x="416.8" y="532.8" class="st7" width="174" height="9"/>
<path id="XMLID_6_" class="st5" d="M582.8,550.8h-158c-4.4,0-8-3.6-8-8v-10h174v10C590.8,547.2,587.2,550.8,582.8,550.8z"/>
<path id="XMLID_7_" class="st3" d="M675.8,646.8h-344c-4.4,0-8-3.6-8-8v-80c0-4.4,3.6-8,8-8h344c4.4,0,8,3.6,8,8v80
	C683.8,643.2,680.2,646.8,675.8,646.8z"/>
<path id="XMLID_4_" class="st5" d="M675.8,646.8h-344c-4.4,0-8-3.6-8-8v-80c0-4.4,3.6-8,8-8h344c4.4,0,8,3.6,8,8v80
	C683.8,643.2,680.2,646.8,675.8,646.8z"/>
<path id="XMLID_34_" class="st4" d="M336.2,630.8v-64c0-4.4,3.6-8,8-8h319.1c4.4,0,8,3.6,8,8v64c0,4.4-3.6,8-8,8H344.2
	C339.8,638.8,336.2,635.2,336.2,630.8z"/>
<circle id="XMLID_37_" class="st8" cx="574" cy="503.1" r="7.5"/>
<circle id="XMLID_1_" class="st6" cx="574" cy="503.1" r="6.5"/>
<circle id="XMLID_39_" class="st9" cx="574" cy="503.1" r="5.6"/>
<g id="XMLID_24_">
	<g id="XMLID_136_">
		<line id="XMLID_137_" class="st10" x1="444.2" y1="604.3" x2="444.2" y2="631.8"/>
	</g>
	<g id="XMLID_133_">
		<line id="XMLID_134_" class="st10" x1="434.2" y1="604.3" x2="434.2" y2="631.8"/>
	</g>
	<g id="XMLID_130_">
		<line id="XMLID_131_" class="st10" x1="424.2" y1="604.3" x2="424.2" y2="631.8"/>
	</g>
	<g id="XMLID_127_">
		<line id="XMLID_128_" class="st10" x1="414.2" y1="604.3" x2="414.2" y2="631.8"/>
	</g>
	<g id="XMLID_124_">
		<line id="XMLID_125_" class="st10" x1="404.2" y1="604.3" x2="404.2" y2="631.8"/>
	</g>
	<g id="XMLID_121_">
		<line id="XMLID_122_" class="st10" x1="394.2" y1="604.3" x2="394.2" y2="631.8"/>
	</g>
	<g id="XMLID_118_">
		<line id="XMLID_119_" class="st10" x1="384.2" y1="604.3" x2="384.2" y2="631.8"/>
	</g>
	<g id="XMLID_115_">
		<line id="XMLID_116_" class="st10" x1="374.2" y1="604.3" x2="374.2" y2="631.8"/>
	</g>
	<g id="XMLID_112_">
		<line id="XMLID_113_" class="st10" x1="364.2" y1="604.3" x2="364.2" y2="631.8"/>
	</g>
</g>
<g id="XMLID_42_">
	<g id="XMLID_60_">
		<line id="XMLID_61_" class="st11" x1="445.1" y1="604.3" x2="445.1" y2="631.8"/>
	</g>
	<g id="XMLID_58_">
		<line id="XMLID_59_" class="st11" x1="435.1" y1="604.3" x2="435.1" y2="631.8"/>
	</g>
	<g id="XMLID_56_">
		<line id="XMLID_57_" class="st11" x1="425.1" y1="604.3" x2="425.1" y2="631.8"/>
	</g>
	<g id="XMLID_54_">
		<line id="XMLID_55_" class="st11" x1="415.1" y1="604.3" x2="415.1" y2="631.8"/>
	</g>
	<g id="XMLID_52_">
		<line id="XMLID_53_" class="st11" x1="405.1" y1="604.3" x2="405.1" y2="631.8"/>
	</g>
	<g id="XMLID_50_">
		<line id="XMLID_51_" class="st11" x1="395.1" y1="604.3" x2="395.1" y2="631.8"/>
	</g>
	<g id="XMLID_48_">
		<line id="XMLID_49_" class="st11" x1="385.1" y1="604.3" x2="385.1" y2="631.8"/>
	</g>
	<g id="XMLID_46_">
		<line id="XMLID_47_" class="st11" x1="375.1" y1="604.3" x2="375.1" y2="631.8"/>
	</g>
	<g id="XMLID_44_">
		<line id="XMLID_45_" class="st11" x1="365.1" y1="604.3" x2="365.1" y2="631.8"/>
	</g>
</g>
<g id="XMLID_38_">
	<rect id="XMLID_12_" x="359.8" y="571.2" class="st12" width="6.8" height="6.8"/>
	<rect id="XMLID_25_" x="368" y="571.2" class="st13" width="6.8" height="6.8"/>
	<rect id="XMLID_26_" x="359.8" y="579.1" class="st14" width="6.8" height="6.8"/>
	<rect id="XMLID_27_" x="368" y="579.1" class="st15" width="6.8" height="6.8"/>
</g>
<line id="XMLID_36_" class="st16" x1="464" y1="355.8" x2="519.3" y2="355.8"/>
<path id="XMLID_33_" class="st16" d="M448,355.8"/>
<line id="XMLID_17_" class="st16" x1="432" y1="355.8" x2="448" y2="355.8"/>
<path id="XMLID_40_" class="st9" d="M578.8,339.5h-7.6c-4.7,63.9-58,114.3-123.1,114.3h-41.3v5.7c0,12.1,9.9,22,22,22h150
	c12.1,0,22-9.9,22-22v-98C600.8,349.4,590.9,339.5,578.8,339.5z"/>
<rect id="XMLID_35_" x="378.1" y="574.5" class="st17" width="24.8" height="3.6"/>
<rect id="XMLID_41_" x="378.1" y="580.7" class="st17" width="12.4" height="1.9"/>
<rect id="XMLID_68_" x="405" y="632.5" class="st18" width="104" height="12"/>
<rect id="XMLID_67_" x="343.2" y="632.5" class="st18" width="20" height="12"/>
<rect id="XMLID_66_" x="374.1" y="632.5" class="st18" width="20" height="12"/>
<rect id="XMLID_65_" x="519.9" y="632.5" class="st18" width="20" height="12"/>
<rect id="XMLID_64_" x="550.8" y="632.5" class="st18" width="20" height="12"/>
<rect id="XMLID_63_" x="581.8" y="632.5" class="st18" width="20" height="12"/>
<rect id="XMLID_10_" x="405" y="632.5" class="st5" width="104" height="12"/>
<rect id="XMLID_19_" x="343.2" y="632.5" class="st5" width="20" height="12"/>
<rect id="XMLID_20_" x="374.1" y="632.5" class="st5" width="20" height="12"/>
<rect id="XMLID_21_" x="519.9" y="632.5" class="st5" width="20" height="12"/>
<rect id="XMLID_22_" x="550.8" y="632.5" class="st5" width="20" height="12"/>
<rect id="XMLID_23_" x="581.8" y="632.5" class="st5" width="20" height="12"/>
<path id="XMLID_62_" class="st19" d="M620.8,662.5h-296c-2.2,0-4-1.8-4-4v-10c0-2.2,1.8-4,4-4h296c2.2,0,4,1.8,4,4v10
	C624.8,660.7,623,662.5,620.8,662.5z"/>
<path id="XMLID_15_" class="st5" d="M620.8,662.5h-296c-2.2,0-4-1.8-4-4v-10c0-2.2,1.8-4,4-4h296c2.2,0,4,1.8,4,4v10
	C624.8,660.7,623,662.5,620.8,662.5z"/>
<path id="XMLID_71_" class="st19" d="M685.1,662.5h-37.3v-4.8c0-7.3,5.9-13.2,13.2-13.2h11c7.3,0,13.2,5.9,13.2,13.2V662.5z"/>
<path id="XMLID_70_" class="st5" d="M685.1,662.5h-37.3v-4.8c0-7.3,5.9-13.2,13.2-13.2h11c7.3,0,13.2,5.9,13.2,13.2V662.5z"/>
<g id="XMLID_72_">
	<path id="XMLID_14_" class="st3" d="M646.4,591.5h-91.3c-0.7,0-1.4-0.6-1.4-1.4v-8c0-0.7,0.6-1.4,1.4-1.4h91.3
		c0.7,0,1.4,0.6,1.4,1.4v8C647.8,590.9,647.2,591.5,646.4,591.5z"/>
	<path id="XMLID_13_" class="st3" d="M612.6,595.5h-23.7c-0.7,0-1.2-0.6-1.2-1.2V578c0-0.7,0.6-1.2,1.2-1.2h23.7
		c0.7,0,1.2,0.6,1.2,1.2v16.3C613.9,595,613.3,595.5,612.6,595.5z"/>
	<rect id="XMLID_9_" x="557.8" y="582.1" class="st6" width="86" height="8"/>
	<rect id="XMLID_11_" x="588.8" y="579.1" class="st6" width="24" height="14"/>
	<path id="XMLID_73_" class="st9" d="M559.8,586.1L559.8,586.1c0-1.1,0.9-2,2-2h78c1.1,0,2,0.9,2,2l0,0c0,1.1-0.9,2-2,2h-78
		C560.7,588.1,559.8,587.2,559.8,586.1z"/>
</g>
<g id="XMLID_75_">
	<path id="XMLID_80_" class="st3" d="M646.4,616.8h-91.3c-0.7,0-1.4-0.6-1.4-1.4v-8c0-0.7,0.6-1.4,1.4-1.4h91.3
		c0.7,0,1.4,0.6,1.4,1.4v8C647.8,616.2,647.2,616.8,646.4,616.8z"/>
	<path id="XMLID_79_" class="st3" d="M612.6,620.9h-23.7c-0.7,0-1.2-0.6-1.2-1.2v-16.3c0-0.7,0.6-1.2,1.2-1.2h23.7
		c0.7,0,1.2,0.6,1.2,1.2v16.3C613.9,620.3,613.3,620.9,612.6,620.9z"/>
	<rect id="XMLID_78_" x="557.8" y="607.5" class="st6" width="86" height="8"/>
	<rect id="XMLID_77_" x="588.8" y="604.5" class="st6" width="24" height="14"/>
	<path id="XMLID_76_" class="st9" d="M559.8,611.5L559.8,611.5c0-1.1,0.9-2,2-2h78c1.1,0,2,0.9,2,2l0,0c0,1.1-0.9,2-2,2h-78
		C560.7,613.5,559.8,612.6,559.8,611.5z"/>
</g>
</svg>
