<?xml version="1.0" encoding="utf-8"?>
<!-- Generator: Adobe Illustrator 23.1.1, SVG Export Plug-In . SVG Version: 6.00 Build 0)  -->
<svg version="1.1" id="Layer_1" xmlns="http://www.w3.org/2000/svg" xmlns:xlink="http://www.w3.org/1999/xlink" x="0px" y="0px"
	 viewBox="0 0 1000 1000" style="enable-background:new 0 0 1000 1000;" xml:space="preserve">
<style type="text/css">
	.st0{fill:#91CE74;}
	.st1{fill:#EEF2F4;}
	.st2{opacity:0.4;}
	.st3{fill:none;stroke:#424242;stroke-width:6;stroke-miterlimit:10;}
	.st4{fill:#424242;stroke:#424242;stroke-width:6;stroke-miterlimit:10;}
	.st5{fill:#FFFFFF;}
	.st6{fill:#D8D8D8;}
	.st7{fill:none;stroke:#30292C;stroke-width:4;stroke-linecap:round;stroke-linejoin:round;stroke-miterlimit:10;}
	.st8{fill:#FF415B;}
	.st9{fill:#EC1CE4;}
	.st10{fill:none;stroke:#133B4F;stroke-width:4;stroke-linecap:round;stroke-linejoin:round;stroke-miterlimit:10;}
	.st11{fill:#67CC70;}
	.st12{fill:#30292C;}
	.st13{fill:#CE7867;}
	.st14{fill:#5CECFF;}
	.st15{fill:#CCCCCC;}
	.st16{fill:#8E5645;}
	.st17{fill:#AE6553;}
	.st18{fill:#FFC25D;}
	.st19{fill:#00C899;}
	.st20{fill:#959595;}
	.st21{fill:#00B2C8;}
	.st22{fill:none;stroke:#30292C;stroke-width:8;stroke-linecap:round;stroke-linejoin:round;stroke-miterlimit:10;}
</style>
<rect id="XMLID_202_" class="st0" width="1000" height="1000"/>
<g>
	<g>
		<g>
			<path class="st1" d="M63.2,959.2c0,2.5-1.2,3.7-2.6,3.7c-1.1,0-1.9-0.5-2.1-1.4c-0.4,0.5-1,0.8-1.8,0.8c-1.5,0-2.6-1.2-2.6-2.8
				s1.1-2.8,2.6-2.8c0.7,0,1.2,0.3,1.6,0.7v-0.5h1.6v3.9c0,0.8,0.3,1.4,1,1.4c0.9,0,1.7-0.9,1.7-3c0-3-2.3-5.3-5.4-5.3
				c-3.1,0-5.6,2.4-5.6,5.7s2.5,5.7,5.9,5.7c1.1,0,2.1-0.2,2.9-0.4v0.6c-0.8,0.3-1.7,0.4-2.9,0.4c-3.7,0-6.5-2.6-6.5-6.2
				c0-3.4,2.7-6.2,6.2-6.2C61.1,953.3,63.2,956.4,63.2,959.2z M58.3,959.5c0-0.8-0.6-1.4-1.3-1.4c-0.8,0-1.3,0.5-1.3,1.4
				c0,0.8,0.6,1.3,1.3,1.3C57.8,960.9,58.3,960.3,58.3,959.5z"/>
		</g>
		<g>
			<path class="st1" d="M69.4,955.1v2c-1.2-0.1-2.6,0.5-2.6,2.4v4.3h-1.9v-8.6h1.9v1.4C67.3,955.5,68.3,955.1,69.4,955.1z"/>
		</g>
		<g>
			<path class="st1" d="M74.6,962.3c1,0,1.8-0.5,2.2-1.1l1.5,0.9c-0.8,1.2-2.1,1.9-3.8,1.9c-2.8,0-4.7-1.9-4.7-4.5
				c0-2.5,1.8-4.5,4.5-4.5c2.6,0,4.3,2.1,4.3,4.5c0,0.3,0,0.5-0.1,0.8h-6.8C72.1,961.6,73.2,962.3,74.6,962.3z M76.9,958.8
				c-0.3-1.5-1.3-2.1-2.5-2.1c-1.4,0-2.3,0.8-2.6,2.1H76.9z"/>
		</g>
		<g>
			<path class="st1" d="M88.9,955.2v8.6H87v-1.2c-0.7,0.9-1.7,1.5-3,1.5c-2.3,0-4.3-2-4.3-4.5c0-2.6,1.9-4.5,4.3-4.5
				c1.3,0,2.3,0.5,3,1.4v-1.2L88.9,955.2L88.9,955.2z M87.1,959.5c0-1.6-1.2-2.7-2.7-2.7s-2.7,1.1-2.7,2.7c0,1.6,1.2,2.7,2.7,2.7
				C85.9,962.3,87.1,961.1,87.1,959.5z"/>
		</g>
		<g>
			<path class="st1" d="M91.1,951.3H93v12.5h-1.9V951.3z"/>
		</g>
		<g>
			<path class="st1" d="M102.9,955.2l-3.3,8.6h-2.1l-3.3-8.6h2l2.4,6.5l2.4-6.5H102.9z"/>
		</g>
		<g>
			<path class="st1" d="M104.2,955.2h1.9v8.9c0,2.4-1.2,3.5-3.5,3.3v-1.8c1.1,0.1,1.7-0.3,1.7-1.5L104.2,955.2L104.2,955.2z
				 M104,952.8c0-0.7,0.5-1.2,1.2-1.2s1.2,0.5,1.2,1.2c0,0.6-0.5,1.2-1.2,1.2S104,953.4,104,952.8z"/>
		</g>
		<g>
			<path class="st1" d="M116,955.2l-3.3,8.8c-0.8,2.2-2.2,3.3-4.2,3.2v-1.7c1.2,0.1,1.9-0.5,2.3-1.7l0.1-0.2l-3.6-8.4h2l2.6,6.2
				l2.2-6.2L116,955.2L116,955.2z"/>
		</g>
	</g>
	<g>
		<path class="st1" d="M211.9,938.7c0,2.1-1.5,3.8-3.6,3.8h-3v-7.6h3C210.4,934.9,211.9,936.6,211.9,938.7z M210.9,938.7
			c0-1.6-1.1-2.9-2.6-2.9h-2v5.7h2C209.8,941.6,210.9,940.3,210.9,938.7z"/>
		<path class="st1" d="M219.5,940.8h-3.4l-0.6,1.7h-1.1l2.8-7.6h1.1l2.8,7.6H220L219.5,940.8z M219.2,939.9l-1.4-3.8l-1.4,3.8H219.2
			z"/>
		<path class="st1" d="M226.4,939.4v3.1h-1v-3.1l-2.7-4.5h1.1l2.1,3.6l2.1-3.6h1.1L226.4,939.4z"/>
		<path class="st1" d="M242.6,941.1h-0.9v1.4h-1v-1.4h-3.9v-0.9l2.7-5.2h1.1l-2.7,5.2h2.8V938h1v2.2h0.9L242.6,941.1L242.6,941.1z"
			/>
		<path class="st1" d="M250.8,940.4c0,1.4-1.1,2.2-2.6,2.2s-2.6-0.8-2.6-2.2c0-0.8,0.5-1.5,1.2-1.9c-0.6-0.3-0.9-0.9-0.9-1.7
			c0-1.5,1.2-2.2,2.4-2.2s2.4,0.7,2.4,2.2c0,0.8-0.4,1.3-0.9,1.7C250.3,938.9,250.8,939.6,250.8,940.4z M249.8,940.4
			c0-0.9-0.7-1.3-1.6-1.3c-0.9,0-1.6,0.4-1.6,1.3c0,0.9,0.7,1.3,1.6,1.3S249.8,941.2,249.8,940.4z M246.8,936.9
			c0,0.8,0.6,1.2,1.4,1.2c0.7,0,1.4-0.4,1.4-1.2s-0.6-1.2-1.4-1.2C247.5,935.7,246.8,936.1,246.8,936.9z"/>
	</g>
	<g>
		<path class="st1" d="M58.9,938.7c0,2.1-1.5,3.8-3.6,3.8h-3v-7.6h3C57.4,934.9,58.9,936.6,58.9,938.7z M57.9,938.7
			c0-1.6-1.1-2.9-2.6-2.9h-2v5.7h2C56.8,941.6,57.9,940.3,57.9,938.7z"/>
		<path class="st1" d="M67,941.6v1h-4.6V935h4.5v1h-3.5v2.3h3.2v0.9h-3.2v2.4L67,941.6L67,941.6z"/>
		<path class="st1" d="M70,940.8l0.9-0.5c0.3,0.8,0.9,1.4,2,1.4s1.6-0.5,1.6-1.2c0-0.8-0.7-1-1.8-1.4c-1.2-0.4-2.4-0.8-2.4-2.2
			s1.1-2.2,2.4-2.2s2.2,0.7,2.6,1.7l-0.8,0.5c-0.3-0.7-0.8-1.2-1.7-1.2c-0.8,0-1.4,0.4-1.4,1.1c0,0.7,0.5,1,1.6,1.3
			c1.3,0.4,2.6,0.8,2.6,2.3c0,1.3-1.1,2.2-2.6,2.2C71.5,942.7,70.4,941.9,70,940.8z"/>
		<path class="st1" d="M80,934.9v7.6h-1v-7.6H80z"/>
		<path class="st1" d="M91.3,939.2c0,1.9-1.4,3.5-3.7,3.5c-2.4,0-4-1.8-4-4s1.7-4,4-4c1.4,0,2.7,0.8,3.3,1.8L90,937
			c-0.4-0.8-1.4-1.4-2.4-1.4c-1.8,0-3,1.3-3,3s1.2,3,3,3c1.6,0,2.5-0.9,2.7-2h-2.8v-0.9h3.8V939.2z"/>
		<path class="st1" d="M100.6,934.9v7.6h-0.8l-3.9-5.7v5.7h-1v-7.6h0.8l3.9,5.7v-5.7H100.6z"/>
		<path class="st1" d="M109.1,941.6v1h-4.6V935h4.5v1h-3.5v2.3h3.2v0.9h-3.2v2.4L109.1,941.6L109.1,941.6z"/>
		<path class="st1" d="M119.2,938.7c0,2.1-1.5,3.8-3.6,3.8h-3v-7.6h3C117.6,934.9,119.2,936.6,119.2,938.7z M118.2,938.7
			c0-1.6-1.1-2.9-2.6-2.9h-2v5.7h2C117.1,941.6,118.2,940.3,118.2,938.7z"/>
		<path class="st1" d="M133.2,940.4c0,1.2-1,2.2-2.2,2.2h-3.3V935h3c1.2,0,2.1,0.9,2.1,2.1c0,0.7-0.3,1.2-0.8,1.6
			C132.7,938.9,133.2,939.5,133.2,940.4z M128.7,935.8v2.3h2c0.6,0,1.1-0.5,1.1-1.2c0-0.6-0.5-1.2-1.1-1.2h-2V935.8z M132.2,940.3
			c0-0.7-0.5-1.2-1.2-1.2h-2.3v2.5h2.3C131.7,941.6,132.2,941,132.2,940.3z"/>
		<path class="st1" d="M139.4,939.4v3.1h-1v-3.1l-2.7-4.5h1.1l2.1,3.6l2.1-3.6h1.1L139.4,939.4z"/>
	</g>
	<g>
		<path class="st1" d="M217.3,964.3h-2v-8.8l-3.8,6.2h-0.2l-3.8-6.2v8.9h-2V952h2.2l3.7,6.2l3.8-6.2h2.2L217.3,964.3L217.3,964.3z"
			/>
		<path class="st1" d="M224,962.8c1.1,0,1.9-0.5,2.3-1.1l1.6,0.9c-0.8,1.2-2.1,1.9-3.9,1.9c-2.9,0-4.8-2-4.8-4.7
			c0-2.6,1.9-4.7,4.7-4.7c2.6,0,4.4,2.1,4.4,4.7c0,0.3,0,0.5-0.1,0.8h-7C221.5,962.1,222.6,962.8,224,962.8z M226.4,959.1
			c-0.3-1.5-1.4-2.2-2.5-2.2c-1.4,0-2.4,0.8-2.7,2.2H226.4z"/>
		<path class="st1" d="M238.8,951.9v12.4h-1.9V963c-0.7,0.9-1.7,1.5-3.1,1.5c-2.4,0-4.4-2-4.4-4.7c0-2.6,2-4.7,4.4-4.7
			c1.4,0,2.4,0.6,3.1,1.5v-4.8h1.9V951.9z M236.9,959.9c0-1.6-1.2-2.8-2.8-2.8s-2.8,1.2-2.8,2.8s1.2,2.8,2.8,2.8
			S236.9,961.5,236.9,959.9z"/>
		<path class="st1" d="M240.8,952.9c0-0.7,0.5-1.2,1.2-1.2s1.2,0.5,1.2,1.2s-0.5,1.2-1.2,1.2C241.4,954.1,240.8,953.6,240.8,952.9z
			 M241.1,955.4h1.9v8.9h-1.9V955.4z"/>
		<path class="st1" d="M244.7,959.9c0-2.6,2-4.7,4.7-4.7c1.7,0,3.2,0.9,3.9,2.3l-1.6,1c-0.4-0.8-1.3-1.4-2.3-1.4
			c-1.6,0-2.7,1.2-2.7,2.8s1.2,2.8,2.7,2.8c1.1,0,1.9-0.5,2.4-1.4l1.6,0.9c-0.7,1.4-2.2,2.3-4,2.3
			C246.7,964.5,244.7,962.5,244.7,959.9z"/>
		<path class="st1" d="M263.5,955.4v8.9h-1.9V963c-0.7,0.9-1.7,1.5-3.1,1.5c-2.4,0-4.4-2-4.4-4.7c0-2.6,2-4.7,4.4-4.7
			c1.4,0,2.4,0.6,3.1,1.5v-1.3h1.9V955.4z M261.6,959.9c0-1.6-1.2-2.8-2.8-2.8c-1.6,0-2.8,1.2-2.8,2.8s1.2,2.8,2.8,2.8
			S261.6,961.5,261.6,959.9z"/>
		<path class="st1" d="M265.8,951.4h1.9v12.9h-1.9V951.4z"/>
		<path class="st1" d="M281.5,962.3v1.9h-7.1v-12.4h2v10.4L281.5,962.3L281.5,962.3z"/>
		<path class="st1" d="M291.5,955.4v8.9h-1.9V963c-0.7,0.9-1.7,1.5-3.1,1.5c-2.4,0-4.4-2-4.4-4.7c0-2.6,2-4.7,4.4-4.7
			c1.4,0,2.4,0.6,3.1,1.5v-1.3h1.9V955.4z M289.6,959.9c0-1.6-1.2-2.8-2.8-2.8s-2.8,1.2-2.8,2.8s1.2,2.8,2.8,2.8
			S289.6,961.5,289.6,959.9z"/>
		<path class="st1" d="M303.2,959.9c0,2.6-2,4.7-4.4,4.7c-1.4,0-2.4-0.6-3.1-1.5v1.3h-1.9V952h1.9v4.8c0.7-0.9,1.7-1.5,3.1-1.5
			C301.2,955.2,303.2,957.2,303.2,959.9z M301.3,959.9c0-1.6-1.2-2.8-2.8-2.8c-1.6,0-2.8,1.2-2.8,2.8s1.2,2.8,2.8,2.8
			C300.1,962.7,301.3,961.5,301.3,959.9z"/>
	</g>
	<g>
		<g>
			<g>
				<path class="st1" d="M846.1,938.7c0,2.1-1.5,3.8-3.6,3.8h-3v-7.6h3C844.6,934.9,846.1,936.6,846.1,938.7z M845.2,938.7
					c0-1.6-1.1-2.9-2.6-2.9h-2v5.7h2C844.1,941.6,845.2,940.3,845.2,938.7z"/>
			</g>
			<g>
				<path class="st1" d="M849.3,938.7c0-2.2,1.7-4,3.9-4s4,1.8,4,4s-1.7,4-4,4C851,942.7,849.3,940.9,849.3,938.7z M856.1,938.7
					c0-1.7-1.3-3-2.9-3c-1.7,0-2.9,1.3-2.9,3s1.3,3,2.9,3C854.9,941.7,856.1,940.4,856.1,938.7z"/>
			</g>
			<g>
				<path class="st1" d="M859.8,934.9h1.1l1.7,6.3l1.9-6.3h1l1.9,6.3l1.7-6.3h1.1l-2.2,7.6h-1.2l-1.8-6.1l-1.8,6.1H862L859.8,934.9z
					"/>
			</g>
			<g>
				<path class="st1" d="M879.3,934.9v7.6h-0.8l-3.9-5.7v5.7h-1v-7.6h0.8l3.9,5.7v-5.7H879.3z"/>
			</g>
			<g>
				<path class="st1" d="M887.5,941.6v1h-4.3V935h1v6.7h3.3V941.6z"/>
			</g>
			<g>
				<path class="st1" d="M889.9,938.7c0-2.2,1.7-4,3.9-4s4,1.8,4,4s-1.7,4-4,4C891.6,942.7,889.9,940.9,889.9,938.7z M896.8,938.7
					c0-1.7-1.3-3-2.9-3c-1.7,0-2.9,1.3-2.9,3s1.3,3,2.9,3S896.8,940.4,896.8,938.7z"/>
			</g>
			<g>
				<path class="st1" d="M905.4,940.8H902l-0.6,1.7h-1.1l2.8-7.6h1.1l2.8,7.6h-1L905.4,940.8z M905.1,939.9l-1.4-3.8l-1.4,3.8H905.1
					z"/>
			</g>
			<g>
				<path class="st1" d="M916.9,938.7c0,2.1-1.5,3.8-3.6,3.8h-3v-7.6h3C915.4,934.9,916.9,936.6,916.9,938.7z M915.9,938.7
					c0-1.6-1.1-2.9-2.6-2.9h-2v5.7h2C914.9,941.6,915.9,940.3,915.9,938.7z"/>
			</g>
			<g>
				<path class="st1" d="M926.5,935.8v2.5h3.2v1h-3.2v3.2h-1v-7.6h4.4v1h-3.4V935.8z"/>
			</g>
			<g>
				<path class="st1" d="M936.2,939.6h-1.8v2.9h-1v-7.6h3c1.3,0,2.4,1.1,2.4,2.4c0,1-0.7,1.9-1.6,2.2l1.8,3.1h-1.1L936.2,939.6z
					 M934.4,938.7h2c0.8,0,1.4-0.6,1.4-1.4c0-0.8-0.6-1.4-1.4-1.4h-2V938.7z"/>
			</g>
			<g>
				<path class="st1" d="M941.9,938.7c0-2.2,1.7-4,3.9-4s4,1.8,4,4s-1.7,4-4,4C943.6,942.7,941.9,940.9,941.9,938.7z M948.8,938.7
					c0-1.7-1.3-3-2.9-3c-1.7,0-2.9,1.3-2.9,3s1.3,3,2.9,3S948.8,940.4,948.8,938.7z"/>
			</g>
			<g>
				<path class="st1" d="M960.4,942.5h-1v-6l-2.5,4.2h-0.1l-2.5-4.1v5.9h-1v-7.6h1.1l2.4,4l2.4-4h1.1L960.4,942.5L960.4,942.5z"/>
			</g>
		</g>
		<g>
			<g>
				<path class="st1" d="M839.3,952.9c0-0.7,0.5-1.2,1.2-1.2s1.2,0.5,1.2,1.2s-0.5,1.2-1.2,1.2C839.9,954.1,839.3,953.6,839.3,952.9
					z M839.6,955.4h1.9v8.9h-1.9V955.4z"/>
			</g>
			<g>
				<path class="st1" d="M843.7,951.4h1.9v12.9h-1.9V951.4z"/>
			</g>
			<g>
				<path class="st1" d="M847.8,951.4h1.9v12.9h-1.9V951.4z"/>
			</g>
			<g>
				<path class="st1" d="M852,951.4h1.9v12.9H852V951.4z"/>
			</g>
			<g>
				<path class="st1" d="M864,955.4v8.9h-1.9v-1.1c-0.6,0.9-1.5,1.4-2.7,1.4c-2,0-3.4-1.3-3.4-3.6v-5.4h1.9v5.2c0,1.3,0.8,2.1,2,2.1
					c1.3,0,2.2-0.7,2.2-2.5v-4.7h1.9V955.4z"/>
			</g>
			<g>
				<path class="st1" d="M872.6,961.8c0,1.8-1.5,2.7-3.5,2.7c-1.8,0-3-0.8-3.6-2.1l1.6-1c0.3,0.8,1,1.3,2,1.3c0.8,0,1.5-0.3,1.5-1
					c0-1.6-4.8-0.7-4.8-3.9c0-1.7,1.4-2.7,3.2-2.7c1.5,0,2.7,0.7,3.3,1.8l-1.6,0.9c-0.3-0.7-0.9-1-1.7-1c-0.7,0-1.3,0.3-1.3,0.9
					C867.9,959.5,872.6,958.5,872.6,961.8z"/>
			</g>
			<g>
				<path class="st1" d="M876.7,957.3v4.2c0,1.1,0.7,1.1,2.2,1v1.7c-2.9,0.4-4.1-0.5-4.1-2.8v-4.2h-1.6v-1.8h1.6v-1.9l1.9-0.6v2.5
					h2.2v1.8L876.7,957.3L876.7,957.3z"/>
			</g>
			<g>
				<path class="st1" d="M885.4,955.3v2.1c-1.3-0.1-2.7,0.5-2.7,2.5v4.5h-1.9v-8.9h1.9v1.5C883.2,955.7,884.2,955.3,885.4,955.3z"/>
			</g>
			<g>
				<path class="st1" d="M895.3,955.4v8.9h-1.9V963c-0.7,0.9-1.7,1.5-3.1,1.5c-2.4,0-4.4-2-4.4-4.7c0-2.6,2-4.7,4.4-4.7
					c1.4,0,2.4,0.6,3.1,1.5v-1.3h1.9V955.4z M893.4,959.9c0-1.6-1.2-2.8-2.8-2.8s-2.8,1.2-2.8,2.8s1.2,2.8,2.8,2.8
					S893.4,961.5,893.4,959.9z"/>
			</g>
			<g>
				<path class="st1" d="M900.3,957.3v4.2c0,1.1,0.7,1.1,2.2,1v1.7c-2.9,0.4-4.1-0.5-4.1-2.8v-4.2h-1.6v-1.8h1.6v-1.9l1.9-0.6v2.5
					h2.2v1.8L900.3,957.3L900.3,957.3z"/>
			</g>
			<g>
				<path class="st1" d="M903.9,952.9c0-0.7,0.5-1.2,1.2-1.2s1.2,0.5,1.2,1.2s-0.5,1.2-1.2,1.2C904.5,954.1,903.9,953.6,903.9,952.9
					z M904.2,955.4h1.9v8.9h-1.9V955.4z"/>
			</g>
			<g>
				<path class="st1" d="M907.8,959.9c0-2.6,2.1-4.7,4.7-4.7c2.6,0,4.7,2,4.7,4.7c0,2.6-2.1,4.7-4.7,4.7
					C909.9,964.5,907.8,962.5,907.8,959.9z M915.3,959.9c0-1.6-1.2-2.8-2.8-2.8s-2.8,1.2-2.8,2.8s1.2,2.8,2.8,2.8
					S915.3,961.5,915.3,959.9z"/>
			</g>
			<g>
				<path class="st1" d="M927,958.9v5.4h-1.9v-5.2c0-1.3-0.8-2.1-2-2.1c-1.3,0-2.2,0.7-2.2,2.5v4.7H919v-8.9h1.9v1.1
					c0.6-0.9,1.5-1.4,2.7-1.4C925.5,955.2,927,956.6,927,958.9z"/>
			</g>
			<g>
				<path class="st1" d="M935.5,961.8c0,1.8-1.5,2.7-3.5,2.7c-1.8,0-3-0.8-3.6-2.1l1.6-1c0.3,0.8,1,1.3,2,1.3c0.8,0,1.5-0.3,1.5-1
					c0-1.6-4.8-0.7-4.8-3.9c0-1.7,1.4-2.7,3.2-2.7c1.5,0,2.7,0.7,3.3,1.8l-1.6,0.9c-0.3-0.7-0.9-1-1.7-1c-0.7,0-1.3,0.3-1.3,0.9
					C930.7,959.5,935.5,958.5,935.5,961.8z"/>
			</g>
			<g>
				<path class="st1" d="M936.8,963.2c0-0.7,0.6-1.3,1.3-1.3s1.3,0.6,1.3,1.3s-0.6,1.3-1.3,1.3C937.4,964.5,936.8,963.9,936.8,963.2
					z"/>
			</g>
			<g>
				<path class="st1" d="M940.3,959.9c0-2.6,2-4.7,4.7-4.7c1.7,0,3.2,0.9,3.9,2.3l-1.6,1c-0.4-0.8-1.3-1.4-2.3-1.4
					c-1.6,0-2.7,1.2-2.7,2.8s1.2,2.8,2.7,2.8c1.1,0,1.9-0.5,2.4-1.4l1.6,0.9c-0.7,1.4-2.2,2.3-4,2.3
					C942.3,964.5,940.3,962.5,940.3,959.9z"/>
			</g>
			<g>
				<path class="st1" d="M949.7,959.9c0-2.6,2.1-4.7,4.7-4.7c2.6,0,4.7,2,4.7,4.7c0,2.6-2.1,4.7-4.7,4.7
					C951.8,964.5,949.7,962.5,949.7,959.9z M957.2,959.9c0-1.6-1.2-2.8-2.8-2.8s-2.8,1.2-2.8,2.8s1.2,2.8,2.8,2.8
					S957.2,961.5,957.2,959.9z"/>
			</g>
		</g>
	</g>
</g>
<g id="XMLID_1_" class="st2">
	<g id="XMLID_253_">
		<g id="XMLID_254_">
			<g id="XMLID_255_">
				<polygon id="XMLID_256_" class="st3" points="270.5,228.1 304,286.1 270.5,344.1 203.6,344.1 170.1,286.1 203.6,228.1 				"/>
			</g>
		</g>
	</g>
	<g id="XMLID_238_">
		<g id="XMLID_246_">
			<g id="XMLID_249_">
				<polygon id="XMLID_250_" class="st4" points="386.5,295 419.9,353 386.5,411 319.6,411 286.1,353 319.6,295 				"/>
			</g>
			<g id="XMLID_247_">
				<polygon id="XMLID_248_" class="st3" points="386.5,428.8 419.9,486.8 386.5,544.8 319.6,544.8 286.1,486.8 319.6,428.8 				"/>
			</g>
		</g>
		<g id="XMLID_239_">
			<g id="XMLID_244_">
				<polygon id="XMLID_245_" class="st3" points="502.5,228.1 535.9,286.1 502.5,344.1 435.6,344.1 402.1,286.1 435.6,228.1 				"/>
			</g>
			<g id="XMLID_241_">
				<polygon id="XMLID_243_" class="st4" points="502.5,361.9 535.9,419.9 502.5,477.9 435.6,477.9 402.1,419.9 435.6,361.9 				"/>
			</g>
		</g>
	</g>
	<g id="XMLID_98_">
		<g id="XMLID_143_">
			<g id="XMLID_236_">
				<polygon id="XMLID_237_" class="st4" points="618.4,161.2 651.9,219.2 618.4,277.2 551.5,277.2 518.1,219.2 551.5,161.2 				"/>
			</g>
			<g id="XMLID_234_">
				<polygon id="XMLID_235_" class="st3" points="618.4,295 651.9,353 618.4,411 551.5,411 518.1,353 551.5,295 				"/>
			</g>
			<g id="XMLID_144_">
				<polygon id="XMLID_233_" class="st3" points="618.4,428.8 651.9,486.8 618.4,544.8 551.5,544.8 518.1,486.8 551.5,428.8 				"/>
			</g>
		</g>
		<g id="XMLID_126_">
			<g id="XMLID_129_">
				<polygon id="XMLID_130_" class="st4" points="734.4,361.9 767.9,419.9 734.4,477.9 667.5,477.9 634.1,419.9 667.5,361.9 				"/>
			</g>
		</g>
	</g>
	<g id="XMLID_79_">
		<g id="XMLID_81_">
			<g id="XMLID_87_">
				<polygon id="XMLID_93_" class="st4" points="850.4,161.2 883.9,219.2 850.4,277.2 783.5,277.2 750,219.2 783.5,161.2 				"/>
			</g>
			<g id="XMLID_82_">
				<polygon id="XMLID_86_" class="st3" points="850.4,295 883.9,353 850.4,411 783.5,411 750,353 783.5,295 				"/>
			</g>
		</g>
	</g>
</g>
<g>
	<path id="XMLID_116_" class="st5" d="M850,766L850,766c-10.5,0-19-8.5-19-19V598h38v149C869,757.5,860.5,766,850,766z"/>
	<path id="XMLID_114_" class="st6" d="M872,582h-44c-4.4,0-8,3.6-8,8l0,0c0,4.4,3.6,8,8,8h44c4.4,0,8-3.6,8-8l0,0
		C880,585.6,876.4,582,872,582z"/>
	<path id="XMLID_96_" class="st7" d="M850,766L850,766c-10.5,0-19-8.5-19-19V598h38v149C869,757.5,860.5,766,850,766z"/>
	<path id="XMLID_95_" class="st7" d="M872,582h-44c-4.4,0-8,3.6-8,8l0,0c0,4.4,3.6,8,8,8h44c4.4,0,8-3.6,8-8l0,0
		C880,585.6,876.4,582,872,582z"/>
	<path id="XMLID_113_" class="st8" d="M840,693v54c0,5.5,4.5,10,10,10s10-4.5,10-10v-54H840z"/>
	<path id="XMLID_107_" class="st7" d="M840,693v54c0,5.5,4.5,10,10,10s10-4.5,10-10v-54H840z"/>
	<circle id="XMLID_145_" class="st9" cx="845" cy="559.8" r="3.2"/>
	<circle id="XMLID_148_" class="st8" cx="832.5" cy="524.3" r="7.2"/>
	<circle id="XMLID_149_" class="st8" cx="866.4" cy="551.9" r="6.2"/>
	<circle id="XMLID_128_" class="st10" cx="845" cy="559.8" r="3.2"/>
	<circle id="XMLID_127_" class="st10" cx="852" cy="538.5" r="2.1"/>
	<circle id="XMLID_85_" class="st10" cx="832.5" cy="524.3" r="7.2"/>
	<circle id="XMLID_84_" class="st10" cx="866.4" cy="551.9" r="6.2"/>
	<circle id="XMLID_140_" class="st8" cx="846.5" cy="653.4" r="7.2"/>
	<circle id="XMLID_134_" class="st7" cx="846.5" cy="653.4" r="7.2"/>
	<circle id="XMLID_153_" class="st8" cx="852.8" cy="678.1" r="3.1"/>
	<circle id="XMLID_80_" class="st7" cx="852.8" cy="678.1" r="3.1"/>
	<circle id="XMLID_165_" class="st8" cx="856.8" cy="612" r="4.3"/>
	<circle id="XMLID_162_" class="st7" cx="856.8" cy="612" r="4.3"/>
	<circle id="XMLID_169_" class="st11" cx="841.8" cy="605.3" r="1.6"/>
	<circle id="XMLID_167_" class="st7" cx="841.8" cy="605.3" r="1.6"/>
	<circle id="XMLID_75_" class="st12" cx="851.2" cy="708.6" r="1.6"/>
	<circle id="XMLID_156_" class="st12" cx="842.6" cy="725.4" r="2.6"/>
	<circle id="XMLID_72_" class="st12" cx="854.3" cy="738.4" r="3.8"/>
	<circle id="XMLID_70_" class="st12" cx="848.7" cy="703.9" r="0.6"/>
</g>
<g>
	<path id="XMLID_110_" class="st5" d="M782.1,766L782.1,766c-10.5,0-19-8.5-19-19V598h38v149C801.1,757.5,792.6,766,782.1,766z"/>
	<path id="XMLID_69_" class="st7" d="M782.1,766L782.1,766c-10.5,0-19-8.5-19-19V598h38v149C801.1,757.5,792.6,766,782.1,766z"/>
	<rect id="XMLID_112_" x="766.4" y="562.3" class="st13" width="31.5" height="35.7"/>
	<rect id="XMLID_111_" x="766.4" y="562.3" class="st7" width="31.5" height="35.7"/>
	<path id="XMLID_68_" class="st6" d="M804.1,582h-44c-4.4,0-8,3.6-8,8l0,0c0,4.4,3.6,8,8,8h44c4.4,0,8-3.6,8-8l0,0
		C812.1,585.6,808.5,582,804.1,582z"/>
	<path id="XMLID_67_" class="st7" d="M804.1,582h-44c-4.4,0-8,3.6-8,8l0,0c0,4.4,3.6,8,8,8h44c4.4,0,8-3.6,8-8l0,0
		C812.1,585.6,808.5,582,804.1,582z"/>
	<path id="XMLID_104_" class="st14" d="M772.1,640v107c0,5.5,4.5,10,10,10s10-4.5,10-10V640H772.1z"/>
	<path id="XMLID_125_" class="st7" d="M772.1,640v107c0,5.5,4.5,10,10,10s10-4.5,10-10V640H772.1z"/>
	<circle id="XMLID_66_" class="st12" cx="775.8" cy="670" r="3"/>
	<g>
		<circle id="XMLID_122_" class="st14" cx="775.8" cy="616.8" r="5"/>
		<circle id="XMLID_137_" class="st7" cx="775.8" cy="616.8" r="5"/>
	</g>
	<circle id="XMLID_147_" class="st12" cx="788.4" cy="686" r="2"/>
	<circle id="XMLID_139_" class="st12" cx="780.5" cy="738.4" r="1.8"/>
	<circle id="XMLID_142_" class="st12" cx="781.5" cy="728.2" r="2.9"/>
</g>
<g>
	<path class="st5" d="M367.6,683L367.6,683c-1.7,0-3.1-1.4-3.1-3.1V669h-24v10.9c0,1.7-1.4,3.1-3.1,3.1h-1
		c-6.9,0-12.4,5.6-12.4,12.4v63.3c0,6,4.8,10.8,10.8,10.8h34.4c6,0,10.8-4.8,10.8-10.8v-63.3C380,688.6,374.4,683,367.6,683z"/>
	<path class="st7" d="M367.6,683L367.6,683c-1.7,0-3.1-1.4-3.1-3.1V669h-24v10.9c0,1.7-1.4,3.1-3.1,3.1h-1
		c-6.9,0-12.4,5.6-12.4,12.4v63.3c0,6,4.8,10.8,10.8,10.8h34.4c6,0,10.8-4.8,10.8-10.8v-63.3C380,688.6,374.4,683,367.6,683z"/>
	<path class="st15" d="M332,669v-9.8c0-2.3,1.9-4.2,4.2-4.2h33.6c2.3,0,4.2,1.9,4.2,4.2v9.8"/>
	<path class="st7" d="M374,669h-42v-9.8c0-2.3,1.9-4.2,4.2-4.2h33.6c2.3,0,4.2,1.9,4.2,4.2L374,669L374,669z"/>
	<path class="st14" d="M371.9,700c-0.3-2.2-2.1-4-4.4-4c-0.9,0-1.8,0.3-2.5,0.8c-0.1-3.8-3.2-6.8-7-6.8c-3.9,0-7,3.1-7,7
		c0,1.1,0,2,0,1.5c0-3-2.5-5.5-5.5-5.5s-5.5,2.5-5.5,5.5c0,0.5-1,1.2-1,1c0-1.9-1.6-3.5-3.5-3.5s-3.5,1.6-3.5,3.5
		c0,0.2,0,0.3,0.1,0.5H332v58.7c0,1.5,1.2,2.8,2.8,2.8h34.4c1.5,0,2.8-1.2,2.8-2.8L371.9,700L371.9,700z"/>
	<circle id="XMLID_221_" class="st12" cx="341.7" cy="712.1" r="2.9"/>
	<circle id="XMLID_222_" class="st12" cx="352.9" cy="726.3" r="1.1"/>
	<circle id="XMLID_226_" class="st12" cx="351.9" cy="682.3" r="1.1"/>
	<circle id="XMLID_227_" class="st12" cx="345.4" cy="685.8" r="0.6"/>
	<circle id="XMLID_224_" class="st12" cx="362.4" cy="747.8" r="1.6"/>
	<circle id="XMLID_225_" class="st12" cx="359.9" cy="711.3" r="1.1"/>
	<path class="st7" d="M371.9,700c-0.3-2.2-2.1-4-4.4-4c-0.9,0-1.8,0.3-2.5,0.8c-0.1-3.8-3.2-6.8-7-6.8c-3.9,0-7,3.1-7,7
		c0,1.1,0,2,0,1.5c0-3-2.5-5.5-5.5-5.5s-5.5,2.5-5.5,5.5c0,0.5-1,1.2-1,1c0-1.9-1.6-3.5-3.5-3.5s-3.5,1.6-3.5,3.5
		c0,0.2,0,0.3,0.1,0.5H332v58.7c0,1.5,1.2,2.8,2.8,2.8h34.4c1.5,0,2.8-1.2,2.8-2.8L371.9,700L371.9,700z"/>
</g>
<g>
	<path class="st15" d="M660.2,728h-227c-7.7,0-14,6.3-14,14v14c0,7.7,6.3,14,14,14h10.3c2.3-7.5,9.3-13,17.6-13h171.2
		c8.3,0,15.3,5.5,17.6,13h10.3c7.7,0,14-6.3,14-14v-14C674.2,734.3,668,728,660.2,728z"/>
	<path class="st7" d="M660.2,728h-227c-7.7,0-14,6.3-14,14v14c0,7.7,6.3,14,14,14h10.3c2.3-7.5,9.3-13,17.6-13h171.2
		c8.3,0,15.3,5.5,17.6,13h10.3c7.7,0,14-6.3,14-14v-14C674.2,734.3,668,728,660.2,728z"/>
</g>
<g>
	<path class="st5" d="M280.2,614L280.2,614c-9.4,0-17-7.6-17-17v-15h-40v15c0,9.4-7.6,17-17,17l0,0c-13.3,0-24,10.7-24,24v108
		c0,13.3,10.7,24,24,24h74c13.3,0,24-10.7,24-24V638C304.2,624.7,293.4,614,280.2,614z"/>
	<g>
		<circle id="XMLID_220_" class="st8" cx="255" cy="642.5" r="3.5"/>
		<circle id="XMLID_219_" class="st7" cx="255" cy="642.5" r="3.5"/>
	</g>
	<path class="st8" d="M190.2,645v101c0,8.8,7.2,16,16,16h74c8.8,0,16-7.2,16-16V645H190.2z"/>
	<path class="st7" d="M280.2,614L280.2,614c-9.4,0-17-7.6-17-17v-15h-40v15c0,9.4-7.6,17-17,17l0,0c-13.3,0-24,10.7-24,24v108
		c0,13.3,10.7,24,24,24h74c13.3,0,24-10.7,24-24V638C304.2,624.7,293.4,614,280.2,614z"/>
	<rect x="214.2" y="566" class="st16" width="58" height="28"/>
	<rect x="219" y="566" class="st17" width="6" height="28"/>
	<rect x="233.3" y="566" class="st17" width="6" height="28"/>
	<rect x="247.7" y="566" class="st17" width="6" height="28"/>
	<rect x="262" y="566" class="st17" width="6" height="28"/>
	<path class="st16" d="M269,566h-51.7v-2.3c0-3.7,3-6.7,6.7-6.7h38.3c3.7,0,6.7,3,6.7,6.7V566z"/>
	<rect x="214.2" y="566" class="st7" width="58" height="28"/>
	<path class="st7" d="M269,566h-51.7v-2.3c0-3.7,3-6.7,6.7-6.7h38.3c3.7,0,6.7,3,6.7,6.7V566z"/>
	<path class="st7" d="M190.2,645v101c0,8.8,7.2,16,16,16h74c8.8,0,16-7.2,16-16V645H190.2z"/>
	<rect x="205.2" y="659" class="st18" width="76" height="56"/>
	<rect x="205.2" y="659" class="st7" width="76" height="56"/>
	<circle id="XMLID_208_" class="st12" cx="198.5" cy="720.5" r="1.6"/>
	<circle id="XMLID_205_" class="st12" cx="227.9" cy="730.3" r="2.6"/>
	<circle id="XMLID_203_" class="st12" cx="239.6" cy="743.3" r="3.8"/>
	<circle id="XMLID_209_" class="st12" cx="275.6" cy="730.3" r="3.8"/>
	<line class="st7" x1="218" y1="674" x2="269" y2="674"/>
	<line class="st7" x1="241" y1="687" x2="269" y2="687"/>
	<line class="st7" x1="241" y1="698" x2="269" y2="698"/>
	<circle class="st7" cx="225" cy="693" r="7"/>
	<g>
		<circle id="XMLID_217_" class="st8" cx="236" cy="626.1" r="4.9"/>
		<circle id="XMLID_212_" class="st7" cx="236" cy="626.1" r="4.9"/>
	</g>
	
		<ellipse id="XMLID_211_" transform="matrix(0.1602 -0.9871 0.9871 0.1602 -397.3029 771.4265)" class="st7" cx="254.7" cy="619.2" rx="2" ry="2"/>
	<circle id="XMLID_210_" class="st12" cx="280.8" cy="632.4" r="2.9"/>
	<circle id="XMLID_218_" class="st12" cx="204.8" cy="636.4" r="2.9"/>
</g>
<g>
	<g>
		<path class="st15" d="M638.7,566.7c-20.6,36.8-60,61.8-105.2,61.8C466.9,628.5,413,574.6,413,508c0-61.9,46.7-112.9,106.8-119.7
			l-4.1-24C445.4,376.7,392,438.1,392,512c0,82.8,67.2,150,150,150c58.7,0,109.5-33.7,134.2-82.9L638.7,566.7z"/>
		<path class="st7" d="M638.7,566.7c-20.6,36.8-60,61.8-105.2,61.8C466.9,628.5,413,574.6,413,508c0-61.9,46.7-112.9,106.8-119.7
			l-4.1-24C445.4,376.7,392,438.1,392,512c0,82.8,67.2,150,150,150c58.7,0,109.5-33.7,134.2-82.9L638.7,566.7z"/>
	</g>
	<g>
		<path class="st5" d="M555.2,728h-88v-94c0-24.3,19.7-44,44-44l0,0c24.3,0,44,19.7,44,44V728z"/>
		<g>
			<circle class="st19" cx="511.2" cy="633.5" r="27"/>
			<circle class="st19" cx="511.2" cy="633.5" r="12"/>
		</g>
		<path class="st7" d="M555.2,728h-88v-94c0-24.3,19.7-44,44-44l0,0c24.3,0,44,19.7,44,44V728z"/>
		<g>
			<circle class="st7" cx="511.2" cy="633.5" r="27"/>
			<circle class="st20" cx="511.2" cy="633.5" r="12"/>
			<circle class="st7" cx="511.2" cy="633.5" r="12"/>
		</g>
	</g>
	<g>
		<circle class="st5" cx="661" cy="570" r="27"/>
		<circle class="st7" cx="661" cy="570" r="27"/>
		<circle class="st20" cx="661" cy="570" r="12"/>
		<circle class="st7" cx="661" cy="570" r="12"/>
	</g>
</g>
<g>
	<g>
		
			<rect x="506.1" y="278.1" transform="matrix(0.9703 -0.2419 0.2419 0.9703 -55.8219 136.0328)" class="st21" width="40" height="34.5"/>
		<path class="st5" d="M546.2,272.6l-48.7,12.1c-2,0.5-4-0.6-4.7-2.5l-5.9-15.5l60.2-15l2.1,16.5
			C549.5,270.2,548.2,272.1,546.2,272.6z"/>
		
			<rect x="527.4" y="309.1" transform="matrix(0.9703 -0.2419 0.2419 0.9703 -82.5019 146.2563)" class="st5" width="54" height="200"/>
		
			<rect x="527.4" y="309.1" transform="matrix(0.9703 -0.2419 0.2419 0.9703 -82.5019 146.2563)" class="st7" width="54" height="200"/>
		
			<rect x="548.8" y="483" transform="matrix(0.9703 -0.2419 0.2419 0.9703 -102.5821 153.9767)" class="st20" width="54" height="23.5"/>
		
			<rect x="548.8" y="483" transform="matrix(0.9703 -0.2419 0.2419 0.9703 -102.5821 153.9767)" class="st7" width="54" height="23.5"/>
		
			<rect x="506.1" y="278.1" transform="matrix(0.9703 -0.2419 0.2419 0.9703 -55.8219 136.0328)" class="st7" width="40" height="34.5"/>
		<path class="st7" d="M546.2,272.6l-48.7,12.1c-2,0.5-4-0.6-4.7-2.5l-5.9-15.5l60.2-15l2.1,16.5
			C549.5,270.2,548.2,272.1,546.2,272.6z"/>
	</g>
	<line class="st7" x1="575.5" y1="435.9" x2="581.2" y2="458.6"/>
	<line class="st7" x1="546.1" y1="317.9" x2="567.2" y2="402.3"/>
	<line class="st7" x1="532.7" y1="284.8" x2="537" y2="302.2"/>
</g>
<g>
	<circle class="st5" cx="515" cy="376" r="27"/>
	<circle class="st7" cx="515" cy="376" r="27"/>
	<circle class="st20" cx="515" cy="376" r="12"/>
	<circle class="st7" cx="515" cy="376" r="12"/>
</g>
<g>
	<path class="st5" d="M716,533.7l-162.7,43.9c-3.7,1-7.6-1.2-8.6-4.9l0,0c-1-3.7,1.2-7.6,4.9-8.6l162.7-43.9c3.7-1,7.6,1.2,8.6,4.9
		l0,0C721.9,528.8,719.7,532.6,716,533.7z"/>
	<path class="st7" d="M716,533.7l-162.7,43.9c-3.7,1-7.6-1.2-8.6-4.9l0,0c-1-3.7,1.2-7.6,4.9-8.6l162.7-43.9c3.7-1,7.6,1.2,8.6,4.9
		l0,0C721.9,528.8,719.7,532.6,716,533.7z"/>
	<polygon class="st20" points="632.2,541.8 557.8,561.9 558.9,553.3 627,534.9 	"/>
	<polygon class="st7" points="632.2,541.8 557.8,561.9 558.9,553.3 627,534.9 	"/>
</g>
<line id="XMLID_207_" class="st22" x1="125" y1="770" x2="929" y2="770"/>
<path id="XMLID_232_" class="st7" d="M782.1,766L782.1,766c-10.5,0-19-8.5-19-19V598h38v149C801.1,757.5,792.6,766,782.1,766z"/>
<g>
	<path class="st15" d="M900,741H733v14h29.1c2.7,7.9,10.1,13.5,18.9,13.5s16.2-5.6,18.9-13.5h30c2.5,8.1,10.1,14,19.1,14
		s16.5-5.9,19.1-14H900V741z"/>
	<path class="st7" d="M900,741H733v14h29.1c2.7,7.9,10.1,13.5,18.9,13.5s16.2-5.6,18.9-13.5h30c2.5,8.1,10.1,14,19.1,14
		s16.5-5.9,19.1-14H900V741z"/>
</g>
</svg>
