<?xml version="1.0" encoding="utf-8"?>
<!-- Generator: Adobe Illustrator 23.1.1, SVG Export Plug-In . SVG Version: 6.00 Build 0)  -->
<svg version="1.1" id="Layer_1" xmlns="http://www.w3.org/2000/svg" xmlns:xlink="http://www.w3.org/1999/xlink" x="0px" y="0px"
	 viewBox="0 0 1000 1000" style="enable-background:new 0 0 1000 1000;" xml:space="preserve">
<style type="text/css">
	.st0{fill:#6BBFFF;}
	.st1{opacity:0.4;}
	.st2{fill:none;stroke:#424242;stroke-width:6;stroke-miterlimit:10;}
	.st3{fill:#424242;stroke:#424242;stroke-width:6;stroke-miterlimit:10;}
	.st4{fill:none;stroke:#3F2975;stroke-width:8;stroke-linecap:round;stroke-linejoin:round;stroke-miterlimit:10;}
	.st5{fill:#FFFFFF;}
	.st6{fill:none;stroke:#3F2975;stroke-width:6;stroke-linecap:round;stroke-linejoin:round;stroke-miterlimit:10;}
	.st7{fill:#EC1CE4;}
	.st8{fill:#3F2975;}
	.st9{fill:#FF5959;}
	.st10{fill:#D29C5E;}
	.st11{fill:#D9D6E5;}
	.st12{fill:none;stroke:#3F2975;stroke-width:5;stroke-linecap:round;stroke-linejoin:round;stroke-miterlimit:10;}
	.st13{fill:#0CF9C3;}
	.st14{fill:#EEF2F4;}
</style>
<rect id="XMLID_7_" class="st0" width="1000" height="1000"/>
<g id="XMLID_51_" class="st1">
	<g id="XMLID_240_">
		<g id="XMLID_242_">
			<g id="XMLID_251_">
				<polygon id="XMLID_252_" class="st2" points="783.5,477.9 750,419.9 783.5,361.9 850.4,361.9 883.9,419.9 850.4,477.9 				"/>
			</g>
		</g>
	</g>
	<g id="XMLID_204_">
		<g id="XMLID_223_">
			<g id="XMLID_230_">
				<polygon id="XMLID_231_" class="st3" points="667.5,411 634.1,353 667.5,295 734.4,295 767.9,353 734.4,411 				"/>
			</g>
			<g id="XMLID_228_">
				<polygon id="XMLID_229_" class="st2" points="667.5,277.2 634.1,219.2 667.5,161.2 734.4,161.2 767.9,219.2 734.4,277.2 				"/>
			</g>
		</g>
		<g id="XMLID_206_">
			<g id="XMLID_215_">
				<polygon id="XMLID_216_" class="st2" points="551.5,477.9 518.1,419.9 551.5,361.9 618.4,361.9 651.9,419.9 618.4,477.9 				"/>
			</g>
			<g id="XMLID_213_">
				<polygon id="XMLID_214_" class="st3" points="551.5,344.1 518.1,286.1 551.5,228.1 618.4,228.1 651.9,286.1 618.4,344.1 				"/>
			</g>
		</g>
	</g>
	<g id="XMLID_168_">
		<g id="XMLID_187_">
			<g id="XMLID_196_">
				<polygon id="XMLID_197_" class="st3" points="435.6,544.8 402.1,486.8 435.6,428.8 502.5,428.8 535.9,486.8 502.5,544.8 				"/>
			</g>
			<g id="XMLID_194_">
				<polygon id="XMLID_195_" class="st2" points="435.6,411 402.1,353 435.6,295 502.5,295 535.9,353 502.5,411 				"/>
			</g>
			<g id="XMLID_192_">
				<polygon id="XMLID_193_" class="st2" points="435.6,277.2 402.1,219.2 435.6,161.2 502.5,161.2 535.9,219.2 502.5,277.2 				"/>
			</g>
		</g>
		<g id="XMLID_170_">
			<g id="XMLID_177_">
				<polygon id="XMLID_178_" class="st3" points="319.6,344.1 286.1,286.1 319.6,228.1 386.5,228.1 419.9,286.1 386.5,344.1 				"/>
			</g>
		</g>
	</g>
	<g id="XMLID_73_">
		<g id="XMLID_151_">
			<g id="XMLID_160_">
				<polygon id="XMLID_161_" class="st3" points="203.6,544.8 170.1,486.8 203.6,428.8 270.5,428.8 304,486.8 270.5,544.8 				"/>
			</g>
			<g id="XMLID_158_">
				<polygon id="XMLID_159_" class="st2" points="203.6,411 170.1,353 203.6,295 270.5,295 304,353 270.5,411 				"/>
			</g>
		</g>
	</g>
</g>
<line id="XMLID_23_" class="st4" x1="125" y1="724" x2="875" y2="724"/>
<g>
	<path id="XMLID_5_" class="st5" d="M571.4,707c-6.4-6.9-14.4-12.9-24.4-17.4V328.9l11.5-19.9c5.1-8.9-1.3-19.9-11.5-19.9l0,0h-7
		h-71.7c-7.3,0-13.3,5.9-13.3,13.3v387.3c-10,4.5-18.6,10.5-25,17.4h-0.3c-4.8,0-8.6,3.9-8.6,8.6v7.4h159v-7.4
		C580,710.9,576.1,707,571.4,707z"/>
	<path id="XMLID_33_" class="st6" d="M570.4,707c-6.4-6.9-14.4-12.9-24.4-17.4v-358c0-1.8,0.5-3.5,1.4-5l10.5-17
		C563.2,301,557,290,547,290l0,0h-7h-73.2c-7.1,0-12.8,5.7-12.8,12.8v386.8c-10,4.5-17.6,11.4-24,18.4h-0.3c-5.3,0-9.6,4.3-9.6,9.6
		v6.4h159v-8.4C579,710.9,575.1,707,570.4,707z"/>
	<path id="XMLID_26_" class="st7" d="M541.2,702.4l-8.2-3.7V415h-0.2c0-10.6-8.6-19.2-19.2-19.2c-8.7,0-16,5.8-18.4,13.7
		c-1.5-1-3.3-1.5-5.2-1.5c-4.4,0-8.1,3-9.2,7H469v283.6l-8.2,3.7c-4.3,1.9-8.2,4.2-11.8,6.6h103.7
		C549.2,706.5,545.4,704.3,541.2,702.4z"/>
	<path id="XMLID_94_" class="st6" d="M541.2,702.4l-8.2-3.7V415h-0.2c0-10.6-8.6-19.2-19.2-19.2c-8.7,0-16,5.8-18.4,13.7
		c-1.5-1-3.3-1.5-5.2-1.5c-4.4,0-8.1,3-9.2,7H469v283.6l-8.2,3.7c-4.3,1.9-8.2,4.2-11.8,6.6h103.7
		C549.2,706.5,545.4,704.3,541.2,702.4z"/>
	<circle id="XMLID_24_" class="st7" cx="487.5" cy="355.5" r="9.5"/>
	<circle id="XMLID_50_" class="st6" cx="487.5" cy="355.5" r="9.5"/>
	<circle id="XMLID_4_" class="st7" cx="497.5" cy="254.5" r="16.5"/>
	<circle id="XMLID_3_" class="st6" cx="497.5" cy="254.5" r="16.5"/>
	<circle id="XMLID_14_" class="st7" cx="518.5" cy="219.5" r="6.4"/>
	<circle id="XMLID_8_" class="st6" cx="518.5" cy="219.5" r="6.4"/>
	<circle id="XMLID_28_" class="st7" cx="515.5" cy="331.5" r="4"/>
	<circle id="XMLID_83_" class="st6" cx="515.5" cy="331.5" r="4"/>
	<circle id="XMLID_74_" class="st8" cx="502.8" cy="509.8" r="3.2"/>
	<circle id="XMLID_76_" class="st8" cx="497.6" cy="555.6" r="10"/>
	<circle id="XMLID_78_" class="st8" cx="510.6" cy="606.6" r="4.4"/>
</g>
<g>
	<path id="XMLID_13_" class="st5" d="M408,528.3V378h-54v150.3c-47,12-82.5,55.7-82.5,107.2c0,36,17.8,67.5,44.5,88.5h132
		c26.7-21,43.5-52.5,43.5-88.5C491.5,584.1,456,540.4,408,528.3z"/>
	<path id="XMLID_10_" class="st6" d="M408,528.3V378h-54v150.3c-47,12-82.5,55.7-82.5,107.2c0,36,17.8,67.5,44.5,88.5h132
		c26.7-21,43.5-52.5,43.5-88.5C491.5,584.1,456,540.4,408,528.3z"/>
	<path id="XMLID_9_" class="st9" d="M469.3,595h-26.7c-0.4-5.6-5.1-10-10.8-10s-10.4,4.4-10.8,10h-1.1c-0.5-10-8.8-18-18.9-18
		c-3.2,0-6.2,0.8-8.8,2.2c-3.6-10.4-13.5-17.9-25.2-17.9c-12.8,0-23.6,9.1-26.1,21.2c-2.4-1.6-5.3-2.5-8.4-2.5
		c-8.4,0-15.2,6.7-15.5,15h-22.3c-5.7,12.5-8.7,26.3-8.7,40c0,28.8,12.7,55.7,34.8,74h122.3c22.2-18.3,34.8-45.2,34.8-74
		C478,621.3,475,607.5,469.3,595z"/>
	<path id="XMLID_40_" class="st6" d="M469.3,595h-26.7c-0.4-5.6-5.1-10-10.8-10s-10.4,4.4-10.8,10h-1.1c-0.5-10-8.8-18-18.9-18
		c-3.2,0-6.2,0.8-8.8,2.2c-3.6-10.4-13.5-17.9-25.2-17.9c-12.8,0-23.6,9.1-26.1,21.2c-2.4-1.6-5.3-2.5-8.4-2.5
		c-8.4,0-15.2,6.7-15.5,15h-22.3c-5.7,12.5-8.7,26.3-8.7,40c0,28.8,12.7,55.7,34.8,74h122.3c22.2-18.3,34.8-45.2,34.8-74
		C478,621.3,475,607.5,469.3,595z"/>
	<path id="XMLID_91_" class="st6" d="M342.2,597.8c-1.2-3-1.9-6.4-1.9-9.8c0-14.7,11.9-26.7,26.7-26.7c11.6,0,21.5,7.5,25.2,17.9"/>
	<path id="XMLID_29_" class="st6" d="M413.3,610.5"/>
	<path id="XMLID_38_" class="st6" d="M383.5,588.6c2.9-6.8,9.6-11.6,17.5-11.6c10.5,0,19,8.5,19,19"/>
	<path id="XMLID_39_" class="st6" d="M421,595.8c0-6,4.9-10.8,10.8-10.8c6,0,10.8,4.9,10.8,10.8"/>
	<rect id="XMLID_41_" x="362.5" y="339" class="st10" width="37" height="62"/>
	<rect id="XMLID_34_" x="362.5" y="339" class="st6" width="37" height="62"/>
	<path id="XMLID_30_" class="st11" d="M411.5,377h-60c-6.6,0-12-5.4-12-12l0,0c0-6.6,5.4-12,12-12h60c6.6,0,12,5.4,12,12l0,0
		C423.5,371.6,418.1,377,411.5,377z"/>
	<path id="XMLID_6_" class="st6" d="M411.5,377h-60c-6.6,0-12-5.4-12-12l0,0c0-6.6,5.4-12,12-12h60c6.6,0,12,5.4,12,12l0,0
		C423.5,371.6,418.1,377,411.5,377z"/>
	<circle id="XMLID_47_" class="st9" cx="396.8" cy="546.9" r="12.2"/>
	<circle id="XMLID_46_" class="st9" cx="384" cy="443.2" r="5.5"/>
	<circle id="XMLID_43_" class="st9" cx="373.5" cy="482.6" r="7"/>
	<circle id="XMLID_42_" class="st6" cx="396.8" cy="546.9" r="12.2"/>
	<circle id="XMLID_44_" class="st6" cx="384" cy="443.2" r="4"/>
	<circle id="XMLID_45_" class="st6" cx="373.5" cy="482.6" r="7"/>
	<circle id="XMLID_54_" class="st9" cx="434.3" cy="561.6" r="3"/>
	<circle id="XMLID_48_" class="st12" cx="434.3" cy="561.6" r="3"/>
	<circle id="XMLID_59_" class="st12" cx="416.3" cy="570.6" r="0.8"/>
	<circle id="XMLID_27_" class="st8" cx="361" cy="660" r="3"/>
	<circle id="XMLID_35_" class="st8" cx="383" cy="684" r="6.4"/>
	<circle id="XMLID_71_" class="st8" cx="392" cy="649" r="3"/>
	<circle id="XMLID_56_" class="st8" cx="413" cy="681" r="3.4"/>
</g>
<g>
	<path id="XMLID_31_" class="st11" d="M641.7,427h-63.3c-6.6,0-12-5.4-12-12l0,0c0-6.6,5.4-12,12-12h63.3c6.6,0,12,5.4,12,12l0,0
		C653.7,421.6,648.3,427,641.7,427z"/>
	<path id="XMLID_11_" class="st6" d="M641.7,427h-63.3c-6.6,0-12-5.4-12-12l0,0c0-6.6,5.4-12,12-12h63.3c6.6,0,12,5.4,12,12l0,0
		C653.7,421.6,648.3,427,641.7,427z"/>
	<path id="XMLID_12_" class="st5" d="M637,555V427h-54v128l-87.6,137.3c-8.5,13.3,0.9,30.7,16.7,30.7h195.1
		c15.8,0,25.6-17.4,17.1-30.7L637,555z"/>
	<path id="XMLID_22_" class="st6" d="M637,555V427h-54v128l-87.6,137.3c-8.5,13.3,0.9,30.7,16.7,30.7h195.1
		c15.8,0,25.6-17.4,17.1-30.7L637,555z"/>
	<path id="XMLID_25_" class="st13" d="M712.4,699.7l-35.2-55.4c-3.7-8.8-11.7-14.8-21-14.8c-4.7,0-9.2,1.6-12.8,4.3
		c-4.2-4.5-9.9-7.3-16.2-7.3c-8.8,0-16.5,5.5-20.4,13.5h-4.2c-4.2-4.6-10-7.5-16.4-7.5s-12.2,2.9-16.4,7.5h-1.8
		c-3.2,1.9-6.9,3-10.9,3s-7.6-1.1-10.9-3h-1l-38.1,59.7c-1.9,3-0.8,5.4-0.4,6.1c0.6,1.2,2.2,3.1,5.3,3.1h195.1
		c3.3,0,4.9-2.2,5.4-3.1C713.3,704.4,713.9,702.2,712.4,699.7z"/>
	<path id="XMLID_36_" class="st6" d="M712.4,699.7l-35.2-55.4c-3.7-8.8-11.7-14.8-21-14.8c-4.7,0-9.2,1.6-12.8,4.3
		c-4.2-4.5-9.9-7.3-16.2-7.3c-8.8,0-16.5,5.5-20.4,13.5h-4.2c-4.2-4.6-10-7.5-16.4-7.5s-12.2,2.9-16.4,7.5h-1.8
		c-3.2,1.9-6.9,3-10.9,3s-7.6-1.1-10.9-3h-1l-38.1,59.7c-1.9,3-0.8,5.4-0.4,6.1c0.6,1.2,2.2,3.1,5.3,3.1h195.1
		c3.3,0,4.9-2.2,5.4-3.1C713.3,704.4,713.9,702.2,712.4,699.7z"/>
	<circle id="XMLID_62_" class="st13" cx="599.7" cy="600.5" r="10"/>
	<circle id="XMLID_61_" class="st6" cx="599.7" cy="600.5" r="10"/>
	<circle id="XMLID_64_" class="st13" cx="634.3" cy="607.1" r="6.6"/>
	<circle id="XMLID_63_" class="st6" cx="634.3" cy="607.1" r="6.6"/>
	<circle id="XMLID_88_" class="st13" cx="613.2" cy="545.8" r="5.2"/>
	<circle id="XMLID_65_" class="st6" cx="613.2" cy="545.8" r="5.2"/>
	<circle id="XMLID_89_" class="st8" cx="596" cy="663" r="6.4"/>
	<circle id="XMLID_90_" class="st8" cx="637.8" cy="677.8" r="3.2"/>
	<circle id="XMLID_37_" class="st6" cx="618.1" cy="486.6" r="2.1"/>
	<circle id="XMLID_2_" class="st6" cx="602.1" cy="439.6" r="2.1"/>
</g>
<g>
	<g>
		<g>
			<path class="st14" d="M63.2,959.2c0,2.5-1.2,3.7-2.6,3.7c-1.1,0-1.9-0.5-2.1-1.4c-0.4,0.5-1,0.8-1.8,0.8c-1.5,0-2.6-1.2-2.6-2.8
				c0-1.6,1.1-2.8,2.6-2.8c0.7,0,1.2,0.3,1.6,0.7v-0.5h1.6v3.9c0,0.8,0.3,1.4,1,1.4c0.9,0,1.7-0.9,1.7-3c0-3-2.3-5.3-5.4-5.3
				c-3.1,0-5.6,2.4-5.6,5.7c0,3.3,2.5,5.7,5.9,5.7c1.1,0,2.1-0.2,2.9-0.4v0.6c-0.8,0.3-1.7,0.4-2.9,0.4c-3.7,0-6.5-2.6-6.5-6.2
				c0-3.4,2.7-6.2,6.2-6.2C61.1,953.3,63.2,956.4,63.2,959.2z M58.3,959.5c0-0.8-0.6-1.4-1.3-1.4c-0.8,0-1.3,0.5-1.3,1.4
				c0,0.8,0.6,1.3,1.3,1.3C57.8,960.9,58.3,960.3,58.3,959.5z"/>
		</g>
		<g>
			<path class="st14" d="M69.4,955.1v2c-1.2-0.1-2.6,0.5-2.6,2.4v4.3h-1.9v-8.6h1.9v1.4C67.3,955.5,68.3,955.1,69.4,955.1z"/>
		</g>
		<g>
			<path class="st14" d="M74.6,962.3c1,0,1.8-0.5,2.2-1.1l1.5,0.9c-0.8,1.2-2.1,1.9-3.8,1.9c-2.8,0-4.7-1.9-4.7-4.5
				c0-2.5,1.8-4.5,4.5-4.5c2.6,0,4.3,2.1,4.3,4.5c0,0.3,0,0.5-0.1,0.8h-6.8C72.1,961.6,73.2,962.3,74.6,962.3z M76.9,958.8
				c-0.3-1.5-1.3-2.1-2.5-2.1c-1.4,0-2.3,0.8-2.6,2.1H76.9z"/>
		</g>
		<g>
			<path class="st14" d="M88.9,955.2v8.6h-1.9v-1.2c-0.7,0.9-1.7,1.5-3,1.5c-2.3,0-4.3-2-4.3-4.5c0-2.6,1.9-4.5,4.3-4.5
				c1.3,0,2.3,0.5,3,1.4v-1.2H88.9z M87.1,959.5c0-1.6-1.2-2.7-2.7-2.7c-1.5,0-2.7,1.1-2.7,2.7c0,1.6,1.2,2.7,2.7,2.7
				C85.9,962.3,87.1,961.1,87.1,959.5z"/>
		</g>
		<g>
			<path class="st14" d="M91.1,951.3H93v12.5h-1.9V951.3z"/>
		</g>
		<g>
			<path class="st14" d="M102.9,955.2l-3.3,8.6h-2.1l-3.3-8.6h2l2.4,6.5l2.4-6.5H102.9z"/>
		</g>
		<g>
			<path class="st14" d="M104.2,955.2h1.9v8.9c0,2.4-1.2,3.5-3.5,3.3v-1.8c1.1,0.1,1.7-0.3,1.7-1.5V955.2z M104,952.8
				c0-0.7,0.5-1.2,1.2-1.2c0.7,0,1.2,0.5,1.2,1.2c0,0.6-0.5,1.2-1.2,1.2C104.5,954,104,953.4,104,952.8z"/>
		</g>
		<g>
			<path class="st14" d="M116,955.2l-3.3,8.8c-0.8,2.2-2.2,3.3-4.2,3.2v-1.7c1.2,0.1,1.9-0.5,2.3-1.7l0.1-0.2l-3.6-8.4h2l2.6,6.2
				l2.2-6.2H116z"/>
		</g>
	</g>
	<g>
		<path class="st14" d="M211.9,938.7c0,2.1-1.5,3.8-3.6,3.8h-3v-7.6h3C210.4,934.9,211.9,936.6,211.9,938.7z M210.9,938.7
			c0-1.6-1.1-2.9-2.6-2.9h-2v5.7h2C209.8,941.6,210.9,940.3,210.9,938.7z"/>
		<path class="st14" d="M219.5,940.8h-3.4l-0.6,1.7h-1.1l2.8-7.6h1.1l2.8,7.6h-1.1L219.5,940.8z M219.2,939.9l-1.4-3.8l-1.4,3.8
			H219.2z"/>
		<path class="st14" d="M226.4,939.4v3.1h-1v-3.1l-2.7-4.5h1.1l2.1,3.6l2.1-3.6h1.1L226.4,939.4z"/>
		<path class="st14" d="M242.6,941.1h-0.9v1.4h-1v-1.4h-3.9v-0.9l2.7-5.2h1.1l-2.7,5.2h2.8V938h1v2.2h0.9V941.1z"/>
		<path class="st14" d="M250.8,940.1c0,1.5-1.1,2.6-2.6,2.6c-1.5,0-2.6-1.1-2.6-2.6c0-0.6,0.2-1.1,0.5-1.5l2.5-3.7h1.2l-1.8,2.7
			c0.1,0,0.2,0,0.4,0C249.7,937.5,250.8,938.6,250.8,940.1z M249.8,940.1c0-1-0.7-1.6-1.6-1.6c-1,0-1.6,0.6-1.6,1.6s0.7,1.6,1.6,1.6
			C249.1,941.7,249.8,941,249.8,940.1z"/>
	</g>
	<g>
		<path class="st14" d="M58.9,938.7c0,2.1-1.5,3.8-3.6,3.8h-3v-7.6h3C57.4,934.9,58.9,936.6,58.9,938.7z M57.9,938.7
			c0-1.6-1.1-2.9-2.6-2.9h-2v5.7h2C56.8,941.6,57.9,940.3,57.9,938.7z"/>
		<path class="st14" d="M67,941.6v1h-4.6v-7.6h4.5v1h-3.5v2.3h3.2v0.9h-3.2v2.4H67z"/>
		<path class="st14" d="M70,940.8l0.9-0.5c0.3,0.8,0.9,1.4,2,1.4c1.1,0,1.6-0.5,1.6-1.2c0-0.8-0.7-1-1.8-1.4
			c-1.2-0.4-2.4-0.8-2.4-2.2c0-1.4,1.1-2.2,2.4-2.2c1.3,0,2.2,0.7,2.6,1.7l-0.8,0.5c-0.3-0.7-0.8-1.2-1.7-1.2
			c-0.8,0-1.4,0.4-1.4,1.1c0,0.7,0.5,1,1.6,1.3c1.3,0.4,2.6,0.8,2.6,2.3c0,1.3-1.1,2.2-2.6,2.2C71.5,942.7,70.4,941.9,70,940.8z"/>
		<path class="st14" d="M80,934.9v7.6h-1v-7.6H80z"/>
		<path class="st14" d="M91.3,939.2c0,1.9-1.4,3.5-3.7,3.5c-2.4,0-4-1.8-4-4c0-2.2,1.7-4,4-4c1.4,0,2.7,0.8,3.3,1.8l-0.9,0.5
			c-0.4-0.8-1.4-1.4-2.4-1.4c-1.8,0-3,1.3-3,3c0,1.7,1.2,3,3,3c1.6,0,2.5-0.9,2.7-2h-2.8v-0.9h3.8V939.2z"/>
		<path class="st14" d="M100.6,934.9v7.6h-0.8l-3.9-5.7v5.7h-1v-7.6h0.8l3.9,5.7v-5.7H100.6z"/>
		<path class="st14" d="M109.1,941.6v1h-4.6v-7.6h4.5v1h-3.5v2.3h3.2v0.9h-3.2v2.4H109.1z"/>
		<path class="st14" d="M119.2,938.7c0,2.1-1.5,3.8-3.6,3.8h-3v-7.6h3C117.6,934.9,119.2,936.6,119.2,938.7z M118.2,938.7
			c0-1.6-1.1-2.9-2.6-2.9h-2v5.7h2C117.1,941.6,118.2,940.3,118.2,938.7z"/>
		<path class="st14" d="M133.2,940.4c0,1.2-1,2.2-2.2,2.2h-3.3v-7.6h3c1.2,0,2.1,0.9,2.1,2.1c0,0.7-0.3,1.2-0.8,1.6
			C132.7,938.9,133.2,939.5,133.2,940.4z M128.7,935.8v2.3h2c0.6,0,1.1-0.5,1.1-1.2c0-0.6-0.5-1.2-1.1-1.2H128.7z M132.2,940.3
			c0-0.7-0.5-1.2-1.2-1.2h-2.3v2.5h2.3C131.7,941.6,132.2,941,132.2,940.3z"/>
		<path class="st14" d="M139.4,939.4v3.1h-1v-3.1l-2.7-4.5h1.1l2.1,3.6l2.1-3.6h1.1L139.4,939.4z"/>
	</g>
	<g>
		<path class="st14" d="M213,962.3v1.9h-7.5v-12.4h7.4v1.9h-5.4v3.2h5v1.9h-5v3.3H213z"/>
		<path class="st14" d="M220.4,964.3l-2.2-3l-2.2,3h-2.2l3.3-4.5l-3.2-4.3h2.2l2,2.8l2-2.8h2.2l-3.2,4.3l3.3,4.5H220.4z"/>
		<path class="st14" d="M233.3,959.9c0,2.6-2,4.7-4.4,4.7c-1.4,0-2.4-0.6-3.1-1.5v4.8h-1.9v-12.4h1.9v1.3c0.7-0.9,1.7-1.5,3.1-1.5
			C231.3,955.2,233.3,957.3,233.3,959.9z M231.4,959.9c0-1.6-1.2-2.8-2.8-2.8c-1.6,0-2.8,1.2-2.8,2.8c0,1.6,1.2,2.8,2.8,2.8
			C230.2,962.7,231.4,961.5,231.4,959.9z"/>
		<path class="st14" d="M239.4,962.8c1.1,0,1.9-0.5,2.3-1.1l1.6,0.9c-0.8,1.2-2.1,1.9-3.9,1.9c-2.9,0-4.8-2-4.8-4.7
			c0-2.6,1.9-4.7,4.7-4.7c2.6,0,4.4,2.1,4.4,4.7c0,0.3,0,0.5-0.1,0.8h-7C236.9,962.1,238,962.8,239.4,962.8z M241.8,959.1
			c-0.3-1.5-1.4-2.2-2.5-2.2c-1.4,0-2.4,0.8-2.7,2.2H241.8z"/>
		<path class="st14" d="M250,955.3v2.1c-1.3-0.1-2.7,0.5-2.7,2.5v4.5h-1.9v-8.9h1.9v1.5C247.8,955.7,248.9,955.3,250,955.3z"/>
		<path class="st14" d="M251.2,952.9c0-0.7,0.5-1.2,1.2-1.2c0.7,0,1.2,0.5,1.2,1.2c0,0.7-0.5,1.2-1.2,1.2
			C251.7,954.1,251.2,953.6,251.2,952.9z M251.4,955.4h1.9v8.9h-1.9V955.4z"/>
		<path class="st14" d="M268.6,958.8v5.5h-1.9v-5.4c0-1.2-0.7-1.9-1.7-1.9c-1.1,0-1.9,0.7-1.9,2.3v5h-1.9v-5.4
			c0-1.2-0.6-1.9-1.7-1.9c-1.1,0-2,0.7-2,2.3v5h-1.9v-8.9h1.9v1.1c0.6-0.9,1.4-1.3,2.5-1.3c1.2,0,2,0.5,2.5,1.4
			c0.6-0.9,1.5-1.4,2.7-1.4C267.2,955.2,268.6,956.6,268.6,958.8z"/>
		<path class="st14" d="M275,962.8c1.1,0,1.9-0.5,2.3-1.1l1.6,0.9c-0.8,1.2-2.1,1.9-3.9,1.9c-2.9,0-4.8-2-4.8-4.7
			c0-2.6,1.9-4.7,4.7-4.7c2.6,0,4.4,2.1,4.4,4.7c0,0.3,0,0.5-0.1,0.8h-7C272.4,962.1,273.6,962.8,275,962.8z M277.3,959.1
			c-0.3-1.5-1.4-2.2-2.5-2.2c-1.4,0-2.4,0.8-2.7,2.2H277.3z"/>
		<path class="st14" d="M289,958.9v5.4h-1.9v-5.2c0-1.3-0.8-2.1-2-2.1c-1.3,0-2.2,0.7-2.2,2.5v4.7h-1.9v-8.9h1.9v1.1
			c0.6-0.9,1.5-1.4,2.7-1.4C287.6,955.2,289,956.6,289,958.9z"/>
		<path class="st14" d="M293.8,957.3v4.2c0,1.1,0.7,1.1,2.2,1v1.7c-2.9,0.4-4.1-0.5-4.1-2.8v-4.2h-1.6v-1.8h1.6v-1.9l1.9-0.6v2.5
			h2.2v1.8H293.8z"/>
		<path class="st14" d="M309.4,962.3v1.9h-7.1v-12.4h2v10.4H309.4z"/>
		<path class="st14" d="M319.5,955.4v8.9h-1.9V963c-0.7,0.9-1.7,1.5-3.1,1.5c-2.4,0-4.4-2-4.4-4.7c0-2.6,2-4.7,4.4-4.7
			c1.4,0,2.4,0.6,3.1,1.5v-1.3H319.5z M317.6,959.9c0-1.6-1.2-2.8-2.8-2.8c-1.6,0-2.8,1.2-2.8,2.8c0,1.6,1.2,2.8,2.8,2.8
			C316.4,962.7,317.6,961.5,317.6,959.9z"/>
		<path class="st14" d="M331.1,959.9c0,2.6-2,4.7-4.4,4.7c-1.4,0-2.4-0.6-3.1-1.5v1.3h-1.9v-12.4h1.9v4.8c0.7-0.9,1.7-1.5,3.1-1.5
			C329.1,955.2,331.1,957.2,331.1,959.9z M329.2,959.9c0-1.6-1.2-2.8-2.8-2.8c-1.6,0-2.8,1.2-2.8,2.8c0,1.6,1.2,2.8,2.8,2.8
			C328,962.7,329.2,961.5,329.2,959.9z"/>
	</g>
	<g>
		<g>
			<g>
				<path class="st14" d="M846.1,938.7c0,2.1-1.5,3.8-3.6,3.8h-3v-7.6h3C844.6,934.9,846.1,936.6,846.1,938.7z M845.2,938.7
					c0-1.6-1.1-2.9-2.6-2.9h-2v5.7h2C844.1,941.6,845.2,940.3,845.2,938.7z"/>
			</g>
			<g>
				<path class="st14" d="M849.3,938.7c0-2.2,1.7-4,3.9-4c2.2,0,4,1.8,4,4c0,2.2-1.7,4-4,4C851,942.7,849.3,940.9,849.3,938.7z
					 M856.1,938.7c0-1.7-1.3-3-2.9-3c-1.7,0-2.9,1.3-2.9,3c0,1.7,1.3,3,2.9,3C854.9,941.7,856.1,940.4,856.1,938.7z"/>
			</g>
			<g>
				<path class="st14" d="M859.8,934.9h1.1l1.7,6.3l1.9-6.3h1l1.9,6.3l1.7-6.3h1.1l-2.2,7.6h-1.2l-1.8-6.1l-1.8,6.1H862L859.8,934.9
					z"/>
			</g>
			<g>
				<path class="st14" d="M879.3,934.9v7.6h-0.8l-3.9-5.7v5.7h-1v-7.6h0.8l3.9,5.7v-5.7H879.3z"/>
			</g>
			<g>
				<path class="st14" d="M887.5,941.6v1h-4.3v-7.6h1v6.7H887.5z"/>
			</g>
			<g>
				<path class="st14" d="M889.9,938.7c0-2.2,1.7-4,3.9-4c2.2,0,4,1.8,4,4c0,2.2-1.7,4-4,4C891.6,942.7,889.9,940.9,889.9,938.7z
					 M896.8,938.7c0-1.7-1.3-3-2.9-3c-1.7,0-2.9,1.3-2.9,3c0,1.7,1.3,3,2.9,3C895.5,941.7,896.8,940.4,896.8,938.7z"/>
			</g>
			<g>
				<path class="st14" d="M905.4,940.8H902l-0.6,1.7h-1.1l2.8-7.6h1.1l2.8,7.6H906L905.4,940.8z M905.1,939.9l-1.4-3.8l-1.4,3.8
					H905.1z"/>
			</g>
			<g>
				<path class="st14" d="M916.9,938.7c0,2.1-1.5,3.8-3.6,3.8h-3v-7.6h3C915.4,934.9,916.9,936.6,916.9,938.7z M915.9,938.7
					c0-1.6-1.1-2.9-2.6-2.9h-2v5.7h2C914.9,941.6,915.9,940.3,915.9,938.7z"/>
			</g>
			<g>
				<path class="st14" d="M926.5,935.8v2.5h3.2v1h-3.2v3.2h-1v-7.6h4.4v1H926.5z"/>
			</g>
			<g>
				<path class="st14" d="M936.2,939.6h-1.8v2.9h-1v-7.6h3c1.3,0,2.4,1.1,2.4,2.4c0,1-0.7,1.9-1.6,2.2l1.8,3.1h-1.1L936.2,939.6z
					 M934.4,938.7h2c0.8,0,1.4-0.6,1.4-1.4c0-0.8-0.6-1.4-1.4-1.4h-2V938.7z"/>
			</g>
			<g>
				<path class="st14" d="M941.9,938.7c0-2.2,1.7-4,3.9-4c2.2,0,4,1.8,4,4c0,2.2-1.7,4-4,4C943.6,942.7,941.9,940.9,941.9,938.7z
					 M948.8,938.7c0-1.7-1.3-3-2.9-3c-1.7,0-2.9,1.3-2.9,3c0,1.7,1.3,3,2.9,3C947.5,941.7,948.8,940.4,948.8,938.7z"/>
			</g>
			<g>
				<path class="st14" d="M960.4,942.5h-1v-6l-2.5,4.2h-0.1l-2.5-4.1v5.9h-1v-7.6h1.1l2.4,4l2.4-4h1.1V942.5z"/>
			</g>
		</g>
		<g>
			<g>
				<path class="st14" d="M839.3,952.9c0-0.7,0.5-1.2,1.2-1.2c0.7,0,1.2,0.5,1.2,1.2c0,0.7-0.5,1.2-1.2,1.2
					C839.9,954.1,839.3,953.6,839.3,952.9z M839.6,955.4h1.9v8.9h-1.9V955.4z"/>
			</g>
			<g>
				<path class="st14" d="M843.7,951.4h1.9v12.9h-1.9V951.4z"/>
			</g>
			<g>
				<path class="st14" d="M847.8,951.4h1.9v12.9h-1.9V951.4z"/>
			</g>
			<g>
				<path class="st14" d="M852,951.4h1.9v12.9H852V951.4z"/>
			</g>
			<g>
				<path class="st14" d="M864,955.4v8.9h-1.9v-1.1c-0.6,0.9-1.5,1.4-2.7,1.4c-2,0-3.4-1.3-3.4-3.6v-5.4h1.9v5.2
					c0,1.3,0.8,2.1,2,2.1c1.3,0,2.2-0.7,2.2-2.5v-4.7H864z"/>
			</g>
			<g>
				<path class="st14" d="M872.6,961.8c0,1.8-1.5,2.7-3.5,2.7c-1.8,0-3-0.8-3.6-2.1l1.6-1c0.3,0.8,1,1.3,2,1.3c0.8,0,1.5-0.3,1.5-1
					c0-1.6-4.8-0.7-4.8-3.9c0-1.7,1.4-2.7,3.2-2.7c1.5,0,2.7,0.7,3.3,1.8l-1.6,0.9c-0.3-0.7-0.9-1-1.7-1c-0.7,0-1.3,0.3-1.3,0.9
					C867.9,959.5,872.6,958.5,872.6,961.8z"/>
			</g>
			<g>
				<path class="st14" d="M876.7,957.3v4.2c0,1.1,0.7,1.1,2.2,1v1.7c-2.9,0.4-4.1-0.5-4.1-2.8v-4.2h-1.6v-1.8h1.6v-1.9l1.9-0.6v2.5
					h2.2v1.8H876.7z"/>
			</g>
			<g>
				<path class="st14" d="M885.4,955.3v2.1c-1.3-0.1-2.7,0.5-2.7,2.5v4.5h-1.9v-8.9h1.9v1.5C883.2,955.7,884.2,955.3,885.4,955.3z"
					/>
			</g>
			<g>
				<path class="st14" d="M895.3,955.4v8.9h-1.9V963c-0.7,0.9-1.7,1.5-3.1,1.5c-2.4,0-4.4-2-4.4-4.7c0-2.6,2-4.7,4.4-4.7
					c1.4,0,2.4,0.6,3.1,1.5v-1.3H895.3z M893.4,959.9c0-1.6-1.2-2.8-2.8-2.8c-1.6,0-2.8,1.2-2.8,2.8c0,1.6,1.2,2.8,2.8,2.8
					C892.2,962.7,893.4,961.5,893.4,959.9z"/>
			</g>
			<g>
				<path class="st14" d="M900.3,957.3v4.2c0,1.1,0.7,1.1,2.2,1v1.7c-2.9,0.4-4.1-0.5-4.1-2.8v-4.2h-1.6v-1.8h1.6v-1.9l1.9-0.6v2.5
					h2.2v1.8H900.3z"/>
			</g>
			<g>
				<path class="st14" d="M903.9,952.9c0-0.7,0.5-1.2,1.2-1.2c0.7,0,1.2,0.5,1.2,1.2c0,0.7-0.5,1.2-1.2,1.2
					C904.5,954.1,903.9,953.6,903.9,952.9z M904.2,955.4h1.9v8.9h-1.9V955.4z"/>
			</g>
			<g>
				<path class="st14" d="M907.8,959.9c0-2.6,2.1-4.7,4.7-4.7c2.6,0,4.7,2,4.7,4.7c0,2.6-2.1,4.7-4.7,4.7
					C909.9,964.5,907.8,962.5,907.8,959.9z M915.3,959.9c0-1.6-1.2-2.8-2.8-2.8c-1.6,0-2.8,1.2-2.8,2.8c0,1.6,1.2,2.8,2.8,2.8
					C914.1,962.7,915.3,961.5,915.3,959.9z"/>
			</g>
			<g>
				<path class="st14" d="M927,958.9v5.4h-1.9v-5.2c0-1.3-0.8-2.1-2-2.1c-1.3,0-2.2,0.7-2.2,2.5v4.7h-1.9v-8.9h1.9v1.1
					c0.6-0.9,1.5-1.4,2.7-1.4C925.5,955.2,927,956.6,927,958.9z"/>
			</g>
			<g>
				<path class="st14" d="M935.5,961.8c0,1.8-1.5,2.7-3.5,2.7c-1.8,0-3-0.8-3.6-2.1l1.6-1c0.3,0.8,1,1.3,2,1.3c0.8,0,1.5-0.3,1.5-1
					c0-1.6-4.8-0.7-4.8-3.9c0-1.7,1.4-2.7,3.2-2.7c1.5,0,2.7,0.7,3.3,1.8l-1.6,0.9c-0.3-0.7-0.9-1-1.7-1c-0.7,0-1.3,0.3-1.3,0.9
					C930.7,959.5,935.5,958.5,935.5,961.8z"/>
			</g>
			<g>
				<path class="st14" d="M936.8,963.2c0-0.7,0.6-1.3,1.3-1.3c0.7,0,1.3,0.6,1.3,1.3c0,0.7-0.6,1.3-1.3,1.3
					C937.4,964.5,936.8,963.9,936.8,963.2z"/>
			</g>
			<g>
				<path class="st14" d="M940.3,959.9c0-2.6,2-4.7,4.7-4.7c1.7,0,3.2,0.9,3.9,2.3l-1.6,1c-0.4-0.8-1.3-1.4-2.3-1.4
					c-1.6,0-2.7,1.2-2.7,2.8c0,1.6,1.2,2.8,2.7,2.8c1.1,0,1.9-0.5,2.4-1.4l1.6,0.9c-0.7,1.4-2.2,2.3-4,2.3
					C942.3,964.5,940.3,962.5,940.3,959.9z"/>
			</g>
			<g>
				<path class="st14" d="M949.7,959.9c0-2.6,2.1-4.7,4.7-4.7c2.6,0,4.7,2,4.7,4.7c0,2.6-2.1,4.7-4.7,4.7
					C951.8,964.5,949.7,962.5,949.7,959.9z M957.2,959.9c0-1.6-1.2-2.8-2.8-2.8s-2.8,1.2-2.8,2.8c0,1.6,1.2,2.8,2.8,2.8
					S957.2,961.5,957.2,959.9z"/>
			</g>
		</g>
	</g>
</g>
</svg>
