<?xml version="1.0" encoding="utf-8"?>
<!-- Generator: Adobe Illustrator 23.1.1, SVG Export Plug-In . SVG Version: 6.00 Build 0)  -->
<svg version="1.1" id="Layer_1" xmlns="http://www.w3.org/2000/svg" xmlns:xlink="http://www.w3.org/1999/xlink" x="0px" y="0px"
	 viewBox="0 0 1000 1000" style="enable-background:new 0 0 1000 1000;" xml:space="preserve">
<style type="text/css">
	.st0{fill:#34C1AA;}
	.st1{fill:#EEF2F4;}
	.st2{opacity:0.6;}
	.st3{fill:none;stroke:#424242;stroke-width:6;stroke-miterlimit:10;}
	.st4{fill:#424242;stroke:#424242;stroke-width:6;stroke-miterlimit:10;}
	.st5{fill:#FFFFFF;}
	.st6{fill:#D8D8D8;}
	.st7{fill:none;stroke:#133B4F;stroke-width:4;stroke-linecap:round;stroke-linejoin:round;stroke-miterlimit:10;}
	.st8{fill:#EC1CE4;}
	.st9{fill:#67CC70;}
	.st10{fill:#133B4F;}
	.st11{fill:#6F8699;}
	.st12{fill:#DABC95;}
	.st13{fill:#D6D9E2;}
	.st14{fill:none;stroke:#133B4F;stroke-width:4;stroke-miterlimit:10;}
	.st15{fill:#FF815F;}
	.st16{fill:#FFBB22;}
	.st17{fill:#67CF70;}
	.st18{fill:#F6164C;}
	.st19{fill:#CE7867;}
	.st20{fill:#984DB2;}
	.st21{fill:#F3C50D;}
	.st22{fill:none;stroke:#133B4F;stroke-width:6;stroke-linecap:round;stroke-linejoin:round;stroke-miterlimit:10;}
</style>
<rect id="XMLID_36_" class="st0" width="1000" height="1000"/>
<g>
	<g>
		<g>
			<path class="st1" d="M63.2,959.2c0,2.5-1.2,3.7-2.6,3.7c-1.1,0-1.9-0.5-2.1-1.4c-0.4,0.5-1,0.8-1.8,0.8c-1.5,0-2.6-1.2-2.6-2.8
				c0-1.6,1.1-2.8,2.6-2.8c0.7,0,1.2,0.3,1.6,0.7v-0.5h1.6v3.9c0,0.8,0.3,1.4,1,1.4c0.9,0,1.7-0.9,1.7-3c0-3-2.3-5.3-5.4-5.3
				c-3.1,0-5.6,2.4-5.6,5.7c0,3.3,2.5,5.7,5.9,5.7c1.1,0,2.1-0.2,2.9-0.4v0.6c-0.8,0.3-1.7,0.4-2.9,0.4c-3.7,0-6.5-2.6-6.5-6.2
				c0-3.4,2.7-6.2,6.2-6.2C61.1,953.3,63.2,956.4,63.2,959.2z M58.3,959.5c0-0.8-0.6-1.4-1.3-1.4c-0.8,0-1.3,0.5-1.3,1.4
				c0,0.8,0.6,1.3,1.3,1.3C57.8,960.9,58.3,960.3,58.3,959.5z"/>
		</g>
		<g>
			<path class="st1" d="M69.4,955.1v2c-1.2-0.1-2.6,0.5-2.6,2.4v4.3h-1.9v-8.6h1.9v1.4C67.3,955.5,68.3,955.1,69.4,955.1z"/>
		</g>
		<g>
			<path class="st1" d="M74.6,962.3c1,0,1.8-0.5,2.2-1.1l1.5,0.9c-0.8,1.2-2.1,1.9-3.8,1.9c-2.8,0-4.7-1.9-4.7-4.5
				c0-2.5,1.8-4.5,4.5-4.5c2.6,0,4.3,2.1,4.3,4.5c0,0.3,0,0.5-0.1,0.8h-6.8C72.1,961.6,73.2,962.3,74.6,962.3z M76.9,958.8
				c-0.3-1.5-1.3-2.1-2.5-2.1c-1.4,0-2.3,0.8-2.6,2.1H76.9z"/>
		</g>
		<g>
			<path class="st1" d="M88.9,955.2v8.6h-1.9v-1.2c-0.7,0.9-1.7,1.5-3,1.5c-2.3,0-4.3-2-4.3-4.5c0-2.6,1.9-4.5,4.3-4.5
				c1.3,0,2.3,0.5,3,1.4v-1.2H88.9z M87.1,959.5c0-1.6-1.2-2.7-2.7-2.7c-1.5,0-2.7,1.1-2.7,2.7c0,1.6,1.2,2.7,2.7,2.7
				C85.9,962.3,87.1,961.1,87.1,959.5z"/>
		</g>
		<g>
			<path class="st1" d="M91.1,951.3H93v12.5h-1.9V951.3z"/>
		</g>
		<g>
			<path class="st1" d="M102.9,955.2l-3.3,8.6h-2.1l-3.3-8.6h2l2.4,6.5l2.4-6.5H102.9z"/>
		</g>
		<g>
			<path class="st1" d="M104.2,955.2h1.9v8.9c0,2.4-1.2,3.5-3.5,3.3v-1.8c1.1,0.1,1.7-0.3,1.7-1.5V955.2z M104,952.8
				c0-0.7,0.5-1.2,1.2-1.2c0.7,0,1.2,0.5,1.2,1.2c0,0.6-0.5,1.2-1.2,1.2C104.5,954,104,953.4,104,952.8z"/>
		</g>
		<g>
			<path class="st1" d="M116,955.2l-3.3,8.8c-0.8,2.2-2.2,3.3-4.2,3.2v-1.7c1.2,0.1,1.9-0.5,2.3-1.7l0.1-0.2l-3.6-8.4h2l2.6,6.2
				l2.2-6.2H116z"/>
		</g>
	</g>
	<g>
		<path class="st1" d="M211.9,938.7c0,2.1-1.5,3.8-3.6,3.8h-3v-7.6h3C210.4,934.9,211.9,936.6,211.9,938.7z M210.9,938.7
			c0-1.6-1.1-2.9-2.6-2.9h-2v5.7h2C209.8,941.6,210.9,940.3,210.9,938.7z"/>
		<path class="st1" d="M219.5,940.8h-3.4l-0.6,1.7h-1.1l2.8-7.6h1.1l2.8,7.6h-1.1L219.5,940.8z M219.2,939.9l-1.4-3.8l-1.4,3.8
			H219.2z"/>
		<path class="st1" d="M226.4,939.4v3.1h-1v-3.1l-2.7-4.5h1.1l2.1,3.6l2.1-3.6h1.1L226.4,939.4z"/>
		<path class="st1" d="M242.6,941.1h-0.9v1.4h-1v-1.4h-3.9v-0.9l2.7-5.2h1.1l-2.7,5.2h2.8V938h1v2.2h0.9V941.1z"/>
		<path class="st1" d="M249.9,934.9v0.9l-2.8,6.7H246l2.8-6.7h-3.7v-1H249.9z"/>
	</g>
	<g>
		<path class="st1" d="M58.9,938.7c0,2.1-1.5,3.8-3.6,3.8h-3v-7.6h3C57.4,934.9,58.9,936.6,58.9,938.7z M57.9,938.7
			c0-1.6-1.1-2.9-2.6-2.9h-2v5.7h2C56.8,941.6,57.9,940.3,57.9,938.7z"/>
		<path class="st1" d="M67,941.6v1h-4.6v-7.6h4.5v1h-3.5v2.3h3.2v0.9h-3.2v2.4H67z"/>
		<path class="st1" d="M70,940.8l0.9-0.5c0.3,0.8,0.9,1.4,2,1.4c1.1,0,1.6-0.5,1.6-1.2c0-0.8-0.7-1-1.8-1.4
			c-1.2-0.4-2.4-0.8-2.4-2.2c0-1.4,1.1-2.2,2.4-2.2c1.3,0,2.2,0.7,2.6,1.7l-0.8,0.5c-0.3-0.7-0.8-1.2-1.7-1.2
			c-0.8,0-1.4,0.4-1.4,1.1c0,0.7,0.5,1,1.6,1.3c1.3,0.4,2.6,0.8,2.6,2.3c0,1.3-1.1,2.2-2.6,2.2C71.5,942.7,70.4,941.9,70,940.8z"/>
		<path class="st1" d="M80,934.9v7.6h-1v-7.6H80z"/>
		<path class="st1" d="M91.3,939.2c0,1.9-1.4,3.5-3.7,3.5c-2.4,0-4-1.8-4-4c0-2.2,1.7-4,4-4c1.4,0,2.7,0.8,3.3,1.8l-0.9,0.5
			c-0.4-0.8-1.4-1.4-2.4-1.4c-1.8,0-3,1.3-3,3c0,1.7,1.2,3,3,3c1.6,0,2.5-0.9,2.7-2h-2.8v-0.9h3.8V939.2z"/>
		<path class="st1" d="M100.6,934.9v7.6h-0.8l-3.9-5.7v5.7h-1v-7.6h0.8l3.9,5.7v-5.7H100.6z"/>
		<path class="st1" d="M109.1,941.6v1h-4.6v-7.6h4.5v1h-3.5v2.3h3.2v0.9h-3.2v2.4H109.1z"/>
		<path class="st1" d="M119.2,938.7c0,2.1-1.5,3.8-3.6,3.8h-3v-7.6h3C117.6,934.9,119.2,936.6,119.2,938.7z M118.2,938.7
			c0-1.6-1.1-2.9-2.6-2.9h-2v5.7h2C117.1,941.6,118.2,940.3,118.2,938.7z"/>
		<path class="st1" d="M133.2,940.4c0,1.2-1,2.2-2.2,2.2h-3.3v-7.6h3c1.2,0,2.1,0.9,2.1,2.1c0,0.7-0.3,1.2-0.8,1.6
			C132.7,938.9,133.2,939.5,133.2,940.4z M128.7,935.8v2.3h2c0.6,0,1.1-0.5,1.1-1.2c0-0.6-0.5-1.2-1.1-1.2H128.7z M132.2,940.3
			c0-0.7-0.5-1.2-1.2-1.2h-2.3v2.5h2.3C131.7,941.6,132.2,941,132.2,940.3z"/>
		<path class="st1" d="M139.4,939.4v3.1h-1v-3.1l-2.7-4.5h1.1l2.1,3.6l2.1-3.6h1.1L139.4,939.4z"/>
	</g>
	<g>
		<path class="st1" d="M204.8,958.1c0-3.6,2.7-6.4,6.5-6.4c2.3,0,4.3,1.2,5.3,3l-1.8,1c-0.7-1.2-2-2-3.6-2c-2.7,0-4.4,1.9-4.4,4.4
			s1.8,4.4,4.4,4.4c1.6,0,2.9-0.8,3.6-2l1.8,1c-1,1.8-3,3-5.3,3C207.5,964.5,204.8,961.7,204.8,958.1z"/>
		<path class="st1" d="M226.3,958.9v5.4h-1.9v-5.2c0-1.3-0.8-2.1-2-2.1c-1.3,0-2.2,0.7-2.2,2.5v4.7h-1.9v-12.4h1.9v4.7
			c0.6-0.9,1.5-1.4,2.7-1.4C224.9,955.2,226.3,956.6,226.3,958.9z"/>
		<path class="st1" d="M232.7,962.8c1.1,0,1.9-0.5,2.3-1.1l1.6,0.9c-0.8,1.2-2.1,1.9-3.9,1.9c-2.9,0-4.8-2-4.8-4.7
			c0-2.6,1.9-4.7,4.7-4.7c2.6,0,4.4,2.1,4.4,4.7c0,0.3,0,0.5-0.1,0.8h-7C230.2,962.1,231.3,962.8,232.7,962.8z M235.1,959.1
			c-0.3-1.5-1.4-2.2-2.5-2.2c-1.4,0-2.4,0.8-2.7,2.2H235.1z"/>
		<path class="st1" d="M251.7,958.8v5.5h-1.9v-5.4c0-1.2-0.7-1.9-1.7-1.9c-1.1,0-1.9,0.7-1.9,2.3v5h-1.9v-5.4c0-1.2-0.6-1.9-1.7-1.9
			c-1.1,0-2,0.7-2,2.3v5h-1.9v-8.9h1.9v1.1c0.6-0.9,1.4-1.3,2.5-1.3c1.2,0,2,0.5,2.5,1.4c0.6-0.9,1.5-1.4,2.7-1.4
			C250.4,955.2,251.7,956.6,251.7,958.8z"/>
		<path class="st1" d="M253.5,952.9c0-0.7,0.5-1.2,1.2-1.2c0.7,0,1.2,0.5,1.2,1.2c0,0.7-0.5,1.2-1.2,1.2
			C254.1,954.1,253.5,953.6,253.5,952.9z M253.8,955.4h1.9v8.9h-1.9V955.4z"/>
		<path class="st1" d="M264.3,961.8c0,1.8-1.5,2.7-3.5,2.7c-1.8,0-3-0.8-3.6-2.1l1.6-1c0.3,0.8,1,1.3,2,1.3c0.8,0,1.5-0.3,1.5-1
			c0-1.6-4.8-0.7-4.8-3.9c0-1.7,1.4-2.7,3.2-2.7c1.5,0,2.7,0.7,3.3,1.8l-1.6,0.9c-0.3-0.7-0.9-1-1.7-1c-0.7,0-1.3,0.3-1.3,0.9
			C259.6,959.5,264.3,958.5,264.3,961.8z"/>
		<path class="st1" d="M268.4,957.3v4.2c0,1.1,0.7,1.1,2.2,1v1.7c-2.9,0.4-4.1-0.5-4.1-2.8v-4.2h-1.6v-1.8h1.6v-1.9l1.9-0.6v2.5h2.2
			v1.8H268.4z"/>
		<path class="st1" d="M277.1,955.3v2.1c-1.3-0.1-2.7,0.5-2.7,2.5v4.5h-1.9v-8.9h1.9v1.5C274.9,955.7,275.9,955.3,277.1,955.3z"/>
		<path class="st1" d="M286.7,955.4l-3.4,9.1c-0.8,2.2-2.3,3.4-4.3,3.3V966c1.2,0.1,1.9-0.6,2.4-1.7l0.1-0.2l-3.8-8.7h2.1l2.6,6.4
			l2.3-6.4H286.7z"/>
		<path class="st1" d="M299.5,962.3v1.9h-7.1v-12.4h2v10.4H299.5z"/>
		<path class="st1" d="M309.5,955.4v8.9h-1.9V963c-0.7,0.9-1.7,1.5-3.1,1.5c-2.4,0-4.4-2-4.4-4.7c0-2.6,2-4.7,4.4-4.7
			c1.4,0,2.4,0.6,3.1,1.5v-1.3H309.5z M307.6,959.9c0-1.6-1.2-2.8-2.8-2.8c-1.6,0-2.8,1.2-2.8,2.8c0,1.6,1.2,2.8,2.8,2.8
			C306.4,962.7,307.6,961.5,307.6,959.9z"/>
		<path class="st1" d="M321.2,959.9c0,2.6-2,4.7-4.4,4.7c-1.4,0-2.4-0.6-3.1-1.5v1.3h-1.9v-12.4h1.9v4.8c0.7-0.9,1.7-1.5,3.1-1.5
			C319.2,955.2,321.2,957.2,321.2,959.9z M319.3,959.9c0-1.6-1.2-2.8-2.8-2.8c-1.6,0-2.8,1.2-2.8,2.8c0,1.6,1.2,2.8,2.8,2.8
			C318.1,962.7,319.3,961.5,319.3,959.9z"/>
	</g>
	<g>
		<g>
			<g>
				<path class="st1" d="M846.1,938.7c0,2.1-1.5,3.8-3.6,3.8h-3v-7.6h3C844.6,934.9,846.1,936.6,846.1,938.7z M845.2,938.7
					c0-1.6-1.1-2.9-2.6-2.9h-2v5.7h2C844.1,941.6,845.2,940.3,845.2,938.7z"/>
			</g>
			<g>
				<path class="st1" d="M849.3,938.7c0-2.2,1.7-4,3.9-4c2.2,0,4,1.8,4,4c0,2.2-1.7,4-4,4C851,942.7,849.3,940.9,849.3,938.7z
					 M856.1,938.7c0-1.7-1.3-3-2.9-3c-1.7,0-2.9,1.3-2.9,3c0,1.7,1.3,3,2.9,3C854.9,941.7,856.1,940.4,856.1,938.7z"/>
			</g>
			<g>
				<path class="st1" d="M859.8,934.9h1.1l1.7,6.3l1.9-6.3h1l1.9,6.3l1.7-6.3h1.1l-2.2,7.6h-1.2l-1.8-6.1l-1.8,6.1H862L859.8,934.9z
					"/>
			</g>
			<g>
				<path class="st1" d="M879.3,934.9v7.6h-0.8l-3.9-5.7v5.7h-1v-7.6h0.8l3.9,5.7v-5.7H879.3z"/>
			</g>
			<g>
				<path class="st1" d="M887.5,941.6v1h-4.3v-7.6h1v6.7H887.5z"/>
			</g>
			<g>
				<path class="st1" d="M889.9,938.7c0-2.2,1.7-4,3.9-4c2.2,0,4,1.8,4,4c0,2.2-1.7,4-4,4C891.6,942.7,889.9,940.9,889.9,938.7z
					 M896.8,938.7c0-1.7-1.3-3-2.9-3c-1.7,0-2.9,1.3-2.9,3c0,1.7,1.3,3,2.9,3C895.5,941.7,896.8,940.4,896.8,938.7z"/>
			</g>
			<g>
				<path class="st1" d="M905.4,940.8H902l-0.6,1.7h-1.1l2.8-7.6h1.1l2.8,7.6H906L905.4,940.8z M905.1,939.9l-1.4-3.8l-1.4,3.8
					H905.1z"/>
			</g>
			<g>
				<path class="st1" d="M916.9,938.7c0,2.1-1.5,3.8-3.6,3.8h-3v-7.6h3C915.4,934.9,916.9,936.6,916.9,938.7z M915.9,938.7
					c0-1.6-1.1-2.9-2.6-2.9h-2v5.7h2C914.9,941.6,915.9,940.3,915.9,938.7z"/>
			</g>
			<g>
				<path class="st1" d="M926.5,935.8v2.5h3.2v1h-3.2v3.2h-1v-7.6h4.4v1H926.5z"/>
			</g>
			<g>
				<path class="st1" d="M936.2,939.6h-1.8v2.9h-1v-7.6h3c1.3,0,2.4,1.1,2.4,2.4c0,1-0.7,1.9-1.6,2.2l1.8,3.1h-1.1L936.2,939.6z
					 M934.4,938.7h2c0.8,0,1.4-0.6,1.4-1.4c0-0.8-0.6-1.4-1.4-1.4h-2V938.7z"/>
			</g>
			<g>
				<path class="st1" d="M941.9,938.7c0-2.2,1.7-4,3.9-4c2.2,0,4,1.8,4,4c0,2.2-1.7,4-4,4C943.6,942.7,941.9,940.9,941.9,938.7z
					 M948.8,938.7c0-1.7-1.3-3-2.9-3c-1.7,0-2.9,1.3-2.9,3c0,1.7,1.3,3,2.9,3C947.5,941.7,948.8,940.4,948.8,938.7z"/>
			</g>
			<g>
				<path class="st1" d="M960.4,942.5h-1v-6l-2.5,4.2h-0.1l-2.5-4.1v5.9h-1v-7.6h1.1l2.4,4l2.4-4h1.1V942.5z"/>
			</g>
		</g>
		<g>
			<g>
				<path class="st1" d="M839.3,952.9c0-0.7,0.5-1.2,1.2-1.2c0.7,0,1.2,0.5,1.2,1.2c0,0.7-0.5,1.2-1.2,1.2
					C839.9,954.1,839.3,953.6,839.3,952.9z M839.6,955.4h1.9v8.9h-1.9V955.4z"/>
			</g>
			<g>
				<path class="st1" d="M843.7,951.4h1.9v12.9h-1.9V951.4z"/>
			</g>
			<g>
				<path class="st1" d="M847.8,951.4h1.9v12.9h-1.9V951.4z"/>
			</g>
			<g>
				<path class="st1" d="M852,951.4h1.9v12.9H852V951.4z"/>
			</g>
			<g>
				<path class="st1" d="M864,955.4v8.9h-1.9v-1.1c-0.6,0.9-1.5,1.4-2.7,1.4c-2,0-3.4-1.3-3.4-3.6v-5.4h1.9v5.2c0,1.3,0.8,2.1,2,2.1
					c1.3,0,2.2-0.7,2.2-2.5v-4.7H864z"/>
			</g>
			<g>
				<path class="st1" d="M872.6,961.8c0,1.8-1.5,2.7-3.5,2.7c-1.8,0-3-0.8-3.6-2.1l1.6-1c0.3,0.8,1,1.3,2,1.3c0.8,0,1.5-0.3,1.5-1
					c0-1.6-4.8-0.7-4.8-3.9c0-1.7,1.4-2.7,3.2-2.7c1.5,0,2.7,0.7,3.3,1.8l-1.6,0.9c-0.3-0.7-0.9-1-1.7-1c-0.7,0-1.3,0.3-1.3,0.9
					C867.9,959.5,872.6,958.5,872.6,961.8z"/>
			</g>
			<g>
				<path class="st1" d="M876.7,957.3v4.2c0,1.1,0.7,1.1,2.2,1v1.7c-2.9,0.4-4.1-0.5-4.1-2.8v-4.2h-1.6v-1.8h1.6v-1.9l1.9-0.6v2.5
					h2.2v1.8H876.7z"/>
			</g>
			<g>
				<path class="st1" d="M885.4,955.3v2.1c-1.3-0.1-2.7,0.5-2.7,2.5v4.5h-1.9v-8.9h1.9v1.5C883.2,955.7,884.2,955.3,885.4,955.3z"/>
			</g>
			<g>
				<path class="st1" d="M895.3,955.4v8.9h-1.9V963c-0.7,0.9-1.7,1.5-3.1,1.5c-2.4,0-4.4-2-4.4-4.7c0-2.6,2-4.7,4.4-4.7
					c1.4,0,2.4,0.6,3.1,1.5v-1.3H895.3z M893.4,959.9c0-1.6-1.2-2.8-2.8-2.8c-1.6,0-2.8,1.2-2.8,2.8c0,1.6,1.2,2.8,2.8,2.8
					C892.2,962.7,893.4,961.5,893.4,959.9z"/>
			</g>
			<g>
				<path class="st1" d="M900.3,957.3v4.2c0,1.1,0.7,1.1,2.2,1v1.7c-2.9,0.4-4.1-0.5-4.1-2.8v-4.2h-1.6v-1.8h1.6v-1.9l1.9-0.6v2.5
					h2.2v1.8H900.3z"/>
			</g>
			<g>
				<path class="st1" d="M903.9,952.9c0-0.7,0.5-1.2,1.2-1.2c0.7,0,1.2,0.5,1.2,1.2c0,0.7-0.5,1.2-1.2,1.2
					C904.5,954.1,903.9,953.6,903.9,952.9z M904.2,955.4h1.9v8.9h-1.9V955.4z"/>
			</g>
			<g>
				<path class="st1" d="M907.8,959.9c0-2.6,2.1-4.7,4.7-4.7c2.6,0,4.7,2,4.7,4.7c0,2.6-2.1,4.7-4.7,4.7
					C909.9,964.5,907.8,962.5,907.8,959.9z M915.3,959.9c0-1.6-1.2-2.8-2.8-2.8c-1.6,0-2.8,1.2-2.8,2.8c0,1.6,1.2,2.8,2.8,2.8
					C914.1,962.7,915.3,961.5,915.3,959.9z"/>
			</g>
			<g>
				<path class="st1" d="M927,958.9v5.4h-1.9v-5.2c0-1.3-0.8-2.1-2-2.1c-1.3,0-2.2,0.7-2.2,2.5v4.7h-1.9v-8.9h1.9v1.1
					c0.6-0.9,1.5-1.4,2.7-1.4C925.5,955.2,927,956.6,927,958.9z"/>
			</g>
			<g>
				<path class="st1" d="M935.5,961.8c0,1.8-1.5,2.7-3.5,2.7c-1.8,0-3-0.8-3.6-2.1l1.6-1c0.3,0.8,1,1.3,2,1.3c0.8,0,1.5-0.3,1.5-1
					c0-1.6-4.8-0.7-4.8-3.9c0-1.7,1.4-2.7,3.2-2.7c1.5,0,2.7,0.7,3.3,1.8l-1.6,0.9c-0.3-0.7-0.9-1-1.7-1c-0.7,0-1.3,0.3-1.3,0.9
					C930.7,959.5,935.5,958.5,935.5,961.8z"/>
			</g>
			<g>
				<path class="st1" d="M936.8,963.2c0-0.7,0.6-1.3,1.3-1.3c0.7,0,1.3,0.6,1.3,1.3c0,0.7-0.6,1.3-1.3,1.3
					C937.4,964.5,936.8,963.9,936.8,963.2z"/>
			</g>
			<g>
				<path class="st1" d="M940.3,959.9c0-2.6,2-4.7,4.7-4.7c1.7,0,3.2,0.9,3.9,2.3l-1.6,1c-0.4-0.8-1.3-1.4-2.3-1.4
					c-1.6,0-2.7,1.2-2.7,2.8c0,1.6,1.2,2.8,2.7,2.8c1.1,0,1.9-0.5,2.4-1.4l1.6,0.9c-0.7,1.4-2.2,2.3-4,2.3
					C942.3,964.5,940.3,962.5,940.3,959.9z"/>
			</g>
			<g>
				<path class="st1" d="M949.7,959.9c0-2.6,2.1-4.7,4.7-4.7c2.6,0,4.7,2,4.7,4.7c0,2.6-2.1,4.7-4.7,4.7
					C951.8,964.5,949.7,962.5,949.7,959.9z M957.2,959.9c0-1.6-1.2-2.8-2.8-2.8s-2.8,1.2-2.8,2.8c0,1.6,1.2,2.8,2.8,2.8
					S957.2,961.5,957.2,959.9z"/>
			</g>
		</g>
	</g>
</g>
<g id="XMLID_1_">
	<g id="XMLID_52_" class="st2">
		<g id="XMLID_240_">
			<g id="XMLID_242_">
				<g id="XMLID_251_">
					<polygon id="XMLID_252_" class="st3" points="714.8,399.9 687.9,353.3 714.8,306.8 768.5,306.8 795.4,353.3 768.5,399.9 					
						"/>
				</g>
			</g>
		</g>
		<g id="XMLID_216_">
			<g id="XMLID_223_">
				<g id="XMLID_230_">
					<polygon id="XMLID_231_" class="st4" points="621.7,346.2 594.8,299.6 621.7,253.1 675.4,253.1 702.3,299.6 675.4,346.2 					
						"/>
				</g>
				<g id="XMLID_228_">
					<polygon id="XMLID_229_" class="st3" points="621.7,238.7 594.8,192.2 621.7,145.6 675.4,145.6 702.3,192.2 675.4,238.7 					
						"/>
				</g>
			</g>
			<g id="XMLID_217_">
				<g id="XMLID_218_">
					<polygon id="XMLID_219_" class="st4" points="528.5,292.5 501.7,245.9 528.5,199.3 582.3,199.3 609.1,245.9 582.3,292.5 					
						"/>
				</g>
			</g>
		</g>
		<g id="XMLID_205_">
			<g id="XMLID_209_">
				<g id="XMLID_212_">
					<polygon id="XMLID_213_" class="st3" points="435.4,346.2 408.5,299.6 435.4,253.1 489.1,253.1 516,299.6 489.1,346.2 					"/>
				</g>
			</g>
		</g>
		<g id="XMLID_194_">
			<g id="XMLID_196_">
				<g id="XMLID_199_">
					<polygon id="XMLID_200_" class="st4" points="249.2,346.2 222.3,299.6 249.2,253.1 302.9,253.1 329.7,299.6 302.9,346.2 					
						"/>
				</g>
			</g>
		</g>
	</g>
	<g id="XMLID_3_" class="st2">
		<g id="XMLID_138_">
			<g id="XMLID_189_">
				<g id="XMLID_190_">
					<polygon id="XMLID_191_" class="st3" points="621.7,453.2 594.8,406.7 621.7,360.1 675.4,360.1 702.3,406.7 675.4,453.2 					
						"/>
				</g>
			</g>
			<g id="XMLID_141_">
				<g id="XMLID_183_">
					<polygon id="XMLID_187_" class="st3" points="528.5,614.4 501.7,567.8 528.5,521.3 582.3,521.3 609.1,567.8 582.3,614.4 					
						"/>
				</g>
			</g>
		</g>
	</g>
</g>
<g>
	<path id="XMLID_116_" class="st5" d="M738.9,737L738.9,737c-10.5,0-19-8.5-19-19V569h38v149C757.9,728.5,749.4,737,738.9,737z"/>
	<path id="XMLID_114_" class="st6" d="M760.9,553h-44c-4.4,0-8,3.6-8,8l0,0c0,4.4,3.6,8,8,8h44c4.4,0,8-3.6,8-8l0,0
		C768.9,556.6,765.3,553,760.9,553z"/>
	<path id="XMLID_25_" class="st7" d="M738.9,737L738.9,737c-10.5,0-19-8.5-19-19V569h38v149C757.9,728.5,749.4,737,738.9,737z"/>
	<path id="XMLID_24_" class="st7" d="M760.9,553h-44c-4.4,0-8,3.6-8,8l0,0c0,4.4,3.6,8,8,8h44c4.4,0,8-3.6,8-8l0,0
		C768.9,556.6,765.3,553,760.9,553z"/>
	<path id="XMLID_113_" class="st8" d="M728.9,664v54c0,5.5,4.5,10,10,10s10-4.5,10-10v-54H728.9z"/>
	<path id="XMLID_107_" class="st7" d="M728.9,664v54c0,5.5,4.5,10,10,10s10-4.5,10-10v-54H728.9z"/>
	<circle id="XMLID_143_" class="st8" cx="719.9" cy="513.3" r="3.8"/>
	<circle id="XMLID_145_" class="st8" cx="733.8" cy="530.8" r="3.2"/>
	<circle id="XMLID_148_" class="st8" cx="750.4" cy="481.3" r="7.2"/>
	<circle id="XMLID_149_" class="st8" cx="746.2" cy="510.9" r="6.2"/>
	<circle id="XMLID_129_" class="st7" cx="719.9" cy="513.3" r="3.8"/>
	<circle id="XMLID_128_" class="st7" cx="733.8" cy="530.8" r="3.2"/>
	<circle id="XMLID_127_" class="st7" cx="731.9" cy="497.5" r="2.1"/>
	<circle id="XMLID_119_" class="st7" cx="750.4" cy="481.3" r="7.2"/>
	<circle id="XMLID_117_" class="st7" cx="746.2" cy="510.9" r="6.2"/>
	<circle id="XMLID_140_" class="st8" cx="735.4" cy="624.4" r="7.2"/>
	<circle id="XMLID_134_" class="st7" cx="735.4" cy="624.4" r="7.2"/>
	<circle id="XMLID_153_" class="st8" cx="741.6" cy="649.1" r="3.1"/>
	<circle id="XMLID_151_" class="st7" cx="741.6" cy="649.1" r="3.1"/>
	<circle id="XMLID_165_" class="st8" cx="745.7" cy="583" r="4.3"/>
	<circle id="XMLID_162_" class="st7" cx="745.7" cy="583" r="4.3"/>
	<circle id="XMLID_169_" class="st9" cx="730.6" cy="576.3" r="1.6"/>
	<circle id="XMLID_167_" class="st7" cx="730.6" cy="576.3" r="1.6"/>
	<circle id="XMLID_160_" class="st10" cx="740.1" cy="679.6" r="1.6"/>
	<circle id="XMLID_156_" class="st10" cx="731.5" cy="696.4" r="2.6"/>
	<circle id="XMLID_158_" class="st10" cx="743.2" cy="709.4" r="3.8"/>
	<circle id="XMLID_159_" class="st10" cx="737.6" cy="674.9" r="0.6"/>
</g>
<path id="XMLID_76_" class="st5" d="M573.4,604c-2.2,0-4-1.8-4-4V405.5c0-16.3-13.2-29.5-29.5-29.5c-16.3,0-29.5,13.2-29.5,29.5
	v44.2c0,37.1-30.2,67.3-67.3,67.3s-67.3-30.2-67.3-67.3v-95.6c0-22.6-18.4-41-41-41c-22.6,0-41,18.4-41,41V395c0,2.2-1.8,4-4,4
	s-4-1.8-4-4v-40.9c0-27,22-49,49-49c27,0,49,22,49,49v95.6c0,32.7,26.6,59.3,59.3,59.3c32.7,0,59.3-26.6,59.3-59.3v-44.2
	c0-20.7,16.8-37.5,37.5-37.5c20.7,0,37.5,16.8,37.5,37.5V600C577.4,602.2,575.6,604,573.4,604z"/>
<path id="XMLID_33_" class="st7" d="M573.4,604c-2.2,0-4-1.8-4-4V405.5c0-16.3-13.2-29.5-29.5-29.5c-16.3,0-29.5,13.2-29.5,29.5
	v44.2c0,37.1-30.2,67.3-67.3,67.3s-67.3-30.2-67.3-67.3v-95.6c0-22.6-18.4-41-41-41c-22.6,0-41,18.4-41,41V395c0,2.2-1.8,4-4,4
	s-4-1.8-4-4v-40.9c0-27,22-49,49-49c27,0,49,22,49,49v95.6c0,32.7,26.6,59.3,59.3,59.3c32.7,0,59.3-26.6,59.3-59.3v-44.2
	c0-20.7,16.8-37.5,37.5-37.5c20.7,0,37.5,16.8,37.5,37.5V600C577.4,602.2,575.6,604,573.4,604z"/>
<path id="XMLID_38_" class="st5" d="M435.7,770h-20V200c0-5.5,4.5-10,10-10h0c5.5,0,10,4.5,10,10V770z"/>
<path id="XMLID_8_" class="st7" d="M435.7,770h-20V200c0-5.5,4.5-10,10-10h0c5.5,0,10,4.5,10,10V770z"/>
<path id="XMLID_49_" class="st11" d="M470.6,445.6h-27.8v-10h27.8c2.8,0,5,2.2,5,5l0,0C475.6,443.3,473.3,445.6,470.6,445.6z"/>
<path id="XMLID_14_" class="st7" d="M470.6,445.6h-27.8v-10h27.8c2.8,0,5,2.2,5,5l0,0C475.6,443.3,473.3,445.6,470.6,445.6z"/>
<g>
	<rect id="XMLID_109_" x="500.1" y="753" class="st12" width="320" height="17"/>
	<rect id="XMLID_18_" x="500.1" y="753" class="st7" width="320" height="17"/>
</g>
<rect id="XMLID_106_" x="516.3" y="603" class="st13" width="10" height="150"/>
<rect id="XMLID_20_" x="516.3" y="603" class="st7" width="10" height="150"/>
<rect id="XMLID_108_" x="794" y="603" class="st13" width="10" height="150"/>
<rect id="XMLID_27_" x="794" y="603" class="st7" width="10" height="150"/>
<path id="XMLID_34_" class="st14" d="M285.2,659.1c0,0-0.4-9.3-2-13.7c4.7,2.1,9.1,11.7,9.1,11.7L285.2,659.1z"/>
<rect id="XMLID_51_" x="352.1" y="748" class="st11" width="123.5" height="22"/>
<rect id="XMLID_35_" x="352.1" y="748" class="st7" width="123.5" height="22"/>
<g>
	<path id="XMLID_64_" class="st5" d="M321.9,722.9l-21.3-3.6v-16.1h8.5c3.4,0,6.4-2.6,6.5-6c0.1-3.5-2.7-6.4-6.2-6.4h-38.9
		c-3.4,0-6.4,2.6-6.5,6c-0.1,3.5,2.7,6.4,6.2,6.4h8.8v16.1l-21.3,3.6c-4.8,0.8-8.1,5.4-7.3,10.3l5.2,28.8c0.8,4.7,4.9,8.1,9.7,8.1
		h49.2c4.7,0,8.8-3.4,9.7-8.1l5.2-28.8C330,728.3,326.8,723.7,321.9,722.9z"/>
	<path id="XMLID_32_" class="st7" d="M321.9,722.9l-21.3-3.6v-16.1h8.5c3.4,0,6.4-2.6,6.5-6c0.1-3.5-2.7-6.4-6.2-6.4h-38.9
		c-3.4,0-6.4,2.6-6.5,6c-0.1,3.5,2.7,6.4,6.2,6.4h8.8v16.1l-21.3,3.6c-4.8,0.8-8.1,5.4-7.3,10.3l5.2,28.8c0.8,4.7,4.9,8.1,9.7,8.1
		h49.2c4.7,0,8.8-3.4,9.7-8.1l5.2-28.8C330,728.3,326.8,723.7,321.9,722.9z"/>
	<path id="XMLID_65_" class="st15" d="M305.6,665c-4.1-13.2-12.3-20.4-15.8-24c-1.9,15-17.6,19.7-16,33.8
		c1.3,11.5,12.3,15,17.7,14.1C302.8,687,308.8,675.2,305.6,665z"/>
	<path id="XMLID_31_" class="st14" d="M305.6,665c-4.1-13.2-12.3-20.4-15.8-24c-1.9,15-17.6,19.7-16,33.8
		c1.3,11.5,12.3,15,17.7,14.1C302.8,687,308.8,675.2,305.6,665z"/>
	<path id="XMLID_66_" class="st16" d="M296.5,675.2c-1.6-7.1-5-10.7-6.8-12.6c-1,7.9-9.2,10.3-8.4,17.7c0.7,6.1,6.5,7.9,9.3,7.4
		C296.5,686.7,297.4,679.3,296.5,675.2z"/>
	<path id="XMLID_30_" class="st14" d="M297.4,674.1c-1.6-6.7-5.9-9.7-7.7-11.6c-1,7.9-9.2,10.3-8.4,17.7c0.7,6.1,6.5,7.9,9.3,7.4
		C296.5,686.7,298.4,678.3,297.4,674.1z"/>
	<path id="XMLID_67_" class="st17" d="M261.4,738.3l3.4,18.8c0.3,1.6,1.7,2.8,3.4,2.8h43.1c1.7,0,3.1-1.2,3.4-2.8l3.4-18.8H261.4z"
		/>
	<path id="XMLID_70_" class="st7" d="M261.4,738.3l3.4,18.8c0.3,1.6,1.7,2.8,3.4,2.8h43.1c1.7,0,3.1-1.2,3.4-2.8l3.4-18.8H261.4z"/>
	<line id="XMLID_69_" class="st7" x1="289.8" y1="690.8" x2="289.8" y2="751"/>
</g>
<g>
	<path id="XMLID_12_" class="st5" d="M306.8,465.1v-58h-34v58c0,3.2-2,6-5,7c-28.5,9.4-48.9,36.6-48,68.5c1,37,31.3,67.1,68.3,68
		c39.4,0.9,71.7-30.8,71.7-70c0-30.9-20.1-57.2-47.9-66.4C308.8,471,306.8,468.2,306.8,465.1z"/>
	<path id="XMLID_43_" class="st7" d="M306.8,465.1v-58h-34v58c0,3.2-2,6-5,7c-28.5,9.4-48.9,36.6-48,68.5c1,37,31.3,67.1,68.3,68
		c39.4,0.9,71.7-30.8,71.7-70c0-30.9-20.1-57.2-47.9-66.4C308.8,471,306.8,468.2,306.8,465.1z"/>
	<path id="XMLID_45_" class="st18" d="M347.3,521.5L347.3,521.5c-1.4-6.1-6.8-10.6-13.2-10.6c-3.1,0-6,1.1-8.3,2.9
		c-1.6-1.1-3.5-1.8-5.6-1.8c-2,0-3.9,0.6-5.4,1.7c0-0.3,0-0.5,0-0.8c0-5.3-4.3-9.5-9.5-9.5c-1.5,0-2.9,0.4-4.2,1
		c-3.3-4.9-8.9-8.1-15.3-8.1c-10.2,0-18.5,8.3-18.5,18.5c0,2.4,1.3,6.8,1.3,6.8c0-0.3,0,0,0-0.3c0-6.1-6.3-11.6-12.3-11.6
		s-11,4.9-11,11c0,0.3,0,0.6,0,0.8h-13.1c-1.7,5.9-2.6,12.2-2.4,18.7c0.4,15.3,6.7,29.8,17.7,40.7c11,10.9,25.5,17.2,40.8,17.5
		c0.5,0,1,0,1.5,0c0,0,0,0,0,0c16,0,31.1-6.2,42.4-17.6c11.3-11.3,17.6-26.4,17.6-42.4C349.8,532.6,348.9,526.9,347.3,521.5z"/>
	<path id="XMLID_60_" class="st7" d="M347.3,521.5L347.3,521.5c-1.4-6.1-6.8-10.6-13.2-10.6c-3.1,0-6,1.1-8.3,2.9
		c-1.6-1.1-3.5-1.8-5.6-1.8c-2,0-3.9,0.6-5.4,1.7c0-0.3,0-0.5,0-0.8c0-5.3-4.3-9.5-9.5-9.5c-1.5,0-2.9,0.4-4.2,1
		c-3.3-4.9-8.9-8.1-15.3-8.1c-10.2,0-18.5,8.3-18.5,18.5c0,2.4,1.3,6.8,1.3,6.8c0-0.3,0,0,0-0.3c0-6.1-6.3-11.6-12.3-11.6
		s-11,4.9-11,11c0,0.3,0,0.6,0,0.8h-13.1c-1.7,5.9-2.6,12.2-2.4,18.7c0.4,15.3,6.7,29.8,17.7,40.7c11,10.9,25.5,17.2,40.8,17.5
		c0.5,0,1,0,1.5,0c0,0,0,0,0,0c16,0,31.1-6.2,42.4-17.6c11.3-11.3,17.6-26.4,17.6-42.4C349.8,532.6,348.9,526.9,347.3,521.5z"/>
	<path id="XMLID_41_" class="st7" d="M247.2,526.8c-1.2-1.8-1.9-3.9-1.9-6.2c0-6.1,4.9-11,11-11c6.1,0,12.3,3,12.3,11"/>
	<path id="XMLID_44_" class="st7" d="M267.4,517.2c-0.1-0.8-0.2-1.7-0.2-2.5c0-10.2,8.3-18.5,18.5-18.5c6.4,0,12,3.2,15.3,8.1"/>
	<path id="XMLID_47_" class="st7" d="M296.2,509.7c0.8-2.4,2.6-4.3,4.8-5.4"/>
	<path id="XMLID_50_" class="st7" d="M301.1,504.3c1.3-0.6,2.7-1,4.2-1c5.3,0,9.5,4.3,9.5,9.5"/>
	<path id="XMLID_53_" class="st7" d="M316.2,512.8c1.2-0.6,2.6-0.9,4-0.9c2.1,0,4,0.7,5.6,1.8"/>
	<path id="XMLID_59_" class="st7" d="M320.5,524.5c0-4.4,2-8.2,5.2-10.7"/>
	<path id="XMLID_56_" class="st7" d="M325.8,513.8c2.3-1.8,5.2-2.9,8.3-2.9c6.5,0,11.9,4.5,13.2,10.6"/>
	<rect id="XMLID_63_" x="280.4" y="380" class="st19" width="18.7" height="35.5"/>
	<rect id="XMLID_62_" x="280.4" y="380" class="st7" width="18.7" height="35.5"/>
	<path id="XMLID_13_" class="st6" d="M310.8,407h-42c-4.4,0-8-3.6-8-8v0c0-4.4,3.6-8,8-8h42c4.4,0,8,3.6,8,8v0
		C318.8,403.5,315.2,407,310.8,407z"/>
	<path id="XMLID_15_" class="st7" d="M310.8,407h-42c-4.4,0-8-3.6-8-8v0c0-4.4,3.6-8,8-8h42c4.4,0,8,3.6,8,8v0
		C318.8,403.5,315.2,407,310.8,407z"/>
	<circle id="XMLID_71_" class="st18" cx="289.8" cy="470.8" r="7.5"/>
	<circle id="XMLID_68_" class="st14" cx="289.8" cy="470.8" r="7.5"/>
	<circle id="XMLID_72_" class="st18" cx="313.3" cy="496" r="4"/>
	<circle id="XMLID_73_" class="st7" cx="313.3" cy="496" r="4"/>
	<circle id="XMLID_74_" class="st7" cx="272.8" cy="487.6" r="1.7"/>
	<circle id="XMLID_75_" class="st10" cx="272.5" cy="550.3" r="4"/>
	<circle id="XMLID_78_" class="st10" cx="293.7" cy="570.6" r="6.4"/>
	<circle id="XMLID_82_" class="st10" cx="316.2" cy="552.7" r="2.3"/>
	<circle id="XMLID_81_" class="st10" cx="296.2" cy="534.7" r="1.6"/>
</g>
<rect id="XMLID_87_" x="408.7" y="423.6" class="st11" width="34" height="34"/>
<rect id="XMLID_9_" x="408.7" y="423.6" class="st7" width="34" height="34"/>
<g id="XMLID_90_">
	<path id="XMLID_92_" class="st5" d="M589.5,654c-2.2,0-4-1.8-4-4V520.3c0-21.7,17.6-39.3,39.3-39.3c21.7,0,39.3,17.6,39.3,39.3
		v90.2c0,2.2-1.8,4-4,4s-4-1.8-4-4v-90.2c0-17.3-14-31.3-31.3-31.3c-17.3,0-31.3,14-31.3,31.3V650C593.5,652.2,591.7,654,589.5,654z
		"/>
</g>
<g id="XMLID_89_">
	<path id="XMLID_91_" class="st7" d="M589.5,654c-2.2,0-4-1.8-4-4V520.3c0-21.7,17.6-39.3,39.3-39.3c21.7,0,39.3,17.6,39.3,39.3
		v90.2c0,2.2-1.8,4-4,4s-4-1.8-4-4v-90.2c0-17.3-14-31.3-31.3-31.3c-17.3,0-31.3,14-31.3,31.3V650C593.5,652.2,591.7,654,589.5,654z
		"/>
</g>
<g>
	<path id="XMLID_110_" class="st5" d="M660.1,737L660.1,737c-10.5,0-19-8.5-19-19V569h38v149C679.1,728.5,670.6,737,660.1,737z"/>
	<path id="XMLID_22_" class="st7" d="M660.1,737L660.1,737c-10.5,0-19-8.5-19-19V569h38v149C679.1,728.5,670.6,737,660.1,737z"/>
	<rect id="XMLID_112_" x="644.4" y="533.3" class="st19" width="31.5" height="35.7"/>
	<rect id="XMLID_111_" x="644.4" y="533.3" class="st7" width="31.5" height="35.7"/>
	<path id="XMLID_28_" class="st6" d="M682.1,553h-44c-4.4,0-8,3.6-8,8l0,0c0,4.4,3.6,8,8,8h44c4.4,0,8-3.6,8-8l0,0
		C690.1,556.6,686.5,553,682.1,553z"/>
	<path id="XMLID_21_" class="st7" d="M682.1,553h-44c-4.4,0-8,3.6-8,8l0,0c0,4.4,3.6,8,8,8h44c4.4,0,8-3.6,8-8l0,0
		C690.1,556.6,686.5,553,682.1,553z"/>
	<path id="XMLID_104_" class="st20" d="M650.1,687.2V718c0,5.5,4.5,10,10,10s10-4.5,10-10v-30.8H650.1z"/>
	<path id="XMLID_125_" class="st7" d="M650.1,687.2V718c0,5.5,4.5,10,10,10s10-4.5,10-10v-30.8H650.1z"/>
	<circle id="XMLID_48_" class="st20" cx="656.8" cy="661" r="3"/>
	<circle id="XMLID_46_" class="st7" cx="656.8" cy="661" r="3"/>
	<circle id="XMLID_122_" class="st20" cx="661.8" cy="630.8" r="5"/>
	<circle id="XMLID_137_" class="st7" cx="661.8" cy="630.8" r="5"/>
	<circle id="XMLID_147_" class="st20" cx="662.4" cy="676" r="2"/>
	<circle id="XMLID_144_" class="st7" cx="662.4" cy="676" r="2"/>
	<circle id="XMLID_139_" class="st10" cx="658.5" cy="709.4" r="1.8"/>
	<circle id="XMLID_142_" class="st10" cx="659.5" cy="699.2" r="2.9"/>
</g>
<g>
	<rect id="XMLID_94_" x="565.6" y="533.3" class="st19" width="31.5" height="35.7"/>
	<rect id="XMLID_93_" x="565.6" y="533.3" class="st7" width="31.5" height="35.7"/>
	<path id="XMLID_96_" class="st6" d="M603.4,553h-44c-4.4,0-8,3.6-8,8l0,0c0,4.4,3.6,8,8,8h44c4.4,0,8-3.6,8-8l0,0
		C611.4,556.6,607.8,553,603.4,553z"/>
	<path id="XMLID_19_" class="st7" d="M603.4,553h-44c-4.4,0-8,3.6-8,8l0,0c0,4.4,3.6,8,8,8h44c4.4,0,8-3.6,8-8l0,0
		C611.4,556.6,607.8,553,603.4,553z"/>
	<path id="XMLID_26_" class="st5" d="M581.4,737L581.4,737c-10.5,0-19-8.5-19-19V569h38v149C600.4,728.5,591.9,737,581.4,737z"/>
	<path id="XMLID_17_" class="st7" d="M581.4,737L581.4,737c-10.5,0-19-8.5-19-19V569h38v149C600.4,728.5,591.9,737,581.4,737z"/>
	<path id="XMLID_29_" class="st21" d="M571.4,638.3V718c0,5.5,4.5,10,10,10s10-4.5,10-10v-79.7H571.4z"/>
	<path id="XMLID_115_" class="st7" d="M571.4,638.3V718c0,5.5,4.5,10,10,10s10-4.5,10-10v-79.7H571.4z"/>
	<circle id="XMLID_171_" class="st10" cx="578.5" cy="674" r="2.9"/>
	<circle id="XMLID_174_" class="st10" cx="577.4" cy="622.3" r="1.9"/>
	<circle id="XMLID_173_" class="st10" cx="584.3" cy="650.1" r="1.2"/>
	<circle id="XMLID_172_" class="st10" cx="584.3" cy="693.5" r="1.2"/>
</g>
<rect id="XMLID_101_" x="500.1" y="595" class="st12" width="320" height="8"/>
<rect id="XMLID_16_" x="500.1" y="595" class="st7" width="320" height="8"/>
<rect id="XMLID_98_" x="371.1" y="362.4" class="st19" width="17.2" height="88.2"/>
<rect id="XMLID_95_" x="371.1" y="362.4" class="st7" width="17.2" height="88.2"/>
<rect id="XMLID_39_" x="325.5" y="435.6" class="st11" width="83.2" height="10"/>
<rect id="XMLID_10_" x="325.5" y="435.6" class="st7" width="83.2" height="10"/>
<path id="XMLID_40_" class="st11" d="M259.8,453.6h60c7.2,0,13-5.8,13-13v0c0-7.2-5.8-13-13-13h-60c-7.2,0-13,5.8-13,13v0
	C246.8,447.8,252.6,453.6,259.8,453.6z"/>
<path id="XMLID_11_" class="st7" d="M259.8,453.6h60c7.2,0,13-5.8,13-13v0c0-7.2-5.8-13-13-13h-60c-7.2,0-13,5.8-13,13v0
	C246.8,447.8,252.6,453.6,259.8,453.6z"/>
<line id="XMLID_23_" class="st22" x1="133.8" y1="770" x2="883.8" y2="770"/>
</svg>
