<?xml version="1.0" encoding="utf-8"?>
<!-- Generator: Adobe Illustrator 23.1.1, SVG Export Plug-In . SVG Version: 6.00 Build 0)  -->
<svg version="1.1" id="Layer_1" xmlns="http://www.w3.org/2000/svg" xmlns:xlink="http://www.w3.org/1999/xlink" x="0px" y="0px"
	 viewBox="0 0 1000 1000" style="enable-background:new 0 0 1000 1000;" xml:space="preserve">
<style type="text/css">
	.st0{fill:#EAECEF;}
	.st1{fill:#2D425E;}
	.st2{fill:#C9C9C9;}
	.st3{fill:#CECECE;}
	.st4{fill:#FFFFFF;}
	.st5{fill:none;stroke:#1F3969;stroke-width:4;stroke-linecap:round;stroke-linejoin:round;stroke-miterlimit:10;}
	.st6{fill:#FF3E3E;}
	.st7{opacity:0.28;fill:#1F3969;stroke:#1F3969;stroke-width:4;stroke-linecap:round;stroke-linejoin:round;stroke-miterlimit:10;}
	.st8{fill:#50B56F;}
	.st9{fill:#5F5AFF;}
	.st10{fill:#F6F9FD;}
	.st11{fill:#BFCFE2;}
	.st12{fill:#D0DDF0;}
	.st13{fill:#2AA1FF;}
	.st14{opacity:0.34;fill:none;stroke:#FFFFFF;stroke-width:2;stroke-linecap:round;stroke-linejoin:round;stroke-miterlimit:10;}
	.st15{opacity:0.34;}
	.st16{fill:none;stroke:#FFFFFF;stroke-width:2;stroke-linecap:round;stroke-linejoin:round;stroke-miterlimit:10;}
	.st17{fill:#1F3969;}
	.st18{fill:none;stroke:#FFFFFF;stroke-width:4;stroke-linecap:round;stroke-linejoin:round;stroke-miterlimit:10;}
	.st19{fill:none;stroke:#7BFFA0;stroke-width:4;stroke-linecap:round;stroke-linejoin:round;stroke-miterlimit:10;}
	.st20{fill:none;stroke:#9169FF;stroke-width:4;stroke-linecap:round;stroke-linejoin:round;stroke-miterlimit:10;}
	.st21{fill:none;stroke:#FFC47D;stroke-width:4;stroke-linecap:round;stroke-linejoin:round;stroke-miterlimit:10;}
	.st22{fill:none;stroke:#FF5757;stroke-width:4;stroke-linecap:round;stroke-linejoin:round;stroke-miterlimit:10;}
	.st23{fill:#FFA364;}
	.st24{fill:#FF5252;}
	.st25{fill:#6567C3;}
</style>
<rect class="st0" width="1000" height="1000"/>
<g>
	<g>
		<g>
			<path class="st1" d="M63.2,959.2c0,2.5-1.2,3.7-2.6,3.7c-1.1,0-1.9-0.5-2.1-1.4c-0.4,0.5-1,0.8-1.8,0.8c-1.5,0-2.6-1.2-2.6-2.8
				c0-1.6,1.1-2.8,2.6-2.8c0.7,0,1.2,0.3,1.6,0.7v-0.5h1.6v3.9c0,0.8,0.3,1.4,1,1.4c0.9,0,1.7-0.9,1.7-3c0-3-2.3-5.3-5.4-5.3
				c-3.1,0-5.6,2.4-5.6,5.7c0,3.3,2.5,5.7,5.9,5.7c1.1,0,2.1-0.2,2.9-0.4v0.6c-0.8,0.3-1.7,0.4-2.9,0.4c-3.7,0-6.5-2.6-6.5-6.2
				c0-3.4,2.7-6.2,6.2-6.2C61.1,953.3,63.2,956.4,63.2,959.2z M58.3,959.5c0-0.8-0.6-1.4-1.3-1.4c-0.8,0-1.3,0.5-1.3,1.4
				c0,0.8,0.6,1.3,1.3,1.3C57.8,960.9,58.3,960.3,58.3,959.5z"/>
		</g>
		<g>
			<path class="st1" d="M69.4,955.1v2c-1.2-0.1-2.6,0.5-2.6,2.4v4.3h-1.9v-8.6h1.9v1.4C67.3,955.5,68.3,955.1,69.4,955.1z"/>
		</g>
		<g>
			<path class="st1" d="M74.6,962.3c1,0,1.8-0.5,2.2-1.1l1.5,0.9c-0.8,1.2-2.1,1.9-3.8,1.9c-2.8,0-4.7-1.9-4.7-4.5
				c0-2.5,1.8-4.5,4.5-4.5c2.6,0,4.3,2.1,4.3,4.5c0,0.3,0,0.5-0.1,0.8h-6.8C72.1,961.6,73.2,962.3,74.6,962.3z M76.9,958.8
				c-0.3-1.5-1.3-2.1-2.5-2.1c-1.4,0-2.3,0.8-2.6,2.1H76.9z"/>
		</g>
		<g>
			<path class="st1" d="M88.9,955.2v8.6h-1.9v-1.2c-0.7,0.9-1.7,1.5-3,1.5c-2.3,0-4.3-2-4.3-4.5c0-2.6,1.9-4.5,4.3-4.5
				c1.3,0,2.3,0.5,3,1.4v-1.2H88.9z M87.1,959.5c0-1.6-1.2-2.7-2.7-2.7c-1.5,0-2.7,1.1-2.7,2.7c0,1.6,1.2,2.7,2.7,2.7
				C85.9,962.3,87.1,961.1,87.1,959.5z"/>
		</g>
		<g>
			<path class="st1" d="M91.1,951.3H93v12.5h-1.9V951.3z"/>
		</g>
		<g>
			<path class="st1" d="M102.9,955.2l-3.3,8.6h-2.1l-3.3-8.6h2l2.4,6.5l2.4-6.5H102.9z"/>
		</g>
		<g>
			<path class="st1" d="M104.2,955.2h1.9v8.9c0,2.4-1.2,3.5-3.5,3.3v-1.8c1.1,0.1,1.7-0.3,1.7-1.5V955.2z M104,952.8
				c0-0.7,0.5-1.2,1.2-1.2c0.7,0,1.2,0.5,1.2,1.2c0,0.6-0.5,1.2-1.2,1.2C104.5,954,104,953.4,104,952.8z"/>
		</g>
		<g>
			<path class="st1" d="M116,955.2l-3.3,8.8c-0.8,2.2-2.2,3.3-4.2,3.2v-1.7c1.2,0.1,1.9-0.5,2.3-1.7l0.1-0.2l-3.6-8.4h2l2.6,6.2
				l2.2-6.2H116z"/>
		</g>
	</g>
	<g>
		<path class="st1" d="M211.9,938.7c0,2.1-1.5,3.8-3.6,3.8h-3v-7.6h3C210.4,934.9,211.9,936.6,211.9,938.7z M210.9,938.7
			c0-1.6-1.1-2.9-2.6-2.9h-2v5.7h2C209.8,941.6,210.9,940.3,210.9,938.7z"/>
		<path class="st1" d="M219.5,940.8h-3.4l-0.6,1.7h-1.1l2.8-7.6h1.1l2.8,7.6h-1.1L219.5,940.8z M219.2,939.9l-1.4-3.8l-1.4,3.8
			H219.2z"/>
		<path class="st1" d="M226.4,939.4v3.1h-1v-3.1l-2.7-4.5h1.1l2.1,3.6l2.1-3.6h1.1L226.4,939.4z"/>
		<path class="st1" d="M241.6,938.8L241.6,938.8l-2.5,3.7H238l1.8-2.7c-0.1,0-0.2,0-0.4,0c-1.5,0-2.6-1-2.6-2.6
			c0-1.5,1.1-2.6,2.6-2.6s2.6,1,2.6,2.6C242.1,937.9,241.9,938.4,241.6,938.8z M239.4,938.9c1,0,1.6-0.6,1.6-1.6s-0.7-1.6-1.6-1.6
			s-1.6,0.6-1.6,1.6C237.8,938.3,238.5,938.9,239.4,938.9z"/>
		<path class="st1" d="M249.8,940.3c0,1.5-1.2,2.4-2.6,2.4c-1.1,0-2.1-0.5-2.5-1.5l0.9-0.5c0.2,0.7,0.8,1.1,1.7,1.1
			c0.9,0,1.6-0.5,1.6-1.4c0-0.9-0.7-1.4-1.6-1.4h-0.3l-0.4-0.6l1.8-2.4h-3.4v-0.9h4.6v0.9l-1.7,2.2
			C248.9,938.2,249.8,939,249.8,940.3z"/>
	</g>
	<g>
		<path class="st1" d="M58.9,938.7c0,2.1-1.5,3.8-3.6,3.8h-3v-7.6h3C57.4,934.9,58.9,936.6,58.9,938.7z M57.9,938.7
			c0-1.6-1.1-2.9-2.6-2.9h-2v5.7h2C56.8,941.6,57.9,940.3,57.9,938.7z"/>
		<path class="st1" d="M67,941.6v1h-4.6v-7.6h4.5v1h-3.5v2.3h3.2v0.9h-3.2v2.4H67z"/>
		<path class="st1" d="M70,940.8l0.9-0.5c0.3,0.8,0.9,1.4,2,1.4c1.1,0,1.6-0.5,1.6-1.2c0-0.8-0.7-1-1.8-1.4
			c-1.2-0.4-2.4-0.8-2.4-2.2c0-1.4,1.1-2.2,2.4-2.2c1.3,0,2.2,0.7,2.6,1.7l-0.8,0.5c-0.3-0.7-0.8-1.2-1.7-1.2
			c-0.8,0-1.4,0.4-1.4,1.1c0,0.7,0.5,1,1.6,1.3c1.3,0.4,2.6,0.8,2.6,2.3c0,1.3-1.1,2.2-2.6,2.2C71.5,942.7,70.4,941.9,70,940.8z"/>
		<path class="st1" d="M80,934.9v7.6h-1v-7.6H80z"/>
		<path class="st1" d="M91.3,939.2c0,1.9-1.4,3.5-3.7,3.5c-2.4,0-4-1.8-4-4c0-2.2,1.7-4,4-4c1.4,0,2.7,0.8,3.3,1.8l-0.9,0.5
			c-0.4-0.8-1.4-1.4-2.4-1.4c-1.8,0-3,1.3-3,3c0,1.7,1.2,3,3,3c1.6,0,2.5-0.9,2.7-2h-2.8v-0.9h3.8V939.2z"/>
		<path class="st1" d="M100.6,934.9v7.6h-0.8l-3.9-5.7v5.7h-1v-7.6h0.8l3.9,5.7v-5.7H100.6z"/>
		<path class="st1" d="M109.1,941.6v1h-4.6v-7.6h4.5v1h-3.5v2.3h3.2v0.9h-3.2v2.4H109.1z"/>
		<path class="st1" d="M119.2,938.7c0,2.1-1.5,3.8-3.6,3.8h-3v-7.6h3C117.6,934.9,119.2,936.6,119.2,938.7z M118.2,938.7
			c0-1.6-1.1-2.9-2.6-2.9h-2v5.7h2C117.1,941.6,118.2,940.3,118.2,938.7z"/>
		<path class="st1" d="M133.2,940.4c0,1.2-1,2.2-2.2,2.2h-3.3v-7.6h3c1.2,0,2.1,0.9,2.1,2.1c0,0.7-0.3,1.2-0.8,1.6
			C132.7,938.9,133.2,939.5,133.2,940.4z M128.7,935.8v2.3h2c0.6,0,1.1-0.5,1.1-1.2c0-0.6-0.5-1.2-1.1-1.2H128.7z M132.2,940.3
			c0-0.7-0.5-1.2-1.2-1.2h-2.3v2.5h2.3C131.7,941.6,132.2,941,132.2,940.3z"/>
		<path class="st1" d="M139.4,939.4v3.1h-1v-3.1l-2.7-4.5h1.1l2.1,3.6l2.1-3.6h1.1L139.4,939.4z"/>
	</g>
	<g>
		<path class="st1" d="M214.1,956c0,2.3-1.8,4.1-4.1,4.1h-2.5v4.2h-2v-12.4h4.6C212.4,951.9,214.1,953.7,214.1,956z M212.1,956
			c0-1.3-0.9-2.2-2.1-2.2h-2.5v4.3h2.5C211.2,958.1,212.1,957.2,212.1,956z"/>
		<path class="st1" d="M220.2,955.3v2.1c-1.3-0.1-2.7,0.5-2.7,2.5v4.5h-1.9v-8.9h1.9v1.5C218,955.7,219.1,955.3,220.2,955.3z"/>
		<path class="st1" d="M220.8,959.9c0-2.6,2.1-4.7,4.7-4.7c2.6,0,4.7,2,4.7,4.7c0,2.6-2.1,4.7-4.7,4.7
			C222.8,964.5,220.8,962.5,220.8,959.9z M228.2,959.9c0-1.6-1.2-2.8-2.8-2.8s-2.8,1.2-2.8,2.8c0,1.6,1.2,2.8,2.8,2.8
			S228.2,961.5,228.2,959.9z"/>
		<path class="st1" d="M240.8,955.4v8.4c0,2.8-2.2,4.2-4.5,4.2c-1.9,0-3.5-0.7-4.2-2.1l1.6-1c0.4,0.8,1,1.4,2.6,1.4
			c1.6,0,2.6-0.9,2.6-2.4v-1.1c-0.7,1-1.7,1.5-3.1,1.5c-2.5,0-4.5-2-4.5-4.6s2-4.6,4.5-4.6c1.4,0,2.4,0.6,3.1,1.5v-1.3H240.8z
			 M238.9,959.8c0-1.6-1.2-2.8-2.8-2.8c-1.6,0-2.8,1.2-2.8,2.8s1.2,2.8,2.8,2.8C237.7,962.6,238.9,961.4,238.9,959.8z"/>
		<path class="st1" d="M247.6,955.3v2.1c-1.3-0.1-2.7,0.5-2.7,2.5v4.5H243v-8.9h1.9v1.5C245.4,955.7,246.5,955.3,247.6,955.3z"/>
		<path class="st1" d="M257.6,955.4v8.9h-1.9V963c-0.7,0.9-1.7,1.5-3.1,1.5c-2.4,0-4.4-2-4.4-4.7c0-2.6,2-4.7,4.4-4.7
			c1.4,0,2.4,0.6,3.1,1.5v-1.3H257.6z M255.7,959.9c0-1.6-1.2-2.8-2.8-2.8c-1.6,0-2.8,1.2-2.8,2.8c0,1.6,1.2,2.8,2.8,2.8
			C254.4,962.7,255.7,961.5,255.7,959.9z"/>
		<path class="st1" d="M272.8,958.8v5.5h-1.9v-5.4c0-1.2-0.7-1.9-1.7-1.9c-1.1,0-1.9,0.7-1.9,2.3v5h-1.9v-5.4c0-1.2-0.6-1.9-1.7-1.9
			c-1.1,0-2,0.7-2,2.3v5h-1.9v-8.9h1.9v1.1c0.6-0.9,1.4-1.3,2.5-1.3c1.2,0,2,0.5,2.5,1.4c0.6-0.9,1.5-1.4,2.7-1.4
			C271.5,955.2,272.8,956.6,272.8,958.8z"/>
		<path class="st1" d="M274.6,952.9c0-0.7,0.5-1.2,1.2-1.2c0.7,0,1.2,0.5,1.2,1.2c0,0.7-0.5,1.2-1.2,1.2
			C275.1,954.1,274.6,953.6,274.6,952.9z M274.9,955.4h1.9v8.9h-1.9V955.4z"/>
		<path class="st1" d="M287,958.9v5.4h-1.9v-5.2c0-1.3-0.8-2.1-2-2.1c-1.3,0-2.2,0.7-2.2,2.5v4.7H279v-8.9h1.9v1.1
			c0.6-0.9,1.5-1.4,2.7-1.4C285.6,955.2,287,956.6,287,958.9z"/>
		<path class="st1" d="M298,955.4v8.4c0,2.8-2.2,4.2-4.5,4.2c-1.9,0-3.5-0.7-4.2-2.1l1.6-1c0.4,0.8,1,1.4,2.6,1.4
			c1.6,0,2.6-0.9,2.6-2.4v-1.1c-0.7,1-1.7,1.5-3.1,1.5c-2.5,0-4.5-2-4.5-4.6s2-4.6,4.5-4.6c1.4,0,2.4,0.6,3.1,1.5v-1.3H298z
			 M296.1,959.8c0-1.6-1.2-2.8-2.8-2.8c-1.6,0-2.8,1.2-2.8,2.8s1.2,2.8,2.8,2.8C294.9,962.6,296.1,961.4,296.1,959.8z"/>
	</g>
	<g>
		<g>
			<g>
				<path class="st1" d="M846.1,938.7c0,2.1-1.5,3.8-3.6,3.8h-3v-7.6h3C844.6,934.9,846.1,936.6,846.1,938.7z M845.2,938.7
					c0-1.6-1.1-2.9-2.6-2.9h-2v5.7h2C844.1,941.6,845.2,940.3,845.2,938.7z"/>
			</g>
			<g>
				<path class="st1" d="M849.3,938.7c0-2.2,1.7-4,3.9-4c2.2,0,4,1.8,4,4c0,2.2-1.7,4-4,4C851,942.7,849.3,940.9,849.3,938.7z
					 M856.1,938.7c0-1.7-1.3-3-2.9-3c-1.7,0-2.9,1.3-2.9,3c0,1.7,1.3,3,2.9,3C854.9,941.7,856.1,940.4,856.1,938.7z"/>
			</g>
			<g>
				<path class="st1" d="M859.8,934.9h1.1l1.7,6.3l1.9-6.3h1l1.9,6.3l1.7-6.3h1.1l-2.2,7.6h-1.2l-1.8-6.1l-1.8,6.1H862L859.8,934.9z
					"/>
			</g>
			<g>
				<path class="st1" d="M879.3,934.9v7.6h-0.8l-3.9-5.7v5.7h-1v-7.6h0.8l3.9,5.7v-5.7H879.3z"/>
			</g>
			<g>
				<path class="st1" d="M887.5,941.6v1h-4.3v-7.6h1v6.7H887.5z"/>
			</g>
			<g>
				<path class="st1" d="M889.9,938.7c0-2.2,1.7-4,3.9-4c2.2,0,4,1.8,4,4c0,2.2-1.7,4-4,4C891.6,942.7,889.9,940.9,889.9,938.7z
					 M896.8,938.7c0-1.7-1.3-3-2.9-3c-1.7,0-2.9,1.3-2.9,3c0,1.7,1.3,3,2.9,3C895.5,941.7,896.8,940.4,896.8,938.7z"/>
			</g>
			<g>
				<path class="st1" d="M905.4,940.8H902l-0.6,1.7h-1.1l2.8-7.6h1.1l2.8,7.6H906L905.4,940.8z M905.1,939.9l-1.4-3.8l-1.4,3.8
					H905.1z"/>
			</g>
			<g>
				<path class="st1" d="M916.9,938.7c0,2.1-1.5,3.8-3.6,3.8h-3v-7.6h3C915.4,934.9,916.9,936.6,916.9,938.7z M915.9,938.7
					c0-1.6-1.1-2.9-2.6-2.9h-2v5.7h2C914.9,941.6,915.9,940.3,915.9,938.7z"/>
			</g>
			<g>
				<path class="st1" d="M926.5,935.8v2.5h3.2v1h-3.2v3.2h-1v-7.6h4.4v1H926.5z"/>
			</g>
			<g>
				<path class="st1" d="M936.2,939.6h-1.8v2.9h-1v-7.6h3c1.3,0,2.4,1.1,2.4,2.4c0,1-0.7,1.9-1.6,2.2l1.8,3.1h-1.1L936.2,939.6z
					 M934.4,938.7h2c0.8,0,1.4-0.6,1.4-1.4c0-0.8-0.6-1.4-1.4-1.4h-2V938.7z"/>
			</g>
			<g>
				<path class="st1" d="M941.9,938.7c0-2.2,1.7-4,3.9-4c2.2,0,4,1.8,4,4c0,2.2-1.7,4-4,4C943.6,942.7,941.9,940.9,941.9,938.7z
					 M948.8,938.7c0-1.7-1.3-3-2.9-3c-1.7,0-2.9,1.3-2.9,3c0,1.7,1.3,3,2.9,3C947.5,941.7,948.8,940.4,948.8,938.7z"/>
			</g>
			<g>
				<path class="st1" d="M960.4,942.5h-1v-6l-2.5,4.2h-0.1l-2.5-4.1v5.9h-1v-7.6h1.1l2.4,4l2.4-4h1.1V942.5z"/>
			</g>
		</g>
		<g>
			<g>
				<path class="st1" d="M839.3,952.9c0-0.7,0.5-1.2,1.2-1.2c0.7,0,1.2,0.5,1.2,1.2c0,0.7-0.5,1.2-1.2,1.2
					C839.9,954.1,839.3,953.6,839.3,952.9z M839.6,955.4h1.9v8.9h-1.9V955.4z"/>
			</g>
			<g>
				<path class="st1" d="M843.7,951.4h1.9v12.9h-1.9V951.4z"/>
			</g>
			<g>
				<path class="st1" d="M847.8,951.4h1.9v12.9h-1.9V951.4z"/>
			</g>
			<g>
				<path class="st1" d="M852,951.4h1.9v12.9H852V951.4z"/>
			</g>
			<g>
				<path class="st1" d="M864,955.4v8.9h-1.9v-1.1c-0.6,0.9-1.5,1.4-2.7,1.4c-2,0-3.4-1.3-3.4-3.6v-5.4h1.9v5.2c0,1.3,0.8,2.1,2,2.1
					c1.3,0,2.2-0.7,2.2-2.5v-4.7H864z"/>
			</g>
			<g>
				<path class="st1" d="M872.6,961.8c0,1.8-1.5,2.7-3.5,2.7c-1.8,0-3-0.8-3.6-2.1l1.6-1c0.3,0.8,1,1.3,2,1.3c0.8,0,1.5-0.3,1.5-1
					c0-1.6-4.8-0.7-4.8-3.9c0-1.7,1.4-2.7,3.2-2.7c1.5,0,2.7,0.7,3.3,1.8l-1.6,0.9c-0.3-0.7-0.9-1-1.7-1c-0.7,0-1.3,0.3-1.3,0.9
					C867.9,959.5,872.6,958.5,872.6,961.8z"/>
			</g>
			<g>
				<path class="st1" d="M876.7,957.3v4.2c0,1.1,0.7,1.1,2.2,1v1.7c-2.9,0.4-4.1-0.5-4.1-2.8v-4.2h-1.6v-1.8h1.6v-1.9l1.9-0.6v2.5
					h2.2v1.8H876.7z"/>
			</g>
			<g>
				<path class="st1" d="M885.4,955.3v2.1c-1.3-0.1-2.7,0.5-2.7,2.5v4.5h-1.9v-8.9h1.9v1.5C883.2,955.7,884.2,955.3,885.4,955.3z"/>
			</g>
			<g>
				<path class="st1" d="M895.3,955.4v8.9h-1.9V963c-0.7,0.9-1.7,1.5-3.1,1.5c-2.4,0-4.4-2-4.4-4.7c0-2.6,2-4.7,4.4-4.7
					c1.4,0,2.4,0.6,3.1,1.5v-1.3H895.3z M893.4,959.9c0-1.6-1.2-2.8-2.8-2.8c-1.6,0-2.8,1.2-2.8,2.8c0,1.6,1.2,2.8,2.8,2.8
					C892.2,962.7,893.4,961.5,893.4,959.9z"/>
			</g>
			<g>
				<path class="st1" d="M900.3,957.3v4.2c0,1.1,0.7,1.1,2.2,1v1.7c-2.9,0.4-4.1-0.5-4.1-2.8v-4.2h-1.6v-1.8h1.6v-1.9l1.9-0.6v2.5
					h2.2v1.8H900.3z"/>
			</g>
			<g>
				<path class="st1" d="M903.9,952.9c0-0.7,0.5-1.2,1.2-1.2c0.7,0,1.2,0.5,1.2,1.2c0,0.7-0.5,1.2-1.2,1.2
					C904.5,954.1,903.9,953.6,903.9,952.9z M904.2,955.4h1.9v8.9h-1.9V955.4z"/>
			</g>
			<g>
				<path class="st1" d="M907.8,959.9c0-2.6,2.1-4.7,4.7-4.7c2.6,0,4.7,2,4.7,4.7c0,2.6-2.1,4.7-4.7,4.7
					C909.9,964.5,907.8,962.5,907.8,959.9z M915.3,959.9c0-1.6-1.2-2.8-2.8-2.8c-1.6,0-2.8,1.2-2.8,2.8c0,1.6,1.2,2.8,2.8,2.8
					C914.1,962.7,915.3,961.5,915.3,959.9z"/>
			</g>
			<g>
				<path class="st1" d="M927,958.9v5.4h-1.9v-5.2c0-1.3-0.8-2.1-2-2.1c-1.3,0-2.2,0.7-2.2,2.5v4.7h-1.9v-8.9h1.9v1.1
					c0.6-0.9,1.5-1.4,2.7-1.4C925.5,955.2,927,956.6,927,958.9z"/>
			</g>
			<g>
				<path class="st1" d="M935.5,961.8c0,1.8-1.5,2.7-3.5,2.7c-1.8,0-3-0.8-3.6-2.1l1.6-1c0.3,0.8,1,1.3,2,1.3c0.8,0,1.5-0.3,1.5-1
					c0-1.6-4.8-0.7-4.8-3.9c0-1.7,1.4-2.7,3.2-2.7c1.5,0,2.7,0.7,3.3,1.8l-1.6,0.9c-0.3-0.7-0.9-1-1.7-1c-0.7,0-1.3,0.3-1.3,0.9
					C930.7,959.5,935.5,958.5,935.5,961.8z"/>
			</g>
			<g>
				<path class="st1" d="M936.8,963.2c0-0.7,0.6-1.3,1.3-1.3c0.7,0,1.3,0.6,1.3,1.3c0,0.7-0.6,1.3-1.3,1.3
					C937.4,964.5,936.8,963.9,936.8,963.2z"/>
			</g>
			<g>
				<path class="st1" d="M940.3,959.9c0-2.6,2-4.7,4.7-4.7c1.7,0,3.2,0.9,3.9,2.3l-1.6,1c-0.4-0.8-1.3-1.4-2.3-1.4
					c-1.6,0-2.7,1.2-2.7,2.8c0,1.6,1.2,2.8,2.7,2.8c1.1,0,1.9-0.5,2.4-1.4l1.6,0.9c-0.7,1.4-2.2,2.3-4,2.3
					C942.3,964.5,940.3,962.5,940.3,959.9z"/>
			</g>
			<g>
				<path class="st1" d="M949.7,959.9c0-2.6,2.1-4.7,4.7-4.7c2.6,0,4.7,2,4.7,4.7c0,2.6-2.1,4.7-4.7,4.7
					C951.8,964.5,949.7,962.5,949.7,959.9z M957.2,959.9c0-1.6-1.2-2.8-2.8-2.8s-2.8,1.2-2.8,2.8c0,1.6,1.2,2.8,2.8,2.8
					S957.2,961.5,957.2,959.9z"/>
			</g>
		</g>
	</g>
</g>
<g id="XMLID_34_">
	<path id="XMLID_223_" class="st2" d="M789.5,666.3H169.2c-5,0-9-4-9-9v0c0-5,4-9,9-9h620.3c5,0,9,4,9,9v0
		C798.5,662.3,794.5,666.3,789.5,666.3z"/>
	<g id="XMLID_19_">
		<g id="XMLID_163_">
			<path id="XMLID_178_" class="st3" d="M285.9,573.3c-9.6,0-17.3-7.8-17.3-17.3s7.8-17.3,17.3-17.3h98v34.7H285.9z"/>
			<path id="XMLID_162_" class="st4" d="M389.6,579.3H285.9c-12.9,0-23.3-10.5-23.3-23.3l0,0c0-12.9,10.5-23.3,23.3-23.3h103.7
				V579.3z"/>
			<line id="XMLID_164_" class="st5" x1="279.5" y1="550.6" x2="383.9" y2="550.6"/>
			<line id="XMLID_173_" class="st5" x1="279.5" y1="561.2" x2="383.9" y2="561.2"/>
			<path id="XMLID_179_" class="st5" d="M285.9,573.3c-9.6,0-17.3-7.8-17.3-17.3s7.8-17.3,17.3-17.3h98v34.7H285.9z"/>
			<path id="XMLID_161_" class="st6" d="M285.9,573.3c-9.6,0-17.3-7.8-17.3-17.3s7.8-17.3,17.3-17.3h99.7l4-6H285.9
				c-12.9,0-23.3,10.5-23.3,23.3v0c0,12.9,10.5,23.3,23.3,23.3h103.7l-4-6H285.9z"/>
			<path id="XMLID_182_" class="st5" d="M285.9,573.3c-9.6,0-17.3-7.8-17.3-17.3s7.8-17.3,17.3-17.3h99.7l4-6H285.9
				c-12.9,0-23.3,10.5-23.3,23.3v0c0,12.9,10.5,23.3,23.3,23.3h103.7l-4-6H285.9z"/>
			<rect id="XMLID_224_" x="348.9" y="532.6" class="st7" width="18.4" height="46.7"/>
		</g>
		<g id="XMLID_160_">
			<path id="XMLID_157_" class="st8" d="M378.9,617.8H189c-3.7,0-6.8-3-6.8-6.8v-25c0-3.7,3-6.8,6.8-6.8h189.9c3.7,0,6.8,3,6.8,6.8
				v25C385.7,614.8,382.7,617.8,378.9,617.8z"/>
			<g>
				<path class="st4" d="M240.3,599.8h-2.6v5.5H236V592h4.3c3.1,0,4.6,1.7,4.6,3.9C244.9,597.9,243.6,599.8,240.3,599.8z
					 M240.3,598.3c2,0,2.8-0.9,2.8-2.4c0-1.5-0.8-2.5-2.8-2.5h-2.6v4.9H240.3z"/>
				<path class="st4" d="M249.7,592h1.9l3.3,6.7l3.3-6.7h1.9l-4.3,8.3v5h-1.7v-5L249.7,592z"/>
				<path class="st4" d="M264.9,592h9v1.4h-3.6v11.9h-1.7v-11.9h-3.6V592z"/>
				<path class="st4" d="M288.4,599.3h-6.8v6h-1.7V592h1.7v5.8h6.8V592h1.7v13.3h-1.7V599.3z"/>
				<path class="st4" d="M302.9,605.4c-3.7,0-6.7-2.8-6.7-6.8c0-4,2.9-6.8,6.7-6.8c3.8,0,6.7,2.8,6.7,6.8
					C309.5,602.6,306.6,605.4,302.9,605.4z M302.9,603.9c2.8,0,4.9-2,4.9-5.3c0-3.3-2.1-5.3-4.9-5.3s-4.9,2-4.9,5.3
					C298,601.9,300.1,603.9,302.9,603.9z"/>
				<path class="st4" d="M326.1,592v13.3h-1.7l-7-10.6v10.6h-1.7V592h1.7l7,10.5V592H326.1z"/>
			</g>
			<path id="XMLID_146_" class="st5" d="M378.9,617.8H189c-3.7,0-6.8-3-6.8-6.8v-25c0-3.7,3-6.8,6.8-6.8h189.9c3.7,0,6.8,3,6.8,6.8
				v25C385.7,614.8,382.7,617.8,378.9,617.8z"/>
		</g>
		<path id="XMLID_246_" class="st7" d="M378.9,579.3h-30v15c0,9.4,7.6,17.1,17.1,17.1h19.7c0-0.1,0-0.2,0-0.3v-25
			C385.7,582.3,382.7,579.3,378.9,579.3z"/>
		<path id="XMLID_35_" class="st3" d="M432.4,625.6H212.4c1.3,3.2,2,7.2,2,11.4c0,4.2-0.7,8.1-2,11.4h219.9c-1.3-3.2-2-7.2-2-11.4
			C430.4,632.7,431.1,628.8,432.4,625.6z"/>
		<rect id="XMLID_156_" x="206.5" y="619.5" class="st9" width="231.9" height="6"/>
		<rect id="XMLID_32_" x="206.5" y="619.5" class="st5" width="231.9" height="6"/>
		<rect id="XMLID_147_" x="206.5" y="648.3" class="st10" width="231.9" height="6"/>
		<rect id="XMLID_39_" x="206.5" y="648.3" class="st9" width="231.9" height="6"/>
		<rect id="XMLID_37_" x="206.5" y="648.3" class="st5" width="231.9" height="6"/>
		<path id="XMLID_69_" class="st11" d="M553.6,633l-3-33.7h-49.4l-3,33.7c-0.7,7.8-5.4,15.3-12.8,21.3l0,0.1h81l0-0.1
			C559,648.3,554.3,640.8,553.6,633z"/>
		<polygon id="XMLID_33_" class="st7" points="501.2,599.3 499.4,619.5 552.4,619.5 550.6,599.3 		"/>
		<path id="XMLID_10_" class="st5" d="M553.6,633l-3-33.7h-49.4l-3,33.7c-0.7,7.8-5.4,15.3-12.8,21.3l0,0.1h81l0-0.1
			C559,648.3,554.3,640.8,553.6,633z"/>
		<path id="XMLID_13_" class="st4" d="M683.9,604.3h-316c-6.6,0-12-5.4-12-12v-206c0-6.6,5.4-12,12-12h316c6.6,0,12,5.4,12,12v206
			C695.9,599,690.5,604.3,683.9,604.3z"/>
		<path id="XMLID_63_" class="st11" d="M683.9,604.3h-316c-6.6,0-12-5.4-12-12v-206c0-6.6,5.4-12,12-12h316c6.6,0,12,5.4,12,12v206
			C695.9,599,690.5,604.3,683.9,604.3z"/>
		<path id="XMLID_4_" class="st5" d="M683.9,604.3h-316c-6.6,0-12-5.4-12-12v-206c0-6.6,5.4-12,12-12h316c6.6,0,12,5.4,12,12v206
			C695.9,599,690.5,604.3,683.9,604.3z"/>
		
			<rect id="XMLID_68_" x="438.6" y="325.6" transform="matrix(-1.836970e-16 1 -1 -1.836970e-16 1004.5556 -47.2719)" class="st10" width="174.6" height="306"/>
		<path id="XMLID_197_" class="st7" d="M383.9,374.3v138.6c0,4.4,3.6,8,8,8H581c4.4,0,8-3.6,8-8V374.3H383.9z"/>
		
			<rect id="XMLID_11_" x="438.6" y="325.6" transform="matrix(-1.836970e-16 1 -1 -1.836970e-16 1004.5556 -47.2719)" class="st5" width="174.6" height="306"/>
		<line id="XMLID_9_" class="st5" x1="512.5" y1="585" x2="539.4" y2="585"/>
		<path id="XMLID_15_" class="st1" d="M590,509.9H400.9c-4.4,0-8-3.6-8-8V353.7c0-4.4,3.6-8,8-8H590c4.4,0,8,3.6,8,8v148.3
			C598,506.4,594.4,509.9,590,509.9z"/>
		<path id="XMLID_17_" class="st5" d="M598,365.1H392.9v-11.5c0-4.4,3.6-8,8-8H590c4.4,0,8,3.6,8,8V365.1z"/>
		<path id="XMLID_23_" class="st12" d="M598,368.9H392.9v-15.3c0-4.4,3.6-8,8-8H590c4.4,0,8,3.6,8,8V368.9z"/>
		<path id="XMLID_18_" class="st5" d="M598,368.9H392.9v-15.3c0-4.4,3.6-8,8-8H590c4.4,0,8,3.6,8,8V368.9z"/>
		<path id="XMLID_20_" class="st5" d="M598,368.9H392.9v-15.3c0-4.4,3.6-8,8-8H590c4.4,0,8,3.6,8,8V368.9z"/>
		<path id="XMLID_12_" class="st5" d="M590,509.9H400.9c-4.4,0-8-3.6-8-8V353.7c0-4.4,3.6-8,8-8H590c4.4,0,8,3.6,8,8v148.3
			C598,506.4,594.4,509.9,590,509.9z"/>
		<g id="XMLID_72_">
			<path id="XMLID_7_" class="st7" d="M688.7,545.3h-116c-4.4,0-8-3.6-8-8V414.4c0-4.4,3.6-8,8-8h116c4.4,0,8,3.6,8,8v122.9
				C696.7,541.8,693.1,545.3,688.7,545.3z"/>
			<path id="XMLID_16_" class="st13" d="M696.7,538.3h-116c-4.4,0-8-3.6-8-8V407.4c0-4.4,3.6-8,8-8h116c4.4,0,8,3.6,8,8v122.9
				C704.7,534.8,701.1,538.3,696.7,538.3z"/>
			<path id="XMLID_14_" class="st5" d="M696.7,538.3h-116c-4.4,0-8-3.6-8-8V407.4c0-4.4,3.6-8,8-8h116c4.4,0,8,3.6,8,8v122.9
				C704.7,534.8,701.1,538.3,696.7,538.3z"/>
			<path id="XMLID_75_" class="st14" d="M679.4,437.5h-81.6c-2.9,0-5.2-2.3-5.2-5.2v-7.8c0-2.9,2.3-5.2,5.2-5.2h81.6
				c2.9,0,5.2,2.3,5.2,5.2v7.8C684.6,435.2,682.3,437.5,679.4,437.5z"/>
			<g id="XMLID_143_" class="st15">
				<path id="XMLID_78_" class="st16" d="M643.6,466.8h-45.6c-2.9,0-5.2-2.3-5.2-5.2v-7.8c0-2.9,2.3-5.2,5.2-5.2h45.6
					c2.9,0,5.2,2.3,5.2,5.2v7.8C648.7,464.5,646.4,466.8,643.6,466.8z"/>
				<path id="XMLID_79_" class="st16" d="M679.5,466.8h-17.7c-2.9,0-5.2-2.3-5.2-5.2v-7.8c0-2.9,2.3-5.2,5.2-5.2h17.7
					c2.9,0,5.2,2.3,5.2,5.2v7.8C684.7,464.5,682.4,466.8,679.5,466.8z"/>
			</g>
			<g id="XMLID_76_">
				<line id="XMLID_135_" class="st16" x1="592.7" y1="497.2" x2="684.6" y2="497.2"/>
				<line id="XMLID_136_" class="st16" x1="592.7" y1="508" x2="684.6" y2="508"/>
				<line id="XMLID_138_" class="st16" x1="592.7" y1="518.8" x2="648.7" y2="518.8"/>
			</g>
		</g>
		<circle id="XMLID_24_" class="st17" cx="413" cy="357.3" r="4"/>
		<circle id="XMLID_28_" class="st17" cx="426.9" cy="357.3" r="4"/>
		<circle id="XMLID_38_" class="st17" cx="440.8" cy="357.3" r="4"/>
		<g id="XMLID_61_">
			<line id="XMLID_54_" class="st18" x1="510.7" y1="387.4" x2="523.7" y2="387.4"/>
			<line id="XMLID_66_" class="st19" x1="444.8" y1="387.4" x2="501.1" y2="387.4"/>
			<line id="XMLID_29_" class="st20" x1="417" y1="387.4" x2="436.8" y2="387.4"/>
		</g>
		<g id="XMLID_42_">
			<line id="XMLID_62_" class="st20" x1="442.8" y1="485.9" x2="485.8" y2="485.9"/>
			<line id="XMLID_30_" class="st19" x1="417" y1="485.9" x2="430.9" y2="485.9"/>
		</g>
		<g id="XMLID_27_">
			<line id="XMLID_60_" class="st18" x1="501.1" y1="399.7" x2="509.2" y2="399.7"/>
			<line id="XMLID_45_" class="st20" x1="464.3" y1="399.7" x2="491.5" y2="399.7"/>
			<line id="XMLID_47_" class="st21" x1="426.9" y1="399.7" x2="454.6" y2="399.7"/>
		</g>
		<g id="XMLID_49_">
			<line id="XMLID_59_" class="st18" x1="469.8" y1="412" x2="493.7" y2="412"/>
			<line id="XMLID_50_" class="st22" x1="439.8" y1="412" x2="462.3" y2="412"/>
		</g>
		<g id="XMLID_65_">
			<line id="XMLID_58_" class="st18" x1="473" y1="424.3" x2="477.9" y2="424.3"/>
			<line id="XMLID_70_" class="st20" x1="453.2" y1="424.3" x2="464.3" y2="424.3"/>
			<line id="XMLID_67_" class="st19" x1="426.9" y1="424.3" x2="444.8" y2="424.3"/>
		</g>
		<g id="XMLID_73_">
			<line id="XMLID_77_" class="st21" x1="465.3" y1="436.7" x2="497.2" y2="436.7"/>
			<line id="XMLID_74_" class="st22" x1="426.9" y1="436.7" x2="455.5" y2="436.7"/>
		</g>
		<g id="XMLID_80_">
			<line id="XMLID_64_" class="st20" x1="502.2" y1="449" x2="519.5" y2="449"/>
			<line id="XMLID_84_" class="st22" x1="465.3" y1="449" x2="493" y2="449"/>
			<line id="XMLID_81_" class="st19" x1="439.8" y1="449" x2="455.5" y2="449"/>
		</g>
		<g id="XMLID_87_">
			<line id="XMLID_95_" class="st18" x1="477.9" y1="461.3" x2="493" y2="461.3"/>
			<line id="XMLID_90_" class="st20" x1="439.8" y1="461.3" x2="467.5" y2="461.3"/>
		</g>
		<g id="XMLID_98_">
			<line id="XMLID_71_" class="st18" x1="517.2" y1="473.6" x2="534.5" y2="473.6"/>
			<line id="XMLID_102_" class="st21" x1="464.3" y1="473.6" x2="507.8" y2="473.6"/>
			<line id="XMLID_99_" class="st18" x1="426.9" y1="473.6" x2="454.6" y2="473.6"/>
		</g>
		<line id="XMLID_145_" class="st5" x1="214.9" y1="632.5" x2="430.4" y2="632.5"/>
		<line id="XMLID_151_" class="st5" x1="214.9" y1="640.5" x2="430.4" y2="640.5"/>
		<path id="XMLID_158_" class="st5" d="M432.4,625.6H212.4c1.3,3.2,2,7.2,2,11.4c0,4.2-0.7,8.1-2,11.4h219.9c-1.3-3.2-2-7.2-2-11.4
			C430.4,632.7,431.1,628.8,432.4,625.6z"/>
	</g>
	<g id="XMLID_222_">
		<g id="XMLID_174_">
			
				<rect id="XMLID_177_" x="722.8" y="544.4" transform="matrix(0.9932 -0.1166 0.1166 0.9932 -62.746 88.7942)" class="st23" width="9.8" height="72.6"/>
			
				<rect id="XMLID_31_" x="719" y="544.7" transform="matrix(0.9932 -0.1166 0.1166 0.9932 -58.9937 88.1297)" class="st13" width="9.8" height="7.4"/>
			
				<rect id="XMLID_217_" x="719" y="544.7" transform="matrix(0.9932 -0.1166 0.1166 0.9932 -58.9937 88.1297)" class="st5" width="9.8" height="7.4"/>
			
				<rect id="XMLID_22_" x="722.8" y="544.4" transform="matrix(0.9932 -0.1166 0.1166 0.9932 -62.746 88.7942)" class="st5" width="9.8" height="72.6"/>
		</g>
		<g id="XMLID_189_">
			
				<rect id="XMLID_218_" x="741.4" y="558.1" transform="matrix(0.9941 0.1081 -0.1081 0.9941 68.6015 -77.1711)" class="st24" width="9.8" height="72.6"/>
			
				<rect id="XMLID_214_" x="741.4" y="558.1" transform="matrix(0.9941 0.1081 -0.1081 0.9941 68.6015 -77.1711)" class="st5" width="9.8" height="72.6"/>
			
				<rect id="XMLID_220_" x="745" y="558.3" transform="matrix(0.9941 0.1081 -0.1081 0.9941 65.1167 -77.742)" class="st1" width="9.8" height="7.4"/>
			
				<rect id="XMLID_211_" x="745" y="558.3" transform="matrix(0.9941 0.1081 -0.1081 0.9941 65.1167 -77.742)" class="st5" width="9.8" height="7.4"/>
		</g>
		<polygon id="XMLID_26_" class="st25" points="761.1,654.6 721.8,654.6 715.4,594.4 767.5,594.4 		"/>
		<polygon id="XMLID_233_" class="st25" points="715.4,594.4 715.5,595.5 755.2,595.5 748.9,654.6 761.1,654.6 767.5,594.4 		"/>
		<polygon id="XMLID_21_" class="st5" points="761.1,654.6 721.8,654.6 715.4,594.4 767.5,594.4 		"/>
	</g>
</g>
<g>
	<g>
		<path class="st1" d="M291.6,839.8h-7V855h-4.8v-36.4h11.8c8.6,0,12.6,4.7,12.6,10.7C304.2,834.8,300.7,839.8,291.6,839.8z
			 M291.6,835.9c5.4,0,7.7-2.6,7.7-6.6c0-4.2-2.3-6.7-7.7-6.7h-7v13.4H291.6z"/>
		<path class="st1" d="M327.1,818.6c8.6,0,12.6,4.8,12.6,10.7c0,4.6-2.6,9.1-8.7,10.4l9.1,15.3h-5.7l-8.7-14.9h-5.7V855h-4.8v-36.4
			H327.1z M327.1,822.5h-7v13.8h7c5.4,0,7.7-2.9,7.7-7C334.8,825.2,332.5,822.5,327.1,822.5z"/>
		<path class="st1" d="M368.8,855.4c-10.2,0-18.3-7.7-18.3-18.6s8-18.6,18.3-18.6c10.3,0,18.3,7.7,18.3,18.6
			S379.1,855.4,368.8,855.4z M368.8,851.2c7.7,0,13.4-5.6,13.4-14.5c0-8.9-5.7-14.5-13.4-14.5c-7.7,0-13.4,5.5-13.4,14.5
			C355.4,845.7,361.1,851.2,368.8,851.2z"/>
		<path class="st1" d="M431.9,829.1h-5.7c-2-4.2-6-6.7-11.1-6.7c-7.7,0-13.4,5.5-13.4,14.3c0,8.7,5.7,14.3,13.4,14.3
			c7.2,0,12.1-4.6,12.8-11.8h-14.5v-3.9H433v3.7c-0.8,9-8,16.3-17.9,16.3c-10.2,0-18.3-7.6-18.3-18.5s8-18.6,18.3-18.6
			C422.8,818.2,429.2,822.1,431.9,829.1z"/>
		<path class="st1" d="M456.2,818.6c8.6,0,12.6,4.8,12.6,10.7c0,4.6-2.6,9.1-8.7,10.4l9.1,15.3h-5.7l-8.7-14.9h-5.7V855h-4.8v-36.4
			H456.2z M456.2,822.5h-7v13.8h7c5.4,0,7.7-2.9,7.7-7C464,825.2,461.7,822.5,456.2,822.5z"/>
		<path class="st1" d="M503,846.9h-15.9l-2.9,8.1h-5l13.2-36.2h5.5l13.1,36.2h-5L503,846.9z M495,824.7l-6.6,18.4h13.2L495,824.7z"
			/>
		<path class="st1" d="M521.9,818.9h5.1l13.4,29.9l13.4-29.9h5.1V855h-4.8v-27l-12,27h-3.3l-12.1-27v27h-4.8V818.9z"/>
		<path class="st1" d="M572.1,818.9h5.1l13.4,29.9l13.4-29.9h5.1V855h-4.8v-27l-12,27h-3.3l-12.1-27v27h-4.8V818.9z"/>
		<path class="st1" d="M622.3,818.6h4.8V855h-4.8V818.6z"/>
		<path class="st1" d="M669,818.5V855h-4.8l-19.1-29v29h-4.8v-36.5h4.8l19.1,28.9v-28.9H669z"/>
		<path class="st1" d="M715.6,829.1h-5.7c-2-4.2-6-6.7-11.1-6.7c-7.7,0-13.4,5.5-13.4,14.3c0,8.7,5.7,14.3,13.4,14.3
			c7.2,0,12.1-4.6,12.8-11.8h-14.5v-3.9h19.6v3.7c-0.8,9-8,16.3-17.9,16.3c-10.2,0-18.3-7.6-18.3-18.5s8-18.6,18.3-18.6
			C706.5,818.2,712.9,822.1,715.6,829.1z"/>
	</g>
</g>
</svg>
