<?xml version="1.0" encoding="utf-8"?>
<!-- Generator: Adobe Illustrator 23.1.1, SVG Export Plug-In . SVG Version: 6.00 Build 0)  -->
<svg version="1.1" id="Layer_1" xmlns="http://www.w3.org/2000/svg" xmlns:xlink="http://www.w3.org/1999/xlink" x="0px" y="0px"
	 viewBox="0 0 1000 1000" style="enable-background:new 0 0 1000 1000;" xml:space="preserve">
<style type="text/css">
	.st0{fill:#FFFFFF;}
	.st1{fill:#B8FFFA;}
	.st2{fill:#A33434;}
	.st3{fill:none;stroke:#513535;stroke-width:10;stroke-linecap:round;stroke-linejoin:round;stroke-miterlimit:10;}
	.st4{fill:#7F2828;}
	.st5{fill:#2BB673;}
	.st6{opacity:0.19;}
	.st7{fill:#1C5B3E;}
	.st8{fill:none;stroke:#1C5B3E;stroke-width:10;stroke-linecap:round;stroke-linejoin:round;stroke-miterlimit:10;}
	.st9{opacity:0.4;}
	
		.st10{opacity:0.19;fill:#1C5B3E;stroke:#1C5B3E;stroke-width:10;stroke-linecap:round;stroke-linejoin:round;stroke-miterlimit:10;}
	.st11{opacity:0.4;fill:#1C5B3E;stroke:#1C5B3E;stroke-width:10;stroke-linecap:round;stroke-linejoin:round;stroke-miterlimit:10;}
	.st12{fill:#FFA205;}
	.st13{fill:none;stroke:#F58300;stroke-width:10;stroke-linecap:round;stroke-linejoin:round;stroke-miterlimit:10;}
	.st14{opacity:0.42;fill:#FFFFFF;}
	.st15{fill:#FF3E4C;}
	.st16{opacity:0.56;fill:#FF3E4C;}
	.st17{fill:none;stroke:#1C5B3E;stroke-width:6;stroke-linecap:round;stroke-linejoin:round;stroke-miterlimit:10;}
	.st18{opacity:0.59;fill:#FFFFFF;}
	.st19{fill:#FF9A3E;}
	.st20{fill:none;stroke:#1C5B3E;stroke-width:4;stroke-linecap:round;stroke-linejoin:round;stroke-miterlimit:10;}
	.st21{fill:#FF2939;}
	.st22{opacity:0.39;fill:#FF2939;}
	.st23{opacity:0.47;fill:#E24D59;}
	.st24{fill:none;stroke:#513535;stroke-width:8;stroke-linecap:round;stroke-linejoin:round;stroke-miterlimit:10;}
	.st25{fill:#FFCB65;}
	.st26{fill:#E54B4B;}
	.st27{fill:#DB3433;}
	.st28{fill:#F46A2B;}
	.st29{opacity:0.44;fill:#E54B4B;}
	.st30{opacity:0.69;fill:#FFD7D7;}
	.st31{opacity:0.8;fill:#FF9A3E;}
	.st32{fill:none;stroke:#8DFFF1;stroke-width:3;stroke-linecap:round;stroke-linejoin:round;stroke-miterlimit:10;}
	.st33{opacity:0.59;}
	.st34{fill:none;stroke:#8DFFF1;stroke-width:2;stroke-linecap:round;stroke-linejoin:round;stroke-miterlimit:10;}
	.st35{opacity:0.52;}
	.st36{fill:none;stroke:#FFFFFF;stroke-width:2;stroke-linecap:round;stroke-linejoin:round;stroke-miterlimit:10;}
	.st37{fill:none;stroke:#FFFFFF;stroke-linecap:round;stroke-linejoin:round;stroke-miterlimit:10;}
	.st38{fill:none;stroke:#8DFFF1;stroke-width:4;stroke-linecap:round;stroke-linejoin:round;stroke-miterlimit:10;}
	.st39{fill:none;stroke:#FFFFFF;stroke-width:4;stroke-linecap:round;stroke-linejoin:round;stroke-miterlimit:10;}
	.st40{fill:none;stroke:#FFFFFF;stroke-width:3;stroke-linecap:round;stroke-linejoin:round;stroke-miterlimit:10;}
</style>
<rect id="XMLID_146_" class="st0" width="1000" height="1000"/>
<path id="XMLID_144_" class="st1" d="M442.9,181.5c-130.6,23.7-240.5,141-221.2,198.8c12.9,38.7,77,30.7,90.5,76
	c12.4,41.8-36.7,67-46.5,133.8c-7.8,53.5,12.5,114.2,44.3,145C417.9,839.6,757.6,697,768.8,562.8c1.8-21.7-2.9-67.7-32.6-101.3
	c-31.6-35.8-62-24.3-84.1-53.2c-38.4-50,27.4-117.2-1.7-174C620.5,175.9,511.2,169.1,442.9,181.5z"/>
<g>
	<g>
		<g>
			<path class="st2" d="M63.2,959.2c0,2.5-1.2,3.7-2.6,3.7c-1.1,0-1.9-0.5-2.1-1.4c-0.4,0.5-1,0.8-1.8,0.8c-1.5,0-2.6-1.2-2.6-2.8
				c0-1.6,1.1-2.8,2.6-2.8c0.7,0,1.2,0.3,1.6,0.7v-0.5h1.6v3.9c0,0.8,0.3,1.4,1,1.4c0.9,0,1.7-0.9,1.7-3c0-3-2.3-5.3-5.4-5.3
				c-3.1,0-5.6,2.4-5.6,5.7c0,3.3,2.5,5.7,5.9,5.7c1.1,0,2.1-0.2,2.9-0.4v0.6c-0.8,0.3-1.7,0.4-2.9,0.4c-3.7,0-6.5-2.6-6.5-6.2
				c0-3.4,2.7-6.2,6.2-6.2C61.1,953.3,63.2,956.4,63.2,959.2z M58.3,959.5c0-0.8-0.6-1.4-1.3-1.4c-0.8,0-1.3,0.5-1.3,1.4
				c0,0.8,0.6,1.3,1.3,1.3C57.8,960.9,58.3,960.3,58.3,959.5z"/>
		</g>
		<g>
			<path class="st2" d="M69.4,955.1v2c-1.2-0.1-2.6,0.5-2.6,2.4v4.3h-1.9v-8.6h1.9v1.4C67.3,955.5,68.3,955.1,69.4,955.1z"/>
		</g>
		<g>
			<path class="st2" d="M74.6,962.3c1,0,1.8-0.5,2.2-1.1l1.5,0.9c-0.8,1.2-2.1,1.9-3.8,1.9c-2.8,0-4.7-1.9-4.7-4.5
				c0-2.5,1.8-4.5,4.5-4.5c2.6,0,4.3,2.1,4.3,4.5c0,0.3,0,0.5-0.1,0.8h-6.8C72.1,961.6,73.2,962.3,74.6,962.3z M76.9,958.8
				c-0.3-1.5-1.3-2.1-2.5-2.1c-1.4,0-2.3,0.8-2.6,2.1H76.9z"/>
		</g>
		<g>
			<path class="st2" d="M88.9,955.2v8.6h-1.9v-1.2c-0.7,0.9-1.7,1.5-3,1.5c-2.3,0-4.3-2-4.3-4.5c0-2.6,1.9-4.5,4.3-4.5
				c1.3,0,2.3,0.5,3,1.4v-1.2H88.9z M87.1,959.5c0-1.6-1.2-2.7-2.7-2.7c-1.5,0-2.7,1.1-2.7,2.7c0,1.6,1.2,2.7,2.7,2.7
				C85.9,962.3,87.1,961.1,87.1,959.5z"/>
		</g>
		<g>
			<path class="st2" d="M91.1,951.3H93v12.5h-1.9V951.3z"/>
		</g>
		<g>
			<path class="st2" d="M102.9,955.2l-3.3,8.6h-2.1l-3.3-8.6h2l2.4,6.5l2.4-6.5H102.9z"/>
		</g>
		<g>
			<path class="st2" d="M104.2,955.2h1.9v8.9c0,2.4-1.2,3.5-3.5,3.3v-1.8c1.1,0.1,1.7-0.3,1.7-1.5V955.2z M104,952.8
				c0-0.7,0.5-1.2,1.2-1.2c0.7,0,1.2,0.5,1.2,1.2c0,0.6-0.5,1.2-1.2,1.2C104.5,954,104,953.4,104,952.8z"/>
		</g>
		<g>
			<path class="st2" d="M116,955.2l-3.3,8.8c-0.8,2.2-2.2,3.3-4.2,3.2v-1.7c1.2,0.1,1.9-0.5,2.3-1.7l0.1-0.2l-3.6-8.4h2l2.6,6.2
				l2.2-6.2H116z"/>
		</g>
	</g>
	<g>
		<path class="st2" d="M211.9,938.7c0,2.1-1.5,3.8-3.6,3.8h-3v-7.6h3C210.4,934.9,211.9,936.6,211.9,938.7z M210.9,938.7
			c0-1.6-1.1-2.9-2.6-2.9h-2v5.7h2C209.8,941.6,210.9,940.3,210.9,938.7z"/>
		<path class="st2" d="M219.5,940.8h-3.4l-0.6,1.7h-1.1l2.8-7.6h1.1l2.8,7.6h-1.1L219.5,940.8z M219.2,939.9l-1.4-3.8l-1.4,3.8
			H219.2z"/>
		<path class="st2" d="M226.4,939.4v3.1h-1v-3.1l-2.7-4.5h1.1l2.1,3.6l2.1-3.6h1.1L226.4,939.4z"/>
		<path class="st2" d="M241.6,938.8L241.6,938.8l-2.5,3.7H238l1.8-2.7c-0.1,0-0.2,0-0.4,0c-1.5,0-2.6-1-2.6-2.6
			c0-1.5,1.1-2.6,2.6-2.6s2.6,1,2.6,2.6C242.1,937.9,241.9,938.4,241.6,938.8z M239.4,938.9c1,0,1.6-0.6,1.6-1.6s-0.7-1.6-1.6-1.6
			s-1.6,0.6-1.6,1.6C237.8,938.3,238.5,938.9,239.4,938.9z"/>
		<path class="st2" d="M247.7,934.9v7.6h-1V936l-1.6,0.5l-0.3-0.9l2-0.7H247.7z"/>
	</g>
	<g>
		<path class="st2" d="M58.9,938.7c0,2.1-1.5,3.8-3.6,3.8h-3v-7.6h3C57.4,934.9,58.9,936.6,58.9,938.7z M57.9,938.7
			c0-1.6-1.1-2.9-2.6-2.9h-2v5.7h2C56.8,941.6,57.9,940.3,57.9,938.7z"/>
		<path class="st2" d="M67,941.6v1h-4.6v-7.6h4.5v1h-3.5v2.3h3.2v0.9h-3.2v2.4H67z"/>
		<path class="st2" d="M70,940.8l0.9-0.5c0.3,0.8,0.9,1.4,2,1.4c1.1,0,1.6-0.5,1.6-1.2c0-0.8-0.7-1-1.8-1.4
			c-1.2-0.4-2.4-0.8-2.4-2.2c0-1.4,1.1-2.2,2.4-2.2c1.3,0,2.2,0.7,2.6,1.7l-0.8,0.5c-0.3-0.7-0.8-1.2-1.7-1.2
			c-0.8,0-1.4,0.4-1.4,1.1c0,0.7,0.5,1,1.6,1.3c1.3,0.4,2.6,0.8,2.6,2.3c0,1.3-1.1,2.2-2.6,2.2C71.5,942.7,70.4,941.9,70,940.8z"/>
		<path class="st2" d="M80,934.9v7.6h-1v-7.6H80z"/>
		<path class="st2" d="M91.3,939.2c0,1.9-1.4,3.5-3.7,3.5c-2.4,0-4-1.8-4-4c0-2.2,1.7-4,4-4c1.4,0,2.7,0.8,3.3,1.8l-0.9,0.5
			c-0.4-0.8-1.4-1.4-2.4-1.4c-1.8,0-3,1.3-3,3c0,1.7,1.2,3,3,3c1.6,0,2.5-0.9,2.7-2h-2.8v-0.9h3.8V939.2z"/>
		<path class="st2" d="M100.6,934.9v7.6h-0.8l-3.9-5.7v5.7h-1v-7.6h0.8l3.9,5.7v-5.7H100.6z"/>
		<path class="st2" d="M109.1,941.6v1h-4.6v-7.6h4.5v1h-3.5v2.3h3.2v0.9h-3.2v2.4H109.1z"/>
		<path class="st2" d="M119.2,938.7c0,2.1-1.5,3.8-3.6,3.8h-3v-7.6h3C117.6,934.9,119.2,936.6,119.2,938.7z M118.2,938.7
			c0-1.6-1.1-2.9-2.6-2.9h-2v5.7h2C117.1,941.6,118.2,940.3,118.2,938.7z"/>
		<path class="st2" d="M133.2,940.4c0,1.2-1,2.2-2.2,2.2h-3.3v-7.6h3c1.2,0,2.1,0.9,2.1,2.1c0,0.7-0.3,1.2-0.8,1.6
			C132.7,938.9,133.2,939.5,133.2,940.4z M128.7,935.8v2.3h2c0.6,0,1.1-0.5,1.1-1.2c0-0.6-0.5-1.2-1.1-1.2H128.7z M132.2,940.3
			c0-0.7-0.5-1.2-1.2-1.2h-2.3v2.5h2.3C131.7,941.6,132.2,941,132.2,940.3z"/>
		<path class="st2" d="M139.4,939.4v3.1h-1v-3.1l-2.7-4.5h1.1l2.1,3.6l2.1-3.6h1.1L139.4,939.4z"/>
	</g>
	<g>
		<path class="st2" d="M217.3,964.3h-2v-8.8l-3.8,6.2h-0.2l-3.8-6.2v8.9h-2v-12.4h2.2l3.7,6.2l3.8-6.2h2.2V964.3z"/>
		<path class="st2" d="M224,962.8c1.1,0,1.9-0.5,2.3-1.1l1.6,0.9c-0.8,1.2-2.1,1.9-3.9,1.9c-2.9,0-4.8-2-4.8-4.7
			c0-2.6,1.9-4.7,4.7-4.7c2.6,0,4.4,2.1,4.4,4.7c0,0.3,0,0.5-0.1,0.8h-7C221.5,962.1,222.6,962.8,224,962.8z M226.4,959.1
			c-0.3-1.5-1.4-2.2-2.5-2.2c-1.4,0-2.4,0.8-2.7,2.2H226.4z"/>
		<path class="st2" d="M234.6,955.3v2.1c-1.3-0.1-2.7,0.5-2.7,2.5v4.5H230v-8.9h1.9v1.5C232.4,955.7,233.5,955.3,234.6,955.3z"/>
		<path class="st2" d="M240.7,955.3v2.1c-1.3-0.1-2.7,0.5-2.7,2.5v4.5H236v-8.9h1.9v1.5C238.5,955.7,239.6,955.3,240.7,955.3z"/>
		<path class="st2" d="M250.3,955.4l-3.4,9.1c-0.8,2.2-2.3,3.4-4.3,3.3V966c1.2,0.1,1.9-0.6,2.4-1.7l0.1-0.2l-3.8-8.7h2.1l2.6,6.4
			l2.3-6.4H250.3z"/>
		<path class="st2" d="M255.4,958.1c0-3.6,2.7-6.4,6.5-6.4c2.3,0,4.3,1.2,5.3,3l-1.8,1c-0.7-1.2-2-2-3.6-2c-2.7,0-4.4,1.9-4.4,4.4
			s1.8,4.4,4.4,4.4c1.6,0,2.9-0.8,3.6-2l1.8,1c-1,1.8-3,3-5.3,3C258.1,964.5,255.4,961.7,255.4,958.1z"/>
		<path class="st2" d="M276.9,958.9v5.4H275v-5.2c0-1.3-0.8-2.1-2-2.1c-1.3,0-2.2,0.7-2.2,2.5v4.7h-1.9v-12.4h1.9v4.7
			c0.6-0.9,1.5-1.4,2.7-1.4C275.5,955.2,276.9,956.6,276.9,958.9z"/>
		<path class="st2" d="M283.6,955.3v2.1c-1.3-0.1-2.7,0.5-2.7,2.5v4.5H279v-8.9h1.9v1.5C281.4,955.7,282.5,955.3,283.6,955.3z"/>
		<path class="st2" d="M284.8,952.9c0-0.7,0.5-1.2,1.2-1.2c0.7,0,1.2,0.5,1.2,1.2c0,0.7-0.5,1.2-1.2,1.2
			C285.3,954.1,284.8,953.6,284.8,952.9z M285,955.4h1.9v8.9H285V955.4z"/>
		<path class="st2" d="M295.6,961.8c0,1.8-1.5,2.7-3.5,2.7c-1.8,0-3-0.8-3.6-2.1l1.6-1c0.3,0.8,1,1.3,2,1.3c0.8,0,1.5-0.3,1.5-1
			c0-1.6-4.8-0.7-4.8-3.9c0-1.7,1.4-2.7,3.2-2.7c1.5,0,2.7,0.7,3.3,1.8l-1.6,0.9c-0.3-0.7-0.9-1-1.7-1c-0.7,0-1.3,0.3-1.3,0.9
			C290.8,959.5,295.6,958.5,295.6,961.8z"/>
		<path class="st2" d="M299.7,957.3v4.2c0,1.1,0.7,1.1,2.2,1v1.7c-2.9,0.4-4.1-0.5-4.1-2.8v-4.2h-1.6v-1.8h1.6v-1.9l1.9-0.6v2.5h2.2
			v1.8H299.7z"/>
		<path class="st2" d="M316.7,958.8v5.5h-1.9v-5.4c0-1.2-0.7-1.9-1.7-1.9c-1.1,0-1.9,0.7-1.9,2.3v5h-1.9v-5.4c0-1.2-0.6-1.9-1.7-1.9
			c-1.1,0-2,0.7-2,2.3v5h-1.9v-8.9h1.9v1.1c0.6-0.9,1.4-1.3,2.5-1.3c1.2,0,2,0.5,2.5,1.4c0.6-0.9,1.5-1.4,2.7-1.4
			C315.3,955.2,316.7,956.6,316.7,958.8z"/>
		<path class="st2" d="M327.7,955.4v8.9h-1.9V963c-0.7,0.9-1.7,1.5-3.1,1.5c-2.4,0-4.4-2-4.4-4.7c0-2.6,2-4.7,4.4-4.7
			c1.4,0,2.4,0.6,3.1,1.5v-1.3H327.7z M325.8,959.9c0-1.6-1.2-2.8-2.8-2.8c-1.6,0-2.8,1.2-2.8,2.8c0,1.6,1.2,2.8,2.8,2.8
			C324.5,962.7,325.8,961.5,325.8,959.9z"/>
		<path class="st2" d="M336.3,961.8c0,1.8-1.5,2.7-3.5,2.7c-1.8,0-3-0.8-3.6-2.1l1.6-1c0.3,0.8,1,1.3,2,1.3c0.8,0,1.5-0.3,1.5-1
			c0-1.6-4.8-0.7-4.8-3.9c0-1.7,1.4-2.7,3.2-2.7c1.5,0,2.7,0.7,3.3,1.8l-1.6,0.9c-0.3-0.7-0.9-1-1.7-1c-0.7,0-1.3,0.3-1.3,0.9
			C331.6,959.5,336.3,958.5,336.3,961.8z"/>
	</g>
	<g>
		<g>
			<g>
				<path class="st2" d="M846.1,938.7c0,2.1-1.5,3.8-3.6,3.8h-3v-7.6h3C844.6,934.9,846.1,936.6,846.1,938.7z M845.2,938.7
					c0-1.6-1.1-2.9-2.6-2.9h-2v5.7h2C844.1,941.6,845.2,940.3,845.2,938.7z"/>
			</g>
			<g>
				<path class="st2" d="M849.3,938.7c0-2.2,1.7-4,3.9-4c2.2,0,4,1.8,4,4c0,2.2-1.7,4-4,4C851,942.7,849.3,940.9,849.3,938.7z
					 M856.1,938.7c0-1.7-1.3-3-2.9-3c-1.7,0-2.9,1.3-2.9,3c0,1.7,1.3,3,2.9,3C854.9,941.7,856.1,940.4,856.1,938.7z"/>
			</g>
			<g>
				<path class="st2" d="M859.8,934.9h1.1l1.7,6.3l1.9-6.3h1l1.9,6.3l1.7-6.3h1.1l-2.2,7.6h-1.2l-1.8-6.1l-1.8,6.1H862L859.8,934.9z
					"/>
			</g>
			<g>
				<path class="st2" d="M879.3,934.9v7.6h-0.8l-3.9-5.7v5.7h-1v-7.6h0.8l3.9,5.7v-5.7H879.3z"/>
			</g>
			<g>
				<path class="st2" d="M887.5,941.6v1h-4.3v-7.6h1v6.7H887.5z"/>
			</g>
			<g>
				<path class="st2" d="M889.9,938.7c0-2.2,1.7-4,3.9-4c2.2,0,4,1.8,4,4c0,2.2-1.7,4-4,4C891.6,942.7,889.9,940.9,889.9,938.7z
					 M896.8,938.7c0-1.7-1.3-3-2.9-3c-1.7,0-2.9,1.3-2.9,3c0,1.7,1.3,3,2.9,3C895.5,941.7,896.8,940.4,896.8,938.7z"/>
			</g>
			<g>
				<path class="st2" d="M905.4,940.8H902l-0.6,1.7h-1.1l2.8-7.6h1.1l2.8,7.6H906L905.4,940.8z M905.1,939.9l-1.4-3.8l-1.4,3.8
					H905.1z"/>
			</g>
			<g>
				<path class="st2" d="M916.9,938.7c0,2.1-1.5,3.8-3.6,3.8h-3v-7.6h3C915.4,934.9,916.9,936.6,916.9,938.7z M915.9,938.7
					c0-1.6-1.1-2.9-2.6-2.9h-2v5.7h2C914.9,941.6,915.9,940.3,915.9,938.7z"/>
			</g>
			<g>
				<path class="st2" d="M926.5,935.8v2.5h3.2v1h-3.2v3.2h-1v-7.6h4.4v1H926.5z"/>
			</g>
			<g>
				<path class="st2" d="M936.2,939.6h-1.8v2.9h-1v-7.6h3c1.3,0,2.4,1.1,2.4,2.4c0,1-0.7,1.9-1.6,2.2l1.8,3.1h-1.1L936.2,939.6z
					 M934.4,938.7h2c0.8,0,1.4-0.6,1.4-1.4c0-0.8-0.6-1.4-1.4-1.4h-2V938.7z"/>
			</g>
			<g>
				<path class="st2" d="M941.9,938.7c0-2.2,1.7-4,3.9-4c2.2,0,4,1.8,4,4c0,2.2-1.7,4-4,4C943.6,942.7,941.9,940.9,941.9,938.7z
					 M948.8,938.7c0-1.7-1.3-3-2.9-3c-1.7,0-2.9,1.3-2.9,3c0,1.7,1.3,3,2.9,3C947.5,941.7,948.8,940.4,948.8,938.7z"/>
			</g>
			<g>
				<path class="st2" d="M960.4,942.5h-1v-6l-2.5,4.2h-0.1l-2.5-4.1v5.9h-1v-7.6h1.1l2.4,4l2.4-4h1.1V942.5z"/>
			</g>
		</g>
		<g>
			<g>
				<path class="st2" d="M839.3,952.9c0-0.7,0.5-1.2,1.2-1.2c0.7,0,1.2,0.5,1.2,1.2c0,0.7-0.5,1.2-1.2,1.2
					C839.9,954.1,839.3,953.6,839.3,952.9z M839.6,955.4h1.9v8.9h-1.9V955.4z"/>
			</g>
			<g>
				<path class="st2" d="M843.7,951.4h1.9v12.9h-1.9V951.4z"/>
			</g>
			<g>
				<path class="st2" d="M847.8,951.4h1.9v12.9h-1.9V951.4z"/>
			</g>
			<g>
				<path class="st2" d="M852,951.4h1.9v12.9H852V951.4z"/>
			</g>
			<g>
				<path class="st2" d="M864,955.4v8.9h-1.9v-1.1c-0.6,0.9-1.5,1.4-2.7,1.4c-2,0-3.4-1.3-3.4-3.6v-5.4h1.9v5.2c0,1.3,0.8,2.1,2,2.1
					c1.3,0,2.2-0.7,2.2-2.5v-4.7H864z"/>
			</g>
			<g>
				<path class="st2" d="M872.6,961.8c0,1.8-1.5,2.7-3.5,2.7c-1.8,0-3-0.8-3.6-2.1l1.6-1c0.3,0.8,1,1.3,2,1.3c0.8,0,1.5-0.3,1.5-1
					c0-1.6-4.8-0.7-4.8-3.9c0-1.7,1.4-2.7,3.2-2.7c1.5,0,2.7,0.7,3.3,1.8l-1.6,0.9c-0.3-0.7-0.9-1-1.7-1c-0.7,0-1.3,0.3-1.3,0.9
					C867.9,959.5,872.6,958.5,872.6,961.8z"/>
			</g>
			<g>
				<path class="st2" d="M876.7,957.3v4.2c0,1.1,0.7,1.1,2.2,1v1.7c-2.9,0.4-4.1-0.5-4.1-2.8v-4.2h-1.6v-1.8h1.6v-1.9l1.9-0.6v2.5
					h2.2v1.8H876.7z"/>
			</g>
			<g>
				<path class="st2" d="M885.4,955.3v2.1c-1.3-0.1-2.7,0.5-2.7,2.5v4.5h-1.9v-8.9h1.9v1.5C883.2,955.7,884.2,955.3,885.4,955.3z"/>
			</g>
			<g>
				<path class="st2" d="M895.3,955.4v8.9h-1.9V963c-0.7,0.9-1.7,1.5-3.1,1.5c-2.4,0-4.4-2-4.4-4.7c0-2.6,2-4.7,4.4-4.7
					c1.4,0,2.4,0.6,3.1,1.5v-1.3H895.3z M893.4,959.9c0-1.6-1.2-2.8-2.8-2.8c-1.6,0-2.8,1.2-2.8,2.8c0,1.6,1.2,2.8,2.8,2.8
					C892.2,962.7,893.4,961.5,893.4,959.9z"/>
			</g>
			<g>
				<path class="st2" d="M900.3,957.3v4.2c0,1.1,0.7,1.1,2.2,1v1.7c-2.9,0.4-4.1-0.5-4.1-2.8v-4.2h-1.6v-1.8h1.6v-1.9l1.9-0.6v2.5
					h2.2v1.8H900.3z"/>
			</g>
			<g>
				<path class="st2" d="M903.9,952.9c0-0.7,0.5-1.2,1.2-1.2c0.7,0,1.2,0.5,1.2,1.2c0,0.7-0.5,1.2-1.2,1.2
					C904.5,954.1,903.9,953.6,903.9,952.9z M904.2,955.4h1.9v8.9h-1.9V955.4z"/>
			</g>
			<g>
				<path class="st2" d="M907.8,959.9c0-2.6,2.1-4.7,4.7-4.7c2.6,0,4.7,2,4.7,4.7c0,2.6-2.1,4.7-4.7,4.7
					C909.9,964.5,907.8,962.5,907.8,959.9z M915.3,959.9c0-1.6-1.2-2.8-2.8-2.8c-1.6,0-2.8,1.2-2.8,2.8c0,1.6,1.2,2.8,2.8,2.8
					C914.1,962.7,915.3,961.5,915.3,959.9z"/>
			</g>
			<g>
				<path class="st2" d="M927,958.9v5.4h-1.9v-5.2c0-1.3-0.8-2.1-2-2.1c-1.3,0-2.2,0.7-2.2,2.5v4.7h-1.9v-8.9h1.9v1.1
					c0.6-0.9,1.5-1.4,2.7-1.4C925.5,955.2,927,956.6,927,958.9z"/>
			</g>
			<g>
				<path class="st2" d="M935.5,961.8c0,1.8-1.5,2.7-3.5,2.7c-1.8,0-3-0.8-3.6-2.1l1.6-1c0.3,0.8,1,1.3,2,1.3c0.8,0,1.5-0.3,1.5-1
					c0-1.6-4.8-0.7-4.8-3.9c0-1.7,1.4-2.7,3.2-2.7c1.5,0,2.7,0.7,3.3,1.8l-1.6,0.9c-0.3-0.7-0.9-1-1.7-1c-0.7,0-1.3,0.3-1.3,0.9
					C930.7,959.5,935.5,958.5,935.5,961.8z"/>
			</g>
			<g>
				<path class="st2" d="M936.8,963.2c0-0.7,0.6-1.3,1.3-1.3c0.7,0,1.3,0.6,1.3,1.3c0,0.7-0.6,1.3-1.3,1.3
					C937.4,964.5,936.8,963.9,936.8,963.2z"/>
			</g>
			<g>
				<path class="st2" d="M940.3,959.9c0-2.6,2-4.7,4.7-4.7c1.7,0,3.2,0.9,3.9,2.3l-1.6,1c-0.4-0.8-1.3-1.4-2.3-1.4
					c-1.6,0-2.7,1.2-2.7,2.8c0,1.6,1.2,2.8,2.7,2.8c1.1,0,1.9-0.5,2.4-1.4l1.6,0.9c-0.7,1.4-2.2,2.3-4,2.3
					C942.3,964.5,940.3,962.5,940.3,959.9z"/>
			</g>
			<g>
				<path class="st2" d="M949.7,959.9c0-2.6,2.1-4.7,4.7-4.7c2.6,0,4.7,2,4.7,4.7c0,2.6-2.1,4.7-4.7,4.7
					C951.8,964.5,949.7,962.5,949.7,959.9z M957.2,959.9c0-1.6-1.2-2.8-2.8-2.8s-2.8,1.2-2.8,2.8c0,1.6,1.2,2.8,2.8,2.8
					S957.2,961.5,957.2,959.9z"/>
			</g>
		</g>
	</g>
</g>
<path id="XMLID_151_" class="st3" d="M458.3,808.5"/>
<path id="XMLID_147_" class="st3" d="M458.3,808.5c-0.2-1.1-0.4-2.3-0.4-3.5c0-9.7,7.9-17.5,17.7-17.5c9.8,0,17.7,7.8,17.7,17.5"/>
<path id="XMLID_150_" class="st3" d="M403.5,808.3c-0.6-2.2-0.9-4.4-0.9-6.8c0-14.8,12.2-26.8,27.2-26.8c15,0,27.2,12,27.2,26.8
	c0,2.4-0.3,4.7-0.9,7"/>
<path id="XMLID_4_" class="st3" d="M157.2,781.7c0-22.5,18.3-40.8,40.8-40.8s40.8,18.3,40.8,40.8c0,10.3-3.8,19.6-10,26.8"/>
<path id="XMLID_161_" class="st0" d="M492,785.4c6.7-23,27.9-39.8,53-39.8c13.9,0,26.6,5.1,36.3,13.6"/>
<path id="XMLID_178_" class="st3" d="M575.3,754.6c2.1,1.4,4.1,2.9,6,4.5"/>
<path id="XMLID_153_" class="st3" d="M492,785.4c6.7-23,27.9-39.8,53-39.8c5.2,0,10.3,0.7,15,2.1"/>
<path id="XMLID_160_" class="st3" d="M551.3,808.5c5.9-16.8,22-28.9,40.9-28.9c18.9,0,34.9,12.1,40.9,28.9"/>
<path id="XMLID_149_" class="st1" d="M683.5,317.8c-42.8,34.7,6.6,95.6,30.7,95.6S745.1,267.9,683.5,317.8z"/>
<rect id="XMLID_143_" x="491.4" y="726.3" class="st2" width="32" height="82.9"/>
<rect id="XMLID_182_" x="491.4" y="726.3" class="st4" width="32" height="21.3"/>
<rect id="XMLID_39_" x="491.4" y="726.3" class="st3" width="32" height="82.9"/>
<g id="XMLID_11_">
	<g>
		<path id="XMLID_740_" class="st5" d="M497,436.5L348,696c-7.7,13.5,2,30.3,17.5,30.3H650c15.7,0,25.4-17.2,17.3-30.6l-156-259.3
			C508.1,431.5,500.1,431.6,497,436.5z"/>
		<g id="XMLID_737_" class="st6">
			<path id="XMLID_739_" class="st7" d="M667.3,695.7l-156-259.3c-3.2-4.9-11.2-4.8-14.3,0.2l-13.7,23.9l82.1,155.2
				c16.1,30.5-4.5,67.6-38.9,69.9L347,697.9c-5.9,13.1,3.7,28.4,18.5,28.4H650C665.7,726.3,675.4,709.2,667.3,695.7z"/>
			<path id="XMLID_738_" class="st8" d="M667.3,695.7l-156-259.3c-3.2-4.9-11.2-4.8-14.3,0.2l-13.7,23.9l82.1,155.2
				c16.1,30.5-4.5,67.6-38.9,69.9L347,697.9c-5.9,13.1,3.7,28.4,18.5,28.4H650C665.7,726.3,675.4,709.2,667.3,695.7z"/>
		</g>
		<g id="XMLID_734_" class="st9">
			<path id="XMLID_736_" class="st7" d="M610.1,601.5c0.2,0,0.3,0,0.5,0l-99.3-165.1c-3.2-4.9-11.2-4.8-14.3,0.2l-102.2,178
				L610.1,601.5z"/>
			<path id="XMLID_735_" class="st8" d="M610.1,601.5c0.2,0,0.3,0,0.5,0l-99.3-165.1c-3.2-4.9-11.2-4.8-14.3,0.2l-102.2,178
				L610.1,601.5z"/>
		</g>
	</g>
</g>
<g id="XMLID_12_">
	<path id="XMLID_8_" class="st8" d="M497,436.5L348,696c-7.7,13.5,2,30.3,17.5,30.3H650c15.7,0,25.4-17.2,17.3-30.6l-156-259.3
		C508.1,431.5,500.1,431.6,497,436.5z"/>
</g>
<g id="XMLID_14_">
	<path id="XMLID_9_" class="st5" d="M475.5,410.5l-97.4,166.6c-6.8,11.7,2.1,26.3,15.7,25.5l215.6-13c13.6-0.8,20.7-16.5,12.4-27.3
		L503.6,408.7C496.3,399.1,481.6,400.1,475.5,410.5z"/>
	<path id="XMLID_73_" class="st10" d="M621.8,562.3L503.6,408.7c-7.3-9.5-22-8.6-28.1,1.8l-3.1,5.3l64.9,96.8
		c13.3,19.9,1,46.8-22.7,49.8l-137.6,17.1c-4.5,11.2,4.2,23.9,16.8,23.2l215.6-13C623,588.8,630.1,573.1,621.8,562.3z"/>
	<path id="XMLID_6_" class="st8" d="M475.5,410.5l-97.4,166.6c-6.8,11.7,2.1,26.3,15.7,25.5l215.6-13c13.6-0.8,20.7-16.5,12.4-27.3
		L503.6,408.7C496.3,399.1,481.6,400.1,475.5,410.5z"/>
</g>
<path id="XMLID_47_" class="st11" d="M422.6,510l135.8-30l-54.8-71.3c-7.3-9.5-22-8.6-28.1,1.8l-58.6,100.2
	C418.8,510.6,420.7,510.4,422.6,510z"/>
<path id="XMLID_23_" class="st8" d="M475.5,410.5l-97.4,166.6c-6.8,11.7,2.1,26.3,15.7,25.5l215.6-13c13.6-0.8,20.7-16.5,12.4-27.3
	L503.6,408.7C496.3,399.1,481.6,400.1,475.5,410.5z"/>
<g id="XMLID_15_">
	<path id="XMLID_2_" class="st5" d="M471.5,347.4l-71.8,125.1c-7.6,13.2,4.1,29,18.9,25.8l143.6-31.7c12.5-2.8,17.9-17.6,10.1-27.7
		l-71.7-93.4C492.9,335.5,477.7,336.6,471.5,347.4z"/>
	<path id="XMLID_76_" class="st10" d="M572.3,438.8l-71.7-93.4c-7.6-9.9-22.8-8.9-29,1.9l-0.4,0.7l38,52.4
		c15.7,21.7,5.4,52.3-20.3,60l-90.3,27.2c3,7.4,10.9,12.5,20,10.5l143.6-31.7C574.7,463.8,580.1,449,572.3,438.8z"/>
	<path id="XMLID_27_" class="st11" d="M524.9,375.3l-22.9-29.8c-7.6-9.9-22.8-8.9-29,1.9l-16,27.9H524.9z"/>
	<path id="XMLID_5_" class="st8" d="M472.9,347.4l-71.8,125.1c-7.6,13.2,4.1,29,18.9,25.8l143.6-31.7c12.5-2.8,17.9-17.6,10.1-27.7
		l-71.7-93.4C494.4,335.5,479.1,336.6,472.9,347.4z"/>
</g>
<path id="XMLID_18_" class="st8" d="M472.9,347.4l-71.8,125.1c-7.6,13.2,4.1,29,18.9,25.8l143.6-31.7c12.5-2.8,17.9-17.6,10.1-27.7
	l-71.7-93.4C494.4,335.5,479.1,336.6,472.9,347.4z"/>
<path id="XMLID_7_" class="st8" d="M519.8,363.3c9.5,0,15.1-10.7,9.7-18.5l-38.9-56.1c-2.6-3.7-8.9-3.4-10.9,0.6l-29.5,56.9
	c-4.1,7.8,1.6,17.2,10.4,17.2H519.8z"/>
<g id="XMLID_17_">
	<path id="XMLID_20_" class="st5" d="M519.8,363.3c9.5,0,15.1-10.7,9.7-18.5l-38.9-56.1c-2.6-3.7-8.9-3.4-10.9,0.6l-29.5,56.9
		c-4.1,7.8,1.6,17.2,10.4,17.2H519.8z"/>
	<path id="XMLID_38_" class="st5" d="M519.8,363.3c9.5,0,15.1-10.7,9.7-18.5l-38.9-56.1c-2.6-3.7-8.9-3.4-10.9,0.6l-29.5,56.9
		c-4.1,7.8,1.6,17.2,10.4,17.2H519.8z"/>
	<path id="XMLID_109_" class="st10" d="M529.4,344.8l-38.9-56.1c-2.6-3.7-8.9-3.4-10.9,0.6l-3.5,6.7l18.5,31c5,8.3-0.5,19-10.1,19.8
		l-35.7,3.2c-0.9,6.7,4.3,13.3,11.7,13.3h59.3C529.3,363.3,534.9,352.6,529.4,344.8z"/>
	<path id="XMLID_63_" class="st11" d="M490.5,288.7c-2.6-3.7-8.9-3.4-10.9,0.6l-13.6,26.3c3.2-0.1,6.3-0.9,9.1-2.4l11.9-6.3
		l11.9,6.3c3,1.6,6.4,2.4,9.8,2.4c0,0,0,0,0,0c0.2,0,0.3,0,0.5,0L490.5,288.7z"/>
	<path id="XMLID_32_" class="st8" d="M519.8,363.3c9.5,0,15.1-10.7,9.7-18.5l-38.9-56.1c-2.6-3.7-8.9-3.4-10.9,0.6l-29.5,56.9
		c-4.1,7.8,1.6,17.2,10.4,17.2H519.8z"/>
</g>
<path id="XMLID_16_" class="st12" d="M492.1,217.8l10.4,21c0.8,1.7,2.5,2.9,4.3,3.1l23.2,3.4c4.7,0.7,6.6,6.5,3.2,9.8l-16.8,16.3
	c-1.4,1.3-2,3.2-1.6,5.1l4,23.1c0.8,4.7-4.1,8.3-8.3,6l-20.7-10.9c-1.7-0.9-3.7-0.9-5.3,0l-20.7,10.9c-4.2,2.2-9.1-1.4-8.3-6l4-23.1
	c0.3-1.9-0.3-3.8-1.6-5.1l-16.8-16.3c-3.4-3.3-1.5-9.1,3.2-9.8l23.2-3.4c1.9-0.3,3.5-1.4,4.3-3.1l10.4-21
	C483.9,213.5,490,213.5,492.1,217.8z"/>
<path id="XMLID_3_" class="st13" d="M495.1,223.7l6.7,13.5c1.3,2.7,3.9,4.5,6.8,4.9l14.9,2.2c7.4,1.1,10.4,10.2,5,15.4l-10.8,10.5
	c-2.1,2.1-3.1,5.1-2.6,8l2.5,14.8c1.3,7.4-6.5,13-13.1,9.5l-13.3-7c-2.6-1.4-5.8-1.4-8.4,0l-13.3,7c-6.6,3.5-14.4-2.1-13.1-9.5
	l2.5-14.8c0.5-2.9-0.5-5.9-2.6-8l-10.8-10.5c-5.4-5.2-2.4-14.3,5-15.4l14.9-2.2c2.9-0.4,5.5-2.3,6.8-4.9l6.7-13.5
	C482.2,217,491.8,217,495.1,223.7z"/>
<circle id="XMLID_24_" class="st0" cx="477.2" cy="251.7" r="9.4"/>
<circle id="XMLID_25_" class="st14" cx="501.1" cy="270.1" r="6.3"/>
<circle id="XMLID_28_" class="st14" cx="498.7" cy="286" r="4.4"/>
<path id="XMLID_30_" class="st13" d="M495.1,223.7l6.7,13.5c1.3,2.7,3.9,4.5,6.8,4.9l14.9,2.2c7.4,1.1,10.4,10.2,5,15.4l-10.8,10.5
	c-2.1,2.1-3.1,5.1-2.6,8l2.5,14.8c1.3,7.4-6.5,13-13.1,9.5l-13.3-7c-2.6-1.4-5.8-1.4-8.4,0l-13.3,7c-6.6,3.5-14.4-2.1-13.1-9.5
	l2.5-14.8c0.5-2.9-0.5-5.9-2.6-8l-10.8-10.5c-5.4-5.2-2.4-14.3,5-15.4l14.9-2.2c2.9-0.4,5.5-2.3,6.8-4.9l6.7-13.5
	C482.2,217,491.8,217,495.1,223.7z"/>
<g id="XMLID_60_">
	<circle id="XMLID_58_" class="st15" cx="403.9" cy="463.3" r="14.4"/>
	<path id="XMLID_78_" class="st16" d="M409.6,450.1c1.1,2,1.7,4.3,1.7,6.7c0,7.9-6.4,14.4-14.4,14.4c-2,0-3.9-0.4-5.7-1.2
		c2.4,4.5,7.2,7.6,12.7,7.6c7.9,0,14.4-6.4,14.4-14.4C418.3,457.4,414.7,452.3,409.6,450.1z"/>
	<circle id="XMLID_50_" class="st17" cx="403.9" cy="463.3" r="14.4"/>
	
		<ellipse id="XMLID_61_" transform="matrix(0.6192 -0.7853 0.7853 0.6192 -207.6299 487.7157)" class="st18" cx="399" cy="457.9" rx="2.9" ry="2.2"/>
</g>
<g id="XMLID_62_">
	<circle id="XMLID_99_" class="st15" cx="572.8" cy="593.9" r="14.4"/>
	<path id="XMLID_82_" class="st16" d="M578.5,580.7c1.1,2,1.7,4.3,1.7,6.7c0,7.9-6.4,14.4-14.4,14.4c-2,0-3.9-0.4-5.7-1.2
		c2.4,4.5,7.2,7.6,12.7,7.6c7.9,0,14.4-6.4,14.4-14.4C587.2,588,583.6,582.9,578.5,580.7z"/>
	<circle id="XMLID_77_" class="st17" cx="572.8" cy="593.9" r="14.4"/>
	
		<ellipse id="XMLID_74_" transform="matrix(0.6192 -0.7853 0.7853 0.6192 -245.9102 670.0761)" class="st18" cx="567.9" cy="588.6" rx="2.9" ry="2.2"/>
</g>
<g id="XMLID_40_">
	<circle id="XMLID_126_" class="st15" cx="411.4" cy="686.3" r="14.4"/>
	<path id="XMLID_114_" class="st16" d="M417.1,673.2c1.1,2,1.7,4.3,1.7,6.7c0,7.9-6.4,14.4-14.4,14.4c-2,0-3.9-0.4-5.7-1.2
		c2.4,4.5,7.2,7.6,12.7,7.6c7.9,0,14.4-6.4,14.4-14.4C425.8,680.4,422.2,675.4,417.1,673.2z"/>
	<circle id="XMLID_87_" class="st17" cx="411.4" cy="686.3" r="14.4"/>
	
		<ellipse id="XMLID_51_" transform="matrix(0.6192 -0.7853 0.7853 0.6192 -379.9739 578.5189)" class="st18" cx="406.4" cy="681" rx="2.9" ry="2.2"/>
</g>
<g id="XMLID_186_">
	<circle id="XMLID_196_" class="st15" cx="487.1" cy="486.9" r="14.4"/>
	<path id="XMLID_193_" class="st16" d="M492.8,473.7c1.1,2,1.7,4.3,1.7,6.7c0,7.9-6.4,14.4-14.4,14.4c-2,0-3.9-0.4-5.7-1.2
		c2.4,4.5,7.2,7.6,12.7,7.6c7.9,0,14.4-6.4,14.4-14.4C501.5,481,497.9,475.9,492.8,473.7z"/>
	<circle id="XMLID_189_" class="st17" cx="487.1" cy="486.9" r="14.4"/>
	
		<ellipse id="XMLID_187_" transform="matrix(0.6192 -0.7853 0.7853 0.6192 -194.5374 562.0228)" class="st18" cx="482.2" cy="481.6" rx="2.9" ry="2.2"/>
</g>
<g id="XMLID_64_">
	<circle id="XMLID_85_" class="st19" cx="488.6" cy="418.6" r="8.9"/>
	<path id="XMLID_75_" class="st16" d="M492.1,410.5c0.7,1.2,1,2.7,1,4.2c0,4.9-4,8.9-8.9,8.9c-1.2,0-2.4-0.3-3.5-0.7
		c1.5,2.8,4.4,4.7,7.8,4.7c4.9,0,8.9-4,8.9-8.9C497.5,415,495.3,411.8,492.1,410.5z"/>
	<circle id="XMLID_69_" class="st20" cx="488.6" cy="418.6" r="8.9"/>
	
		<ellipse id="XMLID_65_" transform="matrix(0.6192 -0.7853 0.7853 0.6192 -141.2199 539.4705)" class="st18" cx="485.6" cy="415.3" rx="1.8" ry="1.4"/>
</g>
<g id="XMLID_129_">
	<circle id="XMLID_137_" class="st19" cx="534.9" cy="506.2" r="8.9"/>
	<path id="XMLID_134_" class="st16" d="M538.4,498.1c0.7,1.2,1,2.7,1,4.2c0,4.9-4,8.9-8.9,8.9c-1.2,0-2.4-0.3-3.5-0.7
		c1.5,2.8,4.4,4.7,7.8,4.7c4.9,0,8.9-4,8.9-8.9C543.8,502.6,541.6,499.4,538.4,498.1z"/>
	<circle id="XMLID_131_" class="st20" cx="534.9" cy="506.2" r="8.9"/>
	
		<ellipse id="XMLID_130_" transform="matrix(0.6192 -0.7853 0.7853 0.6192 -192.3889 609.1674)" class="st18" cx="531.8" cy="502.9" rx="1.8" ry="1.4"/>
</g>
<g id="XMLID_140_">
	<circle id="XMLID_148_" class="st19" cx="467.8" cy="569.2" r="12.7"/>
	<path id="XMLID_145_" class="st16" d="M472.8,557.6c0.9,1.8,1.5,3.8,1.5,5.9c0,7-5.7,12.7-12.7,12.7c-1.8,0-3.5-0.4-5-1
		c2.1,4,6.3,6.7,11.2,6.7c7,0,12.7-5.7,12.7-12.7C480.4,564,477.3,559.5,472.8,557.6z"/>
	<circle id="XMLID_142_" class="st20" cx="467.8" cy="569.2" r="12.7"/>
	
		<ellipse id="XMLID_141_" transform="matrix(0.6192 -0.7853 0.7853 0.6192 -266.7702 578.8698)" class="st18" cx="463.4" cy="564.5" rx="2.6" ry="1.9"/>
</g>
<g id="XMLID_199_">
	<circle id="XMLID_207_" class="st19" cx="648.9" cy="672" r="8.9"/>
	<path id="XMLID_204_" class="st16" d="M652.4,663.8c0.7,1.2,1,2.7,1,4.2c0,4.9-4,8.9-8.9,8.9c-1.2,0-2.4-0.3-3.5-0.7
		c1.5,2.8,4.4,4.7,7.8,4.7c4.9,0,8.9-4,8.9-8.9C657.7,668.3,655.5,665.2,652.4,663.8z"/>
	<circle id="XMLID_201_" class="st20" cx="648.9" cy="672" r="8.9"/>
	
		<ellipse id="XMLID_200_" transform="matrix(0.6192 -0.7853 0.7853 0.6192 -279.1388 761.7907)" class="st18" cx="645.8" cy="668.7" rx="1.8" ry="1.4"/>
</g>
<g id="XMLID_210_">
	<circle id="XMLID_218_" class="st19" cx="552.6" cy="695.2" r="8.9"/>
	<path id="XMLID_215_" class="st16" d="M556.1,687.1c0.7,1.2,1,2.7,1,4.2c0,4.9-4,8.9-8.9,8.9c-1.2,0-2.4-0.3-3.5-0.7
		c1.5,2.8,4.4,4.7,7.8,4.7c4.9,0,8.9-4,8.9-8.9C561.5,691.6,559.3,688.4,556.1,687.1z"/>
	<circle id="XMLID_212_" class="st20" cx="552.6" cy="695.2" r="8.9"/>
	
		<ellipse id="XMLID_211_" transform="matrix(0.6192 -0.7853 0.7853 0.6192 -334.035 695.0782)" class="st18" cx="549.6" cy="691.9" rx="1.8" ry="1.4"/>
</g>
<line id="XMLID_639_" class="st3" x1="910.3" y1="809.2" x2="910.3" y2="809.2"/>
<line id="XMLID_638_" class="st3" x1="862.6" y1="809.2" x2="890.6" y2="809.2"/>
<line id="XMLID_637_" class="st3" x1="610.6" y1="809.2" x2="838.7" y2="809.2"/>
<line id="XMLID_640_" class="st3" x1="192.9" y1="809.2" x2="633" y2="809.2"/>
<line id="XMLID_183_" class="st3" x1="104.3" y1="809.2" x2="171.5" y2="809.2"/>
<g id="XMLID_223_">
	<circle id="XMLID_184_" class="st21" cx="701.2" cy="747.7" r="57.8"/>
	<path id="XMLID_233_" class="st22" d="M730.5,778.9c-22.6,20.5-57.5,18.8-78-3.8c-2.9-3.2-5.3-6.6-7.3-10.2
		c2.3,8.8,6.6,17.2,13.2,24.3c21.5,23.7,58.1,25.4,81.7,4c23.7-21.5,25.4-58.1,4-81.7c-1.7-1.8-3.4-3.5-5.2-5.1
		C754.4,728.9,751.3,760,730.5,778.9z"/>
	<path id="XMLID_232_" class="st23" d="M658.3,789.3C658.4,789.3,658.4,789.3,658.3,789.3c-8.5-21.7-3.3-47.4,15-64
		c23.6-21.5,60.2-19.7,81.6,3.9c-2.5-6.3-6.1-12.3-11-17.7c-21.5-23.7-58.1-25.4-81.7-4C638.6,729,636.9,765.6,658.3,789.3z"/>
	<circle id="XMLID_181_" class="st3" cx="701.2" cy="750.4" r="57.8"/>
	<g id="XMLID_222_">
		<circle id="XMLID_221_" class="st19" cx="739" cy="751.4" r="14.4"/>
		<circle id="XMLID_185_" class="st24" cx="739" cy="751.4" r="14.4"/>
	</g>
	<g id="XMLID_224_">
		<circle id="XMLID_226_" class="st19" cx="701.2" cy="762.1" r="14.4"/>
		<circle id="XMLID_225_" class="st24" cx="701.2" cy="762.1" r="14.4"/>
	</g>
	<g id="XMLID_227_">
		<circle id="XMLID_229_" class="st19" cx="663" cy="747.7" r="14.4"/>
		<circle id="XMLID_228_" class="st24" cx="663" cy="747.7" r="14.4"/>
	</g>
	<circle id="XMLID_230_" class="st0" cx="696.4" cy="710.5" r="11"/>
	<circle id="XMLID_234_" class="st0" cx="679.9" cy="721.5" r="5.5"/>
</g>
<g id="XMLID_275_">
	<path id="XMLID_250_" class="st19" d="M245.9,605.6c-18.5,0-33.4,14.4-33.4,32.2s15,32.2,33.4,32.2s41.7-14.4,41.7-32.2
		S264.4,605.6,245.9,605.6z M250.2,668.7c-12,0-21.8-9.4-21.8-21c0-11.6,9.8-21,21.8-21c12,0,27.2,9.4,27.2,21
		C277.4,659.3,262.2,668.7,250.2,668.7z"/>
	<g id="XMLID_256_">
		<path id="XMLID_268_" class="st25" d="M245.9,613.6c17,0,38.1,12.3,41.3,28.2c0.3-1.3,0.4-2.6,0.4-4c0-17.8-23.2-32.2-41.7-32.2
			s-33.4,14.4-33.4,32.2c0,1.4,0.1,2.7,0.3,4C214.8,625.9,228.9,613.6,245.9,613.6z"/>
		<path id="XMLID_270_" class="st25" d="M276.7,651.8c-2.9,9.7-15.9,17-26.6,17c-10.6,0-19.4-7.3-21.4-17c-0.3,1.3-0.4,2.6-0.4,4
			c0,4.1,1.3,8,3.4,11.3c4.3,1.9,9.1,3,14.1,3c10.6,0,22.9-4.8,31.3-12.3c0.1-0.7,0.2-1.3,0.2-2C277.4,654.4,277.1,653,276.7,651.8z
			"/>
	</g>
	<path id="XMLID_255_" class="st3" d="M245.9,605.6c-18.4-1.9-33.4,14.4-33.4,32.2s15,32.2,33.4,32.2s41.7-14.4,41.7-32.2
		C287.6,625.3,269,608,245.9,605.6z M250.2,668.7c-12,0-21.8-9.4-21.8-21c0-11.6,9.8-21,21.8-21c12,0,27.2,9.4,27.2,21
		C277.4,659.3,262.2,668.7,250.2,668.7z"/>
	<path id="XMLID_272_" class="st19" d="M287.6,637.8c0,17.8,23.2,32.2,41.7,32.2s33.4-14.4,33.4-32.2s-15-32.2-33.4-32.2
		S287.6,620.1,287.6,637.8z M297.8,647.8c0-11.6,15.1-21,27.2-21s21.8,9.4,21.8,21c0,11.6-9.8,21-21.8,21S297.8,659.3,297.8,647.8z"
		/>
	<g id="XMLID_323_">
		<path id="XMLID_324_" class="st25" d="M329.2,613.6c17,0,31.1,12.3,33.1,28.2c0.2-1.3,0.3-2.6,0.3-4c0-17.8-15-32.2-33.4-32.2
			s-41.7,14.4-41.7,32.2c0,1.4,0.2,2.7,0.4,4C291.1,625.9,312.2,613.6,329.2,613.6z"/>
		<path id="XMLID_325_" class="st25" d="M346.3,651.8c-1.9,9.7-10.8,17-21.4,17s-23.6-7.3-26.6-17c-0.4,1.3-0.6,2.6-0.6,4
			c0,0.7,0.1,1.3,0.2,2c8.4,7.5,20.7,12.3,31.3,12.3c5,0,9.8-1.1,14.1-3c2.1-3.3,3.4-7.1,3.4-11.3
			C346.7,654.4,346.6,653,346.3,651.8z"/>
	</g>
	<path id="XMLID_257_" class="st3" d="M287.6,637.8c0,17.8,23.2,32.2,41.7,32.2s33.4-14.4,33.4-32.2s-15.1-34-33.4-32.2
		C306.1,608,287.6,625.3,287.6,637.8z M297.8,647.8c0-11.6,15.1-21,27.2-21s21.8,9.4,21.8,21c0,11.6-9.8,21-21.8,21
		S297.8,659.3,297.8,647.8z"/>
	<rect id="XMLID_235_" x="212.5" y="691.6" class="st26" width="150.1" height="117.5"/>
	<path id="XMLID_188_" class="st27" d="M362.6,704.7v-13.1H212.5v13.1h91.6V807c0,1.2,1,2.2,2.2,2.2h8c1.2,0,2.2-1,0.2-2.2V704.7
		H362.6z"/>
	<rect id="XMLID_237_" x="269" y="691.6" class="st19" width="37.1" height="116.9"/>
	<rect id="XMLID_173_" x="269" y="691.6" class="st28" width="37.1" height="14.8"/>
	<rect id="XMLID_236_" x="269" y="691.6" class="st3" width="37.1" height="116.9"/>
	<rect id="XMLID_231_" x="212.5" y="691.6" class="st3" width="150.1" height="117.5"/>
	<path id="XMLID_239_" class="st26" d="M374.2,691.6H200.9c-4.4,0-8-3.6-8-8v-29.3c0-4.4,3.6-8,8-8h173.3c4.4,0,8,3.6,8,8v29.3
		C382.3,688,378.7,691.6,374.2,691.6z"/>
	<path id="XMLID_177_" class="st29" d="M316.5,691.6h-8c-1.2,0-2.2-1-2.2-2.2v-41.1c0-1.2,1-2.2,2.2-2.2h8c1.2,0,2.2,1,2.2,2.2v41.1
		C318.6,690.7,317.7,691.6,316.5,691.6z"/>
	<rect id="XMLID_240_" x="264.9" y="646.1" class="st19" width="45.3" height="45.6"/>
	<path id="XMLID_249_" class="st30" d="M382.3,654.2H192.9v-0.1c0-4.3,3.5-7.8,7.8-7.8h173.7c4.3,0,7.8,3.5,7.8,7.8V654.2z"/>
	<path id="XMLID_238_" class="st3" d="M374.2,691.6H200.9c-4.4,0-8-3.6-8-8v-29.3c0-4.4,3.6-8,8-8h173.3c4.4,0,8,3.6,8,8v29.3
		C382.3,688,378.7,691.6,374.2,691.6z"/>
	<rect id="XMLID_241_" x="264.9" y="646.1" class="st3" width="45.3" height="45.6"/>
	<ellipse id="XMLID_274_" class="st19" cx="285.6" cy="631.5" rx="20.7" ry="13.2"/>
	<path id="XMLID_280_" class="st31" d="M267,637.3c0-7,6.4-12.8,18.6-12.8c12.2,0,18.6,5.7,18.6,12.8c0,0.2,0,0.3,0,0.5
		c1.4-1.9,2.1-4,2.1-6.3c0-7.3-7.1-13.2-20.7-13.2c-13.6,0-20.7,5.9-20.7,13.2c0,2.3,0.7,4.5,2.1,6.3C267,637.6,267,637.4,267,637.3
		z"/>
	<ellipse id="XMLID_273_" class="st3" cx="285.6" cy="631.5" rx="20.7" ry="13.2"/>
</g>
<path id="XMLID_307_" class="st3" d="M768.9,808.2c-2.5-4.5-3.9-9.7-3.9-15.2c0-17.5,14.2-31.6,31.6-31.6"/>
<path id="XMLID_377_" class="st3" d="M894.6,689.3c1.4,0.7,2.9,1.5,4.2,2.4"/>
<path id="XMLID_339_" class="st3" d="M807.5,784.3c-5.8-10-9.1-21.5-9.1-33.9c0-37.3,30.2-67.5,67.5-67.5c4.5,0,8.8,0.4,13.1,1.3"/>
<g id="XMLID_284_">
	<g id="XMLID_282_">
		<line id="XMLID_281_" class="st32" x1="243.3" y1="446.7" x2="243.3" y2="463.9"/>
		<polyline id="XMLID_277_" class="st32" points="248.4,450 243.3,455.1 238.2,450 		"/>
	</g>
	<g id="XMLID_289_">
		<line id="XMLID_292_" class="st32" x1="228.4" y1="455.3" x2="243.3" y2="463.9"/>
		<polyline id="XMLID_290_" class="st32" points="233.9,452.5 235.7,459.5 228.8,461.3 		"/>
	</g>
	<g id="XMLID_294_">
		<line id="XMLID_300_" class="st32" x1="228.4" y1="472.5" x2="243.3" y2="463.9"/>
		<polyline id="XMLID_296_" class="st32" points="228.8,466.4 235.7,468.2 233.9,475.2 		"/>
	</g>
	<g id="XMLID_303_">
		<line id="XMLID_318_" class="st32" x1="243.3" y1="481.1" x2="243.3" y2="463.9"/>
		<polyline id="XMLID_309_" class="st32" points="238.2,477.7 243.3,472.6 248.4,477.7 		"/>
	</g>
	<g id="XMLID_319_">
		<line id="XMLID_321_" class="st32" x1="258.2" y1="472.5" x2="243.3" y2="463.9"/>
		<polyline id="XMLID_320_" class="st32" points="252.7,475.2 250.9,468.2 257.8,466.4 		"/>
	</g>
	<g id="XMLID_322_">
		<line id="XMLID_329_" class="st32" x1="258.2" y1="455.3" x2="243.3" y2="463.9"/>
		<polyline id="XMLID_328_" class="st32" points="257.8,461.3 250.9,459.5 252.7,452.5 		"/>
	</g>
</g>
<g id="XMLID_636_" class="st33">
	<g id="XMLID_667_">
		<line id="XMLID_669_" class="st34" x1="203.6" y1="292.5" x2="203.6" y2="299.4"/>
		<polyline id="XMLID_668_" class="st34" points="205.6,293.8 203.6,295.9 201.5,293.8 		"/>
	</g>
	<g id="XMLID_662_">
		<line id="XMLID_664_" class="st34" x1="197.6" y1="295.9" x2="203.6" y2="299.4"/>
		<polyline id="XMLID_663_" class="st34" points="199.8,294.8 200.5,297.6 197.8,298.4 		"/>
	</g>
	<g id="XMLID_656_">
		<line id="XMLID_659_" class="st34" x1="197.6" y1="302.8" x2="203.6" y2="299.4"/>
		<polyline id="XMLID_658_" class="st34" points="197.8,300.4 200.5,301.1 199.8,303.9 		"/>
	</g>
	<g id="XMLID_651_">
		<line id="XMLID_653_" class="st34" x1="203.6" y1="306.3" x2="203.6" y2="299.4"/>
		<polyline id="XMLID_652_" class="st34" points="201.5,304.9 203.6,302.9 205.6,304.9 		"/>
	</g>
	<g id="XMLID_646_">
		<line id="XMLID_648_" class="st34" x1="209.6" y1="302.8" x2="203.6" y2="299.4"/>
		<polyline id="XMLID_647_" class="st34" points="207.4,303.9 206.6,301.1 209.4,300.4 		"/>
	</g>
	<g id="XMLID_641_">
		<line id="XMLID_643_" class="st34" x1="209.6" y1="295.9" x2="203.6" y2="299.4"/>
		<polyline id="XMLID_642_" class="st34" points="209.4,298.4 206.6,297.6 207.4,294.8 		"/>
	</g>
</g>
<g id="XMLID_574_" class="st35">
	<g id="XMLID_600_">
		<line id="XMLID_602_" class="st32" x1="780.8" y1="289.1" x2="780.8" y2="306.3"/>
		<polyline id="XMLID_601_" class="st32" points="785.8,292.5 780.8,297.5 775.7,292.5 		"/>
	</g>
	<g id="XMLID_595_">
		<line id="XMLID_597_" class="st32" x1="765.9" y1="297.7" x2="780.8" y2="306.3"/>
		<polyline id="XMLID_596_" class="st32" points="771.3,295 773.2,301.9 766.2,303.8 		"/>
	</g>
	<g id="XMLID_590_">
		<line id="XMLID_592_" class="st32" x1="765.9" y1="314.9" x2="780.8" y2="306.3"/>
		<polyline id="XMLID_591_" class="st32" points="766.2,308.8 773.2,310.7 771.3,317.6 		"/>
	</g>
	<g id="XMLID_585_">
		<line id="XMLID_587_" class="st32" x1="780.8" y1="323.5" x2="780.8" y2="306.3"/>
		<polyline id="XMLID_586_" class="st32" points="775.7,320.1 780.8,315 785.8,320.1 		"/>
	</g>
	<g id="XMLID_580_">
		<line id="XMLID_582_" class="st32" x1="795.6" y1="314.9" x2="780.8" y2="306.3"/>
		<polyline id="XMLID_581_" class="st32" points="790.2,317.6 788.3,310.7 795.3,308.8 		"/>
	</g>
	<g id="XMLID_575_">
		<line id="XMLID_577_" class="st32" x1="795.6" y1="297.7" x2="780.8" y2="306.3"/>
		<polyline id="XMLID_576_" class="st32" points="795.3,303.8 788.3,301.9 790.2,295 		"/>
	</g>
</g>
<g id="XMLID_334_">
	<g id="XMLID_501_">
		<line id="XMLID_503_" class="st32" x1="796.6" y1="454.1" x2="796.6" y2="468.2"/>
		<polyline id="XMLID_502_" class="st32" points="800.7,456.9 796.6,461 792.4,456.9 		"/>
	</g>
	<g id="XMLID_496_">
		<line id="XMLID_498_" class="st32" x1="784.4" y1="461.1" x2="796.6" y2="468.2"/>
		<polyline id="XMLID_497_" class="st32" points="788.9,458.9 790.4,464.6 784.7,466.1 		"/>
	</g>
	<g id="XMLID_491_">
		<line id="XMLID_493_" class="st32" x1="784.4" y1="475.2" x2="796.6" y2="468.2"/>
		<polyline id="XMLID_492_" class="st32" points="784.7,470.2 790.4,471.7 788.9,477.4 		"/>
	</g>
	<g id="XMLID_486_">
		<line id="XMLID_488_" class="st32" x1="796.6" y1="482.2" x2="796.6" y2="468.2"/>
		<polyline id="XMLID_487_" class="st32" points="792.4,479.4 796.6,475.3 800.7,479.4 		"/>
	</g>
	<g id="XMLID_341_">
		<line id="XMLID_483_" class="st32" x1="808.7" y1="475.2" x2="796.6" y2="468.2"/>
		<polyline id="XMLID_482_" class="st32" points="804.3,477.4 802.7,471.7 808.4,470.2 		"/>
	</g>
	<g id="XMLID_335_">
		<line id="XMLID_338_" class="st32" x1="808.7" y1="461.1" x2="796.6" y2="468.2"/>
		<polyline id="XMLID_336_" class="st32" points="808.4,466.1 802.7,464.6 804.3,458.9 		"/>
	</g>
</g>
<g id="XMLID_308_">
	<g id="XMLID_495_">
		<line id="XMLID_500_" class="st34" x1="689.3" y1="256.1" x2="689.3" y2="266"/>
		<polyline id="XMLID_499_" class="st34" points="692.3,258 689.3,261 686.4,258 		"/>
	</g>
	<g id="XMLID_484_">
		<line id="XMLID_489_" class="st34" x1="680.7" y1="261.1" x2="689.3" y2="266"/>
		<polyline id="XMLID_485_" class="st34" points="683.9,259.5 684.9,263.5 680.9,264.6 		"/>
	</g>
	<g id="XMLID_384_">
		<line id="XMLID_386_" class="st34" x1="680.7" y1="271" x2="689.3" y2="266"/>
		<polyline id="XMLID_385_" class="st34" points="680.9,267.5 684.9,268.6 683.9,272.6 		"/>
	</g>
	<g id="XMLID_379_">
		<line id="XMLID_381_" class="st34" x1="689.3" y1="276" x2="689.3" y2="266"/>
		<polyline id="XMLID_380_" class="st34" points="686.4,274 689.3,271.1 692.3,274 		"/>
	</g>
	<g id="XMLID_340_">
		<line id="XMLID_376_" class="st34" x1="697.9" y1="271" x2="689.3" y2="266"/>
		<polyline id="XMLID_375_" class="st34" points="694.8,272.6 693.7,268.6 697.7,267.5 		"/>
	</g>
	<g id="XMLID_326_">
		<line id="XMLID_330_" class="st34" x1="697.9" y1="261.1" x2="689.3" y2="266"/>
		<polyline id="XMLID_327_" class="st34" points="697.7,264.6 693.7,263.5 694.8,259.5 		"/>
	</g>
</g>
<g id="XMLID_331_">
	<g id="XMLID_408_">
		<line id="XMLID_410_" class="st36" x1="677.4" y1="544.6" x2="677.4" y2="557.6"/>
		<polyline id="XMLID_409_" class="st36" points="681.2,547.1 677.4,551 673.6,547.1 		"/>
	</g>
	<g id="XMLID_403_">
		<line id="XMLID_405_" class="st36" x1="666.2" y1="551.1" x2="677.4" y2="557.6"/>
		<polyline id="XMLID_404_" class="st36" points="670.3,549 671.7,554.3 666.5,555.7 		"/>
	</g>
	<g id="XMLID_398_">
		<line id="XMLID_400_" class="st36" x1="666.2" y1="564" x2="677.4" y2="557.6"/>
		<polyline id="XMLID_399_" class="st36" points="666.5,559.5 671.7,560.9 670.3,566.1 		"/>
	</g>
	<g id="XMLID_393_">
		<line id="XMLID_395_" class="st36" x1="677.4" y1="570.5" x2="677.4" y2="557.6"/>
		<polyline id="XMLID_394_" class="st36" points="673.6,568 677.4,564.2 681.2,568 		"/>
	</g>
	<g id="XMLID_370_">
		<line id="XMLID_390_" class="st36" x1="688.6" y1="564" x2="677.4" y2="557.6"/>
		<polyline id="XMLID_389_" class="st36" points="684.5,566.1 683.1,560.9 688.3,559.5 		"/>
	</g>
	<g id="XMLID_332_">
		<line id="XMLID_361_" class="st36" x1="688.6" y1="551.1" x2="677.4" y2="557.6"/>
		<polyline id="XMLID_360_" class="st36" points="688.3,555.7 683.1,554.3 684.5,549 		"/>
	</g>
</g>
<g id="XMLID_605_">
	<g id="XMLID_631_">
		<line id="XMLID_633_" class="st36" x1="570.4" y1="290.8" x2="570.4" y2="303.8"/>
		<polyline id="XMLID_632_" class="st36" points="574.2,293.3 570.4,297.2 566.5,293.3 		"/>
	</g>
	<g id="XMLID_626_">
		<line id="XMLID_628_" class="st36" x1="559.1" y1="297.3" x2="570.4" y2="303.8"/>
		<polyline id="XMLID_627_" class="st36" points="563.2,295.2 564.6,300.5 559.4,301.9 		"/>
	</g>
	<g id="XMLID_621_">
		<line id="XMLID_623_" class="st36" x1="559.1" y1="310.3" x2="570.4" y2="303.8"/>
		<polyline id="XMLID_622_" class="st36" points="559.4,305.7 564.6,307.1 563.2,312.3 		"/>
	</g>
	<g id="XMLID_616_">
		<line id="XMLID_618_" class="st36" x1="570.4" y1="316.7" x2="570.4" y2="303.8"/>
		<polyline id="XMLID_617_" class="st36" points="566.5,314.2 570.4,310.4 574.2,314.2 		"/>
	</g>
	<g id="XMLID_611_">
		<line id="XMLID_613_" class="st36" x1="581.6" y1="310.3" x2="570.4" y2="303.8"/>
		<polyline id="XMLID_612_" class="st36" points="577.5,312.3 576.1,307.1 581.3,305.7 		"/>
	</g>
	<g id="XMLID_606_">
		<line id="XMLID_608_" class="st36" x1="581.6" y1="297.3" x2="570.4" y2="303.8"/>
		<polyline id="XMLID_607_" class="st36" points="581.3,301.9 576.1,300.5 577.5,295.2 		"/>
	</g>
</g>
<g id="XMLID_432_">
	<g id="XMLID_562_">
		<line id="XMLID_564_" class="st37" x1="625.4" y1="471.5" x2="625.4" y2="478.9"/>
		<polyline id="XMLID_563_" class="st37" points="627.5,473 625.4,475.2 623.2,473 		"/>
	</g>
	<g id="XMLID_557_">
		<line id="XMLID_559_" class="st37" x1="619" y1="475.2" x2="625.4" y2="478.9"/>
		<polyline id="XMLID_558_" class="st37" points="621.3,474.1 622.1,477 619.1,477.8 		"/>
	</g>
	<g id="XMLID_552_">
		<line id="XMLID_554_" class="st37" x1="619" y1="482.6" x2="625.4" y2="478.9"/>
		<polyline id="XMLID_553_" class="st37" points="619.1,480 622.1,480.8 621.3,483.8 		"/>
	</g>
	<g id="XMLID_547_">
		<line id="XMLID_549_" class="st37" x1="625.4" y1="486.3" x2="625.4" y2="478.9"/>
		<polyline id="XMLID_548_" class="st37" points="623.2,484.9 625.4,482.7 627.5,484.9 		"/>
	</g>
	<g id="XMLID_528_">
		<line id="XMLID_544_" class="st37" x1="631.8" y1="482.6" x2="625.4" y2="478.9"/>
		<polyline id="XMLID_543_" class="st37" points="629.4,483.8 628.6,480.8 631.6,480 		"/>
	</g>
	<g id="XMLID_438_">
		<line id="XMLID_443_" class="st37" x1="631.8" y1="475.2" x2="625.4" y2="478.9"/>
		<polyline id="XMLID_442_" class="st37" points="631.6,477.8 628.6,477 629.4,474.1 		"/>
	</g>
</g>
<g id="XMLID_365_">
	<g id="XMLID_470_">
		<line id="XMLID_472_" class="st36" x1="362.6" y1="397.4" x2="362.6" y2="408.1"/>
		<polyline id="XMLID_471_" class="st36" points="365.8,399.5 362.6,402.6 359.5,399.5 		"/>
	</g>
	<g id="XMLID_465_">
		<line id="XMLID_467_" class="st36" x1="353.3" y1="402.7" x2="362.6" y2="408.1"/>
		<polyline id="XMLID_466_" class="st36" points="356.7,401 357.9,405.4 353.6,406.5 		"/>
	</g>
	<g id="XMLID_460_">
		<line id="XMLID_462_" class="st36" x1="353.3" y1="413.5" x2="362.6" y2="408.1"/>
		<polyline id="XMLID_461_" class="st36" points="353.6,409.7 357.9,410.8 356.7,415.2 		"/>
	</g>
	<g id="XMLID_455_">
		<line id="XMLID_457_" class="st36" x1="362.6" y1="418.9" x2="362.6" y2="408.1"/>
		<polyline id="XMLID_456_" class="st36" points="359.5,416.7 362.6,413.6 365.8,416.7 		"/>
	</g>
	<g id="XMLID_401_">
		<line id="XMLID_452_" class="st36" x1="371.9" y1="413.5" x2="362.6" y2="408.1"/>
		<polyline id="XMLID_451_" class="st36" points="368.5,415.2 367.4,410.8 371.7,409.7 		"/>
	</g>
	<g id="XMLID_366_">
		<line id="XMLID_392_" class="st36" x1="371.9" y1="402.7" x2="362.6" y2="408.1"/>
		<polyline id="XMLID_391_" class="st36" points="371.7,406.5 367.4,405.4 368.5,401 		"/>
	</g>
</g>
<g id="XMLID_413_">
	<g id="XMLID_683_">
		<g id="XMLID_704_">
			<g id="XMLID_706_">
				<line id="XMLID_707_" class="st32" x1="807.5" y1="650.9" x2="807.5" y2="663.8"/>
			</g>
			<polyline id="XMLID_705_" class="st32" points="811.3,653.4 807.5,657.2 803.7,653.4 			"/>
		</g>
		<g id="XMLID_700_">
			<g id="XMLID_702_">
				<line id="XMLID_703_" class="st32" x1="796.3" y1="657.3" x2="807.5" y2="663.8"/>
			</g>
			<polyline id="XMLID_701_" class="st32" points="800.4,655.3 801.8,660.5 796.6,661.9 			"/>
		</g>
		<g id="XMLID_696_">
			<g id="XMLID_698_">
				<line id="XMLID_699_" class="st32" x1="796.3" y1="670.3" x2="807.5" y2="663.8"/>
			</g>
			<polyline id="XMLID_697_" class="st32" points="796.6,665.7 801.8,667.1 800.4,672.4 			"/>
		</g>
		<g id="XMLID_692_">
			<g id="XMLID_694_">
				<line id="XMLID_695_" class="st32" x1="807.5" y1="676.8" x2="807.5" y2="663.8"/>
			</g>
			<polyline id="XMLID_693_" class="st32" points="803.7,674.3 807.5,670.4 811.3,674.3 			"/>
		</g>
		<g id="XMLID_688_">
			<g id="XMLID_690_">
				<line id="XMLID_691_" class="st32" x1="818.7" y1="670.3" x2="807.5" y2="663.8"/>
			</g>
			<polyline id="XMLID_689_" class="st32" points="814.6,672.4 813.2,667.1 818.4,665.7 			"/>
		</g>
		<g id="XMLID_684_">
			<g id="XMLID_686_">
				<line id="XMLID_687_" class="st32" x1="818.7" y1="657.3" x2="807.5" y2="663.8"/>
			</g>
			<polyline id="XMLID_685_" class="st32" points="818.4,661.9 813.2,660.5 814.6,655.3 			"/>
		</g>
	</g>
</g>
<g id="XMLID_333_">
	<line id="XMLID_276_" class="st32" x1="758.1" y1="383.5" x2="764.9" y2="383.5"/>
	<line id="XMLID_1_" class="st32" x1="761.5" y1="380.1" x2="761.5" y2="386.9"/>
</g>
<g id="XMLID_428_">
	<line id="XMLID_525_" class="st38" x1="198" y1="581.5" x2="205.5" y2="581.5"/>
	<line id="XMLID_513_" class="st38" x1="201.8" y1="577.8" x2="201.8" y2="585.3"/>
</g>
<g id="XMLID_517_">
	<line id="XMLID_550_" class="st38" x1="153.5" y1="691.6" x2="161" y2="691.6"/>
	<line id="XMLID_518_" class="st38" x1="157.2" y1="687.9" x2="157.2" y2="695.4"/>
</g>
<g id="XMLID_417_">
	<line id="XMLID_516_" class="st39" x1="372.1" y1="514.8" x2="379.4" y2="514.8"/>
	<line id="XMLID_423_" class="st39" x1="375.7" y1="511.2" x2="375.7" y2="518.5"/>
</g>
<circle id="XMLID_378_" class="st40" cx="341.8" cy="573" r="4"/>
<circle id="XMLID_519_" class="st40" cx="576.2" cy="392.4" r="4"/>
<circle id="XMLID_522_" class="st39" cx="267.3" cy="365.6" r="5.3"/>
<circle id="XMLID_242_" class="st40" cx="674.2" cy="654.2" r="4.6"/>
<g id="XMLID_382_">
	<line id="XMLID_427_" class="st39" x1="401.4" y1="310.6" x2="411.5" y2="310.6"/>
	<line id="XMLID_387_" class="st39" x1="406.4" y1="305.5" x2="406.4" y2="315.6"/>
</g>
<g id="XMLID_248_">
	<path id="XMLID_267_" class="st20" d="M519.2,427.4c1,3.8-1.4,7.7-5.2,8.7c-3.8,1-7.7-1.4-8.7-5.2"/>
	<path id="XMLID_262_" class="st20" d="M533.2,424c1,3.8-1.4,7.7-5.2,8.7c-3.8,1-7.7-1.4-8.7-5.2"/>
</g>
<g id="XMLID_524_">
	<path id="XMLID_714_" class="st20" d="M486.5,334.9c1,3.8-1.4,7.7-5.2,8.7c-3.8,1-7.7-1.4-8.7-5.2"/>
</g>
<g id="XMLID_383_">
	<path id="XMLID_546_" class="st20" d="M456.8,457.8c1,3.8-1.4,7.7-5.2,8.7c-3.8,1-7.7-1.4-8.7-5.2"/>
</g>
<g id="XMLID_551_">
	<path id="XMLID_644_" class="st20" d="M549.3,541.9c1,3.8-1.4,7.7-5.2,8.7c-3.8,1-7.7-1.4-8.7-5.2"/>
	<path id="XMLID_555_" class="st20" d="M563.3,538.4c1,3.8-1.4,7.7-5.2,8.7c-3.8,1-7.7-1.4-8.7-5.2"/>
</g>
<g id="XMLID_715_">
	<path id="XMLID_717_" class="st20" d="M453.5,525.4c1,3.8-1.4,7.7-5.2,8.7c-3.8,1-7.7-1.4-8.7-5.2"/>
	<path id="XMLID_716_" class="st20" d="M467.4,521.9c1,3.8-1.4,7.7-5.2,8.7c-3.8,1-7.7-1.4-8.7-5.2"/>
</g>
<g id="XMLID_680_">
	<path id="XMLID_682_" class="st20" d="M446.6,639.1c1,3.8-1.4,7.7-5.2,8.7s-7.7-1.4-8.7-5.2"/>
	<path id="XMLID_681_" class="st20" d="M460.6,635.6c1,3.8-1.4,7.7-5.2,8.7c-3.8,1-7.7-1.4-8.7-5.2"/>
</g>
<g id="XMLID_708_">
	<path id="XMLID_710_" class="st20" d="M577.2,661.1c1,3.8-1.4,7.7-5.2,8.7c-3.8,1-7.7-1.4-8.7-5.2"/>
	<path id="XMLID_709_" class="st20" d="M591.2,657.7c1,3.8-1.4,7.7-5.2,8.7c-3.8,1-7.7-1.4-8.7-5.2"/>
</g>
<g id="XMLID_711_">
	<path id="XMLID_712_" class="st20" d="M500.4,677.5c1,3.8-1.4,7.7-5.2,8.7c-3.8,1-7.7-1.4-8.7-5.2"/>
</g>
</svg>
