<svg width="24" height="24" viewBox="0 0 24 24" fill="none" xmlns="http://www.w3.org/2000/svg">
<path d="M6 6C6 4.34313 7.34312 3 9 3H12V9H9C7.34312 9 6 7.65686 6 6Z" stroke="white"/>
<path d="M12 3H15C16.6569 3 18 4.34313 18 6C18 7.65686 16.6569 9 15 9H12V3Z" stroke="white"/>
<path d="M6 12C6 10.3431 7.34312 9 9 9H12V15H9C7.34312 15 6 13.6569 6 12Z" stroke="white"/>
<path d="M18 12C18 10.3432 16.6569 9 15 9C13.3431 9 12 10.3432 12 12C12 13.6568 13.3431 15 15 15C16.6569 15 18 13.6568 18 12Z" stroke="white"/>
<path d="M6 18C6 16.3431 7.34312 15 9 15H12V18C12 19.6569 10.6569 21 9 21C7.34312 21 6 19.6569 6 18Z" stroke="white"/>
</svg>
