<svg width="350" height="114" viewBox="0 0 350 114" fill="none" xmlns="http://www.w3.org/2000/svg">
<path d="M17.4979 64.7759H9.35786V95.9901H4.87122V64.7759H0V60.9943H4.87122V58.5586C4.87122 54.7557 5.83264 51.9569 7.75549 50.1622C9.72107 48.3675 12.8831 47.4702 17.2415 47.4702V51.3159C14.3359 51.3159 12.2849 51.8714 11.0884 52.9824C9.93472 54.0934 9.35786 55.9521 9.35786 58.5586V60.9943H17.4979V64.7759Z" fill="black"/>
<path d="M22.638 54.3925C21.7407 54.3925 20.9716 54.072 20.3306 53.431C19.6897 52.7901 19.3692 51.9996 19.3692 51.0595C19.3692 50.1195 19.6897 49.3503 20.3306 48.7521C20.9716 48.1112 21.7407 47.7907 22.638 47.7907C23.5354 47.7907 24.3045 48.1112 24.9455 48.7521C25.5864 49.3503 25.9069 50.1195 25.9069 51.0595C25.9069 51.9996 25.5864 52.7901 24.9455 53.431C24.3045 54.072 23.5354 54.3925 22.638 54.3925ZM24.8814 60.9943V95.9901H20.3947V60.9943H24.8814Z" fill="black"/>
<path d="M45.553 60.4815C48.8432 60.4815 51.7061 61.2506 54.1417 62.7889C56.5773 64.3272 58.3292 66.2714 59.3975 68.6215V60.9943H63.8841V96.8874C63.8841 100.092 63.1791 102.934 61.769 105.412C60.4016 107.89 58.4788 109.792 56.0005 111.117C53.5221 112.484 50.7019 113.168 47.5399 113.168C43.0533 113.168 39.3144 112.099 36.3233 109.963C33.3749 107.826 31.5376 104.921 30.8111 101.246H35.2337C36.0028 103.681 37.4557 105.626 39.5922 107.079C41.7714 108.531 44.4206 109.258 47.5399 109.258C49.8046 109.258 51.8343 108.766 53.6289 107.784C55.4236 106.844 56.8337 105.433 57.8592 103.553C58.8847 101.673 59.3975 99.4512 59.3975 96.8874V88.2346C58.2865 90.6275 56.5132 92.6144 54.0776 94.1954C51.6847 95.7337 48.8432 96.5029 45.553 96.5029C42.3482 96.5029 39.464 95.7551 36.9002 94.2595C34.3791 92.764 32.3921 90.6489 30.9393 87.9141C29.5292 85.1794 28.8242 82.0174 28.8242 78.4281C28.8242 74.8388 29.5292 71.6981 30.9393 69.0061C32.3921 66.2714 34.3791 64.1776 36.9002 62.7248C39.464 61.2293 42.3482 60.4815 45.553 60.4815ZM59.3975 78.4922C59.3975 75.672 58.8206 73.1937 57.6669 71.0572C56.5132 68.9207 54.9322 67.2756 52.9239 66.1218C50.9583 64.9681 48.7791 64.3913 46.3862 64.3913C43.9079 64.3913 41.6859 64.9468 39.7203 66.0578C37.7548 67.1687 36.1951 68.7925 35.0414 70.929C33.9304 73.0227 33.3749 75.5224 33.3749 78.4281C33.3749 81.291 33.9304 83.8121 35.0414 85.9913C36.1951 88.1278 37.7548 89.7729 39.7203 90.9266C41.6859 92.0376 43.9079 92.5931 46.3862 92.5931C48.7791 92.5931 50.9583 92.0162 52.9239 90.8625C54.9322 89.7088 56.5132 88.0637 57.6669 85.9272C58.8206 83.7907 59.3975 81.3124 59.3975 78.4922Z" fill="black"/>
<path d="M111.622 60.3533C115.724 60.3533 119.057 61.6566 121.621 64.2631C124.228 66.8269 125.531 70.5658 125.531 75.4797V95.9901H121.108V75.9925C121.108 72.1895 120.19 69.2839 118.352 67.2756C116.515 65.2672 114.015 64.2631 110.853 64.2631C107.563 64.2631 104.935 65.3527 102.97 67.5319C101.004 69.7112 100.021 72.8732 100.021 77.018V95.9901H95.5986V75.9925C95.5986 72.1895 94.6799 69.2839 92.8425 67.2756C91.0052 65.2672 88.4841 64.2631 85.2793 64.2631C81.9891 64.2631 79.3612 65.3527 77.3957 67.5319C75.4301 69.7112 74.4473 72.8732 74.4473 77.018V95.9901H69.9606V60.9943H74.4473V67.0192C75.5583 64.8399 77.1393 63.1948 79.1903 62.0839C81.2414 60.9302 83.5274 60.3533 86.0485 60.3533C89.0823 60.3533 91.7316 61.0797 93.9963 62.5325C96.3037 63.9853 97.9701 66.1218 98.9957 68.942C99.9357 66.1646 101.538 64.0494 103.803 62.5966C106.11 61.1011 108.717 60.3533 111.622 60.3533Z" fill="black"/>
<path d="M129.278 78.4281C129.278 74.8388 129.983 71.6981 131.393 69.0061C132.846 66.2714 134.833 64.1776 137.354 62.7248C139.918 61.2293 142.802 60.4815 146.007 60.4815C149.34 60.4815 152.203 61.2506 154.596 62.7889C157.031 64.3272 158.783 66.2928 159.851 68.6856V60.9943H164.338V95.9901H159.851V88.2346C158.74 90.6275 156.967 92.6144 154.531 94.1954C152.139 95.7337 149.276 96.5029 145.943 96.5029C142.781 96.5029 139.918 95.7551 137.354 94.2595C134.833 92.764 132.846 90.6489 131.393 87.9141C129.983 85.1794 129.278 82.0174 129.278 78.4281ZM159.851 78.4922C159.851 75.672 159.274 73.1937 158.121 71.0572C156.967 68.9207 155.386 67.2756 153.378 66.1218C151.412 64.9681 149.233 64.3913 146.84 64.3913C144.362 64.3913 142.14 64.9468 140.174 66.0578C138.209 67.1687 136.649 68.7925 135.495 70.929C134.384 73.0227 133.829 75.5224 133.829 78.4281C133.829 81.291 134.384 83.8121 135.495 85.9913C136.649 88.1278 138.209 89.7729 140.174 90.9266C142.14 92.0376 144.362 92.5931 146.84 92.5931C149.233 92.5931 151.412 92.0162 153.378 90.8625C155.386 89.7088 156.967 88.0637 158.121 85.9272C159.274 83.7907 159.851 81.3124 159.851 78.4922Z" fill="black"/>
<path d="M188.259 68.6856C189.37 66.3355 191.122 64.3913 193.515 62.853C195.951 61.272 198.835 60.4815 202.168 60.4815C205.33 60.4815 208.172 61.2293 210.693 62.7248C213.256 64.1776 215.243 66.2714 216.653 69.0061C218.106 71.6981 218.833 74.8388 218.833 78.4281C218.833 82.0174 218.106 85.1794 216.653 87.9141C215.243 90.6489 213.256 92.764 210.693 94.2595C208.172 95.7551 205.33 96.5029 202.168 96.5029C198.878 96.5029 196.015 95.7337 193.579 94.1954C191.144 92.6144 189.37 90.6489 188.259 88.2987V112.527H183.837V60.9943H188.259V68.6856ZM214.282 78.4281C214.282 75.5224 213.705 73.0227 212.551 70.929C211.44 68.7925 209.902 67.1687 207.937 66.0578C205.971 64.9468 203.749 64.3913 201.271 64.3913C198.878 64.3913 196.677 64.9681 194.669 66.1218C192.703 67.2756 191.144 68.9207 189.99 71.0572C188.836 73.1937 188.259 75.672 188.259 78.4922C188.259 81.3124 188.836 83.7907 189.99 85.9272C191.144 88.0637 192.703 89.7088 194.669 90.8625C196.677 92.0162 198.878 92.5931 201.271 92.5931C203.749 92.5931 205.971 92.0376 207.937 90.9266C209.902 89.7729 211.44 88.1278 212.551 85.9913C213.705 83.8121 214.282 81.291 214.282 78.4281Z" fill="black"/>
<path d="M227.409 48.5598V95.9901H222.922V48.5598H227.409Z" fill="black"/>
<path d="M263.72 60.9943V95.9901H259.233V89.837C258.207 92.0162 256.626 93.6827 254.49 94.8364C252.353 95.9901 249.961 96.5669 247.311 96.5669C243.124 96.5669 239.705 95.2851 237.056 92.7213C234.407 90.1147 233.082 86.3545 233.082 81.4405V60.9943H237.505V80.9278C237.505 84.7308 238.445 87.6364 240.325 89.6447C242.248 91.653 244.854 92.6572 248.145 92.6572C251.52 92.6572 254.212 91.5889 256.221 89.4524C258.229 87.3159 259.233 84.1753 259.233 80.0305V60.9943H263.72Z" fill="black"/>
<path d="M284.474 60.4815C287.765 60.4815 290.628 61.2506 293.063 62.7889C295.499 64.3272 297.251 66.2714 298.319 68.6215V60.9943H302.806V96.8874C302.806 100.092 302.101 102.934 300.69 105.412C299.323 107.89 297.4 109.792 294.922 111.117C292.444 112.484 289.623 113.168 286.461 113.168C281.975 113.168 278.236 112.099 275.245 109.963C272.296 107.826 270.459 104.921 269.733 101.246H274.155C274.924 103.681 276.377 105.626 278.514 107.079C280.693 108.531 283.342 109.258 286.461 109.258C288.726 109.258 290.756 108.766 292.55 107.784C294.345 106.844 295.755 105.433 296.781 103.553C297.806 101.673 298.319 99.4512 298.319 96.8874V88.2346C297.208 90.6275 295.435 92.6144 292.999 94.1954C290.606 95.7337 287.765 96.5029 284.474 96.5029C281.27 96.5029 278.385 95.7551 275.822 94.2595C273.301 92.764 271.314 90.6489 269.861 87.9141C268.451 85.1794 267.746 82.0174 267.746 78.4281C267.746 74.8388 268.451 71.6981 269.861 69.0061C271.314 66.2714 273.301 64.1776 275.822 62.7248C278.385 61.2293 281.27 60.4815 284.474 60.4815ZM298.319 78.4922C298.319 75.672 297.742 73.1937 296.588 71.0572C295.435 68.9207 293.854 67.2756 291.845 66.1218C289.88 64.9681 287.701 64.3913 285.308 64.3913C282.829 64.3913 280.607 64.9468 278.642 66.0578C276.676 67.1687 275.117 68.7925 273.963 70.929C272.852 73.0227 272.296 75.5224 272.296 78.4281C272.296 81.291 272.852 83.8121 273.963 85.9913C275.117 88.1278 276.676 89.7729 278.642 90.9266C280.607 92.0376 282.829 92.5931 285.308 92.5931C287.701 92.5931 289.88 92.0162 291.845 90.8625C293.854 89.7088 295.435 88.0637 296.588 85.9272C297.742 83.7907 298.319 81.3124 298.319 78.4922Z" fill="black"/>
<path d="M311.125 54.3925C310.228 54.3925 309.459 54.072 308.818 53.431C308.177 52.7901 307.857 51.9996 307.857 51.0595C307.857 50.1195 308.177 49.3503 308.818 48.7521C309.459 48.1112 310.228 47.7907 311.125 47.7907C312.023 47.7907 312.792 48.1112 313.433 48.7521C314.074 49.3503 314.394 50.1195 314.394 51.0595C314.394 51.9996 314.074 52.7901 313.433 53.431C312.792 54.072 312.023 54.3925 311.125 54.3925ZM313.369 60.9943V95.9901H308.882V60.9943H313.369Z" fill="black"/>
<path d="M335.771 60.3533C339.958 60.3533 343.377 61.6566 346.026 64.2631C348.675 66.8269 350 70.5658 350 75.4797V95.9901H345.577V75.9925C345.577 72.1895 344.616 69.2839 342.693 67.2756C340.813 65.2672 338.228 64.2631 334.938 64.2631C331.562 64.2631 328.87 65.3313 326.862 67.4678C324.853 69.6043 323.849 72.745 323.849 76.8898V95.9901H319.363V60.9943H323.849V66.9551C324.96 64.8186 326.563 63.1948 328.656 62.0839C330.75 60.9302 333.122 60.3533 335.771 60.3533Z" fill="black"/>
<path d="M3.4755 8.96443C4.77889 8.96443 6.15469 8.17552 6.15469 6.38254C6.15469 4.94816 5.28576 3.94409 3.62032 3.94409C1.88247 3.94409 0.868724 5.16332 0.941134 6.31082V6.38254C1.01354 8.03208 2.17211 8.96443 3.4755 8.96443Z" fill="black"/>
<path d="M64.8763 13.6984C64.7315 12.8377 66.1796 12.6943 66.0348 11.9771C65.89 10.973 65.0211 10.973 64.4418 11.0447C61.1836 11.4033 60.5319 12.4791 60.2423 14.559C60.0975 15.7782 60.8939 16.854 61.6904 17.7864C61.7628 18.8621 61.4732 20.7268 61.1111 22.6633C60.8215 22.8067 60.6043 23.0218 60.5319 23.3087C60.2423 24.3845 59.5906 27.6119 58.5769 30.2655C58.2873 30.6958 57.8529 31.2695 57.8529 31.6281C57.8529 31.7716 57.8529 31.915 57.8529 31.9867C57.1288 33.3494 56.3323 34.3535 55.391 34.3535C54.9566 34.3535 54.8118 33.206 54.8118 31.6999C54.8118 29.0463 56.1875 21.6592 56.1875 20.0814C56.1875 18.0015 56.5495 16.2085 56.5495 14.4873C56.5495 13.7701 56.0427 13.5549 55.391 13.5549C54.8842 13.5549 54.5946 13.9135 54.0877 13.9135C51.9879 13.9135 51.6983 15.061 51.6983 16.7823C51.6983 17.4995 51.6983 27.6836 51.5535 28.9745C51.4087 31.1261 50.1778 33.7797 47.8607 33.7797C45.761 33.7797 44.7473 30.911 44.7473 27.827C44.7473 25.03 45.2541 21.5157 45.6161 20.2965C45.8334 19.5793 46.7746 16.2802 46.7746 15.8499C46.7746 15.061 46.7022 14.8459 45.8334 14.8459C42.5027 14.9176 41.851 15.2045 41.3442 16.9974C40.8373 19.0773 40.2581 22.5198 40.2581 25.8906C40.2581 26.1775 40.2581 26.5361 40.2581 26.823C39.4616 29.2614 38.5927 31.9867 36.3481 32.1302C34.8276 32.2019 34.3207 28.4008 34.3207 24.4562C34.3207 16.6388 36.5653 9.03661 36.8549 1.21923C36.9274 0.502034 36.4205 0 35.5516 0C34.3931 0.143438 34.0311 0.0717192 33.5242 0.0717192C32.6554 0.0717192 32.2933 0.430315 32.2209 1.29094C31.4969 9.10833 29.9039 18.647 29.9039 26.2492C29.9039 26.3209 29.9039 26.3209 29.9039 26.3926C29.1074 28.9028 28.2386 32.1302 25.8491 32.2736C24.3286 32.3453 23.8218 28.5442 23.8218 24.5997C23.8218 16.7823 26.0664 9.18005 26.356 1.36266C26.4284 0.645472 25.9216 0.143438 25.0527 0.143438C23.8942 0.143438 23.5321 0.0717192 22.9529 0.0717192C22.084 0.0717192 21.722 0.430315 21.6496 1.29094C20.9255 9.10833 19.3326 18.647 19.3326 26.2492C19.3326 26.3209 19.3326 26.3209 19.3326 26.3926C18.5361 28.9028 17.6672 32.1302 15.2778 32.2736C13.7572 32.3453 13.2504 28.5442 13.2504 24.5997C13.2504 16.7823 15.495 9.18005 15.7846 1.36266C15.857 0.645472 15.3502 0.143438 14.4813 0.143438C13.2504 0.143438 12.8884 0.0717192 12.3091 0.0717192C11.4402 0.0717192 11.0782 0.430315 11.0058 1.29094C10.2817 9.10833 8.68879 18.647 8.68879 26.2492C8.68879 26.6078 8.68879 26.9664 8.68879 27.3967C7.96472 29.9069 6.87862 32.6322 5.5029 32.6322C4.85124 32.5605 4.34439 31.6281 4.34439 29.4766C4.34439 25.532 4.70643 20.0814 5.06846 15.9217C5.14087 15.4196 4.92365 14.9176 4.34439 14.9176C3.83755 14.8459 2.2446 14.7024 1.66535 14.7024C0.796472 14.7024 0.434439 15.2045 0.434439 16.1368V17.5712C0.506846 22.3764 0 26.1775 0 30.6958C0 33.9232 1.73776 36.1465 3.90995 36.1465C6.22697 36.1465 8.03713 34.21 9.26804 31.915C9.9197 34.3535 11.1506 36.505 13.6124 36.505C15.9294 36.505 18.1741 33.9949 19.6946 31.1978C20.2738 33.9232 21.5048 36.505 24.1838 36.505C26.5008 36.505 28.7454 33.9949 30.2659 31.1978C30.8452 33.9232 32.0761 36.505 34.7552 36.505C36.9998 36.505 39.2444 34.0666 40.7649 31.413C41.5614 34.6403 43.3715 37.0788 46.7746 37.0788C49.5985 37.0788 50.395 35.9313 52.2051 33.3494C52.7844 34.7838 53.0016 37.5091 54.667 37.5091C56.984 37.5091 58.9389 34.8555 60.2423 31.8433C61.618 34.21 64.9487 35.8596 67.4829 35.8596C71.3929 35.8596 74.7236 33.0625 74.434 28.8311C74.0719 23.0936 65.5279 16.9257 64.8763 13.6984ZM65.89 32.9908C64.7315 32.9908 62.9213 32.2736 62.8489 30.7675C62.7765 29.9069 64.8039 29.4766 65.5279 29.0463C66.1072 28.6877 66.252 28.4008 66.252 28.1856C66.1796 27.6836 65.4555 27.325 64.6591 27.325C64.0074 27.325 63.0661 27.5402 61.98 28.2573C62.1972 27.2533 63.7178 22.0895 64.0798 19.5793C66.9037 21.6592 69.5103 26.3926 69.7999 29.9069C70.0172 32.7039 66.8313 32.9908 65.89 32.9908Z" fill="black"/>
<path d="M130.767 8.96443C132.07 8.96443 133.446 8.17552 133.446 6.38254C133.446 4.94816 132.577 3.94409 130.911 3.94409C129.173 3.94409 128.16 5.16332 128.232 6.31082V6.38254C128.305 8.03208 129.463 8.96443 130.767 8.96443Z" fill="black"/>
<path d="M172.618 37.2222C171.314 36.3615 170.373 34.9989 170.59 29.4048C170.735 25.8188 171.459 20.8702 171.459 17.356C171.459 15.7781 170.735 13.9852 168.708 13.9852C166.173 13.9852 162.481 19.1489 161.322 21.4439C161.467 20.0813 161.901 16.065 161.974 14.7023C162.046 13.3397 162.046 13.268 159.657 13.268C158.064 13.268 157.919 13.5548 157.919 14.1286C157.919 17.4277 157.629 21.2288 157.34 25.0299C156.471 26.8946 155.312 28.7593 153.647 28.7593C153.14 28.7593 152.633 28.6159 152.199 28.4007C152.923 27.3249 153.43 24.8865 153.43 23.5955C153.43 21.5874 151.982 20.0096 149.954 20.0096C147.275 20.0096 145.682 21.8743 145.682 24.4562C145.682 26.4643 147.782 28.7593 149.375 29.8351C148.434 31.6998 146.551 32.8473 144.379 32.8473C141.265 32.8473 140.179 27.1815 140.179 25.1016C140.179 21.0854 141.628 16.567 146.406 16.567C149.665 16.567 149.665 18.7186 151.04 18.7186C151.185 18.7186 151.62 18.5035 151.62 18.2883C151.62 15.9216 147.854 13.9852 145.9 13.9852C139.238 13.9852 134.604 19.2207 134.604 25.7471C134.604 27.038 134.821 28.4007 135.256 29.6917C134.604 31.3412 133.808 32.6321 132.794 32.6321C132.142 32.6321 131.635 31.6998 131.635 29.5482C131.635 25.6037 131.997 20.153 132.359 15.9933C132.432 15.4913 132.215 14.9892 131.635 14.9892C131.129 14.9175 129.536 14.7741 128.956 14.7741C128.087 14.7741 127.725 15.2761 127.725 16.2085V17.6428C127.725 20.153 127.581 22.3046 127.508 24.4562C127.436 24.5279 127.363 24.6713 127.291 24.8147C126.495 26.9663 125.481 32.919 123.091 32.919C122.367 32.919 120.847 31.9149 120.847 29.1179C120.847 24.5996 122.367 15.563 122.585 13.9852C124.902 13.4831 126.929 13.6266 129.68 12.8376C130.911 12.4791 130.187 11.0447 128.812 11.1881C128.015 11.2598 125.843 11.4033 122.802 11.1881C122.874 8.82138 123.453 7.31527 123.453 4.87682V4.66167C123.453 4.01619 123.164 3.51416 122.512 3.51416C121.209 3.51416 119.181 3.94447 119.181 5.73745C119.181 7.60215 118.819 9.25169 118.892 11.1164C117.589 11.1881 116.43 10.8295 115.127 10.8295C114.185 10.8295 113.968 12.5508 113.968 13.1962C113.968 13.9134 114.041 14.4155 114.475 14.4155C116.285 14.4155 117.878 14.1286 118.602 14.0569C118.24 18.7903 117.661 21.4439 117.299 24.743C117.299 24.9582 117.226 25.2451 117.226 25.5319C116.43 28.0421 114.909 31.9149 113.679 31.9149C113.172 31.9149 112.448 31.126 112.448 30.5523C112.448 27.038 112.81 22.6632 113.751 19.1489C113.968 18.4317 114.475 17.1408 114.475 16.3519C114.475 15.4195 112.954 14.9175 112.158 14.9175C110.855 14.9175 110.927 15.6347 110.42 16.7822C109.479 16.065 109.262 14.7741 106.728 14.7741C102.094 14.7741 99.2697 22.2329 99.2697 26.8946C99.2697 27.6835 99.1972 28.1138 99.1972 28.5441C99.1972 31.1978 97.6767 34.4968 96.0838 34.4968C94.708 34.4968 94.2736 30.7674 94.2736 29.1896C94.2736 26.9663 95.2873 22.0177 96.1562 19.8661C96.5182 19.0772 97.1699 18.2166 97.1699 17.356C97.1699 16.3519 96.0114 14.7023 94.8528 14.7023C93.5495 14.7023 92.7531 15.4195 91.3773 15.4195C89.2051 15.4195 87.757 14.0569 86.5261 14.0569C85.7296 14.0569 85.2952 14.5589 85.2952 15.2761C85.2952 17.2125 87.395 16.8539 86.8881 19.2924C86.3813 21.5874 84.8607 27.827 83.9919 30.1937C83.9194 30.2654 83.9194 30.4088 83.9194 30.5523C83.9194 30.8392 83.9919 31.0543 84.0643 31.2695C83.5574 32.1301 82.9782 32.7039 82.2541 32.7039C81.53 32.7039 80.0095 31.6998 80.0095 28.9027C80.0095 24.3844 81.53 15.3478 81.7472 13.77C84.0643 13.268 86.0916 13.4114 88.8431 12.6225C90.074 12.2639 89.3499 10.8295 87.9742 10.973C87.1777 11.0447 85.0055 11.1881 81.9645 10.973C82.0369 8.60622 82.6161 7.10012 82.6161 4.66167V4.66167C82.6161 4.01619 82.3265 3.51416 81.6748 3.51416C80.3715 3.51416 78.3441 3.94447 78.3441 5.73745C78.3441 7.60215 77.9821 9.25169 78.0545 11.1164C76.7512 11.1881 75.5927 10.8295 74.2894 10.8295C73.3481 10.8295 73.1309 12.5508 73.1309 13.1962C73.1309 13.9134 73.2033 14.4155 73.6377 14.4155C75.4479 14.4155 77.0408 14.1286 77.7649 14.0569C77.4029 18.7903 76.8236 21.4439 76.4616 24.743C76.2443 26.4643 75.9547 29.1896 75.9547 30.9109C75.9547 33.9948 78.6338 36.505 80.8784 36.505C84.8607 36.505 88.119 28.4724 88.119 25.1733C88.119 25.0299 88.119 24.8865 88.119 24.743C88.5535 22.8066 88.8431 20.8702 89.2051 19.2207C89.2775 19.0055 89.4948 18.36 90.074 18.36C91.3773 18.36 91.5221 19.2924 91.5221 20.2964C91.5221 22.9501 90.5809 27.6835 90.5809 30.4806C90.5809 33.2059 91.3049 36.5767 94.4908 36.5767C97.1699 36.5767 99.3421 34.8554 100.573 32.5604C101.442 34.6403 102.89 36.2898 104.917 36.2898C106.872 36.2898 108.538 34.8554 109.696 33.4928C109.986 34.21 110.42 36.1464 112.52 36.1464C114.475 36.1464 115.996 34.4968 117.154 32.417C117.806 34.8554 119.978 36.5767 121.861 36.5767C124.105 36.5767 126.205 33.9231 127.508 31.0543C127.653 34.0665 129.318 36.0747 131.418 36.0747C133.59 36.0747 135.401 34.3534 136.631 32.2018C138.007 34.4251 140.179 35.9312 143.003 35.9312C146.986 35.9312 149.375 33.3493 151.475 30.2654C152.199 30.4088 152.851 30.624 153.502 30.624C154.878 30.624 156.254 29.6917 157.34 28.4007C157.195 30.6957 157.05 32.919 157.05 34.9271C157.05 35.6443 157.195 35.9312 157.702 36.0747C158.209 36.2898 159.15 36.1464 159.729 36.1464C160.453 36.1464 160.598 36.2181 160.743 35.2857C160.815 34.6403 161.25 26.9663 161.25 26.3926C161.25 24.8147 165.087 18.1449 166.97 18.1449C167.332 18.1449 167.621 18.7903 167.621 19.2207C167.621 22.6632 166.535 28.2573 166.535 31.8432C166.535 35.6443 168.418 36.9353 169.214 37.3656C169.794 37.7242 171.459 38.2262 172.328 38.1545C172.618 37.9394 173.124 37.509 172.618 37.2222ZM109.045 29.9068C108.972 30.9109 107.162 33.4928 105.786 33.4928C104.266 33.4928 103.614 29.1896 103.686 26.3208C103.759 22.95 105.424 16.9256 107.017 16.9256C109.117 16.9256 109.407 21.946 109.407 23.5238C109.407 25.3168 109.189 28.1138 109.045 29.9068ZM150.606 27.5401C149.665 26.9663 149.085 25.1733 149.085 24.0976C149.085 23.4521 149.303 22.0177 150.244 22.0177C151.113 22.0177 151.402 23.5955 151.402 24.241C151.402 25.1016 150.896 26.8229 150.606 27.5401Z" fill="black"/>
<path d="M189.27 28.759C188.907 23.0932 180.291 16.9254 179.712 13.698C179.567 12.8374 181.015 12.6939 180.87 11.9767C180.726 10.9727 179.857 10.9727 179.277 11.0444C176.019 11.403 175.367 12.4788 175.078 14.5586C174.933 15.7779 175.73 16.8536 176.526 17.786C176.598 20.2962 175.223 27.2529 173.63 29.9783C173.268 30.4803 172.761 31.1975 172.688 31.6278C172.544 32.4884 173.195 32.9187 173.775 32.345C174.281 31.9147 174.209 31.6278 174.716 31.2692C175.874 33.9228 179.495 35.7875 182.246 35.7875C186.228 35.7875 189.487 32.9905 189.27 28.759ZM180.726 32.9905C179.567 32.9905 177.757 32.2733 177.684 30.7672C177.612 29.9065 179.639 29.4762 180.364 29.0459C180.943 28.6873 181.088 28.4004 181.088 28.1853C181.015 27.6832 180.291 27.3246 179.495 27.3246C178.843 27.3246 177.902 27.5398 176.816 28.257C177.033 27.2529 178.553 22.0891 178.915 19.579C181.739 21.6588 184.346 26.3923 184.636 29.9065C184.853 32.7036 181.667 32.9905 180.726 32.9905Z" fill="black"/>
</svg>
