<svg width="248" height="51" viewBox="0 0 248 51" fill="none" xmlns="http://www.w3.org/2000/svg">
<path d="M4.55386 12.651C6.26159 12.651 8.06419 11.6174 8.06419 9.26815C8.06419 7.38879 6.9257 6.07324 4.74361 6.07324C2.46664 6.07324 1.1384 7.6707 1.23328 9.17418V9.26815C1.32815 11.4294 2.84613 12.651 4.55386 12.651Z" fill="black"/>
<path d="M85.0023 18.8532C84.8126 17.7255 86.7099 17.5376 86.5202 16.5979C86.3305 15.2824 85.192 15.2824 84.4331 15.3763C80.164 15.8462 79.3102 17.2557 78.9307 19.9808C78.741 21.5782 79.7845 22.9877 80.8281 24.2093C80.9229 25.6188 80.5435 28.062 80.0691 30.5991C79.6897 30.7871 79.405 31.069 79.3102 31.4449C78.9307 32.8544 78.0769 37.0829 76.7487 40.5597C76.3693 41.1236 75.8 41.8753 75.8 42.3451C75.8 42.5331 75.8 42.721 75.8 42.815C74.8514 44.6004 73.8078 45.9159 72.5745 45.9159C72.0053 45.9159 71.8156 44.4124 71.8156 42.4391C71.8156 38.9623 73.6181 29.2836 73.6181 27.2163C73.6181 24.4912 74.0924 22.142 74.0924 19.8868C74.0924 18.9471 73.4283 18.6652 72.5745 18.6652C71.9104 18.6652 71.5309 19.1351 70.8669 19.1351C68.1157 19.1351 67.7362 20.6385 67.7362 22.8938C67.7362 23.8335 67.7362 37.1769 67.5465 38.8683C67.3567 41.6874 65.744 45.1642 62.7082 45.1642C59.957 45.1642 58.6288 41.4055 58.6288 37.3648C58.6288 33.7001 59.2929 29.0957 59.7672 27.4982C60.0518 26.5585 61.2851 22.236 61.2851 21.6722C61.2851 20.6385 61.1903 20.3566 60.0518 20.3566C55.6879 20.4506 54.8341 20.8265 54.17 23.1757C53.5059 25.9007 52.747 30.4112 52.747 34.8277C52.747 35.2036 52.747 35.6734 52.747 36.0493C51.7034 39.2442 50.565 42.815 47.6241 43.0029C45.6318 43.0969 44.9677 38.1166 44.9677 32.9483C44.9677 22.7058 47.9087 12.7452 48.2881 2.50273C48.383 1.56305 47.7189 0.905273 46.5805 0.905273C45.0626 1.09321 44.5883 0.999241 43.9242 0.999241C42.7858 0.999241 42.3114 1.46908 42.2165 2.5967C41.2679 12.8392 39.1807 25.3369 39.1807 35.2975C39.1807 35.3915 39.1807 35.3915 39.1807 35.4855C38.1372 38.7744 36.9988 43.0029 33.8681 43.1908C31.8759 43.2848 31.2118 38.3045 31.2118 33.1363C31.2118 22.8938 34.1527 12.9332 34.5322 2.69066C34.6271 1.75098 33.963 1.09321 32.8245 1.09321C31.3066 1.09321 30.8323 0.999241 30.0734 0.999241C28.9349 0.999241 28.4606 1.46908 28.3657 2.5967C27.417 12.8392 25.3299 25.3369 25.3299 35.2975C25.3299 35.3915 25.3299 35.3915 25.3299 35.4855C24.2864 38.7744 23.1479 43.0029 20.0173 43.1908C18.025 43.2848 17.361 38.3045 17.361 33.1363C17.361 22.8938 20.3019 12.9332 20.6814 2.69066C20.7762 1.75098 20.1122 1.09321 18.9737 1.09321C17.361 1.09321 16.8866 0.999241 16.1277 0.999241C14.9892 0.999241 14.5149 1.46908 14.42 2.5967C13.4713 12.8392 11.3842 25.3369 11.3842 35.2975C11.3842 35.7674 11.3842 36.2372 11.3842 36.801C10.4355 40.0899 9.01252 43.6607 7.21002 43.6607C6.3562 43.5667 5.69212 42.3451 5.69212 39.5261C5.69212 34.3579 6.16646 27.2163 6.6408 21.7662C6.73567 21.1084 6.45107 20.4506 5.69212 20.4506C5.02804 20.3566 2.94093 20.1687 2.18198 20.1687C1.04355 20.1687 0.569212 20.8265 0.569212 22.0481V23.9274C0.66408 30.2233 0 35.2036 0 41.1236C0 45.3521 2.27685 48.2651 5.12291 48.2651C8.1587 48.2651 10.5304 45.728 12.1432 42.721C12.997 45.9159 14.6098 48.735 17.8353 48.735C20.8711 48.735 23.812 45.4461 25.8043 41.7813C26.5632 45.3521 28.176 48.735 31.6861 48.735C34.7219 48.735 37.6628 45.4461 39.6551 41.7813C40.414 45.3521 42.0268 48.735 45.5369 48.735C48.4779 48.735 51.4188 45.54 53.411 42.0632C54.4546 46.2918 56.8263 49.4867 61.2851 49.4867C64.985 49.4867 66.0286 47.9832 68.4003 44.6004C69.1592 46.4797 69.4438 50.0505 71.6258 50.0505C74.6616 50.0505 77.2231 46.5737 78.9307 42.627C80.7332 45.728 85.0972 47.8892 88.4176 47.8892C93.5405 47.8892 97.9044 44.2245 97.525 38.6804C97.0506 31.1629 85.8561 23.0817 85.0023 18.8532ZM86.3305 44.1305C84.8126 44.1305 82.4408 43.1908 82.346 41.2175C82.2511 40.0899 84.9074 39.5261 85.8561 38.9623C86.6151 38.4925 86.8048 38.1166 86.8048 37.8347C86.7099 37.1769 85.7612 36.7071 84.7177 36.7071C83.8639 36.7071 82.6306 36.989 81.2076 37.9286C81.4922 36.6131 83.4844 29.8474 83.9587 26.5585C87.6586 29.2836 91.0739 35.4855 91.4534 40.0899C91.738 43.7547 87.5638 44.1305 86.3305 44.1305Z" fill="black"/>
<path d="M171.333 12.651C173.041 12.651 174.843 11.6174 174.843 9.26815C174.843 7.38879 173.705 6.07324 171.523 6.07324C169.246 6.07324 167.918 7.6707 168.013 9.17418V9.26815C168.107 11.4294 169.625 12.651 171.333 12.651Z" fill="black"/>
<path d="M226.167 49.6747C224.459 48.5471 223.226 46.7617 223.511 39.4322C223.7 34.7338 224.649 28.25 224.649 23.6456C224.649 21.5783 223.7 19.2291 221.044 19.2291C217.724 19.2291 212.885 25.9948 211.367 29.0018C211.557 27.2164 212.126 21.9542 212.221 20.1688C212.316 18.3834 212.316 18.2894 209.185 18.2894C207.098 18.2894 206.909 18.6653 206.909 19.417C206.909 23.7395 206.529 28.7198 206.15 33.7001C205.011 36.1433 203.493 38.5865 201.311 38.5865C200.647 38.5865 199.983 38.3985 199.414 38.1166C200.363 36.7071 201.027 33.5122 201.027 31.8208C201.027 29.1897 199.129 27.1224 196.473 27.1224C192.963 27.1224 190.876 29.5656 190.876 32.9484C190.876 35.5795 193.627 38.5865 195.714 39.996C194.481 42.4392 192.014 43.9427 189.168 43.9427C185.089 43.9427 183.666 36.5192 183.666 33.7941C183.666 28.5319 185.563 22.6119 191.824 22.6119C196.094 22.6119 196.094 25.431 197.896 25.431C198.086 25.431 198.655 25.1491 198.655 24.8672C198.655 21.7662 193.722 19.2291 191.16 19.2291C182.432 19.2291 176.361 26.0887 176.361 34.6398C176.361 36.3312 176.645 38.1166 177.215 39.8081C176.361 41.9693 175.317 43.6608 173.989 43.6608C173.135 43.6608 172.471 42.4392 172.471 39.6201C172.471 34.4519 172.946 27.3103 173.42 21.8602C173.515 21.2024 173.23 20.5446 172.471 20.5446C171.807 20.4507 169.72 20.2627 168.961 20.2627C167.823 20.2627 167.348 20.9205 167.348 22.1421V24.0215C167.348 27.3103 167.159 30.1294 167.064 32.9484C166.969 33.0424 166.874 33.2303 166.779 33.4182C165.736 36.2373 164.407 44.0366 161.277 44.0366C160.328 44.0366 158.336 42.7211 158.336 39.0563C158.336 33.1363 160.328 21.2964 160.613 19.2291C163.648 18.5713 166.305 18.7592 169.91 17.7256C171.523 17.2558 170.574 15.3764 168.771 15.5643C167.728 15.6583 164.882 15.8462 160.897 15.5643C160.992 12.4634 161.751 10.4901 161.751 7.29516V7.01325C161.751 6.16754 161.372 5.50977 160.518 5.50977C158.81 5.50977 156.154 6.07357 156.154 8.42277C156.154 10.8659 155.68 13.0272 155.774 15.4704C154.067 15.5643 152.549 15.0945 150.841 15.0945C149.608 15.0945 149.323 17.3497 149.323 18.1954C149.323 19.1351 149.418 19.7929 149.987 19.7929C152.359 19.7929 154.446 19.417 155.395 19.3231C154.921 25.5249 154.162 29.0018 153.687 33.3243C153.687 33.6062 153.592 33.9821 153.592 34.3579C152.549 37.6468 150.557 42.7211 148.944 42.7211C148.28 42.7211 147.331 41.6874 147.331 40.9357C147.331 36.3313 147.805 30.5992 149.039 25.9948C149.323 25.0551 149.987 23.3637 149.987 22.33C149.987 21.1084 147.995 20.4507 146.952 20.4507C145.244 20.4507 145.339 21.3903 144.675 22.8938C143.441 21.9542 143.157 20.2627 139.836 20.2627C133.765 20.2627 130.065 30.0354 130.065 36.1433C130.065 37.177 129.97 37.7408 129.97 38.3046C129.97 41.7814 127.978 46.1039 125.891 46.1039C124.088 46.1039 123.519 41.2176 123.519 39.1503C123.519 36.2373 124.847 29.7535 125.986 26.9345C126.46 25.9008 127.314 24.7732 127.314 23.6456C127.314 22.33 125.796 20.1688 124.278 20.1688C122.57 20.1688 121.527 21.1084 119.724 21.1084C116.878 21.1084 114.981 19.3231 113.368 19.3231C112.325 19.3231 111.755 19.9808 111.755 20.9205C111.755 23.4576 114.507 22.9878 113.842 26.1827C113.178 29.1897 111.186 37.3649 110.048 40.4658C109.953 40.5598 109.953 40.7477 109.953 40.9357C109.953 41.3116 110.048 41.5935 110.143 41.8754C109.478 43.003 108.72 43.7547 107.771 43.7547C106.822 43.7547 104.83 42.4392 104.83 38.7744C104.83 32.8544 106.822 21.0145 107.107 18.9472C110.143 18.2894 112.799 18.4773 116.404 17.4437C118.017 16.9739 117.068 15.0945 115.265 15.2824C114.222 15.3764 111.376 15.5643 107.391 15.2824C107.486 12.1815 108.245 10.2082 108.245 7.01325V7.01325C108.245 6.16754 107.866 5.50977 107.012 5.50977C105.304 5.50977 102.648 6.07357 102.648 8.42277C102.648 10.8659 102.174 13.0272 102.268 15.4704C100.561 15.5643 99.0429 15.0945 97.3353 15.0945C96.102 15.0945 95.8174 17.3497 95.8174 18.1954C95.8174 19.1351 95.9122 19.7929 96.4815 19.7929C98.8532 19.7929 100.94 19.417 101.889 19.3231C101.415 25.5249 100.656 29.0018 100.181 33.3243C99.8967 35.5795 99.5173 39.1503 99.5173 41.4055C99.5173 45.4461 103.027 48.735 105.968 48.735C111.186 48.735 115.455 38.2106 115.455 33.8881C115.455 33.7001 115.455 33.5122 115.455 33.3243C116.024 30.7871 116.404 28.25 116.878 26.0887C116.973 25.8068 117.258 24.9611 118.017 24.9611C119.724 24.9611 119.914 26.1827 119.914 27.4983C119.914 30.9751 118.681 37.177 118.681 40.8417C118.681 44.4125 119.629 48.829 123.804 48.829C127.314 48.829 130.16 46.5738 131.773 43.5668C132.911 46.2919 134.808 48.4531 137.465 48.4531C140.026 48.4531 142.208 46.5738 143.726 44.7884C144.106 45.728 144.675 48.2652 147.426 48.2652C149.987 48.2652 151.98 46.1039 153.498 43.3788C154.351 46.5738 157.197 48.829 159.664 48.829C162.605 48.829 165.356 45.3522 167.064 41.5935C167.253 45.5401 169.435 48.1712 172.187 48.1712C175.033 48.1712 177.404 45.916 179.017 43.0969C180.82 46.0099 183.666 47.9833 187.366 47.9833C192.583 47.9833 195.714 44.6004 198.465 40.5598C199.414 40.7477 200.268 41.0296 201.122 41.0296C202.924 41.0296 204.727 39.8081 206.15 38.1166C205.96 41.1236 205.77 44.0366 205.77 46.6677C205.77 47.6074 205.96 47.9833 206.624 48.1712C207.288 48.4531 208.521 48.2652 209.28 48.2652C210.229 48.2652 210.419 48.3591 210.608 47.1376C210.703 46.2919 211.273 36.2373 211.273 35.4855C211.273 33.4182 216.301 24.6792 218.767 24.6792C219.242 24.6792 219.621 25.5249 219.621 26.0887C219.621 30.5992 218.198 37.9287 218.198 42.6271C218.198 47.6074 220.665 49.2988 221.708 49.8626C222.467 50.3325 224.649 50.9902 225.787 50.8963C226.167 50.6144 226.831 50.0506 226.167 49.6747ZM142.872 40.09C142.777 41.4055 140.406 44.7884 138.603 44.7884C136.611 44.7884 135.757 39.1503 135.852 35.3916C135.947 30.9751 138.129 23.0818 140.216 23.0818C142.967 23.0818 143.347 29.6595 143.347 31.7268C143.347 34.076 143.062 37.7408 142.872 40.09ZM197.327 36.989C196.094 36.2373 195.335 33.8881 195.335 32.4786C195.335 31.6329 195.619 29.7535 196.853 29.7535C197.991 29.7535 198.37 31.8208 198.37 32.6665C198.37 33.7941 197.706 36.0493 197.327 36.989Z" fill="black"/>
<path d="M247.986 38.5864C247.512 31.1629 236.222 23.0816 235.463 18.8531C235.274 17.7255 237.171 17.5375 236.981 16.5979C236.792 15.2823 235.653 15.2823 234.894 15.3763C230.625 15.8461 229.771 17.2556 229.392 19.9807C229.202 21.5782 230.246 22.9877 231.289 24.2093C231.384 27.4981 229.582 36.613 227.494 40.1838C227.02 40.8416 226.356 41.7813 226.261 42.3451C226.071 43.4727 226.925 44.0365 227.684 43.2848C228.348 42.7209 228.253 42.3451 228.917 41.8752C230.435 45.3521 235.179 47.7952 238.784 47.7952C244.002 47.7952 248.271 44.1305 247.986 38.5864ZM236.792 44.1305C235.274 44.1305 232.902 43.1908 232.807 41.2175C232.712 40.0898 235.369 39.526 236.317 38.9622C237.076 38.4924 237.266 38.1165 237.266 37.8346C237.171 37.1768 236.222 36.707 235.179 36.707C234.325 36.707 233.092 36.9889 231.669 37.9286C231.953 36.613 233.946 29.8473 234.42 26.5585C238.12 29.2835 241.535 35.4854 241.914 40.0898C242.199 43.7546 238.025 44.1305 236.792 44.1305Z" fill="black"/>
</svg>
