<svg width="250" height="111" viewBox="0 0 250 111" fill="none" xmlns="http://www.w3.org/2000/svg">
<path d="M15.688 110.556H50.172L50.172 2.36801L0 2.36801L0 33.152H15.688L15.688 110.556Z" fill="#F3F3F3"/>
<path d="M62.3693 54.908C62.3693 87.468 75.3933 109.964 106.769 109.964C137.997 109.964 151.169 87.468 151.169 54.908C151.169 22.496 137.997 0 106.769 0C75.3933 0 62.3693 22.496 62.3693 54.908ZM118.757 54.908C118.757 68.524 117.425 78.884 106.769 78.884C95.9653 78.884 94.6333 68.524 94.6333 54.908C94.6333 41.44 95.9653 31.08 106.769 31.08C117.425 31.08 118.757 41.44 118.757 54.908Z" fill="#F3F3F3"/>
<path d="M160.361 54.908C160.361 87.468 173.385 109.964 204.761 109.964C235.989 109.964 249.161 87.468 249.161 54.908C249.161 22.496 235.989 0 204.761 0C173.385 0 160.361 22.496 160.361 54.908ZM216.749 54.908C216.749 68.524 215.417 78.884 204.761 78.884C193.957 78.884 192.625 68.524 192.625 54.908C192.625 41.44 193.957 31.08 204.761 31.08C215.417 31.08 216.749 41.44 216.749 54.908Z" fill="#F3F3F3"/>
<path d="M5.55386 72.7457C7.26159 72.7457 9.06419 71.7121 9.06419 69.3629C9.06419 67.4835 7.9257 66.168 5.74361 66.168C3.46664 66.168 2.1384 67.7654 2.23328 69.2689V69.3629C2.32815 71.5241 3.84613 72.7457 5.55386 72.7457Z" fill="black"/>
<path d="M86.0023 78.9479C85.8126 77.8203 87.7099 77.6323 87.5202 76.6926C87.3305 75.3771 86.192 75.3771 85.4331 75.4711C81.164 75.9409 80.3102 77.3504 79.9307 80.0755C79.741 81.6729 80.7845 83.0825 81.8281 84.3041C81.9229 85.7136 81.5435 88.1567 81.0691 90.6939C80.6897 90.8818 80.405 91.1637 80.3102 91.5396C79.9307 92.9491 79.0769 97.1777 77.7487 100.654C77.3693 101.218 76.8 101.97 76.8 102.44C76.8 102.628 76.8 102.816 76.8 102.91C75.8514 104.695 74.8078 106.011 73.5745 106.011C73.0053 106.011 72.8156 104.507 72.8156 102.534C72.8156 99.057 74.6181 89.3783 74.6181 87.311C74.6181 84.586 75.0924 82.2368 75.0924 79.9815C75.0924 79.0418 74.4283 78.7599 73.5745 78.7599C72.9104 78.7599 72.5309 79.2298 71.8669 79.2298C69.1157 79.2298 68.7362 80.7333 68.7362 82.9885C68.7362 83.9282 68.7362 97.2716 68.5465 98.963C68.3567 101.782 66.744 105.259 63.7082 105.259C60.957 105.259 59.6288 101.5 59.6288 97.4596C59.6288 93.7948 60.2929 89.1904 60.7672 87.5929C61.0518 86.6532 62.2851 82.3307 62.2851 81.7669C62.2851 80.7333 62.1903 80.4514 61.0518 80.4514C56.6879 80.5453 55.8341 80.9212 55.17 83.2704C54.5059 85.9955 53.747 90.5059 53.747 94.9224C53.747 95.2983 53.747 95.7681 53.747 96.144C52.7034 99.3389 51.565 102.91 48.6241 103.098C46.6318 103.192 45.9677 98.2113 45.9677 93.0431C45.9677 82.8006 48.9087 72.84 49.2881 62.5975C49.383 61.6578 48.7189 61 47.5805 61C46.0626 61.1879 45.5883 61.094 44.9242 61.094C43.7858 61.094 43.3114 61.5638 43.2165 62.6914C42.2679 72.9339 40.1807 85.4317 40.1807 95.3923C40.1807 95.4862 40.1807 95.4862 40.1807 95.5802C39.1372 98.8691 37.9988 103.098 34.8681 103.286C32.8759 103.38 32.2118 98.3992 32.2118 93.231C32.2118 82.9885 35.1527 73.0279 35.5322 62.7854C35.6271 61.8457 34.963 61.1879 33.8245 61.1879C32.3066 61.1879 31.8323 61.094 31.0734 61.094C29.9349 61.094 29.4606 61.5638 29.3657 62.6914C28.417 72.9339 26.3299 85.4317 26.3299 95.3923C26.3299 95.4862 26.3299 95.4862 26.3299 95.5802C25.2864 98.8691 24.1479 103.098 21.0173 103.286C19.025 103.38 18.361 98.3992 18.361 93.231C18.361 82.9885 21.3019 73.0279 21.6814 62.7854C21.7762 61.8457 21.1122 61.1879 19.9737 61.1879C18.361 61.1879 17.8866 61.094 17.1277 61.094C15.9892 61.094 15.5149 61.5638 15.42 62.6914C14.4713 72.9339 12.3842 85.4317 12.3842 95.3923C12.3842 95.8621 12.3842 96.3319 12.3842 96.8958C11.4355 100.185 10.0125 103.755 8.21002 103.755C7.3562 103.661 6.69212 102.44 6.69212 99.6208C6.69212 94.4526 7.16646 87.311 7.6408 81.8609C7.73567 81.2031 7.45107 80.5453 6.69212 80.5453C6.02804 80.4514 3.94093 80.2634 3.18198 80.2634C2.04355 80.2634 1.56921 80.9212 1.56921 82.1428V84.0221C1.66408 90.318 1 95.2983 1 101.218C1 105.447 3.27685 108.36 6.12291 108.36C9.1587 108.36 11.5304 105.823 13.1432 102.816C13.997 106.011 15.6098 108.83 18.8353 108.83C21.8711 108.83 24.812 105.541 26.8043 101.876C27.5632 105.447 29.176 108.83 32.6861 108.83C35.7219 108.83 38.6628 105.541 40.6551 101.876C41.414 105.447 43.0268 108.83 46.5369 108.83C49.4779 108.83 52.4188 105.635 54.411 102.158C55.4546 106.387 57.8263 109.581 62.2851 109.581C65.985 109.581 67.0286 108.078 69.4003 104.695C70.1592 106.574 70.4438 110.145 72.6258 110.145C75.6616 110.145 78.2231 106.668 79.9307 102.722C81.7332 105.823 86.0972 107.984 89.4176 107.984C94.5405 107.984 98.9044 104.319 98.525 98.7751C98.0506 91.2577 86.8561 83.1764 86.0023 78.9479ZM87.3305 104.225C85.8126 104.225 83.4408 103.286 83.346 101.312C83.2511 100.185 85.9074 99.6208 86.8561 99.057C87.6151 98.5872 87.8048 98.2113 87.8048 97.9294C87.7099 97.2716 86.7612 96.8018 85.7177 96.8018C84.8639 96.8018 83.6306 97.0837 82.2076 98.0234C82.4922 96.7078 84.4844 89.9421 84.9587 86.6532C88.6586 89.3783 92.0739 95.5802 92.4534 100.185C92.738 103.849 88.5638 104.225 87.3305 104.225Z" fill="black"/>
<path d="M172.333 72.7457C174.041 72.7457 175.843 71.7121 175.843 69.3629C175.843 67.4835 174.705 66.168 172.523 66.168C170.246 66.168 168.918 67.7654 169.013 69.2689V69.3629C169.107 71.5241 170.625 72.7457 172.333 72.7457Z" fill="black"/>
<path d="M227.167 109.769C225.459 108.642 224.226 106.856 224.511 99.5269C224.7 94.8285 225.649 88.3447 225.649 83.7403C225.649 81.673 224.7 79.3238 222.044 79.3238C218.724 79.3238 213.885 86.0895 212.367 89.0965C212.557 87.3111 213.126 82.0489 213.221 80.2635C213.316 78.4781 213.316 78.3841 210.185 78.3841C208.098 78.3841 207.909 78.76 207.909 79.5117C207.909 83.8343 207.529 88.8146 207.15 93.7949C206.011 96.238 204.493 98.6812 202.311 98.6812C201.647 98.6812 200.983 98.4933 200.414 98.2114C201.363 96.8018 202.027 93.6069 202.027 91.9155C202.027 89.2844 200.129 87.2171 197.473 87.2171C193.963 87.2171 191.876 89.6603 191.876 93.0431C191.876 95.6742 194.627 98.6812 196.714 100.091C195.481 102.534 193.014 104.037 190.168 104.037C186.089 104.037 184.666 96.6139 184.666 93.8888C184.666 88.6266 186.563 82.7067 192.824 82.7067C197.094 82.7067 197.094 85.5257 198.896 85.5257C199.086 85.5257 199.655 85.2438 199.655 84.9619C199.655 81.8609 194.722 79.3238 192.16 79.3238C183.432 79.3238 177.361 86.1835 177.361 94.7346C177.361 96.426 177.645 98.2114 178.215 99.9028C177.361 102.064 176.317 103.755 174.989 103.755C174.135 103.755 173.471 102.534 173.471 99.7149C173.471 94.5466 173.946 87.4051 174.42 81.9549C174.515 81.2971 174.23 80.6394 173.471 80.6394C172.807 80.5454 170.72 80.3575 169.961 80.3575C168.823 80.3575 168.348 81.0152 168.348 82.2368V84.1162C168.348 87.4051 168.159 90.2241 168.064 93.0431C167.969 93.1371 167.874 93.325 167.779 93.513C166.736 96.332 165.407 104.131 162.277 104.131C161.328 104.131 159.336 102.816 159.336 99.151C159.336 93.2311 161.328 81.3911 161.613 79.3238C164.648 78.666 167.305 78.854 170.91 77.8203C172.523 77.3505 171.574 75.4711 169.771 75.6591C168.728 75.753 165.882 75.941 161.897 75.6591C161.992 72.5581 162.751 70.5848 162.751 67.3899V67.108C162.751 66.2623 162.372 65.6045 161.518 65.6045C159.81 65.6045 157.154 66.1683 157.154 68.5175C157.154 70.9607 156.68 73.1219 156.774 75.5651C155.067 75.6591 153.549 75.1892 151.841 75.1892C150.608 75.1892 150.323 77.4445 150.323 78.2902C150.323 79.2298 150.418 79.8876 150.987 79.8876C153.359 79.8876 155.446 79.5117 156.395 79.4178C155.921 85.6197 155.162 89.0965 154.687 93.419C154.687 93.7009 154.592 94.0768 154.592 94.4527C153.549 97.7415 151.557 102.816 149.944 102.816C149.28 102.816 148.331 101.782 148.331 101.03C148.331 96.426 148.805 90.6939 150.039 86.0895C150.323 85.1498 150.987 83.4584 150.987 82.4248C150.987 81.2032 148.995 80.5454 147.952 80.5454C146.244 80.5454 146.339 81.4851 145.675 82.9886C144.441 82.0489 144.157 80.3575 140.836 80.3575C134.765 80.3575 131.065 90.1301 131.065 96.238C131.065 97.2717 130.97 97.8355 130.97 98.3993C130.97 101.876 128.978 106.199 126.891 106.199C125.088 106.199 124.519 101.312 124.519 99.245C124.519 96.332 125.847 89.8482 126.986 87.0292C127.46 85.9955 128.314 84.8679 128.314 83.7403C128.314 82.4248 126.796 80.2635 125.278 80.2635C123.57 80.2635 122.527 81.2032 120.724 81.2032C117.878 81.2032 115.981 79.4178 114.368 79.4178C113.325 79.4178 112.755 80.0756 112.755 81.0152C112.755 83.5524 115.507 83.0825 114.842 86.2774C114.178 89.2844 112.186 97.4596 111.048 100.561C110.953 100.655 110.953 100.842 110.953 101.03C110.953 101.406 111.048 101.688 111.143 101.97C110.478 103.098 109.72 103.849 108.771 103.849C107.822 103.849 105.83 102.534 105.83 98.8691C105.83 92.9492 107.822 81.1092 108.107 79.0419C111.143 78.3841 113.799 78.5721 117.404 77.5384C119.017 77.0686 118.068 75.1892 116.265 75.3772C115.222 75.4711 112.376 75.6591 108.391 75.3772C108.486 72.2762 109.245 70.3029 109.245 67.108V67.108C109.245 66.2623 108.866 65.6045 108.012 65.6045C106.304 65.6045 103.648 66.1683 103.648 68.5175C103.648 70.9607 103.174 73.1219 103.268 75.5651C101.561 75.6591 100.043 75.1892 98.3353 75.1892C97.102 75.1892 96.8174 77.4445 96.8174 78.2902C96.8174 79.2298 96.9122 79.8876 97.4815 79.8876C99.8532 79.8876 101.94 79.5117 102.889 79.4178C102.415 85.6197 101.656 89.0965 101.181 93.419C100.897 95.6742 100.517 99.245 100.517 101.5C100.517 105.541 104.027 108.83 106.968 108.83C112.186 108.83 116.455 98.3053 116.455 93.9828C116.455 93.7949 116.455 93.6069 116.455 93.419C117.024 90.8819 117.404 88.3447 117.878 86.1835C117.973 85.9016 118.258 85.0559 119.017 85.0559C120.724 85.0559 120.914 86.2774 120.914 87.593C120.914 91.0698 119.681 97.2717 119.681 100.936C119.681 104.507 120.629 108.924 124.804 108.924C128.314 108.924 131.16 106.668 132.773 103.662C133.911 106.387 135.808 108.548 138.465 108.548C141.026 108.548 143.208 106.668 144.726 104.883C145.106 105.823 145.675 108.36 148.426 108.36C150.987 108.36 152.98 106.199 154.498 103.474C155.351 106.668 158.197 108.924 160.664 108.924C163.605 108.924 166.356 105.447 168.064 101.688C168.253 105.635 170.435 108.266 173.187 108.266C176.033 108.266 178.404 106.011 180.017 103.192C181.82 106.105 184.666 108.078 188.366 108.078C193.583 108.078 196.714 104.695 199.465 100.655C200.414 100.842 201.268 101.124 202.122 101.124C203.924 101.124 205.727 99.9028 207.15 98.2114C206.96 101.218 206.77 104.131 206.77 106.762C206.77 107.702 206.96 108.078 207.624 108.266C208.288 108.548 209.521 108.36 210.28 108.36C211.229 108.36 211.419 108.454 211.608 107.232C211.703 106.387 212.273 96.332 212.273 95.5803C212.273 93.513 217.301 84.774 219.767 84.774C220.242 84.774 220.621 85.6197 220.621 86.1835C220.621 90.6939 219.198 98.0234 219.198 102.722C219.198 107.702 221.665 109.394 222.708 109.957C223.467 110.427 225.649 111.085 226.787 110.991C227.167 110.709 227.831 110.145 227.167 109.769ZM143.872 100.185C143.777 101.5 141.406 104.883 139.603 104.883C137.611 104.883 136.757 99.245 136.852 95.4863C136.947 91.0698 139.129 83.1765 141.216 83.1765C143.967 83.1765 144.347 89.7543 144.347 91.8215C144.347 94.1707 144.062 97.8355 143.872 100.185ZM198.327 97.0838C197.094 96.332 196.335 93.9828 196.335 92.5733C196.335 91.7276 196.619 89.8482 197.853 89.8482C198.991 89.8482 199.37 91.9155 199.37 92.7612C199.37 93.8888 198.706 96.1441 198.327 97.0838Z" fill="black"/>
<path d="M248.986 98.6811C248.512 91.2576 237.222 83.1764 236.463 78.9478C236.274 77.8202 238.171 77.6323 237.981 76.6926C237.792 75.377 236.653 75.377 235.894 75.471C231.625 75.9408 230.771 77.3504 230.392 80.0754C230.202 81.6729 231.246 83.0824 232.289 84.304C232.384 87.5929 230.582 96.7078 228.494 100.279C228.02 100.936 227.356 101.876 227.261 102.44C227.071 103.567 227.925 104.131 228.684 103.379C229.348 102.816 229.253 102.44 229.917 101.97C231.435 105.447 236.179 107.89 239.784 107.89C245.002 107.89 249.271 104.225 248.986 98.6811ZM237.792 104.225C236.274 104.225 233.902 103.286 233.807 101.312C233.712 100.185 236.369 99.6208 237.317 99.057C238.076 98.5871 238.266 98.2112 238.266 97.9293C238.171 97.2716 237.222 96.8017 236.179 96.8017C235.325 96.8017 234.092 97.0836 232.669 98.0233C232.953 96.7078 234.946 89.9421 235.42 86.6532C239.12 89.3783 242.535 95.5801 242.914 100.185C243.199 103.849 239.025 104.225 237.792 104.225Z" fill="black"/>
</svg>
