<svg width="179" height="41" viewBox="0 0 179 41" fill="none" xmlns="http://www.w3.org/2000/svg">
<path d="M70.1225 11.6914H76.0274V34.5305H70.1225V31.9928C68.7072 34.1401 66.4135 35.1649 63.339 35.1649C60.8502 35.1649 58.8005 34.3353 57.1412 32.6761C55.5308 31.0168 54.7012 28.6743 54.7012 25.7462V11.6914H60.6062V24.9654C60.6062 26.4783 60.9966 27.6495 61.8262 28.4791C62.6558 29.3088 63.7295 29.6992 65.0959 29.6992C66.6087 29.6992 67.8288 29.2112 68.756 28.2839C69.6832 27.3567 70.1225 25.9415 70.1225 24.0382V11.6914Z" fill="#333333"/>
<path d="M82.4687 8.95895C81.4927 8.95895 80.6631 8.61734 79.9311 7.88532C79.199 7.1533 78.8574 6.32367 78.8574 5.34764C78.8574 4.37161 79.199 3.54198 79.9311 2.80996C80.6631 2.07794 81.4927 1.73633 82.4687 1.73633C83.4936 1.73633 84.3232 2.07794 85.0552 2.80996C85.7872 3.54198 86.1288 4.37161 86.1288 5.34764C86.1288 6.32367 85.7872 7.1533 85.0552 7.88532C84.3232 8.61734 83.4936 8.95895 82.4687 8.95895ZM79.5406 34.531V11.6918H85.4456V34.531H79.5406Z" fill="#333333"/>
<path d="M101.696 11.0579C104.185 11.0579 106.235 11.8875 107.894 13.5468C109.504 15.206 110.334 17.5485 110.334 20.4766V34.4826H104.429V21.2574C104.429 19.7445 104.039 18.5733 103.209 17.7437C102.379 16.9141 101.306 16.5236 99.9394 16.5236C98.4265 16.5236 97.2065 17.0117 96.2792 17.9389C95.352 18.8661 94.9128 20.2814 94.9128 22.1846V34.4826H89.0078V2.56641H94.9128V14.23C96.328 12.1315 98.5729 11.0579 101.696 11.0579Z" fill="#333333"/>
<path d="M128.538 11.6914H134.443V34.5305H128.538V31.9928C127.123 34.1401 124.83 35.1649 121.755 35.1649C119.266 35.1649 117.217 34.3353 115.557 32.6761C113.947 31.0168 113.117 28.6743 113.117 25.7462V11.6914H119.022V24.9654C119.022 26.4783 119.413 27.6495 120.242 28.4791C121.072 29.3088 122.145 29.6992 123.512 29.6992C125.025 29.6992 126.245 29.2112 127.172 28.2839C128.099 27.3567 128.538 25.9415 128.538 24.0382V11.6914Z" fill="#333333"/>
<path d="M142.983 25.5038C143.764 28.3831 145.911 29.7984 149.425 29.7984C151.67 29.7984 153.378 29.0175 154.549 27.5047L159.283 30.2376C157.038 33.5073 153.719 35.1177 149.327 35.1177C145.569 35.1177 142.544 33.9953 140.25 31.7016C137.956 29.4079 136.834 26.5287 136.834 23.0637C136.834 19.6476 137.956 16.7683 140.201 14.4747C142.446 12.181 145.325 11.0098 148.888 11.0098C152.255 11.0098 154.988 12.181 157.184 14.4747C159.38 16.7683 160.454 19.6476 160.454 23.0637C160.454 23.8446 160.356 24.6254 160.21 25.5038H142.983V25.5038ZM142.885 20.9653H154.5C154.159 19.4036 153.475 18.2812 152.402 17.5004C151.328 16.7195 150.157 16.3779 148.839 16.3779C147.278 16.3779 145.96 16.7683 144.935 17.598C143.91 18.3788 143.227 19.5012 142.885 20.9653Z" fill="#333333"/>
<path d="M167.238 18.1817C167.238 18.7673 167.629 19.3041 168.458 19.6457C169.288 20.0362 170.264 20.3778 171.387 20.6706C172.558 20.9634 173.68 21.305 174.851 21.7442C176.023 22.1834 176.999 22.9154 177.78 23.9403C178.609 24.9651 179 26.2827 179 27.7956C179 30.1381 178.121 31.9437 176.364 33.2126C174.607 34.4814 172.411 35.1158 169.825 35.1158C165.14 35.1158 161.968 33.3102 160.26 29.6989L165.384 26.8196C166.067 28.8204 167.531 29.7965 169.874 29.7965C171.972 29.7965 173.046 29.162 173.046 27.8444C173.046 27.2588 172.655 26.722 171.826 26.3803C170.996 25.9899 170.02 25.6483 168.898 25.3555C167.726 25.0627 166.604 24.6723 165.433 24.2331C164.261 23.7939 163.285 23.0618 162.505 22.0858C161.675 21.1098 161.285 19.8409 161.285 18.3769C161.285 16.132 162.114 14.3752 163.773 13.0575C165.433 11.7887 167.482 11.1055 169.971 11.1055C171.826 11.1055 173.534 11.5447 175.047 12.3743C176.559 13.2039 177.78 14.424 178.658 15.9368L173.631 18.6697C172.899 17.1081 171.679 16.3272 169.971 16.3272C169.19 16.3272 168.556 16.4736 168.068 16.8152C167.482 17.1569 167.238 17.5961 167.238 18.1817Z" fill="#333333"/>
<rect x="13.6016" width="27.207" height="27.207" fill="#EE408B"/>
<path d="M0 13.6016H27.207V27.2051C27.207 34.7181 21.1165 40.8086 13.6035 40.8086V40.8086C6.0905 40.8086 0 34.7181 0 27.2051V13.6016Z" fill="#00BDC9"/>
<rect x="13.6016" y="13.6016" width="13.6035" height="13.6035" fill="#0033A3"/>
<rect width="10.6462" height="10.6462" rx="5.32312" fill="url(#paint0_linear)"/>
<defs>
<linearGradient id="paint0_linear" x1="1.55635" y1="1.55635" x2="9.0709" y2="9.0709" gradientUnits="userSpaceOnUse">
<stop stop-color="#FBA919"/>
<stop offset="0.0318615" stop-color="#FBA419"/>
<stop offset="0.4948" stop-color="#F4601F"/>
<stop offset="0.8295" stop-color="#F03523"/>
<stop offset="1" stop-color="#EE2524"/>
</linearGradient>
</defs>
</svg>
