<svg width="241" height="51" viewBox="0 0 241 51" fill="none" xmlns="http://www.w3.org/2000/svg">
<g clip-path="url(#clip0)">
<path d="M65.1261 33.9506C63.4981 35.4026 61.3971 36.1286 58.8231 36.1286C56.2491 36.1286 54.1481 35.4026 52.5201 33.9506C50.8921 32.4766 50.0781 30.5076 50.0781 28.0436V12.5996H53.8731V27.8126C53.8731 29.2206 54.2801 30.3426 55.0941 31.1786C55.9301 32.0146 57.1731 32.4326 58.8231 32.4326C60.4731 32.4326 61.7051 32.0146 62.5191 31.1786C63.3551 30.3426 63.7731 29.2206 63.7731 27.8126V12.5996H67.5681V28.0436C67.5681 30.5076 66.7541 32.4766 65.1261 33.9506Z" fill="black"/>
<path d="M84.3082 12.5996H88.1031V35.6996H84.3082V12.5996Z" fill="black"/>
<path d="M113.608 12.5996C115.786 12.5996 117.601 13.3256 119.053 14.7776C120.527 16.2296 121.264 18.0336 121.264 20.1896C121.264 22.3236 120.527 24.1276 119.053 25.6016C117.601 27.0536 115.786 27.7796 113.608 27.7796H108.889V35.6996H105.094V12.5996H113.608ZM113.608 24.2156C114.73 24.2156 115.654 23.8416 116.38 23.0936C117.106 22.3236 117.469 21.3556 117.469 20.1896C117.469 19.0236 117.106 18.0666 116.38 17.3186C115.654 16.5486 114.73 16.1636 113.608 16.1636H108.889V24.2156H113.608Z" fill="black"/>
<path d="M150.101 35.6996L145.217 27.2846H140.729V35.6996H136.934V12.5996H146.174C148.242 12.5996 149.991 13.3256 151.421 14.7776C152.873 16.2076 153.599 17.9566 153.599 20.0246C153.599 21.4986 153.17 22.8516 152.312 24.0836C151.476 25.2936 150.376 26.1736 149.012 26.7236L154.259 35.6996H150.101ZM140.729 16.1636V23.8856H146.174C147.186 23.8856 148.044 23.5116 148.748 22.7636C149.452 22.0156 149.804 21.1026 149.804 20.0246C149.804 18.9466 149.452 18.0336 148.748 17.2856C148.044 16.5376 147.186 16.1636 146.174 16.1636H140.729Z" fill="black"/>
<path d="M169.547 12.5996H173.342V35.6996H169.547V12.5996Z" fill="black"/>
<path d="M204.194 12.5996H207.989V35.6996H205.019L194.129 20.0246V35.6996H190.334V12.5996H193.304L204.194 28.2746V12.5996Z" fill="black"/>
<path d="M239.992 12.5996V16.2296H233.491V35.6996H229.696V16.2296H223.162V12.5996H239.992Z" fill="black"/>
<path fill-rule="evenodd" clip-rule="evenodd" d="M0.664237 43.4257L13.6641 36.9258V46.6898C13.6641 48.1765 12.0994 49.1435 10.7696 48.4786L0.664062 43.4258L0.664237 43.4257Z" fill="black"/>
<path d="M10.3203 2.08736C11.5819 1.12862 13.3716 1.31638 14.4068 2.51609L29.1133 19.5601C30.2755 20.907 30.0169 22.9636 28.5575 23.981L0.663087 43.4261L0.663087 9.42615L10.3203 2.08736Z" fill="black"/>
</g>
<defs>
<clipPath id="clip0">
<rect y="0.199219" width="241" height="50" fill="white"/>
</clipPath>
</defs>
</svg>
