<?xml version="1.0" encoding="utf-8"?>
<!-- Generator: Adobe Illustrator 23.1.1, SVG Export Plug-In . SVG Version: 6.00 Build 0)  -->
<svg version="1.1" id="Layer_1" xmlns="http://www.w3.org/2000/svg" xmlns:xlink="http://www.w3.org/1999/xlink" x="0px" y="0px"
	 viewBox="0 0 1000 1000" style="enable-background:new 0 0 1000 1000;" xml:space="preserve">
<style type="text/css">
	.st0{fill:#F72D5C;}
	.st1{fill:#EEF2F4;}
	.st2{opacity:0.23;}
	.st3{opacity:0.21;}
	.st4{fill:none;stroke:#4C005F;stroke-width:3;stroke-linecap:round;stroke-linejoin:round;stroke-miterlimit:10;}
	.st5{fill:#FDE1FF;}
	.st6{fill:#FFFFFF;}
	.st7{fill:none;stroke:#4C005F;stroke-width:6;stroke-linecap:round;stroke-linejoin:round;stroke-miterlimit:10;}
	.st8{opacity:0.76;}
	.st9{opacity:0.1;}
	.st10{opacity:4.000000e-02;}
	.st11{opacity:0.38;}
	.st12{fill:none;stroke:#4C005F;stroke-width:6;stroke-miterlimit:10;}
	.st13{fill:#B296A3;}
	.st14{opacity:0.2;fill:#EEF2F4;}
	.st15{fill:none;stroke:#4C005F;stroke-width:3;stroke-miterlimit:10;}
	.st16{fill:#D6DADC;}
	.st17{fill:#4C005F;}
	.st18{fill:#D7F0F4;}
	.st19{opacity:0.63;fill:#EEF2F4;}
	.st20{fill:#DBDCDD;}
</style>
<rect id="XMLID_23_" class="st0" width="1000" height="1000"/>
<g>
	<g>
		<g>
			<path class="st1" d="M63.2,959.2c0,2.5-1.2,3.7-2.6,3.7c-1.1,0-1.9-0.5-2.1-1.4c-0.4,0.5-1,0.8-1.8,0.8c-1.5,0-2.6-1.2-2.6-2.8
				c0-1.6,1.1-2.8,2.6-2.8c0.7,0,1.2,0.3,1.6,0.7v-0.5h1.6v3.9c0,0.8,0.3,1.4,1,1.4c0.9,0,1.7-0.9,1.7-3c0-3-2.3-5.3-5.4-5.3
				c-3.1,0-5.6,2.4-5.6,5.7c0,3.3,2.5,5.7,5.9,5.7c1.1,0,2.1-0.2,2.9-0.4v0.6c-0.8,0.3-1.7,0.4-2.9,0.4c-3.7,0-6.5-2.6-6.5-6.2
				c0-3.4,2.7-6.2,6.2-6.2C61.1,953.3,63.2,956.4,63.2,959.2z M58.3,959.5c0-0.8-0.6-1.4-1.3-1.4c-0.8,0-1.3,0.5-1.3,1.4
				c0,0.8,0.6,1.3,1.3,1.3C57.8,960.9,58.3,960.3,58.3,959.5z"/>
		</g>
		<g>
			<path class="st1" d="M69.4,955.1v2c-1.2-0.1-2.6,0.5-2.6,2.4v4.3h-1.9v-8.6h1.9v1.4C67.3,955.5,68.3,955.1,69.4,955.1z"/>
		</g>
		<g>
			<path class="st1" d="M74.6,962.3c1,0,1.8-0.5,2.2-1.1l1.5,0.9c-0.8,1.2-2.1,1.9-3.8,1.9c-2.8,0-4.7-1.9-4.7-4.5
				c0-2.5,1.8-4.5,4.5-4.5c2.6,0,4.3,2.1,4.3,4.5c0,0.3,0,0.5-0.1,0.8h-6.8C72.1,961.6,73.2,962.3,74.6,962.3z M76.9,958.8
				c-0.3-1.5-1.3-2.1-2.5-2.1c-1.4,0-2.3,0.8-2.6,2.1H76.9z"/>
		</g>
		<g>
			<path class="st1" d="M88.9,955.2v8.6h-1.9v-1.2c-0.7,0.9-1.7,1.5-3,1.5c-2.3,0-4.3-2-4.3-4.5c0-2.6,1.9-4.5,4.3-4.5
				c1.3,0,2.3,0.5,3,1.4v-1.2H88.9z M87.1,959.5c0-1.6-1.2-2.7-2.7-2.7c-1.5,0-2.7,1.1-2.7,2.7c0,1.6,1.2,2.7,2.7,2.7
				C85.9,962.3,87.1,961.1,87.1,959.5z"/>
		</g>
		<g>
			<path class="st1" d="M91.1,951.3H93v12.5h-1.9V951.3z"/>
		</g>
		<g>
			<path class="st1" d="M102.9,955.2l-3.3,8.6h-2.1l-3.3-8.6h2l2.4,6.5l2.4-6.5H102.9z"/>
		</g>
		<g>
			<path class="st1" d="M104.2,955.2h1.9v8.9c0,2.4-1.2,3.5-3.5,3.3v-1.8c1.1,0.1,1.7-0.3,1.7-1.5V955.2z M104,952.8
				c0-0.7,0.5-1.2,1.2-1.2c0.7,0,1.2,0.5,1.2,1.2c0,0.6-0.5,1.2-1.2,1.2C104.5,954,104,953.4,104,952.8z"/>
		</g>
		<g>
			<path class="st1" d="M116,955.2l-3.3,8.8c-0.8,2.2-2.2,3.3-4.2,3.2v-1.7c1.2,0.1,1.9-0.5,2.3-1.7l0.1-0.2l-3.6-8.4h2l2.6,6.2
				l2.2-6.2H116z"/>
		</g>
	</g>
	<g>
		<path class="st1" d="M211.9,938.7c0,2.1-1.5,3.8-3.6,3.8h-3v-7.6h3C210.4,934.9,211.9,936.6,211.9,938.7z M210.9,938.7
			c0-1.6-1.1-2.9-2.6-2.9h-2v5.7h2C209.8,941.6,210.9,940.3,210.9,938.7z"/>
		<path class="st1" d="M219.5,940.8h-3.4l-0.6,1.7h-1.1l2.8-7.6h1.1l2.8,7.6h-1.1L219.5,940.8z M219.2,939.9l-1.4-3.8l-1.4,3.8
			H219.2z"/>
		<path class="st1" d="M226.4,939.4v3.1h-1v-3.1l-2.7-4.5h1.1l2.1,3.6l2.1-3.6h1.1L226.4,939.4z"/>
		<path class="st1" d="M237,938.7c0-2.4,1.1-4,2.9-4c1.9,0,2.9,1.6,2.9,4c0,2.4-1,4-2.9,4C238.1,942.7,237,941,237,938.7z
			 M241.9,938.7c0-1.9-0.7-3-1.9-3c-1.2,0-1.9,1.1-1.9,3s0.7,3,1.9,3C241.2,941.7,241.9,940.6,241.9,938.7z"/>
		<path class="st1" d="M248.5,934.9v7.6h-1V936l-1.6,0.5l-0.3-0.9l2-0.7H248.5z"/>
	</g>
	<g>
		<path class="st1" d="M58.9,938.7c0,2.1-1.5,3.8-3.6,3.8h-3v-7.6h3C57.4,934.9,58.9,936.6,58.9,938.7z M57.9,938.7
			c0-1.6-1.1-2.9-2.6-2.9h-2v5.7h2C56.8,941.6,57.9,940.3,57.9,938.7z"/>
		<path class="st1" d="M67,941.6v1h-4.6v-7.6h4.5v1h-3.5v2.3h3.2v0.9h-3.2v2.4H67z"/>
		<path class="st1" d="M70,940.8l0.9-0.5c0.3,0.8,0.9,1.4,2,1.4c1.1,0,1.6-0.5,1.6-1.2c0-0.8-0.7-1-1.8-1.4
			c-1.2-0.4-2.4-0.8-2.4-2.2c0-1.4,1.1-2.2,2.4-2.2c1.3,0,2.2,0.7,2.6,1.7l-0.8,0.5c-0.3-0.7-0.8-1.2-1.7-1.2
			c-0.8,0-1.4,0.4-1.4,1.1c0,0.7,0.5,1,1.6,1.3c1.3,0.4,2.6,0.8,2.6,2.3c0,1.3-1.1,2.2-2.6,2.2C71.5,942.7,70.4,941.9,70,940.8z"/>
		<path class="st1" d="M80,934.9v7.6h-1v-7.6H80z"/>
		<path class="st1" d="M91.3,939.2c0,1.9-1.4,3.5-3.7,3.5c-2.4,0-4-1.8-4-4c0-2.2,1.7-4,4-4c1.4,0,2.7,0.8,3.3,1.8l-0.9,0.5
			c-0.4-0.8-1.4-1.4-2.4-1.4c-1.8,0-3,1.3-3,3c0,1.7,1.2,3,3,3c1.6,0,2.5-0.9,2.7-2h-2.8v-0.9h3.8V939.2z"/>
		<path class="st1" d="M100.6,934.9v7.6h-0.8l-3.9-5.7v5.7h-1v-7.6h0.8l3.9,5.7v-5.7H100.6z"/>
		<path class="st1" d="M109.1,941.6v1h-4.6v-7.6h4.5v1h-3.5v2.3h3.2v0.9h-3.2v2.4H109.1z"/>
		<path class="st1" d="M119.2,938.7c0,2.1-1.5,3.8-3.6,3.8h-3v-7.6h3C117.6,934.9,119.2,936.6,119.2,938.7z M118.2,938.7
			c0-1.6-1.1-2.9-2.6-2.9h-2v5.7h2C117.1,941.6,118.2,940.3,118.2,938.7z"/>
		<path class="st1" d="M133.2,940.4c0,1.2-1,2.2-2.2,2.2h-3.3v-7.6h3c1.2,0,2.1,0.9,2.1,2.1c0,0.7-0.3,1.2-0.8,1.6
			C132.7,938.9,133.2,939.5,133.2,940.4z M128.7,935.8v2.3h2c0.6,0,1.1-0.5,1.1-1.2c0-0.6-0.5-1.2-1.1-1.2H128.7z M132.2,940.3
			c0-0.7-0.5-1.2-1.2-1.2h-2.3v2.5h2.3C131.7,941.6,132.2,941,132.2,940.3z"/>
		<path class="st1" d="M139.4,939.4v3.1h-1v-3.1l-2.7-4.5h1.1l2.1,3.6l2.1-3.6h1.1L139.4,939.4z"/>
	</g>
	<g>
		<path class="st1" d="M205.1,952.9c0-0.7,0.5-1.2,1.2-1.2c0.7,0,1.2,0.5,1.2,1.2c0,0.7-0.5,1.2-1.2,1.2
			C205.6,954.1,205.1,953.6,205.1,952.9z M205.3,955.4h1.9v8.9h-1.9V955.4z"/>
		<path class="st1" d="M218.3,956c0,2.3-1.8,4.1-4.1,4.1h-2.5v4.2h-2v-12.4h4.6C216.5,951.9,218.3,953.7,218.3,956z M216.2,956
			c0-1.3-0.9-2.2-2.1-2.2h-2.5v4.3h2.5C215.3,958.1,216.2,957.2,216.2,956z"/>
		<path class="st1" d="M218.8,959.9c0-2.6,2.1-4.7,4.7-4.7c2.6,0,4.7,2,4.7,4.7c0,2.6-2.1,4.7-4.7,4.7
			C220.9,964.5,218.8,962.5,218.8,959.9z M226.2,959.9c0-1.6-1.2-2.8-2.8-2.8s-2.8,1.2-2.8,2.8c0,1.6,1.2,2.8,2.8,2.8
			S226.2,961.5,226.2,959.9z"/>
		<path class="st1" d="M238.8,951.9v12.4h-1.9V963c-0.7,0.9-1.7,1.5-3.1,1.5c-2.4,0-4.4-2-4.4-4.7c0-2.6,2-4.7,4.4-4.7
			c1.4,0,2.4,0.6,3.1,1.5v-4.8H238.8z M236.9,959.9c0-1.6-1.2-2.8-2.8-2.8c-1.6,0-2.8,1.2-2.8,2.8c0,1.6,1.2,2.8,2.8,2.8
			C235.7,962.7,236.9,961.5,236.9,959.9z"/>
	</g>
	<g>
		<g>
			<path class="st1" d="M855.2,951.7c-0.7,0-1.2,0.5-1.2,1.2c0,0.7,0.5,1.2,1.2,1.2c0.7,0,1.2-0.6,1.2-1.2
				C856.5,952.2,855.9,951.7,855.2,951.7z"/>
			<path class="st1" d="M854.9,934.7c-2.2,0-3.9,1.8-3.9,4c0,2.2,1.7,4,3.9,4c2.2,0,4-1.8,4-4C858.8,936.5,857.1,934.7,854.9,934.7z
				 M854.9,941.7c-1.7,0-2.9-1.3-2.9-3c0-1.7,1.3-3,2.9-3c1.7,0,2.9,1.3,2.9,3C857.8,940.4,856.6,941.7,854.9,941.7z"/>
			<polygon class="st1" points="841.3,936.6 843.8,940.7 843.9,940.7 846.4,936.6 846.4,942.5 847.4,942.5 847.4,934.9 846.3,934.9 
				843.9,938.9 841.4,934.9 840.3,934.9 840.3,942.5 841.3,942.5 			"/>
			<polygon class="st1" points="875.9,941.6 872.3,941.6 872.3,939.1 875.5,939.1 875.5,938.2 872.3,938.2 872.3,935.8 875.8,935.8 
				875.8,934.9 871.3,934.9 871.3,942.5 875.9,942.5 			"/>
			<polygon class="st1" points="844.2,962.2 841.8,955.4 839.7,955.4 843.1,964.3 845.3,964.3 848.8,955.4 846.7,955.4 			"/>
			<path class="st1" d="M854.3,964.7c0,1.2-0.5,1.7-1.7,1.6v1.8c2.4,0.2,3.6-1,3.6-3.4v-9.2h-1.9V964.7z"/>
			<path class="st1" d="M851,951.7c-0.7,0-1.2,0.5-1.2,1.2c0,0.7,0.5,1.2,1.2,1.2c0.7,0,1.2-0.6,1.2-1.2
				C852.2,952.2,851.6,951.7,851,951.7z"/>
			<rect x="850" y="955.4" class="st1" width="1.9" height="8.9"/>
			<path class="st1" d="M873.3,961.9l-2.6-6.4h-2.1l3.8,8.7l-0.1,0.2c-0.4,1.2-1.1,1.8-2.4,1.7v1.8c2,0.1,3.5-1,4.3-3.3l3.4-9.1h-2
				L873.3,961.9z"/>
			<path class="st1" d="M865.4,956.7c-0.7-0.9-1.7-1.5-3.1-1.5c-2.4,0-4.4,2-4.4,4.7c0,2.6,2,4.7,4.4,4.7c1.4,0,2.4-0.6,3.1-1.5v1.3
				h1.9v-8.9h-1.9V956.7z M862.6,962.7c-1.6,0-2.8-1.2-2.8-2.8c0-1.6,1.2-2.8,2.8-2.8c1.6,0,2.8,1.2,2.8,2.8
				C865.4,961.5,864.2,962.7,862.6,962.7z"/>
			<path class="st1" d="M927.2,956.7c-0.7-0.9-1.7-1.5-3.1-1.5c-2.4,0-4.4,2-4.4,4.7c0,2.6,2,4.7,4.4,4.7c1.4,0,2.4-0.6,3.1-1.5v1.3
				h1.9v-8.9h-1.9V956.7z M924.4,962.7c-1.6,0-2.8-1.2-2.8-2.8c0-1.6,1.2-2.8,2.8-2.8c1.6,0,2.8,1.2,2.8,2.8
				C927.2,961.5,926,962.7,924.4,962.7z"/>
			<path class="st1" d="M914.8,955.2c-1.2,0-2.1,0.5-2.7,1.4c-0.5-0.9-1.4-1.4-2.5-1.4c-1.1,0-2,0.4-2.5,1.3v-1.1h-1.9v8.9h1.9v-5
				c0-1.6,0.9-2.3,2-2.3c1,0,1.7,0.7,1.7,1.9v5.4h1.9v-5c0-1.6,0.8-2.3,1.9-2.3c1,0,1.7,0.7,1.7,1.9v5.4h1.9v-5.5
				C918.1,956.6,916.8,955.2,914.8,955.2z"/>
			<path class="st1" d="M948.7,955.2c-2.6,0-4.7,2-4.7,4.7c0,2.6,2.1,4.7,4.7,4.7c2.6,0,4.7-2,4.7-4.7
				C953.4,957.2,951.3,955.2,948.7,955.2z M948.7,962.7c-1.6,0-2.8-1.2-2.8-2.8c0-1.6,1.2-2.8,2.8-2.8s2.8,1.2,2.8,2.8
				C951.5,961.5,950.3,962.7,948.7,962.7z"/>
			<path class="st1" d="M939.3,962.6c-1.6,0-2.7-1.2-2.7-2.8c0-1.6,1.2-2.8,2.7-2.8c1.1,0,1.9,0.5,2.3,1.4l1.6-1
				c-0.7-1.4-2.2-2.3-3.9-2.3c-2.7,0-4.7,2-4.7,4.7c0,2.6,2,4.7,4.7,4.7c1.7,0,3.2-0.9,4-2.3l-1.6-0.9
				C941.2,962.1,940.3,962.6,939.3,962.6z"/>
			<circle class="st1" cx="932.5" cy="963.2" r="1.3"/>
			<path class="st1" d="M867.8,937.2c0-1.3-1.1-2.4-2.4-2.4h-3v7.6h1v-2.9h1.8l1.7,2.9h1.1l-1.8-3.1
				C867.1,939.1,867.8,938.2,867.8,937.2z M863.4,938.7v-2.8h2c0.8,0,1.4,0.6,1.4,1.4c0,0.8-0.6,1.4-1.4,1.4H863.4z"/>
			<path class="st1" d="M900.9,956.9v-1.5H899v8.9h1.9v-4.5c0-2,1.5-2.6,2.7-2.5v-2.1C902.6,955.3,901.5,955.7,900.9,956.9z"/>
			<polygon class="st1" points="882.3,962.2 879.9,955.4 877.8,955.4 881.2,964.3 883.4,964.3 886.9,955.4 884.8,955.4 			"/>
			<path class="st1" d="M892.9,955.2c-2.8,0-4.7,2-4.7,4.7c0,2.7,1.9,4.7,4.8,4.7c1.7,0,3.1-0.7,3.9-1.9l-1.6-0.9
				c-0.4,0.6-1.2,1.1-2.3,1.1c-1.4,0-2.5-0.7-2.8-2.1h7c0-0.2,0.1-0.5,0.1-0.8C897.4,957.3,895.5,955.2,892.9,955.2z M890.2,959.1
				c0.3-1.3,1.2-2.2,2.7-2.2c1.2,0,2.3,0.7,2.5,2.2H890.2z"/>
		</g>
	</g>
</g>
<path id="XMLID_106_" class="st2" d="M782.2,496.1c0-9.3,7.6-16.9,16.9-16.9h2.3v-41.6h-17.2c-15.3,0-27.7,12.4-27.7,27.7v55.5
	c0,2.3,1.9,4.2,4.2,4.2h17.5c2.3,0,4.2-1.9,4.2-4.2V496.1z"/>
<rect id="XMLID_105_" x="801.4" y="445.5" class="st2" width="13.3" height="27.5"/>
<path id="XMLID_104_" class="st2" d="M826.7,486.9h-6.1c-3.3,0-6-2.7-6-6v-43.4c0-3.3,2.7-6,6-6h6.1c13.1,0,23.7,10.6,23.7,23.7v7.9
	C850.4,476.3,839.8,486.9,826.7,486.9z"/>
<path id="XMLID_103_" class="st3" d="M559.2,863.2c0,9.3,7.6,16.9,16.9,16.9h2.3v41.6h-17.2c-15.3,0-27.7-12.4-27.7-27.7v-55.5
	c0-2.3,1.9-4.2,4.2-4.2h17.5c2.3,0,4.2,1.9,4.2,4.2V863.2z"/>
<rect id="XMLID_102_" x="578.4" y="886.3" class="st3" width="13.3" height="27.5"/>
<path id="XMLID_101_" class="st3" d="M603.7,872.4h-6.1c-3.3,0-6,2.7-6,6v43.4c0,3.3,2.7,6,6,6h6.1c13.1,0,23.7-10.6,23.7-23.7v-7.9
	C627.4,883,616.8,872.4,603.7,872.4z"/>
<g id="XMLID_99_" class="st2">
	<path id="XMLID_100_" d="M549,841h-6v-78.7c0-31.6,25.7-57.3,57.3-57.3c13.7,0,26.6-5.4,36.3-15.1c9.7-9.7,15-22.6,15-36.4
		l-0.1-36.8l6,0l0.1,36.8c0,15.3-5.9,29.8-16.8,40.6C630.1,705,615.7,711,600.3,711c-28.3,0-51.3,23-51.3,51.3V841z"/>
</g>
<g id="XMLID_97_" class="st2">
	<path id="XMLID_98_" d="M712.5,696.4c-33.4,0-60.5-27.1-60.5-60.5v-18.5c0-1.7,1.3-3,3-3s3,1.3,3,3v18.5
		c0,30.1,24.4,54.5,54.5,54.5s54.5-24.4,54.5-54.5V524.4c0-1.7,1.3-3,3-3s3,1.3,3,3v111.5C773,669.2,745.9,696.4,712.5,696.4z"/>
</g>
<g id="XMLID_94_">
	<path id="XMLID_95_" class="st1" d="M549,830h-6v-78.7c0-31.6,25.7-57.3,57.3-57.3c13.7,0,26.6-5.4,36.3-15.1
		c9.7-9.7,15-22.6,15-36.4l-0.1-59.8l6,0l0.1,59.8c0,15.3-5.9,29.8-16.8,40.6C630.1,694,615.7,700,600.3,700
		c-28.3,0-51.3,23-51.3,51.3V830z"/>
</g>
<g id="XMLID_71_">
	<path id="XMLID_96_" class="st4" d="M549,830h-6v-78.7c0-31.6,25.7-57.3,57.3-57.3c13.7,0,26.6-5.4,36.3-15.1
		c9.7-9.7,15-22.6,15-36.4l-0.1-59.8l6,0l0.1,59.8c0,15.3-5.9,29.8-16.8,40.6C630.1,694,615.7,700,600.3,700
		c-28.3,0-51.3,23-51.3,51.3V830z"/>
</g>
<g id="XMLID_83_">
	<path id="XMLID_93_" class="st1" d="M712.5,685c-33.4,0-60.5-27.1-60.5-60.5V583c0-1.7,1.3-3,3-3s3,1.3,3,3v41.5
		c0,30.1,24.4,54.5,54.5,54.5s54.5-24.4,54.5-54.5V513c0-1.7,1.3-3,3-3s3,1.3,3,3v111.5C773,657.9,745.9,685,712.5,685z"/>
</g>
<g id="XMLID_75_">
	<path id="XMLID_92_" class="st4" d="M712.5,685c-33.4,0-60.5-27.1-60.5-60.5V583c0-1.7,1.3-3,3-3s3,1.3,3,3v41.5
		c0,30.1,24.4,54.5,54.5,54.5s54.5-24.4,54.5-54.5V513c0-1.7,1.3-3,3-3s3,1.3,3,3v111.5C773,657.9,745.9,685,712.5,685z"/>
</g>
<path id="XMLID_55_" class="st4" d="M562.7,193.6"/>
<g id="XMLID_63_" class="st2">
	<path id="XMLID_65_" d="M654.7,548.3c-1.7,0-3-1.3-3-3V250c0-24.1-19.6-43.7-43.7-43.7c-24.1,0-43.7,19.6-43.7,43.7v104.4
		c0,27-22,49-49,49H514c-13.1,0-25.4-5.1-34.6-14.3S465,367.4,465,354.3V192c0-24.1-19.6-43.7-43.7-43.7s-43.7,19.6-43.7,43.7v208.3
		c0,1.7-1.3,3-3,3s-3-1.3-3-3V192c0-27.4,22.3-49.7,49.7-49.7c27.4,0,49.7,22.3,49.7,49.7v162.4c0,11.5,4.5,22.3,12.6,30.4
		s18.9,12.6,30.4,12.6h1.4c23.7,0,43-19.3,43-43V250c0-27.4,22.3-49.7,49.7-49.7c27.4,0,49.7,22.3,49.7,49.7v295.3
		C657.7,546.9,656.4,548.3,654.7,548.3z"/>
</g>
<g id="XMLID_59_">
	<path id="XMLID_64_" class="st1" d="M655,537.6c-1.7,0-3-1.3-3-3V239.3c0-24.1-19.6-43.7-43.7-43.7c-24.1,0-43.7,19.6-43.7,43.7
		v104.4c0,27-22,49-49,49h-1.4c-13.1,0-25.4-5.1-34.6-14.3s-14.3-21.5-14.3-34.6V181.3c0-24.1-19.6-43.7-43.7-43.7
		S378,157.2,378,181.3v208.3c0,1.7-1.3,3-3,3s-3-1.3-3-3V181.3c0-27.4,22.3-49.7,49.7-49.7c27.4,0,49.7,22.3,49.7,49.7v162.4
		c0,11.5,4.5,22.3,12.6,30.4s18.9,12.6,30.4,12.6h1.4c23.7,0,43-19.3,43-43V239.3c0-27.4,22.3-49.7,49.7-49.7
		c27.4,0,49.7,22.3,49.7,49.7v295.3C658,536.3,656.7,537.6,655,537.6z"/>
</g>
<g id="XMLID_62_">
	<path id="XMLID_68_" class="st4" d="M655,537.6c-1.7,0-3-1.3-3-3V239.3c0-24.1-19.6-43.7-43.7-43.7c-24.1,0-43.7,19.6-43.7,43.7
		v104.4c0,27-22,49-49,49h-1.4c-13.1,0-25.4-5.1-34.6-14.3s-14.3-21.5-14.3-34.6V181.3c0-24.1-19.6-43.7-43.7-43.7
		S378,157.2,378,181.3v208.3c0,1.7-1.3,3-3,3s-3-1.3-3-3V181.3c0-27.4,22.3-49.7,49.7-49.7c27.4,0,49.7,22.3,49.7,49.7v162.4
		c0,11.5,4.5,22.3,12.6,30.4s18.9,12.6,30.4,12.6h1.4c23.7,0,43-19.3,43-43V239.3c0-27.4,22.3-49.7,49.7-49.7
		c27.4,0,49.7,22.3,49.7,49.7v295.3C658,536.3,656.7,537.6,655,537.6z"/>
</g>
<rect id="XMLID_58_" x="369.4" y="386.3" class="st2" width="24.4" height="32.3"/>
<rect id="XMLID_31_" x="362.9" y="382.3" class="st5" width="24.4" height="32.3"/>
<rect id="XMLID_52_" x="362.9" y="382.3" class="st6" width="24.4" height="13"/>
<rect id="XMLID_53_" x="362.9" y="382.3" class="st4" width="24.4" height="13"/>
<rect id="XMLID_29_" x="362.9" y="382.3" class="st7" width="24.4" height="32.3"/>
<path id="XMLID_11_" class="st2" d="M414.7,760.6H237.9c-11.1,0-20.1-9-20.1-20.1V455c0-11.1,9-20.1,20.1-20.1h176.8
	c11.1,0,20.1,9,20.1,20.1v285.4C434.8,751.6,425.8,760.6,414.7,760.6z"/>
<path id="XMLID_33_" class="st1" d="M409,739.9H232.3c-11.1,0-20.1-9-20.1-20.1V434.4c0-11.1,9-20.1,20.1-20.1H409
	c11.1,0,20.1,9,20.1,20.1v285.4C429.1,730.9,420.1,739.9,409,739.9z"/>
<path id="XMLID_17_" class="st1" d="M409,739.9H232.3c-11.1,0-20.1-9-20.1-20.1V434.4c0-11.1,9-20.1,20.1-20.1H409
	c11.1,0,20.1,9,20.1,20.1v285.4C429.1,730.9,420.1,739.9,409,739.9z"/>
<g id="XMLID_20_" class="st8">
	<g id="XMLID_56_">
		<path id="XMLID_57_" class="st6" d="M221.8,719.8V434.4c0-11.1,9-20.1,20.1-20.1h-9.7c-11.1,0-20.1,9-20.1,20.1v285.4
			c0,11.1,9,20.1,20.1,20.1h9.7C230.8,739.9,221.8,730.9,221.8,719.8z"/>
	</g>
</g>
<g id="XMLID_18_" class="st9">
	<g id="XMLID_119_">
		<path id="XMLID_120_" d="M419.4,719.8l0-285.4c0-11.1-9-20.1-20.1-20.1h9.7c11.1,0,20.1,9,20.1,20.1l0,285.4
			c0,11.1-9,20.1-20.1,20.1h-9.7C410.4,739.9,419.4,730.9,419.4,719.8z"/>
	</g>
</g>
<g id="XMLID_22_" class="st10">
	<path id="XMLID_32_" d="M409,726.9H232.3c-11.1,0-20.1-9-20.1-20.1v13c0,11.1,9,20.1,20.1,20.1H409c11.1,0,20.1-9,20.1-20.1v-13
		C429.1,717.9,420.1,726.9,409,726.9z"/>
</g>
<g id="XMLID_19_" class="st11">
	<path id="XMLID_21_" class="st6" d="M409,427.3H232.3c-11.1,0-20.1,9-20.1,20.1v-13c0-11.1,9-20.1,20.1-20.1H409
		c11.1,0,20.1,9,20.1,20.1v13C429.1,436.3,420.1,427.3,409,427.3z"/>
</g>
<path id="XMLID_2_" class="st12" d="M409,739.9H232.3c-11.1,0-20.1-9-20.1-20.1V434.4c0-11.1,9-20.1,20.1-20.1H409
	c11.1,0,20.1,9,20.1,20.1v285.4C429.1,730.9,420.1,739.9,409,739.9z"/>
<path id="XMLID_3_" class="st13" d="M381.9,558.6H259.4c-6.8,0-12.4-5.5-12.4-12.4v-80.7c0-6.8,5.5-12.4,12.4-12.4h122.5
	c6.8,0,12.4,5.5,12.4,12.4v80.7C394.2,553.1,388.7,558.6,381.9,558.6z"/>
<polygon id="XMLID_8_" class="st14" points="247,501.2 295,453 289,453 247,495.2 "/>
<polygon id="XMLID_9_" class="st14" points="247,518.3 312.2,453 301.9,453 247,508.1 "/>
<path id="XMLID_1_" class="st15" d="M381.9,558.6H259.4c-6.8,0-12.4-5.5-12.4-12.4v-80.7c0-6.8,5.5-12.4,12.4-12.4h122.5
	c6.8,0,12.4,5.5,12.4,12.4v80.7C394.2,553.1,388.7,558.6,381.9,558.6z"/>
<path id="XMLID_77_" class="st1" d="M559.2,850.2c0,9.3,7.6,16.9,16.9,16.9h2.3v41.6h-17.2c-15.3,0-27.7-12.4-27.7-27.7v-55.5
	c0-2.3,1.9-4.2,4.2-4.2h17.5c2.3,0,4.2,1.9,4.2,4.2V850.2z"/>
<path id="XMLID_84_" class="st9" d="M576.1,866.9c-9.4,0-17.1-7.7-17.1-17.1v-25c0-2.2-1.8-3.9-3.9-3.9H552v8v27.6
	c0,6.6,3.6,12.4,8.9,15.5c6.2,3.6,10.1,10.1,10.1,17.2v19.6h7v-42H576.1z"/>
<path id="XMLID_74_" class="st7" d="M559.2,850.2c0,9.3,7.6,16.9,16.9,16.9h2.3v41.6h-17.2c-15.3,0-27.7-12.4-27.7-27.7v-55.5
	c0-2.3,1.9-4.2,4.2-4.2h17.5c2.3,0,4.2,1.9,4.2,4.2V850.2z"/>
<rect id="XMLID_81_" x="578.4" y="873.3" class="st16" width="13.3" height="27.5"/>
<rect id="XMLID_73_" x="578.4" y="873.3" class="st7" width="13.3" height="27.5"/>
<path id="XMLID_72_" class="st7" d="M603.7,859.4h-6.1c-3.3,0-6,2.7-6,6v43.4c0,3.3,2.7,6,6,6h6.1c13.1,0,23.7-10.6,23.7-23.7v-7.9
	C627.4,870,616.8,859.4,603.7,859.4z"/>
<path id="XMLID_79_" class="st17" d="M603.7,859.4h-6.1c-3.3,0-6,2.7-6,6v43.4c0,3.3,2.7,6,6,6h6.1c13.1,0,23.7-10.6,23.7-23.7v-7.9
	C627.4,870,616.8,859.4,603.7,859.4z"/>
<path id="XMLID_82_" class="st1" d="M559.2,850.2c0,9.3,7.6,16.9,16.9,16.9h2.3v41.6h-17.2c-15.3,0-27.7-12.4-27.7-27.7v-55.5
	c0-2.3,1.9-4.2,4.2-4.2h17.5c2.3,0,4.2,1.9,4.2,4.2V850.2z"/>
<path id="XMLID_80_" class="st9" d="M576.1,866.9c-9.4,0-17.1-7.7-17.1-17.1v-25c0-2.2-1.8-3.9-3.9-3.9H552v8v27.6
	c0,6.6,3.6,12.4,8.9,15.5c6.2,3.6,10.1,10.1,10.1,17.2v19.6h7v-42H576.1z"/>
<path id="XMLID_78_" class="st7" d="M559.2,850.2c0,9.3,7.6,16.9,16.9,16.9h2.3v41.6h-17.2c-15.3,0-27.7-12.4-27.7-27.7v-55.5
	c0-2.3,1.9-4.2,4.2-4.2h17.5c2.3,0,4.2,1.9,4.2,4.2V850.2z"/>
<rect id="XMLID_76_" x="578.4" y="873.3" class="st16" width="13.3" height="27.5"/>
<rect id="XMLID_26_" x="578.4" y="873.3" class="st7" width="13.3" height="27.5"/>
<path id="XMLID_25_" class="st7" d="M603.7,859.4h-6.1c-3.3,0-6,2.7-6,6v43.4c0,3.3,2.7,6,6,6h6.1c13.1,0,23.7-10.6,23.7-23.7v-7.9
	C627.4,870,616.8,859.4,603.7,859.4z"/>
<path id="XMLID_24_" class="st17" d="M603.7,859.4h-6.1c-3.3,0-6,2.7-6,6v43.4c0,3.3,2.7,6,6,6h6.1c13.1,0,23.7-10.6,23.7-23.7v-7.9
	C627.4,870,616.8,859.4,603.7,859.4z"/>
<path id="XMLID_91_" class="st1" d="M782.2,484.1c0-9.3,7.6-16.9,16.9-16.9h2.3v-41.6h-17.2c-15.3,0-27.7,12.4-27.7,27.7v55.5
	c0,2.3,1.9,4.2,4.2,4.2h17.5c2.3,0,4.2-1.9,4.2-4.2V484.1z"/>
<g id="XMLID_108_" class="st9">
	<path id="XMLID_109_" d="M776,487.7V511h2.1c2.3,0,3.9-1.9,3.9-4.2v-24.7c0-3.3,0.9-6.4,2.6-9C779.5,476,776,481.4,776,487.7z"/>
	<path id="XMLID_110_" d="M784.2,426c-8.9,0-16.8,3.9-21.9,10.4c4.5-3.2,10-5.4,16-5.4l0,0c9.2,0,16.7,7.5,16.7,16.7v19.9
		c2-0.3,2.9-0.6,4.1-0.6h1.9v-41H784.2z"/>
</g>
<path id="XMLID_89_" class="st7" d="M782.2,484.1c0-9.3,7.6-16.9,16.9-16.9h2.3v-41.6h-17.2c-15.3,0-27.7,12.4-27.7,27.7v55.5
	c0,2.3,1.9,4.2,4.2,4.2h17.5c2.3,0,4.2-1.9,4.2-4.2V484.1z"/>
<rect id="XMLID_88_" x="801.4" y="433.5" class="st16" width="13.3" height="27.5"/>
<rect id="XMLID_87_" x="801.4" y="433.5" class="st7" width="13.3" height="27.5"/>
<path id="XMLID_86_" class="st7" d="M826.7,474.9h-6.1c-3.3,0-6-2.7-6-6v-43.4c0-3.3,2.7-6,6-6h6.1c13.1,0,23.7,10.6,23.7,23.7v7.9
	C850.4,464.3,839.8,474.9,826.7,474.9z"/>
<path id="XMLID_85_" class="st17" d="M826.7,474.9h-6.1c-3.3,0-6-2.7-6-6v-43.4c0-3.3,2.7-6,6-6h6.1c13.1,0,23.7,10.6,23.7,23.7v7.9
	C850.4,464.3,839.8,474.9,826.7,474.9z"/>
<circle id="XMLID_48_" class="st18" cx="320.8" cy="641.8" r="55"/>
<path id="XMLID_30_" class="st19" d="M320.8,596.8c28.7,0,52.2,22,54.8,50c0.1-1.6,0.2-3.3,0.2-5c0-30.4-24.6-55-55-55
	s-55,24.6-55,55c0,1.7,0.1,3.4,0.2,5C268.6,618.7,292.2,596.8,320.8,596.8z"/>
<circle id="XMLID_50_" class="st1" cx="320.8" cy="641.8" r="17"/>
<circle id="XMLID_4_" class="st15" cx="320.8" cy="641.8" r="55"/>
<path id="XMLID_12_" class="st20" d="M320.8,624.8c-9.4,0-17,7.6-17,17c0,4.9,2.1,9.3,5.4,12.4c0-0.1,0-0.2,0-0.4
	c0-6.4,5.2-11.7,11.7-11.7s11.7,5.2,11.7,11.7c0,0.1,0,0.2,0,0.4c3.3-3.1,5.4-7.5,5.4-12.4C337.8,632.4,330.2,624.8,320.8,624.8z"/>
<circle id="XMLID_5_" class="st15" cx="320.8" cy="641.8" r="17"/>
<g id="XMLID_6_">
	<path id="XMLID_10_" class="st17" d="M312.7,610.4v-4l-1.5,4h-0.7l-1.5-4v4h-1.6v-6.1h2.2l1.3,3.4l1.3-3.4h2.2v6.1H312.7z"/>
	<path id="XMLID_14_" class="st17" d="M315.3,610.4v-6.1h4.5v1.4h-2.9v0.9h2.8v1.4h-2.8v1h2.9v1.4H315.3z"/>
	<path id="XMLID_34_" class="st17" d="M324.8,610.4l-2.6-3.5v3.5h-1.6v-6.1h1.6l2.5,3.3v-3.3h1.6v6.1H324.8z"/>
	<path id="XMLID_36_" class="st17" d="M327.4,607.9v-3.6h1.6v3.6c0,0.7,0.4,1.2,1.3,1.2c0.8,0,1.3-0.5,1.3-1.2v-3.6h1.6v3.6
		c0,1.5-0.9,2.6-2.9,2.6C328.4,610.5,327.4,609.4,327.4,607.9z"/>
</g>
<g id="XMLID_40_">
	<polygon id="XMLID_7_" class="st17" points="353,637.8 359.1,641.3 353,644.8 	"/>
	<polygon id="XMLID_39_" class="st17" points="347,637.8 353.1,641.3 347,644.8 	"/>
	
		<rect id="XMLID_38_" x="356.5" y="641.1" transform="matrix(4.498250e-11 1 -1 4.498250e-11 1001.5593 281.8217)" class="st17" width="6.7" height="1.3"/>
</g>
<g id="XMLID_41_">
	<polygon id="XMLID_47_" class="st17" points="316,673.8 322.1,677.3 316,680.8 	"/>
	
		<rect id="XMLID_46_" x="319.3" y="676.9" transform="matrix(4.498250e-11 1 -1 4.498250e-11 1000.1514 354.8828)" class="st17" width="6.7" height="1.3"/>
	
		<rect id="XMLID_49_" x="321.5" y="676.9" transform="matrix(4.498250e-11 1 -1 4.498250e-11 1002.392 352.6423)" class="st17" width="6.7" height="1.3"/>
</g>
<g id="XMLID_42_">
	<polygon id="XMLID_45_" class="st17" points="288,637.8 281.9,641.3 288,644.8 	"/>
	<polygon id="XMLID_44_" class="st17" points="294,637.8 287.9,641.3 294,644.8 	"/>
	
		<rect id="XMLID_43_" x="278.3" y="641.1" transform="matrix(-8.969377e-11 1 -1 -8.969377e-11 923.3157 360.0653)" class="st17" width="6.7" height="1.3"/>
</g>
<path id="XMLID_54_" class="st4" d="M418.5,374"/>
<rect id="XMLID_70_" x="647.5" y="532" class="st1" width="14.5" height="50.5"/>
<rect id="XMLID_69_" x="647.5" y="532" class="st4" width="14.5" height="50.5"/>
<g>
</g>
<g>
</g>
<g>
</g>
<g>
</g>
<g>
</g>
<g>
</g>
<g>
</g>
<g>
</g>
<g>
</g>
<g>
</g>
<g>
</g>
<g>
</g>
<g>
</g>
<g>
</g>
<g>
</g>
</svg>
