<?xml version="1.0" encoding="utf-8"?>
<!-- Generator: Adobe Illustrator 23.1.1, SVG Export Plug-In . SVG Version: 6.00 Build 0)  -->
<svg version="1.1" id="Layer_1" xmlns="http://www.w3.org/2000/svg" xmlns:xlink="http://www.w3.org/1999/xlink" x="0px" y="0px"
	 viewBox="0 0 1000 1000" style="enable-background:new 0 0 1000 1000;" xml:space="preserve">
<style type="text/css">
	.st0{fill:#FFFFFF;}
	.st1{fill:#E4E8EC;}
	.st2{fill:#FFE870;}
	.st3{fill:#FFCD68;}
	.st4{fill:#FFF1B6;}
	.st5{fill:none;stroke:#441A36;stroke-width:6;stroke-linecap:round;stroke-linejoin:round;stroke-miterlimit:10;}
	.st6{fill:#A0F0F2;}
	.st7{fill:#33E2E1;}
	.st8{fill:#FF9472;}
	.st9{fill:#EF7756;}
	.st10{fill:#FF4F7C;}
	.st11{fill:#FFBE86;}
	.st12{fill:#EC9D6E;}
	.st13{font-family:'Arial-BoldMT';}
	.st14{font-size:50px;}
</style>
<rect class="st0" width="1000" height="1000"/>
<g>
	<ellipse class="st1" cx="505.5" cy="852.2" rx="207.5" ry="22.6"/>
	<path class="st2" d="M588.4,576c17-45.6,30.9-91.4,30.9-149.8c0-53-19.2-142.8-55.6-217.1c-3.4-6.9-10.3-11.2-18-11.2H500h-45.7
		c-7.6,0-14.6,4.4-18,11.2c-36.4,74.3-55.6,164.1-55.6,217.1c0,58.4,14,104.2,30.9,149.8c6,16-7.5,20.5-7.5,37.5s8.4,17,8.4,34
		s-8.4,17-8.4,34s8.4,17,8.4,34s-8.4,17-8.4,34c0,50.2,42.8,90.9,95.9,91.7c53.1-0.8,95.9-41.6,95.9-91.7c0-17-8.4-17-8.4-34
		s8.4-17,8.4-34s-8.4-17-8.4-34s8.4-17,8.4-34C595.9,596.5,582.4,592,588.4,576z"/>
	<path class="st3" d="M503.1,732.5c-18.9,0-34.2,15.3-34.2,34.2s15.3,34.2,34.2,34.2c18.9,0,34.2-15.3,34.2-34.2
		S521.9,732.5,503.1,732.5z"/>
	<g>
		<circle class="st3" cx="500.6" cy="553.7" r="21.1"/>
		<path class="st3" d="M559,551.7l-26.2-18.5c-0.9-0.6-2.1-0.7-3.1-0.2s-1.6,1.5-1.6,2.7v37c0,1.1,0.6,2.1,1.6,2.7
			c0.4,0.2,0.9,0.3,1.4,0.3c0.6,0,1.2-0.2,1.7-0.6l26.2-18.5c0.8-0.6,1.3-1.5,1.3-2.4S559.8,552.2,559,551.7z"/>
		<path class="st3" d="M471.8,532.9c-1-0.5-2.2-0.4-3.1,0.2l-26.2,18.5c-0.8,0.6-1.3,1.5-1.3,2.4s0.5,1.9,1.3,2.4l26.2,18.5
			c0.5,0.4,1.1,0.6,1.7,0.6c0.5,0,0.9-0.1,1.4-0.3c1-0.5,1.6-1.5,1.6-2.7v-37C473.4,534.5,472.8,533.5,471.8,532.9z"/>
	</g>
	<path class="st4" d="M415.1,749.5c0-17,8.4-17,8.4-34s-8.4-17-8.4-34s8.4-17,8.4-34s-8.4-17-8.4-34s13.5-21.5,7.5-37.5
		c-17-45.6-30.9-91.4-30.9-149.8c0-53,19.2-142.8,55.6-217.1c3.4-6.9,10.3-11.2,18-11.2h-11c-7.6,0-14.6,4.4-18,11.2
		c-36.4,74.3-55.6,164.1-55.6,217.1c0,58.4,14,104.2,30.9,149.8c6,16-7.5,20.5-7.5,37.5s8.4,17,8.4,34s-8.4,17-8.4,34s8.4,17,8.4,34
		s-8.4,17-8.4,34c0,50.2,42.8,90.9,95.9,91.7c1.8,0,3.7-0.1,5.5-0.2C455,837.5,415.1,797.9,415.1,749.5z"/>
	<path class="st3" d="M588.4,576c17-45.6,30.9-91.4,30.9-149.8c0-53-19.2-142.8-55.6-217.1c-3.4-6.9-10.3-11.2-18-11.2h-6
		c36.3,74.2,55.5,163.9,55.5,216.7c0,58.4-14,104.2-30.9,149.8c-6,16,7.5,20.5,7.5,37.5s-8.4,17-8.4,34s8.4,17,8.4,34
		s-8.4,17-8.4,34s8.4,17,8.4,34c0,50.2-42.8,90.9-95.9,91.7c-10.5-0.2-20.7-1.9-30.1-5c15.4,10.2,34.1,16.2,54.3,16.5
		c53.1-0.8,95.9-41.6,95.9-91.7c0-17-8.4-17-8.4-34s8.4-17,8.4-34s-8.4-17-8.4-34s8.4-17,8.4-34C595.9,596.5,582.4,592,588.4,576z"
		/>
	<path class="st5" d="M588.4,576c17-45.6,30.9-91.4,30.9-149.8c0-53-19.2-142.8-55.6-217.1c-3.4-6.9-10.3-11.2-18-11.2H500h-45.7
		c-7.6,0-14.6,4.4-18,11.2c-36.4,74.3-55.6,164.1-55.6,217.1c0,58.4,14,104.2,30.9,149.8c6,16-7.5,20.5-7.5,37.5s8.4,17,8.4,34
		s-8.4,17-8.4,34s8.4,17,8.4,34s-8.4,17-8.4,34c0,50.2,42.8,90.9,95.9,91.7c53.1-0.8,95.9-41.6,95.9-91.7c0-17-8.4-17-8.4-34
		s8.4-17,8.4-34s-8.4-17-8.4-34s8.4-17,8.4-34C595.9,596.5,582.4,592,588.4,576z"/>
	<g>
		<circle class="st6" cx="500" cy="759" r="31.2"/>
		<path class="st7" d="M515.5,732c3.9,5.2,6.1,11.6,6.1,18.6c0,17.2-14,31.2-31.2,31.2c-5.7,0-11-1.5-15.5-4.2
			c5.7,7.7,14.8,12.6,25.1,12.6c17.2,0,31.2-14,31.2-31.2C531.2,747.4,524.9,737.3,515.5,732z"/>
		
			<ellipse transform="matrix(0.9678 -0.2517 0.2517 0.9678 -173.5237 148.7058)" class="st0" cx="494.5" cy="752.7" rx="14.8" ry="11.5"/>
		<circle class="st5" cx="500" cy="759" r="31.2"/>
	</g>
	<g>
		<path class="st8" d="M427.9,323.6c-0.3,27.2,0.9,68.2,2,99.2c1.7,37,31,85.9,69.9,85.9c39.4,0,68.2-49,69.9-85.9
			c1.1-31,2.5-72,2.3-99.2L427.9,323.6L427.9,323.6z"/>
		<path class="st9" d="M572.1,323.6h-13.4c-0.2,26.2-1.4,59.6-2.3,85.9c-1.7,37-30.5,85.9-69.9,85.9c-12.1,0-23.3-4.7-33-12.4
			c12.1,15.1,28.2,25.7,46.3,25.7c39.4,0,68.2-49,69.9-85.9C570.9,391.8,572.3,350.8,572.1,323.6z"/>
		<path class="st5" d="M427.9,323.6c-0.3,27.2,0.9,68.2,2,99.2c1.7,37,31,85.9,69.9,85.9c39.4,0,68.2-49,69.9-85.9
			c1.1-31,2.5-72,2.3-99.2L427.9,323.6L427.9,323.6z"/>
	</g>
	<path class="st10" d="M543.6,431.6h-87.1c-4.4,0-8-3.6-8-8v-57.3c0-4.4,3.6-8,8-8h87.1c4.4,0,8,3.6,8,8v57.3
		C551.6,428,548,431.6,543.6,431.6z"/>
	<path class="st5" d="M543.6,431.6h-87.1c-4.4,0-8-3.6-8-8v-57.3c0-4.4,3.6-8,8-8h87.1c4.4,0,8,3.6,8,8v57.3
		C551.6,428,548,431.6,543.6,431.6z"/>
	<path class="st11" d="M500,197.9h-45.7c-7.6,0-14.6,4.4-18,11.2c-8.1,16.6-15.4,33.9-21.8,51.5h170.8
		c-6.4-17.6-13.7-34.9-21.8-51.5c-3.4-6.9-10.3-11.2-18-11.2L500,197.9L500,197.9z"/>
	<path class="st12" d="M585.4,260.6L585.4,260.6c-0.6-1.7-1.3-3.5-1.9-5.2c-0.2-0.6-0.4-1.2-0.7-1.8c-0.6-1.5-1.2-3.1-1.8-4.6
		c-0.3-0.8-0.6-1.6-0.9-2.4c-0.6-1.4-1.1-2.8-1.7-4.2c-0.4-0.9-0.8-1.9-1.1-2.8c-0.5-1.3-1.1-2.6-1.6-3.8c-0.4-1.1-0.9-2.1-1.4-3.2
		c-0.5-1.2-1-2.3-1.5-3.5s-1.1-2.4-1.6-3.6c-0.5-1-0.9-2.1-1.4-3.1c-0.6-1.4-1.3-2.9-2-4.3c-0.4-0.8-0.7-1.6-1.1-2.4
		c-1-2.2-2.1-4.4-3.2-6.6c-3.4-6.9-10.3-11.2-18-11.2h-6c9.8,20.1,18.4,41.4,25.7,62.7H585.4z"/>
	<path class="st5" d="M500,197.9h-45.7c-7.6,0-14.6,4.4-18,11.2c-8.1,16.6-15.4,33.9-21.8,51.5h170.8c-6.4-17.6-13.7-34.9-21.8-51.5
		c-3.4-6.9-10.3-11.2-18-11.2L500,197.9L500,197.9z"/>
	<g>
		
			<ellipse transform="matrix(0.9239 -0.3827 0.3827 0.9239 -171.5508 232.9564)" class="st0" cx="499.8" cy="547.7" rx="18.1" ry="18.1"/>
		
			<ellipse transform="matrix(0.9239 -0.3827 0.3827 0.9239 -171.5508 232.9564)" class="st5" cx="499.8" cy="547.7" rx="18.1" ry="18.1"/>
		<polygon class="st0" points="530.4,529.6 556.5,548.1 530.4,566.6 		"/>
		<polygon class="st5" points="530.4,529.6 556.5,548.1 530.4,566.6 		"/>
		<polygon class="st0" points="469.6,529.6 443.5,548.1 469.6,566.6 		"/>
		<polygon class="st5" points="469.6,529.6 443.5,548.1 469.6,566.6 		"/>
	</g>
	<text transform="matrix(1 0 0 1 467.6004 415.93)" class="st0 st13 st14">90°</text>
</g>
</svg>
