<?xml version="1.0" encoding="utf-8"?>
<!-- Generator: Adobe Illustrator 23.1.1, SVG Export Plug-In . SVG Version: 6.00 Build 0)  -->
<svg version="1.1" id="Layer_1" xmlns="http://www.w3.org/2000/svg" xmlns:xlink="http://www.w3.org/1999/xlink" x="0px" y="0px"
	 viewBox="0 0 1000 1000" style="enable-background:new 0 0 1000 1000;" xml:space="preserve">
<style type="text/css">
	.st0{fill:#30B5B2;}
	.st1{fill:#EEF2F4;}
	.st2{opacity:0.23;fill:#A9DBED;}
	.st3{fill:#26A8A1;}
	.st4{fill:#FBC3AA;}
	.st5{fill:#DD3142;}
	.st6{fill:#212D47;}
	.st7{fill:#FFFFFF;}
	.st8{fill:none;stroke:#D32A3B;stroke-width:3;stroke-linecap:round;stroke-linejoin:round;stroke-miterlimit:10;}
	.st9{fill:#BCBCBC;}
	.st10{fill:#F7F7F7;}
	.st11{fill:#D82B45;}
	.st12{fill:#2D3854;}
	.st13{fill:#394663;}
	.st14{fill:#22314C;}
	.st15{fill:#E53E46;}
	.st16{fill:#25314C;}
	.st17{opacity:0.76;fill:#F2AD91;}
	.st18{fill:#ED9C80;}
	.st19{fill:#C65132;}
	.st20{fill:none;stroke:#0A0A0A;stroke-width:7;stroke-linecap:round;stroke-linejoin:round;stroke-miterlimit:10;}
	.st21{fill:none;stroke:#3F2E21;stroke-width:4;stroke-linecap:round;stroke-linejoin:round;stroke-miterlimit:10;}
	.st22{fill:none;stroke:#DD6944;stroke-width:8;stroke-linecap:round;stroke-linejoin:round;stroke-miterlimit:10;}
	.st23{fill:#F2AD91;}
	.st24{fill:#DD6944;}
	.st25{opacity:0.69;fill:#F2AD91;}
</style>
<rect id="XMLID_45_" class="st0" width="1000" height="1000"/>
<g>
	<g>
		<g>
			<path class="st1" d="M63.2,959.2c0,2.5-1.2,3.7-2.6,3.7c-1.1,0-1.9-0.5-2.1-1.4c-0.4,0.5-1,0.8-1.8,0.8c-1.5,0-2.6-1.2-2.6-2.8
				c0-1.6,1.1-2.8,2.6-2.8c0.7,0,1.2,0.3,1.6,0.7v-0.5h1.6v3.9c0,0.8,0.3,1.4,1,1.4c0.9,0,1.7-0.9,1.7-3c0-3-2.3-5.3-5.4-5.3
				c-3.1,0-5.6,2.4-5.6,5.7c0,3.3,2.5,5.7,5.9,5.7c1.1,0,2.1-0.2,2.9-0.4v0.6c-0.8,0.3-1.7,0.4-2.9,0.4c-3.7,0-6.5-2.6-6.5-6.2
				c0-3.4,2.7-6.2,6.2-6.2C61.1,953.3,63.2,956.4,63.2,959.2z M58.3,959.5c0-0.8-0.6-1.4-1.3-1.4c-0.8,0-1.3,0.5-1.3,1.4
				c0,0.8,0.6,1.3,1.3,1.3C57.8,960.9,58.3,960.3,58.3,959.5z"/>
		</g>
		<g>
			<path class="st1" d="M69.4,955.1v2c-1.2-0.1-2.6,0.5-2.6,2.4v4.3h-1.9v-8.6h1.9v1.4C67.3,955.5,68.3,955.1,69.4,955.1z"/>
		</g>
		<g>
			<path class="st1" d="M74.6,962.3c1,0,1.8-0.5,2.2-1.1l1.5,0.9c-0.8,1.2-2.1,1.9-3.8,1.9c-2.8,0-4.7-1.9-4.7-4.5
				c0-2.5,1.8-4.5,4.5-4.5c2.6,0,4.3,2.1,4.3,4.5c0,0.3,0,0.5-0.1,0.8h-6.8C72.1,961.6,73.2,962.3,74.6,962.3z M76.9,958.8
				c-0.3-1.5-1.3-2.1-2.5-2.1c-1.4,0-2.3,0.8-2.6,2.1H76.9z"/>
		</g>
		<g>
			<path class="st1" d="M88.9,955.2v8.6h-1.9v-1.2c-0.7,0.9-1.7,1.5-3,1.5c-2.3,0-4.3-2-4.3-4.5c0-2.6,1.9-4.5,4.3-4.5
				c1.3,0,2.3,0.5,3,1.4v-1.2H88.9z M87.1,959.5c0-1.6-1.2-2.7-2.7-2.7c-1.5,0-2.7,1.1-2.7,2.7c0,1.6,1.2,2.7,2.7,2.7
				C85.9,962.3,87.1,961.1,87.1,959.5z"/>
		</g>
		<g>
			<path class="st1" d="M91.1,951.3H93v12.5h-1.9V951.3z"/>
		</g>
		<g>
			<path class="st1" d="M102.9,955.2l-3.3,8.6h-2.1l-3.3-8.6h2l2.4,6.5l2.4-6.5H102.9z"/>
		</g>
		<g>
			<path class="st1" d="M104.2,955.2h1.9v8.9c0,2.4-1.2,3.5-3.5,3.3v-1.8c1.1,0.1,1.7-0.3,1.7-1.5V955.2z M104,952.8
				c0-0.7,0.5-1.2,1.2-1.2c0.7,0,1.2,0.5,1.2,1.2c0,0.6-0.5,1.2-1.2,1.2C104.5,954,104,953.4,104,952.8z"/>
		</g>
		<g>
			<path class="st1" d="M116,955.2l-3.3,8.8c-0.8,2.2-2.2,3.3-4.2,3.2v-1.7c1.2,0.1,1.9-0.5,2.3-1.7l0.1-0.2l-3.6-8.4h2l2.6,6.2
				l2.2-6.2H116z"/>
		</g>
	</g>
	<g>
		<path class="st1" d="M211.9,938.7c0,2.1-1.5,3.8-3.6,3.8h-3v-7.6h3C210.4,934.9,211.9,936.6,211.9,938.7z M210.9,938.7
			c0-1.6-1.1-2.9-2.6-2.9h-2v5.7h2C209.8,941.6,210.9,940.3,210.9,938.7z"/>
		<path class="st1" d="M219.5,940.8h-3.4l-0.6,1.7h-1.1l2.8-7.6h1.1l2.8,7.6h-1.1L219.5,940.8z M219.2,939.9l-1.4-3.8l-1.4,3.8
			H219.2z"/>
		<path class="st1" d="M226.4,939.4v3.1h-1v-3.1l-2.7-4.5h1.1l2.1,3.6l2.1-3.6h1.1L226.4,939.4z"/>
		<path class="st1" d="M236.9,941.7l2.7-2.7c0.6-0.6,1.1-1.2,1.1-1.9c0-0.9-0.6-1.4-1.4-1.4c-0.7,0-1.2,0.3-1.6,1l-0.8-0.5
			c0.5-1,1.4-1.5,2.4-1.5c1.2,0,2.4,0.8,2.4,2.3c0,0.9-0.6,1.8-1.4,2.5l-2,1.9h3.5v1h-4.9V941.7z"/>
		<path class="st1" d="M249.6,938.8L249.6,938.8l-2.5,3.7H246l1.8-2.7c-0.1,0-0.2,0-0.4,0c-1.5,0-2.6-1-2.6-2.6
			c0-1.5,1.1-2.6,2.6-2.6s2.6,1,2.6,2.6C250.1,937.9,249.9,938.4,249.6,938.8z M247.4,938.9c1,0,1.6-0.6,1.6-1.6s-0.7-1.6-1.6-1.6
			s-1.6,0.6-1.6,1.6C245.8,938.3,246.5,938.9,247.4,938.9z"/>
	</g>
	<g>
		<path class="st1" d="M58.9,938.7c0,2.1-1.5,3.8-3.6,3.8h-3v-7.6h3C57.4,934.9,58.9,936.6,58.9,938.7z M57.9,938.7
			c0-1.6-1.1-2.9-2.6-2.9h-2v5.7h2C56.8,941.6,57.9,940.3,57.9,938.7z"/>
		<path class="st1" d="M67,941.6v1h-4.6v-7.6h4.5v1h-3.5v2.3h3.2v0.9h-3.2v2.4H67z"/>
		<path class="st1" d="M70,940.8l0.9-0.5c0.3,0.8,0.9,1.4,2,1.4c1.1,0,1.6-0.5,1.6-1.2c0-0.8-0.7-1-1.8-1.4
			c-1.2-0.4-2.4-0.8-2.4-2.2c0-1.4,1.1-2.2,2.4-2.2c1.3,0,2.2,0.7,2.6,1.7l-0.8,0.5c-0.3-0.7-0.8-1.2-1.7-1.2
			c-0.8,0-1.4,0.4-1.4,1.1c0,0.7,0.5,1,1.6,1.3c1.3,0.4,2.6,0.8,2.6,2.3c0,1.3-1.1,2.2-2.6,2.2C71.5,942.7,70.4,941.9,70,940.8z"/>
		<path class="st1" d="M80,934.9v7.6h-1v-7.6H80z"/>
		<path class="st1" d="M91.3,939.2c0,1.9-1.4,3.5-3.7,3.5c-2.4,0-4-1.8-4-4c0-2.2,1.7-4,4-4c1.4,0,2.7,0.8,3.3,1.8l-0.9,0.5
			c-0.4-0.8-1.4-1.4-2.4-1.4c-1.8,0-3,1.3-3,3c0,1.7,1.2,3,3,3c1.6,0,2.5-0.9,2.7-2h-2.8v-0.9h3.8V939.2z"/>
		<path class="st1" d="M100.6,934.9v7.6h-0.8l-3.9-5.7v5.7h-1v-7.6h0.8l3.9,5.7v-5.7H100.6z"/>
		<path class="st1" d="M109.1,941.6v1h-4.6v-7.6h4.5v1h-3.5v2.3h3.2v0.9h-3.2v2.4H109.1z"/>
		<path class="st1" d="M119.2,938.7c0,2.1-1.5,3.8-3.6,3.8h-3v-7.6h3C117.6,934.9,119.2,936.6,119.2,938.7z M118.2,938.7
			c0-1.6-1.1-2.9-2.6-2.9h-2v5.7h2C117.1,941.6,118.2,940.3,118.2,938.7z"/>
		<path class="st1" d="M133.2,940.4c0,1.2-1,2.2-2.2,2.2h-3.3v-7.6h3c1.2,0,2.1,0.9,2.1,2.1c0,0.7-0.3,1.2-0.8,1.6
			C132.7,938.9,133.2,939.5,133.2,940.4z M128.7,935.8v2.3h2c0.6,0,1.1-0.5,1.1-1.2c0-0.6-0.5-1.2-1.1-1.2H128.7z M132.2,940.3
			c0-0.7-0.5-1.2-1.2-1.2h-2.3v2.5h2.3C131.7,941.6,132.2,941,132.2,940.3z"/>
		<path class="st1" d="M139.4,939.4v3.1h-1v-3.1l-2.7-4.5h1.1l2.1,3.6l2.1-3.6h1.1L139.4,939.4z"/>
	</g>
	<g>
		<path class="st1" d="M204.8,961.5l1.8-1c0.4,1.3,1.4,2.1,3.1,2.1c1.6,0,2.3-0.7,2.3-1.6c0-1.1-1-1.5-2.8-2
			c-1.9-0.6-3.8-1.3-3.8-3.6c0-2.3,1.9-3.6,4-3.6c2,0,3.5,1.1,4.3,2.7l-1.7,1c-0.4-1-1.2-1.7-2.6-1.7c-1.2,0-1.9,0.6-1.9,1.5
			c0,1,0.7,1.4,2.5,1.9c2.1,0.7,4.1,1.3,4.1,3.8c0,2.3-1.8,3.6-4.4,3.6C207.1,964.5,205.5,963.3,204.8,961.5z"/>
		<path class="st1" d="M220.2,962.8c1.1,0,1.9-0.5,2.3-1.1l1.6,0.9c-0.8,1.2-2.1,1.9-3.9,1.9c-2.9,0-4.8-2-4.8-4.7
			c0-2.6,1.9-4.7,4.7-4.7c2.6,0,4.4,2.1,4.4,4.7c0,0.3,0,0.5-0.1,0.8h-7C217.7,962.1,218.8,962.8,220.2,962.8z M222.5,959.1
			c-0.3-1.5-1.4-2.2-2.5-2.2c-1.4,0-2.4,0.8-2.7,2.2H222.5z"/>
		<path class="st1" d="M226.2,951.4h1.9v12.9h-1.9V951.4z"/>
		<path class="st1" d="M237.7,964.3h-1.9v-7h-2.9v7h-1.9v-7h-1.3v-1.8h1.3v-0.2c0-2.4,1.3-3.6,4-3.6c0.6,0,1.3,0.1,2,0.2v1.8
			c-0.7-0.1-1.3-0.1-2-0.1c-1.3,0-2.1,0.4-2.1,1.8v0.2h4.8V964.3z"/>
		<path class="st1" d="M244.2,962.8c1.1,0,1.9-0.5,2.3-1.1l1.6,0.9c-0.8,1.2-2.1,1.9-3.9,1.9c-2.9,0-4.8-2-4.8-4.7
			c0-2.6,1.9-4.7,4.7-4.7c2.6,0,4.4,2.1,4.4,4.7c0,0.3,0,0.5-0.1,0.8h-7C241.7,962.1,242.8,962.8,244.2,962.8z M246.6,959.1
			c-0.3-1.5-1.4-2.2-2.5-2.2c-1.4,0-2.4,0.8-2.7,2.2H246.6z"/>
		<path class="st1" d="M263.8,960.8c0,2.1-1.7,3.5-3.7,3.5h-5.3v-12.4h4.9c2,0,3.6,1.5,3.6,3.4c0,1.1-0.5,2-1.3,2.5
			C263.1,958.4,263.8,959.4,263.8,960.8z M256.8,953.8v3.3h2.9c0.9,0,1.6-0.7,1.6-1.6c0-0.9-0.7-1.6-1.6-1.6H256.8z M261.7,960.6
			c0-1-0.7-1.7-1.7-1.7h-3.3v3.5h3.3C261,962.4,261.7,961.6,261.7,960.6z"/>
		<path class="st1" d="M265,959.9c0-2.6,2.1-4.7,4.7-4.7c2.6,0,4.7,2,4.7,4.7c0,2.6-2.1,4.7-4.7,4.7
			C267.1,964.5,265,962.5,265,959.9z M272.5,959.9c0-1.6-1.2-2.8-2.8-2.8s-2.8,1.2-2.8,2.8c0,1.6,1.2,2.8,2.8,2.8
			S272.5,961.5,272.5,959.9z"/>
		<path class="st1" d="M283.8,955.4l-3.4,9.1c-0.8,2.2-2.3,3.4-4.3,3.3V966c1.2,0.1,1.9-0.6,2.4-1.7l0.1-0.2l-3.8-8.7h2.1l2.6,6.4
			l2.3-6.4H283.8z"/>
	</g>
	<g>
		<g>
			<path class="st1" d="M846.1,938.7c0,2.1-1.5,3.8-3.6,3.8h-3v-7.6h3C844.6,934.9,846.1,936.6,846.1,938.7z M845.2,938.7
				c0-1.6-1.1-2.9-2.6-2.9h-2v5.7h2C844.1,941.6,845.2,940.3,845.2,938.7z"/>
		</g>
		<g>
			<path class="st1" d="M849.3,938.7c0-2.2,1.7-4,3.9-4c2.2,0,4,1.8,4,4c0,2.2-1.7,4-4,4C851,942.7,849.3,940.9,849.3,938.7z
				 M856.1,938.7c0-1.7-1.3-3-2.9-3c-1.7,0-2.9,1.3-2.9,3c0,1.7,1.3,3,2.9,3C854.9,941.7,856.1,940.4,856.1,938.7z"/>
		</g>
		<g>
			<path class="st1" d="M859.8,934.9h1.1l1.7,6.3l1.9-6.3h1l1.9,6.3l1.7-6.3h1.1l-2.2,7.6h-1.2l-1.8-6.1l-1.8,6.1H862L859.8,934.9z"
				/>
		</g>
		<g>
			<path class="st1" d="M879.3,934.9v7.6h-0.8l-3.9-5.7v5.7h-1v-7.6h0.8l3.9,5.7v-5.7H879.3z"/>
		</g>
		<g>
			<path class="st1" d="M887.5,941.6v1h-4.3v-7.6h1v6.7H887.5z"/>
		</g>
		<g>
			<path class="st1" d="M889.9,938.7c0-2.2,1.7-4,3.9-4c2.2,0,4,1.8,4,4c0,2.2-1.7,4-4,4C891.6,942.7,889.9,940.9,889.9,938.7z
				 M896.8,938.7c0-1.7-1.3-3-2.9-3c-1.7,0-2.9,1.3-2.9,3c0,1.7,1.3,3,2.9,3C895.5,941.7,896.8,940.4,896.8,938.7z"/>
		</g>
		<g>
			<path class="st1" d="M905.4,940.8H902l-0.6,1.7h-1.1l2.8-7.6h1.1l2.8,7.6H906L905.4,940.8z M905.1,939.9l-1.4-3.8l-1.4,3.8H905.1
				z"/>
		</g>
		<g>
			<path class="st1" d="M916.9,938.7c0,2.1-1.5,3.8-3.6,3.8h-3v-7.6h3C915.4,934.9,916.9,936.6,916.9,938.7z M915.9,938.7
				c0-1.6-1.1-2.9-2.6-2.9h-2v5.7h2C914.9,941.6,915.9,940.3,915.9,938.7z"/>
		</g>
		<g>
			<path class="st1" d="M926.5,935.8v2.5h3.2v1h-3.2v3.2h-1v-7.6h4.4v1H926.5z"/>
		</g>
		<g>
			<path class="st1" d="M936.2,939.6h-1.8v2.9h-1v-7.6h3c1.3,0,2.4,1.1,2.4,2.4c0,1-0.7,1.9-1.6,2.2l1.8,3.1h-1.1L936.2,939.6z
				 M934.4,938.7h2c0.8,0,1.4-0.6,1.4-1.4c0-0.8-0.6-1.4-1.4-1.4h-2V938.7z"/>
		</g>
		<g>
			<path class="st1" d="M941.9,938.7c0-2.2,1.7-4,3.9-4c2.2,0,4,1.8,4,4c0,2.2-1.7,4-4,4C943.6,942.7,941.9,940.9,941.9,938.7z
				 M948.8,938.7c0-1.7-1.3-3-2.9-3c-1.7,0-2.9,1.3-2.9,3c0,1.7,1.3,3,2.9,3C947.5,941.7,948.8,940.4,948.8,938.7z"/>
		</g>
		<g>
			<path class="st1" d="M960.4,942.5h-1v-6l-2.5,4.2h-0.1l-2.5-4.1v5.9h-1v-7.6h1.1l2.4,4l2.4-4h1.1V942.5z"/>
		</g>
	</g>
	<g>
		<g>
			<path class="st1" d="M839.3,952.9c0-0.7,0.5-1.2,1.2-1.2c0.7,0,1.2,0.5,1.2,1.2c0,0.7-0.5,1.2-1.2,1.2
				C839.9,954.1,839.3,953.6,839.3,952.9z M839.6,955.4h1.9v8.9h-1.9V955.4z"/>
		</g>
		<g>
			<path class="st1" d="M843.7,951.4h1.9v12.9h-1.9V951.4z"/>
		</g>
		<g>
			<path class="st1" d="M847.8,951.4h1.9v12.9h-1.9V951.4z"/>
		</g>
		<g>
			<path class="st1" d="M852,951.4h1.9v12.9H852V951.4z"/>
		</g>
		<g>
			<path class="st1" d="M864,955.4v8.9h-1.9v-1.1c-0.6,0.9-1.5,1.4-2.7,1.4c-2,0-3.4-1.3-3.4-3.6v-5.4h1.9v5.2c0,1.3,0.8,2.1,2,2.1
				c1.3,0,2.2-0.7,2.2-2.5v-4.7H864z"/>
		</g>
		<g>
			<path class="st1" d="M872.6,961.8c0,1.8-1.5,2.7-3.5,2.7c-1.8,0-3-0.8-3.6-2.1l1.6-1c0.3,0.8,1,1.3,2,1.3c0.8,0,1.5-0.3,1.5-1
				c0-1.6-4.8-0.7-4.8-3.9c0-1.7,1.4-2.7,3.2-2.7c1.5,0,2.7,0.7,3.3,1.8l-1.6,0.9c-0.3-0.7-0.9-1-1.7-1c-0.7,0-1.3,0.3-1.3,0.9
				C867.9,959.5,872.6,958.5,872.6,961.8z"/>
		</g>
		<g>
			<path class="st1" d="M876.7,957.3v4.2c0,1.1,0.7,1.1,2.2,1v1.7c-2.9,0.4-4.1-0.5-4.1-2.8v-4.2h-1.6v-1.8h1.6v-1.9l1.9-0.6v2.5
				h2.2v1.8H876.7z"/>
		</g>
		<g>
			<path class="st1" d="M885.4,955.3v2.1c-1.3-0.1-2.7,0.5-2.7,2.5v4.5h-1.9v-8.9h1.9v1.5C883.2,955.7,884.2,955.3,885.4,955.3z"/>
		</g>
		<g>
			<path class="st1" d="M895.3,955.4v8.9h-1.9V963c-0.7,0.9-1.7,1.5-3.1,1.5c-2.4,0-4.4-2-4.4-4.7c0-2.6,2-4.7,4.4-4.7
				c1.4,0,2.4,0.6,3.1,1.5v-1.3H895.3z M893.4,959.9c0-1.6-1.2-2.8-2.8-2.8c-1.6,0-2.8,1.2-2.8,2.8c0,1.6,1.2,2.8,2.8,2.8
				C892.2,962.7,893.4,961.5,893.4,959.9z"/>
		</g>
		<g>
			<path class="st1" d="M900.3,957.3v4.2c0,1.1,0.7,1.1,2.2,1v1.7c-2.9,0.4-4.1-0.5-4.1-2.8v-4.2h-1.6v-1.8h1.6v-1.9l1.9-0.6v2.5
				h2.2v1.8H900.3z"/>
		</g>
		<g>
			<path class="st1" d="M903.9,952.9c0-0.7,0.5-1.2,1.2-1.2c0.7,0,1.2,0.5,1.2,1.2c0,0.7-0.5,1.2-1.2,1.2
				C904.5,954.1,903.9,953.6,903.9,952.9z M904.2,955.4h1.9v8.9h-1.9V955.4z"/>
		</g>
		<g>
			<path class="st1" d="M907.8,959.9c0-2.6,2.1-4.7,4.7-4.7c2.6,0,4.7,2,4.7,4.7c0,2.6-2.1,4.7-4.7,4.7
				C909.9,964.5,907.8,962.5,907.8,959.9z M915.3,959.9c0-1.6-1.2-2.8-2.8-2.8c-1.6,0-2.8,1.2-2.8,2.8c0,1.6,1.2,2.8,2.8,2.8
				C914.1,962.7,915.3,961.5,915.3,959.9z"/>
		</g>
		<g>
			<path class="st1" d="M927,958.9v5.4h-1.9v-5.2c0-1.3-0.8-2.1-2-2.1c-1.3,0-2.2,0.7-2.2,2.5v4.7h-1.9v-8.9h1.9v1.1
				c0.6-0.9,1.5-1.4,2.7-1.4C925.5,955.2,927,956.6,927,958.9z"/>
		</g>
		<g>
			<path class="st1" d="M935.5,961.8c0,1.8-1.5,2.7-3.5,2.7c-1.8,0-3-0.8-3.6-2.1l1.6-1c0.3,0.8,1,1.3,2,1.3c0.8,0,1.5-0.3,1.5-1
				c0-1.6-4.8-0.7-4.8-3.9c0-1.7,1.4-2.7,3.2-2.7c1.5,0,2.7,0.7,3.3,1.8l-1.6,0.9c-0.3-0.7-0.9-1-1.7-1c-0.7,0-1.3,0.3-1.3,0.9
				C930.7,959.5,935.5,958.5,935.5,961.8z"/>
		</g>
		<g>
			<path class="st1" d="M936.8,963.2c0-0.7,0.6-1.3,1.3-1.3c0.7,0,1.3,0.6,1.3,1.3c0,0.7-0.6,1.3-1.3,1.3
				C937.4,964.5,936.8,963.9,936.8,963.2z"/>
		</g>
		<g>
			<path class="st1" d="M940.3,959.9c0-2.6,2-4.7,4.7-4.7c1.7,0,3.2,0.9,3.9,2.3l-1.6,1c-0.4-0.8-1.3-1.4-2.3-1.4
				c-1.6,0-2.7,1.2-2.7,2.8c0,1.6,1.2,2.8,2.7,2.8c1.1,0,1.9-0.5,2.4-1.4l1.6,0.9c-0.7,1.4-2.2,2.3-4,2.3
				C942.3,964.5,940.3,962.5,940.3,959.9z"/>
		</g>
		<g>
			<path class="st1" d="M949.7,959.9c0-2.6,2.1-4.7,4.7-4.7c2.6,0,4.7,2,4.7,4.7c0,2.6-2.1,4.7-4.7,4.7
				C951.8,964.5,949.7,962.5,949.7,959.9z M957.2,959.9c0-1.6-1.2-2.8-2.8-2.8s-2.8,1.2-2.8,2.8c0,1.6,1.2,2.8,2.8,2.8
				S957.2,961.5,957.2,959.9z"/>
		</g>
	</g>
</g>
<g>
	<path id="XMLID_385_" class="st2" d="M678.3,403.1v-53.6H578V296h76.5v-53.6h-310V296H412v53.6H269v53.6h61.3v53.6H185.7v53.6
		h201.7v53.6h-94.6v53.6h140v53.6h-93.3v53.6h288.9v-53.6h-62.6v-53.6H785v-53.6H675.3v-53.6H721v-53.6h-88.1v-53.6H678.3z
		 M519.9,456.6h-76.6v-53.6h76.6V456.6z"/>
	<rect id="XMLID_145_" x="229.6" y="241.9" class="st2" width="55.4" height="53.6"/>
	<rect id="XMLID_154_" x="750.6" y="349.5" class="st2" width="55.4" height="53.6"/>
</g>
<g>
	<rect id="XMLID_7_" x="348.3" y="751.3" class="st3" width="104" height="24"/>
	<rect id="XMLID_144_" x="268.3" y="751.3" class="st3" width="48.6" height="24"/>
	<rect id="XMLID_42_" x="495.6" y="751.3" class="st3" width="70.1" height="24"/>
	<rect id="XMLID_6_" x="611.6" y="751.3" class="st3" width="40.3" height="24"/>
	<rect id="XMLID_55_" x="663.6" y="823.3" class="st3" width="40.3" height="24"/>
	
		<rect id="XMLID_48_" x="375.7" y="799.3" transform="matrix(-1 -1.224647e-16 1.224647e-16 -1 902.6153 1622.6666)" class="st3" width="151.3" height="24"/>
	
		<rect id="XMLID_119_" x="586.2" y="799.3" transform="matrix(-1 -1.224647e-16 1.224647e-16 -1 1223.2991 1622.6666)" class="st3" width="50.8" height="24"/>
	
		<rect id="XMLID_122_" x="481.8" y="823.3" transform="matrix(-1 -1.224647e-16 1.224647e-16 -1 1090.1581 1670.6666)" class="st3" width="126.5" height="24"/>
	
		<rect id="XMLID_133_" x="426.4" y="847.3" transform="matrix(-1 -1.224647e-16 1.224647e-16 -1 968.5149 1718.6666)" class="st3" width="115.7" height="24"/>
</g>
<g>
	<rect id="XMLID_5_" x="478.9" y="510.1" class="st0" width="92.7" height="53.6"/>
	<rect id="XMLID_147_" x="376.9" y="296.2" class="st0" width="132.8" height="53.6"/>
	<rect id="XMLID_150_" x="395.6" y="403.1" class="st0" width="263.4" height="53.6"/>
	<rect id="XMLID_158_" x="475.4" y="563.7" class="st0" width="145.8" height="53.6"/>
	<rect id="XMLID_12_" x="426.4" y="775.3" class="st3" width="97.9" height="24"/>
	<rect id="XMLID_100_" x="471.9" y="749" class="st4" width="25.8" height="38.5"/>
	<path id="XMLID_99_" class="st5" d="M524.8,806h-75.5v0c0-16.9,13.7-30.7,30.7-30.7h44.8V806z"/>
	<path id="XMLID_96_" class="st5" d="M500,806c0-20.4,16.6-37,37-37c20.4,0,37,16.6,37,37H500z"/>
	<path id="XMLID_93_" class="st6" d="M574,811.3H449.3c-1.5,0-2.7-1.2-2.7-2.7l0,0c0-1.5,1.2-2.7,2.7-2.7H574c1.5,0,2.7,1.2,2.7,2.7
		l0,0C576.7,810.1,575.5,811.3,574,811.3z"/>
	<ellipse id="XMLID_92_" class="st7" cx="539" cy="775.3" rx="8.3" ry="2.8"/>
	<path id="XMLID_89_" class="st8" d="M490.2,778c0-0.5,0.1-1,0.3-1.5c0.8-1.6,2.6-2.2,4.2-1.4"/>
	<path id="XMLID_86_" class="st8" d="M496,778c0-0.5,0.1-1,0.3-1.5c0.8-1.6,2.6-2.2,4.2-1.4"/>
	<path id="XMLID_81_" class="st8" d="M501.5,778c0-0.5,0.1-1,0.3-1.5c0.8-1.6,2.6-2.2,4.2-1.4"/>
	<path id="XMLID_58_" class="st9" d="M636.8,389h-13.7c-5,0-9-4-9-9v-78.2c0-5,4-9,9-9h13.7c5,0,9,4,9,9V380
		C645.8,384.9,641.8,389,636.8,389z"/>
	<path id="XMLID_3_" class="st10" d="M645.5,389h-13.7c-5,0-9-4-9-9v-78.2c0-5,4-9,9-9h13.7c5,0,9,4,9,9V380
		C654.5,384.9,650.5,389,645.5,389z"/>
	<path id="XMLID_63_" class="st5" d="M606.8,407.5v42.8c0,19.2-15.2,35.4-34.4,35.9c-19.8,0.5-36.1-15.5-36.1-35.2v-58.4
		c0-10.8-8.7-19.5-19.5-19.5h0c-10.8,0-19.5,8.7-19.5,19.5V451c0,41,33.2,74.2,74.2,74.2h0c41,0,74.2-33.2,74.2-74.2v-43.5H606.8z"
		/>
	<path id="XMLID_111_" class="st5" d="M606.8,407.5v42.8c0,19.2-15.2,35.4-34.4,35.9c-19.8,0.5-36.1-15.5-36.1-35.2v-58.4
		c0-10.8-8.7-19.5-19.5-19.5h0c-10.8,0-19.5,8.7-19.5,19.5V451c0,41,33.2,74.2,74.2,74.2h0c41,0,74.2-33.2,74.2-74.2v-43.5H606.8z"
		/>
	<path id="XMLID_128_" class="st11" d="M516.8,383.1c5.2,0,9.5,4.3,9.5,9.5V451c0,12.1,4.7,23.4,13.3,32s19.9,13.3,32,13.3
		c0,0,0,0,0,0c0.4,0,0.7,0,1.1,0c24.3-0.6,44.2-21.2,44.2-45.9v-32.8l7.3-10h-17.3v42.8c0,19.2-15.2,35.4-34.4,35.9
		c-19.8,0.5-36.1-15.5-36.1-35.2v-58.4c0-10.8-8.7-19.5-19.5-19.5h0c-2.8,0-5.5,0.6-8,1.7C512.8,379.8,515.7,383.1,516.8,383.1z"/>
	<rect id="XMLID_40_" x="456.6" y="551.1" class="st6" width="53.1" height="209.6"/>
	<rect id="XMLID_50_" x="456.6" y="749" class="st12" width="53.1" height="11.7"/>
	<rect id="XMLID_57_" x="421.9" y="551.1" class="st12" width="53.1" height="209.6"/>
	<rect id="XMLID_51_" x="435.5" y="749" class="st4" width="25.8" height="38.5"/>
	<rect id="XMLID_49_" x="421.9" y="749" class="st13" width="53.1" height="11.7"/>
	<path id="XMLID_21_" class="st12" d="M506.2,583.5H421c-10.2,0-18.5-8.3-18.5-18.5v-16h122.2v16
		C524.7,575.2,516.4,583.5,506.2,583.5z"/>
	<path id="XMLID_44_" class="st14" d="M437.1,536.9h-82.5c-19.8,0-34.5-24.8-30.2-51l10.9-66.9c4.4-26.8,21.9-46,42.2-46h33
		L437.1,536.9z"/>
	<path id="XMLID_47_" class="st12" d="M369.7,517L369.7,517c-14.6,0-26.1-12.4-25.1-26.9l1.8-24.7H393l1.8,24.7
		C395.8,504.6,384.3,517,369.7,517z"/>
	<rect id="XMLID_19_" x="402.5" y="527.4" class="st5" width="122.2" height="27.7"/>
	<path id="XMLID_18_" class="st15" d="M521.8,545.6H400.3c-1.6,0-2.9-1.3-2.9-2.9V398.9c0-14.3,11.6-25.8,25.8-25.8h83.9
		c9.7,0,17.5,7.9,17.5,17.5v152.1C524.7,544.3,523.4,545.6,521.8,545.6z"/>
	<path id="XMLID_4_" class="st5" d="M478.4,400.2h-22c-5.1,0-9.2-4.1-9.2-9.2v-17.8h46.4V385C493.6,393.4,486.8,400.2,478.4,400.2z"
		/>
	<path id="XMLID_22_" class="st12" d="M491.6,356.2l-23,2.6l0.6,14.4h22.4c18.2,0,33,14.8,33,33V530h0c9.4,0,17-7.6,17-17V406.2
		C541.6,378.6,519.3,356.2,491.6,356.2z"/>
	<path id="XMLID_98_" class="st16" d="M532.3,403.4c0-21.1-17.1-38.2-38.2-38.2h-17.2v-9h-7.7v17h22.4c18.2,0,33,14.8,33,33V530h0
		c2.8,0,5.4-0.7,7.7-1.8V403.4z"/>
	<path id="XMLID_17_" class="st4" d="M476.9,391.6h-19c-5.8,0-10.5-4.7-10.5-10.5V326h40v55.1C487.4,386.9,482.7,391.6,476.9,391.6z
		"/>
	<path id="XMLID_97_" class="st17" d="M460.9,328.2h26.5V326h-40v55.1c0,5.8,4.7,10.5,10.5,10.5h3.1V328.2z"/>
	<path id="XMLID_101_" class="st18" d="M447.4,354.9c7.5,1.3,20.4,1.9,34.1-4.1c2.2-1,4.1-2,5.9-3.2V326h-40V354.9z"/>
	<path id="XMLID_29_" class="st12" d="M419.2,358H403c-8.4,0-15.1,6.8-15.1,15.1v4.1l9-3.4c14.3,0,26,9.7,26,24v116.5
		c0,8.7,7,15.7,15.7,15.7h0c8.7,0,15.7-7,15.7-15.7V392.9C454.1,373.6,438.5,358,419.2,358z"/>
	<path id="XMLID_124_" class="st16" d="M432.8,397.8v131.1c-5.9-2.3-10-7.9-10-14.6v-98.9c5.5-5.5,9-13.1,9-21.4
		c0-2.8-0.4-5.5-1.1-8.1C432,389.5,432.8,393.6,432.8,397.8z"/>
	<circle id="XMLID_53_" class="st4" cx="625.7" cy="396.7" r="28"/>
	<path id="XMLID_121_" class="st17" d="M637.5,415.4c-17.6,0-31.9-14.3-31.9-31.9c0-2.5,0.3-4.9,0.8-7.2c-5.4,5.1-8.8,12.4-8.8,20.4
		c0,15.5,12.5,28,28,28c9.1,0,17.1-4.3,22.3-11C644.7,414.8,641.2,415.4,637.5,415.4z"/>
	<g>
		<path id="XMLID_52_" class="st5" d="M488.5,806H413v0c0-16.9,13.7-30.7,30.7-30.7h44.8V806z"/>
		<path id="XMLID_54_" class="st15" d="M463.7,806c0-20.4,16.6-37,37-37c20.4,0,37,16.6,37,37H463.7z"/>
		<path id="XMLID_56_" class="st6" d="M537.7,811.3H413c-1.5,0-2.7-1.2-2.7-2.7l0,0c0-1.5,1.2-2.7,2.7-2.7h124.7
			c1.5,0,2.7,1.2,2.7,2.7l0,0C540.3,810.1,539.1,811.3,537.7,811.3z"/>
		<ellipse id="XMLID_60_" class="st7" cx="511.7" cy="775.3" rx="8.3" ry="2.8"/>
		<path id="XMLID_62_" class="st8" d="M453.9,778c0-0.5,0.1-1,0.3-1.5c0.8-1.6,2.6-2.2,4.2-1.4"/>
		<path id="XMLID_66_" class="st8" d="M459.7,778c0-0.5,0.1-1,0.3-1.5c0.8-1.6,2.6-2.2,4.2-1.4"/>
		<path id="XMLID_73_" class="st8" d="M465.1,778c0-0.5,0.1-1,0.3-1.5c0.8-1.6,2.6-2.2,4.2-1.4"/>
	</g>
	<path id="XMLID_1_" class="st4" d="M479.5,339.5L479.5,339.5c-34.2,6.5-67.2-16.1-73.6-50.3l-20.4-108l151.3-28.5l15.2,80.6
		C561.4,282.6,528.9,330.2,479.5,339.5z"/>
	<path id="XMLID_117_" class="st17" d="M447.4,289.2l-20.4-108l111.2-21l-1.4-7.6l-151.3,28.5l20.4,108
		c6.5,34.2,39.4,56.7,73.6,50.3h0c3.2-0.6,6.4-1.4,9.4-2.3C468.2,330.1,451.8,312.3,447.4,289.2z"/>
	<path id="XMLID_116_" class="st19" d="M539.5,160.7l-5.5-31.6l-150,37.3c-4.7,1.2-7.6,5.7-6.7,10.5l18.9,100.4l24.8-4.7l-11.6-76.9
		L539.5,160.7z"/>
	<path id="XMLID_10_" class="st20" d="M482,158.3"/>
	<path id="XMLID_14_" class="st7" d="M485.8,284.9c-10.9,0-21.1-2-29.7-5.5c3.8,15.9,15.6,27.5,29.7,27.5s25.8-11.6,29.7-27.5
		C506.8,282.8,496.7,284.9,485.8,284.9z"/>
	<path id="XMLID_8_" class="st21" d="M454,241.9c-0.8-4.2,2-8.3,6.2-9c4.2-0.8,8.3,2,9,6.2"/>
	<line id="XMLID_11_" class="st22" x1="440.7" y1="228.1" x2="467" y2="215"/>
	<path id="XMLID_16_" class="st21" d="M516.4,227.2c-0.8-4.2-4.8-7-9-6.2c-4.2,0.8-7,4.8-6.2,9"/>
	<line id="XMLID_15_" class="st22" x1="523.3" y1="213.1" x2="494" y2="210.5"/>
	<path id="XMLID_13_" class="st19" d="M530.5,166.8c1.5,6.2,13,48.3,13,48.3h5l-10.7-56.8L530.5,166.8z"/>
	<circle id="XMLID_9_" class="st4" cx="398.3" cy="261.7" r="24.4"/>
	<circle id="XMLID_25_" class="st23" cx="401.7" cy="261.7" r="12.8"/>
	<path id="XMLID_64_" class="st24" d="M549.9,112.6c11.8,30.7-3.5,65.1-34.2,76.8c-30.7,11.8-65.1-3.5-76.8-34.2L549.9,112.6z"/>
	<path id="XMLID_38_" class="st24" d="M480.7,125.7c11.4,21.8,2.9,48.7-18.9,60.1c-21.8,11.4-48.7,2.9-60.1-18.9L480.7,125.7z"/>
	<path id="XMLID_129_" class="st16" d="M422.8,415.4v-17.6c0-14.3-11.6-24-26-24l-9,3.4v-4.1c0-2.4,0.6-4.7,1.6-6.8
		c3.7-1.7,7.8-2.6,12.2-2.6c5.6,0,10.8,1.5,15.3,4.2c6.6,3.9,11.6,10.3,13.7,17.8c0.7,2.6,1.1,5.3,1.1,8.1
		C431.8,402.3,428.3,409.9,422.8,415.4z"/>
	<circle id="XMLID_20_" class="st4" cx="435.4" cy="558.5" r="28.5"/>
	<g>
		<path id="XMLID_23_" class="st23" d="M469.4,567.2l-14.3-7c-3.8-1.9-5.4-6.5-3.5-10.3l3.4-6.9l21.2,10.4c3.8,1.9,5.4,6.5,3.5,10.3
			h0C477.9,567.6,473.3,569.1,469.4,567.2z"/>
		<path id="XMLID_41_" class="st23" d="M439.6,589.3l3.9-17.7c1-4.8,5.7-7.8,10.5-6.7l7.5,1.7c0.6,0.1,1,0.7,0.8,1.3l-5.5,25.2
			c-1,4.8-5.7,7.8-10.5,6.7h0C441.6,598.7,438.5,594,439.6,589.3z"/>
		<path id="XMLID_24_" class="st5" d="M446.8,563.3c8.8-9.4,7.5-24.3-2.8-32.1c-20.4-15.5-34.7-39.1-37.6-66.2
			c-2.4-21.7,2.7-42.5,13-59.9c4.3-7.2,4.2-16.5-0.6-23.4c-8.9-13-28.2-12.5-36.3,0.8c-14.9,24.7-22.3,54.2-19.4,85.1
			c3.8,40.3,24.7,75.3,54.9,98.2C426.9,572.5,439.3,571.3,446.8,563.3L446.8,563.3z"/>
	</g>
	<path id="XMLID_108_" class="st11" d="M419.5,405.1c2.7-4.5,3.6-9.7,2.8-14.7c-4.2,4.4-8.5,8.6-9.7,10.6
		c-11.7,19.6-16.6,42.1-14.1,64.9c3.1,28.2,17.9,54.4,40.7,71.7c2.4,1.8,9.6,9.8,13,15.2c1.6-7.8-1.3-16.3-8.2-21.6
		c-20.4-15.5-34.7-39.1-37.6-66.2C404.1,443.2,409.1,422.5,419.5,405.1z"/>
	<circle id="XMLID_43_" class="st5" cx="479.4" cy="437" r="9"/>
	<circle id="XMLID_102_" class="st5" cx="462.9" cy="463.8" r="4.5"/>
	<circle id="XMLID_103_" class="st5" cx="501.8" cy="449.2" r="4.5"/>
	<circle id="XMLID_105_" class="st5" cx="491.9" cy="468.3" r="4.5"/>
	
		<ellipse id="XMLID_46_" transform="matrix(0.9592 -0.2827 0.2827 0.9592 -52.1999 142.3179)" class="st25" cx="467" cy="252" rx="11.8" ry="4.8"/>
	
		<ellipse id="XMLID_114_" transform="matrix(0.9914 -0.1312 0.1312 0.9914 -27.012 69.5209)" class="st25" cx="513.9" cy="239.7" rx="11.8" ry="4.8"/>
	<circle id="XMLID_2_" class="st9" cx="639.1" cy="311.3" r="4.4"/>
</g>
</svg>
