<svg xmlns="http://www.w3.org/2000/svg" viewBox="0 0 1000 1000"><title>108-forget-password</title><rect width="1000" height="1000" style="fill:#fff"/><ellipse cx="365.193" cy="728.639" rx="154.013" ry="96.227" style="fill:#ff6242"/><ellipse cx="365.193" cy="728.639" rx="154.013" ry="96.227" style="fill:none;stroke:#070808;stroke-miterlimit:10;stroke-width:6px"/><path d="M352.827,567.386l-22.379,71.153a52.5,52.5,0,0,0,50.077,68.246h0a52.5,52.5,0,0,0,52.351-48.612l6.512-87.778Z" transform="translate(0)" style="fill:#ffda8f;stroke:#45413c;stroke-linecap:round;stroke-linejoin:round"/><path d="M330.448,638.539s45.713,18.015,74.032,2.39,37.108-43.943,37.108-43.943l-10.742-26.367-84.958-3.906Z" transform="translate(0)" style="fill:#ffbe3d"/><path d="M352.827,567.386l-22.379,71.153a52.5,52.5,0,0,0,50.077,68.246h0a52.5,52.5,0,0,0,52.351-48.612l6.512-87.778Z" transform="translate(0)" style="fill:none;stroke:#070808;stroke-miterlimit:10;stroke-width:6px"/><path d="M389.925,468.458a78.693,78.693,0,1,0-157.386,0c8.081,9.845,2.353,21.836,6.567,31.477a78.693,78.693,0,1,0,144.252,0A78.392,78.392,0,0,0,389.925,468.458Z" transform="translate(0)" style="fill:#724f3d"/><path d="M330.919,569.565c-43.461,0-74.7-15.542-73.86-59,1-51.945,44.455-40.755,44.455-51.95,0-18.22-6.793-58.638-4.743-89.895-38.739.937-76.517,13.4-85.453,44.681-5.406,18.92,11.731,44.38,24.575,58.1,3.393,12.726-15.363,13.3,3.213,28.427a78.683,78.683,0,0,0,134.214,79.8C362.156,585.809,344.525,569.565,330.919,569.565Z" transform="translate(0)" style="fill:#a86c4d"/><path d="M389.925,468.458c0-43.461-37.514-63.307-72.106-89.617-41.4-31.493-154.507,14.4-85.28,89.617,19.006,20.65-22.13,7.509,6.567,31.477a78.693,78.693,0,1,0,144.252,0A78.392,78.392,0,0,0,389.925,468.458Z" transform="translate(0)" style="fill:none;stroke:#070808;stroke-miterlimit:10;stroke-width:6px"/><path d="M299.7,408.038H495.484a0,0,0,0,1,0,0v109.14a97.892,97.892,0,0,1-97.892,97.892h0A97.892,97.892,0,0,1,299.7,517.178V408.038A0,0,0,0,1,299.7,408.038Z" style="fill:#ffda8f;stroke:#45413c;stroke-linecap:round;stroke-linejoin:round"/><path d="M316.6,456.045s25.479,11.245,72.5,5.837c43.844-5.043,79.958-23.92,79.958-23.92s25.154,15.509,25.154,24.519c10.94-3.861,16.088-57.273,16.088-57.273l-39.254-7.078S317.884,430.305,316.6,456.045Z" transform="translate(0)" style="fill:#ffbe3d"/><path d="M410.813,595.119c-80.982,9-108.082-72.207-108.082-72.207-.939,1.3-1.779,2.611-2.557,3.931a97.9,97.9,0,0,0,97.417,88.227h0a97.887,97.887,0,0,0,87.468-53.9l2.39-13.674S481.348,587.282,410.813,595.119Z" transform="translate(0)" style="fill:#ffbe3d"/><path d="M299.7,408.038H495.484a0,0,0,0,1,0,0v109.14a97.892,97.892,0,0,1-97.892,97.892h0A97.892,97.892,0,0,1,299.7,517.178V408.038A0,0,0,0,1,299.7,408.038Z" style="fill:none;stroke:#070808;stroke-miterlimit:10;stroke-width:6px"/><path d="M460.94,357.182s-15.8,29.978,2.277,57.676c6.026,9.232,29.147,10.364,31.594,33.35,2.951,27.718,52.813-54.327,3.511-87.325C488.98,354.631,464.048,326.88,460.94,357.182Z" transform="translate(0)" style="fill:#efdd5c"/><path d="M460.94,357.182s-15.8,29.978,2.277,57.676c6.026,9.232,29.147,10.364,31.594,33.35,2.951,27.718,52.813-54.327,3.511-87.325C488.98,354.631,464.048,326.88,460.94,357.182Z" transform="translate(0)" style="fill:#724f3d"/><path d="M460.94,357.182s-15.8,29.978,2.277,57.676c6.026,9.232,29.147,10.364,31.594,33.35,2.951,27.718,50.806-51.652,3.511-87.325C489.348,354.115,464.048,326.88,460.94,357.182Z" transform="translate(0)" style="fill:none;stroke:#070808;stroke-linecap:round;stroke-linejoin:round;stroke-width:6px"/><path d="M301.514,458.62c60.256-1.035,122.615-11.576,174.428-49.906,15.169-11.221,23.607-43.391,7.529-62.41-63.71-75.364-162.018-17.959-181.93,14.186C280.959,393.717,273.2,427.609,301.514,458.62Z" transform="translate(0)" style="fill:#a86c4d"/><path d="M488.245,353.71c-1.843,12.168-7.838,23.426-15.614,29.179C426.71,416.859,372.506,429,318.824,432.046A35.427,35.427,0,0,1,283.4,409.132c-.03-.081-.059-.162-.088-.243-10.1,11.222-9.274,35.124,18.2,49.731,60.256-1.035,122.615-11.576,174.428-49.906C489.28,398.847,497.406,372.787,488.245,353.71Z" transform="translate(0)" style="fill:#724f3d"/><path d="M299.684,457.477c4.571,4.473,129.772-5.129,176.258-48.763,13.758-12.913,23.607-43.391,7.529-62.41-63.71-75.364-162.018-17.959-181.93,14.186-6.528,10.538-12.869,22.215-16.8,34.268" transform="translate(0)" style="fill:none;stroke:#070808;stroke-linecap:round;stroke-linejoin:round;stroke-width:6px"/><path d="M481.911,470.308s-8.306-10.993-22.924-10.438" transform="translate(0)" style="fill:none;stroke:#070808;stroke-linecap:round;stroke-miterlimit:10;stroke-width:6px"/><ellipse cx="468.095" cy="484.39" rx="5.231" ry="9.231" transform="translate(-31.135 32.156) rotate(-3.808)" style="fill:#070808"/><polyline points="431.29 482.639 450.668 513.447 429.784 518.668" style="fill:none;stroke:#070808;stroke-linecap:round;stroke-linejoin:round;stroke-width:6px"/><path d="M365.874,481.7s7.917-11.276,22.545-11.233" transform="translate(0)" style="fill:none;stroke:#070808;stroke-linecap:round;stroke-miterlimit:10;stroke-width:6px"/><ellipse cx="386.128" cy="493.936" rx="5.231" ry="9.231" transform="translate(-90.355 86.466) rotate(-11.448)" style="fill:#070808"/><path d="M405.115,556.139s19.848-26.777,48.077-11.689" transform="translate(0)" style="fill:none;stroke:#070808;stroke-linecap:round;stroke-linejoin:round;stroke-width:6px"/><path d="M460.94,357.182s-6.727,35.62-60.392,38.494" transform="translate(0)" style="fill:none;stroke:#070808;stroke-linecap:round;stroke-linejoin:round;stroke-width:6px"/><path d="M314.173,511.687c-25.676,10.062-45.588-14.937-45.106-26.023,3.123-71.822,47.37-24.209,47.37-24.209" transform="translate(0)" style="fill:#ffda8f;stroke:#45413c;stroke-linecap:round;stroke-linejoin:round"/><path d="M314.173,511.687c-31.941,15.745-53.086-28.1-46.364-45.311,17.116-43.808,48.628-4.921,48.628-4.921" transform="translate(0)" style="fill:none;stroke:#070808;stroke-linecap:round;stroke-miterlimit:10;stroke-width:6px"/><rect x="593.245" y="174.179" width="274.247" height="211.69" rx="43.906" style="fill:#cfd5ec"/><rect x="607.249" y="157.702" width="274.247" height="211.69" rx="43.906" style="fill:#73e1ff"/><rect x="607.249" y="157.702" width="274.247" height="211.69" rx="43.906" style="fill:none;stroke:#070808;stroke-miterlimit:10;stroke-width:6px"/><circle cx="617.449" cy="418.222" r="23.449" style="fill:none;stroke:#070808;stroke-miterlimit:10;stroke-width:6px"/><circle cx="576.254" cy="461.524" r="14.491" style="fill:none;stroke:#070808;stroke-miterlimit:10;stroke-width:6px"/><rect x="651.217" y="283.054" width="179.601" height="50.157" rx="11.309" style="fill:#fff"/><path d="M674.2,322.121a11.31,11.31,0,0,1-11.309-11.31V283.273c0-.074.01-.146.011-.219h-.375a11.309,11.309,0,0,0-11.309,11.309V321.9a11.309,11.309,0,0,0,11.309,11.309H819.508a11.3,11.3,0,0,0,11.3-11.089Z" transform="translate(0)" style="fill:#e4e4e4"/><rect x="651.217" y="283.054" width="179.601" height="50.157" rx="11.309" style="fill:none;stroke:#070808;stroke-miterlimit:10;stroke-width:6px"/><circle cx="687.96" cy="306.595" r="8.352" style="fill:#070808"/><circle cx="714.923" cy="306.595" r="8.352" style="fill:#070808"/><circle cx="741.887" cy="306.595" r="8.352" style="fill:#070808"/><circle cx="768.85" cy="306.595" r="8.352" style="fill:#070808"/><circle cx="795.814" cy="306.595" r="8.352" style="fill:#070808"/><path d="M655.7,257.577s83.7-13.628,72.561-44.295c-9.356-25.765-33.007-6.855-32.185-.742,5.737,42.682,71.677,47.578,83.935,14.035,16.826-46.042-18.994-42.262-12.311-18.906s37.895-17.743,44.579,16.888" transform="translate(0)" style="fill:none;stroke:#070808;stroke-linecap:round;stroke-miterlimit:10;stroke-width:6px"/><path d="M723.98,503.4a11.852,11.852,0,0,1,2.1-6.644,21.672,21.672,0,0,1,4.549-5.1,28.6,28.6,0,0,0,4.548-4.549,8.352,8.352,0,0,0,2.1-5.221,5.134,5.134,0,0,0-1.9-4.272,8.347,8.347,0,0,0-5.3-1.5q-6.644,0-9.413,7.039l-9.334-5.379a18.529,18.529,0,0,1,7.554-9.057,21.589,21.589,0,0,1,11.589-3.2,19.508,19.508,0,0,1,12.458,4.152,13.764,13.764,0,0,1,5.261,11.43,13.934,13.934,0,0,1-1.385,6.17,18.85,18.85,0,0,1-3.323,4.866q-1.938,2.016-3.875,3.8a25.043,25.043,0,0,0-3.323,3.678,6.42,6.42,0,0,0-1.384,3.8Zm10.2,17.64a6.685,6.685,0,1,1,1.977-4.746A6.483,6.483,0,0,1,734.185,521.041Z" transform="translate(0)" style="fill:#ea7aaf"/><path d="M480,226.055a14.437,14.437,0,0,1,2.556-8.1,26.425,26.425,0,0,1,5.543-6.218,34.846,34.846,0,0,0,5.544-5.544,10.172,10.172,0,0,0,2.554-6.363,6.256,6.256,0,0,0-2.313-5.206,10.171,10.171,0,0,0-6.46-1.832q-8.1,0-11.473,8.581l-11.377-6.556a22.589,22.589,0,0,1,9.208-11.04,26.313,26.313,0,0,1,14.124-3.9,23.773,23.773,0,0,1,15.185,5.062Q509.5,190,509.5,198.867a16.994,16.994,0,0,1-1.687,7.52,23.009,23.009,0,0,1-4.049,5.929q-2.364,2.459-4.724,4.628a30.434,30.434,0,0,0-4.05,4.483,7.824,7.824,0,0,0-1.686,4.628Zm12.437,21.5a8.145,8.145,0,1,1,2.411-5.785A7.9,7.9,0,0,1,492.437,247.555Z" transform="translate(0)" style="fill:#ea7aaf"/><path d="M420.925,937.592a2.267,2.267,0,0,0,2.421-2.334,2.071,2.071,0,0,0-2.29-2.2,2.2,2.2,0,0,0-2.421,2.139v.064A2.277,2.277,0,0,0,420.925,937.592Z" transform="translate(0)" style="fill:#ff6242"/><path d="M476.412,941.87c-.13-.778,1.178-.908,1.047-1.556-.131-.907-.916-.907-1.439-.843-2.945.325-3.534,1.3-3.795,3.176a4.023,4.023,0,0,0,1.308,2.917,21.625,21.625,0,0,1-.523,4.407.925.925,0,0,0-.524.583,56.18,56.18,0,0,1-1.766,6.287,3.239,3.239,0,0,0-.655,1.232v.324c-.654,1.231-1.374,2.138-2.224,2.138-.393,0-.524-1.037-.524-2.4,0-2.4,1.243-9.073,1.243-10.5,0-1.88.328-3.5.328-5.056,0-.648-.459-.842-1.047-.842-.458,0-.72.324-1.178.324-1.9,0-2.16,1.037-2.16,2.592,0,.649,0,9.852-.13,11.018-.131,1.945-1.244,4.343-3.337,4.343-1.9,0-2.814-2.593-2.814-5.38a31.409,31.409,0,0,1,.785-6.8c.2-.648,1.047-3.629,1.047-4.018,0-.713-.065-.907-.851-.907-3.01.064-3.6.324-4.056,1.944a36.319,36.319,0,0,0-.982,8.037v.842c-.72,2.2-1.5,4.667-3.533,4.8-1.375.065-1.833-3.37-1.833-6.935,0-7.064,2.029-13.934,2.291-21,.065-.648-.393-1.1-1.178-1.1a9.691,9.691,0,0,1-1.832.065c-.785,0-1.113.324-1.178,1.1-.654,7.065-2.094,15.685-2.094,22.555v.129c-.72,2.269-1.5,5.185-3.664,5.315-1.374.065-1.832-3.37-1.832-6.935,0-7.065,2.028-13.935,2.29-21,.065-.648-.393-1.1-1.178-1.1-1.047,0-1.374-.065-1.9-.065-.785,0-1.112.324-1.177,1.1-.655,7.065-2.094,15.685-2.094,22.555v.129c-.72,2.269-1.5,5.185-3.664,5.315-1.375.065-1.833-3.37-1.833-6.935,0-7.065,2.029-13.935,2.291-21,.065-.648-.393-1.1-1.178-1.1-1.113,0-1.44-.065-1.963-.065-.785,0-1.113.324-1.178,1.1-.654,7.065-2.094,15.685-2.094,22.555v1.037c-.654,2.268-1.636,4.731-2.879,4.731-.589-.065-1.047-.907-1.047-2.852,0-3.564.327-8.49.654-12.249.066-.454-.13-.908-.654-.908-.458-.064-1.9-.194-2.421-.194-.785,0-1.112.454-1.112,1.3v1.3c.065,4.343-.393,7.778-.393,11.861,0,2.917,1.57,4.926,3.533,4.926,2.094,0,3.73-1.75,4.843-3.824.588,2.2,1.7,4.148,3.926,4.148,2.093,0,4.122-2.269,5.5-4.8.523,2.463,1.636,4.8,4.057,4.8,2.094,0,4.122-2.269,5.5-4.8.524,2.463,1.636,4.8,4.057,4.8,2.029,0,4.057-2.2,5.431-4.6.72,2.917,2.356,5.12,5.431,5.12,2.552,0,3.272-1.037,4.908-3.37.523,1.3.719,3.759,2.224,3.759,2.094,0,3.861-2.4,5.039-5.12a8.291,8.291,0,0,0,6.543,3.629c3.533,0,6.543-2.527,6.282-6.351C484.722,950.36,477,944.786,476.412,941.87Zm.916,17.434c-1.046,0-2.682-.648-2.748-2.009-.065-.778,1.767-1.167,2.421-1.556.524-.324.655-.583.655-.777-.066-.454-.72-.778-1.44-.778a4.5,4.5,0,0,0-2.421.842c.2-.907,1.57-5.573,1.9-7.842a14.918,14.918,0,0,1,5.169,9.333C481.058,959.045,478.179,959.3,477.328,959.3Z" transform="translate(0)" style="fill:#ff6242"/><path d="M535.957,937.592a2.267,2.267,0,0,0,2.421-2.334,2.071,2.071,0,0,0-2.29-2.2,2.2,2.2,0,0,0-2.421,2.139v.064A2.277,2.277,0,0,0,535.957,937.592Z" transform="translate(0)" style="fill:#ff6242"/><path d="M573.777,963.128c-1.178-.778-2.028-2.009-1.832-7.065.131-3.24.785-7.712.785-10.888,0-1.426-.654-3.046-2.486-3.046-2.29,0-5.628,4.666-6.675,6.74.131-1.231.524-4.861.589-6.092s.066-1.3-2.094-1.3c-1.439,0-1.569.259-1.569.777,0,2.982-.263,6.417-.524,9.852-.786,1.685-1.833,3.37-3.338,3.37a3.006,3.006,0,0,1-1.308-.324,9.938,9.938,0,0,0,1.113-4.342,3.117,3.117,0,0,0-3.141-3.241,3.709,3.709,0,0,0-3.861,4.018c0,1.815,1.9,3.889,3.337,4.861a4.97,4.97,0,0,1-4.515,2.722c-2.813,0-3.8-5.12-3.8-7,0-3.63,1.309-7.713,5.627-7.713,2.945,0,2.945,1.944,4.188,1.944.131,0,.524-.194.524-.388,0-2.139-3.4-3.889-5.17-3.889-6.02,0-10.207,4.731-10.207,10.629a11.3,11.3,0,0,0,.589,3.565c-.589,1.49-1.309,2.657-2.225,2.657-.589,0-1.047-.843-1.047-2.787,0-3.565.327-8.49.654-12.249.066-.454-.131-.908-.654-.908-.458-.065-1.9-.194-2.421-.194-.785,0-1.113.453-1.113,1.3v1.3c0,2.269-.13,4.213-.2,6.157a1.432,1.432,0,0,0-.2.324c-.72,1.945-1.636,7.324-3.8,7.324-.655,0-2.029-.907-2.029-3.435,0-4.083,1.374-12.249,1.571-13.675,2.093-.454,3.926-.324,6.412-1.037,1.113-.324.458-1.62-.785-1.491a34.906,34.906,0,0,1-5.431,0c.065-2.139.589-3.5.589-5.7v-.2c0-.583-.262-1.037-.851-1.037-1.178,0-3.01.389-3.01,2.009,0,1.686-.326,3.176-.262,4.861-1.177.065-2.224-.259-3.4-.259-.85,0-1.047,1.556-1.047,2.139,0,.648.066,1.1.458,1.1a30.272,30.272,0,0,0,3.73-.324c-.327,4.277-.85,6.675-1.178,9.657,0,.194-.066.453-.066.713-.719,2.268-2.093,5.768-3.205,5.768A1.464,1.464,0,0,1,519.4,957.1,42.575,42.575,0,0,1,520.58,946.8a11.062,11.062,0,0,0,.654-2.527c0-.843-1.374-1.3-2.093-1.3-1.178,0-1.113.648-1.571,1.685-.851-.648-1.047-1.814-3.337-1.814-4.188,0-6.74,6.74-6.74,10.953,0,.713-.065,1.1-.065,1.491,0,2.4-1.374,5.379-2.814,5.379-1.243,0-1.636-3.37-1.636-4.8a31.6,31.6,0,0,1,1.7-8.426,6.148,6.148,0,0,0,.916-2.268c0-.907-1.047-2.4-2.094-2.4-1.178,0-1.9.648-3.141.648-1.963,0-3.272-1.231-4.384-1.231a1.026,1.026,0,0,0-1.113,1.1c0,1.75,1.9,1.426,1.44,3.63-.458,2.074-1.832,7.713-2.617,9.851a.48.48,0,0,0-.066.324,1.892,1.892,0,0,0,.132.649c-.459.777-.982,1.3-1.637,1.3s-2.028-.908-2.028-3.435c0-4.083,1.374-12.25,1.571-13.676,2.094-.453,3.925-.324,6.412-1.037,1.112-.324.458-1.62-.786-1.49a35.035,35.035,0,0,1-5.431,0c.066-2.139.589-3.5.589-5.7,0-.583-.261-1.037-.85-1.037-1.178,0-3.01.389-3.01,2.009,0,1.686-.327,3.176-.262,4.861-1.177.065-2.224-.259-3.4-.259-.851,0-1.047,1.556-1.047,2.139,0,.648.065,1.1.458,1.1a30.272,30.272,0,0,0,3.73-.324c-.327,4.277-.851,6.675-1.178,9.657a53.122,53.122,0,0,0-.458,5.573c0,2.787,2.42,5.056,4.449,5.056,3.6,0,6.543-7.259,6.543-10.24v-.389c.393-1.75.655-3.5.982-4.991.065-.194.262-.778.785-.778,1.178,0,1.309.843,1.309,1.75,0,2.4-.851,6.676-.851,9.2,0,2.462.654,5.509,3.534,5.509a6.357,6.357,0,0,0,5.5-3.63c.785,1.88,2.094,3.37,3.926,3.37,1.767,0,3.272-1.3,4.319-2.527.262.648.654,2.4,2.552,2.4,1.766,0,3.141-1.491,4.188-3.371a4.919,4.919,0,0,0,4.252,3.76c2.029,0,3.926-2.4,5.1-4.991.131,2.722,1.636,4.537,3.534,4.537,1.963,0,3.6-1.556,4.711-3.5a6.643,6.643,0,0,0,5.758,3.37c3.6,0,5.758-2.333,7.655-5.12a9.921,9.921,0,0,0,1.833.324,4.887,4.887,0,0,0,3.468-2.009c-.131,2.074-.262,4.083-.262,5.9,0,.648.131.907.589,1.037a5.742,5.742,0,0,0,1.832.065c.654,0,.785.065.916-.778.065-.583.458-7.518.458-8.037,0-1.426,3.468-7.453,5.169-7.453.328,0,.589.583.589.972,0,3.111-.981,8.166-.981,11.407,0,3.435,1.7,4.6,2.421,4.991a6.445,6.445,0,0,0,2.813.713C573.777,963.776,574.235,963.387,573.777,963.128Zm-57.45-6.611c-.066.907-1.7,3.241-2.945,3.241-1.374,0-1.963-3.889-1.9-6.481.065-3.047,1.57-8.491,3.01-8.491,1.9,0,2.159,4.537,2.159,5.963C516.654,952.369,516.458,954.9,516.327,956.517Zm37.559-2.139a4.186,4.186,0,0,1-1.374-3.111c0-.583.2-1.879,1.047-1.879.785,0,1.046,1.426,1.046,2.009A11.079,11.079,0,0,1,553.886,954.378Z" transform="translate(0)" style="fill:#ff6242"/><path d="M588.826,955.48c-.327-5.12-8.114-10.694-8.637-13.611-.13-.777,1.178-.907,1.047-1.555-.13-.907-.916-.907-1.44-.843-2.944.324-3.533,1.3-3.794,3.176a4.027,4.027,0,0,0,1.308,2.917c.066,2.268-1.177,8.555-2.617,11.018a5.056,5.056,0,0,0-.851,1.491c-.131.777.458,1.166.982.648.458-.389.392-.648.85-.973,1.047,2.4,4.319,4.084,6.806,4.084C586.079,961.832,589.023,959.3,588.826,955.48Zm-7.72,3.824c-1.047,0-2.683-.648-2.749-2.009-.065-.778,1.767-1.167,2.421-1.556.523-.324.655-.583.655-.777-.066-.454-.721-.778-1.44-.778a4.5,4.5,0,0,0-2.421.842c.2-.907,1.571-5.574,1.9-7.842a14.907,14.907,0,0,1,5.168,9.333C584.835,959.045,581.956,959.3,581.106,959.3Z" transform="translate(0)" style="fill:#ff6242"/><path d="M63.2,959.2c0,2.5-1.2,3.7-2.6,3.7a1.928,1.928,0,0,1-2.1-1.4,2.2,2.2,0,0,1-1.8.8,2.808,2.808,0,0,1,0-5.6,2.175,2.175,0,0,1,1.6.7v-.5h1.6v3.9c0,.8.3,1.4,1,1.4.9,0,1.7-.9,1.7-3a5.233,5.233,0,0,0-5.4-5.3,5.552,5.552,0,0,0-5.6,5.7,5.624,5.624,0,0,0,5.9,5.7,11.935,11.935,0,0,0,2.9-.4v.6a8.119,8.119,0,0,1-2.9.4,6.2,6.2,0,1,1-.3-12.4A5.593,5.593,0,0,1,63.2,959.2Zm-4.9.3a1.347,1.347,0,0,0-1.3-1.4,1.238,1.238,0,0,0-1.3,1.4,1.261,1.261,0,0,0,1.3,1.3C57.8,960.9,58.3,960.3,58.3,959.5Z" transform="translate(0)" style="fill:#ff6242"/><path d="M69.4,955.1v2a2.244,2.244,0,0,0-2.6,2.4v4.3H64.9v-8.6h1.9v1.4A2.632,2.632,0,0,1,69.4,955.1Z" transform="translate(0)" style="fill:#ff6242"/><path d="M74.6,962.3a2.641,2.641,0,0,0,2.2-1.1l1.5.9a4.346,4.346,0,0,1-3.8,1.9,4.414,4.414,0,0,1-4.7-4.5,4.36,4.36,0,0,1,4.5-4.5,4.313,4.313,0,0,1,4.3,4.5,2.2,2.2,0,0,1-.1.8H71.7A2.832,2.832,0,0,0,74.6,962.3Zm2.3-3.5a2.375,2.375,0,0,0-2.5-2.1,2.506,2.506,0,0,0-2.6,2.1Z" transform="translate(0)" style="fill:#ff6242"/><path d="M88.9,955.2v8.6H87v-1.2a3.692,3.692,0,0,1-3,1.5,4.443,4.443,0,0,1-4.3-4.5,4.317,4.317,0,0,1,4.3-4.5,3.613,3.613,0,0,1,3,1.4v-1.2h1.9Zm-1.8,4.3a2.7,2.7,0,1,0-2.7,2.7A2.571,2.571,0,0,0,87.1,959.5Z" transform="translate(0)" style="fill:#ff6242"/><path d="M91.1,951.3H93v12.5H91.1Z" transform="translate(0)" style="fill:#ff6242"/><path d="M102.9,955.2l-3.3,8.6H97.5l-3.3-8.6h2l2.4,6.5,2.4-6.5Z" transform="translate(0)" style="fill:#ff6242"/><path d="M104.2,955.2h1.9v8.9c0,2.4-1.2,3.5-3.5,3.3v-1.8c1.1.1,1.7-.3,1.7-1.5v-8.9Zm-.2-2.4a1.2,1.2,0,0,1,2.4,0,1.2,1.2,0,1,1-2.4,0Z" transform="translate(0)" style="fill:#ff6242"/><path d="M116,955.2l-3.3,8.8c-.8,2.2-2.2,3.3-4.2,3.2v-1.7a2.076,2.076,0,0,0,2.3-1.7l.1-.2-3.6-8.4h2l2.6,6.2,2.2-6.2Z" transform="translate(0)" style="fill:#ff6242"/><path d="M58.9,938.7a3.633,3.633,0,0,1-3.6,3.8h-3v-7.6h3A3.633,3.633,0,0,1,58.9,938.7Zm-1,0a2.722,2.722,0,0,0-2.6-2.9h-2v5.7h2A2.577,2.577,0,0,0,57.9,938.7Z" transform="translate(0)" style="fill:#ff6242"/><path d="M67,941.6v1H62.4V935h4.5v1H63.4v2.3h3.2v.9H63.4v2.4Z" transform="translate(0)" style="fill:#ff6242"/><path d="M70,940.8l.9-.5a1.987,1.987,0,0,0,2,1.4c1.1,0,1.6-.5,1.6-1.2,0-.8-.7-1-1.8-1.4-1.2-.4-2.4-.8-2.4-2.2a2.208,2.208,0,0,1,2.4-2.2,2.664,2.664,0,0,1,2.6,1.7l-.8.5a1.743,1.743,0,0,0-1.7-1.2c-.8,0-1.4.4-1.4,1.1s.5,1,1.6,1.3c1.3.4,2.6.8,2.6,2.3a2.333,2.333,0,0,1-2.6,2.2A2.847,2.847,0,0,1,70,940.8Z" transform="translate(0)" style="fill:#ff6242"/><path d="M80,934.9v7.6H79v-7.6Z" transform="translate(0)" style="fill:#ff6242"/><path d="M91.3,939.2a3.47,3.47,0,0,1-3.7,3.5,3.888,3.888,0,0,1-4-4,3.974,3.974,0,0,1,7.3-2.2l-.9.5a2.775,2.775,0,0,0-2.4-1.4,3,3,0,0,0,0,6,2.5,2.5,0,0,0,2.7-2H87.5v-.9h3.8Z" transform="translate(0)" style="fill:#ff6242"/><path d="M100.6,934.9v7.6h-.8l-3.9-5.7v5.7h-1v-7.6h.8l3.9,5.7v-5.7Z" transform="translate(0)" style="fill:#ff6242"/><path d="M109.1,941.6v1h-4.6V935H109v1h-3.5v2.3h3.2v.9h-3.2v2.4Z" transform="translate(0)" style="fill:#ff6242"/><path d="M119.2,938.7a3.633,3.633,0,0,1-3.6,3.8h-3v-7.6h3A3.7,3.7,0,0,1,119.2,938.7Zm-1,0a2.722,2.722,0,0,0-2.6-2.9h-2v5.7h2A2.577,2.577,0,0,0,118.2,938.7Z" transform="translate(0)" style="fill:#ff6242"/><path d="M133.2,940.4a2.22,2.22,0,0,1-2.2,2.2h-3.3V935h3a2.051,2.051,0,0,1,2.1,2.1,1.943,1.943,0,0,1-.8,1.6A1.658,1.658,0,0,1,133.2,940.4Zm-4.5-4.6v2.3h2a1.135,1.135,0,0,0,1.1-1.2,1.2,1.2,0,0,0-1.1-1.2h-2Zm3.5,4.5a1.155,1.155,0,0,0-1.2-1.2h-2.3v2.5H131A1.24,1.24,0,0,0,132.2,940.3Z" transform="translate(0)" style="fill:#ff6242"/><path d="M139.4,939.4v3.1h-1v-3.1l-2.7-4.5h1.1l2.1,3.6,2.1-3.6h1.1Z" transform="translate(0)" style="fill:#ff6242"/><path d="M210.957,934.972v7.7h-.825l-3.96-5.754v5.754h-1.024v-7.7h.826l3.96,5.743v-5.743Z" transform="translate(0)" style="fill:#ff6242"/><path d="M219.405,941.705v.968h-4.6v-7.7h4.544v.967H215.83v2.367h3.245v.957H215.83v2.442Z" transform="translate(0)" style="fill:#ff6242"/><path d="M222.286,934.972h1.078l1.76,6.337,1.87-6.337h1.034l1.87,6.337,1.761-6.337h1.078l-2.211,7.7h-1.188l-1.826-6.15-1.826,6.15H224.5Z" transform="translate(0)" style="fill:#ff6242"/><path d="M243.22,934.972v7.7h-1.013v-6.6l-1.639.484-.253-.88,2.025-.7Z" transform="translate(0)" style="fill:#ff6242"/><path d="M246.772,938.822c0-2.376,1.068-3.993,2.971-3.993s2.97,1.617,2.97,3.993-1.056,3.993-2.97,3.993S246.772,941.2,246.772,938.822Zm4.929,0c0-1.914-.715-3-1.958-3s-1.947,1.089-1.947,3,.7,2.992,1.947,2.992S251.7,940.736,251.7,938.822Z" transform="translate(0)" style="fill:#ff6242"/><path d="M261.1,940.561c0,1.441-1.133,2.254-2.64,2.254s-2.63-.813-2.63-2.254a2.056,2.056,0,0,1,1.2-1.871,1.933,1.933,0,0,1-.946-1.683,2.392,2.392,0,0,1,4.764,0,1.931,1.931,0,0,1-.946,1.683A2.056,2.056,0,0,1,261.1,940.561Zm-1.012-.067c0-.88-.683-1.331-1.628-1.331s-1.617.451-1.617,1.331.682,1.343,1.617,1.343S260.083,941.386,260.083,940.494Zm-2.992-3.465a1.371,1.371,0,0,0,2.728,0,1.372,1.372,0,0,0-2.728,0Z" transform="translate(0)" style="fill:#ff6242"/><path d="M208.432,954.654v.089h1.881v2.2h-1.881v6.679H206.14v-6.679h-1.279v-2.2h1.279v-.089c0-2.451,1.35-3.889,4.173-3.712v2.2C209.124,953.056,208.432,953.447,208.432,954.654Z" transform="translate(0)" style="fill:#ff6242"/><path d="M210.561,959.184a4.7,4.7,0,1,1,4.689,4.689A4.64,4.64,0,0,1,210.561,959.184Zm7.1,0a2.407,2.407,0,1,0-2.415,2.451A2.362,2.362,0,0,0,217.665,959.184Z" transform="translate(0)" style="fill:#ff6242"/><path d="M226.56,954.565v2.558a2.217,2.217,0,0,0-2.7,2.256v4.245h-2.291v-8.881h2.291v1.528A2.735,2.735,0,0,1,226.56,954.565Z" transform="translate(0)" style="fill:#ff6242"/><path d="M236.591,954.743V963.2c0,2.913-2.291,4.228-4.635,4.228a4.5,4.5,0,0,1-4.21-2.167l1.954-1.119a2.307,2.307,0,0,0,2.326,1.244,2.068,2.068,0,0,0,2.328-2.186v-.959a3.4,3.4,0,0,1-2.842,1.351,4.549,4.549,0,0,1,0-9.094,3.4,3.4,0,0,1,2.842,1.35v-1.1Zm-2.237,4.3a2.488,2.488,0,1,0-2.487,2.433A2.371,2.371,0,0,0,234.354,959.042Z" transform="translate(0)" style="fill:#ff6242"/><path d="M243.105,961.8a2.461,2.461,0,0,0,1.99-.889l1.846,1.067a4.492,4.492,0,0,1-3.871,1.9,4.691,4.691,0,1,1-.177-9.378,4.49,4.49,0,0,1,4.493,4.689,5.227,5.227,0,0,1-.089.941h-6.7A2.332,2.332,0,0,0,243.105,961.8Zm1.99-3.446a2.154,2.154,0,0,0-2.2-1.794,2.216,2.216,0,0,0-2.328,1.794Z" transform="translate(0)" style="fill:#ff6242"/><path d="M251.786,956.945v3.7c0,.959.693.976,2.008.905v2.078c-3.215.355-4.3-.586-4.3-2.983v-3.7H247.95v-2.2H249.5v-1.794l2.291-.692v2.486h2.008v2.2Z" transform="translate(0)" style="fill:#ff6242"/><path d="M255.461,957.159h6.661v2.2h-6.661Z" transform="translate(0)" style="fill:#ff6242"/><path d="M273.822,959.184a4.5,4.5,0,0,1-4.333,4.689,3.449,3.449,0,0,1-2.878-1.3v4.6H264.32V954.743h2.291v1.048a3.454,3.454,0,0,1,2.878-1.3A4.494,4.494,0,0,1,273.822,959.184Zm-2.291,0a2.46,2.46,0,1,0-2.469,2.5A2.387,2.387,0,0,0,271.531,959.184Z" transform="translate(0)" style="fill:#ff6242"/><path d="M284.476,954.743v8.881h-2.292v-1.048a3.536,3.536,0,0,1-2.9,1.3,4.705,4.705,0,0,1,0-9.378,3.536,3.536,0,0,1,2.9,1.3v-1.048Zm-2.292,4.441a2.46,2.46,0,1,0-2.469,2.5A2.387,2.387,0,0,0,282.184,959.184Z" transform="translate(0)" style="fill:#ff6242"/><path d="M293.174,961.031c0,1.918-1.67,2.842-3.57,2.842a3.818,3.818,0,0,1-3.73-2.114l1.989-1.118A1.693,1.693,0,0,0,289.6,961.8c.728,0,1.225-.249,1.225-.764,0-1.3-4.582-.587-4.582-3.713,0-1.811,1.545-2.823,3.374-2.823A3.74,3.74,0,0,1,293,956.377l-1.954,1.066a1.5,1.5,0,0,0-1.421-.906c-.568,0-1.03.249-1.03.729C288.591,958.58,293.174,957.763,293.174,961.031Z" transform="translate(0)" style="fill:#ff6242"/><path d="M300.879,961.031c0,1.918-1.67,2.842-3.57,2.842a3.818,3.818,0,0,1-3.73-2.114l1.989-1.118a1.693,1.693,0,0,0,1.741,1.154c.728,0,1.225-.249,1.225-.764,0-1.3-4.582-.587-4.582-3.713,0-1.811,1.545-2.823,3.374-2.823a3.74,3.74,0,0,1,3.375,1.882l-1.954,1.066a1.5,1.5,0,0,0-1.421-.906c-.568,0-1.03.249-1.03.729C296.3,958.58,300.879,957.763,300.879,961.031Z" transform="translate(0)" style="fill:#ff6242"/><path d="M314.517,954.743l-2.825,8.881h-2.184l-1.634-5.382-1.634,5.382h-2.184l-2.825-8.881h2.434l1.51,5.453,1.616-5.453h2.167l1.616,5.471,1.51-5.471Z" transform="translate(0)" style="fill:#ff6242"/><path d="M314.938,959.184a4.7,4.7,0,1,1,4.689,4.689A4.64,4.64,0,0,1,314.938,959.184Zm7.1,0a2.407,2.407,0,1,0-2.415,2.451A2.362,2.362,0,0,0,322.042,959.184Z" transform="translate(0)" style="fill:#ff6242"/><path d="M330.937,954.565v2.558a2.217,2.217,0,0,0-2.7,2.256v4.245h-2.291v-8.881h2.291v1.528A2.735,2.735,0,0,1,330.937,954.565Z" transform="translate(0)" style="fill:#ff6242"/><path d="M340.951,951.191v12.433H338.66v-1.048a3.447,3.447,0,0,1-2.877,1.3,4.7,4.7,0,0,1,0-9.378,3.452,3.452,0,0,1,2.877,1.3v-4.6Zm-2.291,7.993a2.46,2.46,0,1,0-2.451,2.5A2.383,2.383,0,0,0,338.66,959.184Z" transform="translate(0)" style="fill:#ff6242"/><path d="M848.133,938.45a3.648,3.648,0,0,1-3.617,3.813h-2.973v-7.626h2.973A3.648,3.648,0,0,1,848.133,938.45Zm-.969,0a2.669,2.669,0,0,0-2.648-2.855h-1.961V941.3h1.961A2.669,2.669,0,0,0,847.164,938.45Z" transform="translate(0)" style="fill:#ff6242"/><path d="M851.254,938.45a3.949,3.949,0,1,1,3.943,3.955A3.917,3.917,0,0,1,851.254,938.45Zm6.887,0a2.943,2.943,0,1,0-2.944,2.964A2.911,2.911,0,0,0,858.141,938.45Z" transform="translate(0)" style="fill:#ff6242"/><path d="M861.783,934.637h1.069l1.742,6.276,1.853-6.276h1.024l1.851,6.276,1.744-6.276h1.067l-2.19,7.626h-1.175l-1.809-6.09-1.809,6.09h-1.177Z" transform="translate(0)" style="fill:#ff6242"/><path d="M881.27,934.637v7.626h-.819l-3.922-5.7v5.7h-1.011v-7.626h.816l3.922,5.687v-5.687Z" transform="translate(0)" style="fill:#ff6242"/><path d="M889.5,941.3v.959h-4.3v-7.626h1.014V941.3Z" transform="translate(0)" style="fill:#ff6242"/><path d="M891.877,938.45a3.949,3.949,0,1,1,3.943,3.955A3.917,3.917,0,0,1,891.877,938.45Zm6.887,0a2.943,2.943,0,1,0-2.944,2.964A2.911,2.911,0,0,0,898.764,938.45Z" transform="translate(0)" style="fill:#ff6242"/><path d="M907.418,940.552h-3.432l-.621,1.711h-1.078l2.844-7.626h1.142l2.844,7.626h-1.078Zm-.348-.947-1.373-3.759-1.361,3.759Z" transform="translate(0)" style="fill:#ff6242"/><path d="M918.906,938.45a3.647,3.647,0,0,1-3.617,3.813h-2.975v-7.626h2.975A3.647,3.647,0,0,1,918.906,938.45Zm-.97,0a2.67,2.67,0,0,0-2.647-2.855h-1.961V941.3h1.961A2.669,2.669,0,0,0,917.936,938.45Z" transform="translate(0)" style="fill:#ff6242"/><path d="M928.457,935.6v2.474h3.236v.959h-3.236v3.235h-1.014v-7.626h4.391v.958Z" transform="translate(0)" style="fill:#ff6242"/><path d="M938.168,939.343h-1.8v2.92h-1.012v-7.626h3.049a2.353,2.353,0,0,1,.8,4.575l1.8,3.051h-1.121Zm-1.8-.915h2.037a1.423,1.423,0,0,0,0-2.843h-2.037Z" transform="translate(0)" style="fill:#ff6242"/><path d="M943.869,938.45a3.95,3.95,0,1,1,3.943,3.955A3.918,3.918,0,0,1,943.869,938.45Zm6.887,0a2.943,2.943,0,1,0-2.944,2.964A2.911,2.911,0,0,0,950.756,938.45Z" transform="translate(0)" style="fill:#ff6242"/><path d="M962.418,942.263h-1V936.3l-2.5,4.151h-.131l-2.494-4.14v5.948h-1.014v-7.626h1.145l2.429,4.031,2.418-4.031h1.145Z" transform="translate(0)" style="fill:#ff6242"/><path d="M841.318,952.65a1.221,1.221,0,1,1,1.221,1.222A1.224,1.224,0,0,1,841.318,952.65Zm.266,2.549H843.5v8.85h-1.911Z" transform="translate(0)" style="fill:#ff6242"/><path d="M845.709,951.128h1.912v12.921h-1.912Z" transform="translate(0)" style="fill:#ff6242"/><path d="M849.834,951.128h1.912v12.921h-1.912Z" transform="translate(0)" style="fill:#ff6242"/><path d="M853.96,951.128h1.911v12.921H853.96Z" transform="translate(0)" style="fill:#ff6242"/><path d="M865.963,955.2v8.85h-1.912v-1.132a3.048,3.048,0,0,1-2.744,1.363,3.305,3.305,0,0,1-3.4-3.647V955.2h1.912v5.24a1.845,1.845,0,0,0,1.983,2.053c1.257,0,2.248-.743,2.248-2.549V955.2Z" transform="translate(0)" style="fill:#ff6242"/><path d="M874.621,961.553c0,1.771-1.539,2.727-3.451,2.727a3.694,3.694,0,0,1-3.611-2.071l1.646-.956a1.945,1.945,0,0,0,1.965,1.274c.85,0,1.5-.283,1.5-.991,0-1.575-4.761-.691-4.761-3.859,0-1.664,1.434-2.708,3.238-2.708a3.566,3.566,0,0,1,3.276,1.841l-1.612.9a1.723,1.723,0,0,0-1.664-1.008c-.689,0-1.292.3-1.292.938C869.86,959.253,874.621,958.279,874.621,961.553Z" transform="translate(0)" style="fill:#ff6242"/><path d="M878.7,957.041v4.248c0,1.132.744,1.114,2.2,1.044v1.716c-2.938.355-4.106-.46-4.106-2.76v-4.248h-1.629V955.2h1.629v-1.911l1.91-.567V955.2h2.2v1.842Z" transform="translate(0)" style="fill:#ff6242"/><path d="M887.354,955.04v2.071a2.337,2.337,0,0,0-2.725,2.478v4.46h-1.912V955.2h1.912v1.487A2.782,2.782,0,0,1,887.354,955.04Z" transform="translate(0)" style="fill:#ff6242"/><path d="M897.286,955.2v8.85h-1.911v-1.274a3.639,3.639,0,0,1-3.1,1.5,4.662,4.662,0,0,1,0-9.311,3.672,3.672,0,0,1,3.1,1.487V955.2Zm-1.911,4.426a2.8,2.8,0,1,0-2.8,2.832A2.735,2.735,0,0,0,895.375,959.625Z" transform="translate(0)" style="fill:#ff6242"/><path d="M902.264,957.041v4.248c0,1.132.744,1.114,2.195,1.044v1.716c-2.938.355-4.1-.46-4.1-2.76v-4.248h-1.629V955.2h1.629v-1.911l1.91-.567V955.2h2.195v1.842Z" transform="translate(0)" style="fill:#ff6242"/><path d="M905.931,952.65a1.221,1.221,0,0,1,2.442,0,1.221,1.221,0,1,1-2.442,0Zm.265,2.549h1.911v8.85H906.2Z" transform="translate(0)" style="fill:#ff6242"/><path d="M909.826,959.625a4.673,4.673,0,1,1,4.674,4.655A4.621,4.621,0,0,1,909.826,959.625Zm7.435,0a2.762,2.762,0,1,0-2.761,2.8A2.718,2.718,0,0,0,917.261,959.625Z" transform="translate(0)" style="fill:#ff6242"/><path d="M928.965,958.616v5.433h-1.912V958.81a1.845,1.845,0,0,0-1.983-2.053c-1.257,0-2.248.744-2.248,2.549v4.743H920.91V955.2h1.912v1.133a3.047,3.047,0,0,1,2.744-1.363A3.3,3.3,0,0,1,928.965,958.616Z" transform="translate(0)" style="fill:#ff6242"/><path d="M937.5,961.553c0,1.771-1.541,2.727-3.451,2.727a3.692,3.692,0,0,1-3.611-2.071l1.646-.956a1.943,1.943,0,0,0,1.965,1.274c.849,0,1.5-.283,1.5-.991,0-1.575-4.762-.691-4.762-3.859,0-1.664,1.434-2.708,3.239-2.708a3.563,3.563,0,0,1,3.275,1.841l-1.611.9a1.725,1.725,0,0,0-1.664-1.008c-.69,0-1.292.3-1.292.938C932.738,959.253,937.5,958.279,937.5,961.553Z" transform="translate(0)" style="fill:#ff6242"/><path d="M938.83,962.934a1.328,1.328,0,0,1,2.656,0,1.328,1.328,0,0,1-2.656,0Z" transform="translate(0)" style="fill:#ff6242"/><path d="M942.319,959.625a4.567,4.567,0,0,1,4.673-4.656,4.373,4.373,0,0,1,3.947,2.284l-1.646.956a2.473,2.473,0,0,0-2.318-1.364,2.779,2.779,0,0,0,0,5.558,2.6,2.6,0,0,0,2.353-1.362l1.647.937a4.451,4.451,0,0,1-3.983,2.3A4.577,4.577,0,0,1,942.319,959.625Z" transform="translate(0)" style="fill:#ff6242"/><path d="M951.722,959.625a4.673,4.673,0,1,1,4.673,4.655A4.62,4.62,0,0,1,951.722,959.625Zm7.434,0a2.762,2.762,0,1,0-2.761,2.8A2.718,2.718,0,0,0,959.156,959.625Z" transform="translate(0)" style="fill:#ff6242"/></svg>