<?xml version="1.0" encoding="utf-8"?>
<!-- Generator: Adobe Illustrator 23.1.1, SVG Export Plug-In . SVG Version: 6.00 Build 0)  -->
<svg version="1.1" id="Layer_1" xmlns="http://www.w3.org/2000/svg" xmlns:xlink="http://www.w3.org/1999/xlink" x="0px" y="0px"
	 viewBox="0 0 1000 1000" style="enable-background:new 0 0 1000 1000;" xml:space="preserve">
<style type="text/css">
	.st0{fill:#6A737F;}
	.st1{fill:#EEF2F4;}
	.st2{fill:#FFFFFF;}
	.st3{fill:#444E59;}
	.st4{fill:#BBBFC2;}
	.st5{fill:#28A8E0;}
	.st6{opacity:0.4;fill:#848484;}
	.st7{fill:none;stroke:#444E59;stroke-width:4;stroke-linecap:round;stroke-linejoin:round;stroke-miterlimit:10;}
	.st8{opacity:0.32;fill:#848484;}
	.st9{fill:#AFB1B2;}
	.st10{fill:#AEAEAF;}
	.st11{fill:#6567C3;}
	.st12{opacity:0.2;fill:#444E59;}
	.st13{opacity:0.2;fill:none;stroke:#444E59;stroke-width:4;stroke-linecap:round;stroke-linejoin:round;stroke-miterlimit:10;}
	.st14{opacity:0.2;}
	.st15{opacity:9.000000e-02;}
	.st16{fill:#F09F54;}
	.st17{fill:#ED8B3B;}
	.st18{fill:#FF6C37;}
	.st19{fill:#8D91DB;}
	.st20{fill:#BECCD5;stroke:#444E59;stroke-width:4;stroke-linecap:round;stroke-linejoin:round;stroke-miterlimit:10;}
	.st21{opacity:0.3;fill:none;stroke:#444E59;stroke-width:4;stroke-linecap:round;stroke-linejoin:round;stroke-miterlimit:10;}
	.st22{opacity:0.62;fill:#FFFFFF;}
	.st23{opacity:0.71;fill:#5D5D5D;}
	.st24{opacity:0.8;fill:#BBBFC2;}
	.st25{opacity:0.3;}
	.st26{fill:none;stroke:#444E59;stroke-width:2;stroke-linejoin:round;}
	.st27{fill:none;stroke:#444E59;stroke-width:2;stroke-linejoin:round;stroke-dasharray:2.858,1.9053;}
	.st28{fill:none;stroke:#444E59;stroke-width:2;stroke-linejoin:round;stroke-dasharray:3.0046,2.003;}
	.st29{fill:none;stroke:#444E59;stroke-linejoin:round;stroke-miterlimit:10;}
	.st30{fill:none;stroke:#444E59;stroke-linecap:round;stroke-linejoin:round;stroke-miterlimit:10;}
</style>
<rect x="0" class="st0" width="1000" height="1000"/>
<g>
	<g>
		<g>
			<path class="st1" d="M63.2,959.2c0,2.5-1.2,3.7-2.6,3.7c-1.1,0-1.9-0.5-2.1-1.4c-0.4,0.5-1,0.8-1.8,0.8c-1.5,0-2.6-1.2-2.6-2.8
				c0-1.6,1.1-2.8,2.6-2.8c0.7,0,1.2,0.3,1.6,0.7v-0.5h1.6v3.9c0,0.8,0.3,1.4,1,1.4c0.9,0,1.7-0.9,1.7-3c0-3-2.3-5.3-5.4-5.3
				c-3.1,0-5.6,2.4-5.6,5.7c0,3.3,2.5,5.7,5.9,5.7c1.1,0,2.1-0.2,2.9-0.4v0.6c-0.8,0.3-1.7,0.4-2.9,0.4c-3.7,0-6.5-2.6-6.5-6.2
				c0-3.4,2.7-6.2,6.2-6.2C61.1,953.3,63.2,956.4,63.2,959.2z M58.3,959.5c0-0.8-0.6-1.4-1.3-1.4c-0.8,0-1.3,0.5-1.3,1.4
				c0,0.8,0.6,1.3,1.3,1.3C57.8,960.9,58.3,960.3,58.3,959.5z"/>
		</g>
		<g>
			<path class="st1" d="M69.4,955.1v2c-1.2-0.1-2.6,0.5-2.6,2.4v4.3h-1.9v-8.6h1.9v1.4C67.3,955.5,68.3,955.1,69.4,955.1z"/>
		</g>
		<g>
			<path class="st1" d="M74.6,962.3c1,0,1.8-0.5,2.2-1.1l1.5,0.9c-0.8,1.2-2.1,1.9-3.8,1.9c-2.8,0-4.7-1.9-4.7-4.5
				c0-2.5,1.8-4.5,4.5-4.5c2.6,0,4.3,2.1,4.3,4.5c0,0.3,0,0.5-0.1,0.8h-6.8C72.1,961.6,73.2,962.3,74.6,962.3z M76.9,958.8
				c-0.3-1.5-1.3-2.1-2.5-2.1c-1.4,0-2.3,0.8-2.6,2.1H76.9z"/>
		</g>
		<g>
			<path class="st1" d="M88.9,955.2v8.6h-1.9v-1.2c-0.7,0.9-1.7,1.5-3,1.5c-2.3,0-4.3-2-4.3-4.5c0-2.6,1.9-4.5,4.3-4.5
				c1.3,0,2.3,0.5,3,1.4v-1.2H88.9z M87.1,959.5c0-1.6-1.2-2.7-2.7-2.7c-1.5,0-2.7,1.1-2.7,2.7c0,1.6,1.2,2.7,2.7,2.7
				C85.9,962.3,87.1,961.1,87.1,959.5z"/>
		</g>
		<g>
			<path class="st1" d="M91.1,951.3H93v12.5h-1.9V951.3z"/>
		</g>
		<g>
			<path class="st1" d="M102.9,955.2l-3.3,8.6h-2.1l-3.3-8.6h2l2.4,6.5l2.4-6.5H102.9z"/>
		</g>
		<g>
			<path class="st1" d="M104.2,955.2h1.9v8.9c0,2.4-1.2,3.5-3.5,3.3v-1.8c1.1,0.1,1.7-0.3,1.7-1.5V955.2z M104,952.8
				c0-0.7,0.5-1.2,1.2-1.2c0.7,0,1.2,0.5,1.2,1.2c0,0.6-0.5,1.2-1.2,1.2C104.5,954,104,953.4,104,952.8z"/>
		</g>
		<g>
			<path class="st1" d="M116,955.2l-3.3,8.8c-0.8,2.2-2.2,3.3-4.2,3.2v-1.7c1.2,0.1,1.9-0.5,2.3-1.7l0.1-0.2l-3.6-8.4h2l2.6,6.2
				l2.2-6.2H116z"/>
		</g>
	</g>
	<g>
		<path class="st1" d="M211.9,938.7c0,2.1-1.5,3.8-3.6,3.8h-3v-7.6h3C210.4,934.9,211.9,936.6,211.9,938.7z M210.9,938.7
			c0-1.6-1.1-2.9-2.6-2.9h-2v5.7h2C209.8,941.6,210.9,940.3,210.9,938.7z"/>
		<path class="st1" d="M219.5,940.8h-3.4l-0.6,1.7h-1.1l2.8-7.6h1.1l2.8,7.6h-1.1L219.5,940.8z M219.2,939.9l-1.4-3.8l-1.4,3.8
			H219.2z"/>
		<path class="st1" d="M226.4,939.4v3.1h-1v-3.1l-2.7-4.5h1.1l2.1,3.6l2.1-3.6h1.1L226.4,939.4z"/>
		<path class="st1" d="M241.6,938.8L241.6,938.8l-2.5,3.7H238l1.8-2.7c-0.1,0-0.2,0-0.4,0c-1.5,0-2.6-1-2.6-2.6
			c0-1.5,1.1-2.6,2.6-2.6s2.6,1,2.6,2.6C242.1,937.9,241.9,938.4,241.6,938.8z M239.4,938.9c1,0,1.6-0.6,1.6-1.6s-0.7-1.6-1.6-1.6
			s-1.6,0.6-1.6,1.6C237.8,938.3,238.5,938.9,239.4,938.9z"/>
		<path class="st1" d="M250.5,941.1h-0.9v1.4h-1v-1.4h-3.9v-0.9l2.7-5.2h1.1l-2.7,5.2h2.8V938h1v2.2h0.9V941.1z"/>
	</g>
	<g>
		<path class="st1" d="M58.9,938.7c0,2.1-1.5,3.8-3.6,3.8h-3v-7.6h3C57.4,934.9,58.9,936.6,58.9,938.7z M57.9,938.7
			c0-1.6-1.1-2.9-2.6-2.9h-2v5.7h2C56.8,941.6,57.9,940.3,57.9,938.7z"/>
		<path class="st1" d="M67,941.6v1h-4.6v-7.6h4.5v1h-3.5v2.3h3.2v0.9h-3.2v2.4H67z"/>
		<path class="st1" d="M70,940.8l0.9-0.5c0.3,0.8,0.9,1.4,2,1.4c1.1,0,1.6-0.5,1.6-1.2c0-0.8-0.7-1-1.8-1.4
			c-1.2-0.4-2.4-0.8-2.4-2.2c0-1.4,1.1-2.2,2.4-2.2c1.3,0,2.2,0.7,2.6,1.7l-0.8,0.5c-0.3-0.7-0.8-1.2-1.7-1.2
			c-0.8,0-1.4,0.4-1.4,1.1c0,0.7,0.5,1,1.6,1.3c1.3,0.4,2.6,0.8,2.6,2.3c0,1.3-1.1,2.2-2.6,2.2C71.5,942.7,70.4,941.9,70,940.8z"/>
		<path class="st1" d="M80,934.9v7.6h-1v-7.6H80z"/>
		<path class="st1" d="M91.3,939.2c0,1.9-1.4,3.5-3.7,3.5c-2.4,0-4-1.8-4-4c0-2.2,1.7-4,4-4c1.4,0,2.7,0.8,3.3,1.8l-0.9,0.5
			c-0.4-0.8-1.4-1.4-2.4-1.4c-1.8,0-3,1.3-3,3c0,1.7,1.2,3,3,3c1.6,0,2.5-0.9,2.7-2h-2.8v-0.9h3.8V939.2z"/>
		<path class="st1" d="M100.6,934.9v7.6h-0.8l-3.9-5.7v5.7h-1v-7.6h0.8l3.9,5.7v-5.7H100.6z"/>
		<path class="st1" d="M109.1,941.6v1h-4.6v-7.6h4.5v1h-3.5v2.3h3.2v0.9h-3.2v2.4H109.1z"/>
		<path class="st1" d="M119.2,938.7c0,2.1-1.5,3.8-3.6,3.8h-3v-7.6h3C117.6,934.9,119.2,936.6,119.2,938.7z M118.2,938.7
			c0-1.6-1.1-2.9-2.6-2.9h-2v5.7h2C117.1,941.6,118.2,940.3,118.2,938.7z"/>
		<path class="st1" d="M133.2,940.4c0,1.2-1,2.2-2.2,2.2h-3.3v-7.6h3c1.2,0,2.1,0.9,2.1,2.1c0,0.7-0.3,1.2-0.8,1.6
			C132.7,938.9,133.2,939.5,133.2,940.4z M128.7,935.8v2.3h2c0.6,0,1.1-0.5,1.1-1.2c0-0.6-0.5-1.2-1.1-1.2H128.7z M132.2,940.3
			c0-0.7-0.5-1.2-1.2-1.2h-2.3v2.5h2.3C131.7,941.6,132.2,941,132.2,940.3z"/>
		<path class="st1" d="M139.4,939.4v3.1h-1v-3.1l-2.7-4.5h1.1l2.1,3.6l2.1-3.6h1.1L139.4,939.4z"/>
	</g>
	<g>
		<path class="st1" d="M205.3,960.2v-8.3h2v8.2c0,1.5,0.8,2.5,2.7,2.5s2.7-1,2.7-2.5v-8.2h2v8.3c0,2.7-2,4.3-4.7,4.3
			C207.3,964.5,205.3,962.9,205.3,960.2z"/>
		<path class="st1" d="M219.1,951.9v12.4h-2v-12.4H219.1z"/>
		<path class="st1" d="M225.9,960.2v-8.3h2v8.2c0,1.5,0.8,2.5,2.7,2.5s2.7-1,2.7-2.5v-8.2h2v8.3c0,2.7-2,4.3-4.7,4.3
			C227.8,964.5,225.9,962.9,225.9,960.2z"/>
		<path class="st1" d="M244.2,964.3l-2.7-4.5l-2.7,4.5h-2.3l3.9-6.4l-3.7-6h2.3l2.5,4.1l2.5-4.1h2.3l-3.7,6l3.9,6.4H244.2z"/>
	</g>
	<g>
		<g>
			<g>
				<path class="st1" d="M846.1,938.7c0,2.1-1.5,3.8-3.6,3.8h-3v-7.6h3C844.6,934.9,846.1,936.6,846.1,938.7z M845.2,938.7
					c0-1.6-1.1-2.9-2.6-2.9h-2v5.7h2C844.1,941.6,845.2,940.3,845.2,938.7z"/>
			</g>
			<g>
				<path class="st1" d="M849.3,938.7c0-2.2,1.7-4,3.9-4c2.2,0,4,1.8,4,4c0,2.2-1.7,4-4,4C851,942.7,849.3,940.9,849.3,938.7z
					 M856.1,938.7c0-1.7-1.3-3-2.9-3c-1.7,0-2.9,1.3-2.9,3c0,1.7,1.3,3,2.9,3C854.9,941.7,856.1,940.4,856.1,938.7z"/>
			</g>
			<g>
				<path class="st1" d="M859.8,934.9h1.1l1.7,6.3l1.9-6.3h1l1.9,6.3l1.7-6.3h1.1l-2.2,7.6h-1.2l-1.8-6.1l-1.8,6.1H862L859.8,934.9z
					"/>
			</g>
			<g>
				<path class="st1" d="M879.3,934.9v7.6h-0.8l-3.9-5.7v5.7h-1v-7.6h0.8l3.9,5.7v-5.7H879.3z"/>
			</g>
			<g>
				<path class="st1" d="M887.5,941.6v1h-4.3v-7.6h1v6.7H887.5z"/>
			</g>
			<g>
				<path class="st1" d="M889.9,938.7c0-2.2,1.7-4,3.9-4c2.2,0,4,1.8,4,4c0,2.2-1.7,4-4,4C891.6,942.7,889.9,940.9,889.9,938.7z
					 M896.8,938.7c0-1.7-1.3-3-2.9-3c-1.7,0-2.9,1.3-2.9,3c0,1.7,1.3,3,2.9,3C895.5,941.7,896.8,940.4,896.8,938.7z"/>
			</g>
			<g>
				<path class="st1" d="M905.4,940.8H902l-0.6,1.7h-1.1l2.8-7.6h1.1l2.8,7.6H906L905.4,940.8z M905.1,939.9l-1.4-3.8l-1.4,3.8
					H905.1z"/>
			</g>
			<g>
				<path class="st1" d="M916.9,938.7c0,2.1-1.5,3.8-3.6,3.8h-3v-7.6h3C915.4,934.9,916.9,936.6,916.9,938.7z M915.9,938.7
					c0-1.6-1.1-2.9-2.6-2.9h-2v5.7h2C914.9,941.6,915.9,940.3,915.9,938.7z"/>
			</g>
			<g>
				<path class="st1" d="M926.5,935.8v2.5h3.2v1h-3.2v3.2h-1v-7.6h4.4v1H926.5z"/>
			</g>
			<g>
				<path class="st1" d="M936.2,939.6h-1.8v2.9h-1v-7.6h3c1.3,0,2.4,1.1,2.4,2.4c0,1-0.7,1.9-1.6,2.2l1.8,3.1h-1.1L936.2,939.6z
					 M934.4,938.7h2c0.8,0,1.4-0.6,1.4-1.4c0-0.8-0.6-1.4-1.4-1.4h-2V938.7z"/>
			</g>
			<g>
				<path class="st1" d="M941.9,938.7c0-2.2,1.7-4,3.9-4c2.2,0,4,1.8,4,4c0,2.2-1.7,4-4,4C943.6,942.7,941.9,940.9,941.9,938.7z
					 M948.8,938.7c0-1.7-1.3-3-2.9-3c-1.7,0-2.9,1.3-2.9,3c0,1.7,1.3,3,2.9,3C947.5,941.7,948.8,940.4,948.8,938.7z"/>
			</g>
			<g>
				<path class="st1" d="M960.4,942.5h-1v-6l-2.5,4.2h-0.1l-2.5-4.1v5.9h-1v-7.6h1.1l2.4,4l2.4-4h1.1V942.5z"/>
			</g>
		</g>
		<g>
			<g>
				<path class="st1" d="M839.3,952.9c0-0.7,0.5-1.2,1.2-1.2c0.7,0,1.2,0.5,1.2,1.2c0,0.7-0.5,1.2-1.2,1.2
					C839.9,954.1,839.3,953.6,839.3,952.9z M839.6,955.4h1.9v8.9h-1.9V955.4z"/>
			</g>
			<g>
				<path class="st1" d="M843.7,951.4h1.9v12.9h-1.9V951.4z"/>
			</g>
			<g>
				<path class="st1" d="M847.8,951.4h1.9v12.9h-1.9V951.4z"/>
			</g>
			<g>
				<path class="st1" d="M852,951.4h1.9v12.9H852V951.4z"/>
			</g>
			<g>
				<path class="st1" d="M864,955.4v8.9h-1.9v-1.1c-0.6,0.9-1.5,1.4-2.7,1.4c-2,0-3.4-1.3-3.4-3.6v-5.4h1.9v5.2c0,1.3,0.8,2.1,2,2.1
					c1.3,0,2.2-0.7,2.2-2.5v-4.7H864z"/>
			</g>
			<g>
				<path class="st1" d="M872.6,961.8c0,1.8-1.5,2.7-3.5,2.7c-1.8,0-3-0.8-3.6-2.1l1.6-1c0.3,0.8,1,1.3,2,1.3c0.8,0,1.5-0.3,1.5-1
					c0-1.6-4.8-0.7-4.8-3.9c0-1.7,1.4-2.7,3.2-2.7c1.5,0,2.7,0.7,3.3,1.8l-1.6,0.9c-0.3-0.7-0.9-1-1.7-1c-0.7,0-1.3,0.3-1.3,0.9
					C867.9,959.5,872.6,958.5,872.6,961.8z"/>
			</g>
			<g>
				<path class="st1" d="M876.7,957.3v4.2c0,1.1,0.7,1.1,2.2,1v1.7c-2.9,0.4-4.1-0.5-4.1-2.8v-4.2h-1.6v-1.8h1.6v-1.9l1.9-0.6v2.5
					h2.2v1.8H876.7z"/>
			</g>
			<g>
				<path class="st1" d="M885.4,955.3v2.1c-1.3-0.1-2.7,0.5-2.7,2.5v4.5h-1.9v-8.9h1.9v1.5C883.2,955.7,884.2,955.3,885.4,955.3z"/>
			</g>
			<g>
				<path class="st1" d="M895.3,955.4v8.9h-1.9V963c-0.7,0.9-1.7,1.5-3.1,1.5c-2.4,0-4.4-2-4.4-4.7c0-2.6,2-4.7,4.4-4.7
					c1.4,0,2.4,0.6,3.1,1.5v-1.3H895.3z M893.4,959.9c0-1.6-1.2-2.8-2.8-2.8c-1.6,0-2.8,1.2-2.8,2.8c0,1.6,1.2,2.8,2.8,2.8
					C892.2,962.7,893.4,961.5,893.4,959.9z"/>
			</g>
			<g>
				<path class="st1" d="M900.3,957.3v4.2c0,1.1,0.7,1.1,2.2,1v1.7c-2.9,0.4-4.1-0.5-4.1-2.8v-4.2h-1.6v-1.8h1.6v-1.9l1.9-0.6v2.5
					h2.2v1.8H900.3z"/>
			</g>
			<g>
				<path class="st1" d="M903.9,952.9c0-0.7,0.5-1.2,1.2-1.2c0.7,0,1.2,0.5,1.2,1.2c0,0.7-0.5,1.2-1.2,1.2
					C904.5,954.1,903.9,953.6,903.9,952.9z M904.2,955.4h1.9v8.9h-1.9V955.4z"/>
			</g>
			<g>
				<path class="st1" d="M907.8,959.9c0-2.6,2.1-4.7,4.7-4.7c2.6,0,4.7,2,4.7,4.7c0,2.6-2.1,4.7-4.7,4.7
					C909.9,964.5,907.8,962.5,907.8,959.9z M915.3,959.9c0-1.6-1.2-2.8-2.8-2.8c-1.6,0-2.8,1.2-2.8,2.8c0,1.6,1.2,2.8,2.8,2.8
					C914.1,962.7,915.3,961.5,915.3,959.9z"/>
			</g>
			<g>
				<path class="st1" d="M927,958.9v5.4h-1.9v-5.2c0-1.3-0.8-2.1-2-2.1c-1.3,0-2.2,0.7-2.2,2.5v4.7h-1.9v-8.9h1.9v1.1
					c0.6-0.9,1.5-1.4,2.7-1.4C925.5,955.2,927,956.6,927,958.9z"/>
			</g>
			<g>
				<path class="st1" d="M935.5,961.8c0,1.8-1.5,2.7-3.5,2.7c-1.8,0-3-0.8-3.6-2.1l1.6-1c0.3,0.8,1,1.3,2,1.3c0.8,0,1.5-0.3,1.5-1
					c0-1.6-4.8-0.7-4.8-3.9c0-1.7,1.4-2.7,3.2-2.7c1.5,0,2.7,0.7,3.3,1.8l-1.6,0.9c-0.3-0.7-0.9-1-1.7-1c-0.7,0-1.3,0.3-1.3,0.9
					C930.7,959.5,935.5,958.5,935.5,961.8z"/>
			</g>
			<g>
				<path class="st1" d="M936.8,963.2c0-0.7,0.6-1.3,1.3-1.3c0.7,0,1.3,0.6,1.3,1.3c0,0.7-0.6,1.3-1.3,1.3
					C937.4,964.5,936.8,963.9,936.8,963.2z"/>
			</g>
			<g>
				<path class="st1" d="M940.3,959.9c0-2.6,2-4.7,4.7-4.7c1.7,0,3.2,0.9,3.9,2.3l-1.6,1c-0.4-0.8-1.3-1.4-2.3-1.4
					c-1.6,0-2.7,1.2-2.7,2.8c0,1.6,1.2,2.8,2.7,2.8c1.1,0,1.9-0.5,2.4-1.4l1.6,0.9c-0.7,1.4-2.2,2.3-4,2.3
					C942.3,964.5,940.3,962.5,940.3,959.9z"/>
			</g>
			<g>
				<path class="st1" d="M949.7,959.9c0-2.6,2.1-4.7,4.7-4.7c2.6,0,4.7,2,4.7,4.7c0,2.6-2.1,4.7-4.7,4.7
					C951.8,964.5,949.7,962.5,949.7,959.9z M957.2,959.9c0-1.6-1.2-2.8-2.8-2.8s-2.8,1.2-2.8,2.8c0,1.6,1.2,2.8,2.8,2.8
					S957.2,961.5,957.2,959.9z"/>
			</g>
		</g>
	</g>
</g>
<g>
	<path class="st2" d="M415.5,822.5h7.3v22.6c0,5,2.7,7.6,7.4,7.6c4.7,0,7.4-2.6,7.4-7.6v-22.6h7.4v22.5c0,9.6-6.9,14.3-14.9,14.3
		s-14.6-4.7-14.6-14.3V822.5z"/>
	<path class="st2" d="M457.3,822.5h7.3V859h-7.3V822.5z"/>
	<path class="st2" d="M489.5,809.5h7.2l-14.1,58.9h-7.2L489.5,809.5z"/>
	<path class="st2" d="M507.5,822.5h7.3v22.6c0,5,2.7,7.6,7.4,7.6c4.7,0,7.4-2.6,7.4-7.6v-22.6h7.4v22.5c0,9.6-6.9,14.3-14.9,14.3
		s-14.6-4.7-14.6-14.3V822.5z"/>
	<path class="st2" d="M563.2,846.7l-7.2,12.3h-8.3l11.5-18.4l-11.6-18.1h8.4l7.9,12.2l7.1-12.2h8.3l-11.4,18.3l11.6,18.1h-8.4
		L563.2,846.7z"/>
</g>
<path id="XMLID_1313_" class="st3" d="M909.8,666.3H95.7c-5,0-9-4-9-9v0c0-5,4-9,9-9h814.2c5,0,9,4,9,9v0
	C918.8,662.3,914.8,666.3,909.8,666.3z"/>
<g id="XMLID_24_">
	<rect id="XMLID_6_" x="407.4" y="647.8" class="st3" width="140.8" height="8.4"/>
	<g id="XMLID_104_">
		<path id="XMLID_76_" class="st4" d="M646,592.9H313.8c-6.6,0-12-5.4-12-12V358.4c0-6.6,5.4-12,12-12H646c6.6,0,12,5.4,12,12v222.4
			C658,587.5,652.7,592.9,646,592.9z"/>
		
			<rect id="XMLID_80_" x="389.8" y="303.5" transform="matrix(-1.836970e-16 1 -1 -1.836970e-16 940.3873 -20.8206)" class="st5" width="181.7" height="312.6"/>
		<path id="XMLID_18_" class="st6" d="M646.8,592.9h-52.1v-94.8c0-7.6,6.1-13.7,13.7-13.7h38.4V592.9z"/>
		<path id="XMLID_107_" class="st6" d="M327.1,501.3h-25.3V576c0,9.3,8,16.9,17.4,16.9h29.1v-70
			C348.2,511.2,338.7,501.3,327.1,501.3z"/>
		<path id="XMLID_5_" class="st7" d="M647,592.9H314.2c-6.6,0-12-5.4-12-12V358.4c0-6.6,5.4-12,12-12H647c6.6,0,12,5.4,12,12v222.4
			C659,587.5,653.6,592.9,647,592.9z"/>
		
			<rect id="XMLID_7_" x="389.8" y="303.9" transform="matrix(-1.836970e-16 1 -1 -1.836970e-16 940.3846 -20.8233)" class="st7" width="181.7" height="311.7"/>
	</g>
	<path id="XMLID_179_" class="st8" d="M575.9,541.9H404.1c-3.9,0-7-3.2-7-7V412.3c0-3.9,3.2-7,7-7h171.8c3.9,0,7,3.2,7,7v122.5
		C582.9,538.7,579.8,541.9,575.9,541.9z"/>
	<path id="XMLID_134_" class="st9" d="M567.9,535.1H396.1c-3.9,0-7-3.2-7-7V405.6c0-3.9,3.2-7,7-7h171.8c3.9,0,7,3.2,7,7v122.5
		C575,532,571.8,535.1,567.9,535.1z"/>
	<path id="XMLID_137_" class="st7" d="M567.9,535.1H396.1c-3.9,0-7-3.2-7-7V405.6c0-3.9,3.2-7,7-7h171.8c3.9,0,7,3.2,7,7v122.5
		C575,532,571.8,535.1,567.9,535.1z"/>
	<polygon id="XMLID_96_" class="st10" points="522.5,647.8 438.7,647.8 449.1,592.9 512.1,592.9 	"/>
	<polygon id="XMLID_99_" class="st8" points="514.9,608.4 512.1,592.9 449.1,592.9 446.3,608.4 	"/>
	<polygon id="XMLID_3_" class="st7" points="522.5,647.8 438.7,647.8 449.1,592.9 512.1,592.9 	"/>
	<rect id="XMLID_8_" x="407.4" y="647.8" class="st7" width="140.8" height="8.4"/>
	<circle id="XMLID_9_" class="st3" cx="480.1" cy="567.7" r="6.2"/>
	<path id="XMLID_133_" class="st2" d="M553.8,522.5H382c-3.9,0-7-3.2-7-7V392.9c0-3.9,3.2-7,7-7h171.8c3.9,0,7,3.2,7,7v122.5
		C560.9,519.3,557.7,522.5,553.8,522.5z"/>
	<path id="XMLID_25_" class="st7" d="M553.8,522.5H382c-3.9,0-7-3.2-7-7V392.9c0-3.9,3.2-7,7-7h171.8c3.9,0,7,3.2,7,7v122.5
		C560.9,519.3,557.7,522.5,553.8,522.5z"/>
	<path id="XMLID_105_" class="st4" d="M560.9,407H375v-13.8c0-4,3.3-7.4,7.4-7.4H554c3.8,0,6.9,3.1,6.9,6.9V407z"/>
	<path id="XMLID_26_" class="st7" d="M560.9,407H375v-13.8c0-4,3.3-7.4,7.4-7.4H554c3.8,0,6.9,3.1,6.9,6.9V407z"/>
	<g id="XMLID_108_">
		<circle id="XMLID_106_" class="st3" cx="392.9" cy="396.5" r="3.3"/>
		<circle id="XMLID_109_" class="st3" cx="403.8" cy="396.5" r="3.3"/>
		<circle id="XMLID_120_" class="st3" cx="414.6" cy="396.5" r="3.3"/>
	</g>
	<path id="XMLID_122_" class="st11" d="M543.4,443.6H391.1c-1.1,0-2-0.9-2-2v-21.3c0-1.1,0.9-2,2-2h152.3c1.1,0,2,0.9,2,2v21.3
		C545.4,442.7,544.5,443.6,543.4,443.6z"/>
	<g id="XMLID_123_">
		<path id="XMLID_124_" class="st12" d="M434.9,470.3h-43.9c-1.1,0-2-0.9-2-2v-11.5c0-1.1,0.9-2,2-2h43.9c1.1,0,2,0.9,2,2v11.5
			C436.9,469.4,436.1,470.3,434.9,470.3z"/>
		<line id="XMLID_125_" class="st13" x1="396.1" y1="481.6" x2="431.3" y2="481.6"/>
		<line id="XMLID_128_" class="st13" x1="396.1" y1="492.9" x2="431.3" y2="492.9"/>
	</g>
	<g id="XMLID_127_">
		<path id="XMLID_131_" class="st12" d="M489.9,470.3H446c-1.1,0-2-0.9-2-2v-11.5c0-1.1,0.9-2,2-2h43.9c1.1,0,2,0.9,2,2v11.5
			C491.9,469.4,491,470.3,489.9,470.3z"/>
		<line id="XMLID_130_" class="st13" x1="451" y1="481.6" x2="484.8" y2="481.6"/>
		<line id="XMLID_129_" class="st13" x1="451" y1="492.9" x2="484.8" y2="492.9"/>
	</g>
	<g id="XMLID_132_" class="st14">
		<path id="XMLID_135_" class="st3" d="M544.8,494.3h-43.9c-1.1,0-2-0.9-2-2v-35.4c0-1.1,0.9-2,2-2h43.9c1.1,0,2,0.9,2,2v35.4
			C546.8,493.4,545.9,494.3,544.8,494.3z"/>
	</g>
	<g id="XMLID_126_" class="st15">
		<path id="XMLID_136_" class="st3" d="M543.4,505.6h-41.8c-1.6,0-2.8-1.3-2.8-2.8s1.3-2.8,2.8-2.8h41.8c1.6,0,2.8,1.3,2.8,2.8
			S544.9,505.6,543.4,505.6z"/>
	</g>
</g>
<g id="XMLID_23_">
	<g id="XMLID_12_">
		<path id="XMLID_71_" class="st2" d="M229.2,613.4h-80.6c-1,0-1.9,0.3-2.6,1l-19.5,17c-1.8,1.6-1.8,4.4,0,5.9l19.5,17.3
			c0.7,0.6,1.6,1.2,2.6,1.2h80.6c4.6,0,8.4-4.2,8.4-8.8v-25.5C237.5,617.1,233.8,613.4,229.2,613.4z M146.4,639.3c-2.7,0-5-2.2-5-5
			s2.2-5,5-5s5,2.2,5,5S149.2,639.3,146.4,639.3z"/>
		<rect id="XMLID_70_" x="167.1" y="613.4" class="st16" width="23.5" height="42.5"/>
		<rect id="XMLID_69_" x="190.6" y="613.4" class="st17" width="23.5" height="42.5"/>
		<path id="XMLID_58_" class="st18" d="M227.1,655.9h-13v-42.5h13.4c5.5,0,10.1,4.5,10.1,10.1v22
			C237.5,651.2,232.8,655.9,227.1,655.9z"/>
		<path id="XMLID_117_" class="st6" d="M231.4,615.5c-0.4-0.1-0.8-0.1-1.2-0.1h-80.6c-1,0-1.9,0.3-2.6,1l-19.5,17
			c-1.8,1.6-1.8,4.4,0,5.9l12.2,10.7l13.2,3.3c0.6,0.2,1.3,0.2,2,0.2c1.3,0,2.5-0.3,3.7-0.9l71.8-36.6
			C230.7,615.9,231.1,615.7,231.4,615.5z M147.4,641.3c-2.7,0-5-2.2-5-5s2.2-5,5-5s5,2.2,5,5S150.2,641.3,147.4,641.3z"/>
		<path id="XMLID_29_" class="st7" d="M229.2,613.4h-80.6c-1,0-1.9,0.3-2.6,1l-19.5,17c-1.8,1.6-1.8,4.4,0,5.9l19.5,17.3
			c0.7,0.6,1.6,1.2,2.6,1.2h80.6c4.6,0,8.4-4.2,8.4-8.8v-25.5C237.5,617.1,233.8,613.4,229.2,613.4z M146.4,639.3c-2.7,0-5-2.2-5-5
			s2.2-5,5-5s5,2.2,5,5S149.2,639.3,146.4,639.3z"/>
		<rect id="XMLID_17_" x="167.1" y="613.4" class="st7" width="23.5" height="42.5"/>
		<rect id="XMLID_21_" x="190.6" y="613.4" class="st7" width="23.5" height="42.5"/>
		<path id="XMLID_22_" class="st7" d="M227.1,655.9h-13v-42.5h13.4c5.5,0,10.1,4.5,10.1,10.1v22
			C237.5,651.2,232.8,655.9,227.1,655.9z"/>
	</g>
	<g id="XMLID_20_">
		<path id="XMLID_74_" class="st2" d="M208.4,573l-71.8,36.6c-0.9,0.4-1.5,1.2-1.9,2.1l-9.6,24c-0.9,2.2,0.4,4.7,2.7,5.3l25.1,6.4
			c0.9,0.2,1.9,0.1,2.8-0.3l71.8-36.6c4.1-2.1,5.7-7.1,3.6-11.1l-11.6-22.7C217.4,572.5,212.4,570.9,208.4,573z"/>
		
			<rect id="XMLID_77_" x="182.2" y="582.9" transform="matrix(0.8908 -0.4545 0.4545 0.8908 -253.2897 154.0934)" class="st19" width="23.5" height="42"/>
		<path id="XMLID_33_" class="st7" d="M208.4,573l-71.8,36.6c-0.9,0.4-1.5,1.2-1.9,2.1l-9.6,24c-0.9,2.2,0.4,4.7,2.7,5.3l25.1,6.4
			c0.9,0.2,1.9,0.1,2.8-0.3l71.8-36.6c4.1-2.1,5.7-7.1,3.6-11.1l-11.6-22.7C217.4,572.5,212.4,570.9,208.4,573z"/>
		<circle id="XMLID_34_" class="st3" cx="144.2" cy="629.3" r="5.8"/>
		
			<rect id="XMLID_79_" x="161.2" y="593.6" transform="matrix(0.8908 -0.4545 0.4545 0.8908 -260.4252 145.7524)" class="st20" width="23.5" height="42"/>
		
			<rect id="XMLID_32_" x="161.2" y="593.6" transform="matrix(0.8908 -0.4545 0.4545 0.8908 -260.4252 145.7524)" class="st7" width="23.5" height="42"/>
		
			<rect id="XMLID_31_" x="182.2" y="582.9" transform="matrix(0.8908 -0.4545 0.4545 0.8908 -253.2897 154.0934)" class="st7" width="23.5" height="42"/>
		<path id="XMLID_30_" class="st11" d="M225.9,611.2l-12,6.1l-19.1-37.4l12-6.1c4.9-2.5,10.9-0.6,13.5,4.4l10,19.6
			C232.8,602.7,230.8,608.7,225.9,611.2z"/>
		<path id="XMLID_78_" class="st7" d="M225.9,611.2l-12,6.1l-19.1-37.4l12-6.1c4.9-2.5,10.9-0.6,13.5,4.4l10,19.6
			C232.8,602.7,230.8,608.7,225.9,611.2z"/>
	</g>
</g>
<g id="XMLID_90_">
	<path id="XMLID_102_" class="st2" d="M327,656.2h-67.3c-5.5,0-10-4.5-10-10V511.3c0-5.5,4.5-10,10-10H327c5.5,0,10,4.5,10,10v134.9
		C337,651.8,332.5,656.2,327,656.2z"/>
	<path id="XMLID_83_" class="st11" d="M338.4,547.8h-88.7v-36.7c0-5.4,4.4-9.8,9.8-9.8H328c5.7,0,10.3,4.7,10.3,10.3V547.8z"/>
	<path id="XMLID_10_" class="st7" d="M327,656.2h-67.3c-5.5,0-10-4.5-10-10V511.3c0-5.5,4.5-10,10-10H327c5.5,0,10,4.5,10,10v134.9
		C337,651.8,332.5,656.2,327,656.2z"/>
	<path id="XMLID_82_" class="st4" d="M327.1,656.2H260c-5.7,0-10.4-4.7-10.4-10.4v-19.2H337v19.7C337,651.8,332.5,656.2,327.1,656.2
		z"/>
	<path id="XMLID_81_" class="st7" d="M327.3,656.2H260c-5.7,0-10.4-4.7-10.4-10.4v-19.2H337v19.9C337,651.9,332.6,656.2,327.3,656.2
		z"/>
	<circle id="XMLID_84_" class="st3" cx="294" cy="640.8" r="5"/>
	<line id="XMLID_86_" class="st21" x1="269.4" y1="563.3" x2="318.7" y2="563.3"/>
	<line id="XMLID_87_" class="st21" x1="279.2" y1="578.8" x2="310.2" y2="578.8"/>
	<line id="XMLID_88_" class="st21" x1="269.4" y1="592.9" x2="318.7" y2="592.9"/>
	<circle id="XMLID_85_" class="st22" cx="294" cy="528.1" r="11.2"/>
	<path id="XMLID_89_" class="st17" d="M310.2,608.4c0,3.1-2.5,5.6-5.6,5.6h-21.1c-3.1,0-5.6-2.5-5.6-5.6l0,0c0-3.1,2.5-5.6,5.6-5.6
		h21.1C307.7,602.7,310.2,605.2,310.2,608.4L310.2,608.4z"/>
</g>
<g id="XMLID_111_">
	<path id="XMLID_100_" class="st4" d="M848.2,637.9H605.9V492.3c0-4.3,3.5-7.8,7.8-7.8h226.8c4.2,0,7.6,3.4,7.6,7.6V637.9z"/>
	<path id="XMLID_11_" class="st7" d="M848.8,638.2H606.6v-146c0-4.4,3.6-8,8-8h226.2c4.4,0,8,3.6,8,8V638.2z"/>
	
		<rect id="XMLID_101_" x="663.7" y="453.4" transform="matrix(-1.836970e-16 1 -1 -1.836970e-16 1288.9274 -166.5738)" class="st23" width="128.2" height="215.5"/>
	<path id="XMLID_183_" class="st8" d="M672.7,600.9h-18.6c-1.1,0-2-0.9-2-2v-63.7c0-1.1,0.9-2,2-2h18.6c1.1,0,2,0.9,2,2V599
		C674.7,600,673.8,600.9,672.7,600.9z"/>
	<path id="XMLID_178_" class="st8" d="M807,613.8H699.6c-2.2,0-4-1.8-4-4v-82.1c0-2.2,1.8-4,4-4H807c2.2,0,4,1.8,4,4v82.1
		C811,612,809.3,613.8,807,613.8z"/>
	
		<rect id="XMLID_103_" x="664.1" y="453.5" transform="matrix(-1.836970e-16 1 -1 -1.836970e-16 1288.8374 -166.4797)" class="st7" width="127.1" height="215.3"/>
	<path id="XMLID_110_" class="st2" d="M875.2,638.2H580.1v9.4c0,4.4,3.6,8,8,8h279.1c4.4,0,8-3.6,8-8V638.2z"/>
	<path id="XMLID_206_" class="st24" d="M591.4,656.2h272.6c5.5,0,10-4.2,11-9.9H580.3C581.3,652,585.9,656.2,591.4,656.2z"/>
	<path id="XMLID_15_" class="st7" d="M875.2,638.2H580.1v9.4c0,4.4,3.6,8,8,8h279.1c4.4,0,8-3.6,8-8V638.2z"/>
	<rect id="XMLID_201_" x="646.8" y="528.1" class="st16" width="22.5" height="22.5"/>
	<rect id="XMLID_138_" x="647.2" y="528.3" class="st7" width="22.5" height="22.5"/>
	<rect id="XMLID_180_" x="647.2" y="528.3" class="st7" width="22.5" height="22.5"/>
	<rect id="XMLID_156_" x="646.8" y="550.6" class="st19" width="22.5" height="22.5"/>
	<rect id="XMLID_140_" x="647.2" y="550.9" class="st7" width="22.5" height="22.5"/>
	<rect id="XMLID_202_" x="646.8" y="573.1" class="st11" width="22.5" height="22.5"/>
	<rect id="XMLID_143_" x="647.2" y="573.4" class="st7" width="22.5" height="22.5"/>
	<path id="XMLID_115_" class="st2" d="M800.5,606.9H693c-2.2,0-4-1.8-4-4v-82.1c0-2.2,1.8-4,4-4h107.5c2.2,0,4,1.8,4,4v82.1
		C804.5,605.2,802.7,606.9,800.5,606.9z"/>
	<path id="XMLID_139_" class="st7" d="M800.5,606.9H693c-2.2,0-4-1.8-4-4v-82.1c0-2.2,1.8-4,4-4h107.5c2.2,0,4,1.8,4,4v82.1
		C804.5,605.2,802.7,606.9,800.5,606.9z"/>
	<g id="XMLID_147_" class="st25">
		<g id="XMLID_205_">
			<polyline id="XMLID_419_" class="st26" points="770.7,583.2 770.7,584.7 769.2,584.7 			"/>
			<line id="XMLID_418_" class="st27" x1="767.3" y1="584.7" x2="725.4" y2="584.7"/>
			<polyline id="XMLID_417_" class="st26" points="724.4,584.7 722.9,584.7 722.9,583.2 			"/>
			<line id="XMLID_416_" class="st28" x1="722.9" y1="581.1" x2="722.9" y2="542.1"/>
			<polyline id="XMLID_415_" class="st26" points="722.9,541.1 722.9,539.6 724.4,539.6 			"/>
			<line id="XMLID_214_" class="st27" x1="726.3" y1="539.6" x2="768.2" y2="539.6"/>
			<polyline id="XMLID_213_" class="st26" points="769.2,539.6 770.7,539.6 770.7,541.1 			"/>
			<line id="XMLID_211_" class="st28" x1="770.7" y1="543.1" x2="770.7" y2="582.2"/>
		</g>
	</g>
	<g id="XMLID_155_">
		<rect id="XMLID_154_" x="719.6" y="536.1" class="st2" width="7.1" height="7.1"/>
		<rect id="XMLID_153_" x="719.3" y="535.8" class="st29" width="7" height="7"/>
	</g>
	<g id="XMLID_157_">
		<rect id="XMLID_159_" x="719.6" y="581.1" class="st2" width="7.1" height="7.1"/>
		<rect id="XMLID_158_" x="719.3" y="580.9" class="st29" width="7" height="7"/>
	</g>
	<g id="XMLID_162_">
		<rect id="XMLID_166_" x="767.2" y="536.1" class="st2" width="7.1" height="7.1"/>
		<rect id="XMLID_164_" x="767.2" y="535.8" class="st29" width="7" height="7"/>
	</g>
	<g id="XMLID_196_">
		<rect id="XMLID_198_" x="767.2" y="581.1" class="st2" width="7.1" height="7.1"/>
		<rect id="XMLID_197_" x="767.2" y="580.9" class="st29" width="7" height="7"/>
	</g>
	<g id="XMLID_229_">
		<g id="XMLID_225_">
			<polygon id="XMLID_230_" class="st2" points="658.5,562.5 665.6,577.7 672.5,581.3 677.3,576.5 673.8,569.5 			"/>
			<polygon id="XMLID_227_" class="st29" points="658.5,562.5 665.6,577.7 672.5,581.3 677.3,576.5 673.8,569.5 			"/>
			<circle id="XMLID_224_" class="st3" cx="667.5" cy="571.1" r="1.9"/>
			<line id="XMLID_226_" class="st30" x1="658.5" y1="562.5" x2="666.4" y2="570.4"/>
		</g>
		
			<rect id="XMLID_231_" x="673.3" y="578.1" transform="matrix(0.7071 -0.7071 0.7071 0.7071 -212.3433 648.545)" class="st2" width="6.8" height="4.9"/>
		
			<rect id="XMLID_228_" x="673.3" y="578.1" transform="matrix(0.7071 -0.7071 0.7071 0.7071 -212.3433 648.545)" class="st29" width="6.8" height="4.9"/>
	</g>
</g>
</svg>
