<?xml version="1.0" encoding="utf-8"?>
<!-- Generator: Adobe Illustrator 23.1.1, SVG Export Plug-In . SVG Version: 6.00 Build 0)  -->
<svg version="1.1" id="Layer_1" xmlns="http://www.w3.org/2000/svg" xmlns:xlink="http://www.w3.org/1999/xlink" x="0px" y="0px"
	 viewBox="0 0 1000 1000" style="enable-background:new 0 0 1000 1000;" xml:space="preserve">
<style type="text/css">
	.st0{fill:#32BF6B;}
	.st1{fill:#EEF2F4;}
	.st2{opacity:0.4;fill:none;stroke:#2B5621;stroke-width:8;stroke-linecap:round;stroke-linejoin:round;stroke-miterlimit:10;}
	.st3{opacity:0.18;fill:none;stroke:#351915;stroke-width:8;stroke-linecap:round;stroke-linejoin:round;stroke-miterlimit:10;}
	.st4{fill:#FFC943;}
	.st5{fill:none;stroke:#102D3B;stroke-width:8;stroke-linecap:round;stroke-linejoin:round;stroke-miterlimit:10;}
	.st6{opacity:0.4;}
	.st7{fill:none;stroke:#2B5621;stroke-width:8;stroke-linecap:round;stroke-linejoin:round;stroke-miterlimit:10;}
	.st8{fill:#2B5621;stroke:#2B5621;stroke-width:8;stroke-linecap:round;stroke-linejoin:round;stroke-miterlimit:10;}
	.st9{opacity:0.18;}
	.st10{fill:none;stroke:#351915;stroke-width:8;stroke-linecap:round;stroke-linejoin:round;stroke-miterlimit:10;}
	.st11{fill:none;stroke:#FDFFFF;stroke-width:8;stroke-linecap:round;stroke-linejoin:round;stroke-miterlimit:10;}
	.st12{fill:#F42222;}
	.st13{fill:#FF7676;}
	.st14{fill:#E8E8E8;}
</style>
<rect id="XMLID_39_" y="0" class="st0" width="1000" height="1000"/>
<g>
	<g>
		<g>
			<path class="st1" d="M63.2,959.2c0,2.5-1.2,3.7-2.6,3.7c-1.1,0-1.9-0.5-2.1-1.4c-0.4,0.5-1,0.8-1.8,0.8c-1.5,0-2.6-1.2-2.6-2.8
				c0-1.6,1.1-2.8,2.6-2.8c0.7,0,1.2,0.3,1.6,0.7v-0.5h1.6v3.9c0,0.8,0.3,1.4,1,1.4c0.9,0,1.7-0.9,1.7-3c0-3-2.3-5.3-5.4-5.3
				c-3.1,0-5.6,2.4-5.6,5.7c0,3.3,2.5,5.7,5.9,5.7c1.1,0,2.1-0.2,2.9-0.4v0.6c-0.8,0.3-1.7,0.4-2.9,0.4c-3.7,0-6.5-2.6-6.5-6.2
				c0-3.4,2.7-6.2,6.2-6.2C61.1,953.3,63.2,956.4,63.2,959.2z M58.3,959.5c0-0.8-0.6-1.4-1.3-1.4c-0.8,0-1.3,0.5-1.3,1.4
				c0,0.8,0.6,1.3,1.3,1.3C57.8,960.9,58.3,960.3,58.3,959.5z"/>
		</g>
		<g>
			<path class="st1" d="M69.4,955.1v2c-1.2-0.1-2.6,0.5-2.6,2.4v4.3h-1.9v-8.6h1.9v1.4C67.3,955.5,68.3,955.1,69.4,955.1z"/>
		</g>
		<g>
			<path class="st1" d="M74.6,962.3c1,0,1.8-0.5,2.2-1.1l1.5,0.9c-0.8,1.2-2.1,1.9-3.8,1.9c-2.8,0-4.7-1.9-4.7-4.5
				c0-2.5,1.8-4.5,4.5-4.5c2.6,0,4.3,2.1,4.3,4.5c0,0.3,0,0.5-0.1,0.8h-6.8C72.1,961.6,73.2,962.3,74.6,962.3z M76.9,958.8
				c-0.3-1.5-1.3-2.1-2.5-2.1c-1.4,0-2.3,0.8-2.6,2.1H76.9z"/>
		</g>
		<g>
			<path class="st1" d="M88.9,955.2v8.6h-1.9v-1.2c-0.7,0.9-1.7,1.5-3,1.5c-2.3,0-4.3-2-4.3-4.5c0-2.6,1.9-4.5,4.3-4.5
				c1.3,0,2.3,0.5,3,1.4v-1.2H88.9z M87.1,959.5c0-1.6-1.2-2.7-2.7-2.7c-1.5,0-2.7,1.1-2.7,2.7c0,1.6,1.2,2.7,2.7,2.7
				C85.9,962.3,87.1,961.1,87.1,959.5z"/>
		</g>
		<g>
			<path class="st1" d="M91.1,951.3H93v12.5h-1.9V951.3z"/>
		</g>
		<g>
			<path class="st1" d="M102.9,955.2l-3.3,8.6h-2.1l-3.3-8.6h2l2.4,6.5l2.4-6.5H102.9z"/>
		</g>
		<g>
			<path class="st1" d="M104.2,955.2h1.9v8.9c0,2.4-1.2,3.5-3.5,3.3v-1.8c1.1,0.1,1.7-0.3,1.7-1.5V955.2z M104,952.8
				c0-0.7,0.5-1.2,1.2-1.2c0.7,0,1.2,0.5,1.2,1.2c0,0.6-0.5,1.2-1.2,1.2C104.5,954,104,953.4,104,952.8z"/>
		</g>
		<g>
			<path class="st1" d="M116,955.2l-3.3,8.8c-0.8,2.2-2.2,3.3-4.2,3.2v-1.7c1.2,0.1,1.9-0.5,2.3-1.7l0.1-0.2l-3.6-8.4h2l2.6,6.2
				l2.2-6.2H116z"/>
		</g>
	</g>
	<g>
		<path class="st1" d="M211.9,938.7c0,2.1-1.5,3.8-3.6,3.8h-3v-7.6h3C210.4,934.9,211.9,936.6,211.9,938.7z M210.9,938.7
			c0-1.6-1.1-2.9-2.6-2.9h-2v5.7h2C209.8,941.6,210.9,940.3,210.9,938.7z"/>
		<path class="st1" d="M219.5,940.8h-3.4l-0.6,1.7h-1.1l2.8-7.6h1.1l2.8,7.6h-1.1L219.5,940.8z M219.2,939.9l-1.4-3.8l-1.4,3.8
			H219.2z"/>
		<path class="st1" d="M226.4,939.4v3.1h-1v-3.1l-2.7-4.5h1.1l2.1,3.6l2.1-3.6h1.1L226.4,939.4z"/>
		<path class="st1" d="M241.5,934.9v0.9l-2.8,6.7h-1.1l2.8-6.7h-3.7v-1H241.5z"/>
		<path class="st1" d="M249.6,941.1h-0.9v1.4h-1v-1.4h-3.9v-0.9l2.7-5.2h1.1l-2.7,5.2h2.8V938h1v2.2h0.9V941.1z"/>
	</g>
	<g>
		<path class="st1" d="M58.9,938.7c0,2.1-1.5,3.8-3.6,3.8h-3v-7.6h3C57.4,934.9,58.9,936.6,58.9,938.7z M57.9,938.7
			c0-1.6-1.1-2.9-2.6-2.9h-2v5.7h2C56.8,941.6,57.9,940.3,57.9,938.7z"/>
		<path class="st1" d="M67,941.6v1h-4.6v-7.6h4.5v1h-3.5v2.3h3.2v0.9h-3.2v2.4H67z"/>
		<path class="st1" d="M70,940.8l0.9-0.5c0.3,0.8,0.9,1.4,2,1.4c1.1,0,1.6-0.5,1.6-1.2c0-0.8-0.7-1-1.8-1.4
			c-1.2-0.4-2.4-0.8-2.4-2.2c0-1.4,1.1-2.2,2.4-2.2c1.3,0,2.2,0.7,2.6,1.7l-0.8,0.5c-0.3-0.7-0.8-1.2-1.7-1.2
			c-0.8,0-1.4,0.4-1.4,1.1c0,0.7,0.5,1,1.6,1.3c1.3,0.4,2.6,0.8,2.6,2.3c0,1.3-1.1,2.2-2.6,2.2C71.5,942.7,70.4,941.9,70,940.8z"/>
		<path class="st1" d="M80,934.9v7.6h-1v-7.6H80z"/>
		<path class="st1" d="M91.3,939.2c0,1.9-1.4,3.5-3.7,3.5c-2.4,0-4-1.8-4-4c0-2.2,1.7-4,4-4c1.4,0,2.7,0.8,3.3,1.8l-0.9,0.5
			c-0.4-0.8-1.4-1.4-2.4-1.4c-1.8,0-3,1.3-3,3c0,1.7,1.2,3,3,3c1.6,0,2.5-0.9,2.7-2h-2.8v-0.9h3.8V939.2z"/>
		<path class="st1" d="M100.6,934.9v7.6h-0.8l-3.9-5.7v5.7h-1v-7.6h0.8l3.9,5.7v-5.7H100.6z"/>
		<path class="st1" d="M109.1,941.6v1h-4.6v-7.6h4.5v1h-3.5v2.3h3.2v0.9h-3.2v2.4H109.1z"/>
		<path class="st1" d="M119.2,938.7c0,2.1-1.5,3.8-3.6,3.8h-3v-7.6h3C117.6,934.9,119.2,936.6,119.2,938.7z M118.2,938.7
			c0-1.6-1.1-2.9-2.6-2.9h-2v5.7h2C117.1,941.6,118.2,940.3,118.2,938.7z"/>
		<path class="st1" d="M133.2,940.4c0,1.2-1,2.2-2.2,2.2h-3.3v-7.6h3c1.2,0,2.1,0.9,2.1,2.1c0,0.7-0.3,1.2-0.8,1.6
			C132.7,938.9,133.2,939.5,133.2,940.4z M128.7,935.8v2.3h2c0.6,0,1.1-0.5,1.1-1.2c0-0.6-0.5-1.2-1.1-1.2H128.7z M132.2,940.3
			c0-0.7-0.5-1.2-1.2-1.2h-2.3v2.5h2.3C131.7,941.6,132.2,941,132.2,940.3z"/>
		<path class="st1" d="M139.4,939.4v3.1h-1v-3.1l-2.7-4.5h1.1l2.1,3.6l2.1-3.6h1.1L139.4,939.4z"/>
	</g>
	<g>
		<path class="st1" d="M204.8,961.5l1.8-1c0.4,1.3,1.4,2.1,3.1,2.1c1.6,0,2.3-0.7,2.3-1.6c0-1.1-1-1.5-2.8-2
			c-1.9-0.6-3.8-1.3-3.8-3.6c0-2.3,1.9-3.6,4-3.6c2,0,3.5,1.1,4.3,2.7l-1.7,1c-0.4-1-1.2-1.7-2.6-1.7c-1.2,0-1.9,0.6-1.9,1.5
			c0,1,0.7,1.4,2.5,1.9c2.1,0.7,4.1,1.3,4.1,3.8c0,2.3-1.8,3.6-4.4,3.6C207.1,964.5,205.5,963.3,204.8,961.5z"/>
		<path class="st1" d="M218.1,957.3v4.2c0,1.1,0.7,1.1,2.2,1v1.7c-2.9,0.4-4.1-0.5-4.1-2.8v-4.2h-1.6v-1.8h1.6v-1.9l1.9-0.6v2.5h2.2
			v1.8H218.1z"/>
		<path class="st1" d="M230.6,955.4v8.9h-1.9V963c-0.7,0.9-1.7,1.5-3.1,1.5c-2.4,0-4.4-2-4.4-4.7c0-2.6,2-4.7,4.4-4.7
			c1.4,0,2.4,0.6,3.1,1.5v-1.3H230.6z M228.7,959.9c0-1.6-1.2-2.8-2.8-2.8c-1.6,0-2.8,1.2-2.8,2.8c0,1.6,1.2,2.8,2.8,2.8
			C227.5,962.7,228.7,961.5,228.7,959.9z"/>
		<path class="st1" d="M235.6,957.3v4.2c0,1.1,0.7,1.1,2.2,1v1.7c-2.9,0.4-4.1-0.5-4.1-2.8v-4.2H232v-1.8h1.6v-1.9l1.9-0.6v2.5h2.2
			v1.8H235.6z"/>
		<path class="st1" d="M239.2,952.9c0-0.7,0.5-1.2,1.2-1.2c0.7,0,1.2,0.5,1.2,1.2c0,0.7-0.5,1.2-1.2,1.2
			C239.8,954.1,239.2,953.6,239.2,952.9z M239.5,955.4h1.9v8.9h-1.9V955.4z"/>
		<path class="st1" d="M243.1,959.9c0-2.6,2.1-4.7,4.7-4.7c2.6,0,4.7,2,4.7,4.7c0,2.6-2.1,4.7-4.7,4.7
			C245.2,964.5,243.1,962.5,243.1,959.9z M250.6,959.9c0-1.6-1.2-2.8-2.8-2.8s-2.8,1.2-2.8,2.8c0,1.6,1.2,2.8,2.8,2.8
			S250.6,961.5,250.6,959.9z"/>
		<path class="st1" d="M262.3,958.9v5.4h-1.9v-5.2c0-1.3-0.8-2.1-2-2.1c-1.3,0-2.2,0.7-2.2,2.5v4.7h-1.9v-8.9h1.9v1.1
			c0.6-0.9,1.5-1.4,2.7-1.4C260.8,955.2,262.3,956.6,262.3,958.9z"/>
		<path class="st1" d="M273.2,955.4v8.9h-1.9V963c-0.7,0.9-1.7,1.5-3.1,1.5c-2.4,0-4.4-2-4.4-4.7c0-2.6,2-4.7,4.4-4.7
			c1.4,0,2.4,0.6,3.1,1.5v-1.3H273.2z M271.3,959.9c0-1.6-1.2-2.8-2.8-2.8c-1.6,0-2.8,1.2-2.8,2.8c0,1.6,1.2,2.8,2.8,2.8
			C270.1,962.7,271.3,961.5,271.3,959.9z"/>
		<path class="st1" d="M280.1,955.3v2.1c-1.3-0.1-2.7,0.5-2.7,2.5v4.5h-1.9v-8.9h1.9v1.5C277.9,955.7,279,955.3,280.1,955.3z"/>
		<path class="st1" d="M289.7,955.4l-3.4,9.1c-0.8,2.2-2.3,3.4-4.3,3.3V966c1.2,0.1,1.9-0.6,2.4-1.7l0.1-0.2l-3.8-8.7h2.1l2.6,6.4
			l2.3-6.4H289.7z"/>
		<path class="st1" d="M294.8,961.5l1.8-1c0.4,1.3,1.4,2.1,3.1,2.1c1.6,0,2.3-0.7,2.3-1.6c0-1.1-1-1.5-2.8-2
			c-1.9-0.6-3.8-1.3-3.8-3.6c0-2.3,1.9-3.6,4-3.6c2,0,3.5,1.1,4.3,2.7l-1.7,1c-0.4-1-1.2-1.7-2.6-1.7c-1.2,0-1.9,0.6-1.9,1.5
			c0,1,0.7,1.4,2.5,1.9c2.1,0.7,4.1,1.3,4.1,3.8c0,2.3-1.8,3.6-4.4,3.6C297.1,964.5,295.5,963.3,294.8,961.5z"/>
		<path class="st1" d="M310.2,962.8c1.1,0,1.9-0.5,2.3-1.1l1.6,0.9c-0.8,1.2-2.1,1.9-3.9,1.9c-2.9,0-4.8-2-4.8-4.7
			c0-2.6,1.9-4.7,4.7-4.7c2.6,0,4.4,2.1,4.4,4.7c0,0.3,0,0.5-0.1,0.8h-7C307.7,962.1,308.8,962.8,310.2,962.8z M312.5,959.1
			c-0.3-1.5-1.4-2.2-2.5-2.2c-1.4,0-2.4,0.8-2.7,2.2H312.5z"/>
		<path class="st1" d="M318.6,957.3v4.2c0,1.1,0.7,1.1,2.2,1v1.7c-2.9,0.4-4.1-0.5-4.1-2.8v-4.2h-1.6v-1.8h1.6v-1.9l1.9-0.6v2.5h2.2
			v1.8H318.6z"/>
	</g>
	<g>
		<g>
			<g>
				<path class="st1" d="M846.1,938.7c0,2.1-1.5,3.8-3.6,3.8h-3v-7.6h3C844.6,934.9,846.1,936.6,846.1,938.7z M845.2,938.7
					c0-1.6-1.1-2.9-2.6-2.9h-2v5.7h2C844.1,941.6,845.2,940.3,845.2,938.7z"/>
			</g>
			<g>
				<path class="st1" d="M849.3,938.7c0-2.2,1.7-4,3.9-4c2.2,0,4,1.8,4,4c0,2.2-1.7,4-4,4C851,942.7,849.3,940.9,849.3,938.7z
					 M856.1,938.7c0-1.7-1.3-3-2.9-3c-1.7,0-2.9,1.3-2.9,3c0,1.7,1.3,3,2.9,3C854.9,941.7,856.1,940.4,856.1,938.7z"/>
			</g>
			<g>
				<path class="st1" d="M859.8,934.9h1.1l1.7,6.3l1.9-6.3h1l1.9,6.3l1.7-6.3h1.1l-2.2,7.6h-1.2l-1.8-6.1l-1.8,6.1H862L859.8,934.9z
					"/>
			</g>
			<g>
				<path class="st1" d="M879.3,934.9v7.6h-0.8l-3.9-5.7v5.7h-1v-7.6h0.8l3.9,5.7v-5.7H879.3z"/>
			</g>
			<g>
				<path class="st1" d="M887.5,941.6v1h-4.3v-7.6h1v6.7H887.5z"/>
			</g>
			<g>
				<path class="st1" d="M889.9,938.7c0-2.2,1.7-4,3.9-4c2.2,0,4,1.8,4,4c0,2.2-1.7,4-4,4C891.6,942.7,889.9,940.9,889.9,938.7z
					 M896.8,938.7c0-1.7-1.3-3-2.9-3c-1.7,0-2.9,1.3-2.9,3c0,1.7,1.3,3,2.9,3C895.5,941.7,896.8,940.4,896.8,938.7z"/>
			</g>
			<g>
				<path class="st1" d="M905.4,940.8H902l-0.6,1.7h-1.1l2.8-7.6h1.1l2.8,7.6H906L905.4,940.8z M905.1,939.9l-1.4-3.8l-1.4,3.8
					H905.1z"/>
			</g>
			<g>
				<path class="st1" d="M916.9,938.7c0,2.1-1.5,3.8-3.6,3.8h-3v-7.6h3C915.4,934.9,916.9,936.6,916.9,938.7z M915.9,938.7
					c0-1.6-1.1-2.9-2.6-2.9h-2v5.7h2C914.9,941.6,915.9,940.3,915.9,938.7z"/>
			</g>
			<g>
				<path class="st1" d="M926.5,935.8v2.5h3.2v1h-3.2v3.2h-1v-7.6h4.4v1H926.5z"/>
			</g>
			<g>
				<path class="st1" d="M936.2,939.6h-1.8v2.9h-1v-7.6h3c1.3,0,2.4,1.1,2.4,2.4c0,1-0.7,1.9-1.6,2.2l1.8,3.1h-1.1L936.2,939.6z
					 M934.4,938.7h2c0.8,0,1.4-0.6,1.4-1.4c0-0.8-0.6-1.4-1.4-1.4h-2V938.7z"/>
			</g>
			<g>
				<path class="st1" d="M941.9,938.7c0-2.2,1.7-4,3.9-4c2.2,0,4,1.8,4,4c0,2.2-1.7,4-4,4C943.6,942.7,941.9,940.9,941.9,938.7z
					 M948.8,938.7c0-1.7-1.3-3-2.9-3c-1.7,0-2.9,1.3-2.9,3c0,1.7,1.3,3,2.9,3C947.5,941.7,948.8,940.4,948.8,938.7z"/>
			</g>
			<g>
				<path class="st1" d="M960.4,942.5h-1v-6l-2.5,4.2h-0.1l-2.5-4.1v5.9h-1v-7.6h1.1l2.4,4l2.4-4h1.1V942.5z"/>
			</g>
		</g>
		<g>
			<g>
				<path class="st1" d="M839.3,952.9c0-0.7,0.5-1.2,1.2-1.2c0.7,0,1.2,0.5,1.2,1.2c0,0.7-0.5,1.2-1.2,1.2
					C839.9,954.1,839.3,953.6,839.3,952.9z M839.6,955.4h1.9v8.9h-1.9V955.4z"/>
			</g>
			<g>
				<path class="st1" d="M843.7,951.4h1.9v12.9h-1.9V951.4z"/>
			</g>
			<g>
				<path class="st1" d="M847.8,951.4h1.9v12.9h-1.9V951.4z"/>
			</g>
			<g>
				<path class="st1" d="M852,951.4h1.9v12.9H852V951.4z"/>
			</g>
			<g>
				<path class="st1" d="M864,955.4v8.9h-1.9v-1.1c-0.6,0.9-1.5,1.4-2.7,1.4c-2,0-3.4-1.3-3.4-3.6v-5.4h1.9v5.2c0,1.3,0.8,2.1,2,2.1
					c1.3,0,2.2-0.7,2.2-2.5v-4.7H864z"/>
			</g>
			<g>
				<path class="st1" d="M872.6,961.8c0,1.8-1.5,2.7-3.5,2.7c-1.8,0-3-0.8-3.6-2.1l1.6-1c0.3,0.8,1,1.3,2,1.3c0.8,0,1.5-0.3,1.5-1
					c0-1.6-4.8-0.7-4.8-3.9c0-1.7,1.4-2.7,3.2-2.7c1.5,0,2.7,0.7,3.3,1.8l-1.6,0.9c-0.3-0.7-0.9-1-1.7-1c-0.7,0-1.3,0.3-1.3,0.9
					C867.9,959.5,872.6,958.5,872.6,961.8z"/>
			</g>
			<g>
				<path class="st1" d="M876.7,957.3v4.2c0,1.1,0.7,1.1,2.2,1v1.7c-2.9,0.4-4.1-0.5-4.1-2.8v-4.2h-1.6v-1.8h1.6v-1.9l1.9-0.6v2.5
					h2.2v1.8H876.7z"/>
			</g>
			<g>
				<path class="st1" d="M885.4,955.3v2.1c-1.3-0.1-2.7,0.5-2.7,2.5v4.5h-1.9v-8.9h1.9v1.5C883.2,955.7,884.2,955.3,885.4,955.3z"/>
			</g>
			<g>
				<path class="st1" d="M895.3,955.4v8.9h-1.9V963c-0.7,0.9-1.7,1.5-3.1,1.5c-2.4,0-4.4-2-4.4-4.7c0-2.6,2-4.7,4.4-4.7
					c1.4,0,2.4,0.6,3.1,1.5v-1.3H895.3z M893.4,959.9c0-1.6-1.2-2.8-2.8-2.8c-1.6,0-2.8,1.2-2.8,2.8c0,1.6,1.2,2.8,2.8,2.8
					C892.2,962.7,893.4,961.5,893.4,959.9z"/>
			</g>
			<g>
				<path class="st1" d="M900.3,957.3v4.2c0,1.1,0.7,1.1,2.2,1v1.7c-2.9,0.4-4.1-0.5-4.1-2.8v-4.2h-1.6v-1.8h1.6v-1.9l1.9-0.6v2.5
					h2.2v1.8H900.3z"/>
			</g>
			<g>
				<path class="st1" d="M903.9,952.9c0-0.7,0.5-1.2,1.2-1.2c0.7,0,1.2,0.5,1.2,1.2c0,0.7-0.5,1.2-1.2,1.2
					C904.5,954.1,903.9,953.6,903.9,952.9z M904.2,955.4h1.9v8.9h-1.9V955.4z"/>
			</g>
			<g>
				<path class="st1" d="M907.8,959.9c0-2.6,2.1-4.7,4.7-4.7c2.6,0,4.7,2,4.7,4.7c0,2.6-2.1,4.7-4.7,4.7
					C909.9,964.5,907.8,962.5,907.8,959.9z M915.3,959.9c0-1.6-1.2-2.8-2.8-2.8c-1.6,0-2.8,1.2-2.8,2.8c0,1.6,1.2,2.8,2.8,2.8
					C914.1,962.7,915.3,961.5,915.3,959.9z"/>
			</g>
			<g>
				<path class="st1" d="M927,958.9v5.4h-1.9v-5.2c0-1.3-0.8-2.1-2-2.1c-1.3,0-2.2,0.7-2.2,2.5v4.7h-1.9v-8.9h1.9v1.1
					c0.6-0.9,1.5-1.4,2.7-1.4C925.5,955.2,927,956.6,927,958.9z"/>
			</g>
			<g>
				<path class="st1" d="M935.5,961.8c0,1.8-1.5,2.7-3.5,2.7c-1.8,0-3-0.8-3.6-2.1l1.6-1c0.3,0.8,1,1.3,2,1.3c0.8,0,1.5-0.3,1.5-1
					c0-1.6-4.8-0.7-4.8-3.9c0-1.7,1.4-2.7,3.2-2.7c1.5,0,2.7,0.7,3.3,1.8l-1.6,0.9c-0.3-0.7-0.9-1-1.7-1c-0.7,0-1.3,0.3-1.3,0.9
					C930.7,959.5,935.5,958.5,935.5,961.8z"/>
			</g>
			<g>
				<path class="st1" d="M936.8,963.2c0-0.7,0.6-1.3,1.3-1.3c0.7,0,1.3,0.6,1.3,1.3c0,0.7-0.6,1.3-1.3,1.3
					C937.4,964.5,936.8,963.9,936.8,963.2z"/>
			</g>
			<g>
				<path class="st1" d="M940.3,959.9c0-2.6,2-4.7,4.7-4.7c1.7,0,3.2,0.9,3.9,2.3l-1.6,1c-0.4-0.8-1.3-1.4-2.3-1.4
					c-1.6,0-2.7,1.2-2.7,2.8c0,1.6,1.2,2.8,2.7,2.8c1.1,0,1.9-0.5,2.4-1.4l1.6,0.9c-0.7,1.4-2.2,2.3-4,2.3
					C942.3,964.5,940.3,962.5,940.3,959.9z"/>
			</g>
			<g>
				<path class="st1" d="M949.7,959.9c0-2.6,2.1-4.7,4.7-4.7c2.6,0,4.7,2,4.7,4.7c0,2.6-2.1,4.7-4.7,4.7
					C951.8,964.5,949.7,962.5,949.7,959.9z M957.2,959.9c0-1.6-1.2-2.8-2.8-2.8s-2.8,1.2-2.8,2.8c0,1.6,1.2,2.8,2.8,2.8
					S957.2,961.5,957.2,959.9z"/>
			</g>
		</g>
	</g>
</g>
<path id="XMLID_7_" class="st2" d="M471.7,429.5v-87.7c0-8,6.4-14.4,14.4-14.4h0c8,0,14.4,6.4,14.4,14.4v101.4
	c0,13.8-11.2,24.9-24.9,24.9h0c-13.8,0-24.9-11.2-24.9-24.9V330.1c0-17.5,14.2-31.7,31.7-31.7h0c17.5,0,31.7,14.2,31.7,31.7v101.2"
	/>
<path id="XMLID_1_" class="st2" d="M539.4,591l27.1-83.4c2.5-7.6,10.6-11.7,18.1-9.2l0,0c7.6,2.5,11.7,10.6,9.2,18.1l-31.3,96.4
	c-4.3,13.1-18.3,20.3-31.4,16h0c-13.1-4.3-20.3-18.3-16-31.4L550.1,490c5.4-16.6,23.3-25.7,39.9-20.3l0,0
	c16.6,5.4,25.7,23.3,20.3,39.9l-31.3,96.2"/>
<path id="XMLID_28_" class="st3" d="M211.7,600.1h-41.6l1.7-9c1.1-6,6.4-10.3,12.5-10.3h13.3c6.1,0,11.3,4.3,12.5,10.3L211.7,600.1z
	"/>
<path id="XMLID_29_" class="st4" d="M209.5,604.5h-41.6l1.7-9c1.1-6,6.4-10.3,12.5-10.3h13.3c6.1,0,11.3,4.3,12.5,10.3L209.5,604.5z
	"/>
<path id="XMLID_8_" class="st5" d="M209.5,604.5h-41.6l1.7-9c1.1-6,6.4-10.3,12.5-10.3h13.3c6.1,0,11.3,4.3,12.5,10.3L209.5,604.5z"
	/>
<g>
	<g id="XMLID_27_" class="st6">
		<path id="XMLID_26_" class="st7" d="M335.6,616.2c-13.7-56.7-19.8-108.3-23-154.9c-0.6-9.4,3.3-18.3,10.1-24.5
			c5.2-4.7,8.5-10.9,8.5-16.9c0-10.8-10.9-22.6-24.5-24.4c-15.6-1.6-31.4-1.6-47,0c-13.7,1.8-24.5,13.7-24.5,24.4
			c0,5.9,3.3,12.1,8.5,16.9c6.8,6.2,10.7,15.1,10.1,24.5c-3.1,46.7-9.2,98.3-23,154.9"/>
		<path id="XMLID_25_" class="st8" d="M403.2,508.1H163l16.7,110.3h52.4v3.2c0,6.6,1.8,11.9,8.3,11.9h85.2c6.6,0,8.3-5.3,8.3-11.9
			v-3.2h52.4L403.2,508.1z"/>
	</g>
	<path id="XMLID_18_" class="st4" d="M390,494.3H149.8l16.7,110.3h48.9v3.2c0,6.6,5.3,11.9,11.9,11.9h85.2c6.6,0,11.9-5.3,11.9-11.9
		v-3.2h48.9L390,494.3z"/>
	<g id="XMLID_35_" class="st9">
		<path id="XMLID_38_" class="st10" d="M250.9,494.3c-3.7,37.7-9.7,78.3-20.3,121.9"/>
		<path id="XMLID_44_" class="st10" d="M333,605c-9-39.4-14.3-76.3-17.6-110.7"/>
	</g>
	<path id="XMLID_33_" class="st3" d="M314.2,613h-81.7c4-4.1,6.5-8.6,8.2-12.9c1.6-4.2,5.4-7.1,9.7-7.1h46c4.3,0,8,2.8,9.7,7.1
		C307.7,604.5,310.2,609,314.2,613z"/>
	<path id="XMLID_31_" class="st3" d="M373.2,600.1h-41.6l1.7-9c1.1-6,6.4-10.3,12.5-10.3H359c6.1,0,11.3,4.3,12.5,10.3L373.2,600.1z
		"/>
	<path id="XMLID_24_" class="st5" d="M322.4,602.3c-13.7-56.7-19.8-108.3-23-154.9c-0.6-9.4,3.3-18.3,10.1-24.5
		c5.2-4.7,8.5-10.9,8.5-16.9c0-10.8-10.9-22.6-24.5-24.4c-15.6-1.6-31.4-1.6-47,0c-13.7,1.8-24.5,13.7-24.5,24.4
		c0,5.9,3.3,12.1,8.5,16.9c6.8,6.2,10.7,15.1,10.1,24.5c-3.1,46.7-9.2,98.3-23,154.9"/>
	<path id="XMLID_30_" class="st4" d="M373,604.5h-41.6l1.7-9c1.1-6,6.4-10.3,12.5-10.3h13.3c6.1,0,11.3,4.3,12.5,10.3L373,604.5z"/>
	<path id="XMLID_6_" class="st5" d="M373,604.5h-41.6l1.7-9c1.1-6,6.4-10.3,12.5-10.3h13.3c6.1,0,11.3,4.3,12.5,10.3L373,604.5z"/>
	<path id="XMLID_13_" class="st5" d="M315.3,494.3H149.8l16.7,110.3h52.4v3.2c0,6.6,1.8,11.9,8.3,11.9h85.2c6.6,0,8.3-5.3,8.3-11.9
		v-3.2h52.4L390,494.3H315.3"/>
	<path id="XMLID_34_" class="st4" d="M309.8,619.7h-81.7c4-4.1,6.5-8.6,8.2-12.9c1.6-4.2,5.4-7.1,9.7-7.1h46c4.3,0,8,2.8,9.7,7.1
		C303.3,611.1,305.8,615.6,309.8,619.7z"/>
	<path id="XMLID_2_" class="st5" d="M309.8,619.7h-81.7c4-4.1,6.5-8.6,8.2-12.9c1.6-4.2,5.4-7.1,9.7-7.1h46c4.3,0,8,2.8,9.7,7.1
		C303.3,611.1,305.8,615.6,309.8,619.7z"/>
</g>
<path id="XMLID_15_" class="st11" d="M462.9,418.5v-87.7c0-8,6.4-14.4,14.4-14.4h0c8,0,14.4,6.4,14.4,14.4v101.4
	c0,13.8-11.2,24.9-24.9,24.9h0c-13.8,0-24.9-11.2-24.9-24.9V319c0-17.5,14.2-31.7,31.7-31.7h0c17.5,0,31.7,14.2,31.7,31.7v101.2"/>
<path id="XMLID_17_" class="st11" d="M530.6,580l27.1-83.4c2.5-7.6,10.6-11.7,18.1-9.2h0c7.6,2.5,11.7,10.6,9.2,18.1l-31.3,96.4
	c-4.3,13.1-18.3,20.3-31.4,16h0c-13.1-4.3-20.3-18.3-16-31.4l34.9-107.6c5.4-16.6,23.3-25.7,39.9-20.3l0,0
	c16.6,5.4,25.7,23.3,20.3,39.9l-31.3,96.2"/>
<g>
	<g id="XMLID_16_" class="st6">
		<path id="XMLID_23_" class="st8" d="M804.8,435.1c8.4-7.9,17.8-20,19.5-31.1h-95c1.7,11.1,11.1,23.1,19.5,31.1
			c2.8,2.6-3.9,60-9.2,62.8c-18.8,10.1-34,27.9-42,49.9H856c-8-22-23.2-39.8-42-49.9C808.7,495.1,802,437.8,804.8,435.1z"/>
		<polygon id="XMLID_20_" class="st8" points="789.8,547.9 763.8,547.9 776.8,643 		"/>
	</g>
	<path id="XMLID_22_" class="st12" d="M781.8,425.3c8.4-7.9,17.8-20,19.5-31.1h-95c1.7,11.1,11.1,23.1,19.5,31.1
		c2.8,2.6-3.9,60-9.2,62.8c-18.8,10.1-34,27.9-42,49.9H833c-8-22-23.2-39.8-42-49.9C785.7,485.3,779,427.9,781.8,425.3z"/>
	<path id="XMLID_4_" class="st12" d="M781.8,425.3c8.4-7.9,17.8-20,19.5-31.1h-95c1.7,11.1,11.1,23.1,19.5,31.1
		c2.8,2.6-3.9,60-9.2,62.8c-18.8,10.1-34,27.9-42,49.9H833c-8-22-23.2-39.8-42-49.9C785.7,485.3,779,427.9,781.8,425.3z"/>
	<path id="XMLID_11_" class="st12" d="M791,488.1c-5.3-2.9-12-60.2-9.2-62.8c8.4-7.9,17.8-20,19.5-31.1h-7.7
		c-1.7,11.1-11.1,23.1-19.5,31.1c-2.8,2.6,3.9,60,9.2,62.8c18.8,10.1,34,27.9,42,49.9h7.7C824.9,516,809.8,498.3,791,488.1z"/>
	<path id="XMLID_32_" class="st13" d="M743.6,394.2c-14.3,0-14.3,0-14.3,0s-4.5,16.7,11.5,27.2l-5.3,69c0,0-25.2,15.4-27.8,47.7
		h18.8c0,0-0.4-32.3,16.6-47.1l3-69.5C746,421.4,738.9,408.5,743.6,394.2z"/>
	<polygon id="XMLID_21_" class="st14" points="766.8,538.1 740.8,538.1 753.8,633.2 	"/>
	<g id="XMLID_5_">
		<path id="XMLID_14_" class="st5" d="M781.8,425.3c8.4-7.9,17.8-20,19.5-31.1h-95c1.7,11.1,11.1,23.1,19.5,31.1
			c2.8,2.6-3.9,60-9.2,62.8c-18.8,10.1-34,27.9-42,49.9H833c-8-22-23.2-39.8-42-49.9C785.7,485.3,779,427.9,781.8,425.3z"/>
		<polygon id="XMLID_19_" class="st5" points="766.8,538.1 740.8,538.1 753.8,633.2 		"/>
	</g>
</g>
</svg>
