<svg xmlns="http://www.w3.org/2000/svg" viewBox="0 0 1001 1003"><title>112-installing</title><g style="isolation:isolate"><rect x="0.5" y="0.5" width="1000" height="1000" style="fill:#028b9e;stroke:#1e223b;stroke-miterlimit:10"/><g style="opacity:0.39"><circle cx="178.133" cy="460.724" r="20.388" style="fill:#fff"/><circle cx="178.133" cy="460.724" r="8.738" style="fill:#fff"/><path d="M209.378,430.976l-12.612,7.282.019.032a29.053,29.053,0,0,0-2.907-2.232l.034.01L197.681,422a4.37,4.37,0,0,0-3.089-5.351l-9.847-2.638a4.369,4.369,0,0,0-5.35,3.089l-3.769,14.067.021,0a29.07,29.07,0,0,0-3.6.474l.016-.01-7.281-12.611a4.368,4.368,0,0,0-5.968-1.6l-8.828,5.1a4.367,4.367,0,0,0-1.6,5.967l7.281,12.612.016-.009a29.1,29.1,0,0,0-2.212,2.884l.006-.02-14.067-3.77a4.369,4.369,0,0,0-5.35,3.09l-2.639,9.846a4.37,4.37,0,0,0,3.09,5.351l14.066,3.769.009-.034a28.96,28.96,0,0,0,.479,3.633l-.018-.032-12.612,7.281a4.37,4.37,0,0,0-1.6,5.968l5.1,8.828a4.368,4.368,0,0,0,5.968,1.6l12.611-7.281-.028-.048a29.064,29.064,0,0,0,2.944,2.255l-.061-.016-3.769,14.066a4.369,4.369,0,0,0,3.089,5.351l9.847,2.638a4.369,4.369,0,0,0,5.35-3.089l3.769-14.067-.074-.02a28.663,28.663,0,0,0,3.706-.487l-.065.038,7.282,12.611a4.368,4.368,0,0,0,5.968,1.6l8.828-5.1a4.369,4.369,0,0,0,1.6-5.967l-7.281-12.612-.065.037a28.875,28.875,0,0,0,2.275-2.966l-.02.074,14.066,3.77a4.369,4.369,0,0,0,5.351-3.09l2.638-9.846a4.368,4.368,0,0,0-3.089-5.351L206.7,458.22l-.017.061a28.938,28.938,0,0,0-.481-3.677l.028.049,12.612-7.281a4.37,4.37,0,0,0,1.6-5.968l-5.1-8.828A4.369,4.369,0,0,0,209.378,430.976Z" transform="translate(0.5 0.5)" style="fill:#fff"/></g><circle cx="302.744" cy="222.858" r="51.548" style="fill:#fff;opacity:0.39"/><polygon points="302.036 223.418 329.883 207.236 329.797 237.509 301.95 253.692 302.036 223.418" style="fill:none;stroke:#1e223b;stroke-linecap:round;stroke-linejoin:round;stroke-width:2px"/><polygon points="275.69 208.208 303.537 192.025 329.883 207.236 302.036 223.418 275.69 208.208" style="fill:none;stroke:#1e223b;stroke-linecap:round;stroke-linejoin:round;stroke-width:2px"/><polygon points="275.69 208.208 303.537 192.025 329.883 207.236 302.036 223.418 275.69 208.208" style="fill:#028b9e;stroke:#1e223b;stroke-linecap:round;stroke-linejoin:round;stroke-width:2px"/><polygon points="302.036 223.418 301.95 253.692 275.604 238.481 275.69 208.208 302.036 223.418" style="fill:#028b9e;stroke:#1e223b;stroke-linecap:round;stroke-linejoin:round;stroke-width:2px;opacity:0.4"/><polygon points="302.036 223.418 301.95 253.692 275.604 238.481 275.69 208.208 302.036 223.418" style="fill:none;stroke:#1e223b;stroke-linecap:round;stroke-linejoin:round;stroke-width:2px"/><circle cx="302.744" cy="222.858" r="51.548" style="fill:none;stroke:#1e223b;stroke-linecap:round;stroke-linejoin:round;stroke-width:2px"/><rect x="361.5" y="623.737" width="318" height="238" rx="18" style="fill:#161616;stroke:#1e223b;stroke-miterlimit:10;opacity:0.11;mix-blend-mode:multiply"/><rect x="361.5" y="609.737" width="318" height="14" rx="7" style="fill:#161616;stroke:#1e223b;stroke-miterlimit:10;opacity:0.11;mix-blend-mode:multiply"/><rect x="351.5" y="615.737" width="318" height="238" rx="18" style="fill:#2f4584"/><rect x="351.5" y="615.737" width="318" height="232" rx="18" style="fill:#fff"/><path d="M557.5,833.066H556a6,6,0,0,0-6,6v7.172a3,3,0,0,1-6,0v-7.172a6,6,0,0,0-6-6h-1.5a6,6,0,0,0-6,6v7.172a3,3,0,0,1-6,0v-7.172a6,6,0,0,0-6-6H517a6,6,0,0,0-6,6v7.172a3,3,0,0,1-6,0v-45a6,6,0,0,0-6-6h-1.5a6,6,0,0,0-6,6v78.433l-11.508-19.933a6,6,0,0,0-8.2-2.2l-1.3.75a6,6,0,0,0-2.2,8.2l24.044,41.645a12,12,0,0,0,11.156,7.6h2v24.653h-3.949v24.866H499.61a6.486,6.486,0,0,0-6.486,6.486V1002h68.757V971.738a6.486,6.486,0,0,0-6.486-6.486h-1.943V940.386H549.5V915.733h2a12,12,0,0,0,12-12V839.066A6,6,0,0,0,557.5,833.066Z" transform="translate(0.5 0.5)" style="fill:#161616;stroke:#1e223b;stroke-miterlimit:10;opacity:0.11;mix-blend-mode:multiply"/><path d="M442.564,829.237a12,12,0,0,0,11.947-10.93l22.121-38.315a6,6,0,0,0-2.2-8.2l-1.3-.75a6,6,0,0,0-8.2,2.2l-10.375,17.971V714.741a6,6,0,0,0-6-6h-1.5a6,6,0,0,0-6,6v45a3,3,0,0,1-6,0V706.047a6,6,0,0,0-6-6h-1.5a6,6,0,0,0-6,6v53.695a3,3,0,0,1-6,0v-45a6,6,0,0,0-6-6h-1.5a6,6,0,0,0-6,6v45a3,3,0,0,1-6,0v-30.75a6,6,0,0,0-6-6h-1.5a6,6,0,0,0-6,6v88.245a12,12,0,0,0,12,12h2.58V853.89h-4.529v24.865h-1.943a6.487,6.487,0,0,0-6.487,6.487V1002h68.758V885.242a6.487,6.487,0,0,0-6.487-6.487h-1.943V853.89h-3.369V829.237Z" transform="translate(0.5 0.5)" style="fill:#161616;stroke:#1e223b;stroke-miterlimit:10;opacity:0.11;mix-blend-mode:multiply"/><rect x="366" y="633.237" width="289" height="121" rx="4" style="fill:#1e223b;stroke:#1e223b;stroke-miterlimit:11;stroke-width:2px;opacity:0.15"/><rect x="351.5" y="615.737" width="318" height="232" rx="18" style="fill:none;stroke:#1e223b;stroke-linecap:round;stroke-linejoin:round;stroke-width:2px"/><rect x="351.5" y="615.737" width="318" height="238" rx="18" style="fill:none;stroke:#1e223b;stroke-linecap:round;stroke-linejoin:round;stroke-width:2px"/><rect x="351.5" y="383.737" width="318" height="232" rx="18" style="fill:#2f4584"/><rect x="351.5" y="383.737" width="318" height="232" rx="18" style="fill:none;stroke:#1e223b;stroke-linecap:round;stroke-linejoin:round;stroke-width:2px"/><rect x="400" y="346.237" width="220" height="306" rx="12" transform="translate(1009.738 -10.263) rotate(90)" style="fill:#fff"/><rect x="424" y="370.237" width="172" height="258" transform="translate(1009.738 -10.263) rotate(90)" style="fill:#ff5855;stroke:#1e223b;stroke-miterlimit:10"/><rect x="400" y="346.237" width="220" height="306" rx="12" transform="translate(1009.738 -10.263) rotate(90)" style="fill:none;stroke:#1e223b;stroke-linecap:round;stroke-linejoin:round;stroke-width:2px"/><rect x="424" y="370.237" width="172" height="258" transform="translate(1009.738 -10.263) rotate(90)" style="fill:none;stroke:#1e223b;stroke-linecap:round;stroke-linejoin:round;stroke-width:2px"/><g style="opacity:0.1"><rect x="467.5" y="763.737" width="86" height="60" rx="4.25" style="fill:#1e223b"/></g><rect x="467.5" y="763.737" width="86" height="60" rx="4.25" style="fill:none;stroke:#1e223b;stroke-linecap:round;stroke-linejoin:round;stroke-width:2px"/><rect x="473" y="845.737" width="76" height="8" style="fill:#263c72"/><rect x="473" y="845.737" width="76" height="8" style="fill:none;stroke:#1e223b;stroke-linecap:round;stroke-linejoin:round;stroke-width:2px"/><rect x="417.5" y="359.737" width="200" height="224" rx="6" style="fill:#161616;stroke:#1e223b;stroke-miterlimit:10;opacity:0.11;mix-blend-mode:multiply"/><rect x="412" y="355.737" width="200" height="224" rx="6" style="fill:#fff"/><path d="M412,545.737H612a0,0,0,0,1,0,0v28a6,6,0,0,1-6,6H418a6,6,0,0,1-6-6v-28A0,0,0,0,1,412,545.737Z" style="fill:#efefef"/><rect x="412" y="355.737" width="200" height="224" rx="6" style="fill:none;stroke:#1e223b;stroke-linecap:round;stroke-linejoin:round;stroke-width:2px"/><path d="M417.427,355.737H606.573A5.427,5.427,0,0,1,612,361.165v12.573a0,0,0,0,1,0,0H412a0,0,0,0,1,0,0V361.165A5.427,5.427,0,0,1,417.427,355.737Z" style="fill:#363d56"/><path d="M417.427,355.737H606.573A5.427,5.427,0,0,1,612,361.165v12.573a0,0,0,0,1,0,0H412a0,0,0,0,1,0,0V361.165A5.427,5.427,0,0,1,417.427,355.737Z" style="fill:none;stroke:#1e223b;stroke-linecap:round;stroke-linejoin:round;stroke-width:2px"/><rect x="412" y="373.737" width="200" height="8" style="fill:#424960"/><rect x="412" y="373.737" width="200" height="8" style="fill:none;stroke:#1e223b;stroke-linecap:round;stroke-linejoin:round;stroke-width:2px"/><circle cx="423.167" cy="364.737" r="3" style="fill:#f73e39"/><circle cx="423.167" cy="364.737" r="3" style="fill:none;stroke:#1e223b;stroke-linecap:round;stroke-linejoin:round;stroke-width:2px"/><circle cx="435.435" cy="364.737" r="3" style="fill:#383838"/><circle cx="435.435" cy="364.737" r="3" style="fill:none;stroke:#1e223b;stroke-linecap:round;stroke-linejoin:round;stroke-width:2px"/><circle cx="446.662" cy="364.737" r="3" style="fill:#c6c6c6"/><circle cx="446.662" cy="364.737" r="3" style="fill:none;stroke:#1e223b;stroke-linecap:round;stroke-linejoin:round;stroke-width:2px"/><rect x="460.5" y="361.737" width="68" height="6" rx="3" style="fill:#8289a3;opacity:0.28"/><circle cx="178.133" cy="460.724" r="20.388" style="fill:none;stroke:#1e223b;stroke-linecap:round;stroke-linejoin:round;stroke-width:2px"/><circle cx="178.133" cy="460.724" r="8.738" style="fill:none;stroke:#1e223b;stroke-linecap:round;stroke-linejoin:round;stroke-width:2px"/><path d="M209.378,430.976l-12.612,7.282.019.032a29.053,29.053,0,0,0-2.907-2.232l.034.01L197.681,422a4.37,4.37,0,0,0-3.089-5.351l-9.847-2.638a4.369,4.369,0,0,0-5.35,3.089l-3.769,14.067.021,0a29.07,29.07,0,0,0-3.6.474l.016-.01-7.281-12.611a4.368,4.368,0,0,0-5.968-1.6l-8.828,5.1a4.367,4.367,0,0,0-1.6,5.967l7.281,12.612.016-.009a29.1,29.1,0,0,0-2.212,2.884l.006-.02-14.067-3.77a4.369,4.369,0,0,0-5.35,3.09l-2.639,9.846a4.37,4.37,0,0,0,3.09,5.351l14.066,3.769.009-.034a28.96,28.96,0,0,0,.479,3.633l-.018-.032-12.612,7.281a4.37,4.37,0,0,0-1.6,5.968l5.1,8.828a4.368,4.368,0,0,0,5.968,1.6l12.611-7.281-.028-.048a29.064,29.064,0,0,0,2.944,2.255l-.061-.016-3.769,14.066a4.369,4.369,0,0,0,3.089,5.351l9.847,2.638a4.369,4.369,0,0,0,5.35-3.089l3.769-14.067-.074-.02a28.663,28.663,0,0,0,3.706-.487l-.065.038,7.282,12.611a4.368,4.368,0,0,0,5.968,1.6l8.828-5.1a4.369,4.369,0,0,0,1.6-5.967l-7.281-12.612-.065.037a28.875,28.875,0,0,0,2.275-2.966l-.02.074,14.066,3.77a4.369,4.369,0,0,0,5.351-3.09l2.638-9.846a4.368,4.368,0,0,0-3.089-5.351L206.7,458.22l-.017.061a28.938,28.938,0,0,0-.481-3.677l.028.049,12.612-7.281a4.37,4.37,0,0,0,1.6-5.968l-5.1-8.828A4.369,4.369,0,0,0,209.378,430.976Z" transform="translate(0.5 0.5)" style="fill:none;stroke:#1e223b;stroke-linecap:round;stroke-linejoin:round;stroke-width:2px"/><g style="opacity:0.32"><circle cx="451.942" cy="415.293" r="7.72" style="fill:none;stroke:#1e223b;stroke-linecap:round;stroke-linejoin:round"/><circle cx="451.942" cy="415.293" r="3.309" style="fill:none;stroke:#1e223b;stroke-linecap:round;stroke-linejoin:round"/><path d="M467.774,415.461l-5.327-1.427,0,.014a10.855,10.855,0,0,0-.18-1.376l.006.011,4.776-2.757a1.654,1.654,0,0,0,.6-2.26l-1.93-3.342a1.653,1.653,0,0,0-2.259-.606l-4.776,2.757,0,.007a10.927,10.927,0,0,0-1.092-.838l.007,0,1.427-5.327a1.654,1.654,0,0,0-1.169-2.026l-3.729-1a1.655,1.655,0,0,0-2.026,1.17l-1.427,5.326.007,0a11.054,11.054,0,0,0-1.365.18l.007,0-2.757-4.775a1.655,1.655,0,0,0-2.26-.606l-3.343,1.93a1.655,1.655,0,0,0-.605,2.26l2.757,4.776.011-.007a11.1,11.1,0,0,0-.844,1.1l0-.014-5.326-1.427a1.654,1.654,0,0,0-2.026,1.17l-1,3.728a1.655,1.655,0,0,0,1.17,2.027l5.326,1.427.006-.021a10.929,10.929,0,0,0,.184,1.392l-.012-.02-4.776,2.757a1.654,1.654,0,0,0-.605,2.26l1.93,3.342a1.654,1.654,0,0,0,2.26.606l4.775-2.757-.014-.025a10.861,10.861,0,0,0,1.122.861l-.027-.007-1.427,5.327a1.654,1.654,0,0,0,1.17,2.026l3.728,1a1.655,1.655,0,0,0,2.026-1.17L452.2,425.8l-.027-.007a10.9,10.9,0,0,0,1.4-.185l-.025.015,2.757,4.775a1.655,1.655,0,0,0,2.26.606l3.343-1.93a1.655,1.655,0,0,0,.605-2.26l-2.757-4.776-.02.012a10.978,10.978,0,0,0,.855-1.113l0,.02,5.326,1.428a1.655,1.655,0,0,0,2.026-1.17l1-3.729A1.654,1.654,0,0,0,467.774,415.461Z" transform="translate(0.5 0.5)" style="fill:none;stroke:#1e223b;stroke-linecap:round;stroke-linejoin:round"/></g><g style="opacity:0.49"><circle cx="832.171" cy="251.63" r="19.096" style="fill:#fff"/><circle cx="832.171" cy="251.63" r="8.184" style="fill:#fff"/><path d="M861.405,223.736l-11.813,6.82.018.03a27.136,27.136,0,0,0-2.723-2.09l.032.009,3.53-13.176a4.092,4.092,0,0,0-2.893-5.011l-9.223-2.471a4.092,4.092,0,0,0-5.012,2.893l-3.53,13.175.02.006a27.109,27.109,0,0,0-3.376.443l.015-.009-6.82-11.812a4.093,4.093,0,0,0-5.59-1.5l-8.269,4.774a4.092,4.092,0,0,0-1.5,5.59l6.82,11.812.015-.009a27.076,27.076,0,0,0-2.072,2.7l0-.019-13.175-3.531a4.093,4.093,0,0,0-5.012,2.894l-2.471,9.223a4.092,4.092,0,0,0,2.894,5.011l13.175,3.53.008-.031a27.174,27.174,0,0,0,.449,3.4l-.017-.03-11.813,6.82a4.091,4.091,0,0,0-1.5,5.589l4.774,8.269a4.093,4.093,0,0,0,5.59,1.5l11.812-6.82-.026-.046a27.08,27.08,0,0,0,2.757,2.113l-.057-.016-3.53,13.176a4.091,4.091,0,0,0,2.893,5.011l9.223,2.471a4.092,4.092,0,0,0,5.012-2.893l3.53-13.175-.069-.019a26.958,26.958,0,0,0,3.47-.456l-.06.035,6.82,11.812a4.092,4.092,0,0,0,5.59,1.5l8.268-4.774a4.091,4.091,0,0,0,1.5-5.59l-6.82-11.812-.06.035a27.1,27.1,0,0,0,2.13-2.778l-.018.069,13.175,3.531a4.093,4.093,0,0,0,5.012-2.894l2.471-9.222a4.093,4.093,0,0,0-2.894-5.012l-13.175-3.53-.015.057a27.058,27.058,0,0,0-.451-3.444l.026.045,11.813-6.82a4.091,4.091,0,0,0,1.5-5.589L867,225.234A4.093,4.093,0,0,0,861.405,223.736Z" transform="translate(0.5 0.5)" style="fill:#fff"/></g><circle cx="832.178" cy="251.629" r="19.096" style="fill:none;stroke:#1e223b;stroke-linecap:round;stroke-linejoin:round;stroke-width:2px"/><circle cx="832.178" cy="251.629" r="8.184" style="fill:none;stroke:#1e223b;stroke-linecap:round;stroke-linejoin:round;stroke-width:2px"/><path d="M872.073,252.784l-13.175-3.53-.009.033a27.165,27.165,0,0,0-.447-3.4l.016.028,11.813-6.82a4.091,4.091,0,0,0,1.5-5.589L867,225.234a4.093,4.093,0,0,0-5.59-1.5l-11.813,6.82.01.018a26.869,26.869,0,0,0-2.7-2.074l.017,0,3.53-13.176a4.092,4.092,0,0,0-2.894-5.011l-9.222-2.471a4.092,4.092,0,0,0-5.012,2.893l-3.53,13.175.017,0a27.084,27.084,0,0,0-3.376.445l.018-.01-6.82-11.812a4.093,4.093,0,0,0-5.59-1.5l-8.269,4.774a4.092,4.092,0,0,0-1.5,5.59l6.82,11.812.028-.016a27.189,27.189,0,0,0-2.089,2.723l.009-.033-13.175-3.531a4.093,4.093,0,0,0-5.012,2.894l-2.471,9.222a4.093,4.093,0,0,0,2.893,5.012l13.176,3.53.013-.05a27.229,27.229,0,0,0,.456,3.443l-.029-.051-11.813,6.82a4.091,4.091,0,0,0-1.5,5.589l4.774,8.269a4.093,4.093,0,0,0,5.59,1.5l11.812-6.82-.035-.062a26.977,26.977,0,0,0,2.777,2.131l-.068-.018-3.53,13.175a4.092,4.092,0,0,0,2.893,5.012l9.223,2.471a4.09,4.09,0,0,0,5.011-2.893l3.531-13.175-.068-.018a27.1,27.1,0,0,0,3.471-.458l-.062.036,6.82,11.812a4.091,4.091,0,0,0,5.59,1.5l8.268-4.774a4.091,4.091,0,0,0,1.5-5.59l-6.82-11.812-.051.03a27.068,27.068,0,0,0,2.116-2.755l-.013.051,13.175,3.531a4.093,4.093,0,0,0,5.012-2.894l2.471-9.222A4.093,4.093,0,0,0,872.073,252.784Z" transform="translate(0.5 0.5)" style="fill:none;stroke:#1e223b;stroke-linecap:round;stroke-linejoin:round;stroke-width:2px"/><path d="M586.97,252.788h-26.2L533.43,271.015V252.788H514.064a9.113,9.113,0,0,1-9.113-9.113V193.552a9.113,9.113,0,0,1,9.113-9.113H586.97a9.113,9.113,0,0,1,9.114,9.113v50.123A9.113,9.113,0,0,1,586.97,252.788Z" transform="translate(0.5 0.5)" style="fill:#fff"/><path d="M586.97,252.788h-26.2L533.43,271.015V252.788H514.064a9.113,9.113,0,0,1-9.113-9.113V193.552a9.113,9.113,0,0,1,9.113-9.113H586.97a9.113,9.113,0,0,1,9.114,9.113v50.123A9.113,9.113,0,0,1,586.97,252.788Z" transform="translate(0.5 0.5)" style="fill:none;stroke:#1e223b;stroke-linecap:round;stroke-linejoin:round;stroke-width:2px"/><path d="M587.9,175.157h16.966l17.7,11.8v-11.8H635.1a5.9,5.9,0,0,0,5.9-5.9V136.8a5.9,5.9,0,0,0-5.9-5.9H587.9a5.9,5.9,0,0,0-5.9,5.9v32.455A5.9,5.9,0,0,0,587.9,175.157Z" transform="translate(0.5 0.5)" style="fill:#fff;opacity:0.5"/><path d="M587.9,175.157h16.966l17.7,11.8v-11.8H635.1a5.9,5.9,0,0,0,5.9-5.9V136.8a5.9,5.9,0,0,0-5.9-5.9H587.9a5.9,5.9,0,0,0-5.9,5.9v32.455A5.9,5.9,0,0,0,587.9,175.157Z" transform="translate(0.5 0.5)" style="fill:none;stroke:#1e223b;stroke-linecap:round;stroke-linejoin:round;stroke-width:2px"/><path d="M649.464,811.47a13.232,13.232,0,1,1-13.232-13.233A13.232,13.232,0,0,1,649.464,811.47Z" transform="translate(0.5 0.5)" style="fill:#dd4814"/><path d="M627.234,809.7A1.767,1.767,0,1,0,629,811.47,1.767,1.767,0,0,0,627.234,809.7Zm12.614,8.029a1.766,1.766,0,1,0,2.412.647A1.767,1.767,0,0,0,639.848,817.732Zm-8.776-6.263a5.15,5.15,0,0,1,2.194-4.221l-1.292-2.164a7.683,7.683,0,0,0-3.173,4.462,2.481,2.481,0,0,1,0,3.847,7.683,7.683,0,0,0,3.173,4.462l1.292-2.164A5.15,5.15,0,0,1,631.072,811.469Zm5.16-5.16a5.16,5.16,0,0,1,5.139,4.7l2.518-.037a7.654,7.654,0,0,0-2.28-4.978,2.482,2.482,0,0,1-3.327-1.923,7.672,7.672,0,0,0-5.451.516l1.227,2.2A5.147,5.147,0,0,1,636.232,806.309Zm0,10.321a5.147,5.147,0,0,1-2.174-.48l-1.227,2.2a7.677,7.677,0,0,0,5.451.515,2.482,2.482,0,0,1,3.327-1.923,7.654,7.654,0,0,0,2.28-4.978l-2.518-.037A5.159,5.159,0,0,1,636.232,816.63Zm3.616-11.423a1.766,1.766,0,1,0-.647-2.413A1.765,1.765,0,0,0,639.848,805.207Z" transform="translate(0.5 0.5)" style="fill:#fff"/><polygon points="193.132 692.759 221.189 676.453 221.103 706.956 193.045 723.261 193.132 692.759" style="fill:#777bb4"/><polygon points="193.132 692.759 221.189 676.453 221.103 706.956 193.045 723.261 193.132 692.759" style="fill:none;stroke:#1e223b;stroke-linecap:round;stroke-linejoin:round;stroke-width:2px"/><polygon points="166.587 677.433 194.644 661.127 221.189 676.453 193.132 692.759 166.587 677.433" style="fill:#ff5855;stroke:#1e223b;stroke-miterlimit:10;opacity:0.88"/><polygon points="193.132 692.759 193.045 723.261 166.5 707.935 166.587 677.433 193.132 692.759" style="fill:#0270bb"/><polygon points="166.587 677.433 194.644 661.127 221.189 676.453 193.132 692.759 166.587 677.433" style="fill:none;stroke:#1e223b;stroke-linecap:round;stroke-linejoin:round;stroke-width:2px"/><polygon points="193.132 692.759 193.045 723.261 166.5 707.935 166.587 677.433 193.132 692.759" style="fill:none;stroke:#1e223b;stroke-linecap:round;stroke-linejoin:round;stroke-width:2px"/><circle cx="172.545" cy="643.737" r="6" style="fill:#fff;opacity:0.59"/><circle cx="172.545" cy="643.737" r="6" style="fill:none;stroke:#1e223b;stroke-linecap:round;stroke-linejoin:round;stroke-width:2px"/><circle cx="193.045" cy="643.737" r="6" style="fill:#fff;opacity:0.59"/><circle cx="193.045" cy="643.737" r="6" style="fill:none;stroke:#1e223b;stroke-linecap:round;stroke-linejoin:round;stroke-width:2px"/><circle cx="213.545" cy="643.737" r="6" style="fill:#fff;opacity:0.59"/><circle cx="897.25" cy="520.99" r="39.5" style="fill:#fff;opacity:0.32"/><circle cx="213.545" cy="643.737" r="6" style="fill:none;stroke:#1e223b;stroke-linecap:round;stroke-linejoin:round;stroke-width:2px"/><polygon points="897.792 521.419 876.454 509.019 876.519 532.217 897.858 544.617 897.792 521.419" style="fill:#0270bb;opacity:0.12"/><polygon points="897.792 521.419 876.454 509.019 876.519 532.217 897.858 544.617 897.792 521.419" style="fill:none;stroke:#1e223b;stroke-linecap:round;stroke-linejoin:round;stroke-width:2px"/><polygon points="917.98 509.764 896.642 497.363 876.454 509.019 897.792 521.419 917.98 509.764" style="fill:#0270bb;opacity:0.47000000000000003"/><polygon points="917.98 509.764 896.642 497.363 876.454 509.019 897.792 521.419 917.98 509.764" style="fill:none;stroke:#1e223b;stroke-linecap:round;stroke-linejoin:round;stroke-width:2px"/><polygon points="897.792 521.419 897.858 544.617 918.046 532.962 917.98 509.764 897.792 521.419" style="fill:#fff;stroke:#1e223b;stroke-linecap:round;stroke-linejoin:round;stroke-width:2px"/><polygon points="897.792 521.419 897.858 544.617 918.046 532.962 917.98 509.764 897.792 521.419" style="fill:none;stroke:#1e223b;stroke-linecap:round;stroke-linejoin:round;stroke-width:2px"/><circle cx="897.25" cy="520.99" r="39.5" style="fill:none;stroke:#1e223b;stroke-linecap:round;stroke-linejoin:round;stroke-width:2px"/><rect x="698.509" y="274.479" width="113.356" height="59.443" rx="11.889" style="fill:#777bb4"/><rect x="698.509" y="274.479" width="113.356" height="59.443" rx="11.889" style="fill:none;stroke:#1e223b;stroke-linecap:round;stroke-linejoin:round;stroke-width:2px"/><rect x="796.602" y="545.49" width="88.078" height="45.209" rx="9.042" style="fill:#0270bb"/><rect x="796.602" y="545.49" width="88.078" height="45.209" rx="9.042" style="fill:none;stroke:#1e223b;stroke-linecap:round;stroke-linejoin:round;stroke-width:2px"/><path d="M809.684,567.321c0-6.462,4.8-10.823,10.979-10.823a9.382,9.382,0,0,1,8.376,4.674l-3.106,1.631a6.183,6.183,0,0,0-5.27-3.043c-4.14,0-7.215,3.137-7.215,7.561,0,4.36,3.075,7.559,7.215,7.559a6.254,6.254,0,0,0,5.27-3.043l3.137,1.569a9.556,9.556,0,0,1-8.407,4.737C814.483,578.143,809.684,573.751,809.684,567.321Z" transform="translate(0.5 0.5)" style="fill:#fff"/><path d="M832.988,574.817l2.071-2.854a8.983,8.983,0,0,0,6.619,2.917c3.011,0,4.172-1.474,4.172-2.886,0-4.392-12.172-1.662-12.172-9.347,0-3.483,3.012-6.149,7.624-6.149a10.829,10.829,0,0,1,7.811,2.949l-2.071,2.728a8.533,8.533,0,0,0-6.086-2.415c-2.133,0-3.513,1.067-3.513,2.6,0,3.922,12.171,1.506,12.171,9.286,0,3.482-2.478,6.493-8.093,6.493A11.438,11.438,0,0,1,832.988,574.817Z" transform="translate(0.5 0.5)" style="fill:#fff"/><path d="M853.972,574.817l2.071-2.854a8.985,8.985,0,0,0,6.619,2.917c3.011,0,4.172-1.474,4.172-2.886,0-4.392-12.172-1.662-12.172-9.347,0-3.483,3.012-6.149,7.624-6.149a10.829,10.829,0,0,1,7.811,2.949l-2.071,2.728a8.533,8.533,0,0,0-6.086-2.415c-2.133,0-3.513,1.067-3.513,2.6,0,3.922,12.171,1.506,12.171,9.286,0,3.482-2.478,6.493-8.093,6.493A11.438,11.438,0,0,1,853.972,574.817Z" transform="translate(0.5 0.5)" style="fill:#fff"/><path d="M714.88,316.976v-26.65h11.747c5.593,0,8.669,3.8,8.669,8.35,0,4.515-3.115,8.311-8.669,8.311h-7.072v9.989Zm15.622-18.3c0-2.557-1.878-4.234-4.515-4.234h-6.432v8.43h6.432C728.624,302.872,730.5,301.193,730.5,298.676Z" transform="translate(0.5 0.5)" style="fill:#fff"/><path d="M760.74,316.976V305.309H746.876v11.667H742.2v-26.65h4.674v10.867H760.74V290.326h4.674v26.65Z" transform="translate(0.5 0.5)" style="fill:#fff"/><path d="M774.077,316.976v-26.65h11.746c5.593,0,8.67,3.8,8.67,8.35,0,4.515-3.116,8.311-8.67,8.311h-7.072v9.989Zm15.621-18.3c0-2.557-1.878-4.234-4.515-4.234h-6.432v8.43h6.432C787.82,302.872,789.7,301.193,789.7,298.676Z" transform="translate(0.5 0.5)" style="fill:#fff"/><path d="M578.563,554.487c.281.407.453.375.671.282s11.469-3.891,11.813-4.016.234-.234.125-.406-3.859-5.266-4.047-5.563-.281-.234-.578-.14l-11.926,3.1s3.66,6.334,3.942,6.74Z" transform="translate(0.5 0.5)" style="fill:#f35045"/><path d="M592,549.3v-5.963l-3.709.988c1.011,1.352,2.591,3.468,3.709,4.975Z" transform="translate(0.5 0.5)" style="fill:#f35045"/><path d="M588.28,536.983c-.184.041-4.254.777-4.5.81s-.167.176-.067.318l3.581,4.914s4.379-1.087,4.647-1.145l.063-.015v-.651c-.8-1.009-2.964-3.757-3.152-4.014-.225-.309-.384-.259-.568-.217Z" transform="translate(0.5 0.5)" style="fill:#f35045"/><path d="M562.674,529.264c.881-.04.961.161,1.348.735l9.728,16.262,12.23-2.93c-.677-.961-3.754-5.322-4.051-5.738-.334-.468.008-.686.551-.777s5.223-.878,5.624-.936.719-.2,1.371.585c.333.4,1.464,1.809,2.525,3.129v-7.607a6.762,6.762,0,0,0-6.75-6.75h-22.5a6.5,6.5,0,0,0-4.769,1.981,6.626,6.626,0,0,0-1.62,2.538c2.205-.181,5.7-.464,6.313-.492Z" transform="translate(0.5 0.5)" style="fill:#f35045"/><path d="M579.666,556.676c-1.032.313-1.494.468-2.166-.47-.5-.7-3.224-5.6-4.558-8.019-2.525.662-7.146,1.868-8.478,2.188a1.642,1.642,0,0,1-2.07-.948c-.15-.337-3.963-8.558-6.394-13.832v18.892a6.762,6.762,0,0,0,6.75,6.75h22.5a6.76,6.76,0,0,0,6.75-6.75v-2.219c-2.762,1.01-11.639,4.2-12.334,4.408Z" transform="translate(0.5 0.5)" style="fill:#f35045"/><path d="M564.5,548.481c.365-.084,7.215-1.723,7.362-1.754s.24-.115.083-.387l-9.131-15.762c-.083-.142-.059-.19-.284-.178-.2.011-5.279.464-6.455.562a7.039,7.039,0,0,0-.065.75c1.194,2.443,8.044,16.57,8.082,16.685s.042.168.408.084Z" transform="translate(0.5 0.5)" style="fill:#f35045"/><line x1="474.5" y1="411.737" x2="568.5" y2="411.737" style="fill:none;stroke:#1e223b;stroke-linecap:round;stroke-linejoin:round;stroke-width:2px;opacity:0.32"/><line x1="474.5" y1="419.737" x2="534.5" y2="419.737" style="fill:none;stroke:#1e223b;stroke-linecap:round;stroke-linejoin:round;stroke-width:2px;opacity:0.32"/><line x1="446.5" y1="458.737" x2="540.5" y2="458.737" style="fill:none;stroke:#1e223b;stroke-linecap:round;stroke-linejoin:round;stroke-width:2px;opacity:0.15"/><line x1="446.5" y1="467.404" x2="506.5" y2="467.404" style="fill:none;stroke:#1e223b;stroke-linecap:round;stroke-linejoin:round;stroke-width:2px;opacity:0.32"/><line x1="494.5" y1="476.071" x2="529.5" y2="476.071" style="fill:none;stroke:#1e223b;stroke-linecap:round;stroke-linejoin:round;stroke-width:2px;opacity:0.32"/><line x1="446.5" y1="476.071" x2="488.5" y2="476.071" style="fill:none;stroke:#1e223b;stroke-linecap:round;stroke-linejoin:round;stroke-width:2px;opacity:0.26"/><line x1="446.5" y1="484.737" x2="482.5" y2="484.737" style="fill:none;stroke:#1e223b;stroke-linecap:round;stroke-linejoin:round;stroke-width:2px;opacity:0.15"/><path d="M450,500.571a4,4,0,0,0,0,8h80.667v-8Z" transform="translate(0.5 0.5)" style="fill:#4ad3a5;stroke:#1e223b;stroke-miterlimit:10"/><rect x="446.5" y="501.071" width="134" height="8" rx="4" style="fill:none;stroke:#1e223b;stroke-linecap:round;stroke-linejoin:round"/><rect x="371.5" y="605.737" width="278" height="13" rx="2.25" style="fill:#263c72"/><rect x="371.5" y="605.737" width="278" height="13" style="fill:none;stroke:#1e223b;stroke-linecap:round;stroke-linejoin:round;stroke-width:2px"/><rect x="627.5" y="637.737" width="22" height="12" rx="3" style="fill:#363d56"/><rect x="595.5" y="637.737" width="22" height="12" rx="3" style="fill:#363d56"/><rect x="563.5" y="637.737" width="22" height="12" rx="3" style="fill:#363d56"/><rect x="531.5" y="637.737" width="22" height="12" rx="3" style="fill:#363d56"/><rect x="499.5" y="637.737" width="22" height="12" rx="3" style="fill:#363d56"/><rect x="467.5" y="637.737" width="22" height="12" rx="3" style="fill:#363d56"/><rect x="435.5" y="637.737" width="22" height="12" rx="3" style="fill:#363d56"/><rect x="403.5" y="637.737" width="22" height="12" rx="3" style="fill:#363d56"/><rect x="371.5" y="637.737" width="22" height="12" rx="3" style="fill:#363d56"/><rect x="563.5" y="663.214" width="22" height="22" rx="3" style="fill:#363d56"/><rect x="531.5" y="663.214" width="22" height="22" rx="3" style="fill:#363d56"/><rect x="499.5" y="663.214" width="22" height="22" rx="3" style="fill:#363d56"/><rect x="467.5" y="663.214" width="22" height="22" rx="3" style="fill:#363d56"/><rect x="435.5" y="663.214" width="22" height="22" rx="3" style="fill:#363d56"/><rect x="403.5" y="663.214" width="22" height="22" rx="3" style="fill:#363d56"/><rect x="371.5" y="663.214" width="22" height="22" rx="3" style="fill:#363d56"/><rect x="627.5" y="663.214" width="22" height="53.512" rx="3" style="fill:#363d56"/><path d="M614,662.714H598a3,3,0,0,0-3,3v25.512a3,3,0,0,1-3,3H566a3,3,0,0,0-3,3v16a3,3,0,0,0,3,3h48a3,3,0,0,0,3-3V665.714A3,3,0,0,0,614,662.714Z" transform="translate(0.5 0.5)" style="fill:#363d56"/><rect x="531.5" y="694.726" width="22" height="22" rx="3" style="fill:#363d56"/><rect x="499.5" y="694.726" width="22" height="22" rx="3" style="fill:#363d56"/><rect x="467.5" y="694.726" width="22" height="22" rx="3" style="fill:#363d56"/><rect x="435.5" y="694.726" width="22" height="22" rx="3" style="fill:#363d56"/><rect x="371.5" y="694.726" width="54" height="22" rx="3" style="fill:#363d56"/><rect x="627.5" y="726.237" width="22" height="22" rx="3" style="fill:#363d56"/><rect x="595.5" y="726.237" width="22" height="22" rx="3" style="fill:#363d56"/><rect x="563.5" y="726.237" width="22" height="22" rx="3" style="fill:#363d56"/><rect x="467.5" y="726.237" width="86" height="22" rx="3" style="fill:#363d56"/><rect x="435.5" y="726.237" width="22" height="22" rx="3" style="fill:#363d56"/><rect x="403.5" y="726.237" width="22" height="22" rx="3" style="fill:#363d56"/><rect x="371.5" y="726.237" width="22" height="22" rx="3" style="fill:#363d56"/><rect x="627.5" y="637.737" width="22" height="12" rx="3" style="fill:none;stroke:#1e223b;stroke-linecap:round;stroke-linejoin:round;stroke-width:2px"/><rect x="595.5" y="637.737" width="22" height="12" rx="3" style="fill:none;stroke:#1e223b;stroke-linecap:round;stroke-linejoin:round;stroke-width:2px"/><rect x="563.5" y="637.737" width="22" height="12" rx="3" style="fill:none;stroke:#1e223b;stroke-linecap:round;stroke-linejoin:round;stroke-width:2px"/><rect x="531.5" y="637.737" width="22" height="12" rx="3" style="fill:none;stroke:#1e223b;stroke-linecap:round;stroke-linejoin:round;stroke-width:2px"/><rect x="499.5" y="637.737" width="22" height="12" rx="3" style="fill:none;stroke:#1e223b;stroke-linecap:round;stroke-linejoin:round;stroke-width:2px"/><rect x="467.5" y="637.737" width="22" height="12" rx="3" style="fill:none;stroke:#1e223b;stroke-linecap:round;stroke-linejoin:round;stroke-width:2px"/><rect x="435.5" y="637.737" width="22" height="12" rx="3" style="fill:none;stroke:#1e223b;stroke-linecap:round;stroke-linejoin:round;stroke-width:2px"/><rect x="403.5" y="637.737" width="22" height="12" rx="3" style="fill:none;stroke:#1e223b;stroke-linecap:round;stroke-linejoin:round;stroke-width:2px"/><rect x="371.5" y="637.737" width="22" height="12" rx="3" style="fill:none;stroke:#1e223b;stroke-linecap:round;stroke-linejoin:round;stroke-width:2px"/><rect x="563.5" y="663.214" width="22" height="22" rx="3" style="fill:none;stroke:#1e223b;stroke-linecap:round;stroke-linejoin:round;stroke-width:2px"/><rect x="531.5" y="663.214" width="22" height="22" rx="3" style="fill:none;stroke:#1e223b;stroke-linecap:round;stroke-linejoin:round;stroke-width:2px"/><rect x="499.5" y="663.214" width="22" height="22" rx="3" style="fill:none;stroke:#1e223b;stroke-linecap:round;stroke-linejoin:round;stroke-width:2px"/><rect x="467.5" y="663.214" width="22" height="22" rx="3" style="fill:none;stroke:#1e223b;stroke-linecap:round;stroke-linejoin:round;stroke-width:2px"/><rect x="435.5" y="663.214" width="22" height="22" rx="3" style="fill:none;stroke:#1e223b;stroke-linecap:round;stroke-linejoin:round;stroke-width:2px"/><rect x="403.5" y="663.214" width="22" height="22" rx="3" style="fill:none;stroke:#1e223b;stroke-linecap:round;stroke-linejoin:round;stroke-width:2px"/><rect x="371.5" y="663.214" width="22" height="22" rx="3" style="fill:none;stroke:#1e223b;stroke-linecap:round;stroke-linejoin:round;stroke-width:2px"/><rect x="627.5" y="663.214" width="22" height="53.512" rx="3" style="fill:none;stroke:#1e223b;stroke-linecap:round;stroke-linejoin:round;stroke-width:2px"/><path d="M614,662.714H598a3,3,0,0,0-3,3v25.512a3,3,0,0,1-3,3H566a3,3,0,0,0-3,3v16a3,3,0,0,0,3,3h48a3,3,0,0,0,3-3V665.714A3,3,0,0,0,614,662.714Z" transform="translate(0.5 0.5)" style="fill:none;stroke:#1e223b;stroke-linecap:round;stroke-linejoin:round;stroke-width:2px"/><rect x="531.5" y="694.726" width="22" height="22" rx="3" style="fill:none;stroke:#1e223b;stroke-linecap:round;stroke-linejoin:round;stroke-width:2px"/><rect x="499.5" y="694.726" width="22" height="22" rx="3" style="fill:none;stroke:#1e223b;stroke-linecap:round;stroke-linejoin:round;stroke-width:2px"/><rect x="467.5" y="694.726" width="22" height="22" rx="3" style="fill:none;stroke:#1e223b;stroke-linecap:round;stroke-linejoin:round;stroke-width:2px"/><rect x="435.5" y="694.726" width="22" height="22" rx="3" style="fill:none;stroke:#1e223b;stroke-linecap:round;stroke-linejoin:round;stroke-width:2px"/><rect x="371.5" y="694.726" width="54" height="22" rx="3" style="fill:none;stroke:#1e223b;stroke-linecap:round;stroke-linejoin:round;stroke-width:2px"/><rect x="627.5" y="726.237" width="22" height="22" rx="3" style="fill:none;stroke:#1e223b;stroke-linecap:round;stroke-linejoin:round;stroke-width:2px"/><rect x="595.5" y="726.237" width="22" height="22" rx="3" style="fill:none;stroke:#1e223b;stroke-linecap:round;stroke-linejoin:round;stroke-width:2px"/><rect x="563.5" y="726.237" width="22" height="22" rx="3" style="fill:none;stroke:#1e223b;stroke-linecap:round;stroke-linejoin:round;stroke-width:2px"/><rect x="467.5" y="726.237" width="86" height="22" rx="3" style="fill:none;stroke:#1e223b;stroke-linecap:round;stroke-linejoin:round;stroke-width:2px"/><rect x="435.5" y="726.237" width="22" height="22" rx="3" style="fill:none;stroke:#1e223b;stroke-linecap:round;stroke-linejoin:round;stroke-width:2px"/><rect x="403.5" y="726.237" width="22" height="22" rx="3" style="fill:none;stroke:#1e223b;stroke-linecap:round;stroke-linejoin:round;stroke-width:2px"/><rect x="371.5" y="726.237" width="22" height="22" rx="3" style="fill:none;stroke:#1e223b;stroke-linecap:round;stroke-linejoin:round;stroke-width:2px"/><rect x="392.644" y="819.604" width="44" height="40" style="fill:#f2a197"/><rect x="392.644" y="819.604" width="44" height="40" style="fill:none;stroke:#1e223b;stroke-linecap:round;stroke-linejoin:round;stroke-width:2px"/><rect x="388.115" y="850.604" width="51.898" height="25.514" style="fill:#fff"/><rect x="388.115" y="850.604" width="51.898" height="25.514" style="fill:none;stroke:#1e223b;stroke-linecap:round;stroke-linejoin:round;stroke-width:2px"/><path d="M386.172,875.47h55.784a6.487,6.487,0,0,1,6.487,6.487V998.714a0,0,0,0,1,0,0H379.685a0,0,0,0,1,0,0V881.956A6.487,6.487,0,0,1,386.172,875.47Z" style="fill:#1e223b"/><path d="M386.172,875.47h55.784a6.487,6.487,0,0,1,6.487,6.487V998.714a0,0,0,0,1,0,0H379.685a0,0,0,0,1,0,0V881.956A6.487,6.487,0,0,1,386.172,875.47Z" style="fill:none;stroke:#1e223b;stroke-linecap:round;stroke-linejoin:round;stroke-width:2px"/><circle cx="430.744" cy="863.361" r="4.973" style="fill:#1e223b;opacity:0.2"/><circle cx="430.744" cy="863.361" r="4.973" style="fill:none;stroke:#1e223b;stroke-linecap:round;stroke-linejoin:round;stroke-width:2px"/><path d="M453.786,763.816h1.5a6,6,0,0,1,6,6v51a0,0,0,0,1,0,0h-13.5a0,0,0,0,1,0,0v-51A6,6,0,0,1,453.786,763.816Z" transform="translate(457.555 -120.618) rotate(30)" style="fill:#f2a197"/><path d="M453.786,763.816h1.5a6,6,0,0,1,6,6v51a0,0,0,0,1,0,0h-13.5a0,0,0,0,1,0,0v-51A6,6,0,0,1,453.786,763.816Z" transform="translate(457.555 -120.618) rotate(30)" style="fill:none;stroke:#1e223b;stroke-linecap:round;stroke-linejoin:round;stroke-width:2px"/><path d="M443.565,704.955h-1.5a6,6,0,0,0-6,6v45a3,3,0,0,1-3,3h0a3,3,0,0,1-3-3v-53.7a6,6,0,0,0-6-6h-1.5a6,6,0,0,0-6,6v53.7a3,3,0,0,1-3,3h0a3,3,0,0,1-3-3v-45a6,6,0,0,0-6-6h-1.5a6,6,0,0,0-6,6v45a3,3,0,0,1-3,3h0a3,3,0,0,1-3-3v-30.75a6,6,0,0,0-6-6h-1.5a6,6,0,0,0-6,6v88.245a12,12,0,0,0,12,12h48a12,12,0,0,0,12-12V710.956A6,6,0,0,0,443.565,704.955Z" transform="translate(0.5 0.5)" style="fill:#fdb3a6"/><path d="M443.565,704.955h-1.5a6,6,0,0,0-6,6v45a3,3,0,0,1-3,3h0a3,3,0,0,1-3-3v-53.7a6,6,0,0,0-6-6h-1.5a6,6,0,0,0-6,6v53.7a3,3,0,0,1-3,3h0a3,3,0,0,1-3-3v-45a6,6,0,0,0-6-6h-1.5a6,6,0,0,0-6,6v45a3,3,0,0,1-3,3h0a3,3,0,0,1-3-3v-30.75a6,6,0,0,0-6-6h-1.5a6,6,0,0,0-6,6v88.245a12,12,0,0,0,12,12h48a12,12,0,0,0,12-12V710.956A6,6,0,0,0,443.565,704.955Z" transform="translate(0.5 0.5)" style="fill:none;stroke:#1e223b;stroke-linecap:round;stroke-linejoin:round;stroke-width:2px"/><rect x="501.002" y="907.886" width="44" height="40" style="fill:#f2a197"/><rect x="501.002" y="907.886" width="44" height="40" style="fill:none;stroke:#1e223b;stroke-linecap:round;stroke-linejoin:round;stroke-width:2px"/><path d="M473.648,852.1h13.5a0,0,0,0,1,0,0v51a6,6,0,0,1-6,6h-1.5a6,6,0,0,1-6-6v-51a0,0,0,0,1,0,0Z" transform="translate(1337.234 1403.521) rotate(150)" style="fill:#f2a197"/><path d="M473.648,852.1h13.5a0,0,0,0,1,0,0v51a6,6,0,0,1-6,6h-1.5a6,6,0,0,1-6-6v-51a0,0,0,0,1,0,0Z" transform="translate(1337.234 1403.521) rotate(150)" style="fill:none;stroke:#1e223b;stroke-linecap:round;stroke-linejoin:round;stroke-width:2px"/><path d="M492.5,793.237H494a6,6,0,0,1,6,6v45a3,3,0,0,0,3,3h0a3,3,0,0,0,3-3v-7.172a6,6,0,0,1,6-6h1.5a6,6,0,0,1,6,6v7.172a3,3,0,0,0,3,3h0a3,3,0,0,0,3-3v-7.172a6,6,0,0,1,6-6H533a6,6,0,0,1,6,6v7.172a3,3,0,0,0,3,3h0a3,3,0,0,0,3-3v-7.172a6,6,0,0,1,6-6h1.5a6,6,0,0,1,6,6v64.667a12,12,0,0,1-12,12h-48a12,12,0,0,1-12-12V799.238A6,6,0,0,1,492.5,793.237Z" transform="translate(0.5 0.5)" style="fill:#fdb3a6"/><path d="M492.5,793.237H494a6,6,0,0,1,6,6v45a3,3,0,0,0,3,3h0a3,3,0,0,0,3-3v-7.172a6,6,0,0,1,6-6h1.5a6,6,0,0,1,6,6v7.172a3,3,0,0,0,3,3h0a3,3,0,0,0,3-3v-7.172a6,6,0,0,1,6-6H533a6,6,0,0,1,6,6v7.172a3,3,0,0,0,3,3h0a3,3,0,0,0,3-3v-7.172a6,6,0,0,1,6-6h1.5a6,6,0,0,1,6,6v64.667a12,12,0,0,1-12,12h-48a12,12,0,0,1-12-12V799.238A6,6,0,0,1,492.5,793.237Z" transform="translate(0.5 0.5)" style="fill:none;stroke:#1e223b;stroke-linecap:round;stroke-linejoin:round;stroke-width:2px"/><rect x="497.053" y="938.886" width="51.898" height="25.514" style="fill:#fff"/><rect x="497.053" y="938.886" width="51.898" height="25.514" style="fill:none;stroke:#1e223b;stroke-linecap:round;stroke-linejoin:round;stroke-width:2px"/><path d="M495.11,963.752h55.784a6.487,6.487,0,0,1,6.487,6.487V1000.5a0,0,0,0,1,0,0H488.624a0,0,0,0,1,0,0V970.238A6.487,6.487,0,0,1,495.11,963.752Z" style="fill:#1e223b"/><path d="M495.11,963.752h55.784a6.487,6.487,0,0,1,6.487,6.487V1000.5a0,0,0,0,1,0,0H488.624a0,0,0,0,1,0,0V970.238A6.487,6.487,0,0,1,495.11,963.752Z" style="fill:none;stroke:#1e223b;stroke-linecap:round;stroke-linejoin:round;stroke-width:2px"/><circle cx="508.029" cy="951.643" r="4.973" style="fill:none;stroke:#1e223b;stroke-linecap:round;stroke-linejoin:round;stroke-width:2px"/><circle cx="508.029" cy="951.643" r="4.973" style="fill:#1e223b;opacity:0.2"/><line x1="525" y1="205" x2="579" y2="205" style="fill:none;stroke:#1e223b;stroke-linecap:round;stroke-linejoin:round;stroke-width:3px"/><line x1="525" y1="218.5" x2="567" y2="218.5" style="fill:none;stroke:#1e223b;stroke-linecap:round;stroke-linejoin:round;stroke-width:3px"/><line x1="525" y1="232" x2="549" y2="232" style="fill:none;stroke:#1e223b;stroke-linecap:round;stroke-linejoin:round;stroke-width:3px"/><line x1="597.213" y1="148.5" x2="624.213" y2="148.5" style="fill:none;stroke:#1e223b;stroke-linecap:round;stroke-linejoin:round;stroke-width:3px"/><line x1="597.213" y1="155.5" x2="614.213" y2="155.5" style="fill:none;stroke:#1e223b;stroke-linecap:round;stroke-linejoin:round;stroke-width:3px"/><path d="M504.951,236.556" transform="translate(0.5 0.5)" style="fill:none;stroke:#1e223b;stroke-linecap:round;stroke-linejoin:round;stroke-width:3px"/><path d="M514.5,355.237" transform="translate(0.5 0.5)" style="fill:none;stroke:#1e223b;stroke-linecap:round;stroke-linejoin:round;stroke-width:3px"/><line x1="596.584" y1="219.629" x2="599.584" y2="219.629" style="fill:none;stroke:#1e223b;stroke-linecap:round;stroke-linejoin:round;stroke-width:2px"/><path d="M607.022,219.129h22.214A39.764,39.764,0,0,1,669,258.893h0a39.764,39.764,0,0,1-39.764,39.764H563.672A44.671,44.671,0,0,0,519,343.328v4.94" transform="translate(0.5 0.5)" style="fill:none;stroke:#1e223b;stroke-linecap:round;stroke-linejoin:round;stroke-width:2px;stroke-dasharray:5.95365047454834,7.9382004737854"/><line x1="519.5" y1="352.737" x2="519.5" y2="355.737" style="fill:none;stroke:#1e223b;stroke-linecap:round;stroke-linejoin:round;stroke-width:2px"/><line x1="224.357" y1="467.84" x2="349.899" y2="467.84" style="fill:none;stroke:#1e223b;stroke-linecap:round;stroke-linejoin:round;stroke-width:2px;stroke-dasharray:6,8"/><path d="M220.637,694.226h26.25A45.113,45.113,0,0,0,292,649.113V630.119a44.882,44.882,0,0,1,44.881-44.882H351" transform="translate(0.5 0.5)" style="fill:none;stroke:#1e223b;stroke-linecap:round;stroke-linejoin:round;stroke-width:2px"/><path d="M353.792,222.358h13.556A35.653,35.653,0,0,1,403,258.011h0a35.652,35.652,0,0,0,35.653,35.652h19.695A35.653,35.653,0,0,1,494,329.316v25.921" transform="translate(0.5 0.5)" style="fill:none;stroke:#1e223b;stroke-linecap:round;stroke-linejoin:round;stroke-width:2px;stroke-dasharray:6,8"/><path d="M669,460.232h52.532A34.764,34.764,0,0,0,756.3,425.468V333.422" transform="translate(0.5 0.5)" style="fill:none;stroke:#1e223b;stroke-linecap:round;stroke-linejoin:round;stroke-width:2px"/><circle cx="887.156" cy="734.737" r="30.51" style="fill:none;stroke:#1e223b;stroke-linecap:round;stroke-linejoin:round;stroke-width:2px"/><line x1="669.5" y1="521.419" x2="857.75" y2="521.419" style="fill:none;stroke:#1e223b;stroke-linecap:round;stroke-linejoin:round;stroke-width:2px;stroke-dasharray:6,8"/><circle cx="859.373" cy="752.113" r="35.387" style="fill:#fff"/><circle cx="859.373" cy="752.113" r="35.387" style="fill:none;stroke:#1e223b;stroke-linecap:round;stroke-linejoin:round;stroke-width:2px"/><line x1="823.986" y1="752.113" x2="669.5" y2="752.113" style="fill:none;stroke:#1e223b;stroke-linecap:round;stroke-linejoin:round;stroke-width:2px;stroke-dasharray:6,8"/><circle cx="677" cy="143" r="7.5" style="fill:#fff;opacity:0.39"/><circle cx="677" cy="143" r="7.5" style="fill:none;stroke:#1e223b;stroke-linecap:round;stroke-linejoin:round;stroke-width:2px"/><polyline points="844.256 784.114 859.373 752.113 894.355 757.482" style="fill:none;stroke:#1e223b;stroke-linecap:round;stroke-linejoin:round;stroke-width:2px"/><rect x="769.033" y="683.121" width="88.078" height="45.209" rx="9.042" style="fill:#f73e59"/><rect x="769.033" y="683.121" width="88.078" height="45.209" rx="9.042" style="fill:none;stroke:#1e223b;stroke-linecap:round;stroke-linejoin:round;stroke-width:2px"/><path d="M779.955,713.131l2.135-2.942a9.269,9.269,0,0,0,6.825,3.007c3.1,0,4.3-1.52,4.3-2.975,0-4.528-12.548-1.714-12.548-9.638,0-3.59,3.1-6.34,7.859-6.34a11.174,11.174,0,0,1,8.054,3.04l-2.135,2.814a8.8,8.8,0,0,0-6.275-2.489c-2.2,0-3.622,1.1-3.622,2.684,0,4.042,12.55,1.552,12.55,9.573,0,3.59-2.556,6.694-8.345,6.694A11.8,11.8,0,0,1,779.955,713.131Z" transform="translate(0.5 0.5)" style="fill:#fff"/><path d="M802.046,705.4c0-6.435,4.561-11.158,11.03-11.158,6.435,0,11.028,4.723,11.028,11.158a11.3,11.3,0,0,1-2.879,7.764l1.779,2-2.619,2.2-1.876-2.1a11.526,11.526,0,0,1-5.433,1.293C806.607,716.559,802.046,711.838,802.046,705.4Zm14.069,7.149-2.684-3.041,2.652-2.2,2.684,3.039a8.515,8.515,0,0,0,1.456-4.949c0-4.462-2.814-7.793-7.147-7.793-4.367,0-7.149,3.331-7.149,7.793,0,4.432,2.782,7.8,7.149,7.8A7.125,7.125,0,0,0,816.115,712.55Z" transform="translate(0.5 0.5)" style="fill:#fff"/><path d="M829.9,716.172V694.6h3.784v18.242h9.508v3.331Z" transform="translate(0.5 0.5)" style="fill:#fff"/><rect x="152.918" y="242.869" width="128.255" height="52.201" rx="10.79" style="fill:#e44d26;stroke:#1e223b;stroke-miterlimit:10;stroke-width:2px"/><rect x="152.918" y="242.869" width="128.255" height="52.201" rx="10.79" style="fill:none;stroke:#1e223b;stroke-linecap:round;stroke-linejoin:round;stroke-width:2px"/><path d="M184,280.3V269.942H171.694V280.3h-4.15V256.641h4.15v9.647H184v-9.647h4.15V280.3Z" transform="translate(0.5 0.5)" style="fill:#fff"/><path d="M201.489,280.3v-20h-7.165v-3.653H212.8v3.653h-7.165v20Z" transform="translate(0.5 0.5)" style="fill:#fff"/><path d="M239.406,280.3V262.032L232.17,280.3H230.4l-7.27-18.266V280.3h-4.15V256.641h5.852l6.456,16.245,6.419-16.245h5.852V280.3Z" transform="translate(0.5 0.5)" style="fill:#fff"/><path d="M250.97,280.3V256.641h4.149v20h10.428V280.3Z" transform="translate(0.5 0.5)" style="fill:#fff"/><path d="M640.389,937.592a2.267,2.267,0,0,0,2.421-2.334,2.071,2.071,0,0,0-2.29-2.2,2.2,2.2,0,0,0-2.422,2.139v.064A2.279,2.279,0,0,0,640.389,937.592Z" transform="translate(0.5 0.5)" style="fill:#fff"/><path d="M695.876,941.87c-.131-.778,1.178-.908,1.047-1.556-.131-.907-.916-.907-1.44-.843-2.944.325-3.533,1.3-3.795,3.176A4.024,4.024,0,0,0,693,945.564a21.639,21.639,0,0,1-.524,4.407.924.924,0,0,0-.523.583,56.459,56.459,0,0,1-1.767,6.287,3.25,3.25,0,0,0-.654,1.232v.324c-.654,1.231-1.374,2.138-2.225,2.138-.392,0-.523-1.037-.523-2.4,0-2.4,1.243-9.073,1.243-10.5,0-1.88.327-3.5.327-5.056,0-.648-.458-.842-1.047-.842-.458,0-.72.324-1.178.324-1.9,0-2.159,1.037-2.159,2.592,0,.649,0,9.852-.131,11.018-.131,1.945-1.243,4.343-3.337,4.343-1.9,0-2.813-2.593-2.813-5.38a31.409,31.409,0,0,1,.785-6.8c.2-.648,1.047-3.629,1.047-4.018,0-.713-.066-.907-.851-.907-3.01.064-3.6.324-4.057,1.944a36.386,36.386,0,0,0-.981,8.037v.842c-.72,2.2-1.5,4.667-3.534,4.8-1.374.065-1.832-3.37-1.832-6.935,0-7.064,2.029-13.934,2.29-21,.066-.648-.392-1.1-1.177-1.1a9.7,9.7,0,0,1-1.833.065c-.785,0-1.112.324-1.177,1.1-.655,7.065-2.094,15.685-2.094,22.555v.129c-.72,2.269-1.5,5.185-3.665,5.315-1.374.065-1.832-3.37-1.832-6.935,0-7.065,2.029-13.935,2.291-21,.065-.648-.393-1.1-1.178-1.1-1.047,0-1.374-.065-1.9-.065-.785,0-1.112.324-1.178,1.1-.654,7.065-2.094,15.685-2.094,22.555v.129c-.719,2.269-1.5,5.185-3.664,5.315-1.374.065-1.832-3.37-1.832-6.935,0-7.065,2.028-13.935,2.29-21,.066-.648-.392-1.1-1.178-1.1-1.112,0-1.439-.065-1.963-.065-.785,0-1.112.324-1.177,1.1-.655,7.065-2.094,15.685-2.094,22.555v1.037c-.655,2.268-1.636,4.731-2.879,4.731-.589-.065-1.047-.907-1.047-2.852,0-3.564.327-8.49.654-12.249.066-.454-.131-.908-.654-.908-.458-.064-1.9-.194-2.421-.194-.785,0-1.113.454-1.113,1.3v1.3c.066,4.343-.392,7.778-.392,11.861,0,2.917,1.57,4.926,3.533,4.926,2.094,0,3.73-1.75,4.842-3.824.589,2.2,1.7,4.148,3.926,4.148,2.094,0,4.123-2.269,5.5-4.8.523,2.463,1.635,4.8,4.056,4.8,2.094,0,4.123-2.269,5.5-4.8.523,2.463,1.636,4.8,4.057,4.8,2.028,0,4.057-2.2,5.431-4.6.719,2.917,2.355,5.12,5.431,5.12,2.552,0,3.271-1.037,4.907-3.37.524,1.3.72,3.759,2.225,3.759,2.094,0,3.86-2.4,5.038-5.12a8.292,8.292,0,0,0,6.544,3.629c3.533,0,6.543-2.527,6.281-6.351C704.186,950.36,696.465,944.786,695.876,941.87Zm.916,17.434c-1.047,0-2.683-.648-2.748-2.009-.066-.778,1.767-1.167,2.421-1.556.523-.324.654-.583.654-.777-.065-.454-.72-.778-1.439-.778a4.5,4.5,0,0,0-2.421.842c.2-.907,1.57-5.573,1.9-7.842a14.914,14.914,0,0,1,5.17,9.333C700.522,959.045,697.643,959.3,696.792,959.3Z" transform="translate(0.5 0.5)" style="fill:#fff"/><path d="M755.421,937.592a2.266,2.266,0,0,0,2.42-2.334,2.07,2.07,0,0,0-2.289-2.2,2.2,2.2,0,0,0-2.421,2.139v.064A2.276,2.276,0,0,0,755.421,937.592Z" transform="translate(0.5 0.5)" style="fill:#fff"/><path d="M793.241,963.128c-1.178-.778-2.029-2.009-1.832-7.065.13-3.24.785-7.712.785-10.888,0-1.426-.655-3.046-2.487-3.046-2.289,0-5.627,4.666-6.674,6.74.131-1.231.524-4.861.589-6.092s.066-1.3-2.094-1.3c-1.439,0-1.57.259-1.57.777,0,2.982-.262,6.417-.523,9.852-.786,1.685-1.833,3.37-3.338,3.37a3,3,0,0,1-1.308-.324,9.951,9.951,0,0,0,1.112-4.342,3.117,3.117,0,0,0-3.141-3.241,3.708,3.708,0,0,0-3.86,4.018c0,1.815,1.9,3.889,3.337,4.861a4.971,4.971,0,0,1-4.515,2.722c-2.814,0-3.795-5.12-3.795-7,0-3.63,1.308-7.713,5.627-7.713,2.945,0,2.945,1.944,4.188,1.944.131,0,.523-.194.523-.388,0-2.139-3.4-3.889-5.169-3.889-6.02,0-10.208,4.731-10.208,10.629a11.268,11.268,0,0,0,.59,3.565c-.59,1.49-1.31,2.657-2.226,2.657-.589,0-1.047-.843-1.047-2.787,0-3.565.328-8.49.655-12.249.066-.454-.131-.908-.655-.908-.458-.065-1.9-.194-2.421-.194-.784,0-1.112.453-1.112,1.3v1.3c0,2.269-.13,4.213-.2,6.157a1.432,1.432,0,0,0-.2.324c-.72,1.945-1.637,7.324-3.795,7.324-.655,0-2.029-.907-2.029-3.435,0-4.083,1.374-12.249,1.571-13.675,2.093-.454,3.926-.324,6.412-1.037,1.113-.324.458-1.62-.786-1.491a34.889,34.889,0,0,1-5.43,0c.065-2.139.589-3.5.589-5.7v-.2c0-.583-.262-1.037-.851-1.037-1.178,0-3.01.389-3.01,2.009,0,1.686-.327,3.176-.262,4.861-1.177.065-2.224-.259-3.4-.259-.851,0-1.047,1.556-1.047,2.139,0,.648.065,1.1.458,1.1a30.272,30.272,0,0,0,3.73-.324c-.327,4.277-.851,6.675-1.178,9.657,0,.194-.066.453-.066.713-.719,2.268-2.093,5.768-3.206,5.768a1.463,1.463,0,0,1-1.112-1.232,42.575,42.575,0,0,1,1.178-10.305,11.062,11.062,0,0,0,.654-2.527c0-.843-1.374-1.3-2.094-1.3-1.178,0-1.112.648-1.57,1.685-.851-.648-1.047-1.814-3.338-1.814-4.187,0-6.739,6.74-6.739,10.953,0,.713-.066,1.1-.066,1.491,0,2.4-1.374,5.379-2.813,5.379-1.244,0-1.636-3.37-1.636-4.8a31.6,31.6,0,0,1,1.7-8.426,6.165,6.165,0,0,0,.916-2.268c0-.907-1.047-2.4-2.095-2.4-1.178,0-1.9.648-3.141.648-1.962,0-3.271-1.231-4.383-1.231a1.026,1.026,0,0,0-1.113,1.1c0,1.75,1.9,1.426,1.439,3.63-.457,2.074-1.831,7.713-2.616,9.851a.48.48,0,0,0-.066.324,1.916,1.916,0,0,0,.131.649c-.458.777-.981,1.3-1.636,1.3s-2.028-.908-2.028-3.435c0-4.083,1.374-12.25,1.57-13.676,2.094-.453,3.926-.324,6.413-1.037,1.112-.324.458-1.62-.786-1.49a35.035,35.035,0,0,1-5.431,0c.066-2.139.589-3.5.589-5.7,0-.583-.261-1.037-.85-1.037-1.178,0-3.01.389-3.01,2.009,0,1.686-.327,3.176-.262,4.861-1.178.065-2.225-.259-3.4-.259-.85,0-1.047,1.556-1.047,2.139,0,.648.066,1.1.459,1.1a30.251,30.251,0,0,0,3.729-.324c-.327,4.277-.85,6.675-1.178,9.657a53.393,53.393,0,0,0-.458,5.573c0,2.787,2.421,5.056,4.45,5.056,3.6,0,6.543-7.259,6.543-10.24v-.389c.392-1.75.655-3.5.982-4.991.065-.194.262-.778.785-.778,1.177,0,1.309.843,1.309,1.75,0,2.4-.851,6.676-.851,9.2,0,2.462.654,5.509,3.534,5.509a6.358,6.358,0,0,0,5.5-3.63c.785,1.88,2.093,3.37,3.926,3.37,1.766,0,3.271-1.3,4.318-2.527.262.648.655,2.4,2.552,2.4,1.767,0,3.141-1.491,4.188-3.371a4.921,4.921,0,0,0,4.253,3.76c2.029,0,3.926-2.4,5.1-4.991.13,2.722,1.635,4.537,3.534,4.537,1.963,0,3.6-1.556,4.71-3.5a6.646,6.646,0,0,0,5.759,3.37c3.6,0,5.758-2.333,7.655-5.12a9.921,9.921,0,0,0,1.833.324,4.889,4.889,0,0,0,3.468-2.009c-.131,2.074-.262,4.083-.262,5.9,0,.648.131.907.589,1.037a5.742,5.742,0,0,0,1.832.065c.654,0,.785.065.916-.778.065-.583.458-7.518.458-8.037,0-1.426,3.468-7.453,5.169-7.453.328,0,.589.583.589.972,0,3.111-.981,8.166-.981,11.407,0,3.435,1.7,4.6,2.42,4.991a6.453,6.453,0,0,0,2.814.713C793.241,963.776,793.7,963.387,793.241,963.128Zm-57.451-6.611c-.065.907-1.7,3.241-2.944,3.241-1.374,0-1.963-3.889-1.9-6.481.066-3.047,1.571-8.491,3.01-8.491,1.9,0,2.16,4.537,2.16,5.963C736.118,952.369,735.921,954.9,735.79,956.517Zm37.559-2.139a4.19,4.19,0,0,1-1.374-3.111c0-.583.2-1.879,1.047-1.879.785,0,1.047,1.426,1.047,2.009A11.043,11.043,0,0,1,773.349,954.378Z" transform="translate(0.5 0.5)" style="fill:#fff"/><path d="M808.29,955.48c-.327-5.12-8.114-10.694-8.637-13.611-.131-.777,1.178-.907,1.047-1.555-.131-.907-.916-.907-1.44-.843-2.944.324-3.533,1.3-3.795,3.176a4.024,4.024,0,0,0,1.309,2.917c.065,2.268-1.178,8.555-2.618,11.018a5.028,5.028,0,0,0-.85,1.491c-.131.777.458,1.166.981.648.458-.389.393-.648.851-.973,1.047,2.4,4.319,4.084,6.8,4.084C805.542,961.832,808.487,959.3,808.29,955.48Zm-7.721,3.824c-1.047,0-2.683-.648-2.748-2.009-.066-.778,1.767-1.167,2.421-1.556.523-.324.654-.583.654-.777-.065-.454-.72-.778-1.439-.778a4.5,4.5,0,0,0-2.421.842c.2-.907,1.57-5.574,1.9-7.842a14.908,14.908,0,0,1,5.169,9.333C804.3,959.045,801.42,959.3,800.569,959.3Z" transform="translate(0.5 0.5)" style="fill:#fff"/><path d="M63.2,959.2c0,2.5-1.2,3.7-2.6,3.7a1.928,1.928,0,0,1-2.1-1.4,2.2,2.2,0,0,1-1.8.8,2.808,2.808,0,0,1,0-5.6,2.175,2.175,0,0,1,1.6.7v-.5h1.6v3.9c0,.8.3,1.4,1,1.4.9,0,1.7-.9,1.7-3a5.233,5.233,0,0,0-5.4-5.3,5.552,5.552,0,0,0-5.6,5.7,5.624,5.624,0,0,0,5.9,5.7,11.935,11.935,0,0,0,2.9-.4v.6a8.119,8.119,0,0,1-2.9.4,6.2,6.2,0,1,1-.3-12.4A5.593,5.593,0,0,1,63.2,959.2Zm-4.9.3a1.347,1.347,0,0,0-1.3-1.4,1.238,1.238,0,0,0-1.3,1.4,1.261,1.261,0,0,0,1.3,1.3C57.8,960.9,58.3,960.3,58.3,959.5Z" transform="translate(0.5 0.5)" style="fill:#fff"/><path d="M69.4,955.1v2a2.244,2.244,0,0,0-2.6,2.4v4.3H64.9v-8.6h1.9v1.4A2.632,2.632,0,0,1,69.4,955.1Z" transform="translate(0.5 0.5)" style="fill:#fff"/><path d="M74.6,962.3a2.641,2.641,0,0,0,2.2-1.1l1.5.9a4.346,4.346,0,0,1-3.8,1.9,4.414,4.414,0,0,1-4.7-4.5,4.36,4.36,0,0,1,4.5-4.5,4.313,4.313,0,0,1,4.3,4.5,2.2,2.2,0,0,1-.1.8H71.7A2.832,2.832,0,0,0,74.6,962.3Zm2.3-3.5a2.375,2.375,0,0,0-2.5-2.1,2.506,2.506,0,0,0-2.6,2.1Z" transform="translate(0.5 0.5)" style="fill:#fff"/><path d="M88.9,955.2v8.6H87v-1.2a3.692,3.692,0,0,1-3,1.5,4.443,4.443,0,0,1-4.3-4.5,4.317,4.317,0,0,1,4.3-4.5,3.613,3.613,0,0,1,3,1.4v-1.2h1.9Zm-1.8,4.3a2.7,2.7,0,1,0-2.7,2.7A2.571,2.571,0,0,0,87.1,959.5Z" transform="translate(0.5 0.5)" style="fill:#fff"/><path d="M91.1,951.3H93v12.5H91.1Z" transform="translate(0.5 0.5)" style="fill:#fff"/><path d="M102.9,955.2l-3.3,8.6H97.5l-3.3-8.6h2l2.4,6.5,2.4-6.5Z" transform="translate(0.5 0.5)" style="fill:#fff"/><path d="M104.2,955.2h1.9v8.9c0,2.4-1.2,3.5-3.5,3.3v-1.8c1.1.1,1.7-.3,1.7-1.5v-8.9Zm-.2-2.4a1.2,1.2,0,0,1,2.4,0,1.2,1.2,0,1,1-2.4,0Z" transform="translate(0.5 0.5)" style="fill:#fff"/><path d="M116,955.2l-3.3,8.8c-.8,2.2-2.2,3.3-4.2,3.2v-1.7a2.076,2.076,0,0,0,2.3-1.7l.1-.2-3.6-8.4h2l2.6,6.2,2.2-6.2Z" transform="translate(0.5 0.5)" style="fill:#fff"/><path d="M58.9,938.7a3.633,3.633,0,0,1-3.6,3.8h-3v-7.6h3A3.633,3.633,0,0,1,58.9,938.7Zm-1,0a2.722,2.722,0,0,0-2.6-2.9h-2v5.7h2A2.577,2.577,0,0,0,57.9,938.7Z" transform="translate(0.5 0.5)" style="fill:#fff"/><path d="M67,941.6v1H62.4V935h4.5v1H63.4v2.3h3.2v.9H63.4v2.4Z" transform="translate(0.5 0.5)" style="fill:#fff"/><path d="M70,940.8l.9-.5a1.987,1.987,0,0,0,2,1.4c1.1,0,1.6-.5,1.6-1.2,0-.8-.7-1-1.8-1.4-1.2-.4-2.4-.8-2.4-2.2a2.208,2.208,0,0,1,2.4-2.2,2.664,2.664,0,0,1,2.6,1.7l-.8.5a1.743,1.743,0,0,0-1.7-1.2c-.8,0-1.4.4-1.4,1.1s.5,1,1.6,1.3c1.3.4,2.6.8,2.6,2.3a2.333,2.333,0,0,1-2.6,2.2A2.847,2.847,0,0,1,70,940.8Z" transform="translate(0.5 0.5)" style="fill:#fff"/><path d="M80,934.9v7.6H79v-7.6Z" transform="translate(0.5 0.5)" style="fill:#fff"/><path d="M91.3,939.2a3.47,3.47,0,0,1-3.7,3.5,3.888,3.888,0,0,1-4-4,3.974,3.974,0,0,1,7.3-2.2l-.9.5a2.775,2.775,0,0,0-2.4-1.4,3,3,0,0,0,0,6,2.5,2.5,0,0,0,2.7-2H87.5v-.9h3.8Z" transform="translate(0.5 0.5)" style="fill:#fff"/><path d="M100.6,934.9v7.6h-.8l-3.9-5.7v5.7h-1v-7.6h.8l3.9,5.7v-5.7Z" transform="translate(0.5 0.5)" style="fill:#fff"/><path d="M109.1,941.6v1h-4.6V935H109v1h-3.5v2.3h3.2v.9h-3.2v2.4Z" transform="translate(0.5 0.5)" style="fill:#fff"/><path d="M119.2,938.7a3.633,3.633,0,0,1-3.6,3.8h-3v-7.6h3A3.7,3.7,0,0,1,119.2,938.7Zm-1,0a2.722,2.722,0,0,0-2.6-2.9h-2v5.7h2A2.577,2.577,0,0,0,118.2,938.7Z" transform="translate(0.5 0.5)" style="fill:#fff"/><path d="M133.2,940.4a2.22,2.22,0,0,1-2.2,2.2h-3.3V935h3a2.051,2.051,0,0,1,2.1,2.1,1.943,1.943,0,0,1-.8,1.6A1.658,1.658,0,0,1,133.2,940.4Zm-4.5-4.6v2.3h2a1.135,1.135,0,0,0,1.1-1.2,1.2,1.2,0,0,0-1.1-1.2h-2Zm3.5,4.5a1.155,1.155,0,0,0-1.2-1.2h-2.3v2.5H131A1.24,1.24,0,0,0,132.2,940.3Z" transform="translate(0.5 0.5)" style="fill:#fff"/><path d="M139.4,939.4v3.1h-1v-3.1l-2.7-4.5h1.1l2.1,3.6,2.1-3.6h1.1Z" transform="translate(0.5 0.5)" style="fill:#fff"/><path d="M210.957,934.972v7.7h-.825l-3.96-5.754v5.754h-1.024v-7.7h.826l3.96,5.743v-5.743Z" transform="translate(0.5 0.5)" style="fill:#fff"/><path d="M219.405,941.705v.968h-4.6v-7.7h4.544v.967H215.83v2.367h3.245v.957H215.83v2.442Z" transform="translate(0.5 0.5)" style="fill:#fff"/><path d="M222.286,934.972h1.078l1.76,6.337,1.87-6.337h1.034l1.87,6.337,1.761-6.337h1.078l-2.211,7.7h-1.188l-1.826-6.15-1.826,6.15H224.5Z" transform="translate(0.5 0.5)" style="fill:#fff"/><path d="M243.22,934.972v7.7h-1.013v-6.6l-1.639.484-.253-.88,2.025-.7Z" transform="translate(0.5 0.5)" style="fill:#fff"/><path d="M249.336,934.972v7.7h-1.013v-6.6l-1.638.484-.253-.88,2.024-.7Z" transform="translate(0.5 0.5)" style="fill:#fff"/><path d="M252.789,941.837l2.717-2.773a2.944,2.944,0,0,0,1.089-1.87,1.306,1.306,0,0,0-1.364-1.375,1.668,1.668,0,0,0-1.585,1.034l-.857-.506a2.622,2.622,0,0,1,2.431-1.518,2.315,2.315,0,0,1,2.4,2.354,3.79,3.79,0,0,1-1.375,2.542l-1.97,1.958h3.489v.99h-4.973Z" transform="translate(0.5 0.5)" style="fill:#fff"/><path d="M208.094,951.191v12.433h-2.451V951.191Z" transform="translate(0.5 0.5)" style="fill:#fff"/><path d="M218.589,958.171v5.453H216.3v-5.169a1.653,1.653,0,0,0-1.758-1.829c-1.119,0-1.954.657-1.954,2.2v4.8h-2.291v-8.881h2.291v1a3.018,3.018,0,0,1,2.646-1.243C217.114,954.5,218.589,955.809,218.589,958.171Z" transform="translate(0.5 0.5)" style="fill:#fff"/><path d="M227.234,961.031c0,1.918-1.67,2.842-3.57,2.842a3.817,3.817,0,0,1-3.729-2.114l1.989-1.118a1.692,1.692,0,0,0,1.74,1.154c.729,0,1.226-.249,1.226-.764,0-1.3-4.582-.587-4.582-3.713,0-1.811,1.545-2.823,3.374-2.823a3.742,3.742,0,0,1,3.375,1.882l-1.954,1.066a1.5,1.5,0,0,0-1.421-.906c-.569,0-1.031.249-1.031.729C222.651,958.58,227.234,957.763,227.234,961.031Z" transform="translate(0.5 0.5)" style="fill:#fff"/><path d="M231.513,956.945v3.7c0,.959.692.976,2.007.905v2.078c-3.215.355-4.3-.586-4.3-2.983v-3.7h-1.545v-2.2h1.545v-1.794l2.292-.692v2.486h2.007v2.2Z" transform="translate(0.5 0.5)" style="fill:#fff"/><path d="M243.907,954.743v8.881h-2.292v-1.048a3.533,3.533,0,0,1-2.894,1.3,4.705,4.705,0,0,1,0-9.378,3.532,3.532,0,0,1,2.894,1.3v-1.048Zm-2.292,4.441a2.46,2.46,0,1,0-2.469,2.5A2.387,2.387,0,0,0,241.615,959.184Z" transform="translate(0.5 0.5)" style="fill:#fff"/><path d="M245.98,950.658h2.291v12.966H245.98Z" transform="translate(0.5 0.5)" style="fill:#fff"/><path d="M250.365,950.658h2.291v12.966h-2.291Z" transform="translate(0.5 0.5)" style="fill:#fff"/><path d="M254.484,952.274a1.413,1.413,0,1,1,1.4,1.4A1.419,1.419,0,0,1,254.484,952.274Zm.267,2.469h2.291v8.881h-2.291Z" transform="translate(0.5 0.5)" style="fill:#fff"/><path d="M267.431,958.171v5.453h-2.292v-5.169a1.653,1.653,0,0,0-1.758-1.829c-1.119,0-1.954.657-1.954,2.2v4.8h-2.291v-8.881h2.291v1a3.018,3.018,0,0,1,2.646-1.243C265.956,954.5,267.431,955.809,267.431,958.171Z" transform="translate(0.5 0.5)" style="fill:#fff"/><path d="M278.421,954.743V963.2c0,2.913-2.292,4.228-4.636,4.228a4.5,4.5,0,0,1-4.21-2.167l1.954-1.119a2.307,2.307,0,0,0,2.326,1.244,2.069,2.069,0,0,0,2.328-2.186v-.959a3.394,3.394,0,0,1-2.842,1.351,4.549,4.549,0,0,1,0-9.094,3.394,3.394,0,0,1,2.842,1.35v-1.1Zm-2.238,4.3a2.488,2.488,0,1,0-2.487,2.433A2.371,2.371,0,0,0,276.183,959.042Z" transform="translate(0.5 0.5)" style="fill:#fff"/><path d="M848.133,938.45a3.648,3.648,0,0,1-3.617,3.813h-2.973v-7.626h2.973A3.648,3.648,0,0,1,848.133,938.45Zm-.969,0a2.669,2.669,0,0,0-2.648-2.855h-1.961V941.3h1.961A2.669,2.669,0,0,0,847.164,938.45Z" transform="translate(0.5 0.5)" style="fill:#fff"/><path d="M851.254,938.45a3.949,3.949,0,1,1,3.943,3.955A3.917,3.917,0,0,1,851.254,938.45Zm6.887,0a2.943,2.943,0,1,0-2.944,2.964A2.911,2.911,0,0,0,858.141,938.45Z" transform="translate(0.5 0.5)" style="fill:#fff"/><path d="M861.783,934.637h1.069l1.742,6.276,1.853-6.276h1.024l1.851,6.276,1.744-6.276h1.067l-2.19,7.626h-1.175l-1.809-6.09-1.809,6.09h-1.177Z" transform="translate(0.5 0.5)" style="fill:#fff"/><path d="M881.27,934.637v7.626h-.819l-3.922-5.7v5.7h-1.011v-7.626h.816l3.922,5.687v-5.687Z" transform="translate(0.5 0.5)" style="fill:#fff"/><path d="M889.5,941.3v.959h-4.3v-7.626h1.014V941.3Z" transform="translate(0.5 0.5)" style="fill:#fff"/><path d="M891.877,938.45a3.949,3.949,0,1,1,3.943,3.955A3.917,3.917,0,0,1,891.877,938.45Zm6.887,0a2.943,2.943,0,1,0-2.944,2.964A2.911,2.911,0,0,0,898.764,938.45Z" transform="translate(0.5 0.5)" style="fill:#fff"/><path d="M907.418,940.552h-3.432l-.621,1.711h-1.078l2.844-7.626h1.142l2.844,7.626h-1.078Zm-.348-.947-1.373-3.759-1.361,3.759Z" transform="translate(0.5 0.5)" style="fill:#fff"/><path d="M918.906,938.45a3.647,3.647,0,0,1-3.617,3.813h-2.975v-7.626h2.975A3.647,3.647,0,0,1,918.906,938.45Zm-.97,0a2.67,2.67,0,0,0-2.647-2.855h-1.961V941.3h1.961A2.669,2.669,0,0,0,917.936,938.45Z" transform="translate(0.5 0.5)" style="fill:#fff"/><path d="M928.457,935.6v2.474h3.236v.959h-3.236v3.235h-1.014v-7.626h4.391v.958Z" transform="translate(0.5 0.5)" style="fill:#fff"/><path d="M938.168,939.343h-1.8v2.92h-1.012v-7.626h3.049a2.353,2.353,0,0,1,.8,4.575l1.8,3.051h-1.121Zm-1.8-.915h2.037a1.423,1.423,0,0,0,0-2.843h-2.037Z" transform="translate(0.5 0.5)" style="fill:#fff"/><path d="M943.869,938.45a3.95,3.95,0,1,1,3.943,3.955A3.918,3.918,0,0,1,943.869,938.45Zm6.887,0a2.943,2.943,0,1,0-2.944,2.964A2.911,2.911,0,0,0,950.756,938.45Z" transform="translate(0.5 0.5)" style="fill:#fff"/><path d="M962.418,942.263h-1V936.3l-2.5,4.151h-.131l-2.494-4.14v5.948h-1.014v-7.626h1.145l2.429,4.031,2.418-4.031h1.145Z" transform="translate(0.5 0.5)" style="fill:#fff"/><path d="M841.318,952.65a1.221,1.221,0,1,1,1.221,1.222A1.224,1.224,0,0,1,841.318,952.65Zm.266,2.549H843.5v8.85h-1.911Z" transform="translate(0.5 0.5)" style="fill:#fff"/><path d="M845.709,951.128h1.912v12.921h-1.912Z" transform="translate(0.5 0.5)" style="fill:#fff"/><path d="M849.834,951.128h1.912v12.921h-1.912Z" transform="translate(0.5 0.5)" style="fill:#fff"/><path d="M853.96,951.128h1.911v12.921H853.96Z" transform="translate(0.5 0.5)" style="fill:#fff"/><path d="M865.963,955.2v8.85h-1.912v-1.132a3.048,3.048,0,0,1-2.744,1.363,3.305,3.305,0,0,1-3.4-3.647V955.2h1.912v5.24a1.845,1.845,0,0,0,1.983,2.053c1.257,0,2.248-.743,2.248-2.549V955.2Z" transform="translate(0.5 0.5)" style="fill:#fff"/><path d="M874.621,961.553c0,1.771-1.539,2.727-3.451,2.727a3.694,3.694,0,0,1-3.611-2.071l1.646-.956a1.945,1.945,0,0,0,1.965,1.274c.85,0,1.5-.283,1.5-.991,0-1.575-4.761-.691-4.761-3.859,0-1.664,1.434-2.708,3.238-2.708a3.566,3.566,0,0,1,3.276,1.841l-1.612.9a1.723,1.723,0,0,0-1.664-1.008c-.689,0-1.292.3-1.292.938C869.86,959.253,874.621,958.279,874.621,961.553Z" transform="translate(0.5 0.5)" style="fill:#fff"/><path d="M878.7,957.041v4.248c0,1.132.744,1.114,2.2,1.044v1.716c-2.938.355-4.106-.46-4.106-2.76v-4.248h-1.629V955.2h1.629v-1.911l1.91-.567V955.2h2.2v1.842Z" transform="translate(0.5 0.5)" style="fill:#fff"/><path d="M887.354,955.04v2.071a2.337,2.337,0,0,0-2.725,2.478v4.46h-1.912V955.2h1.912v1.487A2.782,2.782,0,0,1,887.354,955.04Z" transform="translate(0.5 0.5)" style="fill:#fff"/><path d="M897.286,955.2v8.85h-1.911v-1.274a3.639,3.639,0,0,1-3.1,1.5,4.662,4.662,0,0,1,0-9.311,3.672,3.672,0,0,1,3.1,1.487V955.2Zm-1.911,4.426a2.8,2.8,0,1,0-2.8,2.832A2.735,2.735,0,0,0,895.375,959.625Z" transform="translate(0.5 0.5)" style="fill:#fff"/><path d="M902.264,957.041v4.248c0,1.132.744,1.114,2.195,1.044v1.716c-2.938.355-4.1-.46-4.1-2.76v-4.248h-1.629V955.2h1.629v-1.911l1.91-.567V955.2h2.195v1.842Z" transform="translate(0.5 0.5)" style="fill:#fff"/><path d="M905.931,952.65a1.221,1.221,0,0,1,2.442,0,1.221,1.221,0,1,1-2.442,0Zm.265,2.549h1.911v8.85H906.2Z" transform="translate(0.5 0.5)" style="fill:#fff"/><path d="M909.826,959.625a4.673,4.673,0,1,1,4.674,4.655A4.621,4.621,0,0,1,909.826,959.625Zm7.435,0a2.762,2.762,0,1,0-2.761,2.8A2.718,2.718,0,0,0,917.261,959.625Z" transform="translate(0.5 0.5)" style="fill:#fff"/><path d="M928.965,958.616v5.433h-1.912V958.81a1.845,1.845,0,0,0-1.983-2.053c-1.257,0-2.248.744-2.248,2.549v4.743H920.91V955.2h1.912v1.133a3.047,3.047,0,0,1,2.744-1.363A3.3,3.3,0,0,1,928.965,958.616Z" transform="translate(0.5 0.5)" style="fill:#fff"/><path d="M937.5,961.553c0,1.771-1.541,2.727-3.451,2.727a3.692,3.692,0,0,1-3.611-2.071l1.646-.956a1.943,1.943,0,0,0,1.965,1.274c.849,0,1.5-.283,1.5-.991,0-1.575-4.762-.691-4.762-3.859,0-1.664,1.434-2.708,3.239-2.708a3.563,3.563,0,0,1,3.275,1.841l-1.611.9a1.725,1.725,0,0,0-1.664-1.008c-.69,0-1.292.3-1.292.938C932.738,959.253,937.5,958.279,937.5,961.553Z" transform="translate(0.5 0.5)" style="fill:#fff"/><path d="M938.83,962.934a1.328,1.328,0,0,1,2.656,0,1.328,1.328,0,0,1-2.656,0Z" transform="translate(0.5 0.5)" style="fill:#fff"/><path d="M942.319,959.625a4.567,4.567,0,0,1,4.673-4.656,4.373,4.373,0,0,1,3.947,2.284l-1.646.956a2.473,2.473,0,0,0-2.318-1.364,2.779,2.779,0,0,0,0,5.558,2.6,2.6,0,0,0,2.353-1.362l1.647.937a4.451,4.451,0,0,1-3.983,2.3A4.577,4.577,0,0,1,942.319,959.625Z" transform="translate(0.5 0.5)" style="fill:#fff"/><path d="M951.722,959.625a4.673,4.673,0,1,1,4.673,4.655A4.62,4.62,0,0,1,951.722,959.625Zm7.434,0a2.762,2.762,0,1,0-2.761,2.8A2.718,2.718,0,0,0,959.156,959.625Z" transform="translate(0.5 0.5)" style="fill:#fff"/></g></svg>