<?xml version="1.0" encoding="utf-8"?>
<!-- Generator: Adobe Illustrator 23.1.1, SVG Export Plug-In . SVG Version: 6.00 Build 0)  -->
<svg version="1.1" id="Layer_1" xmlns="http://www.w3.org/2000/svg" xmlns:xlink="http://www.w3.org/1999/xlink" x="0px" y="0px"
	 viewBox="0 0 1000 1000" style="enable-background:new 0 0 1000 1000;" xml:space="preserve">
<style type="text/css">
	.st0{fill:#F8F8F8;}
	.st1{opacity:0.54;}
	.st2{fill:none;stroke:#9284CE;stroke-width:6;stroke-linecap:round;stroke-linejoin:round;stroke-miterlimit:10;}
	.st3{fill:#FFFFFF;}
	.st4{fill:none;stroke:#FF6F6C;stroke-width:3.6376;stroke-linecap:round;stroke-linejoin:round;stroke-miterlimit:10;}
	.st5{opacity:0.5;fill:#9551BC;}
	.st6{fill:none;stroke:#DBA877;stroke-width:6;stroke-linecap:round;stroke-linejoin:round;stroke-miterlimit:10;}
	.st7{opacity:0.24;}
	.st8{fill:none;stroke:#34323A;stroke-width:9.3261;stroke-linecap:round;stroke-linejoin:round;stroke-miterlimit:10;}
	.st9{opacity:7.000000e-02;}
	.st10{fill:none;stroke:#C1272D;stroke-width:10;stroke-linecap:round;stroke-linejoin:round;stroke-miterlimit:10;}
	.st11{fill:none;stroke:#E0A769;stroke-width:6;stroke-linecap:round;stroke-linejoin:round;stroke-miterlimit:10;}
	.st12{opacity:0.57;}
	.st13{fill:none;stroke:#E24D59;stroke-width:4;stroke-linecap:square;stroke-miterlimit:10;}
	.st14{fill:none;stroke:#AE8DCE;stroke-width:3.1048;stroke-linecap:round;stroke-linejoin:round;stroke-miterlimit:10;}
	.st15{fill:#D83742;}
	.st16{fill:#9551BC;}
	.st17{opacity:0.7;fill:#7535A3;}
	.st18{fill:#7535A3;}
	.st19{opacity:0.5;fill:#9A6EC4;}
	.st20{filter:url(#Adobe_OpacityMaskFilter);}
	.st21{mask:url(#XMLID_52_);}
	.st22{fill:#FFD16C;}
	.st23{fill:#FBB049;}
	.st24{fill:none;stroke:#34323A;stroke-width:6;stroke-linecap:round;stroke-linejoin:round;stroke-miterlimit:10;}
	.st25{opacity:0.6;fill:#F9BB78;}
	.st26{fill:#F9BB78;}
	.st27{fill:none;stroke:#FFFFFF;stroke-width:12;stroke-linecap:round;stroke-linejoin:round;stroke-miterlimit:10;}
	.st28{fill:none;stroke:#34323A;stroke-width:12;stroke-linecap:round;stroke-linejoin:round;stroke-miterlimit:10;}
	.st29{fill:#34323A;}
	.st30{fill:#B27960;}
	.st31{fill:#E8B99C;}
	.st32{fill:none;stroke:#34323A;stroke-width:14;stroke-linecap:round;stroke-linejoin:round;stroke-miterlimit:10;}
	.st33{fill:#F7CB74;}
	.st34{opacity:0.4;fill:#FFEBCF;}
	.st35{opacity:0.6;}
	.st36{opacity:0.7;fill:#F2B24E;}
	.st37{opacity:0.6;fill:#D87819;}
	.st38{display:none;}
	.st39{display:inline;fill:#F7CB74;}
	.st40{display:inline;opacity:0.6;fill:#F7CB74;}
	.st41{fill:none;stroke:#34323A;stroke-width:9;stroke-linecap:round;stroke-linejoin:round;stroke-miterlimit:10;}
	.st42{fill:#E24D59;}
	.st43{opacity:0.4;fill:#EF818E;}
	.st44{fill:#F6A258;}
	.st45{fill:none;stroke:#34323A;stroke-width:10;stroke-linecap:round;stroke-linejoin:round;stroke-miterlimit:10;}
</style>
<rect id="XMLID_1_" class="st0" width="1000" height="1000"/>
<g>
	<g id="XMLID_148_" class="st1">
		<line id="XMLID_150_" class="st2" x1="669.2" y1="729.6" x2="681.2" y2="729.6"/>
		<line id="XMLID_149_" class="st2" x1="675.2" y1="723.6" x2="675.2" y2="735.6"/>
	</g>
	<circle id="XMLID_98_" class="st3" cx="206.9" cy="449" r="13.2"/>
	<circle id="XMLID_105_" class="st3" cx="232.3" cy="433.5" r="7.4"/>
	<circle id="XMLID_74_" class="st4" cx="556.3" cy="379.3" r="8.7"/>
	<circle id="XMLID_80_" class="st4" cx="109.7" cy="550.6" r="3.8"/>
	<circle id="XMLID_144_" class="st5" cx="185" cy="698.2" r="4.9"/>
	<circle id="XMLID_134_" class="st6" cx="901.3" cy="477.7" r="7.3"/>
	<g id="XMLID_136_">
		<line id="XMLID_135_" class="st4" x1="391.4" y1="323.3" x2="400.6" y2="323.3"/>
		<line id="XMLID_79_" class="st4" x1="396" y1="318.7" x2="396" y2="327.9"/>
	</g>
	<g id="XMLID_138_" class="st7">
		<line id="XMLID_140_" class="st8" x1="377.2" y1="889.4" x2="402.5" y2="889.4"/>
		<line id="XMLID_139_" class="st8" x1="389.9" y1="876.8" x2="389.9" y2="902.1"/>
	</g>
	<g id="XMLID_145_" class="st9">
		<line id="XMLID_147_" class="st10" x1="792" y1="771.1" x2="807.5" y2="771.1"/>
		<line id="XMLID_146_" class="st10" x1="799.8" y1="763.4" x2="799.8" y2="778.9"/>
	</g>
	<g id="XMLID_161_">
		<g id="XMLID_153_">
			<g id="XMLID_137_">
				<line id="XMLID_141_" class="st11" x1="699.1" y1="795.1" x2="699.1" y2="805.3"/>
				<line id="XMLID_142_" class="st11" x1="699.1" y1="834.4" x2="699.1" y2="844.6"/>
			</g>
			<g id="XMLID_143_">
				<line id="XMLID_152_" class="st11" x1="723.8" y1="819.8" x2="713.7" y2="819.8"/>
				<line id="XMLID_151_" class="st11" x1="684.5" y1="819.8" x2="674.4" y2="819.8"/>
			</g>
		</g>
		<g id="XMLID_154_">
			<g id="XMLID_158_">
				<line id="XMLID_160_" class="st11" x1="716.6" y1="802.4" x2="709.4" y2="809.5"/>
				<line id="XMLID_159_" class="st11" x1="688.8" y1="830.1" x2="681.6" y2="837.3"/>
			</g>
			<g id="XMLID_155_">
				<line id="XMLID_157_" class="st11" x1="716.6" y1="837.3" x2="709.4" y2="830.1"/>
				<line id="XMLID_156_" class="st11" x1="688.8" y1="809.5" x2="681.6" y2="802.4"/>
			</g>
		</g>
	</g>
	<g id="XMLID_208_" class="st12">
		<g id="XMLID_216_">
			<g id="XMLID_220_">
				<line id="XMLID_222_" class="st13" x1="603.4" y1="282.2" x2="603.4" y2="290.8"/>
				<line id="XMLID_221_" class="st13" x1="603.4" y1="315.3" x2="603.4" y2="323.8"/>
			</g>
			<g id="XMLID_217_">
				<line id="XMLID_219_" class="st13" x1="624.2" y1="303" x2="615.7" y2="303"/>
				<line id="XMLID_218_" class="st13" x1="591.2" y1="303" x2="582.6" y2="303"/>
			</g>
		</g>
		<g id="XMLID_209_">
			<g id="XMLID_213_">
				<line id="XMLID_215_" class="st13" x1="618.1" y1="288.3" x2="612.1" y2="294.4"/>
				<line id="XMLID_214_" class="st13" x1="594.8" y1="311.7" x2="588.7" y2="317.7"/>
			</g>
			<g id="XMLID_210_">
				<line id="XMLID_212_" class="st13" x1="618.1" y1="317.8" x2="612.1" y2="311.7"/>
				<line id="XMLID_211_" class="st13" x1="594.8" y1="294.4" x2="588.7" y2="288.3"/>
			</g>
		</g>
	</g>
	<g id="XMLID_163_">
		<g id="XMLID_171_">
			<g id="XMLID_175_">
				<line id="XMLID_177_" class="st4" x1="245" y1="771.1" x2="245" y2="777.3"/>
				<line id="XMLID_176_" class="st4" x1="245" y1="795" x2="245" y2="801.1"/>
			</g>
			<g id="XMLID_172_">
				<line id="XMLID_174_" class="st4" x1="259.9" y1="786.1" x2="253.8" y2="786.1"/>
				<line id="XMLID_173_" class="st4" x1="236.1" y1="786.1" x2="230" y2="786.1"/>
			</g>
		</g>
		<g id="XMLID_164_">
			<g id="XMLID_168_">
				<line id="XMLID_170_" class="st4" x1="255.5" y1="775.5" x2="251.2" y2="779.9"/>
				<line id="XMLID_169_" class="st4" x1="238.7" y1="792.4" x2="234.4" y2="796.7"/>
			</g>
			<g id="XMLID_165_">
				<line id="XMLID_167_" class="st4" x1="255.5" y1="796.7" x2="251.2" y2="792.4"/>
				<line id="XMLID_166_" class="st4" x1="238.7" y1="779.9" x2="234.4" y2="775.5"/>
			</g>
		</g>
	</g>
	<g id="XMLID_178_">
		<g id="XMLID_186_">
			<g id="XMLID_190_">
				<line id="XMLID_192_" class="st14" x1="174.3" y1="331.9" x2="174.3" y2="337.1"/>
				<line id="XMLID_191_" class="st14" x1="174.3" y1="352.2" x2="174.3" y2="357.4"/>
			</g>
			<g id="XMLID_187_">
				<line id="XMLID_189_" class="st14" x1="187.1" y1="344.6" x2="181.9" y2="344.6"/>
				<line id="XMLID_188_" class="st14" x1="166.8" y1="344.6" x2="161.5" y2="344.6"/>
			</g>
		</g>
		<g id="XMLID_179_">
			<g id="XMLID_183_">
				<line id="XMLID_185_" class="st14" x1="183.4" y1="335.6" x2="179.7" y2="339.3"/>
				<line id="XMLID_184_" class="st14" x1="169" y1="350" x2="165.3" y2="353.7"/>
			</g>
			<g id="XMLID_180_">
				<line id="XMLID_182_" class="st14" x1="183.4" y1="353.7" x2="179.7" y2="350"/>
				<line id="XMLID_181_" class="st14" x1="169" y1="339.3" x2="165.3" y2="335.6"/>
			</g>
		</g>
	</g>
	<g id="XMLID_193_">
		<g id="XMLID_201_">
			<g id="XMLID_205_">
				<line id="XMLID_207_" class="st14" x1="847.7" y1="266.8" x2="847.7" y2="272"/>
				<line id="XMLID_206_" class="st14" x1="847.7" y1="287.1" x2="847.7" y2="292.4"/>
			</g>
			<g id="XMLID_202_">
				<line id="XMLID_204_" class="st14" x1="860.5" y1="279.6" x2="855.2" y2="279.6"/>
				<line id="XMLID_203_" class="st14" x1="840.2" y1="279.6" x2="834.9" y2="279.6"/>
			</g>
		</g>
		<g id="XMLID_194_">
			<g id="XMLID_198_">
				<line id="XMLID_200_" class="st14" x1="856.7" y1="270.5" x2="853" y2="274.2"/>
				<line id="XMLID_199_" class="st14" x1="842.4" y1="284.9" x2="838.7" y2="288.6"/>
			</g>
			<g id="XMLID_195_">
				<line id="XMLID_197_" class="st14" x1="856.7" y1="288.6" x2="853" y2="284.9"/>
				<line id="XMLID_196_" class="st14" x1="842.4" y1="274.2" x2="838.7" y2="270.5"/>
			</g>
		</g>
	</g>
</g>
<g>
	<g>
		<g>
			<path class="st15" d="M63.2,959.2c0,2.5-1.2,3.7-2.6,3.7c-1.1,0-1.9-0.5-2.1-1.4c-0.4,0.5-1,0.8-1.8,0.8c-1.5,0-2.6-1.2-2.6-2.8
				c0-1.6,1.1-2.8,2.6-2.8c0.7,0,1.2,0.3,1.6,0.7v-0.5h1.6v3.9c0,0.8,0.3,1.4,1,1.4c0.9,0,1.7-0.9,1.7-3c0-3-2.3-5.3-5.4-5.3
				c-3.1,0-5.6,2.4-5.6,5.7c0,3.3,2.5,5.7,5.9,5.7c1.1,0,2.1-0.2,2.9-0.4v0.6c-0.8,0.3-1.7,0.4-2.9,0.4c-3.7,0-6.5-2.6-6.5-6.2
				c0-3.4,2.7-6.2,6.2-6.2C61.1,953.3,63.2,956.4,63.2,959.2z M58.3,959.5c0-0.8-0.6-1.4-1.3-1.4c-0.8,0-1.3,0.5-1.3,1.4
				c0,0.8,0.6,1.3,1.3,1.3C57.8,960.9,58.3,960.3,58.3,959.5z"/>
		</g>
		<g>
			<path class="st15" d="M69.4,955.1v2c-1.2-0.1-2.6,0.5-2.6,2.4v4.3h-1.9v-8.6h1.9v1.4C67.3,955.5,68.3,955.1,69.4,955.1z"/>
		</g>
		<g>
			<path class="st15" d="M74.6,962.3c1,0,1.8-0.5,2.2-1.1l1.5,0.9c-0.8,1.2-2.1,1.9-3.8,1.9c-2.8,0-4.7-1.9-4.7-4.5
				c0-2.5,1.8-4.5,4.5-4.5c2.6,0,4.3,2.1,4.3,4.5c0,0.3,0,0.5-0.1,0.8h-6.8C72.1,961.6,73.2,962.3,74.6,962.3z M76.9,958.8
				c-0.3-1.5-1.3-2.1-2.5-2.1c-1.4,0-2.3,0.8-2.6,2.1H76.9z"/>
		</g>
		<g>
			<path class="st15" d="M88.9,955.2v8.6h-1.9v-1.2c-0.7,0.9-1.7,1.5-3,1.5c-2.3,0-4.3-2-4.3-4.5c0-2.6,1.9-4.5,4.3-4.5
				c1.3,0,2.3,0.5,3,1.4v-1.2H88.9z M87.1,959.5c0-1.6-1.2-2.7-2.7-2.7c-1.5,0-2.7,1.1-2.7,2.7c0,1.6,1.2,2.7,2.7,2.7
				C85.9,962.3,87.1,961.1,87.1,959.5z"/>
		</g>
		<g>
			<path class="st15" d="M91.1,951.3H93v12.5h-1.9V951.3z"/>
		</g>
		<g>
			<path class="st15" d="M102.9,955.2l-3.3,8.6h-2.1l-3.3-8.6h2l2.4,6.5l2.4-6.5H102.9z"/>
		</g>
		<g>
			<path class="st15" d="M104.2,955.2h1.9v8.9c0,2.4-1.2,3.5-3.5,3.3v-1.8c1.1,0.1,1.7-0.3,1.7-1.5V955.2z M104,952.8
				c0-0.7,0.5-1.2,1.2-1.2c0.7,0,1.2,0.5,1.2,1.2c0,0.6-0.5,1.2-1.2,1.2C104.5,954,104,953.4,104,952.8z"/>
		</g>
		<g>
			<path class="st15" d="M116,955.2l-3.3,8.8c-0.8,2.2-2.2,3.3-4.2,3.2v-1.7c1.2,0.1,1.9-0.5,2.3-1.7l0.1-0.2l-3.6-8.4h2l2.6,6.2
				l2.2-6.2H116z"/>
		</g>
	</g>
	<g>
		<path class="st15" d="M211.9,938.7c0,2.1-1.5,3.8-3.6,3.8h-3v-7.6h3C210.4,934.9,211.9,936.6,211.9,938.7z M210.9,938.7
			c0-1.6-1.1-2.9-2.6-2.9h-2v5.7h2C209.8,941.6,210.9,940.3,210.9,938.7z"/>
		<path class="st15" d="M219.5,940.8h-3.4l-0.6,1.7h-1.1l2.8-7.6h1.1l2.8,7.6h-1.1L219.5,940.8z M219.2,939.9l-1.4-3.8l-1.4,3.8
			H219.2z"/>
		<path class="st15" d="M226.4,939.4v3.1h-1v-3.1l-2.7-4.5h1.1l2.1,3.6l2.1-3.6h1.1L226.4,939.4z"/>
		<path class="st15" d="M242.1,940.4c0,1.4-1.1,2.2-2.6,2.2c-1.5,0-2.6-0.8-2.6-2.2c0-0.8,0.5-1.5,1.2-1.9c-0.6-0.3-0.9-0.9-0.9-1.7
			c0-1.5,1.2-2.2,2.4-2.2c1.2,0,2.4,0.7,2.4,2.2c0,0.8-0.4,1.3-0.9,1.7C241.7,938.9,242.1,939.6,242.1,940.4z M241.1,940.4
			c0-0.9-0.7-1.3-1.6-1.3c-0.9,0-1.6,0.4-1.6,1.3c0,0.9,0.7,1.3,1.6,1.3C240.5,941.7,241.1,941.2,241.1,940.4z M238.2,936.9
			c0,0.8,0.6,1.2,1.4,1.2c0.7,0,1.4-0.4,1.4-1.2c0-0.8-0.6-1.2-1.4-1.2C238.8,935.7,238.2,936.1,238.2,936.9z"/>
		<path class="st15" d="M249.7,934.9v0.9l-2.8,6.7h-1.1l2.8-6.7h-3.7v-1H249.7z"/>
	</g>
	<g>
		<path class="st15" d="M58.9,938.7c0,2.1-1.5,3.8-3.6,3.8h-3v-7.6h3C57.4,934.9,58.9,936.6,58.9,938.7z M57.9,938.7
			c0-1.6-1.1-2.9-2.6-2.9h-2v5.7h2C56.8,941.6,57.9,940.3,57.9,938.7z"/>
		<path class="st15" d="M67,941.6v1h-4.6v-7.6h4.5v1h-3.5v2.3h3.2v0.9h-3.2v2.4H67z"/>
		<path class="st15" d="M70,940.8l0.9-0.5c0.3,0.8,0.9,1.4,2,1.4c1.1,0,1.6-0.5,1.6-1.2c0-0.8-0.7-1-1.8-1.4
			c-1.2-0.4-2.4-0.8-2.4-2.2c0-1.4,1.1-2.2,2.4-2.2c1.3,0,2.2,0.7,2.6,1.7l-0.8,0.5c-0.3-0.7-0.8-1.2-1.7-1.2
			c-0.8,0-1.4,0.4-1.4,1.1c0,0.7,0.5,1,1.6,1.3c1.3,0.4,2.6,0.8,2.6,2.3c0,1.3-1.1,2.2-2.6,2.2C71.5,942.7,70.4,941.9,70,940.8z"/>
		<path class="st15" d="M80,934.9v7.6h-1v-7.6H80z"/>
		<path class="st15" d="M91.3,939.2c0,1.9-1.4,3.5-3.7,3.5c-2.4,0-4-1.8-4-4c0-2.2,1.7-4,4-4c1.4,0,2.7,0.8,3.3,1.8l-0.9,0.5
			c-0.4-0.8-1.4-1.4-2.4-1.4c-1.8,0-3,1.3-3,3c0,1.7,1.2,3,3,3c1.6,0,2.5-0.9,2.7-2h-2.8v-0.9h3.8V939.2z"/>
		<path class="st15" d="M100.6,934.9v7.6h-0.8l-3.9-5.7v5.7h-1v-7.6h0.8l3.9,5.7v-5.7H100.6z"/>
		<path class="st15" d="M109.1,941.6v1h-4.6v-7.6h4.5v1h-3.5v2.3h3.2v0.9h-3.2v2.4H109.1z"/>
		<path class="st15" d="M119.2,938.7c0,2.1-1.5,3.8-3.6,3.8h-3v-7.6h3C117.6,934.9,119.2,936.6,119.2,938.7z M118.2,938.7
			c0-1.6-1.1-2.9-2.6-2.9h-2v5.7h2C117.1,941.6,118.2,940.3,118.2,938.7z"/>
		<path class="st15" d="M133.2,940.4c0,1.2-1,2.2-2.2,2.2h-3.3v-7.6h3c1.2,0,2.1,0.9,2.1,2.1c0,0.7-0.3,1.2-0.8,1.6
			C132.7,938.9,133.2,939.5,133.2,940.4z M128.7,935.8v2.3h2c0.6,0,1.1-0.5,1.1-1.2c0-0.6-0.5-1.2-1.1-1.2H128.7z M132.2,940.3
			c0-0.7-0.5-1.2-1.2-1.2h-2.3v2.5h2.3C131.7,941.6,132.2,941,132.2,940.3z"/>
		<path class="st15" d="M139.4,939.4v3.1h-1v-3.1l-2.7-4.5h1.1l2.1,3.6l2.1-3.6h1.1L139.4,939.4z"/>
	</g>
	<g>
		<path class="st15" d="M204.8,958.1c0-3.6,2.7-6.4,6.5-6.4c2.3,0,4.3,1.2,5.3,3l-1.8,1c-0.7-1.2-2-2-3.6-2c-2.7,0-4.4,1.9-4.4,4.4
			s1.8,4.4,4.4,4.4c1.6,0,2.9-0.8,3.6-2l1.8,1c-1,1.8-3,3-5.3,3C207.5,964.5,204.8,961.7,204.8,958.1z"/>
		<path class="st15" d="M226.3,958.9v5.4h-1.9v-5.2c0-1.3-0.8-2.1-2-2.1c-1.3,0-2.2,0.7-2.2,2.5v4.7h-1.9v-12.4h1.9v4.7
			c0.6-0.9,1.5-1.4,2.7-1.4C224.9,955.2,226.3,956.6,226.3,958.9z"/>
		<path class="st15" d="M233,955.3v2.1c-1.3-0.1-2.7,0.5-2.7,2.5v4.5h-1.9v-8.9h1.9v1.5C230.8,955.7,231.9,955.3,233,955.3z"/>
		<path class="st15" d="M234.2,952.9c0-0.7,0.5-1.2,1.2-1.2c0.7,0,1.2,0.5,1.2,1.2c0,0.7-0.5,1.2-1.2,1.2
			C234.7,954.1,234.2,953.6,234.2,952.9z M234.5,955.4h1.9v8.9h-1.9V955.4z"/>
		<path class="st15" d="M241.3,957.3v4.2c0,1.1,0.7,1.1,2.2,1v1.7c-2.9,0.4-4.1-0.5-4.1-2.8v-4.2h-1.6v-1.8h1.6v-1.9l1.9-0.6v2.5
			h2.2v1.8H241.3z"/>
		<path class="st15" d="M258.4,958.8v5.5h-1.9v-5.4c0-1.2-0.7-1.9-1.7-1.9c-1.1,0-1.9,0.7-1.9,2.3v5h-1.9v-5.4
			c0-1.2-0.6-1.9-1.7-1.9c-1.1,0-2,0.7-2,2.3v5h-1.9v-8.9h1.9v1.1c0.6-0.9,1.4-1.3,2.5-1.3c1.2,0,2,0.5,2.5,1.4
			c0.6-0.9,1.5-1.4,2.7-1.4C257,955.2,258.4,956.6,258.4,958.8z"/>
		<path class="st15" d="M269.3,955.4v8.9h-1.9V963c-0.7,0.9-1.7,1.5-3.1,1.5c-2.4,0-4.4-2-4.4-4.7c0-2.6,2-4.7,4.4-4.7
			c1.4,0,2.4,0.6,3.1,1.5v-1.3H269.3z M267.4,959.9c0-1.6-1.2-2.8-2.8-2.8c-1.6,0-2.8,1.2-2.8,2.8c0,1.6,1.2,2.8,2.8,2.8
			C266.2,962.7,267.4,961.5,267.4,959.9z"/>
		<path class="st15" d="M278,961.8c0,1.8-1.5,2.7-3.5,2.7c-1.8,0-3-0.8-3.6-2.1l1.6-1c0.3,0.8,1,1.3,2,1.3c0.8,0,1.5-0.3,1.5-1
			c0-1.6-4.8-0.7-4.8-3.9c0-1.7,1.4-2.7,3.2-2.7c1.5,0,2.7,0.7,3.3,1.8l-1.6,0.9c-0.3-0.7-0.9-1-1.7-1c-0.7,0-1.3,0.3-1.3,0.9
			C273.2,959.5,278,958.5,278,961.8z"/>
		<path class="st15" d="M293.3,960.8c0,2.1-1.7,3.5-3.7,3.5h-5.3v-12.4h4.9c2,0,3.6,1.5,3.6,3.4c0,1.1-0.5,2-1.3,2.5
			C292.6,958.4,293.3,959.4,293.3,960.8z M286.3,953.8v3.3h2.9c0.9,0,1.6-0.7,1.6-1.6c0-0.9-0.7-1.6-1.6-1.6H286.3z M291.2,960.6
			c0-1-0.7-1.7-1.7-1.7h-3.3v3.5h3.3C290.5,962.4,291.2,961.6,291.2,960.6z"/>
		<path class="st15" d="M303.9,955.4v8.9H302V963c-0.7,0.9-1.7,1.5-3.1,1.5c-2.4,0-4.4-2-4.4-4.7c0-2.6,2-4.7,4.4-4.7
			c1.4,0,2.4,0.6,3.1,1.5v-1.3H303.9z M302,959.9c0-1.6-1.2-2.8-2.8-2.8c-1.6,0-2.8,1.2-2.8,2.8c0,1.6,1.2,2.8,2.8,2.8
			C300.8,962.7,302,961.5,302,959.9z"/>
		<path class="st15" d="M306.2,951.4h1.9v12.9h-1.9V951.4z"/>
		<path class="st15" d="M310.3,951.4h1.9v12.9h-1.9V951.4z"/>
	</g>
	<g>
		<g>
			<g>
				<path class="st15" d="M846.1,938.7c0,2.1-1.5,3.8-3.6,3.8h-3v-7.6h3C844.6,934.9,846.1,936.6,846.1,938.7z M845.2,938.7
					c0-1.6-1.1-2.9-2.6-2.9h-2v5.7h2C844.1,941.6,845.2,940.3,845.2,938.7z"/>
			</g>
			<g>
				<path class="st15" d="M849.3,938.7c0-2.2,1.7-4,3.9-4c2.2,0,4,1.8,4,4c0,2.2-1.7,4-4,4C851,942.7,849.3,940.9,849.3,938.7z
					 M856.1,938.7c0-1.7-1.3-3-2.9-3c-1.7,0-2.9,1.3-2.9,3c0,1.7,1.3,3,2.9,3C854.9,941.7,856.1,940.4,856.1,938.7z"/>
			</g>
			<g>
				<path class="st15" d="M859.8,934.9h1.1l1.7,6.3l1.9-6.3h1l1.9,6.3l1.7-6.3h1.1l-2.2,7.6h-1.2l-1.8-6.1l-1.8,6.1H862L859.8,934.9
					z"/>
			</g>
			<g>
				<path class="st15" d="M879.3,934.9v7.6h-0.8l-3.9-5.7v5.7h-1v-7.6h0.8l3.9,5.7v-5.7H879.3z"/>
			</g>
			<g>
				<path class="st15" d="M887.5,941.6v1h-4.3v-7.6h1v6.7H887.5z"/>
			</g>
			<g>
				<path class="st15" d="M889.9,938.7c0-2.2,1.7-4,3.9-4c2.2,0,4,1.8,4,4c0,2.2-1.7,4-4,4C891.6,942.7,889.9,940.9,889.9,938.7z
					 M896.8,938.7c0-1.7-1.3-3-2.9-3c-1.7,0-2.9,1.3-2.9,3c0,1.7,1.3,3,2.9,3C895.5,941.7,896.8,940.4,896.8,938.7z"/>
			</g>
			<g>
				<path class="st15" d="M905.4,940.8H902l-0.6,1.7h-1.1l2.8-7.6h1.1l2.8,7.6H906L905.4,940.8z M905.1,939.9l-1.4-3.8l-1.4,3.8
					H905.1z"/>
			</g>
			<g>
				<path class="st15" d="M916.9,938.7c0,2.1-1.5,3.8-3.6,3.8h-3v-7.6h3C915.4,934.9,916.9,936.6,916.9,938.7z M915.9,938.7
					c0-1.6-1.1-2.9-2.6-2.9h-2v5.7h2C914.9,941.6,915.9,940.3,915.9,938.7z"/>
			</g>
			<g>
				<path class="st15" d="M926.5,935.8v2.5h3.2v1h-3.2v3.2h-1v-7.6h4.4v1H926.5z"/>
			</g>
			<g>
				<path class="st15" d="M936.2,939.6h-1.8v2.9h-1v-7.6h3c1.3,0,2.4,1.1,2.4,2.4c0,1-0.7,1.9-1.6,2.2l1.8,3.1h-1.1L936.2,939.6z
					 M934.4,938.7h2c0.8,0,1.4-0.6,1.4-1.4c0-0.8-0.6-1.4-1.4-1.4h-2V938.7z"/>
			</g>
			<g>
				<path class="st15" d="M941.9,938.7c0-2.2,1.7-4,3.9-4c2.2,0,4,1.8,4,4c0,2.2-1.7,4-4,4C943.6,942.7,941.9,940.9,941.9,938.7z
					 M948.8,938.7c0-1.7-1.3-3-2.9-3c-1.7,0-2.9,1.3-2.9,3c0,1.7,1.3,3,2.9,3C947.5,941.7,948.8,940.4,948.8,938.7z"/>
			</g>
			<g>
				<path class="st15" d="M960.4,942.5h-1v-6l-2.5,4.2h-0.1l-2.5-4.1v5.9h-1v-7.6h1.1l2.4,4l2.4-4h1.1V942.5z"/>
			</g>
		</g>
		<g>
			<g>
				<path class="st15" d="M839.3,952.9c0-0.7,0.5-1.2,1.2-1.2c0.7,0,1.2,0.5,1.2,1.2c0,0.7-0.5,1.2-1.2,1.2
					C839.9,954.1,839.3,953.6,839.3,952.9z M839.6,955.4h1.9v8.9h-1.9V955.4z"/>
			</g>
			<g>
				<path class="st15" d="M843.7,951.4h1.9v12.9h-1.9V951.4z"/>
			</g>
			<g>
				<path class="st15" d="M847.8,951.4h1.9v12.9h-1.9V951.4z"/>
			</g>
			<g>
				<path class="st15" d="M852,951.4h1.9v12.9H852V951.4z"/>
			</g>
			<g>
				<path class="st15" d="M864,955.4v8.9h-1.9v-1.1c-0.6,0.9-1.5,1.4-2.7,1.4c-2,0-3.4-1.3-3.4-3.6v-5.4h1.9v5.2
					c0,1.3,0.8,2.1,2,2.1c1.3,0,2.2-0.7,2.2-2.5v-4.7H864z"/>
			</g>
			<g>
				<path class="st15" d="M872.6,961.8c0,1.8-1.5,2.7-3.5,2.7c-1.8,0-3-0.8-3.6-2.1l1.6-1c0.3,0.8,1,1.3,2,1.3c0.8,0,1.5-0.3,1.5-1
					c0-1.6-4.8-0.7-4.8-3.9c0-1.7,1.4-2.7,3.2-2.7c1.5,0,2.7,0.7,3.3,1.8l-1.6,0.9c-0.3-0.7-0.9-1-1.7-1c-0.7,0-1.3,0.3-1.3,0.9
					C867.9,959.5,872.6,958.5,872.6,961.8z"/>
			</g>
			<g>
				<path class="st15" d="M876.7,957.3v4.2c0,1.1,0.7,1.1,2.2,1v1.7c-2.9,0.4-4.1-0.5-4.1-2.8v-4.2h-1.6v-1.8h1.6v-1.9l1.9-0.6v2.5
					h2.2v1.8H876.7z"/>
			</g>
			<g>
				<path class="st15" d="M885.4,955.3v2.1c-1.3-0.1-2.7,0.5-2.7,2.5v4.5h-1.9v-8.9h1.9v1.5C883.2,955.7,884.2,955.3,885.4,955.3z"
					/>
			</g>
			<g>
				<path class="st15" d="M895.3,955.4v8.9h-1.9V963c-0.7,0.9-1.7,1.5-3.1,1.5c-2.4,0-4.4-2-4.4-4.7c0-2.6,2-4.7,4.4-4.7
					c1.4,0,2.4,0.6,3.1,1.5v-1.3H895.3z M893.4,959.9c0-1.6-1.2-2.8-2.8-2.8c-1.6,0-2.8,1.2-2.8,2.8c0,1.6,1.2,2.8,2.8,2.8
					C892.2,962.7,893.4,961.5,893.4,959.9z"/>
			</g>
			<g>
				<path class="st15" d="M900.3,957.3v4.2c0,1.1,0.7,1.1,2.2,1v1.7c-2.9,0.4-4.1-0.5-4.1-2.8v-4.2h-1.6v-1.8h1.6v-1.9l1.9-0.6v2.5
					h2.2v1.8H900.3z"/>
			</g>
			<g>
				<path class="st15" d="M903.9,952.9c0-0.7,0.5-1.2,1.2-1.2c0.7,0,1.2,0.5,1.2,1.2c0,0.7-0.5,1.2-1.2,1.2
					C904.5,954.1,903.9,953.6,903.9,952.9z M904.2,955.4h1.9v8.9h-1.9V955.4z"/>
			</g>
			<g>
				<path class="st15" d="M907.8,959.9c0-2.6,2.1-4.7,4.7-4.7c2.6,0,4.7,2,4.7,4.7c0,2.6-2.1,4.7-4.7,4.7
					C909.9,964.5,907.8,962.5,907.8,959.9z M915.3,959.9c0-1.6-1.2-2.8-2.8-2.8c-1.6,0-2.8,1.2-2.8,2.8c0,1.6,1.2,2.8,2.8,2.8
					C914.1,962.7,915.3,961.5,915.3,959.9z"/>
			</g>
			<g>
				<path class="st15" d="M927,958.9v5.4h-1.9v-5.2c0-1.3-0.8-2.1-2-2.1c-1.3,0-2.2,0.7-2.2,2.5v4.7h-1.9v-8.9h1.9v1.1
					c0.6-0.9,1.5-1.4,2.7-1.4C925.5,955.2,927,956.6,927,958.9z"/>
			</g>
			<g>
				<path class="st15" d="M935.5,961.8c0,1.8-1.5,2.7-3.5,2.7c-1.8,0-3-0.8-3.6-2.1l1.6-1c0.3,0.8,1,1.3,2,1.3c0.8,0,1.5-0.3,1.5-1
					c0-1.6-4.8-0.7-4.8-3.9c0-1.7,1.4-2.7,3.2-2.7c1.5,0,2.7,0.7,3.3,1.8l-1.6,0.9c-0.3-0.7-0.9-1-1.7-1c-0.7,0-1.3,0.3-1.3,0.9
					C930.7,959.5,935.5,958.5,935.5,961.8z"/>
			</g>
			<g>
				<path class="st15" d="M936.8,963.2c0-0.7,0.6-1.3,1.3-1.3c0.7,0,1.3,0.6,1.3,1.3c0,0.7-0.6,1.3-1.3,1.3
					C937.4,964.5,936.8,963.9,936.8,963.2z"/>
			</g>
			<g>
				<path class="st15" d="M940.3,959.9c0-2.6,2-4.7,4.7-4.7c1.7,0,3.2,0.9,3.9,2.3l-1.6,1c-0.4-0.8-1.3-1.4-2.3-1.4
					c-1.6,0-2.7,1.2-2.7,2.8c0,1.6,1.2,2.8,2.7,2.8c1.1,0,1.9-0.5,2.4-1.4l1.6,0.9c-0.7,1.4-2.2,2.3-4,2.3
					C942.3,964.5,940.3,962.5,940.3,959.9z"/>
			</g>
			<g>
				<path class="st15" d="M949.7,959.9c0-2.6,2.1-4.7,4.7-4.7c2.6,0,4.7,2,4.7,4.7c0,2.6-2.1,4.7-4.7,4.7
					C951.8,964.5,949.7,962.5,949.7,959.9z M957.2,959.9c0-1.6-1.2-2.8-2.8-2.8s-2.8,1.2-2.8,2.8c0,1.6,1.2,2.8,2.8,2.8
					S957.2,961.5,957.2,959.9z"/>
			</g>
		</g>
	</g>
</g>
<g>
	<g id="XMLID_27_">
		<path id="XMLID_103_" class="st16" d="M751.3,362v-1.2h-59.8v1.7c0,23.8-13.7,45.3-35.1,55.9c-49.4,24.5-82.9,76.2-81.1,135.5
			c2.4,78.2,66.8,141.1,145,141.6c81.2,0.6,147.2-65.1,147.2-146.2c0-57.3-32.9-106.8-80.9-130.8C765.1,407.8,751.3,386,751.3,362z"
			/>
		<path id="XMLID_88_" class="st17" d="M575.6,538.4c-0.4,5.1-0.5,10.3-0.4,15.5c2.2,71.3,55.9,129.8,124.6,140.1
			C688.7,624.4,640.8,566.4,575.6,538.4z"/>
		<path id="XMLID_100_" class="st18" d="M786.7,418.5c-21.5-10.8-35.4-32.5-35.4-56.6v-1.2l-9.8-4.6v7.7c0,19.4,8.7,37.6,23.5,50.2
			c31.4,26.8,51.3,66.7,51.3,111.2c0,81.1-66,146.7-147.2,146.2c-11.7-0.1-23-1.6-33.9-4.3c24,17.6,53.4,28,85.1,28.3
			c81.2,0.6,147.2-65.1,147.2-146.2C867.5,492.1,834.6,442.5,786.7,418.5z"/>
		<path id="XMLID_53_" class="st19" d="M785.5,420.1c-21.2-10.6-34.9-32-34.9-55.8v-1.2h-59v1.6c0,23.5-13.5,44.7-34.6,55.1
			c-48.7,24.2-81.8,75.1-80,133.6c2.3,77.1,65.9,139.1,143,139.7c80.1,0.6,145.2-64.2,145.2-144.1
			C865.3,492.6,832.8,443.7,785.5,420.1z M720.9,677.5c-70.3,0-127.3-57-127.3-127.3s57-127.3,127.3-127.3s127.3,57,127.3,127.3
			S791.2,677.5,720.9,677.5z"/>
		<rect id="XMLID_56_" x="686.6" y="382.3" class="st16" width="70.7" height="12.6"/>
		<defs>
			<filter id="Adobe_OpacityMaskFilter" filterUnits="userSpaceOnUse" x="545.6" y="480.1" width="355.1" height="122.2">
				<feColorMatrix  type="matrix" values="1 0 0 0 0  0 1 0 0 0  0 0 1 0 0  0 0 0 1 0"/>
			</filter>
		</defs>
		<mask maskUnits="userSpaceOnUse" x="545.6" y="480.1" width="355.1" height="122.2" id="XMLID_52_">
			<g id="XMLID_223_" class="st20">
				<path id="XMLID_224_" class="st3" d="M751.3,362v-1.2h-59.8v1.7c0,23.8-13.7,45.3-35.1,55.9c-49.4,24.5-82.9,76.2-81.1,135.5
					c2.4,78.2,66.8,141.1,145,141.6c81.2,0.6,147.2-65.1,147.2-146.2c0-57.3-32.9-106.8-80.9-130.8C765.1,407.8,751.3,386,751.3,362
					z"/>
			</g>
		</mask>
		<g id="XMLID_86_" class="st21">
			<g id="XMLID_84_">
				<polygon id="XMLID_120_" class="st22" points="723.4,483.1 740.3,524.1 784.5,527.5 750.7,556.2 761.2,599.3 723.4,576 
					685.7,599.3 696.2,556.2 662.3,527.5 706.6,524.1 				"/>
				<path id="XMLID_119_" class="st23" d="M784.5,527.5l-44.2-3.3l-16.9-41l-1.3,3.2c9.6,13.3,15.2,29.5,15.2,47.2
					c0,16-4.6,30.8-12.6,43.3l36.5,22.5l-10.5-43.1L784.5,527.5z"/>
				<polygon id="XMLID_90_" class="st24" points="723.4,483.1 740.3,524.1 784.5,527.5 750.7,556.2 761.2,599.3 723.4,576 
					685.7,599.3 696.2,556.2 662.3,527.5 706.6,524.1 				"/>
			</g>
			<g id="XMLID_87_">
				<polygon id="XMLID_93_" class="st22" points="597.6,497.4 611.1,530.3 646.5,533 619.4,556 627.8,590.5 597.6,571.9 
					567.3,590.5 575.7,556 548.6,533 584.1,530.3 				"/>
				<path id="XMLID_92_" class="st25" d="M646.5,533l-35.5-2.7l-13.5-32.9l-1,2.5c7.7,10.6,12.2,23.7,12.2,37.8
					c0,12.8-3.7,24.7-10.1,34.7l29.2,18l-8.4-34.5L646.5,533z"/>
				<polygon id="XMLID_91_" class="st24" points="597.6,497.4 611.1,530.3 646.5,533 619.4,556 627.8,590.5 597.6,571.9 
					567.3,590.5 575.7,556 548.6,533 584.1,530.3 				"/>
			</g>
			<g id="XMLID_94_">
				<polygon id="XMLID_97_" class="st26" points="848.7,497.4 862.2,530.3 897.7,533 870.6,556 879,590.5 848.7,571.9 818.5,590.5 
					826.9,556 799.8,533 835.2,530.3 				"/>
				<polygon id="XMLID_121_" class="st22" points="848.7,497.4 862.2,530.3 897.7,533 870.6,556 879,590.5 848.7,571.9 818.5,590.5 
					826.9,556 799.8,533 835.2,530.3 				"/>
				<path id="XMLID_96_" class="st23" d="M897.7,533l-35.5-2.7l-13.5-32.9l-1,2.5c7.7,10.6,12.2,23.7,12.2,37.8
					c0,12.8-3.7,24.7-10.1,34.7l29.2,18l-8.4-34.5L897.7,533z"/>
				<polygon id="XMLID_95_" class="st24" points="848.7,497.4 862.2,530.3 897.7,533 870.6,556 879,590.5 848.7,571.9 818.5,590.5 
					826.9,556 799.8,533 835.2,530.3 				"/>
			</g>
		</g>
		<path id="XMLID_102_" class="st27" d="M662.3,457.7c3.2-2.7,6.9-4.9,10.6-6.8c1.1-0.5,2.1-1.1,3.2-1.6"/>
		<path id="XMLID_101_" class="st27" d="M625.5,497.7c5.3-9.8,12.1-18.8,20.1-26.6"/>
		<path id="XMLID_99_" class="st28" d="M751.3,362v-1.2h-59.8v1.7c0,23.8-13.7,45.3-35.1,55.9c-49.4,24.5-82.9,76.2-81.1,135.5
			c2.4,78.2,66.8,141.1,145,141.6c81.2,0.6,147.2-65.1,147.2-146.2c0-57.3-32.9-106.8-80.9-130.8C765.1,407.8,751.3,386,751.3,362z"
			/>
	</g>
	<circle id="XMLID_131_" class="st24" cx="720.5" cy="303" r="19.5"/>
	<path id="XMLID_130_" class="st29" d="M720.3,291.8L720.3,291.8c-1.1,0-2-0.9-2-2V0h4v289.8C722.3,290.9,721.4,291.8,720.3,291.8z"
		/>
	<g id="XMLID_122_">
		<path id="XMLID_129_" class="st30" d="M767.1,378.7h-92v-36.9c0-13,10.6-23.6,23.6-23.6h44.8c13,0,23.6,10.6,23.6,23.6V378.7z"/>
		<rect id="XMLID_128_" x="678.1" y="323.3" class="st31" width="84.4" height="10.1"/>
		<path id="XMLID_127_" class="st28" d="M767.1,378.7h-92v-36.9c0-13,10.6-23.6,23.6-23.6h44.8c13,0,23.6,10.6,23.6,23.6V378.7z"/>
		<g id="XMLID_123_">
			<line id="XMLID_126_" class="st32" x1="699.1" y1="355.5" x2="699.1" y2="376"/>
			<line id="XMLID_125_" class="st32" x1="722.1" y1="355.5" x2="722.1" y2="376"/>
			<line id="XMLID_124_" class="st32" x1="745.2" y1="355.5" x2="745.2" y2="376"/>
		</g>
	</g>
</g>
<g>
	<path id="XMLID_78_" class="st33" d="M272.7,322l40.8,82.6c3.2,6.5,9.4,11,16.6,12l91.1,13.2c7.9,1.2,11.1,10.9,5.4,16.5
		l-65.9,64.3c-5.2,5.1-7.6,12.3-6.3,19.5l15.6,90.8c1.4,7.9-6.9,13.9-14.1,10.2l-81.5-42.8c-6.4-3.4-14.1-3.4-20.5,0L172.3,631
		c-7.1,3.7-15.4-2.3-14.1-10.2l15.6-90.8c1.2-7.1-1.1-14.4-6.3-19.5l-65.9-64.3c-5.7-5.6-2.6-15.4,5.4-16.5l91.1-13.2
		c7.2-1,13.4-5.5,16.6-12l40.8-82.6C258.9,314.8,269.1,314.8,272.7,322z"/>
	<g id="XMLID_12_">
		<path id="XMLID_9_" class="st33" d="M272.7,322l40.8,82.6c3.2,6.5,9.4,11,16.6,12l91.1,13.2c7.9,1.2,11.1,10.9,5.4,16.5
			l-65.9,64.3c-5.2,5.1-7.6,12.3-6.3,19.5l15.6,90.8c1.4,7.9-6.9,13.9-14.1,10.2l-81.5-42.8c-6.4-3.4-14.1-3.4-20.5,0L172.3,631
			c-7.1,3.7-15.4-2.3-14.1-10.2l15.6-90.8c1.2-7.1-1.1-14.4-6.3-19.5l-65.9-64.3c-5.7-5.6-2.6-15.4,5.4-16.5l91.1-13.2
			c7.2-1,13.4-5.5,16.6-12l40.8-82.6C258.9,314.8,269.1,314.8,272.7,322z"/>
		<path id="XMLID_77_" class="st34" d="M426.5,446.3c5.7-5.6,2.6-15.4-5.4-16.5L330,416.6c-7.2-1-13.4-5.5-16.6-12L272.7,322
			c-3.6-7.2-13.8-7.2-17.4,0l-40.8,82.6c-3.2,6.5-9.4,11-16.6,12l-91.1,13.2c-7.9,1.2-11.1,10.9-5.4,16.5l65.9,64.3
			c5.2,5.1,7.6,12.3,6.3,19.5l-15.6,90.8c-1.4,7.9,6.9,13.9,14.1,10.2l81.5-42.8c6.4-3.4,14.1-3.4,20.5,0l81.5,42.8
			c7.1,3.7,15.4-2.3,14.1-10.2l-15.6-90.8c-1.2-7.1,1.1-14.4,6.3-19.5L426.5,446.3z M338.5,532.8l13.4,78.1L281.7,574
			c-5.4-2.9-11.5-4.4-17.7-4.4c-6.1,0-12.3,1.5-17.7,4.4l-70.2,36.9l13.4-78.1c2.1-12.3-2-24.9-10.9-33.6l-56.8-55.3l78.5-11.4
			c12.4-1.8,23.1-9.6,28.6-20.8l35.1-71.1l35.1,71.1c5.5,11.2,16.2,19,28.6,20.8l78.5,11.4l-56.8,55.3
			C340.4,507.9,336.3,520.5,338.5,532.8z M280.2,346.8h-32.4v-9.6h32.4V346.8z"/>
		<g id="XMLID_69_" class="st35">
			<path id="XMLID_70_" class="st33" d="M160.3,628.7c2.7,3.3,7.6,4.7,12,2.4l16.1-8.5C179.3,625.4,169.9,627.5,160.3,628.7z"/>
			<path id="XMLID_72_" class="st36" d="M426.5,446.3c5.7-5.6,2.6-15.4-5.4-16.5L330,416.6c-7.2-1-13.4-5.5-16.6-12l-0.2-0.5
				c1.4,9.9,2.1,20.1,2.1,30.4c0,66.9-30,126-75.6,161.2l14.1-7.4c6.4-3.4,14.1-3.4,20.5,0l81.5,42.8c7.1,3.7,15.4-2.3,14.1-10.2
				l-15.6-90.8c-1.2-7.1,1.1-14.4,6.3-19.5L426.5,446.3z"/>
		</g>
		<path id="XMLID_89_" class="st37" d="M311.1,607.6l44.6,23.5c7.1,3.7,15.4-2.3,14.1-10.2l-10.4-60.4
			C340.8,573.6,324.5,589.5,311.1,607.6z"/>
		<g id="XMLID_28_" class="st38">
			<polygon id="XMLID_29_" class="st39" points="263.8,489.4 263.4,490 263.8,490.6 264.5,490.4 264.5,489.6 			"/>
			<polygon id="XMLID_30_" class="st39" points="264.5,490.4 265.6,490 264.5,489.6 			"/>
			<path id="XMLID_31_" class="st39" d="M264,489.6l1.4,0.4l163.6-53.1c-0.9-3.5-3.7-6.5-7.9-7.1L330,416.6c-3.8-0.5-7.5-2-10.4-4.3
				L264,488.5V489.6z"/>
			<polygon id="XMLID_32_" class="st39" points="264.5,488.5 263.8,489.4 264.5,489.6 			"/>
			<polygon id="XMLID_33_" class="st39" points="262.7,489 263.4,490 263.8,489.4 			"/>
			<path id="XMLID_34_" class="st40" d="M355.2,519.1c1.1-3.2,2.9-6.1,5.4-8.5l65.9-64.3c2.7-2.7,3.4-6.3,2.6-9.4L265.6,490
				L355.2,519.1z"/>
			<polygon id="XMLID_35_" class="st39" points="262.7,491 263.8,490.6 263.4,490 			"/>
			<polygon id="XMLID_36_" class="st39" points="264.5,491.5 264.5,490.4 263.8,490.6 			"/>
			<path id="XMLID_37_" class="st40" d="M264,585.7c4,0.1,6.9,0.9,10,2.5l81.6,42.8c3.4,1.8,6.8,1.3,9.6-0.5L264,491.5V585.7z"/>
			<path id="XMLID_38_" class="st40" d="M319.6,412.3c-2.7-2-4.8-4.7-6.3-7.8L272.4,322c-1.7-3.4-4.4-5.2-8.4-5.4v171.9L319.6,412.3
				z"/>
			<path id="XMLID_39_" class="st39" d="M265.4,490l-1.4,0.4v1.2l101.3,139c3-2,5.1-5.6,4.4-9.8l-15.5-90.8c-0.6-3.7-0.4-7.5,0.8-11
				L265.4,490z"/>
			<path id="XMLID_40_" class="st40" d="M173.2,520c1,3.2,1.2,6.6,0.6,10l-15.6,90.8c-0.6,3.8,0.9,7.1,3.5,9.2l101-139L173.2,520z"
				/>
			<path id="XMLID_41_" class="st39" d="M263.6,490.6l-1,0.4l-101,139c2.8,2.3,6.9,3,10.6,1l81.3-42.8c3.4-1.8,7.5-2.6,10.5-2.5
				v-94.1L263.6,490.6z"/>
			<path id="XMLID_42_" class="st39" d="M263.6,489.4l0.4-1V316.6c-3-0.2-7.1,1.6-8.9,5.4l-40.6,82.6c-1.7,3.4-4.1,6.2-7.1,8.3
				l55.2,76.2L263.6,489.4z"/>
			<path id="XMLID_43_" class="st40" d="M207.3,412.9c-2.8,1.9-5.9,3.2-9.4,3.7l-91.1,13.2c-3.8,0.5-6.5,3.1-7.6,6.1L262.7,489
				L207.3,412.9z"/>
			<path id="XMLID_44_" class="st39" d="M263.4,490l-0.7-1L99.2,435.9c-1.3,3.4-0.7,7.5,2.3,10.4l65.9,64.3c2.7,2.6,4.7,5.9,5.7,9.4
				l89.5-29.1L263.4,490z"/>
		</g>
		<g id="XMLID_10_">
			<g id="XMLID_5_">
				<path class="st29" d="M268,317l-4.6,173L260,317c0-2.2,1.7-4,3.9-4.1c2.2,0,4,1.7,4.1,3.9C268,316.9,268,317,268,317z"/>
			</g>
			<g id="XMLID_4_">
				<path class="st29" d="M100.7,432.2l163.8,58.2L98.2,439.8c-2.1-0.6-3.3-2.9-2.7-5c0.6-2.1,2.9-3.3,5-2.7
					C100.6,432.2,100.6,432.2,100.7,432.2z"/>
			</g>
			<g id="XMLID_6_">
				<path class="st29" d="M430.7,441l-163.6,48.5l161.1-56.1c2.1-0.7,4.4,0.4,5.1,2.5c0.7,2.1-0.4,4.4-2.5,5.1
					C430.8,441,430.7,441,430.7,441z"/>
			</g>
			<g id="XMLID_7_">
				<path class="st29" d="M362.9,632.6l-98.4-141l104.8,136.3c1.3,1.8,1,4.3-0.7,5.6c-1.8,1.3-4.3,1-5.6-0.7
					C362.9,632.7,362.9,632.6,362.9,632.6z"/>
			</g>
			<g id="XMLID_8_">
				<path class="st29" d="M158.7,627.8l105.1-137.2l-98.7,142c-1.3,1.8-3.8,2.3-5.6,1s-2.3-3.8-1-5.6
					C158.6,627.9,158.6,627.9,158.7,627.8z"/>
			</g>
		</g>
		<path id="XMLID_11_" class="st3" d="M264.9,435l14.2,28.8c1,2.1,3,3.5,5.3,3.9l31.8,4.6c0.8,0.1,1.2,1.2,0.6,1.8l-23,22.4
			c-1.7,1.6-2.4,4-2,6.3l5.4,31.7c0.1,0.8-0.7,1.5-1.5,1.1l-28.4-14.9c-2.1-1.1-4.5-1.1-6.6,0l-28.4,14.9c-0.8,0.4-1.6-0.2-1.5-1.1
			l5.4-31.7c0.4-2.3-0.4-4.6-2-6.3l-23-22.4c-0.6-0.6-0.3-1.6,0.6-1.8l31.8-4.6c2.3-0.3,4.3-1.8,5.3-3.9l14.2-28.8
			C263.5,434.2,264.5,434.2,264.9,435z"/>
		<path id="XMLID_3_" class="st41" d="M264.9,435l14.2,28.8c1,2.1,3,3.5,5.3,3.9l31.8,4.6c0.8,0.1,1.2,1.2,0.6,1.8l-23,22.4
			c-1.7,1.6-2.4,4-2,6.3l5.4,31.7c0.1,0.8-0.7,1.5-1.5,1.1l-28.4-14.9c-2.1-1.1-4.5-1.1-6.6,0l-28.4,14.9c-0.8,0.4-1.6-0.2-1.5-1.1
			l5.4-31.7c0.4-2.3-0.4-4.6-2-6.3l-23-22.4c-0.6-0.6-0.3-1.6,0.6-1.8l31.8-4.6c2.3-0.3,4.3-1.8,5.3-3.9l14.2-28.8
			C263.5,434.2,264.5,434.2,264.9,435z"/>
		<path id="XMLID_2_" class="st28" d="M272.7,322l40.8,82.6c3.2,6.5,9.4,11,16.6,12l91.1,13.2c7.9,1.2,11.1,10.9,5.4,16.5
			l-65.9,64.3c-5.2,5.1-7.6,12.3-6.3,19.5l15.6,90.8c1.4,7.9-6.9,13.9-14.1,10.2l-81.5-42.8c-6.4-3.4-14.1-3.4-20.5,0L172.3,631
			c-7.1,3.7-15.4-2.3-14.1-10.2l15.6-90.8c1.2-7.1-1.1-14.4-6.3-19.5l-65.9-64.3c-5.7-5.6-2.6-15.4,5.4-16.5l91.1-13.2
			c7.2-1,13.4-5.5,16.6-12l40.8-82.6C258.9,314.8,269.1,314.8,272.7,322z"/>
	</g>
	<g id="XMLID_14_">
		<path id="XMLID_15_" class="st30" d="M296.1,334.4h-64.1V292c0-6.9,5.6-12.5,12.5-12.5h39.2c6.9,0,12.5,5.6,12.5,12.5V334.4z"/>
		<path id="XMLID_50_" class="st30" d="M296,286.5c0-3.6-2.9-6.5-6.5-6.5h-51c-3.6,0-6.5,2.9-6.5,6.5l0,0c0,3.6,2.9,6.5,6.5,6.5h51
			C293.1,293,296,290.1,296,286.5L296,286.5z"/>
		<path id="XMLID_13_" class="st28" d="M296.1,334.4h-64.1V292c0-6.9,5.6-12.5,12.5-12.5h39.2c6.9,0,12.5,5.6,12.5,12.5V334.4z"/>
		<line id="XMLID_16_" class="st32" x1="253" y1="312" x2="253" y2="334"/>
		<line id="XMLID_17_" class="st32" x1="275" y1="312" x2="275" y2="334"/>
	</g>
	<circle id="XMLID_45_" class="st24" cx="264.5" cy="261" r="19.5"/>
	<path id="XMLID_46_" class="st29" d="M263.7,246.3L263.7,246.3c-1.1,0-2-0.9-2-2V0h4v244.3C265.7,245.4,264.8,246.3,263.7,246.3z"
		/>
</g>
<g>
	<circle id="XMLID_26_" class="st24" cx="489.5" cy="429" r="19.5"/>
	<path id="XMLID_25_" class="st29" d="M489.3,417.8L489.3,417.8c-1.1,0-2-0.9-2-2V0h4v415.8C491.3,416.9,490.4,417.8,489.3,417.8z"
		/>
	<g id="XMLID_61_">
		<path id="XMLID_59_" class="st42" d="M520.3,479.2V478h-61.1v1.7c0,24.3-14,46.3-35.8,57.1c-50.4,25.1-84.7,77.8-82.8,138.4
			c2.4,79.9,68.2,144.1,148.1,144.7c82.9,0.6,150.4-66.5,150.4-149.3c0-58.5-33.6-109.1-82.6-133.6
			C534.4,526,520.3,503.8,520.3,479.2z"/>
		<path id="XMLID_71_" class="st15" d="M556.4,537c-22-11-36.1-33.2-36.1-57.8V478l-10-4.7v7.9c0,19.8,8.9,38.4,24,51.2
			c32.1,27.4,52.4,68.1,52.4,113.6c0,82.8-67.4,149.9-150.4,149.3c-11.9-0.1-23.5-1.6-34.6-4.3c24.5,17.9,54.5,28.6,86.9,28.9
			c82.9,0.6,150.4-66.5,150.4-149.3C639,612.1,605.4,561.5,556.4,537z"/>
		<path id="XMLID_111_" class="st43" d="M556.4,537c-22-11-36.1-33.2-36.1-57.8V478h-61.1v1.7c0,24.3-14,46.3-35.8,57.1
			c-50.4,25.1-84.7,77.8-82.8,138.4c2.4,79.9,68.2,144.1,148.1,144.7c82.9,0.6,150.4-66.5,150.4-149.3
			C639,612.1,605.4,561.5,556.4,537z M489.5,803.6c-72.8,0-131.9-59-131.9-131.9s59-131.9,131.9-131.9s131.9,59,131.9,131.9
			S562.3,803.6,489.5,803.6z"/>
		<rect id="XMLID_106_" x="448.3" y="507.6" class="st42" width="81.9" height="10.5"/>
		<path id="XMLID_48_" class="st27" d="M429.4,577c3.3-2.8,7.1-5,10.8-6.9c1.1-0.5,2.2-1.1,3.2-1.6"/>
		<path id="XMLID_85_" class="st27" d="M391.8,617.8c5.4-10,12.3-19.2,20.6-27.2"/>
		<path id="XMLID_20_" class="st28" d="M520.3,479.2V478h-61.1v1.7c0,24.3-14,46.3-35.8,57.1c-50.4,25.1-84.7,77.8-82.8,138.4
			c2.4,79.9,68.2,144.1,148.1,144.7c82.9,0.6,150.4-66.5,150.4-149.3c0-58.5-33.6-109.1-82.6-133.6
			C534.4,526,520.3,503.8,520.3,479.2z"/>
		<path id="XMLID_104_" class="st28" d="M520.3,479.2V478h-61.1v1.7c0,24.3-14,46.3-35.8,57.1c-50.4,25.1-84.7,77.8-82.8,138.4
			c2.4,79.9,68.2,144.1,148.1,144.7c82.9,0.6,150.4-66.5,150.4-149.3c0-58.5-33.6-109.1-82.6-133.6
			C534.4,526,520.3,503.8,520.3,479.2z"/>
		<g id="XMLID_68_">
			<path id="XMLID_67_" class="st26" d="M340.5,675.2c0.1,4.9,0.5,9.7,1.1,14.4h296.1c0.8-6.2,1.2-12.6,1.2-19
				c0-12.1-1.5-23.8-4.2-35.1H344.6C341.5,648.2,340.1,661.5,340.5,675.2z"/>
			<path id="XMLID_73_" class="st44" d="M340.7,679.7c0.5-9,1.8-17.7,3.9-26.2h290.2c2,8.4,3.3,17.1,3.9,26c0.2-3,0.3-6,0.3-9
				c0-12.1-1.5-23.8-4.2-35.1H344.6c-3.1,12.7-4.5,26-4.1,39.7C340.6,676.7,340.6,678.2,340.7,679.7z"/>
			<path id="XMLID_64_" class="st28" d="M340.5,675.2c0.1,4.9,0.5,9.7,1.1,14.4h296.1c0.8-6.2,1.2-12.6,1.2-19
				c0-12.1-1.5-23.8-4.2-35.1H344.6C341.5,648.2,340.1,661.5,340.5,675.2z"/>
			<g id="XMLID_24_">
				<circle id="XMLID_83_" class="st3" cx="395.6" cy="662.6" r="16.8"/>
				<circle id="XMLID_82_" class="st3" cx="459.3" cy="662.6" r="16.8"/>
				<circle id="XMLID_81_" class="st3" cx="523" cy="662.6" r="16.8"/>
				<circle id="XMLID_49_" class="st3" cx="586.7" cy="662.6" r="16.8"/>
			</g>
			<g id="XMLID_62_">
				<circle id="XMLID_60_" class="st45" cx="395.6" cy="662.6" r="16.8"/>
				<circle id="XMLID_63_" class="st45" cx="459.3" cy="662.6" r="16.8"/>
				<circle id="XMLID_65_" class="st45" cx="523" cy="662.6" r="16.8"/>
				<circle id="XMLID_66_" class="st45" cx="586.7" cy="662.6" r="16.8"/>
			</g>
		</g>
	</g>
	<g id="XMLID_58_">
		<path id="XMLID_47_" class="st30" d="M536.1,504.7h-92v-36.9c0-13,10.6-23.6,23.6-23.6h44.8c13,0,23.6,10.6,23.6,23.6V504.7z"/>
		<rect id="XMLID_57_" x="447.1" y="448.3" class="st31" width="84.4" height="10.1"/>
		<path id="XMLID_18_" class="st28" d="M536.1,504.7h-92v-36.9c0-13,10.6-23.6,23.6-23.6h44.8c13,0,23.6,10.6,23.6,23.6V504.7z"/>
		<g id="XMLID_19_">
			<line id="XMLID_21_" class="st32" x1="468.1" y1="481.5" x2="468.1" y2="502"/>
			<line id="XMLID_22_" class="st32" x1="491.1" y1="481.5" x2="491.1" y2="502"/>
			<line id="XMLID_23_" class="st32" x1="514.2" y1="481.5" x2="514.2" y2="502"/>
		</g>
	</g>
</g>
</svg>
