<?xml version="1.0" encoding="utf-8"?>
<!-- Generator: Adobe Illustrator 23.1.1, SVG Export Plug-In . SVG Version: 6.00 Build 0)  -->
<svg version="1.1" id="Layer_1" xmlns="http://www.w3.org/2000/svg" xmlns:xlink="http://www.w3.org/1999/xlink" x="0px" y="0px"
	 viewBox="0 0 1000 1000" style="enable-background:new 0 0 1000 1000;" xml:space="preserve">
<style type="text/css">
	.st0{fill:#7330C1;}
	.st1{opacity:0.34;fill:#6027A6;}
	.st2{opacity:0.51;fill:#6027A6;}
	.st3{fill:#6027A6;}
	.st4{fill:#FDB130;}
	.st5{opacity:0.32;fill:#FFFFFF;}
	.st6{opacity:0.16;fill:#FFFFFF;}
	.st7{opacity:0.44;fill:#FFFFFF;}
	.st8{opacity:0.39;}
	.st9{fill:#FFFFFF;}
	.st10{opacity:0.11;}
	.st11{fill:#414042;}
	.st12{fill:none;stroke:#2A2A2A;stroke-width:6;stroke-linecap:round;stroke-linejoin:round;stroke-miterlimit:10;}
	.st13{fill:#2A2A2A;}
	.st14{opacity:0.41;fill:#2A2A2A;}
	.st15{fill:#AAD543;}
	.st16{opacity:0.49;}
	.st17{fill:#8EC42B;}
	.st18{fill:#C6E65B;}
	.st19{fill:#E9342B;}
	.st20{fill:#EE368C;}
	.st21{fill:#E41B64;}
	.st22{opacity:0.39;fill:#FFFFFB;}
	.st23{opacity:0.49;fill:#AAD543;}
	.st24{opacity:0.29;fill:#E41B64;}
	.st25{fill:none;stroke:#F4CD39;stroke-width:2;stroke-linecap:round;stroke-linejoin:round;stroke-miterlimit:10;}
	.st26{opacity:0.46;fill:none;stroke:#F4CD39;stroke-width:2;stroke-linecap:round;stroke-linejoin:round;stroke-miterlimit:10;}
	.st27{fill:none;stroke:#FDB130;stroke-width:2;stroke-linecap:round;stroke-linejoin:round;stroke-miterlimit:10;}
	.st28{fill:none;stroke:#E03F8D;stroke-width:2;stroke-linecap:round;stroke-linejoin:round;stroke-miterlimit:10;}
	.st29{fill:none;stroke:#1DB7C2;stroke-width:2;stroke-linecap:round;stroke-linejoin:round;stroke-miterlimit:10;}
	.st30{fill:none;stroke:#9E3FB7;stroke-width:2;stroke-linecap:round;stroke-linejoin:round;stroke-miterlimit:10;}
	.st31{opacity:0.6;}
	.st32{fill:none;stroke:#FFFFFF;stroke-width:2;stroke-linecap:round;stroke-linejoin:round;stroke-miterlimit:10;}
	.st33{opacity:0.4;}
	.st34{opacity:0.53;}
	.st35{fill:#EEF2F4;}
</style>
<rect id="XMLID_384_" x="0.3" y="-0.3" class="st0" width="1000" height="640"/>
<g>
	<circle id="XMLID_383_" class="st1" cx="500.3" cy="519.4" r="375.7"/>
	<circle id="XMLID_382_" class="st2" cx="500.3" cy="519.4" r="290.1"/>
	<circle id="XMLID_381_" class="st3" cx="500.3" cy="519.4" r="199.7"/>
</g>
<rect id="XMLID_380_" x="0.3" y="639.7" class="st4" width="1000" height="360"/>
<g>
	<path id="XMLID_379_" class="st5" d="M258,700.5L258,700.5c0-6.1-4.9-11-11-11H140.5c-6.1,0-11,4.9-11,11l0,0c0,6.1,4.9,11,11,11
		h20.8c6.1,0,11,4.9,11,11l0,0c0,6.1-4.9,11-11,11h-25.7c-6.1,0-11,4.9-11,11l0,0c0,6.1,4.9,11,11,11h88.6c6.1,0,11-4.9,11-11l0,0
		c0-6.1-4.9-11-11-11H217c-6.1,0-11-4.9-11-11l0,0c0-6.1,4.9-11,11-11H247C253.1,711.4,258,706.5,258,700.5z"/>
	<path id="XMLID_378_" class="st6" d="M172.1,777.2h-1.8c-6.1,0-11,4.9-11,11l0,0c0,6.1,4.9,11,11,11h1.8c6.1,0,11-4.9,11-11l0,0
		C183,782.1,178.1,777.2,172.1,777.2z"/>
	<path id="XMLID_377_" class="st6" d="M315.7,755.3h-14.3c-6.1,0-11,4.9-11,11l0,0c0,6.1,4.9,11,11,11h14.3c6.1,0,11-4.9,11-11l0,0
		C326.6,760.2,321.7,755.3,315.7,755.3z"/>
	<path id="XMLID_376_" class="st7" d="M290.9,689.5h-1c-6.1,0-11,4.9-11,11l0,0c0,6.1,4.9,11,11,11h1c6.1,0,11-4.9,11-11l0,0
		C301.9,694.4,297,689.5,290.9,689.5z"/>
</g>
<g>
	<g id="XMLID_368_" class="st8">
		<path id="XMLID_372_" class="st9" d="M401.9,711.4h87.4c6.1,0,11,4.9,11,11v0c0,6.1-4.9,11-11,11h-42.3c-6.1,0-11,4.9-11,11l0,0
			c0,6.1,4.9,11,11,11h5.7c6.1,0,11,4.9,11,11v0c0,6.1-4.9,11-11,11h-37.2c-6.1,0-11,4.9-11,11v0c0,6.1,4.9,11,11,11H692
			c6.1,0,11-4.9,11-11v0c0-6.1-4.9-11-11-11h-65.3c-6.1,0-11-4.9-11-11v0c0-6.1,4.9-11,11-11H692c6.1,0,11-4.9,11-11l0,0
			c0-6.1-4.9-11-11-11h-8.2c-6.1,0-11-4.9-11-11v0c0-6.1,4.9-11,11-11h67.4c6.1,0,11-4.9,11-11v0c0-6.1-4.9-11-11-11H401.9
			c-6.1,0-11,4.9-11,11v0C391,706.5,395.9,711.4,401.9,711.4z M546.6,777.2h-35.3c-6.1,0-11-4.9-11-11v0c0-6.1,4.9-11,11-11h35.3
			c6.1,0,11,4.9,11,11v0C557.5,772.3,552.6,777.2,546.6,777.2z M612.8,722.4L612.8,722.4c0,6.1-4.9,11-11,11h-15.5
			c-6.1,0-11-4.9-11-11v0c0-6.1,4.9-11,11-11h15.5C607.9,711.4,612.8,716.3,612.8,722.4z"/>
		<path id="XMLID_371_" class="st9" d="M791.3,700.5L791.3,700.5c0,6.1,4.9,11,11,11h8.4c6.1,0,11-4.9,11-11v0c0-6.1-4.9-11-11-11
			h-8.4C796.2,689.5,791.3,694.4,791.3,700.5z"/>
		<path id="XMLID_370_" class="st9" d="M395.4,733.3h-8.4c-6.1,0-11,4.9-11,11l0,0c0,6.1,4.9,11,11,11h8.4c6.1,0,11-4.9,11-11l0,0
			C406.3,738.2,401.4,733.3,395.4,733.3z"/>
		<path id="XMLID_369_" class="st9" d="M733.5,755.3h16.4c6.1,0,11-4.9,11-11l0,0c0-6.1-4.9-11-11-11h-16.4c-6.1,0-11,4.9-11,11l0,0
			C722.6,750.4,727.5,755.3,733.5,755.3z"/>
	</g>
	<g id="XMLID_358_" class="st10">
		<path id="XMLID_367_" class="st9" d="M895.9,700.5L895.9,700.5c0,6.1,4.9,11,11,11h8.4c6.1,0,11-4.9,11-11v0c0-6.1-4.9-11-11-11
			h-8.4C900.8,689.5,895.9,694.4,895.9,700.5z"/>
		<path id="XMLID_366_" class="st9" d="M793.1,799.1h13.7c6.1,0,11-4.9,11-11v0c0-6.1-4.9-11-11-11h-13.7c-6.1,0-11,4.9-11,11v0
			C782.1,794.2,787,799.1,793.1,799.1z"/>
		<path id="XMLID_365_" class="st9" d="M718.3,842.9h3.2c6.1,0,11-4.9,11-11v0c0-6.1-4.9-11-11-11h-3.2c-6.1,0-11,4.9-11,11v0
			C707.3,838,712.3,842.9,718.3,842.9z"/>
		<path id="XMLID_361_" class="st9" d="M695.7,755.3h7.4c6.1,0,11-4.9,11-11l0,0c0-6.1-4.9-11-11-11h-15.8c-6.1,0-11-4.9-11-11v0
			c0-6.1,4.9-11,11-11h168.5c6.1,0,11-4.9,11-11v0c0-6.1-4.9-11-11-11H506.5c-6.1,0-11,4.9-11,11v0c0,6.1,4.9,11,11,11h75.7
			c6.1,0,11,4.9,11,11v0c0,6.1-4.9,11-11,11h-30c-6.1,0-11,4.9-11,11l0,0c0,6.1,4.9,11,11,11h31.6c6.1,0,11,4.9,11,11v0
			c0,6.1-4.9,11-11,11h-45.7c-6.1,0-11,4.9-11,11v0c0,6.1,4.9,11,11,11h35.1c6.1,0,11,4.9,11,11v0c0,6.1-4.9,11-11,11h-24.9
			c-6.1,0-11,4.9-11,11v0c0,6.1,4.9,11,11,11H676c6.1,0,11-4.9,11-11v0c0-6.1-4.9-11-11-11h-12.7c-6.1,0-11-4.9-11-11v0
			c0-6.1,4.9-11,11-11h77.9c6.1,0,11-4.9,11-11v0c0-6.1-4.9-11-11-11h-45.5c-6.1,0-11-4.9-11-11v0
			C684.7,760.2,689.6,755.3,695.7,755.3z M632.5,711.4h4.4c6.1,0,11,4.9,11,11v0c0,6.1-4.9,11-11,11h-4.4c-6.1,0-11-4.9-11-11v0
			C621.6,716.3,626.5,711.4,632.5,711.4z M622.2,766.2L622.2,766.2c0-6.1,4.9-11,11-11h3c6.1,0,11,4.9,11,11v0c0,6.1-4.9,11-11,11
			h-3C627.1,777.2,622.2,772.3,622.2,766.2z"/>
		<path id="XMLID_360_" class="st9" d="M810.9,755.3h18.3c6.1,0,11-4.9,11-11l0,0c0-6.1-4.9-11-11-11h-18.3c-6.1,0-11,4.9-11,11l0,0
			C799.9,750.4,804.8,755.3,810.9,755.3z"/>
		<path id="XMLID_359_" class="st9" d="M869.1,755.3h3.1c6.1,0,11-4.9,11-11l0,0c0-6.1-4.9-11-11-11h-3.1c-6.1,0-11,4.9-11,11l0,0
			C858.1,750.4,863.1,755.3,869.1,755.3z"/>
	</g>
</g>
<g id="XMLID_69_">
	<g id="XMLID_126_">
		<path id="XMLID_357_" class="st11" d="M189.9,689.5h-13.8V242.9c0-3.8,3.1-6.9,6.9-6.9h0c3.8,0,6.9,3.1,6.9,6.9V689.5z"/>
		<path id="XMLID_356_" class="st12" d="M189.9,689.5h-13.8V242.9c0-3.8,3.1-6.9,6.9-6.9h0c3.8,0,6.9,3.1,6.9,6.9V689.5z"/>
		<line id="XMLID_355_" class="st12" x1="218.2" y1="689.5" x2="147.7" y2="689.5"/>
		<line id="XMLID_354_" class="st12" x1="235.1" y1="689.5" x2="230.6" y2="689.5"/>
	</g>
	<g id="XMLID_94_">
		<g>
			<g id="XMLID_98_">
				<path id="XMLID_107_" class="st13" d="M295.3,312.7c-10.1,0.4-20.1,1.2-30.1,2.4c0-10,0-20.1,0-30.1c10-1.2,20-2,30.1-2.4
					C295.3,292.6,295.3,302.7,295.3,312.7z"/>
				<path id="XMLID_106_" class="st13" d="M295.3,372.9c-10.1,0.4-20.1,1.2-30.1,2.4c0-10,0-20.1,0-30.1c10-1.2,20-2,30.1-2.4
					C295.3,352.8,295.3,362.9,295.3,372.9z"/>
				<path id="XMLID_105_" class="st9" d="M325.5,312.7c-10.1-0.4-20.1-0.4-30.2,0c0-10,0-20.1,0-30.1c10.1-0.4,20.1-0.4,30.2,0
					C325.5,292.6,325.5,302.7,325.5,312.7z"/>
				<path id="XMLID_104_" class="st13" d="M325.5,342.8c-10.1-0.4-20.1-0.4-30.2,0c0-10,0-20.1,0-30.1c10.1-0.4,20.1-0.4,30.2,0
					C325.5,322.7,325.5,332.8,325.5,342.8z"/>
				<path id="XMLID_103_" class="st9" d="M325.5,372.9c-10.1-0.4-20.1-0.4-30.2,0c0-10,0-20.1,0-30.1c10.1-0.4,20.1-0.4,30.2,0
					C325.5,352.8,325.5,362.9,325.5,372.9z"/>
				<path id="XMLID_102_" class="st13" d="M355.6,315.1c-10-1.2-20-2-30.1-2.4c0-10,0-20.1,0-30.1c10.1,0.4,20.1,1.2,30.1,2.4
					C355.6,295,355.6,305,355.6,315.1z"/>
				<path id="XMLID_101_" class="st9" d="M355.6,345.2c-10-1.2-20-2-30.1-2.4c0-10,0-20.1,0-30.1c10.1,0.4,20.1,1.2,30.1,2.4
					C355.6,325.1,355.6,335.1,355.6,345.2z"/>
				<path id="XMLID_100_" class="st13" d="M355.6,375.3c-10-1.2-20-2-30.1-2.4c0-10,0-20.1,0-30.1c10.1,0.4,20.1,1.2,30.1,2.4
					C355.6,355.2,355.6,365.3,355.6,375.3z"/>
				<path id="XMLID_99_" class="st9" d="M295.3,342.8c-10.1,0.4-20.1,1.2-30.1,2.4c0-10,0-20.1,0-30.1c10-1.2,20-2,30.1-2.4
					C295.3,322.7,295.3,332.8,295.3,342.8z"/>
			</g>
			<path id="XMLID_97_" class="st12" d="M355.6,375.3c-30-3.6-60.3-3.6-90.4,0c0-30.1,0-60.2,0-90.3c30-3.6,60.3-3.6,90.4,0
				C355.6,315.1,355.6,345.2,355.6,375.3z"/>
			<path id="XMLID_96_" class="st14" d="M265.2,284.9c9.1-1.1,18.3-1.8,27.4-2.3c0,30.1,0,60.2,0,90.3c-9.2,0.4-18.3,1.2-27.4,2.3
				C265.2,345.2,265.2,315.1,265.2,284.9z"/>
		</g>
	</g>
	<g id="XMLID_70_">
		<g>
			<g id="XMLID_73_">
				<path id="XMLID_82_" class="st13" d="M220,286.9c-10.1,0.4-20.1,1.2-30.1,2.4c0-10,0-20.1,0-30.1c10-1.2,20-2,30.1-2.4
					C220,266.8,220,276.8,220,286.9z"/>
				<path id="XMLID_81_" class="st13" d="M220,347.1c-10.1,0.4-20.1,1.2-30.1,2.4c0-10,0-20.1,0-30.1c10-1.2,20-2,30.1-2.4
					C220,327,220,337.1,220,347.1z"/>
				<path id="XMLID_80_" class="st9" d="M250.2,286.9c-10.1-0.4-20.1-0.4-30.2,0c0-10,0-20.1,0-30.1c10.1-0.4,20.1-0.4,30.2,0
					C250.2,266.8,250.2,276.8,250.2,286.9z"/>
				<path id="XMLID_79_" class="st13" d="M250.2,317c-10.1-0.4-20.1-0.4-30.2,0c0-10,0-20.1,0-30.1c10.1-0.4,20.1-0.4,30.2,0
					C250.2,296.9,250.2,307,250.2,317z"/>
				<path id="XMLID_78_" class="st9" d="M250.2,347.1c-10.1-0.4-20.1-0.4-30.2,0c0-10,0-20.1,0-30.1c10.1-0.4,20.1-0.4,30.2,0
					C250.2,327,250.2,337.1,250.2,347.1z"/>
				<path id="XMLID_77_" class="st13" d="M280.3,289.2c-10-1.2-20-2-30.1-2.4c0-10,0-20.1,0-30.1c10.1,0.4,20.1,1.2,30.1,2.4
					C280.3,269.2,280.3,279.2,280.3,289.2z"/>
				<path id="XMLID_76_" class="st9" d="M280.3,319.4c-10-1.2-20-2-30.1-2.4c0-10,0-20.1,0-30.1c10.1,0.4,20.1,1.2,30.1,2.4
					C280.3,299.3,280.3,309.3,280.3,319.4z"/>
				<path id="XMLID_75_" class="st13" d="M280.3,349.5c-10-1.2-20-2-30.1-2.4c0-10,0-20.1,0-30.1c10.1,0.4,20.1,1.2,30.1,2.4
					C280.3,329.4,280.3,339.4,280.3,349.5z"/>
				<path id="XMLID_74_" class="st9" d="M220,317c-10.1,0.4-20.1,1.2-30.1,2.4c0-10,0-20.1,0-30.1c10-1.2,20-2,30.1-2.4
					C220,296.9,220,307,220,317z"/>
			</g>
			<path id="XMLID_72_" class="st12" d="M280.3,349.5c-30-3.6-60.3-3.6-90.4,0c0-30.1,0-60.2,0-90.3c30-3.6,60.3-3.6,90.4,0
				C280.3,289.2,280.3,319.4,280.3,349.5z"/>
		</g>
	</g>
</g>
<g id="XMLID_5_">
	<g id="XMLID_67_">
		<path class="st15" d="M440.7,555.6c-5.1-0.4-10.2-0.8-15.3-1.2c2.6-19.6,1.4-39.3-3.2-58.1c3.6-1,7.2-2.1,10.8-3.2
			C439.4,512.9,442.1,534.1,440.7,555.6z"/>
	</g>
	<g id="XMLID_65_" class="st16">
		<path class="st15" d="M440.7,555.6c-5.1-0.4-10.2-0.8-15.3-1.2c2.6-19.6,1.4-39.3-3.2-58.1c3.6-1,7.2-2.1,10.8-3.2
			C439.4,512.9,442.1,534.1,440.7,555.6z"/>
	</g>
	<g id="XMLID_63_">
		<path class="st12" d="M440.7,555.6c-5.1-0.4-10.2-0.8-15.3-1.2c2.6-19.6,1.4-39.3-3.2-58.1c3.6-1,7.2-2.1,10.8-3.2
			C439.4,512.9,442.1,534.1,440.7,555.6z"/>
	</g>
	<path id="XMLID_62_" class="st9" d="M676.2,649.7l-143.6-15.2c-22.5-2.2-39.6-21.1-39.6-43.7l-2.3-18.4c-3.2-27.1-23.4-36-43.7-36
		c-29,0-33.5,19.7-34.1,56.9c2.1,0.9,4.3,1,7.8,1.2c0.9,11.3-3.8,21.5-7.7,28.1c2.5,37.9,26,65.7,59.8,65.7h216.8
		c5.4,0,14.2-0.8,21.7-1.6c7.5-0.8,11.3-9.5,6.7-15.5C710.2,661.1,702.2,654.3,676.2,649.7z"/>
	<path id="XMLID_61_" class="st15" d="M676.2,649.7l-143.6-15.2c-22.5-2.2-39.6-21.1-39.6-43.7l-2.3-18.4c-3.2-27.1-23.4-36-43.7-36
		c-29,0-33.5,19.7-34.1,56.9c2.1,0.9,4.3,1,7.8,1.2c0.9,11.3-3.8,21.5-7.7,28.1c2.5,37.9,26,65.7,59.8,65.7h216.8
		c5.4,0,14.2-0.8,21.7-1.6c7.5-0.8,11.3-9.5,6.7-15.5C710.2,661.1,702.2,654.3,676.2,649.7z"/>
	<path id="XMLID_60_" class="st17" d="M716.5,669.3c0,9.3-19,10.4-24.1,10.4l-214.6-3.6c-21.3,0-36-5.6-49.9-22.6
		c-3.8-4.7-11.6-19.6-13.9-28.1c3.8,42.3,32.2,63.1,58.7,63.1h216.8c5.4,0,12-0.8,19.5-1.6C715.7,686.1,722.9,677.7,716.5,669.3z"/>
	<path id="XMLID_59_" class="st18" d="M718.8,668.4c-7.7-10.1-16.5-14.1-42.3-18.6c-0.1,0-0.2,0-0.4-0.1l-143.4-15.2
		c-22.4-2.1-39.5-20.9-39.6-43.4c0-0.2,0-0.3,0-0.5l-2.3-18.2c-3.2-27.1-23.4-36-43.7-36c-3.3,0-6.3,0.3-9,0.8
		c-5.7,1.1-5.4,1.7-11.1,4.5c-6.7,3.4-12.3,25.6-12.3,25.7c0.8,18.4,0.8-17.3,19.7-22.3c21.8-5.8,41.9,1.8,45.6,27.8
		c0,0,2.5,24.3,3.4,30.4c3.3,22.2,21.5,37.9,43.9,40.1L668.4,660c0.1,0-3.8-4-3.7-4c25.8,4.6,52.5,7.5,54.1,20.1
		c0,0.2-2.8,4.4-2.7,4.6c1.2,1.2,1.1,1.5,2.7-1.6C720.5,675.9,721.2,671.6,718.8,668.4z"/>
	<path id="XMLID_58_" class="st12" d="M676.2,649.7l-143.6-15.2c-22.5-2.2-39.6-21.1-39.6-43.7l-2.3-18.4c-3.2-27.1-23.4-36-43.7-36
		c-29,0-33.5,19.7-34.1,56.9c2.1,0.9,4.3,1,7.8,1.2c0.9,11.3-3.8,21.5-7.7,28.1c2.5,37.9,26,65.7,59.8,65.7h216.8
		c5.4,0,17.5-1.1,23.7-5.3c7.6-5.2,7.8-12.8,2.5-18.1C708.3,657.4,702.2,654.3,676.2,649.7z"/>
	<path id="XMLID_57_" class="st13" d="M412.9,593.4c0,0,6.9,3.9,30.2-2.4c0.2,8.6-12.8,29.6-30,31.7c1-1.8,7.1-13.5,7.6-21.7
		c0-1.5,0.6-5.4,0.1-6.4C415.6,594.6,412.9,593.4,412.9,593.4z"/>
	<path id="XMLID_56_" class="st12" d="M412.9,593.4c0,0,6.9,3.9,30.2-2.4c0.2,8.6-12.8,29.6-30,31.7c1-1.8,7.1-13.5,7.6-21.7
		c0-1.5,0.6-5.4,0.1-6.4C415.6,594.6,412.9,593.4,412.9,593.4z"/>
	<path id="XMLID_55_" class="st12" d="M440.3,585.8c0.3,0.3,5.1,4.9,6.4,9.7"/>
	<path id="XMLID_54_" class="st15" d="M472.2,556.2c-5.4-0.4-10.7-0.9-16.1-1.3c3.4-27.4,1.5-54.9-5.2-81c3.8-1.1,7.6-2.2,11.4-3.3
		C470.7,497.7,474.3,526.7,472.2,556.2z"/>
	<path id="XMLID_53_" class="st17" d="M462.3,470.6c-2.5,0.7-4.9,1.4-7.4,2.2c3.4,9.1,2.4,32.5,4.1,32.3c1.7-0.2,5.2-1.3,5.6,0.3
		c3.1,14.5,4.8,30.1,4.8,48.4c2.4,0.2,0.4,2.3,2.8,2.5C474.3,526.7,470.7,497.7,462.3,470.6z"/>
	<path id="XMLID_52_" class="st12" d="M457,546.2c2-24.5-0.1-48.9-6.1-72.2c3.8-1.1,7.6-2.2,11.4-3.3c8.5,27.1,12,56.1,9.9,85.6"/>
	<g id="XMLID_44_">
		<g id="XMLID_49_">
			<circle id="XMLID_51_" class="st15" cx="422.5" cy="480.5" r="24.3"/>
			<circle id="XMLID_50_" class="st12" cx="422.5" cy="480.5" r="24.3"/>
		</g>
		<g id="XMLID_45_">
			<circle id="XMLID_48_" class="st9" cx="419.9" cy="484.4" r="19.9"/>
			<circle id="XMLID_47_" class="st13" cx="414.6" cy="487.3" r="7.4"/>
			<circle id="XMLID_46_" class="st12" cx="419.9" cy="484.4" r="19.9"/>
		</g>
	</g>
	<g id="XMLID_36_">
		<g id="XMLID_41_">
			<circle id="XMLID_43_" class="st15" cx="461.5" cy="463.6" r="32.8"/>
			<circle id="XMLID_42_" class="st12" cx="461.5" cy="463.6" r="32.8"/>
		</g>
		<g id="XMLID_37_">
			<circle id="XMLID_40_" class="st9" cx="457.9" cy="468.8" r="26.9"/>
			<circle id="XMLID_39_" class="st13" cx="450.7" cy="472.7" r="9.9"/>
			<circle id="XMLID_38_" class="st12" cx="457.9" cy="468.8" r="26.9"/>
		</g>
	</g>
	<path id="XMLID_35_" class="st19" d="M612.2,624.5"/>
	<path id="XMLID_34_" class="st20" d="M543.8,653.4c-15.9-2.2-31.4-28.1-31.4-62.5c0-54.8,42.7-95.3,95.3-95.3S703,538.3,703,591
		s-42.7,95.3-95.3,95.3c-26.3,0-63.8-12.1-70-51.4c-6.2-39.3,18.3-76.6,61.3-79.1c27.9-1.6,53.2,21.2,53.2,49.1
		s-23.3,48.7-44.5,48.7c-21,0-32.2-13-32.2-28.6s10.6-26.2,26.2-26.2c10.4,0,15.8,9.9,15.4,17.5"/>
	<path id="XMLID_33_" class="st21" d="M586.7,648.3c0,0,41.6,12,65.2-37.7c-6.4,19-8.6,29.1-26.5,38.5
		C604.5,653.5,606.3,655.7,586.7,648.3z"/>
	<path id="XMLID_25_" class="st21" d="M679.2,528.7c11.7,15.8,19.5,31.3,20.9,47.8c5.2,63.3-56.4,106.8-106.9,101.5
		c-21.5-2.2-34-10.5-49.3-24.6l-16.6-11.3c-5-0.7-1.8-5.5-6.3-10.3c6,12.4,14.4,20.4,22.9,21.5l0,0c13.1,24.7,42.3,32.9,63.9,32.9
		c52.6,0,95.3-42.7,95.3-95.3C703,568.8,695.8,545.3,679.2,528.7z"/>
	<path id="XMLID_24_" class="st22" d="M517.8,599.6c0-54.8,42.7-95.3,95.3-95.3c32.1,0,60.6,15.9,77.8,40.3
		c-16.3-29.2-47.5-48.9-83.3-48.9c-52.6,0-95.3,40.5-95.3,95.3c0,21.8,6.2,40.1,14.8,51.2C521.5,631.2,517.8,616.4,517.8,599.6z"/>
	<path id="XMLID_23_" class="st22" d="M545.2,656c-0.5-0.8-1-1.7-1.5-2.6l0.5-0.2c-0.9-2.9-1.6-5.9-2.1-9.1
		c-6.2-39.3,18.3-76.6,61.3-79.1c18.9-1.1,36.6,9,46,24.3c-7.2-20.3-28-34.8-50.5-33.5c-43,2.4-67.5,39.8-61.3,79.1
		c1.1,7,3.2,13.2,6.1,18.6"/>
	<path id="XMLID_229_" class="st22" d="M577.6,636.3c-1.5-3.5-2.2-7.3-2.2-11.3c0-15.6,10.6-26.2,26.2-26.2c7.3,0,12.1,2.9,14.2,8.4
		c-2.4-2-7-3.6-10.8-3.6c-20,0-26.4,14.6-26.4,30.3c0,1,0.2,1.5,0.3,2.4H577.6z"/>
	<path id="XMLID_228_" class="st12" d="M543.8,653.4c-15.9-2.2-31.4-28.1-31.4-62.5c0-54.8,42.7-95.3,95.3-95.3S703,538.3,703,591
		s-42.7,95.3-95.3,95.3c-26.3,0-63.8-12.1-70-51.4c-6.2-39.3,18.3-76.6,61.3-79.1c27.9-1.6,53.2,21.2,53.2,49.1
		s-23.3,48.7-44.5,48.7c-21,0-32.2-13-32.2-28.6s10.6-27.3,26.2-26.2c14.2,1,18.9,13.6,15.4,19.1"/>
	<g id="XMLID_18_">
		
			<ellipse id="XMLID_21_" transform="matrix(0.9519 -0.3063 0.3063 0.9519 -150.2173 168.3692)" class="st23" cx="461.4" cy="562.9" rx="2.9" ry="4.8"/>
		
			<ellipse id="XMLID_20_" transform="matrix(0.9519 -0.3063 0.3063 0.9519 -155.5348 171.0497)" class="st23" cx="467.3" cy="581.1" rx="2.9" ry="4.8"/>
		<g id="XMLID_223_">
			
				<ellipse id="XMLID_19_" transform="matrix(0.9519 -0.3063 0.3063 0.9519 -153.3765 168.7166)" class="st23" cx="460.9" cy="573.1" rx="2.9" ry="4.8"/>
			
				<ellipse id="XMLID_224_" transform="matrix(0.9519 -0.3063 0.3063 0.9519 -152.3756 170.7023)" class="st23" cx="467.8" cy="570.9" rx="2.9" ry="4.8"/>
		</g>
	</g>
	<line id="XMLID_17_" class="st12" x1="790.6" y1="689.5" x2="792.1" y2="689.5"/>
	<line id="XMLID_16_" class="st12" x1="754.2" y1="689.5" x2="780" y2="689.5"/>
	<line id="XMLID_15_" class="st12" x1="738.4" y1="689.5" x2="745.1" y2="689.5"/>
	<line id="XMLID_14_" class="st12" x1="422.1" y1="689.5" x2="729.4" y2="689.5"/>
	<line id="XMLID_13_" class="st12" x1="400.7" y1="689.5" x2="408.6" y2="689.5"/>
	<line id="XMLID_12_" class="st12" x1="365" y1="689.5" x2="386.9" y2="689.5"/>
	<g>
		<circle id="XMLID_32_" class="st24" cx="642.2" cy="589.5" r="7.7"/>
		<circle id="XMLID_31_" class="st24" cx="672.9" cy="532.8" r="8.5"/>
		<circle id="XMLID_30_" class="st24" cx="546.8" cy="648.3" r="4.4"/>
		<circle id="XMLID_29_" class="st24" cx="567.4" cy="627.7" r="3.2"/>
		<circle id="XMLID_28_" class="st24" cx="525.5" cy="595.1" r="2.2"/>
		<circle id="XMLID_27_" class="st24" cx="537.7" cy="572.1" r="1"/>
		<circle id="XMLID_26_" class="st24" cx="583.4" cy="577.9" r="3.2"/>
		<circle id="XMLID_11_" class="st24" cx="556.7" cy="536.9" r="4.1"/>
		<circle id="XMLID_10_" class="st24" cx="632.4" cy="554.1" r="4.1"/>
		<circle id="XMLID_9_" class="st24" cx="607.7" cy="513.4" r="5.9"/>
		<circle id="XMLID_8_" class="st24" cx="664.4" cy="604.7" r="5.9"/>
		<circle id="XMLID_7_" class="st24" cx="686" cy="570.9" r="4.8"/>
		<circle id="XMLID_6_" class="st24" cx="602.2" cy="666.3" r="3.6"/>
		<circle id="XMLID_202_" class="st24" cx="647.7" cy="653.7" r="1.8"/>
	</g>
</g>
<g>
	<circle id="XMLID_200_" class="st25" cx="745.1" cy="545.8" r="3.3"/>
	<circle id="XMLID_199_" class="st26" cx="947.3" cy="494.6" r="3.3"/>
	<circle id="XMLID_198_" class="st26" cx="349.2" cy="159.4" r="3.3"/>
	<circle id="XMLID_197_" class="st27" cx="665.3" cy="357.8" r="5"/>
	<circle id="XMLID_196_" class="st28" cx="115.7" cy="594.6" r="3.1"/>
	<circle id="XMLID_195_" class="st29" cx="556.7" cy="462.7" r="4"/>
	<circle id="XMLID_194_" class="st27" cx="440.8" cy="376.7" r="3.3"/>
	<circle id="XMLID_193_" class="st29" cx="911.1" cy="604.7" r="4"/>
	<circle id="XMLID_192_" class="st27" cx="218" cy="407.5" r="2.1"/>
	<circle id="XMLID_191_" class="st30" cx="70.6" cy="468.8" r="2.1"/>
	<g id="XMLID_188_">
		<line id="XMLID_190_" class="st30" x1="835.2" y1="521.7" x2="842.5" y2="521.7"/>
		<line id="XMLID_189_" class="st30" x1="838.8" y1="518.1" x2="838.8" y2="525.4"/>
	</g>
	<g id="XMLID_185_" class="st31">
		<line id="XMLID_187_" class="st30" x1="763.4" y1="195.5" x2="770.8" y2="195.5"/>
		<line id="XMLID_186_" class="st30" x1="767.1" y1="191.8" x2="767.1" y2="199.2"/>
	</g>
	<g id="XMLID_182_">
		<line id="XMLID_184_" class="st28" x1="697.3" y1="439.1" x2="703" y2="439.1"/>
		<line id="XMLID_183_" class="st28" x1="700.2" y1="436.2" x2="700.2" y2="441.9"/>
	</g>
	<g id="XMLID_179_">
		<line id="XMLID_181_" class="st28" x1="481.9" y1="259.5" x2="487.6" y2="259.5"/>
		<line id="XMLID_180_" class="st28" x1="484.8" y1="256.7" x2="484.8" y2="262.3"/>
	</g>
	<g id="XMLID_170_">
		<line id="XMLID_4_" class="st28" x1="270.7" y1="445.8" x2="278.5" y2="445.8"/>
		<line id="XMLID_3_" class="st28" x1="274.6" y1="441.9" x2="274.6" y2="449.6"/>
	</g>
	<g id="XMLID_167_">
		<line id="XMLID_169_" class="st29" x1="232.9" y1="557.7" x2="243.2" y2="557.7"/>
		<line id="XMLID_168_" class="st29" x1="238" y1="552.5" x2="238" y2="562.9"/>
	</g>
	<g id="XMLID_165_">
		<path class="st32" d="M319.1,501.8c1.1-1.5,2.7-0.4,3.8-1.9c1.1-1.5-0.5-2.7,0.6-4.2c1.1-1.5,2.7-0.4,3.8-1.9
			c1.1-1.5-0.5-2.7,0.6-4.3c1.1-1.5,2.7-0.4,3.8-1.9"/>
	</g>
	<g id="XMLID_163_" class="st33">
		<path class="st32" d="M103.3,546.2c-0.6-1.8,1.2-2.5,0.6-4.2c-0.6-1.8-2.5-1.1-3.2-2.9c-0.6-1.8,1.2-2.5,0.6-4.2
			c-0.6-1.8-2.5-1.1-3.2-2.9c-0.6-1.8,1.2-2.5,0.6-4.2"/>
	</g>
	<g id="XMLID_161_">
		<path class="st32" d="M799.3,447.1c-1.7-0.9-0.8-2.6-2.5-3.5c-1.7-0.9-2.6,0.9-4.3,0.1c-1.7-0.9-0.8-2.6-2.5-3.5
			c-1.7-0.9-2.6,0.9-4.3,0.1c-1.7-0.9-0.8-2.6-2.5-3.5"/>
	</g>
	<g id="XMLID_159_" class="st34">
		<path class="st29" d="M349.7,594.7c-1.2,0.7-2.2-1-3.4-0.3c-1.2,0.7-0.2,2.4-1.3,3.1c-1.2,0.7-2.2-1-3.4-0.3
			c-1.2,0.7-0.2,2.4-1.3,3.1s-2.2-1-3.4-0.3"/>
	</g>
	<g id="XMLID_155_">
		<path class="st30" d="M886.6,408.6c1.8-0.6,2.4,1.4,4.2,0.8c1.8-0.6,1.2-2.5,3-3c1.8-0.6,2.4,1.4,4.2,0.8c1.8-0.6,1.2-2.5,3-3
			s2.4,1.4,4.2,0.8"/>
	</g>
	<g id="XMLID_2_">
		<path class="st30" d="M554.9,362.4c1.8-0.6,2.4,1.4,4.2,0.8c1.8-0.6,1.2-2.5,3-3c1.8-0.6,2.4,1.4,4.2,0.8c1.8-0.6,1.2-2.5,3-3
			s2.4,1.4,4.2,0.8"/>
	</g>
</g>
<g>
	<path class="st35" d="M761.3,933c1.4,0,2.8-0.8,2.8-2.7c0-1.5-0.9-2.6-2.7-2.6c-1.8,0-2.9,1.3-2.8,2.5v0.1
		C758.7,932.1,759.9,933,761.3,933z"/>
	<path class="st35" d="M825.7,938c-0.2-0.9,1.4-1.1,1.2-1.8c-0.2-1.1-1.1-1.1-1.7-1c-3.4,0.4-4.1,1.5-4.4,3.7
		c-0.2,1.3,0.7,2.4,1.5,3.4c0.1,1.1-0.2,3.1-0.6,5.1c-0.3,0.2-0.5,0.4-0.6,0.7c-0.3,1.1-1,4.5-2.1,7.3c-0.3,0.5-0.8,1.1-0.8,1.4
		c0,0.2,0,0.3,0,0.4c-0.8,1.4-1.6,2.5-2.6,2.5c-0.5,0-0.6-1.2-0.6-2.8c0-2.8,1.4-10.5,1.4-12.2c0-2.2,0.4-4.1,0.4-5.9
		c0-0.8-0.5-1-1.2-1c-0.5,0-0.8,0.4-1.4,0.4c-2.2,0-2.5,1.2-2.5,3c0,0.8,0,11.4-0.2,12.8c-0.2,2.3-1.4,5-3.9,5c-2.2,0-3.3-3-3.3-6.2
		c0-2.9,0.5-6.6,0.9-7.9c0.2-0.8,1.2-4.2,1.2-4.7c0-0.8-0.1-1.1-1-1.1c-3.5,0.1-4.2,0.4-4.7,2.3c-0.5,2.2-1.1,5.8-1.1,9.3
		c0,0.3,0,0.7,0,1c-0.8,2.6-1.7,5.4-4.1,5.6c-1.6,0.1-2.1-3.9-2.1-8.1c0-8.2,2.4-16.2,2.7-24.4c0.1-0.8-0.5-1.3-1.4-1.3
		c-1.2,0.2-1.6,0.1-2.1,0.1c-0.9,0-1.3,0.4-1.4,1.3c-0.8,8.2-2.4,18.2-2.4,26.2c0,0.1,0,0.1,0,0.2c-0.8,2.6-1.7,6-4.3,6.2
		c-1.6,0.1-2.1-3.9-2.1-8.1c0-8.2,2.4-16.2,2.7-24.4c0.1-0.8-0.5-1.3-1.4-1.3c-1.2,0-1.6-0.1-2.2-0.1c-0.9,0-1.3,0.4-1.4,1.3
		c-0.8,8.2-2.4,18.2-2.4,26.2c0,0.1,0,0.1,0,0.2c-0.8,2.6-1.7,6-4.3,6.2c-1.6,0.1-2.1-3.9-2.1-8.1c0-8.2,2.4-16.2,2.7-24.4
		c0.1-0.8-0.5-1.3-1.4-1.3c-1.3,0-1.7-0.1-2.3-0.1c-0.9,0-1.3,0.4-1.4,1.3c-0.8,8.2-2.4,18.2-2.4,26.2c0,0.4,0,0.8,0,1.2
		c-0.8,2.6-1.9,5.5-3.3,5.5c-0.7-0.1-1.2-1.1-1.2-3.3c0-4.1,0.4-9.9,0.8-14.2c0.1-0.5-0.2-1.1-0.8-1.1c-0.5-0.1-2.2-0.2-2.8-0.2
		c-0.9,0-1.3,0.5-1.3,1.5v1.5c0.1,5-0.5,9-0.5,13.8c0,3.4,1.8,5.7,4.1,5.7c2.4,0,4.3-2,5.6-4.4c0.7,2.6,2,4.8,4.6,4.8
		c2.4,0,4.8-2.6,6.4-5.6c0.6,2.9,1.9,5.6,4.7,5.6c2.4,0,4.8-2.6,6.4-5.6c0.6,2.9,1.9,5.6,4.7,5.6c2.4,0,4.7-2.6,6.3-5.3
		c0.8,3.4,2.7,5.9,6.3,5.9c3,0,3.8-1.2,5.7-3.9c0.6,1.5,0.8,4.4,2.6,4.4c2.4,0,4.5-2.8,5.9-5.9c1.4,2.5,4.9,4.2,7.6,4.2
		c4.1,0,7.6-2.9,7.3-7.4C835.4,947.9,826.4,941.4,825.7,938z M826.8,958.3c-1.2,0-3.1-0.8-3.2-2.3c-0.1-0.9,2.1-1.4,2.8-1.8
		c0.6-0.4,0.8-0.7,0.8-0.9c-0.1-0.5-0.8-0.9-1.7-0.9c-0.7,0-1.7,0.2-2.8,1c0.2-1.1,1.8-6.5,2.2-9.1c3,2.2,5.7,7.2,6,10.8
		C831.1,958,827.8,958.3,826.8,958.3z"/>
	<path class="st35" d="M894.9,933c1.4,0,2.8-0.8,2.8-2.7c0-1.5-0.9-2.6-2.7-2.6c-1.8,0-2.9,1.3-2.8,2.5v0.1
		C892.3,932.1,893.5,933,894.9,933z"/>
	<path class="st35" d="M938.8,962.7c-1.4-0.9-2.4-2.3-2.1-8.2c0.2-3.8,0.9-9,0.9-12.6c0-1.7-0.8-3.5-2.9-3.5c-2.7,0-6.5,5.4-7.8,7.8
		c0.2-1.4,0.6-5.6,0.7-7.1s0.1-1.5-2.4-1.5c-1.7,0-1.8,0.3-1.8,0.9c0,3.5-0.3,7.5-0.6,11.4c-0.9,2-2.1,3.9-3.9,3.9
		c-0.5,0-1.1-0.2-1.5-0.4c0.8-1.1,1.3-3.7,1.3-5c0-2.1-1.5-3.8-3.6-3.8c-2.8,0-4.5,2-4.5,4.7c0,2.1,2.2,4.5,3.9,5.6
		c-1,2-3,3.2-5.2,3.2c-3.3,0-4.4-5.9-4.4-8.1c0-4.2,1.5-9,6.5-9c3.4,0,3.4,2.3,4.9,2.3c0.2,0,0.6-0.2,0.6-0.5c0-2.5-4-4.5-6-4.5
		c-7,0-11.9,5.5-11.9,12.3c0,1.4,0.2,2.8,0.7,4.1c-0.7,1.7-1.5,3.1-2.6,3.1c-0.7,0-1.2-1-1.2-3.2c0-4.1,0.4-9.9,0.8-14.2
		c0.1-0.5-0.2-1.1-0.8-1.1c-0.5-0.1-2.2-0.2-2.8-0.2c-0.9,0-1.3,0.5-1.3,1.5v1.5c0,2.6-0.2,4.9-0.2,7.2c-0.1,0.1-0.2,0.2-0.2,0.4
		c-0.8,2.3-1.9,8.5-4.4,8.5c-0.8,0-2.4-1.1-2.4-4c0-4.7,1.6-14.2,1.8-15.9c2.4-0.5,4.6-0.4,7.4-1.2c1.3-0.4,0.5-1.9-0.9-1.7
		c-0.8,0.1-3.1,0.2-6.3,0c0.1-2.5,0.7-4.1,0.7-6.6v-0.2c0-0.7-0.3-1.2-1-1.2c-1.4,0-3.5,0.5-3.5,2.3c0,2-0.4,3.7-0.3,5.6
		c-1.4,0.1-2.6-0.3-4-0.3c-1,0-1.2,1.8-1.2,2.5c0,0.8,0.1,1.3,0.5,1.3c1.9,0,3.6-0.3,4.3-0.4c-0.4,5-1,7.8-1.4,11.2
		c0,0.2-0.1,0.5-0.1,0.8c-0.8,2.6-2.4,6.7-3.7,6.7c-0.5,0-1.3-0.8-1.3-1.4c0-3.7,0.4-8.3,1.4-12c0.2-0.8,0.8-2.1,0.8-2.9
		c0-1-1.6-1.5-2.4-1.5c-1.4,0-1.3,0.8-1.8,2c-1-0.8-1.2-2.1-3.9-2.1c-4.9,0-7.8,7.8-7.8,12.7c0,0.8-0.1,1.3-0.1,1.7
		c0,2.8-1.6,6.2-3.3,6.2c-1.4,0-1.9-3.9-1.9-5.6c0-2.3,1.1-7.5,2-9.8c0.4-0.8,1.1-1.7,1.1-2.6c0-1.1-1.2-2.8-2.4-2.8
		c-1.4,0-2.2,0.8-3.6,0.8c-2.3,0-3.8-1.4-5.1-1.4c-0.8,0-1.3,0.5-1.3,1.3c0,2,2.2,1.7,1.7,4.2c-0.5,2.4-2.1,9-3,11.4
		c-0.1,0.1-0.1,0.2-0.1,0.4c0,0.3,0.1,0.5,0.2,0.8c-0.5,0.9-1.1,1.5-1.9,1.5c-0.8,0-2.4-1.1-2.4-4c0-4.7,1.6-14.2,1.8-15.9
		c2.4-0.5,4.6-0.4,7.4-1.2c1.3-0.4,0.5-1.9-0.9-1.7c-0.8,0.1-3.1,0.2-6.3,0c0.1-2.5,0.7-4.1,0.7-6.6l0,0c0-0.7-0.3-1.2-1-1.2
		c-1.4,0-3.5,0.5-3.5,2.3c0,2-0.4,3.7-0.3,5.6c-1.4,0.1-2.6-0.3-4-0.3c-1,0-1.2,1.8-1.2,2.5c0,0.8,0.1,1.3,0.5,1.3
		c1.9,0,3.6-0.3,4.3-0.4c-0.4,5-1,7.8-1.4,11.2c-0.2,1.8-0.5,4.7-0.5,6.5c0,3.2,2.8,5.9,5.2,5.9c4.2,0,7.6-8.4,7.6-11.9
		c0-0.2,0-0.3,0-0.5c0.5-2,0.8-4.1,1.1-5.8c0.1-0.2,0.3-0.9,0.9-0.9c1.4,0,1.5,1,1.5,2c0,2.8-1,7.8-1,10.7c0,2.9,0.8,6.4,4.1,6.4
		c2.8,0,5.1-1.8,6.4-4.2c0.9,2.2,2.4,3.9,4.6,3.9c2.1,0,3.8-1.5,5-2.9c0.3,0.8,0.8,2.8,3,2.8c2.1,0,3.6-1.7,4.9-3.9
		c0.7,2.6,3,4.4,4.9,4.4c2.4,0,4.6-2.8,5.9-5.8c0.2,3.2,1.9,5.3,4.1,5.3c2.3,0,4.2-1.8,5.5-4.1c1.4,2.3,3.7,3.9,6.7,3.9
		c4.2,0,6.7-2.7,8.9-5.9c0.8,0.2,1.4,0.4,2.1,0.4c1.4,0,2.9-1,4-2.3c-0.2,2.4-0.3,4.7-0.3,6.9c0,0.8,0.2,1.1,0.7,1.2
		c0.5,0.2,1.5,0.1,2.1,0.1c0.8,0,0.9,0.1,1.1-0.9c0.1-0.7,0.5-8.7,0.5-9.3c0-1.7,4-8.7,6-8.7c0.4,0,0.7,0.7,0.7,1.1
		c0,3.6-1.1,9.5-1.1,13.3c0,4,2,5.3,2.8,5.8c0.6,0.4,2.4,0.9,3.3,0.8C938.8,963.5,939.4,963,938.8,962.7z M872.1,955
		c-0.1,1.1-2,3.8-3.4,3.8c-1.6,0-2.3-4.5-2.2-7.5c0.1-3.5,1.8-9.9,3.5-9.9c2.2,0,2.5,5.3,2.5,6.9C872.5,950.2,872.2,953.2,872.1,955
		z M915.7,952.5c-1-0.6-1.6-2.5-1.6-3.6c0-0.7,0.2-2.2,1.2-2.2c0.9,0,1.2,1.7,1.2,2.3C916.6,950,916,951.8,915.7,952.5z"/>
	<path class="st35" d="M956.3,953.8c-0.4-5.9-9.4-12.4-10-15.8c-0.2-0.9,1.4-1.1,1.2-1.8c-0.2-1.1-1.1-1.1-1.7-1
		c-3.4,0.4-4.1,1.5-4.4,3.7c-0.2,1.3,0.7,2.4,1.5,3.4c0.1,2.6-1.4,9.9-3,12.8c-0.4,0.5-0.9,1.3-1,1.7c-0.2,0.9,0.5,1.4,1.1,0.8
		c0.5-0.5,0.5-0.8,1-1.1c1.2,2.8,5,4.7,7.9,4.7C953.1,961.2,956.5,958.3,956.3,953.8z M947.3,958.3c-1.2,0-3.1-0.8-3.2-2.3
		c-0.1-0.9,2.1-1.4,2.8-1.8c0.6-0.4,0.8-0.7,0.8-0.9c-0.1-0.5-0.8-0.9-1.7-0.9c-0.7,0-1.7,0.2-2.8,1c0.2-1.1,1.8-6.5,2.2-9.1
		c3,2.2,5.7,7.2,6,10.8C951.7,958,948.3,958.3,947.3,958.3z"/>
</g>
<g>
	<g>
		<g>
			<path class="st35" d="M63.2,959.2c0,2.5-1.2,3.7-2.6,3.7c-1.1,0-1.9-0.5-2.1-1.4c-0.4,0.5-1,0.8-1.8,0.8c-1.5,0-2.6-1.2-2.6-2.8
				c0-1.6,1.1-2.8,2.6-2.8c0.7,0,1.2,0.3,1.6,0.7v-0.5h1.6v3.9c0,0.8,0.3,1.4,1,1.4c0.9,0,1.7-0.9,1.7-3c0-3-2.3-5.3-5.4-5.3
				c-3.1,0-5.6,2.4-5.6,5.7c0,3.3,2.5,5.7,5.9,5.7c1.1,0,2.1-0.2,2.9-0.4v0.6c-0.8,0.3-1.7,0.4-2.9,0.4c-3.7,0-6.5-2.6-6.5-6.2
				c0-3.4,2.7-6.2,6.2-6.2C61.1,953.3,63.2,956.4,63.2,959.2z M58.3,959.5c0-0.8-0.6-1.4-1.3-1.4c-0.8,0-1.3,0.5-1.3,1.4
				c0,0.8,0.6,1.3,1.3,1.3C57.8,960.9,58.3,960.3,58.3,959.5z"/>
		</g>
		<g>
			<path class="st35" d="M69.4,955.1v2c-1.2-0.1-2.6,0.5-2.6,2.4v4.3h-1.9v-8.6h1.9v1.4C67.3,955.5,68.3,955.1,69.4,955.1z"/>
		</g>
		<g>
			<path class="st35" d="M74.6,962.3c1,0,1.8-0.5,2.2-1.1l1.5,0.9c-0.8,1.2-2.1,1.9-3.8,1.9c-2.8,0-4.7-1.9-4.7-4.5
				c0-2.5,1.8-4.5,4.5-4.5c2.6,0,4.3,2.1,4.3,4.5c0,0.3,0,0.5-0.1,0.8h-6.8C72.1,961.6,73.2,962.3,74.6,962.3z M76.9,958.8
				c-0.3-1.5-1.3-2.1-2.5-2.1c-1.4,0-2.3,0.8-2.6,2.1H76.9z"/>
		</g>
		<g>
			<path class="st35" d="M88.9,955.2v8.6h-1.9v-1.2c-0.7,0.9-1.7,1.5-3,1.5c-2.3,0-4.3-2-4.3-4.5c0-2.6,1.9-4.5,4.3-4.5
				c1.3,0,2.3,0.5,3,1.4v-1.2H88.9z M87.1,959.5c0-1.6-1.2-2.7-2.7-2.7c-1.5,0-2.7,1.1-2.7,2.7c0,1.6,1.2,2.7,2.7,2.7
				C85.9,962.3,87.1,961.1,87.1,959.5z"/>
		</g>
		<g>
			<path class="st35" d="M91.1,951.3H93v12.5h-1.9V951.3z"/>
		</g>
		<g>
			<path class="st35" d="M102.9,955.2l-3.3,8.6h-2.1l-3.3-8.6h2l2.4,6.5l2.4-6.5H102.9z"/>
		</g>
		<g>
			<path class="st35" d="M104.2,955.2h1.9v8.9c0,2.4-1.2,3.5-3.5,3.3v-1.8c1.1,0.1,1.7-0.3,1.7-1.5V955.2z M104,952.8
				c0-0.7,0.5-1.2,1.2-1.2c0.7,0,1.2,0.5,1.2,1.2c0,0.6-0.5,1.2-1.2,1.2C104.5,954,104,953.4,104,952.8z"/>
		</g>
		<g>
			<path class="st35" d="M116,955.2l-3.3,8.8c-0.8,2.2-2.2,3.3-4.2,3.2v-1.7c1.2,0.1,1.9-0.5,2.3-1.7l0.1-0.2l-3.6-8.4h2l2.6,6.2
				l2.2-6.2H116z"/>
		</g>
	</g>
	<g>
		<path class="st35" d="M211.9,938.7c0,2.1-1.5,3.8-3.6,3.8h-3v-7.6h3C210.4,934.9,211.9,936.6,211.9,938.7z M210.9,938.7
			c0-1.6-1.1-2.9-2.6-2.9h-2v5.7h2C209.8,941.6,210.9,940.3,210.9,938.7z"/>
		<path class="st35" d="M219.5,940.8h-3.4l-0.6,1.7h-1.1l2.8-7.6h1.1l2.8,7.6h-1.1L219.5,940.8z M219.2,939.9l-1.4-3.8l-1.4,3.8
			H219.2z"/>
		<path class="st35" d="M226.4,939.4v3.1h-1v-3.1l-2.7-4.5h1.1l2.1,3.6l2.1-3.6h1.1L226.4,939.4z"/>
		<path class="st35" d="M239.5,934.9v7.6h-1V936l-1.6,0.5l-0.3-0.9l2-0.7H239.5z"/>
		<path class="st35" d="M243.2,938.7c0-2.4,1.1-4,2.9-4c1.9,0,2.9,1.6,2.9,4c0,2.4-1,4-2.9,4C244.2,942.7,243.2,941,243.2,938.7z
			 M248,938.7c0-1.9-0.7-3-1.9-3c-1.2,0-1.9,1.1-1.9,3s0.7,3,1.9,3C247.3,941.7,248,940.6,248,938.7z"/>
		<path class="st35" d="M252.3,938.7c0-2.4,1.1-4,2.9-4c1.9,0,2.9,1.6,2.9,4c0,2.4-1,4-2.9,4C253.4,942.7,252.3,941,252.3,938.7z
			 M257.2,938.7c0-1.9-0.7-3-1.9-3c-1.2,0-1.9,1.1-1.9,3s0.7,3,1.9,3C256.5,941.7,257.2,940.6,257.2,938.7z"/>
	</g>
	<g>
		<path class="st35" d="M58.9,938.7c0,2.1-1.5,3.8-3.6,3.8h-3v-7.6h3C57.4,934.9,58.9,936.6,58.9,938.7z M57.9,938.7
			c0-1.6-1.1-2.9-2.6-2.9h-2v5.7h2C56.8,941.6,57.9,940.3,57.9,938.7z"/>
		<path class="st35" d="M67,941.6v1h-4.6v-7.6h4.5v1h-3.5v2.3h3.2v0.9h-3.2v2.4H67z"/>
		<path class="st35" d="M70,940.8l0.9-0.5c0.3,0.8,0.9,1.4,2,1.4c1.1,0,1.6-0.5,1.6-1.2c0-0.8-0.7-1-1.8-1.4
			c-1.2-0.4-2.4-0.8-2.4-2.2c0-1.4,1.1-2.2,2.4-2.2c1.3,0,2.2,0.7,2.6,1.7l-0.8,0.5c-0.3-0.7-0.8-1.2-1.7-1.2
			c-0.8,0-1.4,0.4-1.4,1.1c0,0.7,0.5,1,1.6,1.3c1.3,0.4,2.6,0.8,2.6,2.3c0,1.3-1.1,2.2-2.6,2.2C71.5,942.7,70.4,941.9,70,940.8z"/>
		<path class="st35" d="M80,934.9v7.6h-1v-7.6H80z"/>
		<path class="st35" d="M91.3,939.2c0,1.9-1.4,3.5-3.7,3.5c-2.4,0-4-1.8-4-4c0-2.2,1.7-4,4-4c1.4,0,2.7,0.8,3.3,1.8l-0.9,0.5
			c-0.4-0.8-1.4-1.4-2.4-1.4c-1.8,0-3,1.3-3,3c0,1.7,1.2,3,3,3c1.6,0,2.5-0.9,2.7-2h-2.8v-0.9h3.8V939.2z"/>
		<path class="st35" d="M100.6,934.9v7.6h-0.8l-3.9-5.7v5.7h-1v-7.6h0.8l3.9,5.7v-5.7H100.6z"/>
		<path class="st35" d="M109.1,941.6v1h-4.6v-7.6h4.5v1h-3.5v2.3h3.2v0.9h-3.2v2.4H109.1z"/>
		<path class="st35" d="M119.2,938.7c0,2.1-1.5,3.8-3.6,3.8h-3v-7.6h3C117.6,934.9,119.2,936.6,119.2,938.7z M118.2,938.7
			c0-1.6-1.1-2.9-2.6-2.9h-2v5.7h2C117.1,941.6,118.2,940.3,118.2,938.7z"/>
		<path class="st35" d="M133.2,940.4c0,1.2-1,2.2-2.2,2.2h-3.3v-7.6h3c1.2,0,2.1,0.9,2.1,2.1c0,0.7-0.3,1.2-0.8,1.6
			C132.7,938.9,133.2,939.5,133.2,940.4z M128.7,935.8v2.3h2c0.6,0,1.1-0.5,1.1-1.2c0-0.6-0.5-1.2-1.1-1.2H128.7z M132.2,940.3
			c0-0.7-0.5-1.2-1.2-1.2h-2.3v2.5h2.3C131.7,941.6,132.2,941,132.2,940.3z"/>
		<path class="st35" d="M139.4,939.4v3.1h-1v-3.1l-2.7-4.5h1.1l2.1,3.6l2.1-3.6h1.1L139.4,939.4z"/>
	</g>
	<g>
		<path class="st35" d="M213.5,953.9H210v10.4h-2v-10.4h-3.5v-1.9h9V953.9z"/>
		<path class="st35" d="M222.9,958.9v5.4H221v-5.2c0-1.3-0.8-2.1-2-2.1c-1.3,0-2.2,0.7-2.2,2.5v4.7h-1.9v-12.4h1.9v4.7
			c0.6-0.9,1.5-1.4,2.7-1.4C221.5,955.2,222.9,956.6,222.9,958.9z"/>
		<path class="st35" d="M229.3,962.8c1.1,0,1.9-0.5,2.3-1.1l1.6,0.9c-0.8,1.2-2.1,1.9-3.9,1.9c-2.9,0-4.8-2-4.8-4.7
			c0-2.6,1.9-4.7,4.7-4.7c2.6,0,4.4,2.1,4.4,4.7c0,0.3,0,0.5-0.1,0.8h-7C226.8,962.1,227.9,962.8,229.3,962.8z M231.7,959.1
			c-0.3-1.5-1.4-2.2-2.5-2.2c-1.4,0-2.4,0.8-2.7,2.2H231.7z"/>
		<path class="st35" d="M239.2,961.5l1.8-1c0.4,1.3,1.4,2.1,3.1,2.1c1.6,0,2.3-0.7,2.3-1.6c0-1.1-1-1.5-2.8-2
			c-1.9-0.6-3.8-1.3-3.8-3.6c0-2.3,1.9-3.6,4-3.6c2,0,3.5,1.1,4.3,2.7l-1.7,1c-0.4-1-1.2-1.7-2.6-1.7c-1.2,0-1.9,0.6-1.9,1.5
			c0,1,0.7,1.4,2.5,1.9c2.1,0.7,4.1,1.3,4.1,3.8c0,2.3-1.8,3.6-4.4,3.6C241.5,964.5,239.9,963.3,239.2,961.5z"/>
		<path class="st35" d="M258.1,958.9v5.4h-1.9v-5.2c0-1.3-0.8-2.1-2-2.1c-1.3,0-2.2,0.7-2.2,2.5v4.7H250v-8.9h1.9v1.1
			c0.6-0.9,1.5-1.4,2.7-1.4C256.7,955.2,258.1,956.6,258.1,958.9z"/>
		<path class="st35" d="M269.1,955.4v8.9h-1.9V963c-0.7,0.9-1.7,1.5-3.1,1.5c-2.4,0-4.4-2-4.4-4.7c0-2.6,2-4.7,4.4-4.7
			c1.4,0,2.4,0.6,3.1,1.5v-1.3H269.1z M267.1,959.9c0-1.6-1.2-2.8-2.8-2.8c-1.6,0-2.8,1.2-2.8,2.8c0,1.6,1.2,2.8,2.8,2.8
			C265.9,962.7,267.1,961.5,267.1,959.9z"/>
		<path class="st35" d="M271,952.9c0-0.7,0.5-1.2,1.2-1.2c0.7,0,1.2,0.5,1.2,1.2c0,0.7-0.5,1.2-1.2,1.2
			C271.6,954.1,271,953.6,271,952.9z M271.3,955.4h1.9v8.9h-1.9V955.4z"/>
		<path class="st35" d="M275.4,951.4h1.9v12.9h-1.9V951.4z"/>
	</g>
</g>
</svg>
