<?xml version="1.0" encoding="utf-8"?>
<!-- Generator: Adobe Illustrator 23.1.1, SVG Export Plug-In . SVG Version: 6.00 Build 0)  -->
<svg version="1.1" id="Layer_1" xmlns="http://www.w3.org/2000/svg" xmlns:xlink="http://www.w3.org/1999/xlink" x="0px" y="0px"
	 viewBox="0 0 1000 1000" style="enable-background:new 0 0 1000 1000;" xml:space="preserve">
<style type="text/css">
	.st0{fill:#D9FFFF;}
	.st1{fill:#9B3131;}
	.st2{fill:#2BB24B;}
	.st3{fill:#2DA046;}
	.st4{opacity:0.3;}
	.st5{fill:#3DE260;}
	.st6{opacity:0.29;}
	.st7{fill:none;stroke:#34323A;stroke-width:12;stroke-linecap:round;stroke-linejoin:round;stroke-miterlimit:10;}
	.st8{fill:#FFFFFF;}
	.st9{fill:#BA3183;}
	.st10{opacity:0.2;fill:#444444;}
	.st11{fill:#EF4141;}
	.st12{opacity:0.64;fill:#9B3131;}
	.st13{fill:#FF6E6E;}
	.st14{fill:#FBDB60;}
	.st15{fill:#705C51;}
	.st16{fill:#5B4C45;}
	.st17{fill:#DDB458;}
	.st18{opacity:0.45;fill:#FBDB60;}
	.st19{fill:#FFD07D;}
	.st20{opacity:0.31;fill:#EF7E20;}
	.st21{fill:none;stroke:#FFFFFF;stroke-width:12;stroke-linecap:round;stroke-linejoin:round;stroke-miterlimit:10;}
	.st22{fill:#B93737;}
	.st23{opacity:0.44;fill:#EF7E20;}
	.st24{opacity:0.58;fill:#EF4141;}
	.st25{opacity:0.66;fill:#FF6E6E;}
</style>
<rect id="XMLID_111_" x="0" class="st0" width="1000" height="1000"/>
<g>
	<g>
		<g>
			<path class="st1" d="M63.2,959.2c0,2.5-1.2,3.7-2.6,3.7c-1.1,0-1.9-0.5-2.1-1.4c-0.4,0.5-1,0.8-1.8,0.8c-1.5,0-2.6-1.2-2.6-2.8
				c0-1.6,1.1-2.8,2.6-2.8c0.7,0,1.2,0.3,1.6,0.7v-0.5h1.6v3.9c0,0.8,0.3,1.4,1,1.4c0.9,0,1.7-0.9,1.7-3c0-3-2.3-5.3-5.4-5.3
				c-3.1,0-5.6,2.4-5.6,5.7c0,3.3,2.5,5.7,5.9,5.7c1.1,0,2.1-0.2,2.9-0.4v0.6c-0.8,0.3-1.7,0.4-2.9,0.4c-3.7,0-6.5-2.6-6.5-6.2
				c0-3.4,2.7-6.2,6.2-6.2C61.1,953.3,63.2,956.4,63.2,959.2z M58.3,959.5c0-0.8-0.6-1.4-1.3-1.4c-0.8,0-1.3,0.5-1.3,1.4
				c0,0.8,0.6,1.3,1.3,1.3C57.8,960.9,58.3,960.3,58.3,959.5z"/>
		</g>
		<g>
			<path class="st1" d="M69.4,955.1v2c-1.2-0.1-2.6,0.5-2.6,2.4v4.3h-1.9v-8.6h1.9v1.4C67.3,955.5,68.3,955.1,69.4,955.1z"/>
		</g>
		<g>
			<path class="st1" d="M74.6,962.3c1,0,1.8-0.5,2.2-1.1l1.5,0.9c-0.8,1.2-2.1,1.9-3.8,1.9c-2.8,0-4.7-1.9-4.7-4.5
				c0-2.5,1.8-4.5,4.5-4.5c2.6,0,4.3,2.1,4.3,4.5c0,0.3,0,0.5-0.1,0.8h-6.8C72.1,961.6,73.2,962.3,74.6,962.3z M76.9,958.8
				c-0.3-1.5-1.3-2.1-2.5-2.1c-1.4,0-2.3,0.8-2.6,2.1H76.9z"/>
		</g>
		<g>
			<path class="st1" d="M88.9,955.2v8.6h-1.9v-1.2c-0.7,0.9-1.7,1.5-3,1.5c-2.3,0-4.3-2-4.3-4.5c0-2.6,1.9-4.5,4.3-4.5
				c1.3,0,2.3,0.5,3,1.4v-1.2H88.9z M87.1,959.5c0-1.6-1.2-2.7-2.7-2.7c-1.5,0-2.7,1.1-2.7,2.7c0,1.6,1.2,2.7,2.7,2.7
				C85.9,962.3,87.1,961.1,87.1,959.5z"/>
		</g>
		<g>
			<path class="st1" d="M91.1,951.3H93v12.5h-1.9V951.3z"/>
		</g>
		<g>
			<path class="st1" d="M102.9,955.2l-3.3,8.6h-2.1l-3.3-8.6h2l2.4,6.5l2.4-6.5H102.9z"/>
		</g>
		<g>
			<path class="st1" d="M104.2,955.2h1.9v8.9c0,2.4-1.2,3.5-3.5,3.3v-1.8c1.1,0.1,1.7-0.3,1.7-1.5V955.2z M104,952.8
				c0-0.7,0.5-1.2,1.2-1.2c0.7,0,1.2,0.5,1.2,1.2c0,0.6-0.5,1.2-1.2,1.2C104.5,954,104,953.4,104,952.8z"/>
		</g>
		<g>
			<path class="st1" d="M116,955.2l-3.3,8.8c-0.8,2.2-2.2,3.3-4.2,3.2v-1.7c1.2,0.1,1.9-0.5,2.3-1.7l0.1-0.2l-3.6-8.4h2l2.6,6.2
				l2.2-6.2H116z"/>
		</g>
	</g>
	<g>
		<path class="st1" d="M211.9,938.7c0,2.1-1.5,3.8-3.6,3.8h-3v-7.6h3C210.4,934.9,211.9,936.6,211.9,938.7z M210.9,938.7
			c0-1.6-1.1-2.9-2.6-2.9h-2v5.7h2C209.8,941.6,210.9,940.3,210.9,938.7z"/>
		<path class="st1" d="M219.5,940.8h-3.4l-0.6,1.7h-1.1l2.8-7.6h1.1l2.8,7.6h-1.1L219.5,940.8z M219.2,939.9l-1.4-3.8l-1.4,3.8
			H219.2z"/>
		<path class="st1" d="M226.4,939.4v3.1h-1v-3.1l-2.7-4.5h1.1l2.1,3.6l2.1-3.6h1.1L226.4,939.4z"/>
		<path class="st1" d="M242.1,940.4c0,1.4-1.1,2.2-2.6,2.2c-1.5,0-2.6-0.8-2.6-2.2c0-0.8,0.5-1.5,1.2-1.9c-0.6-0.3-0.9-0.9-0.9-1.7
			c0-1.5,1.2-2.2,2.4-2.2c1.2,0,2.4,0.7,2.4,2.2c0,0.8-0.4,1.3-0.9,1.7C241.7,938.9,242.1,939.6,242.1,940.4z M241.1,940.4
			c0-0.9-0.7-1.3-1.6-1.3c-0.9,0-1.6,0.4-1.6,1.3c0,0.9,0.7,1.3,1.6,1.3C240.5,941.7,241.1,941.2,241.1,940.4z M238.2,936.9
			c0,0.8,0.6,1.2,1.4,1.2c0.7,0,1.4-0.4,1.4-1.2c0-0.8-0.6-1.2-1.4-1.2C238.8,935.7,238.2,936.1,238.2,936.9z"/>
		<path class="st1" d="M250.5,940.4c0,1.4-1.1,2.2-2.6,2.2c-1.5,0-2.6-0.8-2.6-2.2c0-0.8,0.5-1.5,1.2-1.9c-0.6-0.3-0.9-0.9-0.9-1.7
			c0-1.5,1.2-2.2,2.4-2.2c1.2,0,2.4,0.7,2.4,2.2c0,0.8-0.4,1.3-0.9,1.7C250,938.9,250.5,939.6,250.5,940.4z M249.5,940.4
			c0-0.9-0.7-1.3-1.6-1.3c-0.9,0-1.6,0.4-1.6,1.3c0,0.9,0.7,1.3,1.6,1.3C248.8,941.7,249.5,941.2,249.5,940.4z M246.5,936.9
			c0,0.8,0.6,1.2,1.4,1.2c0.7,0,1.4-0.4,1.4-1.2c0-0.8-0.6-1.2-1.4-1.2C247.2,935.7,246.5,936.1,246.5,936.9z"/>
	</g>
	<g>
		<path class="st1" d="M58.9,938.7c0,2.1-1.5,3.8-3.6,3.8h-3v-7.6h3C57.4,934.9,58.9,936.6,58.9,938.7z M57.9,938.7
			c0-1.6-1.1-2.9-2.6-2.9h-2v5.7h2C56.8,941.6,57.9,940.3,57.9,938.7z"/>
		<path class="st1" d="M67,941.6v1h-4.6v-7.6h4.5v1h-3.5v2.3h3.2v0.9h-3.2v2.4H67z"/>
		<path class="st1" d="M70,940.8l0.9-0.5c0.3,0.8,0.9,1.4,2,1.4c1.1,0,1.6-0.5,1.6-1.2c0-0.8-0.7-1-1.8-1.4
			c-1.2-0.4-2.4-0.8-2.4-2.2c0-1.4,1.1-2.2,2.4-2.2c1.3,0,2.2,0.7,2.6,1.7l-0.8,0.5c-0.3-0.7-0.8-1.2-1.7-1.2
			c-0.8,0-1.4,0.4-1.4,1.1c0,0.7,0.5,1,1.6,1.3c1.3,0.4,2.6,0.8,2.6,2.3c0,1.3-1.1,2.2-2.6,2.2C71.5,942.7,70.4,941.9,70,940.8z"/>
		<path class="st1" d="M80,934.9v7.6h-1v-7.6H80z"/>
		<path class="st1" d="M91.3,939.2c0,1.9-1.4,3.5-3.7,3.5c-2.4,0-4-1.8-4-4c0-2.2,1.7-4,4-4c1.4,0,2.7,0.8,3.3,1.8l-0.9,0.5
			c-0.4-0.8-1.4-1.4-2.4-1.4c-1.8,0-3,1.3-3,3c0,1.7,1.2,3,3,3c1.6,0,2.5-0.9,2.7-2h-2.8v-0.9h3.8V939.2z"/>
		<path class="st1" d="M100.6,934.9v7.6h-0.8l-3.9-5.7v5.7h-1v-7.6h0.8l3.9,5.7v-5.7H100.6z"/>
		<path class="st1" d="M109.1,941.6v1h-4.6v-7.6h4.5v1h-3.5v2.3h3.2v0.9h-3.2v2.4H109.1z"/>
		<path class="st1" d="M119.2,938.7c0,2.1-1.5,3.8-3.6,3.8h-3v-7.6h3C117.6,934.9,119.2,936.6,119.2,938.7z M118.2,938.7
			c0-1.6-1.1-2.9-2.6-2.9h-2v5.7h2C117.1,941.6,118.2,940.3,118.2,938.7z"/>
		<path class="st1" d="M133.2,940.4c0,1.2-1,2.2-2.2,2.2h-3.3v-7.6h3c1.2,0,2.1,0.9,2.1,2.1c0,0.7-0.3,1.2-0.8,1.6
			C132.7,938.9,133.2,939.5,133.2,940.4z M128.7,935.8v2.3h2c0.6,0,1.1-0.5,1.1-1.2c0-0.6-0.5-1.2-1.1-1.2H128.7z M132.2,940.3
			c0-0.7-0.5-1.2-1.2-1.2h-2.3v2.5h2.3C131.7,941.6,132.2,941,132.2,940.3z"/>
		<path class="st1" d="M139.4,939.4v3.1h-1v-3.1l-2.7-4.5h1.1l2.1,3.6l2.1-3.6h1.1L139.4,939.4z"/>
	</g>
	<g>
		<path class="st1" d="M204.8,962.3l1.8-1c0.4,0.9,1.1,1.3,2.2,1.3c1.4,0,2.2-0.7,2.2-2v-8.6h2v8.6c0,2.6-1.9,4-4.3,4
			C207,964.5,205.6,963.8,204.8,962.3z"/>
		<path class="st1" d="M215.1,952.9c0-0.7,0.5-1.2,1.2-1.2c0.7,0,1.2,0.5,1.2,1.2c0,0.7-0.5,1.2-1.2,1.2
			C215.6,954.1,215.1,953.6,215.1,952.9z M215.3,955.4h1.9v8.9h-1.9V955.4z"/>
		<path class="st1" d="M227.5,958.9v5.4h-1.9v-5.2c0-1.3-0.8-2.1-2-2.1c-1.3,0-2.2,0.7-2.2,2.5v4.7h-1.9v-8.9h1.9v1.1
			c0.6-0.9,1.5-1.4,2.7-1.4C226.1,955.2,227.5,956.6,227.5,958.9z"/>
		<path class="st1" d="M238.5,955.4v8.4c0,2.8-2.2,4.2-4.5,4.2c-1.9,0-3.5-0.7-4.2-2.1l1.6-1c0.4,0.8,1,1.4,2.6,1.4
			c1.6,0,2.6-0.9,2.6-2.4v-1.1c-0.7,1-1.7,1.5-3.1,1.5c-2.5,0-4.5-2-4.5-4.6s2-4.6,4.5-4.6c1.4,0,2.4,0.6,3.1,1.5v-1.3H238.5z
			 M236.6,959.8c0-1.6-1.2-2.8-2.8-2.8c-1.6,0-2.8,1.2-2.8,2.8s1.2,2.8,2.8,2.8C235.4,962.6,236.6,961.4,236.6,959.8z"/>
		<path class="st1" d="M240.7,951.4h1.9v12.9h-1.9V951.4z"/>
		<path class="st1" d="M249.2,962.8c1.1,0,1.9-0.5,2.3-1.1l1.6,0.9c-0.8,1.2-2.1,1.9-3.9,1.9c-2.9,0-4.8-2-4.8-4.7
			c0-2.6,1.9-4.7,4.7-4.7c2.6,0,4.4,2.1,4.4,4.7c0,0.3,0,0.5-0.1,0.8h-7C246.6,962.1,247.8,962.8,249.2,962.8z M251.5,959.1
			c-0.3-1.5-1.4-2.2-2.5-2.2c-1.4,0-2.4,0.8-2.7,2.2H251.5z"/>
		<path class="st1" d="M268.7,960.8c0,2.1-1.7,3.5-3.7,3.5h-5.3v-12.4h4.9c2,0,3.6,1.5,3.6,3.4c0,1.1-0.5,2-1.3,2.5
			C268,958.4,268.7,959.4,268.7,960.8z M261.7,953.8v3.3h2.9c0.9,0,1.6-0.7,1.6-1.6c0-0.9-0.7-1.6-1.6-1.6H261.7z M266.7,960.6
			c0-1-0.7-1.7-1.7-1.7h-3.3v3.5h3.3C266,962.4,266.7,961.6,266.7,960.6z"/>
		<path class="st1" d="M274.8,962.8c1.1,0,1.9-0.5,2.3-1.1l1.6,0.9c-0.8,1.2-2.1,1.9-3.9,1.9c-2.9,0-4.8-2-4.8-4.7
			c0-2.6,1.9-4.7,4.7-4.7c2.6,0,4.4,2.1,4.4,4.7c0,0.3,0,0.5-0.1,0.8h-7C272.3,962.1,273.4,962.8,274.8,962.8z M277.1,959.1
			c-0.3-1.5-1.4-2.2-2.5-2.2c-1.4,0-2.4,0.8-2.7,2.2H277.1z"/>
		<path class="st1" d="M280.8,951.4h1.9v12.9h-1.9V951.4z"/>
		<path class="st1" d="M284.9,951.4h1.9v12.9h-1.9V951.4z"/>
	</g>
	<g>
		<g>
			<g>
				<path class="st1" d="M846.1,938.7c0,2.1-1.5,3.8-3.6,3.8h-3v-7.6h3C844.6,934.9,846.1,936.6,846.1,938.7z M845.2,938.7
					c0-1.6-1.1-2.9-2.6-2.9h-2v5.7h2C844.1,941.6,845.2,940.3,845.2,938.7z"/>
			</g>
			<g>
				<path class="st1" d="M849.3,938.7c0-2.2,1.7-4,3.9-4c2.2,0,4,1.8,4,4c0,2.2-1.7,4-4,4C851,942.7,849.3,940.9,849.3,938.7z
					 M856.1,938.7c0-1.7-1.3-3-2.9-3c-1.7,0-2.9,1.3-2.9,3c0,1.7,1.3,3,2.9,3C854.9,941.7,856.1,940.4,856.1,938.7z"/>
			</g>
			<g>
				<path class="st1" d="M859.8,934.9h1.1l1.7,6.3l1.9-6.3h1l1.9,6.3l1.7-6.3h1.1l-2.2,7.6h-1.2l-1.8-6.1l-1.8,6.1H862L859.8,934.9z
					"/>
			</g>
			<g>
				<path class="st1" d="M879.3,934.9v7.6h-0.8l-3.9-5.7v5.7h-1v-7.6h0.8l3.9,5.7v-5.7H879.3z"/>
			</g>
			<g>
				<path class="st1" d="M887.5,941.6v1h-4.3v-7.6h1v6.7H887.5z"/>
			</g>
			<g>
				<path class="st1" d="M889.9,938.7c0-2.2,1.7-4,3.9-4c2.2,0,4,1.8,4,4c0,2.2-1.7,4-4,4C891.6,942.7,889.9,940.9,889.9,938.7z
					 M896.8,938.7c0-1.7-1.3-3-2.9-3c-1.7,0-2.9,1.3-2.9,3c0,1.7,1.3,3,2.9,3C895.5,941.7,896.8,940.4,896.8,938.7z"/>
			</g>
			<g>
				<path class="st1" d="M905.4,940.8H902l-0.6,1.7h-1.1l2.8-7.6h1.1l2.8,7.6H906L905.4,940.8z M905.1,939.9l-1.4-3.8l-1.4,3.8
					H905.1z"/>
			</g>
			<g>
				<path class="st1" d="M916.9,938.7c0,2.1-1.5,3.8-3.6,3.8h-3v-7.6h3C915.4,934.9,916.9,936.6,916.9,938.7z M915.9,938.7
					c0-1.6-1.1-2.9-2.6-2.9h-2v5.7h2C914.9,941.6,915.9,940.3,915.9,938.7z"/>
			</g>
			<g>
				<path class="st1" d="M926.5,935.8v2.5h3.2v1h-3.2v3.2h-1v-7.6h4.4v1H926.5z"/>
			</g>
			<g>
				<path class="st1" d="M936.2,939.6h-1.8v2.9h-1v-7.6h3c1.3,0,2.4,1.1,2.4,2.4c0,1-0.7,1.9-1.6,2.2l1.8,3.1h-1.1L936.2,939.6z
					 M934.4,938.7h2c0.8,0,1.4-0.6,1.4-1.4c0-0.8-0.6-1.4-1.4-1.4h-2V938.7z"/>
			</g>
			<g>
				<path class="st1" d="M941.9,938.7c0-2.2,1.7-4,3.9-4c2.2,0,4,1.8,4,4c0,2.2-1.7,4-4,4C943.6,942.7,941.9,940.9,941.9,938.7z
					 M948.8,938.7c0-1.7-1.3-3-2.9-3c-1.7,0-2.9,1.3-2.9,3c0,1.7,1.3,3,2.9,3C947.5,941.7,948.8,940.4,948.8,938.7z"/>
			</g>
			<g>
				<path class="st1" d="M960.4,942.5h-1v-6l-2.5,4.2h-0.1l-2.5-4.1v5.9h-1v-7.6h1.1l2.4,4l2.4-4h1.1V942.5z"/>
			</g>
		</g>
		<g>
			<g>
				<path class="st1" d="M839.3,952.9c0-0.7,0.5-1.2,1.2-1.2c0.7,0,1.2,0.5,1.2,1.2c0,0.7-0.5,1.2-1.2,1.2
					C839.9,954.1,839.3,953.6,839.3,952.9z M839.6,955.4h1.9v8.9h-1.9V955.4z"/>
			</g>
			<g>
				<path class="st1" d="M843.7,951.4h1.9v12.9h-1.9V951.4z"/>
			</g>
			<g>
				<path class="st1" d="M847.8,951.4h1.9v12.9h-1.9V951.4z"/>
			</g>
			<g>
				<path class="st1" d="M852,951.4h1.9v12.9H852V951.4z"/>
			</g>
			<g>
				<path class="st1" d="M864,955.4v8.9h-1.9v-1.1c-0.6,0.9-1.5,1.4-2.7,1.4c-2,0-3.4-1.3-3.4-3.6v-5.4h1.9v5.2c0,1.3,0.8,2.1,2,2.1
					c1.3,0,2.2-0.7,2.2-2.5v-4.7H864z"/>
			</g>
			<g>
				<path class="st1" d="M872.6,961.8c0,1.8-1.5,2.7-3.5,2.7c-1.8,0-3-0.8-3.6-2.1l1.6-1c0.3,0.8,1,1.3,2,1.3c0.8,0,1.5-0.3,1.5-1
					c0-1.6-4.8-0.7-4.8-3.9c0-1.7,1.4-2.7,3.2-2.7c1.5,0,2.7,0.7,3.3,1.8l-1.6,0.9c-0.3-0.7-0.9-1-1.7-1c-0.7,0-1.3,0.3-1.3,0.9
					C867.9,959.5,872.6,958.5,872.6,961.8z"/>
			</g>
			<g>
				<path class="st1" d="M876.7,957.3v4.2c0,1.1,0.7,1.1,2.2,1v1.7c-2.9,0.4-4.1-0.5-4.1-2.8v-4.2h-1.6v-1.8h1.6v-1.9l1.9-0.6v2.5
					h2.2v1.8H876.7z"/>
			</g>
			<g>
				<path class="st1" d="M885.4,955.3v2.1c-1.3-0.1-2.7,0.5-2.7,2.5v4.5h-1.9v-8.9h1.9v1.5C883.2,955.7,884.2,955.3,885.4,955.3z"/>
			</g>
			<g>
				<path class="st1" d="M895.3,955.4v8.9h-1.9V963c-0.7,0.9-1.7,1.5-3.1,1.5c-2.4,0-4.4-2-4.4-4.7c0-2.6,2-4.7,4.4-4.7
					c1.4,0,2.4,0.6,3.1,1.5v-1.3H895.3z M893.4,959.9c0-1.6-1.2-2.8-2.8-2.8c-1.6,0-2.8,1.2-2.8,2.8c0,1.6,1.2,2.8,2.8,2.8
					C892.2,962.7,893.4,961.5,893.4,959.9z"/>
			</g>
			<g>
				<path class="st1" d="M900.3,957.3v4.2c0,1.1,0.7,1.1,2.2,1v1.7c-2.9,0.4-4.1-0.5-4.1-2.8v-4.2h-1.6v-1.8h1.6v-1.9l1.9-0.6v2.5
					h2.2v1.8H900.3z"/>
			</g>
			<g>
				<path class="st1" d="M903.9,952.9c0-0.7,0.5-1.2,1.2-1.2c0.7,0,1.2,0.5,1.2,1.2c0,0.7-0.5,1.2-1.2,1.2
					C904.5,954.1,903.9,953.6,903.9,952.9z M904.2,955.4h1.9v8.9h-1.9V955.4z"/>
			</g>
			<g>
				<path class="st1" d="M907.8,959.9c0-2.6,2.1-4.7,4.7-4.7c2.6,0,4.7,2,4.7,4.7c0,2.6-2.1,4.7-4.7,4.7
					C909.9,964.5,907.8,962.5,907.8,959.9z M915.3,959.9c0-1.6-1.2-2.8-2.8-2.8c-1.6,0-2.8,1.2-2.8,2.8c0,1.6,1.2,2.8,2.8,2.8
					C914.1,962.7,915.3,961.5,915.3,959.9z"/>
			</g>
			<g>
				<path class="st1" d="M927,958.9v5.4h-1.9v-5.2c0-1.3-0.8-2.1-2-2.1c-1.3,0-2.2,0.7-2.2,2.5v4.7h-1.9v-8.9h1.9v1.1
					c0.6-0.9,1.5-1.4,2.7-1.4C925.5,955.2,927,956.6,927,958.9z"/>
			</g>
			<g>
				<path class="st1" d="M935.5,961.8c0,1.8-1.5,2.7-3.5,2.7c-1.8,0-3-0.8-3.6-2.1l1.6-1c0.3,0.8,1,1.3,2,1.3c0.8,0,1.5-0.3,1.5-1
					c0-1.6-4.8-0.7-4.8-3.9c0-1.7,1.4-2.7,3.2-2.7c1.5,0,2.7,0.7,3.3,1.8l-1.6,0.9c-0.3-0.7-0.9-1-1.7-1c-0.7,0-1.3,0.3-1.3,0.9
					C930.7,959.5,935.5,958.5,935.5,961.8z"/>
			</g>
			<g>
				<path class="st1" d="M936.8,963.2c0-0.7,0.6-1.3,1.3-1.3c0.7,0,1.3,0.6,1.3,1.3c0,0.7-0.6,1.3-1.3,1.3
					C937.4,964.5,936.8,963.9,936.8,963.2z"/>
			</g>
			<g>
				<path class="st1" d="M940.3,959.9c0-2.6,2-4.7,4.7-4.7c1.7,0,3.2,0.9,3.9,2.3l-1.6,1c-0.4-0.8-1.3-1.4-2.3-1.4
					c-1.6,0-2.7,1.2-2.7,2.8c0,1.6,1.2,2.8,2.7,2.8c1.1,0,1.9-0.5,2.4-1.4l1.6,0.9c-0.7,1.4-2.2,2.3-4,2.3
					C942.3,964.5,940.3,962.5,940.3,959.9z"/>
			</g>
			<g>
				<path class="st1" d="M949.7,959.9c0-2.6,2.1-4.7,4.7-4.7c2.6,0,4.7,2,4.7,4.7c0,2.6-2.1,4.7-4.7,4.7
					C951.8,964.5,949.7,962.5,949.7,959.9z M957.2,959.9c0-1.6-1.2-2.8-2.8-2.8s-2.8,1.2-2.8,2.8c0,1.6,1.2,2.8,2.8,2.8
					S957.2,961.5,957.2,959.9z"/>
			</g>
		</g>
	</g>
</g>
<g id="XMLID_109_">
	<path id="XMLID_226_" class="st2" d="M389.2,503.8c1.4,7.8,4.5,14.5,8.8,19.5c-12.4-8.4-29.2-12-46.2-7c-30.5,9.1-53,23.1-46,50.6
		c-7-27.6-33.6-32.3-62.5-29.9c-15.2,1.3-26.2,9.2-31.8,19.1c1.1-5.1,0.7-11.2-1.4-17.7c-7.2-22-63-26.9-84.1-26.1
		c-0.2-0.4-0.3-0.8-0.5-1.2c-0.2-0.4-0.3-0.8-0.4-1.3c18.4-8.9,60.8-45.1,52.7-69.9c-2.5-7.7-6.4-14.2-11.1-19
		c12.3,7.4,27.8,10,42.9,3.4c28.9-12.6,51.9-32,42.5-68.3c9.2,36.3,38.9,39.7,73.4,33.3c19.1-3.6,34.5-16.8,43.9-33.5
		c-2.5,8.4-3,17.8-1.3,27.3c6.3,36.7,41.4,57.1,76.3,47.1C409,437.6,383.4,471.7,389.2,503.8z"/>
	<path id="XMLID_177_" class="st3" d="M262.3,390.5c-2.8,5.5-18.5,45.2-18.5,56.1s16.9,34.1,32.1,39.9s50.7,7.8,65.5,7.8
		c14.8,0,31.6,8.1,46.9,0c15.3-8.1,9-18.5,3-24.4c-5.9-5.9-29.5-20-44.6-35.1C331.7,419.7,267.5,380.2,262.3,390.5z"/>
	<g id="XMLID_194_" class="st4">
		<g id="XMLID_288_">
			<g id="XMLID_291_">
				<path id="XMLID_292_" class="st3" d="M444.2,430c-1.6,0.3-3.1,0.7-4.7,1.2C441,430.8,442.6,430.4,444.2,430z"/>
			</g>
			<g id="XMLID_289_">
				<path id="XMLID_290_" class="st5" d="M320.2,393.2c-31.3,6.1-60,0.5-66.4-27.1c6.6,27.7-13,47-39.8,58.2
					c-14.1,5.9-29.1,7.1-38.7,1c3.3,4,2.3,15.4,3.4,22.2c3.8,22.8-35.6,48.1-54.7,57.1c0.1,0.4,0.1,0.9,0.2,1.3
					c0.1,0.4,0.1,0.9,0.2,1.3c2.3-0.1,4.7,0.1,7.3,0.3c40.4-1,69.9-49.7,70.6-58c3.6-1,39.1-7.4,66.1-39.9
					c20.3,12.4,51.7,12.1,77.6-5.4c5,6.8,42.4,46.3,74.6,35.7c5.6-3.9,11.9-6.9,18.9-8.9c-33.3,7.2-60.5-10.8-69.8-40.6
					c-2.4-7.6-4.8-19-3.3-25.5C359.3,378.3,337.6,389.8,320.2,393.2z"/>
			</g>
		</g>
	</g>
	<g id="XMLID_149_">
		<g>
			<g id="XMLID_308_">
				<path id="XMLID_309_" class="st3" d="M444.3,430.5c-1.6,0.4-3.1,0.8-4.7,1.1C441.2,431.2,442.7,430.8,444.3,430.5z"/>
			</g>
			<g id="XMLID_306_">
				<path id="XMLID_307_" class="st3" d="M351.8,516.4c-30.5,9.1-53,23.1-46,50.6c-7-27.6-33.6-32.3-62.5-29.9
					c-15.2,1.3-26.2,9.2-31.8,19.1c1.1-5.1,0.7-11.2-1.4-17.7c-7.2-22-63-26.9-84.1-26.1c-0.2-0.4-0.3-0.8-0.5-1.2
					c-0.2-0.4-0.3-0.8-0.4-1.3c2-1,14.5-3.2,16.6-4.6c14.7-0.4,45.1-8.5,84.9,12.9c3.6-0.8,48-19.5,68.6-2.2
					c12.2-20.4,39.2-29.6,70.3-26.1c1.3-8.3,19.3-40.6,53.3-57.5c6.7,0.9,13.8,0.6,20.8-0.9c-32.9,9.1-55.9,41.5-50.4,72.2
					c1.4,7.8,4.5,14.5,8.8,19.5C385.6,515,368.8,511.4,351.8,516.4z"/>
			</g>
		</g>
	</g>
	<g id="XMLID_123_" class="st6">
		<path id="XMLID_131_" class="st2" d="M444.3,430.5c-1.6,0.4-3.1,0.8-4.7,1.1C441.2,431.2,442.7,430.8,444.3,430.5z"/>
	</g>
	<path id="XMLID_119_" class="st7" d="M389.2,503.8c1.4,7.8,4.5,14.5,8.8,19.5c-12.4-8.4-29.2-12-46.2-7c-30.5,9.1-53,23.1-46,50.6
		c-7-27.6-33.6-32.3-62.5-29.9c-15.2,1.3-26.2,9.2-31.8,19.1c1.1-5.1,0.7-11.2-1.4-17.7c-7.2-22-63-26.9-84.1-26.1
		c-0.2-0.4-0.3-0.8-0.5-1.2c-0.2-0.4-0.3-0.8-0.4-1.3c18.4-8.9,60.8-45.1,52.7-69.9c-2.5-7.7-6.4-14.2-11.1-19
		c12.3,7.4,27.8,10,42.9,3.4c28.9-12.6,51.9-32,42.5-68.3c9.2,36.3,38.9,39.7,73.4,33.3c19.1-3.6,34.5-16.8,43.9-33.5
		c-2.5,8.4-3,17.8-1.3,27.3c6.3,36.7,41.4,57.1,76.3,47.1C409,437.6,383.4,471.7,389.2,503.8z"/>
	<path id="XMLID_110_" class="st7" d="M444.3,430.5c0,0-124-2.1-224.7,56.5"/>
</g>
<g id="XMLID_32_">
	<path id="XMLID_30_" class="st2" d="M591.2,491.3c2.7,8.9,2.9,17.5,1,25.1c8.6-15.3,24.3-27.9,44.7-31.6
		c36.8-6.5,67.7-3.6,74.7,28.8c-7.2-32.6,18.2-51.5,49.8-64.1c16.7-6.6,32.3-4.1,43.4,3.3c-3.8-4.8-6.6-11.3-7.8-19.3
		c-4-26.8,51.9-61.3,74.4-71.5c-0.1-0.5-0.1-1-0.2-1.6c-0.1-0.5-0.1-1-0.2-1.5c-23.9,0.4-87.5-15.3-91.9-45.6
		c-1.4-9.4-0.7-18.2,1.7-25.7c-9,14.2-23.9,25-43.1,26.1c-36.9,2-71.1-6.2-80.4-49.3c9.4,42.9-19.9,62-59.5,73.5
		c-21.9,6.3-45,0.6-63.6-12.1c7,7.5,12.5,17.1,15.8,28c12.6,41.8-13.4,81.6-55.2,89.5C535.6,432.3,580.3,454.6,591.2,491.3z"/>
	<path id="XMLID_175_" class="st3" d="M645,356c5.6,0,57.2-1.9,66.2,34c13.4,53.3,3.6,45.4,3.6,51.5s-5.4,44.9-5.4,44.9l-9,7.8
		c0,0-17.2-7.2-17.2-11.3c0-4.1-31.9-16.3-31.9-31.1c0-14.9-6.2-30.4-6.2-51.6C645,379.1,645,356,645,356z"/>
	<g id="XMLID_41_" class="st4">
		<g id="XMLID_141_">
			<g id="XMLID_144_">
				<path id="XMLID_145_" class="st3" d="M494.8,442.8c1.8-0.5,3.7-0.9,5.5-1.2C498.4,442,496.6,442.5,494.8,442.8z"/>
			</g>
			<g id="XMLID_142_">
				<path id="XMLID_143_" class="st5" d="M605.3,339.2c36-10,63.1-31,55.3-63.3c7.7,32.5,38.3,42.4,72.3,40.1
					c17.9-1.2,34.2-7.8,41.1-19.3c-1.4,6,5.7,17.4,8,25c8,25.9,62.6,31.7,87.4,31.1c0.2,0.5,0.4,1,0.5,1.5c0.2,0.5,0.3,1,0.5,1.5
					c-2.4,1.1-4.9,2.5-7.4,4.2c-42.9,20.2-99.4-15.3-104.4-23.7c-4.2,0.9-44.8,12.8-90.2-7.1c-14.7,23.6-47.8,39.8-84.2,35.1
					c-1.7,9.8-20.1,70.8-59.5,76.7c-7.9-1.1-16.1-1-24.4,0.6c38.7-10,57.7-43.1,51.8-79.2c-1.5-9.2-4.9-22.4-9.9-28.4
					C556.6,344.1,585.3,344.7,605.3,339.2z"/>
			</g>
		</g>
	</g>
	<g id="XMLID_35_">
		<g id="XMLID_136_">
			<g id="XMLID_139_">
				<path id="XMLID_140_" class="st3" d="M494.9,443.4c1.9-0.4,3.7-0.8,5.5-1.3C498.5,442.5,496.7,442.9,494.9,443.4z"/>
			</g>
			<g id="XMLID_137_">
				<path id="XMLID_138_" class="st3" d="M636.9,484.8c36.8-6.5,67.7-3.6,74.7,28.8c-7.2-32.6,18.2-51.5,49.8-64.1
					c16.7-6.6,32.3-4.1,43.4,3.3c-3.8-4.8-6.6-11.3-7.8-19.3c-4-26.8,51.9-61.3,74.4-71.5c-0.1-0.5-0.1-1-0.2-1.6
					c-0.1-0.5-0.1-1-0.2-1.5c-2.7,0-16.9,4.3-19.8,3.9c-15.6,7.2-51.7,14.8-82.1,58.1c-4.2,1-60.5,4.7-73.1,33.8
					c-23.5-14.9-56.6-10.4-87.3,9.6c-5.8-8.1-41.5-32.4-86.1-32.2c-6.6,4.4-14.1,7.8-22.3,10c39.2-7.8,80.5,14.1,90.8,49.2
					c2.7,8.9,2.9,17.5,1,25.1C600.8,501.1,616.4,488.5,636.9,484.8z"/>
			</g>
		</g>
	</g>
	<g id="XMLID_36_" class="st6">
		<path id="XMLID_37_" class="st2" d="M494.9,443.4c1.9-0.4,3.7-0.8,5.5-1.3C498.5,442.5,496.7,442.9,494.9,443.4z"/>
	</g>
	<path id="XMLID_89_" class="st7" d="M591.2,491.3c2.7,8.9,2.9,17.5,1,25.1c8.6-15.3,24.3-27.9,44.7-31.6
		c36.8-6.5,67.7-3.6,74.7,28.8c-7.2-32.6,18.2-51.5,49.8-64.1c16.7-6.6,32.3-4.1,43.4,3.3c-3.8-4.8-6.6-11.3-7.8-19.3
		c-4-26.8,51.9-61.3,74.4-71.5c-0.1-0.5-0.1-1-0.2-1.6c-0.1-0.5-0.1-1-0.2-1.5c-23.9,0.4-87.5-15.3-91.9-45.6
		c-1.4-9.4-0.7-18.2,1.7-25.7c-9,14.2-23.9,25-43.1,26.1c-36.9,2-71.1-6.2-80.4-49.3c9.4,42.9-19.9,62-59.5,73.5
		c-21.9,6.3-45,0.6-63.6-12.1c7,7.5,12.5,17.1,15.8,28c12.6,41.8-13.4,81.6-55.2,89.5C535.6,432.3,580.3,454.6,591.2,491.3z"/>
	<path id="XMLID_34_" class="st7" d="M494.9,443.4c0,0,144-50.6,284.3-71.3"/>
</g>
<g id="XMLID_39_">
	<path id="XMLID_133_" class="st2" d="M554.2,448.3c7.5,2.6,13.6,6.7,17.9,11.8c-6.3-13.6-7.2-30.7,0.4-46.7
		c13.8-28.7,31.2-48.7,57.2-37.4c-26.1-11.3-26.6-38.2-19.6-66.4c3.7-14.8,13.3-24.4,23.9-28.4c-5.2,0.3-11.2-1.1-17.2-4.2
		c-20.6-10.5-16.6-66.4-12.5-87.2c-0.4-0.2-0.8-0.4-1.2-0.7c-0.4-0.2-0.8-0.4-1.2-0.6c-11.7,16.8-54.2,53-77.3,41
		c-7.2-3.7-13-8.6-17-14c5.4,13.3,5.4,29-3.4,42.9c-17,26.5-39.7,46.2-74.2,31.2c34.4,14.8,33,44.7,21.3,77.8
		c-6.6,18.3-22,31.4-40,38c8.7-1.1,18.1-0.1,27.2,3c35.2,12,49.8,49.9,34.5,82.8C485.7,457.4,523.4,437.6,554.2,448.3z"/>
	<g id="XMLID_118_" class="st4">
		<g id="XMLID_267_">
			<g id="XMLID_272_">
				<path id="XMLID_273_" class="st3" d="M472.6,490.9c0.6-1.5,1.2-3,1.9-4.4C473.9,488,473.3,489.5,472.6,490.9z"/>
			</g>
			<g id="XMLID_268_">
				<path id="XMLID_271_" class="st5" d="M455.9,362.8c10.9-29.9,10-59.1-16.3-69.8c26.3,10.9,48.5-5.4,63.8-30.1
					c8.1-13,11.6-27.6,7.1-38.1c3.4,3.9,14.9,4.7,21.4,6.9c21.9,7.4,53.1-27.6,65.1-45c0.4,0.1,0.9,0.2,1.3,0.4
					c0.4,0.1,0.8,0.3,1.3,0.4c-0.4,2.2-0.7,4.7-0.8,7.2c-7.3,39.8-60.1,61.2-68.4,60.5c-1.5,3.4-13.5,37.4-49.8,58.9
					c9,22,3.8,53-17.6,75.8c5.9,6,39.1,49.1,23.5,79.4c-4.7,4.9-8.7,10.7-11.7,17.2c12.4-31.8-1.2-61.4-29-75.3
					c-7.1-3.6-18-7.7-24.6-7.3C435,399,449.7,379.4,455.9,362.8z"/>
			</g>
		</g>
	</g>
	<g id="XMLID_94_">
		<g id="XMLID_257_">
			<g id="XMLID_260_">
				<path id="XMLID_261_" class="st3" d="M473.1,491.2c0.7-1.5,1.3-3,1.9-4.4C474.3,488.2,473.6,489.6,473.1,491.2z"/>
			</g>
			<g id="XMLID_258_">
				<path id="XMLID_259_" class="st3" d="M572.5,413.4c13.8-28.7,31.2-48.7,57.2-37.4c-26.1-11.3-26.6-38.2-19.6-66.4
					c3.7-14.8,13.3-24.4,23.9-28.4c-5.2,0.3-11.2-1.1-17.2-4.2c-20.6-10.5-16.6-66.4-12.5-87.2c-0.4-0.2-0.8-0.4-1.2-0.7
					c-0.4-0.2-0.8-0.4-1.2-0.6c-1.3,1.9-5.4,13.8-7.2,15.7c-2.7,14.4-15.5,43.2-0.7,85.8c-1.4,3.4-26.9,44.3-13,67.4
					c-22,8.9-35.4,34-36.8,65.3c-8.4,0-43.1,12.6-65.2,43.6c-0.2,6.8-1.6,13.7-4.2,20.4c14.1-31,49.9-48.7,79.3-38.4
					c7.5,2.6,13.6,6.7,17.9,11.8C565.8,446.5,564.8,429.4,572.5,413.4z"/>
			</g>
		</g>
	</g>
	<g id="XMLID_85_" class="st6">
		<path id="XMLID_87_" class="st2" d="M473.1,491.2c0.7-1.5,1.3-3,1.9-4.4C474.3,488.2,473.6,489.6,473.1,491.2z"/>
	</g>
	<path id="XMLID_54_" class="st7" d="M554.2,448.3c7.5,2.6,13.6,6.7,17.9,11.8c-6.3-13.6-7.2-30.7,0.4-46.7
		c13.8-28.7,31.2-48.7,57.2-37.4c-26.1-11.3-26.6-38.2-19.6-66.4c3.7-14.8,13.3-24.4,23.9-28.4c-5.2,0.3-11.2-1.1-17.2-4.2
		c-20.6-10.5-16.6-66.4-12.5-87.2c-0.4-0.2-0.8-0.4-1.2-0.7c-0.4-0.2-0.8-0.4-1.2-0.6c-11.7,16.8-54.2,53-77.3,41
		c-7.2-3.7-13-8.6-17-14c5.4,13.3,5.4,29-3.4,42.9c-17,26.5-39.7,46.2-74.2,31.2c34.4,14.8,33,44.7,21.3,77.8
		c-6.6,18.3-22,31.4-40,38c8.7-1.1,18.1-0.1,27.2,3c35.2,12,49.8,49.9,34.5,82.8C485.7,457.4,523.4,437.6,554.2,448.3z"/>
	<path id="XMLID_40_" class="st7" d="M473.1,491.2c0,0,33-114.2,88.7-205.6"/>
</g>
<g id="XMLID_88_">
	<path id="XMLID_169_" class="st2" d="M402.2,401c-4.5,5.3-7.2,11.2-8.1,16.9c-1.4-13-8.4-26.3-21.4-34.8
		c-23.3-15.3-45.3-22.5-59.7-2.2c14.5-20.2,2.7-40.6-15.2-58.6c-9.5-9.5-20.9-12.3-30.7-10.5c4-2.1,7.9-5.8,11-10.9
		c10.7-17.2-17.5-57.3-29.9-70.9c0.2-0.3,0.4-0.7,0.6-1c0.2-0.3,0.4-0.7,0.6-1c16.3,7.3,64.5,15.3,76.4-4.1c3.7-6,5.9-12.3,6.4-18.1
		c2,12.4,9,24.2,21.9,30.6c24.7,12.2,50.6,16.7,69.7-10.1c-19.1,26.6-4.6,48.4,19.1,67.9c13.2,10.8,30.7,13.6,47.1,10.5
		c-7,3.1-13.6,8-19,14.5c-21,24.9-14.9,59.9,11.5,77.6C457.6,377,420.4,379.1,402.2,401z"/>
	<g id="XMLID_154_" class="st4">
		<g id="XMLID_279_">
			<g id="XMLID_284_">
				<path id="XMLID_285_" class="st3" d="M482.5,396.2c-1.1-0.9-2.3-1.7-3.4-2.5C480.2,394.6,481.4,395.4,482.5,396.2z"/>
			</g>
			<g id="XMLID_280_">
				<path id="XMLID_283_" class="st5" d="M437.3,292.6c-21.7-17.5-34.1-39.8-19.3-59.7c-14.8,20-38.8,17.8-61.4,6.2
					c-11.9-6.1-21.2-15.5-22.5-25.3c-0.8,4.5-9,10.3-12.9,14.8c-13.1,15.4-52.2,3.2-69.1-4.4c-0.3,0.3-0.5,0.6-0.8,0.9
					c-0.3,0.3-0.5,0.6-0.8,0.9c1.3,1.5,2.6,3.2,3.9,5.1c23.4,26.5,72.6,18.8,78.6,14.5c2.6,1.8,27,22,63.9,21.7
					c3.1,20.5,21.1,41.4,47.4,48.9c-1.7,7.2-7.1,54.4,18.2,70.1c5.7,1.5,11.3,4.1,16.6,7.6c-23.6-18.2-26.8-46.6-12.2-69.5
					c3.7-5.9,10-13.9,15.2-16.6C469.3,310.3,449.4,302.3,437.3,292.6z"/>
			</g>
		</g>
	</g>
	<g id="XMLID_114_">
		<g id="XMLID_276_">
			<g id="XMLID_286_">
				<path id="XMLID_287_" class="st3" d="M482.3,396.6c-1.2-0.8-2.3-1.6-3.4-2.5C480.1,394.9,481.2,395.7,482.3,396.6z"/>
			</g>
			<g id="XMLID_277_">
				<path id="XMLID_278_" class="st3" d="M372.7,383.1c-23.3-15.3-45.3-22.5-59.7-2.2c14.5-20.2,2.7-40.6-15.2-58.6
					c-9.5-9.5-20.9-12.3-30.7-10.5c4-2.1,7.9-5.8,11-10.9c10.7-17.2-17.5-57.3-29.9-70.9c0.2-0.3,0.4-0.7,0.6-1
					c0.2-0.3,0.4-0.7,0.6-1c1.8,0.8,10.3,7.9,12.5,8.5c8.5,9.6,31.1,25.4,39.2,64c2.6,2,40.1,21.1,40.1,44.7
					c20.5-3.3,41.8,9.5,57,32.3c6.3-3.8,38-10,68.5,3.3c3.2,5,7.4,9.5,12.3,13.4c-24.6-16.9-59.3-14-76.7,6.9
					c-4.5,5.3-7.2,11.2-8.1,16.9C392.7,404.9,385.7,391.7,372.7,383.1z"/>
			</g>
		</g>
	</g>
	<g id="XMLID_102_" class="st6">
		<path id="XMLID_106_" class="st2" d="M482.3,396.6c-1.2-0.8-2.3-1.6-3.4-2.5C480.1,394.9,481.2,395.7,482.3,396.6z"/>
	</g>
	<path id="XMLID_99_" class="st7" d="M402.2,401c-4.5,5.3-7.2,11.2-8.1,16.9c-1.4-13-8.4-26.3-21.4-34.8
		c-23.3-15.3-45.3-22.5-59.7-2.2c14.5-20.2,2.7-40.6-15.2-58.6c-9.5-9.5-20.9-12.3-30.7-10.5c4-2.1,7.9-5.8,11-10.9
		c10.7-17.2-17.5-57.3-29.9-70.9c0.2-0.3,0.4-0.7,0.6-1c0.2-0.3,0.4-0.7,0.6-1c16.3,7.3,64.5,15.3,76.4-4.1c3.7-6,5.9-12.3,6.4-18.1
		c2,12.4,9,24.2,21.9,30.6c24.7,12.2,50.6,16.7,69.7-10.1c-19.1,26.6-4.6,48.4,19.1,67.9c13.2,10.8,30.7,13.6,47.1,10.5
		c-7,3.1-13.6,8-19,14.5c-21,24.9-14.9,59.9,11.5,77.6C457.6,377,420.4,379.1,402.2,401z"/>
	<path id="XMLID_90_" class="st7" d="M482.3,396.6c0,0-52.9-87.6-148.5-116.3"/>
</g>
<g id="XMLID_38_">
	<circle id="XMLID_152_" class="st8" cx="527.5" cy="332.6" r="47.7"/>
	<circle id="XMLID_150_" class="st9" cx="527.5" cy="332.6" r="47.7"/>
	<path id="XMLID_147_" class="st10" d="M563.1,300.8c0.8,3.4,1.2,7,1.2,10.7c0,26.4-21.4,47.7-47.7,47.7c-14.2,0-26.9-6.2-35.6-16
		c4.9,21.2,23.8,37,46.5,37c26.4,0,47.7-21.4,47.7-47.7C575.2,320.4,570.6,309.3,563.1,300.8z"/>
	<circle id="XMLID_146_" class="st7" cx="527.5" cy="332.6" r="47.7"/>
	<ellipse id="XMLID_135_" class="st8" cx="524" cy="312.7" rx="9.3" ry="8.2"/>
</g>
<g id="XMLID_155_">
	<circle id="XMLID_229_" class="st8" cx="453.1" cy="362.9" r="51.6"/>
	<circle id="XMLID_220_" class="st9" cx="453.1" cy="362.9" r="51.6"/>
	<path id="XMLID_215_" class="st10" d="M491.6,328.6c0.9,3.7,1.3,7.6,1.3,11.6c0,28.5-23.1,51.6-51.6,51.6
		c-15.3,0-29.1-6.7-38.5-17.3c5.3,22.9,25.8,40,50.3,40c28.5,0,51.6-23.1,51.6-51.6C504.7,349.7,499.8,337.7,491.6,328.6z"/>
	<circle id="XMLID_193_" class="st7" cx="453.1" cy="362.9" r="51.6"/>
	<ellipse id="XMLID_187_" class="st8" cx="449.4" cy="341.4" rx="10.1" ry="8.8"/>
</g>
<g id="XMLID_231_">
	<circle id="XMLID_238_" class="st8" cx="517.4" cy="390.5" r="51.6"/>
	<circle id="XMLID_235_" class="st9" cx="517.4" cy="390.5" r="51.6"/>
	<path id="XMLID_234_" class="st10" d="M555.9,356.2c0.9,3.7,1.3,7.6,1.3,11.6c0,28.5-23.1,51.6-51.6,51.6
		c-15.3,0-29.1-6.7-38.5-17.3c5.3,22.9,25.8,40,50.3,40c28.5,0,51.6-23.1,51.6-51.6C569,377.3,564.1,365.3,555.9,356.2z"/>
	<circle id="XMLID_233_" class="st7" cx="517.4" cy="390.5" r="51.6"/>
	<ellipse id="XMLID_232_" class="st8" cx="513.7" cy="369" rx="10.1" ry="8.8"/>
</g>
<g id="XMLID_46_">
	<path id="XMLID_50_" class="st11" d="M428.7,417.4c0,0-14.1-20.8-50.7-56.5c-35.8-34.9-77.8-27.4-91.9-10.7
		c-14.1,16.7-26.9,71.4-23,96.4c5.2,33.5,143.1,40,153.1,34.9C414.8,442.7,407.8,427.9,428.7,417.4z"/>
	<path id="XMLID_172_" class="st12" d="M411,394.1c0,0-41.1,37-29.2,60.7c27,20.8,34,20.7,34,20.7s-2.1-30.7,2.9-43
		c5.1-12.3,7.7-18.2,7.7-18.2L411,394.1z"/>
	<path id="XMLID_165_" class="st12" d="M310.9,338.4c0,0-22.8,55.4-18.5,84.2c-27.1,7.2-31.4,7.1-29.8,4.9c1.6-2.1,2.9-22.2,2.9-27
		s5.7-43.6,12-51.9c6.3-8.3,28.7-12.8,31.4-12.6C311.6,336.3,310.9,338.4,310.9,338.4z"/>
	<path id="XMLID_49_" class="st7" d="M428.7,417.4c0,0-14.1-20.8-50.7-56.5c-35.8-34.9-77.8-27.4-91.9-10.7
		c-14.1,16.7-26.9,71.4-23,96.4c5.2,33.5,143.1,40,153.1,34.9C414.8,442.7,407.8,427.9,428.7,417.4z"/>
	<path id="XMLID_3_" class="st1" d="M263,446.6c-0.6-4-0.1-9.2,1.2-15.2c47.7-37.9,151.9,50.1,151.9,50.1
		C406.1,486.5,268.2,480.1,263,446.6z"/>
	<path id="XMLID_48_" class="st7" d="M263,446.6c-0.6-4-0.1-9.2,1.2-15.2c47.7-37.9,151.9,50.1,151.9,50.1
		C406.1,486.5,268.2,480.1,263,446.6z"/>
	<path id="XMLID_47_" class="st7" d="M414.4,454.8c0,0-41.3-62.2-80-64.3"/>
	<path id="XMLID_117_" class="st13" d="M381.8,382.5c-0.9,3.7-22.7-12.6-46.3-16.5c-14.3-2.4-24.7-5.7-23.8-9.4
		c0.9-3.7,13.1-3.9,27.2-0.3C353,359.8,382.8,378.8,381.8,382.5z"/>
</g>
<g id="XMLID_2_">
	<path id="XMLID_16_" class="st11" d="M537.5,437.1c0,0,15.7-19.7,55-52.4c38.4-32,79.7-21.3,92.5-3.5s21.3,73.2,15.4,97.9
		c-7.8,33-145.7,28.7-155.3,22.9C549.4,463.4,557.5,449.2,537.5,437.1z"/>
	<path id="XMLID_168_" class="st13" d="M659.2,381.9c11.3,10.8-13.2,3.5-27.3,6.6c-14.2,3.1-30.2,15.5-31,11.7
		c-0.8-3.8,17.1-16.4,31.2-19.5C646.2,377.7,656.4,379.3,659.2,381.9z"/>
	<path id="XMLID_31_" class="st12" d="M564.4,414.5c0,0,16.9,15.1,20.3,28.9c3.4,13.8,6.4,32.2,6.4,32.2l-26.8,13.9
		c0,0-6.4-25.7-6.4-31.8c0-6.1-15.7-26-15.7-26L564.4,414.5z"/>
	<path id="XMLID_116_" class="st12" d="M656.4,369.9c0,0,19.3,18.4,20.6,54.6c1.1,33.7,0,27.4,0,27.4l23.4,12c0,0,0-14.8,0-28.8
		s-7-54-19.9-63s-29.3-7.9-29.3-7.9S658.1,359.9,656.4,369.9z"/>
	<path id="XMLID_5_" class="st7" d="M537.5,437.1c0,0,15.7-19.7,55-52.4c38.4-32,79.7-21.3,92.5-3.5s21.3,73.2,15.4,97.9
		c-7.8,33-145.7,28.7-155.3,22.9C549.4,463.4,557.5,449.2,537.5,437.1z"/>
	<path id="XMLID_33_" class="st1" d="M700.4,479.1c0.9-4,0.9-9.2,0-15.2C655.7,422.4,545.1,502,545.1,502
		C554.6,507.8,692.6,512.2,700.4,479.1z"/>
	<path id="XMLID_15_" class="st7" d="M700.4,479.1c0.9-4,0.9-9.2,0-15.2C655.7,422.4,545.1,502,545.1,502
		C554.6,507.8,692.6,512.2,700.4,479.1z"/>
	<path id="XMLID_6_" class="st7" d="M548.8,475.6c0,0,46-58.8,84.8-57.9"/>
</g>
<g id="XMLID_63_">
	<path id="XMLID_81_" class="st14" d="M502.2,428.3c-25,10.5-36.7,39.2-26.3,64.1s39.2,36.7,64.1,26.3c25-10.5,36.7-39.2,26.3-64.1
		C555.9,429.6,527.2,417.9,502.2,428.3z M531.3,497.8c-13.4,5.6-28.9-0.7-34.5-14.1c-5.6-13.4,0.7-28.9,14.1-34.5
		s28.9,0.7,34.5,14.1C551.1,476.8,544.7,492.2,531.3,497.8z"/>
	<path id="XMLID_78_" class="st7" d="M502.2,428.3c-25,10.5-36.7,39.2-26.3,64.1s39.2,36.7,64.1,26.3c25-10.5,36.7-39.2,26.3-64.1
		C555.9,429.6,527.2,417.9,502.2,428.3z M531.3,497.8c-13.4,5.6-28.9-0.7-34.5-14.1c-5.6-13.4,0.7-28.9,14.1-34.5
		s28.9,0.7,34.5,14.1C551.1,476.8,544.7,492.2,531.3,497.8z"/>
	<g id="XMLID_64_">
		<circle id="XMLID_77_" class="st15" cx="610.5" cy="789.7" r="48.3"/>
		<path id="XMLID_76_" class="st16" d="M655.9,773.4c-0.3-0.8-0.6-1.6-0.9-2.4c-10.3-24.6-38.6-36.2-63.2-25.9
			c-0.8,0.3-1.6,0.7-2.4,1.1c0,0,0,0-0.1,0c-22.9,11.1-33.4,38.3-23.4,62.1c0.7,1.6,1.4,3.1,2.2,4.6l41.8-17.5
			c11.8-4.9,23.1,7.8,16.9,18.9c-6.4,11.5-16.6,20.6-27.8,22.3c9.7,2.4,20.2,1.8,30.1-2.4C652.9,824.2,664.6,797.4,655.9,773.4
			C655.9,773.4,655.9,773.4,655.9,773.4z"/>
		<circle id="XMLID_75_" class="st7" cx="610.5" cy="789.7" r="48.3"/>
		<path id="XMLID_74_" class="st7" d="M605.1,819.1c-9.6-1.8-18.2-8.2-22.3-17.9c-1.4-3.3-2.1-6.7-2.3-10"/>
		<g id="XMLID_72_">
			<path id="XMLID_73_" class="st17" d="M746.3,639.5L746.3,639.5c-15.9-6.8-37.1-15.5-47.6-30.3c-21.9-30.9-38.9-61.5-61.8-87
				c-29.2-31.5-74-41.8-107.1-27.9l0,0c-33.1,13.9-57.2,53-55.2,95.9c2.1,34.2,11.9,67.8,18.6,105.1c3.2,17.9-5.5,39.1-11.8,55.2
				l0,0c-5.4,13.9-6.2,29.5-2,44.9l0,0c4.1,15.1,20.1,23.5,34.8,18.3c43.1-15.2,85.8-33.1,128.1-50.8
				c42.1-17.6,85.5-35.8,126.1-55.6c14-6.8,19.3-24.2,11.4-37.6l0,0C771.7,655.7,760,645.3,746.3,639.5z"/>
		</g>
		<path id="XMLID_71_" class="st18" d="M484.3,742.8c-1,2.6-2,5.2-2.9,7.6l0,0c-5.4,13.9-6.2,29.5-2,44.9h0
			c4.1,15.1,20.1,23.5,34.8,18.3c43.1-15.2,85.8-33.1,128.1-50.8c42.1-17.6,85.5-35.8,126.1-55.6c14-6.8,19.3-24.2,11.4-37.6l0,0
			c-8-13.8-19.7-24.2-33.4-30l0,0c-2.4-1-4.8-2.1-7.4-3.2c-48.5,18.6-103.8,40.1-131.2,51.6C581.5,698.9,530,722.1,484.3,742.8z"/>
		<path id="XMLID_70_" class="st19" d="M493.1,797.5c-4.3-15.8-3.5-31.9,2.1-46.2l0,0c6.4-16.6,15.4-38.4,12.1-56.7
			c-6.9-38.3-17-72.9-19.1-108.1c-1.8-40.8,19.2-78.3,49.4-95c-2.6,0.8-5.2,1.7-7.7,2.7l0,0c-33.1,13.9-57.2,53-55.2,95.9
			c2.1,34.2,11.9,67.8,18.6,105.1c3.2,17.9-5.5,39.1-11.8,55.2l0,0c-5.4,13.9-6.2,29.5-2,44.9h0c3.4,12.8,15.5,20.8,28.1,19.7
			C500.6,811.7,495.2,805.5,493.1,797.5z"/>
		<path id="XMLID_190_" class="st20" d="M779.8,669.5L779.8,669.5c-8.1-13.8-19.7-24.2-33.4-30v0c-15.9-6.8-37.1-15.5-47.6-30.3
			c-21.9-30.9-38.9-61.5-61.8-87c-29.2-31.5-74-41.8-107.1-27.9l0,0c-5.6,2.4-11,5.5-16,9.2c7,1.4,14,3.5,20.9,6.3l-23.6,6.7
			c0,0-5.2,0.7-4.4,13.6c-1.4-0.4-2.2-0.6-2.2-0.6s-22.7,22.6-25.5,25.4c-2.8,2.8-4.5,68.2-11.7,87.7c-7.2,19.5-9.2,71.9-14,89
			C436.3,790,500,815.1,500,815.1s18.8-8.8,34.3-8.8c15.5,0,35.9-16.6,35.9-16.6s11.1-4.3,10.4-21.5c-0.3-8.9,2.3-26.8-9.8-52.4
			c-8.8-18.7-19.7-26.3-25.7-41.6c-5-12.8-7.6-39.9-8.9-66.7c9.2,13.9,16,23.5,18.7,27.2c1.5,2,3.6,3.5,6,4.1
			c4.6,1,17.9,4.5,17.9-17.7c-9.9-48.5,1.4-58,5.5-72.4c20.9,11,32.7,49.9,59.8,86.1c11.9,15.9,34.2,25.9,51.3,33.5v0
			c14.7,6.5,27.3,18,36.1,33.1l0,0c4,6.9,4.9,14.6,3.3,21.7c11.4-5.2,22.7-10.5,33.8-15.9C782.5,700.3,787.6,682.9,779.8,669.5z"/>
		<path id="XMLID_68_" class="st7" d="M746.3,639.5L746.3,639.5c-15.9-6.8-37.1-15.5-47.6-30.3c-21.9-30.9-38.9-61.5-61.8-87
			c-29.2-31.5-74-41.8-107.1-27.9l0,0c-33.1,13.9-57.2,53-55.2,95.9c2.1,34.2,11.9,67.8,18.6,105.1c3.2,17.9-5.5,39.1-11.8,55.2l0,0
			c-5.4,13.9-6.2,29.5-2,44.9l0,0c4.1,15.1,20.1,23.5,34.8,18.3c43.1-15.2,85.8-33.1,128.1-50.8c42.1-17.6,85.5-35.8,126.1-55.6
			c14-6.8,19.3-24.2,11.4-37.6l0,0C771.7,655.7,760,645.3,746.3,639.5z"/>
		<path id="XMLID_67_" class="st21" d="M505.3,783.1c-4.3-6.1,1.2-14.8,4-21.8l0.8-2c1.7-4.3,3.5-8.9,5.2-13.8"/>
		<path id="XMLID_66_" class="st21" d="M504.5,588.6c-0.6-14.7,3.1-29.6,10.4-42.1"/>
		<path id="XMLID_65_" class="st21" d="M522.7,690c-2.3-12.9-5-25.3-7.5-37.2c-3.6-16.6-7-32.5-9-48"/>
	</g>
	<g id="XMLID_42_">
		<path id="XMLID_44_" class="st22" d="M489.5,429.4c0,0,1.7-21.8,21.4-14.3c39.7,15.1,41.2,72.8,41.2,72.8s-15.7,2.6-19.9,3.7
			c-4.6,1.3-19.7,10-19.7,10S523.6,419.7,489.5,429.4z"/>
	</g>
	<g id="XMLID_43_">
		<path id="XMLID_28_" class="st7" d="M489.5,429.4c0,0,1.7-21.8,21.4-14.3c39.7,15.1,41.2,72.8,41.2,72.8s-15.7,2.6-19.9,3.7
			c-4.6,1.3-19.7,10-19.7,10S523.6,419.7,489.5,429.4z"/>
	</g>
</g>
<g id="XMLID_27_">
	<path id="XMLID_24_" class="st14" d="M446.5,413c-26.8-3.8-51.6,14.9-55.4,41.7c-3.8,26.8,14.9,51.6,41.7,55.4
		c26.8,3.8,51.6-14.9,55.4-41.7C492,441.5,473.3,416.7,446.5,413z M436,487.6c-14.4-2-24.5-15.4-22.4-29.8
		c2-14.4,15.4-24.5,29.8-22.4c14.4,2,24.5,15.4,22.4,29.8C463.8,479.6,450.4,489.6,436,487.6z"/>
	<path id="XMLID_120_" class="st23" d="M446.5,413c-26.8-3.8-51.6,14.9-55.4,41.7c-3.8,26.8,14.9,51.6,41.7,55.4
		c26.8,3.8,51.6-14.9,55.4-41.7C492,441.5,473.3,416.7,446.5,413z M436,487.6c-14.4-2-24.5-15.4-22.4-29.8
		c2-14.4,15.4-24.5,29.8-22.4c14.4,2,24.5,15.4,22.4,29.8C463.8,479.6,450.4,489.6,436,487.6z"/>
	<path id="XMLID_13_" class="st7" d="M446.5,413c-26.8-3.8-51.6,14.9-55.4,41.7c-3.8,26.8,14.9,51.6,41.7,55.4
		c26.8,3.8,51.6-14.9,55.4-41.7C492,441.5,473.3,416.7,446.5,413z M436,487.6c-14.4-2-24.5-15.4-22.4-29.8
		c2-14.4,15.4-24.5,29.8-22.4c14.4,2,24.5,15.4,22.4,29.8C463.8,479.6,450.4,489.6,436,487.6z"/>
	<g id="XMLID_20_">
		<circle id="XMLID_22_" class="st15" cx="439.7" cy="785.4" r="48.3"/>
		<path id="XMLID_58_" class="st16" d="M487.1,794.6c0.2-0.8,0.3-1.7,0.4-2.5c3.7-26.4-14.7-50.8-41.1-54.5
			c-0.9-0.1-1.8-0.2-2.6-0.3c0,0,0,0-0.1,0c-25.4-2.1-48.3,15.9-51.8,41.4c-0.2,1.7-0.4,3.4-0.4,5l44.9,6.3
			c12.6,1.8,15.9,18.5,4.9,24.9c-11.3,6.6-24.8,9.2-35.3,4.9c7.1,7,16.4,11.8,27.1,13.3C458.5,836.8,482.2,819.7,487.1,794.6
			C487.1,794.6,487.1,794.6,487.1,794.6z"/>
		<circle id="XMLID_14_" class="st7" cx="439.7" cy="785.4" r="48.3"/>
		<path id="XMLID_8_" class="st7" d="M420,807.9c-7.4-6.4-11.4-16.4-10-26.8c0.5-3.5,1.6-6.8,3.2-9.8"/>
		<g id="XMLID_21_">
			<path id="XMLID_23_" class="st17" d="M548.4,719.2L548.4,719.2c-10.1-14-24-32.3-25.4-50.4c-3-37.8-2-72.8-8.7-106.4
				c-9-42-42.2-73.7-77.8-78.7h0c-35.6-5-76.2,16.3-96.5,54.2c-15.7,30.5-24.4,64.4-37.7,99.9c-6.4,17-24.7,30.8-38.3,41.4l0,0
				c-11.8,9.2-20.4,22.2-24.7,37.5l0,0c-4.2,15,5.3,30.5,20.6,33.5c44.8,8.9,90.7,15.4,136.1,21.8c45.2,6.4,91.8,12.9,136.8,16.7
				c15.6,1.3,28.9-10.9,29-26.5l0,0C561.9,746.2,557.2,731.3,548.4,719.2z"/>
		</g>
		<path id="XMLID_55_" class="st18" d="M270.4,674.2c-2.2,1.7-4.4,3.4-6.4,5l0,0c-11.8,9.2-20.4,22.2-24.7,37.5h0
			c-4.2,15,5.3,30.5,20.6,33.5c44.8,8.9,90.7,15.4,136.1,21.8c45.2,6.4,91.8,12.9,136.8,16.7c15.6,1.3,28.9-10.9,29-26.5l0,0
			c0.1-15.9-4.6-30.8-13.4-42.9v0c-1.5-2.1-3.1-4.2-4.7-6.5C492.5,704,434,694.2,404.6,690C376.4,686.1,320.2,679.6,270.4,674.2z"/>
		<path id="XMLID_60_" class="st19" d="M249.9,725.6c4.4-15.8,13.3-29.2,25.4-38.6l0,0c14-10.9,32.9-25.1,39.4-42.6
			c13.7-36.5,22.7-71.3,38.8-102.7c19.3-36,56.6-57.5,91-56.4c-2.7-0.7-5.3-1.2-8-1.6l0,0c-35.6-5-76.2,16.3-96.5,54.2
			c-15.7,30.5-24.4,64.4-37.7,99.9c-6.4,17-24.7,30.8-38.3,41.4l0,0c-11.8,9.2-20.4,22.2-24.7,37.5h0c-3.6,12.8,2.7,25.8,14,31.3
			C249.2,741.6,247.7,733.6,249.9,725.6z"/>
		<path id="XMLID_113_" class="st20" d="M548.4,719.3L548.4,719.3c-10.1-14-24-32.3-25.4-50.4c-3-37.8-2-72.8-8.7-106.4
			c-9-42-42.2-73.7-77.8-78.7h0c-6-0.9-12.2-0.9-18.5-0.3c9.3,8.3,24.8,16.4,31.2,37.6c-8.3,19.1-56.4,65.3-56.4,69.6
			c0,4.3,42.7,31.2,68.4,45c0.4,9,0.9,18,1.5,27.3c1.5,19.8,16.2,39.7,26.9,55v0c9.3,13.1,14.3,29.4,14.1,46.9l0,0
			c-0.1,7.9-3.2,15.1-8.2,20.3c12.4,1.4,24.8,2.6,37,3.6c15.6,1.3,28.9-10.9,29-26.5l0,0C561.9,746.2,557.2,731.3,548.4,719.3z"/>
		<path id="XMLID_11_" class="st7" d="M548.4,719.3L548.4,719.3c-10.1-14-24-32.3-25.4-50.4c-3-37.8-2-72.8-8.7-106.4
			c-9-42-42.2-73.7-77.8-78.7l0,0c-35.6-5-76.2,16.3-96.5,54.2c-15.7,30.5-24.4,64.4-37.7,99.9c-6.4,17-24.7,30.8-38.3,41.4l0,0
			c-11.8,9.2-20.4,22.2-24.7,37.5v0c-4.2,15,5.3,30.5,20.6,33.5c44.8,8.9,90.7,15.4,136.1,21.8c45.2,6.4,91.8,12.9,136.8,16.7
			c15.6,1.3,28.9-10.9,29-26.5l0,0C561.9,746.2,557.2,731.3,548.4,719.3z"/>
		<path id="XMLID_9_" class="st21" d="M268.4,727c-0.6-7.5,8-19.5,14-24.2l1.7-1.3c3.6-2.8,7.5-5.9,11.5-9.2"/>
		<path id="XMLID_56_" class="st21" d="M366.6,551.9c7-12.9,17.8-23.9,30.5-30.9"/>
		<path id="XMLID_7_" class="st21" d="M330.4,648.3c4.6-12.3,8.6-24.2,12.5-35.8c5.4-16.1,10.6-31.5,16.8-45.9"/>
	</g>
</g>
<g id="XMLID_19_">
	<path id="XMLID_17_" class="st11" d="M472.7,429.5c0,0,54.6,86.4,107.3,106.7c-29,49.3-17.5,88.1-17.5,88.1
		S480.7,517.5,472.7,429.5z"/>
	<path id="XMLID_57_" class="st12" d="M488.6,457.6c0,0,15.8,23.8,18,41.7s-2.1,30.1-2.1,30.1l-12.5-27.8l-11.6-49.7L488.6,457.6z"
		/>
	<path id="XMLID_18_" class="st7" d="M472.7,429.5c0,0,54.6,86.4,107.3,106.7c-27.7,31.4-17.5,88.1-17.5,88.1
		S480.7,517.5,472.7,429.5z"/>
</g>
<g id="XMLID_51_">
	<path id="XMLID_4_" class="st11" d="M472.2,450c0,0,31.2,24.5-61.2,136.4c38.1,14.9,70.1,41.9,70.1,41.9S518.2,498.3,472.2,450z"/>
	<path id="XMLID_176_" class="st12" d="M474.9,482c0,0,16.9,31.4,16.9,44.9c-4.8-52.4-0.5-39.4-4.8-52.4S474.9,482,474.9,482z"/>
	<path id="XMLID_52_" class="st7" d="M472.2,450c0,0,31.2,24.5-61.2,136.4c38.1,14.9,70.1,41.9,70.1,41.9S518.2,498.3,472.2,450z"/>
</g>
<g id="XMLID_1_">
	<path id="XMLID_29_" class="st22" d="M464.9,402.8c0,0-56.7,24.4-50.4,81.1c34.9-4.9,51.6,10.4,51.6,10.4s10.2-47.1,31.2-69
		C506.8,389.3,464.9,402.8,464.9,402.8z"/>
</g>
<path id="XMLID_69_" class="st24" d="M461.6,431.6c-10,7.6-20.9,24.9-23.5,21.5c-2.6-3.5,7.2-23.2,17.2-30.8c10-7.6,22.9-7.5,25.5-4
	C483.4,421.8,471.6,424.1,461.6,431.6z"/>
<g id="XMLID_53_">
	<path id="XMLID_45_" class="st7" d="M464.9,402.8c0,0-56.7,24.4-50.4,81.1c34.9-4.9,51.6,10.4,51.6,10.4s10.2-47.1,31.2-69
		C506.8,389.3,464.9,402.8,464.9,402.8z"/>
</g>
<line id="XMLID_59_" class="st7" x1="377.3" y1="820.2" x2="350.4" y2="827.8"/>
<line id="XMLID_61_" class="st7" x1="392.9" y1="838.6" x2="371.4" y2="862.5"/>
<line id="XMLID_182_" class="st7" x1="605.1" y1="890.2" x2="610.9" y2="862.5"/>
<line id="XMLID_183_" class="st7" x1="650.8" y1="884.1" x2="638" y2="857.6"/>
<line id="XMLID_184_" class="st7" x1="683" y1="857.6" x2="658.8" y2="842.1"/>
<line id="XMLID_62_" class="st7" x1="413.3" y1="853.3" x2="408.9" y2="884"/>
<path id="XMLID_173_" class="st25" d="M450.1,563.4c-6.1,8.3-11.4,15-11.4,15s-3.4,6.5,1.1,6.5s-5-0.7,4.5,0
	c0.8,0.1,2.6,0.1,21.9-36.4c6.8-12.9,11.3-40.8,11.3-40.8l-4.9,13.7C467.1,536.4,459.5,550.5,450.1,563.4z"/>
<path id="XMLID_121_" class="st24" d="M527.8,440.6c3.8,7.3,7.6,28.8,6.1,29.5s-8.3-17.3-12-24.7c-3.8-7.3-5.7-13.9-4.3-14.6
	C519.1,430.1,524.1,433.3,527.8,440.6z"/>
</svg>
