<?xml version="1.0" encoding="utf-8"?>
<!-- Generator: Adobe Illustrator 23.1.1, SVG Export Plug-In . SVG Version: 6.00 Build 0)  -->
<svg version="1.1" id="Layer_1" xmlns="http://www.w3.org/2000/svg" xmlns:xlink="http://www.w3.org/1999/xlink" x="0px" y="0px"
	 viewBox="0 0 1000 1000" style="enable-background:new 0 0 1000 1000;" xml:space="preserve">
<style type="text/css">
	.st0{fill:#EFF1FF;}
	.st1{fill:#DD3E68;}
	.st2{fill:#CFD0D1;}
	.st3{fill:#FFFFFF;}
	.st4{fill:#DDDDDD;}
	.st5{fill:none;stroke:#DDDDDD;stroke-width:8;stroke-linecap:round;stroke-linejoin:round;stroke-miterlimit:10;}
	.st6{fill:none;stroke:#34323A;stroke-width:12;stroke-linecap:round;stroke-linejoin:round;stroke-miterlimit:10;}
	.st7{fill:#F74B71;}
	.st8{fill:#B55D4C;}
	.st9{opacity:0.5;fill:#E27F71;}
	.st10{fill:#C1C1C1;}
	.st11{fill:none;stroke:#34323A;stroke-width:6;stroke-linecap:round;stroke-linejoin:round;stroke-miterlimit:10;}
	.st12{fill:none;stroke:#34323A;stroke-width:8;stroke-linecap:round;stroke-linejoin:round;stroke-miterlimit:10;}
	.st13{fill:none;stroke:#FFFFFF;stroke-width:2;stroke-linecap:round;stroke-linejoin:round;stroke-miterlimit:10;}
	.st14{fill:#F46A4A;}
	.st15{opacity:0.8;fill:#F46A4A;}
	.st16{fill:#34323A;}
</style>
<rect id="XMLID_80_" class="st0" width="1000" height="1000"/>
<g>
	<g>
		<g>
			<path class="st1" d="M63.2,959.2c0,2.5-1.2,3.7-2.6,3.7c-1.1,0-1.9-0.5-2.1-1.4c-0.4,0.5-1,0.8-1.8,0.8c-1.5,0-2.6-1.2-2.6-2.8
				c0-1.6,1.1-2.8,2.6-2.8c0.7,0,1.2,0.3,1.6,0.7v-0.5h1.6v3.9c0,0.8,0.3,1.4,1,1.4c0.9,0,1.7-0.9,1.7-3c0-3-2.3-5.3-5.4-5.3
				c-3.1,0-5.6,2.4-5.6,5.7c0,3.3,2.5,5.7,5.9,5.7c1.1,0,2.1-0.2,2.9-0.4v0.6c-0.8,0.3-1.7,0.4-2.9,0.4c-3.7,0-6.5-2.6-6.5-6.2
				c0-3.4,2.7-6.2,6.2-6.2C61.1,953.3,63.2,956.4,63.2,959.2z M58.3,959.5c0-0.8-0.6-1.4-1.3-1.4c-0.8,0-1.3,0.5-1.3,1.4
				c0,0.8,0.6,1.3,1.3,1.3C57.8,960.9,58.3,960.3,58.3,959.5z"/>
		</g>
		<g>
			<path class="st1" d="M69.4,955.1v2c-1.2-0.1-2.6,0.5-2.6,2.4v4.3h-1.9v-8.6h1.9v1.4C67.3,955.5,68.3,955.1,69.4,955.1z"/>
		</g>
		<g>
			<path class="st1" d="M74.6,962.3c1,0,1.8-0.5,2.2-1.1l1.5,0.9c-0.8,1.2-2.1,1.9-3.8,1.9c-2.8,0-4.7-1.9-4.7-4.5
				c0-2.5,1.8-4.5,4.5-4.5c2.6,0,4.3,2.1,4.3,4.5c0,0.3,0,0.5-0.1,0.8h-6.8C72.1,961.6,73.2,962.3,74.6,962.3z M76.9,958.8
				c-0.3-1.5-1.3-2.1-2.5-2.1c-1.4,0-2.3,0.8-2.6,2.1H76.9z"/>
		</g>
		<g>
			<path class="st1" d="M88.9,955.2v8.6h-1.9v-1.2c-0.7,0.9-1.7,1.5-3,1.5c-2.3,0-4.3-2-4.3-4.5c0-2.6,1.9-4.5,4.3-4.5
				c1.3,0,2.3,0.5,3,1.4v-1.2H88.9z M87.1,959.5c0-1.6-1.2-2.7-2.7-2.7c-1.5,0-2.7,1.1-2.7,2.7c0,1.6,1.2,2.7,2.7,2.7
				C85.9,962.3,87.1,961.1,87.1,959.5z"/>
		</g>
		<g>
			<path class="st1" d="M91.1,951.3H93v12.5h-1.9V951.3z"/>
		</g>
		<g>
			<path class="st1" d="M102.9,955.2l-3.3,8.6h-2.1l-3.3-8.6h2l2.4,6.5l2.4-6.5H102.9z"/>
		</g>
		<g>
			<path class="st1" d="M104.2,955.2h1.9v8.9c0,2.4-1.2,3.5-3.5,3.3v-1.8c1.1,0.1,1.7-0.3,1.7-1.5V955.2z M104,952.8
				c0-0.7,0.5-1.2,1.2-1.2c0.7,0,1.2,0.5,1.2,1.2c0,0.6-0.5,1.2-1.2,1.2C104.5,954,104,953.4,104,952.8z"/>
		</g>
		<g>
			<path class="st1" d="M116,955.2l-3.3,8.8c-0.8,2.2-2.2,3.3-4.2,3.2v-1.7c1.2,0.1,1.9-0.5,2.3-1.7l0.1-0.2l-3.6-8.4h2l2.6,6.2
				l2.2-6.2H116z"/>
		</g>
	</g>
	<g>
		<path class="st1" d="M211.9,938.7c0,2.1-1.5,3.8-3.6,3.8h-3v-7.6h3C210.4,934.9,211.9,936.6,211.9,938.7z M210.9,938.7
			c0-1.6-1.1-2.9-2.6-2.9h-2v5.7h2C209.8,941.6,210.9,940.3,210.9,938.7z"/>
		<path class="st1" d="M219.5,940.8h-3.4l-0.6,1.7h-1.1l2.8-7.6h1.1l2.8,7.6h-1.1L219.5,940.8z M219.2,939.9l-1.4-3.8l-1.4,3.8
			H219.2z"/>
		<path class="st1" d="M226.4,939.4v3.1h-1v-3.1l-2.7-4.5h1.1l2.1,3.6l2.1-3.6h1.1L226.4,939.4z"/>
		<path class="st1" d="M242.1,940.4c0,1.4-1.1,2.2-2.6,2.2c-1.5,0-2.6-0.8-2.6-2.2c0-0.8,0.5-1.5,1.2-1.9c-0.6-0.3-0.9-0.9-0.9-1.7
			c0-1.5,1.2-2.2,2.4-2.2c1.2,0,2.4,0.7,2.4,2.2c0,0.8-0.4,1.3-0.9,1.7C241.7,938.9,242.1,939.6,242.1,940.4z M241.1,940.4
			c0-0.9-0.7-1.3-1.6-1.3c-0.9,0-1.6,0.4-1.6,1.3c0,0.9,0.7,1.3,1.6,1.3C240.5,941.7,241.1,941.2,241.1,940.4z M238.2,936.9
			c0,0.8,0.6,1.2,1.4,1.2c0.7,0,1.4-0.4,1.4-1.2c0-0.8-0.6-1.2-1.4-1.2C238.8,935.7,238.2,936.1,238.2,936.9z"/>
		<path class="st1" d="M250.1,940.3c0,1.5-1.2,2.4-2.6,2.4c-1.1,0-2.1-0.5-2.5-1.5l0.9-0.5c0.2,0.7,0.8,1.1,1.7,1.1
			c0.9,0,1.6-0.5,1.6-1.4c0-0.9-0.7-1.4-1.6-1.4h-0.3l-0.4-0.6l1.8-2.4h-3.4v-0.9h4.6v0.9l-1.7,2.2
			C249.2,938.2,250.1,939,250.1,940.3z"/>
	</g>
	<g>
		<path class="st1" d="M58.9,938.7c0,2.1-1.5,3.8-3.6,3.8h-3v-7.6h3C57.4,934.9,58.9,936.6,58.9,938.7z M57.9,938.7
			c0-1.6-1.1-2.9-2.6-2.9h-2v5.7h2C56.8,941.6,57.9,940.3,57.9,938.7z"/>
		<path class="st1" d="M67,941.6v1h-4.6v-7.6h4.5v1h-3.5v2.3h3.2v0.9h-3.2v2.4H67z"/>
		<path class="st1" d="M70,940.8l0.9-0.5c0.3,0.8,0.9,1.4,2,1.4c1.1,0,1.6-0.5,1.6-1.2c0-0.8-0.7-1-1.8-1.4
			c-1.2-0.4-2.4-0.8-2.4-2.2c0-1.4,1.1-2.2,2.4-2.2c1.3,0,2.2,0.7,2.6,1.7l-0.8,0.5c-0.3-0.7-0.8-1.2-1.7-1.2
			c-0.8,0-1.4,0.4-1.4,1.1c0,0.7,0.5,1,1.6,1.3c1.3,0.4,2.6,0.8,2.6,2.3c0,1.3-1.1,2.2-2.6,2.2C71.5,942.7,70.4,941.9,70,940.8z"/>
		<path class="st1" d="M80,934.9v7.6h-1v-7.6H80z"/>
		<path class="st1" d="M91.3,939.2c0,1.9-1.4,3.5-3.7,3.5c-2.4,0-4-1.8-4-4c0-2.2,1.7-4,4-4c1.4,0,2.7,0.8,3.3,1.8l-0.9,0.5
			c-0.4-0.8-1.4-1.4-2.4-1.4c-1.8,0-3,1.3-3,3c0,1.7,1.2,3,3,3c1.6,0,2.5-0.9,2.7-2h-2.8v-0.9h3.8V939.2z"/>
		<path class="st1" d="M100.6,934.9v7.6h-0.8l-3.9-5.7v5.7h-1v-7.6h0.8l3.9,5.7v-5.7H100.6z"/>
		<path class="st1" d="M109.1,941.6v1h-4.6v-7.6h4.5v1h-3.5v2.3h3.2v0.9h-3.2v2.4H109.1z"/>
		<path class="st1" d="M119.2,938.7c0,2.1-1.5,3.8-3.6,3.8h-3v-7.6h3C117.6,934.9,119.2,936.6,119.2,938.7z M118.2,938.7
			c0-1.6-1.1-2.9-2.6-2.9h-2v5.7h2C117.1,941.6,118.2,940.3,118.2,938.7z"/>
		<path class="st1" d="M133.2,940.4c0,1.2-1,2.2-2.2,2.2h-3.3v-7.6h3c1.2,0,2.1,0.9,2.1,2.1c0,0.7-0.3,1.2-0.8,1.6
			C132.7,938.9,133.2,939.5,133.2,940.4z M128.7,935.8v2.3h2c0.6,0,1.1-0.5,1.1-1.2c0-0.6-0.5-1.2-1.1-1.2H128.7z M132.2,940.3
			c0-0.7-0.5-1.2-1.2-1.2h-2.3v2.5h2.3C131.7,941.6,132.2,941,132.2,940.3z"/>
		<path class="st1" d="M139.4,939.4v3.1h-1v-3.1l-2.7-4.5h1.1l2.1,3.6l2.1-3.6h1.1L139.4,939.4z"/>
	</g>
	<g>
		<path class="st1" d="M204.8,961.5l1.8-1c0.4,1.3,1.4,2.1,3.1,2.1c1.6,0,2.3-0.7,2.3-1.6c0-1.1-1-1.5-2.8-2
			c-1.9-0.6-3.8-1.3-3.8-3.6c0-2.3,1.9-3.6,4-3.6c2,0,3.5,1.1,4.3,2.7l-1.7,1c-0.4-1-1.2-1.7-2.6-1.7c-1.2,0-1.9,0.6-1.9,1.5
			c0,1,0.7,1.4,2.5,1.9c2.1,0.7,4.1,1.3,4.1,3.8c0,2.3-1.8,3.6-4.4,3.6C207.1,964.5,205.5,963.3,204.8,961.5z"/>
		<path class="st1" d="M223.7,958.9v5.4h-1.9v-5.2c0-1.3-0.8-2.1-2-2.1c-1.3,0-2.2,0.7-2.2,2.5v4.7h-1.9v-8.9h1.9v1.1
			c0.6-0.9,1.5-1.4,2.7-1.4C222.3,955.2,223.7,956.6,223.7,958.9z"/>
		<path class="st1" d="M225.2,959.9c0-2.6,2.1-4.7,4.7-4.7c2.6,0,4.7,2,4.7,4.7c0,2.6-2.1,4.7-4.7,4.7
			C227.3,964.5,225.2,962.5,225.2,959.9z M232.7,959.9c0-1.6-1.2-2.8-2.8-2.8s-2.8,1.2-2.8,2.8c0,1.6,1.2,2.8,2.8,2.8
			S232.7,961.5,232.7,959.9z"/>
		<path class="st1" d="M248.2,955.4l-2.8,8.9h-1.9l-1.8-6l-1.9,6h-1.9l-2.8-8.9h2l1.7,6.1l1.9-6.1h1.8l1.8,6.1l1.7-6.1H248.2z"/>
		<path class="st1" d="M262.6,958.8v5.5h-1.9v-5.4c0-1.2-0.7-1.9-1.7-1.9c-1.1,0-1.9,0.7-1.9,2.3v5h-1.9v-5.4c0-1.2-0.6-1.9-1.7-1.9
			c-1.1,0-2,0.7-2,2.3v5h-1.9v-8.9h1.9v1.1c0.6-0.9,1.4-1.3,2.5-1.3c1.2,0,2,0.5,2.5,1.4c0.6-0.9,1.5-1.4,2.7-1.4
			C261.3,955.2,262.6,956.6,262.6,958.8z"/>
		<path class="st1" d="M273.6,955.4v8.9h-1.9V963c-0.7,0.9-1.7,1.5-3.1,1.5c-2.4,0-4.4-2-4.4-4.7c0-2.6,2-4.7,4.4-4.7
			c1.4,0,2.4,0.6,3.1,1.5v-1.3H273.6z M271.7,959.9c0-1.6-1.2-2.8-2.8-2.8c-1.6,0-2.8,1.2-2.8,2.8c0,1.6,1.2,2.8,2.8,2.8
			C270.5,962.7,271.7,961.5,271.7,959.9z"/>
		<path class="st1" d="M283.9,958.9v5.4H282v-5.2c0-1.3-0.8-2.1-2-2.1c-1.3,0-2.2,0.7-2.2,2.5v4.7h-1.9v-8.9h1.9v1.1
			c0.6-0.9,1.5-1.4,2.7-1.4C282.5,955.2,283.9,956.6,283.9,958.9z"/>
	</g>
	<g>
		<g>
			<g>
				<path class="st1" d="M846.1,938.7c0,2.1-1.5,3.8-3.6,3.8h-3v-7.6h3C844.6,934.9,846.1,936.6,846.1,938.7z M845.2,938.7
					c0-1.6-1.1-2.9-2.6-2.9h-2v5.7h2C844.1,941.6,845.2,940.3,845.2,938.7z"/>
			</g>
			<g>
				<path class="st1" d="M849.3,938.7c0-2.2,1.7-4,3.9-4c2.2,0,4,1.8,4,4c0,2.2-1.7,4-4,4C851,942.7,849.3,940.9,849.3,938.7z
					 M856.1,938.7c0-1.7-1.3-3-2.9-3c-1.7,0-2.9,1.3-2.9,3c0,1.7,1.3,3,2.9,3C854.9,941.7,856.1,940.4,856.1,938.7z"/>
			</g>
			<g>
				<path class="st1" d="M859.8,934.9h1.1l1.7,6.3l1.9-6.3h1l1.9,6.3l1.7-6.3h1.1l-2.2,7.6h-1.2l-1.8-6.1l-1.8,6.1H862L859.8,934.9z
					"/>
			</g>
			<g>
				<path class="st1" d="M879.3,934.9v7.6h-0.8l-3.9-5.7v5.7h-1v-7.6h0.8l3.9,5.7v-5.7H879.3z"/>
			</g>
			<g>
				<path class="st1" d="M887.5,941.6v1h-4.3v-7.6h1v6.7H887.5z"/>
			</g>
			<g>
				<path class="st1" d="M889.9,938.7c0-2.2,1.7-4,3.9-4c2.2,0,4,1.8,4,4c0,2.2-1.7,4-4,4C891.6,942.7,889.9,940.9,889.9,938.7z
					 M896.8,938.7c0-1.7-1.3-3-2.9-3c-1.7,0-2.9,1.3-2.9,3c0,1.7,1.3,3,2.9,3C895.5,941.7,896.8,940.4,896.8,938.7z"/>
			</g>
			<g>
				<path class="st1" d="M905.4,940.8H902l-0.6,1.7h-1.1l2.8-7.6h1.1l2.8,7.6H906L905.4,940.8z M905.1,939.9l-1.4-3.8l-1.4,3.8
					H905.1z"/>
			</g>
			<g>
				<path class="st1" d="M916.9,938.7c0,2.1-1.5,3.8-3.6,3.8h-3v-7.6h3C915.4,934.9,916.9,936.6,916.9,938.7z M915.9,938.7
					c0-1.6-1.1-2.9-2.6-2.9h-2v5.7h2C914.9,941.6,915.9,940.3,915.9,938.7z"/>
			</g>
			<g>
				<path class="st1" d="M926.5,935.8v2.5h3.2v1h-3.2v3.2h-1v-7.6h4.4v1H926.5z"/>
			</g>
			<g>
				<path class="st1" d="M936.2,939.6h-1.8v2.9h-1v-7.6h3c1.3,0,2.4,1.1,2.4,2.4c0,1-0.7,1.9-1.6,2.2l1.8,3.1h-1.1L936.2,939.6z
					 M934.4,938.7h2c0.8,0,1.4-0.6,1.4-1.4c0-0.8-0.6-1.4-1.4-1.4h-2V938.7z"/>
			</g>
			<g>
				<path class="st1" d="M941.9,938.7c0-2.2,1.7-4,3.9-4c2.2,0,4,1.8,4,4c0,2.2-1.7,4-4,4C943.6,942.7,941.9,940.9,941.9,938.7z
					 M948.8,938.7c0-1.7-1.3-3-2.9-3c-1.7,0-2.9,1.3-2.9,3c0,1.7,1.3,3,2.9,3C947.5,941.7,948.8,940.4,948.8,938.7z"/>
			</g>
			<g>
				<path class="st1" d="M960.4,942.5h-1v-6l-2.5,4.2h-0.1l-2.5-4.1v5.9h-1v-7.6h1.1l2.4,4l2.4-4h1.1V942.5z"/>
			</g>
		</g>
		<g>
			<g>
				<path class="st1" d="M839.3,952.9c0-0.7,0.5-1.2,1.2-1.2c0.7,0,1.2,0.5,1.2,1.2c0,0.7-0.5,1.2-1.2,1.2
					C839.9,954.1,839.3,953.6,839.3,952.9z M839.6,955.4h1.9v8.9h-1.9V955.4z"/>
			</g>
			<g>
				<path class="st1" d="M843.7,951.4h1.9v12.9h-1.9V951.4z"/>
			</g>
			<g>
				<path class="st1" d="M847.8,951.4h1.9v12.9h-1.9V951.4z"/>
			</g>
			<g>
				<path class="st1" d="M852,951.4h1.9v12.9H852V951.4z"/>
			</g>
			<g>
				<path class="st1" d="M864,955.4v8.9h-1.9v-1.1c-0.6,0.9-1.5,1.4-2.7,1.4c-2,0-3.4-1.3-3.4-3.6v-5.4h1.9v5.2c0,1.3,0.8,2.1,2,2.1
					c1.3,0,2.2-0.7,2.2-2.5v-4.7H864z"/>
			</g>
			<g>
				<path class="st1" d="M872.6,961.8c0,1.8-1.5,2.7-3.5,2.7c-1.8,0-3-0.8-3.6-2.1l1.6-1c0.3,0.8,1,1.3,2,1.3c0.8,0,1.5-0.3,1.5-1
					c0-1.6-4.8-0.7-4.8-3.9c0-1.7,1.4-2.7,3.2-2.7c1.5,0,2.7,0.7,3.3,1.8l-1.6,0.9c-0.3-0.7-0.9-1-1.7-1c-0.7,0-1.3,0.3-1.3,0.9
					C867.9,959.5,872.6,958.5,872.6,961.8z"/>
			</g>
			<g>
				<path class="st1" d="M876.7,957.3v4.2c0,1.1,0.7,1.1,2.2,1v1.7c-2.9,0.4-4.1-0.5-4.1-2.8v-4.2h-1.6v-1.8h1.6v-1.9l1.9-0.6v2.5
					h2.2v1.8H876.7z"/>
			</g>
			<g>
				<path class="st1" d="M885.4,955.3v2.1c-1.3-0.1-2.7,0.5-2.7,2.5v4.5h-1.9v-8.9h1.9v1.5C883.2,955.7,884.2,955.3,885.4,955.3z"/>
			</g>
			<g>
				<path class="st1" d="M895.3,955.4v8.9h-1.9V963c-0.7,0.9-1.7,1.5-3.1,1.5c-2.4,0-4.4-2-4.4-4.7c0-2.6,2-4.7,4.4-4.7
					c1.4,0,2.4,0.6,3.1,1.5v-1.3H895.3z M893.4,959.9c0-1.6-1.2-2.8-2.8-2.8c-1.6,0-2.8,1.2-2.8,2.8c0,1.6,1.2,2.8,2.8,2.8
					C892.2,962.7,893.4,961.5,893.4,959.9z"/>
			</g>
			<g>
				<path class="st1" d="M900.3,957.3v4.2c0,1.1,0.7,1.1,2.2,1v1.7c-2.9,0.4-4.1-0.5-4.1-2.8v-4.2h-1.6v-1.8h1.6v-1.9l1.9-0.6v2.5
					h2.2v1.8H900.3z"/>
			</g>
			<g>
				<path class="st1" d="M903.9,952.9c0-0.7,0.5-1.2,1.2-1.2c0.7,0,1.2,0.5,1.2,1.2c0,0.7-0.5,1.2-1.2,1.2
					C904.5,954.1,903.9,953.6,903.9,952.9z M904.2,955.4h1.9v8.9h-1.9V955.4z"/>
			</g>
			<g>
				<path class="st1" d="M907.8,959.9c0-2.6,2.1-4.7,4.7-4.7c2.6,0,4.7,2,4.7,4.7c0,2.6-2.1,4.7-4.7,4.7
					C909.9,964.5,907.8,962.5,907.8,959.9z M915.3,959.9c0-1.6-1.2-2.8-2.8-2.8c-1.6,0-2.8,1.2-2.8,2.8c0,1.6,1.2,2.8,2.8,2.8
					C914.1,962.7,915.3,961.5,915.3,959.9z"/>
			</g>
			<g>
				<path class="st1" d="M927,958.9v5.4h-1.9v-5.2c0-1.3-0.8-2.1-2-2.1c-1.3,0-2.2,0.7-2.2,2.5v4.7h-1.9v-8.9h1.9v1.1
					c0.6-0.9,1.5-1.4,2.7-1.4C925.5,955.2,927,956.6,927,958.9z"/>
			</g>
			<g>
				<path class="st1" d="M935.5,961.8c0,1.8-1.5,2.7-3.5,2.7c-1.8,0-3-0.8-3.6-2.1l1.6-1c0.3,0.8,1,1.3,2,1.3c0.8,0,1.5-0.3,1.5-1
					c0-1.6-4.8-0.7-4.8-3.9c0-1.7,1.4-2.7,3.2-2.7c1.5,0,2.7,0.7,3.3,1.8l-1.6,0.9c-0.3-0.7-0.9-1-1.7-1c-0.7,0-1.3,0.3-1.3,0.9
					C930.7,959.5,935.5,958.5,935.5,961.8z"/>
			</g>
			<g>
				<path class="st1" d="M936.8,963.2c0-0.7,0.6-1.3,1.3-1.3c0.7,0,1.3,0.6,1.3,1.3c0,0.7-0.6,1.3-1.3,1.3
					C937.4,964.5,936.8,963.9,936.8,963.2z"/>
			</g>
			<g>
				<path class="st1" d="M940.3,959.9c0-2.6,2-4.7,4.7-4.7c1.7,0,3.2,0.9,3.9,2.3l-1.6,1c-0.4-0.8-1.3-1.4-2.3-1.4
					c-1.6,0-2.7,1.2-2.7,2.8c0,1.6,1.2,2.8,2.7,2.8c1.1,0,1.9-0.5,2.4-1.4l1.6,0.9c-0.7,1.4-2.2,2.3-4,2.3
					C942.3,964.5,940.3,962.5,940.3,959.9z"/>
			</g>
			<g>
				<path class="st1" d="M949.7,959.9c0-2.6,2.1-4.7,4.7-4.7c2.6,0,4.7,2,4.7,4.7c0,2.6-2.1,4.7-4.7,4.7
					C951.8,964.5,949.7,962.5,949.7,959.9z M957.2,959.9c0-1.6-1.2-2.8-2.8-2.8s-2.8,1.2-2.8,2.8c0,1.6,1.2,2.8,2.8,2.8
					S957.2,961.5,957.2,959.9z"/>
			</g>
		</g>
	</g>
</g>
<g id="XMLID_1_">
	<ellipse id="XMLID_5_" class="st2" cx="519.6" cy="827.3" rx="149.9" ry="29.1"/>
	<circle id="XMLID_6_" class="st3" cx="499.3" cy="390.5" r="125.7"/>
	<polygon id="XMLID_65_" class="st4" points="517.7,411.1 564.1,463.3 491.6,447.4 	"/>
	<path id="XMLID_68_" class="st4" d="M540.4,271.8c22,22.6,35.5,53.5,35.5,87.5c0,69.4-56.3,125.7-125.7,125.7
		c-14.4,0-28.2-2.4-41.1-6.9c22.8,23.5,54.8,38.1,90.1,38.1c69.4,0,125.7-56.3,125.7-125.7C624.9,335.5,589.6,288.8,540.4,271.8z"/>
	<path id="XMLID_67_" class="st4" d="M499.3,268.9c-67.4,0-122.3,53-125.5,119.6c1.3,0.4,2.4,0.6,3.4,0.6c3.1,0,7-1.2,9.5-5.9
		l1.4,0.9l0,0l5.5,3.2l0.5,0.3l0.1-1.6l9.3-17.3c2.2-1,4.3-2.8,5.5-5.8l0.8-0.7c0.3-0.3,0.7-0.6,0.9-1c0,0,0,0,0,0l2.2,4l4.5-5.5
		c0.1,0,0.2,0,0.3,0c0.7,0,1.4-0.1,2.1-0.2c0.1,0,0.1,0,0.2,0c1.1,0.4,2.3,0.6,3.7,0.6c0,0,0,0,0,0c4.9,0,8.4-2.8,10.7-8.3
		c1.7-0.6,3-1.5,4-2.5c1.6-0.4,2.8-1,3.7-1.6c0.6-0.1,1.2-0.3,1.7-0.6l0.5,0.3l4-2.2c0.6,0.1,1.2,0.1,1.9,0.1l3,0.1l1.3-0.8
		c0.1,0,0.1,0,0.2,0c1,0.1,2.2,0.3,3.6,0.3c3.3,0,6.4-0.9,9.1-2.6c2.4-0.5,4.7-0.9,6.8-0.9l2.7,0l1.9-1.2c0.4,0,1,0,1.5,0.1
		c0.9,0.1,1.9,0.1,3.1,0.1c0.7,0,1.4,0,2-0.1l1.6-0.1l1.1-0.5c0.4,0,0.9,0.1,1.4,0.1c0.9,0.1,2.1,0.2,3.4,0.2c1.2,0,2.4-0.1,3.5-0.3
		l2.5-0.5c1.3,0.4,2.8,0.8,4.5,0.8c1.6,0,3.1-0.3,4.6-0.9l0.5-0.2l1.3,0.9l2.5,0.3c0.4,0.1,1.1,0.2,1.8,0.4c1.7,0.4,3.9,0.9,6.4,0.9
		c0.2,0,0.5,0,0.7,0c1.5,0.5,3.2,0.7,5,0.7c0.1,0,0.2,0,0.3,0c2.9,2.2,5.9,2.5,7.4,2.5c0,0,0,0,0,0c1.4,0,2.7-0.2,3.7-0.6
		c2.8,1.1,5.9,2,9.3,2c0.2,0,0.4,0,0.6,0l0.7,1.9l3.5,0.3c1.7,1.7,4.7,4.2,9,4.3c2.1,1,4.2,1.2,5.6,1.2c0.4,0,0.7,0,1,0
		c0.1,0.1,0.2,0.2,0.3,0.2c1.4,1,3.6,2.5,6.4,3.1c2.8,1.7,5.4,2.8,8,3.4l1.7,0.4c0.1,0.1,0.1,0.1,0.2,0.2c2.4,2.7,5,3.9,7,4.4
		l5.3,8.5l2.4-2.3l1.1,2.2l4.2-1l4.7,6.2l2.6-1.3l1.2,1.4l1.9,0.7c0.1,0.1,0.3,0.2,0.4,0.3c0.8,0.5,1.9,1.3,3.4,1.9
		c2.2,2.4,4.7,3.4,6.6,3.7C620.2,320.6,565.8,268.9,499.3,268.9z"/>
	<circle id="XMLID_59_" class="st5" cx="464.7" cy="385.8" r="18.5"/>
	<circle id="XMLID_60_" class="st5" cx="548.6" cy="385.8" r="18.5"/>
	<circle id="XMLID_2_" class="st6" cx="499.3" cy="390.5" r="125.7"/>
	<ellipse id="XMLID_22_" class="st3" cx="499.2" cy="660.3" rx="169" ry="167.6"/>
	<path id="XMLID_97_" class="st4" d="M548.3,499.9c4.1,4.4,8,9,11.7,13.8l-14.3-1.3H409.1l-25.4,25.5c0,0,46.4,19.5,82.6,21.7
		s73.7-3.7,77.6-3.7c0,4.9-5.8,90,5.5,145.5c2.9,14.2-2.1,28.9-13,38.5c-29.8,26.1-68.9,41.9-111.8,41.9c-17.1,0-33.6-2.5-49.1-7.2
		c30.8,32.8,74.8,53.3,123.6,53.3c93.3,0,169-75.1,169-167.6C668.2,584.7,617.7,520.8,548.3,499.9z"/>
	<path id="XMLID_69_" class="st7" d="M553.1,520c0,0,0,89.3,11,181.9c5.7,48.3,23.2,13.3,41.2,13.3S625.1,545.5,553.1,520z"/>
	<ellipse id="XMLID_3_" class="st6" cx="499.2" cy="660.3" rx="169" ry="167.6"/>
	<polygon id="XMLID_77_" class="st8" points="623.4,596.9 686.1,571.7 712.3,529.2 722.2,451.8 732.1,529.2 828.1,447.4 
		792.7,503.8 703.9,594 630.3,624.2 	"/>
	<polygon id="XMLID_82_" class="st9" points="643.3,591.2 695.4,581.7 753.4,525.8 725.8,541 725.8,482.5 713.5,520 686.1,571.7 	
		"/>
	<polygon id="XMLID_23_" class="st6" points="623.4,596.9 686.1,571.7 712.3,529.2 722.2,451.8 732.1,529.2 828.1,447.4 
		792.7,503.8 703.9,594 630.3,624.2 	"/>
	<path id="XMLID_74_" class="st7" d="M553.1,520c0,0,0,89.3,11,181.9c5.7,48.3,23.2,13.3,41.2,13.3S625.1,545.5,553.1,520z"/>
	<path id="XMLID_84_" class="st1" d="M604.1,647.6L575.3,550c12.1-3,28.9-7.7,28.9-7.7L595,520l-41.9,11l0.7,27.7c0,0,0,0,0.1-0.1
		c3.5-3,8.9-1.2,10,3.3c1.4,5.9,3.2,33.8,5.5,48c6.7,43.3,11.5,64.4,11.5,72.2c0,25.2-13.9,41.2-13.9,41.2l11.5,5l39.3-18.3
		L604.1,647.6z"/>
	<polygon id="XMLID_79_" class="st4" points="556.2,583.1 598.9,568.9 602.9,587.4 557.5,604.3 	"/>
	<polygon id="XMLID_106_" class="st10" points="566.4,580.6 598.9,568.9 602.9,587.4 567.8,601.8 	"/>
	<polygon id="XMLID_81_" class="st11" points="556.2,583.1 598.9,568.9 602.9,587.4 557.5,604.3 	"/>
	<polygon id="XMLID_90_" class="st4" points="556.2,648.6 598.9,634.4 602.9,652.9 557.5,669.8 	"/>
	<polygon id="XMLID_104_" class="st10" points="574.8,642.4 601.2,626.2 603.5,644.7 577.9,661.6 	"/>
	<polygon id="XMLID_89_" class="st11" points="556.2,648.6 598.9,634.4 602.9,652.9 557.5,669.8 	"/>
	<path id="XMLID_21_" class="st6" d="M553.1,520c0,0,0,89.3,11,181.9c5.7,48.3,23.2,13.3,41.2,13.3S625.1,545.5,553.1,520z"/>
	<path id="XMLID_66_" class="st7" d="M591.4,511.1l-24.3,8.9c0,0,26.7,214.3,52,208.3c25.3-6,55.1,0.1,53.3-22.9
		C670.1,677,659,677,591.4,511.1z"/>
	<path id="XMLID_101_" class="st1" d="M672.3,705.4c-2.3-28.4-13.3-28.4-81-194.3l-13.5,4.9C625.1,646.8,635,650.4,637,676.8
		c1.4,18.2-16.9,18.2-37.1,20.4c6.2,19.9,12.7,32.7,19.1,31.2C644.3,722.3,674.2,728.4,672.3,705.4z"/>
	<path id="XMLID_98_" class="st3" d="M577.9,581.7L577.9,581.7c7.5-7.5,17.4-12.2,28-13.2l11.3-1l3.7,18.5c0,0-10.8,1.6-21.4,4.1
		c-5.8,1.4-20.3,12.8-20.3,12.8L577.9,581.7z"/>
	<path id="XMLID_102_" class="st10" d="M605.9,568.5c-2.8,0.3-5.6,0.8-8.4,1.6c2.5,6.7,4.9,13,7.1,18.9c8.7-1.8,16.3-3,16.3-3
		l-1.6-7.9c-1.4-3.3-2.9-6.8-4.4-10.4L605.9,568.5z"/>
	<path id="XMLID_92_" class="st11" d="M577.9,581.7L577.9,581.7c7.5-7.5,17.4-12.2,28-13.2l11.3-1l3.7,18.5c0,0-10.8,1.6-21.4,4.1
		c-5.8,1.4-20.3,12.8-20.3,12.8L577.9,581.7z"/>
	<path id="XMLID_100_" class="st3" d="M593.7,652.6L593.7,652.6c9.5-9.5,22.1-15.5,35.5-16.7l14.4-1.3l13,25.7c0,0-22-0.2-35.6,3
		c-7.4,1.7-25.8,16.2-25.8,16.2L593.7,652.6z"/>
	<path id="XMLID_103_" class="st10" d="M631,635.5c-2.3,0.2-4.5,0.6-6.7,1c3.7,10.2,6.5,18.1,8.5,24.7c12.3-1.4,25.6-1.3,25.6-1.3
		l-13-25.7L631,635.5z"/>
	<path id="XMLID_99_" class="st11" d="M590.3,652.4L590.3,652.4c9.5-9.5,26.1-15.5,39.5-16.7l14.4-1.3l12.4,25.9
		c0,0-22.6-3.6-34.9,2.8c-11.9,6.2-25.8,16.2-25.8,16.2L590.3,652.4z"/>
	<path id="XMLID_13_" class="st6" d="M591.4,511.1l-24.3,8.9c0,0,26.7,214.3,52,208.3c25.3-6,55.1,0.1,53.3-22.9
		C670.1,677,659,677,591.4,511.1z"/>
	<path id="XMLID_48_" class="st7" d="M373.6,345.7c0,0-8-184.9,187.1-179.3c48.3,1.4,57.3-15.9,57.3-15.9s80.9,134.7,3.7,211.9
		C585.5,321,446.1,264.9,373.6,345.7z"/>
	<path id="XMLID_64_" class="st1" d="M618,150.5c0,0-2.1,4.1-9.9,8.1c10.9,58-42.4,91.8-158,110.1c-88.4,14-74.3,46-74.3,46
		c-7,7,4.8,13.4,10,19.3c74.9-63.2,201.8-10.8,236.1,28.3C698.9,285.2,618,150.5,618,150.5z"/>
	<path id="XMLID_7_" class="st6" d="M373.6,345.7c0,0-8-184.9,187.1-179.3c48.3,1.4,57.3-15.9,57.3-15.9s80.9,134.7,3.7,211.9
		C585.5,321,446.1,264.9,373.6,345.7z"/>
	<path id="XMLID_55_" class="st3" d="M355.8,351c-0.4-7.8-0.6-1.1-0.7-5.4c0-2.7,0.1-0.2,0.5-5.8c0.4,2,0.9,2.1,1.6-6.2
		c0.7-17.3,1.6-8,2.6-6.4c1-7.8,2.2,0.7,3.6-6.5c1.3-0.3,2.8-2,4.5-6.5c1.6-0.9,3.4-10.2,5.3-6.4c1.9-6.9,3.9-9,6-6.2
		c2.1-7.1,4.3,1.6,6.7-5.9c2.3-7.1,4.7-6.9,7.3-5.5c2.5,2.9,5.1,3.7,7.8-4.9c2.7-8,5.4-2.9,8.2-4.3c2.8-0.7,5.7,1,8.6-3.5
		c2.9-5.6,5.9-3.3,8.9-2.6c0-2.3,0.2,2,0.5-0.2c0.3-1.7,0.8-1.9,1.5-0.5c0.7-4.4,1.5-6.8,2.5-0.8c1-2.2,2.1,1.4,3.4-1
		c1.3-2,2.7,2.6,4.3-1.1c1.6-0.3,3.3-1.5,5.1-1.2c1.9,1.7,3.8,5,6-1.2c2.1-3,4.4,2.5,6.7-1.2c2.4-3.5,4.9-0.1,7.5-1.1
		c2.6,2.9,5.3-0.1,8.2-0.9c2.8,3.7,5.8-4.4,8.8-0.6c3,0.4,6.2-0.6,9.4-0.3c3.2,0.3,6.6-1,10,0c3.4,2.4,7-0.8,10.6,0.4
		c3.6,0,7.3-1.1,11.1,0.9c3.8,4.1,7.6,2.4,11.5,1.5c3.9-2,7.9-0.2,12,2.1c4.1,3.1,8.2,1.8,12.4,2.8c4.2-1,8.4,1.7,12.7,3.5
		c4.3,3.8,8.6,2.9,13,4.3c4.4,1.9,8.8,0.9,13.3,5.2c4.5,2.2,9,3.9,13.5,6.2c0.8-0.4,2.1,1.2,3.8,2.1c1.7-0.5,3.8,4.8,6,3.7
		c2.3-0.5,4.7,3.8,7.2,4.8c2.5-4.1,5,1.8,7.3,5.3c2.4,1.4,4.5,8,6.4,5.2c1.9-1.5,3.4,2.4,4.5,4.6c2.6,10.3,4.5,8.4,5.9,9.8
		c1.4,5.5,2.3,4.6,2.7,9.3c0.4,6.4,0.4,2.6,0,8.6c-0.4,2.6-1.1,7.7-2.2,7.6c-1.1,5.3-2.4,8.7-4,6.5c-1.6,5.8-3.4,5-5.3,5.1
		c-1.9,4.9-4,2.4-6.1,3.6c-2.1,0.7-4.3-0.5-6.5,1.8c-2.2,0.9-4.4,5.4-6.4-0.2c-2.1,0.6-4.1-1.7-5.9-2.4c-2.2-2.5-4.5-5.4-6.7-4.3
		c-2.2-3-4.5-4.7-6.7-4.2c-2.2-4.2-4.5-6.2-6.8-4c-2.3-3.6-4.5-1-6.8-3.9c-2.3-2.4-4.6-5.4-6.9-3.7c-2.3-0.6-4.7-1.8-7-3.5
		c-2.4,0.5-4.8-2.8-7.2-3.2c-2.4-1.7-4.9,1.8-7.4-3c-2.5,4.3-5-2.5-7.6-2.7c-2.6-6.7-5.1-2.3-7.8-2.4c-2.6,0.2-5.3-0.9-8-2
		c-2.7-2.8-5.5,3.8-8.3-1.7c-2.8-1.1-5.7,0.8-8.6-1.3c-2.9,1-5.9-0.5-8.9-0.9c-3-2.2-6.1-2.2-9.3-0.4c-3.2,1.3-6.4-4.9-9.6,0
		c-3.3,0.6-6.6-1-10,0.5c-3.4,0.3-6.9-1.1-10.5,1c-3.6,0-7.2,0.7-10.9,1.5c-4.5,4.1-8.7-0.1-12.7,2.3c-3.9-0.1-7.6,0.4-11,2.6
		c-3.4,1.7-6.6-0.6-9.5,2.9c-3,4.7-5.7,9.4-8.2,3.2c-2.5,7-4.9,6.7-7.1,3.4c-2.2-1.8-4.3,6-6.2,3.6c-1.9,0.5-3.7-0.1-5.4,3.7
		c-1.7-0.9-3.3,0.1-4.8,3.9c-1.5,7.1-3-0.9-4.4,4c-1.4-0.4-2.8,7-4.2,4.1c-1.4-0.5-2.7-0.7-4.1,4.1c-2.6-3.8-4.8,2.3-6.7,4.4
		c-1.9,7.8-3.5,0.8-4.8,0.4c-2.4,4.5-4.6-3-6.6-2.6c-2-3.2-3.9-9.6-5.5-5.5c-1.6-15.9-2.9-2.2-4-6.6
		C357,355.4,356.2,360.9,355.8,351z"/>
	<path id="XMLID_61_" class="st4" d="M654.8,336.5c-0.4-4.7-1.3-3.9-2.7-9.3c-0.3-0.3-0.7-0.5-1-0.6c0,0.4-0.1,0.8-0.1,1.3
		c-0.4,2.6-1.1,7.7-2.2,7.6c-1.1,5.3-2.4,8.7-4,6.5c-0.4,1.4-0.8,2.5-1.2,3.2s-0.9,0-1.3,1.5c-0.9,0.3-1.8-0.9-2.8,0.5
		c-1.2,1.6-2.4-2.4-3.5,1.7c-1.1-2.2-2.3,5.4-3.4,2c-1.1,0.4-2.2-0.1-3.3,0.8c-1.1-0.4-2.1,1.7-3.1,0.2c-1,0.1-2,2-3-0.6
		c-1-0.4-2,0-3-0.7c-1-0.1-1.9-3.4-2.9-2.4c-0.9-3-1.9-4-2.8-0.7c-0.9,2.6-1.8,2-2.7-0.6c-0.9-4-1.8,0.7-2.7-3.8
		c-0.4,0.3-0.9-2.8-1.3,0.6c-0.4-0.2-0.9-1-1.3-3.1c-0.9-0.5-1.7-3.3-2.6-2.6c-0.4,0.3-0.9,1.1-1.3,1.2s-0.9-0.7-1.4-3.5
		c-1.4,2.5-2.9-4-4.5-2.9c-1.6-6.7-3.4-7.3-5.3-1.9c-0.9-3-1.8,1.7-2.7-1.2c-1.5,2.5-3,7.6-4.6-1.8c-0.8-2-1.6-2-2.4-1.7
		c-0.8,1.3-1.6,0.5-2.4,0.3c-0.8,1.6-1.6,0.6-2.4,2.1c-0.8-1.2-1.6-0.1-2.4-3.2c-0.5-4-1-6.4-1.5-3.9c-0.5,0.7-1,2.2-1.5,2.3
		c-1-1.4-2.1-3.6-3.1-2.1c-1,3-2.1,1.6-3.2-0.7c-1.4-0.1-2.9-0.3-4.3-1.5c-1.5,0-3,0.9-4.6-1.2c-1.6-0.1-3.2-1.8-4.9-0.7
		c-0.7-2.9-1.3-0.7-2-3.1c-0.7-0.5-1.3-0.6-1.9-0.5c-1.3,0.3-2.6,1.3-3.9,1.3c-2.6,0.2-5.3-0.9-8-2c-2.7-2.8-5.5,3.8-8.3-1.7
		c-2.8-1.1-5.7,0.8-8.6-1.3c-2.9,1-5.9-0.5-8.9-0.9c-3-2.2-6.1-2.2-9.3-0.4c-3.2,1.3-6.4-4.9-9.6,0c-3.3,0.6-6.6-1-10,0.5
		c-3.4,0.3-6.9-1.1-10.5,1c-3.6,0-7.2,0.7-10.9,1.5c-4.5,4.1-8.7-0.1-12.7,2.3c-2,0-3.9-0.6-5.7,0.4c-1.8-1.2-3.6,2.2-5.3,2.2
		c-1.7-0.3-3.4,3.1-4.9,0.8c-1.6-0.3-3.1,6.3-4.6,2.2c-1.5,0-2.9,0.2-4.3,5.7c-1.4,4.6-2.7,5.4-4-2.5c-1.3,0.5-2.5,5.6-3.7,5.6
		c-1.2,0.6-2.3-3.5-3.4-2.2c-1.1-2-2.2-0.5-3.2,2c-1,1.6-2,1.9-3,1.6c-1-1.6-1.9,2.6-2.8,0.6c-0.9-0.1-1.8,2.3-2.6,3.1
		c-0.8-4.9-1.7-1.5-2.5,0.2c-0.8,6.9-1.6,3.9-2.3,3.7c-0.8-1.3-1.5,1.5-2.2,2.8c-0.7-7.8-1.5,3.5-2.2,1.2c-0.7,1-1.4-1.4-2.1,3
		c-0.7,2.9-1.4,4-2.1,1.1c-0.7-2.9-1.4-0.5-2.1,0.1c-0.7-2.7-1.4-3.7-2.1,4.1c-1.3-0.8-2.5-1.3-3.6,0c-1.1,3.4-2.1,4.2-3.1,4.4
		c-0.9,4.4-1.8,4.1-2.6,3.3c-0.8-0.6-1.5-0.7-2.2-2.9c-1.2,3.7-2.3,1.4-3.4,0.3c-1.1-0.9-2.2-3.6-3.2-2.8c-1-1.6-2-4-2.9-5.5
		s-1.8-2.1-2.6,0c-0.5-5-1-7-1.4-7.7c-0.4,3-0.8,2.5-1,1.1c-0.4,5.6-0.5,3.2-0.5,5.8c0,4.3,0.2-2.4,0.7,5.4c0.4,9.9,1.2,4.4,2.2,5.9
		c1.1,4.4,2.4-9.2,4,6.6c0.8-2,1.7-1.5,2.6,0c0.9,1.5,1.9,3.9,2.9,5.5c1-0.8,2.1,1.9,3.2,2.8c1.1,1.2,2.2,3.5,3.4-0.3
		c0.7,2.2,1.4,2.3,2.2,2.9c0.8,0.8,1.7,1.1,2.6-3.3c0.9-0.2,2-1,3.1-4.4c1.1-1.3,2.3-0.7,3.6,0c0.7-7.8,1.4-6.8,2.1-4.1
		c0.7-0.6,1.4-3,2.1-0.1c0.7,2.9,1.4,1.8,2.1-1.1c0.7-4.3,1.4-2,2.1-3c0.7,2.4,1.4-9,2.2-1.2c0.7-1.4,1.5-4.1,2.2-2.8
		c0.8,0.2,1.5,3.3,2.3-3.7c0.8-1.7,1.6-5.1,2.5-0.2c0.8-0.8,1.7-3.2,2.6-3.1c0.9,2,1.8-2.3,2.8-0.6c1,0.3,2,0,3-1.6
		c1-2.6,2.1-4,3.2-2c1.1-1.3,2.2,2.7,3.4,2.2c1.2,0,2.4-5.1,3.7-5.6c1.3,7.9,2.6,7.1,4,2.5c1.4-5.5,2.8-5.7,4.3-5.7
		c1.5,4.2,3-2.4,4.6-2.2c1.6,2.4,3.2-1,4.9-0.8c1.7,0.1,3.5-3.4,5.3-2.2c1.8-1,3.7-0.5,5.7-0.4c3.9-2.4,8.2,1.8,12.7-2.3
		c3.7-0.8,7.4-1.5,10.9-1.5c3.6-2.1,7-0.7,10.5-1c3.4-1.5,6.8,0.1,10-0.5c3.3-4.9,6.5,1.2,9.6,0c3.2-1.8,6.2-1.8,9.3,0.4
		c3,0.4,6,1.8,8.9,0.9c2.9,2,5.8,0.2,8.6,1.3c2.8,5.5,5.6-1.1,8.3,1.7c2.7,1.2,5.4,2.2,8,2c1.3,0,2.6-1,4-1.3c0.8,2,1.6,2,2.5,2.3
		c0.9,1.9,1.8-2.2,2.7,2.1c0.9,2.2,1.9,2.4,3,1.8c1,0.9,2.1-1.1,3.2,1.5c1.1,1.8,2.3,2.4,3.5,2.4c1.2,0,2.5-0.4,3.8-0.7
		c1.2,2.3,2.4,0.1,3.6,2c1.2,2.1,2.4-1.5,3.6,1.3c1.6,1.4,3.2,2.1,4.7,1.5c1.5,4.2,2.9,6.9,4.3,2.1c0.9-1.7,1.9,0.3,2.8,1.5
		c1.9-0.2,3.8,1.6,5.6,2.5c1.8,0.9,3.6,1.8,5.3,2.7c1.7,3,3.4,0.7,5.1,3.2c1-0.5,2,3,3,2.2c0.5,0.1,1.1,0.4,1.8,0.8
		c0.7,0.5,1.4,1.5,2.2,2.3c0.8,1.3,1.6-1.1,2.3-0.2c0.8,2.9,1.5,2.6,2.1,2.8c0.6,2.2,1.1-3,1.7,1.9c0.9-0.5,1.9,0.2,2.9,1.7
		c1,0.6,2,1,3.1,0.7c1,2.8,2.1,3.1,3.2,2.6s2.2-1.9,3.3-2.4c1.1-0.9,2.2-1.4,3.3-1.5c1.1-0.1,2.2,0.1,3.2-0.3
		c2.1-1.1,4.2,1.4,6.1-3.6c1.9-0.2,3.7,0.6,5.3-5.1c1.6,2.2,2.9-1.1,4-6.5c1.1,0,1.8-5.1,2.2-7.6
		C655.2,339.1,655.2,342.9,654.8,336.5z"/>
	<path id="XMLID_8_" class="st12" d="M355.8,351c-0.4-7.8-0.6-1.1-0.7-5.4c0-2.7,0.1-0.2,0.5-5.8c0.4,2,0.9,2.1,1.6-6.2
		c0.7-17.3,1.6-8,2.6-6.4c1-7.8,2.2,0.7,3.6-6.5c1.3-0.3,2.8-2,4.5-6.5c1.6-0.9,3.4-10.2,5.3-6.4c1.9-6.9,3.9-9,6-6.2
		c2.1-7.1,4.3,1.6,6.7-5.9c2.3-7.1,4.7-6.9,7.3-5.5c2.5,2.9,5.1,3.7,7.8-4.9c2.7-8,5.4-2.9,8.2-4.3c2.8-0.7,5.7,1,8.6-3.5
		c2.9-5.6,5.9-3.3,8.9-2.6c0-2.3,0.2,2,0.5-0.2c0.3-1.7,0.8-1.9,1.5-0.5c0.7-4.4,1.5-6.8,2.5-0.8c1-2.2,2.1,1.4,3.4-1
		c1.3-2,2.7,2.6,4.3-1.1c1.6-0.3,3.3-1.5,5.1-1.2c1.9,1.7,3.8,5,6-1.2c2.1-3,4.4,2.5,6.7-1.2c2.4-3.5,4.9-0.1,7.5-1.1
		c2.6,2.9,5.3-0.1,8.2-0.9c2.8,3.7,5.8-4.4,8.8-0.6c3,0.4,6.2-0.6,9.4-0.3c3.2,0.3,6.6-1,10,0c3.4,2.4,7-0.8,10.6,0.4
		c3.6,0,7.3-1.1,11.1,0.9c3.8,4.1,7.6,2.4,11.5,1.5c3.9-2,7.9-0.2,12,2.1c4.1,3.1,8.2,1.8,12.4,2.8c4.2-1,8.4,1.7,12.7,3.5
		c4.3,3.8,8.6,2.9,13,4.3c4.4,1.9,8.8,0.9,13.3,5.2c4.5,2.2,9,3.9,13.5,6.2c0.8-0.4,2.1,1.2,3.8,2.1c1.7-0.5,3.8,4.8,6,3.7
		c2.3-0.5,4.7,3.8,7.2,4.8c2.5-4.1,5,1.8,7.3,5.3c2.4,1.4,4.5,8,6.4,5.2c1.9-1.5,3.4,2.4,4.5,4.6c2.6,10.3,4.5,8.4,5.9,9.8
		c1.4,5.5,2.3,4.6,2.7,9.3c0.4,6.4,0.4,2.6,0,8.6c-0.4,2.6-1.1,7.7-2.2,7.6c-1.1,5.3-2.4,8.7-4,6.5c-1.6,5.8-3.4,5-5.3,5.1
		c-1.9,4.9-4,2.4-6.1,3.6c-2.1,0.7-4.3-0.5-6.5,1.8c-2.2,0.9-4.4,5.4-6.4-0.2c-2.1,0.6-4.1-1.7-5.9-2.4c-2.2-2.5-4.5-5.4-6.7-4.3
		c-2.2-3-4.5-4.7-6.7-4.2c-2.2-4.2-4.5-6.2-6.8-4c-2.3-3.6-4.5-1-6.8-3.9c-2.3-2.4-4.6-5.4-6.9-3.7c-2.3-0.6-4.7-1.8-7-3.5
		c-2.4,0.5-4.8-2.8-7.2-3.2c-2.4-1.7-4.9,1.8-7.4-3c-2.5,4.3-5-2.5-7.6-2.7c-2.6-6.7-5.1-2.3-7.8-2.4c-2.6,0.2-5.3-0.9-8-2
		c-2.7-2.8-5.5,3.8-8.3-1.7c-2.8-1.1-5.7,0.8-8.6-1.3c-2.9,1-5.9-0.5-8.9-0.9c-3-2.2-6.1-2.2-9.3-0.4c-3.2,1.3-6.4-4.9-9.6,0
		c-3.3,0.6-6.6-1-10,0.5c-3.4,0.3-6.9-1.1-10.5,1c-3.6,0-7.2,0.7-10.9,1.5c-4.5,4.1-8.7-0.1-12.7,2.3c-2,0-3.9-0.6-5.7,0.4
		c-1.8-1.2-3.6,2.2-5.3,2.2c-1.7-0.3-3.4,3.1-4.9,0.8c-1.6-0.3-3.1,6.3-4.6,2.2c-1.5,0-2.9,0.2-4.3,5.7c-1.4,4.6-2.7,5.4-4-2.5
		c-1.3,0.5-2.5,5.6-3.7,5.6c-1.2,0.6-2.3-3.5-3.4-2.2c-1.1-2-2.2-0.5-3.2,2c-1,1.6-2,1.9-3,1.6c-1-1.6-1.9,2.6-2.8,0.6
		c-0.9-0.1-1.8,2.3-2.6,3.1c-0.8-4.9-1.7-1.5-2.5,0.2c-0.8,6.9-1.6,3.9-2.3,3.7c-0.8-1.3-1.5,1.5-2.2,2.8c-0.7-7.8-1.5,3.5-2.2,1.2
		c-0.7,1-1.4-1.4-2.1,3c-0.7,2.9-1.4,4-2.1,1.1c-0.7-2.9-1.4-0.5-2.1,0.1c-0.7-2.7-1.4-3.7-2.1,4.1c-1.3-0.8-2.5-1.3-3.6,0
		c-1.1,3.4-2.1,4.2-3.1,4.4c-0.9,4.4-1.8,4.1-2.6,3.3c-0.8-0.6-1.5-0.7-2.2-2.9c-1.2,3.7-2.3,1.4-3.4,0.3c-1.1-0.9-2.2-3.6-3.2-2.8
		c-1-1.6-2-4-2.9-5.5c-0.9-1.5-1.8-2.1-2.6,0c-1.6-15.9-2.9-2.2-4-6.6C357,355.4,356.2,360.9,355.8,351z"/>
	<path id="XMLID_57_" class="st12" d="M355.8,351c-0.4-7.8-0.6-1.1-0.7-5.4c0-2.7,0.1-0.2,0.5-5.8c0.4,2,0.9,2.1,1.6-6.2
		c0.7-17.3,1.6-8,2.6-6.4c1-7.8,2.2,0.7,3.6-6.5c1.3-0.3,2.8-2,4.5-6.5c1.6-0.9,3.4-10.2,5.3-6.4c1.9-6.9,3.9-9,6-6.2
		c2.1-7.1,4.3,1.6,6.7-5.9c2.3-7.1,4.7-6.9,7.3-5.5c2.5,2.9,5.1,3.7,7.8-4.9c2.7-8,5.4-2.9,8.2-4.3c2.8-0.7,5.7,1,8.6-3.5
		c2.9-5.6,5.9-3.3,8.9-2.6c0-2.3,0.2,2,0.5-0.2c0.3-1.7,0.8-1.9,1.5-0.5c0.7-4.4,1.5-6.8,2.5-0.8c1-2.2,2.1,1.4,3.4-1
		c1.3-2,2.7,2.6,4.3-1.1c1.6-0.3,3.3-1.5,5.1-1.2c1.9,1.7,3.8,5,6-1.2c2.1-3,4.4,2.5,6.7-1.2c2.4-3.5,4.9-0.1,7.5-1.1
		c2.6,2.9,5.3-0.1,8.2-0.9c2.8,3.7,5.8-4.4,8.8-0.6c3,0.4,6.2-0.6,9.4-0.3c3.2,0.3,6.6-1,10,0c3.4,2.4,7-0.8,10.6,0.4
		c3.6,0,7.3-1.1,11.1,0.9c3.8,4.1,7.6,2.4,11.5,1.5c3.9-2,7.9-0.2,12,2.1c4.1,3.1,8.2,1.8,12.4,2.8c4.2-1,8.4,1.7,12.7,3.5
		c4.3,3.8,8.6,2.9,13,4.3c4.4,1.9,8.8,0.9,13.3,5.2c4.5,2.2,9,3.9,13.5,6.2c0.8-0.4,2.1,1.2,3.8,2.1c1.7-0.5,3.8,4.8,6,3.7
		c2.3-0.5,4.7,3.8,7.2,4.8c2.5-4.1,5,1.8,7.3,5.3c2.4,1.4,4.5,8,6.4,5.2c1.9-1.5,3.4,2.4,4.5,4.6c2.6,10.3,4.5,8.4,5.9,9.8
		c1.4,5.5,2.3,4.6,2.7,9.3c0.4,6.4,0.4,2.6,0,8.6c-0.4,2.6-1.1,7.7-2.2,7.6c-1.1,5.3-2.4,8.7-4,6.5c-1.6,5.8-3.4,5-5.3,5.1
		c-1.9,4.9-4,2.4-6.1,3.6c-2.1,0.7-4.3-0.5-6.5,1.8c-2.2,0.9-4.4,5.4-6.4-0.2c-2.1,0.6-4.1-1.7-5.9-2.4c-2.2-2.5-4.5-5.4-6.7-4.3
		c-2.2-3-4.5-4.7-6.7-4.2c-2.2-4.2-4.5-6.2-6.8-4c-2.3-3.6-4.5-1-6.8-3.9c-2.3-2.4-4.6-5.4-6.9-3.7c-2.3-0.6-4.7-1.8-7-3.5
		c-2.4,0.5-4.8-2.8-7.2-3.2c-2.4-1.7-4.9,1.8-7.4-3c-2.5,4.3-5-2.5-7.6-2.7c-2.6-6.7-5.1-2.3-7.8-2.4c-2.6,0.2-5.3-0.9-8-2
		c-2.7-2.8-5.5,3.8-8.3-1.7c-2.8-1.1-5.7,0.8-8.6-1.3c-2.9,1-5.9-0.5-8.9-0.9c-3-2.2-6.1-2.2-9.3-0.4c-3.2,1.3-6.4-4.9-9.6,0
		c-3.3,0.6-6.6-1-10,0.5c-3.4,0.3-6.9-1.1-10.5,1c-3.6,0-7.2,0.7-10.9,1.5c-4.5,4.1-8.7-0.1-12.7,2.3c-2,0-3.9-0.6-5.7,0.4
		c-1.8-1.2-3.6,2.2-5.3,2.2c-1.7-0.3-3.4,3.1-4.9,0.8c-1.6-0.3-3.1,6.3-4.6,2.2c-1.5,0-2.9,0.2-4.3,5.7c-1.4,4.6-2.7,5.4-4-2.5
		c-1.3,0.5-2.5,5.6-3.7,5.6c-1.2,0.6-2.3-3.5-3.4-2.2c-1.1-2-2.2-0.5-3.2,2c-1,1.6-2,1.9-3,1.6c-1-1.6-1.9,2.6-2.8,0.6
		c-0.9-0.1-1.8,2.3-2.6,3.1c-0.8-4.9-1.7-1.5-2.5,0.2c-0.8,6.9-1.6,3.9-2.3,3.7c-0.8-1.3-1.5,1.5-2.2,2.8c-0.7-7.8-1.5,3.5-2.2,1.2
		c-0.7,1-1.4-1.4-2.1,3c-0.7,2.9-1.4,4-2.1,1.1c-0.7-2.9-1.4-0.5-2.1,0.1c-0.7-2.7-1.4-3.7-2.1,4.1c-1.3-0.8-2.5-1.3-3.6,0
		c-1.1,3.4-2.1,4.2-3.1,4.4c-0.9,4.4-1.8,4.1-2.6,3.3c-0.8-0.6-1.5-0.7-2.2-2.9c-1.2,3.7-2.3,1.4-3.4,0.3c-1.1-0.9-2.2-3.6-3.2-2.8
		c-1-1.6-2-4-2.9-5.5c-0.9-1.5-1.8-2.1-2.6,0c-1.6-15.9-2.9-2.2-4-6.6C357,355.4,356.2,360.9,355.8,351z"/>
	<g id="XMLID_33_">
		<circle id="XMLID_27_" class="st7" cx="461.7" cy="380.8" r="18.5"/>
		<path id="XMLID_34_" class="st1" d="M473.7,366.8c0.3,1.3,0.4,2.6,0.4,4c0,10.2-8.3,18.5-18.5,18.5c-4.6,0-8.8-1.7-12-4.5
			c1.8,8.3,9.2,14.5,18,14.5c10.2,0,18.5-8.3,18.5-18.5C480.2,375.2,477.7,370.2,473.7,366.8z"/>
		<circle id="XMLID_9_" class="st12" cx="461.7" cy="380.8" r="18.5"/>
		<path id="XMLID_36_" class="st13" d="M457.2,370.2c1.4-0.6,2.9-0.9,4.5-0.9"/>
		<path id="XMLID_31_" class="st13" d="M450.2,380.8c0-3.7,1.8-7,4.5-9.1"/>
	</g>
	<g id="XMLID_29_">
		<circle id="XMLID_25_" class="st7" cx="545.6" cy="380.8" r="18.5"/>
		<path id="XMLID_32_" class="st1" d="M557.7,366.8c0.3,1.3,0.4,2.6,0.4,4c0,10.2-8.3,18.5-18.5,18.5c-4.6,0-8.8-1.7-12-4.5
			c1.8,8.3,9.2,14.5,18,14.5c10.2,0,18.5-8.3,18.5-18.5C564.1,375.2,561.6,370.2,557.7,366.8z"/>
		<circle id="XMLID_15_" class="st12" cx="545.6" cy="380.8" r="18.5"/>
		<path id="XMLID_37_" class="st13" d="M541.1,370.2c1.4-0.6,2.9-0.9,4.5-0.9"/>
		<path id="XMLID_30_" class="st13" d="M534.1,380.8c0-3.7,1.8-7,4.5-9.1"/>
	</g>
	<g id="XMLID_24_">
		<circle id="XMLID_41_" class="st7" cx="499.2" cy="595.7" r="18.5"/>
		<path id="XMLID_40_" class="st1" d="M511.2,581.7c0.3,1.3,0.4,2.6,0.4,4c0,10.2-8.3,18.5-18.5,18.5c-4.6,0-8.8-1.7-12-4.5
			c1.8,8.3,9.2,14.5,18,14.5c10.2,0,18.5-8.3,18.5-18.5C517.7,590.1,515.1,585.1,511.2,581.7z"/>
		<circle id="XMLID_39_" class="st12" cx="499.2" cy="595.7" r="18.5"/>
		<path id="XMLID_38_" class="st13" d="M494.7,585.2c1.4-0.6,2.9-0.9,4.5-0.9"/>
		<path id="XMLID_35_" class="st13" d="M487.7,595.7c0-3.7,1.8-7,4.5-9.1"/>
	</g>
	<g id="XMLID_42_">
		<circle id="XMLID_47_" class="st7" cx="499.2" cy="666.1" r="18.5"/>
		<path id="XMLID_46_" class="st1" d="M511.2,652.1c0.3,1.3,0.4,2.6,0.4,4c0,10.2-8.3,18.5-18.5,18.5c-4.6,0-8.8-1.7-12-4.5
			c1.8,8.3,9.2,14.5,18,14.5c10.2,0,18.5-8.3,18.5-18.5C517.7,660.5,515.1,655.5,511.2,652.1z"/>
		<circle id="XMLID_45_" class="st12" cx="499.2" cy="666.1" r="18.5"/>
		<path id="XMLID_44_" class="st13" d="M494.7,655.6c1.4-0.6,2.9-0.9,4.5-0.9"/>
		<path id="XMLID_43_" class="st13" d="M487.7,666.1c0-3.7,1.8-7,4.5-9.1"/>
	</g>
	<g id="XMLID_49_">
		<circle id="XMLID_54_" class="st7" cx="499.2" cy="737.4" r="18.5"/>
		<path id="XMLID_53_" class="st1" d="M511.2,723.4c0.3,1.3,0.4,2.6,0.4,4c0,10.2-8.3,18.5-18.5,18.5c-4.6,0-8.8-1.7-12-4.5
			c1.8,8.3,9.2,14.5,18,14.5c10.2,0,18.5-8.3,18.5-18.5C517.7,731.8,515.1,726.8,511.2,723.4z"/>
		<circle id="XMLID_52_" class="st12" cx="499.2" cy="737.4" r="18.5"/>
		<path id="XMLID_51_" class="st13" d="M494.7,726.9c1.4-0.6,2.9-0.9,4.5-0.9"/>
		<path id="XMLID_50_" class="st13" d="M487.7,737.4c0-3.7,1.8-7,4.5-9.1"/>
	</g>
	<g id="XMLID_10_">
		<circle id="XMLID_28_" class="st14" cx="503.7" cy="427.9" r="19.5"/>
		<path id="XMLID_78_" class="st15" d="M507.4,408.8c2.3,3.2,3.7,7.1,3.7,11.4c0,10.8-8.7,19.5-19.5,19.5c-1.3,0-2.5-0.1-3.8-0.4
			c3.5,4.9,9.3,8.2,15.8,8.2c10.8,0,19.5-8.7,19.5-19.5C523.2,418.4,516.4,410.5,507.4,408.8z"/>
		<circle id="XMLID_11_" class="st12" cx="503.7" cy="427.9" r="19.5"/>
		<circle id="XMLID_16_" class="st11" cx="503.7" cy="427.9" r="7.8"/>
	</g>
	<circle id="XMLID_12_" class="st16" cx="472.8" cy="457.6" r="5.8"/>
	<circle id="XMLID_14_" class="st16" cx="485.8" cy="467.6" r="5.8"/>
	<circle id="XMLID_17_" class="st16" cx="503.7" cy="469.1" r="5.8"/>
	<circle id="XMLID_18_" class="st16" cx="519.6" cy="467.6" r="5.8"/>
	<circle id="XMLID_19_" class="st16" cx="534.5" cy="457.6" r="5.8"/>
	<path id="XMLID_62_" class="st7" d="M412.3,467.3c-9.8-2.8-20.2,2.6-22.8,11.8c-2.2,8-4.3,17.9-4.3,27.2
		c0,20.5,13.9,16.5,45.9,26.5c31,9.7,110.4,12.5,146.2-1.1c31.4-12,31.6-11.6,37.8-25.4c6.2-13.8,5-47.7-33.3-37.4
		C541.7,479.5,534.4,501.8,412.3,467.3z"/>
	<path id="XMLID_85_" class="st1" d="M600.3,467.4c0.6,6.5-0.7,13.1-2.7,17.6c-6.2,13.8-6.4,13.5-37.8,25.4
		c-35.7,13.6-115.1,10.8-146.2,1.1c-11.9-3.7-21.3-5.5-28.4-7.3c0,0.7-0.1,1.4-0.1,2c0,20.5,13.9,16.5,45.9,26.5
		c31,9.7,110.4,12.5,146.2-1.1c31.4-12,31.6-11.6,37.8-25.4C620.1,495.1,620.4,471.1,600.3,467.4z"/>
	<path id="XMLID_70_" class="st3" d="M448.1,474.9c2.1-0.5-25.2,35.6-12.4,58c12.4,2.4,15.4,3,15.5,3c-1.3,0.5,5.6-54,17-57.3
		C447.1,474.9,448.5,474.9,448.1,474.9z"/>
	<path id="XMLID_86_" class="st10" d="M451.2,535.8c-0.5,0.2,0.2-7.6,1.9-17.6c-7.4-0.7-14.4-1.5-20.7-2.5c-0.5,6,0.3,11.9,3.3,17.1
		C448.1,535.2,451.1,535.8,451.2,535.8z"/>
	<path id="XMLID_71_" class="st11" d="M448.1,474.9c2.1-0.5-25.2,35.6-12.4,58c12.4,2.4,15.4,3,15.5,3c-1.3,0.5,5.6-54,17-57.3
		C447.1,474.9,448.5,474.9,448.1,474.9z"/>
	<path id="XMLID_72_" class="st3" d="M503.8,482.6c0.9-0.6-2.7,11.7-5.9,22.8c-2.9,11.3-5.7,26.2-0.6,36.9
		c14.5,0.1,26.2-1.3,26.4-1.4c-0.9,0.2-0.2-7.5,1.5-22c2.4-14.4,1.8-29.9,6.9-33.1C508.7,487.4,504.2,482.5,503.8,482.6z"/>
	<path id="XMLID_87_" class="st10" d="M525.2,519c0.1-0.4,0.1-0.7,0.2-1.1c-9.6,1.1-19.9,1.7-30.3,1.8c-0.9,7.4-0.8,14.9,1.7,21.2
		c8.9,0.2,17.9,0.1,26.7-0.3C523,539,523.7,531.5,525.2,519z"/>
	<path id="XMLID_73_" class="st11" d="M503.8,482.6c0.9-0.6-2.7,11.7-5.9,22.8c-2.9,11.3-5.7,26.2-0.6,36.9
		c14.5,0.1,26.2-1.3,26.4-1.4c-0.9,0.2-0.2-7.5,1.5-22c2.4-14.4,1.8-29.9,6.9-33.1C508.7,487.4,504.2,482.5,503.8,482.6z"/>
	<path id="XMLID_76_" class="st3" d="M561.5,474.3c-0.1-0.8-2.3,6.2-1.2,18.4c-0.4,12.5,4,33.3,14.2,40.4c8.5-3.6,19-8.7,19.2-8.8
		c-0.9,0.4,0.7-7.1-2.2-22.1c-2.5-15.3-11.2-29.2-9.9-32.8C567.1,477,560.9,474.3,561.5,474.3z"/>
	<path id="XMLID_88_" class="st10" d="M591.5,502.2c-0.3-1.8-0.7-3.6-1.1-5.4c-4.3,3.7-11.5,6.4-28.3,12.8
		c2.1,9.4,6.1,18.7,12.2,23.2c1.1-0.4,2.1-0.7,3.2-1.1c0.8-0.3,1.5-0.6,2.2-0.8c7.1-3.2,14-6.5,14.1-6.6
		C592.8,524.7,594.4,517.2,591.5,502.2z"/>
	<path id="XMLID_75_" class="st11" d="M561.5,474.3c-0.1-0.8-3.2,12.1-1.1,24.2c2.8,16.5,7.7,32.2,14.1,34.6
		c8.5-3.6,19-8.7,19.2-8.8c-0.9,0.4,0.7-7.1-2.2-22.1c-2.5-15.3-11.2-29.2-9.9-32.8C567.1,477,560.9,474.3,561.5,474.3z"/>
	<path id="XMLID_20_" class="st6" d="M412.3,467.3c-9.8-2.8-20.2,2.6-22.8,11.8c-2.2,8-4.3,17.9-4.3,27.2
		c0,20.5,13.9,16.5,45.9,26.5c31,9.7,110.4,12.5,146.2-1.1c31.4-12,31.6-11.6,37.8-25.4c6.2-13.8,5-47.7-33.3-37.4
		C541.7,479.5,534.4,501.8,412.3,467.3z"/>
	<path id="XMLID_4_" class="st8" d="M373.5,622.6l-79.5-32.2l-47.5-61l-54.5,3.4l42-20.4l-38.3-39.1l-57.6-15.7l60.5-6.7l29.8,24.9
		l3.5-58.5c0,0,29.1,92.6,34,97.5C280.5,529.5,308,564,308,564s37.8,17.2,65.5,36.7V622.6z"/>
	<path id="XMLID_105_" class="st9" d="M308,564c0,0-27.5-34.4-42.2-49.2c-4.9-4.9-34-97.5-34-97.5l-3.5,58.5l-29.8-24.9l-8.6,1
		l38.5,38.3c3.4,3.4,9.1,2.7,11.6-1.4h0l15.7,31.2l46.5,57.2l71.2,37v-13.5C345.8,581.2,308,564,308,564z"/>
	<path id="XMLID_26_" class="st6" d="M373.5,622.6l-79.5-32.2l-47.5-61l-54.5,3.4l42-20.4l-38.3-39.1l-57.6-15.7l60.5-6.7l29.8,24.9
		l3.5-58.5c0,0,29.1,92.6,34,97.5C280.5,529.5,308,564,308,564s37.8,17.2,65.5,36.7l2,3.6C378.9,610.2,378.1,617.6,373.5,622.6
		L373.5,622.6z"/>
	<path id="XMLID_56_" class="st3" d="M650.4,131.1c0,1.7,0,3.1-0.1,7c0,0.2-0.1,2.4-0.2,2.5c-0.1-3.5-0.4-1-0.6-2
		c-0.1,5-0.3,1.1-0.5,1.4c-0.2,3.8-0.4,0.5-0.6,3.2c-0.4,0.9-0.9,5.1-1.4,2.2c-0.5,3-1.1,3.1-1.8,4c-0.6,1.1-1.3,1.8-2.1,2
		c-1.5-0.9-3.2,5.9-5,5c-1.9,3.5-3.9-4.3-6,3.8c-2.2-0.5-4.4,1.1-6.8,2.4c-2.4-2.6-4.9,0.6-7.4,0.9c-2.6-0.9-5.1,1.2-7.4-0.9
		c-2.4-4.4-4.7-0.1-6.8-2.4c-2.2,7.2-4.2,0.8-6-3.8c-1.9-0.9-3.5,6.6-5-5c-1.5-3.9-2.8-0.8-3.8-6c-0.5,1.9-1-1.1-1.4-4
		c-0.4-4.5-0.8-4.7-1-2.8c-0.3-2.3-0.5-1.9-0.6-4.3c-0.1-7.3-0.2-2.4-0.2-3.1c0,1.1,0.1,1.2,0.2-0.4c0.1-5.2,0.4-3.2,0.6-7
		c0.3,1.8,0.6-2.7,1-3.2c0.4,1.2,0.9-3,1.4-3.7c0.5-2.3,1.1-0.8,1.8-3.6c0.6-3.7,1.3-3.2,2.1-2.4c0.7,2,1.5-1.7,2.4-3.1
		c0.8-1.9,1.7-2.7,2.6-1.9c1.9,0.7,3.9-6.8,6-3.8c2.2,2.6,4.4-4.9,6.8-2.4c2.4-3.4,4.9-5.8,7.4-0.9c2.6-2.6,5.1,0,7.4,0.9
		c2.4,7.4,4.7,3.6,6.8,2.4c2.2-1.4,4.2,1.7,6,3.8c1.9,5.8,3.5,3.2,5,5c0.4-0.4,0.7,0,1.1,0.7c0.3,0.8,0.7,0.4,1,3.1
		c0.3-2.1,0.6,5.5,0.9,3c0.3,4.3,0.6-3.5,0.8-0.8c0.5,0,1-2.5,1.4,2.1c0.2,0.4,0.4-1.8,0.6,1.2c0.2,8.2,0.3,0,0.5,3.5
		c0.1,2,0.3,7,0.4,3.3c0.1,3.3,0.2,2.7,0.3,1.3C650.3,136.8,650.4,130.5,650.4,131.1z"/>
	<path id="XMLID_58_" class="st3" d="M650.4,131.1c0,1.7,0,3.1-0.1,7c0,0.2-0.1,2.4-0.2,2.5c-0.1-3.5-0.4-1-0.6-2
		c-0.1,5-0.3,1.1-0.5,1.4c-0.2,3.8-0.4,0.5-0.6,3.2c-0.4,0.9-0.9,5.1-1.4,2.2c-0.5,3-1.1,3.1-1.8,4c-0.6,1.1-1.3,1.8-2.1,2
		c-1.5-0.9-3.2,5.9-5,5c-1.9,3.5-3.9-4.3-6,3.8c-2.2-0.5-4.4,1.1-6.8,2.4c-2.4-2.6-4.9,0.6-7.4,0.9c-2.6-0.9-5.1,1.2-7.4-0.9
		c-2.4-4.4-4.7-0.1-6.8-2.4c-2.2,7.2-4.2,0.8-6-3.8c-1.9-0.9-3.5,6.6-5-5c-1.5-3.9-2.8-0.8-3.8-6c-0.5,1.9-1-1.1-1.4-4
		c-0.4-4.5-0.8-4.7-1-2.8c-0.3-2.3-0.5-1.9-0.6-4.3c-0.1-7.3-0.2-2.4-0.2-3.1c0,1.1,0.1,1.2,0.2-0.4c0.1-5.2,0.4-3.2,0.6-7
		c0.3,1.8,0.6-2.7,1-3.2c0.4,1.2,0.9-3,1.4-3.7c0.5-2.3,1.1-0.8,1.8-3.6c0.6-3.7,1.3-3.2,2.1-2.4c0.7,2,1.5-1.7,2.4-3.1
		c0.8-1.9,1.7-2.7,2.6-1.9c1.9,0.7,3.9-6.8,6-3.8c2.2,2.6,4.4-4.9,6.8-2.4c2.4-3.4,4.9-5.8,7.4-0.9c2.6-2.6,5.1,0,7.4,0.9
		c2.4,7.4,4.7,3.6,6.8,2.4c2.2-1.4,4.2,1.7,6,3.8c1.9,5.8,3.5,3.2,5,5c0.4-0.4,0.7,0,1.1,0.7c0.3,0.8,0.7,0.4,1,3.1
		c0.3-2.1,0.6,5.5,0.9,3c0.3,4.3,0.6-3.5,0.8-0.8c0.5,0,1-2.5,1.4,2.1c0.2,0.4,0.4-1.8,0.6,1.2c0.2,8.2,0.3,0,0.5,3.5
		c0.1,2,0.3,7,0.4,3.3c0.1,3.3,0.2,2.7,0.3,1.3C650.3,136.8,650.4,130.5,650.4,131.1z"/>
	<path id="XMLID_63_" class="st4" d="M650.2,128.3c-0.1,1.4-0.2,2-0.3-1.3c-0.1,3.7-0.2-1.4-0.4-3.3c-0.1-3.5-0.3,4.7-0.5-3.5
		c-0.2-3-0.4-0.8-0.6-1.2c-0.4-4.6-0.9-2.1-1.4-2.1c-0.3-2.7-0.5,5-0.8,0.8c-0.3,2.5-0.6-5.1-0.9-3c-0.3-2.6-0.7-2.3-1-3.1
		c-0.3-0.8-0.7-1.2-1.1-0.7c-1.5-1.9-3.2,0.8-5-5c-1.8-2.1-3.8-5.1-5.9-3.9c0.2,6.8,0.3-0.7,0.5,2.7c0.1,2,0.3,7,0.4,3.3
		c0.1,3.3,0.2,2.7,0.3,1.3c0.1,8.5,0.2,2.2,0.2,2.8c0,1.7,0,3.1-0.1,7c0,0.2-0.1,2.4-0.2,2.5c-0.1-3.5-0.4-1-0.6-2
		c-0.1,5-0.3,1.1-0.5,1.4c-0.2,3.8-0.4,0.5-0.6,3.2c-0.4,0.9-0.9,5.1-1.4,2.2c-0.5,3-1.1,3.1-1.8,4c-0.6,1.1-1.3,1.8-2.1,2
		c-1.5-0.9-3.2,5.9-5,5c-1.9,3.5-3.9-4.3-6,3.8c-2.2-0.5-4.4,1.1-6.8,2.4c-2.4-2.6-4.9,0.6-7.4,0.9c-2.6-0.9-5.1,1.2-7.4-0.9
		c-2.2-4-4.3-0.8-6.3-2c0.4,2.8,0.9,5.6,1.4,3.8c1.1,5.2,2.3,2.1,3.8,6c1.5,11.6,3.2,4.1,5,5c1.9,4.6,3.9,11.1,6,3.8
		c2.2,2.3,4.4-2,6.8,2.4c2.4,2.1,4.9-0.1,7.4,0.9c2.6-0.3,5.1-3.4,7.4-0.9c2.4-1.3,4.7-2.9,6.8-2.4c2.2-8.1,4.2-0.3,6-3.8
		c1.9,0.9,3.5-5.9,5-5c0.7-0.2,1.4-1,2.1-2c0.6-0.9,1.2-1,1.8-4c0.5,2.9,1-1.3,1.4-2.2c0.2-2.8,0.4,0.6,0.6-3.2
		c0.2-0.3,0.3,3.6,0.5-1.4c0.3,1,0.5-1.4,0.6,2c0.1,0,0.1-2.2,0.2-2.5c0-3.9,0.1-5.3,0.1-7C650.4,130.5,650.3,136.8,650.2,128.3z"/>
	<path id="XMLID_83_" class="st12" d="M650.4,131.1c0,1.7,0,3.1-0.1,7c0,0.2-0.1,2.4-0.2,2.5c-0.1-3.5-0.4-1-0.6-2
		c-0.1,5-0.3,1.1-0.5,1.4c-0.2,3.8-0.4,0.5-0.6,3.2c-0.4,0.9-0.9,5.1-1.4,2.2c-0.5,3-1.1,3.1-1.8,4c-0.6,1.1-1.3,1.8-2.1,2
		c-1.5-0.9-3.2,5.9-5,5c-1.9,3.5-3.9-4.3-6,3.8c-2.2-0.5-4.4,1.1-6.8,2.4c-2.4-2.6-4.9,0.6-7.4,0.9c-2.6-0.9-5.1,1.2-7.4-0.9
		c-2.4-4.4-4.7-0.1-6.8-2.4c-2.2,7.2-4.2,0.8-6-3.8c-1.9-0.9-3.5,6.6-5-5c-1.5-3.9-2.8-0.8-3.8-6c-0.5,1.9-1-1.1-1.4-4
		c-0.4-4.5-0.8-4.7-1-2.8c-0.3-2.3-0.5-1.9-0.6-4.3c-0.1-7.3-0.2-2.4-0.2-3.1c0,1.1,0.1,1.2,0.2-0.4c0.1-5.2,0.4-3.2,0.6-7
		c0.3,1.8,0.6-2.7,1-3.2c0.4,1.2,0.9-3,1.4-3.7c0.5-2.3,1.1-0.8,1.8-3.6c0.6-3.7,1.3-3.2,2.1-2.4c0.7,2,1.5-1.7,2.4-3.1
		c0.8-1.9,1.7-2.7,2.6-1.9c1.9,0.7,3.9-6.8,6-3.8c2.2,2.6,4.4-4.9,6.8-2.4c2.4-3.4,4.9-5.8,7.4-0.9c2.6-2.6,5.1,0,7.4,0.9
		c2.4,7.4,4.7,3.6,6.8,2.4c2.2-1.4,4.2,1.7,6,3.8c1.9,5.8,3.5,3.2,5,5c0.4-0.4,0.7,0,1.1,0.7c0.3,0.8,0.7,0.4,1,3.1
		c0.3-2.1,0.6,5.5,0.9,3c0.3,4.3,0.6-3.5,0.8-0.8c0.5,0,1-2.5,1.4,2.1c0.2,0.4,0.4-1.8,0.6,1.2c0.2,8.2,0.3,0,0.5,3.5
		c0.1,2,0.3,7,0.4,3.3c0.1,3.3,0.2,2.7,0.3,1.3C650.3,136.8,650.4,130.5,650.4,131.1z"/>
	<path id="XMLID_91_" class="st4" d="M606.8,735.2c0,0.6-0.2,1.1-0.5,2.4c-0.2,1-0.3,1.2-0.6,1.1c-0.2-1.1-0.5,2.9-0.8,3.1
		c-0.1,0.6-0.3,2.4-0.4,3.2c-0.2,0.8-0.3,1.4-0.5,1.8c-0.3,0.7-0.7,0.7-1.1,0.2c-0.8-1.4-1.7-2.8-2.6-0.5c-1-1.2-2-0.3-3.1,2.6
		c-1.1,0.1-2.3,1.6-3.5-0.8c-1.2,0.3-2.4,0.6-3.5,1c-1.1-0.9-2.1-1.5-3.1-2.8c-1,1.5-1.9,2.4-2.6-0.6c-0.4,0.1-0.8-0.2-1.1-0.8
		c-0.3-0.8-0.7-1.2-0.9-3.2c-0.6,1.8-1-1.8-1.3-3.4c-0.3-0.6-0.5-2.2-0.5-3.1c0-0.5,0.2-2.4,0.5-3.7c0.3-1.7,0.7-2.8,1.3-2.9
		c0.6-2.6,1.3-3.5,2-3.1c0.8-1.5,1.7,3.2,2.6-1.6c1,0.8,2,0.6,3.1-0.6c0.6-0.4,1.1-2.4,1.7-1.9c0.6,0.5,1.2-0.6,1.8,0.7
		c0.6,0.6,1.2-1.2,1.8-1.2c0.6-0.9,1.1,4.4,1.7,2.8c1.1,1,2.1,3,3.1,0.3c0.5,0.9,0.9-0.4,1.4,1.4c0.4-0.6,0.9-1,1.3,4.3
		c0.4,0.8,0.8,2.1,1.1,2.7c0.3-1.3,0.7-0.2,0.9-3.7c0.6,3.3,1,5,1.3,3.7C606.6,733.5,606.8,733.2,606.8,735.2z"/>
	<path id="XMLID_107_" class="st0" d="M593.7,731.5c0-2.2-0.8,5.1-2.1,5.7c-1.3,4.2-3.1,3.5-5,2.4c-2,0.4-3.7-0.1-5-2.4
		c-1.3-4.8-2.1-1.4-2.1-5.7c0-0.4,0.8-5.9,2.1-5.7c1.3-3.1,3.1-2.4,5-2.4c2-0.9,3.7,2.4,5,2.4C592.9,727.1,593.7,727,593.7,731.5z"
		/>
	<path id="XMLID_93_" class="st11" d="M606.8,735.2c0,0.6-0.2,1.1-0.5,2.4c-0.2,1-0.3,1.2-0.6,1.1c-0.2-1.1-0.5,2.9-0.8,3.1
		c-0.1,0.6-0.3,2.4-0.4,3.2c-0.2,0.8-0.3,1.4-0.5,1.8c-0.3,0.7-0.7,0.7-1.1,0.2c-0.8-1.4-1.7-2.8-2.6-0.5c-1-1.2-2-0.3-3.1,2.6
		c-1.1,0.1-2.3,1.6-3.5-0.8c-1.2,0.3-2.4,0.6-3.5,1c-1.1-0.9-2.1-1.5-3.1-2.8c-1,1.5-1.9,2.4-2.6-0.6c-0.4,0.1-0.8-0.2-1.1-0.8
		c-0.3-0.8-0.7-1.2-0.9-3.2c-0.6,1.8-1-1.8-1.3-3.4c-0.3-0.6-0.5-2.2-0.5-3.1c0-0.5,0.2-2.4,0.5-3.7c0.3-1.7,0.7-2.8,1.3-2.9
		c0.6-2.6,1.3-3.5,2-3.1c0.8-1.5,1.7,3.2,2.6-1.6c1,0.8,2,0.6,3.1-0.6c0.6-0.4,1.1-2.4,1.7-1.9c0.6,0.5,1.2-0.6,1.8,0.7
		c0.6,0.6,1.2-1.2,1.8-1.2c0.6-0.9,1.1,4.4,1.7,2.8c1.1,1,2.1,3,3.1,0.3c0.5,0.9,0.9-0.4,1.4,1.4c0.4-0.6,0.9-1,1.3,4.3
		c0.4,0.8,0.8,2.1,1.1,2.7c0.3-1.3,0.7-0.2,0.9-3.7c0.6,3.3,1,5,1.3,3.7C606.6,733.5,606.8,733.2,606.8,735.2z"/>
	<path id="XMLID_94_" class="st4" d="M643.3,737.4c0,0.6-0.2,1.1-0.5,2.4c-0.2,1-0.3,1.2-0.6,1.1c-0.2-1.1-0.5,2.9-0.8,3.1
		c-0.1,0.6-0.3,2.4-0.4,3.2c-0.2,0.8-0.3,1.4-0.5,1.8c-0.3,0.7-0.7,0.7-1.1,0.2c-0.8-1.4-1.7-2.8-2.6-0.5c-1-1.2-2-0.3-3.1,2.6
		c-1.1,0.1-2.3,1.6-3.5-0.8c-1.2,0.3-2.4,0.6-3.5,1c-1.1-0.9-2.1-1.5-3.1-2.8c-1,1.5-1.9,2.4-2.6-0.6c-0.4,0.1-0.8-0.2-1.1-0.8
		c-0.3-0.8-0.7-1.2-0.9-3.2c-0.6,1.8-1-1.8-1.3-3.4c-0.3-0.6-0.5-2.2-0.5-3.1c0-0.5,0.2-2.4,0.5-3.7c0.3-1.7,0.7-2.8,1.3-2.9
		c0.6-2.6,1.3-3.5,2-3.1c0.8-1.5,1.7,3.2,2.6-1.6c1,0.8,2,0.6,3.1-0.6c0.6-0.4,1.1-2.4,1.7-1.9c0.6,0.5,1.2-0.6,1.8,0.7
		c0.6,0.6,1.2-1.2,1.8-1.2c0.6-0.9,1.1,4.4,1.7,2.8c1.1,1,2.1,3,3.1,0.3c0.5,0.9,0.9-0.4,1.4,1.4c0.4-0.6,0.9-1,1.3,4.3
		c0.4,0.8,0.8,2.1,1.1,2.7c0.3-1.3,0.7-0.2,0.9-3.7c0.6,3.3,1,5,1.3,3.7C643.1,735.7,643.3,735.4,643.3,737.4z"/>
	<path id="XMLID_109_" class="st0" d="M631.4,735.2c0,5.5-0.2,5.1-0.6,5.6c-0.4-0.1-0.9-1.1-1.5,0.1c-0.6-0.2-1.4,0.8-2.3-1
		c-0.8-0.5-1.8-0.1-2.8,3.4c-1,0.8-1.9,2.3-2.8,1c-0.8,1.4-1.6-4.4-2.3-3.4c-0.6,3.2-1.2,0.4-1.5-1.2c-0.4-4.2-0.6-6.4-0.6-4.6
		c0-2,0.2-2.4,0.6-4c0.4-1.8,0.9-0.6,1.5-1.8c0.6-0.2,1.4,0.1,2.3-0.8c0.8,0.3,1.8,0.1,2.8-1.5c1,0.1,1.9-1.6,2.8-0.4
		c0.8,0,1.6-0.1,2.3,2.8c0.6-0.1,1.2-0.1,1.5,2C631.2,734,631.4,733.8,631.4,735.2z"/>
	<path id="XMLID_95_" class="st11" d="M643.3,737.4c0,0.6-0.2,1.1-0.5,2.4c-0.2,1-0.3,1.2-0.6,1.1c-0.2-1.1-0.5,2.9-0.8,3.1
		c-0.1,0.6-0.3,2.4-0.4,3.2c-0.2,0.8-0.3,1.4-0.5,1.8c-0.3,0.7-0.7,0.7-1.1,0.2c-0.8-1.4-1.7-2.8-2.6-0.5c-1-1.2-2-0.3-3.1,2.6
		c-1.1,0.1-2.3,1.6-3.5-0.8c-1.2,0.3-2.4,0.6-3.5,1c-1.1-0.9-2.1-1.5-3.1-2.8c-1,1.5-1.9,2.4-2.6-0.6c-0.4,0.1-0.8-0.2-1.1-0.8
		c-0.3-0.8-0.7-1.2-0.9-3.2c-0.6,1.8-1-1.8-1.3-3.4c-0.3-0.6-0.5-2.2-0.5-3.1c0-0.5,0.2-2.4,0.5-3.7c0.3-1.7,0.7-2.8,1.3-2.9
		c0.6-2.6,1.3-3.5,2-3.1c0.8-1.5,1.7,3.2,2.6-1.6c1,0.8,2,0.6,3.1-0.6c0.6-0.4,1.1-2.4,1.7-1.9c0.6,0.5,1.2-0.6,1.8,0.7
		c0.6,0.6,1.2-1.2,1.8-1.2c0.6-0.9,1.1,4.4,1.7,2.8c1.1,1,2.1,3,3.1,0.3c0.5,0.9,0.9-0.4,1.4,1.4c0.4-0.6,0.9-1,1.3,4.3
		c0.4,0.8,0.8,2.1,1.1,2.7c0.3-1.3,0.7-0.2,0.9-3.7c0.6,3.3,1,5,1.3,3.7C643.1,735.7,643.3,735.4,643.3,737.4z"/>
	<path id="XMLID_96_" class="st4" d="M677.2,732.9c0,0.6-0.2,1.1-0.5,2.4c-0.2,1-0.3,1.2-0.6,1.1c-0.2-1.1-0.5,2.9-0.8,3.1
		c-0.1,0.6-0.3,2.4-0.4,3.2c-0.2,0.8-0.3,1.4-0.5,1.8c-0.3,0.7-0.7,0.7-1.1,0.2c-0.8-1.4-1.7-2.8-2.6-0.5c-1-1.2-2-0.3-3.1,2.6
		c-1.1,0.1-2.3,1.6-3.5-0.8c-1.2,0.3-2.4,0.6-3.5,1c-1.1-0.9-2.1-1.5-3.1-2.8c-1,1.5-1.9,2.4-2.6-0.6c-0.4,0.1-0.8-0.2-1.1-0.8
		c-0.3-0.8-0.7-1.2-0.9-3.2c-0.6,1.8-1-1.8-1.3-3.4c-0.3-0.6-0.5-2.2-0.5-3.1c0-0.5,0.2-2.4,0.5-3.7c0.3-1.7,0.7-2.8,1.3-2.9
		c0.6-2.6,1.3-3.5,2-3.1c0.8-1.5,1.7,3.2,2.6-1.6c1,0.8,2,0.6,3.1-0.6c0.6-0.4,1.1-2.4,1.7-1.9c0.6,0.5,1.2-0.6,1.8,0.7
		c0.6,0.6,1.2-1.2,1.8-1.2c0.6-0.9,1.1,4.4,1.7,2.8c1.1,1,2.1,3,3.1,0.3c0.5,0.9,0.9-0.4,1.4,1.4c0.4-0.6,0.9-1,1.3,4.3
		c0.4,0.8,0.8,2.1,1.1,2.7c0.3-1.3,0.7-0.2,0.9-3.7c0.6,3.3,1,5,1.3,3.7C677,731.2,677.2,730.9,677.2,732.9z"/>
	<path id="XMLID_110_" class="st0" d="M665.5,732.9c0-3.2-0.8-0.2-2.1,5.7c-1.3-0.5-3.1,1.3-5,2.4c-2-2.3-3.7-3.1-5-2.4
		c-1.3-1.8-2.1-5.9-2.1-5.7c0-2,0.8-6.7,2.1-5.7c1.3-3.4,3.1-2.7,5-2.4c2-2.8,3.7,1,5,2.4C664.7,727.5,665.5,725.6,665.5,732.9z"/>
	<path id="XMLID_108_" class="st11" d="M677.2,732.9c0,0.6-0.2,1.1-0.5,2.4c-0.2,1-0.3,1.2-0.6,1.1c-0.2-1.1-0.5,2.9-0.8,3.1
		c-0.1,0.6-0.3,2.4-0.4,3.2c-0.2,0.8-0.3,1.4-0.5,1.8c-0.3,0.7-0.7,0.7-1.1,0.2c-0.8-1.4-1.7-2.8-2.6-0.5c-1-1.2-2-0.3-3.1,2.6
		c-1.1,0.1-2.3,1.6-3.5-0.8c-1.2,0.3-2.4,0.6-3.5,1c-1.1-0.9-2.1-1.5-3.1-2.8c-1,1.5-1.9,2.4-2.6-0.6c-0.4,0.1-0.8-0.2-1.1-0.8
		c-0.3-0.8-0.7-1.2-0.9-3.2c-0.6,1.8-1-1.8-1.3-3.4c-0.3-0.6-0.5-2.2-0.5-3.1c0-0.5,0.2-2.4,0.5-3.7c0.3-1.7,0.7-2.8,1.3-2.9
		c0.6-2.6,1.3-3.5,2-3.1c0.8-1.5,1.7,3.2,2.6-1.6c1,0.8,2,0.6,3.1-0.6c0.6-0.4,1.1-2.4,1.7-1.9c0.6,0.5,1.2-0.6,1.8,0.7
		c0.6,0.6,1.2-1.2,1.8-1.2c0.6-0.9,1.1,4.4,1.7,2.8c1.1,1,2.1,3,3.1,0.3c0.5,0.9,0.9-0.4,1.4,1.4c0.4-0.6,0.9-1,1.3,4.3
		c0.4,0.8,0.8,2.1,1.1,2.7c0.3-1.3,0.7-0.2,0.9-3.7c0.6,3.3,1,5,1.3,3.7C677,731.2,677.2,730.9,677.2,732.9z"/>
</g>
</svg>
