<?xml version="1.0" encoding="utf-8"?>
<!-- Generator: Adobe Illustrator 23.1.1, SVG Export Plug-In . SVG Version: 6.00 Build 0)  -->
<svg version="1.1" id="Layer_1" xmlns="http://www.w3.org/2000/svg" xmlns:xlink="http://www.w3.org/1999/xlink" x="0px" y="0px"
	 viewBox="0 0 1000 1000" style="enable-background:new 0 0 1000 1000;" xml:space="preserve">
<style type="text/css">
	.st0{fill:#5A5E63;}
	.st1{fill:#EEF2F4;}
	.st2{opacity:0.28;}
	.st3{fill:none;stroke:#434955;stroke-width:8;stroke-linecap:round;stroke-linejoin:round;stroke-miterlimit:10;}
	.st4{fill:#71777C;}
	.st5{fill:#7D9D6B;}
	.st6{fill:#6E8F5D;}
	.st7{opacity:0.5;fill:none;stroke:#FFFFFF;stroke-width:14;stroke-linecap:round;stroke-linejoin:round;stroke-miterlimit:10;}
	.st8{fill:none;stroke:#246D49;stroke-width:8;stroke-linecap:round;stroke-linejoin:round;stroke-miterlimit:10;}
	.st9{fill:#F2A356;}
	.st10{fill:#D6954B;}
	.st11{fill:#806940;}
	.st12{opacity:0.3;fill:#806940;}
	.st13{fill:#FCFFFA;}
	.st14{fill:#CE7657;}
	.st15{opacity:0.13;fill:none;stroke:#434955;stroke-width:2;stroke-linecap:round;stroke-linejoin:round;stroke-miterlimit:10;}
	.st16{fill:#97B8A3;}
	.st17{fill:#FFEEEE;}
	.st18{fill:#434955;}
</style>
<rect id="XMLID_82_" class="st0" width="1000" height="1000"/>
<g>
	<g>
		<g>
			<path class="st1" d="M63.2,959.2c0,2.5-1.2,3.7-2.6,3.7c-1.1,0-1.9-0.5-2.1-1.4c-0.4,0.5-1,0.8-1.8,0.8c-1.5,0-2.6-1.2-2.6-2.8
				c0-1.6,1.1-2.8,2.6-2.8c0.7,0,1.2,0.3,1.6,0.7v-0.5h1.6v3.9c0,0.8,0.3,1.4,1,1.4c0.9,0,1.7-0.9,1.7-3c0-3-2.3-5.3-5.4-5.3
				c-3.1,0-5.6,2.4-5.6,5.7c0,3.3,2.5,5.7,5.9,5.7c1.1,0,2.1-0.2,2.9-0.4v0.6c-0.8,0.3-1.7,0.4-2.9,0.4c-3.7,0-6.5-2.6-6.5-6.2
				c0-3.4,2.7-6.2,6.2-6.2C61.1,953.3,63.2,956.4,63.2,959.2z M58.3,959.5c0-0.8-0.6-1.4-1.3-1.4c-0.8,0-1.3,0.5-1.3,1.4
				c0,0.8,0.6,1.3,1.3,1.3C57.8,960.9,58.3,960.3,58.3,959.5z"/>
		</g>
		<g>
			<path class="st1" d="M69.4,955.1v2c-1.2-0.1-2.6,0.5-2.6,2.4v4.3h-1.9v-8.6h1.9v1.4C67.3,955.5,68.3,955.1,69.4,955.1z"/>
		</g>
		<g>
			<path class="st1" d="M74.6,962.3c1,0,1.8-0.5,2.2-1.1l1.5,0.9c-0.8,1.2-2.1,1.9-3.8,1.9c-2.8,0-4.7-1.9-4.7-4.5
				c0-2.5,1.8-4.5,4.5-4.5c2.6,0,4.3,2.1,4.3,4.5c0,0.3,0,0.5-0.1,0.8h-6.8C72.1,961.6,73.2,962.3,74.6,962.3z M76.9,958.8
				c-0.3-1.5-1.3-2.1-2.5-2.1c-1.4,0-2.3,0.8-2.6,2.1H76.9z"/>
		</g>
		<g>
			<path class="st1" d="M88.9,955.2v8.6h-1.9v-1.2c-0.7,0.9-1.7,1.5-3,1.5c-2.3,0-4.3-2-4.3-4.5c0-2.6,1.9-4.5,4.3-4.5
				c1.3,0,2.3,0.5,3,1.4v-1.2H88.9z M87.1,959.5c0-1.6-1.2-2.7-2.7-2.7c-1.5,0-2.7,1.1-2.7,2.7c0,1.6,1.2,2.7,2.7,2.7
				C85.9,962.3,87.1,961.1,87.1,959.5z"/>
		</g>
		<g>
			<path class="st1" d="M91.1,951.3H93v12.5h-1.9V951.3z"/>
		</g>
		<g>
			<path class="st1" d="M102.9,955.2l-3.3,8.6h-2.1l-3.3-8.6h2l2.4,6.5l2.4-6.5H102.9z"/>
		</g>
		<g>
			<path class="st1" d="M104.2,955.2h1.9v8.9c0,2.4-1.2,3.5-3.5,3.3v-1.8c1.1,0.1,1.7-0.3,1.7-1.5V955.2z M104,952.8
				c0-0.7,0.5-1.2,1.2-1.2c0.7,0,1.2,0.5,1.2,1.2c0,0.6-0.5,1.2-1.2,1.2C104.5,954,104,953.4,104,952.8z"/>
		</g>
		<g>
			<path class="st1" d="M116,955.2l-3.3,8.8c-0.8,2.2-2.2,3.3-4.2,3.2v-1.7c1.2,0.1,1.9-0.5,2.3-1.7l0.1-0.2l-3.6-8.4h2l2.6,6.2
				l2.2-6.2H116z"/>
		</g>
	</g>
	<g>
		<path class="st1" d="M211.9,938.7c0,2.1-1.5,3.8-3.6,3.8h-3v-7.6h3C210.4,934.9,211.9,936.6,211.9,938.7z M210.9,938.7
			c0-1.6-1.1-2.9-2.6-2.9h-2v5.7h2C209.8,941.6,210.9,940.3,210.9,938.7z"/>
		<path class="st1" d="M219.5,940.8h-3.4l-0.6,1.7h-1.1l2.8-7.6h1.1l2.8,7.6h-1.1L219.5,940.8z M219.2,939.9l-1.4-3.8l-1.4,3.8
			H219.2z"/>
		<path class="st1" d="M226.4,939.4v3.1h-1v-3.1l-2.7-4.5h1.1l2.1,3.6l2.1-3.6h1.1L226.4,939.4z"/>
		<path class="st1" d="M241.6,938.8L241.6,938.8l-2.5,3.7H238l1.8-2.7c-0.1,0-0.2,0-0.4,0c-1.5,0-2.6-1-2.6-2.6
			c0-1.5,1.1-2.6,2.6-2.6s2.6,1,2.6,2.6C242.1,937.9,241.9,938.4,241.6,938.8z M239.4,938.9c1,0,1.6-0.6,1.6-1.6s-0.7-1.6-1.6-1.6
			s-1.6,0.6-1.6,1.6C237.8,938.3,238.5,938.9,239.4,938.9z"/>
		<path class="st1" d="M249.5,934.9v0.9l-2.8,6.7h-1.1l2.8-6.7h-3.7v-1H249.5z"/>
	</g>
	<g>
		<path class="st1" d="M58.9,938.7c0,2.1-1.5,3.8-3.6,3.8h-3v-7.6h3C57.4,934.9,58.9,936.6,58.9,938.7z M57.9,938.7
			c0-1.6-1.1-2.9-2.6-2.9h-2v5.7h2C56.8,941.6,57.9,940.3,57.9,938.7z"/>
		<path class="st1" d="M67,941.6v1h-4.6v-7.6h4.5v1h-3.5v2.3h3.2v0.9h-3.2v2.4H67z"/>
		<path class="st1" d="M70,940.8l0.9-0.5c0.3,0.8,0.9,1.4,2,1.4c1.1,0,1.6-0.5,1.6-1.2c0-0.8-0.7-1-1.8-1.4
			c-1.2-0.4-2.4-0.8-2.4-2.2c0-1.4,1.1-2.2,2.4-2.2c1.3,0,2.2,0.7,2.6,1.7l-0.8,0.5c-0.3-0.7-0.8-1.2-1.7-1.2
			c-0.8,0-1.4,0.4-1.4,1.1c0,0.7,0.5,1,1.6,1.3c1.3,0.4,2.6,0.8,2.6,2.3c0,1.3-1.1,2.2-2.6,2.2C71.5,942.7,70.4,941.9,70,940.8z"/>
		<path class="st1" d="M80,934.9v7.6h-1v-7.6H80z"/>
		<path class="st1" d="M91.3,939.2c0,1.9-1.4,3.5-3.7,3.5c-2.4,0-4-1.8-4-4c0-2.2,1.7-4,4-4c1.4,0,2.7,0.8,3.3,1.8l-0.9,0.5
			c-0.4-0.8-1.4-1.4-2.4-1.4c-1.8,0-3,1.3-3,3c0,1.7,1.2,3,3,3c1.6,0,2.5-0.9,2.7-2h-2.8v-0.9h3.8V939.2z"/>
		<path class="st1" d="M100.6,934.9v7.6h-0.8l-3.9-5.7v5.7h-1v-7.6h0.8l3.9,5.7v-5.7H100.6z"/>
		<path class="st1" d="M109.1,941.6v1h-4.6v-7.6h4.5v1h-3.5v2.3h3.2v0.9h-3.2v2.4H109.1z"/>
		<path class="st1" d="M119.2,938.7c0,2.1-1.5,3.8-3.6,3.8h-3v-7.6h3C117.6,934.9,119.2,936.6,119.2,938.7z M118.2,938.7
			c0-1.6-1.1-2.9-2.6-2.9h-2v5.7h2C117.1,941.6,118.2,940.3,118.2,938.7z"/>
		<path class="st1" d="M133.2,940.4c0,1.2-1,2.2-2.2,2.2h-3.3v-7.6h3c1.2,0,2.1,0.9,2.1,2.1c0,0.7-0.3,1.2-0.8,1.6
			C132.7,938.9,133.2,939.5,133.2,940.4z M128.7,935.8v2.3h2c0.6,0,1.1-0.5,1.1-1.2c0-0.6-0.5-1.2-1.1-1.2H128.7z M132.2,940.3
			c0-0.7-0.5-1.2-1.2-1.2h-2.3v2.5h2.3C131.7,941.6,132.2,941,132.2,940.3z"/>
		<path class="st1" d="M139.4,939.4v3.1h-1v-3.1l-2.7-4.5h1.1l2.1,3.6l2.1-3.6h1.1L139.4,939.4z"/>
	</g>
	<g>
		<path class="st1" d="M204.8,958.1c0-3.6,2.7-6.4,6.5-6.4c2.3,0,4.3,1.2,5.3,3l-1.8,1c-0.7-1.2-2-2-3.6-2c-2.7,0-4.4,1.9-4.4,4.4
			s1.8,4.4,4.4,4.4c1.6,0,2.9-0.8,3.6-2l1.8,1c-1,1.8-3,3-5.3,3C207.5,964.5,204.8,961.7,204.8,958.1z"/>
		<path class="st1" d="M226.3,958.9v5.4h-1.9v-5.2c0-1.3-0.8-2.1-2-2.1c-1.3,0-2.2,0.7-2.2,2.5v4.7h-1.9v-12.4h1.9v4.7
			c0.6-0.9,1.5-1.4,2.7-1.4C224.9,955.2,226.3,956.6,226.3,958.9z"/>
		<path class="st1" d="M237.3,955.4v8.9h-1.9V963c-0.7,0.9-1.7,1.5-3.1,1.5c-2.4,0-4.4-2-4.4-4.7c0-2.6,2-4.7,4.4-4.7
			c1.4,0,2.4,0.6,3.1,1.5v-1.3H237.3z M235.4,959.9c0-1.6-1.2-2.8-2.8-2.8c-1.6,0-2.8,1.2-2.8,2.8c0,1.6,1.2,2.8,2.8,2.8
			C234.2,962.7,235.4,961.5,235.4,959.9z"/>
		<path class="st1" d="M252.6,958.8v5.5h-1.9v-5.4c0-1.2-0.7-1.9-1.7-1.9c-1.1,0-1.9,0.7-1.9,2.3v5h-1.9v-5.4c0-1.2-0.6-1.9-1.7-1.9
			c-1.1,0-2,0.7-2,2.3v5h-1.9v-8.9h1.9v1.1c0.6-0.9,1.4-1.3,2.5-1.3c1.2,0,2,0.5,2.5,1.4c0.6-0.9,1.5-1.4,2.7-1.4
			C251.2,955.2,252.6,956.6,252.6,958.8z"/>
		<path class="st1" d="M264,959.9c0,2.6-2,4.7-4.4,4.7c-1.4,0-2.4-0.6-3.1-1.5v4.8h-1.9v-12.4h1.9v1.3c0.7-0.9,1.7-1.5,3.1-1.5
			C262,955.2,264,957.3,264,959.9z M262.1,959.9c0-1.6-1.2-2.8-2.8-2.8c-1.6,0-2.8,1.2-2.8,2.8c0,1.6,1.2,2.8,2.8,2.8
			C260.9,962.7,262.1,961.5,262.1,959.9z"/>
		<path class="st1" d="M274.7,955.4v8.9h-1.9V963c-0.7,0.9-1.7,1.5-3.1,1.5c-2.4,0-4.4-2-4.4-4.7c0-2.6,2-4.7,4.4-4.7
			c1.4,0,2.4,0.6,3.1,1.5v-1.3H274.7z M272.8,959.9c0-1.6-1.2-2.8-2.8-2.8c-1.6,0-2.8,1.2-2.8,2.8c0,1.6,1.2,2.8,2.8,2.8
			C271.6,962.7,272.8,961.5,272.8,959.9z"/>
		<path class="st1" d="M285.9,955.4v8.4c0,2.8-2.2,4.2-4.5,4.2c-1.9,0-3.5-0.7-4.2-2.1l1.6-1c0.4,0.8,1,1.4,2.6,1.4
			c1.6,0,2.6-0.9,2.6-2.4v-1.1c-0.7,1-1.7,1.5-3.1,1.5c-2.5,0-4.5-2-4.5-4.6s2-4.6,4.5-4.6c1.4,0,2.4,0.6,3.1,1.5v-1.3H285.9z
			 M284,959.8c0-1.6-1.2-2.8-2.8-2.8c-1.6,0-2.8,1.2-2.8,2.8s1.2,2.8,2.8,2.8C282.8,962.6,284,961.4,284,959.8z"/>
		<path class="st1" d="M296.1,958.9v5.4h-1.9v-5.2c0-1.3-0.8-2.1-2-2.1c-1.3,0-2.2,0.7-2.2,2.5v4.7h-1.9v-8.9h1.9v1.1
			c0.6-0.9,1.5-1.4,2.7-1.4C294.7,955.2,296.1,956.6,296.1,958.9z"/>
		<path class="st1" d="M302.5,962.8c1.1,0,1.9-0.5,2.3-1.1l1.6,0.9c-0.8,1.2-2.1,1.9-3.9,1.9c-2.9,0-4.8-2-4.8-4.7
			c0-2.6,1.9-4.7,4.7-4.7c2.6,0,4.4,2.1,4.4,4.7c0,0.3,0,0.5-0.1,0.8h-7C300,962.1,301.1,962.8,302.5,962.8z M304.9,959.1
			c-0.3-1.5-1.4-2.2-2.5-2.2c-1.4,0-2.4,0.8-2.7,2.2H304.9z"/>
	</g>
	<g>
		<g>
			<g>
				<path class="st1" d="M846.1,938.7c0,2.1-1.5,3.8-3.6,3.8h-3v-7.6h3C844.6,934.9,846.1,936.6,846.1,938.7z M845.2,938.7
					c0-1.6-1.1-2.9-2.6-2.9h-2v5.7h2C844.1,941.6,845.2,940.3,845.2,938.7z"/>
			</g>
			<g>
				<path class="st1" d="M849.3,938.7c0-2.2,1.7-4,3.9-4c2.2,0,4,1.8,4,4c0,2.2-1.7,4-4,4C851,942.7,849.3,940.9,849.3,938.7z
					 M856.1,938.7c0-1.7-1.3-3-2.9-3c-1.7,0-2.9,1.3-2.9,3c0,1.7,1.3,3,2.9,3C854.9,941.7,856.1,940.4,856.1,938.7z"/>
			</g>
			<g>
				<path class="st1" d="M859.8,934.9h1.1l1.7,6.3l1.9-6.3h1l1.9,6.3l1.7-6.3h1.1l-2.2,7.6h-1.2l-1.8-6.1l-1.8,6.1H862L859.8,934.9z
					"/>
			</g>
			<g>
				<path class="st1" d="M879.3,934.9v7.6h-0.8l-3.9-5.7v5.7h-1v-7.6h0.8l3.9,5.7v-5.7H879.3z"/>
			</g>
			<g>
				<path class="st1" d="M887.5,941.6v1h-4.3v-7.6h1v6.7H887.5z"/>
			</g>
			<g>
				<path class="st1" d="M889.9,938.7c0-2.2,1.7-4,3.9-4c2.2,0,4,1.8,4,4c0,2.2-1.7,4-4,4C891.6,942.7,889.9,940.9,889.9,938.7z
					 M896.8,938.7c0-1.7-1.3-3-2.9-3c-1.7,0-2.9,1.3-2.9,3c0,1.7,1.3,3,2.9,3C895.5,941.7,896.8,940.4,896.8,938.7z"/>
			</g>
			<g>
				<path class="st1" d="M905.4,940.8H902l-0.6,1.7h-1.1l2.8-7.6h1.1l2.8,7.6H906L905.4,940.8z M905.1,939.9l-1.4-3.8l-1.4,3.8
					H905.1z"/>
			</g>
			<g>
				<path class="st1" d="M916.9,938.7c0,2.1-1.5,3.8-3.6,3.8h-3v-7.6h3C915.4,934.9,916.9,936.6,916.9,938.7z M915.9,938.7
					c0-1.6-1.1-2.9-2.6-2.9h-2v5.7h2C914.9,941.6,915.9,940.3,915.9,938.7z"/>
			</g>
			<g>
				<path class="st1" d="M926.5,935.8v2.5h3.2v1h-3.2v3.2h-1v-7.6h4.4v1H926.5z"/>
			</g>
			<g>
				<path class="st1" d="M936.2,939.6h-1.8v2.9h-1v-7.6h3c1.3,0,2.4,1.1,2.4,2.4c0,1-0.7,1.9-1.6,2.2l1.8,3.1h-1.1L936.2,939.6z
					 M934.4,938.7h2c0.8,0,1.4-0.6,1.4-1.4c0-0.8-0.6-1.4-1.4-1.4h-2V938.7z"/>
			</g>
			<g>
				<path class="st1" d="M941.9,938.7c0-2.2,1.7-4,3.9-4c2.2,0,4,1.8,4,4c0,2.2-1.7,4-4,4C943.6,942.7,941.9,940.9,941.9,938.7z
					 M948.8,938.7c0-1.7-1.3-3-2.9-3c-1.7,0-2.9,1.3-2.9,3c0,1.7,1.3,3,2.9,3C947.5,941.7,948.8,940.4,948.8,938.7z"/>
			</g>
			<g>
				<path class="st1" d="M960.4,942.5h-1v-6l-2.5,4.2h-0.1l-2.5-4.1v5.9h-1v-7.6h1.1l2.4,4l2.4-4h1.1V942.5z"/>
			</g>
		</g>
		<g>
			<g>
				<path class="st1" d="M839.3,952.9c0-0.7,0.5-1.2,1.2-1.2c0.7,0,1.2,0.5,1.2,1.2c0,0.7-0.5,1.2-1.2,1.2
					C839.9,954.1,839.3,953.6,839.3,952.9z M839.6,955.4h1.9v8.9h-1.9V955.4z"/>
			</g>
			<g>
				<path class="st1" d="M843.7,951.4h1.9v12.9h-1.9V951.4z"/>
			</g>
			<g>
				<path class="st1" d="M847.8,951.4h1.9v12.9h-1.9V951.4z"/>
			</g>
			<g>
				<path class="st1" d="M852,951.4h1.9v12.9H852V951.4z"/>
			</g>
			<g>
				<path class="st1" d="M864,955.4v8.9h-1.9v-1.1c-0.6,0.9-1.5,1.4-2.7,1.4c-2,0-3.4-1.3-3.4-3.6v-5.4h1.9v5.2c0,1.3,0.8,2.1,2,2.1
					c1.3,0,2.2-0.7,2.2-2.5v-4.7H864z"/>
			</g>
			<g>
				<path class="st1" d="M872.6,961.8c0,1.8-1.5,2.7-3.5,2.7c-1.8,0-3-0.8-3.6-2.1l1.6-1c0.3,0.8,1,1.3,2,1.3c0.8,0,1.5-0.3,1.5-1
					c0-1.6-4.8-0.7-4.8-3.9c0-1.7,1.4-2.7,3.2-2.7c1.5,0,2.7,0.7,3.3,1.8l-1.6,0.9c-0.3-0.7-0.9-1-1.7-1c-0.7,0-1.3,0.3-1.3,0.9
					C867.9,959.5,872.6,958.5,872.6,961.8z"/>
			</g>
			<g>
				<path class="st1" d="M876.7,957.3v4.2c0,1.1,0.7,1.1,2.2,1v1.7c-2.9,0.4-4.1-0.5-4.1-2.8v-4.2h-1.6v-1.8h1.6v-1.9l1.9-0.6v2.5
					h2.2v1.8H876.7z"/>
			</g>
			<g>
				<path class="st1" d="M885.4,955.3v2.1c-1.3-0.1-2.7,0.5-2.7,2.5v4.5h-1.9v-8.9h1.9v1.5C883.2,955.7,884.2,955.3,885.4,955.3z"/>
			</g>
			<g>
				<path class="st1" d="M895.3,955.4v8.9h-1.9V963c-0.7,0.9-1.7,1.5-3.1,1.5c-2.4,0-4.4-2-4.4-4.7c0-2.6,2-4.7,4.4-4.7
					c1.4,0,2.4,0.6,3.1,1.5v-1.3H895.3z M893.4,959.9c0-1.6-1.2-2.8-2.8-2.8c-1.6,0-2.8,1.2-2.8,2.8c0,1.6,1.2,2.8,2.8,2.8
					C892.2,962.7,893.4,961.5,893.4,959.9z"/>
			</g>
			<g>
				<path class="st1" d="M900.3,957.3v4.2c0,1.1,0.7,1.1,2.2,1v1.7c-2.9,0.4-4.1-0.5-4.1-2.8v-4.2h-1.6v-1.8h1.6v-1.9l1.9-0.6v2.5
					h2.2v1.8H900.3z"/>
			</g>
			<g>
				<path class="st1" d="M903.9,952.9c0-0.7,0.5-1.2,1.2-1.2c0.7,0,1.2,0.5,1.2,1.2c0,0.7-0.5,1.2-1.2,1.2
					C904.5,954.1,903.9,953.6,903.9,952.9z M904.2,955.4h1.9v8.9h-1.9V955.4z"/>
			</g>
			<g>
				<path class="st1" d="M907.8,959.9c0-2.6,2.1-4.7,4.7-4.7c2.6,0,4.7,2,4.7,4.7c0,2.6-2.1,4.7-4.7,4.7
					C909.9,964.5,907.8,962.5,907.8,959.9z M915.3,959.9c0-1.6-1.2-2.8-2.8-2.8c-1.6,0-2.8,1.2-2.8,2.8c0,1.6,1.2,2.8,2.8,2.8
					C914.1,962.7,915.3,961.5,915.3,959.9z"/>
			</g>
			<g>
				<path class="st1" d="M927,958.9v5.4h-1.9v-5.2c0-1.3-0.8-2.1-2-2.1c-1.3,0-2.2,0.7-2.2,2.5v4.7h-1.9v-8.9h1.9v1.1
					c0.6-0.9,1.5-1.4,2.7-1.4C925.5,955.2,927,956.6,927,958.9z"/>
			</g>
			<g>
				<path class="st1" d="M935.5,961.8c0,1.8-1.5,2.7-3.5,2.7c-1.8,0-3-0.8-3.6-2.1l1.6-1c0.3,0.8,1,1.3,2,1.3c0.8,0,1.5-0.3,1.5-1
					c0-1.6-4.8-0.7-4.8-3.9c0-1.7,1.4-2.7,3.2-2.7c1.5,0,2.7,0.7,3.3,1.8l-1.6,0.9c-0.3-0.7-0.9-1-1.7-1c-0.7,0-1.3,0.3-1.3,0.9
					C930.7,959.5,935.5,958.5,935.5,961.8z"/>
			</g>
			<g>
				<path class="st1" d="M936.8,963.2c0-0.7,0.6-1.3,1.3-1.3c0.7,0,1.3,0.6,1.3,1.3c0,0.7-0.6,1.3-1.3,1.3
					C937.4,964.5,936.8,963.9,936.8,963.2z"/>
			</g>
			<g>
				<path class="st1" d="M940.3,959.9c0-2.6,2-4.7,4.7-4.7c1.7,0,3.2,0.9,3.9,2.3l-1.6,1c-0.4-0.8-1.3-1.4-2.3-1.4
					c-1.6,0-2.7,1.2-2.7,2.8c0,1.6,1.2,2.8,2.7,2.8c1.1,0,1.9-0.5,2.4-1.4l1.6,0.9c-0.7,1.4-2.2,2.3-4,2.3
					C942.3,964.5,940.3,962.5,940.3,959.9z"/>
			</g>
			<g>
				<path class="st1" d="M949.7,959.9c0-2.6,2.1-4.7,4.7-4.7c2.6,0,4.7,2,4.7,4.7c0,2.6-2.1,4.7-4.7,4.7
					C951.8,964.5,949.7,962.5,949.7,959.9z M957.2,959.9c0-1.6-1.2-2.8-2.8-2.8s-2.8,1.2-2.8,2.8c0,1.6,1.2,2.8,2.8,2.8
					S957.2,961.5,957.2,959.9z"/>
			</g>
		</g>
	</g>
</g>
<g id="XMLID_1_" class="st2">
	<g id="XMLID_238_">
		<polyline id="XMLID_244_" class="st3" points="210.1,535.4 210.1,583.6 113.7,583.6 		"/>
		<polyline id="XMLID_243_" class="st3" points="306.5,583.6 210.1,583.6 210.1,535.4 		"/>
		<rect id="XMLID_242_" x="161.9" y="583.6" class="st3" width="96.4" height="48.2"/>
		<polyline id="XMLID_241_" class="st3" points="237.5,680 210.1,680 210.1,631.8 306.5,631.8 		"/>
		<polyline id="XMLID_239_" class="st3" points="327.9,631.8 258.3,631.8 258.3,583.6 291.8,583.6 		"/>
	</g>
</g>
<g id="XMLID_10_" class="st2">
	<g id="XMLID_289_">
		<polyline id="XMLID_296_" class="st3" points="761.7,236.2 761.7,284.4 858.2,284.4 		"/>
		<polyline id="XMLID_295_" class="st3" points="665.3,284.4 761.7,284.4 761.7,236.2 		"/>
		
			<rect id="XMLID_294_" x="713.5" y="284.4" transform="matrix(-1 -4.490243e-11 4.490243e-11 -1 1523.4785 617.0121)" class="st3" width="96.4" height="48.2"/>
		<polyline id="XMLID_293_" class="st3" points="734.3,380.8 761.7,380.8 761.7,332.6 665.3,332.6 		"/>
		<polyline id="XMLID_292_" class="st3" points="858.2,332.6 761.7,332.6 761.7,380.8 839.9,380.8 		"/>
		<polyline id="XMLID_291_" class="st3" points="891,284.4 809.9,284.4 809.9,332.6 858.2,332.6 		"/>
		<polyline id="XMLID_290_" class="st3" points="644,332.6 713.5,332.6 713.5,284.4 680.1,284.4 		"/>
	</g>
</g>
<g id="XMLID_171_">
	<g>
		<path id="XMLID_116_" class="st4" d="M238.1,772.7c-25-52.3,44.4-90.7,44-181.8c-0.5-124-129.6-159.8-122-238
			c14.7-151.7,523.4-257.2,560-187.4c13.8,26.3-53.1,51.4-60,123.7c-12,124.8,176.3,170,180,286.7c3.8,121-193.2,244.5-366,260.5
			C399.9,843.2,268.3,836,238.1,772.7z"/>
	</g>
</g>
<path id="XMLID_45_" class="st5" d="M446.3,391.7l-14-124.1c-1.4-12.6,0.2-25.3,4.7-37.3v0h-76.3v0c4.5,12,6.1,24.7,4.7,37.3
	l-14,124.1c-3.6,32-14.8,62.9-32.8,90.5l0,0c-25.1,38.6-36.8,83.4-33.5,128.3l11.1,149.3c1.3,17.8,16.5,31.9,35.8,33.3l32.9,2.4
	c22.6,1.6,45.2,1.6,67.8,0l32.9-2.4c19.2-1.4,34.4-15.6,35.8-33.3l11.1-149.3c3.3-44.9-8.3-89.7-33.5-128.3l0,0
	C461.1,454.6,449.9,423.7,446.3,391.7z"/>
<path id="XMLID_62_" class="st6" d="M416,795.6l32.6-2.4c19-1.4,34.1-15.6,35.4-33.3l11-149.3c3.3-44.9-5.3-86.7-30.2-125.3
	c0,0-23.7-29.5-27.5-96.5l-12.8-124.1c-1.3-11.6,2.9-23.2,6.6-34.3h6.2c-4.5,12-6.1,24.7-4.6,37.3l13.8,124.1
	c3.6,32,14.6,62.9,32.4,90.5l0,0c24.9,38.6,36.5,83.4,33.2,128.3l-11,149.3c-1.3,17.8-16.4,31.9-35.4,33.3l-32.6,2.4
	c-14,1-28,1.4-42,1.1C399.3,796.6,407.7,796.2,416,795.6z"/>
<g id="XMLID_98_">
	<g>
		<g id="XMLID_225_">
			<path id="XMLID_226_" class="st5" d="M432.1,251.9c0.6-7.4,2.3-14.6,4.9-21.6h-3.8C431.9,237.4,431.5,244.7,432.1,251.9z"/>
		</g>
		<g id="XMLID_223_">
			<path id="XMLID_224_" class="st5" d="M364.6,230.3h-3.8c2.6,7,4.3,14.3,4.9,21.6C366.3,244.7,365.9,237.4,364.6,230.3z"/>
		</g>
		<path id="XMLID_220_" class="st6" d="M512.6,597l-11.1,149.3c-1.3,17.8-16.5,31.9-35.8,33.3l-32.9,2.4c-22.6,1.6-45.2,1.6-67.8,0
			l-32.9-2.4c-19.2-1.4-34.4-15.6-35.8-33.3L285.2,597c-0.2-2.7-0.4-5.5-0.4-8.2c-0.2,7.2-0.1,14.5,0.4,21.8l11.1,149.3
			c1.3,17.8,16.5,31.9,35.8,33.3l32.9,2.4c22.6,1.6,45.2,1.6,67.8,0l32.9-2.4c19.2-1.4,34.4-15.6,35.8-33.3l11.1-149.3
			c0.5-7.3,0.7-14.5,0.4-21.8C513,591.5,512.8,594.2,512.6,597z"/>
	</g>
</g>
<path id="XMLID_16_" class="st7" d="M361.9,500c-6.8,15.7-14.4,36.6-16.8,55.4c-5.8,44,0,78.1,0,78.1"/>
<path id="XMLID_9_" class="st7" d="M373.7,475.2c0,0,0.4-1.5-3.3,6.4"/>
<path id="XMLID_6_" class="st8" d="M446.3,391.7l-14-124.1c-1.4-12.6,0.2-25.3,4.7-37.3v0h-76.3v0c4.5,12,6.1,24.7,4.7,37.3
	l-14,124.1c-3.6,32-14.8,62.9-32.8,90.5l0,0c-25.1,38.6-36.8,83.4-33.5,128.3l11.1,149.3c1.3,17.8,16.5,31.9,35.8,33.3l32.9,2.4
	c22.6,1.6,45.2,1.6,67.8,0l32.9-2.4c19.2-1.4,34.4-15.6,35.8-33.3l11.1-149.3c3.3-44.9-8.3-89.7-33.5-128.3l0,0
	C461.1,454.6,449.9,423.7,446.3,391.7z"/>
<g id="XMLID_59_">
	<g id="XMLID_139_">
		<path id="XMLID_140_" class="st9" d="M450.7,420.7c-6.7,1-13.3,1.8-20,2.5c-6.9,8.8-19,14.8-32.8,14.8c-13.9,0-26-6-32.8-14.8
			c-6.7-0.6-13.4-1.5-20-2.5c0.3-1.2,0.6-2.4,0.9-3.6c1.2-4.8,2.2-9.6,3-14.4c0,0,0-0.1,0-0.1c0.2-1.1,0.4-2.2,0.5-3.3
			c0-0.2,0.1-0.3,0.1-0.5c0.2-1.2,0.3-2.3,0.5-3.5c0.2-1.2,0.3-2.5,0.5-3.7l1.7-15.2l12.3-108.9c0.3-3,0.5-5.9,0.5-8.9
			c0-9.6-1.8-19.2-5.2-28.4H436c-4.5,12-6.1,24.7-4.7,37.3l12.3,108.9l1.7,15.2c0.1,1.2,0.3,2.5,0.5,3.7c0.8,6.1,1.9,12.2,3.2,18.2
			c0.3,1.2,0.5,2.4,0.8,3.6C450.1,418.4,450.4,419.5,450.7,420.7z"/>
	</g>
</g>
<path class="st10" d="M431.1,230.3c-3.7,11.1-7.9,22.7-6.6,34.3l12.8,124.1c0.7,12.4,2.1,23.5,3.9,33.3c3.2-0.4,6.4-0.8,9.6-1.3
	c-0.3-1.2-0.6-2.4-0.9-3.6c-0.3-1.2-0.6-2.4-0.8-3.6c-1.4-6-2.4-12.1-3.2-18.2c-0.2-1.2-0.3-2.5-0.5-3.7l-1.7-15.2l-12.3-108.9
	c-1.4-12.6,0.2-25.3,4.7-37.3H431.1z"/>
<path id="XMLID_56_" class="st11" d="M446.3,391.7l-1.7-15.2c-6.1,0.9-12.2,1.7-18.3,2.2c-7.4-6.6-17-10.6-27.5-10.6
	c-10.5,0-20.1,4-27.5,10.6c-6.1-0.5-12.2-1.3-18.3-2.2l-1.7,15.2c-1.1,9.8-2.9,19.5-5.4,29c6.7,1,13.3,1.8,20,2.5
	c6.9,8.8,19,14.8,32.8,14.8c13.9,0,26-6,32.8-14.8c6.7-0.6,13.4-1.5,20-2.5C449.3,411.2,447.4,401.5,446.3,391.7z"/>
<path class="st12" d="M436.2,377.6l1.1,11.1c0.7,12.4,2.1,23.5,3.9,33.3c3.2-0.4,6.4-0.8,9.6-1.3c-0.3-1.2-0.6-2.4-0.9-3.6
	c-0.3-1.2-0.6-2.4-0.8-3.6c-1.4-6-2.4-12.1-3.2-18.2c-0.2-1.2-0.3-2.5-0.5-3.7l-1.7-15.1C441.1,377,438.6,377.3,436.2,377.6z"/>
<ellipse id="XMLID_4_" class="st12" cx="397.9" cy="401.6" rx="19.6" ry="15.4"/>
<line id="XMLID_5_" class="st7" x1="386.6" y1="288.5" x2="384.5" y2="348.6"/>
<path id="XMLID_75_" class="st13" d="M381.2,795.6l-32.6-2.4c-19-1.4-34.1-15.6-35.4-33.3l-11-149.3c-3.3-44.9,5.3-86.7,30.2-125.3
	c0,0,23.7-29.5,27.5-96.5l12.8-124.1c1.3-11.6-2.9-23.2-6.6-34.3H360c4.5,12,6.1,24.7,4.6,37.3l-13.8,124.1
	c-3.6,32-14.6,62.9-32.4,90.5l0,0c-24.9,38.6-36.5,83.4-33.2,128.3l11,149.3c1.3,17.8,16.4,31.9,35.4,33.3l32.6,2.4
	c14,1,28,1.4,42,1.1C397.9,796.6,389.5,796.2,381.2,795.6z"/>
<path id="XMLID_175_" class="st5" d="M364,246.3c0,0,19.3,13.6,21.6,13.6c2.3,0,12.3-6.8,12.3-6.8l8.3,11.4c0,0,2.5-4.2,4.9-4.2
	s10.6,0.8,11.8,0.8s9.4,0,9.4,0v-11.8v-13.9h-68.9L364,246.3z"/>
<g id="XMLID_266_">
	<g id="XMLID_311_">
		<g id="XMLID_314_">
			<path id="XMLID_315_" class="st13" d="M372.3,249.1l-0.5-11h60.6v-2.8h-68.9l0.5,11c0,0,19.3,13.6,21.6,13.6
				c0.4,0,1.1-0.2,1.9-0.6C381.1,255.3,372.3,249.1,372.3,249.1z"/>
		</g>
		<g id="XMLID_312_">
			<path id="XMLID_313_" class="st13" d="M406.2,255.9c0,0-1.9,1.3-4.2,2.7l4.3,5.8c0,0,1.6-2.7,3.5-3.7L406.2,255.9z"/>
		</g>
	</g>
</g>
<path id="XMLID_170_" class="st3" d="M364,246.3c0,0,19.3,13.6,21.6,13.6c2.3,0,12.3-6.8,12.3-6.8l8.3,11.4c0,0,2.5-4.2,4.9-4.2
	s10.6,0.8,11.8,0.8s9.4,0,9.4,0v-11.8v-13.9h-68.9L364,246.3z"/>
<g id="XMLID_13_">
	<path id="XMLID_55_" class="st9" d="M459.5,595.6c-16-5.7-33.9-10-53-10s-37,4.3-53,10c-13.9,5-28.4,7.5-43.1,7.5
		c-5,0-8.9,4.4-8.7,9.6l6.5,125.7c0.2,4.6,3.8,8.3,8.2,8.6c9.3,0.5,26.3,2.3,46,8c13.6,3.9,28.5,7.1,44.1,7.1s30.4-3.2,44.1-7.1
		c16.9-4.8,34.3-7.6,51.8-7.8l7.3-97.7l2.6-46.3h-9.6C488,603.1,473.4,600.5,459.5,595.6z"/>
	<path class="st10" d="M511.4,618.7l0.9-15.6h-9.6c-2.4,0-4.8-0.1-7.2-0.2c-0.1,2.5-0.3,5.1-0.4,7.6l-10.2,137.7
		c5.7-0.6,11.4-0.9,17.1-1L511.4,618.7z"/>
	<path id="XMLID_72_" class="st11" d="M505.8,724.8c-66.3,4.3-132.8,4.3-199.1,0c0.3-5.9,0.7-11.7,1-17.6c65.6,4.3,131.4,4.3,197,0
		C505.1,713.1,505.4,718.9,505.8,724.8z"/>
	<g id="XMLID_87_">
		<path id="XMLID_71_" class="st14" d="M505.8,724.8c-66.3,4.3-132.8,4.3-199.1,0c0.3-5.9,0.7-11.7,1-17.6c65.6,4.3,131.4,4.3,197,0
			C505.1,713.1,505.4,718.9,505.8,724.8z"/>
		<path id="XMLID_196_" class="st3" d="M505.8,724.8c-66.3,4.3-132.8,4.3-199.1,0c0.3-5.9,0.7-11.7,1-17.6c65.6,4.3,131.4,4.3,197,0
			C505.1,713.1,505.4,718.9,505.8,724.8z"/>
		<g id="XMLID_44_">
			<path id="XMLID_70_" class="st14" d="M444.1,719.1c0.2,7.4-16.8,13.6-37.9,13.6c-21.1,0-38.1-6.2-37.9-13.6
				c0.2-7.4,17.2-13.3,37.9-13.3C427,705.8,443.9,711.6,444.1,719.1z"/>
			<path id="XMLID_63_" class="st3" d="M444.1,719.1c0.2,7.4-16.8,13.6-37.9,13.6c-21.1,0-38.1-6.2-37.9-13.6
				c0.2-7.4,17.2-13.3,37.9-13.3C427,705.8,443.9,711.6,444.1,719.1z"/>
		</g>
	</g>
	<path id="XMLID_25_" class="st3" d="M459.5,595.6c-16-5.7-33.9-10-53-10s-37,4.3-53,10c-13.9,5-28.4,7.5-43.1,7.5
		c-5,0-8.9,4.4-8.7,9.6l6.5,125.7c0.2,4.6,3.8,8.3,8.2,8.6c9.3,0.5,26.3,2.3,46,8c13.6,3.9,28.5,7.1,44.1,7.1s30.4-3.2,44.1-7.1
		c16.9-4.8,34.3-7.6,51.8-7.8l7.3-97.7l2.6-46.3h-9.6C488,603.1,473.4,600.5,459.5,595.6z"/>
	<path id="XMLID_203_" class="st15" d="M406.5,754c-12.5,0-25.8-2.2-41.9-6.8c-19.8-5.7-36.9-7.7-47.7-8.3c-0.2,0-0.6-0.4-0.7-1
		l-6.5-125.7c0-0.5,0.2-0.8,0.3-1c0.2-0.2,0.3-0.2,0.3-0.2c15.5,0,30.9-2.7,45.8-8c17.9-6.4,34.3-9.5,50.3-9.5s32.4,3.1,50.3,9.5
		c14.9,5.3,30.3,8,45.8,8h1.2l-2.1,37.8l-6.7,90.5c-15.3,0.7-30.9,3.4-46.6,7.9C438.2,750.1,422.8,754,406.5,754z"/>
</g>
<path id="XMLID_46_" class="st3" d="M446.3,391.7l-1.7-15.2c-6.1,0.9-12.2,1.7-18.3,2.2c-7.4-6.6-17-10.6-27.5-10.6
	c-10.5,0-20.1,4-27.5,10.6c-6.1-0.5-12.2-1.3-18.3-2.2l-1.7,15.2c-1.1,9.8-2.9,19.5-5.4,29c6.7,1,13.3,1.8,20,2.5
	c6.9,8.8,19,14.8,32.8,14.8c13.9,0,26-6,32.8-14.8c6.7-0.6,13.4-1.5,20-2.5C449.3,411.2,447.4,401.5,446.3,391.7z"/>
<g id="XMLID_61_">
	<g id="XMLID_287_">
		<g id="XMLID_288_">
			<path id="XMLID_297_" class="st3" d="M451.7,420.7c-6.7,1-13.3,1.8-20,2.5c-6.9,8.8-19,14.8-32.8,14.8c-13.9,0-26-6-32.8-14.8
				c-6.7-0.6-13.4-1.5-20-2.5c0.3-1.2,0.6-2.4,0.9-3.6c1.2-4.8,2.2-9.6,3-14.4c0,0,0-0.1,0-0.1c0.2-1.1,0.4-2.2,0.5-3.3
				c0-0.2,0.1-0.3,0.1-0.5c0.2-1.2,0.3-2.3,0.5-3.5c0.2-1.2,0.3-2.5,0.5-3.7l1.7-15.2l12.3-108.9c0.3-3,0.5-5.9,0.5-8.9
				c0-9.6-1.8-19.2-5.2-28.4H437c-4.5,12-6.1,24.7-4.7,37.3l12.3,108.9l1.7,15.2c0.1,1.2,0.3,2.5,0.5,3.7c0.8,6.1,1.9,12.2,3.2,18.2
				c0.3,1.2,0.5,2.4,0.8,3.6C451.1,418.4,451.4,419.5,451.7,420.7z"/>
		</g>
	</g>
</g>
<g id="XMLID_60_">
	<path id="XMLID_57_" class="st3" d="M446.3,391.7l-14-124.1c-1.4-12.6,0.2-25.3,4.7-37.3v0h-76.3v0c4.5,12,6.1,24.7,4.7,37.3
		l-14,124.1c-3.6,32-14.8,62.9-32.8,90.5l0,0c-25.1,38.6-36.8,83.4-33.5,128.3l11.1,149.3c1.3,17.8,16.5,31.9,35.8,33.3l32.9,2.4
		c22.6,1.6,45.2,1.6,67.8,0l32.9-2.4c19.2-1.4,34.4-15.6,35.8-33.3l11.1-149.3c3.3-44.9-8.3-89.7-33.5-128.3l0,0
		C461.1,454.6,449.9,423.7,446.3,391.7z"/>
</g>
<g id="XMLID_12_">
	<g id="XMLID_21_">
		<path id="XMLID_20_" class="st16" d="M628.6,614.2l-29.5,38.2l-29.5-38.2c-15.5-20.1-23.6-45.9-22.7-72.2l6.5-139.3h91.5
			l6.5,139.3C652.2,568.3,644.1,594.1,628.6,614.2z"/>
		<path id="XMLID_66_" class="st9" d="M648.3,476.9h-98.4l-3,65.1c-0.9,26.3,7.2,52.1,22.7,72.2l29.5,38.2l29.5-38.2
			c15.5-20.1,23.6-45.9,22.7-72.2L648.3,476.9z"/>
		<path id="XMLID_193_" class="st13" d="M578.3,614.2c-8.7-11.3-15.1-24.4-18.9-38.4c-2.5-9.3-3.8-19-3.9-28.9c0-1.6,0-3.3,0.1-4.9
			l0.5-10.2l6-129h-8.8l-6,129l-0.5,10.2c-0.1,1.6-0.1,3.3-0.1,4.9c0.1,9.8,1.4,19.5,3.9,28.9c3.7,14,10.1,27.1,18.9,38.4l29.5,38.2
			l2.4-4.7L578.3,614.2z"/>
		<line id="XMLID_23_" class="st3" x1="599.1" y1="652.4" x2="599.1" y2="789.8"/>
		<line id="XMLID_22_" class="st3" x1="550.1" y1="789.8" x2="648.1" y2="789.8"/>
		<polygon id="XMLID_165_" class="st13" points="645.9,494.4 645.3,470.1 552.8,470.1 552.2,494.4 		"/>
		<circle id="XMLID_67_" class="st13" cx="568.4" cy="474" r="17"/>
		<circle id="XMLID_153_" class="st13" cx="592.6" cy="478.1" r="17"/>
		<circle id="XMLID_163_" class="st13" cx="612.6" cy="476.9" r="13.6"/>
		<circle id="XMLID_164_" class="st13" cx="627.6" cy="468.6" r="9.5"/>
		<circle id="XMLID_166_" class="st13" cx="639.4" cy="471" r="7.1"/>
		<circle id="XMLID_169_" class="st13" cx="619.6" cy="427.2" r="4.3"/>
		<path id="XMLID_24_" class="st3" d="M628.6,614.2l-29.5,38.2l-29.5-38.2c-15.5-20.1-23.6-45.9-22.7-72.2l6.5-139.3h91.5l6.5,139.3
			C652.2,568.3,644.1,594.1,628.6,614.2z"/>
	</g>
	<line id="XMLID_17_" class="st7" x1="579.4" y1="420.6" x2="579.4" y2="448"/>
	<circle id="XMLID_114_" class="st17" cx="625" cy="521.9" r="5.7"/>
	<circle id="XMLID_201_" class="st18" cx="627.6" cy="571" r="4.3"/>
	<circle id="XMLID_77_" class="st17" cx="594.8" cy="538.7" r="1.6"/>
	<circle id="XMLID_83_" class="st17" cx="586.9" cy="559.6" r="1.6"/>
	<circle id="XMLID_85_" class="st17" cx="604.3" cy="578.6" r="1.6"/>
	<path id="XMLID_37_" class="st7" d="M571.5,546.5c0.5,16,4.9,33.5,20,49"/>
	<line id="XMLID_28_" class="st7" x1="572.7" y1="516.5" x2="572.7" y2="523.7"/>
</g>
<g id="XMLID_14_">
	<g id="XMLID_91_">
		<path id="XMLID_130_" class="st16" d="M701.1,614.2l-29.5,38.2L642,614.2c-15.5-20.1-23.6-45.9-22.7-72.2l6.5-139.3h91.5
			l6.5,139.3C724.7,568.3,716.6,594.1,701.1,614.2z"/>
		<path id="XMLID_121_" class="st9" d="M720.7,476.9h-98.4l-3,65.1c-0.9,26.3,7.2,52.1,22.7,72.2l29.5,38.2l29.5-38.2
			c15.5-20.1,23.6-45.9,22.7-72.2L720.7,476.9z"/>
		<path id="XMLID_120_" class="st13" d="M650.8,614.2c-8.7-11.3-15.1-24.4-18.9-38.4c-2.5-9.3-3.8-19-3.9-28.9c0-1.6,0-3.3,0.1-4.9
			l0.5-10.2l6-129h-8.8l-6,129l-0.5,10.2c-0.1,1.6-0.1,3.3-0.1,4.9c0.1,9.8,1.4,19.5,3.9,28.9c3.7,14,10.1,27.1,18.9,38.4l29.5,38.2
			l2.4-4.7L650.8,614.2z"/>
		<line id="XMLID_117_" class="st3" x1="671.5" y1="652.4" x2="671.5" y2="789.8"/>
		<line id="XMLID_111_" class="st3" x1="622.5" y1="789.8" x2="720.6" y2="789.8"/>
		<polygon id="XMLID_106_" class="st13" points="718.4,494.4 717.8,470.1 625.3,470.1 624.7,494.4 		"/>
		<circle id="XMLID_105_" class="st13" cx="640.8" cy="474" r="17"/>
		<circle id="XMLID_104_" class="st13" cx="665.1" cy="478.1" r="17"/>
		<circle id="XMLID_103_" class="st13" cx="685.3" cy="485.6" r="17"/>
		<circle id="XMLID_102_" class="st13" cx="700.1" cy="468.6" r="9.5"/>
		<circle id="XMLID_101_" class="st13" cx="711.9" cy="471" r="7.1"/>
		<circle id="XMLID_100_" class="st13" cx="695.9" cy="447.6" r="3.9"/>
		<path id="XMLID_92_" class="st3" d="M701.1,614.2l-29.5,38.2L642,614.2c-15.5-20.1-23.6-45.9-22.7-72.2l6.5-139.3h91.5l6.5,139.3
			C724.7,568.3,716.6,594.1,701.1,614.2z"/>
	</g>
	<line id="XMLID_84_" class="st7" x1="651.9" y1="420.6" x2="651.9" y2="448"/>
	<circle id="XMLID_79_" class="st17" cx="697.4" cy="521.9" r="5.7"/>
	<circle id="XMLID_54_" class="st17" cx="667.3" cy="538.7" r="1.6"/>
	<circle id="XMLID_53_" class="st17" cx="700.1" cy="564.7" r="1.6"/>
	<circle id="XMLID_52_" class="st17" cx="676.8" cy="578.6" r="1.6"/>
	<path id="XMLID_49_" class="st7" d="M644,546.5c0.5,16,4.9,33.5,20,49"/>
	<line id="XMLID_15_" class="st7" x1="645.2" y1="516.5" x2="645.2" y2="523.7"/>
</g>
<path id="XMLID_147_" class="st13" d="M873,796.8H131l34,78.2h66c0,0,53.7-28,53.7-20s82,76,82,76s26,28,62.2,8s69.3-28.4,76.9-36
	c14.1-14.1-6.1-36.4-0.2-40.2c11.8-7.5,64.4,69.5,89.3,58.5c10.2-4.5,7.3-20.2,19.9-25.1c13.5-5.3,21.1,10.9,46.7,14.4
	c25.4,3.5,53.1-7.6,53.6-7.7l0,0c0,0-4.3-11.2,16-31.5c20.3-20.3,29-27.5,46-10.5s15,33,24,42c7.2,7.2,10.1,16.9,13,16
	c6.3-1.9-1.9-44.8,2.1-45.7c3.4-0.7,11,30.4,19.8,29.7c1.2-0.1,3.6-2.5,8.9-6.9c2.2-1.8,4.7-4.1,8.2-7.6c12.8-12.8,20-17.6,20-33.6
	S873,796.8,873,796.8z"/>
<line id="XMLID_138_" class="st3" x1="873" y1="796.8" x2="131" y2="796.8"/>
<g id="XMLID_160_">
	<path id="XMLID_188_" class="st5" d="M422.8,209.2h-49.7c-6.3,0-11.5-5.1-11.5-11.5v-4.2c0-6.3,5.1-11.5,11.5-11.5h49.7
		c6.3,0,11.5,5.1,11.5,11.5v4.2C434.3,204.1,429.1,209.2,422.8,209.2z"/>
	<path id="XMLID_277_" class="st13" d="M371.8,197.7v-4.2c0-6.3,5.1-11.5,11.5-11.5h-10.1c-6.3,0-11.5,5.1-11.5,11.5v4.2
		c0,6.3,5.1,11.5,11.5,11.5h10.1C376.9,209.2,371.8,204.1,371.8,197.7z"/>
	<path id="XMLID_168_" class="st3" d="M422.8,209.2h-49.7c-6.3,0-11.5-5.1-11.5-11.5v-4.2c0-6.3,5.1-11.5,11.5-11.5h49.7
		c6.3,0,11.5,5.1,11.5,11.5v4.2C434.3,204.1,429.1,209.2,422.8,209.2z"/>
</g>
<line id="XMLID_81_" class="st7" x1="380.7" y1="192.6" x2="380.7" y2="195.3"/>
<g id="XMLID_157_">
	<g id="XMLID_156_">
		<path id="XMLID_155_" class="st5" d="M420.2,236.2h-51.5c-8.7,0-15.7-7-15.7-15.7v0c0-8.7,7-15.7,15.7-15.7h51.5
			c8.7,0,15.7,7,15.7,15.7v0C435.9,229.2,428.9,236.2,420.2,236.2z"/>
		<path id="XMLID_275_" class="st13" d="M365.2,220.5L365.2,220.5c0-8.7,6.5-15.7,14.5-15.7h-12.1c-8,0-14.5,7-14.5,15.7v0
			c0,8.7,6.5,15.7,14.5,15.7h12.1C371.7,236.2,365.2,229.2,365.2,220.5z"/>
		<path id="XMLID_128_" class="st3" d="M420.2,236.2h-51.5c-8.7,0-15.7-7-15.7-15.7v0c0-8.7,7-15.7,15.7-15.7h51.5
			c8.7,0,15.7,7,15.7,15.7v0C435.9,229.2,428.9,236.2,420.2,236.2z"/>
	</g>
</g>
<path id="XMLID_204_" class="st13" d="M447.2,169.7c0.1-0.8,0.2-1.5,0.2-2.3c0-10.4-8.4-18.8-18.8-18.8c-4.4,0-8.4,1.5-11.6,4
	c-2.2-0.9-4.6-1.4-7.2-1.4c-6.9,0-12.9,3.7-16.2,9.3c-2.2-1-4.7-1.3-7.3-1c-6,0.8-10.8,5.8-11.5,11.9c-0.8,8.1,5.5,14.9,13.4,14.9
	c3.1,0,6-1.1,8.3-2.9c3.4,3.4,8.1,5.5,13.3,5.5c0.7,0,1.3,0,2-0.1v0.1l0,0c5.1,0,9.3,4.2,9.3,9.3v63.3c0,7.3,5.9,13.2,13.2,13.2h0
	c7.3,0,13.2-5.9,13.2-13.2v-89.4C447.5,171.3,447.4,170.5,447.2,169.7z"/>
<path id="XMLID_47_" class="st3" d="M447.2,169.7c0.1-0.8,0.2-1.5,0.2-2.3c0-10.4-8.4-18.8-18.8-18.8c-4.4,0-8.4,1.5-11.6,4
	c-2.2-0.9-4.6-1.4-7.2-1.4c-6.9,0-12.9,3.7-16.2,9.3c-2.2-1-4.7-1.3-7.3-1c-6,0.8-10.8,5.8-11.5,11.9c-0.8,8.1,5.5,14.9,13.4,14.9
	c3.1,0,6-1.1,8.3-2.9c3.4,3.4,8.1,5.5,13.3,5.5c0.7,0,1.3,0,2-0.1v0.1l0,0c5.1,0,9.3,4.2,9.3,9.3v63.3c0,7.3,5.9,13.2,13.2,13.2h0
	c7.3,0,13.2-5.9,13.2-13.2v-89.4C447.5,171.3,447.4,170.5,447.2,169.7z"/>
<line id="XMLID_11_" class="st7" x1="377.7" y1="217.6" x2="377.7" y2="223"/>
<ellipse class="st13" cx="406.2" cy="649.7" rx="38.9" ry="24.1"/>
</svg>
