<?xml version="1.0" encoding="utf-8"?>
<!-- Generator: Adobe Illustrator 23.1.1, SVG Export Plug-In . SVG Version: 6.00 Build 0)  -->
<svg version="1.1" id="Layer_1" xmlns="http://www.w3.org/2000/svg" xmlns:xlink="http://www.w3.org/1999/xlink" x="0px" y="0px"
	 viewBox="0 0 1000 1000" style="enable-background:new 0 0 1000 1000;" xml:space="preserve">
<style type="text/css">
	.st0{fill:#413E51;}
	.st1{fill:#EEF2F4;}
	.st2{opacity:0.86;fill:#2D2C3A;}
	.st3{fill:#8E9091;}
	.st4{opacity:0.91;fill:#95A0C6;}
	.st5{fill:none;stroke:#192244;stroke-width:6;stroke-linecap:round;stroke-linejoin:round;stroke-miterlimit:10;}
	.st6{fill:#55C9FF;}
	.st7{fill:none;stroke:#26A7BC;stroke-width:4;stroke-linecap:round;stroke-linejoin:round;stroke-miterlimit:10;}
	.st8{fill:#49C6F2;}
	.st9{fill:#26A7BC;}
	.st10{fill:#404A6E;}
	.st11{fill:#273052;}
	.st12{fill:none;stroke:#192244;stroke-width:4;stroke-linecap:round;stroke-linejoin:round;stroke-miterlimit:10;}
	.st13{opacity:0.91;fill:#6D7493;}
	.st14{fill:none;stroke:#192244;stroke-width:7;stroke-linecap:round;stroke-linejoin:round;stroke-miterlimit:10;}
	.st15{fill:none;stroke:#F6537F;stroke-width:4;stroke-linecap:round;stroke-linejoin:round;stroke-miterlimit:10;}
	.st16{fill:none;stroke:#F6537F;stroke-width:5;stroke-linecap:round;stroke-linejoin:round;stroke-miterlimit:10;}
	.st17{fill:none;stroke:#F6537F;stroke-width:2;stroke-linejoin:round;stroke-miterlimit:10;}
	.st18{fill:#2EC2F1;}
	.st19{fill:#FFFFFF;}
	.st20{fill:none;stroke:#F6537F;stroke-width:2;stroke-linecap:round;stroke-linejoin:round;stroke-miterlimit:10;}
</style>
<rect id="XMLID_1_" class="st0" width="1000" height="1000"/>
<g>
	<g>
		<g>
			<path class="st1" d="M63.2,959.2c0,2.5-1.2,3.7-2.6,3.7c-1.1,0-1.9-0.5-2.1-1.4c-0.4,0.5-1,0.8-1.8,0.8c-1.5,0-2.6-1.2-2.6-2.8
				c0-1.6,1.1-2.8,2.6-2.8c0.7,0,1.2,0.3,1.6,0.7v-0.5h1.6v3.9c0,0.8,0.3,1.4,1,1.4c0.9,0,1.7-0.9,1.7-3c0-3-2.3-5.3-5.4-5.3
				c-3.1,0-5.6,2.4-5.6,5.7c0,3.3,2.5,5.7,5.9,5.7c1.1,0,2.1-0.2,2.9-0.4v0.6c-0.8,0.3-1.7,0.4-2.9,0.4c-3.7,0-6.5-2.6-6.5-6.2
				c0-3.4,2.7-6.2,6.2-6.2C61.1,953.3,63.2,956.4,63.2,959.2z M58.3,959.5c0-0.8-0.6-1.4-1.3-1.4c-0.8,0-1.3,0.5-1.3,1.4
				c0,0.8,0.6,1.3,1.3,1.3C57.8,960.9,58.3,960.3,58.3,959.5z"/>
		</g>
		<g>
			<path class="st1" d="M69.4,955.1v2c-1.2-0.1-2.6,0.5-2.6,2.4v4.3h-1.9v-8.6h1.9v1.4C67.3,955.5,68.3,955.1,69.4,955.1z"/>
		</g>
		<g>
			<path class="st1" d="M74.6,962.3c1,0,1.8-0.5,2.2-1.1l1.5,0.9c-0.8,1.2-2.1,1.9-3.8,1.9c-2.8,0-4.7-1.9-4.7-4.5
				c0-2.5,1.8-4.5,4.5-4.5c2.6,0,4.3,2.1,4.3,4.5c0,0.3,0,0.5-0.1,0.8h-6.8C72.1,961.6,73.2,962.3,74.6,962.3z M76.9,958.8
				c-0.3-1.5-1.3-2.1-2.5-2.1c-1.4,0-2.3,0.8-2.6,2.1H76.9z"/>
		</g>
		<g>
			<path class="st1" d="M88.9,955.2v8.6h-1.9v-1.2c-0.7,0.9-1.7,1.5-3,1.5c-2.3,0-4.3-2-4.3-4.5c0-2.6,1.9-4.5,4.3-4.5
				c1.3,0,2.3,0.5,3,1.4v-1.2H88.9z M87.1,959.5c0-1.6-1.2-2.7-2.7-2.7c-1.5,0-2.7,1.1-2.7,2.7c0,1.6,1.2,2.7,2.7,2.7
				C85.9,962.3,87.1,961.1,87.1,959.5z"/>
		</g>
		<g>
			<path class="st1" d="M91.1,951.3H93v12.5h-1.9V951.3z"/>
		</g>
		<g>
			<path class="st1" d="M102.9,955.2l-3.3,8.6h-2.1l-3.3-8.6h2l2.4,6.5l2.4-6.5H102.9z"/>
		</g>
		<g>
			<path class="st1" d="M104.2,955.2h1.9v8.9c0,2.4-1.2,3.5-3.5,3.3v-1.8c1.1,0.1,1.7-0.3,1.7-1.5V955.2z M104,952.8
				c0-0.7,0.5-1.2,1.2-1.2c0.7,0,1.2,0.5,1.2,1.2c0,0.6-0.5,1.2-1.2,1.2C104.5,954,104,953.4,104,952.8z"/>
		</g>
		<g>
			<path class="st1" d="M116,955.2l-3.3,8.8c-0.8,2.2-2.2,3.3-4.2,3.2v-1.7c1.2,0.1,1.9-0.5,2.3-1.7l0.1-0.2l-3.6-8.4h2l2.6,6.2
				l2.2-6.2H116z"/>
		</g>
	</g>
	<g>
		<path class="st1" d="M211.9,938.7c0,2.1-1.5,3.8-3.6,3.8h-3v-7.6h3C210.4,934.9,211.9,936.6,211.9,938.7z M210.9,938.7
			c0-1.6-1.1-2.9-2.6-2.9h-2v5.7h2C209.8,941.6,210.9,940.3,210.9,938.7z"/>
		<path class="st1" d="M219.5,940.8h-3.4l-0.6,1.7h-1.1l2.8-7.6h1.1l2.8,7.6h-1.1L219.5,940.8z M219.2,939.9l-1.4-3.8l-1.4,3.8
			H219.2z"/>
		<path class="st1" d="M226.4,939.4v3.1h-1v-3.1l-2.7-4.5h1.1l2.1,3.6l2.1-3.6h1.1L226.4,939.4z"/>
		<path class="st1" d="M239.5,934.9v7.6h-1V936l-1.6,0.5l-0.3-0.9l2-0.7H239.5z"/>
		<path class="st1" d="M247.8,938.8L247.8,938.8l-2.5,3.7h-1.1l1.8-2.7c-0.1,0-0.2,0-0.4,0c-1.5,0-2.6-1-2.6-2.6
			c0-1.5,1.1-2.6,2.6-2.6s2.6,1,2.6,2.6C248.2,937.9,248.1,938.4,247.8,938.8z M245.6,938.9c1,0,1.6-0.6,1.6-1.6s-0.7-1.6-1.6-1.6
			s-1.6,0.6-1.6,1.6C244,938.3,244.6,938.9,245.6,938.9z"/>
	</g>
	<g>
		<path class="st1" d="M58.9,938.7c0,2.1-1.5,3.8-3.6,3.8h-3v-7.6h3C57.4,934.9,58.9,936.6,58.9,938.7z M57.9,938.7
			c0-1.6-1.1-2.9-2.6-2.9h-2v5.7h2C56.8,941.6,57.9,940.3,57.9,938.7z"/>
		<path class="st1" d="M67,941.6v1h-4.6v-7.6h4.5v1h-3.5v2.3h3.2v0.9h-3.2v2.4H67z"/>
		<path class="st1" d="M70,940.8l0.9-0.5c0.3,0.8,0.9,1.4,2,1.4c1.1,0,1.6-0.5,1.6-1.2c0-0.8-0.7-1-1.8-1.4
			c-1.2-0.4-2.4-0.8-2.4-2.2c0-1.4,1.1-2.2,2.4-2.2c1.3,0,2.2,0.7,2.6,1.7l-0.8,0.5c-0.3-0.7-0.8-1.2-1.7-1.2
			c-0.8,0-1.4,0.4-1.4,1.1c0,0.7,0.5,1,1.6,1.3c1.3,0.4,2.6,0.8,2.6,2.3c0,1.3-1.1,2.2-2.6,2.2C71.5,942.7,70.4,941.9,70,940.8z"/>
		<path class="st1" d="M80,934.9v7.6h-1v-7.6H80z"/>
		<path class="st1" d="M91.3,939.2c0,1.9-1.4,3.5-3.7,3.5c-2.4,0-4-1.8-4-4c0-2.2,1.7-4,4-4c1.4,0,2.7,0.8,3.3,1.8l-0.9,0.5
			c-0.4-0.8-1.4-1.4-2.4-1.4c-1.8,0-3,1.3-3,3c0,1.7,1.2,3,3,3c1.6,0,2.5-0.9,2.7-2h-2.8v-0.9h3.8V939.2z"/>
		<path class="st1" d="M100.6,934.9v7.6h-0.8l-3.9-5.7v5.7h-1v-7.6h0.8l3.9,5.7v-5.7H100.6z"/>
		<path class="st1" d="M109.1,941.6v1h-4.6v-7.6h4.5v1h-3.5v2.3h3.2v0.9h-3.2v2.4H109.1z"/>
		<path class="st1" d="M119.2,938.7c0,2.1-1.5,3.8-3.6,3.8h-3v-7.6h3C117.6,934.9,119.2,936.6,119.2,938.7z M118.2,938.7
			c0-1.6-1.1-2.9-2.6-2.9h-2v5.7h2C117.1,941.6,118.2,940.3,118.2,938.7z"/>
		<path class="st1" d="M133.2,940.4c0,1.2-1,2.2-2.2,2.2h-3.3v-7.6h3c1.2,0,2.1,0.9,2.1,2.1c0,0.7-0.3,1.2-0.8,1.6
			C132.7,938.9,133.2,939.5,133.2,940.4z M128.7,935.8v2.3h2c0.6,0,1.1-0.5,1.1-1.2c0-0.6-0.5-1.2-1.1-1.2H128.7z M132.2,940.3
			c0-0.7-0.5-1.2-1.2-1.2h-2.3v2.5h2.3C131.7,941.6,132.2,941,132.2,940.3z"/>
		<path class="st1" d="M139.4,939.4v3.1h-1v-3.1l-2.7-4.5h1.1l2.1,3.6l2.1-3.6h1.1L139.4,939.4z"/>
	</g>
	<g>
		<path class="st1" d="M212.7,961.8h-5.3l-0.9,2.5h-2.2l4.5-12.4h2.4l4.5,12.4h-2.2L212.7,961.8z M212,959.9l-2-5.6l-2,5.6H212z"/>
		<path class="st1" d="M226.3,959.9c0,2.6-2,4.7-4.4,4.7c-1.4,0-2.4-0.6-3.1-1.5v4.8h-1.9v-12.4h1.9v1.3c0.7-0.9,1.7-1.5,3.1-1.5
			C224.3,955.2,226.3,957.3,226.3,959.9z M224.4,959.9c0-1.6-1.2-2.8-2.8-2.8c-1.6,0-2.8,1.2-2.8,2.8c0,1.6,1.2,2.8,2.8,2.8
			C223.2,962.7,224.4,961.5,224.4,959.9z"/>
		<path class="st1" d="M237.5,959.9c0,2.6-2,4.7-4.4,4.7c-1.4,0-2.4-0.6-3.1-1.5v4.8h-1.9v-12.4h1.9v1.3c0.7-0.9,1.7-1.5,3.1-1.5
			C235.5,955.2,237.5,957.3,237.5,959.9z M235.6,959.9c0-1.6-1.2-2.8-2.8-2.8c-1.6,0-2.8,1.2-2.8,2.8c0,1.6,1.2,2.8,2.8,2.8
			C234.4,962.7,235.6,961.5,235.6,959.9z"/>
		<path class="st1" d="M239.2,951.4h1.9v12.9h-1.9V951.4z"/>
		<path class="st1" d="M247.7,962.8c1.1,0,1.9-0.5,2.3-1.1l1.6,0.9c-0.8,1.2-2.1,1.9-3.9,1.9c-2.9,0-4.8-2-4.8-4.7
			c0-2.6,1.9-4.7,4.7-4.7c2.6,0,4.4,2.1,4.4,4.7c0,0.3,0,0.5-0.1,0.8h-7C245.2,962.1,246.3,962.8,247.7,962.8z M250.1,959.1
			c-0.3-1.5-1.4-2.2-2.5-2.2c-1.4,0-2.4,0.8-2.7,2.2H250.1z"/>
		<path class="st1" d="M257.3,951.9h2.1l2.6,9.7l2.8-9.7h1.9l2.8,9.7l2.6-9.7h2.1l-3.5,12.4h-2.4l-2.6-9l-2.6,9h-2.4L257.3,951.9z"
			/>
		<path class="st1" d="M283.6,955.4v8.9h-1.9V963c-0.7,0.9-1.7,1.5-3.1,1.5c-2.4,0-4.4-2-4.4-4.7c0-2.6,2-4.7,4.4-4.7
			c1.4,0,2.4,0.6,3.1,1.5v-1.3H283.6z M281.7,959.9c0-1.6-1.2-2.8-2.8-2.8c-1.6,0-2.8,1.2-2.8,2.8c0,1.6,1.2,2.8,2.8,2.8
			C280.5,962.7,281.7,961.5,281.7,959.9z"/>
		<path class="st1" d="M288.6,957.3v4.2c0,1.1,0.7,1.1,2.2,1v1.7c-2.9,0.4-4.1-0.5-4.1-2.8v-4.2h-1.6v-1.8h1.6v-1.9l1.9-0.6v2.5h2.2
			v1.8H288.6z"/>
		<path class="st1" d="M291.7,959.9c0-2.6,2-4.7,4.7-4.7c1.7,0,3.2,0.9,3.9,2.3l-1.6,1c-0.4-0.8-1.3-1.4-2.3-1.4
			c-1.6,0-2.7,1.2-2.7,2.8c0,1.6,1.2,2.8,2.7,2.8c1.1,0,1.9-0.5,2.4-1.4l1.6,0.9c-0.7,1.4-2.2,2.3-4,2.3
			C293.7,964.5,291.7,962.5,291.7,959.9z"/>
		<path class="st1" d="M309.8,958.9v5.4h-1.9v-5.2c0-1.3-0.8-2.1-2-2.1c-1.3,0-2.2,0.7-2.2,2.5v4.7h-1.9v-12.4h1.9v4.7
			c0.6-0.9,1.5-1.4,2.7-1.4C308.4,955.2,309.8,956.6,309.8,958.9z"/>
	</g>
	<g>
		<g>
			<path class="st1" d="M846.1,938.7c0,2.1-1.5,3.8-3.6,3.8h-3v-7.6h3C844.6,934.9,846.1,936.6,846.1,938.7z M845.2,938.7
				c0-1.6-1.1-2.9-2.6-2.9h-2v5.7h2C844.1,941.6,845.2,940.3,845.2,938.7z"/>
		</g>
		<g>
			<path class="st1" d="M849.3,938.7c0-2.2,1.7-4,3.9-4c2.2,0,4,1.8,4,4c0,2.2-1.7,4-4,4C851,942.7,849.3,940.9,849.3,938.7z
				 M856.1,938.7c0-1.7-1.3-3-2.9-3c-1.7,0-2.9,1.3-2.9,3c0,1.7,1.3,3,2.9,3C854.9,941.7,856.1,940.4,856.1,938.7z"/>
		</g>
		<g>
			<path class="st1" d="M859.8,934.9h1.1l1.7,6.3l1.9-6.3h1l1.9,6.3l1.7-6.3h1.1l-2.2,7.6h-1.2l-1.8-6.1l-1.8,6.1H862L859.8,934.9z"
				/>
		</g>
		<g>
			<path class="st1" d="M879.3,934.9v7.6h-0.8l-3.9-5.7v5.7h-1v-7.6h0.8l3.9,5.7v-5.7H879.3z"/>
		</g>
		<g>
			<path class="st1" d="M887.5,941.6v1h-4.3v-7.6h1v6.7H887.5z"/>
		</g>
		<g>
			<path class="st1" d="M889.9,938.7c0-2.2,1.7-4,3.9-4c2.2,0,4,1.8,4,4c0,2.2-1.7,4-4,4C891.6,942.7,889.9,940.9,889.9,938.7z
				 M896.8,938.7c0-1.7-1.3-3-2.9-3c-1.7,0-2.9,1.3-2.9,3c0,1.7,1.3,3,2.9,3C895.5,941.7,896.8,940.4,896.8,938.7z"/>
		</g>
		<g>
			<path class="st1" d="M905.4,940.8H902l-0.6,1.7h-1.1l2.8-7.6h1.1l2.8,7.6H906L905.4,940.8z M905.1,939.9l-1.4-3.8l-1.4,3.8H905.1
				z"/>
		</g>
		<g>
			<path class="st1" d="M916.9,938.7c0,2.1-1.5,3.8-3.6,3.8h-3v-7.6h3C915.4,934.9,916.9,936.6,916.9,938.7z M915.9,938.7
				c0-1.6-1.1-2.9-2.6-2.9h-2v5.7h2C914.9,941.6,915.9,940.3,915.9,938.7z"/>
		</g>
		<g>
			<path class="st1" d="M926.5,935.8v2.5h3.2v1h-3.2v3.2h-1v-7.6h4.4v1H926.5z"/>
		</g>
		<g>
			<path class="st1" d="M936.2,939.6h-1.8v2.9h-1v-7.6h3c1.3,0,2.4,1.1,2.4,2.4c0,1-0.7,1.9-1.6,2.2l1.8,3.1h-1.1L936.2,939.6z
				 M934.4,938.7h2c0.8,0,1.4-0.6,1.4-1.4c0-0.8-0.6-1.4-1.4-1.4h-2V938.7z"/>
		</g>
		<g>
			<path class="st1" d="M941.9,938.7c0-2.2,1.7-4,3.9-4c2.2,0,4,1.8,4,4c0,2.2-1.7,4-4,4C943.6,942.7,941.9,940.9,941.9,938.7z
				 M948.8,938.7c0-1.7-1.3-3-2.9-3c-1.7,0-2.9,1.3-2.9,3c0,1.7,1.3,3,2.9,3C947.5,941.7,948.8,940.4,948.8,938.7z"/>
		</g>
		<g>
			<path class="st1" d="M960.4,942.5h-1v-6l-2.5,4.2h-0.1l-2.5-4.1v5.9h-1v-7.6h1.1l2.4,4l2.4-4h1.1V942.5z"/>
		</g>
	</g>
	<g>
		<g>
			<path class="st1" d="M839.3,952.9c0-0.7,0.5-1.2,1.2-1.2c0.7,0,1.2,0.5,1.2,1.2c0,0.7-0.5,1.2-1.2,1.2
				C839.9,954.1,839.3,953.6,839.3,952.9z M839.6,955.4h1.9v8.9h-1.9V955.4z"/>
		</g>
		<g>
			<path class="st1" d="M843.7,951.4h1.9v12.9h-1.9V951.4z"/>
		</g>
		<g>
			<path class="st1" d="M847.8,951.4h1.9v12.9h-1.9V951.4z"/>
		</g>
		<g>
			<path class="st1" d="M852,951.4h1.9v12.9H852V951.4z"/>
		</g>
		<g>
			<path class="st1" d="M864,955.4v8.9h-1.9v-1.1c-0.6,0.9-1.5,1.4-2.7,1.4c-2,0-3.4-1.3-3.4-3.6v-5.4h1.9v5.2c0,1.3,0.8,2.1,2,2.1
				c1.3,0,2.2-0.7,2.2-2.5v-4.7H864z"/>
		</g>
		<g>
			<path class="st1" d="M872.6,961.8c0,1.8-1.5,2.7-3.5,2.7c-1.8,0-3-0.8-3.6-2.1l1.6-1c0.3,0.8,1,1.3,2,1.3c0.8,0,1.5-0.3,1.5-1
				c0-1.6-4.8-0.7-4.8-3.9c0-1.7,1.4-2.7,3.2-2.7c1.5,0,2.7,0.7,3.3,1.8l-1.6,0.9c-0.3-0.7-0.9-1-1.7-1c-0.7,0-1.3,0.3-1.3,0.9
				C867.9,959.5,872.6,958.5,872.6,961.8z"/>
		</g>
		<g>
			<path class="st1" d="M876.7,957.3v4.2c0,1.1,0.7,1.1,2.2,1v1.7c-2.9,0.4-4.1-0.5-4.1-2.8v-4.2h-1.6v-1.8h1.6v-1.9l1.9-0.6v2.5
				h2.2v1.8H876.7z"/>
		</g>
		<g>
			<path class="st1" d="M885.4,955.3v2.1c-1.3-0.1-2.7,0.5-2.7,2.5v4.5h-1.9v-8.9h1.9v1.5C883.2,955.7,884.2,955.3,885.4,955.3z"/>
		</g>
		<g>
			<path class="st1" d="M895.3,955.4v8.9h-1.9V963c-0.7,0.9-1.7,1.5-3.1,1.5c-2.4,0-4.4-2-4.4-4.7c0-2.6,2-4.7,4.4-4.7
				c1.4,0,2.4,0.6,3.1,1.5v-1.3H895.3z M893.4,959.9c0-1.6-1.2-2.8-2.8-2.8c-1.6,0-2.8,1.2-2.8,2.8c0,1.6,1.2,2.8,2.8,2.8
				C892.2,962.7,893.4,961.5,893.4,959.9z"/>
		</g>
		<g>
			<path class="st1" d="M900.3,957.3v4.2c0,1.1,0.7,1.1,2.2,1v1.7c-2.9,0.4-4.1-0.5-4.1-2.8v-4.2h-1.6v-1.8h1.6v-1.9l1.9-0.6v2.5
				h2.2v1.8H900.3z"/>
		</g>
		<g>
			<path class="st1" d="M903.9,952.9c0-0.7,0.5-1.2,1.2-1.2c0.7,0,1.2,0.5,1.2,1.2c0,0.7-0.5,1.2-1.2,1.2
				C904.5,954.1,903.9,953.6,903.9,952.9z M904.2,955.4h1.9v8.9h-1.9V955.4z"/>
		</g>
		<g>
			<path class="st1" d="M907.8,959.9c0-2.6,2.1-4.7,4.7-4.7c2.6,0,4.7,2,4.7,4.7c0,2.6-2.1,4.7-4.7,4.7
				C909.9,964.5,907.8,962.5,907.8,959.9z M915.3,959.9c0-1.6-1.2-2.8-2.8-2.8c-1.6,0-2.8,1.2-2.8,2.8c0,1.6,1.2,2.8,2.8,2.8
				C914.1,962.7,915.3,961.5,915.3,959.9z"/>
		</g>
		<g>
			<path class="st1" d="M927,958.9v5.4h-1.9v-5.2c0-1.3-0.8-2.1-2-2.1c-1.3,0-2.2,0.7-2.2,2.5v4.7h-1.9v-8.9h1.9v1.1
				c0.6-0.9,1.5-1.4,2.7-1.4C925.5,955.2,927,956.6,927,958.9z"/>
		</g>
		<g>
			<path class="st1" d="M935.5,961.8c0,1.8-1.5,2.7-3.5,2.7c-1.8,0-3-0.8-3.6-2.1l1.6-1c0.3,0.8,1,1.3,2,1.3c0.8,0,1.5-0.3,1.5-1
				c0-1.6-4.8-0.7-4.8-3.9c0-1.7,1.4-2.7,3.2-2.7c1.5,0,2.7,0.7,3.3,1.8l-1.6,0.9c-0.3-0.7-0.9-1-1.7-1c-0.7,0-1.3,0.3-1.3,0.9
				C930.7,959.5,935.5,958.5,935.5,961.8z"/>
		</g>
		<g>
			<path class="st1" d="M936.8,963.2c0-0.7,0.6-1.3,1.3-1.3c0.7,0,1.3,0.6,1.3,1.3c0,0.7-0.6,1.3-1.3,1.3
				C937.4,964.5,936.8,963.9,936.8,963.2z"/>
		</g>
		<g>
			<path class="st1" d="M940.3,959.9c0-2.6,2-4.7,4.7-4.7c1.7,0,3.2,0.9,3.9,2.3l-1.6,1c-0.4-0.8-1.3-1.4-2.3-1.4
				c-1.6,0-2.7,1.2-2.7,2.8c0,1.6,1.2,2.8,2.7,2.8c1.1,0,1.9-0.5,2.4-1.4l1.6,0.9c-0.7,1.4-2.2,2.3-4,2.3
				C942.3,964.5,940.3,962.5,940.3,959.9z"/>
		</g>
		<g>
			<path class="st1" d="M949.7,959.9c0-2.6,2.1-4.7,4.7-4.7c2.6,0,4.7,2,4.7,4.7c0,2.6-2.1,4.7-4.7,4.7
				C951.8,964.5,949.7,962.5,949.7,959.9z M957.2,959.9c0-1.6-1.2-2.8-2.8-2.8s-2.8,1.2-2.8,2.8c0,1.6,1.2,2.8,2.8,2.8
				S957.2,961.5,957.2,959.9z"/>
		</g>
	</g>
</g>
<ellipse id="XMLID_3_" class="st2" cx="497.4" cy="719.9" rx="133.9" ry="18.6"/>
<path id="XMLID_14_" class="st3" d="M628.7,411.1h-3.2c-1.8,0-3.5,0.8-4.5,2.2c-5,7.2-5.7,15.7-5.7,24.8c0,9.1,0.7,17.6,5.7,24.8
	c1,1.4,2.7,2.2,4.5,2.2h3.2c1.9,0,3.7-1.4,4.1-3.1c3-15.8,2.2-32.1,0-47.8C632.5,412.5,630.6,411.1,628.7,411.1z"/>
<path id="XMLID_15_" class="st4" d="M628.7,411.1h-3.2c-1.8,0-3.5,0.8-4.5,2.2c-5,7.2-5.7,15.7-5.7,24.8c0,9.1,0.7,17.6,5.7,24.8
	c1,1.4,2.7,2.2,4.5,2.2h3.2c1.9,0,3.7-1.4,4.1-3.1c3-15.8,2.2-32.1,0-47.8C632.5,412.5,630.6,411.1,628.7,411.1z"/>
<path id="XMLID_11_" class="st5" d="M628.7,411.1h-3.2c-1.8,0-3.5,0.8-4.5,2.2c-5,7.2-5.7,15.7-5.7,24.8c0,9.1,0.7,17.6,5.7,24.8
	c1,1.4,2.7,2.2,4.5,2.2h3.2c1.9,0,3.7-1.4,4.1-3.1c3-15.8,2.2-32.1,0-47.8C632.5,412.5,630.6,411.1,628.7,411.1z"/>
<path id="XMLID_13_" class="st6" d="M579.3,331.5c-3.4-11.3-3.8-21.8-4.2-28.8c-0.3-6-0.1-24-5.1-29.2c-4.4-4.6-8.5-7.8-28.5-10.8
	c-10.8-1.6-27.8-3.7-43.8-4c-16,0.3-33,2.3-43.8,4c-20,3-24,6.2-28.5,10.8c-5,5.1-4.8,23.1-5.1,29.2c-0.4,7-0.8,17.5-4.2,28.8
	c-1.6,5.3-3.6,10.4-6,15.3h87.7h87.7C582.9,342,580.9,336.8,579.3,331.5z"/>
<path id="XMLID_10_" class="st7" d="M579.3,331.5c-3.4-11.3-3.8-21.8-4.2-28.8c-0.3-6-0.1-24-5.1-29.2c-4.4-4.6-8.5-7.8-28.5-10.8
	c-10.8-1.6-27.8-3.7-43.8-4c-16,0.3-33,2.3-43.8,4c-20,3-24,6.2-28.5,10.8c-5,5.1-4.8,23.1-5.1,29.2c-0.4,7-0.8,17.5-4.2,28.8
	c-1.6,5.3-3.6,10.4-6,15.3h87.7h87.7C582.9,342,580.9,336.8,579.3,331.5z"/>
<path id="XMLID_48_" class="st8" d="M579.3,651.6c-3.4,11.3-3.8,21.8-4.2,28.8c-0.3,6-0.1,24-5.1,29.2c-4.4,4.6-8.5,7.8-28.5,10.8
	c-10.8,1.6-27.8,3.7-43.8,4c-16-0.3-33-2.3-43.8-4c-20-3-24-6.2-28.5-10.8c-5-5.1-4.8-23.1-5.1-29.2c-0.4-7-0.8-17.5-4.2-28.8
	c-1.6-5.3-3.6-10.4-6-15.3h87.7h87.7C582.9,641.2,580.9,646.3,579.3,651.6z"/>
<path id="XMLID_62_" class="st9" d="M410,636.3c2.3,4.6,4.2,9.5,5.8,14.5h163.8c1.6-5,3.5-9.9,5.8-14.5h-87.7H410z"/>
<path id="XMLID_31_" class="st7" d="M579.3,651.6c-3.4,11.3-3.8,21.8-4.2,28.8c-0.3,6-0.1,24-5.1,29.2c-4.4,4.6-8.5,7.8-28.5,10.8
	c-10.8,1.6-27.8,3.7-43.8,4c-16-0.3-33-2.3-43.8-4c-20-3-24-6.2-28.5-10.8c-5-5.1-4.8-23.1-5.1-29.2c-0.4-7-0.8-17.5-4.2-28.8
	c-1.6-5.3-3.6-10.4-6-15.3h87.7h87.7C582.9,641.2,580.9,646.3,579.3,651.6z"/>
<path id="XMLID_9_" class="st10" d="M577.1,636.3H417.7c-24.3,0-44-19.7-44-44v-202c0-24.3,19.7-44,44-44h159.4
	c24.3,0,44,19.7,44,44v202C621.1,616.6,601.4,636.3,577.1,636.3z"/>
<path id="XMLID_43_" class="st11" d="M577.1,618.3H417.7c-24.3,0-44-19.7-44-44v18c0,24.3,19.7,44,44,44h159.4c24.3,0,44-19.7,44-44
	v-18C621.1,598.6,601.4,618.3,577.1,618.3z"/>
<path id="XMLID_12_" class="st10" d="M389.3,592.3v-202c0-15.5,12.5-28,28-28h160.2c15.5,0,28,12.5,28,28v202c0,15.5-12.5,28-28,28
	H417.3C401.8,620.3,389.3,607.8,389.3,592.3z"/>
<path id="XMLID_6_" class="st12" d="M389.3,592.3v-202c0-15.5,12.5-28,28-28h160.2c15.5,0,28,12.5,28,28v202c0,15.5-12.5,28-28,28
	H417.3C401.8,620.3,389.3,607.8,389.3,592.3z"/>
<path id="XMLID_27_" class="st13" d="M601.6,353c-7-4.2-15.4-6.7-24.5-6.7H417.7c-9.6,0-18.5,2.8-25.7,7.5
	c6,9.9,17.7,16.5,31.1,16.5H570C583.8,370.3,595.7,363.3,601.6,353z"/>
<path id="XMLID_5_" class="st13" d="M629.9,499.2c0-1.7-1.6-3-3.4-3c-1.8,0-3.5,0-5.3,0v83.3c1.8,0,3.5,0,5.3,0c1.9,0,3.4-1.3,3.4-3
	C630.4,550.8,630.4,525,629.9,499.2z"/>
<path id="XMLID_17_" class="st5" d="M629.9,499.2c0-1.7-1.6-3-3.4-3c-1.8,0-3.5,0-5.3,0v83.3c1.8,0,3.5,0,5.3,0c1.9,0,3.4-1.3,3.4-3
	C630.4,550.8,630.4,525,629.9,499.2z"/>
<path id="XMLID_2_" class="st14" d="M577.1,636.3H417.7c-24.3,0-44-19.7-44-44v-202c0-24.3,19.7-44,44-44h159.4
	c24.3,0,44,19.7,44,44v202C621.1,616.6,601.4,636.3,577.1,636.3z"/>
<path id="XMLID_20_" class="st15" d="M438.4,426.9v7.2c0,2.2-1.8,4-4,4h-15.3c-2.2,0-4-1.8-4-4v-15.3c0-2.2,1.8-4,4-4h10.8"/>
<polyline id="XMLID_16_" class="st16" points="421.8,423.5 427.7,429.3 438.4,416 "/>
<line id="XMLID_19_" class="st17" x1="413" y1="458" x2="478.6" y2="458"/>
<g>
	<g>
		<path class="st18" d="M442.7,465.5v33.9c0,1.4-0.1,2.7-0.2,3.9c-0.2,1.2-0.4,2.2-0.7,3.1c-0.6,1.4-1.3,2.6-2.3,3.8
			s-2.1,2.1-3.4,2.9c-1.3,0.8-2.7,1.4-4.3,1.9c-1.6,0.5-3.2,0.7-5,0.7c-5.2,0-9.5-2.4-12.8-7.2l8.3-8.5c0.2,1.5,0.7,2.6,1.4,3.5
			c0.7,0.9,1.6,1.3,2.7,1.3c2.4,0,3.6-1.9,3.6-5.6v-33.7H442.7z"/>
		<path class="st18" d="M462,481.1v18.7c0,4.1,2,6.1,6,6.1c4,0,6-2,6-6.1v-18.7h11.7v21c0,4.5-1.5,7.9-4.4,10.1
			c-3,2.2-7.4,3.4-13.2,3.4c-5.9,0-10.3-1.1-13.2-3.4c-3-2.2-4.4-5.6-4.4-10.1v-21H462z"/>
		<path class="st18" d="M514.1,489.7c-2.2-1.1-4.3-1.7-6.3-1.7c-1.1,0-2,0.2-2.6,0.6c-0.7,0.4-1,1-1,1.7c0,0.4,0.1,0.7,0.2,0.9
			c0.1,0.2,0.3,0.5,0.7,0.7c0.4,0.2,0.9,0.4,1.6,0.6c0.7,0.2,1.7,0.4,2.8,0.6c3.2,0.6,5.7,1.8,7.2,3.5c1.6,1.7,2.4,3.8,2.4,6.4
			c0,1.9-0.4,3.7-1.2,5.2s-1.9,2.9-3.2,3.9c-1.4,1.1-3,1.9-5,2.5c-1.9,0.6-4.1,0.9-6.4,0.9c-4.5,0-8.9-1.3-13.3-3.8l4.3-8.3
			c3.3,2.2,6.4,3.4,9.3,3.4c1.1,0,2-0.2,2.7-0.7c0.7-0.5,1-1.1,1-1.8c0-0.4-0.1-0.8-0.2-1.1c-0.1-0.3-0.3-0.5-0.7-0.8
			c-0.3-0.2-0.9-0.5-1.5-0.6c-0.7-0.2-1.5-0.4-2.6-0.6c-3.6-0.7-6.2-1.8-7.6-3.3c-1.4-1.4-2.2-3.4-2.2-6c0-1.9,0.3-3.5,1-5
			c0.7-1.5,1.7-2.8,3-3.8c1.3-1,2.9-1.8,4.7-2.4c1.8-0.6,3.9-0.8,6.1-0.8c3.7,0,7.2,0.7,10.7,2.1L514.1,489.7z"/>
		<path class="st18" d="M537.4,490.9v23.4h-11.7v-23.4h-3.9v-9.8h3.9v-10h11.7v10h6.7v9.8H537.4z"/>
	</g>
</g>
<g>
	<path class="st19" d="M417.6,530.8h18.8c3.3,0,6.4,0.7,9.4,2c2.9,1.3,5.5,3.1,7.6,5.3c2.2,2.2,3.9,4.8,5.1,7.8
		c1.3,3,1.9,6.1,1.9,9.3c0,3.2-0.6,6.3-1.8,9.2s-2.9,5.6-5.1,7.8c-2.2,2.2-4.7,4-7.6,5.4c-2.9,1.3-6.1,2-9.4,2h-18.8V530.8z
		 M430.3,568.8h2.9c2.2,0,4.2-0.3,5.9-1c1.7-0.7,3.2-1.6,4.4-2.8c1.2-1.2,2.1-2.6,2.7-4.3c0.6-1.7,0.9-3.5,0.9-5.5
		c0-1.9-0.3-3.8-1-5.4c-0.6-1.7-1.6-3.1-2.8-4.3c-1.2-1.2-2.6-2.2-4.4-2.8c-1.7-0.7-3.7-1-5.8-1h-2.9V568.8z"/>
	<path class="st19" d="M464.5,562.7c0-2.5,0.5-4.8,1.5-6.9c1-2.1,2.4-4,4.1-5.6c1.8-1.6,3.9-2.8,6.3-3.7c2.4-0.9,5.1-1.4,8-1.4
		c2.8,0,5.5,0.4,7.9,1.3c2.4,0.9,4.6,2.1,6.3,3.7c1.8,1.6,3.2,3.5,4.2,5.6c1,2.2,1.5,4.6,1.5,7.2c0,2.6-0.5,5-1.5,7.2
		c-1,2.2-2.4,4.1-4.2,5.6c-1.8,1.6-3.9,2.8-6.4,3.7c-2.5,0.9-5.2,1.3-8.1,1.3c-2.8,0-5.5-0.4-7.9-1.3c-2.4-0.9-4.5-2.1-6.2-3.7
		c-1.7-1.6-3.1-3.5-4.1-5.7C465,567.9,464.5,565.4,464.5,562.7z M476.9,562.8c0,1.1,0.2,2.1,0.6,3.1c0.4,0.9,0.9,1.7,1.6,2.4
		c0.7,0.7,1.5,1.2,2.4,1.6c0.9,0.4,1.9,0.6,2.9,0.6c1,0,2-0.2,2.9-0.6c0.9-0.4,1.7-0.9,2.4-1.6c0.7-0.7,1.2-1.5,1.6-2.4
		c0.4-0.9,0.6-1.9,0.6-3c0-1-0.2-2-0.6-2.9c-0.4-0.9-0.9-1.7-1.6-2.4c-0.7-0.7-1.5-1.2-2.4-1.6c-0.9-0.4-1.9-0.6-2.9-0.6
		c-1,0-2,0.2-2.9,0.6c-0.9,0.4-1.7,0.9-2.4,1.6c-0.7,0.7-1.2,1.5-1.6,2.4C477.1,560.8,476.9,561.8,476.9,562.8z"/>
	<path class="st19" d="M543.8,530.8v48.8h-12.7v-48.8H543.8z"/>
	<path class="st19" d="M564.5,556.1v23.4h-11.7v-23.4h-3.9v-9.8h3.9v-10h11.7v10h6.7v9.8H564.5z"/>
	<path class="st19" d="M573.4,573.3c0-1,0.2-2,0.6-2.9c0.4-0.9,0.9-1.7,1.6-2.4c0.7-0.7,1.5-1.2,2.4-1.6c0.9-0.4,1.9-0.6,2.9-0.6
		s2,0.2,2.9,0.6c0.9,0.4,1.7,0.9,2.4,1.6c0.7,0.7,1.2,1.5,1.6,2.4c0.4,0.9,0.6,1.9,0.6,2.9c0,1-0.2,2-0.6,2.9
		c-0.4,0.9-0.9,1.7-1.6,2.4c-0.7,0.7-1.5,1.2-2.4,1.6c-0.9,0.4-1.9,0.6-2.9,0.6s-2-0.2-2.9-0.6c-0.9-0.4-1.7-0.9-2.4-1.6
		c-0.7-0.7-1.2-1.5-1.6-2.4C573.6,575.4,573.4,574.4,573.4,573.3z"/>
</g>
<g>
	<path class="st19" d="M546,385.7c0,3.5-1.3,5.5-3.6,5.5c-2,0-3.4-1.9-3.4-5.3c0-3.5,1.5-5.4,3.6-5.4
		C544.8,380.4,546,382.4,546,385.7z M540.4,385.9c0,2.7,0.8,4.2,2.1,4.2c1.4,0,2.1-1.7,2.1-4.3c0-2.6-0.7-4.2-2.1-4.2
		C541.3,381.5,540.4,383,540.4,385.9z"/>
	<path class="st19" d="M553.5,381.8h-4l-0.4,2.7c0.2,0,0.5-0.1,0.8-0.1c0.8,0,1.6,0.2,2.2,0.6c0.8,0.5,1.5,1.4,1.5,2.7
		c0,2-1.6,3.6-3.9,3.6c-1.1,0-2.1-0.3-2.6-0.6l0.4-1.1c0.4,0.3,1.3,0.6,2.2,0.6c1.3,0,2.5-0.9,2.5-2.3c0-1.3-0.9-2.3-3-2.3
		c-0.6,0-1.1,0.1-1.4,0.1l0.7-5h5V381.8z"/>
	<path class="st19" d="M555.7,384.6c0-0.6,0.4-1,1-1c0.6,0,0.9,0.4,0.9,1c0,0.6-0.4,1-1,1C556,385.6,555.7,385.1,555.7,384.6z
		 M555.7,390.2c0-0.6,0.4-1,1-1c0.6,0,0.9,0.4,0.9,1c0,0.6-0.4,1-1,1C556,391.2,555.7,390.8,555.7,390.2z"/>
	<path class="st19" d="M565.1,381.8h-4l-0.4,2.7c0.2,0,0.5-0.1,0.8-0.1c0.8,0,1.6,0.2,2.2,0.6c0.8,0.5,1.5,1.4,1.5,2.7
		c0,2-1.6,3.6-3.9,3.6c-1.1,0-2.1-0.3-2.6-0.6l0.4-1.1c0.4,0.3,1.3,0.6,2.2,0.6c1.3,0,2.5-0.9,2.5-2.3c0-1.3-0.9-2.3-3-2.3
		c-0.6,0-1.1,0.1-1.4,0.1l0.7-5h5V381.8z"/>
	<path class="st19" d="M567.1,391v-0.9l1.1-1.1c2.7-2.5,3.9-3.9,3.9-5.4c0-1.1-0.5-2-2.1-2c-0.9,0-1.7,0.5-2.2,0.9l-0.4-1
		c0.7-0.6,1.7-1.1,2.9-1.1c2.2,0,3.2,1.5,3.2,3c0,1.9-1.4,3.5-3.6,5.6l-0.8,0.8v0h4.7v1.2H567.1z"/>
</g>
<g>
	<g>
		<path class="st19" d="M423.1,381.4h-3.3v-1.2h8v1.2h-3.3v9.6h-1.4V381.4z"/>
		<path class="st19" d="M434.8,387.1c0,2.9-2,4.1-3.9,4.1c-2.1,0-3.7-1.5-3.7-4c0-2.6,1.7-4.1,3.8-4.1
			C433.3,383.1,434.8,384.7,434.8,387.1z M428.6,387.2c0,1.7,1,3,2.4,3c1.3,0,2.4-1.3,2.4-3c0-1.3-0.7-3-2.3-3
			C429.4,384.2,428.6,385.7,428.6,387.2z"/>
		<path class="st19" d="M443.2,379.7v9.4c0,0.7,0,1.5,0.1,2H442l-0.1-1.3h0c-0.4,0.9-1.4,1.5-2.6,1.5c-1.9,0-3.3-1.6-3.3-3.9
			c0-2.6,1.6-4.2,3.5-4.2c1.2,0,2,0.6,2.3,1.2h0v-4.6H443.2z M441.8,386.4c0-0.2,0-0.4-0.1-0.6c-0.2-0.9-1-1.6-2-1.6
			c-1.5,0-2.3,1.3-2.3,3c0,1.6,0.8,2.9,2.3,2.9c0.9,0,1.8-0.6,2.1-1.7c0-0.2,0.1-0.4,0.1-0.6V386.4z"/>
		<path class="st19" d="M449.9,391l-0.1-1h0c-0.4,0.6-1.3,1.2-2.4,1.2c-1.6,0-2.4-1.1-2.4-2.2c0-1.9,1.7-2.9,4.7-2.9v-0.2
			c0-0.6-0.2-1.8-1.8-1.8c-0.7,0-1.5,0.2-2,0.6l-0.3-0.9c0.6-0.4,1.6-0.7,2.5-0.7c2.4,0,2.9,1.6,2.9,3.2v2.9c0,0.7,0,1.3,0.1,1.9
			H449.9z M449.7,387.1c-1.5,0-3.3,0.2-3.3,1.7c0,0.9,0.6,1.3,1.3,1.3c1,0,1.6-0.6,1.9-1.3c0-0.1,0.1-0.3,0.1-0.4V387.1z"/>
		<path class="st19" d="M453.7,383.3l1.7,4.6c0.2,0.5,0.4,1.1,0.5,1.6h0c0.1-0.5,0.3-1.1,0.5-1.6l1.5-4.5h1.5l-2.1,5.5
			c-1,2.7-1.7,4-2.7,4.9c-0.7,0.6-1.4,0.8-1.7,0.9l-0.4-1.2c0.4-0.1,0.8-0.3,1.2-0.7c0.4-0.3,0.9-0.8,1.2-1.6
			c0.1-0.1,0.1-0.3,0.1-0.3s0-0.2-0.1-0.4l-2.9-7.1H453.7z"/>
	</g>
</g>
<polyline id="XMLID_4_" class="st20" points="413.9,390.8 409,385.9 413.9,381 "/>
</svg>
